<?xml version="1.0" encoding="UTF-8" standalone="no"?><svg xmlns="http://www.w3.org/2000/svg" xmlns:xlink="http://www.w3.org/1999/xlink" contentScriptType="application/ecmascript" contentStyleType="text/css" height="879px" preserveAspectRatio="none" style="width:460px;height:879px;background:#FFFFFF;" version="1.1" viewBox="0 0 460 879" width="460px" zoomAndPan="magnify"><defs><filter height="300%" id="f1oifxnqk2coi3" width="300%" x="-1" y="-1"><feGaussianBlur result="blurOut" stdDeviation="2.0"/><feColorMatrix in="blurOut" result="blurOut2" type="matrix" values="0 0 0 0 0 0 0 0 0 0 0 0 0 0 0 0 0 0 .4 0"/><feOffset dx="4.0" dy="4.0" in="blurOut2" result="blurOut3"/><feBlend in="SourceGraphic" in2="blurOut3" mode="normal"/></filter></defs><g><!--MD5=[02e4b9b7573f1156f41e60aa5b4e25a4]
class Company--><rect codeLine="4" fill="#FEFECE" filter="url(#f1oifxnqk2coi3)" height="53.8359" id="Company" style="stroke:#A80036;stroke-width:1.5;" width="85" x="13.5" y="7"/><ellipse cx="28.5" cy="23" fill="#ADD1B2" rx="11" ry="11" style="stroke:#A80036;stroke-width:1.0;"/><path d="M31.2656,18.875 Q31.4219,18.6563 31.6094,18.5469 Q31.7969,18.4375 32.0156,18.4375 Q32.3906,18.4375 32.625,18.7031 Q32.8594,18.9531 32.8594,19.5625 L32.8594,21.0156 Q32.8594,21.625 32.625,21.8906 Q32.3906,22.1563 32.0156,22.1563 Q31.6719,22.1563 31.4688,21.9531 Q31.2656,21.7656 31.1563,21.25 Q31.1094,20.8906 30.9219,20.7031 Q30.5938,20.3281 29.9844,20.1094 Q29.375,19.8906 28.75,19.8906 Q27.9844,19.8906 27.3438,20.2188 Q26.7188,20.5469 26.2188,21.2969 Q25.7344,22.0469 25.7344,23.0781 L25.7344,24.1719 Q25.7344,25.4063 26.625,26.2344 Q27.5156,27.0469 29.1094,27.0469 Q30.0469,27.0469 30.7031,26.7969 Q31.0938,26.6406 31.5156,26.2031 Q31.7813,25.9375 31.9219,25.8594 Q32.0781,25.7813 32.2813,25.7813 Q32.6094,25.7813 32.8594,26.0469 Q33.125,26.2969 33.125,26.6406 Q33.125,26.9844 32.7813,27.3906 Q32.2813,27.9688 31.4844,28.2969 Q30.4063,28.75 29.1094,28.75 Q27.5938,28.75 26.3906,28.125 Q25.4063,27.625 24.7188,26.5625 Q24.0313,25.4844 24.0313,24.2031 L24.0313,23.0469 Q24.0313,21.7188 24.6406,20.5781 Q25.2656,19.4219 26.3594,18.8125 Q27.4531,18.1875 28.6875,18.1875 Q29.4219,18.1875 30.0625,18.3594 Q30.7188,18.5156 31.2656,18.875 Z " fill="#000000"/><text fill="#000000" font-family="sans-serif" font-size="12" lengthAdjust="spacing" textLength="53" x="42.5" y="27.9102">Company</text><line style="stroke:#A80036;stroke-width:1.5;" x1="14.5" x2="97.5" y1="39" y2="39"/><text fill="#000000" font-family="sans-serif" font-size="11" lengthAdjust="spacing" textLength="59" x="19.5" y="54.4189">-designation</text><!--MD5=[2d935fd2dd068a13da1ae531f9857c4f]
class CenterCoordinator--><rect codeLine="8" fill="#FEFECE" filter="url(#f1oifxnqk2coi3)" height="40" id="CenterCoordinator" style="stroke:#A80036;stroke-width:1.5;" width="134" x="80" y="388.5"/><ellipse cx="95" cy="404.5" fill="#ADD1B2" rx="11" ry="11" style="stroke:#A80036;stroke-width:1.0;"/><path d="M97.7656,400.375 Q97.9219,400.1563 98.1094,400.0469 Q98.2969,399.9375 98.5156,399.9375 Q98.8906,399.9375 99.125,400.2031 Q99.3594,400.4531 99.3594,401.0625 L99.3594,402.5156 Q99.3594,403.125 99.125,403.3906 Q98.8906,403.6563 98.5156,403.6563 Q98.1719,403.6563 97.9688,403.4531 Q97.7656,403.2656 97.6563,402.75 Q97.6094,402.3906 97.4219,402.2031 Q97.0938,401.8281 96.4844,401.6094 Q95.875,401.3906 95.25,401.3906 Q94.4844,401.3906 93.8438,401.7188 Q93.2188,402.0469 92.7188,402.7969 Q92.2344,403.5469 92.2344,404.5781 L92.2344,405.6719 Q92.2344,406.9063 93.125,407.7344 Q94.0156,408.5469 95.6094,408.5469 Q96.5469,408.5469 97.2031,408.2969 Q97.5938,408.1406 98.0156,407.7031 Q98.2813,407.4375 98.4219,407.3594 Q98.5781,407.2813 98.7813,407.2813 Q99.1094,407.2813 99.3594,407.5469 Q99.625,407.7969 99.625,408.1406 Q99.625,408.4844 99.2813,408.8906 Q98.7813,409.4688 97.9844,409.7969 Q96.9063,410.25 95.6094,410.25 Q94.0938,410.25 92.8906,409.625 Q91.9063,409.125 91.2188,408.0625 Q90.5313,406.9844 90.5313,405.7031 L90.5313,404.5469 Q90.5313,403.2188 91.1406,402.0781 Q91.7656,400.9219 92.8594,400.3125 Q93.9531,399.6875 95.1875,399.6875 Q95.9219,399.6875 96.5625,399.8594 Q97.2188,400.0156 97.7656,400.375 Z " fill="#000000"/><text fill="#000000" font-family="sans-serif" font-size="12" lengthAdjust="spacing" textLength="102" x="109" y="409.4102">CenterCoordinator</text><line style="stroke:#A80036;stroke-width:1.5;" x1="81" x2="213" y1="420.5" y2="420.5"/><!--MD5=[7421f545a0d8420c5bec41e74b387d9c]
class Employee--><rect codeLine="10" fill="#FEFECE" filter="url(#f1oifxnqk2coi3)" height="136.8516" id="Employee" style="stroke:#A80036;stroke-width:1.5;" width="107" x="204.5" y="139"/><ellipse cx="228.5" cy="155" fill="#ADD1B2" rx="11" ry="11" style="stroke:#A80036;stroke-width:1.0;"/><path d="M231.2656,150.875 Q231.4219,150.6563 231.6094,150.5469 Q231.7969,150.4375 232.0156,150.4375 Q232.3906,150.4375 232.625,150.7031 Q232.8594,150.9531 232.8594,151.5625 L232.8594,153.0156 Q232.8594,153.625 232.625,153.8906 Q232.3906,154.1563 232.0156,154.1563 Q231.6719,154.1563 231.4688,153.9531 Q231.2656,153.7656 231.1563,153.25 Q231.1094,152.8906 230.9219,152.7031 Q230.5938,152.3281 229.9844,152.1094 Q229.375,151.8906 228.75,151.8906 Q227.9844,151.8906 227.3438,152.2188 Q226.7188,152.5469 226.2188,153.2969 Q225.7344,154.0469 225.7344,155.0781 L225.7344,156.1719 Q225.7344,157.4063 226.625,158.2344 Q227.5156,159.0469 229.1094,159.0469 Q230.0469,159.0469 230.7031,158.7969 Q231.0938,158.6406 231.5156,158.2031 Q231.7813,157.9375 231.9219,157.8594 Q232.0781,157.7813 232.2813,157.7813 Q232.6094,157.7813 232.8594,158.0469 Q233.125,158.2969 233.125,158.6406 Q233.125,158.9844 232.7813,159.3906 Q232.2813,159.9688 231.4844,160.2969 Q230.4063,160.75 229.1094,160.75 Q227.5938,160.75 226.3906,160.125 Q225.4063,159.625 224.7188,158.5625 Q224.0313,157.4844 224.0313,156.2031 L224.0313,155.0469 Q224.0313,153.7188 224.6406,152.5781 Q225.2656,151.4219 226.3594,150.8125 Q227.4531,150.1875 228.6875,150.1875 Q229.4219,150.1875 230.0625,150.3594 Q230.7188,150.5156 231.2656,150.875 Z " fill="#000000"/><text fill="#000000" font-family="sans-serif" font-size="12" lengthAdjust="spacing" textLength="55" x="244.5" y="159.9102">Employee</text><line style="stroke:#A80036;stroke-width:1.5;" x1="205.5" x2="310.5" y1="171" y2="171"/><text fill="#000000" font-family="sans-serif" font-size="11" lengthAdjust="spacing" textLength="30" x="210.5" y="186.4189">-name</text><text fill="#000000" font-family="sans-serif" font-size="11" lengthAdjust="spacing" textLength="71" x="210.5" y="200.2549">-phoneNumber</text><text fill="#000000" font-family="sans-serif" font-size="11" lengthAdjust="spacing" textLength="28" x="210.5" y="214.0908">-email</text><text fill="#000000" font-family="sans-serif" font-size="11" lengthAdjust="spacing" textLength="54" x="210.5" y="227.9268">-password</text><text fill="#000000" font-family="sans-serif" font-size="11" lengthAdjust="spacing" textLength="44" x="210.5" y="241.7627">-address</text><text fill="#000000" font-family="sans-serif" font-size="11" lengthAdjust="spacing" textLength="95" x="210.5" y="255.5986">-citizenCardNumber</text><text fill="#000000" font-family="sans-serif" font-size="11" lengthAdjust="spacing" textLength="30" x="210.5" y="269.4346">-roleId</text><!--MD5=[de60e6d4f424ae4d0522096f76a59010]
class VaccinationCenter--><rect codeLine="20" fill="#FEFECE" filter="url(#f1oifxnqk2coi3)" height="164.5234" id="VaccinationCenter" style="stroke:#A80036;stroke-width:1.5;" width="132" x="81" y="541"/><ellipse cx="96" cy="557" fill="#ADD1B2" rx="11" ry="11" style="stroke:#A80036;stroke-width:1.0;"/><path d="M98.7656,552.875 Q98.9219,552.6563 99.1094,552.5469 Q99.2969,552.4375 99.5156,552.4375 Q99.8906,552.4375 100.125,552.7031 Q100.3594,552.9531 100.3594,553.5625 L100.3594,555.0156 Q100.3594,555.625 100.125,555.8906 Q99.8906,556.1563 99.5156,556.1563 Q99.1719,556.1563 98.9688,555.9531 Q98.7656,555.7656 98.6563,555.25 Q98.6094,554.8906 98.4219,554.7031 Q98.0938,554.3281 97.4844,554.1094 Q96.875,553.8906 96.25,553.8906 Q95.4844,553.8906 94.8438,554.2188 Q94.2188,554.5469 93.7188,555.2969 Q93.2344,556.0469 93.2344,557.0781 L93.2344,558.1719 Q93.2344,559.4063 94.125,560.2344 Q95.0156,561.0469 96.6094,561.0469 Q97.5469,561.0469 98.2031,560.7969 Q98.5938,560.6406 99.0156,560.2031 Q99.2813,559.9375 99.4219,559.8594 Q99.5781,559.7813 99.7813,559.7813 Q100.1094,559.7813 100.3594,560.0469 Q100.625,560.2969 100.625,560.6406 Q100.625,560.9844 100.2813,561.3906 Q99.7813,561.9688 98.9844,562.2969 Q97.9063,562.75 96.6094,562.75 Q95.0938,562.75 93.8906,562.125 Q92.9063,561.625 92.2188,560.5625 Q91.5313,559.4844 91.5313,558.2031 L91.5313,557.0469 Q91.5313,555.7188 92.1406,554.5781 Q92.7656,553.4219 93.8594,552.8125 Q94.9531,552.1875 96.1875,552.1875 Q96.9219,552.1875 97.5625,552.3594 Q98.2188,552.5156 98.7656,552.875 Z " fill="#000000"/><text fill="#000000" font-family="sans-serif" font-size="12" lengthAdjust="spacing" textLength="100" x="110" y="561.9102">VaccinationCenter</text><line style="stroke:#A80036;stroke-width:1.5;" x1="82" x2="212" y1="573" y2="573"/><text fill="#000000" font-family="sans-serif" font-size="11" lengthAdjust="spacing" textLength="30" x="87" y="588.4189">-name</text><text fill="#000000" font-family="sans-serif" font-size="11" lengthAdjust="spacing" textLength="44" x="87" y="602.2549">-address</text><text fill="#000000" font-family="sans-serif" font-size="11" lengthAdjust="spacing" textLength="70" x="87" y="616.0908">-emailAddress</text><text fill="#000000" font-family="sans-serif" font-size="11" lengthAdjust="spacing" textLength="71" x="87" y="629.9268">-phoneNumber</text><text fill="#000000" font-family="sans-serif" font-size="11" lengthAdjust="spacing" textLength="57" x="87" y="643.7627">-faxNumber</text><text fill="#000000" font-family="sans-serif" font-size="11" lengthAdjust="spacing" textLength="85" x="87" y="657.5986">-websiteAddress</text><text fill="#000000" font-family="sans-serif" font-size="11" lengthAdjust="spacing" textLength="23" x="87" y="671.4346">-time</text><text fill="#000000" font-family="sans-serif" font-size="11" lengthAdjust="spacing" textLength="21" x="87" y="685.2705">-slot</text><text fill="#000000" font-family="sans-serif" font-size="11" lengthAdjust="spacing" textLength="59" x="87" y="699.1064">-coordinator</text><!--MD5=[2e42295458bb0bec21c9622a623eb29e]
class Time--><rect codeLine="32" fill="#FEFECE" filter="url(#f1oifxnqk2coi3)" height="67.6719" id="Time" style="stroke:#A80036;stroke-width:1.5;" width="60" x="132" y="791"/><ellipse cx="147" cy="807" fill="#ADD1B2" rx="11" ry="11" style="stroke:#A80036;stroke-width:1.0;"/><path d="M149.7656,802.875 Q149.9219,802.6563 150.1094,802.5469 Q150.2969,802.4375 150.5156,802.4375 Q150.8906,802.4375 151.125,802.7031 Q151.3594,802.9531 151.3594,803.5625 L151.3594,805.0156 Q151.3594,805.625 151.125,805.8906 Q150.8906,806.1563 150.5156,806.1563 Q150.1719,806.1563 149.9688,805.9531 Q149.7656,805.7656 149.6563,805.25 Q149.6094,804.8906 149.4219,804.7031 Q149.0938,804.3281 148.4844,804.1094 Q147.875,803.8906 147.25,803.8906 Q146.4844,803.8906 145.8438,804.2188 Q145.2188,804.5469 144.7188,805.2969 Q144.2344,806.0469 144.2344,807.0781 L144.2344,808.1719 Q144.2344,809.4063 145.125,810.2344 Q146.0156,811.0469 147.6094,811.0469 Q148.5469,811.0469 149.2031,810.7969 Q149.5938,810.6406 150.0156,810.2031 Q150.2813,809.9375 150.4219,809.8594 Q150.5781,809.7813 150.7813,809.7813 Q151.1094,809.7813 151.3594,810.0469 Q151.625,810.2969 151.625,810.6406 Q151.625,810.9844 151.2813,811.3906 Q150.7813,811.9688 149.9844,812.2969 Q148.9063,812.75 147.6094,812.75 Q146.0938,812.75 144.8906,812.125 Q143.9063,811.625 143.2188,810.5625 Q142.5313,809.4844 142.5313,808.2031 L142.5313,807.0469 Q142.5313,805.7188 143.1406,804.5781 Q143.7656,803.4219 144.8594,802.8125 Q145.9531,802.1875 147.1875,802.1875 Q147.9219,802.1875 148.5625,802.3594 Q149.2188,802.5156 149.7656,802.875 Z " fill="#000000"/><text fill="#000000" font-family="sans-serif" font-size="12" lengthAdjust="spacing" textLength="28" x="161" y="811.9102">Time</text><line style="stroke:#A80036;stroke-width:1.5;" x1="133" x2="191" y1="823" y2="823"/><text fill="#000000" font-family="sans-serif" font-size="11" lengthAdjust="spacing" textLength="32" x="138" y="838.4189">-hours</text><text fill="#000000" font-family="sans-serif" font-size="11" lengthAdjust="spacing" textLength="41" x="138" y="852.2549">-minutes</text><!--MD5=[45c6380d22fb72521f5065026b277fb9]
class Slot--><rect codeLine="37" fill="#FEFECE" filter="url(#f1oifxnqk2coi3)" height="67.6719" id="Slot" style="stroke:#A80036;stroke-width:1.5;" width="90" x="7" y="791"/><ellipse cx="38.65" cy="807" fill="#ADD1B2" rx="11" ry="11" style="stroke:#A80036;stroke-width:1.0;"/><path d="M41.4156,802.875 Q41.5719,802.6563 41.7594,802.5469 Q41.9469,802.4375 42.1656,802.4375 Q42.5406,802.4375 42.775,802.7031 Q43.0094,802.9531 43.0094,803.5625 L43.0094,805.0156 Q43.0094,805.625 42.775,805.8906 Q42.5406,806.1563 42.1656,806.1563 Q41.8219,806.1563 41.6188,805.9531 Q41.4156,805.7656 41.3063,805.25 Q41.2594,804.8906 41.0719,804.7031 Q40.7438,804.3281 40.1344,804.1094 Q39.525,803.8906 38.9,803.8906 Q38.1344,803.8906 37.4938,804.2188 Q36.8688,804.5469 36.3688,805.2969 Q35.8844,806.0469 35.8844,807.0781 L35.8844,808.1719 Q35.8844,809.4063 36.775,810.2344 Q37.6656,811.0469 39.2594,811.0469 Q40.1969,811.0469 40.8531,810.7969 Q41.2438,810.6406 41.6656,810.2031 Q41.9313,809.9375 42.0719,809.8594 Q42.2281,809.7813 42.4313,809.7813 Q42.7594,809.7813 43.0094,810.0469 Q43.275,810.2969 43.275,810.6406 Q43.275,810.9844 42.9313,811.3906 Q42.4313,811.9688 41.6344,812.2969 Q40.5563,812.75 39.2594,812.75 Q37.7438,812.75 36.5406,812.125 Q35.5563,811.625 34.8688,810.5625 Q34.1813,809.4844 34.1813,808.2031 L34.1813,807.0469 Q34.1813,805.7188 34.7906,804.5781 Q35.4156,803.4219 36.5094,802.8125 Q37.6031,802.1875 38.8375,802.1875 Q39.5719,802.1875 40.2125,802.3594 Q40.8688,802.5156 41.4156,802.875 Z " fill="#000000"/><text fill="#000000" font-family="sans-serif" font-size="12" lengthAdjust="spacing" textLength="21" x="56.35" y="811.9102">Slot</text><line style="stroke:#A80036;stroke-width:1.5;" x1="8" x2="96" y1="823" y2="823"/><text fill="#000000" font-family="sans-serif" font-size="11" lengthAdjust="spacing" textLength="61" x="13" y="838.4189">-slotDuration</text><text fill="#000000" font-family="sans-serif" font-size="11" lengthAdjust="spacing" textLength="78" x="13" y="852.2549">-maxVacPerSlot</text><!--MD5=[107cfa23aa516ff83d0cf17a6f9fe7ba]
class VaccineAdministration--><rect codeLine="42" fill="#FEFECE" filter="url(#f1oifxnqk2coi3)" height="109.1797" id="VaccineAdministration" style="stroke:#A80036;stroke-width:1.5;" width="154" x="249" y="354"/><ellipse cx="264" cy="370" fill="#ADD1B2" rx="11" ry="11" style="stroke:#A80036;stroke-width:1.0;"/><path d="M266.7656,365.875 Q266.9219,365.6563 267.1094,365.5469 Q267.2969,365.4375 267.5156,365.4375 Q267.8906,365.4375 268.125,365.7031 Q268.3594,365.9531 268.3594,366.5625 L268.3594,368.0156 Q268.3594,368.625 268.125,368.8906 Q267.8906,369.1563 267.5156,369.1563 Q267.1719,369.1563 266.9688,368.9531 Q266.7656,368.7656 266.6563,368.25 Q266.6094,367.8906 266.4219,367.7031 Q266.0938,367.3281 265.4844,367.1094 Q264.875,366.8906 264.25,366.8906 Q263.4844,366.8906 262.8438,367.2188 Q262.2188,367.5469 261.7188,368.2969 Q261.2344,369.0469 261.2344,370.0781 L261.2344,371.1719 Q261.2344,372.4063 262.125,373.2344 Q263.0156,374.0469 264.6094,374.0469 Q265.5469,374.0469 266.2031,373.7969 Q266.5938,373.6406 267.0156,373.2031 Q267.2813,372.9375 267.4219,372.8594 Q267.5781,372.7813 267.7813,372.7813 Q268.1094,372.7813 268.3594,373.0469 Q268.625,373.2969 268.625,373.6406 Q268.625,373.9844 268.2813,374.3906 Q267.7813,374.9688 266.9844,375.2969 Q265.9063,375.75 264.6094,375.75 Q263.0938,375.75 261.8906,375.125 Q260.9063,374.625 260.2188,373.5625 Q259.5313,372.4844 259.5313,371.2031 L259.5313,370.0469 Q259.5313,368.7188 260.1406,367.5781 Q260.7656,366.4219 261.8594,365.8125 Q262.9531,365.1875 264.1875,365.1875 Q264.9219,365.1875 265.5625,365.3594 Q266.2188,365.5156 266.7656,365.875 Z " fill="#000000"/><text fill="#000000" font-family="sans-serif" font-size="12" lengthAdjust="spacing" textLength="122" x="278" y="374.9102">VaccineAdministration</text><line style="stroke:#A80036;stroke-width:1.5;" x1="250" x2="402" y1="386" y2="386"/><text fill="#000000" font-family="sans-serif" font-size="11" lengthAdjust="spacing" textLength="45" x="255" y="401.4189">-snsUser</text><text fill="#000000" font-family="sans-serif" font-size="11" lengthAdjust="spacing" textLength="42" x="255" y="415.2549">-vaccine</text><text fill="#000000" font-family="sans-serif" font-size="11" lengthAdjust="spacing" textLength="28" x="255" y="429.0908">-dose</text><text fill="#000000" font-family="sans-serif" font-size="11" lengthAdjust="spacing" textLength="52" x="255" y="442.9268">-lotNumber</text><text fill="#000000" font-family="sans-serif" font-size="11" lengthAdjust="spacing" textLength="25" x="255" y="456.7627">-date</text><!--MD5=[72be06cc7ae02ccc98efe28a50e62246]
class SNSUser--><rect codeLine="50" fill="#FEFECE" filter="url(#f1oifxnqk2coi3)" height="150.6875" id="SNSUser" style="stroke:#A80036;stroke-width:1.5;" width="84" x="362" y="548"/><ellipse cx="377" cy="564" fill="#ADD1B2" rx="11" ry="11" style="stroke:#A80036;stroke-width:1.0;"/><path d="M379.7656,559.875 Q379.9219,559.6563 380.1094,559.5469 Q380.2969,559.4375 380.5156,559.4375 Q380.8906,559.4375 381.125,559.7031 Q381.3594,559.9531 381.3594,560.5625 L381.3594,562.0156 Q381.3594,562.625 381.125,562.8906 Q380.8906,563.1563 380.5156,563.1563 Q380.1719,563.1563 379.9688,562.9531 Q379.7656,562.7656 379.6563,562.25 Q379.6094,561.8906 379.4219,561.7031 Q379.0938,561.3281 378.4844,561.1094 Q377.875,560.8906 377.25,560.8906 Q376.4844,560.8906 375.8438,561.2188 Q375.2188,561.5469 374.7188,562.2969 Q374.2344,563.0469 374.2344,564.0781 L374.2344,565.1719 Q374.2344,566.4063 375.125,567.2344 Q376.0156,568.0469 377.6094,568.0469 Q378.5469,568.0469 379.2031,567.7969 Q379.5938,567.6406 380.0156,567.2031 Q380.2813,566.9375 380.4219,566.8594 Q380.5781,566.7813 380.7813,566.7813 Q381.1094,566.7813 381.3594,567.0469 Q381.625,567.2969 381.625,567.6406 Q381.625,567.9844 381.2813,568.3906 Q380.7813,568.9688 379.9844,569.2969 Q378.9063,569.75 377.6094,569.75 Q376.0938,569.75 374.8906,569.125 Q373.9063,568.625 373.2188,567.5625 Q372.5313,566.4844 372.5313,565.2031 L372.5313,564.0469 Q372.5313,562.7188 373.1406,561.5781 Q373.7656,560.4219 374.8594,559.8125 Q375.9531,559.1875 377.1875,559.1875 Q377.9219,559.1875 378.5625,559.3594 Q379.2188,559.5156 379.7656,559.875 Z " fill="#000000"/><text fill="#000000" font-family="sans-serif" font-size="12" lengthAdjust="spacing" textLength="52" x="391" y="568.9102">SNSUser</text><line style="stroke:#A80036;stroke-width:1.5;" x1="363" x2="445" y1="580" y2="580"/><text fill="#000000" font-family="sans-serif" font-size="11" lengthAdjust="spacing" textLength="58" x="368" y="595.4189">-citizenCard</text><text fill="#000000" font-family="sans-serif" font-size="11" lengthAdjust="spacing" textLength="59" x="368" y="609.2549">-snsNumber</text><text fill="#000000" font-family="sans-serif" font-size="11" lengthAdjust="spacing" textLength="30" x="368" y="623.0908">-name</text><text fill="#000000" font-family="sans-serif" font-size="11" lengthAdjust="spacing" textLength="44" x="368" y="636.9268">-birthDay</text><text fill="#000000" font-family="sans-serif" font-size="11" lengthAdjust="spacing" textLength="38" x="368" y="650.7627">-gender</text><text fill="#000000" font-family="sans-serif" font-size="11" lengthAdjust="spacing" textLength="71" x="368" y="664.5986">-phoneNumber</text><text fill="#000000" font-family="sans-serif" font-size="11" lengthAdjust="spacing" textLength="28" x="368" y="678.4346">-email</text><text fill="#000000" font-family="sans-serif" font-size="11" lengthAdjust="spacing" textLength="44" x="368" y="692.2705">-address</text><!--MD5=[de8e19d4fc5fe0856de1c43e77d28b9d]
class ReportFile--><rect codeLine="61" fill="#FEFECE" filter="url(#f1oifxnqk2coi3)" height="40" id="ReportFile" style="stroke:#A80036;stroke-width:1.5;" width="89" x="80.5" y="187.5"/><ellipse cx="95.5" cy="203.5" fill="#ADD1B2" rx="11" ry="11" style="stroke:#A80036;stroke-width:1.0;"/><path d="M98.2656,199.375 Q98.4219,199.1563 98.6094,199.0469 Q98.7969,198.9375 99.0156,198.9375 Q99.3906,198.9375 99.625,199.2031 Q99.8594,199.4531 99.8594,200.0625 L99.8594,201.5156 Q99.8594,202.125 99.625,202.3906 Q99.3906,202.6563 99.0156,202.6563 Q98.6719,202.6563 98.4688,202.4531 Q98.2656,202.2656 98.1563,201.75 Q98.1094,201.3906 97.9219,201.2031 Q97.5938,200.8281 96.9844,200.6094 Q96.375,200.3906 95.75,200.3906 Q94.9844,200.3906 94.3438,200.7188 Q93.7188,201.0469 93.2188,201.7969 Q92.7344,202.5469 92.7344,203.5781 L92.7344,204.6719 Q92.7344,205.9063 93.625,206.7344 Q94.5156,207.5469 96.1094,207.5469 Q97.0469,207.5469 97.7031,207.2969 Q98.0938,207.1406 98.5156,206.7031 Q98.7813,206.4375 98.9219,206.3594 Q99.0781,206.2813 99.2813,206.2813 Q99.6094,206.2813 99.8594,206.5469 Q100.125,206.7969 100.125,207.1406 Q100.125,207.4844 99.7813,207.8906 Q99.2813,208.4688 98.4844,208.7969 Q97.4063,209.25 96.1094,209.25 Q94.5938,209.25 93.3906,208.625 Q92.4063,208.125 91.7188,207.0625 Q91.0313,205.9844 91.0313,204.7031 L91.0313,203.5469 Q91.0313,202.2188 91.6406,201.0781 Q92.2656,199.9219 93.3594,199.3125 Q94.4531,198.6875 95.6875,198.6875 Q96.4219,198.6875 97.0625,198.8594 Q97.7188,199.0156 98.2656,199.375 Z " fill="#000000"/><text fill="#000000" font-family="sans-serif" font-size="12" lengthAdjust="spacing" textLength="57" x="109.5" y="208.4102">ReportFile</text><line style="stroke:#A80036;stroke-width:1.5;" x1="81.5" x2="168.5" y1="219.5" y2="219.5"/><!--MD5=[19e445fc4d3b48519cbe33da05496394]
class Vaccine--><rect codeLine="63" fill="#FEFECE" filter="url(#f1oifxnqk2coi3)" height="40" id="Vaccine" style="stroke:#A80036;stroke-width:1.5;" width="75" x="251.5" y="603.5"/><ellipse cx="266.5" cy="619.5" fill="#ADD1B2" rx="11" ry="11" style="stroke:#A80036;stroke-width:1.0;"/><path d="M269.2656,615.375 Q269.4219,615.1563 269.6094,615.0469 Q269.7969,614.9375 270.0156,614.9375 Q270.3906,614.9375 270.625,615.2031 Q270.8594,615.4531 270.8594,616.0625 L270.8594,617.5156 Q270.8594,618.125 270.625,618.3906 Q270.3906,618.6563 270.0156,618.6563 Q269.6719,618.6563 269.4688,618.4531 Q269.2656,618.2656 269.1563,617.75 Q269.1094,617.3906 268.9219,617.2031 Q268.5938,616.8281 267.9844,616.6094 Q267.375,616.3906 266.75,616.3906 Q265.9844,616.3906 265.3438,616.7188 Q264.7188,617.0469 264.2188,617.7969 Q263.7344,618.5469 263.7344,619.5781 L263.7344,620.6719 Q263.7344,621.9063 264.625,622.7344 Q265.5156,623.5469 267.1094,623.5469 Q268.0469,623.5469 268.7031,623.2969 Q269.0938,623.1406 269.5156,622.7031 Q269.7813,622.4375 269.9219,622.3594 Q270.0781,622.2813 270.2813,622.2813 Q270.6094,622.2813 270.8594,622.5469 Q271.125,622.7969 271.125,623.1406 Q271.125,623.4844 270.7813,623.8906 Q270.2813,624.4688 269.4844,624.7969 Q268.4063,625.25 267.1094,625.25 Q265.5938,625.25 264.3906,624.625 Q263.4063,624.125 262.7188,623.0625 Q262.0313,621.9844 262.0313,620.7031 L262.0313,619.5469 Q262.0313,618.2188 262.6406,617.0781 Q263.2656,615.9219 264.3594,615.3125 Q265.4531,614.6875 266.6875,614.6875 Q267.4219,614.6875 268.0625,614.8594 Q268.7188,615.0156 269.2656,615.375 Z " fill="#000000"/><text fill="#000000" font-family="sans-serif" font-size="12" lengthAdjust="spacing" textLength="43" x="280.5" y="624.4102">Vaccine</text><line style="stroke:#A80036;stroke-width:1.5;" x1="252.5" x2="325.5" y1="635.5" y2="635.5"/><!--MD5=[0e501da62322464167c8ec4d233a6b7e]
class VaccineType--><rect codeLine="65" fill="#FEFECE" filter="url(#f1oifxnqk2coi3)" height="81.5078" id="VaccineType" style="stroke:#A80036;stroke-width:1.5;" width="101" x="238.5" y="784"/><ellipse cx="253.5" cy="800" fill="#ADD1B2" rx="11" ry="11" style="stroke:#A80036;stroke-width:1.0;"/><path d="M256.2656,795.875 Q256.4219,795.6563 256.6094,795.5469 Q256.7969,795.4375 257.0156,795.4375 Q257.3906,795.4375 257.625,795.7031 Q257.8594,795.9531 257.8594,796.5625 L257.8594,798.0156 Q257.8594,798.625 257.625,798.8906 Q257.3906,799.1563 257.0156,799.1563 Q256.6719,799.1563 256.4688,798.9531 Q256.2656,798.7656 256.1563,798.25 Q256.1094,797.8906 255.9219,797.7031 Q255.5938,797.3281 254.9844,797.1094 Q254.375,796.8906 253.75,796.8906 Q252.9844,796.8906 252.3438,797.2188 Q251.7188,797.5469 251.2188,798.2969 Q250.7344,799.0469 250.7344,800.0781 L250.7344,801.1719 Q250.7344,802.4063 251.625,803.2344 Q252.5156,804.0469 254.1094,804.0469 Q255.0469,804.0469 255.7031,803.7969 Q256.0938,803.6406 256.5156,803.2031 Q256.7813,802.9375 256.9219,802.8594 Q257.0781,802.7813 257.2813,802.7813 Q257.6094,802.7813 257.8594,803.0469 Q258.125,803.2969 258.125,803.6406 Q258.125,803.9844 257.7813,804.3906 Q257.2813,804.9688 256.4844,805.2969 Q255.4063,805.75 254.1094,805.75 Q252.5938,805.75 251.3906,805.125 Q250.4063,804.625 249.7188,803.5625 Q249.0313,802.4844 249.0313,801.2031 L249.0313,800.0469 Q249.0313,798.7188 249.6406,797.5781 Q250.2656,796.4219 251.3594,795.8125 Q252.4531,795.1875 253.6875,795.1875 Q254.4219,795.1875 255.0625,795.3594 Q255.7188,795.5156 256.2656,795.875 Z " fill="#000000"/><text fill="#000000" font-family="sans-serif" font-size="12" lengthAdjust="spacing" textLength="69" x="267.5" y="804.9102">VaccineType</text><line style="stroke:#A80036;stroke-width:1.5;" x1="239.5" x2="338.5" y1="816" y2="816"/><text fill="#000000" font-family="sans-serif" font-size="11" lengthAdjust="spacing" textLength="28" x="244.5" y="831.4189">-code</text><text fill="#000000" font-family="sans-serif" font-size="11" lengthAdjust="spacing" textLength="57" x="244.5" y="845.2549">-description</text><text fill="#000000" font-family="sans-serif" font-size="11" lengthAdjust="spacing" textLength="57" x="244.5" y="859.0908">-technology</text><!--MD5=[09366576ee87d48d594df10cacc83f45]
link Company to Employee--><path codeLine="71" d="M90.6,61.12 C117.42,81.68 155.22,111.38 187,139 C192.65,143.91 198.45,149.13 204.19,154.4 " fill="none" id="Company-Employee" style="stroke:#A80036;stroke-width:1.0;"/><polygon fill="#000000" points="156.8641,103.3489,151.739,95.3374,148.0088,99.8799,156.8641,103.3489" style="stroke:#000000;stroke-width:1.0;"/><text fill="#000000" font-family="sans-serif" font-size="13" lengthAdjust="spacing" textLength="37" x="162" y="105.4951">knows</text><text fill="#000000" font-family="sans-serif" font-size="13" lengthAdjust="spacing" textLength="7" x="90.4031" y="82.354">1</text><text fill="#000000" font-family="sans-serif" font-size="13" lengthAdjust="spacing" textLength="5" x="191.6233" y="143.7184">*</text><!--MD5=[98f7f3dc8d9719d04ad14614c4ea123f]
reverse link Employee to CenterCoordinator--><path codeLine="72" d="M231.18,294.94 C226.94,304.98 222.21,314.88 217,324 C203.1,348.3 181.88,372.42 166.44,388.43 " fill="none" id="Employee-backto-CenterCoordinator" style="stroke:#A80036;stroke-width:1.0;"/><polygon fill="none" points="224.68,292.33,238.49,276.26,237.72,297.43,224.68,292.33" style="stroke:#A80036;stroke-width:1.0;"/><!--MD5=[d5cf03d886352995267197dc535618ec]
link CenterCoordinator to VaccinationCenter--><path codeLine="73" d="M147,428.78 C147,454.07 147,500.05 147,540.86 " fill="none" id="CenterCoordinator-VaccinationCenter" style="stroke:#A80036;stroke-width:1.0;"/><polygon fill="#000000" points="152,507.1758,154.9389,498.1307,149.0611,498.1307,152,507.1758" style="stroke:#000000;stroke-width:1.0;"/><text fill="#000000" font-family="sans-serif" font-size="13" lengthAdjust="spacing" textLength="21" x="161" y="507.4951">has</text><!--MD5=[e67749f86d2edce8d072e016ba76df74]
link VaccinationCenter to Time--><path codeLine="74" d="M153.14,706.22 C155.38,735.92 157.78,767.82 159.51,790.93 " fill="none" id="VaccinationCenter-Time" style="stroke:#A80036;stroke-width:1.0;"/><polygon fill="#000000" points="161.3749,750.1617,163.6273,740.9217,157.766,741.3625,161.3749,750.1617" style="stroke:#000000;stroke-width:1.0;"/><text fill="#000000" font-family="sans-serif" font-size="13" lengthAdjust="spacing" textLength="21" x="170" y="750.4951">has</text><text fill="#000000" font-family="sans-serif" font-size="13" lengthAdjust="spacing" textLength="7" x="146.3504" y="726.9774">1</text><text fill="#000000" font-family="sans-serif" font-size="13" lengthAdjust="spacing" textLength="7" x="151.3307" y="780.2095">1</text><!--MD5=[b649bef0048cf03271726558ee7073ed]
link VaccinationCenter to Slot--><path codeLine="75" d="M108.09,706.22 C93.94,735.92 78.75,767.82 67.75,790.93 " fill="none" id="VaccinationCenter-Slot" style="stroke:#A80036;stroke-width:1.0;"/><polygon fill="#000000" points="96.8502,749.69,103.3926,742.7873,98.0858,740.2601,96.8502,749.69" style="stroke:#000000;stroke-width:1.0;"/><text fill="#000000" font-family="sans-serif" font-size="13" lengthAdjust="spacing" textLength="21" x="108" y="750.4951">has</text><text fill="#000000" font-family="sans-serif" font-size="13" lengthAdjust="spacing" textLength="7" x="97.7105" y="726.9774">1</text><text fill="#000000" font-family="sans-serif" font-size="13" lengthAdjust="spacing" textLength="7" x="63.1617" y="780.2095">1</text><!--MD5=[4e2e02b11604d3d81e896cdaaa397c0a]
link ReportFile to CenterCoordinator--><path codeLine="76" d="M127.11,227.58 C131.31,265.62 140.7,350.49 144.9,388.48 " fill="none" id="ReportFile-CenterCoordinator" style="stroke:#A80036;stroke-width:1.0;"/><polygon fill="#000000" points="141.4505,310.2061,139.5234,319.5193,145.3657,318.8734,141.4505,310.2061" style="stroke:#000000;stroke-width:1.0;"/><text fill="#000000" font-family="sans-serif" font-size="13" lengthAdjust="spacing" textLength="57" x="151" y="320.4951">generates</text><text fill="#000000" font-family="sans-serif" font-size="13" lengthAdjust="spacing" textLength="7" x="119.7191" y="249.0221">1</text><text fill="#000000" font-family="sans-serif" font-size="13" lengthAdjust="spacing" textLength="7" x="136.255" y="377.7959">1</text><!--MD5=[6bb3ec5f470f72ee4f54b0838c98c655]
link VaccineAdministration to VaccinationCenter--><path codeLine="77" d="M280.83,463.25 C260.32,487.65 235.66,517 213.13,543.81 " fill="none" id="VaccineAdministration-VaccinationCenter" style="stroke:#A80036;stroke-width:1.0;"/><polygon fill="#000000" points="260.2168,498.3479,252.1476,503.3818,256.6475,507.1633,260.2168,498.3479" style="stroke:#000000;stroke-width:1.0;"/><text fill="#000000" font-family="sans-serif" font-size="13" lengthAdjust="spacing" textLength="21" x="266" y="507.4951">has</text><text fill="#000000" font-family="sans-serif" font-size="13" lengthAdjust="spacing" textLength="5" x="269.7223" y="484.796">*</text><text fill="#000000" font-family="sans-serif" font-size="13" lengthAdjust="spacing" textLength="7" x="221.181" y="531.2138">1</text><!--MD5=[951a07871a6512bd4f8e62baa1d062ce]
link VaccineAdministration to SNSUser--><path codeLine="78" d="M345.68,463.25 C355.07,488.88 366.45,519.97 376.66,547.85 " fill="none" id="VaccineAdministration-SNSUser" style="stroke:#A80036;stroke-width:1.0;"/><polygon fill="#000000" points="368.7193,506.8709,368.3688,497.3668,362.8493,499.388,368.7193,506.8709" style="stroke:#000000;stroke-width:1.0;"/><text fill="#000000" font-family="sans-serif" font-size="13" lengthAdjust="spacing" textLength="21" x="376" y="507.4951">has</text><text fill="#000000" font-family="sans-serif" font-size="13" lengthAdjust="spacing" textLength="7" x="340.7531" y="484.796">1</text><text fill="#000000" font-family="sans-serif" font-size="13" lengthAdjust="spacing" textLength="5" x="368.7226" y="537.1435">*</text><!--MD5=[d96ee281cdb1021d3c4ed227c45512e2]
link VaccineAdministration to Vaccine--><path codeLine="79" d="M316.66,463.25 C308.72,508.97 297.76,572.05 292.33,603.32 " fill="none" id="VaccineAdministration-Vaccine" style="stroke:#A80036;stroke-width:1.0;"/><polygon fill="#000000" points="314.1443,507.102,318.5878,498.6933,312.7967,497.6874,314.1443,507.102" style="stroke:#000000;stroke-width:1.0;"/><text fill="#000000" font-family="sans-serif" font-size="13" lengthAdjust="spacing" textLength="21" x="324" y="507.4951">has</text><text fill="#000000" font-family="sans-serif" font-size="13" lengthAdjust="spacing" textLength="7" x="308.0149" y="484.796">1</text><text fill="#000000" font-family="sans-serif" font-size="13" lengthAdjust="spacing" textLength="7" x="285.2801" y="592.5889">1</text><!--MD5=[3568623adf67b2630dce9e60c05bd02a]
link Vaccine to VaccineType--><path codeLine="80" d="M289,643.63 C289,675.71 289,741.04 289,783.64 " fill="none" id="Vaccine-VaccineType" style="stroke:#A80036;stroke-width:1.0;"/><polygon fill="#000000" points="294,750.1758,296.9389,741.1307,291.0611,741.1307,294,750.1758" style="stroke:#000000;stroke-width:1.0;"/><text fill="#000000" font-family="sans-serif" font-size="13" lengthAdjust="spacing" textLength="21" x="303" y="750.4951">has</text><!--MD5=[eebe9b198877275d05dd12630ed9e401]
link Company to VaccinationCenter--><path codeLine="81" d="M52.17,61.13 C43.12,128.85 23.95,315.1 62,463 C68.84,489.59 80.94,516.64 93.89,540.72 " fill="none" id="Company-VaccinationCenter" style="stroke:#A80036;stroke-width:1.0;"/><polygon fill="#000000" points="47.4333,320.157,49.5773,310.8912,43.7216,311.4006,47.4333,320.157" style="stroke:#000000;stroke-width:1.0;"/><text fill="#000000" font-family="sans-serif" font-size="13" lengthAdjust="spacing" textLength="37" x="56" y="320.4951">knows</text><text fill="#000000" font-family="sans-serif" font-size="13" lengthAdjust="spacing" textLength="7" x="43.5666" y="82.3662">1</text><text fill="#000000" font-family="sans-serif" font-size="13" lengthAdjust="spacing" textLength="5" x="83.9372" y="530.1669">*</text><!--MD5=[f5cca5d43933dd4b8c0005a199a74f1e]
@startuml US15_DM
hide methods
skinparam classAttributeIconSize 0

class Company {
  -designation
}

class CenterCoordinator {}

class Employee {
  -name
  -phoneNumber
  -email
  -password
  -address
  -citizenCardNumber
  -roleId
}

class VaccinationCenter{
  -name
  -address
  -emailAddress
  -phoneNumber
  -faxNumber
  -websiteAddress
  -time
  -slot
  -coordinator
}

class Time {
  -hours
  -minutes
}

class Slot {
  -slotDuration
  -maxVacPerSlot
}

class VaccineAdministration {
  -snsUser
  -vaccine
  -dose
  -lotNumber
  -date
}

class SNSUser {
  - citizenCard
  - snsNumber
  - name
  - birthDay
  - gender
  - phoneNumber
  - email
  - address
}

class ReportFile {}

class Vaccine {}

class VaccineType {
  -code 
  -description
  -technology
}

Company "1" - - "*" Employee : knows >
Employee <|- - CenterCoordinator
CenterCoordinator - - VaccinationCenter : has >
VaccinationCenter "1" - - "1" Time : has >
VaccinationCenter "1"- - "1" Slot : has >
ReportFile "1" - - "1" CenterCoordinator : generates <
VaccineAdministration "*" - - "1" VaccinationCenter : has <
VaccineAdministration "1" - - "*" SNSUser : has >
VaccineAdministration "1" - - "1" Vaccine : has > 
Vaccine - - VaccineType : has >
Company "1" - - "*" VaccinationCenter : knows >

@enduml

PlantUML version 1.2022.0(Tue Jan 11 16:16:42 WET 2022)
(GPL source distribution)
Java Runtime: Java(TM) SE Runtime Environment
JVM: Java HotSpot(TM) 64-Bit Server VM
Default Encoding: Cp1252
Language: pt
Country: PT
--></g></svg>