<?xml version="1.0" encoding="UTF-8" standalone="no"?><svg xmlns="http://www.w3.org/2000/svg" xmlns:xlink="http://www.w3.org/1999/xlink" contentScriptType="application/ecmascript" contentStyleType="text/css" height="838px" preserveAspectRatio="none" style="width:513px;height:838px;background:#FFFFFF;" version="1.1" viewBox="0 0 513 838" width="513px" zoomAndPan="magnify"><defs><filter height="300%" id="f3u4xfr6pgi9i" width="300%" x="-1" y="-1"><feGaussianBlur result="blurOut" stdDeviation="2.0"/><feColorMatrix in="blurOut" result="blurOut2" type="matrix" values="0 0 0 0 0 0 0 0 0 0 0 0 0 0 0 0 0 0 .4 0"/><feOffset dx="4.0" dy="4.0" in="blurOut2" result="blurOut3"/><feBlend in="SourceGraphic" in2="blurOut3" mode="normal"/></filter></defs><g><!--MD5=[02e4b9b7573f1156f41e60aa5b4e25a4]
class Company--><rect codeLine="4" fill="#FEFECE" filter="url(#f3u4xfr6pgi9i)" height="53.8359" id="Company" style="stroke:#A80036;stroke-width:1.5;" width="85" x="97.5" y="7"/><ellipse cx="112.5" cy="23" fill="#ADD1B2" rx="11" ry="11" style="stroke:#A80036;stroke-width:1.0;"/><path d="M115.2656,18.875 Q115.4219,18.6563 115.6094,18.5469 Q115.7969,18.4375 116.0156,18.4375 Q116.3906,18.4375 116.625,18.7031 Q116.8594,18.9531 116.8594,19.5625 L116.8594,21.0156 Q116.8594,21.625 116.625,21.8906 Q116.3906,22.1563 116.0156,22.1563 Q115.6719,22.1563 115.4688,21.9531 Q115.2656,21.7656 115.1563,21.25 Q115.1094,20.8906 114.9219,20.7031 Q114.5938,20.3281 113.9844,20.1094 Q113.375,19.8906 112.75,19.8906 Q111.9844,19.8906 111.3438,20.2188 Q110.7188,20.5469 110.2188,21.2969 Q109.7344,22.0469 109.7344,23.0781 L109.7344,24.1719 Q109.7344,25.4063 110.625,26.2344 Q111.5156,27.0469 113.1094,27.0469 Q114.0469,27.0469 114.7031,26.7969 Q115.0938,26.6406 115.5156,26.2031 Q115.7813,25.9375 115.9219,25.8594 Q116.0781,25.7813 116.2813,25.7813 Q116.6094,25.7813 116.8594,26.0469 Q117.125,26.2969 117.125,26.6406 Q117.125,26.9844 116.7813,27.3906 Q116.2813,27.9688 115.4844,28.2969 Q114.4063,28.75 113.1094,28.75 Q111.5938,28.75 110.3906,28.125 Q109.4063,27.625 108.7188,26.5625 Q108.0313,25.4844 108.0313,24.2031 L108.0313,23.0469 Q108.0313,21.7188 108.6406,20.5781 Q109.2656,19.4219 110.3594,18.8125 Q111.4531,18.1875 112.6875,18.1875 Q113.4219,18.1875 114.0625,18.3594 Q114.7188,18.5156 115.2656,18.875 Z " fill="#000000"/><text fill="#000000" font-family="sans-serif" font-size="12" lengthAdjust="spacing" textLength="53" x="126.5" y="27.9102">Company</text><line style="stroke:#A80036;stroke-width:1.5;" x1="98.5" x2="181.5" y1="39" y2="39"/><text fill="#000000" font-family="sans-serif" font-size="11" lengthAdjust="spacing" textLength="59" x="103.5" y="54.4189">-designation</text><!--MD5=[2d935fd2dd068a13da1ae531f9857c4f]
class CenterCoordinator--><rect codeLine="8" fill="#FEFECE" filter="url(#f3u4xfr6pgi9i)" height="40" id="CenterCoordinator" style="stroke:#A80036;stroke-width:1.5;" width="134" x="7" y="375"/><ellipse cx="22" cy="391" fill="#ADD1B2" rx="11" ry="11" style="stroke:#A80036;stroke-width:1.0;"/><path d="M24.7656,386.875 Q24.9219,386.6563 25.1094,386.5469 Q25.2969,386.4375 25.5156,386.4375 Q25.8906,386.4375 26.125,386.7031 Q26.3594,386.9531 26.3594,387.5625 L26.3594,389.0156 Q26.3594,389.625 26.125,389.8906 Q25.8906,390.1563 25.5156,390.1563 Q25.1719,390.1563 24.9688,389.9531 Q24.7656,389.7656 24.6563,389.25 Q24.6094,388.8906 24.4219,388.7031 Q24.0938,388.3281 23.4844,388.1094 Q22.875,387.8906 22.25,387.8906 Q21.4844,387.8906 20.8438,388.2188 Q20.2188,388.5469 19.7188,389.2969 Q19.2344,390.0469 19.2344,391.0781 L19.2344,392.1719 Q19.2344,393.4063 20.125,394.2344 Q21.0156,395.0469 22.6094,395.0469 Q23.5469,395.0469 24.2031,394.7969 Q24.5938,394.6406 25.0156,394.2031 Q25.2813,393.9375 25.4219,393.8594 Q25.5781,393.7813 25.7813,393.7813 Q26.1094,393.7813 26.3594,394.0469 Q26.625,394.2969 26.625,394.6406 Q26.625,394.9844 26.2813,395.3906 Q25.7813,395.9688 24.9844,396.2969 Q23.9063,396.75 22.6094,396.75 Q21.0938,396.75 19.8906,396.125 Q18.9063,395.625 18.2188,394.5625 Q17.5313,393.4844 17.5313,392.2031 L17.5313,391.0469 Q17.5313,389.7188 18.1406,388.5781 Q18.7656,387.4219 19.8594,386.8125 Q20.9531,386.1875 22.1875,386.1875 Q22.9219,386.1875 23.5625,386.3594 Q24.2188,386.5156 24.7656,386.875 Z " fill="#000000"/><text fill="#000000" font-family="sans-serif" font-size="12" lengthAdjust="spacing" textLength="102" x="36" y="395.9102">CenterCoordinator</text><line style="stroke:#A80036;stroke-width:1.5;" x1="8" x2="140" y1="407" y2="407"/><!--MD5=[7421f545a0d8420c5bec41e74b387d9c]
class Employee--><rect codeLine="10" fill="#FEFECE" filter="url(#f3u4xfr6pgi9i)" height="136.8516" id="Employee" style="stroke:#A80036;stroke-width:1.5;" width="107" x="30.5" y="139"/><ellipse cx="54.5" cy="155" fill="#ADD1B2" rx="11" ry="11" style="stroke:#A80036;stroke-width:1.0;"/><path d="M57.2656,150.875 Q57.4219,150.6563 57.6094,150.5469 Q57.7969,150.4375 58.0156,150.4375 Q58.3906,150.4375 58.625,150.7031 Q58.8594,150.9531 58.8594,151.5625 L58.8594,153.0156 Q58.8594,153.625 58.625,153.8906 Q58.3906,154.1563 58.0156,154.1563 Q57.6719,154.1563 57.4688,153.9531 Q57.2656,153.7656 57.1563,153.25 Q57.1094,152.8906 56.9219,152.7031 Q56.5938,152.3281 55.9844,152.1094 Q55.375,151.8906 54.75,151.8906 Q53.9844,151.8906 53.3438,152.2188 Q52.7188,152.5469 52.2188,153.2969 Q51.7344,154.0469 51.7344,155.0781 L51.7344,156.1719 Q51.7344,157.4063 52.625,158.2344 Q53.5156,159.0469 55.1094,159.0469 Q56.0469,159.0469 56.7031,158.7969 Q57.0938,158.6406 57.5156,158.2031 Q57.7813,157.9375 57.9219,157.8594 Q58.0781,157.7813 58.2813,157.7813 Q58.6094,157.7813 58.8594,158.0469 Q59.125,158.2969 59.125,158.6406 Q59.125,158.9844 58.7813,159.3906 Q58.2813,159.9688 57.4844,160.2969 Q56.4063,160.75 55.1094,160.75 Q53.5938,160.75 52.3906,160.125 Q51.4063,159.625 50.7188,158.5625 Q50.0313,157.4844 50.0313,156.2031 L50.0313,155.0469 Q50.0313,153.7188 50.6406,152.5781 Q51.2656,151.4219 52.3594,150.8125 Q53.4531,150.1875 54.6875,150.1875 Q55.4219,150.1875 56.0625,150.3594 Q56.7188,150.5156 57.2656,150.875 Z " fill="#000000"/><text fill="#000000" font-family="sans-serif" font-size="12" lengthAdjust="spacing" textLength="55" x="70.5" y="159.9102">Employee</text><line style="stroke:#A80036;stroke-width:1.5;" x1="31.5" x2="136.5" y1="171" y2="171"/><text fill="#000000" font-family="sans-serif" font-size="11" lengthAdjust="spacing" textLength="30" x="36.5" y="186.4189">-name</text><text fill="#000000" font-family="sans-serif" font-size="11" lengthAdjust="spacing" textLength="71" x="36.5" y="200.2549">-phoneNumber</text><text fill="#000000" font-family="sans-serif" font-size="11" lengthAdjust="spacing" textLength="28" x="36.5" y="214.0908">-email</text><text fill="#000000" font-family="sans-serif" font-size="11" lengthAdjust="spacing" textLength="54" x="36.5" y="227.9268">-password</text><text fill="#000000" font-family="sans-serif" font-size="11" lengthAdjust="spacing" textLength="44" x="36.5" y="241.7627">-address</text><text fill="#000000" font-family="sans-serif" font-size="11" lengthAdjust="spacing" textLength="95" x="36.5" y="255.5986">-citizenCardNumber</text><text fill="#000000" font-family="sans-serif" font-size="11" lengthAdjust="spacing" textLength="30" x="36.5" y="269.4346">-roleId</text><!--MD5=[de60e6d4f424ae4d0522096f76a59010]
class VaccinationCenter--><rect codeLine="20" fill="#FEFECE" filter="url(#f3u4xfr6pgi9i)" height="136.8516" id="VaccinationCenter" style="stroke:#A80036;stroke-width:1.5;" width="132" x="125" y="521"/><ellipse cx="140" cy="537" fill="#ADD1B2" rx="11" ry="11" style="stroke:#A80036;stroke-width:1.0;"/><path d="M142.7656,532.875 Q142.9219,532.6563 143.1094,532.5469 Q143.2969,532.4375 143.5156,532.4375 Q143.8906,532.4375 144.125,532.7031 Q144.3594,532.9531 144.3594,533.5625 L144.3594,535.0156 Q144.3594,535.625 144.125,535.8906 Q143.8906,536.1563 143.5156,536.1563 Q143.1719,536.1563 142.9688,535.9531 Q142.7656,535.7656 142.6563,535.25 Q142.6094,534.8906 142.4219,534.7031 Q142.0938,534.3281 141.4844,534.1094 Q140.875,533.8906 140.25,533.8906 Q139.4844,533.8906 138.8438,534.2188 Q138.2188,534.5469 137.7188,535.2969 Q137.2344,536.0469 137.2344,537.0781 L137.2344,538.1719 Q137.2344,539.4063 138.125,540.2344 Q139.0156,541.0469 140.6094,541.0469 Q141.5469,541.0469 142.2031,540.7969 Q142.5938,540.6406 143.0156,540.2031 Q143.2813,539.9375 143.4219,539.8594 Q143.5781,539.7813 143.7813,539.7813 Q144.1094,539.7813 144.3594,540.0469 Q144.625,540.2969 144.625,540.6406 Q144.625,540.9844 144.2813,541.3906 Q143.7813,541.9688 142.9844,542.2969 Q141.9063,542.75 140.6094,542.75 Q139.0938,542.75 137.8906,542.125 Q136.9063,541.625 136.2188,540.5625 Q135.5313,539.4844 135.5313,538.2031 L135.5313,537.0469 Q135.5313,535.7188 136.1406,534.5781 Q136.7656,533.4219 137.8594,532.8125 Q138.9531,532.1875 140.1875,532.1875 Q140.9219,532.1875 141.5625,532.3594 Q142.2188,532.5156 142.7656,532.875 Z " fill="#000000"/><text fill="#000000" font-family="sans-serif" font-size="12" lengthAdjust="spacing" textLength="100" x="154" y="541.9102">VaccinationCenter</text><line style="stroke:#A80036;stroke-width:1.5;" x1="126" x2="256" y1="553" y2="553"/><text fill="#000000" font-family="sans-serif" font-size="11" lengthAdjust="spacing" textLength="30" x="131" y="568.4189">-name</text><text fill="#000000" font-family="sans-serif" font-size="11" lengthAdjust="spacing" textLength="44" x="131" y="582.2549">-address</text><text fill="#000000" font-family="sans-serif" font-size="11" lengthAdjust="spacing" textLength="70" x="131" y="596.0908">-emailAddress</text><text fill="#000000" font-family="sans-serif" font-size="11" lengthAdjust="spacing" textLength="71" x="131" y="609.9268">-phoneNumber</text><text fill="#000000" font-family="sans-serif" font-size="11" lengthAdjust="spacing" textLength="57" x="131" y="623.7627">-faxNumber</text><text fill="#000000" font-family="sans-serif" font-size="11" lengthAdjust="spacing" textLength="85" x="131" y="637.5986">-websiteAddress</text><text fill="#000000" font-family="sans-serif" font-size="11" lengthAdjust="spacing" textLength="23" x="131" y="651.4346">-time</text><!--MD5=[45c6380d22fb72521f5065026b277fb9]
class Slot--><rect codeLine="30" fill="#FEFECE" filter="url(#f3u4xfr6pgi9i)" height="67.6719" id="Slot" style="stroke:#A80036;stroke-width:1.5;" width="90" x="146" y="750"/><ellipse cx="177.65" cy="766" fill="#ADD1B2" rx="11" ry="11" style="stroke:#A80036;stroke-width:1.0;"/><path d="M180.4156,761.875 Q180.5719,761.6563 180.7594,761.5469 Q180.9469,761.4375 181.1656,761.4375 Q181.5406,761.4375 181.775,761.7031 Q182.0094,761.9531 182.0094,762.5625 L182.0094,764.0156 Q182.0094,764.625 181.775,764.8906 Q181.5406,765.1563 181.1656,765.1563 Q180.8219,765.1563 180.6188,764.9531 Q180.4156,764.7656 180.3063,764.25 Q180.2594,763.8906 180.0719,763.7031 Q179.7438,763.3281 179.1344,763.1094 Q178.525,762.8906 177.9,762.8906 Q177.1344,762.8906 176.4938,763.2188 Q175.8688,763.5469 175.3688,764.2969 Q174.8844,765.0469 174.8844,766.0781 L174.8844,767.1719 Q174.8844,768.4063 175.775,769.2344 Q176.6656,770.0469 178.2594,770.0469 Q179.1969,770.0469 179.8531,769.7969 Q180.2438,769.6406 180.6656,769.2031 Q180.9313,768.9375 181.0719,768.8594 Q181.2281,768.7813 181.4313,768.7813 Q181.7594,768.7813 182.0094,769.0469 Q182.275,769.2969 182.275,769.6406 Q182.275,769.9844 181.9313,770.3906 Q181.4313,770.9688 180.6344,771.2969 Q179.5563,771.75 178.2594,771.75 Q176.7438,771.75 175.5406,771.125 Q174.5563,770.625 173.8688,769.5625 Q173.1813,768.4844 173.1813,767.2031 L173.1813,766.0469 Q173.1813,764.7188 173.7906,763.5781 Q174.4156,762.4219 175.5094,761.8125 Q176.6031,761.1875 177.8375,761.1875 Q178.5719,761.1875 179.2125,761.3594 Q179.8688,761.5156 180.4156,761.875 Z " fill="#000000"/><text fill="#000000" font-family="sans-serif" font-size="12" lengthAdjust="spacing" textLength="21" x="195.35" y="770.9102">Slot</text><line style="stroke:#A80036;stroke-width:1.5;" x1="147" x2="235" y1="782" y2="782"/><text fill="#000000" font-family="sans-serif" font-size="11" lengthAdjust="spacing" textLength="61" x="152" y="797.4189">-slotDuration</text><text fill="#000000" font-family="sans-serif" font-size="11" lengthAdjust="spacing" textLength="78" x="152" y="811.2549">-maxVacPerSlot</text><!--MD5=[107cfa23aa516ff83d0cf17a6f9fe7ba]
class VaccineAdministration--><rect codeLine="35" fill="#FEFECE" filter="url(#f3u4xfr6pgi9i)" height="81.5078" id="VaccineAdministration" style="stroke:#A80036;stroke-width:1.5;" width="154" x="257" y="354"/><ellipse cx="272" cy="370" fill="#ADD1B2" rx="11" ry="11" style="stroke:#A80036;stroke-width:1.0;"/><path d="M274.7656,365.875 Q274.9219,365.6563 275.1094,365.5469 Q275.2969,365.4375 275.5156,365.4375 Q275.8906,365.4375 276.125,365.7031 Q276.3594,365.9531 276.3594,366.5625 L276.3594,368.0156 Q276.3594,368.625 276.125,368.8906 Q275.8906,369.1563 275.5156,369.1563 Q275.1719,369.1563 274.9688,368.9531 Q274.7656,368.7656 274.6563,368.25 Q274.6094,367.8906 274.4219,367.7031 Q274.0938,367.3281 273.4844,367.1094 Q272.875,366.8906 272.25,366.8906 Q271.4844,366.8906 270.8438,367.2188 Q270.2188,367.5469 269.7188,368.2969 Q269.2344,369.0469 269.2344,370.0781 L269.2344,371.1719 Q269.2344,372.4063 270.125,373.2344 Q271.0156,374.0469 272.6094,374.0469 Q273.5469,374.0469 274.2031,373.7969 Q274.5938,373.6406 275.0156,373.2031 Q275.2813,372.9375 275.4219,372.8594 Q275.5781,372.7813 275.7813,372.7813 Q276.1094,372.7813 276.3594,373.0469 Q276.625,373.2969 276.625,373.6406 Q276.625,373.9844 276.2813,374.3906 Q275.7813,374.9688 274.9844,375.2969 Q273.9063,375.75 272.6094,375.75 Q271.0938,375.75 269.8906,375.125 Q268.9063,374.625 268.2188,373.5625 Q267.5313,372.4844 267.5313,371.2031 L267.5313,370.0469 Q267.5313,368.7188 268.1406,367.5781 Q268.7656,366.4219 269.8594,365.8125 Q270.9531,365.1875 272.1875,365.1875 Q272.9219,365.1875 273.5625,365.3594 Q274.2188,365.5156 274.7656,365.875 Z " fill="#000000"/><text fill="#000000" font-family="sans-serif" font-size="12" lengthAdjust="spacing" textLength="122" x="286" y="374.9102">VaccineAdministration</text><line style="stroke:#A80036;stroke-width:1.5;" x1="258" x2="410" y1="386" y2="386"/><text fill="#000000" font-family="sans-serif" font-size="11" lengthAdjust="spacing" textLength="28" x="263" y="401.4189">-dose</text><text fill="#000000" font-family="sans-serif" font-size="11" lengthAdjust="spacing" textLength="52" x="263" y="415.2549">-lotNumber</text><text fill="#000000" font-family="sans-serif" font-size="11" lengthAdjust="spacing" textLength="25" x="263" y="429.0908">-date</text><!--MD5=[72be06cc7ae02ccc98efe28a50e62246]
class SNSUser--><rect codeLine="41" fill="#FEFECE" filter="url(#f3u4xfr6pgi9i)" height="150.6875" id="SNSUser" style="stroke:#A80036;stroke-width:1.5;" width="84" x="292" y="514"/><ellipse cx="307" cy="530" fill="#ADD1B2" rx="11" ry="11" style="stroke:#A80036;stroke-width:1.0;"/><path d="M309.7656,525.875 Q309.9219,525.6563 310.1094,525.5469 Q310.2969,525.4375 310.5156,525.4375 Q310.8906,525.4375 311.125,525.7031 Q311.3594,525.9531 311.3594,526.5625 L311.3594,528.0156 Q311.3594,528.625 311.125,528.8906 Q310.8906,529.1563 310.5156,529.1563 Q310.1719,529.1563 309.9688,528.9531 Q309.7656,528.7656 309.6563,528.25 Q309.6094,527.8906 309.4219,527.7031 Q309.0938,527.3281 308.4844,527.1094 Q307.875,526.8906 307.25,526.8906 Q306.4844,526.8906 305.8438,527.2188 Q305.2188,527.5469 304.7188,528.2969 Q304.2344,529.0469 304.2344,530.0781 L304.2344,531.1719 Q304.2344,532.4063 305.125,533.2344 Q306.0156,534.0469 307.6094,534.0469 Q308.5469,534.0469 309.2031,533.7969 Q309.5938,533.6406 310.0156,533.2031 Q310.2813,532.9375 310.4219,532.8594 Q310.5781,532.7813 310.7813,532.7813 Q311.1094,532.7813 311.3594,533.0469 Q311.625,533.2969 311.625,533.6406 Q311.625,533.9844 311.2813,534.3906 Q310.7813,534.9688 309.9844,535.2969 Q308.9063,535.75 307.6094,535.75 Q306.0938,535.75 304.8906,535.125 Q303.9063,534.625 303.2188,533.5625 Q302.5313,532.4844 302.5313,531.2031 L302.5313,530.0469 Q302.5313,528.7188 303.1406,527.5781 Q303.7656,526.4219 304.8594,525.8125 Q305.9531,525.1875 307.1875,525.1875 Q307.9219,525.1875 308.5625,525.3594 Q309.2188,525.5156 309.7656,525.875 Z " fill="#000000"/><text fill="#000000" font-family="sans-serif" font-size="12" lengthAdjust="spacing" textLength="52" x="321" y="534.9102">SNSUser</text><line style="stroke:#A80036;stroke-width:1.5;" x1="293" x2="375" y1="546" y2="546"/><text fill="#000000" font-family="sans-serif" font-size="11" lengthAdjust="spacing" textLength="58" x="298" y="561.4189">-citizenCard</text><text fill="#000000" font-family="sans-serif" font-size="11" lengthAdjust="spacing" textLength="59" x="298" y="575.2549">-snsNumber</text><text fill="#000000" font-family="sans-serif" font-size="11" lengthAdjust="spacing" textLength="30" x="298" y="589.0908">-name</text><text fill="#000000" font-family="sans-serif" font-size="11" lengthAdjust="spacing" textLength="44" x="298" y="602.9268">-birthDay</text><text fill="#000000" font-family="sans-serif" font-size="11" lengthAdjust="spacing" textLength="38" x="298" y="616.7627">-gender</text><text fill="#000000" font-family="sans-serif" font-size="11" lengthAdjust="spacing" textLength="71" x="298" y="630.5986">-phoneNumber</text><text fill="#000000" font-family="sans-serif" font-size="11" lengthAdjust="spacing" textLength="28" x="298" y="644.4346">-email</text><text fill="#000000" font-family="sans-serif" font-size="11" lengthAdjust="spacing" textLength="44" x="298" y="658.2705">-address</text><!--MD5=[19e445fc4d3b48519cbe33da05496394]
class Vaccine--><rect codeLine="52" fill="#FEFECE" filter="url(#f3u4xfr6pgi9i)" height="81.5078" id="Vaccine" style="stroke:#A80036;stroke-width:1.5;" width="75" x="411.5" y="548.5"/><ellipse cx="426.5" cy="564.5" fill="#ADD1B2" rx="11" ry="11" style="stroke:#A80036;stroke-width:1.0;"/><path d="M429.2656,560.375 Q429.4219,560.1563 429.6094,560.0469 Q429.7969,559.9375 430.0156,559.9375 Q430.3906,559.9375 430.625,560.2031 Q430.8594,560.4531 430.8594,561.0625 L430.8594,562.5156 Q430.8594,563.125 430.625,563.3906 Q430.3906,563.6563 430.0156,563.6563 Q429.6719,563.6563 429.4688,563.4531 Q429.2656,563.2656 429.1563,562.75 Q429.1094,562.3906 428.9219,562.2031 Q428.5938,561.8281 427.9844,561.6094 Q427.375,561.3906 426.75,561.3906 Q425.9844,561.3906 425.3438,561.7188 Q424.7188,562.0469 424.2188,562.7969 Q423.7344,563.5469 423.7344,564.5781 L423.7344,565.6719 Q423.7344,566.9063 424.625,567.7344 Q425.5156,568.5469 427.1094,568.5469 Q428.0469,568.5469 428.7031,568.2969 Q429.0938,568.1406 429.5156,567.7031 Q429.7813,567.4375 429.9219,567.3594 Q430.0781,567.2813 430.2813,567.2813 Q430.6094,567.2813 430.8594,567.5469 Q431.125,567.7969 431.125,568.1406 Q431.125,568.4844 430.7813,568.8906 Q430.2813,569.4688 429.4844,569.7969 Q428.4063,570.25 427.1094,570.25 Q425.5938,570.25 424.3906,569.625 Q423.4063,569.125 422.7188,568.0625 Q422.0313,566.9844 422.0313,565.7031 L422.0313,564.5469 Q422.0313,563.2188 422.6406,562.0781 Q423.2656,560.9219 424.3594,560.3125 Q425.4531,559.6875 426.6875,559.6875 Q427.4219,559.6875 428.0625,559.8594 Q428.7188,560.0156 429.2656,560.375 Z " fill="#000000"/><text fill="#000000" font-family="sans-serif" font-size="12" lengthAdjust="spacing" textLength="43" x="440.5" y="569.4102">Vaccine</text><line style="stroke:#A80036;stroke-width:1.5;" x1="412.5" x2="485.5" y1="580.5" y2="580.5"/><text fill="#000000" font-family="sans-serif" font-size="11" lengthAdjust="spacing" textLength="59" x="417.5" y="595.9189">-designation</text><text fill="#000000" font-family="sans-serif" font-size="11" lengthAdjust="spacing" textLength="12" x="417.5" y="609.7549">-id</text><text fill="#000000" font-family="sans-serif" font-size="11" lengthAdjust="spacing" textLength="32" x="417.5" y="623.5908">-brand</text><!--MD5=[0e501da62322464167c8ec4d233a6b7e]
class VaccineType--><rect codeLine="58" fill="#FEFECE" filter="url(#f3u4xfr6pgi9i)" height="81.5078" id="VaccineType" style="stroke:#A80036;stroke-width:1.5;" width="101" x="398.5" y="743"/><ellipse cx="413.5" cy="759" fill="#ADD1B2" rx="11" ry="11" style="stroke:#A80036;stroke-width:1.0;"/><path d="M416.2656,754.875 Q416.4219,754.6563 416.6094,754.5469 Q416.7969,754.4375 417.0156,754.4375 Q417.3906,754.4375 417.625,754.7031 Q417.8594,754.9531 417.8594,755.5625 L417.8594,757.0156 Q417.8594,757.625 417.625,757.8906 Q417.3906,758.1563 417.0156,758.1563 Q416.6719,758.1563 416.4688,757.9531 Q416.2656,757.7656 416.1563,757.25 Q416.1094,756.8906 415.9219,756.7031 Q415.5938,756.3281 414.9844,756.1094 Q414.375,755.8906 413.75,755.8906 Q412.9844,755.8906 412.3438,756.2188 Q411.7188,756.5469 411.2188,757.2969 Q410.7344,758.0469 410.7344,759.0781 L410.7344,760.1719 Q410.7344,761.4063 411.625,762.2344 Q412.5156,763.0469 414.1094,763.0469 Q415.0469,763.0469 415.7031,762.7969 Q416.0938,762.6406 416.5156,762.2031 Q416.7813,761.9375 416.9219,761.8594 Q417.0781,761.7813 417.2813,761.7813 Q417.6094,761.7813 417.8594,762.0469 Q418.125,762.2969 418.125,762.6406 Q418.125,762.9844 417.7813,763.3906 Q417.2813,763.9688 416.4844,764.2969 Q415.4063,764.75 414.1094,764.75 Q412.5938,764.75 411.3906,764.125 Q410.4063,763.625 409.7188,762.5625 Q409.0313,761.4844 409.0313,760.2031 L409.0313,759.0469 Q409.0313,757.7188 409.6406,756.5781 Q410.2656,755.4219 411.3594,754.8125 Q412.4531,754.1875 413.6875,754.1875 Q414.4219,754.1875 415.0625,754.3594 Q415.7188,754.5156 416.2656,754.875 Z " fill="#000000"/><text fill="#000000" font-family="sans-serif" font-size="12" lengthAdjust="spacing" textLength="69" x="427.5" y="763.9102">VaccineType</text><line style="stroke:#A80036;stroke-width:1.5;" x1="399.5" x2="498.5" y1="775" y2="775"/><text fill="#000000" font-family="sans-serif" font-size="11" lengthAdjust="spacing" textLength="28" x="404.5" y="790.4189">-code</text><text fill="#000000" font-family="sans-serif" font-size="11" lengthAdjust="spacing" textLength="57" x="404.5" y="804.2549">-description</text><text fill="#000000" font-family="sans-serif" font-size="11" lengthAdjust="spacing" textLength="57" x="404.5" y="818.0908">-technology</text><!--MD5=[09366576ee87d48d594df10cacc83f45]
link Company to Employee--><path codeLine="64" d="M127.91,61.2 C123.84,70.51 119.47,81.12 116,91 C110.62,106.31 105.55,123.02 101.1,138.84 " fill="none" id="Company-Employee" style="stroke:#A80036;stroke-width:1.0;"/><polygon fill="#000000" points="119.368,104.9019,125.0983,97.3115,119.5423,95.393,119.368,104.9019" style="stroke:#000000;stroke-width:1.0;"/><text fill="#000000" font-family="sans-serif" font-size="13" lengthAdjust="spacing" textLength="37" x="130" y="105.4951">knows</text><text fill="#000000" font-family="sans-serif" font-size="13" lengthAdjust="spacing" textLength="7" x="117.4997" y="82.4515">1</text><text fill="#000000" font-family="sans-serif" font-size="13" lengthAdjust="spacing" textLength="5" x="97.6969" y="127.9778">*</text><!--MD5=[eebe9b198877275d05dd12630ed9e401]
link Company to VaccinationCenter--><path codeLine="65" d="M158.41,61.17 C163.8,70.21 169.04,80.66 172,91 C214.56,239.75 206.89,423.71 198.43,520.92 " fill="none" id="Company-VaccinationCenter" style="stroke:#A80036;stroke-width:1.0;"/><polygon fill="#000000" points="210.4336,320.1569,212.5771,310.8911,206.7214,311.4008,210.4336,320.1569" style="stroke:#000000;stroke-width:1.0;"/><text fill="#000000" font-family="sans-serif" font-size="13" lengthAdjust="spacing" textLength="37" x="219" y="320.4951">knows</text><text fill="#000000" font-family="sans-serif" font-size="13" lengthAdjust="spacing" textLength="7" x="154.6716" y="82.415">1</text><text fill="#000000" font-family="sans-serif" font-size="13" lengthAdjust="spacing" textLength="5" x="193.9692" y="510.0665">*</text><!--MD5=[98f7f3dc8d9719d04ad14614c4ea123f]
reverse link Employee to CenterCoordinator--><path codeLine="67" d="M79.26,296.45 C77.67,325.98 76.04,356.16 75.03,374.98 " fill="none" id="Employee-backto-CenterCoordinator" style="stroke:#A80036;stroke-width:1.0;"/><polygon fill="none" points="72.28,295.85,80.35,276.26,86.26,296.61,72.28,295.85" style="stroke:#A80036;stroke-width:1.0;"/><!--MD5=[d5cf03d886352995267197dc535618ec]
link CenterCoordinator to VaccinationCenter--><path codeLine="69" d="M85.65,415.16 C100.56,439.7 127.19,483.52 149.95,520.96 " fill="none" id="CenterCoordinator-VaccinationCenter" style="stroke:#A80036;stroke-width:1.0;"/><polygon fill="#000000" points="133.5968,479.4486,131.4106,470.1927,126.3877,473.2454,133.5968,479.4486" style="stroke:#000000;stroke-width:1.0;"/><text fill="#000000" font-family="sans-serif" font-size="13" lengthAdjust="spacing" textLength="21" x="140" y="480.4951">has</text><!--MD5=[b649bef0048cf03271726558ee7073ed]
link VaccinationCenter to Slot--><path codeLine="71" d="M191,658.1 C191,689.19 191,724.67 191,749.85 " fill="none" id="VaccinationCenter-Slot" style="stroke:#A80036;stroke-width:1.0;"/><polygon fill="#000000" points="196,709.1758,198.9389,700.1307,193.0611,700.1307,196,709.1758" style="stroke:#000000;stroke-width:1.0;"/><text fill="#000000" font-family="sans-serif" font-size="13" lengthAdjust="spacing" textLength="21" x="205" y="709.4951">has</text><text fill="#000000" font-family="sans-serif" font-size="13" lengthAdjust="spacing" textLength="7" x="183.6391" y="679.5203">1</text><text fill="#000000" font-family="sans-serif" font-size="13" lengthAdjust="spacing" textLength="7" x="183.3109" y="739.1137">1</text><!--MD5=[6bb3ec5f470f72ee4f54b0838c98c655]
link VaccineAdministration to VaccinationCenter--><path codeLine="73" d="M304.02,436.35 C285.84,460.83 262.18,492.68 241.2,520.92 " fill="none" id="VaccineAdministration-VaccinationCenter" style="stroke:#A80036;stroke-width:1.0;"/><polygon fill="#000000" points="287.9815,471.162,280.2287,476.6705,284.9472,480.1755,287.9815,471.162" style="stroke:#000000;stroke-width:1.0;"/><text fill="#000000" font-family="sans-serif" font-size="13" lengthAdjust="spacing" textLength="21" x="294" y="480.4951">has</text><text fill="#000000" font-family="sans-serif" font-size="13" lengthAdjust="spacing" textLength="5" x="294.2495" y="457.1554">*</text><text fill="#000000" font-family="sans-serif" font-size="13" lengthAdjust="spacing" textLength="7" x="239.3078" y="510.0665">1</text><!--MD5=[951a07871a6512bd4f8e62baa1d062ce]
link VaccineAdministration to SNSUser--><path codeLine="74" d="M334,436.35 C334,458.84 334,487.57 334,513.98 " fill="none" id="VaccineAdministration-SNSUser" style="stroke:#A80036;stroke-width:1.0;"/><polygon fill="#000000" points="339,480.1758,341.9389,471.1307,336.0611,471.1307,339,480.1758" style="stroke:#000000;stroke-width:1.0;"/><text fill="#000000" font-family="sans-serif" font-size="13" lengthAdjust="spacing" textLength="21" x="348" y="480.4951">has</text><text fill="#000000" font-family="sans-serif" font-size="13" lengthAdjust="spacing" textLength="7" x="326.4859" y="457.1554">1</text><text fill="#000000" font-family="sans-serif" font-size="13" lengthAdjust="spacing" textLength="5" x="328.7422" y="502.8964">*</text><!--MD5=[d96ee281cdb1021d3c4ed227c45512e2]
link VaccineAdministration to Vaccine--><path codeLine="75" d="M359.61,436.19 C365.7,445.91 372.14,456.29 378,466 C394.45,493.25 412.43,524.28 426.18,548.29 " fill="none" id="VaccineAdministration-Vaccine" style="stroke:#A80036;stroke-width:1.0;"/><polygon fill="#000000" points="395.553,479.4749,393.4615,470.1971,388.4076,473.1984,395.553,479.4749" style="stroke:#000000;stroke-width:1.0;"/><text fill="#000000" font-family="sans-serif" font-size="13" lengthAdjust="spacing" textLength="21" x="402" y="480.4951">has</text><text fill="#000000" font-family="sans-serif" font-size="13" lengthAdjust="spacing" textLength="7" x="355.8574" y="456.9719">1</text><text fill="#000000" font-family="sans-serif" font-size="13" lengthAdjust="spacing" textLength="7" x="414.8208" y="537.7046">1</text><!--MD5=[3568623adf67b2630dce9e60c05bd02a]
link Vaccine to VaccineType--><path codeLine="76" d="M449,630.85 C449,663.71 449,709.86 449,742.7 " fill="none" id="Vaccine-VaccineType" style="stroke:#A80036;stroke-width:1.0;"/><polygon fill="#000000" points="454,699.1758,451.0611,708.2209,456.9389,708.2209,454,699.1758" style="stroke:#000000;stroke-width:1.0;"/><text fill="#000000" font-family="sans-serif" font-size="13" lengthAdjust="spacing" textLength="21" x="463" y="709.4951">has</text><text fill="#000000" font-family="sans-serif" font-size="13" lengthAdjust="spacing" textLength="5" x="443.6328" y="651.6554">*</text><text fill="#000000" font-family="sans-serif" font-size="13" lengthAdjust="spacing" textLength="7" x="441.4203" y="732.0997">1</text><!--MD5=[661caa889bd1db534c1835c7d0fc11f3]
@startuml US15_DM
hide methods
skinparam classAttributeIconSize 0

class Company {
  -designation
}

class CenterCoordinator {}

class Employee {
  -name
  -phoneNumber
  -email
  -password
  -address
  -citizenCardNumber
  -roleId
}

class VaccinationCenter{
  -name
  -address
  -emailAddress
  -phoneNumber
  -faxNumber
  -websiteAddress
  -time
}

class Slot {
  -slotDuration
  -maxVacPerSlot
}

class VaccineAdministration {
  -dose
  -lotNumber
  -date
}

class SNSUser {
  - citizenCard
  - snsNumber
  - name
  - birthDay
  - gender
  - phoneNumber
  - email
  - address
}

class Vaccine {
  -designation
  -id
  -brand
}

class VaccineType {
  -code 
  -description
  -technology
}

Company "1" - - "*" Employee : knows >
Company "1" - - "*" VaccinationCenter : knows >

Employee <|- - CenterCoordinator

CenterCoordinator - - VaccinationCenter : has >

VaccinationCenter "1"- - "1" Slot : has >

VaccineAdministration "*" - - "1" VaccinationCenter : has <
VaccineAdministration "1" - - "*" SNSUser : has >
VaccineAdministration "1" - - "1" Vaccine : has > 
Vaccine "*" - - "1" VaccineType : has <

@enduml

PlantUML version 1.2022.0(Tue Jan 11 16:16:42 WET 2022)
(GPL source distribution)
Java Runtime: Java(TM) SE Runtime Environment
JVM: Java HotSpot(TM) 64-Bit Server VM
Default Encoding: Cp1252
Language: pt
Country: PT
--></g></svg>