<?xml version="1.0" encoding="UTF-8" standalone="no"?><svg xmlns="http://www.w3.org/2000/svg" xmlns:xlink="http://www.w3.org/1999/xlink" contentScriptType="application/ecmascript" contentStyleType="text/css" height="679px" preserveAspectRatio="none" style="width:411px;height:679px;background:#FFFFFF;" version="1.1" viewBox="0 0 411 679" width="411px" zoomAndPan="magnify"><defs><filter height="300%" id="f16p1dx7n735ds" width="300%" x="-1" y="-1"><feGaussianBlur result="blurOut" stdDeviation="2.0"/><feColorMatrix in="blurOut" result="blurOut2" type="matrix" values="0 0 0 0 0 0 0 0 0 0 0 0 0 0 0 0 0 0 .4 0"/><feOffset dx="4.0" dy="4.0" in="blurOut2" result="blurOut3"/><feBlend in="SourceGraphic" in2="blurOut3" mode="normal"/></filter></defs><g><!--MD5=[02e4b9b7573f1156f41e60aa5b4e25a4]
class Company--><rect codeLine="4" fill="#FEFECE" filter="url(#f16p1dx7n735ds)" height="53.8359" id="Company" style="stroke:#A80036;stroke-width:1.5;" width="85" x="149" y="7"/><ellipse cx="164" cy="23" fill="#ADD1B2" rx="11" ry="11" style="stroke:#A80036;stroke-width:1.0;"/><path d="M166.7656,18.875 Q166.9219,18.6563 167.1094,18.5469 Q167.2969,18.4375 167.5156,18.4375 Q167.8906,18.4375 168.125,18.7031 Q168.3594,18.9531 168.3594,19.5625 L168.3594,21.0156 Q168.3594,21.625 168.125,21.8906 Q167.8906,22.1563 167.5156,22.1563 Q167.1719,22.1563 166.9688,21.9531 Q166.7656,21.7656 166.6563,21.25 Q166.6094,20.8906 166.4219,20.7031 Q166.0938,20.3281 165.4844,20.1094 Q164.875,19.8906 164.25,19.8906 Q163.4844,19.8906 162.8438,20.2188 Q162.2188,20.5469 161.7188,21.2969 Q161.2344,22.0469 161.2344,23.0781 L161.2344,24.1719 Q161.2344,25.4063 162.125,26.2344 Q163.0156,27.0469 164.6094,27.0469 Q165.5469,27.0469 166.2031,26.7969 Q166.5938,26.6406 167.0156,26.2031 Q167.2813,25.9375 167.4219,25.8594 Q167.5781,25.7813 167.7813,25.7813 Q168.1094,25.7813 168.3594,26.0469 Q168.625,26.2969 168.625,26.6406 Q168.625,26.9844 168.2813,27.3906 Q167.7813,27.9688 166.9844,28.2969 Q165.9063,28.75 164.6094,28.75 Q163.0938,28.75 161.8906,28.125 Q160.9063,27.625 160.2188,26.5625 Q159.5313,25.4844 159.5313,24.2031 L159.5313,23.0469 Q159.5313,21.7188 160.1406,20.5781 Q160.7656,19.4219 161.8594,18.8125 Q162.9531,18.1875 164.1875,18.1875 Q164.9219,18.1875 165.5625,18.3594 Q166.2188,18.5156 166.7656,18.875 Z " fill="#000000"/><text fill="#000000" font-family="sans-serif" font-size="12" lengthAdjust="spacing" textLength="53" x="178" y="27.9102">Company</text><line style="stroke:#A80036;stroke-width:1.5;" x1="150" x2="233" y1="39" y2="39"/><text fill="#000000" font-family="sans-serif" font-size="11" lengthAdjust="spacing" textLength="59" x="155" y="54.4189">-designation</text><!--MD5=[2d935fd2dd068a13da1ae531f9857c4f]
class CenterCoordinator--><rect codeLine="8" fill="#FEFECE" filter="url(#f16p1dx7n735ds)" height="40" id="CenterCoordinator" style="stroke:#A80036;stroke-width:1.5;" width="134" x="91.5" y="279"/><ellipse cx="106.5" cy="295" fill="#ADD1B2" rx="11" ry="11" style="stroke:#A80036;stroke-width:1.0;"/><path d="M109.2656,290.875 Q109.4219,290.6563 109.6094,290.5469 Q109.7969,290.4375 110.0156,290.4375 Q110.3906,290.4375 110.625,290.7031 Q110.8594,290.9531 110.8594,291.5625 L110.8594,293.0156 Q110.8594,293.625 110.625,293.8906 Q110.3906,294.1563 110.0156,294.1563 Q109.6719,294.1563 109.4688,293.9531 Q109.2656,293.7656 109.1563,293.25 Q109.1094,292.8906 108.9219,292.7031 Q108.5938,292.3281 107.9844,292.1094 Q107.375,291.8906 106.75,291.8906 Q105.9844,291.8906 105.3438,292.2188 Q104.7188,292.5469 104.2188,293.2969 Q103.7344,294.0469 103.7344,295.0781 L103.7344,296.1719 Q103.7344,297.4063 104.625,298.2344 Q105.5156,299.0469 107.1094,299.0469 Q108.0469,299.0469 108.7031,298.7969 Q109.0938,298.6406 109.5156,298.2031 Q109.7813,297.9375 109.9219,297.8594 Q110.0781,297.7813 110.2813,297.7813 Q110.6094,297.7813 110.8594,298.0469 Q111.125,298.2969 111.125,298.6406 Q111.125,298.9844 110.7813,299.3906 Q110.2813,299.9688 109.4844,300.2969 Q108.4063,300.75 107.1094,300.75 Q105.5938,300.75 104.3906,300.125 Q103.4063,299.625 102.7188,298.5625 Q102.0313,297.4844 102.0313,296.2031 L102.0313,295.0469 Q102.0313,293.7188 102.6406,292.5781 Q103.2656,291.4219 104.3594,290.8125 Q105.4531,290.1875 106.6875,290.1875 Q107.4219,290.1875 108.0625,290.3594 Q108.7188,290.5156 109.2656,290.875 Z " fill="#000000"/><text fill="#000000" font-family="sans-serif" font-size="12" lengthAdjust="spacing" textLength="102" x="120.5" y="299.9102">CenterCoordinator</text><line style="stroke:#A80036;stroke-width:1.5;" x1="92.5" x2="224.5" y1="311" y2="311"/><!--MD5=[7421f545a0d8420c5bec41e74b387d9c]
class Employee--><rect codeLine="10" fill="#FEFECE" filter="url(#f16p1dx7n735ds)" height="40" id="Employee" style="stroke:#A80036;stroke-width:1.5;" width="87" x="7" y="139"/><ellipse cx="22" cy="155" fill="#ADD1B2" rx="11" ry="11" style="stroke:#A80036;stroke-width:1.0;"/><path d="M24.7656,150.875 Q24.9219,150.6563 25.1094,150.5469 Q25.2969,150.4375 25.5156,150.4375 Q25.8906,150.4375 26.125,150.7031 Q26.3594,150.9531 26.3594,151.5625 L26.3594,153.0156 Q26.3594,153.625 26.125,153.8906 Q25.8906,154.1563 25.5156,154.1563 Q25.1719,154.1563 24.9688,153.9531 Q24.7656,153.7656 24.6563,153.25 Q24.6094,152.8906 24.4219,152.7031 Q24.0938,152.3281 23.4844,152.1094 Q22.875,151.8906 22.25,151.8906 Q21.4844,151.8906 20.8438,152.2188 Q20.2188,152.5469 19.7188,153.2969 Q19.2344,154.0469 19.2344,155.0781 L19.2344,156.1719 Q19.2344,157.4063 20.125,158.2344 Q21.0156,159.0469 22.6094,159.0469 Q23.5469,159.0469 24.2031,158.7969 Q24.5938,158.6406 25.0156,158.2031 Q25.2813,157.9375 25.4219,157.8594 Q25.5781,157.7813 25.7813,157.7813 Q26.1094,157.7813 26.3594,158.0469 Q26.625,158.2969 26.625,158.6406 Q26.625,158.9844 26.2813,159.3906 Q25.7813,159.9688 24.9844,160.2969 Q23.9063,160.75 22.6094,160.75 Q21.0938,160.75 19.8906,160.125 Q18.9063,159.625 18.2188,158.5625 Q17.5313,157.4844 17.5313,156.2031 L17.5313,155.0469 Q17.5313,153.7188 18.1406,152.5781 Q18.7656,151.4219 19.8594,150.8125 Q20.9531,150.1875 22.1875,150.1875 Q22.9219,150.1875 23.5625,150.3594 Q24.2188,150.5156 24.7656,150.875 Z " fill="#000000"/><text fill="#000000" font-family="sans-serif" font-size="12" lengthAdjust="spacing" textLength="55" x="36" y="159.9102">Employee</text><line style="stroke:#A80036;stroke-width:1.5;" x1="8" x2="93" y1="171" y2="171"/><!--MD5=[de60e6d4f424ae4d0522096f76a59010]
class VaccinationCenter--><rect codeLine="12" fill="#FEFECE" filter="url(#f16p1dx7n735ds)" height="123.0156" id="VaccinationCenter" style="stroke:#A80036;stroke-width:1.5;" width="132" x="170.5" y="397"/><ellipse cx="185.5" cy="413" fill="#ADD1B2" rx="11" ry="11" style="stroke:#A80036;stroke-width:1.0;"/><path d="M188.2656,408.875 Q188.4219,408.6563 188.6094,408.5469 Q188.7969,408.4375 189.0156,408.4375 Q189.3906,408.4375 189.625,408.7031 Q189.8594,408.9531 189.8594,409.5625 L189.8594,411.0156 Q189.8594,411.625 189.625,411.8906 Q189.3906,412.1563 189.0156,412.1563 Q188.6719,412.1563 188.4688,411.9531 Q188.2656,411.7656 188.1563,411.25 Q188.1094,410.8906 187.9219,410.7031 Q187.5938,410.3281 186.9844,410.1094 Q186.375,409.8906 185.75,409.8906 Q184.9844,409.8906 184.3438,410.2188 Q183.7188,410.5469 183.2188,411.2969 Q182.7344,412.0469 182.7344,413.0781 L182.7344,414.1719 Q182.7344,415.4063 183.625,416.2344 Q184.5156,417.0469 186.1094,417.0469 Q187.0469,417.0469 187.7031,416.7969 Q188.0938,416.6406 188.5156,416.2031 Q188.7813,415.9375 188.9219,415.8594 Q189.0781,415.7813 189.2813,415.7813 Q189.6094,415.7813 189.8594,416.0469 Q190.125,416.2969 190.125,416.6406 Q190.125,416.9844 189.7813,417.3906 Q189.2813,417.9688 188.4844,418.2969 Q187.4063,418.75 186.1094,418.75 Q184.5938,418.75 183.3906,418.125 Q182.4063,417.625 181.7188,416.5625 Q181.0313,415.4844 181.0313,414.2031 L181.0313,413.0469 Q181.0313,411.7188 181.6406,410.5781 Q182.2656,409.4219 183.3594,408.8125 Q184.4531,408.1875 185.6875,408.1875 Q186.4219,408.1875 187.0625,408.3594 Q187.7188,408.5156 188.2656,408.875 Z " fill="#000000"/><text fill="#000000" font-family="sans-serif" font-size="12" lengthAdjust="spacing" textLength="100" x="199.5" y="417.9102">VaccinationCenter</text><line style="stroke:#A80036;stroke-width:1.5;" x1="171.5" x2="301.5" y1="429" y2="429"/><text fill="#000000" font-family="sans-serif" font-size="11" lengthAdjust="spacing" textLength="30" x="176.5" y="444.4189">-name</text><text fill="#000000" font-family="sans-serif" font-size="11" lengthAdjust="spacing" textLength="44" x="176.5" y="458.2549">-address</text><text fill="#000000" font-family="sans-serif" font-size="11" lengthAdjust="spacing" textLength="70" x="176.5" y="472.0908">-emailAddress</text><text fill="#000000" font-family="sans-serif" font-size="11" lengthAdjust="spacing" textLength="71" x="176.5" y="485.9268">-phoneNumber</text><text fill="#000000" font-family="sans-serif" font-size="11" lengthAdjust="spacing" textLength="57" x="176.5" y="499.7627">-faxNumber</text><text fill="#000000" font-family="sans-serif" font-size="11" lengthAdjust="spacing" textLength="85" x="176.5" y="513.5986">-websiteAddress</text><!--MD5=[a29876ea2f21a6ca48ea477740122fd8]
class VaccinationCenterStore--><rect codeLine="21" fill="#FEFECE" filter="url(#f16p1dx7n735ds)" height="40" id="VaccinationCenterStore" style="stroke:#A80036;stroke-width:1.5;" width="161" x="236" y="209"/><ellipse cx="251" cy="225" fill="#ADD1B2" rx="11" ry="11" style="stroke:#A80036;stroke-width:1.0;"/><path d="M253.7656,220.875 Q253.9219,220.6563 254.1094,220.5469 Q254.2969,220.4375 254.5156,220.4375 Q254.8906,220.4375 255.125,220.7031 Q255.3594,220.9531 255.3594,221.5625 L255.3594,223.0156 Q255.3594,223.625 255.125,223.8906 Q254.8906,224.1563 254.5156,224.1563 Q254.1719,224.1563 253.9688,223.9531 Q253.7656,223.7656 253.6563,223.25 Q253.6094,222.8906 253.4219,222.7031 Q253.0938,222.3281 252.4844,222.1094 Q251.875,221.8906 251.25,221.8906 Q250.4844,221.8906 249.8438,222.2188 Q249.2188,222.5469 248.7188,223.2969 Q248.2344,224.0469 248.2344,225.0781 L248.2344,226.1719 Q248.2344,227.4063 249.125,228.2344 Q250.0156,229.0469 251.6094,229.0469 Q252.5469,229.0469 253.2031,228.7969 Q253.5938,228.6406 254.0156,228.2031 Q254.2813,227.9375 254.4219,227.8594 Q254.5781,227.7813 254.7813,227.7813 Q255.1094,227.7813 255.3594,228.0469 Q255.625,228.2969 255.625,228.6406 Q255.625,228.9844 255.2813,229.3906 Q254.7813,229.9688 253.9844,230.2969 Q252.9063,230.75 251.6094,230.75 Q250.0938,230.75 248.8906,230.125 Q247.9063,229.625 247.2188,228.5625 Q246.5313,227.4844 246.5313,226.2031 L246.5313,225.0469 Q246.5313,223.7188 247.1406,222.5781 Q247.7656,221.4219 248.8594,220.8125 Q249.9531,220.1875 251.1875,220.1875 Q251.9219,220.1875 252.5625,220.3594 Q253.2188,220.5156 253.7656,220.875 Z " fill="#000000"/><text fill="#000000" font-family="sans-serif" font-size="12" lengthAdjust="spacing" textLength="129" x="265" y="229.9102">VaccinationCenterStore</text><line style="stroke:#A80036;stroke-width:1.5;" x1="237" x2="396" y1="241" y2="241"/><!--MD5=[2e42295458bb0bec21c9622a623eb29e]
class Time--><rect codeLine="23" fill="#FEFECE" filter="url(#f16p1dx7n735ds)" height="67.6719" id="Time" style="stroke:#A80036;stroke-width:1.5;" width="60" x="152.5" y="598"/><ellipse cx="167.5" cy="614" fill="#ADD1B2" rx="11" ry="11" style="stroke:#A80036;stroke-width:1.0;"/><path d="M170.2656,609.875 Q170.4219,609.6563 170.6094,609.5469 Q170.7969,609.4375 171.0156,609.4375 Q171.3906,609.4375 171.625,609.7031 Q171.8594,609.9531 171.8594,610.5625 L171.8594,612.0156 Q171.8594,612.625 171.625,612.8906 Q171.3906,613.1563 171.0156,613.1563 Q170.6719,613.1563 170.4688,612.9531 Q170.2656,612.7656 170.1563,612.25 Q170.1094,611.8906 169.9219,611.7031 Q169.5938,611.3281 168.9844,611.1094 Q168.375,610.8906 167.75,610.8906 Q166.9844,610.8906 166.3438,611.2188 Q165.7188,611.5469 165.2188,612.2969 Q164.7344,613.0469 164.7344,614.0781 L164.7344,615.1719 Q164.7344,616.4063 165.625,617.2344 Q166.5156,618.0469 168.1094,618.0469 Q169.0469,618.0469 169.7031,617.7969 Q170.0938,617.6406 170.5156,617.2031 Q170.7813,616.9375 170.9219,616.8594 Q171.0781,616.7813 171.2813,616.7813 Q171.6094,616.7813 171.8594,617.0469 Q172.125,617.2969 172.125,617.6406 Q172.125,617.9844 171.7813,618.3906 Q171.2813,618.9688 170.4844,619.2969 Q169.4063,619.75 168.1094,619.75 Q166.5938,619.75 165.3906,619.125 Q164.4063,618.625 163.7188,617.5625 Q163.0313,616.4844 163.0313,615.2031 L163.0313,614.0469 Q163.0313,612.7188 163.6406,611.5781 Q164.2656,610.4219 165.3594,609.8125 Q166.4531,609.1875 167.6875,609.1875 Q168.4219,609.1875 169.0625,609.3594 Q169.7188,609.5156 170.2656,609.875 Z " fill="#000000"/><text fill="#000000" font-family="sans-serif" font-size="12" lengthAdjust="spacing" textLength="28" x="181.5" y="618.9102">Time</text><line style="stroke:#A80036;stroke-width:1.5;" x1="153.5" x2="211.5" y1="630" y2="630"/><text fill="#000000" font-family="sans-serif" font-size="11" lengthAdjust="spacing" textLength="28" x="158.5" y="645.4189">hours</text><text fill="#000000" font-family="sans-serif" font-size="11" lengthAdjust="spacing" textLength="37" x="158.5" y="659.2549">minutes</text><!--MD5=[45c6380d22fb72521f5065026b277fb9]
class Slot--><rect codeLine="28" fill="#FEFECE" filter="url(#f16p1dx7n735ds)" height="67.6719" id="Slot" style="stroke:#A80036;stroke-width:1.5;" width="86" x="247.5" y="598"/><ellipse cx="277.35" cy="614" fill="#ADD1B2" rx="11" ry="11" style="stroke:#A80036;stroke-width:1.0;"/><path d="M280.1156,609.875 Q280.2719,609.6563 280.4594,609.5469 Q280.6469,609.4375 280.8656,609.4375 Q281.2406,609.4375 281.475,609.7031 Q281.7094,609.9531 281.7094,610.5625 L281.7094,612.0156 Q281.7094,612.625 281.475,612.8906 Q281.2406,613.1563 280.8656,613.1563 Q280.5219,613.1563 280.3188,612.9531 Q280.1156,612.7656 280.0063,612.25 Q279.9594,611.8906 279.7719,611.7031 Q279.4438,611.3281 278.8344,611.1094 Q278.225,610.8906 277.6,610.8906 Q276.8344,610.8906 276.1938,611.2188 Q275.5688,611.5469 275.0688,612.2969 Q274.5844,613.0469 274.5844,614.0781 L274.5844,615.1719 Q274.5844,616.4063 275.475,617.2344 Q276.3656,618.0469 277.9594,618.0469 Q278.8969,618.0469 279.5531,617.7969 Q279.9438,617.6406 280.3656,617.2031 Q280.6313,616.9375 280.7719,616.8594 Q280.9281,616.7813 281.1313,616.7813 Q281.4594,616.7813 281.7094,617.0469 Q281.975,617.2969 281.975,617.6406 Q281.975,617.9844 281.6313,618.3906 Q281.1313,618.9688 280.3344,619.2969 Q279.2563,619.75 277.9594,619.75 Q276.4438,619.75 275.2406,619.125 Q274.2563,618.625 273.5688,617.5625 Q272.8813,616.4844 272.8813,615.2031 L272.8813,614.0469 Q272.8813,612.7188 273.4906,611.5781 Q274.1156,610.4219 275.2094,609.8125 Q276.3031,609.1875 277.5375,609.1875 Q278.2719,609.1875 278.9125,609.3594 Q279.5688,609.5156 280.1156,609.875 Z " fill="#000000"/><text fill="#000000" font-family="sans-serif" font-size="12" lengthAdjust="spacing" textLength="21" x="294.65" y="618.9102">Slot</text><line style="stroke:#A80036;stroke-width:1.5;" x1="248.5" x2="332.5" y1="630" y2="630"/><text fill="#000000" font-family="sans-serif" font-size="11" lengthAdjust="spacing" textLength="57" x="253.5" y="645.4189">slotDuration</text><text fill="#000000" font-family="sans-serif" font-size="11" lengthAdjust="spacing" textLength="74" x="253.5" y="659.2549">maxVacPerSlot</text><!--MD5=[cbf6ed1efeae6ec1cb5f0ab34665af9e]
class FileReport--><rect codeLine="33" fill="#FEFECE" filter="url(#f16p1dx7n735ds)" height="40" id="FileReport" style="stroke:#A80036;stroke-width:1.5;" width="89" x="129" y="139"/><ellipse cx="144" cy="155" fill="#ADD1B2" rx="11" ry="11" style="stroke:#A80036;stroke-width:1.0;"/><path d="M146.7656,150.875 Q146.9219,150.6563 147.1094,150.5469 Q147.2969,150.4375 147.5156,150.4375 Q147.8906,150.4375 148.125,150.7031 Q148.3594,150.9531 148.3594,151.5625 L148.3594,153.0156 Q148.3594,153.625 148.125,153.8906 Q147.8906,154.1563 147.5156,154.1563 Q147.1719,154.1563 146.9688,153.9531 Q146.7656,153.7656 146.6563,153.25 Q146.6094,152.8906 146.4219,152.7031 Q146.0938,152.3281 145.4844,152.1094 Q144.875,151.8906 144.25,151.8906 Q143.4844,151.8906 142.8438,152.2188 Q142.2188,152.5469 141.7188,153.2969 Q141.2344,154.0469 141.2344,155.0781 L141.2344,156.1719 Q141.2344,157.4063 142.125,158.2344 Q143.0156,159.0469 144.6094,159.0469 Q145.5469,159.0469 146.2031,158.7969 Q146.5938,158.6406 147.0156,158.2031 Q147.2813,157.9375 147.4219,157.8594 Q147.5781,157.7813 147.7813,157.7813 Q148.1094,157.7813 148.3594,158.0469 Q148.625,158.2969 148.625,158.6406 Q148.625,158.9844 148.2813,159.3906 Q147.7813,159.9688 146.9844,160.2969 Q145.9063,160.75 144.6094,160.75 Q143.0938,160.75 141.8906,160.125 Q140.9063,159.625 140.2188,158.5625 Q139.5313,157.4844 139.5313,156.2031 L139.5313,155.0469 Q139.5313,153.7188 140.1406,152.5781 Q140.7656,151.4219 141.8594,150.8125 Q142.9531,150.1875 144.1875,150.1875 Q144.9219,150.1875 145.5625,150.3594 Q146.2188,150.5156 146.7656,150.875 Z " fill="#000000"/><text fill="#000000" font-family="sans-serif" font-size="12" lengthAdjust="spacing" textLength="57" x="158" y="159.9102">FileReport</text><line style="stroke:#A80036;stroke-width:1.5;" x1="130" x2="217" y1="171" y2="171"/><!--MD5=[09366576ee87d48d594df10cacc83f45]
link Company to Employee--><path codeLine="35" d="M161.6,61.09 C134.92,84.36 96.48,117.89 72.52,138.79 " fill="none" id="Company-Employee" style="stroke:#A80036;stroke-width:1.0;"/><polygon fill="#000000" points="125.732,103.4624,134.4802,99.7316,130.6165,95.302,125.732,103.4624" style="stroke:#000000;stroke-width:1.0;"/><text fill="#000000" font-family="sans-serif" font-size="13" lengthAdjust="spacing" textLength="37" x="138.5" y="105.4951">knows</text><text fill="#000000" font-family="sans-serif" font-size="13" lengthAdjust="spacing" textLength="7" x="147.2938" y="82.3175">1</text><text fill="#000000" font-family="sans-serif" font-size="13" lengthAdjust="spacing" textLength="5" x="73.254" y="128.0501">*</text><!--MD5=[98f7f3dc8d9719d04ad14614c4ea123f]
reverse link Employee to CenterCoordinator--><path codeLine="36" d="M78.03,195.17 C98.88,221.82 126.74,257.42 143.61,278.97 " fill="none" id="Employee-backto-CenterCoordinator" style="stroke:#A80036;stroke-width:1.0;"/><polygon fill="none" points="72.33,199.25,65.52,179.19,83.36,190.62,72.33,199.25" style="stroke:#A80036;stroke-width:1.0;"/><!--MD5=[d5cf03d886352995267197dc535618ec]
link CenterCoordinator to VaccinationCenter--><path codeLine="37" d="M168.06,319.31 C177.62,338.62 192.83,369.31 206.48,396.87 " fill="none" id="CenterCoordinator-VaccinationCenter" style="stroke:#A80036;stroke-width:1.0;"/><polygon fill="#000000" points="197.7194,362.6562,196.338,353.2465,191.0709,355.8556,197.7194,362.6562" style="stroke:#000000;stroke-width:1.0;"/><text fill="#000000" font-family="sans-serif" font-size="13" lengthAdjust="spacing" textLength="21" x="204.5" y="363.4951">has</text><!--MD5=[e67749f86d2edce8d072e016ba76df74]
link VaccinationCenter to Time--><path codeLine="38" d="M217.31,520.45 C209.12,546.44 199.89,575.76 192.99,597.68 " fill="none" id="VaccinationCenter-Time" style="stroke:#A80036;stroke-width:1.0;"/><polygon fill="#000000" points="210.9982,563.9449,216.5182,556.2002,210.9118,554.4347,210.9982,563.9449" style="stroke:#000000;stroke-width:1.0;"/><text fill="#000000" font-family="sans-serif" font-size="13" lengthAdjust="spacing" textLength="21" x="221.5" y="564.4951">has</text><text fill="#000000" font-family="sans-serif" font-size="13" lengthAdjust="spacing" textLength="7" x="207.8283" y="541.6143">1</text><text fill="#000000" font-family="sans-serif" font-size="13" lengthAdjust="spacing" textLength="7" x="187.3225" y="587.1726">1</text><!--MD5=[b649bef0048cf03271726558ee7073ed]
link VaccinationCenter to Slot--><path codeLine="39" d="M255.69,520.45 C263.88,546.44 273.11,575.76 280.01,597.68 " fill="none" id="VaccinationCenter-Slot" style="stroke:#A80036;stroke-width:1.0;"/><polygon fill="#000000" points="276.0018,563.9449,276.0882,554.4347,270.4818,556.2002,276.0018,563.9449" style="stroke:#000000;stroke-width:1.0;"/><text fill="#000000" font-family="sans-serif" font-size="13" lengthAdjust="spacing" textLength="21" x="283.5" y="564.4951">has</text><text fill="#000000" font-family="sans-serif" font-size="13" lengthAdjust="spacing" textLength="7" x="250.4061" y="541.6143">1</text><text fill="#000000" font-family="sans-serif" font-size="13" lengthAdjust="spacing" textLength="7" x="270.3432" y="587.1726">1</text><!--MD5=[8c304936b446fd8cea914e03fbadd4b7]
link VaccinationCenterStore to VaccinationCenter--><path codeLine="40" d="M309.82,249.01 C298.51,281.15 275.16,347.56 257.83,396.83 " fill="none" id="VaccinationCenterStore-VaccinationCenter" style="stroke:#A80036;stroke-width:1.0;"/><polygon fill="#000000" points="301.8411,303.8926,307.6146,296.3349,302.0697,294.3847,301.8411,303.8926" style="stroke:#000000;stroke-width:1.0;"/><text fill="#000000" font-family="sans-serif" font-size="13" lengthAdjust="spacing" textLength="36" x="312.5" y="304.4951">stores</text><text fill="#000000" font-family="sans-serif" font-size="13" lengthAdjust="spacing" textLength="7" x="299.9569" y="270.4324">1</text><text fill="#000000" font-family="sans-serif" font-size="13" lengthAdjust="spacing" textLength="5" x="255.0072" y="386.2889">*</text><!--MD5=[bc0d5b4bfe6e1bf0a8fced13bc4bdd47]
link Company to VaccinationCenterStore--><path codeLine="41" d="M208.36,61.03 C233.81,100.33 281.48,173.93 304.05,208.77 " fill="none" id="Company-VaccinationCenterStore" style="stroke:#A80036;stroke-width:1.0;"/><polygon fill="#000000" points="245.2181,104.3724,242.7677,95.183,237.8343,98.3783,245.2181,104.3724" style="stroke:#000000;stroke-width:1.0;"/><text fill="#000000" font-family="sans-serif" font-size="13" lengthAdjust="spacing" textLength="37" x="251.5" y="105.4951">knows</text><text fill="#000000" font-family="sans-serif" font-size="13" lengthAdjust="spacing" textLength="7" x="204.2825" y="82.2443">1</text><text fill="#000000" font-family="sans-serif" font-size="13" lengthAdjust="spacing" textLength="7" x="292.3647" y="198.0242">1</text><!--MD5=[d2b3fa5d2c15befc1f1443449e89d723]
link FileReport to CenterCoordinator--><path codeLine="42" d="M160.05,179.07 C154.72,187.77 149.21,198.46 146.5,209 C140.44,232.56 146.22,260.45 151.66,278.65 " fill="none" id="FileReport-CenterCoordinator" style="stroke:#A80036;stroke-width:1.0;"/><polygon fill="#000000" points="151.9198,224.1934,148.2318,232.9598,154.0889,233.4533,151.9198,224.1934" style="stroke:#000000;stroke-width:1.0;"/><text fill="#000000" font-family="sans-serif" font-size="13" lengthAdjust="spacing" textLength="57" x="160.5" y="234.4951">generates</text><text fill="#000000" font-family="sans-serif" font-size="13" lengthAdjust="spacing" textLength="7" x="148.2828" y="200.5092">1</text><text fill="#000000" font-family="sans-serif" font-size="13" lengthAdjust="spacing" textLength="7" x="141.7519" y="268.2211">1</text><!--MD5=[72a2b4dbbc5b734acb4e2ab23eadcf40]
@startuml US15_DM
hide methods
skinparam classAttributeIconSize 0

class Company {
    - designation
}

class CenterCoordinator {}

class Employee {}

class VaccinationCenter{
  -name
  -address
  -emailAddress
  -phoneNumber
  -faxNumber
  -websiteAddress
}

class VaccinationCenterStore {}

class Time {
  hours
  minutes
}

class Slot {
  slotDuration
  maxVacPerSlot
}

class FileReport {}

Company "1" - - "*" Employee : knows >
Employee <|- - CenterCoordinator
CenterCoordinator - - VaccinationCenter : has >
VaccinationCenter "1" - - "1" Time : has >
VaccinationCenter "1"- - "1" Slot : has >
VaccinationCenterStore "1" - - "*" VaccinationCenter : stores >
Company "1" - - "1" VaccinationCenterStore : knows >
FileReport "1" - - "1" CenterCoordinator : generates <


@enduml

PlantUML version 1.2022.0(Tue Jan 11 16:16:42 WET 2022)
(GPL source distribution)
Java Runtime: Java(TM) SE Runtime Environment
JVM: Java HotSpot(TM) 64-Bit Server VM
Default Encoding: Cp1252
Language: pt
Country: PT
--></g></svg>