<?xml version="1.0" encoding="UTF-8" standalone="no"?><svg xmlns="http://www.w3.org/2000/svg" xmlns:xlink="http://www.w3.org/1999/xlink" contentScriptType="application/ecmascript" contentStyleType="text/css" height="832px" preserveAspectRatio="none" style="width:495px;height:832px;background:#FFFFFF;" version="1.1" viewBox="0 0 495 832" width="495px" zoomAndPan="magnify"><defs><filter height="300%" id="f1sendny8gy4gf" width="300%" x="-1" y="-1"><feGaussianBlur result="blurOut" stdDeviation="2.0"/><feColorMatrix in="blurOut" result="blurOut2" type="matrix" values="0 0 0 0 0 0 0 0 0 0 0 0 0 0 0 0 0 0 .4 0"/><feOffset dx="4.0" dy="4.0" in="blurOut2" result="blurOut3"/><feBlend in="SourceGraphic" in2="blurOut3" mode="normal"/></filter></defs><g><!--MD5=[02e4b9b7573f1156f41e60aa5b4e25a4]
class Company--><rect codeLine="4" fill="#FEFECE" filter="url(#f1sendny8gy4gf)" height="53.8359" id="Company" style="stroke:#A80036;stroke-width:1.5;" width="85" x="162" y="7"/><ellipse cx="177" cy="23" fill="#ADD1B2" rx="11" ry="11" style="stroke:#A80036;stroke-width:1.0;"/><path d="M179.7656,18.875 Q179.9219,18.6563 180.1094,18.5469 Q180.2969,18.4375 180.5156,18.4375 Q180.8906,18.4375 181.125,18.7031 Q181.3594,18.9531 181.3594,19.5625 L181.3594,21.0156 Q181.3594,21.625 181.125,21.8906 Q180.8906,22.1563 180.5156,22.1563 Q180.1719,22.1563 179.9688,21.9531 Q179.7656,21.7656 179.6563,21.25 Q179.6094,20.8906 179.4219,20.7031 Q179.0938,20.3281 178.4844,20.1094 Q177.875,19.8906 177.25,19.8906 Q176.4844,19.8906 175.8438,20.2188 Q175.2188,20.5469 174.7188,21.2969 Q174.2344,22.0469 174.2344,23.0781 L174.2344,24.1719 Q174.2344,25.4063 175.125,26.2344 Q176.0156,27.0469 177.6094,27.0469 Q178.5469,27.0469 179.2031,26.7969 Q179.5938,26.6406 180.0156,26.2031 Q180.2813,25.9375 180.4219,25.8594 Q180.5781,25.7813 180.7813,25.7813 Q181.1094,25.7813 181.3594,26.0469 Q181.625,26.2969 181.625,26.6406 Q181.625,26.9844 181.2813,27.3906 Q180.7813,27.9688 179.9844,28.2969 Q178.9063,28.75 177.6094,28.75 Q176.0938,28.75 174.8906,28.125 Q173.9063,27.625 173.2188,26.5625 Q172.5313,25.4844 172.5313,24.2031 L172.5313,23.0469 Q172.5313,21.7188 173.1406,20.5781 Q173.7656,19.4219 174.8594,18.8125 Q175.9531,18.1875 177.1875,18.1875 Q177.9219,18.1875 178.5625,18.3594 Q179.2188,18.5156 179.7656,18.875 Z " fill="#000000"/><text fill="#000000" font-family="sans-serif" font-size="12" lengthAdjust="spacing" textLength="53" x="191" y="27.9102">Company</text><line style="stroke:#A80036;stroke-width:1.5;" x1="163" x2="246" y1="39" y2="39"/><text fill="#000000" font-family="sans-serif" font-size="11" lengthAdjust="spacing" textLength="59" x="168" y="54.4189">-designation</text><!--MD5=[2d935fd2dd068a13da1ae531f9857c4f]
class CenterCoordinator--><rect codeLine="8" fill="#FEFECE" filter="url(#f1sendny8gy4gf)" height="40" id="CenterCoordinator" style="stroke:#A80036;stroke-width:1.5;" width="134" x="107.5" y="390"/><ellipse cx="122.5" cy="406" fill="#ADD1B2" rx="11" ry="11" style="stroke:#A80036;stroke-width:1.0;"/><path d="M125.2656,401.875 Q125.4219,401.6563 125.6094,401.5469 Q125.7969,401.4375 126.0156,401.4375 Q126.3906,401.4375 126.625,401.7031 Q126.8594,401.9531 126.8594,402.5625 L126.8594,404.0156 Q126.8594,404.625 126.625,404.8906 Q126.3906,405.1563 126.0156,405.1563 Q125.6719,405.1563 125.4688,404.9531 Q125.2656,404.7656 125.1563,404.25 Q125.1094,403.8906 124.9219,403.7031 Q124.5938,403.3281 123.9844,403.1094 Q123.375,402.8906 122.75,402.8906 Q121.9844,402.8906 121.3438,403.2188 Q120.7188,403.5469 120.2188,404.2969 Q119.7344,405.0469 119.7344,406.0781 L119.7344,407.1719 Q119.7344,408.4063 120.625,409.2344 Q121.5156,410.0469 123.1094,410.0469 Q124.0469,410.0469 124.7031,409.7969 Q125.0938,409.6406 125.5156,409.2031 Q125.7813,408.9375 125.9219,408.8594 Q126.0781,408.7813 126.2813,408.7813 Q126.6094,408.7813 126.8594,409.0469 Q127.125,409.2969 127.125,409.6406 Q127.125,409.9844 126.7813,410.3906 Q126.2813,410.9688 125.4844,411.2969 Q124.4063,411.75 123.1094,411.75 Q121.5938,411.75 120.3906,411.125 Q119.4063,410.625 118.7188,409.5625 Q118.0313,408.4844 118.0313,407.2031 L118.0313,406.0469 Q118.0313,404.7188 118.6406,403.5781 Q119.2656,402.4219 120.3594,401.8125 Q121.4531,401.1875 122.6875,401.1875 Q123.4219,401.1875 124.0625,401.3594 Q124.7188,401.5156 125.2656,401.875 Z " fill="#000000"/><text fill="#000000" font-family="sans-serif" font-size="12" lengthAdjust="spacing" textLength="102" x="136.5" y="410.9102">CenterCoordinator</text><line style="stroke:#A80036;stroke-width:1.5;" x1="108.5" x2="240.5" y1="422" y2="422"/><!--MD5=[7421f545a0d8420c5bec41e74b387d9c]
class Employee--><rect codeLine="10" fill="#FEFECE" filter="url(#f1sendny8gy4gf)" height="136.8516" id="Employee" style="stroke:#A80036;stroke-width:1.5;" width="107" x="7" y="139"/><ellipse cx="31" cy="155" fill="#ADD1B2" rx="11" ry="11" style="stroke:#A80036;stroke-width:1.0;"/><path d="M33.7656,150.875 Q33.9219,150.6563 34.1094,150.5469 Q34.2969,150.4375 34.5156,150.4375 Q34.8906,150.4375 35.125,150.7031 Q35.3594,150.9531 35.3594,151.5625 L35.3594,153.0156 Q35.3594,153.625 35.125,153.8906 Q34.8906,154.1563 34.5156,154.1563 Q34.1719,154.1563 33.9688,153.9531 Q33.7656,153.7656 33.6563,153.25 Q33.6094,152.8906 33.4219,152.7031 Q33.0938,152.3281 32.4844,152.1094 Q31.875,151.8906 31.25,151.8906 Q30.4844,151.8906 29.8438,152.2188 Q29.2188,152.5469 28.7188,153.2969 Q28.2344,154.0469 28.2344,155.0781 L28.2344,156.1719 Q28.2344,157.4063 29.125,158.2344 Q30.0156,159.0469 31.6094,159.0469 Q32.5469,159.0469 33.2031,158.7969 Q33.5938,158.6406 34.0156,158.2031 Q34.2813,157.9375 34.4219,157.8594 Q34.5781,157.7813 34.7813,157.7813 Q35.1094,157.7813 35.3594,158.0469 Q35.625,158.2969 35.625,158.6406 Q35.625,158.9844 35.2813,159.3906 Q34.7813,159.9688 33.9844,160.2969 Q32.9063,160.75 31.6094,160.75 Q30.0938,160.75 28.8906,160.125 Q27.9063,159.625 27.2188,158.5625 Q26.5313,157.4844 26.5313,156.2031 L26.5313,155.0469 Q26.5313,153.7188 27.1406,152.5781 Q27.7656,151.4219 28.8594,150.8125 Q29.9531,150.1875 31.1875,150.1875 Q31.9219,150.1875 32.5625,150.3594 Q33.2188,150.5156 33.7656,150.875 Z " fill="#000000"/><text fill="#000000" font-family="sans-serif" font-size="12" lengthAdjust="spacing" textLength="55" x="47" y="159.9102">Employee</text><line style="stroke:#A80036;stroke-width:1.5;" x1="8" x2="113" y1="171" y2="171"/><text fill="#000000" font-family="sans-serif" font-size="11" lengthAdjust="spacing" textLength="30" x="13" y="186.4189">-name</text><text fill="#000000" font-family="sans-serif" font-size="11" lengthAdjust="spacing" textLength="71" x="13" y="200.2549">-phoneNumber</text><text fill="#000000" font-family="sans-serif" font-size="11" lengthAdjust="spacing" textLength="28" x="13" y="214.0908">-email</text><text fill="#000000" font-family="sans-serif" font-size="11" lengthAdjust="spacing" textLength="54" x="13" y="227.9268">-password</text><text fill="#000000" font-family="sans-serif" font-size="11" lengthAdjust="spacing" textLength="44" x="13" y="241.7627">-address</text><text fill="#000000" font-family="sans-serif" font-size="11" lengthAdjust="spacing" textLength="95" x="13" y="255.5986">-citizenCardNumber</text><text fill="#000000" font-family="sans-serif" font-size="11" lengthAdjust="spacing" textLength="30" x="13" y="269.4346">-roleId</text><!--MD5=[de60e6d4f424ae4d0522096f76a59010]
class VaccinationCenter--><rect codeLine="20" fill="#FEFECE" filter="url(#f1sendny8gy4gf)" height="164.5234" id="VaccinationCenter" style="stroke:#A80036;stroke-width:1.5;" width="132" x="203.5" y="508"/><ellipse cx="218.5" cy="524" fill="#ADD1B2" rx="11" ry="11" style="stroke:#A80036;stroke-width:1.0;"/><path d="M221.2656,519.875 Q221.4219,519.6563 221.6094,519.5469 Q221.7969,519.4375 222.0156,519.4375 Q222.3906,519.4375 222.625,519.7031 Q222.8594,519.9531 222.8594,520.5625 L222.8594,522.0156 Q222.8594,522.625 222.625,522.8906 Q222.3906,523.1563 222.0156,523.1563 Q221.6719,523.1563 221.4688,522.9531 Q221.2656,522.7656 221.1563,522.25 Q221.1094,521.8906 220.9219,521.7031 Q220.5938,521.3281 219.9844,521.1094 Q219.375,520.8906 218.75,520.8906 Q217.9844,520.8906 217.3438,521.2188 Q216.7188,521.5469 216.2188,522.2969 Q215.7344,523.0469 215.7344,524.0781 L215.7344,525.1719 Q215.7344,526.4063 216.625,527.2344 Q217.5156,528.0469 219.1094,528.0469 Q220.0469,528.0469 220.7031,527.7969 Q221.0938,527.6406 221.5156,527.2031 Q221.7813,526.9375 221.9219,526.8594 Q222.0781,526.7813 222.2813,526.7813 Q222.6094,526.7813 222.8594,527.0469 Q223.125,527.2969 223.125,527.6406 Q223.125,527.9844 222.7813,528.3906 Q222.2813,528.9688 221.4844,529.2969 Q220.4063,529.75 219.1094,529.75 Q217.5938,529.75 216.3906,529.125 Q215.4063,528.625 214.7188,527.5625 Q214.0313,526.4844 214.0313,525.2031 L214.0313,524.0469 Q214.0313,522.7188 214.6406,521.5781 Q215.2656,520.4219 216.3594,519.8125 Q217.4531,519.1875 218.6875,519.1875 Q219.4219,519.1875 220.0625,519.3594 Q220.7188,519.5156 221.2656,519.875 Z " fill="#000000"/><text fill="#000000" font-family="sans-serif" font-size="12" lengthAdjust="spacing" textLength="100" x="232.5" y="528.9102">VaccinationCenter</text><line style="stroke:#A80036;stroke-width:1.5;" x1="204.5" x2="334.5" y1="540" y2="540"/><text fill="#000000" font-family="sans-serif" font-size="11" lengthAdjust="spacing" textLength="30" x="209.5" y="555.4189">-name</text><text fill="#000000" font-family="sans-serif" font-size="11" lengthAdjust="spacing" textLength="44" x="209.5" y="569.2549">-address</text><text fill="#000000" font-family="sans-serif" font-size="11" lengthAdjust="spacing" textLength="70" x="209.5" y="583.0908">-emailAddress</text><text fill="#000000" font-family="sans-serif" font-size="11" lengthAdjust="spacing" textLength="71" x="209.5" y="596.9268">-phoneNumber</text><text fill="#000000" font-family="sans-serif" font-size="11" lengthAdjust="spacing" textLength="57" x="209.5" y="610.7627">-faxNumber</text><text fill="#000000" font-family="sans-serif" font-size="11" lengthAdjust="spacing" textLength="85" x="209.5" y="624.5986">-websiteAddress</text><text fill="#000000" font-family="sans-serif" font-size="11" lengthAdjust="spacing" textLength="23" x="209.5" y="638.4346">-time</text><text fill="#000000" font-family="sans-serif" font-size="11" lengthAdjust="spacing" textLength="21" x="209.5" y="652.2705">-slot</text><text fill="#000000" font-family="sans-serif" font-size="11" lengthAdjust="spacing" textLength="59" x="209.5" y="666.1064">-coordinator</text><!--MD5=[a29876ea2f21a6ca48ea477740122fd8]
class VaccinationCenterStore--><rect codeLine="32" fill="#FEFECE" filter="url(#f1sendny8gy4gf)" height="53.8359" id="VaccinationCenterStore" style="stroke:#A80036;stroke-width:1.5;" width="230" x="251.5" y="306"/><ellipse cx="297.75" cy="322" fill="#ADD1B2" rx="11" ry="11" style="stroke:#A80036;stroke-width:1.0;"/><path d="M300.5156,317.875 Q300.6719,317.6563 300.8594,317.5469 Q301.0469,317.4375 301.2656,317.4375 Q301.6406,317.4375 301.875,317.7031 Q302.1094,317.9531 302.1094,318.5625 L302.1094,320.0156 Q302.1094,320.625 301.875,320.8906 Q301.6406,321.1563 301.2656,321.1563 Q300.9219,321.1563 300.7188,320.9531 Q300.5156,320.7656 300.4063,320.25 Q300.3594,319.8906 300.1719,319.7031 Q299.8438,319.3281 299.2344,319.1094 Q298.625,318.8906 298,318.8906 Q297.2344,318.8906 296.5938,319.2188 Q295.9688,319.5469 295.4688,320.2969 Q294.9844,321.0469 294.9844,322.0781 L294.9844,323.1719 Q294.9844,324.4063 295.875,325.2344 Q296.7656,326.0469 298.3594,326.0469 Q299.2969,326.0469 299.9531,325.7969 Q300.3438,325.6406 300.7656,325.2031 Q301.0313,324.9375 301.1719,324.8594 Q301.3281,324.7813 301.5313,324.7813 Q301.8594,324.7813 302.1094,325.0469 Q302.375,325.2969 302.375,325.6406 Q302.375,325.9844 302.0313,326.3906 Q301.5313,326.9688 300.7344,327.2969 Q299.6563,327.75 298.3594,327.75 Q296.8438,327.75 295.6406,327.125 Q294.6563,326.625 293.9688,325.5625 Q293.2813,324.4844 293.2813,323.2031 L293.2813,322.0469 Q293.2813,320.7188 293.8906,319.5781 Q294.5156,318.4219 295.6094,317.8125 Q296.7031,317.1875 297.9375,317.1875 Q298.6719,317.1875 299.3125,317.3594 Q299.9688,317.5156 300.5156,317.875 Z " fill="#000000"/><text fill="#000000" font-family="sans-serif" font-size="12" lengthAdjust="spacing" textLength="129" x="318.25" y="326.9102">VaccinationCenterStore</text><line style="stroke:#A80036;stroke-width:1.5;" x1="252.5" x2="480.5" y1="338" y2="338"/><text fill="#000000" font-family="sans-serif" font-size="11" lengthAdjust="spacing" textLength="218" x="257.5" y="353.4189">-List&lt;VaccinationCenter&gt; vaccinationCenters</text><!--MD5=[2e42295458bb0bec21c9622a623eb29e]
class Time--><rect codeLine="36" fill="#FEFECE" filter="url(#f1sendny8gy4gf)" height="67.6719" id="Time" style="stroke:#A80036;stroke-width:1.5;" width="60" x="184.5" y="751"/><ellipse cx="199.5" cy="767" fill="#ADD1B2" rx="11" ry="11" style="stroke:#A80036;stroke-width:1.0;"/><path d="M202.2656,762.875 Q202.4219,762.6563 202.6094,762.5469 Q202.7969,762.4375 203.0156,762.4375 Q203.3906,762.4375 203.625,762.7031 Q203.8594,762.9531 203.8594,763.5625 L203.8594,765.0156 Q203.8594,765.625 203.625,765.8906 Q203.3906,766.1563 203.0156,766.1563 Q202.6719,766.1563 202.4688,765.9531 Q202.2656,765.7656 202.1563,765.25 Q202.1094,764.8906 201.9219,764.7031 Q201.5938,764.3281 200.9844,764.1094 Q200.375,763.8906 199.75,763.8906 Q198.9844,763.8906 198.3438,764.2188 Q197.7188,764.5469 197.2188,765.2969 Q196.7344,766.0469 196.7344,767.0781 L196.7344,768.1719 Q196.7344,769.4063 197.625,770.2344 Q198.5156,771.0469 200.1094,771.0469 Q201.0469,771.0469 201.7031,770.7969 Q202.0938,770.6406 202.5156,770.2031 Q202.7813,769.9375 202.9219,769.8594 Q203.0781,769.7813 203.2813,769.7813 Q203.6094,769.7813 203.8594,770.0469 Q204.125,770.2969 204.125,770.6406 Q204.125,770.9844 203.7813,771.3906 Q203.2813,771.9688 202.4844,772.2969 Q201.4063,772.75 200.1094,772.75 Q198.5938,772.75 197.3906,772.125 Q196.4063,771.625 195.7188,770.5625 Q195.0313,769.4844 195.0313,768.2031 L195.0313,767.0469 Q195.0313,765.7188 195.6406,764.5781 Q196.2656,763.4219 197.3594,762.8125 Q198.4531,762.1875 199.6875,762.1875 Q200.4219,762.1875 201.0625,762.3594 Q201.7188,762.5156 202.2656,762.875 Z " fill="#000000"/><text fill="#000000" font-family="sans-serif" font-size="12" lengthAdjust="spacing" textLength="28" x="213.5" y="771.9102">Time</text><line style="stroke:#A80036;stroke-width:1.5;" x1="185.5" x2="243.5" y1="783" y2="783"/><text fill="#000000" font-family="sans-serif" font-size="11" lengthAdjust="spacing" textLength="32" x="190.5" y="798.4189">-hours</text><text fill="#000000" font-family="sans-serif" font-size="11" lengthAdjust="spacing" textLength="41" x="190.5" y="812.2549">-minutes</text><!--MD5=[45c6380d22fb72521f5065026b277fb9]
class Slot--><rect codeLine="41" fill="#FEFECE" filter="url(#f1sendny8gy4gf)" height="67.6719" id="Slot" style="stroke:#A80036;stroke-width:1.5;" width="90" x="279.5" y="751"/><ellipse cx="311.15" cy="767" fill="#ADD1B2" rx="11" ry="11" style="stroke:#A80036;stroke-width:1.0;"/><path d="M313.9156,762.875 Q314.0719,762.6563 314.2594,762.5469 Q314.4469,762.4375 314.6656,762.4375 Q315.0406,762.4375 315.275,762.7031 Q315.5094,762.9531 315.5094,763.5625 L315.5094,765.0156 Q315.5094,765.625 315.275,765.8906 Q315.0406,766.1563 314.6656,766.1563 Q314.3219,766.1563 314.1188,765.9531 Q313.9156,765.7656 313.8063,765.25 Q313.7594,764.8906 313.5719,764.7031 Q313.2438,764.3281 312.6344,764.1094 Q312.025,763.8906 311.4,763.8906 Q310.6344,763.8906 309.9938,764.2188 Q309.3688,764.5469 308.8688,765.2969 Q308.3844,766.0469 308.3844,767.0781 L308.3844,768.1719 Q308.3844,769.4063 309.275,770.2344 Q310.1656,771.0469 311.7594,771.0469 Q312.6969,771.0469 313.3531,770.7969 Q313.7438,770.6406 314.1656,770.2031 Q314.4313,769.9375 314.5719,769.8594 Q314.7281,769.7813 314.9313,769.7813 Q315.2594,769.7813 315.5094,770.0469 Q315.775,770.2969 315.775,770.6406 Q315.775,770.9844 315.4313,771.3906 Q314.9313,771.9688 314.1344,772.2969 Q313.0563,772.75 311.7594,772.75 Q310.2438,772.75 309.0406,772.125 Q308.0563,771.625 307.3688,770.5625 Q306.6813,769.4844 306.6813,768.2031 L306.6813,767.0469 Q306.6813,765.7188 307.2906,764.5781 Q307.9156,763.4219 309.0094,762.8125 Q310.1031,762.1875 311.3375,762.1875 Q312.0719,762.1875 312.7125,762.3594 Q313.3688,762.5156 313.9156,762.875 Z " fill="#000000"/><text fill="#000000" font-family="sans-serif" font-size="12" lengthAdjust="spacing" textLength="21" x="328.85" y="771.9102">Slot</text><line style="stroke:#A80036;stroke-width:1.5;" x1="280.5" x2="368.5" y1="783" y2="783"/><text fill="#000000" font-family="sans-serif" font-size="11" lengthAdjust="spacing" textLength="61" x="285.5" y="798.4189">-slotDuration</text><text fill="#000000" font-family="sans-serif" font-size="11" lengthAdjust="spacing" textLength="78" x="285.5" y="812.2549">-maxVacPerSlot</text><!--MD5=[cbf6ed1efeae6ec1cb5f0ab34665af9e]
class FileReport--><rect codeLine="46" fill="#FEFECE" filter="url(#f1sendny8gy4gf)" height="40" id="FileReport" style="stroke:#A80036;stroke-width:1.5;" width="89" x="149" y="187.5"/><ellipse cx="164" cy="203.5" fill="#ADD1B2" rx="11" ry="11" style="stroke:#A80036;stroke-width:1.0;"/><path d="M166.7656,199.375 Q166.9219,199.1563 167.1094,199.0469 Q167.2969,198.9375 167.5156,198.9375 Q167.8906,198.9375 168.125,199.2031 Q168.3594,199.4531 168.3594,200.0625 L168.3594,201.5156 Q168.3594,202.125 168.125,202.3906 Q167.8906,202.6563 167.5156,202.6563 Q167.1719,202.6563 166.9688,202.4531 Q166.7656,202.2656 166.6563,201.75 Q166.6094,201.3906 166.4219,201.2031 Q166.0938,200.8281 165.4844,200.6094 Q164.875,200.3906 164.25,200.3906 Q163.4844,200.3906 162.8438,200.7188 Q162.2188,201.0469 161.7188,201.7969 Q161.2344,202.5469 161.2344,203.5781 L161.2344,204.6719 Q161.2344,205.9063 162.125,206.7344 Q163.0156,207.5469 164.6094,207.5469 Q165.5469,207.5469 166.2031,207.2969 Q166.5938,207.1406 167.0156,206.7031 Q167.2813,206.4375 167.4219,206.3594 Q167.5781,206.2813 167.7813,206.2813 Q168.1094,206.2813 168.3594,206.5469 Q168.625,206.7969 168.625,207.1406 Q168.625,207.4844 168.2813,207.8906 Q167.7813,208.4688 166.9844,208.7969 Q165.9063,209.25 164.6094,209.25 Q163.0938,209.25 161.8906,208.625 Q160.9063,208.125 160.2188,207.0625 Q159.5313,205.9844 159.5313,204.7031 L159.5313,203.5469 Q159.5313,202.2188 160.1406,201.0781 Q160.7656,199.9219 161.8594,199.3125 Q162.9531,198.6875 164.1875,198.6875 Q164.9219,198.6875 165.5625,198.8594 Q166.2188,199.0156 166.7656,199.375 Z " fill="#000000"/><text fill="#000000" font-family="sans-serif" font-size="12" lengthAdjust="spacing" textLength="57" x="178" y="208.4102">FileReport</text><line style="stroke:#A80036;stroke-width:1.5;" x1="150" x2="237" y1="219.5" y2="219.5"/><!--MD5=[09366576ee87d48d594df10cacc83f45]
link Company to Employee--><path codeLine="48" d="M182.63,61.05 C164.45,82.69 137.82,114.41 114.06,142.71 " fill="none" id="Company-Employee" style="stroke:#A80036;stroke-width:1.0;"/><polygon fill="#000000" points="155.2847,104.0049,163.3519,98.9679,158.8505,95.1881,155.2847,104.0049" style="stroke:#000000;stroke-width:1.0;"/><text fill="#000000" font-family="sans-serif" font-size="13" lengthAdjust="spacing" textLength="37" x="167.5" y="105.4951">knows</text><text fill="#000000" font-family="sans-serif" font-size="13" lengthAdjust="spacing" textLength="7" x="170.0803" y="82.2687">1</text><text fill="#000000" font-family="sans-serif" font-size="13" lengthAdjust="spacing" textLength="5" x="121.9434" y="130.0042">*</text><!--MD5=[98f7f3dc8d9719d04ad14614c4ea123f]
reverse link Employee to CenterCoordinator--><path codeLine="49" d="M109.03,293.85 C129.29,329.48 151.01,367.68 163.64,389.9 " fill="none" id="Employee-backto-CenterCoordinator" style="stroke:#A80036;stroke-width:1.0;"/><polygon fill="none" points="102.74,296.95,98.94,276.1,114.91,290.03,102.74,296.95" style="stroke:#A80036;stroke-width:1.0;"/><!--MD5=[d5cf03d886352995267197dc535618ec]
link CenterCoordinator to VaccinationCenter--><path codeLine="50" d="M184.67,430.1 C194.67,448.9 210.64,478.91 226.04,507.85 " fill="none" id="CenterCoordinator-VaccinationCenter" style="stroke:#A80036;stroke-width:1.0;"/><polygon fill="#000000" points="214.8487,473.5898,213.1944,464.2242,208.0054,466.9853,214.8487,473.5898" style="stroke:#000000;stroke-width:1.0;"/><text fill="#000000" font-family="sans-serif" font-size="13" lengthAdjust="spacing" textLength="21" x="221.5" y="474.4951">has</text><!--MD5=[e67749f86d2edce8d072e016ba76df74]
link VaccinationCenter to Time--><path codeLine="51" d="M246.18,673.14 C238.39,700.39 230.14,729.25 224.02,750.69 " fill="none" id="VaccinationCenter-Time" style="stroke:#A80036;stroke-width:1.0;"/><polygon fill="#000000" points="240.1262,716.9834,245.4372,709.0939,239.7856,707.4789,240.1262,716.9834" style="stroke:#000000;stroke-width:1.0;"/><text fill="#000000" font-family="sans-serif" font-size="13" lengthAdjust="spacing" textLength="21" x="250.5" y="717.4951">has</text><text fill="#000000" font-family="sans-serif" font-size="13" lengthAdjust="spacing" textLength="7" x="237.0428" y="693.891">1</text><text fill="#000000" font-family="sans-serif" font-size="13" lengthAdjust="spacing" textLength="7" x="218.1676" y="740.1846">1</text><!--MD5=[b649bef0048cf03271726558ee7073ed]
link VaccinationCenter to Slot--><path codeLine="52" d="M292.82,673.14 C300.61,700.39 308.86,729.25 314.98,750.69 " fill="none" id="VaccinationCenter-Slot" style="stroke:#A80036;stroke-width:1.0;"/><polygon fill="#000000" points="310.8738,716.9834,311.2144,707.4789,305.5628,709.0939,310.8738,716.9834" style="stroke:#000000;stroke-width:1.0;"/><text fill="#000000" font-family="sans-serif" font-size="13" lengthAdjust="spacing" textLength="21" x="318.5" y="717.4951">has</text><text fill="#000000" font-family="sans-serif" font-size="13" lengthAdjust="spacing" textLength="7" x="287.3994" y="693.891">1</text><text fill="#000000" font-family="sans-serif" font-size="13" lengthAdjust="spacing" textLength="7" x="305.4981" y="740.1846">1</text><!--MD5=[8c304936b446fd8cea914e03fbadd4b7]
link VaccinationCenterStore to VaccinationCenter--><path codeLine="53" d="M356.48,360.38 C343.37,394.93 319.77,457.1 300.45,507.96 " fill="none" id="VaccinationCenterStore-VaccinationCenter" style="stroke:#A80036;stroke-width:1.0;"/><polygon fill="#000000" points="346.7253,414.8502,352.6833,407.4372,347.1882,405.3509,346.7253,414.8502" style="stroke:#000000;stroke-width:1.0;"/><text fill="#000000" font-family="sans-serif" font-size="13" lengthAdjust="spacing" textLength="36" x="357.5" y="415.4951">stores</text><text fill="#000000" font-family="sans-serif" font-size="13" lengthAdjust="spacing" textLength="7" x="346.6915" y="381.2254">1</text><text fill="#000000" font-family="sans-serif" font-size="13" lengthAdjust="spacing" textLength="5" x="298.0727" y="497.1466">*</text><!--MD5=[bc0d5b4bfe6e1bf0a8fced13bc4bdd47]
link Company to VaccinationCenterStore--><path codeLine="54" d="M218.73,61.1 C249.39,117.29 321.35,249.22 352.12,305.64 " fill="none" id="Company-VaccinationCenterStore" style="stroke:#A80036;stroke-width:1.0;"/><polygon fill="#000000" points="248.8943,104.5652,247.143,95.2173,241.9829,98.032,248.8943,104.5652" style="stroke:#000000;stroke-width:1.0;"/><text fill="#000000" font-family="sans-serif" font-size="13" lengthAdjust="spacing" textLength="37" x="255.5" y="105.4951">knows</text><text fill="#000000" font-family="sans-serif" font-size="13" lengthAdjust="spacing" textLength="7" x="214.0772" y="82.3296">1</text><text fill="#000000" font-family="sans-serif" font-size="13" lengthAdjust="spacing" textLength="7" x="340.9853" y="295.0177">1</text><!--MD5=[d2b3fa5d2c15befc1f1443449e89d723]
link FileReport to CenterCoordinator--><path codeLine="55" d="M185.53,227.5 C177.88,246.85 166.86,277.92 162.5,306 C158.82,329.72 159.62,336.17 162.5,360 C163.7,369.91 166.21,380.71 168.62,389.65 " fill="none" id="FileReport-CenterCoordinator" style="stroke:#A80036;stroke-width:1.0;"/><polygon fill="#000000" points="168.0186,328.2028,164.1574,336.8942,170.0035,337.5039,168.0186,328.2028" style="stroke:#000000;stroke-width:1.0;"/><text fill="#000000" font-family="sans-serif" font-size="13" lengthAdjust="spacing" textLength="57" x="176.5" y="338.4951">generates</text><text fill="#000000" font-family="sans-serif" font-size="13" lengthAdjust="spacing" textLength="7" x="175.3041" y="248.9196">1</text><text fill="#000000" font-family="sans-serif" font-size="13" lengthAdjust="spacing" textLength="7" x="158.9819" y="379.2211">1</text><!--MD5=[e39e61423bad512c2bfac73fab02fca0]
@startuml US15_DM
hide methods
skinparam classAttributeIconSize 0

class Company {
  -designation
}

class CenterCoordinator {}

class Employee {
  -name
  -phoneNumber
  -email
  -password
  -address
  -citizenCardNumber
  -roleId
}

class VaccinationCenter{
  -name
  -address
  -emailAddress
  -phoneNumber
  -faxNumber
  -websiteAddress
  -time
  -slot
  -coordinator
}

class VaccinationCenterStore {
  -List<VaccinationCenter> vaccinationCenters
}

class Time {
  -hours
  -minutes
}

class Slot {
  -slotDuration
  -maxVacPerSlot
}

class FileReport {}

Company "1" - - "*" Employee : knows >
Employee <|- - CenterCoordinator
CenterCoordinator - - VaccinationCenter : has >
VaccinationCenter "1" - - "1" Time : has >
VaccinationCenter "1"- - "1" Slot : has >
VaccinationCenterStore "1" - - "*" VaccinationCenter : stores >
Company "1" - - "1" VaccinationCenterStore : knows >
FileReport "1" - - "1" CenterCoordinator : generates <


@enduml

PlantUML version 1.2022.0(Tue Jan 11 16:16:42 WET 2022)
(GPL source distribution)
Java Runtime: Java(TM) SE Runtime Environment
JVM: Java HotSpot(TM) 64-Bit Server VM
Default Encoding: Cp1252
Language: pt
Country: PT
--></g></svg>