<?xml version="1.0" encoding="UTF-8" standalone="no"?><svg xmlns="http://www.w3.org/2000/svg" xmlns:xlink="http://www.w3.org/1999/xlink" contentScriptType="application/ecmascript" contentStyleType="text/css" height="915px" preserveAspectRatio="none" style="width:590px;height:915px;background:#FFFFFF;" version="1.1" viewBox="0 0 590 915" width="590px" zoomAndPan="magnify"><defs><filter height="300%" id="f135vnudcyppc8" width="300%" x="-1" y="-1"><feGaussianBlur result="blurOut" stdDeviation="2.0"/><feColorMatrix in="blurOut" result="blurOut2" type="matrix" values="0 0 0 0 0 0 0 0 0 0 0 0 0 0 0 0 0 0 .4 0"/><feOffset dx="4.0" dy="4.0" in="blurOut2" result="blurOut3"/><feBlend in="SourceGraphic" in2="blurOut3" mode="normal"/></filter></defs><g><!--MD5=[02e4b9b7573f1156f41e60aa5b4e25a4]
class Company--><rect codeLine="4" fill="#FEFECE" filter="url(#f135vnudcyppc8)" height="53.8359" id="Company" style="stroke:#A80036;stroke-width:1.5;" width="85" x="163.5" y="7"/><ellipse cx="178.5" cy="23" fill="#ADD1B2" rx="11" ry="11" style="stroke:#A80036;stroke-width:1.0;"/><path d="M181.2656,18.875 Q181.4219,18.6563 181.6094,18.5469 Q181.7969,18.4375 182.0156,18.4375 Q182.3906,18.4375 182.625,18.7031 Q182.8594,18.9531 182.8594,19.5625 L182.8594,21.0156 Q182.8594,21.625 182.625,21.8906 Q182.3906,22.1563 182.0156,22.1563 Q181.6719,22.1563 181.4688,21.9531 Q181.2656,21.7656 181.1563,21.25 Q181.1094,20.8906 180.9219,20.7031 Q180.5938,20.3281 179.9844,20.1094 Q179.375,19.8906 178.75,19.8906 Q177.9844,19.8906 177.3438,20.2188 Q176.7188,20.5469 176.2188,21.2969 Q175.7344,22.0469 175.7344,23.0781 L175.7344,24.1719 Q175.7344,25.4063 176.625,26.2344 Q177.5156,27.0469 179.1094,27.0469 Q180.0469,27.0469 180.7031,26.7969 Q181.0938,26.6406 181.5156,26.2031 Q181.7813,25.9375 181.9219,25.8594 Q182.0781,25.7813 182.2813,25.7813 Q182.6094,25.7813 182.8594,26.0469 Q183.125,26.2969 183.125,26.6406 Q183.125,26.9844 182.7813,27.3906 Q182.2813,27.9688 181.4844,28.2969 Q180.4063,28.75 179.1094,28.75 Q177.5938,28.75 176.3906,28.125 Q175.4063,27.625 174.7188,26.5625 Q174.0313,25.4844 174.0313,24.2031 L174.0313,23.0469 Q174.0313,21.7188 174.6406,20.5781 Q175.2656,19.4219 176.3594,18.8125 Q177.4531,18.1875 178.6875,18.1875 Q179.4219,18.1875 180.0625,18.3594 Q180.7188,18.5156 181.2656,18.875 Z " fill="#000000"/><text fill="#000000" font-family="sans-serif" font-size="12" lengthAdjust="spacing" textLength="53" x="192.5" y="27.9102">Company</text><line style="stroke:#A80036;stroke-width:1.5;" x1="164.5" x2="247.5" y1="39" y2="39"/><text fill="#000000" font-family="sans-serif" font-size="11" lengthAdjust="spacing" textLength="59" x="169.5" y="54.4189">-designation</text><!--MD5=[2d935fd2dd068a13da1ae531f9857c4f]
class CenterCoordinator--><rect codeLine="8" fill="#FEFECE" filter="url(#f135vnudcyppc8)" height="40" id="CenterCoordinator" style="stroke:#A80036;stroke-width:1.5;" width="134" x="210" y="424.5"/><ellipse cx="225" cy="440.5" fill="#ADD1B2" rx="11" ry="11" style="stroke:#A80036;stroke-width:1.0;"/><path d="M227.7656,436.375 Q227.9219,436.1563 228.1094,436.0469 Q228.2969,435.9375 228.5156,435.9375 Q228.8906,435.9375 229.125,436.2031 Q229.3594,436.4531 229.3594,437.0625 L229.3594,438.5156 Q229.3594,439.125 229.125,439.3906 Q228.8906,439.6563 228.5156,439.6563 Q228.1719,439.6563 227.9688,439.4531 Q227.7656,439.2656 227.6563,438.75 Q227.6094,438.3906 227.4219,438.2031 Q227.0938,437.8281 226.4844,437.6094 Q225.875,437.3906 225.25,437.3906 Q224.4844,437.3906 223.8438,437.7188 Q223.2188,438.0469 222.7188,438.7969 Q222.2344,439.5469 222.2344,440.5781 L222.2344,441.6719 Q222.2344,442.9063 223.125,443.7344 Q224.0156,444.5469 225.6094,444.5469 Q226.5469,444.5469 227.2031,444.2969 Q227.5938,444.1406 228.0156,443.7031 Q228.2813,443.4375 228.4219,443.3594 Q228.5781,443.2813 228.7813,443.2813 Q229.1094,443.2813 229.3594,443.5469 Q229.625,443.7969 229.625,444.1406 Q229.625,444.4844 229.2813,444.8906 Q228.7813,445.4688 227.9844,445.7969 Q226.9063,446.25 225.6094,446.25 Q224.0938,446.25 222.8906,445.625 Q221.9063,445.125 221.2188,444.0625 Q220.5313,442.9844 220.5313,441.7031 L220.5313,440.5469 Q220.5313,439.2188 221.1406,438.0781 Q221.7656,436.9219 222.8594,436.3125 Q223.9531,435.6875 225.1875,435.6875 Q225.9219,435.6875 226.5625,435.8594 Q227.2188,436.0156 227.7656,436.375 Z " fill="#000000"/><text fill="#000000" font-family="sans-serif" font-size="12" lengthAdjust="spacing" textLength="102" x="239" y="445.4102">CenterCoordinator</text><line style="stroke:#A80036;stroke-width:1.5;" x1="211" x2="343" y1="456.5" y2="456.5"/><!--MD5=[7421f545a0d8420c5bec41e74b387d9c]
class Employee--><rect codeLine="10" fill="#FEFECE" filter="url(#f135vnudcyppc8)" height="136.8516" id="Employee" style="stroke:#A80036;stroke-width:1.5;" width="107" x="346.5" y="139"/><ellipse cx="370.5" cy="155" fill="#ADD1B2" rx="11" ry="11" style="stroke:#A80036;stroke-width:1.0;"/><path d="M373.2656,150.875 Q373.4219,150.6563 373.6094,150.5469 Q373.7969,150.4375 374.0156,150.4375 Q374.3906,150.4375 374.625,150.7031 Q374.8594,150.9531 374.8594,151.5625 L374.8594,153.0156 Q374.8594,153.625 374.625,153.8906 Q374.3906,154.1563 374.0156,154.1563 Q373.6719,154.1563 373.4688,153.9531 Q373.2656,153.7656 373.1563,153.25 Q373.1094,152.8906 372.9219,152.7031 Q372.5938,152.3281 371.9844,152.1094 Q371.375,151.8906 370.75,151.8906 Q369.9844,151.8906 369.3438,152.2188 Q368.7188,152.5469 368.2188,153.2969 Q367.7344,154.0469 367.7344,155.0781 L367.7344,156.1719 Q367.7344,157.4063 368.625,158.2344 Q369.5156,159.0469 371.1094,159.0469 Q372.0469,159.0469 372.7031,158.7969 Q373.0938,158.6406 373.5156,158.2031 Q373.7813,157.9375 373.9219,157.8594 Q374.0781,157.7813 374.2813,157.7813 Q374.6094,157.7813 374.8594,158.0469 Q375.125,158.2969 375.125,158.6406 Q375.125,158.9844 374.7813,159.3906 Q374.2813,159.9688 373.4844,160.2969 Q372.4063,160.75 371.1094,160.75 Q369.5938,160.75 368.3906,160.125 Q367.4063,159.625 366.7188,158.5625 Q366.0313,157.4844 366.0313,156.2031 L366.0313,155.0469 Q366.0313,153.7188 366.6406,152.5781 Q367.2656,151.4219 368.3594,150.8125 Q369.4531,150.1875 370.6875,150.1875 Q371.4219,150.1875 372.0625,150.3594 Q372.7188,150.5156 373.2656,150.875 Z " fill="#000000"/><text fill="#000000" font-family="sans-serif" font-size="12" lengthAdjust="spacing" textLength="55" x="386.5" y="159.9102">Employee</text><line style="stroke:#A80036;stroke-width:1.5;" x1="347.5" x2="452.5" y1="171" y2="171"/><text fill="#000000" font-family="sans-serif" font-size="11" lengthAdjust="spacing" textLength="30" x="352.5" y="186.4189">-name</text><text fill="#000000" font-family="sans-serif" font-size="11" lengthAdjust="spacing" textLength="71" x="352.5" y="200.2549">-phoneNumber</text><text fill="#000000" font-family="sans-serif" font-size="11" lengthAdjust="spacing" textLength="28" x="352.5" y="214.0908">-email</text><text fill="#000000" font-family="sans-serif" font-size="11" lengthAdjust="spacing" textLength="54" x="352.5" y="227.9268">-password</text><text fill="#000000" font-family="sans-serif" font-size="11" lengthAdjust="spacing" textLength="44" x="352.5" y="241.7627">-address</text><text fill="#000000" font-family="sans-serif" font-size="11" lengthAdjust="spacing" textLength="95" x="352.5" y="255.5986">-citizenCardNumber</text><text fill="#000000" font-family="sans-serif" font-size="11" lengthAdjust="spacing" textLength="30" x="352.5" y="269.4346">-roleId</text><!--MD5=[de60e6d4f424ae4d0522096f76a59010]
class VaccinationCenter--><rect codeLine="20" fill="#FEFECE" filter="url(#f135vnudcyppc8)" height="164.5234" id="VaccinationCenter" style="stroke:#A80036;stroke-width:1.5;" width="132" x="211" y="577"/><ellipse cx="226" cy="593" fill="#ADD1B2" rx="11" ry="11" style="stroke:#A80036;stroke-width:1.0;"/><path d="M228.7656,588.875 Q228.9219,588.6563 229.1094,588.5469 Q229.2969,588.4375 229.5156,588.4375 Q229.8906,588.4375 230.125,588.7031 Q230.3594,588.9531 230.3594,589.5625 L230.3594,591.0156 Q230.3594,591.625 230.125,591.8906 Q229.8906,592.1563 229.5156,592.1563 Q229.1719,592.1563 228.9688,591.9531 Q228.7656,591.7656 228.6563,591.25 Q228.6094,590.8906 228.4219,590.7031 Q228.0938,590.3281 227.4844,590.1094 Q226.875,589.8906 226.25,589.8906 Q225.4844,589.8906 224.8438,590.2188 Q224.2188,590.5469 223.7188,591.2969 Q223.2344,592.0469 223.2344,593.0781 L223.2344,594.1719 Q223.2344,595.4063 224.125,596.2344 Q225.0156,597.0469 226.6094,597.0469 Q227.5469,597.0469 228.2031,596.7969 Q228.5938,596.6406 229.0156,596.2031 Q229.2813,595.9375 229.4219,595.8594 Q229.5781,595.7813 229.7813,595.7813 Q230.1094,595.7813 230.3594,596.0469 Q230.625,596.2969 230.625,596.6406 Q230.625,596.9844 230.2813,597.3906 Q229.7813,597.9688 228.9844,598.2969 Q227.9063,598.75 226.6094,598.75 Q225.0938,598.75 223.8906,598.125 Q222.9063,597.625 222.2188,596.5625 Q221.5313,595.4844 221.5313,594.2031 L221.5313,593.0469 Q221.5313,591.7188 222.1406,590.5781 Q222.7656,589.4219 223.8594,588.8125 Q224.9531,588.1875 226.1875,588.1875 Q226.9219,588.1875 227.5625,588.3594 Q228.2188,588.5156 228.7656,588.875 Z " fill="#000000"/><text fill="#000000" font-family="sans-serif" font-size="12" lengthAdjust="spacing" textLength="100" x="240" y="597.9102">VaccinationCenter</text><line style="stroke:#A80036;stroke-width:1.5;" x1="212" x2="342" y1="609" y2="609"/><text fill="#000000" font-family="sans-serif" font-size="11" lengthAdjust="spacing" textLength="30" x="217" y="624.4189">-name</text><text fill="#000000" font-family="sans-serif" font-size="11" lengthAdjust="spacing" textLength="44" x="217" y="638.2549">-address</text><text fill="#000000" font-family="sans-serif" font-size="11" lengthAdjust="spacing" textLength="70" x="217" y="652.0908">-emailAddress</text><text fill="#000000" font-family="sans-serif" font-size="11" lengthAdjust="spacing" textLength="71" x="217" y="665.9268">-phoneNumber</text><text fill="#000000" font-family="sans-serif" font-size="11" lengthAdjust="spacing" textLength="57" x="217" y="679.7627">-faxNumber</text><text fill="#000000" font-family="sans-serif" font-size="11" lengthAdjust="spacing" textLength="85" x="217" y="693.5986">-websiteAddress</text><text fill="#000000" font-family="sans-serif" font-size="11" lengthAdjust="spacing" textLength="23" x="217" y="707.4346">-time</text><text fill="#000000" font-family="sans-serif" font-size="11" lengthAdjust="spacing" textLength="21" x="217" y="721.2705">-slot</text><text fill="#000000" font-family="sans-serif" font-size="11" lengthAdjust="spacing" textLength="59" x="217" y="735.1064">-coordinator</text><!--MD5=[a29876ea2f21a6ca48ea477740122fd8]
class VaccinationCenterStore--><rect codeLine="32" fill="#FEFECE" filter="url(#f135vnudcyppc8)" height="53.8359" id="VaccinationCenterStore" style="stroke:#A80036;stroke-width:1.5;" width="230" x="7" y="306"/><ellipse cx="53.25" cy="322" fill="#ADD1B2" rx="11" ry="11" style="stroke:#A80036;stroke-width:1.0;"/><path d="M56.0156,317.875 Q56.1719,317.6563 56.3594,317.5469 Q56.5469,317.4375 56.7656,317.4375 Q57.1406,317.4375 57.375,317.7031 Q57.6094,317.9531 57.6094,318.5625 L57.6094,320.0156 Q57.6094,320.625 57.375,320.8906 Q57.1406,321.1563 56.7656,321.1563 Q56.4219,321.1563 56.2188,320.9531 Q56.0156,320.7656 55.9063,320.25 Q55.8594,319.8906 55.6719,319.7031 Q55.3438,319.3281 54.7344,319.1094 Q54.125,318.8906 53.5,318.8906 Q52.7344,318.8906 52.0938,319.2188 Q51.4688,319.5469 50.9688,320.2969 Q50.4844,321.0469 50.4844,322.0781 L50.4844,323.1719 Q50.4844,324.4063 51.375,325.2344 Q52.2656,326.0469 53.8594,326.0469 Q54.7969,326.0469 55.4531,325.7969 Q55.8438,325.6406 56.2656,325.2031 Q56.5313,324.9375 56.6719,324.8594 Q56.8281,324.7813 57.0313,324.7813 Q57.3594,324.7813 57.6094,325.0469 Q57.875,325.2969 57.875,325.6406 Q57.875,325.9844 57.5313,326.3906 Q57.0313,326.9688 56.2344,327.2969 Q55.1563,327.75 53.8594,327.75 Q52.3438,327.75 51.1406,327.125 Q50.1563,326.625 49.4688,325.5625 Q48.7813,324.4844 48.7813,323.2031 L48.7813,322.0469 Q48.7813,320.7188 49.3906,319.5781 Q50.0156,318.4219 51.1094,317.8125 Q52.2031,317.1875 53.4375,317.1875 Q54.1719,317.1875 54.8125,317.3594 Q55.4688,317.5156 56.0156,317.875 Z " fill="#000000"/><text fill="#000000" font-family="sans-serif" font-size="12" lengthAdjust="spacing" textLength="129" x="73.75" y="326.9102">VaccinationCenterStore</text><line style="stroke:#A80036;stroke-width:1.5;" x1="8" x2="236" y1="338" y2="338"/><text fill="#000000" font-family="sans-serif" font-size="11" lengthAdjust="spacing" textLength="218" x="13" y="353.4189">-List&lt;VaccinationCenter&gt; vaccinationCenters</text><!--MD5=[2e42295458bb0bec21c9622a623eb29e]
class Time--><rect codeLine="36" fill="#FEFECE" filter="url(#f135vnudcyppc8)" height="67.6719" id="Time" style="stroke:#A80036;stroke-width:1.5;" width="60" x="262" y="827"/><ellipse cx="277" cy="843" fill="#ADD1B2" rx="11" ry="11" style="stroke:#A80036;stroke-width:1.0;"/><path d="M279.7656,838.875 Q279.9219,838.6563 280.1094,838.5469 Q280.2969,838.4375 280.5156,838.4375 Q280.8906,838.4375 281.125,838.7031 Q281.3594,838.9531 281.3594,839.5625 L281.3594,841.0156 Q281.3594,841.625 281.125,841.8906 Q280.8906,842.1563 280.5156,842.1563 Q280.1719,842.1563 279.9688,841.9531 Q279.7656,841.7656 279.6563,841.25 Q279.6094,840.8906 279.4219,840.7031 Q279.0938,840.3281 278.4844,840.1094 Q277.875,839.8906 277.25,839.8906 Q276.4844,839.8906 275.8438,840.2188 Q275.2188,840.5469 274.7188,841.2969 Q274.2344,842.0469 274.2344,843.0781 L274.2344,844.1719 Q274.2344,845.4063 275.125,846.2344 Q276.0156,847.0469 277.6094,847.0469 Q278.5469,847.0469 279.2031,846.7969 Q279.5938,846.6406 280.0156,846.2031 Q280.2813,845.9375 280.4219,845.8594 Q280.5781,845.7813 280.7813,845.7813 Q281.1094,845.7813 281.3594,846.0469 Q281.625,846.2969 281.625,846.6406 Q281.625,846.9844 281.2813,847.3906 Q280.7813,847.9688 279.9844,848.2969 Q278.9063,848.75 277.6094,848.75 Q276.0938,848.75 274.8906,848.125 Q273.9063,847.625 273.2188,846.5625 Q272.5313,845.4844 272.5313,844.2031 L272.5313,843.0469 Q272.5313,841.7188 273.1406,840.5781 Q273.7656,839.4219 274.8594,838.8125 Q275.9531,838.1875 277.1875,838.1875 Q277.9219,838.1875 278.5625,838.3594 Q279.2188,838.5156 279.7656,838.875 Z " fill="#000000"/><text fill="#000000" font-family="sans-serif" font-size="12" lengthAdjust="spacing" textLength="28" x="291" y="847.9102">Time</text><line style="stroke:#A80036;stroke-width:1.5;" x1="263" x2="321" y1="859" y2="859"/><text fill="#000000" font-family="sans-serif" font-size="11" lengthAdjust="spacing" textLength="32" x="268" y="874.4189">-hours</text><text fill="#000000" font-family="sans-serif" font-size="11" lengthAdjust="spacing" textLength="41" x="268" y="888.2549">-minutes</text><!--MD5=[45c6380d22fb72521f5065026b277fb9]
class Slot--><rect codeLine="41" fill="#FEFECE" filter="url(#f135vnudcyppc8)" height="67.6719" id="Slot" style="stroke:#A80036;stroke-width:1.5;" width="90" x="137" y="827"/><ellipse cx="168.65" cy="843" fill="#ADD1B2" rx="11" ry="11" style="stroke:#A80036;stroke-width:1.0;"/><path d="M171.4156,838.875 Q171.5719,838.6563 171.7594,838.5469 Q171.9469,838.4375 172.1656,838.4375 Q172.5406,838.4375 172.775,838.7031 Q173.0094,838.9531 173.0094,839.5625 L173.0094,841.0156 Q173.0094,841.625 172.775,841.8906 Q172.5406,842.1563 172.1656,842.1563 Q171.8219,842.1563 171.6188,841.9531 Q171.4156,841.7656 171.3063,841.25 Q171.2594,840.8906 171.0719,840.7031 Q170.7438,840.3281 170.1344,840.1094 Q169.525,839.8906 168.9,839.8906 Q168.1344,839.8906 167.4938,840.2188 Q166.8688,840.5469 166.3688,841.2969 Q165.8844,842.0469 165.8844,843.0781 L165.8844,844.1719 Q165.8844,845.4063 166.775,846.2344 Q167.6656,847.0469 169.2594,847.0469 Q170.1969,847.0469 170.8531,846.7969 Q171.2438,846.6406 171.6656,846.2031 Q171.9313,845.9375 172.0719,845.8594 Q172.2281,845.7813 172.4313,845.7813 Q172.7594,845.7813 173.0094,846.0469 Q173.275,846.2969 173.275,846.6406 Q173.275,846.9844 172.9313,847.3906 Q172.4313,847.9688 171.6344,848.2969 Q170.5563,848.75 169.2594,848.75 Q167.7438,848.75 166.5406,848.125 Q165.5563,847.625 164.8688,846.5625 Q164.1813,845.4844 164.1813,844.2031 L164.1813,843.0469 Q164.1813,841.7188 164.7906,840.5781 Q165.4156,839.4219 166.5094,838.8125 Q167.6031,838.1875 168.8375,838.1875 Q169.5719,838.1875 170.2125,838.3594 Q170.8688,838.5156 171.4156,838.875 Z " fill="#000000"/><text fill="#000000" font-family="sans-serif" font-size="12" lengthAdjust="spacing" textLength="21" x="186.35" y="847.9102">Slot</text><line style="stroke:#A80036;stroke-width:1.5;" x1="138" x2="226" y1="859" y2="859"/><text fill="#000000" font-family="sans-serif" font-size="11" lengthAdjust="spacing" textLength="61" x="143" y="874.4189">-slotDuration</text><text fill="#000000" font-family="sans-serif" font-size="11" lengthAdjust="spacing" textLength="78" x="143" y="888.2549">-maxVacPerSlot</text><!--MD5=[107cfa23aa516ff83d0cf17a6f9fe7ba]
class VaccineAdministration--><rect codeLine="46" fill="#FEFECE" filter="url(#f135vnudcyppc8)" height="109.1797" id="VaccineAdministration" style="stroke:#A80036;stroke-width:1.5;" width="154" x="379" y="390"/><ellipse cx="394" cy="406" fill="#ADD1B2" rx="11" ry="11" style="stroke:#A80036;stroke-width:1.0;"/><path d="M396.7656,401.875 Q396.9219,401.6563 397.1094,401.5469 Q397.2969,401.4375 397.5156,401.4375 Q397.8906,401.4375 398.125,401.7031 Q398.3594,401.9531 398.3594,402.5625 L398.3594,404.0156 Q398.3594,404.625 398.125,404.8906 Q397.8906,405.1563 397.5156,405.1563 Q397.1719,405.1563 396.9688,404.9531 Q396.7656,404.7656 396.6563,404.25 Q396.6094,403.8906 396.4219,403.7031 Q396.0938,403.3281 395.4844,403.1094 Q394.875,402.8906 394.25,402.8906 Q393.4844,402.8906 392.8438,403.2188 Q392.2188,403.5469 391.7188,404.2969 Q391.2344,405.0469 391.2344,406.0781 L391.2344,407.1719 Q391.2344,408.4063 392.125,409.2344 Q393.0156,410.0469 394.6094,410.0469 Q395.5469,410.0469 396.2031,409.7969 Q396.5938,409.6406 397.0156,409.2031 Q397.2813,408.9375 397.4219,408.8594 Q397.5781,408.7813 397.7813,408.7813 Q398.1094,408.7813 398.3594,409.0469 Q398.625,409.2969 398.625,409.6406 Q398.625,409.9844 398.2813,410.3906 Q397.7813,410.9688 396.9844,411.2969 Q395.9063,411.75 394.6094,411.75 Q393.0938,411.75 391.8906,411.125 Q390.9063,410.625 390.2188,409.5625 Q389.5313,408.4844 389.5313,407.2031 L389.5313,406.0469 Q389.5313,404.7188 390.1406,403.5781 Q390.7656,402.4219 391.8594,401.8125 Q392.9531,401.1875 394.1875,401.1875 Q394.9219,401.1875 395.5625,401.3594 Q396.2188,401.5156 396.7656,401.875 Z " fill="#000000"/><text fill="#000000" font-family="sans-serif" font-size="12" lengthAdjust="spacing" textLength="122" x="408" y="410.9102">VaccineAdministration</text><line style="stroke:#A80036;stroke-width:1.5;" x1="380" x2="532" y1="422" y2="422"/><text fill="#000000" font-family="sans-serif" font-size="11" lengthAdjust="spacing" textLength="45" x="385" y="437.4189">-snsUser</text><text fill="#000000" font-family="sans-serif" font-size="11" lengthAdjust="spacing" textLength="42" x="385" y="451.2549">-vaccine</text><text fill="#000000" font-family="sans-serif" font-size="11" lengthAdjust="spacing" textLength="28" x="385" y="465.0908">-dose</text><text fill="#000000" font-family="sans-serif" font-size="11" lengthAdjust="spacing" textLength="52" x="385" y="478.9268">-lotNumber</text><text fill="#000000" font-family="sans-serif" font-size="11" lengthAdjust="spacing" textLength="25" x="385" y="492.7627">-date</text><!--MD5=[72be06cc7ae02ccc98efe28a50e62246]
class SNSUser--><rect codeLine="54" fill="#FEFECE" filter="url(#f135vnudcyppc8)" height="150.6875" id="SNSUser" style="stroke:#A80036;stroke-width:1.5;" width="84" x="492" y="584"/><ellipse cx="507" cy="600" fill="#ADD1B2" rx="11" ry="11" style="stroke:#A80036;stroke-width:1.0;"/><path d="M509.7656,595.875 Q509.9219,595.6563 510.1094,595.5469 Q510.2969,595.4375 510.5156,595.4375 Q510.8906,595.4375 511.125,595.7031 Q511.3594,595.9531 511.3594,596.5625 L511.3594,598.0156 Q511.3594,598.625 511.125,598.8906 Q510.8906,599.1563 510.5156,599.1563 Q510.1719,599.1563 509.9688,598.9531 Q509.7656,598.7656 509.6563,598.25 Q509.6094,597.8906 509.4219,597.7031 Q509.0938,597.3281 508.4844,597.1094 Q507.875,596.8906 507.25,596.8906 Q506.4844,596.8906 505.8438,597.2188 Q505.2188,597.5469 504.7188,598.2969 Q504.2344,599.0469 504.2344,600.0781 L504.2344,601.1719 Q504.2344,602.4063 505.125,603.2344 Q506.0156,604.0469 507.6094,604.0469 Q508.5469,604.0469 509.2031,603.7969 Q509.5938,603.6406 510.0156,603.2031 Q510.2813,602.9375 510.4219,602.8594 Q510.5781,602.7813 510.7813,602.7813 Q511.1094,602.7813 511.3594,603.0469 Q511.625,603.2969 511.625,603.6406 Q511.625,603.9844 511.2813,604.3906 Q510.7813,604.9688 509.9844,605.2969 Q508.9063,605.75 507.6094,605.75 Q506.0938,605.75 504.8906,605.125 Q503.9063,604.625 503.2188,603.5625 Q502.5313,602.4844 502.5313,601.2031 L502.5313,600.0469 Q502.5313,598.7188 503.1406,597.5781 Q503.7656,596.4219 504.8594,595.8125 Q505.9531,595.1875 507.1875,595.1875 Q507.9219,595.1875 508.5625,595.3594 Q509.2188,595.5156 509.7656,595.875 Z " fill="#000000"/><text fill="#000000" font-family="sans-serif" font-size="12" lengthAdjust="spacing" textLength="52" x="521" y="604.9102">SNSUser</text><line style="stroke:#A80036;stroke-width:1.5;" x1="493" x2="575" y1="616" y2="616"/><text fill="#000000" font-family="sans-serif" font-size="11" lengthAdjust="spacing" textLength="58" x="498" y="631.4189">-citizenCard</text><text fill="#000000" font-family="sans-serif" font-size="11" lengthAdjust="spacing" textLength="59" x="498" y="645.2549">-snsNumber</text><text fill="#000000" font-family="sans-serif" font-size="11" lengthAdjust="spacing" textLength="30" x="498" y="659.0908">-name</text><text fill="#000000" font-family="sans-serif" font-size="11" lengthAdjust="spacing" textLength="44" x="498" y="672.9268">-birthDay</text><text fill="#000000" font-family="sans-serif" font-size="11" lengthAdjust="spacing" textLength="38" x="498" y="686.7627">-gender</text><text fill="#000000" font-family="sans-serif" font-size="11" lengthAdjust="spacing" textLength="71" x="498" y="700.5986">-phoneNumber</text><text fill="#000000" font-family="sans-serif" font-size="11" lengthAdjust="spacing" textLength="28" x="498" y="714.4346">-email</text><text fill="#000000" font-family="sans-serif" font-size="11" lengthAdjust="spacing" textLength="44" x="498" y="728.2705">-address</text><!--MD5=[cbf6ed1efeae6ec1cb5f0ab34665af9e]
class FileReport--><rect codeLine="65" fill="#FEFECE" filter="url(#f135vnudcyppc8)" height="40" id="FileReport" style="stroke:#A80036;stroke-width:1.5;" width="89" x="222.5" y="187.5"/><ellipse cx="237.5" cy="203.5" fill="#ADD1B2" rx="11" ry="11" style="stroke:#A80036;stroke-width:1.0;"/><path d="M240.2656,199.375 Q240.4219,199.1563 240.6094,199.0469 Q240.7969,198.9375 241.0156,198.9375 Q241.3906,198.9375 241.625,199.2031 Q241.8594,199.4531 241.8594,200.0625 L241.8594,201.5156 Q241.8594,202.125 241.625,202.3906 Q241.3906,202.6563 241.0156,202.6563 Q240.6719,202.6563 240.4688,202.4531 Q240.2656,202.2656 240.1563,201.75 Q240.1094,201.3906 239.9219,201.2031 Q239.5938,200.8281 238.9844,200.6094 Q238.375,200.3906 237.75,200.3906 Q236.9844,200.3906 236.3438,200.7188 Q235.7188,201.0469 235.2188,201.7969 Q234.7344,202.5469 234.7344,203.5781 L234.7344,204.6719 Q234.7344,205.9063 235.625,206.7344 Q236.5156,207.5469 238.1094,207.5469 Q239.0469,207.5469 239.7031,207.2969 Q240.0938,207.1406 240.5156,206.7031 Q240.7813,206.4375 240.9219,206.3594 Q241.0781,206.2813 241.2813,206.2813 Q241.6094,206.2813 241.8594,206.5469 Q242.125,206.7969 242.125,207.1406 Q242.125,207.4844 241.7813,207.8906 Q241.2813,208.4688 240.4844,208.7969 Q239.4063,209.25 238.1094,209.25 Q236.5938,209.25 235.3906,208.625 Q234.4063,208.125 233.7188,207.0625 Q233.0313,205.9844 233.0313,204.7031 L233.0313,203.5469 Q233.0313,202.2188 233.6406,201.0781 Q234.2656,199.9219 235.3594,199.3125 Q236.4531,198.6875 237.6875,198.6875 Q238.4219,198.6875 239.0625,198.8594 Q239.7188,199.0156 240.2656,199.375 Z " fill="#000000"/><text fill="#000000" font-family="sans-serif" font-size="12" lengthAdjust="spacing" textLength="57" x="251.5" y="208.4102">FileReport</text><line style="stroke:#A80036;stroke-width:1.5;" x1="223.5" x2="310.5" y1="219.5" y2="219.5"/><!--MD5=[19e445fc4d3b48519cbe33da05496394]
class Vaccine--><rect codeLine="67" fill="#FEFECE" filter="url(#f135vnudcyppc8)" height="40" id="Vaccine" style="stroke:#A80036;stroke-width:1.5;" width="75" x="381.5" y="639.5"/><ellipse cx="396.5" cy="655.5" fill="#ADD1B2" rx="11" ry="11" style="stroke:#A80036;stroke-width:1.0;"/><path d="M399.2656,651.375 Q399.4219,651.1563 399.6094,651.0469 Q399.7969,650.9375 400.0156,650.9375 Q400.3906,650.9375 400.625,651.2031 Q400.8594,651.4531 400.8594,652.0625 L400.8594,653.5156 Q400.8594,654.125 400.625,654.3906 Q400.3906,654.6563 400.0156,654.6563 Q399.6719,654.6563 399.4688,654.4531 Q399.2656,654.2656 399.1563,653.75 Q399.1094,653.3906 398.9219,653.2031 Q398.5938,652.8281 397.9844,652.6094 Q397.375,652.3906 396.75,652.3906 Q395.9844,652.3906 395.3438,652.7188 Q394.7188,653.0469 394.2188,653.7969 Q393.7344,654.5469 393.7344,655.5781 L393.7344,656.6719 Q393.7344,657.9063 394.625,658.7344 Q395.5156,659.5469 397.1094,659.5469 Q398.0469,659.5469 398.7031,659.2969 Q399.0938,659.1406 399.5156,658.7031 Q399.7813,658.4375 399.9219,658.3594 Q400.0781,658.2813 400.2813,658.2813 Q400.6094,658.2813 400.8594,658.5469 Q401.125,658.7969 401.125,659.1406 Q401.125,659.4844 400.7813,659.8906 Q400.2813,660.4688 399.4844,660.7969 Q398.4063,661.25 397.1094,661.25 Q395.5938,661.25 394.3906,660.625 Q393.4063,660.125 392.7188,659.0625 Q392.0313,657.9844 392.0313,656.7031 L392.0313,655.5469 Q392.0313,654.2188 392.6406,653.0781 Q393.2656,651.9219 394.3594,651.3125 Q395.4531,650.6875 396.6875,650.6875 Q397.4219,650.6875 398.0625,650.8594 Q398.7188,651.0156 399.2656,651.375 Z " fill="#000000"/><text fill="#000000" font-family="sans-serif" font-size="12" lengthAdjust="spacing" textLength="43" x="410.5" y="660.4102">Vaccine</text><line style="stroke:#A80036;stroke-width:1.5;" x1="382.5" x2="455.5" y1="671.5" y2="671.5"/><!--MD5=[0e501da62322464167c8ec4d233a6b7e]
class VaccineType--><rect codeLine="69" fill="#FEFECE" filter="url(#f135vnudcyppc8)" height="81.5078" id="VaccineType" style="stroke:#A80036;stroke-width:1.5;" width="101" x="368.5" y="820"/><ellipse cx="383.5" cy="836" fill="#ADD1B2" rx="11" ry="11" style="stroke:#A80036;stroke-width:1.0;"/><path d="M386.2656,831.875 Q386.4219,831.6563 386.6094,831.5469 Q386.7969,831.4375 387.0156,831.4375 Q387.3906,831.4375 387.625,831.7031 Q387.8594,831.9531 387.8594,832.5625 L387.8594,834.0156 Q387.8594,834.625 387.625,834.8906 Q387.3906,835.1563 387.0156,835.1563 Q386.6719,835.1563 386.4688,834.9531 Q386.2656,834.7656 386.1563,834.25 Q386.1094,833.8906 385.9219,833.7031 Q385.5938,833.3281 384.9844,833.1094 Q384.375,832.8906 383.75,832.8906 Q382.9844,832.8906 382.3438,833.2188 Q381.7188,833.5469 381.2188,834.2969 Q380.7344,835.0469 380.7344,836.0781 L380.7344,837.1719 Q380.7344,838.4063 381.625,839.2344 Q382.5156,840.0469 384.1094,840.0469 Q385.0469,840.0469 385.7031,839.7969 Q386.0938,839.6406 386.5156,839.2031 Q386.7813,838.9375 386.9219,838.8594 Q387.0781,838.7813 387.2813,838.7813 Q387.6094,838.7813 387.8594,839.0469 Q388.125,839.2969 388.125,839.6406 Q388.125,839.9844 387.7813,840.3906 Q387.2813,840.9688 386.4844,841.2969 Q385.4063,841.75 384.1094,841.75 Q382.5938,841.75 381.3906,841.125 Q380.4063,840.625 379.7188,839.5625 Q379.0313,838.4844 379.0313,837.2031 L379.0313,836.0469 Q379.0313,834.7188 379.6406,833.5781 Q380.2656,832.4219 381.3594,831.8125 Q382.4531,831.1875 383.6875,831.1875 Q384.4219,831.1875 385.0625,831.3594 Q385.7188,831.5156 386.2656,831.875 Z " fill="#000000"/><text fill="#000000" font-family="sans-serif" font-size="12" lengthAdjust="spacing" textLength="69" x="397.5" y="840.9102">VaccineType</text><line style="stroke:#A80036;stroke-width:1.5;" x1="369.5" x2="468.5" y1="852" y2="852"/><text fill="#000000" font-family="sans-serif" font-size="11" lengthAdjust="spacing" textLength="28" x="374.5" y="867.4189">-code</text><text fill="#000000" font-family="sans-serif" font-size="11" lengthAdjust="spacing" textLength="57" x="374.5" y="881.2549">-description</text><text fill="#000000" font-family="sans-serif" font-size="11" lengthAdjust="spacing" textLength="57" x="374.5" y="895.0908">-technology</text><!--MD5=[09366576ee87d48d594df10cacc83f45]
link Company to Employee--><path codeLine="75" d="M237.78,61.01 C262.87,81.75 298.6,111.74 329,139 C334.7,144.11 340.59,149.51 346.42,154.94 " fill="none" id="Company-Employee" style="stroke:#A80036;stroke-width:1.0;"/><polygon fill="#000000" points="301.7823,103.446,296.8622,95.307,293.0179,99.7533,301.7823,103.446" style="stroke:#000000;stroke-width:1.0;"/><text fill="#000000" font-family="sans-serif" font-size="13" lengthAdjust="spacing" textLength="37" x="307" y="105.4951">knows</text><text fill="#000000" font-family="sans-serif" font-size="13" lengthAdjust="spacing" textLength="7" x="236.9663" y="82.22">1</text><text fill="#000000" font-family="sans-serif" font-size="13" lengthAdjust="spacing" textLength="5" x="333.5338" y="143.954">*</text><!--MD5=[98f7f3dc8d9719d04ad14614c4ea123f]
reverse link Employee to CenterCoordinator--><path codeLine="76" d="M380.92,295.34 C374.18,317.25 365.35,340.17 354,360 C339.7,384.99 316.66,408.63 299.51,424.34 " fill="none" id="Employee-backto-CenterCoordinator" style="stroke:#A80036;stroke-width:1.0;"/><polygon fill="none" points="374.22,293.33,386.44,276.03,387.68,297.18,374.22,293.33" style="stroke:#A80036;stroke-width:1.0;"/><!--MD5=[d5cf03d886352995267197dc535618ec]
link CenterCoordinator to VaccinationCenter--><path codeLine="77" d="M277,464.78 C277,490.07 277,536.05 277,576.86 " fill="none" id="CenterCoordinator-VaccinationCenter" style="stroke:#A80036;stroke-width:1.0;"/><polygon fill="#000000" points="282,543.1758,284.9389,534.1307,279.0611,534.1307,282,543.1758" style="stroke:#000000;stroke-width:1.0;"/><text fill="#000000" font-family="sans-serif" font-size="13" lengthAdjust="spacing" textLength="21" x="291" y="543.4951">has</text><!--MD5=[e67749f86d2edce8d072e016ba76df74]
link VaccinationCenter to Time--><path codeLine="78" d="M283.14,742.22 C285.38,771.92 287.78,803.82 289.51,826.93 " fill="none" id="VaccinationCenter-Time" style="stroke:#A80036;stroke-width:1.0;"/><polygon fill="#000000" points="292.3749,786.1617,294.6273,776.9217,288.766,777.3625,292.3749,786.1617" style="stroke:#000000;stroke-width:1.0;"/><text fill="#000000" font-family="sans-serif" font-size="13" lengthAdjust="spacing" textLength="21" x="301" y="786.4951">has</text><text fill="#000000" font-family="sans-serif" font-size="13" lengthAdjust="spacing" textLength="7" x="276.3504" y="762.9774">1</text><text fill="#000000" font-family="sans-serif" font-size="13" lengthAdjust="spacing" textLength="7" x="281.3307" y="816.2095">1</text><!--MD5=[b649bef0048cf03271726558ee7073ed]
link VaccinationCenter to Slot--><path codeLine="79" d="M238.09,742.22 C223.94,771.92 208.75,803.82 197.75,826.93 " fill="none" id="VaccinationCenter-Slot" style="stroke:#A80036;stroke-width:1.0;"/><polygon fill="#000000" points="226.8502,785.69,233.3926,778.7873,228.0858,776.2601,226.8502,785.69" style="stroke:#000000;stroke-width:1.0;"/><text fill="#000000" font-family="sans-serif" font-size="13" lengthAdjust="spacing" textLength="21" x="238" y="786.4951">has</text><text fill="#000000" font-family="sans-serif" font-size="13" lengthAdjust="spacing" textLength="7" x="227.7105" y="762.9774">1</text><text fill="#000000" font-family="sans-serif" font-size="13" lengthAdjust="spacing" textLength="7" x="193.1617" y="816.2095">1</text><!--MD5=[8c304936b446fd8cea914e03fbadd4b7]
link VaccinationCenterStore to VaccinationCenter--><path codeLine="80" d="M120.43,360.07 C119.41,393.64 121.04,453.12 141,499 C157.04,535.87 184.57,570.63 210.69,598.23 " fill="none" id="VaccinationCenterStore-VaccinationCenter" style="stroke:#A80036;stroke-width:1.0;"/><polygon fill="#000000" points="147.772,449.3513,147.3146,439.8517,141.8183,441.9348,147.772,449.3513" style="stroke:#000000;stroke-width:1.0;"/><text fill="#000000" font-family="sans-serif" font-size="13" lengthAdjust="spacing" textLength="36" x="155" y="449.9951">stores</text><text fill="#000000" font-family="sans-serif" font-size="13" lengthAdjust="spacing" textLength="7" x="112.3209" y="381.2931">1</text><text fill="#000000" font-family="sans-serif" font-size="13" lengthAdjust="spacing" textLength="5" x="198.1639" y="588.194">*</text><!--MD5=[bc0d5b4bfe6e1bf0a8fced13bc4bdd47]
link Company to VaccinationCenterStore--><path codeLine="81" d="M198.62,61.1 C182.73,117.29 145.41,249.22 129.45,305.64 " fill="none" id="Company-VaccinationCenterStore" style="stroke:#A80036;stroke-width:1.0;"/><polygon fill="#000000" points="193.6391,104.987,198.929,97.0833,193.273,95.4835,193.6391,104.987" style="stroke:#000000;stroke-width:1.0;"/><text fill="#000000" font-family="sans-serif" font-size="13" lengthAdjust="spacing" textLength="37" x="204" y="105.4951">knows</text><text fill="#000000" font-family="sans-serif" font-size="13" lengthAdjust="spacing" textLength="7" x="189.24" y="82.3296">1</text><text fill="#000000" font-family="sans-serif" font-size="13" lengthAdjust="spacing" textLength="7" x="123.3634" y="295.0177">1</text><!--MD5=[d2b3fa5d2c15befc1f1443449e89d723]
link FileReport to CenterCoordinator--><path codeLine="82" d="M267.82,227.73 C269.7,271.91 274.31,380.22 276.18,424.33 " fill="none" id="FileReport-CenterCoordinator" style="stroke:#A80036;stroke-width:1.0;"/><polygon fill="#000000" points="278.7876,328.1803,276.2356,337.3421,282.1081,337.0924,278.7876,328.1803" style="stroke:#000000;stroke-width:1.0;"/><text fill="#000000" font-family="sans-serif" font-size="13" lengthAdjust="spacing" textLength="57" x="288" y="338.4951">generates</text><text fill="#000000" font-family="sans-serif" font-size="13" lengthAdjust="spacing" textLength="7" x="260.0998" y="248.8592">1</text><text fill="#000000" font-family="sans-serif" font-size="13" lengthAdjust="spacing" textLength="7" x="267.911" y="413.6018">1</text><!--MD5=[6bb3ec5f470f72ee4f54b0838c98c655]
link VaccineAdministration to VaccinationCenter--><path codeLine="83" d="M410.83,499.25 C390.32,523.65 365.66,553 343.13,579.81 " fill="none" id="VaccineAdministration-VaccinationCenter" style="stroke:#A80036;stroke-width:1.0;"/><polygon fill="#000000" points="390.2168,534.3479,382.1476,539.3818,386.6475,543.1633,390.2168,534.3479" style="stroke:#000000;stroke-width:1.0;"/><text fill="#000000" font-family="sans-serif" font-size="13" lengthAdjust="spacing" textLength="21" x="396" y="543.4951">has</text><text fill="#000000" font-family="sans-serif" font-size="13" lengthAdjust="spacing" textLength="7" x="397.5942" y="520.796">1</text><text fill="#000000" font-family="sans-serif" font-size="13" lengthAdjust="spacing" textLength="7" x="351.181" y="567.2138">1</text><!--MD5=[951a07871a6512bd4f8e62baa1d062ce]
link VaccineAdministration to SNSUser--><path codeLine="84" d="M475.68,499.25 C485.07,524.88 496.45,555.97 506.66,583.85 " fill="none" id="VaccineAdministration-SNSUser" style="stroke:#A80036;stroke-width:1.0;"/><polygon fill="#000000" points="498.7193,542.8709,498.3688,533.3668,492.8493,535.388,498.7193,542.8709" style="stroke:#000000;stroke-width:1.0;"/><text fill="#000000" font-family="sans-serif" font-size="13" lengthAdjust="spacing" textLength="21" x="506" y="543.4951">has</text><text fill="#000000" font-family="sans-serif" font-size="13" lengthAdjust="spacing" textLength="7" x="470.7531" y="520.796">1</text><text fill="#000000" font-family="sans-serif" font-size="13" lengthAdjust="spacing" textLength="5" x="498.7226" y="573.1435">*</text><!--MD5=[d96ee281cdb1021d3c4ed227c45512e2]
link VaccineAdministration to Vaccine--><path codeLine="85" d="M446.66,499.25 C438.72,544.97 427.76,608.05 422.33,639.32 " fill="none" id="VaccineAdministration-Vaccine" style="stroke:#A80036;stroke-width:1.0;"/><polygon fill="#000000" points="444.1443,543.102,448.5878,534.6933,442.7967,533.6874,444.1443,543.102" style="stroke:#000000;stroke-width:1.0;"/><text fill="#000000" font-family="sans-serif" font-size="13" lengthAdjust="spacing" textLength="21" x="454" y="543.4951">has</text><text fill="#000000" font-family="sans-serif" font-size="13" lengthAdjust="spacing" textLength="7" x="438.0149" y="520.796">1</text><text fill="#000000" font-family="sans-serif" font-size="13" lengthAdjust="spacing" textLength="7" x="415.2801" y="628.5889">1</text><!--MD5=[3568623adf67b2630dce9e60c05bd02a]
link Vaccine to VaccineType--><path codeLine="86" d="M419,679.63 C419,711.71 419,777.04 419,819.64 " fill="none" id="Vaccine-VaccineType" style="stroke:#A80036;stroke-width:1.0;"/><polygon fill="#000000" points="424,786.1758,426.9389,777.1307,421.0611,777.1307,424,786.1758" style="stroke:#000000;stroke-width:1.0;"/><text fill="#000000" font-family="sans-serif" font-size="13" lengthAdjust="spacing" textLength="21" x="433" y="786.4951">has</text><!--MD5=[6d4606c9661c7c2ad1ae70d7bca14b18]
@startuml US15_DM
hide methods
skinparam classAttributeIconSize 0

class Company {
  -designation
}

class CenterCoordinator {}

class Employee {
  -name
  -phoneNumber
  -email
  -password
  -address
  -citizenCardNumber
  -roleId
}

class VaccinationCenter{
  -name
  -address
  -emailAddress
  -phoneNumber
  -faxNumber
  -websiteAddress
  -time
  -slot
  -coordinator
}

class VaccinationCenterStore {
  -List<VaccinationCenter> vaccinationCenters
}

class Time {
  -hours
  -minutes
}

class Slot {
  -slotDuration
  -maxVacPerSlot
}

class VaccineAdministration {
  -snsUser
  -vaccine
  -dose
  -lotNumber
  -date
}

class SNSUser {
  - citizenCard
  - snsNumber
  - name
  - birthDay
  - gender
  - phoneNumber
  - email
  - address
}

class FileReport {}

class Vaccine {}

class VaccineType {
  -code 
  -description
  -technology
}

Company "1" - - "*" Employee : knows >
Employee <|- - CenterCoordinator
CenterCoordinator - - VaccinationCenter : has >
VaccinationCenter "1" - - "1" Time : has >
VaccinationCenter "1"- - "1" Slot : has >
VaccinationCenterStore "1" - - "*" VaccinationCenter : stores >
Company "1" - - "1" VaccinationCenterStore : knows >
FileReport "1" - - "1" CenterCoordinator : generates <
VaccineAdministration "1" - - "1" VaccinationCenter : has <
VaccineAdministration "1" - - "*" SNSUser : has >
VaccineAdministration "1" - - "1" Vaccine : has > 
Vaccine - - VaccineType : has >

@enduml

PlantUML version 1.2022.0(Tue Jan 11 16:16:42 WET 2022)
(GPL source distribution)
Java Runtime: Java(TM) SE Runtime Environment
JVM: Java HotSpot(TM) 64-Bit Server VM
Default Encoding: Cp1252
Language: pt
Country: PT
--></g></svg>