<?xml version="1.0" encoding="UTF-8" standalone="no"?><svg xmlns="http://www.w3.org/2000/svg" xmlns:xlink="http://www.w3.org/1999/xlink" contentScriptType="application/ecmascript" contentStyleType="text/css" height="407px" preserveAspectRatio="none" style="width:224px;height:407px;background:#FFFFFF;" version="1.1" viewBox="0 0 224 407" width="224px" zoomAndPan="magnify"><defs><filter height="300%" id="f1fswb8mihotsm" width="300%" x="-1" y="-1"><feGaussianBlur result="blurOut" stdDeviation="2.0"/><feColorMatrix in="blurOut" result="blurOut2" type="matrix" values="0 0 0 0 0 0 0 0 0 0 0 0 0 0 0 0 0 0 .4 0"/><feOffset dx="4.0" dy="4.0" in="blurOut2" result="blurOut3"/><feBlend in="SourceGraphic" in2="blurOut3" mode="normal"/></filter></defs><g><!--MD5=[02e4b9b7573f1156f41e60aa5b4e25a4]
class Company--><rect codeLine="4" fill="#FEFECE" filter="url(#f1fswb8mihotsm)" height="53.8359" id="Company" style="stroke:#A80036;stroke-width:1.5;" width="85" x="78" y="7"/><ellipse cx="93" cy="23" fill="#ADD1B2" rx="11" ry="11" style="stroke:#A80036;stroke-width:1.0;"/><path d="M95.7656,18.875 Q95.9219,18.6563 96.1094,18.5469 Q96.2969,18.4375 96.5156,18.4375 Q96.8906,18.4375 97.125,18.7031 Q97.3594,18.9531 97.3594,19.5625 L97.3594,21.0156 Q97.3594,21.625 97.125,21.8906 Q96.8906,22.1563 96.5156,22.1563 Q96.1719,22.1563 95.9688,21.9531 Q95.7656,21.7656 95.6563,21.25 Q95.6094,20.8906 95.4219,20.7031 Q95.0938,20.3281 94.4844,20.1094 Q93.875,19.8906 93.25,19.8906 Q92.4844,19.8906 91.8438,20.2188 Q91.2188,20.5469 90.7188,21.2969 Q90.2344,22.0469 90.2344,23.0781 L90.2344,24.1719 Q90.2344,25.4063 91.125,26.2344 Q92.0156,27.0469 93.6094,27.0469 Q94.5469,27.0469 95.2031,26.7969 Q95.5938,26.6406 96.0156,26.2031 Q96.2813,25.9375 96.4219,25.8594 Q96.5781,25.7813 96.7813,25.7813 Q97.1094,25.7813 97.3594,26.0469 Q97.625,26.2969 97.625,26.6406 Q97.625,26.9844 97.2813,27.3906 Q96.7813,27.9688 95.9844,28.2969 Q94.9063,28.75 93.6094,28.75 Q92.0938,28.75 90.8906,28.125 Q89.9063,27.625 89.2188,26.5625 Q88.5313,25.4844 88.5313,24.2031 L88.5313,23.0469 Q88.5313,21.7188 89.1406,20.5781 Q89.7656,19.4219 90.8594,18.8125 Q91.9531,18.1875 93.1875,18.1875 Q93.9219,18.1875 94.5625,18.3594 Q95.2188,18.5156 95.7656,18.875 Z " fill="#000000"/><text fill="#000000" font-family="sans-serif" font-size="12" lengthAdjust="spacing" textLength="53" x="107" y="27.9102">Company</text><line style="stroke:#A80036;stroke-width:1.5;" x1="79" x2="162" y1="39" y2="39"/><text fill="#000000" font-family="sans-serif" font-size="11" lengthAdjust="spacing" textLength="59" x="84" y="54.4189">-designation</text><!--MD5=[da547346deef918ea16944ba046651ef]
class Administrator--><rect codeLine="8" fill="#FEFECE" filter="url(#f1fswb8mihotsm)" height="40" id="Administrator" style="stroke:#A80036;stroke-width:1.5;" width="105" x="7" y="139"/><ellipse cx="22" cy="155" fill="#ADD1B2" rx="11" ry="11" style="stroke:#A80036;stroke-width:1.0;"/><path d="M24.7656,150.875 Q24.9219,150.6563 25.1094,150.5469 Q25.2969,150.4375 25.5156,150.4375 Q25.8906,150.4375 26.125,150.7031 Q26.3594,150.9531 26.3594,151.5625 L26.3594,153.0156 Q26.3594,153.625 26.125,153.8906 Q25.8906,154.1563 25.5156,154.1563 Q25.1719,154.1563 24.9688,153.9531 Q24.7656,153.7656 24.6563,153.25 Q24.6094,152.8906 24.4219,152.7031 Q24.0938,152.3281 23.4844,152.1094 Q22.875,151.8906 22.25,151.8906 Q21.4844,151.8906 20.8438,152.2188 Q20.2188,152.5469 19.7188,153.2969 Q19.2344,154.0469 19.2344,155.0781 L19.2344,156.1719 Q19.2344,157.4063 20.125,158.2344 Q21.0156,159.0469 22.6094,159.0469 Q23.5469,159.0469 24.2031,158.7969 Q24.5938,158.6406 25.0156,158.2031 Q25.2813,157.9375 25.4219,157.8594 Q25.5781,157.7813 25.7813,157.7813 Q26.1094,157.7813 26.3594,158.0469 Q26.625,158.2969 26.625,158.6406 Q26.625,158.9844 26.2813,159.3906 Q25.7813,159.9688 24.9844,160.2969 Q23.9063,160.75 22.6094,160.75 Q21.0938,160.75 19.8906,160.125 Q18.9063,159.625 18.2188,158.5625 Q17.5313,157.4844 17.5313,156.2031 L17.5313,155.0469 Q17.5313,153.7188 18.1406,152.5781 Q18.7656,151.4219 19.8594,150.8125 Q20.9531,150.1875 22.1875,150.1875 Q22.9219,150.1875 23.5625,150.3594 Q24.2188,150.5156 24.7656,150.875 Z " fill="#000000"/><text fill="#000000" font-family="sans-serif" font-size="12" lengthAdjust="spacing" textLength="73" x="36" y="159.9102">Administrator</text><line style="stroke:#A80036;stroke-width:1.5;" x1="8" x2="111" y1="171" y2="171"/><!--MD5=[7421f545a0d8420c5bec41e74b387d9c]
class Employee--><rect codeLine="11" fill="#FEFECE" filter="url(#f1fswb8mihotsm)" height="136.8516" id="Employee" style="stroke:#A80036;stroke-width:1.5;" width="107" x="68" y="257"/><ellipse cx="92" cy="273" fill="#ADD1B2" rx="11" ry="11" style="stroke:#A80036;stroke-width:1.0;"/><path d="M94.7656,268.875 Q94.9219,268.6563 95.1094,268.5469 Q95.2969,268.4375 95.5156,268.4375 Q95.8906,268.4375 96.125,268.7031 Q96.3594,268.9531 96.3594,269.5625 L96.3594,271.0156 Q96.3594,271.625 96.125,271.8906 Q95.8906,272.1563 95.5156,272.1563 Q95.1719,272.1563 94.9688,271.9531 Q94.7656,271.7656 94.6563,271.25 Q94.6094,270.8906 94.4219,270.7031 Q94.0938,270.3281 93.4844,270.1094 Q92.875,269.8906 92.25,269.8906 Q91.4844,269.8906 90.8438,270.2188 Q90.2188,270.5469 89.7188,271.2969 Q89.2344,272.0469 89.2344,273.0781 L89.2344,274.1719 Q89.2344,275.4063 90.125,276.2344 Q91.0156,277.0469 92.6094,277.0469 Q93.5469,277.0469 94.2031,276.7969 Q94.5938,276.6406 95.0156,276.2031 Q95.2813,275.9375 95.4219,275.8594 Q95.5781,275.7813 95.7813,275.7813 Q96.1094,275.7813 96.3594,276.0469 Q96.625,276.2969 96.625,276.6406 Q96.625,276.9844 96.2813,277.3906 Q95.7813,277.9688 94.9844,278.2969 Q93.9063,278.75 92.6094,278.75 Q91.0938,278.75 89.8906,278.125 Q88.9063,277.625 88.2188,276.5625 Q87.5313,275.4844 87.5313,274.2031 L87.5313,273.0469 Q87.5313,271.7188 88.1406,270.5781 Q88.7656,269.4219 89.8594,268.8125 Q90.9531,268.1875 92.1875,268.1875 Q92.9219,268.1875 93.5625,268.3594 Q94.2188,268.5156 94.7656,268.875 Z " fill="#000000"/><text fill="#000000" font-family="sans-serif" font-size="12" lengthAdjust="spacing" textLength="55" x="108" y="277.9102">Employee</text><line style="stroke:#A80036;stroke-width:1.5;" x1="69" x2="174" y1="289" y2="289"/><text fill="#000000" font-family="sans-serif" font-size="11" lengthAdjust="spacing" textLength="30" x="74" y="304.4189">-name</text><text fill="#000000" font-family="sans-serif" font-size="11" lengthAdjust="spacing" textLength="71" x="74" y="318.2549">-phoneNumber</text><text fill="#000000" font-family="sans-serif" font-size="11" lengthAdjust="spacing" textLength="28" x="74" y="332.0908">-email</text><text fill="#000000" font-family="sans-serif" font-size="11" lengthAdjust="spacing" textLength="54" x="74" y="345.9268">-password</text><text fill="#000000" font-family="sans-serif" font-size="11" lengthAdjust="spacing" textLength="44" x="74" y="359.7627">-address</text><text fill="#000000" font-family="sans-serif" font-size="11" lengthAdjust="spacing" textLength="95" x="74" y="373.5986">-citizenCardNumber</text><text fill="#000000" font-family="sans-serif" font-size="11" lengthAdjust="spacing" textLength="30" x="74" y="387.4346">-roleId</text><!--MD5=[eaea43e34e45c5b9d20b595fc78f1f20]
link Company to Administrator--><path codeLine="21" d="M107.56,61.09 C96.02,84.36 79.39,117.89 69.03,138.79 " fill="none" id="Company-Administrator" style="stroke:#A80036;stroke-width:1.0;"/><polygon fill="#000000" points="95.2787,104.6553,101.93,97.8574,96.6641,95.2462,95.2787,104.6553" style="stroke:#000000;stroke-width:1.0;"/><text fill="#000000" font-family="sans-serif" font-size="13" lengthAdjust="spacing" textLength="37" x="106.5" y="105.4951">knows</text><text fill="#000000" font-family="sans-serif" font-size="13" lengthAdjust="spacing" textLength="7" x="96.9638" y="82.3175">1</text><text fill="#000000" font-family="sans-serif" font-size="13" lengthAdjust="spacing" textLength="5" x="66.0951" y="128.0501">*</text><!--MD5=[09366576ee87d48d594df10cacc83f45]
link Company to Employee--><path codeLine="22" d="M138.94,61.16 C144.33,70.2 149.57,80.66 152.5,91 C169.01,149.17 166.87,167.43 156.5,227 C154.79,236.83 152.17,246.99 149.13,256.86 " fill="none" id="Company-Employee" style="stroke:#A80036;stroke-width:1.0;"/><polygon fill="#000000" points="170.76,164.169,173.2246,154.9833,167.3547,155.289,170.76,164.169" style="stroke:#000000;stroke-width:1.0;"/><text fill="#000000" font-family="sans-serif" font-size="13" lengthAdjust="spacing" textLength="37" x="179.5" y="164.4951">knows</text><text fill="#000000" font-family="sans-serif" font-size="13" lengthAdjust="spacing" textLength="7" x="135.2081" y="82.4028">1</text><text fill="#000000" font-family="sans-serif" font-size="13" lengthAdjust="spacing" textLength="5" x="146.8786" y="246">*</text><!--MD5=[8f7dd94d56b58fc07b233ccd3dd98f8c]
link Administrator to Employee--><path codeLine="23" d="M66.73,179.19 C73.92,198.26 85.37,228.63 95.94,256.69 " fill="none" id="Administrator-Employee" style="stroke:#A80036;stroke-width:1.0;"/><polygon fill="#000000" points="90.2634,222.8545,89.8234,213.3541,84.3233,215.4271,90.2634,222.8545" style="stroke:#000000;stroke-width:1.0;"/><text fill="#000000" font-family="sans-serif" font-size="13" lengthAdjust="spacing" textLength="50" x="97.5" y="223.4951">registers</text><text fill="#000000" font-family="sans-serif" font-size="13" lengthAdjust="spacing" textLength="7" x="60.7791" y="200.663">1</text><text fill="#000000" font-family="sans-serif" font-size="13" lengthAdjust="spacing" textLength="5" x="88.0463" y="246.2899">*</text><!--MD5=[89c6d0a4d2d27b2787e4811f54f251b6]
@startuml US10_DM
hide methods
skinparam classAttributeIconSize 0

class Company {
  -designation
}

class Administrator {
}

class Employee {
  -name
  -phoneNumber
  -email
  -password
  -address
  -citizenCardNumber
  -roleId
}

Company "1" - - "*" Administrator : knows >
Company "1" - - "*" Employee : knows >
Administrator "1" - - "*" Employee : registers >

@enduml

PlantUML version 1.2022.0(Tue Jan 11 16:16:42 WET 2022)
(GPL source distribution)
Java Runtime: Java(TM) SE Runtime Environment
JVM: Java HotSpot(TM) 64-Bit Server VM
Default Encoding: Cp1252
Language: pt
Country: PT
--></g></svg>