<?xml version="1.0" encoding="UTF-8" standalone="no"?><svg xmlns="http://www.w3.org/2000/svg" xmlns:xlink="http://www.w3.org/1999/xlink" contentScriptType="application/ecmascript" contentStyleType="text/css" height="489px" preserveAspectRatio="none" style="width:397px;height:489px;background:#FFFFFF;" version="1.1" viewBox="0 0 397 489" width="397px" zoomAndPan="magnify"><defs><filter height="300%" id="f1eon6z05pctb5" width="300%" x="-1" y="-1"><feGaussianBlur result="blurOut" stdDeviation="2.0"/><feColorMatrix in="blurOut" result="blurOut2" type="matrix" values="0 0 0 0 0 0 0 0 0 0 0 0 0 0 0 0 0 0 .4 0"/><feOffset dx="4.0" dy="4.0" in="blurOut2" result="blurOut3"/><feBlend in="SourceGraphic" in2="blurOut3" mode="normal"/></filter></defs><g><!--MD5=[02e4b9b7573f1156f41e60aa5b4e25a4]
class Company--><rect codeLine="4" fill="#FEFECE" filter="url(#f1eon6z05pctb5)" height="52.8047" id="Company" style="stroke:#A80036;stroke-width:1.5;" width="89" x="114" y="7"/><ellipse cx="129" cy="23" fill="#ADD1B2" rx="11" ry="11" style="stroke:#A80036;stroke-width:1.0;"/><path d="M131.9688,28.6406 Q131.3906,28.9375 130.75,29.0781 Q130.1094,29.2344 129.4063,29.2344 Q126.9063,29.2344 125.5781,27.5938 Q124.2656,25.9375 124.2656,22.8125 Q124.2656,19.6875 125.5781,18.0313 Q126.9063,16.375 129.4063,16.375 Q130.1094,16.375 130.75,16.5313 Q131.4063,16.6875 131.9688,16.9844 L131.9688,19.7031 Q131.3438,19.125 130.75,18.8594 Q130.1563,18.5781 129.5313,18.5781 Q128.1875,18.5781 127.5,19.6563 Q126.8125,20.7188 126.8125,22.8125 Q126.8125,24.9063 127.5,25.9844 Q128.1875,27.0469 129.5313,27.0469 Q130.1563,27.0469 130.75,26.7813 Q131.3438,26.5 131.9688,25.9219 L131.9688,28.6406 Z " fill="#000000"/><text fill="#000000" font-family="sans-serif" font-size="12" lengthAdjust="spacing" textLength="57" x="143" y="27.1543">Company</text><line style="stroke:#A80036;stroke-width:1.5;" x1="115" x2="202" y1="39" y2="39"/><text fill="#000000" font-family="sans-serif" font-size="11" lengthAdjust="spacing" textLength="70" x="120" y="53.2104">-designation</text><!--MD5=[19e445fc4d3b48519cbe33da05496394]
class Vaccine--><rect codeLine="8" fill="#FEFECE" filter="url(#f1eon6z05pctb5)" height="65.6094" id="Vaccine" style="stroke:#A80036;stroke-width:1.5;" width="81" x="7" y="137"/><ellipse cx="22" cy="153" fill="#ADD1B2" rx="11" ry="11" style="stroke:#A80036;stroke-width:1.0;"/><path d="M24.9688,158.6406 Q24.3906,158.9375 23.75,159.0781 Q23.1094,159.2344 22.4063,159.2344 Q19.9063,159.2344 18.5781,157.5938 Q17.2656,155.9375 17.2656,152.8125 Q17.2656,149.6875 18.5781,148.0313 Q19.9063,146.375 22.4063,146.375 Q23.1094,146.375 23.75,146.5313 Q24.4063,146.6875 24.9688,146.9844 L24.9688,149.7031 Q24.3438,149.125 23.75,148.8594 Q23.1563,148.5781 22.5313,148.5781 Q21.1875,148.5781 20.5,149.6563 Q19.8125,150.7188 19.8125,152.8125 Q19.8125,154.9063 20.5,155.9844 Q21.1875,157.0469 22.5313,157.0469 Q23.1563,157.0469 23.75,156.7813 Q24.3438,156.5 24.9688,155.9219 L24.9688,158.6406 Z " fill="#000000"/><text fill="#000000" font-family="sans-serif" font-size="12" lengthAdjust="spacing" textLength="49" x="36" y="157.1543">Vaccine</text><line style="stroke:#A80036;stroke-width:1.5;" x1="8" x2="87" y1="169" y2="169"/><text fill="#000000" font-family="sans-serif" font-size="11" lengthAdjust="spacing" textLength="36" x="13" y="183.2104">-name</text><text fill="#000000" font-family="sans-serif" font-size="11" lengthAdjust="spacing" textLength="37" x="13" y="196.0151">-brand</text><!--MD5=[0e501da62322464167c8ec4d233a6b7e]
class VaccineType--><rect codeLine="13" fill="#FEFECE" filter="url(#f1eon6z05pctb5)" height="78.4141" id="VaccineType" style="stroke:#A80036;stroke-width:1.5;" width="110" x="103.5" y="280"/><ellipse cx="118.5" cy="296" fill="#ADD1B2" rx="11" ry="11" style="stroke:#A80036;stroke-width:1.0;"/><path d="M121.4688,301.6406 Q120.8906,301.9375 120.25,302.0781 Q119.6094,302.2344 118.9063,302.2344 Q116.4063,302.2344 115.0781,300.5938 Q113.7656,298.9375 113.7656,295.8125 Q113.7656,292.6875 115.0781,291.0313 Q116.4063,289.375 118.9063,289.375 Q119.6094,289.375 120.25,289.5313 Q120.9063,289.6875 121.4688,289.9844 L121.4688,292.7031 Q120.8438,292.125 120.25,291.8594 Q119.6563,291.5781 119.0313,291.5781 Q117.6875,291.5781 117,292.6563 Q116.3125,293.7188 116.3125,295.8125 Q116.3125,297.9063 117,298.9844 Q117.6875,300.0469 119.0313,300.0469 Q119.6563,300.0469 120.25,299.7813 Q120.8438,299.5 121.4688,298.9219 L121.4688,301.6406 Z " fill="#000000"/><text fill="#000000" font-family="sans-serif" font-size="12" lengthAdjust="spacing" textLength="78" x="132.5" y="300.1543">VaccineType</text><line style="stroke:#A80036;stroke-width:1.5;" x1="104.5" x2="212.5" y1="312" y2="312"/><text fill="#000000" font-family="sans-serif" font-size="11" lengthAdjust="spacing" textLength="31" x="109.5" y="326.2104">-code</text><text fill="#000000" font-family="sans-serif" font-size="11" lengthAdjust="spacing" textLength="70" x="109.5" y="339.0151">-designation</text><text fill="#000000" font-family="sans-serif" font-size="11" lengthAdjust="spacing" textLength="37" x="109.5" y="351.8198">-whoid</text><!--MD5=[da547346deef918ea16944ba046651ef]
class Administrator--><rect codeLine="19" fill="#FEFECE" filter="url(#f1eon6z05pctb5)" height="40" id="Administrator" style="stroke:#A80036;stroke-width:1.5;" width="116" x="206.5" y="435"/><ellipse cx="221.5" cy="451" fill="#ADD1B2" rx="11" ry="11" style="stroke:#A80036;stroke-width:1.0;"/><path d="M224.4688,456.6406 Q223.8906,456.9375 223.25,457.0781 Q222.6094,457.2344 221.9063,457.2344 Q219.4063,457.2344 218.0781,455.5938 Q216.7656,453.9375 216.7656,450.8125 Q216.7656,447.6875 218.0781,446.0313 Q219.4063,444.375 221.9063,444.375 Q222.6094,444.375 223.25,444.5313 Q223.9063,444.6875 224.4688,444.9844 L224.4688,447.7031 Q223.8438,447.125 223.25,446.8594 Q222.6563,446.5781 222.0313,446.5781 Q220.6875,446.5781 220,447.6563 Q219.3125,448.7188 219.3125,450.8125 Q219.3125,452.9063 220,453.9844 Q220.6875,455.0469 222.0313,455.0469 Q222.6563,455.0469 223.25,454.7813 Q223.8438,454.5 224.4688,453.9219 L224.4688,456.6406 Z " fill="#000000"/><text fill="#000000" font-family="sans-serif" font-size="12" lengthAdjust="spacing" textLength="84" x="235.5" y="455.1543">Administrator</text><line style="stroke:#A80036;stroke-width:1.5;" x1="207.5" x2="321.5" y1="467" y2="467"/><!--MD5=[c29c8d42883934cbaf5793c72a334947]
link Company to Vaccine--><path codeLine="21" d="M113.63,55.48 C98.77,64.32 83.28,75.88 72.5,90 C62.2,103.49 56.08,121.33 52.48,136.64 " fill="none" id="Company-Vaccine" style="stroke:#A80036;stroke-width:1.0;"/><polygon fill="#000000" points="74.4912,102.5598,82.2814,97.1042,77.5869,93.5672,74.4912,102.5598" style="stroke:#000000;stroke-width:1.0;"/><text fill="#000000" font-family="sans-serif" font-size="13" lengthAdjust="spacing" textLength="45" x="86.5" y="103.0669">applies</text><text fill="#000000" font-family="sans-serif" font-size="13" lengthAdjust="spacing" textLength="8" x="98.1468" y="54.7893">1</text><text fill="#000000" font-family="sans-serif" font-size="13" lengthAdjust="spacing" textLength="7" x="45.7621" y="125.9678">*</text><!--MD5=[3568623adf67b2630dce9e60c05bd02a]
link Vaccine to VaccineType--><path codeLine="22" d="M71.86,203.26 C88.9,225.83 111.73,256.06 129.67,279.83 " fill="none" id="Vaccine-VaccineType" style="stroke:#A80036;stroke-width:1.0;"/><text fill="#000000" font-family="sans-serif" font-size="13" lengthAdjust="spacing" textLength="23" x="107.5" y="246.0669">has</text><text fill="#000000" font-family="sans-serif" font-size="13" lengthAdjust="spacing" textLength="7" x="68.5757" y="222.6339">*</text><text fill="#000000" font-family="sans-serif" font-size="13" lengthAdjust="spacing" textLength="8" x="116.0273" y="268.8513">1</text><!--MD5=[05986564e1c13a00611587b35563d868]
link Company to VaccineType--><path codeLine="24" d="M158.5,60.16 C158.5,110.18 158.5,220.97 158.5,279.71 " fill="none" id="Company-VaccineType" style="stroke:#A80036;stroke-width:1.0;"/><text fill="#000000" font-family="sans-serif" font-size="13" lengthAdjust="spacing" textLength="158" x="159.5" y="174.5669">promotes administration</text><text fill="#000000" font-family="sans-serif" font-size="13" lengthAdjust="spacing" textLength="8" x="149.625" y="79.7353">1</text><text fill="#000000" font-family="sans-serif" font-size="13" lengthAdjust="spacing" textLength="7" x="150.9203" y="269.004">*</text><!--MD5=[eaea43e34e45c5b9d20b595fc78f1f20]
link Company to Administrator--><path codeLine="25" d="M203.05,47.78 C243.37,62.45 300.33,90.37 326.5,137 C349.73,178.39 370.45,285.16 315.5,405 C310.18,416.61 300.76,426.87 291.46,434.97 " fill="none" id="Company-Administrator" style="stroke:#A80036;stroke-width:1.0;"/><text fill="#000000" font-family="sans-serif" font-size="13" lengthAdjust="spacing" textLength="39" x="350.5" y="246.0669">knows</text><text fill="#000000" font-family="sans-serif" font-size="13" lengthAdjust="spacing" textLength="8" x="211.0911" y="45.997">1</text><text fill="#000000" font-family="sans-serif" font-size="13" lengthAdjust="spacing" textLength="7" x="291.3514" y="423.9695">*</text><!--MD5=[f0553939d664499c8c3e148c02d4348e]
link VaccineType to Administrator--><path codeLine="26" d="M188.59,358.04 C208.42,383.11 233.55,414.88 249.33,434.83 " fill="none" id="VaccineType-Administrator" style="stroke:#A80036;stroke-width:1.0;"/><polygon fill="#000000" points="225.3981,392.6449,228.7045,401.5622,233.3145,397.9157,225.3981,392.6449" style="stroke:#000000;stroke-width:1.0;"/><text fill="#000000" font-family="sans-serif" font-size="13" lengthAdjust="spacing" textLength="69" x="237.5" y="401.0669">created-by</text><text fill="#000000" font-family="sans-serif" font-size="13" lengthAdjust="spacing" textLength="8" x="185.2373" y="378.3718">1</text><text fill="#000000" font-family="sans-serif" font-size="13" lengthAdjust="spacing" textLength="7" x="236.8457" y="423.7883">*</text><!--MD5=[9c1ea619a25b942c2222d19ef79bd994]
@startuml
hide methods
skinparam classAttributeIconSize 0

class Company {
  - designation
}

class Vaccine {
  - name
  - brand
}

class VaccineType {
  - code
  - designation
  - whoid
}

class Administrator {}

Company "1" - - "*" Vaccine : applies >
Vaccine "*" - - "1" VaccineType : has 

Company "1" - - "*" VaccineType : promotes administration
Company "1" - - "*" Administrator : knows 
VaccineType "1" - - "*" Administrator : created-by <

@enduml

PlantUML version 1.2022.0(Tue Jan 11 16:16:42 WET 2022)
(GPL source distribution)
Java Runtime: Java(TM) SE Runtime Environment
JVM: Java HotSpot(TM) 64-Bit Server VM
Default Encoding: UTF-8
Language: en
Country: US
--></g></svg>