<?xml version="1.0" encoding="UTF-8" standalone="no"?><svg xmlns="http://www.w3.org/2000/svg" xmlns:xlink="http://www.w3.org/1999/xlink" contentScriptType="application/ecmascript" contentStyleType="text/css" height="935px" preserveAspectRatio="none" style="width:1123px;height:935px;background:#FFFFFF;" version="1.1" viewBox="0 0 1123 935" width="1123px" zoomAndPan="magnify"><defs><filter height="300%" id="fwu10ebkjwddt" width="300%" x="-1" y="-1"><feGaussianBlur result="blurOut" stdDeviation="2.0"/><feColorMatrix in="blurOut" result="blurOut2" type="matrix" values="0 0 0 0 0 0 0 0 0 0 0 0 0 0 0 0 0 0 .4 0"/><feOffset dx="4.0" dy="4.0" in="blurOut2" result="blurOut3"/><feBlend in="SourceGraphic" in2="blurOut3" mode="normal"/></filter></defs><g><!--MD5=[8ae808d068a8995f06b9b3ec51357f0b]
class AuthFacade--><rect codeLine="3" fill="#FEFECE" filter="url(#fwu10ebkjwddt)" height="103.3438" id="AuthFacade" style="stroke:#A80036;stroke-width:1.5;" width="225" x="7" y="633"/><ellipse cx="82.75" cy="649" fill="#ADD1B2" rx="11" ry="11" style="stroke:#A80036;stroke-width:1.0;"/><path d="M85.5156,644.875 Q85.6719,644.6563 85.8594,644.5469 Q86.0469,644.4375 86.2656,644.4375 Q86.6406,644.4375 86.875,644.7031 Q87.1094,644.9531 87.1094,645.5625 L87.1094,647.0156 Q87.1094,647.625 86.875,647.8906 Q86.6406,648.1563 86.2656,648.1563 Q85.9219,648.1563 85.7188,647.9531 Q85.5156,647.7656 85.4063,647.25 Q85.3594,646.8906 85.1719,646.7031 Q84.8438,646.3281 84.2344,646.1094 Q83.625,645.8906 83,645.8906 Q82.2344,645.8906 81.5938,646.2188 Q80.9688,646.5469 80.4688,647.2969 Q79.9844,648.0469 79.9844,649.0781 L79.9844,650.1719 Q79.9844,651.4063 80.875,652.2344 Q81.7656,653.0469 83.3594,653.0469 Q84.2969,653.0469 84.9531,652.7969 Q85.3438,652.6406 85.7656,652.2031 Q86.0313,651.9375 86.1719,651.8594 Q86.3281,651.7813 86.5313,651.7813 Q86.8594,651.7813 87.1094,652.0469 Q87.375,652.2969 87.375,652.6406 Q87.375,652.9844 87.0313,653.3906 Q86.5313,653.9688 85.7344,654.2969 Q84.6563,654.75 83.3594,654.75 Q81.8438,654.75 80.6406,654.125 Q79.6563,653.625 78.9688,652.5625 Q78.2813,651.4844 78.2813,650.2031 L78.2813,649.0469 Q78.2813,647.7188 78.8906,646.5781 Q79.5156,645.4219 80.6094,644.8125 Q81.7031,644.1875 82.9375,644.1875 Q83.6719,644.1875 84.3125,644.3594 Q84.9688,644.5156 85.5156,644.875 Z " fill="#000000"/><text fill="#000000" font-family="sans-serif" font-size="12" lengthAdjust="spacing" textLength="65" x="103.25" y="653.9102">AuthFacade</text><line style="stroke:#A80036;stroke-width:1.5;" x1="8" x2="231" y1="665" y2="665"/><line style="stroke:#A80036;stroke-width:1.5;" x1="8" x2="231" y1="673" y2="673"/><text fill="#000000" font-family="sans-serif" font-size="11" lengthAdjust="spacing" textLength="90" x="13" y="688.4189">+existsUser(email)</text><text fill="#000000" font-family="sans-serif" font-size="11" lengthAdjust="spacing" textLength="213" x="13" y="702.2549">+addUserWithRole(name, email, pwd, roleId)</text><text fill="#000000" font-family="sans-serif" font-size="11" lengthAdjust="spacing" textLength="76" x="13" y="716.0908">+getUser(email)</text><text fill="#000000" font-family="sans-serif" font-size="11" lengthAdjust="spacing" textLength="58" x="13" y="729.9268">+getUsers()</text><!--MD5=[02e4b9b7573f1156f41e60aa5b4e25a4]
class Company--><rect codeLine="10" fill="#FEFECE" filter="url(#fwu10ebkjwddt)" height="117.1797" id="Company" style="stroke:#A80036;stroke-width:1.5;" width="316" x="285.5" y="253"/><ellipse cx="412.75" cy="269" fill="#ADD1B2" rx="11" ry="11" style="stroke:#A80036;stroke-width:1.0;"/><path d="M415.5156,264.875 Q415.6719,264.6563 415.8594,264.5469 Q416.0469,264.4375 416.2656,264.4375 Q416.6406,264.4375 416.875,264.7031 Q417.1094,264.9531 417.1094,265.5625 L417.1094,267.0156 Q417.1094,267.625 416.875,267.8906 Q416.6406,268.1563 416.2656,268.1563 Q415.9219,268.1563 415.7188,267.9531 Q415.5156,267.7656 415.4063,267.25 Q415.3594,266.8906 415.1719,266.7031 Q414.8438,266.3281 414.2344,266.1094 Q413.625,265.8906 413,265.8906 Q412.2344,265.8906 411.5938,266.2188 Q410.9688,266.5469 410.4688,267.2969 Q409.9844,268.0469 409.9844,269.0781 L409.9844,270.1719 Q409.9844,271.4063 410.875,272.2344 Q411.7656,273.0469 413.3594,273.0469 Q414.2969,273.0469 414.9531,272.7969 Q415.3438,272.6406 415.7656,272.2031 Q416.0313,271.9375 416.1719,271.8594 Q416.3281,271.7813 416.5313,271.7813 Q416.8594,271.7813 417.1094,272.0469 Q417.375,272.2969 417.375,272.6406 Q417.375,272.9844 417.0313,273.3906 Q416.5313,273.9688 415.7344,274.2969 Q414.6563,274.75 413.3594,274.75 Q411.8438,274.75 410.6406,274.125 Q409.6563,273.625 408.9688,272.5625 Q408.2813,271.4844 408.2813,270.2031 L408.2813,269.0469 Q408.2813,267.7188 408.8906,266.5781 Q409.5156,265.4219 410.6094,264.8125 Q411.7031,264.1875 412.9375,264.1875 Q413.6719,264.1875 414.3125,264.3594 Q414.9688,264.5156 415.5156,264.875 Z " fill="#000000"/><text fill="#000000" font-family="sans-serif" font-size="12" lengthAdjust="spacing" textLength="53" x="433.25" y="273.9102">Company</text><line style="stroke:#A80036;stroke-width:1.5;" x1="286.5" x2="600.5" y1="285" y2="285"/><text fill="#000000" font-family="sans-serif" font-size="11" lengthAdjust="spacing" textLength="90" x="291.5" y="300.4189">-String designation</text><line style="stroke:#A80036;stroke-width:1.5;" x1="286.5" x2="600.5" y1="306.8359" y2="306.8359"/><text fill="#000000" font-family="sans-serif" font-size="11" lengthAdjust="spacing" textLength="88" x="291.5" y="322.2549">+getAuthFacade()</text><text fill="#000000" font-family="sans-serif" font-size="11" lengthAdjust="spacing" textLength="85" x="291.5" y="336.0908">+getDesignation()</text><text fill="#000000" font-family="sans-serif" font-size="11" lengthAdjust="spacing" textLength="304" x="291.5" y="349.9268">+createUser(snsNumber, name, email, birthDay, phoneNumber)</text><text fill="#000000" font-family="sans-serif" font-size="11" lengthAdjust="spacing" textLength="96" x="291.5" y="363.7627">+validateUser(user)</text><!--MD5=[be89e96fded54ba83d4eaa5710b97d82]
class RegisterSNSUserController--><rect codeLine="18" fill="#FEFECE" filter="url(#fwu10ebkjwddt)" height="75.6719" id="RegisterSNSUserController" style="stroke:#A80036;stroke-width:1.5;" width="377" x="255" y="116"/><ellipse cx="362.75" cy="132" fill="#ADD1B2" rx="11" ry="11" style="stroke:#A80036;stroke-width:1.0;"/><path d="M365.5156,127.875 Q365.6719,127.6563 365.8594,127.5469 Q366.0469,127.4375 366.2656,127.4375 Q366.6406,127.4375 366.875,127.7031 Q367.1094,127.9531 367.1094,128.5625 L367.1094,130.0156 Q367.1094,130.625 366.875,130.8906 Q366.6406,131.1563 366.2656,131.1563 Q365.9219,131.1563 365.7188,130.9531 Q365.5156,130.7656 365.4063,130.25 Q365.3594,129.8906 365.1719,129.7031 Q364.8438,129.3281 364.2344,129.1094 Q363.625,128.8906 363,128.8906 Q362.2344,128.8906 361.5938,129.2188 Q360.9688,129.5469 360.4688,130.2969 Q359.9844,131.0469 359.9844,132.0781 L359.9844,133.1719 Q359.9844,134.4063 360.875,135.2344 Q361.7656,136.0469 363.3594,136.0469 Q364.2969,136.0469 364.9531,135.7969 Q365.3438,135.6406 365.7656,135.2031 Q366.0313,134.9375 366.1719,134.8594 Q366.3281,134.7813 366.5313,134.7813 Q366.8594,134.7813 367.1094,135.0469 Q367.375,135.2969 367.375,135.6406 Q367.375,135.9844 367.0313,136.3906 Q366.5313,136.9688 365.7344,137.2969 Q364.6563,137.75 363.3594,137.75 Q361.8438,137.75 360.6406,137.125 Q359.6563,136.625 358.9688,135.5625 Q358.2813,134.4844 358.2813,133.2031 L358.2813,132.0469 Q358.2813,130.7188 358.8906,129.5781 Q359.5156,128.4219 360.6094,127.8125 Q361.7031,127.1875 362.9375,127.1875 Q363.6719,127.1875 364.3125,127.3594 Q364.9688,127.5156 365.5156,127.875 Z " fill="#000000"/><text fill="#000000" font-family="sans-serif" font-size="12" lengthAdjust="spacing" textLength="153" x="383.25" y="136.9102">RegisterSNSUserController</text><line style="stroke:#A80036;stroke-width:1.5;" x1="256" x2="631" y1="148" y2="148"/><line style="stroke:#A80036;stroke-width:1.5;" x1="256" x2="631" y1="156" y2="156"/><text fill="#000000" font-family="sans-serif" font-size="11" lengthAdjust="spacing" textLength="365" x="261" y="171.4189">+createSNSUser(snsNumber, name, birthDay, gender, phoneNumber, email)</text><text fill="#000000" font-family="sans-serif" font-size="11" lengthAdjust="spacing" textLength="104" x="261" y="185.2549">+saveSNSUser(user)</text><!--MD5=[e51f1aa3cba897edd46f2fedbd5a5cd6]
class RegisterSNSUserUI--><rect codeLine="23" fill="#FEFECE" filter="url(#fwu10ebkjwddt)" height="48" id="RegisterSNSUserUI" style="stroke:#A80036;stroke-width:1.5;" width="143" x="372" y="7"/><ellipse cx="387" cy="23" fill="#ADD1B2" rx="11" ry="11" style="stroke:#A80036;stroke-width:1.0;"/><path d="M389.7656,18.875 Q389.9219,18.6563 390.1094,18.5469 Q390.2969,18.4375 390.5156,18.4375 Q390.8906,18.4375 391.125,18.7031 Q391.3594,18.9531 391.3594,19.5625 L391.3594,21.0156 Q391.3594,21.625 391.125,21.8906 Q390.8906,22.1563 390.5156,22.1563 Q390.1719,22.1563 389.9688,21.9531 Q389.7656,21.7656 389.6563,21.25 Q389.6094,20.8906 389.4219,20.7031 Q389.0938,20.3281 388.4844,20.1094 Q387.875,19.8906 387.25,19.8906 Q386.4844,19.8906 385.8438,20.2188 Q385.2188,20.5469 384.7188,21.2969 Q384.2344,22.0469 384.2344,23.0781 L384.2344,24.1719 Q384.2344,25.4063 385.125,26.2344 Q386.0156,27.0469 387.6094,27.0469 Q388.5469,27.0469 389.2031,26.7969 Q389.5938,26.6406 390.0156,26.2031 Q390.2813,25.9375 390.4219,25.8594 Q390.5781,25.7813 390.7813,25.7813 Q391.1094,25.7813 391.3594,26.0469 Q391.625,26.2969 391.625,26.6406 Q391.625,26.9844 391.2813,27.3906 Q390.7813,27.9688 389.9844,28.2969 Q388.9063,28.75 387.6094,28.75 Q386.0938,28.75 384.8906,28.125 Q383.9063,27.625 383.2188,26.5625 Q382.5313,25.4844 382.5313,24.2031 L382.5313,23.0469 Q382.5313,21.7188 383.1406,20.5781 Q383.7656,19.4219 384.8594,18.8125 Q385.9531,18.1875 387.1875,18.1875 Q387.9219,18.1875 388.5625,18.3594 Q389.2188,18.5156 389.7656,18.875 Z " fill="#000000"/><text fill="#000000" font-family="sans-serif" font-size="12" lengthAdjust="spacing" textLength="111" x="401" y="27.9102">RegisterSNSUserUI</text><line style="stroke:#A80036;stroke-width:1.5;" x1="373" x2="514" y1="39" y2="39"/><line style="stroke:#A80036;stroke-width:1.5;" x1="373" x2="514" y1="47" y2="47"/><!--MD5=[72be06cc7ae02ccc98efe28a50e62246]
class SNSUser--><rect codeLine="25" fill="#FEFECE" filter="url(#fwu10ebkjwddt)" height="144.8516" id="SNSUser" style="stroke:#A80036;stroke-width:1.5;" width="452" x="657.5" y="612"/><ellipse cx="853.25" cy="628" fill="#ADD1B2" rx="11" ry="11" style="stroke:#A80036;stroke-width:1.0;"/><path d="M856.0156,623.875 Q856.1719,623.6563 856.3594,623.5469 Q856.5469,623.4375 856.7656,623.4375 Q857.1406,623.4375 857.375,623.7031 Q857.6094,623.9531 857.6094,624.5625 L857.6094,626.0156 Q857.6094,626.625 857.375,626.8906 Q857.1406,627.1563 856.7656,627.1563 Q856.4219,627.1563 856.2188,626.9531 Q856.0156,626.7656 855.9063,626.25 Q855.8594,625.8906 855.6719,625.7031 Q855.3438,625.3281 854.7344,625.1094 Q854.125,624.8906 853.5,624.8906 Q852.7344,624.8906 852.0938,625.2188 Q851.4688,625.5469 850.9688,626.2969 Q850.4844,627.0469 850.4844,628.0781 L850.4844,629.1719 Q850.4844,630.4063 851.375,631.2344 Q852.2656,632.0469 853.8594,632.0469 Q854.7969,632.0469 855.4531,631.7969 Q855.8438,631.6406 856.2656,631.2031 Q856.5313,630.9375 856.6719,630.8594 Q856.8281,630.7813 857.0313,630.7813 Q857.3594,630.7813 857.6094,631.0469 Q857.875,631.2969 857.875,631.6406 Q857.875,631.9844 857.5313,632.3906 Q857.0313,632.9688 856.2344,633.2969 Q855.1563,633.75 853.8594,633.75 Q852.3438,633.75 851.1406,633.125 Q850.1563,632.625 849.4688,631.5625 Q848.7813,630.4844 848.7813,629.2031 L848.7813,628.0469 Q848.7813,626.7188 849.3906,625.5781 Q850.0156,624.4219 851.1094,623.8125 Q852.2031,623.1875 853.4375,623.1875 Q854.1719,623.1875 854.8125,623.3594 Q855.4688,623.5156 856.0156,623.875 Z " fill="#000000"/><text fill="#000000" font-family="sans-serif" font-size="12" lengthAdjust="spacing" textLength="52" x="873.75" y="632.9102">SNSUser</text><line style="stroke:#A80036;stroke-width:1.5;" x1="658.5" x2="1108.5" y1="644" y2="644"/><text fill="#000000" font-family="sans-serif" font-size="11" lengthAdjust="spacing" textLength="89" x="663.5" y="659.4189">-String citizenCard</text><text fill="#000000" font-family="sans-serif" font-size="11" lengthAdjust="spacing" textLength="90" x="663.5" y="673.2549">-String snsNumber</text><text fill="#000000" font-family="sans-serif" font-size="11" lengthAdjust="spacing" textLength="69" x="663.5" y="687.0908">-Date birthDay</text><text fill="#000000" font-family="sans-serif" font-size="11" lengthAdjust="spacing" textLength="64" x="663.5" y="700.9268">-Char gender</text><text fill="#000000" font-family="sans-serif" font-size="11" lengthAdjust="spacing" textLength="102" x="663.5" y="714.7627">-String phoneNumber</text><text fill="#000000" font-family="sans-serif" font-size="11" lengthAdjust="spacing" textLength="75" x="663.5" y="728.5986">-String address</text><line style="stroke:#A80036;stroke-width:1.5;" x1="658.5" x2="1108.5" y1="735.0156" y2="735.0156"/><text fill="#000000" font-family="sans-serif" font-size="11" lengthAdjust="spacing" textLength="440" x="663.5" y="750.4346">+SNSUser(citizenCard, snsNumber, name, birthDay, gender, phoneNumber, email, address)</text><!--MD5=[3fd616f346a44cd59a91eb10b19e157c]
class User--><rect codeLine="35" fill="#FEFECE" filter="url(#fwu10ebkjwddt)" height="103.3438" id="User" style="stroke:#A80036;stroke-width:1.5;" width="73" x="847" y="818"/><ellipse cx="868.3" cy="834" fill="#ADD1B2" rx="11" ry="11" style="stroke:#A80036;stroke-width:1.0;"/><path d="M871.0656,829.875 Q871.2219,829.6563 871.4094,829.5469 Q871.5969,829.4375 871.8156,829.4375 Q872.1906,829.4375 872.425,829.7031 Q872.6594,829.9531 872.6594,830.5625 L872.6594,832.0156 Q872.6594,832.625 872.425,832.8906 Q872.1906,833.1563 871.8156,833.1563 Q871.4719,833.1563 871.2688,832.9531 Q871.0656,832.7656 870.9563,832.25 Q870.9094,831.8906 870.7219,831.7031 Q870.3938,831.3281 869.7844,831.1094 Q869.175,830.8906 868.55,830.8906 Q867.7844,830.8906 867.1438,831.2188 Q866.5188,831.5469 866.0188,832.2969 Q865.5344,833.0469 865.5344,834.0781 L865.5344,835.1719 Q865.5344,836.4063 866.425,837.2344 Q867.3156,838.0469 868.9094,838.0469 Q869.8469,838.0469 870.5031,837.7969 Q870.8938,837.6406 871.3156,837.2031 Q871.5813,836.9375 871.7219,836.8594 Q871.8781,836.7813 872.0813,836.7813 Q872.4094,836.7813 872.6594,837.0469 Q872.925,837.2969 872.925,837.6406 Q872.925,837.9844 872.5813,838.3906 Q872.0813,838.9688 871.2844,839.2969 Q870.2063,839.75 868.9094,839.75 Q867.3938,839.75 866.1906,839.125 Q865.2063,838.625 864.5188,837.5625 Q863.8313,836.4844 863.8313,835.2031 L863.8313,834.0469 Q863.8313,832.7188 864.4406,831.5781 Q865.0656,830.4219 866.1594,829.8125 Q867.2531,829.1875 868.4875,829.1875 Q869.2219,829.1875 869.8625,829.3594 Q870.5188,829.5156 871.0656,829.875 Z " fill="#000000"/><text fill="#000000" font-family="sans-serif" font-size="12" lengthAdjust="spacing" textLength="27" x="883.7" y="838.9102">User</text><line style="stroke:#A80036;stroke-width:1.5;" x1="848" x2="919" y1="850" y2="850"/><text fill="#000000" font-family="sans-serif" font-size="11" lengthAdjust="spacing" textLength="61" x="853" y="865.4189">-String name</text><text fill="#000000" font-family="sans-serif" font-size="11" lengthAdjust="spacing" textLength="59" x="853" y="879.2549">-String email</text><text fill="#000000" font-family="sans-serif" font-size="11" lengthAdjust="spacing" textLength="57" x="853" y="893.0908">-String pwd</text><text fill="#000000" font-family="sans-serif" font-size="11" lengthAdjust="spacing" textLength="61" x="853" y="906.9268">-String roleId</text><line style="stroke:#A80036;stroke-width:1.5;" x1="848" x2="919" y1="913.3438" y2="913.3438"/><!--MD5=[a5ad3856b0c65e07b10297b4477b22bb]
class SNSUserStore--><rect codeLine="42" fill="#FEFECE" filter="url(#fwu10ebkjwddt)" height="103.3438" id="SNSUserStore" style="stroke:#A80036;stroke-width:1.5;" width="196" x="345.5" y="431"/><ellipse cx="398.75" cy="447" fill="#ADD1B2" rx="11" ry="11" style="stroke:#A80036;stroke-width:1.0;"/><path d="M401.5156,442.875 Q401.6719,442.6563 401.8594,442.5469 Q402.0469,442.4375 402.2656,442.4375 Q402.6406,442.4375 402.875,442.7031 Q403.1094,442.9531 403.1094,443.5625 L403.1094,445.0156 Q403.1094,445.625 402.875,445.8906 Q402.6406,446.1563 402.2656,446.1563 Q401.9219,446.1563 401.7188,445.9531 Q401.5156,445.7656 401.4063,445.25 Q401.3594,444.8906 401.1719,444.7031 Q400.8438,444.3281 400.2344,444.1094 Q399.625,443.8906 399,443.8906 Q398.2344,443.8906 397.5938,444.2188 Q396.9688,444.5469 396.4688,445.2969 Q395.9844,446.0469 395.9844,447.0781 L395.9844,448.1719 Q395.9844,449.4063 396.875,450.2344 Q397.7656,451.0469 399.3594,451.0469 Q400.2969,451.0469 400.9531,450.7969 Q401.3438,450.6406 401.7656,450.2031 Q402.0313,449.9375 402.1719,449.8594 Q402.3281,449.7813 402.5313,449.7813 Q402.8594,449.7813 403.1094,450.0469 Q403.375,450.2969 403.375,450.6406 Q403.375,450.9844 403.0313,451.3906 Q402.5313,451.9688 401.7344,452.2969 Q400.6563,452.75 399.3594,452.75 Q397.8438,452.75 396.6406,452.125 Q395.6563,451.625 394.9688,450.5625 Q394.2813,449.4844 394.2813,448.2031 L394.2813,447.0469 Q394.2813,445.7188 394.8906,444.5781 Q395.5156,443.4219 396.6094,442.8125 Q397.7031,442.1875 398.9375,442.1875 Q399.6719,442.1875 400.3125,442.3594 Q400.9688,442.5156 401.5156,442.875 Z " fill="#000000"/><text fill="#000000" font-family="sans-serif" font-size="12" lengthAdjust="spacing" textLength="81" x="419.25" y="451.9102">SNSUserStore</text><line style="stroke:#A80036;stroke-width:1.5;" x1="346.5" x2="540.5" y1="463" y2="463"/><line style="stroke:#A80036;stroke-width:1.5;" x1="346.5" x2="540.5" y1="471" y2="471"/><text fill="#000000" font-family="sans-serif" font-size="11" lengthAdjust="spacing" textLength="184" x="351.5" y="486.4189">+createUser(name, email, pwd, roleId)</text><text fill="#000000" font-family="sans-serif" font-size="11" lengthAdjust="spacing" textLength="96" x="351.5" y="500.2549">+validateUser(user)</text><text fill="#000000" font-family="sans-serif" font-size="11" lengthAdjust="spacing" textLength="83" x="351.5" y="514.0908">+saveUser(user)</text><text fill="#000000" font-family="sans-serif" font-size="11" lengthAdjust="spacing" textLength="115" x="351.5" y="527.9268">+checkDuplicates(user)</text><!--MD5=[9a2889027d1a5f59ee05c53124f224f8]
class PasswordGenerator--><rect codeLine="49" fill="#FEFECE" filter="url(#fwu10ebkjwddt)" height="61.8359" id="PasswordGenerator" style="stroke:#A80036;stroke-width:1.5;" width="143" x="479" y="653.5"/><ellipse cx="494" cy="669.5" fill="#ADD1B2" rx="11" ry="11" style="stroke:#A80036;stroke-width:1.0;"/><path d="M496.7656,665.375 Q496.9219,665.1563 497.1094,665.0469 Q497.2969,664.9375 497.5156,664.9375 Q497.8906,664.9375 498.125,665.2031 Q498.3594,665.4531 498.3594,666.0625 L498.3594,667.5156 Q498.3594,668.125 498.125,668.3906 Q497.8906,668.6563 497.5156,668.6563 Q497.1719,668.6563 496.9688,668.4531 Q496.7656,668.2656 496.6563,667.75 Q496.6094,667.3906 496.4219,667.2031 Q496.0938,666.8281 495.4844,666.6094 Q494.875,666.3906 494.25,666.3906 Q493.4844,666.3906 492.8438,666.7188 Q492.2188,667.0469 491.7188,667.7969 Q491.2344,668.5469 491.2344,669.5781 L491.2344,670.6719 Q491.2344,671.9063 492.125,672.7344 Q493.0156,673.5469 494.6094,673.5469 Q495.5469,673.5469 496.2031,673.2969 Q496.5938,673.1406 497.0156,672.7031 Q497.2813,672.4375 497.4219,672.3594 Q497.5781,672.2813 497.7813,672.2813 Q498.1094,672.2813 498.3594,672.5469 Q498.625,672.7969 498.625,673.1406 Q498.625,673.4844 498.2813,673.8906 Q497.7813,674.4688 496.9844,674.7969 Q495.9063,675.25 494.6094,675.25 Q493.0938,675.25 491.8906,674.625 Q490.9063,674.125 490.2188,673.0625 Q489.5313,671.9844 489.5313,670.7031 L489.5313,669.5469 Q489.5313,668.2188 490.1406,667.0781 Q490.7656,665.9219 491.8594,665.3125 Q492.9531,664.6875 494.1875,664.6875 Q494.9219,664.6875 495.5625,664.8594 Q496.2188,665.0156 496.7656,665.375 Z " fill="#000000"/><text fill="#000000" font-family="sans-serif" font-size="12" lengthAdjust="spacing" textLength="111" x="508" y="674.4102">PasswordGenerator</text><line style="stroke:#A80036;stroke-width:1.5;" x1="480" x2="621" y1="685.5" y2="685.5"/><line style="stroke:#A80036;stroke-width:1.5;" x1="480" x2="621" y1="693.5" y2="693.5"/><text fill="#000000" font-family="sans-serif" font-size="11" lengthAdjust="spacing" textLength="107" x="485" y="708.9189">+generatePassword()</text><!--MD5=[dbd744789a27dfb7a38205596e031569]
class EmailSender--><rect codeLine="53" fill="#FEFECE" filter="url(#fwu10ebkjwddt)" height="61.8359" id="EmailSender" style="stroke:#A80036;stroke-width:1.5;" width="176" x="267.5" y="653.5"/><ellipse cx="315.25" cy="669.5" fill="#ADD1B2" rx="11" ry="11" style="stroke:#A80036;stroke-width:1.0;"/><path d="M318.0156,665.375 Q318.1719,665.1563 318.3594,665.0469 Q318.5469,664.9375 318.7656,664.9375 Q319.1406,664.9375 319.375,665.2031 Q319.6094,665.4531 319.6094,666.0625 L319.6094,667.5156 Q319.6094,668.125 319.375,668.3906 Q319.1406,668.6563 318.7656,668.6563 Q318.4219,668.6563 318.2188,668.4531 Q318.0156,668.2656 317.9063,667.75 Q317.8594,667.3906 317.6719,667.2031 Q317.3438,666.8281 316.7344,666.6094 Q316.125,666.3906 315.5,666.3906 Q314.7344,666.3906 314.0938,666.7188 Q313.4688,667.0469 312.9688,667.7969 Q312.4844,668.5469 312.4844,669.5781 L312.4844,670.6719 Q312.4844,671.9063 313.375,672.7344 Q314.2656,673.5469 315.8594,673.5469 Q316.7969,673.5469 317.4531,673.2969 Q317.8438,673.1406 318.2656,672.7031 Q318.5313,672.4375 318.6719,672.3594 Q318.8281,672.2813 319.0313,672.2813 Q319.3594,672.2813 319.6094,672.5469 Q319.875,672.7969 319.875,673.1406 Q319.875,673.4844 319.5313,673.8906 Q319.0313,674.4688 318.2344,674.7969 Q317.1563,675.25 315.8594,675.25 Q314.3438,675.25 313.1406,674.625 Q312.1563,674.125 311.4688,673.0625 Q310.7813,671.9844 310.7813,670.7031 L310.7813,669.5469 Q310.7813,668.2188 311.3906,667.0781 Q312.0156,665.9219 313.1094,665.3125 Q314.2031,664.6875 315.4375,664.6875 Q316.1719,664.6875 316.8125,664.8594 Q317.4688,665.0156 318.0156,665.375 Z " fill="#000000"/><text fill="#000000" font-family="sans-serif" font-size="12" lengthAdjust="spacing" textLength="72" x="335.75" y="674.4102">EmailSender</text><line style="stroke:#A80036;stroke-width:1.5;" x1="268.5" x2="442.5" y1="685.5" y2="685.5"/><line style="stroke:#A80036;stroke-width:1.5;" x1="268.5" x2="442.5" y1="693.5" y2="693.5"/><text fill="#000000" font-family="sans-serif" font-size="11" lengthAdjust="spacing" textLength="164" x="273.5" y="708.9189">+sendPasswordEmail(email, pwd)</text><!--MD5=[1bd9080c7e199931e49bc5a1616681ac]
link Company to SNSUserStore--><path codeLine="58" d="M443.5,370.19 C443.5,388.04 443.5,407.67 443.5,425.41 " fill="none" id="Company-to-SNSUserStore" style="stroke:#A80036;stroke-width:1.0;stroke-dasharray:7.0,7.0;"/><polygon fill="#A80036" points="443.5,430.85,447.5,421.85,443.5,425.85,439.5,421.85,443.5,430.85" style="stroke:#A80036;stroke-width:1.0;"/><!--MD5=[717d4b03d3c4372f4eafe5e342a0a7dd]
link Company to AuthFacade--><path codeLine="59" d="M385.25,370.01 C366.46,389.09 345.78,410.65 327.5,431 C268.13,497.09 203.65,576.69 162.48,628.61 " fill="none" id="Company-to-AuthFacade" style="stroke:#A80036;stroke-width:1.0;stroke-dasharray:7.0,7.0;"/><polygon fill="#A80036" points="159.31,632.61,168.0252,628.0226,162.4073,628.6849,161.745,623.0669,159.31,632.61" style="stroke:#A80036;stroke-width:1.0;"/><!--MD5=[1a8aa2b864b87f860d28abceaa28b7a5]
link Company to SNSUser--><path codeLine="60" d="M511.77,370.06 C587.8,434.17 710.98,538.04 794.52,608.47 " fill="none" id="Company-to-SNSUser" style="stroke:#A80036;stroke-width:1.0;"/><polygon fill="#A80036" points="798.47,611.8,794.1491,602.9496,794.6406,608.585,789.0052,609.0766,798.47,611.8" style="stroke:#A80036;stroke-width:1.0;"/><text fill="#000000" font-family="sans-serif" font-size="13" lengthAdjust="spacing" textLength="37" x="704.5" y="487.9951">knows</text><text fill="#000000" font-family="sans-serif" font-size="13" lengthAdjust="spacing" textLength="7" x="512.6638" y="391.6776">1</text><text fill="#000000" font-family="sans-serif" font-size="13" lengthAdjust="spacing" textLength="5" x="784.4435" y="600.9987">*</text><!--MD5=[438f3eafa26f7112fe5a933ad6336f95]
link RegisterSNSUserController to Company--><path codeLine="62" d="M443.5,192.25 C443.5,208.84 443.5,228.84 443.5,247.64 " fill="none" id="RegisterSNSUserController-to-Company" style="stroke:#A80036;stroke-width:1.0;stroke-dasharray:7.0,7.0;"/><polygon fill="#A80036" points="443.5,252.9,447.5,243.9,443.5,247.9,439.5,243.9,443.5,252.9" style="stroke:#A80036;stroke-width:1.0;"/><!--MD5=[7bf6f1c174ef2382ab748189587a16d6]
link RegisterSNSUserUI to RegisterSNSUserController--><path codeLine="64" d="M443.5,55.04 C443.5,70.71 443.5,91.91 443.5,110.58 " fill="none" id="RegisterSNSUserUI-to-RegisterSNSUserController" style="stroke:#A80036;stroke-width:1.0;stroke-dasharray:7.0,7.0;"/><polygon fill="#A80036" points="443.5,115.77,447.5,106.77,443.5,110.77,439.5,106.77,443.5,115.77" style="stroke:#A80036;stroke-width:1.0;"/><!--MD5=[f51b69263ffc056cc84c9ec54d5aea1b]
link SNSUser to User--><path codeLine="67" d="M883.5,757.04 C883.5,775.48 883.5,795.06 883.5,812.58 " fill="none" id="SNSUser-to-User" style="stroke:#A80036;stroke-width:1.0;stroke-dasharray:7.0,7.0;"/><polygon fill="#A80036" points="883.5,817.95,887.5,808.95,883.5,812.95,879.5,808.95,883.5,817.95" style="stroke:#A80036;stroke-width:1.0;"/><!--MD5=[bc3349464b4fa8eddccb337858e655b4]
link SNSUserStore to AuthFacade--><path codeLine="69" d="M361.32,534.23 C313.82,563.55 254.12,600.4 205.92,630.15 " fill="none" id="SNSUserStore-to-AuthFacade" style="stroke:#A80036;stroke-width:1.0;"/><polygon fill="#A80036" points="201.59,632.83,211.3525,631.5289,205.8507,630.2135,207.1661,624.7117,201.59,632.83" style="stroke:#A80036;stroke-width:1.0;"/><text fill="#000000" font-family="sans-serif" font-size="13" lengthAdjust="spacing" textLength="28" x="312.5" y="578.4951">uses</text><!--MD5=[b6e2ea40e00707054540f9b1c5529f61]
link SNSUserStore to PasswordGenerator--><path codeLine="70" d="M470.64,534.23 C489.82,570.08 515.02,617.19 531.94,648.81 " fill="none" id="SNSUserStore-to-PasswordGenerator" style="stroke:#A80036;stroke-width:1.0;"/><polygon fill="#A80036" points="534.37,653.36,533.6592,643.5368,532.0148,648.9494,526.6022,647.3051,534.37,653.36" style="stroke:#A80036;stroke-width:1.0;"/><text fill="#000000" font-family="sans-serif" font-size="13" lengthAdjust="spacing" textLength="28" x="494.5" y="578.4951">uses</text><!--MD5=[960de6b44c73ba19b3fff307658cbb8f]
link SNSUserStore to EmailSender--><path codeLine="71" d="M421.18,534.23 C405.47,569.93 384.85,616.8 370.94,648.42 " fill="none" id="SNSUserStore-to-EmailSender" style="stroke:#A80036;stroke-width:1.0;"/><polygon fill="#A80036" points="368.76,653.36,376.0418,646.7286,370.7708,648.7822,368.7172,643.5112,368.76,653.36" style="stroke:#A80036;stroke-width:1.0;"/><text fill="#000000" font-family="sans-serif" font-size="13" lengthAdjust="spacing" textLength="28" x="408.5" y="578.4951">uses</text><!--MD5=[b01d27099955aced792f1ce85db49798]
link SNSUserStore to SNSUser--><path codeLine="72" d="M541.7,528.13 C594.52,552.15 661.03,582.38 721.3,609.77 " fill="none" id="SNSUserStore-to-SNSUser" style="stroke:#A80036;stroke-width:1.0;stroke-dasharray:7.0,7.0;"/><polygon fill="#A80036" points="726,611.91,719.4514,604.5536,721.4452,609.8475,716.1514,611.8412,726,611.91" style="stroke:#A80036;stroke-width:1.0;"/><!--MD5=[80e2cf749630c61bddc6ccbb0f565dfa]
@startuml Class Diagram
skinparam classAttributeIconSize 0

class AuthFacade {
  + existsUser(email)
  + addUserWithRole(name, email, pwd, roleId)
  + getUser(email)
  + getUsers()
}

class Company {
  - String designation
  + getAuthFacade()
  + getDesignation()
  + createUser(snsNumber, name, email, birthDay, phoneNumber)
  + validateUser(user)
}

class RegisterSNSUserController {
  + createSNSUser(snsNumber, name, birthDay, gender, phoneNumber, email)
  + saveSNSUser(user)
}

class RegisterSNSUserUI { }

class SNSUser {
  - String citizenCard
  - String snsNumber
  - Date birthDay
  - Char gender
  - String phoneNumber
  - String address
  + SNSUser(citizenCard, snsNumber, name, birthDay, gender, phoneNumber, email, address)
}

class User {
  - String name
  - String email
  - String pwd
  - String roleId
}

class SNSUserStore {
  + createUser(name, email, pwd, roleId)
  + validateUser(user)
  + saveUser(user)
  + checkDuplicates(user)
}

class PasswordGenerator {
  + generatePassword()
}

class EmailSender {
  + sendPasswordEmail(email, pwd)
}


Company ..> SNSUserStore
Company ..> AuthFacade
Company "1" - -> "*" SNSUser : knows

RegisterSNSUserController ..> Company

RegisterSNSUserUI ..> RegisterSNSUserController

' SNSUser - -|> User
SNSUser ..> User

SNSUserStore - -> AuthFacade : uses
SNSUserStore - -> PasswordGenerator : uses 
SNSUserStore - -> EmailSender : uses
SNSUserStore ..> SNSUser

@enduml

@startuml Class Diagram
skinparam classAttributeIconSize 0

class AuthFacade {
  + existsUser(email)
  + addUserWithRole(name, email, pwd, roleId)
  + getUser(email)
  + getUsers()
}

class Company {
  - String designation
  + getAuthFacade()
  + getDesignation()
  + createUser(snsNumber, name, email, birthDay, phoneNumber)
  + validateUser(user)
}

class RegisterSNSUserController {
  + createSNSUser(snsNumber, name, birthDay, gender, phoneNumber, email)
  + saveSNSUser(user)
}

class RegisterSNSUserUI { }

class SNSUser {
  - String citizenCard
  - String snsNumber
  - Date birthDay
  - Char gender
  - String phoneNumber
  - String address
  + SNSUser(citizenCard, snsNumber, name, birthDay, gender, phoneNumber, email, address)
}

class User {
  - String name
  - String email
  - String pwd
  - String roleId
}

class SNSUserStore {
  + createUser(name, email, pwd, roleId)
  + validateUser(user)
  + saveUser(user)
  + checkDuplicates(user)
}

class PasswordGenerator {
  + generatePassword()
}

class EmailSender {
  + sendPasswordEmail(email, pwd)
}


Company ..> SNSUserStore
Company ..> AuthFacade
Company "1" - -> "*" SNSUser : knows

RegisterSNSUserController ..> Company

RegisterSNSUserUI ..> RegisterSNSUserController

SNSUser ..> User

SNSUserStore - -> AuthFacade : uses
SNSUserStore - -> PasswordGenerator : uses 
SNSUserStore - -> EmailSender : uses
SNSUserStore ..> SNSUser

@enduml

PlantUML version 1.2022.0(Tue Jan 11 16:16:42 WET 2022)
(GPL source distribution)
Java Runtime: Java(TM) SE Runtime Environment
JVM: Java HotSpot(TM) 64-Bit Server VM
Default Encoding: Cp1252
Language: pt
Country: PT
--></g></svg>