<?xml version="1.0" encoding="UTF-8" standalone="no"?><svg xmlns="http://www.w3.org/2000/svg" xmlns:xlink="http://www.w3.org/1999/xlink" contentScriptType="application/ecmascript" contentStyleType="text/css" height="560px" preserveAspectRatio="none" style="width:1039px;height:560px;background:#FFFFFF;" version="1.1" viewBox="0 0 1039 560" width="1039px" zoomAndPan="magnify"><defs><filter height="300%" id="fojzje9hu4wwn" width="300%" x="-1" y="-1"><feGaussianBlur result="blurOut" stdDeviation="2.0"/><feColorMatrix in="blurOut" result="blurOut2" type="matrix" values="0 0 0 0 0 0 0 0 0 0 0 0 0 0 0 0 0 0 .4 0"/><feOffset dx="4.0" dy="4.0" in="blurOut2" result="blurOut3"/><feBlend in="SourceGraphic" in2="blurOut3" mode="normal"/></filter></defs><g><!--MD5=[e45a4727c47b726c25e081782e8bc183]
class ApplicationPOT--><rect codeLine="3" fill="#FEFECE" filter="url(#fojzje9hu4wwn)" height="73.6094" id="ApplicationPOT" style="stroke:#A80036;stroke-width:1.5;" width="136" x="7" y="281"/><ellipse cx="26.95" cy="297" fill="#ADD1B2" rx="11" ry="11" style="stroke:#A80036;stroke-width:1.0;"/><path d="M29.9188,302.6406 Q29.3406,302.9375 28.7,303.0781 Q28.0594,303.2344 27.3563,303.2344 Q24.8563,303.2344 23.5281,301.5938 Q22.2156,299.9375 22.2156,296.8125 Q22.2156,293.6875 23.5281,292.0313 Q24.8563,290.375 27.3563,290.375 Q28.0594,290.375 28.7,290.5313 Q29.3563,290.6875 29.9188,290.9844 L29.9188,293.7031 Q29.2938,293.125 28.7,292.8594 Q28.1063,292.5781 27.4813,292.5781 Q26.1375,292.5781 25.45,293.6563 Q24.7625,294.7188 24.7625,296.8125 Q24.7625,298.9063 25.45,299.9844 Q26.1375,301.0469 27.4813,301.0469 Q28.1063,301.0469 28.7,300.7813 Q29.2938,300.5 29.9188,299.9219 L29.9188,302.6406 Z " fill="#000000"/><text fill="#000000" font-family="sans-serif" font-size="12" lengthAdjust="spacing" textLength="93" x="42.05" y="301.1543">ApplicationPOT</text><line style="stroke:#A80036;stroke-width:1.5;" x1="8" x2="142" y1="313" y2="313"/><line style="stroke:#A80036;stroke-width:1.5;" x1="8" x2="142" y1="321" y2="321"/><text fill="#000000" font-family="sans-serif" font-size="11" lengthAdjust="spacing" textLength="118" x="13" y="335.2104">+static getInstance()</text><text fill="#000000" font-family="sans-serif" font-size="11" lengthAdjust="spacing" textLength="124" x="13" y="348.0151">+getCurrentSession()</text><!--MD5=[02e4b9b7573f1156f41e60aa5b4e25a4]
class Company--><rect codeLine="8" fill="#FEFECE" filter="url(#fojzje9hu4wwn)" height="86.4141" id="Company" style="stroke:#A80036;stroke-width:1.5;" width="385" x="178.5" y="275"/><ellipse cx="338.25" cy="291" fill="#ADD1B2" rx="11" ry="11" style="stroke:#A80036;stroke-width:1.0;"/><path d="M341.2188,296.6406 Q340.6406,296.9375 340,297.0781 Q339.3594,297.2344 338.6563,297.2344 Q336.1563,297.2344 334.8281,295.5938 Q333.5156,293.9375 333.5156,290.8125 Q333.5156,287.6875 334.8281,286.0313 Q336.1563,284.375 338.6563,284.375 Q339.3594,284.375 340,284.5313 Q340.6563,284.6875 341.2188,284.9844 L341.2188,287.7031 Q340.5938,287.125 340,286.8594 Q339.4063,286.5781 338.7813,286.5781 Q337.4375,286.5781 336.75,287.6563 Q336.0625,288.7188 336.0625,290.8125 Q336.0625,292.9063 336.75,293.9844 Q337.4375,295.0469 338.7813,295.0469 Q339.4063,295.0469 340,294.7813 Q340.5938,294.5 341.2188,293.9219 L341.2188,296.6406 Z " fill="#000000"/><text fill="#000000" font-family="sans-serif" font-size="12" lengthAdjust="spacing" textLength="57" x="358.75" y="295.1543">Company</text><line style="stroke:#A80036;stroke-width:1.5;" x1="179.5" x2="562.5" y1="307" y2="307"/><text fill="#000000" font-family="sans-serif" font-size="11" lengthAdjust="spacing" textLength="108" x="184.5" y="321.2104">-String designation</text><line style="stroke:#A80036;stroke-width:1.5;" x1="179.5" x2="562.5" y1="327.8047" y2="327.8047"/><text fill="#000000" font-family="sans-serif" font-size="11" lengthAdjust="spacing" textLength="114" x="184.5" y="342.0151">+validateUser(user)</text><text fill="#000000" font-family="sans-serif" font-size="11" lengthAdjust="spacing" textLength="373" x="184.5" y="354.8198">+createUser(snsNumber, name, email, birthDate, phoneNumber)</text><!--MD5=[be89e96fded54ba83d4eaa5710b97d82]
class RegisterSNSUserController--><rect codeLine="14" fill="#FEFECE" filter="url(#fojzje9hu4wwn)" height="73.6094" id="RegisterSNSUserController" style="stroke:#A80036;stroke-width:1.5;" width="199" x="271.5" y="115"/><ellipse cx="286.5" cy="131" fill="#ADD1B2" rx="11" ry="11" style="stroke:#A80036;stroke-width:1.0;"/><path d="M289.4688,136.6406 Q288.8906,136.9375 288.25,137.0781 Q287.6094,137.2344 286.9063,137.2344 Q284.4063,137.2344 283.0781,135.5938 Q281.7656,133.9375 281.7656,130.8125 Q281.7656,127.6875 283.0781,126.0313 Q284.4063,124.375 286.9063,124.375 Q287.6094,124.375 288.25,124.5313 Q288.9063,124.6875 289.4688,124.9844 L289.4688,127.7031 Q288.8438,127.125 288.25,126.8594 Q287.6563,126.5781 287.0313,126.5781 Q285.6875,126.5781 285,127.6563 Q284.3125,128.7188 284.3125,130.8125 Q284.3125,132.9063 285,133.9844 Q285.6875,135.0469 287.0313,135.0469 Q287.6563,135.0469 288.25,134.7813 Q288.8438,134.5 289.4688,133.9219 L289.4688,136.6406 Z " fill="#000000"/><text fill="#000000" font-family="sans-serif" font-size="12" lengthAdjust="spacing" textLength="167" x="300.5" y="135.1543">RegisterSNSUserController</text><line style="stroke:#A80036;stroke-width:1.5;" x1="272.5" x2="469.5" y1="147" y2="147"/><line style="stroke:#A80036;stroke-width:1.5;" x1="272.5" x2="469.5" y1="155" y2="155"/><text fill="#000000" font-family="sans-serif" font-size="11" lengthAdjust="spacing" textLength="69" x="277.5" y="169.2104">+getUsers()</text><text fill="#000000" font-family="sans-serif" font-size="11" lengthAdjust="spacing" textLength="98" x="277.5" y="182.0151">+getUser(userId)</text><!--MD5=[e51f1aa3cba897edd46f2fedbd5a5cd6]
class RegisterSNSUserUI--><rect codeLine="19" fill="#FEFECE" filter="url(#fojzje9hu4wwn)" height="48" id="RegisterSNSUserUI" style="stroke:#A80036;stroke-width:1.5;" width="150" x="296" y="7"/><ellipse cx="311" cy="23" fill="#ADD1B2" rx="11" ry="11" style="stroke:#A80036;stroke-width:1.0;"/><path d="M313.9688,28.6406 Q313.3906,28.9375 312.75,29.0781 Q312.1094,29.2344 311.4063,29.2344 Q308.9063,29.2344 307.5781,27.5938 Q306.2656,25.9375 306.2656,22.8125 Q306.2656,19.6875 307.5781,18.0313 Q308.9063,16.375 311.4063,16.375 Q312.1094,16.375 312.75,16.5313 Q313.4063,16.6875 313.9688,16.9844 L313.9688,19.7031 Q313.3438,19.125 312.75,18.8594 Q312.1563,18.5781 311.5313,18.5781 Q310.1875,18.5781 309.5,19.6563 Q308.8125,20.7188 308.8125,22.8125 Q308.8125,24.9063 309.5,25.9844 Q310.1875,27.0469 311.5313,27.0469 Q312.1563,27.0469 312.75,26.7813 Q313.3438,26.5 313.9688,25.9219 L313.9688,28.6406 Z " fill="#000000"/><text fill="#000000" font-family="sans-serif" font-size="12" lengthAdjust="spacing" textLength="118" x="325" y="27.1543">RegisterSNSUserUI</text><line style="stroke:#A80036;stroke-width:1.5;" x1="297" x2="445" y1="39" y2="39"/><line style="stroke:#A80036;stroke-width:1.5;" x1="297" x2="445" y1="47" y2="47"/><!--MD5=[72be06cc7ae02ccc98efe28a50e62246]
class SNSUser--><rect codeLine="21" fill="#FEFECE" filter="url(#fojzje9hu4wwn)" height="137.6328" id="SNSUser" style="stroke:#A80036;stroke-width:1.5;" width="427" x="598.5" y="249"/><ellipse cx="780.75" cy="265" fill="#ADD1B2" rx="11" ry="11" style="stroke:#A80036;stroke-width:1.0;"/><path d="M783.7188,270.6406 Q783.1406,270.9375 782.5,271.0781 Q781.8594,271.2344 781.1563,271.2344 Q778.6563,271.2344 777.3281,269.5938 Q776.0156,267.9375 776.0156,264.8125 Q776.0156,261.6875 777.3281,260.0313 Q778.6563,258.375 781.1563,258.375 Q781.8594,258.375 782.5,258.5313 Q783.1563,258.6875 783.7188,258.9844 L783.7188,261.7031 Q783.0938,261.125 782.5,260.8594 Q781.9063,260.5781 781.2813,260.5781 Q779.9375,260.5781 779.25,261.6563 Q778.5625,262.7188 778.5625,264.8125 Q778.5625,266.9063 779.25,267.9844 Q779.9375,269.0469 781.2813,269.0469 Q781.9063,269.0469 782.5,268.7813 Q783.0938,268.5 783.7188,267.9219 L783.7188,270.6406 Z " fill="#000000"/><text fill="#000000" font-family="sans-serif" font-size="12" lengthAdjust="spacing" textLength="54" x="801.25" y="269.1543">SNSUser</text><line style="stroke:#A80036;stroke-width:1.5;" x1="599.5" x2="1024.5" y1="281" y2="281"/><text fill="#000000" font-family="sans-serif" font-size="11" lengthAdjust="spacing" textLength="111" x="604.5" y="295.2104">-String SNSNumber</text><text fill="#000000" font-family="sans-serif" font-size="11" lengthAdjust="spacing" textLength="74" x="604.5" y="308.0151">-String name</text><text fill="#000000" font-family="sans-serif" font-size="11" lengthAdjust="spacing" textLength="86" x="604.5" y="320.8198">-Date birthDate</text><text fill="#000000" font-family="sans-serif" font-size="11" lengthAdjust="spacing" textLength="75" x="604.5" y="333.6245">-Char gender</text><text fill="#000000" font-family="sans-serif" font-size="11" lengthAdjust="spacing" textLength="128" x="604.5" y="346.4292">-Integer phoneNumber</text><text fill="#000000" font-family="sans-serif" font-size="11" lengthAdjust="spacing" textLength="73" x="604.5" y="359.2339">-String email</text><line style="stroke:#A80036;stroke-width:1.5;" x1="599.5" x2="1024.5" y1="365.8281" y2="365.8281"/><text fill="#000000" font-family="sans-serif" font-size="11" lengthAdjust="spacing" textLength="415" x="604.5" y="380.0386">+SNSUser(ref,designation,informalDesc,technicalDesc,duration,cost,cat)</text><!--MD5=[3fd616f346a44cd59a91eb10b19e157c]
class User--><rect codeLine="31" fill="#FEFECE" filter="url(#fojzje9hu4wwn)" height="99.2188" id="User" style="stroke:#A80036;stroke-width:1.5;" width="86" x="769" y="447"/><ellipse cx="795.7" cy="463" fill="#B4A7E5" rx="11" ry="11" style="stroke:#A80036;stroke-width:1.0;"/><path d="M791.6219,458.7656 L791.6219,456.6094 L799.0125,456.6094 L799.0125,458.7656 L796.5438,458.7656 L796.5438,466.8438 L799.0125,466.8438 L799.0125,469 L791.6219,469 L791.6219,466.8438 L794.0906,466.8438 L794.0906,458.7656 L791.6219,458.7656 Z " fill="#000000"/><text fill="#000000" font-family="sans-serif" font-size="12" font-style="italic" lengthAdjust="spacing" textLength="28" x="812.3" y="467.1543">User</text><line style="stroke:#A80036;stroke-width:1.5;" x1="770" x2="854" y1="479" y2="479"/><text fill="#000000" font-family="sans-serif" font-size="11" lengthAdjust="spacing" textLength="74" x="775" y="493.2104">-String name</text><text fill="#000000" font-family="sans-serif" font-size="11" lengthAdjust="spacing" textLength="73" x="775" y="506.0151">-String email</text><text fill="#000000" font-family="sans-serif" font-size="11" lengthAdjust="spacing" textLength="65" x="775" y="518.8198">-String pwd</text><text fill="#000000" font-family="sans-serif" font-size="11" lengthAdjust="spacing" textLength="64" x="775" y="531.6245">-String role</text><line style="stroke:#A80036;stroke-width:1.5;" x1="770" x2="854" y1="538.2188" y2="538.2188"/><!--MD5=[698a69afb6a8d6b66a34374969757bba]
link RegisterSNSUserController to ApplicationPOT--><path codeLine="42" d="M279.67,189.06 C241.88,205.41 198.28,226.2 161,249 C147.29,257.39 133.26,267.64 120.62,277.62 " fill="none" id="RegisterSNSUserController-to-ApplicationPOT" style="stroke:#A80036;stroke-width:1.0;stroke-dasharray:7.0,7.0;"/><polygon fill="#A80036" points="116.39,280.99,125.9233,278.5167,120.3027,277.877,120.9424,272.2564,116.39,280.99" style="stroke:#A80036;stroke-width:1.0;"/><!--MD5=[438f3eafa26f7112fe5a933ad6336f95]
link RegisterSNSUserController to Company--><path codeLine="43" d="M371,189.4 C371,213.11 371,244.27 371,269.87 " fill="none" id="RegisterSNSUserController-to-Company" style="stroke:#A80036;stroke-width:1.0;stroke-dasharray:7.0,7.0;"/><polygon fill="#A80036" points="371,274.91,375,265.91,371,269.91,367,265.91,371,274.91" style="stroke:#A80036;stroke-width:1.0;"/><!--MD5=[b863452b465c122da136545eb0fe4494]
link RegisterSNSUserController to SNSUser--><path codeLine="44" d="M468.05,189.09 C513.96,206.17 570.41,227.16 624.2,247.16 " fill="none" id="RegisterSNSUserController-to-SNSUser" style="stroke:#A80036;stroke-width:1.0;stroke-dasharray:7.0,7.0;"/><polygon fill="#A80036" points="629.06,248.97,622.0191,242.0834,624.3737,247.2269,619.2301,249.5815,629.06,248.97" style="stroke:#A80036;stroke-width:1.0;"/><!--MD5=[7bf6f1c174ef2382ab748189587a16d6]
link RegisterSNSUserUI to RegisterSNSUserController--><path codeLine="47" d="M371,55.23 C371,70.68 371,91.42 371,109.65 " fill="none" id="RegisterSNSUserUI-to-RegisterSNSUserController" style="stroke:#A80036;stroke-width:1.0;stroke-dasharray:7.0,7.0;"/><polygon fill="#A80036" points="371,114.71,375,105.71,371,109.71,367,105.71,371,114.71" style="stroke:#A80036;stroke-width:1.0;"/><!--MD5=[f51b69263ffc056cc84c9ec54d5aea1b]
link SNSUser to User--><path codeLine="49" d="M812,387.24 C812,405.26 812,424.46 812,441.61 " fill="none" id="SNSUser-to-User" style="stroke:#A80036;stroke-width:1.0;stroke-dasharray:7.0,7.0;"/><polygon fill="#A80036" points="812,446.86,816,437.86,812,441.86,808,437.86,812,446.86" style="stroke:#A80036;stroke-width:1.0;"/><!--MD5=[84f460d4f65c8115d2ee4a13a3a1036b]
@startuml Class Diagram
skinparam classAttributeIconSize 0

class ApplicationPOT {
  + static getInstance()
  + getCurrentSession()
}

class Company {
  - String designation
  + validateUser(user)
  + createUser(snsNumber, name, email, birthDate, phoneNumber)
}

class RegisterSNSUserController {
  + getUsers()
  + getUser(userId)
}

class RegisterSNSUserUI { }

class SNSUser {
  - String SNSNumber
  - String name
  - Date birthDate
  - Char gender
  - Integer phoneNumber
  - String email
  + SNSUser(ref,designation,informalDesc,technicalDesc,duration,cost,cat)
}

interface User {
  - String name
  - String email
  - String pwd
  - String role
}

' class UserSession {
'   + getUserEmail()
' }

RegisterSNSUserController ..> ApplicationPOT
RegisterSNSUserController ..> Company
RegisterSNSUserController ..> SNSUser
' RegisterSNSUserController ..> UserSession

RegisterSNSUserUI ..> RegisterSNSUserController

SNSUser ..> User

@enduml

@startuml Class Diagram
skinparam classAttributeIconSize 0

class ApplicationPOT {
  + static getInstance()
  + getCurrentSession()
}

class Company {
  - String designation
  + validateUser(user)
  + createUser(snsNumber, name, email, birthDate, phoneNumber)
}

class RegisterSNSUserController {
  + getUsers()
  + getUser(userId)
}

class RegisterSNSUserUI { }

class SNSUser {
  - String SNSNumber
  - String name
  - Date birthDate
  - Char gender
  - Integer phoneNumber
  - String email
  + SNSUser(ref,designation,informalDesc,technicalDesc,duration,cost,cat)
}

interface User {
  - String name
  - String email
  - String pwd
  - String role
}


RegisterSNSUserController ..> ApplicationPOT
RegisterSNSUserController ..> Company
RegisterSNSUserController ..> SNSUser

RegisterSNSUserUI ..> RegisterSNSUserController

SNSUser ..> User

@enduml

PlantUML version 1.2022.0(Tue Jan 11 16:16:42 WET 2022)
(GPL source distribution)
Java Runtime: OpenJDK Runtime Environment
JVM: OpenJDK 64-Bit Server VM
Default Encoding: UTF-8
Language: en
Country: US
--></g></svg>