<?xml version="1.0" encoding="UTF-8" standalone="no"?><svg xmlns="http://www.w3.org/2000/svg" xmlns:xlink="http://www.w3.org/1999/xlink" contentScriptType="application/ecmascript" contentStyleType="text/css" height="785px" preserveAspectRatio="none" style="width:679px;height:785px;background:#FFFFFF;" version="1.1" viewBox="0 0 679 785" width="679px" zoomAndPan="magnify"><defs><filter height="300%" id="fl9zkewyibgav" width="300%" x="-1" y="-1"><feGaussianBlur result="blurOut" stdDeviation="2.0"/><feColorMatrix in="blurOut" result="blurOut2" type="matrix" values="0 0 0 0 0 0 0 0 0 0 0 0 0 0 0 0 0 0 .4 0"/><feOffset dx="4.0" dy="4.0" in="blurOut2" result="blurOut3"/><feBlend in="SourceGraphic" in2="blurOut3" mode="normal"/></filter></defs><g><!--MD5=[8ae808d068a8995f06b9b3ec51357f0b]
class AuthFacade--><rect codeLine="8" fill="#FEFECE" filter="url(#fl9zkewyibgav)" height="103.3438" id="AuthFacade" style="stroke:#A80036;stroke-width:1.5;" width="109" x="112" y="476"/><ellipse cx="132.4" cy="492" fill="#ADD1B2" rx="11" ry="11" style="stroke:#A80036;stroke-width:1.0;"/><path d="M135.1656,487.875 Q135.3219,487.6563 135.5094,487.5469 Q135.6969,487.4375 135.9156,487.4375 Q136.2906,487.4375 136.525,487.7031 Q136.7594,487.9531 136.7594,488.5625 L136.7594,490.0156 Q136.7594,490.625 136.525,490.8906 Q136.2906,491.1563 135.9156,491.1563 Q135.5719,491.1563 135.3688,490.9531 Q135.1656,490.7656 135.0563,490.25 Q135.0094,489.8906 134.8219,489.7031 Q134.4938,489.3281 133.8844,489.1094 Q133.275,488.8906 132.65,488.8906 Q131.8844,488.8906 131.2438,489.2188 Q130.6188,489.5469 130.1188,490.2969 Q129.6344,491.0469 129.6344,492.0781 L129.6344,493.1719 Q129.6344,494.4063 130.525,495.2344 Q131.4156,496.0469 133.0094,496.0469 Q133.9469,496.0469 134.6031,495.7969 Q134.9938,495.6406 135.4156,495.2031 Q135.6813,494.9375 135.8219,494.8594 Q135.9781,494.7813 136.1813,494.7813 Q136.5094,494.7813 136.7594,495.0469 Q137.025,495.2969 137.025,495.6406 Q137.025,495.9844 136.6813,496.3906 Q136.1813,496.9688 135.3844,497.2969 Q134.3063,497.75 133.0094,497.75 Q131.4938,497.75 130.2906,497.125 Q129.3063,496.625 128.6188,495.5625 Q127.9313,494.4844 127.9313,493.2031 L127.9313,492.0469 Q127.9313,490.7188 128.5406,489.5781 Q129.1656,488.4219 130.2594,487.8125 Q131.3531,487.1875 132.5875,487.1875 Q133.3219,487.1875 133.9625,487.3594 Q134.6188,487.5156 135.1656,487.875 Z " fill="#000000"/><text fill="#000000" font-family="sans-serif" font-size="12" lengthAdjust="spacing" textLength="65" x="147.6" y="496.9102">AuthFacade</text><line style="stroke:#A80036;stroke-width:1.5;" x1="113" x2="220" y1="508" y2="508"/><line style="stroke:#A80036;stroke-width:1.5;" x1="113" x2="220" y1="516" y2="516"/><text fill="#000000" font-family="sans-serif" font-size="11" lengthAdjust="spacing" textLength="66" x="118" y="531.4189">+existsUser()</text><text fill="#000000" font-family="sans-serif" font-size="11" lengthAdjust="spacing" textLength="97" x="118" y="545.2549">+addUserWithRole()</text><text fill="#000000" font-family="sans-serif" font-size="11" lengthAdjust="spacing" textLength="52" x="118" y="559.0908">+getUser()</text><text fill="#000000" font-family="sans-serif" font-size="11" lengthAdjust="spacing" textLength="58" x="118" y="572.9268">+getUsers()</text><!--MD5=[02e4b9b7573f1156f41e60aa5b4e25a4]
class Company--><rect codeLine="15" fill="#FEFECE" filter="url(#fl9zkewyibgav)" height="117.1797" id="Company" style="stroke:#A80036;stroke-width:1.5;" width="319" x="7" y="253"/><ellipse cx="135.75" cy="269" fill="#ADD1B2" rx="11" ry="11" style="stroke:#A80036;stroke-width:1.0;"/><path d="M138.5156,264.875 Q138.6719,264.6563 138.8594,264.5469 Q139.0469,264.4375 139.2656,264.4375 Q139.6406,264.4375 139.875,264.7031 Q140.1094,264.9531 140.1094,265.5625 L140.1094,267.0156 Q140.1094,267.625 139.875,267.8906 Q139.6406,268.1563 139.2656,268.1563 Q138.9219,268.1563 138.7188,267.9531 Q138.5156,267.7656 138.4063,267.25 Q138.3594,266.8906 138.1719,266.7031 Q137.8438,266.3281 137.2344,266.1094 Q136.625,265.8906 136,265.8906 Q135.2344,265.8906 134.5938,266.2188 Q133.9688,266.5469 133.4688,267.2969 Q132.9844,268.0469 132.9844,269.0781 L132.9844,270.1719 Q132.9844,271.4063 133.875,272.2344 Q134.7656,273.0469 136.3594,273.0469 Q137.2969,273.0469 137.9531,272.7969 Q138.3438,272.6406 138.7656,272.2031 Q139.0313,271.9375 139.1719,271.8594 Q139.3281,271.7813 139.5313,271.7813 Q139.8594,271.7813 140.1094,272.0469 Q140.375,272.2969 140.375,272.6406 Q140.375,272.9844 140.0313,273.3906 Q139.5313,273.9688 138.7344,274.2969 Q137.6563,274.75 136.3594,274.75 Q134.8438,274.75 133.6406,274.125 Q132.6563,273.625 131.9688,272.5625 Q131.2813,271.4844 131.2813,270.2031 L131.2813,269.0469 Q131.2813,267.7188 131.8906,266.5781 Q132.5156,265.4219 133.6094,264.8125 Q134.7031,264.1875 135.9375,264.1875 Q136.6719,264.1875 137.3125,264.3594 Q137.9688,264.5156 138.5156,264.875 Z " fill="#000000"/><text fill="#000000" font-family="sans-serif" font-size="12" lengthAdjust="spacing" textLength="53" x="156.25" y="273.9102">Company</text><line style="stroke:#A80036;stroke-width:1.5;" x1="8" x2="325" y1="285" y2="285"/><text fill="#000000" font-family="sans-serif" font-size="11" lengthAdjust="spacing" textLength="90" x="13" y="300.4189">-String designation</text><line style="stroke:#A80036;stroke-width:1.5;" x1="8" x2="325" y1="306.8359" y2="306.8359"/><text fill="#000000" font-family="sans-serif" font-size="11" lengthAdjust="spacing" textLength="88" x="13" y="322.2549">+getAuthFacade()</text><text fill="#000000" font-family="sans-serif" font-size="11" lengthAdjust="spacing" textLength="85" x="13" y="336.0908">+getDesignation()</text><text fill="#000000" font-family="sans-serif" font-size="11" lengthAdjust="spacing" textLength="307" x="13" y="349.9268">+createUser(snsNumber, name, email, birthDate, phoneNumber)</text><text fill="#000000" font-family="sans-serif" font-size="11" lengthAdjust="spacing" textLength="96" x="13" y="363.7627">+validateUser(user)</text><!--MD5=[03960189e81aa2c066c762ffabbee709]
class Receptionist--><rect codeLine="23" fill="#FEFECE" filter="url(#fl9zkewyibgav)" height="48" id="Receptionist" style="stroke:#A80036;stroke-width:1.5;" width="101" x="361" y="287.5"/><ellipse cx="376" cy="303.5" fill="#ADD1B2" rx="11" ry="11" style="stroke:#A80036;stroke-width:1.0;"/><path d="M378.7656,299.375 Q378.9219,299.1563 379.1094,299.0469 Q379.2969,298.9375 379.5156,298.9375 Q379.8906,298.9375 380.125,299.2031 Q380.3594,299.4531 380.3594,300.0625 L380.3594,301.5156 Q380.3594,302.125 380.125,302.3906 Q379.8906,302.6563 379.5156,302.6563 Q379.1719,302.6563 378.9688,302.4531 Q378.7656,302.2656 378.6563,301.75 Q378.6094,301.3906 378.4219,301.2031 Q378.0938,300.8281 377.4844,300.6094 Q376.875,300.3906 376.25,300.3906 Q375.4844,300.3906 374.8438,300.7188 Q374.2188,301.0469 373.7188,301.7969 Q373.2344,302.5469 373.2344,303.5781 L373.2344,304.6719 Q373.2344,305.9063 374.125,306.7344 Q375.0156,307.5469 376.6094,307.5469 Q377.5469,307.5469 378.2031,307.2969 Q378.5938,307.1406 379.0156,306.7031 Q379.2813,306.4375 379.4219,306.3594 Q379.5781,306.2813 379.7813,306.2813 Q380.1094,306.2813 380.3594,306.5469 Q380.625,306.7969 380.625,307.1406 Q380.625,307.4844 380.2813,307.8906 Q379.7813,308.4688 378.9844,308.7969 Q377.9063,309.25 376.6094,309.25 Q375.0938,309.25 373.8906,308.625 Q372.9063,308.125 372.2188,307.0625 Q371.5313,305.9844 371.5313,304.7031 L371.5313,303.5469 Q371.5313,302.2188 372.1406,301.0781 Q372.7656,299.9219 373.8594,299.3125 Q374.9531,298.6875 376.1875,298.6875 Q376.9219,298.6875 377.5625,298.8594 Q378.2188,299.0156 378.7656,299.375 Z " fill="#000000"/><text fill="#000000" font-family="sans-serif" font-size="12" lengthAdjust="spacing" textLength="69" x="390" y="308.4102">Receptionist</text><line style="stroke:#A80036;stroke-width:1.5;" x1="362" x2="461" y1="319.5" y2="319.5"/><line style="stroke:#A80036;stroke-width:1.5;" x1="362" x2="461" y1="327.5" y2="327.5"/><!--MD5=[be89e96fded54ba83d4eaa5710b97d82]
class RegisterSNSUserController--><rect codeLine="27" fill="#FEFECE" filter="url(#fl9zkewyibgav)" height="75.6719" id="RegisterSNSUserController" style="stroke:#A80036;stroke-width:1.5;" width="380" x="221.5" y="116"/><ellipse cx="330.75" cy="132" fill="#ADD1B2" rx="11" ry="11" style="stroke:#A80036;stroke-width:1.0;"/><path d="M333.5156,127.875 Q333.6719,127.6563 333.8594,127.5469 Q334.0469,127.4375 334.2656,127.4375 Q334.6406,127.4375 334.875,127.7031 Q335.1094,127.9531 335.1094,128.5625 L335.1094,130.0156 Q335.1094,130.625 334.875,130.8906 Q334.6406,131.1563 334.2656,131.1563 Q333.9219,131.1563 333.7188,130.9531 Q333.5156,130.7656 333.4063,130.25 Q333.3594,129.8906 333.1719,129.7031 Q332.8438,129.3281 332.2344,129.1094 Q331.625,128.8906 331,128.8906 Q330.2344,128.8906 329.5938,129.2188 Q328.9688,129.5469 328.4688,130.2969 Q327.9844,131.0469 327.9844,132.0781 L327.9844,133.1719 Q327.9844,134.4063 328.875,135.2344 Q329.7656,136.0469 331.3594,136.0469 Q332.2969,136.0469 332.9531,135.7969 Q333.3438,135.6406 333.7656,135.2031 Q334.0313,134.9375 334.1719,134.8594 Q334.3281,134.7813 334.5313,134.7813 Q334.8594,134.7813 335.1094,135.0469 Q335.375,135.2969 335.375,135.6406 Q335.375,135.9844 335.0313,136.3906 Q334.5313,136.9688 333.7344,137.2969 Q332.6563,137.75 331.3594,137.75 Q329.8438,137.75 328.6406,137.125 Q327.6563,136.625 326.9688,135.5625 Q326.2813,134.4844 326.2813,133.2031 L326.2813,132.0469 Q326.2813,130.7188 326.8906,129.5781 Q327.5156,128.4219 328.6094,127.8125 Q329.7031,127.1875 330.9375,127.1875 Q331.6719,127.1875 332.3125,127.3594 Q332.9688,127.5156 333.5156,127.875 Z " fill="#000000"/><text fill="#000000" font-family="sans-serif" font-size="12" lengthAdjust="spacing" textLength="153" x="351.25" y="136.9102">RegisterSNSUserController</text><line style="stroke:#A80036;stroke-width:1.5;" x1="222.5" x2="600.5" y1="148" y2="148"/><line style="stroke:#A80036;stroke-width:1.5;" x1="222.5" x2="600.5" y1="156" y2="156"/><text fill="#000000" font-family="sans-serif" font-size="11" lengthAdjust="spacing" textLength="368" x="227.5" y="171.4189">+createSNSUser(snsNumber, name, birthDate, gender, phoneNumber, email)</text><text fill="#000000" font-family="sans-serif" font-size="11" lengthAdjust="spacing" textLength="104" x="227.5" y="185.2549">+saveSNSUser(user)</text><!--MD5=[e51f1aa3cba897edd46f2fedbd5a5cd6]
class RegisterSNSUserUI--><rect codeLine="32" fill="#FEFECE" filter="url(#fl9zkewyibgav)" height="48" id="RegisterSNSUserUI" style="stroke:#A80036;stroke-width:1.5;" width="143" x="340" y="7"/><ellipse cx="355" cy="23" fill="#ADD1B2" rx="11" ry="11" style="stroke:#A80036;stroke-width:1.0;"/><path d="M357.7656,18.875 Q357.9219,18.6563 358.1094,18.5469 Q358.2969,18.4375 358.5156,18.4375 Q358.8906,18.4375 359.125,18.7031 Q359.3594,18.9531 359.3594,19.5625 L359.3594,21.0156 Q359.3594,21.625 359.125,21.8906 Q358.8906,22.1563 358.5156,22.1563 Q358.1719,22.1563 357.9688,21.9531 Q357.7656,21.7656 357.6563,21.25 Q357.6094,20.8906 357.4219,20.7031 Q357.0938,20.3281 356.4844,20.1094 Q355.875,19.8906 355.25,19.8906 Q354.4844,19.8906 353.8438,20.2188 Q353.2188,20.5469 352.7188,21.2969 Q352.2344,22.0469 352.2344,23.0781 L352.2344,24.1719 Q352.2344,25.4063 353.125,26.2344 Q354.0156,27.0469 355.6094,27.0469 Q356.5469,27.0469 357.2031,26.7969 Q357.5938,26.6406 358.0156,26.2031 Q358.2813,25.9375 358.4219,25.8594 Q358.5781,25.7813 358.7813,25.7813 Q359.1094,25.7813 359.3594,26.0469 Q359.625,26.2969 359.625,26.6406 Q359.625,26.9844 359.2813,27.3906 Q358.7813,27.9688 357.9844,28.2969 Q356.9063,28.75 355.6094,28.75 Q354.0938,28.75 352.8906,28.125 Q351.9063,27.625 351.2188,26.5625 Q350.5313,25.4844 350.5313,24.2031 L350.5313,23.0469 Q350.5313,21.7188 351.1406,20.5781 Q351.7656,19.4219 352.8594,18.8125 Q353.9531,18.1875 355.1875,18.1875 Q355.9219,18.1875 356.5625,18.3594 Q357.2188,18.5156 357.7656,18.875 Z " fill="#000000"/><text fill="#000000" font-family="sans-serif" font-size="12" lengthAdjust="spacing" textLength="111" x="369" y="27.9102">RegisterSNSUserUI</text><line style="stroke:#A80036;stroke-width:1.5;" x1="341" x2="482" y1="39" y2="39"/><line style="stroke:#A80036;stroke-width:1.5;" x1="341" x2="482" y1="47" y2="47"/><!--MD5=[72be06cc7ae02ccc98efe28a50e62246]
class SNSUser--><rect codeLine="34" fill="#FEFECE" filter="url(#fl9zkewyibgav)" height="158.6875" id="SNSUser" style="stroke:#A80036;stroke-width:1.5;" width="409" x="256" y="448"/><ellipse cx="430.25" cy="464" fill="#ADD1B2" rx="11" ry="11" style="stroke:#A80036;stroke-width:1.0;"/><path d="M433.0156,459.875 Q433.1719,459.6563 433.3594,459.5469 Q433.5469,459.4375 433.7656,459.4375 Q434.1406,459.4375 434.375,459.7031 Q434.6094,459.9531 434.6094,460.5625 L434.6094,462.0156 Q434.6094,462.625 434.375,462.8906 Q434.1406,463.1563 433.7656,463.1563 Q433.4219,463.1563 433.2188,462.9531 Q433.0156,462.7656 432.9063,462.25 Q432.8594,461.8906 432.6719,461.7031 Q432.3438,461.3281 431.7344,461.1094 Q431.125,460.8906 430.5,460.8906 Q429.7344,460.8906 429.0938,461.2188 Q428.4688,461.5469 427.9688,462.2969 Q427.4844,463.0469 427.4844,464.0781 L427.4844,465.1719 Q427.4844,466.4063 428.375,467.2344 Q429.2656,468.0469 430.8594,468.0469 Q431.7969,468.0469 432.4531,467.7969 Q432.8438,467.6406 433.2656,467.2031 Q433.5313,466.9375 433.6719,466.8594 Q433.8281,466.7813 434.0313,466.7813 Q434.3594,466.7813 434.6094,467.0469 Q434.875,467.2969 434.875,467.6406 Q434.875,467.9844 434.5313,468.3906 Q434.0313,468.9688 433.2344,469.2969 Q432.1563,469.75 430.8594,469.75 Q429.3438,469.75 428.1406,469.125 Q427.1563,468.625 426.4688,467.5625 Q425.7813,466.4844 425.7813,465.2031 L425.7813,464.0469 Q425.7813,462.7188 426.3906,461.5781 Q427.0156,460.4219 428.1094,459.8125 Q429.2031,459.1875 430.4375,459.1875 Q431.1719,459.1875 431.8125,459.3594 Q432.4688,459.5156 433.0156,459.875 Z " fill="#000000"/><text fill="#000000" font-family="sans-serif" font-size="12" lengthAdjust="spacing" textLength="52" x="450.75" y="468.9102">SNSUser</text><line style="stroke:#A80036;stroke-width:1.5;" x1="257" x2="664" y1="480" y2="480"/><text fill="#000000" font-family="sans-serif" font-size="11" lengthAdjust="spacing" textLength="89" x="262" y="495.4189">-String citizenCard</text><text fill="#000000" font-family="sans-serif" font-size="11" lengthAdjust="spacing" textLength="90" x="262" y="509.2549">-String snsNumber</text><text fill="#000000" font-family="sans-serif" font-size="11" lengthAdjust="spacing" textLength="61" x="262" y="523.0908">-String name</text><text fill="#000000" font-family="sans-serif" font-size="11" lengthAdjust="spacing" textLength="72" x="262" y="536.9268">-Date birthDate</text><text fill="#000000" font-family="sans-serif" font-size="11" lengthAdjust="spacing" textLength="64" x="262" y="550.7627">-Char gender</text><text fill="#000000" font-family="sans-serif" font-size="11" lengthAdjust="spacing" textLength="102" x="262" y="564.5986">-String phoneNumber</text><text fill="#000000" font-family="sans-serif" font-size="11" lengthAdjust="spacing" textLength="59" x="262" y="578.4346">-String email</text><line style="stroke:#A80036;stroke-width:1.5;" x1="257" x2="664" y1="584.8516" y2="584.8516"/><text fill="#000000" font-family="sans-serif" font-size="11" lengthAdjust="spacing" textLength="397" x="262" y="600.2705">+SNSUser(citizenCard, snsNumber, name, birthDate, gender, phoneNumber, email)</text><!--MD5=[3fd616f346a44cd59a91eb10b19e157c]
class User--><rect codeLine="45" fill="#FEFECE" filter="url(#fl9zkewyibgav)" height="103.3438" id="User" style="stroke:#A80036;stroke-width:1.5;" width="73" x="276" y="668"/><ellipse cx="297.75" cy="684" fill="#B4A7E5" rx="11" ry="11" style="stroke:#A80036;stroke-width:1.0;"/><path d="M298.7031,680.6406 L298.7031,687.2969 L300.4219,687.2969 Q301.0313,687.2969 301.2969,687.5313 Q301.5625,687.7656 301.5625,688.1563 Q301.5625,688.5313 301.2969,688.7656 Q301.0313,689 300.4219,689 L295.2813,689 Q294.6719,689 294.4063,688.7656 Q294.1406,688.5313 294.1406,688.1406 Q294.1406,687.7656 294.4063,687.5313 Q294.6719,687.2969 295.2813,687.2969 L297,687.2969 L297,680.6406 L295.2813,680.6406 Q294.6719,680.6406 294.4063,680.4063 Q294.1406,680.1719 294.1406,679.7813 Q294.1406,679.4063 294.4063,679.1719 Q294.6719,678.9375 295.2813,678.9375 L300.4219,678.9375 Q301.0313,678.9375 301.2969,679.1719 Q301.5625,679.4063 301.5625,679.7813 Q301.5625,680.1719 301.2969,680.4063 Q301.0313,680.6406 300.4219,680.6406 L298.7031,680.6406 Z " fill="#000000"/><text fill="#000000" font-family="sans-serif" font-size="12" font-style="italic" lengthAdjust="spacing" textLength="26" x="313.25" y="688.9102">User</text><line style="stroke:#A80036;stroke-width:1.5;" x1="277" x2="348" y1="700" y2="700"/><text fill="#000000" font-family="sans-serif" font-size="11" lengthAdjust="spacing" textLength="61" x="282" y="715.4189">-String name</text><text fill="#000000" font-family="sans-serif" font-size="11" lengthAdjust="spacing" textLength="59" x="282" y="729.2549">-String email</text><text fill="#000000" font-family="sans-serif" font-size="11" lengthAdjust="spacing" textLength="57" x="282" y="743.0908">-String pwd</text><text fill="#000000" font-family="sans-serif" font-size="11" lengthAdjust="spacing" textLength="61" x="282" y="756.9268">-String roleId</text><line style="stroke:#A80036;stroke-width:1.5;" x1="277" x2="348" y1="763.3438" y2="763.3438"/><!--MD5=[4a0c2a87f78fc9162dd5fb599538cdb8]
link AuthFacade to User--><path codeLine="56" d="M205.63,579.42 C226.31,606.34 251.66,639.32 272.48,666.42 " fill="none" id="AuthFacade-to-User" style="stroke:#A80036;stroke-width:1.0;stroke-dasharray:7.0,7.0;"/><polygon fill="#A80036" points="275.78,670.71,273.4814,661.1331,272.739,666.741,267.1311,665.9987,275.78,670.71" style="stroke:#A80036;stroke-width:1.0;"/><!--MD5=[1a8aa2b864b87f860d28abceaa28b7a5]
link Company to SNSUser--><path codeLine="58" d="M245.67,370.13 C277.22,393.09 314.09,419.93 348.3,444.83 " fill="none" id="Company-to-SNSUser" style="stroke:#A80036;stroke-width:1.0;"/><polygon fill="#A80036" points="352.46,447.86,347.5376,439.3294,348.4176,444.9174,342.8296,445.7974,352.46,447.86" style="stroke:#A80036;stroke-width:1.0;"/><text fill="#000000" font-family="sans-serif" font-size="13" lengthAdjust="spacing" textLength="37" x="306.5" y="414.4951">knows</text><text fill="#000000" font-family="sans-serif" font-size="13" lengthAdjust="spacing" textLength="7" x="247.8923" y="391.7561">1</text><text fill="#000000" font-family="sans-serif" font-size="13" lengthAdjust="spacing" textLength="5" x="336.9242" y="437.0336">*</text><!--MD5=[717d4b03d3c4372f4eafe5e342a0a7dd]
link Company to AuthFacade--><path codeLine="59" d="M166.5,370.13 C166.5,401.26 166.5,439.53 166.5,470.42 " fill="none" id="Company-to-AuthFacade" style="stroke:#A80036;stroke-width:1.0;stroke-dasharray:7.0,7.0;"/><polygon fill="#A80036" points="166.5,475.7,170.5,466.7,166.5,470.7,162.5,466.7,166.5,475.7" style="stroke:#A80036;stroke-width:1.0;"/><!--MD5=[438f3eafa26f7112fe5a933ad6336f95]
link RegisterSNSUserController to Company--><path codeLine="62" d="M353.13,192.05 C325.88,209.34 292.73,230.38 261.98,249.9 " fill="none" id="RegisterSNSUserController-to-Company" style="stroke:#A80036;stroke-width:1.0;stroke-dasharray:7.0,7.0;"/><polygon fill="#A80036" points="257.46,252.77,267.2017,251.3213,261.6807,250.0893,262.9126,244.5682,257.46,252.77" style="stroke:#A80036;stroke-width:1.0;"/><!--MD5=[58f5c696550f6433b7c77783611dc3cd]
link RegisterSNSUserController to Receptionist--><path codeLine="63" d="M411.5,192.25 C411.5,219.76 411.5,256.66 411.5,281.88 " fill="none" id="RegisterSNSUserController-to-Receptionist" style="stroke:#A80036;stroke-width:1.0;stroke-dasharray:7.0,7.0;"/><polygon fill="#A80036" points="411.5,287.08,415.5,278.08,411.5,282.08,407.5,278.08,411.5,287.08" style="stroke:#A80036;stroke-width:1.0;"/><!--MD5=[b863452b465c122da136545eb0fe4494]
link RegisterSNSUserController to SNSUser--><path codeLine="64" d="M445.27,192.13 C458.69,209.34 472.57,230.87 479.5,253 C498.78,314.62 492.3,387.73 481.93,442.86 " fill="none" id="RegisterSNSUserController-to-SNSUser" style="stroke:#A80036;stroke-width:1.0;stroke-dasharray:7.0,7.0;"/><polygon fill="#A80036" points="480.99,447.8,486.6142,439.7149,481.9321,442.8896,478.7575,438.2075,480.99,447.8" style="stroke:#A80036;stroke-width:1.0;"/><!--MD5=[7bf6f1c174ef2382ab748189587a16d6]
link RegisterSNSUserUI to RegisterSNSUserController--><path codeLine="67" d="M411.5,55.04 C411.5,70.71 411.5,91.91 411.5,110.58 " fill="none" id="RegisterSNSUserUI-to-RegisterSNSUserController" style="stroke:#A80036;stroke-width:1.0;stroke-dasharray:7.0,7.0;"/><polygon fill="#A80036" points="411.5,115.77,415.5,106.77,411.5,110.77,407.5,106.77,411.5,115.77" style="stroke:#A80036;stroke-width:1.0;"/><!--MD5=[f51b69263ffc056cc84c9ec54d5aea1b]
link SNSUser to User--><path codeLine="69" d="M399.23,607.15 C386.74,623.2 373.74,639.88 361.73,655.3 " fill="none" id="SNSUser-to-User" style="stroke:#A80036;stroke-width:1.0;"/><polygon fill="none" points="366.96,659.97,349.15,671.45,355.92,651.37,366.96,659.97" style="stroke:#A80036;stroke-width:1.0;"/><!--MD5=[227d31509252e3eb5753929a623820d0]
@startuml Class Diagram
skinparam classAttributeIconSize 0

' class ApplicationPOT {
'   + static getInstance()
'   + getCurrentSession()
' }

class AuthFacade {
  + existsUser()
  + addUserWithRole()
  + getUser()
  + getUsers()
}

class Company {
  - String designation
  + getAuthFacade()
  + getDesignation()
  + createUser(snsNumber, name, email, birthDate, phoneNumber)
  + validateUser(user)
}

class Receptionist {

}

class RegisterSNSUserController {
  + createSNSUser(snsNumber, name, birthDate, gender, phoneNumber, email)
  + saveSNSUser(user)
}

class RegisterSNSUserUI { }

class SNSUser {
  - String citizenCard
  - String snsNumber
  - String name
  - Date birthDate
  - Char gender
  - String phoneNumber
  - String email
  + SNSUser(citizenCard, snsNumber, name, birthDate, gender, phoneNumber, email)
}

interface User {
  - String name
  - String email
  - String pwd
  - String roleId
}

' class UserSession {
'   + getUserEmail()
' }

AuthFacade ..> User

Company "1" - -> "*" SNSUser : knows
Company ..> AuthFacade

' RegisterSNSUserController ..> ApplicationPOT
RegisterSNSUserController ..> Company
RegisterSNSUserController ..> Receptionist
RegisterSNSUserController ..> SNSUser
' RegisterSNSUserController ..> UserSession

RegisterSNSUserUI ..> RegisterSNSUserController

SNSUser - -|> User

@enduml

@startuml Class Diagram
skinparam classAttributeIconSize 0


class AuthFacade {
  + existsUser()
  + addUserWithRole()
  + getUser()
  + getUsers()
}

class Company {
  - String designation
  + getAuthFacade()
  + getDesignation()
  + createUser(snsNumber, name, email, birthDate, phoneNumber)
  + validateUser(user)
}

class Receptionist {

}

class RegisterSNSUserController {
  + createSNSUser(snsNumber, name, birthDate, gender, phoneNumber, email)
  + saveSNSUser(user)
}

class RegisterSNSUserUI { }

class SNSUser {
  - String citizenCard
  - String snsNumber
  - String name
  - Date birthDate
  - Char gender
  - String phoneNumber
  - String email
  + SNSUser(citizenCard, snsNumber, name, birthDate, gender, phoneNumber, email)
}

interface User {
  - String name
  - String email
  - String pwd
  - String roleId
}


AuthFacade ..> User

Company "1" - -> "*" SNSUser : knows
Company ..> AuthFacade

RegisterSNSUserController ..> Company
RegisterSNSUserController ..> Receptionist
RegisterSNSUserController ..> SNSUser

RegisterSNSUserUI ..> RegisterSNSUserController

SNSUser - -|> User

@enduml

PlantUML version 1.2022.0(Tue Jan 11 16:16:42 WET 2022)
(GPL source distribution)
Java Runtime: Java(TM) SE Runtime Environment
JVM: Java HotSpot(TM) 64-Bit Server VM
Default Encoding: Cp1252
Language: pt
Country: PT
--></g></svg>