<?xml version="1.0" encoding="UTF-8" standalone="no"?><svg xmlns="http://www.w3.org/2000/svg" xmlns:xlink="http://www.w3.org/1999/xlink" contentScriptType="application/ecmascript" contentStyleType="text/css" height="963px" preserveAspectRatio="none" style="width:1059px;height:963px;background:#FFFFFF;" version="1.1" viewBox="0 0 1059 963" width="1059px" zoomAndPan="magnify"><defs><filter height="300%" id="f9sg573nch3xi" width="300%" x="-1" y="-1"><feGaussianBlur result="blurOut" stdDeviation="2.0"/><feColorMatrix in="blurOut" result="blurOut2" type="matrix" values="0 0 0 0 0 0 0 0 0 0 0 0 0 0 0 0 0 0 .4 0"/><feOffset dx="4.0" dy="4.0" in="blurOut2" result="blurOut3"/><feBlend in="SourceGraphic" in2="blurOut3" mode="normal"/></filter></defs><g><!--MD5=[8ae808d068a8995f06b9b3ec51357f0b]
class AuthFacade--><rect codeLine="8" fill="#FEFECE" filter="url(#f9sg573nch3xi)" height="103.3438" id="AuthFacade" style="stroke:#A80036;stroke-width:1.5;" width="225" x="358.5" y="424"/><ellipse cx="434.25" cy="440" fill="#ADD1B2" rx="11" ry="11" style="stroke:#A80036;stroke-width:1.0;"/><path d="M437.0156,435.875 Q437.1719,435.6563 437.3594,435.5469 Q437.5469,435.4375 437.7656,435.4375 Q438.1406,435.4375 438.375,435.7031 Q438.6094,435.9531 438.6094,436.5625 L438.6094,438.0156 Q438.6094,438.625 438.375,438.8906 Q438.1406,439.1563 437.7656,439.1563 Q437.4219,439.1563 437.2188,438.9531 Q437.0156,438.7656 436.9063,438.25 Q436.8594,437.8906 436.6719,437.7031 Q436.3438,437.3281 435.7344,437.1094 Q435.125,436.8906 434.5,436.8906 Q433.7344,436.8906 433.0938,437.2188 Q432.4688,437.5469 431.9688,438.2969 Q431.4844,439.0469 431.4844,440.0781 L431.4844,441.1719 Q431.4844,442.4063 432.375,443.2344 Q433.2656,444.0469 434.8594,444.0469 Q435.7969,444.0469 436.4531,443.7969 Q436.8438,443.6406 437.2656,443.2031 Q437.5313,442.9375 437.6719,442.8594 Q437.8281,442.7813 438.0313,442.7813 Q438.3594,442.7813 438.6094,443.0469 Q438.875,443.2969 438.875,443.6406 Q438.875,443.9844 438.5313,444.3906 Q438.0313,444.9688 437.2344,445.2969 Q436.1563,445.75 434.8594,445.75 Q433.3438,445.75 432.1406,445.125 Q431.1563,444.625 430.4688,443.5625 Q429.7813,442.4844 429.7813,441.2031 L429.7813,440.0469 Q429.7813,438.7188 430.3906,437.5781 Q431.0156,436.4219 432.1094,435.8125 Q433.2031,435.1875 434.4375,435.1875 Q435.1719,435.1875 435.8125,435.3594 Q436.4688,435.5156 437.0156,435.875 Z " fill="#000000"/><text fill="#000000" font-family="sans-serif" font-size="12" lengthAdjust="spacing" textLength="65" x="454.75" y="444.9102">AuthFacade</text><line style="stroke:#A80036;stroke-width:1.5;" x1="359.5" x2="582.5" y1="456" y2="456"/><line style="stroke:#A80036;stroke-width:1.5;" x1="359.5" x2="582.5" y1="464" y2="464"/><text fill="#000000" font-family="sans-serif" font-size="11" lengthAdjust="spacing" textLength="90" x="364.5" y="479.4189">+existsUser(email)</text><text fill="#000000" font-family="sans-serif" font-size="11" lengthAdjust="spacing" textLength="213" x="364.5" y="493.2549">+addUserWithRole(name, email, pwd, roleId)</text><text fill="#000000" font-family="sans-serif" font-size="11" lengthAdjust="spacing" textLength="76" x="364.5" y="507.0908">+getUser(email)</text><text fill="#000000" font-family="sans-serif" font-size="11" lengthAdjust="spacing" textLength="58" x="364.5" y="520.9268">+getUsers()</text><!--MD5=[02e4b9b7573f1156f41e60aa5b4e25a4]
class Company--><rect codeLine="15" fill="#FEFECE" filter="url(#f9sg573nch3xi)" height="117.1797" id="Company" style="stroke:#A80036;stroke-width:1.5;" width="316" x="7" y="417"/><ellipse cx="134.25" cy="433" fill="#ADD1B2" rx="11" ry="11" style="stroke:#A80036;stroke-width:1.0;"/><path d="M137.0156,428.875 Q137.1719,428.6563 137.3594,428.5469 Q137.5469,428.4375 137.7656,428.4375 Q138.1406,428.4375 138.375,428.7031 Q138.6094,428.9531 138.6094,429.5625 L138.6094,431.0156 Q138.6094,431.625 138.375,431.8906 Q138.1406,432.1563 137.7656,432.1563 Q137.4219,432.1563 137.2188,431.9531 Q137.0156,431.7656 136.9063,431.25 Q136.8594,430.8906 136.6719,430.7031 Q136.3438,430.3281 135.7344,430.1094 Q135.125,429.8906 134.5,429.8906 Q133.7344,429.8906 133.0938,430.2188 Q132.4688,430.5469 131.9688,431.2969 Q131.4844,432.0469 131.4844,433.0781 L131.4844,434.1719 Q131.4844,435.4063 132.375,436.2344 Q133.2656,437.0469 134.8594,437.0469 Q135.7969,437.0469 136.4531,436.7969 Q136.8438,436.6406 137.2656,436.2031 Q137.5313,435.9375 137.6719,435.8594 Q137.8281,435.7813 138.0313,435.7813 Q138.3594,435.7813 138.6094,436.0469 Q138.875,436.2969 138.875,436.6406 Q138.875,436.9844 138.5313,437.3906 Q138.0313,437.9688 137.2344,438.2969 Q136.1563,438.75 134.8594,438.75 Q133.3438,438.75 132.1406,438.125 Q131.1563,437.625 130.4688,436.5625 Q129.7813,435.4844 129.7813,434.2031 L129.7813,433.0469 Q129.7813,431.7188 130.3906,430.5781 Q131.0156,429.4219 132.1094,428.8125 Q133.2031,428.1875 134.4375,428.1875 Q135.1719,428.1875 135.8125,428.3594 Q136.4688,428.5156 137.0156,428.875 Z " fill="#000000"/><text fill="#000000" font-family="sans-serif" font-size="12" lengthAdjust="spacing" textLength="53" x="154.75" y="437.9102">Company</text><line style="stroke:#A80036;stroke-width:1.5;" x1="8" x2="322" y1="449" y2="449"/><text fill="#000000" font-family="sans-serif" font-size="11" lengthAdjust="spacing" textLength="90" x="13" y="464.4189">-String designation</text><line style="stroke:#A80036;stroke-width:1.5;" x1="8" x2="322" y1="470.8359" y2="470.8359"/><text fill="#000000" font-family="sans-serif" font-size="11" lengthAdjust="spacing" textLength="88" x="13" y="486.2549">+getAuthFacade()</text><text fill="#000000" font-family="sans-serif" font-size="11" lengthAdjust="spacing" textLength="85" x="13" y="500.0908">+getDesignation()</text><text fill="#000000" font-family="sans-serif" font-size="11" lengthAdjust="spacing" textLength="304" x="13" y="513.9268">+createUser(snsNumber, name, email, birthDay, phoneNumber)</text><text fill="#000000" font-family="sans-serif" font-size="11" lengthAdjust="spacing" textLength="96" x="13" y="527.7627">+validateUser(user)</text><!--MD5=[be89e96fded54ba83d4eaa5710b97d82]
class RegisterSNSUserController--><rect codeLine="25" fill="#FEFECE" filter="url(#f9sg573nch3xi)" height="75.6719" id="RegisterSNSUserController" style="stroke:#A80036;stroke-width:1.5;" width="377" x="52.5" y="116"/><ellipse cx="160.25" cy="132" fill="#ADD1B2" rx="11" ry="11" style="stroke:#A80036;stroke-width:1.0;"/><path d="M163.0156,127.875 Q163.1719,127.6563 163.3594,127.5469 Q163.5469,127.4375 163.7656,127.4375 Q164.1406,127.4375 164.375,127.7031 Q164.6094,127.9531 164.6094,128.5625 L164.6094,130.0156 Q164.6094,130.625 164.375,130.8906 Q164.1406,131.1563 163.7656,131.1563 Q163.4219,131.1563 163.2188,130.9531 Q163.0156,130.7656 162.9063,130.25 Q162.8594,129.8906 162.6719,129.7031 Q162.3438,129.3281 161.7344,129.1094 Q161.125,128.8906 160.5,128.8906 Q159.7344,128.8906 159.0938,129.2188 Q158.4688,129.5469 157.9688,130.2969 Q157.4844,131.0469 157.4844,132.0781 L157.4844,133.1719 Q157.4844,134.4063 158.375,135.2344 Q159.2656,136.0469 160.8594,136.0469 Q161.7969,136.0469 162.4531,135.7969 Q162.8438,135.6406 163.2656,135.2031 Q163.5313,134.9375 163.6719,134.8594 Q163.8281,134.7813 164.0313,134.7813 Q164.3594,134.7813 164.6094,135.0469 Q164.875,135.2969 164.875,135.6406 Q164.875,135.9844 164.5313,136.3906 Q164.0313,136.9688 163.2344,137.2969 Q162.1563,137.75 160.8594,137.75 Q159.3438,137.75 158.1406,137.125 Q157.1563,136.625 156.4688,135.5625 Q155.7813,134.4844 155.7813,133.2031 L155.7813,132.0469 Q155.7813,130.7188 156.3906,129.5781 Q157.0156,128.4219 158.1094,127.8125 Q159.2031,127.1875 160.4375,127.1875 Q161.1719,127.1875 161.8125,127.3594 Q162.4688,127.5156 163.0156,127.875 Z " fill="#000000"/><text fill="#000000" font-family="sans-serif" font-size="12" lengthAdjust="spacing" textLength="153" x="180.75" y="136.9102">RegisterSNSUserController</text><line style="stroke:#A80036;stroke-width:1.5;" x1="53.5" x2="428.5" y1="148" y2="148"/><line style="stroke:#A80036;stroke-width:1.5;" x1="53.5" x2="428.5" y1="156" y2="156"/><text fill="#000000" font-family="sans-serif" font-size="11" lengthAdjust="spacing" textLength="365" x="58.5" y="171.4189">+createSNSUser(snsNumber, name, birthDay, gender, phoneNumber, email)</text><text fill="#000000" font-family="sans-serif" font-size="11" lengthAdjust="spacing" textLength="104" x="58.5" y="185.2549">+saveSNSUser(user)</text><!--MD5=[e51f1aa3cba897edd46f2fedbd5a5cd6]
class RegisterSNSUserUI--><rect codeLine="30" fill="#FEFECE" filter="url(#f9sg573nch3xi)" height="48" id="RegisterSNSUserUI" style="stroke:#A80036;stroke-width:1.5;" width="143" x="169.5" y="7"/><ellipse cx="184.5" cy="23" fill="#ADD1B2" rx="11" ry="11" style="stroke:#A80036;stroke-width:1.0;"/><path d="M187.2656,18.875 Q187.4219,18.6563 187.6094,18.5469 Q187.7969,18.4375 188.0156,18.4375 Q188.3906,18.4375 188.625,18.7031 Q188.8594,18.9531 188.8594,19.5625 L188.8594,21.0156 Q188.8594,21.625 188.625,21.8906 Q188.3906,22.1563 188.0156,22.1563 Q187.6719,22.1563 187.4688,21.9531 Q187.2656,21.7656 187.1563,21.25 Q187.1094,20.8906 186.9219,20.7031 Q186.5938,20.3281 185.9844,20.1094 Q185.375,19.8906 184.75,19.8906 Q183.9844,19.8906 183.3438,20.2188 Q182.7188,20.5469 182.2188,21.2969 Q181.7344,22.0469 181.7344,23.0781 L181.7344,24.1719 Q181.7344,25.4063 182.625,26.2344 Q183.5156,27.0469 185.1094,27.0469 Q186.0469,27.0469 186.7031,26.7969 Q187.0938,26.6406 187.5156,26.2031 Q187.7813,25.9375 187.9219,25.8594 Q188.0781,25.7813 188.2813,25.7813 Q188.6094,25.7813 188.8594,26.0469 Q189.125,26.2969 189.125,26.6406 Q189.125,26.9844 188.7813,27.3906 Q188.2813,27.9688 187.4844,28.2969 Q186.4063,28.75 185.1094,28.75 Q183.5938,28.75 182.3906,28.125 Q181.4063,27.625 180.7188,26.5625 Q180.0313,25.4844 180.0313,24.2031 L180.0313,23.0469 Q180.0313,21.7188 180.6406,20.5781 Q181.2656,19.4219 182.3594,18.8125 Q183.4531,18.1875 184.6875,18.1875 Q185.4219,18.1875 186.0625,18.3594 Q186.7188,18.5156 187.2656,18.875 Z " fill="#000000"/><text fill="#000000" font-family="sans-serif" font-size="12" lengthAdjust="spacing" textLength="111" x="198.5" y="27.9102">RegisterSNSUserUI</text><line style="stroke:#A80036;stroke-width:1.5;" x1="170.5" x2="311.5" y1="39" y2="39"/><line style="stroke:#A80036;stroke-width:1.5;" x1="170.5" x2="311.5" y1="47" y2="47"/><!--MD5=[72be06cc7ae02ccc98efe28a50e62246]
class SNSUser--><rect codeLine="32" fill="#FEFECE" filter="url(#f9sg573nch3xi)" height="172.5234" id="SNSUser" style="stroke:#A80036;stroke-width:1.5;" width="452" x="84" y="612"/><ellipse cx="279.75" cy="628" fill="#ADD1B2" rx="11" ry="11" style="stroke:#A80036;stroke-width:1.0;"/><path d="M282.5156,623.875 Q282.6719,623.6563 282.8594,623.5469 Q283.0469,623.4375 283.2656,623.4375 Q283.6406,623.4375 283.875,623.7031 Q284.1094,623.9531 284.1094,624.5625 L284.1094,626.0156 Q284.1094,626.625 283.875,626.8906 Q283.6406,627.1563 283.2656,627.1563 Q282.9219,627.1563 282.7188,626.9531 Q282.5156,626.7656 282.4063,626.25 Q282.3594,625.8906 282.1719,625.7031 Q281.8438,625.3281 281.2344,625.1094 Q280.625,624.8906 280,624.8906 Q279.2344,624.8906 278.5938,625.2188 Q277.9688,625.5469 277.4688,626.2969 Q276.9844,627.0469 276.9844,628.0781 L276.9844,629.1719 Q276.9844,630.4063 277.875,631.2344 Q278.7656,632.0469 280.3594,632.0469 Q281.2969,632.0469 281.9531,631.7969 Q282.3438,631.6406 282.7656,631.2031 Q283.0313,630.9375 283.1719,630.8594 Q283.3281,630.7813 283.5313,630.7813 Q283.8594,630.7813 284.1094,631.0469 Q284.375,631.2969 284.375,631.6406 Q284.375,631.9844 284.0313,632.3906 Q283.5313,632.9688 282.7344,633.2969 Q281.6563,633.75 280.3594,633.75 Q278.8438,633.75 277.6406,633.125 Q276.6563,632.625 275.9688,631.5625 Q275.2813,630.4844 275.2813,629.2031 L275.2813,628.0469 Q275.2813,626.7188 275.8906,625.5781 Q276.5156,624.4219 277.6094,623.8125 Q278.7031,623.1875 279.9375,623.1875 Q280.6719,623.1875 281.3125,623.3594 Q281.9688,623.5156 282.5156,623.875 Z " fill="#000000"/><text fill="#000000" font-family="sans-serif" font-size="12" lengthAdjust="spacing" textLength="52" x="300.25" y="632.9102">SNSUser</text><line style="stroke:#A80036;stroke-width:1.5;" x1="85" x2="535" y1="644" y2="644"/><text fill="#000000" font-family="sans-serif" font-size="11" lengthAdjust="spacing" textLength="89" x="90" y="659.4189">-String citizenCard</text><text fill="#000000" font-family="sans-serif" font-size="11" lengthAdjust="spacing" textLength="90" x="90" y="673.2549">-String snsNumber</text><text fill="#000000" font-family="sans-serif" font-size="11" lengthAdjust="spacing" textLength="61" x="90" y="687.0908">-String name</text><text fill="#000000" font-family="sans-serif" font-size="11" lengthAdjust="spacing" textLength="69" x="90" y="700.9268">-Date birthDay</text><text fill="#000000" font-family="sans-serif" font-size="11" lengthAdjust="spacing" textLength="64" x="90" y="714.7627">-Char gender</text><text fill="#000000" font-family="sans-serif" font-size="11" lengthAdjust="spacing" textLength="102" x="90" y="728.5986">-String phoneNumber</text><text fill="#000000" font-family="sans-serif" font-size="11" lengthAdjust="spacing" textLength="59" x="90" y="742.4346">-String email</text><text fill="#000000" font-family="sans-serif" font-size="11" lengthAdjust="spacing" textLength="75" x="90" y="756.2705">-String address</text><line style="stroke:#A80036;stroke-width:1.5;" x1="85" x2="535" y1="762.6875" y2="762.6875"/><text fill="#000000" font-family="sans-serif" font-size="11" lengthAdjust="spacing" textLength="440" x="90" y="778.1064">+SNSUser(citizenCard, snsNumber, name, birthDay, gender, phoneNumber, email, address)</text><!--MD5=[3fd616f346a44cd59a91eb10b19e157c]
class User--><rect codeLine="44" fill="#FEFECE" filter="url(#f9sg573nch3xi)" height="103.3438" id="User" style="stroke:#A80036;stroke-width:1.5;" width="73" x="460.5" y="846"/><ellipse cx="481.8" cy="862" fill="#ADD1B2" rx="11" ry="11" style="stroke:#A80036;stroke-width:1.0;"/><path d="M484.5656,857.875 Q484.7219,857.6563 484.9094,857.5469 Q485.0969,857.4375 485.3156,857.4375 Q485.6906,857.4375 485.925,857.7031 Q486.1594,857.9531 486.1594,858.5625 L486.1594,860.0156 Q486.1594,860.625 485.925,860.8906 Q485.6906,861.1563 485.3156,861.1563 Q484.9719,861.1563 484.7688,860.9531 Q484.5656,860.7656 484.4563,860.25 Q484.4094,859.8906 484.2219,859.7031 Q483.8938,859.3281 483.2844,859.1094 Q482.675,858.8906 482.05,858.8906 Q481.2844,858.8906 480.6438,859.2188 Q480.0188,859.5469 479.5188,860.2969 Q479.0344,861.0469 479.0344,862.0781 L479.0344,863.1719 Q479.0344,864.4063 479.925,865.2344 Q480.8156,866.0469 482.4094,866.0469 Q483.3469,866.0469 484.0031,865.7969 Q484.3938,865.6406 484.8156,865.2031 Q485.0813,864.9375 485.2219,864.8594 Q485.3781,864.7813 485.5813,864.7813 Q485.9094,864.7813 486.1594,865.0469 Q486.425,865.2969 486.425,865.6406 Q486.425,865.9844 486.0813,866.3906 Q485.5813,866.9688 484.7844,867.2969 Q483.7063,867.75 482.4094,867.75 Q480.8938,867.75 479.6906,867.125 Q478.7063,866.625 478.0188,865.5625 Q477.3313,864.4844 477.3313,863.2031 L477.3313,862.0469 Q477.3313,860.7188 477.9406,859.5781 Q478.5656,858.4219 479.6594,857.8125 Q480.7531,857.1875 481.9875,857.1875 Q482.7219,857.1875 483.3625,857.3594 Q484.0188,857.5156 484.5656,857.875 Z " fill="#000000"/><text fill="#000000" font-family="sans-serif" font-size="12" lengthAdjust="spacing" textLength="27" x="497.2" y="866.9102">User</text><line style="stroke:#A80036;stroke-width:1.5;" x1="461.5" x2="532.5" y1="878" y2="878"/><text fill="#000000" font-family="sans-serif" font-size="11" lengthAdjust="spacing" textLength="61" x="466.5" y="893.4189">-String name</text><text fill="#000000" font-family="sans-serif" font-size="11" lengthAdjust="spacing" textLength="59" x="466.5" y="907.2549">-String email</text><text fill="#000000" font-family="sans-serif" font-size="11" lengthAdjust="spacing" textLength="57" x="466.5" y="921.0908">-String pwd</text><text fill="#000000" font-family="sans-serif" font-size="11" lengthAdjust="spacing" textLength="61" x="466.5" y="934.9268">-String roleId</text><line style="stroke:#A80036;stroke-width:1.5;" x1="461.5" x2="532.5" y1="941.3438" y2="941.3438"/><!--MD5=[93af8b4494db78ec46e98fad8955a5aa]
class UserStore--><rect codeLine="51" fill="#FEFECE" filter="url(#f9sg573nch3xi)" height="103.3438" id="UserStore" style="stroke:#A80036;stroke-width:1.5;" width="196" x="456" y="253"/><ellipse cx="521.75" cy="269" fill="#ADD1B2" rx="11" ry="11" style="stroke:#A80036;stroke-width:1.0;"/><path d="M524.5156,264.875 Q524.6719,264.6563 524.8594,264.5469 Q525.0469,264.4375 525.2656,264.4375 Q525.6406,264.4375 525.875,264.7031 Q526.1094,264.9531 526.1094,265.5625 L526.1094,267.0156 Q526.1094,267.625 525.875,267.8906 Q525.6406,268.1563 525.2656,268.1563 Q524.9219,268.1563 524.7188,267.9531 Q524.5156,267.7656 524.4063,267.25 Q524.3594,266.8906 524.1719,266.7031 Q523.8438,266.3281 523.2344,266.1094 Q522.625,265.8906 522,265.8906 Q521.2344,265.8906 520.5938,266.2188 Q519.9688,266.5469 519.4688,267.2969 Q518.9844,268.0469 518.9844,269.0781 L518.9844,270.1719 Q518.9844,271.4063 519.875,272.2344 Q520.7656,273.0469 522.3594,273.0469 Q523.2969,273.0469 523.9531,272.7969 Q524.3438,272.6406 524.7656,272.2031 Q525.0313,271.9375 525.1719,271.8594 Q525.3281,271.7813 525.5313,271.7813 Q525.8594,271.7813 526.1094,272.0469 Q526.375,272.2969 526.375,272.6406 Q526.375,272.9844 526.0313,273.3906 Q525.5313,273.9688 524.7344,274.2969 Q523.6563,274.75 522.3594,274.75 Q520.8438,274.75 519.6406,274.125 Q518.6563,273.625 517.9688,272.5625 Q517.2813,271.4844 517.2813,270.2031 L517.2813,269.0469 Q517.2813,267.7188 517.8906,266.5781 Q518.5156,265.4219 519.6094,264.8125 Q520.7031,264.1875 521.9375,264.1875 Q522.6719,264.1875 523.3125,264.3594 Q523.9688,264.5156 524.5156,264.875 Z " fill="#000000"/><text fill="#000000" font-family="sans-serif" font-size="12" lengthAdjust="spacing" textLength="56" x="542.25" y="273.9102">UserStore</text><line style="stroke:#A80036;stroke-width:1.5;" x1="457" x2="651" y1="285" y2="285"/><line style="stroke:#A80036;stroke-width:1.5;" x1="457" x2="651" y1="293" y2="293"/><text fill="#000000" font-family="sans-serif" font-size="11" lengthAdjust="spacing" textLength="184" x="462" y="308.4189">+createUser(name, email, pwd, roleId)</text><text fill="#000000" font-family="sans-serif" font-size="11" lengthAdjust="spacing" textLength="96" x="462" y="322.2549">+validateUser(user)</text><text fill="#000000" font-family="sans-serif" font-size="11" lengthAdjust="spacing" textLength="83" x="462" y="336.0908">+saveUser(user)</text><text fill="#000000" font-family="sans-serif" font-size="11" lengthAdjust="spacing" textLength="115" x="462" y="349.9268">+checkDuplicates(user)</text><!--MD5=[9a2889027d1a5f59ee05c53124f224f8]
class PasswordGenerator--><rect codeLine="58" fill="#FEFECE" filter="url(#f9sg573nch3xi)" height="61.8359" id="PasswordGenerator" style="stroke:#A80036;stroke-width:1.5;" width="143" x="690.5" y="444.5"/><ellipse cx="705.5" cy="460.5" fill="#ADD1B2" rx="11" ry="11" style="stroke:#A80036;stroke-width:1.0;"/><path d="M708.2656,456.375 Q708.4219,456.1563 708.6094,456.0469 Q708.7969,455.9375 709.0156,455.9375 Q709.3906,455.9375 709.625,456.2031 Q709.8594,456.4531 709.8594,457.0625 L709.8594,458.5156 Q709.8594,459.125 709.625,459.3906 Q709.3906,459.6563 709.0156,459.6563 Q708.6719,459.6563 708.4688,459.4531 Q708.2656,459.2656 708.1563,458.75 Q708.1094,458.3906 707.9219,458.2031 Q707.5938,457.8281 706.9844,457.6094 Q706.375,457.3906 705.75,457.3906 Q704.9844,457.3906 704.3438,457.7188 Q703.7188,458.0469 703.2188,458.7969 Q702.7344,459.5469 702.7344,460.5781 L702.7344,461.6719 Q702.7344,462.9063 703.625,463.7344 Q704.5156,464.5469 706.1094,464.5469 Q707.0469,464.5469 707.7031,464.2969 Q708.0938,464.1406 708.5156,463.7031 Q708.7813,463.4375 708.9219,463.3594 Q709.0781,463.2813 709.2813,463.2813 Q709.6094,463.2813 709.8594,463.5469 Q710.125,463.7969 710.125,464.1406 Q710.125,464.4844 709.7813,464.8906 Q709.2813,465.4688 708.4844,465.7969 Q707.4063,466.25 706.1094,466.25 Q704.5938,466.25 703.3906,465.625 Q702.4063,465.125 701.7188,464.0625 Q701.0313,462.9844 701.0313,461.7031 L701.0313,460.5469 Q701.0313,459.2188 701.6406,458.0781 Q702.2656,456.9219 703.3594,456.3125 Q704.4531,455.6875 705.6875,455.6875 Q706.4219,455.6875 707.0625,455.8594 Q707.7188,456.0156 708.2656,456.375 Z " fill="#000000"/><text fill="#000000" font-family="sans-serif" font-size="12" lengthAdjust="spacing" textLength="111" x="719.5" y="465.4102">PasswordGenerator</text><line style="stroke:#A80036;stroke-width:1.5;" x1="691.5" x2="832.5" y1="476.5" y2="476.5"/><line style="stroke:#A80036;stroke-width:1.5;" x1="691.5" x2="832.5" y1="484.5" y2="484.5"/><text fill="#000000" font-family="sans-serif" font-size="11" lengthAdjust="spacing" textLength="107" x="696.5" y="499.9189">+generatePassword()</text><!--MD5=[dbd744789a27dfb7a38205596e031569]
class EmailSender--><rect codeLine="62" fill="#FEFECE" filter="url(#f9sg573nch3xi)" height="61.8359" id="EmailSender" style="stroke:#A80036;stroke-width:1.5;" width="176" x="869" y="444.5"/><ellipse cx="916.75" cy="460.5" fill="#ADD1B2" rx="11" ry="11" style="stroke:#A80036;stroke-width:1.0;"/><path d="M919.5156,456.375 Q919.6719,456.1563 919.8594,456.0469 Q920.0469,455.9375 920.2656,455.9375 Q920.6406,455.9375 920.875,456.2031 Q921.1094,456.4531 921.1094,457.0625 L921.1094,458.5156 Q921.1094,459.125 920.875,459.3906 Q920.6406,459.6563 920.2656,459.6563 Q919.9219,459.6563 919.7188,459.4531 Q919.5156,459.2656 919.4063,458.75 Q919.3594,458.3906 919.1719,458.2031 Q918.8438,457.8281 918.2344,457.6094 Q917.625,457.3906 917,457.3906 Q916.2344,457.3906 915.5938,457.7188 Q914.9688,458.0469 914.4688,458.7969 Q913.9844,459.5469 913.9844,460.5781 L913.9844,461.6719 Q913.9844,462.9063 914.875,463.7344 Q915.7656,464.5469 917.3594,464.5469 Q918.2969,464.5469 918.9531,464.2969 Q919.3438,464.1406 919.7656,463.7031 Q920.0313,463.4375 920.1719,463.3594 Q920.3281,463.2813 920.5313,463.2813 Q920.8594,463.2813 921.1094,463.5469 Q921.375,463.7969 921.375,464.1406 Q921.375,464.4844 921.0313,464.8906 Q920.5313,465.4688 919.7344,465.7969 Q918.6563,466.25 917.3594,466.25 Q915.8438,466.25 914.6406,465.625 Q913.6563,465.125 912.9688,464.0625 Q912.2813,462.9844 912.2813,461.7031 L912.2813,460.5469 Q912.2813,459.2188 912.8906,458.0781 Q913.5156,456.9219 914.6094,456.3125 Q915.7031,455.6875 916.9375,455.6875 Q917.6719,455.6875 918.3125,455.8594 Q918.9688,456.0156 919.5156,456.375 Z " fill="#000000"/><text fill="#000000" font-family="sans-serif" font-size="12" lengthAdjust="spacing" textLength="72" x="937.25" y="465.4102">EmailSender</text><line style="stroke:#A80036;stroke-width:1.5;" x1="870" x2="1044" y1="476.5" y2="476.5"/><line style="stroke:#A80036;stroke-width:1.5;" x1="870" x2="1044" y1="484.5" y2="484.5"/><text fill="#000000" font-family="sans-serif" font-size="11" lengthAdjust="spacing" textLength="164" x="875" y="499.9189">+sendPasswordEmail(email, pwd)</text><!--MD5=[1a8aa2b864b87f860d28abceaa28b7a5]
link Company to SNSUser--><path codeLine="69" d="M202.91,534.28 C217.58,556.64 234.73,582.77 250.94,607.49 " fill="none" id="Company-to-SNSUser" style="stroke:#A80036;stroke-width:1.0;"/><polygon fill="#A80036" points="253.75,611.76,252.1628,602.0399,251.0095,607.5779,245.4715,606.4246,253.75,611.76" style="stroke:#A80036;stroke-width:1.0;"/><text fill="#000000" font-family="sans-serif" font-size="13" lengthAdjust="spacing" textLength="37" x="235" y="578.4951">knows</text><text fill="#000000" font-family="sans-serif" font-size="13" lengthAdjust="spacing" textLength="7" x="199.8887" y="555.5065">1</text><text fill="#000000" font-family="sans-serif" font-size="13" lengthAdjust="spacing" textLength="5" x="243.7012" y="601.149">*</text><!--MD5=[438f3eafa26f7112fe5a933ad6336f95]
link RegisterSNSUserController to Company--><path codeLine="73" d="M232.13,192.28 C219.31,246.18 195.43,346.58 179.88,411.95 " fill="none" id="RegisterSNSUserController-to-Company" style="stroke:#A80036;stroke-width:1.0;stroke-dasharray:7.0,7.0;"/><polygon fill="#A80036" points="178.68,416.99,184.6568,409.162,179.8387,412.1261,176.8746,407.308,178.68,416.99" style="stroke:#A80036;stroke-width:1.0;"/><!--MD5=[0bcaa71e02c8efafcfe6caf7b265febc]
link RegisterSNSUserController to UserStore--><path codeLine="76" d="M319.18,192.09 C359.1,211.03 408.18,234.32 451.13,254.69 " fill="none" id="RegisterSNSUserController-to-UserStore" style="stroke:#A80036;stroke-width:1.0;stroke-dasharray:7.0,7.0;"/><polygon fill="#A80036" points="455.8,256.91,449.3757,249.4449,451.2804,254.7714,445.9539,256.6762,455.8,256.91" style="stroke:#A80036;stroke-width:1.0;"/><!--MD5=[7bf6f1c174ef2382ab748189587a16d6]
link RegisterSNSUserUI to RegisterSNSUserController--><path codeLine="79" d="M241,55.04 C241,70.71 241,91.91 241,110.58 " fill="none" id="RegisterSNSUserUI-to-RegisterSNSUserController" style="stroke:#A80036;stroke-width:1.0;stroke-dasharray:7.0,7.0;"/><polygon fill="#A80036" points="241,115.77,245,106.77,241,110.77,237,106.77,241,115.77" style="stroke:#A80036;stroke-width:1.0;"/><!--MD5=[f51b69263ffc056cc84c9ec54d5aea1b]
link SNSUser to User--><path codeLine="81" d="M391.21,785.05 C409.98,804.82 429.42,825.31 446.44,843.24 " fill="none" id="SNSUser-to-User" style="stroke:#A80036;stroke-width:1.0;"/><polygon fill="none" points="451.7,838.61,460.4,857.94,441.55,848.25,451.7,838.61" style="stroke:#A80036;stroke-width:1.0;"/><!--MD5=[d1e0f6ecc4becbdb384d024f9b519f21]
link UserStore to User--><path codeLine="83" d="M580.33,356.03 C588.67,374.68 596.82,396.31 601,417 C633.68,578.67 606.01,628.81 553,785 C546.6,803.84 537.59,823.52 528.66,841.01 " fill="none" id="UserStore-to-User" style="stroke:#A80036;stroke-width:1.0;stroke-dasharray:7.0,7.0;"/><polygon fill="#A80036" points="526.14,845.88,533.8298,839.7264,528.4387,841.4397,526.7254,836.0486,526.14,845.88" style="stroke:#A80036;stroke-width:1.0;"/><!--MD5=[373daf46d70a53d867ce2fe5ee3cfdcc]
link UserStore to Company--><path codeLine="84" d="M455.84,348.15 C409.4,368.32 353.15,392.76 302.54,414.74 " fill="none" id="UserStore-to-Company" style="stroke:#A80036;stroke-width:1.0;stroke-dasharray:7.0,7.0;"/><polygon fill="#A80036" points="297.66,416.86,307.5086,416.9285,302.2431,414.8612,304.3105,409.5956,297.66,416.86" style="stroke:#A80036;stroke-width:1.0;"/><!--MD5=[ba7dd478e85e34f49ef47dc01dd33991]
link UserStore to AuthFacade--><path codeLine="85" d="M529.1,356.21 C519.33,376.09 508.1,398.97 498.12,419.27 " fill="none" id="UserStore-to-AuthFacade" style="stroke:#A80036;stroke-width:1.0;stroke-dasharray:7.0,7.0;"/><polygon fill="#A80036" points="495.89,423.83,503.4444,417.5109,498.0917,419.3408,496.2617,413.9882,495.89,423.83" style="stroke:#A80036;stroke-width:1.0;"/><!--MD5=[82a2d9b6609403e36ff4aafc102fce7a]
link UserStore to PasswordGenerator--><path codeLine="86" d="M624.51,356.08 C637.48,365.8 650.77,376.06 663,386 C684.28,403.31 707.17,423.65 725.57,440.46 " fill="none" id="UserStore-to-PasswordGenerator" style="stroke:#A80036;stroke-width:1.0;stroke-dasharray:7.0,7.0;"/><polygon fill="#A80036" points="729.67,444.21,725.729,435.184,725.9807,440.8353,720.3294,441.0869,729.67,444.21" style="stroke:#A80036;stroke-width:1.0;"/><!--MD5=[858114a5b303a6d92f6fc3cb104da910]
link UserStore to EmailSender--><path codeLine="87" d="M652.02,338.46 C710.58,359.1 785.99,387.33 851,417 C867.37,424.47 884.69,433.4 900.48,441.97 " fill="none" id="UserStore-to-EmailSender" style="stroke:#A80036;stroke-width:1.0;stroke-dasharray:7.0,7.0;"/><polygon fill="#A80036" points="904.89,444.38,898.9151,436.5506,900.5038,441.9797,895.0746,443.5685,904.89,444.38" style="stroke:#A80036;stroke-width:1.0;"/><!--MD5=[e1f1fcbbd1718f3183760817cb894915]
@startuml Class Diagram
skinparam classAttributeIconSize 0

' class ApplicationPOT {
'   + static getInstance()
'   + getCurrentSession()
' }

class AuthFacade {
  + existsUser(email)
  + addUserWithRole(name, email, pwd, roleId)
  + getUser(email)
  + getUsers()
}

class Company {
  - String designation
  + getAuthFacade()
  + getDesignation()
  + createUser(snsNumber, name, email, birthDay, phoneNumber)
  + validateUser(user)
}

' class Receptionist { }

class RegisterSNSUserController {
  + createSNSUser(snsNumber, name, birthDay, gender, phoneNumber, email)
  + saveSNSUser(user)
}

class RegisterSNSUserUI { }

class SNSUser {
  - String citizenCard
  - String snsNumber
  - String name
  - Date birthDay
  - Char gender
  - String phoneNumber
  - String email
  - String address
  + SNSUser(citizenCard, snsNumber, name, birthDay, gender, phoneNumber, email, address)
}

class User {
  - String name
  - String email
  - String pwd
  - String roleId
}

class UserStore {
  + createUser(name, email, pwd, roleId)
  + validateUser(user)
  + saveUser(user)
  + checkDuplicates(user)
}

class PasswordGenerator {
  + generatePassword()
}

class EmailSender {
  + sendPasswordEmail(email, pwd)
}


' AuthFacade ..> User

Company "1" - -> "*" SNSUser : knows
' Company ..> AuthFacade

' RegisterSNSUserController ..> ApplicationPOT
RegisterSNSUserController ..> Company
' RegisterSNSUserController ..> Receptionist
' RegisterSNSUserController ..> SNSUser
RegisterSNSUserController ..> UserStore
' RegisterSNSUserController ..> UserSession

RegisterSNSUserUI ..> RegisterSNSUserController

SNSUser - -|> User

UserStore ..> User
UserStore ..> Company
UserStore ..> AuthFacade
UserStore ..> PasswordGenerator
UserStore ..> EmailSender

@enduml

@startuml Class Diagram
skinparam classAttributeIconSize 0


class AuthFacade {
  + existsUser(email)
  + addUserWithRole(name, email, pwd, roleId)
  + getUser(email)
  + getUsers()
}

class Company {
  - String designation
  + getAuthFacade()
  + getDesignation()
  + createUser(snsNumber, name, email, birthDay, phoneNumber)
  + validateUser(user)
}


class RegisterSNSUserController {
  + createSNSUser(snsNumber, name, birthDay, gender, phoneNumber, email)
  + saveSNSUser(user)
}

class RegisterSNSUserUI { }

class SNSUser {
  - String citizenCard
  - String snsNumber
  - String name
  - Date birthDay
  - Char gender
  - String phoneNumber
  - String email
  - String address
  + SNSUser(citizenCard, snsNumber, name, birthDay, gender, phoneNumber, email, address)
}

class User {
  - String name
  - String email
  - String pwd
  - String roleId
}

class UserStore {
  + createUser(name, email, pwd, roleId)
  + validateUser(user)
  + saveUser(user)
  + checkDuplicates(user)
}

class PasswordGenerator {
  + generatePassword()
}

class EmailSender {
  + sendPasswordEmail(email, pwd)
}



Company "1" - -> "*" SNSUser : knows

RegisterSNSUserController ..> Company
RegisterSNSUserController ..> UserStore

RegisterSNSUserUI ..> RegisterSNSUserController

SNSUser - -|> User

UserStore ..> User
UserStore ..> Company
UserStore ..> AuthFacade
UserStore ..> PasswordGenerator
UserStore ..> EmailSender

@enduml

PlantUML version 1.2022.0(Tue Jan 11 16:16:42 WET 2022)
(GPL source distribution)
Java Runtime: Java(TM) SE Runtime Environment
JVM: Java HotSpot(TM) 64-Bit Server VM
Default Encoding: Cp1252
Language: pt
Country: PT
--></g></svg>