<?xml version="1.0" encoding="UTF-8" standalone="no"?><svg xmlns="http://www.w3.org/2000/svg" xmlns:xlink="http://www.w3.org/1999/xlink" contentScriptType="application/ecmascript" contentStyleType="text/css" height="726px" preserveAspectRatio="none" style="width:718px;height:726px;background:#FFFFFF;" version="1.1" viewBox="0 0 718 726" width="718px" zoomAndPan="magnify"><defs><filter height="300%" id="fin44quj6jqph" width="300%" x="-1" y="-1"><feGaussianBlur result="blurOut" stdDeviation="2.0"/><feColorMatrix in="blurOut" result="blurOut2" type="matrix" values="0 0 0 0 0 0 0 0 0 0 0 0 0 0 0 0 0 0 .4 0"/><feOffset dx="4.0" dy="4.0" in="blurOut2" result="blurOut3"/><feBlend in="SourceGraphic" in2="blurOut3" mode="normal"/></filter></defs><g><!--MD5=[e45a4727c47b726c25e081782e8bc183]
class ApplicationPOT--><rect codeLine="3" fill="#FEFECE" filter="url(#fin44quj6jqph)" height="73.6094" id="ApplicationPOT" style="stroke:#A80036;stroke-width:1.5;" width="136" x="7" y="257"/><ellipse cx="26.95" cy="273" fill="#ADD1B2" rx="11" ry="11" style="stroke:#A80036;stroke-width:1.0;"/><path d="M29.9188,278.6406 Q29.3406,278.9375 28.7,279.0781 Q28.0594,279.2344 27.3563,279.2344 Q24.8563,279.2344 23.5281,277.5938 Q22.2156,275.9375 22.2156,272.8125 Q22.2156,269.6875 23.5281,268.0313 Q24.8563,266.375 27.3563,266.375 Q28.0594,266.375 28.7,266.5313 Q29.3563,266.6875 29.9188,266.9844 L29.9188,269.7031 Q29.2938,269.125 28.7,268.8594 Q28.1063,268.5781 27.4813,268.5781 Q26.1375,268.5781 25.45,269.6563 Q24.7625,270.7188 24.7625,272.8125 Q24.7625,274.9063 25.45,275.9844 Q26.1375,277.0469 27.4813,277.0469 Q28.1063,277.0469 28.7,276.7813 Q29.2938,276.5 29.9188,275.9219 L29.9188,278.6406 Z " fill="#000000"/><text fill="#000000" font-family="sans-serif" font-size="12" lengthAdjust="spacing" textLength="93" x="42.05" y="277.1543">ApplicationPOT</text><line style="stroke:#A80036;stroke-width:1.5;" x1="8" x2="142" y1="289" y2="289"/><line style="stroke:#A80036;stroke-width:1.5;" x1="8" x2="142" y1="297" y2="297"/><text fill="#000000" font-family="sans-serif" font-size="11" lengthAdjust="spacing" textLength="118" x="13" y="311.2104">+static getInstance()</text><text fill="#000000" font-family="sans-serif" font-size="11" lengthAdjust="spacing" textLength="124" x="13" y="324.0151">+getCurrentSession()</text><!--MD5=[02e4b9b7573f1156f41e60aa5b4e25a4]
class Company--><rect codeLine="8" fill="#FEFECE" filter="url(#fin44quj6jqph)" height="86.4141" id="Company" style="stroke:#A80036;stroke-width:1.5;" width="385" x="178.5" y="251"/><ellipse cx="338.25" cy="267" fill="#ADD1B2" rx="11" ry="11" style="stroke:#A80036;stroke-width:1.0;"/><path d="M341.2188,272.6406 Q340.6406,272.9375 340,273.0781 Q339.3594,273.2344 338.6563,273.2344 Q336.1563,273.2344 334.8281,271.5938 Q333.5156,269.9375 333.5156,266.8125 Q333.5156,263.6875 334.8281,262.0313 Q336.1563,260.375 338.6563,260.375 Q339.3594,260.375 340,260.5313 Q340.6563,260.6875 341.2188,260.9844 L341.2188,263.7031 Q340.5938,263.125 340,262.8594 Q339.4063,262.5781 338.7813,262.5781 Q337.4375,262.5781 336.75,263.6563 Q336.0625,264.7188 336.0625,266.8125 Q336.0625,268.9063 336.75,269.9844 Q337.4375,271.0469 338.7813,271.0469 Q339.4063,271.0469 340,270.7813 Q340.5938,270.5 341.2188,269.9219 L341.2188,272.6406 Z " fill="#000000"/><text fill="#000000" font-family="sans-serif" font-size="12" lengthAdjust="spacing" textLength="57" x="358.75" y="271.1543">Company</text><line style="stroke:#A80036;stroke-width:1.5;" x1="179.5" x2="562.5" y1="283" y2="283"/><text fill="#000000" font-family="sans-serif" font-size="11" lengthAdjust="spacing" textLength="108" x="184.5" y="297.2104">-String designation</text><line style="stroke:#A80036;stroke-width:1.5;" x1="179.5" x2="562.5" y1="303.8047" y2="303.8047"/><text fill="#000000" font-family="sans-serif" font-size="11" lengthAdjust="spacing" textLength="114" x="184.5" y="318.0151">+validateUser(user)</text><text fill="#000000" font-family="sans-serif" font-size="11" lengthAdjust="spacing" textLength="373" x="184.5" y="330.8198">+createUser(snsNumber, name, email, birthDate, phoneNumber)</text><!--MD5=[be89e96fded54ba83d4eaa5710b97d82]
class RegisterSNSUserController--><rect codeLine="14" fill="#FEFECE" filter="url(#fin44quj6jqph)" height="73.6094" id="RegisterSNSUserController" style="stroke:#A80036;stroke-width:1.5;" width="199" x="271.5" y="116"/><ellipse cx="286.5" cy="132" fill="#ADD1B2" rx="11" ry="11" style="stroke:#A80036;stroke-width:1.0;"/><path d="M289.4688,137.6406 Q288.8906,137.9375 288.25,138.0781 Q287.6094,138.2344 286.9063,138.2344 Q284.4063,138.2344 283.0781,136.5938 Q281.7656,134.9375 281.7656,131.8125 Q281.7656,128.6875 283.0781,127.0313 Q284.4063,125.375 286.9063,125.375 Q287.6094,125.375 288.25,125.5313 Q288.9063,125.6875 289.4688,125.9844 L289.4688,128.7031 Q288.8438,128.125 288.25,127.8594 Q287.6563,127.5781 287.0313,127.5781 Q285.6875,127.5781 285,128.6563 Q284.3125,129.7188 284.3125,131.8125 Q284.3125,133.9063 285,134.9844 Q285.6875,136.0469 287.0313,136.0469 Q287.6563,136.0469 288.25,135.7813 Q288.8438,135.5 289.4688,134.9219 L289.4688,137.6406 Z " fill="#000000"/><text fill="#000000" font-family="sans-serif" font-size="12" lengthAdjust="spacing" textLength="167" x="300.5" y="136.1543">RegisterSNSUserController</text><line style="stroke:#A80036;stroke-width:1.5;" x1="272.5" x2="469.5" y1="148" y2="148"/><line style="stroke:#A80036;stroke-width:1.5;" x1="272.5" x2="469.5" y1="156" y2="156"/><text fill="#000000" font-family="sans-serif" font-size="11" lengthAdjust="spacing" textLength="69" x="277.5" y="170.2104">+getUsers()</text><text fill="#000000" font-family="sans-serif" font-size="11" lengthAdjust="spacing" textLength="98" x="277.5" y="183.0151">+getUser(userId)</text><!--MD5=[e51f1aa3cba897edd46f2fedbd5a5cd6]
class RegisterSNSUserUI--><rect codeLine="19" fill="#FEFECE" filter="url(#fin44quj6jqph)" height="48" id="RegisterSNSUserUI" style="stroke:#A80036;stroke-width:1.5;" width="150" x="296" y="7"/><ellipse cx="311" cy="23" fill="#ADD1B2" rx="11" ry="11" style="stroke:#A80036;stroke-width:1.0;"/><path d="M313.9688,28.6406 Q313.3906,28.9375 312.75,29.0781 Q312.1094,29.2344 311.4063,29.2344 Q308.9063,29.2344 307.5781,27.5938 Q306.2656,25.9375 306.2656,22.8125 Q306.2656,19.6875 307.5781,18.0313 Q308.9063,16.375 311.4063,16.375 Q312.1094,16.375 312.75,16.5313 Q313.4063,16.6875 313.9688,16.9844 L313.9688,19.7031 Q313.3438,19.125 312.75,18.8594 Q312.1563,18.5781 311.5313,18.5781 Q310.1875,18.5781 309.5,19.6563 Q308.8125,20.7188 308.8125,22.8125 Q308.8125,24.9063 309.5,25.9844 Q310.1875,27.0469 311.5313,27.0469 Q312.1563,27.0469 312.75,26.7813 Q313.3438,26.5 313.9688,25.9219 L313.9688,28.6406 Z " fill="#000000"/><text fill="#000000" font-family="sans-serif" font-size="12" lengthAdjust="spacing" textLength="118" x="325" y="27.1543">RegisterSNSUserUI</text><line style="stroke:#A80036;stroke-width:1.5;" x1="297" x2="445" y1="39" y2="39"/><line style="stroke:#A80036;stroke-width:1.5;" x1="297" x2="445" y1="47" y2="47"/><!--MD5=[72be06cc7ae02ccc98efe28a50e62246]
class SNSUser--><rect codeLine="21" fill="#FEFECE" filter="url(#fin44quj6jqph)" height="137.6328" id="SNSUser" style="stroke:#A80036;stroke-width:1.5;" width="421" x="283.5" y="414"/><ellipse cx="462.75" cy="430" fill="#ADD1B2" rx="11" ry="11" style="stroke:#A80036;stroke-width:1.0;"/><path d="M465.7188,435.6406 Q465.1406,435.9375 464.5,436.0781 Q463.8594,436.2344 463.1563,436.2344 Q460.6563,436.2344 459.3281,434.5938 Q458.0156,432.9375 458.0156,429.8125 Q458.0156,426.6875 459.3281,425.0313 Q460.6563,423.375 463.1563,423.375 Q463.8594,423.375 464.5,423.5313 Q465.1563,423.6875 465.7188,423.9844 L465.7188,426.7031 Q465.0938,426.125 464.5,425.8594 Q463.9063,425.5781 463.2813,425.5781 Q461.9375,425.5781 461.25,426.6563 Q460.5625,427.7188 460.5625,429.8125 Q460.5625,431.9063 461.25,432.9844 Q461.9375,434.0469 463.2813,434.0469 Q463.9063,434.0469 464.5,433.7813 Q465.0938,433.5 465.7188,432.9219 L465.7188,435.6406 Z " fill="#000000"/><text fill="#000000" font-family="sans-serif" font-size="12" lengthAdjust="spacing" textLength="54" x="483.25" y="434.1543">SNSUser</text><line style="stroke:#A80036;stroke-width:1.5;" x1="284.5" x2="703.5" y1="446" y2="446"/><text fill="#000000" font-family="sans-serif" font-size="11" lengthAdjust="spacing" textLength="108" x="289.5" y="460.2104">-String snsNumber</text><text fill="#000000" font-family="sans-serif" font-size="11" lengthAdjust="spacing" textLength="74" x="289.5" y="473.0151">-String name</text><text fill="#000000" font-family="sans-serif" font-size="11" lengthAdjust="spacing" textLength="86" x="289.5" y="485.8198">-Date birthDate</text><text fill="#000000" font-family="sans-serif" font-size="11" lengthAdjust="spacing" textLength="75" x="289.5" y="498.6245">-Char gender</text><text fill="#000000" font-family="sans-serif" font-size="11" lengthAdjust="spacing" textLength="122" x="289.5" y="511.4292">-String phoneNumber</text><text fill="#000000" font-family="sans-serif" font-size="11" lengthAdjust="spacing" textLength="73" x="289.5" y="524.2339">-String email</text><line style="stroke:#A80036;stroke-width:1.5;" x1="284.5" x2="703.5" y1="530.8281" y2="530.8281"/><text fill="#000000" font-family="sans-serif" font-size="11" lengthAdjust="spacing" textLength="409" x="289.5" y="545.0386">+SNSUser(snsNumber, name, birthDate, gender, phoneNumber, email)</text><!--MD5=[3fd616f346a44cd59a91eb10b19e157c]
class User--><rect codeLine="31" fill="#FEFECE" filter="url(#fin44quj6jqph)" height="99.2188" id="User" style="stroke:#A80036;stroke-width:1.5;" width="86" x="451" y="613"/><ellipse cx="477.7" cy="629" fill="#B4A7E5" rx="11" ry="11" style="stroke:#A80036;stroke-width:1.0;"/><path d="M473.6219,624.7656 L473.6219,622.6094 L481.0125,622.6094 L481.0125,624.7656 L478.5438,624.7656 L478.5438,632.8438 L481.0125,632.8438 L481.0125,635 L473.6219,635 L473.6219,632.8438 L476.0906,632.8438 L476.0906,624.7656 L473.6219,624.7656 Z " fill="#000000"/><text fill="#000000" font-family="sans-serif" font-size="12" font-style="italic" lengthAdjust="spacing" textLength="28" x="494.3" y="633.1543">User</text><line style="stroke:#A80036;stroke-width:1.5;" x1="452" x2="536" y1="645" y2="645"/><text fill="#000000" font-family="sans-serif" font-size="11" lengthAdjust="spacing" textLength="74" x="457" y="659.2104">-String name</text><text fill="#000000" font-family="sans-serif" font-size="11" lengthAdjust="spacing" textLength="73" x="457" y="672.0151">-String email</text><text fill="#000000" font-family="sans-serif" font-size="11" lengthAdjust="spacing" textLength="65" x="457" y="684.8198">-String pwd</text><text fill="#000000" font-family="sans-serif" font-size="11" lengthAdjust="spacing" textLength="74" x="457" y="697.6245">-String roleId</text><line style="stroke:#A80036;stroke-width:1.5;" x1="452" x2="536" y1="704.2188" y2="704.2188"/><!--MD5=[1a8aa2b864b87f860d28abceaa28b7a5]
link Company to SNSUser--><path codeLine="42" d="M398.91,337.43 C412.91,358.72 430.27,385.11 446.3,409.49 " fill="none" id="Company-to-SNSUser" style="stroke:#A80036;stroke-width:1.0;"/><polygon fill="#A80036" points="449.07,413.7,447.4828,403.9799,446.3295,409.5179,440.7915,408.3646,449.07,413.7" style="stroke:#A80036;stroke-width:1.0;"/><text fill="#000000" font-family="sans-serif" font-size="13" lengthAdjust="spacing" textLength="39" x="430" y="380.0669">knows</text><text fill="#000000" font-family="sans-serif" font-size="13" lengthAdjust="spacing" textLength="8" x="394.7207" y="357.5915">1</text><text fill="#000000" font-family="sans-serif" font-size="13" lengthAdjust="spacing" textLength="7" x="437.0757" y="402.8727">*</text><!--MD5=[698a69afb6a8d6b66a34374969757bba]
link RegisterSNSUserController to ApplicationPOT--><path codeLine="44" d="M291.53,190.22 C252.17,208.28 203.99,230.58 161,251 C156.61,253.09 152.1,255.24 147.56,257.43 " fill="none" id="RegisterSNSUserController-to-ApplicationPOT" style="stroke:#A80036;stroke-width:1.0;stroke-dasharray:7.0,7.0;"/><polygon fill="#A80036" points="143,259.62,152.8444,259.3234,147.5058,257.4526,149.3766,252.1141,143,259.62" style="stroke:#A80036;stroke-width:1.0;"/><!--MD5=[438f3eafa26f7112fe5a933ad6336f95]
link RegisterSNSUserController to Company--><path codeLine="45" d="M371,190.16 C371,207.14 371,227.61 371,245.8 " fill="none" id="RegisterSNSUserController-to-Company" style="stroke:#A80036;stroke-width:1.0;stroke-dasharray:7.0,7.0;"/><polygon fill="#A80036" points="371,250.86,375,241.86,371,245.86,367,241.86,371,250.86" style="stroke:#A80036;stroke-width:1.0;"/><!--MD5=[b863452b465c122da136545eb0fe4494]
link RegisterSNSUserController to SNSUser--><path codeLine="46" d="M470.66,174.92 C512.18,189.08 556.39,212.52 581,251 C612.38,300.06 585.93,362.13 554.2,409.57 " fill="none" id="RegisterSNSUserController-to-SNSUser" style="stroke:#A80036;stroke-width:1.0;stroke-dasharray:7.0,7.0;"/><polygon fill="#A80036" points="551.31,413.83,559.6637,408.6132,554.1098,409.6874,553.0356,404.1335,551.31,413.83" style="stroke:#A80036;stroke-width:1.0;"/><!--MD5=[7bf6f1c174ef2382ab748189587a16d6]
link RegisterSNSUserUI to RegisterSNSUserController--><path codeLine="49" d="M371,55.14 C371,70.83 371,92 371,110.55 " fill="none" id="RegisterSNSUserUI-to-RegisterSNSUserController" style="stroke:#A80036;stroke-width:1.0;stroke-dasharray:7.0,7.0;"/><polygon fill="#A80036" points="371,115.71,375,106.71,371,110.71,367,106.71,371,115.71" style="stroke:#A80036;stroke-width:1.0;"/><!--MD5=[f51b69263ffc056cc84c9ec54d5aea1b]
link SNSUser to User--><path codeLine="51" d="M494,552.12 C494,565.4 494,579.33 494,592.64 " fill="none" id="SNSUser-to-User" style="stroke:#A80036;stroke-width:1.0;"/><polygon fill="none" points="501,592.84,494,612.84,487,592.84,501,592.84" style="stroke:#A80036;stroke-width:1.0;"/><!--MD5=[a93b9bc5f82f4f080eba2e1a31470386]
@startuml Class Diagram
skinparam classAttributeIconSize 0

class ApplicationPOT {
  + static getInstance()
  + getCurrentSession()
}

class Company {
  - String designation
  + validateUser(user)
  + createUser(snsNumber, name, email, birthDate, phoneNumber)
}

class RegisterSNSUserController {
  + getUsers()
  + getUser(userId)
}

class RegisterSNSUserUI { }

class SNSUser {
  - String snsNumber
  - String name
  - Date birthDate
  - Char gender
  - String phoneNumber
  - String email
  + SNSUser(snsNumber, name, birthDate, gender, phoneNumber, email)
}

interface User {
  - String name
  - String email
  - String pwd
  - String roleId
}

' class UserSession {
'   + getUserEmail()
' }

Company "1" - -> "*" SNSUser : knows

RegisterSNSUserController ..> ApplicationPOT
RegisterSNSUserController ..> Company
RegisterSNSUserController ..> SNSUser
' RegisterSNSUserController ..> UserSession

RegisterSNSUserUI ..> RegisterSNSUserController

SNSUser - -|> User

@enduml

@startuml Class Diagram
skinparam classAttributeIconSize 0

class ApplicationPOT {
  + static getInstance()
  + getCurrentSession()
}

class Company {
  - String designation
  + validateUser(user)
  + createUser(snsNumber, name, email, birthDate, phoneNumber)
}

class RegisterSNSUserController {
  + getUsers()
  + getUser(userId)
}

class RegisterSNSUserUI { }

class SNSUser {
  - String snsNumber
  - String name
  - Date birthDate
  - Char gender
  - String phoneNumber
  - String email
  + SNSUser(snsNumber, name, birthDate, gender, phoneNumber, email)
}

interface User {
  - String name
  - String email
  - String pwd
  - String roleId
}


Company "1" - -> "*" SNSUser : knows

RegisterSNSUserController ..> ApplicationPOT
RegisterSNSUserController ..> Company
RegisterSNSUserController ..> SNSUser

RegisterSNSUserUI ..> RegisterSNSUserController

SNSUser - -|> User

@enduml

PlantUML version 1.2022.0(Tue Jan 11 16:16:42 WET 2022)
(GPL source distribution)
Java Runtime: OpenJDK Runtime Environment
JVM: OpenJDK 64-Bit Server VM
Default Encoding: UTF-8
Language: en
Country: US
--></g></svg>