<?xml version="1.0" encoding="UTF-8" standalone="no"?><svg xmlns="http://www.w3.org/2000/svg" xmlns:xlink="http://www.w3.org/1999/xlink" contentScriptType="application/ecmascript" contentStyleType="text/css" height="545px" preserveAspectRatio="none" style="width:889px;height:545px;background:#FFFFFF;" version="1.1" viewBox="0 0 889 545" width="889px" zoomAndPan="magnify"><defs><filter height="300%" id="f1oq8ujahjlmd6" width="300%" x="-1" y="-1"><feGaussianBlur result="blurOut" stdDeviation="2.0"/><feColorMatrix in="blurOut" result="blurOut2" type="matrix" values="0 0 0 0 0 0 0 0 0 0 0 0 0 0 0 0 0 0 .4 0"/><feOffset dx="4.0" dy="4.0" in="blurOut2" result="blurOut3"/><feBlend in="SourceGraphic" in2="blurOut3" mode="normal"/></filter></defs><g><!--MD5=[e45a4727c47b726c25e081782e8bc183]
class ApplicationPOT--><rect codeLine="3" fill="#FEFECE" filter="url(#f1oq8ujahjlmd6)" height="75.6719" id="ApplicationPOT" style="stroke:#A80036;stroke-width:1.5;" width="116" x="7" y="278.5"/><ellipse cx="22" cy="294.5" fill="#ADD1B2" rx="11" ry="11" style="stroke:#A80036;stroke-width:1.0;"/><path d="M24.7656,290.375 Q24.9219,290.1563 25.1094,290.0469 Q25.2969,289.9375 25.5156,289.9375 Q25.8906,289.9375 26.125,290.2031 Q26.3594,290.4531 26.3594,291.0625 L26.3594,292.5156 Q26.3594,293.125 26.125,293.3906 Q25.8906,293.6563 25.5156,293.6563 Q25.1719,293.6563 24.9688,293.4531 Q24.7656,293.2656 24.6563,292.75 Q24.6094,292.3906 24.4219,292.2031 Q24.0938,291.8281 23.4844,291.6094 Q22.875,291.3906 22.25,291.3906 Q21.4844,291.3906 20.8438,291.7188 Q20.2188,292.0469 19.7188,292.7969 Q19.2344,293.5469 19.2344,294.5781 L19.2344,295.6719 Q19.2344,296.9063 20.125,297.7344 Q21.0156,298.5469 22.6094,298.5469 Q23.5469,298.5469 24.2031,298.2969 Q24.5938,298.1406 25.0156,297.7031 Q25.2813,297.4375 25.4219,297.3594 Q25.5781,297.2813 25.7813,297.2813 Q26.1094,297.2813 26.3594,297.5469 Q26.625,297.7969 26.625,298.1406 Q26.625,298.4844 26.2813,298.8906 Q25.7813,299.4688 24.9844,299.7969 Q23.9063,300.25 22.6094,300.25 Q21.0938,300.25 19.8906,299.625 Q18.9063,299.125 18.2188,298.0625 Q17.5313,296.9844 17.5313,295.7031 L17.5313,294.5469 Q17.5313,293.2188 18.1406,292.0781 Q18.7656,290.9219 19.8594,290.3125 Q20.9531,289.6875 22.1875,289.6875 Q22.9219,289.6875 23.5625,289.8594 Q24.2188,290.0156 24.7656,290.375 Z " fill="#000000"/><text fill="#000000" font-family="sans-serif" font-size="12" lengthAdjust="spacing" textLength="84" x="36" y="299.4102">ApplicationPOT</text><line style="stroke:#A80036;stroke-width:1.5;" x1="8" x2="122" y1="310.5" y2="310.5"/><line style="stroke:#A80036;stroke-width:1.5;" x1="8" x2="122" y1="318.5" y2="318.5"/><text fill="#000000" font-family="sans-serif" font-size="11" lengthAdjust="spacing" textLength="99" x="13" y="333.9189">+static getInstance()</text><text fill="#000000" font-family="sans-serif" font-size="11" lengthAdjust="spacing" textLength="104" x="13" y="347.7549">+getCurrentSession()</text><!--MD5=[02e4b9b7573f1156f41e60aa5b4e25a4]
class Company--><rect codeLine="8" fill="#FEFECE" filter="url(#f1oq8ujahjlmd6)" height="89.5078" id="Company" style="stroke:#A80036;stroke-width:1.5;" width="319" x="158.5" y="271.5"/><ellipse cx="287.25" cy="287.5" fill="#ADD1B2" rx="11" ry="11" style="stroke:#A80036;stroke-width:1.0;"/><path d="M290.0156,283.375 Q290.1719,283.1563 290.3594,283.0469 Q290.5469,282.9375 290.7656,282.9375 Q291.1406,282.9375 291.375,283.2031 Q291.6094,283.4531 291.6094,284.0625 L291.6094,285.5156 Q291.6094,286.125 291.375,286.3906 Q291.1406,286.6563 290.7656,286.6563 Q290.4219,286.6563 290.2188,286.4531 Q290.0156,286.2656 289.9063,285.75 Q289.8594,285.3906 289.6719,285.2031 Q289.3438,284.8281 288.7344,284.6094 Q288.125,284.3906 287.5,284.3906 Q286.7344,284.3906 286.0938,284.7188 Q285.4688,285.0469 284.9688,285.7969 Q284.4844,286.5469 284.4844,287.5781 L284.4844,288.6719 Q284.4844,289.9063 285.375,290.7344 Q286.2656,291.5469 287.8594,291.5469 Q288.7969,291.5469 289.4531,291.2969 Q289.8438,291.1406 290.2656,290.7031 Q290.5313,290.4375 290.6719,290.3594 Q290.8281,290.2813 291.0313,290.2813 Q291.3594,290.2813 291.6094,290.5469 Q291.875,290.7969 291.875,291.1406 Q291.875,291.4844 291.5313,291.8906 Q291.0313,292.4688 290.2344,292.7969 Q289.1563,293.25 287.8594,293.25 Q286.3438,293.25 285.1406,292.625 Q284.1563,292.125 283.4688,291.0625 Q282.7813,289.9844 282.7813,288.7031 L282.7813,287.5469 Q282.7813,286.2188 283.3906,285.0781 Q284.0156,283.9219 285.1094,283.3125 Q286.2031,282.6875 287.4375,282.6875 Q288.1719,282.6875 288.8125,282.8594 Q289.4688,283.0156 290.0156,283.375 Z " fill="#000000"/><text fill="#000000" font-family="sans-serif" font-size="12" lengthAdjust="spacing" textLength="53" x="307.75" y="292.4102">Company</text><line style="stroke:#A80036;stroke-width:1.5;" x1="159.5" x2="476.5" y1="303.5" y2="303.5"/><text fill="#000000" font-family="sans-serif" font-size="11" lengthAdjust="spacing" textLength="90" x="164.5" y="318.9189">-String designation</text><line style="stroke:#A80036;stroke-width:1.5;" x1="159.5" x2="476.5" y1="325.3359" y2="325.3359"/><text fill="#000000" font-family="sans-serif" font-size="11" lengthAdjust="spacing" textLength="96" x="164.5" y="340.7549">+validateUser(user)</text><text fill="#000000" font-family="sans-serif" font-size="11" lengthAdjust="spacing" textLength="307" x="164.5" y="354.5908">+createUser(snsNumber, name, email, birthDate, phoneNumber)</text><!--MD5=[be89e96fded54ba83d4eaa5710b97d82]
class RegisterSNSUserController--><rect codeLine="14" fill="#FEFECE" filter="url(#f1oq8ujahjlmd6)" height="75.6719" id="RegisterSNSUserController" style="stroke:#A80036;stroke-width:1.5;" width="185" x="225.5" y="115"/><ellipse cx="240.5" cy="131" fill="#ADD1B2" rx="11" ry="11" style="stroke:#A80036;stroke-width:1.0;"/><path d="M243.2656,126.875 Q243.4219,126.6563 243.6094,126.5469 Q243.7969,126.4375 244.0156,126.4375 Q244.3906,126.4375 244.625,126.7031 Q244.8594,126.9531 244.8594,127.5625 L244.8594,129.0156 Q244.8594,129.625 244.625,129.8906 Q244.3906,130.1563 244.0156,130.1563 Q243.6719,130.1563 243.4688,129.9531 Q243.2656,129.7656 243.1563,129.25 Q243.1094,128.8906 242.9219,128.7031 Q242.5938,128.3281 241.9844,128.1094 Q241.375,127.8906 240.75,127.8906 Q239.9844,127.8906 239.3438,128.2188 Q238.7188,128.5469 238.2188,129.2969 Q237.7344,130.0469 237.7344,131.0781 L237.7344,132.1719 Q237.7344,133.4063 238.625,134.2344 Q239.5156,135.0469 241.1094,135.0469 Q242.0469,135.0469 242.7031,134.7969 Q243.0938,134.6406 243.5156,134.2031 Q243.7813,133.9375 243.9219,133.8594 Q244.0781,133.7813 244.2813,133.7813 Q244.6094,133.7813 244.8594,134.0469 Q245.125,134.2969 245.125,134.6406 Q245.125,134.9844 244.7813,135.3906 Q244.2813,135.9688 243.4844,136.2969 Q242.4063,136.75 241.1094,136.75 Q239.5938,136.75 238.3906,136.125 Q237.4063,135.625 236.7188,134.5625 Q236.0313,133.4844 236.0313,132.2031 L236.0313,131.0469 Q236.0313,129.7188 236.6406,128.5781 Q237.2656,127.4219 238.3594,126.8125 Q239.4531,126.1875 240.6875,126.1875 Q241.4219,126.1875 242.0625,126.3594 Q242.7188,126.5156 243.2656,126.875 Z " fill="#000000"/><text fill="#000000" font-family="sans-serif" font-size="12" lengthAdjust="spacing" textLength="153" x="254.5" y="135.9102">RegisterSNSUserController</text><line style="stroke:#A80036;stroke-width:1.5;" x1="226.5" x2="409.5" y1="147" y2="147"/><line style="stroke:#A80036;stroke-width:1.5;" x1="226.5" x2="409.5" y1="155" y2="155"/><text fill="#000000" font-family="sans-serif" font-size="11" lengthAdjust="spacing" textLength="58" x="231.5" y="170.4189">+getUsers()</text><text fill="#000000" font-family="sans-serif" font-size="11" lengthAdjust="spacing" textLength="82" x="231.5" y="184.2549">+getUser(userId)</text><!--MD5=[e51f1aa3cba897edd46f2fedbd5a5cd6]
class RegisterSNSUserUI--><rect codeLine="19" fill="#FEFECE" filter="url(#f1oq8ujahjlmd6)" height="48" id="RegisterSNSUserUI" style="stroke:#A80036;stroke-width:1.5;" width="143" x="246.5" y="7"/><ellipse cx="261.5" cy="23" fill="#ADD1B2" rx="11" ry="11" style="stroke:#A80036;stroke-width:1.0;"/><path d="M264.2656,18.875 Q264.4219,18.6563 264.6094,18.5469 Q264.7969,18.4375 265.0156,18.4375 Q265.3906,18.4375 265.625,18.7031 Q265.8594,18.9531 265.8594,19.5625 L265.8594,21.0156 Q265.8594,21.625 265.625,21.8906 Q265.3906,22.1563 265.0156,22.1563 Q264.6719,22.1563 264.4688,21.9531 Q264.2656,21.7656 264.1563,21.25 Q264.1094,20.8906 263.9219,20.7031 Q263.5938,20.3281 262.9844,20.1094 Q262.375,19.8906 261.75,19.8906 Q260.9844,19.8906 260.3438,20.2188 Q259.7188,20.5469 259.2188,21.2969 Q258.7344,22.0469 258.7344,23.0781 L258.7344,24.1719 Q258.7344,25.4063 259.625,26.2344 Q260.5156,27.0469 262.1094,27.0469 Q263.0469,27.0469 263.7031,26.7969 Q264.0938,26.6406 264.5156,26.2031 Q264.7813,25.9375 264.9219,25.8594 Q265.0781,25.7813 265.2813,25.7813 Q265.6094,25.7813 265.8594,26.0469 Q266.125,26.2969 266.125,26.6406 Q266.125,26.9844 265.7813,27.3906 Q265.2813,27.9688 264.4844,28.2969 Q263.4063,28.75 262.1094,28.75 Q260.5938,28.75 259.3906,28.125 Q258.4063,27.625 257.7188,26.5625 Q257.0313,25.4844 257.0313,24.2031 L257.0313,23.0469 Q257.0313,21.7188 257.6406,20.5781 Q258.2656,19.4219 259.3594,18.8125 Q260.4531,18.1875 261.6875,18.1875 Q262.4219,18.1875 263.0625,18.3594 Q263.7188,18.5156 264.2656,18.875 Z " fill="#000000"/><text fill="#000000" font-family="sans-serif" font-size="12" lengthAdjust="spacing" textLength="111" x="275.5" y="27.9102">RegisterSNSUserUI</text><line style="stroke:#A80036;stroke-width:1.5;" x1="247.5" x2="388.5" y1="39" y2="39"/><line style="stroke:#A80036;stroke-width:1.5;" x1="247.5" x2="388.5" y1="47" y2="47"/><!--MD5=[72be06cc7ae02ccc98efe28a50e62246]
class SNSUser--><rect codeLine="21" fill="#FEFECE" filter="url(#f1oq8ujahjlmd6)" height="131.0156" id="SNSUser" style="stroke:#A80036;stroke-width:1.5;" width="363" x="512.5" y="251"/><ellipse cx="663.75" cy="267" fill="#ADD1B2" rx="11" ry="11" style="stroke:#A80036;stroke-width:1.0;"/><path d="M666.5156,262.875 Q666.6719,262.6563 666.8594,262.5469 Q667.0469,262.4375 667.2656,262.4375 Q667.6406,262.4375 667.875,262.7031 Q668.1094,262.9531 668.1094,263.5625 L668.1094,265.0156 Q668.1094,265.625 667.875,265.8906 Q667.6406,266.1563 667.2656,266.1563 Q666.9219,266.1563 666.7188,265.9531 Q666.5156,265.7656 666.4063,265.25 Q666.3594,264.8906 666.1719,264.7031 Q665.8438,264.3281 665.2344,264.1094 Q664.625,263.8906 664,263.8906 Q663.2344,263.8906 662.5938,264.2188 Q661.9688,264.5469 661.4688,265.2969 Q660.9844,266.0469 660.9844,267.0781 L660.9844,268.1719 Q660.9844,269.4063 661.875,270.2344 Q662.7656,271.0469 664.3594,271.0469 Q665.2969,271.0469 665.9531,270.7969 Q666.3438,270.6406 666.7656,270.2031 Q667.0313,269.9375 667.1719,269.8594 Q667.3281,269.7813 667.5313,269.7813 Q667.8594,269.7813 668.1094,270.0469 Q668.375,270.2969 668.375,270.6406 Q668.375,270.9844 668.0313,271.3906 Q667.5313,271.9688 666.7344,272.2969 Q665.6563,272.75 664.3594,272.75 Q662.8438,272.75 661.6406,272.125 Q660.6563,271.625 659.9688,270.5625 Q659.2813,269.4844 659.2813,268.2031 L659.2813,267.0469 Q659.2813,265.7188 659.8906,264.5781 Q660.5156,263.4219 661.6094,262.8125 Q662.7031,262.1875 663.9375,262.1875 Q664.6719,262.1875 665.3125,262.3594 Q665.9688,262.5156 666.5156,262.875 Z " fill="#000000"/><text fill="#000000" font-family="sans-serif" font-size="12" lengthAdjust="spacing" textLength="52" x="684.25" y="271.9102">SNSUser</text><line style="stroke:#A80036;stroke-width:1.5;" x1="513.5" x2="874.5" y1="283" y2="283"/><text fill="#000000" font-family="sans-serif" font-size="11" lengthAdjust="spacing" textLength="93" x="518.5" y="298.4189">-String SNSNumber</text><text fill="#000000" font-family="sans-serif" font-size="11" lengthAdjust="spacing" textLength="61" x="518.5" y="312.2549">-String name</text><text fill="#000000" font-family="sans-serif" font-size="11" lengthAdjust="spacing" textLength="72" x="518.5" y="326.0908">-Date birthDate</text><text fill="#000000" font-family="sans-serif" font-size="11" lengthAdjust="spacing" textLength="107" x="518.5" y="339.9268">-Integer phoneNumber</text><text fill="#000000" font-family="sans-serif" font-size="11" lengthAdjust="spacing" textLength="59" x="518.5" y="353.7627">-String email</text><line style="stroke:#A80036;stroke-width:1.5;" x1="513.5" x2="874.5" y1="360.1797" y2="360.1797"/><text fill="#000000" font-family="sans-serif" font-size="11" lengthAdjust="spacing" textLength="351" x="518.5" y="375.5986">+SNSUser(ref,designation,informalDesc,technicalDesc,duration,cost,cat)</text><!--MD5=[3fd616f346a44cd59a91eb10b19e157c]
class User--><rect codeLine="30" fill="#FEFECE" filter="url(#f1oq8ujahjlmd6)" height="89.5078" id="User" style="stroke:#A80036;stroke-width:1.5;" width="73" x="657.5" y="442"/><ellipse cx="678.8" cy="458" fill="#ADD1B2" rx="11" ry="11" style="stroke:#A80036;stroke-width:1.0;"/><path d="M681.5656,453.875 Q681.7219,453.6563 681.9094,453.5469 Q682.0969,453.4375 682.3156,453.4375 Q682.6906,453.4375 682.925,453.7031 Q683.1594,453.9531 683.1594,454.5625 L683.1594,456.0156 Q683.1594,456.625 682.925,456.8906 Q682.6906,457.1563 682.3156,457.1563 Q681.9719,457.1563 681.7688,456.9531 Q681.5656,456.7656 681.4563,456.25 Q681.4094,455.8906 681.2219,455.7031 Q680.8938,455.3281 680.2844,455.1094 Q679.675,454.8906 679.05,454.8906 Q678.2844,454.8906 677.6438,455.2188 Q677.0188,455.5469 676.5188,456.2969 Q676.0344,457.0469 676.0344,458.0781 L676.0344,459.1719 Q676.0344,460.4063 676.925,461.2344 Q677.8156,462.0469 679.4094,462.0469 Q680.3469,462.0469 681.0031,461.7969 Q681.3938,461.6406 681.8156,461.2031 Q682.0813,460.9375 682.2219,460.8594 Q682.3781,460.7813 682.5813,460.7813 Q682.9094,460.7813 683.1594,461.0469 Q683.425,461.2969 683.425,461.6406 Q683.425,461.9844 683.0813,462.3906 Q682.5813,462.9688 681.7844,463.2969 Q680.7063,463.75 679.4094,463.75 Q677.8938,463.75 676.6906,463.125 Q675.7063,462.625 675.0188,461.5625 Q674.3313,460.4844 674.3313,459.2031 L674.3313,458.0469 Q674.3313,456.7188 674.9406,455.5781 Q675.5656,454.4219 676.6594,453.8125 Q677.7531,453.1875 678.9875,453.1875 Q679.7219,453.1875 680.3625,453.3594 Q681.0188,453.5156 681.5656,453.875 Z " fill="#000000"/><text fill="#000000" font-family="sans-serif" font-size="12" lengthAdjust="spacing" textLength="27" x="694.2" y="462.9102">User</text><line style="stroke:#A80036;stroke-width:1.5;" x1="658.5" x2="729.5" y1="474" y2="474"/><text fill="#000000" font-family="sans-serif" font-size="11" lengthAdjust="spacing" textLength="61" x="663.5" y="489.4189">-String name</text><text fill="#000000" font-family="sans-serif" font-size="11" lengthAdjust="spacing" textLength="59" x="663.5" y="503.2549">-String email</text><text fill="#000000" font-family="sans-serif" font-size="11" lengthAdjust="spacing" textLength="57" x="663.5" y="517.0908">-String pwd</text><line style="stroke:#A80036;stroke-width:1.5;" x1="658.5" x2="729.5" y1="523.5078" y2="523.5078"/><!--MD5=[698a69afb6a8d6b66a34374969757bba]
link RegisterSNSUserController to ApplicationPOT--><path codeLine="40" d="M242.38,191.12 C210.24,207.98 172.9,229.06 141,251 C130.43,258.27 119.6,266.74 109.56,275.11 " fill="none" id="RegisterSNSUserController-to-ApplicationPOT" style="stroke:#A80036;stroke-width:1.0;stroke-dasharray:7.0,7.0;"/><polygon fill="#A80036" points="105.6,278.43,115.0648,275.7066,109.4294,275.215,109.9209,269.5796,105.6,278.43" style="stroke:#A80036;stroke-width:1.0;"/><!--MD5=[438f3eafa26f7112fe5a933ad6336f95]
link RegisterSNSUserController to Company--><path codeLine="41" d="M318,191.05 C318,213.4 318,242.13 318,266.35 " fill="none" id="RegisterSNSUserController-to-Company" style="stroke:#A80036;stroke-width:1.0;stroke-dasharray:7.0,7.0;"/><polygon fill="#A80036" points="318,271.45,322,262.45,318,266.45,314,262.45,318,271.45" style="stroke:#A80036;stroke-width:1.0;"/><!--MD5=[b863452b465c122da136545eb0fe4494]
link RegisterSNSUserController to SNSUser--><path codeLine="42" d="M404.26,191.05 C444.19,208.2 492.89,229.12 538.87,248.87 " fill="none" id="RegisterSNSUserController-to-SNSUser" style="stroke:#A80036;stroke-width:1.0;stroke-dasharray:7.0,7.0;"/><polygon fill="#A80036" points="543.6,250.9,536.9034,243.6781,539.0043,248.9304,533.752,251.0313,543.6,250.9" style="stroke:#A80036;stroke-width:1.0;"/><!--MD5=[7bf6f1c174ef2382ab748189587a16d6]
link RegisterSNSUserUI to RegisterSNSUserController--><path codeLine="45" d="M318,55.14 C318,70.58 318,91.33 318,109.67 " fill="none" id="RegisterSNSUserUI-to-RegisterSNSUserController" style="stroke:#A80036;stroke-width:1.0;stroke-dasharray:7.0,7.0;"/><polygon fill="#A80036" points="318,114.77,322,105.77,318,109.77,314,105.77,318,114.77" style="stroke:#A80036;stroke-width:1.0;"/><!--MD5=[f51b69263ffc056cc84c9ec54d5aea1b]
link SNSUser to User--><path codeLine="47" d="M694,382.16 C694,400.25 694,419.61 694,436.65 " fill="none" id="SNSUser-to-User" style="stroke:#A80036;stroke-width:1.0;stroke-dasharray:7.0,7.0;"/><polygon fill="#A80036" points="694,441.86,698,432.86,694,436.86,690,432.86,694,441.86" style="stroke:#A80036;stroke-width:1.0;"/><!--MD5=[f880a6a3c8764be5704be6137696ddf3]
@startuml Class Diagram
skinparam classAttributeIconSize 0

class ApplicationPOT {
  + static getInstance()
  + getCurrentSession()
}

class Company {
  - String designation
  + validateUser(user)
  + createUser(snsNumber, name, email, birthDate, phoneNumber)
}

class RegisterSNSUserController {
  + getUsers()
  + getUser(userId)
}

class RegisterSNSUserUI { }

class SNSUser {
  - String SNSNumber
  - String name
  - Date birthDate
  - Integer phoneNumber
  - String email
  + SNSUser(ref,designation,informalDesc,technicalDesc,duration,cost,cat)
}

class User {
  - String name
  - String email
  - String pwd
}

' class UserSession {
'   + getUserEmail()
' }

RegisterSNSUserController ..> ApplicationPOT
RegisterSNSUserController ..> Company
RegisterSNSUserController ..> SNSUser
' RegisterSNSUserController ..> UserSession

RegisterSNSUserUI ..> RegisterSNSUserController

SNSUser ..> User

@enduml

@startuml Class Diagram
skinparam classAttributeIconSize 0

class ApplicationPOT {
  + static getInstance()
  + getCurrentSession()
}

class Company {
  - String designation
  + validateUser(user)
  + createUser(snsNumber, name, email, birthDate, phoneNumber)
}

class RegisterSNSUserController {
  + getUsers()
  + getUser(userId)
}

class RegisterSNSUserUI { }

class SNSUser {
  - String SNSNumber
  - String name
  - Date birthDate
  - Integer phoneNumber
  - String email
  + SNSUser(ref,designation,informalDesc,technicalDesc,duration,cost,cat)
}

class User {
  - String name
  - String email
  - String pwd
}


RegisterSNSUserController ..> ApplicationPOT
RegisterSNSUserController ..> Company
RegisterSNSUserController ..> SNSUser

RegisterSNSUserUI ..> RegisterSNSUserController

SNSUser ..> User

@enduml

PlantUML version 1.2022.0(Tue Jan 11 16:16:42 WET 2022)
(GPL source distribution)
Java Runtime: Java(TM) SE Runtime Environment
JVM: Java HotSpot(TM) 64-Bit Server VM
Default Encoding: Cp1252
Language: pt
Country: PT
--></g></svg>