<?xml version="1.0" encoding="UTF-8" standalone="no"?><svg xmlns="http://www.w3.org/2000/svg" xmlns:xlink="http://www.w3.org/1999/xlink" contentScriptType="application/ecmascript" contentStyleType="text/css" height="1593px" preserveAspectRatio="none" style="width:1125px;height:1593px;background:#FFFFFF;" version="1.1" viewBox="0 0 1125 1593" width="1125px" zoomAndPan="magnify"><defs><filter height="300%" id="ffzq56cpftzwp" width="300%" x="-1" y="-1"><feGaussianBlur result="blurOut" stdDeviation="2.0"/><feColorMatrix in="blurOut" result="blurOut2" type="matrix" values="0 0 0 0 0 0 0 0 0 0 0 0 0 0 0 0 0 0 .4 0"/><feOffset dx="4.0" dy="4.0" in="blurOut2" result="blurOut3"/><feBlend in="SourceGraphic" in2="blurOut3" mode="normal"/></filter></defs><g><!--MD5=[78ae92434308ae8f0f423f1206bee4a9]
class Arrive--><rect codeLine="3" fill="#FEFECE" filter="url(#ffzq56cpftzwp)" height="60.8047" id="Arrive" style="stroke:#A80036;stroke-width:1.5;" width="107" x="559.5" y="1320"/><ellipse cx="592.5" cy="1336" fill="#ADD1B2" rx="11" ry="11" style="stroke:#A80036;stroke-width:1.0;"/><path d="M595.4688,1341.6406 Q594.8906,1341.9375 594.25,1342.0781 Q593.6094,1342.2344 592.9063,1342.2344 Q590.4063,1342.2344 589.0781,1340.5938 Q587.7656,1338.9375 587.7656,1335.8125 Q587.7656,1332.6875 589.0781,1331.0313 Q590.4063,1329.375 592.9063,1329.375 Q593.6094,1329.375 594.25,1329.5313 Q594.9063,1329.6875 595.4688,1329.9844 L595.4688,1332.7031 Q594.8438,1332.125 594.25,1331.8594 Q593.6563,1331.5781 593.0313,1331.5781 Q591.6875,1331.5781 591,1332.6563 Q590.3125,1333.7188 590.3125,1335.8125 Q590.3125,1337.9063 591,1338.9844 Q591.6875,1340.0469 593.0313,1340.0469 Q593.6563,1340.0469 594.25,1339.7813 Q594.8438,1339.5 595.4688,1338.9219 L595.4688,1341.6406 Z " fill="#000000"/><text fill="#000000" font-family="sans-serif" font-size="12" lengthAdjust="spacing" textLength="35" x="610.5" y="1340.1543">Arrive</text><line style="stroke:#A80036;stroke-width:1.5;" x1="560.5" x2="665.5" y1="1352" y2="1352"/><text fill="#000000" font-family="sans-serif" font-size="11" lengthAdjust="spacing" textLength="95" x="565.5" y="1366.2104">-Date arriveTime</text><line style="stroke:#A80036;stroke-width:1.5;" x1="560.5" x2="665.5" y1="1372.8047" y2="1372.8047"/><!--MD5=[23a23e4d69ec0d7a87665b0a19f7687f]
class NurseSession--><rect codeLine="7" fill="#FEFECE" filter="url(#ffzq56cpftzwp)" height="99.2188" id="NurseSession" style="stroke:#A80036;stroke-width:1.5;" width="370" x="64" y="282.5"/><ellipse cx="201.75" cy="298.5" fill="#ADD1B2" rx="11" ry="11" style="stroke:#A80036;stroke-width:1.0;"/><path d="M204.7188,304.1406 Q204.1406,304.4375 203.5,304.5781 Q202.8594,304.7344 202.1563,304.7344 Q199.6563,304.7344 198.3281,303.0938 Q197.0156,301.4375 197.0156,298.3125 Q197.0156,295.1875 198.3281,293.5313 Q199.6563,291.875 202.1563,291.875 Q202.8594,291.875 203.5,292.0313 Q204.1563,292.1875 204.7188,292.4844 L204.7188,295.2031 Q204.0938,294.625 203.5,294.3594 Q202.9063,294.0781 202.2813,294.0781 Q200.9375,294.0781 200.25,295.1563 Q199.5625,296.2188 199.5625,298.3125 Q199.5625,300.4063 200.25,301.4844 Q200.9375,302.5469 202.2813,302.5469 Q202.9063,302.5469 203.5,302.2813 Q204.0938,302 204.7188,301.4219 L204.7188,304.1406 Z " fill="#000000"/><text fill="#000000" font-family="sans-serif" font-size="12" lengthAdjust="spacing" textLength="86" x="222.25" y="302.6543">NurseSession</text><line style="stroke:#A80036;stroke-width:1.5;" x1="65" x2="433" y1="314.5" y2="314.5"/><text fill="#000000" font-family="sans-serif" font-size="11" lengthAdjust="spacing" textLength="108" x="70" y="328.7104">-String nurseName</text><text fill="#000000" font-family="sans-serif" font-size="11" lengthAdjust="spacing" textLength="153" x="70" y="341.5151">-String vaccinationCenterId</text><line style="stroke:#A80036;stroke-width:1.5;" x1="65" x2="433" y1="348.1094" y2="348.1094"/><text fill="#000000" font-family="sans-serif" font-size="11" lengthAdjust="spacing" textLength="358" x="70" y="362.3198">+NurseSession(String nurseName, String vaccinationCenterId)</text><text fill="#000000" font-family="sans-serif" font-size="11" lengthAdjust="spacing" textLength="185" x="70" y="375.1245">+String getVaccinationCenterId()</text><!--MD5=[02e4b9b7573f1156f41e60aa5b4e25a4]
class Company--><rect codeLine="15" fill="#FEFECE" filter="url(#ffzq56cpftzwp)" height="137.6328" id="Company" style="stroke:#A80036;stroke-width:1.5;" width="289" x="469.5" y="263"/><ellipse cx="581.25" cy="279" fill="#ADD1B2" rx="11" ry="11" style="stroke:#A80036;stroke-width:1.0;"/><path d="M584.2188,284.6406 Q583.6406,284.9375 583,285.0781 Q582.3594,285.2344 581.6563,285.2344 Q579.1563,285.2344 577.8281,283.5938 Q576.5156,281.9375 576.5156,278.8125 Q576.5156,275.6875 577.8281,274.0313 Q579.1563,272.375 581.6563,272.375 Q582.3594,272.375 583,272.5313 Q583.6563,272.6875 584.2188,272.9844 L584.2188,275.7031 Q583.5938,275.125 583,274.8594 Q582.4063,274.5781 581.7813,274.5781 Q580.4375,274.5781 579.75,275.6563 Q579.0625,276.7188 579.0625,278.8125 Q579.0625,280.9063 579.75,281.9844 Q580.4375,283.0469 581.7813,283.0469 Q582.4063,283.0469 583,282.7813 Q583.5938,282.5 584.2188,281.9219 L584.2188,284.6406 Z " fill="#000000"/><text fill="#000000" font-family="sans-serif" font-size="12" lengthAdjust="spacing" textLength="57" x="601.75" y="283.1543">Company</text><line style="stroke:#A80036;stroke-width:1.5;" x1="470.5" x2="757.5" y1="295" y2="295"/><text fill="#000000" font-family="sans-serif" font-size="11" lengthAdjust="spacing" textLength="112" x="475.5" y="309.2104">-designation: String</text><text fill="#000000" font-family="sans-serif" font-size="11" lengthAdjust="spacing" textLength="142" x="475.5" y="322.0151">-authFacade: AuthFacade</text><text fill="#000000" font-family="sans-serif" font-size="11" lengthAdjust="spacing" textLength="277" x="475.5" y="334.8198">-vaccinationCenterStore: VaccinationCenterStore</text><line style="stroke:#A80036;stroke-width:1.5;" x1="470.5" x2="757.5" y1="341.4141" y2="341.4141"/><text fill="#000000" font-family="sans-serif" font-size="11" lengthAdjust="spacing" textLength="136" x="475.5" y="355.6245">+Company(designation)</text><text fill="#000000" font-family="sans-serif" font-size="11" lengthAdjust="spacing" textLength="0" x="479.5" y="368.4292"/><text fill="#000000" font-family="sans-serif" font-size="11" lengthAdjust="spacing" textLength="100" x="475.5" y="381.2339">+getAuthFacade()</text><text fill="#000000" font-family="sans-serif" font-size="11" lengthAdjust="spacing" textLength="168" x="475.5" y="394.0386">+getVaccinationCenterStore()</text><!--MD5=[649c7d4b5395a0192010c8f394938ecc]
class CheckWaitingRoomController--><rect codeLine="26" fill="#FEFECE" filter="url(#ffzq56cpftzwp)" height="86.4141" id="CheckWaitingRoomController" style="stroke:#A80036;stroke-width:1.5;" width="524" x="7" y="116"/><ellipse cx="174.75" cy="132" fill="#ADD1B2" rx="11" ry="11" style="stroke:#A80036;stroke-width:1.0;"/><path d="M177.7188,137.6406 Q177.1406,137.9375 176.5,138.0781 Q175.8594,138.2344 175.1563,138.2344 Q172.6563,138.2344 171.3281,136.5938 Q170.0156,134.9375 170.0156,131.8125 Q170.0156,128.6875 171.3281,127.0313 Q172.6563,125.375 175.1563,125.375 Q175.8594,125.375 176.5,125.5313 Q177.1563,125.6875 177.7188,125.9844 L177.7188,128.7031 Q177.0938,128.125 176.5,127.8594 Q175.9063,127.5781 175.2813,127.5781 Q173.9375,127.5781 173.25,128.6563 Q172.5625,129.7188 172.5625,131.8125 Q172.5625,133.9063 173.25,134.9844 Q173.9375,136.0469 175.2813,136.0469 Q175.9063,136.0469 176.5,135.7813 Q177.0938,135.5 177.7188,134.9219 L177.7188,137.6406 Z " fill="#000000"/><text fill="#000000" font-family="sans-serif" font-size="12" lengthAdjust="spacing" textLength="180" x="195.25" y="136.1543">CheckWaitingRoomController</text><line style="stroke:#A80036;stroke-width:1.5;" x1="8" x2="530" y1="148" y2="148"/><line style="stroke:#A80036;stroke-width:1.5;" x1="8" x2="530" y1="156" y2="156"/><text fill="#000000" font-family="sans-serif" font-size="11" lengthAdjust="spacing" textLength="97" x="13" y="170.2104">+getCategories()</text><text fill="#000000" font-family="sans-serif" font-size="11" lengthAdjust="spacing" textLength="512" x="13" y="183.0151">+CheckWaitingRoom(ref,designation,informalDesc,technicalDesc,duration,cost,categoryId)</text><text fill="#000000" font-family="sans-serif" font-size="11" lengthAdjust="spacing" textLength="71" x="13" y="195.8198">+saveTask()</text><!--MD5=[90ca7783d5bfc67c890f48b5b62c5590]
class CheckWaitingRoomUI--><rect codeLine="32" fill="#FEFECE" filter="url(#ffzq56cpftzwp)" height="48" id="CheckWaitingRoomUI" style="stroke:#A80036;stroke-width:1.5;" width="163" x="187.5" y="7"/><ellipse cx="202.5" cy="23" fill="#ADD1B2" rx="11" ry="11" style="stroke:#A80036;stroke-width:1.0;"/><path d="M205.4688,28.6406 Q204.8906,28.9375 204.25,29.0781 Q203.6094,29.2344 202.9063,29.2344 Q200.4063,29.2344 199.0781,27.5938 Q197.7656,25.9375 197.7656,22.8125 Q197.7656,19.6875 199.0781,18.0313 Q200.4063,16.375 202.9063,16.375 Q203.6094,16.375 204.25,16.5313 Q204.9063,16.6875 205.4688,16.9844 L205.4688,19.7031 Q204.8438,19.125 204.25,18.8594 Q203.6563,18.5781 203.0313,18.5781 Q201.6875,18.5781 201,19.6563 Q200.3125,20.7188 200.3125,22.8125 Q200.3125,24.9063 201,25.9844 Q201.6875,27.0469 203.0313,27.0469 Q203.6563,27.0469 204.25,26.7813 Q204.8438,26.5 205.4688,25.9219 L205.4688,28.6406 Z " fill="#000000"/><text fill="#000000" font-family="sans-serif" font-size="12" lengthAdjust="spacing" textLength="131" x="216.5" y="27.1543">CheckWaitingRoomUI</text><line style="stroke:#A80036;stroke-width:1.5;" x1="188.5" x2="349.5" y1="39" y2="39"/><line style="stroke:#A80036;stroke-width:1.5;" x1="188.5" x2="349.5" y1="47" y2="47"/><!--MD5=[de60e6d4f424ae4d0522096f76a59010]
class VaccinationCenter--><rect codeLine="34" fill="#FEFECE" filter="url(#ffzq56cpftzwp)" height="188.8516" id="VaccinationCenter" style="stroke:#A80036;stroke-width:1.5;" width="995" x="116.5" y="664"/><ellipse cx="552.25" cy="680" fill="#ADD1B2" rx="11" ry="11" style="stroke:#A80036;stroke-width:1.0;"/><path d="M555.2188,685.6406 Q554.6406,685.9375 554,686.0781 Q553.3594,686.2344 552.6563,686.2344 Q550.1563,686.2344 548.8281,684.5938 Q547.5156,682.9375 547.5156,679.8125 Q547.5156,676.6875 548.8281,675.0313 Q550.1563,673.375 552.6563,673.375 Q553.3594,673.375 554,673.5313 Q554.6563,673.6875 555.2188,673.9844 L555.2188,676.7031 Q554.5938,676.125 554,675.8594 Q553.4063,675.5781 552.7813,675.5781 Q551.4375,675.5781 550.75,676.6563 Q550.0625,677.7188 550.0625,679.8125 Q550.0625,681.9063 550.75,682.9844 Q551.4375,684.0469 552.7813,684.0469 Q553.4063,684.0469 554,683.7813 Q554.5938,683.5 555.2188,682.9219 L555.2188,685.6406 Z " fill="#000000"/><text fill="#000000" font-family="sans-serif" font-size="12" lengthAdjust="spacing" textLength="115" x="572.75" y="684.1543">VaccinationCenter</text><line style="stroke:#A80036;stroke-width:1.5;" x1="117.5" x2="1110.5" y1="696" y2="696"/><text fill="#000000" font-family="sans-serif" font-size="11" lengthAdjust="spacing" textLength="78" x="122.5" y="710.2104">-name: String</text><text fill="#000000" font-family="sans-serif" font-size="11" lengthAdjust="spacing" textLength="93" x="122.5" y="723.0151">-address: String</text><text fill="#000000" font-family="sans-serif" font-size="11" lengthAdjust="spacing" textLength="124" x="122.5" y="735.8198">-emailAddress: String</text><text fill="#000000" font-family="sans-serif" font-size="11" lengthAdjust="spacing" textLength="126" x="122.5" y="748.6245">-phoneNumber: String</text><text fill="#000000" font-family="sans-serif" font-size="11" lengthAdjust="spacing" textLength="108" x="122.5" y="761.4292">-faxNumber: String</text><text fill="#000000" font-family="sans-serif" font-size="11" lengthAdjust="spacing" textLength="137" x="122.5" y="774.2339">-websiteAddress: String</text><text fill="#000000" font-family="sans-serif" font-size="11" lengthAdjust="spacing" textLength="125" x="122.5" y="787.0386">-openingHours: String</text><text fill="#000000" font-family="sans-serif" font-size="11" lengthAdjust="spacing" textLength="120" x="122.5" y="799.8433">-closingHours: String</text><text fill="#000000" font-family="sans-serif" font-size="11" lengthAdjust="spacing" textLength="95" x="122.5" y="812.6479">-slotDuration: int</text><text fill="#000000" font-family="sans-serif" font-size="11" lengthAdjust="spacing" textLength="173" x="122.5" y="825.4526">-maximumVaccinesPerSlot: int</text><line style="stroke:#A80036;stroke-width:1.5;" x1="117.5" x2="1110.5" y1="832.0469" y2="832.0469"/><text fill="#000000" font-family="sans-serif" font-size="11" lengthAdjust="spacing" textLength="983" x="122.5" y="846.2573">+VaccinationCenter(name,address,emailAddress,phoneNumber,faxNumber,websiteAddress,openingHours,closingHours,slotDuration,maximumVaccinesPerSlot,coordinator)</text><!--MD5=[a29876ea2f21a6ca48ea477740122fd8]
class VaccinationCenterStore--><rect codeLine="49" fill="#FEFECE" filter="url(#ffzq56cpftzwp)" height="124.8281" id="VaccinationCenterStore" style="stroke:#A80036;stroke-width:1.5;" width="298" x="465" y="462"/><ellipse cx="535.25" cy="478" fill="#ADD1B2" rx="11" ry="11" style="stroke:#A80036;stroke-width:1.0;"/><path d="M538.2188,483.6406 Q537.6406,483.9375 537,484.0781 Q536.3594,484.2344 535.6563,484.2344 Q533.1563,484.2344 531.8281,482.5938 Q530.5156,480.9375 530.5156,477.8125 Q530.5156,474.6875 531.8281,473.0313 Q533.1563,471.375 535.6563,471.375 Q536.3594,471.375 537,471.5313 Q537.6563,471.6875 538.2188,471.9844 L538.2188,474.7031 Q537.5938,474.125 537,473.8594 Q536.4063,473.5781 535.7813,473.5781 Q534.4375,473.5781 533.75,474.6563 Q533.0625,475.7188 533.0625,477.8125 Q533.0625,479.9063 533.75,480.9844 Q534.4375,482.0469 535.7813,482.0469 Q536.4063,482.0469 537,481.7813 Q537.5938,481.5 538.2188,480.9219 L538.2188,483.6406 Z " fill="#000000"/><text fill="#000000" font-family="sans-serif" font-size="12" lengthAdjust="spacing" textLength="149" x="555.75" y="482.1543">VaccinationCenterStore</text><line style="stroke:#A80036;stroke-width:1.5;" x1="466" x2="762" y1="494" y2="494"/><line style="stroke:#A80036;stroke-width:1.5;" x1="466" x2="762" y1="502" y2="502"/><text fill="#000000" font-family="sans-serif" font-size="11" lengthAdjust="spacing" textLength="286" x="471" y="516.2104">+createVaccinationCenter(centerData,coordinator)</text><text fill="#000000" font-family="sans-serif" font-size="11" lengthAdjust="spacing" textLength="196" x="471" y="529.0151">+validateVaccinatonCenter(center)</text><text fill="#000000" font-family="sans-serif" font-size="11" lengthAdjust="spacing" textLength="182" x="471" y="541.8198">+saveVaccinationCenter(center)</text><text fill="#000000" font-family="sans-serif" font-size="11" lengthAdjust="spacing" textLength="144" x="471" y="554.6245">+checkDuplicates(center)</text><text fill="#000000" font-family="sans-serif" font-size="11" lengthAdjust="spacing" textLength="0" x="475" y="567.4292"/><text fill="#000000" font-family="sans-serif" font-size="11" lengthAdjust="spacing" textLength="171" x="471" y="580.2339">-addVaccinationCenter(center)</text><!--MD5=[7421f545a0d8420c5bec41e74b387d9c]
class Employee--><rect codeLine="58" fill="#FEFECE" filter="url(#ffzq56cpftzwp)" height="150.4375" id="Employee" style="stroke:#A80036;stroke-width:1.5;" width="388" x="296" y="930"/><ellipse cx="455.75" cy="946" fill="#ADD1B2" rx="11" ry="11" style="stroke:#A80036;stroke-width:1.0;"/><path d="M458.7188,951.6406 Q458.1406,951.9375 457.5,952.0781 Q456.8594,952.2344 456.1563,952.2344 Q453.6563,952.2344 452.3281,950.5938 Q451.0156,948.9375 451.0156,945.8125 Q451.0156,942.6875 452.3281,941.0313 Q453.6563,939.375 456.1563,939.375 Q456.8594,939.375 457.5,939.5313 Q458.1563,939.6875 458.7188,939.9844 L458.7188,942.7031 Q458.0938,942.125 457.5,941.8594 Q456.9063,941.5781 456.2813,941.5781 Q454.9375,941.5781 454.25,942.6563 Q453.5625,943.7188 453.5625,945.8125 Q453.5625,947.9063 454.25,948.9844 Q454.9375,950.0469 456.2813,950.0469 Q456.9063,950.0469 457.5,949.7813 Q458.0938,949.5 458.7188,948.9219 L458.7188,951.6406 Z " fill="#000000"/><text fill="#000000" font-family="sans-serif" font-size="12" lengthAdjust="spacing" textLength="60" x="476.25" y="950.1543">Employee</text><line style="stroke:#A80036;stroke-width:1.5;" x1="297" x2="683" y1="962" y2="962"/><text fill="#000000" font-family="sans-serif" font-size="11" lengthAdjust="spacing" textLength="56" x="302" y="976.2104">-id: String</text><text fill="#000000" font-family="sans-serif" font-size="11" lengthAdjust="spacing" textLength="78" x="302" y="989.0151">-name: String</text><text fill="#000000" font-family="sans-serif" font-size="11" lengthAdjust="spacing" textLength="77" x="302" y="1001.8198">-email: String</text><text fill="#000000" font-family="sans-serif" font-size="11" lengthAdjust="spacing" textLength="81" x="302" y="1014.6245">-phone: String</text><text fill="#000000" font-family="sans-serif" font-size="11" lengthAdjust="spacing" textLength="93" x="302" y="1027.4292">-address: String</text><text fill="#000000" font-family="sans-serif" font-size="11" lengthAdjust="spacing" textLength="133" x="302" y="1040.2339">-citizenCardNumber: int</text><text fill="#000000" font-family="sans-serif" font-size="11" lengthAdjust="spacing" textLength="78" x="302" y="1053.0386">-roleId: String</text><line style="stroke:#A80036;stroke-width:1.5;" x1="297" x2="683" y1="1059.6328" y2="1059.6328"/><text fill="#000000" font-family="sans-serif" font-size="11" lengthAdjust="spacing" textLength="376" x="302" y="1073.8433">+Employee(name,email,phone,address,citizenCardNumber,roleId)</text><!--MD5=[72be06cc7ae02ccc98efe28a50e62246]
class SNSUser--><rect codeLine="70" fill="#FEFECE" filter="url(#ffzq56cpftzwp)" height="137.6328" id="SNSUser" style="stroke:#A80036;stroke-width:1.5;" width="541" x="161.5" y="1442"/><ellipse cx="400.75" cy="1458" fill="#ADD1B2" rx="11" ry="11" style="stroke:#A80036;stroke-width:1.0;"/><path d="M403.7188,1463.6406 Q403.1406,1463.9375 402.5,1464.0781 Q401.8594,1464.2344 401.1563,1464.2344 Q398.6563,1464.2344 397.3281,1462.5938 Q396.0156,1460.9375 396.0156,1457.8125 Q396.0156,1454.6875 397.3281,1453.0313 Q398.6563,1451.375 401.1563,1451.375 Q401.8594,1451.375 402.5,1451.5313 Q403.1563,1451.6875 403.7188,1451.9844 L403.7188,1454.7031 Q403.0938,1454.125 402.5,1453.8594 Q401.9063,1453.5781 401.2813,1453.5781 Q399.9375,1453.5781 399.25,1454.6563 Q398.5625,1455.7188 398.5625,1457.8125 Q398.5625,1459.9063 399.25,1460.9844 Q399.9375,1462.0469 401.2813,1462.0469 Q401.9063,1462.0469 402.5,1461.7813 Q403.0938,1461.5 403.7188,1460.9219 L403.7188,1463.6406 Z " fill="#000000"/><text fill="#000000" font-family="sans-serif" font-size="12" lengthAdjust="spacing" textLength="54" x="421.25" y="1462.1543">SNSUser</text><line style="stroke:#A80036;stroke-width:1.5;" x1="162.5" x2="701.5" y1="1474" y2="1474"/><text fill="#000000" font-family="sans-serif" font-size="11" lengthAdjust="spacing" textLength="104" x="167.5" y="1488.2104">-String citizenCard</text><text fill="#000000" font-family="sans-serif" font-size="11" lengthAdjust="spacing" textLength="108" x="167.5" y="1501.0151">-String snsNumber</text><text fill="#000000" font-family="sans-serif" font-size="11" lengthAdjust="spacing" textLength="81" x="167.5" y="1513.8198">-Date birthDay</text><text fill="#000000" font-family="sans-serif" font-size="11" lengthAdjust="spacing" textLength="75" x="167.5" y="1526.6245">-Char gender</text><text fill="#000000" font-family="sans-serif" font-size="11" lengthAdjust="spacing" textLength="122" x="167.5" y="1539.4292">-String phoneNumber</text><text fill="#000000" font-family="sans-serif" font-size="11" lengthAdjust="spacing" textLength="89" x="167.5" y="1552.2339">-String address</text><line style="stroke:#A80036;stroke-width:1.5;" x1="162.5" x2="701.5" y1="1558.8281" y2="1558.8281"/><text fill="#000000" font-family="sans-serif" font-size="11" lengthAdjust="spacing" textLength="529" x="167.5" y="1573.0386">+SNSUser(citizenCard, snsNumber, name, birthDay, gender, phoneNumber, email, address)</text><!--MD5=[7b3e8f70d80133538393dc99d446cc4d]
class WaitingRoomList--><rect codeLine="80" fill="#FEFECE" filter="url(#ffzq56cpftzwp)" height="86.4141" id="WaitingRoomList" style="stroke:#A80036;stroke-width:1.5;" width="151" x="537.5" y="1157"/><ellipse cx="560.15" cy="1173" fill="#ADD1B2" rx="11" ry="11" style="stroke:#A80036;stroke-width:1.0;"/><path d="M563.1188,1178.6406 Q562.5406,1178.9375 561.9,1179.0781 Q561.2594,1179.2344 560.5563,1179.2344 Q558.0563,1179.2344 556.7281,1177.5938 Q555.4156,1175.9375 555.4156,1172.8125 Q555.4156,1169.6875 556.7281,1168.0313 Q558.0563,1166.375 560.5563,1166.375 Q561.2594,1166.375 561.9,1166.5313 Q562.5563,1166.6875 563.1188,1166.9844 L563.1188,1169.7031 Q562.4938,1169.125 561.9,1168.8594 Q561.3063,1168.5781 560.6813,1168.5781 Q559.3375,1168.5781 558.65,1169.6563 Q557.9625,1170.7188 557.9625,1172.8125 Q557.9625,1174.9063 558.65,1175.9844 Q559.3375,1177.0469 560.6813,1177.0469 Q561.3063,1177.0469 561.9,1176.7813 Q562.4938,1176.5 563.1188,1175.9219 L563.1188,1178.6406 Z " fill="#000000"/><text fill="#000000" font-family="sans-serif" font-size="12" lengthAdjust="spacing" textLength="102" x="575.85" y="1177.1543">WaitingRoomList</text><line style="stroke:#A80036;stroke-width:1.5;" x1="538.5" x2="687.5" y1="1189" y2="1189"/><line style="stroke:#A80036;stroke-width:1.5;" x1="538.5" x2="687.5" y1="1197" y2="1197"/><text fill="#000000" font-family="sans-serif" font-size="11" lengthAdjust="spacing" textLength="98" x="543.5" y="1211.2104">+createArrive(...)</text><text fill="#000000" font-family="sans-serif" font-size="11" lengthAdjust="spacing" textLength="113" x="543.5" y="1224.0151">+saveArrive(center)</text><text fill="#000000" font-family="sans-serif" font-size="11" lengthAdjust="spacing" textLength="139" x="543.5" y="1236.8198">-checkDuplicates(center)</text><!--MD5=[c508b5b6bbe276ff5e2700b6641f837f]
class Appointment--><rect codeLine="86" fill="#FEFECE" filter="url(#ffzq56cpftzwp)" height="48" id="Appointment" style="stroke:#A80036;stroke-width:1.5;" width="112" x="738" y="1487"/><ellipse cx="753" cy="1503" fill="#ADD1B2" rx="11" ry="11" style="stroke:#A80036;stroke-width:1.0;"/><path d="M755.9688,1508.6406 Q755.3906,1508.9375 754.75,1509.0781 Q754.1094,1509.2344 753.4063,1509.2344 Q750.9063,1509.2344 749.5781,1507.5938 Q748.2656,1505.9375 748.2656,1502.8125 Q748.2656,1499.6875 749.5781,1498.0313 Q750.9063,1496.375 753.4063,1496.375 Q754.1094,1496.375 754.75,1496.5313 Q755.4063,1496.6875 755.9688,1496.9844 L755.9688,1499.7031 Q755.3438,1499.125 754.75,1498.8594 Q754.1563,1498.5781 753.5313,1498.5781 Q752.1875,1498.5781 751.5,1499.6563 Q750.8125,1500.7188 750.8125,1502.8125 Q750.8125,1504.9063 751.5,1505.9844 Q752.1875,1507.0469 753.5313,1507.0469 Q754.1563,1507.0469 754.75,1506.7813 Q755.3438,1506.5 755.9688,1505.9219 L755.9688,1508.6406 Z " fill="#000000"/><text fill="#000000" font-family="sans-serif" font-size="12" lengthAdjust="spacing" textLength="80" x="767" y="1507.1543">Appointment</text><line style="stroke:#A80036;stroke-width:1.5;" x1="739" x2="849" y1="1519" y2="1519"/><line style="stroke:#A80036;stroke-width:1.5;" x1="739" x2="849" y1="1527" y2="1527"/><!--MD5=[08115eac1172d84470ffcb9fecb3d07c]
link CheckWaitingRoomUI to CheckWaitingRoomController--><path codeLine="90" d="M269,55.11 C269,70.63 269,91.64 269,110.63 " fill="none" id="CheckWaitingRoomUI-to-CheckWaitingRoomController" style="stroke:#A80036;stroke-width:1.0;stroke-dasharray:7.0,7.0;"/><polygon fill="#A80036" points="269,115.92,273,106.92,269,110.92,265,106.92,269,115.92" style="stroke:#A80036;stroke-width:1.0;"/><!--MD5=[c4a22901b10ae08ba77ff42dd1d4908e]
link CheckWaitingRoomController to Company--><path codeLine="91" d="M353.84,202.05 C389.4,219.68 431.74,240.66 471.82,260.53 " fill="none" id="CheckWaitingRoomController-to-Company" style="stroke:#A80036;stroke-width:1.0;stroke-dasharray:7.0,7.0;"/><polygon fill="#A80036" points="476.69,262.94,470.3999,255.3615,472.2093,260.7211,466.8497,262.5306,476.69,262.94" style="stroke:#A80036;stroke-width:1.0;"/><!--MD5=[31bc3883e187c639ab635a41593b3a80]
reverse link Arrive to SNSUser--><path codeLine="93" d="M568.89,1390.13 C551.09,1405.71 530.01,1424.17 509.8,1441.87 " fill="none" id="Arrive-backto-SNSUser" style="stroke:#A80036;stroke-width:1.0;"/><polygon fill="#FFFFFF" points="578.96,1381.31,571.8102,1382.2485,569.9266,1389.2093,577.0764,1388.2708,578.96,1381.31" style="stroke:#A80036;stroke-width:1.0;"/><!--MD5=[ff7ffb44303c2619dc2a6d1709f87c0a]
reverse link Arrive to Appointment--><path codeLine="94" d="M659.17,1389.84 C678.17,1405.8 700.29,1424.62 720,1442 C736.62,1456.65 754.96,1473.5 769.23,1486.76 " fill="none" id="Arrive-backto-Appointment" style="stroke:#A80036;stroke-width:1.0;"/><polygon fill="#FFFFFF" points="648.98,1381.3,651.0091,1388.2197,658.177,1389.0081,656.1479,1382.0884,648.98,1381.3" style="stroke:#A80036;stroke-width:1.0;"/><!--MD5=[db5fb34fd733ab3677281d60b785e712]
reverse link VaccinationCenter to Employee--><path codeLine="96" d="M560.49,865.01 C549.43,886.82 538,909.36 527.65,929.77 " fill="none" id="VaccinationCenter-backto-Employee" style="stroke:#A80036;stroke-width:1.0;"/><polygon fill="#FFFFFF" points="566.41,853.33,560.1315,856.8769,560.9908,864.0366,567.2693,860.4897,566.41,853.33" style="stroke:#A80036;stroke-width:1.0;"/><text fill="#000000" font-family="sans-serif" font-size="13" lengthAdjust="spacing" textLength="73" x="549" y="896.0669">coordinator</text><!--MD5=[8c304936b446fd8cea914e03fbadd4b7]
link VaccinationCenterStore to VaccinationCenter--><path codeLine="97" d="M614,587.06 C614,610.55 614,637.9 614,663.72 " fill="none" id="VaccinationCenterStore-VaccinationCenter" style="stroke:#A80036;stroke-width:1.0;"/><polygon fill="#000000" points="619,630.5664,621.9389,621.5213,616.0611,621.5213,619,630.5664" style="stroke:#000000;stroke-width:1.0;"/><text fill="#000000" font-family="sans-serif" font-size="13" lengthAdjust="spacing" textLength="40" x="628" y="630.0669">stores</text><text fill="#000000" font-family="sans-serif" font-size="13" lengthAdjust="spacing" textLength="8" x="605.5625" y="606.8064">1</text><text fill="#000000" font-family="sans-serif" font-size="13" lengthAdjust="spacing" textLength="7" x="606.732" y="652.9668">*</text><!--MD5=[bc0d5b4bfe6e1bf0a8fced13bc4bdd47]
link Company to VaccinationCenterStore--><path codeLine="99" d="M614,401.24 C614,419.29 614,438.76 614,456.73 " fill="none" id="Company-to-VaccinationCenterStore" style="stroke:#A80036;stroke-width:1.0;stroke-dasharray:7.0,7.0;"/><polygon fill="#A80036" points="614,461.76,618,452.76,614,456.76,610,452.76,614,461.76" style="stroke:#A80036;stroke-width:1.0;"/><!--MD5=[d297c41963c43fd8f2fc145746986e0d]
link WaitingRoomList to Arrive--><path codeLine="101" d="M613,1243.16 C613,1267.68 613,1297.99 613,1319.97 " fill="none" id="WaitingRoomList-Arrive" style="stroke:#A80036;stroke-width:1.0;"/><polygon fill="#000000" points="618,1286.5664,620.9389,1277.5213,615.0611,1277.5213,618,1286.5664" style="stroke:#000000;stroke-width:1.0;"/><text fill="#000000" font-family="sans-serif" font-size="13" lengthAdjust="spacing" textLength="40" x="627" y="1286.0669">stores</text><text fill="#000000" font-family="sans-serif" font-size="13" lengthAdjust="spacing" textLength="8" x="604.3375" y="1263.5942">1</text><text fill="#000000" font-family="sans-serif" font-size="13" lengthAdjust="spacing" textLength="7" x="605.2344" y="1308.7537">*</text><!--MD5=[66e8a8e94de5199ecbf2b3922a76fe10]
link Employee to WaitingRoomList--><path codeLine="103" d="M537.2,1080.07 C553.8,1106.11 571.87,1134.46 586.2,1156.95 " fill="none" id="Employee-WaitingRoomList" style="stroke:#A80036;stroke-width:1.0;"/><text fill="#000000" font-family="sans-serif" font-size="13" lengthAdjust="spacing" textLength="44" x="567" y="1123.0669">checks</text><text fill="#000000" font-family="sans-serif" font-size="13" lengthAdjust="spacing" textLength="8" x="533.655" y="1100.6362">1</text><text fill="#000000" font-family="sans-serif" font-size="13" lengthAdjust="spacing" textLength="7" x="574.3709" y="1145.9381">*</text><!--MD5=[36096f510a652bd50455fb416a944f55]
reverse link VaccinationCenter to WaitingRoomList--><path codeLine="104" d="M678.19,865.05 C688.04,885.9 696.69,908.12 702,930 C717.73,994.78 723.04,1016.74 702,1080 C692.51,1108.52 673.23,1135.73 655.03,1156.91 " fill="none" id="VaccinationCenter-backto-WaitingRoomList" style="stroke:#A80036;stroke-width:1.0;"/><polygon fill="#A80036" points="672.45,853.29,671.4887,860.4367,677.716,864.0728,678.6773,856.9261,672.45,853.29" style="stroke:#A80036;stroke-width:1.0;"/><!--MD5=[4e225734c614e51a8b63b4b70bdd41bb]
link CheckWaitingRoomController to NurseSession--><path codeLine="106" d="M264.06,202.27 C261.41,224.89 258.12,252.99 255.3,277.16 " fill="none" id="CheckWaitingRoomController-to-NurseSession" style="stroke:#A80036;stroke-width:1.0;stroke-dasharray:7.0,7.0;"/><polygon fill="#A80036" points="254.7,282.26,259.7016,273.7756,255.271,277.2927,251.7539,272.8621,254.7,282.26" style="stroke:#A80036;stroke-width:1.0;"/><!--MD5=[d588660adbe6a5efb54c6b8b1d3414d8]
@startuml
skinparam classAttributeIconSize 0

class Arrive {
  - Date arriveTime
}

class NurseSession {
  - String nurseName
  - String vaccinationCenterId

  + NurseSession(String nurseName, String vaccinationCenterId)
  + String getVaccinationCenterId()
}

class Company {
  -designation: String
  -authFacade: AuthFacade
  -vaccinationCenterStore: VaccinationCenterStore
  
  +Company(designation)

  +getAuthFacade()
  +getVaccinationCenterStore()
}

class CheckWaitingRoomController {
  +getCategories()
  +CheckWaitingRoom(ref,designation,informalDesc,technicalDesc,duration,cost,categoryId)
  +saveTask()
}

class CheckWaitingRoomUI {}

class VaccinationCenter {
  - name: String
  - address: String
  - emailAddress: String
  - phoneNumber: String
  - faxNumber: String
  - websiteAddress: String
  - openingHours: String
  - closingHours: String
  - slotDuration: int
  - maximumVaccinesPerSlot: int
  
  +VaccinationCenter(name,address,emailAddress,phoneNumber,faxNumber,websiteAddress,openingHours,closingHours,slotDuration,maximumVaccinesPerSlot,coordinator)
}

class VaccinationCenterStore {
+createVaccinationCenter(centerData,coordinator)
+validateVaccinatonCenter(center)
+saveVaccinationCenter(center)
+checkDuplicates(center)

-addVaccinationCenter(center)
}

class Employee {
  -id: String 
  -name: String 
  -email: String 
  -phone: String 
  -address: String 
  -citizenCardNumber: int 
  -roleId: String 

  +Employee(name,email,phone,address,citizenCardNumber,roleId)
}

class SNSUser {
  - String citizenCard
  - String snsNumber
  - Date birthDay
  - Char gender
  - String phoneNumber
  - String address
  + SNSUser(citizenCard, snsNumber, name, birthDay, gender, phoneNumber, email, address)
}

class WaitingRoomList {
  +createArrive(...)
  +saveArrive(center)
  -checkDuplicates(center)
}

class Appointment {

}

CheckWaitingRoomUI ..> CheckWaitingRoomController
CheckWaitingRoomController ..> Company

Arrive o- - SNSUser
Arrive o- - Appointment

VaccinationCenter o- - Employee : coordinator
VaccinationCenterStore "1" - - "*" VaccinationCenter : stores >

Company ..> VaccinationCenterStore

WaitingRoomList "1" - - "*" Arrive : stores >

Employee "1" - - "*" WaitingRoomList : checks
VaccinationCenter *- - WaitingRoomList

CheckWaitingRoomController ..> NurseSession

@enduml

PlantUML version 1.2022.0(Tue Jan 11 16:16:42 WET 2022)
(GPL source distribution)
Java Runtime: OpenJDK Runtime Environment
JVM: OpenJDK 64-Bit Server VM
Default Encoding: UTF-8
Language: en
Country: US
--></g></svg>