<?xml version="1.0" encoding="UTF-8" standalone="no"?><svg xmlns="http://www.w3.org/2000/svg" xmlns:xlink="http://www.w3.org/1999/xlink" contentScriptType="application/ecmascript" contentStyleType="text/css" height="1471px" preserveAspectRatio="none" style="width:1045px;height:1471px;background:#FFFFFF;" version="1.1" viewBox="0 0 1045 1471" width="1045px" zoomAndPan="magnify"><defs><filter height="300%" id="f1ovcsbp8oof7y" width="300%" x="-1" y="-1"><feGaussianBlur result="blurOut" stdDeviation="2.0"/><feColorMatrix in="blurOut" result="blurOut2" type="matrix" values="0 0 0 0 0 0 0 0 0 0 0 0 0 0 0 0 0 0 .4 0"/><feOffset dx="4.0" dy="4.0" in="blurOut2" result="blurOut3"/><feBlend in="SourceGraphic" in2="blurOut3" mode="normal"/></filter></defs><g><!--MD5=[78ae92434308ae8f0f423f1206bee4a9]
class Arrive--><rect codeLine="3" fill="#FEFECE" filter="url(#f1ovcsbp8oof7y)" height="60.8047" id="Arrive" style="stroke:#A80036;stroke-width:1.5;" width="107" x="707" y="1198"/><ellipse cx="740" cy="1214" fill="#ADD1B2" rx="11" ry="11" style="stroke:#A80036;stroke-width:1.0;"/><path d="M742.9688,1219.6406 Q742.3906,1219.9375 741.75,1220.0781 Q741.1094,1220.2344 740.4063,1220.2344 Q737.9063,1220.2344 736.5781,1218.5938 Q735.2656,1216.9375 735.2656,1213.8125 Q735.2656,1210.6875 736.5781,1209.0313 Q737.9063,1207.375 740.4063,1207.375 Q741.1094,1207.375 741.75,1207.5313 Q742.4063,1207.6875 742.9688,1207.9844 L742.9688,1210.7031 Q742.3438,1210.125 741.75,1209.8594 Q741.1563,1209.5781 740.5313,1209.5781 Q739.1875,1209.5781 738.5,1210.6563 Q737.8125,1211.7188 737.8125,1213.8125 Q737.8125,1215.9063 738.5,1216.9844 Q739.1875,1218.0469 740.5313,1218.0469 Q741.1563,1218.0469 741.75,1217.7813 Q742.3438,1217.5 742.9688,1216.9219 L742.9688,1219.6406 Z " fill="#000000"/><text fill="#000000" font-family="sans-serif" font-size="12" lengthAdjust="spacing" textLength="35" x="758" y="1218.1543">Arrive</text><line style="stroke:#A80036;stroke-width:1.5;" x1="708" x2="813" y1="1230" y2="1230"/><text fill="#000000" font-family="sans-serif" font-size="11" lengthAdjust="spacing" textLength="95" x="713" y="1244.2104">-Date arriveTime</text><line style="stroke:#A80036;stroke-width:1.5;" x1="708" x2="813" y1="1250.8047" y2="1250.8047"/><!--MD5=[02e4b9b7573f1156f41e60aa5b4e25a4]
class Company--><rect codeLine="7" fill="#FEFECE" filter="url(#f1ovcsbp8oof7y)" height="163.2422" id="Company" style="stroke:#A80036;stroke-width:1.5;" width="244" x="382.5" y="263"/><ellipse cx="471.75" cy="279" fill="#ADD1B2" rx="11" ry="11" style="stroke:#A80036;stroke-width:1.0;"/><path d="M474.7188,284.6406 Q474.1406,284.9375 473.5,285.0781 Q472.8594,285.2344 472.1563,285.2344 Q469.6563,285.2344 468.3281,283.5938 Q467.0156,281.9375 467.0156,278.8125 Q467.0156,275.6875 468.3281,274.0313 Q469.6563,272.375 472.1563,272.375 Q472.8594,272.375 473.5,272.5313 Q474.1563,272.6875 474.7188,272.9844 L474.7188,275.7031 Q474.0938,275.125 473.5,274.8594 Q472.9063,274.5781 472.2813,274.5781 Q470.9375,274.5781 470.25,275.6563 Q469.5625,276.7188 469.5625,278.8125 Q469.5625,280.9063 470.25,281.9844 Q470.9375,283.0469 472.2813,283.0469 Q472.9063,283.0469 473.5,282.7813 Q474.0938,282.5 474.7188,281.9219 L474.7188,284.6406 Z " fill="#000000"/><text fill="#000000" font-family="sans-serif" font-size="12" lengthAdjust="spacing" textLength="57" x="492.25" y="283.1543">Company</text><line style="stroke:#A80036;stroke-width:1.5;" x1="383.5" x2="625.5" y1="295" y2="295"/><text fill="#000000" font-family="sans-serif" font-size="11" lengthAdjust="spacing" textLength="112" x="388.5" y="309.2104">-designation: String</text><text fill="#000000" font-family="sans-serif" font-size="11" lengthAdjust="spacing" textLength="142" x="388.5" y="322.0151">-authFacade: AuthFacade</text><text fill="#000000" font-family="sans-serif" font-size="11" lengthAdjust="spacing" textLength="184" x="388.5" y="334.8198">-employeeStore: EmployeeStore</text><text fill="#000000" font-family="sans-serif" font-size="11" lengthAdjust="spacing" textLength="232" x="388.5" y="347.6245">-employeeRoleStore: EmployeeRoleStore</text><line style="stroke:#A80036;stroke-width:1.5;" x1="383.5" x2="625.5" y1="354.2188" y2="354.2188"/><text fill="#000000" font-family="sans-serif" font-size="11" lengthAdjust="spacing" textLength="136" x="388.5" y="368.4292">+Company(designation)</text><text fill="#000000" font-family="sans-serif" font-size="11" lengthAdjust="spacing" textLength="0" x="392.5" y="381.2339"/><text fill="#000000" font-family="sans-serif" font-size="11" lengthAdjust="spacing" textLength="100" x="388.5" y="394.0386">+getAuthFacade()</text><text fill="#000000" font-family="sans-serif" font-size="11" lengthAdjust="spacing" textLength="121" x="388.5" y="406.8433">+getEmployeeStore()</text><text fill="#000000" font-family="sans-serif" font-size="11" lengthAdjust="spacing" textLength="145" x="388.5" y="419.6479">+getEmployeeRoleStore()</text><!--MD5=[649c7d4b5395a0192010c8f394938ecc]
class CheckWaitingRoomController--><rect codeLine="20" fill="#FEFECE" filter="url(#f1ovcsbp8oof7y)" height="86.4141" id="CheckWaitingRoomController" style="stroke:#A80036;stroke-width:1.5;" width="524" x="242.5" y="116"/><ellipse cx="410.25" cy="132" fill="#ADD1B2" rx="11" ry="11" style="stroke:#A80036;stroke-width:1.0;"/><path d="M413.2188,137.6406 Q412.6406,137.9375 412,138.0781 Q411.3594,138.2344 410.6563,138.2344 Q408.1563,138.2344 406.8281,136.5938 Q405.5156,134.9375 405.5156,131.8125 Q405.5156,128.6875 406.8281,127.0313 Q408.1563,125.375 410.6563,125.375 Q411.3594,125.375 412,125.5313 Q412.6563,125.6875 413.2188,125.9844 L413.2188,128.7031 Q412.5938,128.125 412,127.8594 Q411.4063,127.5781 410.7813,127.5781 Q409.4375,127.5781 408.75,128.6563 Q408.0625,129.7188 408.0625,131.8125 Q408.0625,133.9063 408.75,134.9844 Q409.4375,136.0469 410.7813,136.0469 Q411.4063,136.0469 412,135.7813 Q412.5938,135.5 413.2188,134.9219 L413.2188,137.6406 Z " fill="#000000"/><text fill="#000000" font-family="sans-serif" font-size="12" lengthAdjust="spacing" textLength="180" x="430.75" y="136.1543">CheckWaitingRoomController</text><line style="stroke:#A80036;stroke-width:1.5;" x1="243.5" x2="765.5" y1="148" y2="148"/><line style="stroke:#A80036;stroke-width:1.5;" x1="243.5" x2="765.5" y1="156" y2="156"/><text fill="#000000" font-family="sans-serif" font-size="11" lengthAdjust="spacing" textLength="97" x="248.5" y="170.2104">+getCategories()</text><text fill="#000000" font-family="sans-serif" font-size="11" lengthAdjust="spacing" textLength="512" x="248.5" y="183.0151">+CheckWaitingRoom(ref,designation,informalDesc,technicalDesc,duration,cost,categoryId)</text><text fill="#000000" font-family="sans-serif" font-size="11" lengthAdjust="spacing" textLength="71" x="248.5" y="195.8198">+saveTask()</text><!--MD5=[90ca7783d5bfc67c890f48b5b62c5590]
class CheckWaitingRoomUI--><rect codeLine="26" fill="#FEFECE" filter="url(#f1ovcsbp8oof7y)" height="48" id="CheckWaitingRoomUI" style="stroke:#A80036;stroke-width:1.5;" width="163" x="423" y="7"/><ellipse cx="438" cy="23" fill="#ADD1B2" rx="11" ry="11" style="stroke:#A80036;stroke-width:1.0;"/><path d="M440.9688,28.6406 Q440.3906,28.9375 439.75,29.0781 Q439.1094,29.2344 438.4063,29.2344 Q435.9063,29.2344 434.5781,27.5938 Q433.2656,25.9375 433.2656,22.8125 Q433.2656,19.6875 434.5781,18.0313 Q435.9063,16.375 438.4063,16.375 Q439.1094,16.375 439.75,16.5313 Q440.4063,16.6875 440.9688,16.9844 L440.9688,19.7031 Q440.3438,19.125 439.75,18.8594 Q439.1563,18.5781 438.5313,18.5781 Q437.1875,18.5781 436.5,19.6563 Q435.8125,20.7188 435.8125,22.8125 Q435.8125,24.9063 436.5,25.9844 Q437.1875,27.0469 438.5313,27.0469 Q439.1563,27.0469 439.75,26.7813 Q440.3438,26.5 440.9688,25.9219 L440.9688,28.6406 Z " fill="#000000"/><text fill="#000000" font-family="sans-serif" font-size="12" lengthAdjust="spacing" textLength="131" x="452" y="27.1543">CheckWaitingRoomUI</text><line style="stroke:#A80036;stroke-width:1.5;" x1="424" x2="585" y1="39" y2="39"/><line style="stroke:#A80036;stroke-width:1.5;" x1="424" x2="585" y1="47" y2="47"/><!--MD5=[de60e6d4f424ae4d0522096f76a59010]
class VaccinationCenter--><rect codeLine="28" fill="#FEFECE" filter="url(#f1ovcsbp8oof7y)" height="188.8516" id="VaccinationCenter" style="stroke:#A80036;stroke-width:1.5;" width="995" x="7" y="705"/><ellipse cx="442.75" cy="721" fill="#ADD1B2" rx="11" ry="11" style="stroke:#A80036;stroke-width:1.0;"/><path d="M445.7188,726.6406 Q445.1406,726.9375 444.5,727.0781 Q443.8594,727.2344 443.1563,727.2344 Q440.6563,727.2344 439.3281,725.5938 Q438.0156,723.9375 438.0156,720.8125 Q438.0156,717.6875 439.3281,716.0313 Q440.6563,714.375 443.1563,714.375 Q443.8594,714.375 444.5,714.5313 Q445.1563,714.6875 445.7188,714.9844 L445.7188,717.7031 Q445.0938,717.125 444.5,716.8594 Q443.9063,716.5781 443.2813,716.5781 Q441.9375,716.5781 441.25,717.6563 Q440.5625,718.7188 440.5625,720.8125 Q440.5625,722.9063 441.25,723.9844 Q441.9375,725.0469 443.2813,725.0469 Q443.9063,725.0469 444.5,724.7813 Q445.0938,724.5 445.7188,723.9219 L445.7188,726.6406 Z " fill="#000000"/><text fill="#000000" font-family="sans-serif" font-size="12" lengthAdjust="spacing" textLength="115" x="463.25" y="725.1543">VaccinationCenter</text><line style="stroke:#A80036;stroke-width:1.5;" x1="8" x2="1001" y1="737" y2="737"/><text fill="#000000" font-family="sans-serif" font-size="11" lengthAdjust="spacing" textLength="78" x="13" y="751.2104">-name: String</text><text fill="#000000" font-family="sans-serif" font-size="11" lengthAdjust="spacing" textLength="93" x="13" y="764.0151">-address: String</text><text fill="#000000" font-family="sans-serif" font-size="11" lengthAdjust="spacing" textLength="124" x="13" y="776.8198">-emailAddress: String</text><text fill="#000000" font-family="sans-serif" font-size="11" lengthAdjust="spacing" textLength="126" x="13" y="789.6245">-phoneNumber: String</text><text fill="#000000" font-family="sans-serif" font-size="11" lengthAdjust="spacing" textLength="108" x="13" y="802.4292">-faxNumber: String</text><text fill="#000000" font-family="sans-serif" font-size="11" lengthAdjust="spacing" textLength="137" x="13" y="815.2339">-websiteAddress: String</text><text fill="#000000" font-family="sans-serif" font-size="11" lengthAdjust="spacing" textLength="125" x="13" y="828.0386">-openingHours: String</text><text fill="#000000" font-family="sans-serif" font-size="11" lengthAdjust="spacing" textLength="120" x="13" y="840.8433">-closingHours: String</text><text fill="#000000" font-family="sans-serif" font-size="11" lengthAdjust="spacing" textLength="95" x="13" y="853.6479">-slotDuration: int</text><text fill="#000000" font-family="sans-serif" font-size="11" lengthAdjust="spacing" textLength="173" x="13" y="866.4526">-maximumVaccinesPerSlot: int</text><line style="stroke:#A80036;stroke-width:1.5;" x1="8" x2="1001" y1="873.0469" y2="873.0469"/><text fill="#000000" font-family="sans-serif" font-size="11" lengthAdjust="spacing" textLength="983" x="13" y="887.2573">+VaccinationCenter(name,address,emailAddress,phoneNumber,faxNumber,websiteAddress,openingHours,closingHours,slotDuration,maximumVaccinesPerSlot,coordinator)</text><!--MD5=[a29876ea2f21a6ca48ea477740122fd8]
class VaccinationCenterStore--><rect codeLine="43" fill="#FEFECE" filter="url(#f1ovcsbp8oof7y)" height="124.8281" id="VaccinationCenterStore" style="stroke:#A80036;stroke-width:1.5;" width="298" x="355.5" y="503"/><ellipse cx="425.75" cy="519" fill="#ADD1B2" rx="11" ry="11" style="stroke:#A80036;stroke-width:1.0;"/><path d="M428.7188,524.6406 Q428.1406,524.9375 427.5,525.0781 Q426.8594,525.2344 426.1563,525.2344 Q423.6563,525.2344 422.3281,523.5938 Q421.0156,521.9375 421.0156,518.8125 Q421.0156,515.6875 422.3281,514.0313 Q423.6563,512.375 426.1563,512.375 Q426.8594,512.375 427.5,512.5313 Q428.1563,512.6875 428.7188,512.9844 L428.7188,515.7031 Q428.0938,515.125 427.5,514.8594 Q426.9063,514.5781 426.2813,514.5781 Q424.9375,514.5781 424.25,515.6563 Q423.5625,516.7188 423.5625,518.8125 Q423.5625,520.9063 424.25,521.9844 Q424.9375,523.0469 426.2813,523.0469 Q426.9063,523.0469 427.5,522.7813 Q428.0938,522.5 428.7188,521.9219 L428.7188,524.6406 Z " fill="#000000"/><text fill="#000000" font-family="sans-serif" font-size="12" lengthAdjust="spacing" textLength="149" x="446.25" y="523.1543">VaccinationCenterStore</text><line style="stroke:#A80036;stroke-width:1.5;" x1="356.5" x2="652.5" y1="535" y2="535"/><line style="stroke:#A80036;stroke-width:1.5;" x1="356.5" x2="652.5" y1="543" y2="543"/><text fill="#000000" font-family="sans-serif" font-size="11" lengthAdjust="spacing" textLength="286" x="361.5" y="557.2104">+createVaccinationCenter(centerData,coordinator)</text><text fill="#000000" font-family="sans-serif" font-size="11" lengthAdjust="spacing" textLength="196" x="361.5" y="570.0151">+validateVaccinatonCenter(center)</text><text fill="#000000" font-family="sans-serif" font-size="11" lengthAdjust="spacing" textLength="182" x="361.5" y="582.8198">+saveVaccinationCenter(center)</text><text fill="#000000" font-family="sans-serif" font-size="11" lengthAdjust="spacing" textLength="144" x="361.5" y="595.6245">+checkDuplicates(center)</text><text fill="#000000" font-family="sans-serif" font-size="11" lengthAdjust="spacing" textLength="0" x="365.5" y="608.4292"/><text fill="#000000" font-family="sans-serif" font-size="11" lengthAdjust="spacing" textLength="171" x="361.5" y="621.2339">-addVaccinationCenter(center)</text><!--MD5=[7421f545a0d8420c5bec41e74b387d9c]
class Employee--><rect codeLine="52" fill="#FEFECE" filter="url(#f1ovcsbp8oof7y)" height="150.4375" id="Employee" style="stroke:#A80036;stroke-width:1.5;" width="388" x="261.5" y="971"/><ellipse cx="421.25" cy="987" fill="#ADD1B2" rx="11" ry="11" style="stroke:#A80036;stroke-width:1.0;"/><path d="M424.2188,992.6406 Q423.6406,992.9375 423,993.0781 Q422.3594,993.2344 421.6563,993.2344 Q419.1563,993.2344 417.8281,991.5938 Q416.5156,989.9375 416.5156,986.8125 Q416.5156,983.6875 417.8281,982.0313 Q419.1563,980.375 421.6563,980.375 Q422.3594,980.375 423,980.5313 Q423.6563,980.6875 424.2188,980.9844 L424.2188,983.7031 Q423.5938,983.125 423,982.8594 Q422.4063,982.5781 421.7813,982.5781 Q420.4375,982.5781 419.75,983.6563 Q419.0625,984.7188 419.0625,986.8125 Q419.0625,988.9063 419.75,989.9844 Q420.4375,991.0469 421.7813,991.0469 Q422.4063,991.0469 423,990.7813 Q423.5938,990.5 424.2188,989.9219 L424.2188,992.6406 Z " fill="#000000"/><text fill="#000000" font-family="sans-serif" font-size="12" lengthAdjust="spacing" textLength="60" x="441.75" y="991.1543">Employee</text><line style="stroke:#A80036;stroke-width:1.5;" x1="262.5" x2="648.5" y1="1003" y2="1003"/><text fill="#000000" font-family="sans-serif" font-size="11" lengthAdjust="spacing" textLength="56" x="267.5" y="1017.2104">-id: String</text><text fill="#000000" font-family="sans-serif" font-size="11" lengthAdjust="spacing" textLength="78" x="267.5" y="1030.0151">-name: String</text><text fill="#000000" font-family="sans-serif" font-size="11" lengthAdjust="spacing" textLength="77" x="267.5" y="1042.8198">-email: String</text><text fill="#000000" font-family="sans-serif" font-size="11" lengthAdjust="spacing" textLength="81" x="267.5" y="1055.6245">-phone: String</text><text fill="#000000" font-family="sans-serif" font-size="11" lengthAdjust="spacing" textLength="93" x="267.5" y="1068.4292">-address: String</text><text fill="#000000" font-family="sans-serif" font-size="11" lengthAdjust="spacing" textLength="133" x="267.5" y="1081.2339">-citizenCardNumber: int</text><text fill="#000000" font-family="sans-serif" font-size="11" lengthAdjust="spacing" textLength="78" x="267.5" y="1094.0386">-roleId: String</text><line style="stroke:#A80036;stroke-width:1.5;" x1="262.5" x2="648.5" y1="1100.6328" y2="1100.6328"/><text fill="#000000" font-family="sans-serif" font-size="11" lengthAdjust="spacing" textLength="376" x="267.5" y="1114.8433">+Employee(name,email,phone,address,citizenCardNumber,roleId)</text><!--MD5=[72be06cc7ae02ccc98efe28a50e62246]
class SNSUser--><rect codeLine="64" fill="#FEFECE" filter="url(#f1ovcsbp8oof7y)" height="137.6328" id="SNSUser" style="stroke:#A80036;stroke-width:1.5;" width="541" x="490" y="1320"/><ellipse cx="729.25" cy="1336" fill="#ADD1B2" rx="11" ry="11" style="stroke:#A80036;stroke-width:1.0;"/><path d="M732.2188,1341.6406 Q731.6406,1341.9375 731,1342.0781 Q730.3594,1342.2344 729.6563,1342.2344 Q727.1563,1342.2344 725.8281,1340.5938 Q724.5156,1338.9375 724.5156,1335.8125 Q724.5156,1332.6875 725.8281,1331.0313 Q727.1563,1329.375 729.6563,1329.375 Q730.3594,1329.375 731,1329.5313 Q731.6563,1329.6875 732.2188,1329.9844 L732.2188,1332.7031 Q731.5938,1332.125 731,1331.8594 Q730.4063,1331.5781 729.7813,1331.5781 Q728.4375,1331.5781 727.75,1332.6563 Q727.0625,1333.7188 727.0625,1335.8125 Q727.0625,1337.9063 727.75,1338.9844 Q728.4375,1340.0469 729.7813,1340.0469 Q730.4063,1340.0469 731,1339.7813 Q731.5938,1339.5 732.2188,1338.9219 L732.2188,1341.6406 Z " fill="#000000"/><text fill="#000000" font-family="sans-serif" font-size="12" lengthAdjust="spacing" textLength="54" x="749.75" y="1340.1543">SNSUser</text><line style="stroke:#A80036;stroke-width:1.5;" x1="491" x2="1030" y1="1352" y2="1352"/><text fill="#000000" font-family="sans-serif" font-size="11" lengthAdjust="spacing" textLength="104" x="496" y="1366.2104">-String citizenCard</text><text fill="#000000" font-family="sans-serif" font-size="11" lengthAdjust="spacing" textLength="108" x="496" y="1379.0151">-String snsNumber</text><text fill="#000000" font-family="sans-serif" font-size="11" lengthAdjust="spacing" textLength="81" x="496" y="1391.8198">-Date birthDay</text><text fill="#000000" font-family="sans-serif" font-size="11" lengthAdjust="spacing" textLength="75" x="496" y="1404.6245">-Char gender</text><text fill="#000000" font-family="sans-serif" font-size="11" lengthAdjust="spacing" textLength="122" x="496" y="1417.4292">-String phoneNumber</text><text fill="#000000" font-family="sans-serif" font-size="11" lengthAdjust="spacing" textLength="89" x="496" y="1430.2339">-String address</text><line style="stroke:#A80036;stroke-width:1.5;" x1="491" x2="1030" y1="1436.8281" y2="1436.8281"/><text fill="#000000" font-family="sans-serif" font-size="11" lengthAdjust="spacing" textLength="529" x="496" y="1451.0386">+SNSUser(citizenCard, snsNumber, name, birthDay, gender, phoneNumber, email, address)</text><!--MD5=[7b3e8f70d80133538393dc99d446cc4d]
class WaitingRoomList--><rect codeLine="74" fill="#FEFECE" filter="url(#f1ovcsbp8oof7y)" height="86.4141" id="WaitingRoomList" style="stroke:#A80036;stroke-width:1.5;" width="151" x="685" y="1003"/><ellipse cx="707.65" cy="1019" fill="#ADD1B2" rx="11" ry="11" style="stroke:#A80036;stroke-width:1.0;"/><path d="M710.6188,1024.6406 Q710.0406,1024.9375 709.4,1025.0781 Q708.7594,1025.2344 708.0563,1025.2344 Q705.5563,1025.2344 704.2281,1023.5938 Q702.9156,1021.9375 702.9156,1018.8125 Q702.9156,1015.6875 704.2281,1014.0313 Q705.5563,1012.375 708.0563,1012.375 Q708.7594,1012.375 709.4,1012.5313 Q710.0563,1012.6875 710.6188,1012.9844 L710.6188,1015.7031 Q709.9938,1015.125 709.4,1014.8594 Q708.8063,1014.5781 708.1813,1014.5781 Q706.8375,1014.5781 706.15,1015.6563 Q705.4625,1016.7188 705.4625,1018.8125 Q705.4625,1020.9063 706.15,1021.9844 Q706.8375,1023.0469 708.1813,1023.0469 Q708.8063,1023.0469 709.4,1022.7813 Q709.9938,1022.5 710.6188,1021.9219 L710.6188,1024.6406 Z " fill="#000000"/><text fill="#000000" font-family="sans-serif" font-size="12" lengthAdjust="spacing" textLength="102" x="723.35" y="1023.1543">WaitingRoomList</text><line style="stroke:#A80036;stroke-width:1.5;" x1="686" x2="835" y1="1035" y2="1035"/><line style="stroke:#A80036;stroke-width:1.5;" x1="686" x2="835" y1="1043" y2="1043"/><text fill="#000000" font-family="sans-serif" font-size="11" lengthAdjust="spacing" textLength="98" x="691" y="1057.2104">+createArrive(...)</text><text fill="#000000" font-family="sans-serif" font-size="11" lengthAdjust="spacing" textLength="113" x="691" y="1070.0151">+saveArrive(center)</text><text fill="#000000" font-family="sans-serif" font-size="11" lengthAdjust="spacing" textLength="139" x="691" y="1082.8198">-checkDuplicates(center)</text><!--MD5=[08115eac1172d84470ffcb9fecb3d07c]
link CheckWaitingRoomUI to CheckWaitingRoomController--><path codeLine="80" d="M504.5,55.11 C504.5,70.63 504.5,91.64 504.5,110.63 " fill="none" id="CheckWaitingRoomUI-to-CheckWaitingRoomController" style="stroke:#A80036;stroke-width:1.0;stroke-dasharray:7.0,7.0;"/><polygon fill="#A80036" points="504.5,115.92,508.5,106.92,504.5,110.92,500.5,106.92,504.5,115.92" style="stroke:#A80036;stroke-width:1.0;"/><!--MD5=[c4a22901b10ae08ba77ff42dd1d4908e]
link CheckWaitingRoomController to Company--><path codeLine="81" d="M504.5,202.1 C504.5,218.64 504.5,238.26 504.5,257.53 " fill="none" id="CheckWaitingRoomController-to-Company" style="stroke:#A80036;stroke-width:1.0;stroke-dasharray:7.0,7.0;"/><polygon fill="#A80036" points="504.5,262.96,508.5,253.96,504.5,257.96,500.5,253.96,504.5,262.96" style="stroke:#A80036;stroke-width:1.0;"/><!--MD5=[31bc3883e187c639ab635a41593b3a80]
reverse link Arrive to SNSUser--><path codeLine="83" d="M760.5,1272.57 C760.5,1287.16 760.5,1303.83 760.5,1319.87 " fill="none" id="Arrive-backto-SNSUser" style="stroke:#A80036;stroke-width:1.0;"/><polygon fill="#A80036" points="760.5,1259.31,756.5,1265.31,760.5,1271.31,764.5,1265.31,760.5,1259.31" style="stroke:#A80036;stroke-width:1.0;"/><!--MD5=[db5fb34fd733ab3677281d60b785e712]
reverse link VaccinationCenter to Employee--><path codeLine="85" d="M483.11,907.21 C478.82,928.65 474.39,950.73 470.38,970.77 " fill="none" id="VaccinationCenter-backto-Employee" style="stroke:#A80036;stroke-width:1.0;"/><polygon fill="#A80036" points="485.7,894.33,480.5977,899.4257,483.339,906.0954,488.4413,900.9997,485.7,894.33" style="stroke:#A80036;stroke-width:1.0;"/><text fill="#000000" font-family="sans-serif" font-size="13" lengthAdjust="spacing" textLength="73" x="480.5" y="937.0669">coordinator</text><!--MD5=[8c304936b446fd8cea914e03fbadd4b7]
link VaccinationCenterStore to VaccinationCenter--><path codeLine="86" d="M504.5,628.06 C504.5,651.55 504.5,678.9 504.5,704.72 " fill="none" id="VaccinationCenterStore-VaccinationCenter" style="stroke:#A80036;stroke-width:1.0;"/><polygon fill="#000000" points="509.5,671.5664,512.4389,662.5213,506.5611,662.5213,509.5,671.5664" style="stroke:#000000;stroke-width:1.0;"/><text fill="#000000" font-family="sans-serif" font-size="13" lengthAdjust="spacing" textLength="40" x="518.5" y="671.0669">stores</text><text fill="#000000" font-family="sans-serif" font-size="13" lengthAdjust="spacing" textLength="8" x="496.0625" y="647.8064">1</text><text fill="#000000" font-family="sans-serif" font-size="13" lengthAdjust="spacing" textLength="7" x="497.232" y="693.9668">*</text><!--MD5=[bc0d5b4bfe6e1bf0a8fced13bc4bdd47]
link Company to VaccinationCenterStore--><path codeLine="88" d="M504.5,426.11 C504.5,451.48 504.5,479.08 504.5,502.9 " fill="none" id="Company-VaccinationCenterStore" style="stroke:#A80036;stroke-width:1.0;"/><text fill="#000000" font-family="sans-serif" font-size="13" lengthAdjust="spacing" textLength="39" x="505.5" y="469.0669">knows</text><!--MD5=[d297c41963c43fd8f2fc145746986e0d]
link WaitingRoomList to Arrive--><path codeLine="90" d="M760.5,1089.32 C760.5,1122.66 760.5,1168.3 760.5,1197.85 " fill="none" id="WaitingRoomList-Arrive" style="stroke:#A80036;stroke-width:1.0;"/><text fill="#000000" font-family="sans-serif" font-size="13" lengthAdjust="spacing" textLength="40" x="761.5" y="1164.0669">stores</text><text fill="#000000" font-family="sans-serif" font-size="13" lengthAdjust="spacing" textLength="8" x="751.8625" y="1109.4639">1</text><text fill="#000000" font-family="sans-serif" font-size="13" lengthAdjust="spacing" textLength="7" x="752.7781" y="1187.0823">*</text><!--MD5=[36096f510a652bd50455fb416a944f55]
reverse link VaccinationCenter to WaitingRoomList--><path codeLine="92" d="M612.46,903.61 C648.94,938.45 687.65,975.42 716.33,1002.81 " fill="none" id="VaccinationCenter-backto-WaitingRoomList" style="stroke:#A80036;stroke-width:1.0;"/><polygon fill="#A80036" points="602.74,894.33,604.3131,901.3674,611.4143,902.622,609.8411,895.5846,602.74,894.33" style="stroke:#A80036;stroke-width:1.0;"/><!--MD5=[6606b95f3101d91c17886ef57d78cd55]
@startuml
skinparam classAttributeIconSize 0

class Arrive {
  - Date arriveTime
}

class Company {
  -designation: String
  -authFacade: AuthFacade
  -employeeStore: EmployeeStore
  -employeeRoleStore: EmployeeRoleStore
  
  +Company(designation)

  +getAuthFacade()
  +getEmployeeStore()
  +getEmployeeRoleStore()
}

class CheckWaitingRoomController {
  +getCategories()
  +CheckWaitingRoom(ref,designation,informalDesc,technicalDesc,duration,cost,categoryId)
  +saveTask()
}

class CheckWaitingRoomUI {}

class VaccinationCenter {
  - name: String
  - address: String
  - emailAddress: String
  - phoneNumber: String
  - faxNumber: String
  - websiteAddress: String
  - openingHours: String
  - closingHours: String
  - slotDuration: int
  - maximumVaccinesPerSlot: int
  
  +VaccinationCenter(name,address,emailAddress,phoneNumber,faxNumber,websiteAddress,openingHours,closingHours,slotDuration,maximumVaccinesPerSlot,coordinator)
}

class VaccinationCenterStore {
+createVaccinationCenter(centerData,coordinator)
+validateVaccinatonCenter(center)
+saveVaccinationCenter(center)
+checkDuplicates(center)

-addVaccinationCenter(center)
}

class Employee {
  -id: String 
  -name: String 
  -email: String 
  -phone: String 
  -address: String 
  -citizenCardNumber: int 
  -roleId: String 

  +Employee(name,email,phone,address,citizenCardNumber,roleId)
}

class SNSUser {
  - String citizenCard
  - String snsNumber
  - Date birthDay
  - Char gender
  - String phoneNumber
  - String address
  + SNSUser(citizenCard, snsNumber, name, birthDay, gender, phoneNumber, email, address)
}

class WaitingRoomList {
  +createArrive(...)
  +saveArrive(center)
  -checkDuplicates(center)
}

CheckWaitingRoomUI ..> CheckWaitingRoomController
CheckWaitingRoomController ..> Company

Arrive *- - SNSUser

VaccinationCenter *- - Employee : coordinator
VaccinationCenterStore "1" - - "*" VaccinationCenter : stores >

Company - - VaccinationCenterStore : knows

WaitingRoomList "1" - - "*" Arrive : stores

VaccinationCenter *- - WaitingRoomList

@enduml

PlantUML version 1.2022.0(Tue Jan 11 16:16:42 WET 2022)
(GPL source distribution)
Java Runtime: OpenJDK Runtime Environment
JVM: OpenJDK 64-Bit Server VM
Default Encoding: UTF-8
Language: en
Country: US
--></g></svg>