<?xml version="1.0" encoding="UTF-8" standalone="no"?><svg xmlns="http://www.w3.org/2000/svg" xmlns:xlink="http://www.w3.org/1999/xlink" contentScriptType="application/ecmascript" contentStyleType="text/css" height="1888px" preserveAspectRatio="none" style="width:1082px;height:1888px;background:#FFFFFF;" version="1.1" viewBox="0 0 1082 1888" width="1082px" zoomAndPan="magnify"><defs><filter height="300%" id="fbcyefsqkdzt3" width="300%" x="-1" y="-1"><feGaussianBlur result="blurOut" stdDeviation="2.0"/><feColorMatrix in="blurOut" result="blurOut2" type="matrix" values="0 0 0 0 0 0 0 0 0 0 0 0 0 0 0 0 0 0 .4 0"/><feOffset dx="4.0" dy="4.0" in="blurOut2" result="blurOut3"/><feBlend in="SourceGraphic" in2="blurOut3" mode="normal"/></filter></defs><g><!--MD5=[78ae92434308ae8f0f423f1206bee4a9]
class Arrive--><rect codeLine="3" fill="#FEFECE" filter="url(#fbcyefsqkdzt3)" height="73.6094" id="Arrive" style="stroke:#A80036;stroke-width:1.5;" width="111" x="448.5" y="1467"/><ellipse cx="483.3" cy="1483" fill="#ADD1B2" rx="11" ry="11" style="stroke:#A80036;stroke-width:1.0;"/><path d="M486.2688,1488.6406 Q485.6906,1488.9375 485.05,1489.0781 Q484.4094,1489.2344 483.7063,1489.2344 Q481.2063,1489.2344 479.8781,1487.5938 Q478.5656,1485.9375 478.5656,1482.8125 Q478.5656,1479.6875 479.8781,1478.0313 Q481.2063,1476.375 483.7063,1476.375 Q484.4094,1476.375 485.05,1476.5313 Q485.7063,1476.6875 486.2688,1476.9844 L486.2688,1479.7031 Q485.6438,1479.125 485.05,1478.8594 Q484.4563,1478.5781 483.8313,1478.5781 Q482.4875,1478.5781 481.8,1479.6563 Q481.1125,1480.7188 481.1125,1482.8125 Q481.1125,1484.9063 481.8,1485.9844 Q482.4875,1487.0469 483.8313,1487.0469 Q484.4563,1487.0469 485.05,1486.7813 Q485.6438,1486.5 486.2688,1485.9219 L486.2688,1488.6406 Z " fill="#000000"/><text fill="#000000" font-family="sans-serif" font-size="12" lengthAdjust="spacing" textLength="35" x="501.7" y="1487.1543">Arrive</text><line style="stroke:#A80036;stroke-width:1.5;" x1="449.5" x2="558.5" y1="1499" y2="1499"/><text fill="#000000" font-family="sans-serif" font-size="11" lengthAdjust="spacing" textLength="99" x="454.5" y="1513.2104">-arriveTime: Date</text><text fill="#000000" font-family="sans-serif" font-size="11" lengthAdjust="spacing" textLength="62" x="454.5" y="1526.0151">-status: int</text><line style="stroke:#A80036;stroke-width:1.5;" x1="449.5" x2="558.5" y1="1532.6094" y2="1532.6094"/><!--MD5=[23a23e4d69ec0d7a87665b0a19f7687f]
class NurseSession--><rect codeLine="8" fill="#FEFECE" filter="url(#fbcyefsqkdzt3)" height="112.0234" id="NurseSession" style="stroke:#A80036;stroke-width:1.5;" width="251" x="123.5" y="276"/><ellipse cx="201.75" cy="292" fill="#ADD1B2" rx="11" ry="11" style="stroke:#A80036;stroke-width:1.0;"/><path d="M204.7188,297.6406 Q204.1406,297.9375 203.5,298.0781 Q202.8594,298.2344 202.1563,298.2344 Q199.6563,298.2344 198.3281,296.5938 Q197.0156,294.9375 197.0156,291.8125 Q197.0156,288.6875 198.3281,287.0313 Q199.6563,285.375 202.1563,285.375 Q202.8594,285.375 203.5,285.5313 Q204.1563,285.6875 204.7188,285.9844 L204.7188,288.7031 Q204.0938,288.125 203.5,287.8594 Q202.9063,287.5781 202.2813,287.5781 Q200.9375,287.5781 200.25,288.6563 Q199.5625,289.7188 199.5625,291.8125 Q199.5625,293.9063 200.25,294.9844 Q200.9375,296.0469 202.2813,296.0469 Q202.9063,296.0469 203.5,295.7813 Q204.0938,295.5 204.7188,294.9219 L204.7188,297.6406 Z " fill="#000000"/><text fill="#000000" font-family="sans-serif" font-size="12" lengthAdjust="spacing" textLength="86" x="222.25" y="296.1543">NurseSession</text><line style="stroke:#A80036;stroke-width:1.5;" x1="124.5" x2="373.5" y1="308" y2="308"/><text fill="#000000" font-family="sans-serif" font-size="11" lengthAdjust="spacing" textLength="239" x="129.5" y="322.2104">-vaccinationCenter: VaccinationCenterDTO</text><line style="stroke:#A80036;stroke-width:1.5;" x1="124.5" x2="373.5" y1="328.8047" y2="328.8047"/><text fill="#000000" font-family="sans-serif" font-size="11" lengthAdjust="spacing" textLength="97" x="129.5" y="343.0151">+NurseSession()</text><text fill="#000000" font-family="sans-serif" font-size="11" lengthAdjust="spacing" textLength="147" x="129.5" y="355.8198">+getVaccinationCenterId()</text><text fill="#000000" font-family="sans-serif" font-size="11" lengthAdjust="spacing" textLength="183" x="129.5" y="368.6245">+setVaccinationCenterId(center)</text><text fill="#000000" font-family="sans-serif" font-size="11" lengthAdjust="spacing" textLength="76" x="129.5" y="381.4292">+hasCenter()</text><!--MD5=[02e4b9b7573f1156f41e60aa5b4e25a4]
class Company--><rect codeLine="17" fill="#FEFECE" filter="url(#fbcyefsqkdzt3)" height="137.6328" id="Company" style="stroke:#A80036;stroke-width:1.5;" width="289" x="409.5" y="263"/><ellipse cx="521.25" cy="279" fill="#ADD1B2" rx="11" ry="11" style="stroke:#A80036;stroke-width:1.0;"/><path d="M524.2188,284.6406 Q523.6406,284.9375 523,285.0781 Q522.3594,285.2344 521.6563,285.2344 Q519.1563,285.2344 517.8281,283.5938 Q516.5156,281.9375 516.5156,278.8125 Q516.5156,275.6875 517.8281,274.0313 Q519.1563,272.375 521.6563,272.375 Q522.3594,272.375 523,272.5313 Q523.6563,272.6875 524.2188,272.9844 L524.2188,275.7031 Q523.5938,275.125 523,274.8594 Q522.4063,274.5781 521.7813,274.5781 Q520.4375,274.5781 519.75,275.6563 Q519.0625,276.7188 519.0625,278.8125 Q519.0625,280.9063 519.75,281.9844 Q520.4375,283.0469 521.7813,283.0469 Q522.4063,283.0469 523,282.7813 Q523.5938,282.5 524.2188,281.9219 L524.2188,284.6406 Z " fill="#000000"/><text fill="#000000" font-family="sans-serif" font-size="12" lengthAdjust="spacing" textLength="57" x="541.75" y="283.1543">Company</text><line style="stroke:#A80036;stroke-width:1.5;" x1="410.5" x2="697.5" y1="295" y2="295"/><text fill="#000000" font-family="sans-serif" font-size="11" lengthAdjust="spacing" textLength="112" x="415.5" y="309.2104">-designation: String</text><text fill="#000000" font-family="sans-serif" font-size="11" lengthAdjust="spacing" textLength="142" x="415.5" y="322.0151">-authFacade: AuthFacade</text><text fill="#000000" font-family="sans-serif" font-size="11" lengthAdjust="spacing" textLength="277" x="415.5" y="334.8198">-vaccinationCenterStore: VaccinationCenterStore</text><line style="stroke:#A80036;stroke-width:1.5;" x1="410.5" x2="697.5" y1="341.4141" y2="341.4141"/><text fill="#000000" font-family="sans-serif" font-size="11" lengthAdjust="spacing" textLength="136" x="415.5" y="355.6245">+Company(designation)</text><text fill="#000000" font-family="sans-serif" font-size="11" lengthAdjust="spacing" textLength="0" x="419.5" y="368.4292"/><text fill="#000000" font-family="sans-serif" font-size="11" lengthAdjust="spacing" textLength="100" x="415.5" y="381.2339">+getAuthFacade()</text><text fill="#000000" font-family="sans-serif" font-size="11" lengthAdjust="spacing" textLength="168" x="415.5" y="394.0386">+getVaccinationCenterStore()</text><!--MD5=[649c7d4b5395a0192010c8f394938ecc]
class CheckWaitingRoomController--><rect codeLine="28" fill="#FEFECE" filter="url(#fbcyefsqkdzt3)" height="86.4141" id="CheckWaitingRoomController" style="stroke:#A80036;stroke-width:1.5;" width="524" x="7" y="116"/><ellipse cx="174.75" cy="132" fill="#ADD1B2" rx="11" ry="11" style="stroke:#A80036;stroke-width:1.0;"/><path d="M177.7188,137.6406 Q177.1406,137.9375 176.5,138.0781 Q175.8594,138.2344 175.1563,138.2344 Q172.6563,138.2344 171.3281,136.5938 Q170.0156,134.9375 170.0156,131.8125 Q170.0156,128.6875 171.3281,127.0313 Q172.6563,125.375 175.1563,125.375 Q175.8594,125.375 176.5,125.5313 Q177.1563,125.6875 177.7188,125.9844 L177.7188,128.7031 Q177.0938,128.125 176.5,127.8594 Q175.9063,127.5781 175.2813,127.5781 Q173.9375,127.5781 173.25,128.6563 Q172.5625,129.7188 172.5625,131.8125 Q172.5625,133.9063 173.25,134.9844 Q173.9375,136.0469 175.2813,136.0469 Q175.9063,136.0469 176.5,135.7813 Q177.0938,135.5 177.7188,134.9219 L177.7188,137.6406 Z " fill="#000000"/><text fill="#000000" font-family="sans-serif" font-size="12" lengthAdjust="spacing" textLength="180" x="195.25" y="136.1543">CheckWaitingRoomController</text><line style="stroke:#A80036;stroke-width:1.5;" x1="8" x2="530" y1="148" y2="148"/><line style="stroke:#A80036;stroke-width:1.5;" x1="8" x2="530" y1="156" y2="156"/><text fill="#000000" font-family="sans-serif" font-size="11" lengthAdjust="spacing" textLength="97" x="13" y="170.2104">+getCategories()</text><text fill="#000000" font-family="sans-serif" font-size="11" lengthAdjust="spacing" textLength="512" x="13" y="183.0151">+CheckWaitingRoom(ref,designation,informalDesc,technicalDesc,duration,cost,categoryId)</text><text fill="#000000" font-family="sans-serif" font-size="11" lengthAdjust="spacing" textLength="71" x="13" y="195.8198">+saveTask()</text><!--MD5=[90ca7783d5bfc67c890f48b5b62c5590]
class CheckWaitingRoomUI--><rect codeLine="34" fill="#FEFECE" filter="url(#fbcyefsqkdzt3)" height="48" id="CheckWaitingRoomUI" style="stroke:#A80036;stroke-width:1.5;" width="163" x="187.5" y="7"/><ellipse cx="202.5" cy="23" fill="#ADD1B2" rx="11" ry="11" style="stroke:#A80036;stroke-width:1.0;"/><path d="M205.4688,28.6406 Q204.8906,28.9375 204.25,29.0781 Q203.6094,29.2344 202.9063,29.2344 Q200.4063,29.2344 199.0781,27.5938 Q197.7656,25.9375 197.7656,22.8125 Q197.7656,19.6875 199.0781,18.0313 Q200.4063,16.375 202.9063,16.375 Q203.6094,16.375 204.25,16.5313 Q204.9063,16.6875 205.4688,16.9844 L205.4688,19.7031 Q204.8438,19.125 204.25,18.8594 Q203.6563,18.5781 203.0313,18.5781 Q201.6875,18.5781 201,19.6563 Q200.3125,20.7188 200.3125,22.8125 Q200.3125,24.9063 201,25.9844 Q201.6875,27.0469 203.0313,27.0469 Q203.6563,27.0469 204.25,26.7813 Q204.8438,26.5 205.4688,25.9219 L205.4688,28.6406 Z " fill="#000000"/><text fill="#000000" font-family="sans-serif" font-size="12" lengthAdjust="spacing" textLength="131" x="216.5" y="27.1543">CheckWaitingRoomUI</text><line style="stroke:#A80036;stroke-width:1.5;" x1="188.5" x2="349.5" y1="39" y2="39"/><line style="stroke:#A80036;stroke-width:1.5;" x1="188.5" x2="349.5" y1="47" y2="47"/><!--MD5=[de60e6d4f424ae4d0522096f76a59010]
class VaccinationCenter--><rect codeLine="36" fill="#FEFECE" filter="url(#fbcyefsqkdzt3)" height="201.6563" id="VaccinationCenter" style="stroke:#A80036;stroke-width:1.5;" width="995" x="56.5" y="677"/><ellipse cx="492.25" cy="693" fill="#ADD1B2" rx="11" ry="11" style="stroke:#A80036;stroke-width:1.0;"/><path d="M495.2188,698.6406 Q494.6406,698.9375 494,699.0781 Q493.3594,699.2344 492.6563,699.2344 Q490.1563,699.2344 488.8281,697.5938 Q487.5156,695.9375 487.5156,692.8125 Q487.5156,689.6875 488.8281,688.0313 Q490.1563,686.375 492.6563,686.375 Q493.3594,686.375 494,686.5313 Q494.6563,686.6875 495.2188,686.9844 L495.2188,689.7031 Q494.5938,689.125 494,688.8594 Q493.4063,688.5781 492.7813,688.5781 Q491.4375,688.5781 490.75,689.6563 Q490.0625,690.7188 490.0625,692.8125 Q490.0625,694.9063 490.75,695.9844 Q491.4375,697.0469 492.7813,697.0469 Q493.4063,697.0469 494,696.7813 Q494.5938,696.5 495.2188,695.9219 L495.2188,698.6406 Z " fill="#000000"/><text fill="#000000" font-family="sans-serif" font-size="12" lengthAdjust="spacing" textLength="115" x="512.75" y="697.1543">VaccinationCenter</text><line style="stroke:#A80036;stroke-width:1.5;" x1="57.5" x2="1050.5" y1="709" y2="709"/><text fill="#000000" font-family="sans-serif" font-size="11" lengthAdjust="spacing" textLength="78" x="62.5" y="723.2104">-name: String</text><text fill="#000000" font-family="sans-serif" font-size="11" lengthAdjust="spacing" textLength="93" x="62.5" y="736.0151">-address: String</text><text fill="#000000" font-family="sans-serif" font-size="11" lengthAdjust="spacing" textLength="124" x="62.5" y="748.8198">-emailAddress: String</text><text fill="#000000" font-family="sans-serif" font-size="11" lengthAdjust="spacing" textLength="126" x="62.5" y="761.6245">-phoneNumber: String</text><text fill="#000000" font-family="sans-serif" font-size="11" lengthAdjust="spacing" textLength="108" x="62.5" y="774.4292">-faxNumber: String</text><text fill="#000000" font-family="sans-serif" font-size="11" lengthAdjust="spacing" textLength="137" x="62.5" y="787.2339">-websiteAddress: String</text><text fill="#000000" font-family="sans-serif" font-size="11" lengthAdjust="spacing" textLength="125" x="62.5" y="800.0386">-openingHours: String</text><text fill="#000000" font-family="sans-serif" font-size="11" lengthAdjust="spacing" textLength="120" x="62.5" y="812.8433">-closingHours: String</text><text fill="#000000" font-family="sans-serif" font-size="11" lengthAdjust="spacing" textLength="95" x="62.5" y="825.6479">-slotDuration: int</text><text fill="#000000" font-family="sans-serif" font-size="11" lengthAdjust="spacing" textLength="173" x="62.5" y="838.4526">-maximumVaccinesPerSlot: int</text><text fill="#000000" font-family="sans-serif" font-size="11" lengthAdjust="spacing" textLength="92" x="62.5" y="851.2573">-createdAt: Date</text><line style="stroke:#A80036;stroke-width:1.5;" x1="57.5" x2="1050.5" y1="857.8516" y2="857.8516"/><text fill="#000000" font-family="sans-serif" font-size="11" lengthAdjust="spacing" textLength="983" x="62.5" y="872.062">+VaccinationCenter(name,address,emailAddress,phoneNumber,faxNumber,websiteAddress,openingHours,closingHours,slotDuration,maximumVaccinesPerSlot,coordinator)</text><!--MD5=[a29876ea2f21a6ca48ea477740122fd8]
class VaccinationCenterStore--><rect codeLine="52" fill="#FEFECE" filter="url(#fbcyefsqkdzt3)" height="137.6328" id="VaccinationCenterStore" style="stroke:#A80036;stroke-width:1.5;" width="298" x="405" y="462"/><ellipse cx="475.25" cy="478" fill="#ADD1B2" rx="11" ry="11" style="stroke:#A80036;stroke-width:1.0;"/><path d="M478.2188,483.6406 Q477.6406,483.9375 477,484.0781 Q476.3594,484.2344 475.6563,484.2344 Q473.1563,484.2344 471.8281,482.5938 Q470.5156,480.9375 470.5156,477.8125 Q470.5156,474.6875 471.8281,473.0313 Q473.1563,471.375 475.6563,471.375 Q476.3594,471.375 477,471.5313 Q477.6563,471.6875 478.2188,471.9844 L478.2188,474.7031 Q477.5938,474.125 477,473.8594 Q476.4063,473.5781 475.7813,473.5781 Q474.4375,473.5781 473.75,474.6563 Q473.0625,475.7188 473.0625,477.8125 Q473.0625,479.9063 473.75,480.9844 Q474.4375,482.0469 475.7813,482.0469 Q476.4063,482.0469 477,481.7813 Q477.5938,481.5 478.2188,480.9219 L478.2188,483.6406 Z " fill="#000000"/><text fill="#000000" font-family="sans-serif" font-size="12" lengthAdjust="spacing" textLength="149" x="495.75" y="482.1543">VaccinationCenterStore</text><line style="stroke:#A80036;stroke-width:1.5;" x1="406" x2="702" y1="494" y2="494"/><line style="stroke:#A80036;stroke-width:1.5;" x1="406" x2="702" y1="502" y2="502"/><text fill="#000000" font-family="sans-serif" font-size="11" lengthAdjust="spacing" textLength="286" x="411" y="516.2104">+createVaccinationCenter(centerData,coordinator)</text><text fill="#000000" font-family="sans-serif" font-size="11" lengthAdjust="spacing" textLength="196" x="411" y="529.0151">+validateVaccinatonCenter(center)</text><text fill="#000000" font-family="sans-serif" font-size="11" lengthAdjust="spacing" textLength="182" x="411" y="541.8198">+saveVaccinationCenter(center)</text><text fill="#000000" font-family="sans-serif" font-size="11" lengthAdjust="spacing" textLength="144" x="411" y="554.6245">+checkDuplicates(center)</text><text fill="#000000" font-family="sans-serif" font-size="11" lengthAdjust="spacing" textLength="143" x="411" y="567.4292">+getWaitingRoom(center)</text><text fill="#000000" font-family="sans-serif" font-size="11" lengthAdjust="spacing" textLength="0" x="415" y="580.2339"/><text fill="#000000" font-family="sans-serif" font-size="11" lengthAdjust="spacing" textLength="171" x="411" y="593.0386">-addVaccinationCenter(center)</text><!--MD5=[7421f545a0d8420c5bec41e74b387d9c]
class Employee--><rect codeLine="62" fill="#FEFECE" filter="url(#fbcyefsqkdzt3)" height="150.4375" id="Employee" style="stroke:#A80036;stroke-width:1.5;" width="388" x="113" y="956"/><ellipse cx="272.75" cy="972" fill="#ADD1B2" rx="11" ry="11" style="stroke:#A80036;stroke-width:1.0;"/><path d="M275.7188,977.6406 Q275.1406,977.9375 274.5,978.0781 Q273.8594,978.2344 273.1563,978.2344 Q270.6563,978.2344 269.3281,976.5938 Q268.0156,974.9375 268.0156,971.8125 Q268.0156,968.6875 269.3281,967.0313 Q270.6563,965.375 273.1563,965.375 Q273.8594,965.375 274.5,965.5313 Q275.1563,965.6875 275.7188,965.9844 L275.7188,968.7031 Q275.0938,968.125 274.5,967.8594 Q273.9063,967.5781 273.2813,967.5781 Q271.9375,967.5781 271.25,968.6563 Q270.5625,969.7188 270.5625,971.8125 Q270.5625,973.9063 271.25,974.9844 Q271.9375,976.0469 273.2813,976.0469 Q273.9063,976.0469 274.5,975.7813 Q275.0938,975.5 275.7188,974.9219 L275.7188,977.6406 Z " fill="#000000"/><text fill="#000000" font-family="sans-serif" font-size="12" lengthAdjust="spacing" textLength="60" x="293.25" y="976.1543">Employee</text><line style="stroke:#A80036;stroke-width:1.5;" x1="114" x2="500" y1="988" y2="988"/><text fill="#000000" font-family="sans-serif" font-size="11" lengthAdjust="spacing" textLength="56" x="119" y="1002.2104">-id: String</text><text fill="#000000" font-family="sans-serif" font-size="11" lengthAdjust="spacing" textLength="78" x="119" y="1015.0151">-name: String</text><text fill="#000000" font-family="sans-serif" font-size="11" lengthAdjust="spacing" textLength="77" x="119" y="1027.8198">-email: String</text><text fill="#000000" font-family="sans-serif" font-size="11" lengthAdjust="spacing" textLength="81" x="119" y="1040.6245">-phone: String</text><text fill="#000000" font-family="sans-serif" font-size="11" lengthAdjust="spacing" textLength="93" x="119" y="1053.4292">-address: String</text><text fill="#000000" font-family="sans-serif" font-size="11" lengthAdjust="spacing" textLength="133" x="119" y="1066.2339">-citizenCardNumber: int</text><text fill="#000000" font-family="sans-serif" font-size="11" lengthAdjust="spacing" textLength="78" x="119" y="1079.0386">-roleId: String</text><line style="stroke:#A80036;stroke-width:1.5;" x1="114" x2="500" y1="1085.6328" y2="1085.6328"/><text fill="#000000" font-family="sans-serif" font-size="11" lengthAdjust="spacing" textLength="376" x="119" y="1099.8433">+Employee(name,email,phone,address,citizenCardNumber,roleId)</text><!--MD5=[72be06cc7ae02ccc98efe28a50e62246]
class SNSUser--><rect codeLine="74" fill="#FEFECE" filter="url(#fbcyefsqkdzt3)" height="137.6328" id="SNSUser" style="stroke:#A80036;stroke-width:1.5;" width="541" x="231.5" y="1737"/><ellipse cx="470.75" cy="1753" fill="#ADD1B2" rx="11" ry="11" style="stroke:#A80036;stroke-width:1.0;"/><path d="M473.7188,1758.6406 Q473.1406,1758.9375 472.5,1759.0781 Q471.8594,1759.2344 471.1563,1759.2344 Q468.6563,1759.2344 467.3281,1757.5938 Q466.0156,1755.9375 466.0156,1752.8125 Q466.0156,1749.6875 467.3281,1748.0313 Q468.6563,1746.375 471.1563,1746.375 Q471.8594,1746.375 472.5,1746.5313 Q473.1563,1746.6875 473.7188,1746.9844 L473.7188,1749.7031 Q473.0938,1749.125 472.5,1748.8594 Q471.9063,1748.5781 471.2813,1748.5781 Q469.9375,1748.5781 469.25,1749.6563 Q468.5625,1750.7188 468.5625,1752.8125 Q468.5625,1754.9063 469.25,1755.9844 Q469.9375,1757.0469 471.2813,1757.0469 Q471.9063,1757.0469 472.5,1756.7813 Q473.0938,1756.5 473.7188,1755.9219 L473.7188,1758.6406 Z " fill="#000000"/><text fill="#000000" font-family="sans-serif" font-size="12" lengthAdjust="spacing" textLength="54" x="491.25" y="1757.1543">SNSUser</text><line style="stroke:#A80036;stroke-width:1.5;" x1="232.5" x2="771.5" y1="1769" y2="1769"/><text fill="#000000" font-family="sans-serif" font-size="11" lengthAdjust="spacing" textLength="104" x="237.5" y="1783.2104">-String citizenCard</text><text fill="#000000" font-family="sans-serif" font-size="11" lengthAdjust="spacing" textLength="108" x="237.5" y="1796.0151">-String snsNumber</text><text fill="#000000" font-family="sans-serif" font-size="11" lengthAdjust="spacing" textLength="81" x="237.5" y="1808.8198">-Date birthDay</text><text fill="#000000" font-family="sans-serif" font-size="11" lengthAdjust="spacing" textLength="75" x="237.5" y="1821.6245">-Char gender</text><text fill="#000000" font-family="sans-serif" font-size="11" lengthAdjust="spacing" textLength="122" x="237.5" y="1834.4292">-String phoneNumber</text><text fill="#000000" font-family="sans-serif" font-size="11" lengthAdjust="spacing" textLength="89" x="237.5" y="1847.2339">-String address</text><line style="stroke:#A80036;stroke-width:1.5;" x1="232.5" x2="771.5" y1="1853.8281" y2="1853.8281"/><text fill="#000000" font-family="sans-serif" font-size="11" lengthAdjust="spacing" textLength="529" x="237.5" y="1868.0386">+SNSUser(citizenCard, snsNumber, name, birthDay, gender, phoneNumber, email, address)</text><!--MD5=[aaa7e27c4ec43917c82a021675d2c87a]
class WaitingRoom--><rect codeLine="84" fill="#FEFECE" filter="url(#fbcyefsqkdzt3)" height="99.2188" id="WaitingRoom" style="stroke:#A80036;stroke-width:1.5;" width="272" x="368" y="1291"/><ellipse cx="459.25" cy="1307" fill="#ADD1B2" rx="11" ry="11" style="stroke:#A80036;stroke-width:1.0;"/><path d="M462.2188,1312.6406 Q461.6406,1312.9375 461,1313.0781 Q460.3594,1313.2344 459.6563,1313.2344 Q457.1563,1313.2344 455.8281,1311.5938 Q454.5156,1309.9375 454.5156,1306.8125 Q454.5156,1303.6875 455.8281,1302.0313 Q457.1563,1300.375 459.6563,1300.375 Q460.3594,1300.375 461,1300.5313 Q461.6563,1300.6875 462.2188,1300.9844 L462.2188,1303.7031 Q461.5938,1303.125 461,1302.8594 Q460.4063,1302.5781 459.7813,1302.5781 Q458.4375,1302.5781 457.75,1303.6563 Q457.0625,1304.7188 457.0625,1306.8125 Q457.0625,1308.9063 457.75,1309.9844 Q458.4375,1311.0469 459.7813,1311.0469 Q460.4063,1311.0469 461,1310.7813 Q461.5938,1310.5 462.2188,1309.9219 L462.2188,1312.6406 Z " fill="#000000"/><text fill="#000000" font-family="sans-serif" font-size="12" lengthAdjust="spacing" textLength="81" x="479.75" y="1311.1543">WaitingRoom</text><line style="stroke:#A80036;stroke-width:1.5;" x1="369" x2="639" y1="1323" y2="1323"/><line style="stroke:#A80036;stroke-width:1.5;" x1="369" x2="639" y1="1331" y2="1331"/><text fill="#000000" font-family="sans-serif" font-size="11" lengthAdjust="spacing" textLength="260" x="374" y="1345.2104">+createArrive(arriveTime, user, appointment)</text><text fill="#000000" font-family="sans-serif" font-size="11" lengthAdjust="spacing" textLength="110" x="374" y="1358.0151">+saveArrive(arrive)</text><text fill="#000000" font-family="sans-serif" font-size="11" lengthAdjust="spacing" textLength="126" x="374" y="1370.8198">+removeArrive(arrive)</text><text fill="#000000" font-family="sans-serif" font-size="11" lengthAdjust="spacing" textLength="136" x="374" y="1383.6245">-checkDuplicates(arrive)</text><!--MD5=[b4a0548d6298032516964bfe562cd853]
class AppointmentSchedule--><rect codeLine="91" fill="#FEFECE" filter="url(#fbcyefsqkdzt3)" height="124.8281" id="AppointmentSchedule" style="stroke:#A80036;stroke-width:1.5;" width="237" x="577.5" y="1136"/><ellipse cx="622.75" cy="1152" fill="#ADD1B2" rx="11" ry="11" style="stroke:#A80036;stroke-width:1.0;"/><path d="M625.7188,1157.6406 Q625.1406,1157.9375 624.5,1158.0781 Q623.8594,1158.2344 623.1563,1158.2344 Q620.6563,1158.2344 619.3281,1156.5938 Q618.0156,1154.9375 618.0156,1151.8125 Q618.0156,1148.6875 619.3281,1147.0313 Q620.6563,1145.375 623.1563,1145.375 Q623.8594,1145.375 624.5,1145.5313 Q625.1563,1145.6875 625.7188,1145.9844 L625.7188,1148.7031 Q625.0938,1148.125 624.5,1147.8594 Q623.9063,1147.5781 623.2813,1147.5781 Q621.9375,1147.5781 621.25,1148.6563 Q620.5625,1149.7188 620.5625,1151.8125 Q620.5625,1153.9063 621.25,1154.9844 Q621.9375,1156.0469 623.2813,1156.0469 Q623.9063,1156.0469 624.5,1155.7813 Q625.0938,1155.5 625.7188,1154.9219 L625.7188,1157.6406 Z " fill="#000000"/><text fill="#000000" font-family="sans-serif" font-size="12" lengthAdjust="spacing" textLength="138" x="643.25" y="1156.1543">AppointmentSchedule</text><line style="stroke:#A80036;stroke-width:1.5;" x1="578.5" x2="813.5" y1="1168" y2="1168"/><text fill="#000000" font-family="sans-serif" font-size="11" lengthAdjust="spacing" textLength="215" x="583.5" y="1182.2104">-appointments: List&lt;Appointment[][]&gt;</text><line style="stroke:#A80036;stroke-width:1.5;" x1="578.5" x2="813.5" y1="1188.8047" y2="1188.8047"/><text fill="#000000" font-family="sans-serif" font-size="11" lengthAdjust="spacing" textLength="225" x="583.5" y="1203.0151">+createAppointment(date,user,vaccine)</text><text fill="#000000" font-family="sans-serif" font-size="11" lengthAdjust="spacing" textLength="186" x="583.5" y="1215.8198">+saveAppointment(appointment)</text><text fill="#000000" font-family="sans-serif" font-size="11" lengthAdjust="spacing" textLength="0" x="587.5" y="1228.6245"/><text fill="#000000" font-family="sans-serif" font-size="11" lengthAdjust="spacing" textLength="177" x="583.5" y="1241.4292">-getAppointmentDayIndex(date)</text><text fill="#000000" font-family="sans-serif" font-size="11" lengthAdjust="spacing" textLength="179" x="583.5" y="1254.2339">-getAppointmentSlotIndex(hour)</text><!--MD5=[c508b5b6bbe276ff5e2700b6641f837f]
class Appointment--><rect codeLine="100" fill="#FEFECE" filter="url(#fbcyefsqkdzt3)" height="73.6094" id="Appointment" style="stroke:#A80036;stroke-width:1.5;" width="281" x="555.5" y="1602"/><ellipse cx="651.75" cy="1618" fill="#ADD1B2" rx="11" ry="11" style="stroke:#A80036;stroke-width:1.0;"/><path d="M654.7188,1623.6406 Q654.1406,1623.9375 653.5,1624.0781 Q652.8594,1624.2344 652.1563,1624.2344 Q649.6563,1624.2344 648.3281,1622.5938 Q647.0156,1620.9375 647.0156,1617.8125 Q647.0156,1614.6875 648.3281,1613.0313 Q649.6563,1611.375 652.1563,1611.375 Q652.8594,1611.375 653.5,1611.5313 Q654.1563,1611.6875 654.7188,1611.9844 L654.7188,1614.7031 Q654.0938,1614.125 653.5,1613.8594 Q652.9063,1613.5781 652.2813,1613.5781 Q650.9375,1613.5781 650.25,1614.6563 Q649.5625,1615.7188 649.5625,1617.8125 Q649.5625,1619.9063 650.25,1620.9844 Q650.9375,1622.0469 652.2813,1622.0469 Q652.9063,1622.0469 653.5,1621.7813 Q654.0938,1621.5 654.7188,1620.9219 L654.7188,1623.6406 Z " fill="#000000"/><text fill="#000000" font-family="sans-serif" font-size="12" lengthAdjust="spacing" textLength="80" x="672.25" y="1622.1543">Appointment</text><line style="stroke:#A80036;stroke-width:1.5;" x1="556.5" x2="835.5" y1="1634" y2="1634"/><text fill="#000000" font-family="sans-serif" font-size="11" lengthAdjust="spacing" textLength="131" x="561.5" y="1648.2104">-Date appointmentDate</text><line style="stroke:#A80036;stroke-width:1.5;" x1="556.5" x2="835.5" y1="1654.8047" y2="1654.8047"/><text fill="#000000" font-family="sans-serif" font-size="11" lengthAdjust="spacing" textLength="269" x="561.5" y="1669.0151">+Appointment(appointmentDate, user, vaccine)</text><!--MD5=[19e445fc4d3b48519cbe33da05496394]
class Vaccine--><rect codeLine="106" fill="#FEFECE" filter="url(#fbcyefsqkdzt3)" height="112.0234" id="Vaccine" style="stroke:#A80036;stroke-width:1.5;" width="261" x="807.5" y="1750"/><ellipse cx="909.25" cy="1766" fill="#ADD1B2" rx="11" ry="11" style="stroke:#A80036;stroke-width:1.0;"/><path d="M912.2188,1771.6406 Q911.6406,1771.9375 911,1772.0781 Q910.3594,1772.2344 909.6563,1772.2344 Q907.1563,1772.2344 905.8281,1770.5938 Q904.5156,1768.9375 904.5156,1765.8125 Q904.5156,1762.6875 905.8281,1761.0313 Q907.1563,1759.375 909.6563,1759.375 Q910.3594,1759.375 911,1759.5313 Q911.6563,1759.6875 912.2188,1759.9844 L912.2188,1762.7031 Q911.5938,1762.125 911,1761.8594 Q910.4063,1761.5781 909.7813,1761.5781 Q908.4375,1761.5781 907.75,1762.6563 Q907.0625,1763.7188 907.0625,1765.8125 Q907.0625,1767.9063 907.75,1768.9844 Q908.4375,1770.0469 909.7813,1770.0469 Q910.4063,1770.0469 911,1769.7813 Q911.5938,1769.5 912.2188,1768.9219 L912.2188,1771.6406 Z " fill="#000000"/><text fill="#000000" font-family="sans-serif" font-size="12" lengthAdjust="spacing" textLength="49" x="929.75" y="1770.1543">Vaccine</text><line style="stroke:#A80036;stroke-width:1.5;" x1="808.5" x2="1067.5" y1="1782" y2="1782"/><text fill="#000000" font-family="sans-serif" font-size="11" lengthAdjust="spacing" textLength="116" x="813.5" y="1796.2104">-designation : String</text><text fill="#000000" font-family="sans-serif" font-size="11" lengthAdjust="spacing" textLength="83" x="813.5" y="1809.0151">-brand : String</text><text fill="#000000" font-family="sans-serif" font-size="11" lengthAdjust="spacing" textLength="60" x="813.5" y="1821.8198">-id : String</text><text fill="#000000" font-family="sans-serif" font-size="11" lengthAdjust="spacing" textLength="132" x="813.5" y="1834.6245">-vacType : VaccineType</text><line style="stroke:#A80036;stroke-width:1.5;" x1="808.5" x2="1067.5" y1="1841.2188" y2="1841.2188"/><text fill="#000000" font-family="sans-serif" font-size="11" lengthAdjust="spacing" textLength="249" x="813.5" y="1855.4292">+Vaccine(designation, id, brand, vacTypeId)</text><!--MD5=[08115eac1172d84470ffcb9fecb3d07c]
link CheckWaitingRoomUI to CheckWaitingRoomController--><path codeLine="115" d="M269,55.11 C269,70.63 269,91.64 269,110.63 " fill="none" id="CheckWaitingRoomUI-to-CheckWaitingRoomController" style="stroke:#A80036;stroke-width:1.0;stroke-dasharray:7.0,7.0;"/><polygon fill="#A80036" points="269,115.92,273,106.92,269,110.92,265,106.92,269,115.92" style="stroke:#A80036;stroke-width:1.0;"/><!--MD5=[c4a22901b10ae08ba77ff42dd1d4908e]
link CheckWaitingRoomController to Company--><path codeLine="116" d="M339.08,202.05 C368.34,219.61 403.15,240.49 436.14,260.28 " fill="none" id="CheckWaitingRoomController-to-Company" style="stroke:#A80036;stroke-width:1.0;stroke-dasharray:7.0,7.0;"/><polygon fill="#A80036" points="440.57,262.94,434.9105,254.8796,436.2825,260.3675,430.7946,261.7395,440.57,262.94" style="stroke:#A80036;stroke-width:1.0;"/><!--MD5=[31bc3883e187c639ab635a41593b3a80]
reverse link Arrive to SNSUser--><path codeLine="118" d="M503.67,1554.45 C503.34,1604.18 502.83,1681.24 502.45,1736.77 " fill="none" id="Arrive-backto-SNSUser" style="stroke:#A80036;stroke-width:1.0;"/><polygon fill="#FFFFFF" points="503.76,1541.19,499.7205,1547.1635,503.6809,1553.1897,507.7204,1547.2162,503.76,1541.19" style="stroke:#A80036;stroke-width:1.0;"/><!--MD5=[ff7ffb44303c2619dc2a6d1709f87c0a]
reverse link Arrive to Appointment--><path codeLine="119" d="M567,1548.64 C591.87,1565.87 620.1,1585.42 643.8,1601.84 " fill="none" id="Arrive-backto-Appointment" style="stroke:#A80036;stroke-width:1.0;"/><polygon fill="#FFFFFF" points="556.21,1541.17,558.8654,1547.8744,566.0754,1548.0019,563.42,1541.2975,556.21,1541.17" style="stroke:#A80036;stroke-width:1.0;"/><!--MD5=[886ef4516489c6e399d7a259bbef452e]
reverse link Appointment to SNSUser--><path codeLine="120" d="M643.52,1684.64 C624.57,1700.75 602.74,1719.32 581.98,1736.98 " fill="none" id="Appointment-backto-SNSUser" style="stroke:#A80036;stroke-width:1.0;"/><polygon fill="#FFFFFF" points="653.43,1676.21,646.2677,1677.0478,644.2864,1683.9814,651.4487,1683.1436,653.43,1676.21" style="stroke:#A80036;stroke-width:1.0;"/><!--MD5=[db5fb34fd733ab3677281d60b785e712]
reverse link VaccinationCenter to Employee--><path codeLine="122" d="M446.13,888.62 C423.8,911.31 400.77,934.71 380.04,955.78 " fill="none" id="VaccinationCenter-backto-Employee" style="stroke:#A80036;stroke-width:1.0;"/><polygon fill="#FFFFFF" points="455.31,879.28,448.2513,880.7546,446.8975,887.8375,453.9563,886.3629,455.31,879.28" style="stroke:#A80036;stroke-width:1.0;"/><text fill="#000000" font-family="sans-serif" font-size="13" lengthAdjust="spacing" textLength="73" x="424" y="922.0669">coordinator</text><!--MD5=[8c304936b446fd8cea914e03fbadd4b7]
link VaccinationCenterStore to VaccinationCenter--><path codeLine="123" d="M554,600.25 C554,623.89 554,650.92 554,676.6 " fill="none" id="VaccinationCenterStore-VaccinationCenter" style="stroke:#A80036;stroke-width:1.0;"/><polygon fill="#000000" points="559,643.5664,561.9389,634.5213,556.0611,634.5213,559,643.5664" style="stroke:#000000;stroke-width:1.0;"/><text fill="#000000" font-family="sans-serif" font-size="13" lengthAdjust="spacing" textLength="40" x="568" y="643.0669">stores</text><text fill="#000000" font-family="sans-serif" font-size="13" lengthAdjust="spacing" textLength="8" x="545.6188" y="619.656">1</text><text fill="#000000" font-family="sans-serif" font-size="13" lengthAdjust="spacing" textLength="7" x="546.7539" y="666.0266">*</text><!--MD5=[bc0d5b4bfe6e1bf0a8fced13bc4bdd47]
link Company to VaccinationCenterStore--><path codeLine="125" d="M554,401.07 C554,419.07 554,438.56 554,456.81 " fill="none" id="Company-to-VaccinationCenterStore" style="stroke:#A80036;stroke-width:1.0;stroke-dasharray:7.0,7.0;"/><polygon fill="#A80036" points="554,461.93,558,452.93,554,456.93,550,452.93,554,461.93" style="stroke:#A80036;stroke-width:1.0;"/><!--MD5=[04b89ef215574516b8e6054bd09ef5bf]
link WaitingRoom to Arrive--><path codeLine="127" d="M504,1390.39 C504,1415 504,1444.3 504,1466.84 " fill="none" id="WaitingRoom-Arrive" style="stroke:#A80036;stroke-width:1.0;"/><polygon fill="#000000" points="509,1433.5664,511.9389,1424.5213,506.0611,1424.5213,509,1433.5664" style="stroke:#000000;stroke-width:1.0;"/><text fill="#000000" font-family="sans-serif" font-size="13" lengthAdjust="spacing" textLength="40" x="518" y="1433.0669">stores</text><text fill="#000000" font-family="sans-serif" font-size="13" lengthAdjust="spacing" textLength="8" x="495.4625" y="1410.1629">1</text><text fill="#000000" font-family="sans-serif" font-size="13" lengthAdjust="spacing" textLength="7" x="496.3766" y="1455.9985">*</text><!--MD5=[25eca511ec10d71a470e3bc6f34b08e8]
link Employee to WaitingRoom--><path codeLine="129" d="M354.44,1106.05 C391.1,1163.27 440.8,1240.85 472.64,1290.55 " fill="none" id="Employee-WaitingRoom" style="stroke:#A80036;stroke-width:1.0;"/><polygon fill="#000000" points="458.6972,1202.7765,456.2926,1193.575,451.3433,1196.7457,458.6972,1202.7765" style="stroke:#000000;stroke-width:1.0;"/><text fill="#000000" font-family="sans-serif" font-size="13" lengthAdjust="spacing" textLength="44" x="465" y="1203.0669">checks</text><text fill="#000000" font-family="sans-serif" font-size="13" lengthAdjust="spacing" textLength="8" x="350.9198" y="1126.6142">1</text><text fill="#000000" font-family="sans-serif" font-size="13" lengthAdjust="spacing" textLength="7" x="460.9557" y="1279.8913">*</text><!--MD5=[69fb8150206cb5f27b4d9e739861feb3]
reverse link VaccinationCenter to WaitingRoom--><path codeLine="130" d="M548.79,892.65 C543.51,990.53 533.84,1135.44 518,1261 C516.79,1270.61 515.19,1280.84 513.51,1290.62 " fill="none" id="VaccinationCenter-backto-WaitingRoom" style="stroke:#A80036;stroke-width:1.0;"/><polygon fill="#A80036" points="549.49,879.46,545.1792,885.2407,548.8572,891.4433,553.168,885.6626,549.49,879.46" style="stroke:#A80036;stroke-width:1.0;"/><!--MD5=[4e225734c614e51a8b63b4b70bdd41bb]
link CheckWaitingRoomController to NurseSession--><path codeLine="132" d="M264.06,202.27 C261.64,222.96 258.68,248.23 256.03,270.88 " fill="none" id="CheckWaitingRoomController-to-NurseSession" style="stroke:#A80036;stroke-width:1.0;stroke-dasharray:7.0,7.0;"/><polygon fill="#A80036" points="255.44,275.98,260.4443,267.4973,256.0126,271.0129,252.497,266.5811,255.44,275.98" style="stroke:#A80036;stroke-width:1.0;"/><!--MD5=[3459502561091effe279a85d4bf3cd82]
link AppointmentSchedule to Appointment--><path codeLine="134" d="M696,1261.4 C696,1354.29 696,1526.85 696,1601.75 " fill="none" id="AppointmentSchedule-Appointment" style="stroke:#A80036;stroke-width:1.0;"/><polygon fill="#000000" points="701,1433.5664,703.9389,1424.5213,698.0611,1424.5213,701,1433.5664" style="stroke:#000000;stroke-width:1.0;"/><text fill="#000000" font-family="sans-serif" font-size="13" lengthAdjust="spacing" textLength="40" x="710" y="1433.0669">stores</text><text fill="#000000" font-family="sans-serif" font-size="13" lengthAdjust="spacing" textLength="8" x="687.5875" y="1280.7426">1</text><text fill="#000000" font-family="sans-serif" font-size="13" lengthAdjust="spacing" textLength="7" x="688.3766" y="1590.8924">*</text><!--MD5=[da88bfb65f22125082aaa5e606aea7f7]
reverse link VaccinationCenter to AppointmentSchedule--><path codeLine="135" d="M592.21,891.62 C618.81,970.02 653.29,1071.61 675.03,1135.7 " fill="none" id="VaccinationCenter-backto-AppointmentSchedule" style="stroke:#A80036;stroke-width:1.0;"/><polygon fill="#A80036" points="588.01,879.24,586.1465,886.2062,591.8601,890.6056,593.7236,883.6394,588.01,879.24" style="stroke:#A80036;stroke-width:1.0;"/><!--MD5=[c6a9fd2ed221381c7fd630d6ad7e89b0]
reverse link Appointment to Vaccine--><path codeLine="136" d="M759.92,1683.58 C789.74,1703.91 825.55,1728.33 857.22,1749.92 " fill="none" id="Appointment-backto-Vaccine" style="stroke:#A80036;stroke-width:1.0;"/><polygon fill="#FFFFFF" points="748.81,1676.01,751.5184,1682.6931,758.7292,1682.7635,756.0208,1676.0803,748.81,1676.01" style="stroke:#A80036;stroke-width:1.0;"/><!--MD5=[14c1c155208da080192b5ce5a5d45525]
@startuml
skinparam classAttributeIconSize 0

class Arrive {
  -arriveTime: Date
  -status: int
}

class NurseSession {
  -vaccinationCenter: VaccinationCenterDTO

  + NurseSession()
  + getVaccinationCenterId()
  + setVaccinationCenterId(center)
  + hasCenter()
}

class Company {
  -designation: String
  -authFacade: AuthFacade
  -vaccinationCenterStore: VaccinationCenterStore
  
  +Company(designation)

  +getAuthFacade()
  +getVaccinationCenterStore()
}

class CheckWaitingRoomController {
  +getCategories()
  +CheckWaitingRoom(ref,designation,informalDesc,technicalDesc,duration,cost,categoryId)
  +saveTask()
}

class CheckWaitingRoomUI {}

class VaccinationCenter {
  - name: String
  - address: String
  - emailAddress: String
  - phoneNumber: String
  - faxNumber: String
  - websiteAddress: String
  - openingHours: String
  - closingHours: String
  - slotDuration: int
  - maximumVaccinesPerSlot: int
  -createdAt: Date
  
  +VaccinationCenter(name,address,emailAddress,phoneNumber,faxNumber,websiteAddress,openingHours,closingHours,slotDuration,maximumVaccinesPerSlot,coordinator)
}

class VaccinationCenterStore {
  +createVaccinationCenter(centerData,coordinator)
  +validateVaccinatonCenter(center)
  +saveVaccinationCenter(center)
  +checkDuplicates(center)
  +getWaitingRoom(center)

  -addVaccinationCenter(center)
}

class Employee {
  -id: String 
  -name: String 
  -email: String 
  -phone: String 
  -address: String 
  -citizenCardNumber: int 
  -roleId: String 

  +Employee(name,email,phone,address,citizenCardNumber,roleId)
}

class SNSUser {
  - String citizenCard
  - String snsNumber
  - Date birthDay
  - Char gender
  - String phoneNumber
  - String address
  + SNSUser(citizenCard, snsNumber, name, birthDay, gender, phoneNumber, email, address)
}

class WaitingRoom {
  +createArrive(arriveTime, user, appointment)
  +saveArrive(arrive)
  +removeArrive(arrive)
  -checkDuplicates(arrive)
}

class AppointmentSchedule {
  -appointments: List<Appointment[][]>
  +createAppointment(date,user,vaccine)
  +saveAppointment(appointment)

  -getAppointmentDayIndex(date)
  -getAppointmentSlotIndex(hour)
}

class Appointment {
  -Date appointmentDate

  +Appointment(appointmentDate, user, vaccine)
}

class Vaccine{
  -designation : String
  -brand : String
  -id : String
  -vacType : VaccineType

  +Vaccine(designation, id, brand, vacTypeId)
}

CheckWaitingRoomUI ..> CheckWaitingRoomController
CheckWaitingRoomController ..> Company

Arrive o- - SNSUser
Arrive o- - Appointment
Appointment o- - SNSUser

VaccinationCenter o- - Employee : coordinator
VaccinationCenterStore "1" - - "*" VaccinationCenter : stores >

Company ..> VaccinationCenterStore

WaitingRoom "1" - - "*" Arrive : stores >

Employee "1" - - "*" WaitingRoom : checks >
VaccinationCenter *- - WaitingRoom

CheckWaitingRoomController ..> NurseSession

AppointmentSchedule "1" - - "*" Appointment : stores >
VaccinationCenter *- - AppointmentSchedule
Appointment o- - Vaccine

@enduml

PlantUML version 1.2022.0(Tue Jan 11 16:16:42 WET 2022)
(GPL source distribution)
Java Runtime: OpenJDK Runtime Environment
JVM: OpenJDK 64-Bit Server VM
Default Encoding: UTF-8
Language: en
Country: US
--></g></svg>