<?xml version="1.0" encoding="UTF-8" standalone="no"?><svg xmlns="http://www.w3.org/2000/svg" xmlns:xlink="http://www.w3.org/1999/xlink" contentScriptType="application/ecmascript" contentStyleType="text/css" height="1283px" preserveAspectRatio="none" style="width:2038px;height:1283px;background:#FFFFFF;" version="1.1" viewBox="0 0 2038 1283" width="2038px" zoomAndPan="magnify"><defs><filter height="300%" id="ffwrwidhmel5f" width="300%" x="-1" y="-1"><feGaussianBlur result="blurOut" stdDeviation="2.0"/><feColorMatrix in="blurOut" result="blurOut2" type="matrix" values="0 0 0 0 0 0 0 0 0 0 0 0 0 0 0 0 0 0 .4 0"/><feOffset dx="4.0" dy="4.0" in="blurOut2" result="blurOut3"/><feBlend in="SourceGraphic" in2="blurOut3" mode="normal"/></filter></defs><g><!--MD5=[78ae92434308ae8f0f423f1206bee4a9]
class Arrive--><rect codeLine="3" fill="#FEFECE" filter="url(#ffwrwidhmel5f)" height="73.6094" id="Arrive" style="stroke:#A80036;stroke-width:1.5;" width="107" x="321.8072" y="295"/><ellipse cx="354.8072" cy="311" fill="#ADD1B2" rx="11" ry="11" style="stroke:#A80036;stroke-width:1.0;"/><path d="M357.776,316.6406 Q357.1979,316.9375 356.5572,317.0781 Q355.9166,317.2344 355.2135,317.2344 Q352.7135,317.2344 351.3854,315.5938 Q350.0729,313.9375 350.0729,310.8125 Q350.0729,307.6875 351.3854,306.0313 Q352.7135,304.375 355.2135,304.375 Q355.9166,304.375 356.5572,304.5313 Q357.2135,304.6875 357.776,304.9844 L357.776,307.7031 Q357.151,307.125 356.5572,306.8594 Q355.9635,306.5781 355.3385,306.5781 Q353.9947,306.5781 353.3072,307.6563 Q352.6197,308.7188 352.6197,310.8125 Q352.6197,312.9063 353.3072,313.9844 Q353.9947,315.0469 355.3385,315.0469 Q355.9635,315.0469 356.5572,314.7813 Q357.151,314.5 357.776,313.9219 L357.776,316.6406 Z " fill="#000000"/><text fill="#000000" font-family="sans-serif" font-size="12" lengthAdjust="spacing" textLength="35" x="372.8072" y="315.1543">Arrive</text><line style="stroke:#A80036;stroke-width:1.5;" x1="322.8072" x2="427.8072" y1="327" y2="327"/><text fill="#000000" font-family="sans-serif" font-size="11" lengthAdjust="spacing" textLength="95" x="327.8072" y="341.2104">-Date arriveTime</text><text fill="#000000" font-family="sans-serif" font-size="11" lengthAdjust="spacing" textLength="58" x="327.8072" y="354.0151">-int status</text><line style="stroke:#A80036;stroke-width:1.5;" x1="322.8072" x2="427.8072" y1="360.6094" y2="360.6094"/><!--MD5=[23a23e4d69ec0d7a87665b0a19f7687f]
class NurseSession--><rect codeLine="8" fill="#FEFECE" filter="url(#ffwrwidhmel5f)" height="99.2188" id="NurseSession" style="stroke:#A80036;stroke-width:1.5;" width="370" x="1654.3072" y="282.5"/><ellipse cx="1792.0572" cy="298.5" fill="#ADD1B2" rx="11" ry="11" style="stroke:#A80036;stroke-width:1.0;"/><path d="M1795.026,304.1406 Q1794.4479,304.4375 1793.8072,304.5781 Q1793.1666,304.7344 1792.4635,304.7344 Q1789.9635,304.7344 1788.6354,303.0938 Q1787.3229,301.4375 1787.3229,298.3125 Q1787.3229,295.1875 1788.6354,293.5313 Q1789.9635,291.875 1792.4635,291.875 Q1793.1666,291.875 1793.8072,292.0313 Q1794.4635,292.1875 1795.026,292.4844 L1795.026,295.2031 Q1794.401,294.625 1793.8072,294.3594 Q1793.2135,294.0781 1792.5885,294.0781 Q1791.2447,294.0781 1790.5572,295.1563 Q1789.8697,296.2188 1789.8697,298.3125 Q1789.8697,300.4063 1790.5572,301.4844 Q1791.2447,302.5469 1792.5885,302.5469 Q1793.2135,302.5469 1793.8072,302.2813 Q1794.401,302 1795.026,301.4219 L1795.026,304.1406 Z " fill="#000000"/><text fill="#000000" font-family="sans-serif" font-size="12" lengthAdjust="spacing" textLength="86" x="1812.5572" y="302.6543">NurseSession</text><line style="stroke:#A80036;stroke-width:1.5;" x1="1655.3072" x2="2023.3072" y1="314.5" y2="314.5"/><text fill="#000000" font-family="sans-serif" font-size="11" lengthAdjust="spacing" textLength="108" x="1660.3072" y="328.7104">-String nurseName</text><text fill="#000000" font-family="sans-serif" font-size="11" lengthAdjust="spacing" textLength="153" x="1660.3072" y="341.5151">-String vaccinationCenterId</text><line style="stroke:#A80036;stroke-width:1.5;" x1="1655.3072" x2="2023.3072" y1="348.1094" y2="348.1094"/><text fill="#000000" font-family="sans-serif" font-size="11" lengthAdjust="spacing" textLength="358" x="1660.3072" y="362.3198">+NurseSession(String nurseName, String vaccinationCenterId)</text><text fill="#000000" font-family="sans-serif" font-size="11" lengthAdjust="spacing" textLength="185" x="1660.3072" y="375.1245">+String getVaccinationCenterId()</text><!--MD5=[02e4b9b7573f1156f41e60aa5b4e25a4]
class Company--><rect codeLine="16" fill="#FEFECE" filter="url(#ffwrwidhmel5f)" height="137.6328" id="Company" style="stroke:#A80036;stroke-width:1.5;" width="289" x="1329.8072" y="263"/><ellipse cx="1441.5572" cy="279" fill="#ADD1B2" rx="11" ry="11" style="stroke:#A80036;stroke-width:1.0;"/><path d="M1444.526,284.6406 Q1443.9479,284.9375 1443.3072,285.0781 Q1442.6666,285.2344 1441.9635,285.2344 Q1439.4635,285.2344 1438.1354,283.5938 Q1436.8229,281.9375 1436.8229,278.8125 Q1436.8229,275.6875 1438.1354,274.0313 Q1439.4635,272.375 1441.9635,272.375 Q1442.6666,272.375 1443.3072,272.5313 Q1443.9635,272.6875 1444.526,272.9844 L1444.526,275.7031 Q1443.901,275.125 1443.3072,274.8594 Q1442.7135,274.5781 1442.0885,274.5781 Q1440.7447,274.5781 1440.0572,275.6563 Q1439.3697,276.7188 1439.3697,278.8125 Q1439.3697,280.9063 1440.0572,281.9844 Q1440.7447,283.0469 1442.0885,283.0469 Q1442.7135,283.0469 1443.3072,282.7813 Q1443.901,282.5 1444.526,281.9219 L1444.526,284.6406 Z " fill="#000000"/><text fill="#000000" font-family="sans-serif" font-size="12" lengthAdjust="spacing" textLength="57" x="1462.0572" y="283.1543">Company</text><line style="stroke:#A80036;stroke-width:1.5;" x1="1330.8072" x2="1617.8072" y1="295" y2="295"/><text fill="#000000" font-family="sans-serif" font-size="11" lengthAdjust="spacing" textLength="112" x="1335.8072" y="309.2104">-designation: String</text><text fill="#000000" font-family="sans-serif" font-size="11" lengthAdjust="spacing" textLength="142" x="1335.8072" y="322.0151">-authFacade: AuthFacade</text><text fill="#000000" font-family="sans-serif" font-size="11" lengthAdjust="spacing" textLength="277" x="1335.8072" y="334.8198">-vaccinationCenterStore: VaccinationCenterStore</text><line style="stroke:#A80036;stroke-width:1.5;" x1="1330.8072" x2="1617.8072" y1="341.4141" y2="341.4141"/><text fill="#000000" font-family="sans-serif" font-size="11" lengthAdjust="spacing" textLength="136" x="1335.8072" y="355.6245">+Company(designation)</text><text fill="#000000" font-family="sans-serif" font-size="11" lengthAdjust="spacing" textLength="0" x="1339.8072" y="368.4292"/><text fill="#000000" font-family="sans-serif" font-size="11" lengthAdjust="spacing" textLength="100" x="1335.8072" y="381.2339">+getAuthFacade()</text><text fill="#000000" font-family="sans-serif" font-size="11" lengthAdjust="spacing" textLength="168" x="1335.8072" y="394.0386">+getVaccinationCenterStore()</text><!--MD5=[649c7d4b5395a0192010c8f394938ecc]
class CheckWaitingRoomController--><rect codeLine="27" fill="#FEFECE" filter="url(#ffwrwidhmel5f)" height="86.4141" id="CheckWaitingRoomController" style="stroke:#A80036;stroke-width:1.5;" width="524" x="1394.3072" y="116"/><ellipse cx="1562.0572" cy="132" fill="#ADD1B2" rx="11" ry="11" style="stroke:#A80036;stroke-width:1.0;"/><path d="M1565.026,137.6406 Q1564.4479,137.9375 1563.8072,138.0781 Q1563.1666,138.2344 1562.4635,138.2344 Q1559.9635,138.2344 1558.6354,136.5938 Q1557.3229,134.9375 1557.3229,131.8125 Q1557.3229,128.6875 1558.6354,127.0313 Q1559.9635,125.375 1562.4635,125.375 Q1563.1666,125.375 1563.8072,125.5313 Q1564.4635,125.6875 1565.026,125.9844 L1565.026,128.7031 Q1564.401,128.125 1563.8072,127.8594 Q1563.2135,127.5781 1562.5885,127.5781 Q1561.2447,127.5781 1560.5572,128.6563 Q1559.8697,129.7188 1559.8697,131.8125 Q1559.8697,133.9063 1560.5572,134.9844 Q1561.2447,136.0469 1562.5885,136.0469 Q1563.2135,136.0469 1563.8072,135.7813 Q1564.401,135.5 1565.026,134.9219 L1565.026,137.6406 Z " fill="#000000"/><text fill="#000000" font-family="sans-serif" font-size="12" lengthAdjust="spacing" textLength="180" x="1582.5572" y="136.1543">CheckWaitingRoomController</text><line style="stroke:#A80036;stroke-width:1.5;" x1="1395.3072" x2="1917.3072" y1="148" y2="148"/><line style="stroke:#A80036;stroke-width:1.5;" x1="1395.3072" x2="1917.3072" y1="156" y2="156"/><text fill="#000000" font-family="sans-serif" font-size="11" lengthAdjust="spacing" textLength="97" x="1400.3072" y="170.2104">+getCategories()</text><text fill="#000000" font-family="sans-serif" font-size="11" lengthAdjust="spacing" textLength="512" x="1400.3072" y="183.0151">+CheckWaitingRoom(ref,designation,informalDesc,technicalDesc,duration,cost,categoryId)</text><text fill="#000000" font-family="sans-serif" font-size="11" lengthAdjust="spacing" textLength="71" x="1400.3072" y="195.8198">+saveTask()</text><!--MD5=[90ca7783d5bfc67c890f48b5b62c5590]
class CheckWaitingRoomUI--><rect codeLine="33" fill="#FEFECE" filter="url(#ffwrwidhmel5f)" height="48" id="CheckWaitingRoomUI" style="stroke:#A80036;stroke-width:1.5;" width="163" x="1574.8072" y="7"/><ellipse cx="1589.8072" cy="23" fill="#ADD1B2" rx="11" ry="11" style="stroke:#A80036;stroke-width:1.0;"/><path d="M1592.776,28.6406 Q1592.1979,28.9375 1591.5572,29.0781 Q1590.9166,29.2344 1590.2135,29.2344 Q1587.7135,29.2344 1586.3854,27.5938 Q1585.0729,25.9375 1585.0729,22.8125 Q1585.0729,19.6875 1586.3854,18.0313 Q1587.7135,16.375 1590.2135,16.375 Q1590.9166,16.375 1591.5572,16.5313 Q1592.2135,16.6875 1592.776,16.9844 L1592.776,19.7031 Q1592.151,19.125 1591.5572,18.8594 Q1590.9635,18.5781 1590.3385,18.5781 Q1588.9947,18.5781 1588.3072,19.6563 Q1587.6197,20.7188 1587.6197,22.8125 Q1587.6197,24.9063 1588.3072,25.9844 Q1588.9947,27.0469 1590.3385,27.0469 Q1590.9635,27.0469 1591.5572,26.7813 Q1592.151,26.5 1592.776,25.9219 L1592.776,28.6406 Z " fill="#000000"/><text fill="#000000" font-family="sans-serif" font-size="12" lengthAdjust="spacing" textLength="131" x="1603.8072" y="27.1543">CheckWaitingRoomUI</text><line style="stroke:#A80036;stroke-width:1.5;" x1="1575.8072" x2="1736.8072" y1="39" y2="39"/><line style="stroke:#A80036;stroke-width:1.5;" x1="1575.8072" x2="1736.8072" y1="47" y2="47"/><!--MD5=[de60e6d4f424ae4d0522096f76a59010]
class VaccinationCenter--><rect codeLine="35" fill="#FEFECE" filter="url(#ffwrwidhmel5f)" height="188.8516" id="VaccinationCenter" style="stroke:#A80036;stroke-width:1.5;" width="995" x="976.8072" y="677"/><ellipse cx="1412.5572" cy="693" fill="#ADD1B2" rx="11" ry="11" style="stroke:#A80036;stroke-width:1.0;"/><path d="M1415.526,698.6406 Q1414.9479,698.9375 1414.3072,699.0781 Q1413.6666,699.2344 1412.9635,699.2344 Q1410.4635,699.2344 1409.1354,697.5938 Q1407.8229,695.9375 1407.8229,692.8125 Q1407.8229,689.6875 1409.1354,688.0313 Q1410.4635,686.375 1412.9635,686.375 Q1413.6666,686.375 1414.3072,686.5313 Q1414.9635,686.6875 1415.526,686.9844 L1415.526,689.7031 Q1414.901,689.125 1414.3072,688.8594 Q1413.7135,688.5781 1413.0885,688.5781 Q1411.7447,688.5781 1411.0572,689.6563 Q1410.3697,690.7188 1410.3697,692.8125 Q1410.3697,694.9063 1411.0572,695.9844 Q1411.7447,697.0469 1413.0885,697.0469 Q1413.7135,697.0469 1414.3072,696.7813 Q1414.901,696.5 1415.526,695.9219 L1415.526,698.6406 Z " fill="#000000"/><text fill="#000000" font-family="sans-serif" font-size="12" lengthAdjust="spacing" textLength="115" x="1433.0572" y="697.1543">VaccinationCenter</text><line style="stroke:#A80036;stroke-width:1.5;" x1="977.8072" x2="1970.8072" y1="709" y2="709"/><text fill="#000000" font-family="sans-serif" font-size="11" lengthAdjust="spacing" textLength="78" x="982.8072" y="723.2104">-name: String</text><text fill="#000000" font-family="sans-serif" font-size="11" lengthAdjust="spacing" textLength="93" x="982.8072" y="736.0151">-address: String</text><text fill="#000000" font-family="sans-serif" font-size="11" lengthAdjust="spacing" textLength="124" x="982.8072" y="748.8198">-emailAddress: String</text><text fill="#000000" font-family="sans-serif" font-size="11" lengthAdjust="spacing" textLength="126" x="982.8072" y="761.6245">-phoneNumber: String</text><text fill="#000000" font-family="sans-serif" font-size="11" lengthAdjust="spacing" textLength="108" x="982.8072" y="774.4292">-faxNumber: String</text><text fill="#000000" font-family="sans-serif" font-size="11" lengthAdjust="spacing" textLength="137" x="982.8072" y="787.2339">-websiteAddress: String</text><text fill="#000000" font-family="sans-serif" font-size="11" lengthAdjust="spacing" textLength="125" x="982.8072" y="800.0386">-openingHours: String</text><text fill="#000000" font-family="sans-serif" font-size="11" lengthAdjust="spacing" textLength="120" x="982.8072" y="812.8433">-closingHours: String</text><text fill="#000000" font-family="sans-serif" font-size="11" lengthAdjust="spacing" textLength="95" x="982.8072" y="825.6479">-slotDuration: int</text><text fill="#000000" font-family="sans-serif" font-size="11" lengthAdjust="spacing" textLength="173" x="982.8072" y="838.4526">-maximumVaccinesPerSlot: int</text><line style="stroke:#A80036;stroke-width:1.5;" x1="977.8072" x2="1970.8072" y1="845.0469" y2="845.0469"/><text fill="#000000" font-family="sans-serif" font-size="11" lengthAdjust="spacing" textLength="983" x="982.8072" y="859.2573">+VaccinationCenter(name,address,emailAddress,phoneNumber,faxNumber,websiteAddress,openingHours,closingHours,slotDuration,maximumVaccinesPerSlot,coordinator)</text><!--MD5=[a29876ea2f21a6ca48ea477740122fd8]
class VaccinationCenterStore--><rect codeLine="50" fill="#FEFECE" filter="url(#ffwrwidhmel5f)" height="137.6328" id="VaccinationCenterStore" style="stroke:#A80036;stroke-width:1.5;" width="298" x="1325.3072" y="462"/><ellipse cx="1395.5572" cy="478" fill="#ADD1B2" rx="11" ry="11" style="stroke:#A80036;stroke-width:1.0;"/><path d="M1398.526,483.6406 Q1397.9479,483.9375 1397.3072,484.0781 Q1396.6666,484.2344 1395.9635,484.2344 Q1393.4635,484.2344 1392.1354,482.5938 Q1390.8229,480.9375 1390.8229,477.8125 Q1390.8229,474.6875 1392.1354,473.0313 Q1393.4635,471.375 1395.9635,471.375 Q1396.6666,471.375 1397.3072,471.5313 Q1397.9635,471.6875 1398.526,471.9844 L1398.526,474.7031 Q1397.901,474.125 1397.3072,473.8594 Q1396.7135,473.5781 1396.0885,473.5781 Q1394.7447,473.5781 1394.0572,474.6563 Q1393.3697,475.7188 1393.3697,477.8125 Q1393.3697,479.9063 1394.0572,480.9844 Q1394.7447,482.0469 1396.0885,482.0469 Q1396.7135,482.0469 1397.3072,481.7813 Q1397.901,481.5 1398.526,480.9219 L1398.526,483.6406 Z " fill="#000000"/><text fill="#000000" font-family="sans-serif" font-size="12" lengthAdjust="spacing" textLength="149" x="1416.0572" y="482.1543">VaccinationCenterStore</text><line style="stroke:#A80036;stroke-width:1.5;" x1="1326.3072" x2="1622.3072" y1="494" y2="494"/><line style="stroke:#A80036;stroke-width:1.5;" x1="1326.3072" x2="1622.3072" y1="502" y2="502"/><text fill="#000000" font-family="sans-serif" font-size="11" lengthAdjust="spacing" textLength="286" x="1331.3072" y="516.2104">+createVaccinationCenter(centerData,coordinator)</text><text fill="#000000" font-family="sans-serif" font-size="11" lengthAdjust="spacing" textLength="196" x="1331.3072" y="529.0151">+validateVaccinatonCenter(center)</text><text fill="#000000" font-family="sans-serif" font-size="11" lengthAdjust="spacing" textLength="182" x="1331.3072" y="541.8198">+saveVaccinationCenter(center)</text><text fill="#000000" font-family="sans-serif" font-size="11" lengthAdjust="spacing" textLength="144" x="1331.3072" y="554.6245">+checkDuplicates(center)</text><text fill="#000000" font-family="sans-serif" font-size="11" lengthAdjust="spacing" textLength="143" x="1331.3072" y="567.4292">+getWaitingRoom(center)</text><text fill="#000000" font-family="sans-serif" font-size="11" lengthAdjust="spacing" textLength="0" x="1335.3072" y="580.2339"/><text fill="#000000" font-family="sans-serif" font-size="11" lengthAdjust="spacing" textLength="171" x="1331.3072" y="593.0386">-addVaccinationCenter(center)</text><!--MD5=[7421f545a0d8420c5bec41e74b387d9c]
class Employee--><rect codeLine="60" fill="#FEFECE" filter="url(#ffwrwidhmel5f)" height="150.4375" id="Employee" style="stroke:#A80036;stroke-width:1.5;" width="388" x="1033.3072" y="943"/><ellipse cx="1193.0572" cy="959" fill="#ADD1B2" rx="11" ry="11" style="stroke:#A80036;stroke-width:1.0;"/><path d="M1196.026,964.6406 Q1195.4479,964.9375 1194.8072,965.0781 Q1194.1666,965.2344 1193.4635,965.2344 Q1190.9635,965.2344 1189.6354,963.5938 Q1188.3229,961.9375 1188.3229,958.8125 Q1188.3229,955.6875 1189.6354,954.0313 Q1190.9635,952.375 1193.4635,952.375 Q1194.1666,952.375 1194.8072,952.5313 Q1195.4635,952.6875 1196.026,952.9844 L1196.026,955.7031 Q1195.401,955.125 1194.8072,954.8594 Q1194.2135,954.5781 1193.5885,954.5781 Q1192.2447,954.5781 1191.5572,955.6563 Q1190.8697,956.7188 1190.8697,958.8125 Q1190.8697,960.9063 1191.5572,961.9844 Q1192.2447,963.0469 1193.5885,963.0469 Q1194.2135,963.0469 1194.8072,962.7813 Q1195.401,962.5 1196.026,961.9219 L1196.026,964.6406 Z " fill="#000000"/><text fill="#000000" font-family="sans-serif" font-size="12" lengthAdjust="spacing" textLength="60" x="1213.5572" y="963.1543">Employee</text><line style="stroke:#A80036;stroke-width:1.5;" x1="1034.3072" x2="1420.3072" y1="975" y2="975"/><text fill="#000000" font-family="sans-serif" font-size="11" lengthAdjust="spacing" textLength="56" x="1039.3072" y="989.2104">-id: String</text><text fill="#000000" font-family="sans-serif" font-size="11" lengthAdjust="spacing" textLength="78" x="1039.3072" y="1002.0151">-name: String</text><text fill="#000000" font-family="sans-serif" font-size="11" lengthAdjust="spacing" textLength="77" x="1039.3072" y="1014.8198">-email: String</text><text fill="#000000" font-family="sans-serif" font-size="11" lengthAdjust="spacing" textLength="81" x="1039.3072" y="1027.6245">-phone: String</text><text fill="#000000" font-family="sans-serif" font-size="11" lengthAdjust="spacing" textLength="93" x="1039.3072" y="1040.4292">-address: String</text><text fill="#000000" font-family="sans-serif" font-size="11" lengthAdjust="spacing" textLength="133" x="1039.3072" y="1053.2339">-citizenCardNumber: int</text><text fill="#000000" font-family="sans-serif" font-size="11" lengthAdjust="spacing" textLength="78" x="1039.3072" y="1066.0386">-roleId: String</text><line style="stroke:#A80036;stroke-width:1.5;" x1="1034.3072" x2="1420.3072" y1="1072.6328" y2="1072.6328"/><text fill="#000000" font-family="sans-serif" font-size="11" lengthAdjust="spacing" textLength="376" x="1039.3072" y="1086.8433">+Employee(name,email,phone,address,citizenCardNumber,roleId)</text><!--MD5=[72be06cc7ae02ccc98efe28a50e62246]
class SNSUser--><rect codeLine="72" fill="#FEFECE" filter="url(#ffwrwidhmel5f)" height="137.6328" id="SNSUser" style="stroke:#A80036;stroke-width:1.5;" width="541" x="104.8072" y="702.5"/><ellipse cx="344.0572" cy="718.5" fill="#ADD1B2" rx="11" ry="11" style="stroke:#A80036;stroke-width:1.0;"/><path d="M347.026,724.1406 Q346.4479,724.4375 345.8072,724.5781 Q345.1666,724.7344 344.4635,724.7344 Q341.9635,724.7344 340.6354,723.0938 Q339.3229,721.4375 339.3229,718.3125 Q339.3229,715.1875 340.6354,713.5313 Q341.9635,711.875 344.4635,711.875 Q345.1666,711.875 345.8072,712.0313 Q346.4635,712.1875 347.026,712.4844 L347.026,715.2031 Q346.401,714.625 345.8072,714.3594 Q345.2135,714.0781 344.5885,714.0781 Q343.2447,714.0781 342.5572,715.1563 Q341.8697,716.2188 341.8697,718.3125 Q341.8697,720.4063 342.5572,721.4844 Q343.2447,722.5469 344.5885,722.5469 Q345.2135,722.5469 345.8072,722.2813 Q346.401,722 347.026,721.4219 L347.026,724.1406 Z " fill="#000000"/><text fill="#000000" font-family="sans-serif" font-size="12" lengthAdjust="spacing" textLength="54" x="364.5572" y="722.6543">SNSUser</text><line style="stroke:#A80036;stroke-width:1.5;" x1="105.8072" x2="644.8072" y1="734.5" y2="734.5"/><text fill="#000000" font-family="sans-serif" font-size="11" lengthAdjust="spacing" textLength="104" x="110.8072" y="748.7104">-String citizenCard</text><text fill="#000000" font-family="sans-serif" font-size="11" lengthAdjust="spacing" textLength="108" x="110.8072" y="761.5151">-String snsNumber</text><text fill="#000000" font-family="sans-serif" font-size="11" lengthAdjust="spacing" textLength="81" x="110.8072" y="774.3198">-Date birthDay</text><text fill="#000000" font-family="sans-serif" font-size="11" lengthAdjust="spacing" textLength="75" x="110.8072" y="787.1245">-Char gender</text><text fill="#000000" font-family="sans-serif" font-size="11" lengthAdjust="spacing" textLength="122" x="110.8072" y="799.9292">-String phoneNumber</text><text fill="#000000" font-family="sans-serif" font-size="11" lengthAdjust="spacing" textLength="89" x="110.8072" y="812.7339">-String address</text><line style="stroke:#A80036;stroke-width:1.5;" x1="105.8072" x2="644.8072" y1="819.3281" y2="819.3281"/><text fill="#000000" font-family="sans-serif" font-size="11" lengthAdjust="spacing" textLength="529" x="110.8072" y="833.5386">+SNSUser(citizenCard, snsNumber, name, birthDay, gender, phoneNumber, email, address)</text><!--MD5=[7b3e8f70d80133538393dc99d446cc4d]
class WaitingRoomList--><rect codeLine="82" fill="#FEFECE" filter="url(#ffwrwidhmel5f)" height="99.2188" id="WaitingRoomList" style="stroke:#A80036;stroke-width:1.5;" width="272" x="1091.3072" y="1170"/><ellipse cx="1172.0572" cy="1186" fill="#ADD1B2" rx="11" ry="11" style="stroke:#A80036;stroke-width:1.0;"/><path d="M1175.026,1191.6406 Q1174.4479,1191.9375 1173.8072,1192.0781 Q1173.1666,1192.2344 1172.4635,1192.2344 Q1169.9635,1192.2344 1168.6354,1190.5938 Q1167.3229,1188.9375 1167.3229,1185.8125 Q1167.3229,1182.6875 1168.6354,1181.0313 Q1169.9635,1179.375 1172.4635,1179.375 Q1173.1666,1179.375 1173.8072,1179.5313 Q1174.4635,1179.6875 1175.026,1179.9844 L1175.026,1182.7031 Q1174.401,1182.125 1173.8072,1181.8594 Q1173.2135,1181.5781 1172.5885,1181.5781 Q1171.2447,1181.5781 1170.5572,1182.6563 Q1169.8697,1183.7188 1169.8697,1185.8125 Q1169.8697,1187.9063 1170.5572,1188.9844 Q1171.2447,1190.0469 1172.5885,1190.0469 Q1173.2135,1190.0469 1173.8072,1189.7813 Q1174.401,1189.5 1175.026,1188.9219 L1175.026,1191.6406 Z " fill="#000000"/><text fill="#000000" font-family="sans-serif" font-size="12" lengthAdjust="spacing" textLength="102" x="1192.5572" y="1190.1543">WaitingRoomList</text><line style="stroke:#A80036;stroke-width:1.5;" x1="1092.3072" x2="1362.3072" y1="1202" y2="1202"/><line style="stroke:#A80036;stroke-width:1.5;" x1="1092.3072" x2="1362.3072" y1="1210" y2="1210"/><text fill="#000000" font-family="sans-serif" font-size="11" lengthAdjust="spacing" textLength="260" x="1097.3072" y="1224.2104">+createArrive(arriveTime, user, appointment)</text><text fill="#000000" font-family="sans-serif" font-size="11" lengthAdjust="spacing" textLength="110" x="1097.3072" y="1237.0151">+saveArrive(arrive)</text><text fill="#000000" font-family="sans-serif" font-size="11" lengthAdjust="spacing" textLength="126" x="1097.3072" y="1249.8198">+removeArrive(arrive)</text><text fill="#000000" font-family="sans-serif" font-size="11" lengthAdjust="spacing" textLength="136" x="1097.3072" y="1262.6245">-checkDuplicates(arrive)</text><!--MD5=[c508b5b6bbe276ff5e2700b6641f837f]
class Appointment--><rect codeLine="89" fill="#FEFECE" filter="url(#ffwrwidhmel5f)" height="73.6094" id="Appointment" style="stroke:#A80036;stroke-width:1.5;" width="281" x="571.8072" y="494"/><ellipse cx="668.0572" cy="510" fill="#ADD1B2" rx="11" ry="11" style="stroke:#A80036;stroke-width:1.0;"/><path d="M671.026,515.6406 Q670.4479,515.9375 669.8072,516.0781 Q669.1666,516.2344 668.4635,516.2344 Q665.9635,516.2344 664.6354,514.5938 Q663.3229,512.9375 663.3229,509.8125 Q663.3229,506.6875 664.6354,505.0313 Q665.9635,503.375 668.4635,503.375 Q669.1666,503.375 669.8072,503.5313 Q670.4635,503.6875 671.026,503.9844 L671.026,506.7031 Q670.401,506.125 669.8072,505.8594 Q669.2135,505.5781 668.5885,505.5781 Q667.2447,505.5781 666.5572,506.6563 Q665.8697,507.7188 665.8697,509.8125 Q665.8697,511.9063 666.5572,512.9844 Q667.2447,514.0469 668.5885,514.0469 Q669.2135,514.0469 669.8072,513.7813 Q670.401,513.5 671.026,512.9219 L671.026,515.6406 Z " fill="#000000"/><text fill="#000000" font-family="sans-serif" font-size="12" lengthAdjust="spacing" textLength="80" x="688.5572" y="514.1543">Appointment</text><line style="stroke:#A80036;stroke-width:1.5;" x1="572.8072" x2="851.8072" y1="526" y2="526"/><text fill="#000000" font-family="sans-serif" font-size="11" lengthAdjust="spacing" textLength="131" x="577.8072" y="540.2104">-Date appointmentDate</text><line style="stroke:#A80036;stroke-width:1.5;" x1="572.8072" x2="851.8072" y1="546.8047" y2="546.8047"/><text fill="#000000" font-family="sans-serif" font-size="11" lengthAdjust="spacing" textLength="269" x="577.8072" y="561.0151">+Appointment(appointmentDate, user, vaccine)</text><!--MD5=[19e445fc4d3b48519cbe33da05496394]
class Vaccine--><rect codeLine="95" fill="#FEFECE" filter="url(#ffwrwidhmel5f)" height="112.0234" id="Vaccine" style="stroke:#A80036;stroke-width:1.5;" width="261" x="680.8072" y="715.5"/><ellipse cx="782.5572" cy="731.5" fill="#ADD1B2" rx="11" ry="11" style="stroke:#A80036;stroke-width:1.0;"/><path d="M785.526,737.1406 Q784.9479,737.4375 784.3072,737.5781 Q783.6666,737.7344 782.9635,737.7344 Q780.4635,737.7344 779.1354,736.0938 Q777.8229,734.4375 777.8229,731.3125 Q777.8229,728.1875 779.1354,726.5313 Q780.4635,724.875 782.9635,724.875 Q783.6666,724.875 784.3072,725.0313 Q784.9635,725.1875 785.526,725.4844 L785.526,728.2031 Q784.901,727.625 784.3072,727.3594 Q783.7135,727.0781 783.0885,727.0781 Q781.7447,727.0781 781.0572,728.1563 Q780.3697,729.2188 780.3697,731.3125 Q780.3697,733.4063 781.0572,734.4844 Q781.7447,735.5469 783.0885,735.5469 Q783.7135,735.5469 784.3072,735.2813 Q784.901,735 785.526,734.4219 L785.526,737.1406 Z " fill="#000000"/><text fill="#000000" font-family="sans-serif" font-size="12" lengthAdjust="spacing" textLength="49" x="803.0572" y="735.6543">Vaccine</text><line style="stroke:#A80036;stroke-width:1.5;" x1="681.8072" x2="940.8072" y1="747.5" y2="747.5"/><text fill="#000000" font-family="sans-serif" font-size="11" lengthAdjust="spacing" textLength="116" x="686.8072" y="761.7104">-designation : String</text><text fill="#000000" font-family="sans-serif" font-size="11" lengthAdjust="spacing" textLength="83" x="686.8072" y="774.5151">-brand : String</text><text fill="#000000" font-family="sans-serif" font-size="11" lengthAdjust="spacing" textLength="60" x="686.8072" y="787.3198">-id : String</text><text fill="#000000" font-family="sans-serif" font-size="11" lengthAdjust="spacing" textLength="132" x="686.8072" y="800.1245">-vacType : VaccineType</text><line style="stroke:#A80036;stroke-width:1.5;" x1="681.8072" x2="940.8072" y1="806.7188" y2="806.7188"/><text fill="#000000" font-family="sans-serif" font-size="11" lengthAdjust="spacing" textLength="249" x="686.8072" y="820.9292">+Vaccine(designation, id, brand, vacTypeId)</text><!--MD5=[08115eac1172d84470ffcb9fecb3d07c]
link CheckWaitingRoomUI to CheckWaitingRoomController--><path codeLine="104" d="M1656.3072,55.11 C1656.3072,70.63 1656.3072,91.64 1656.3072,110.63 " fill="none" id="CheckWaitingRoomUI-to-CheckWaitingRoomController" style="stroke:#A80036;stroke-width:1.0;stroke-dasharray:7.0,7.0;"/><polygon fill="#A80036" points="1656.3072,115.92,1660.3072,106.92,1656.3072,110.92,1652.3072,106.92,1656.3072,115.92" style="stroke:#A80036;stroke-width:1.0;"/><!--MD5=[c4a22901b10ae08ba77ff42dd1d4908e]
link CheckWaitingRoomController to Company--><path codeLine="105" d="M1611.3172,202.27 C1592.9872,219.49 1571.2672,239.9 1550.5972,259.32 " fill="none" id="CheckWaitingRoomController-to-Company" style="stroke:#A80036;stroke-width:1.0;stroke-dasharray:7.0,7.0;"/><polygon fill="#A80036" points="1546.7472,262.93,1556.0425,259.6745,1550.3882,259.5032,1550.5596,253.8489,1546.7472,262.93" style="stroke:#A80036;stroke-width:1.0;"/><!--MD5=[31bc3883e187c639ab635a41593b3a80]
reverse link Arrive to SNSUser--><path codeLine="107" d="M375.3072,382.44 C375.3072,460.72 375.3072,613.4 375.3072,702.13 " fill="none" id="Arrive-backto-SNSUser" style="stroke:#A80036;stroke-width:1.0;"/><polygon fill="#FFFFFF" points="375.3072,369.17,371.3072,375.17,375.3072,381.17,379.3072,375.17,375.3072,369.17" style="stroke:#A80036;stroke-width:1.0;"/><!--MD5=[ff7ffb44303c2619dc2a6d1709f87c0a]
reverse link Arrive to Appointment--><path codeLine="108" d="M440.4272,371.07 C501.0772,406.52 590.8572,459 650.4372,493.83 " fill="none" id="Arrive-backto-Appointment" style="stroke:#A80036;stroke-width:1.0;"/><polygon fill="#FFFFFF" points="429.0772,364.43,432.2378,370.9116,439.4364,370.4871,436.2758,364.0055,429.0772,364.43" style="stroke:#A80036;stroke-width:1.0;"/><!--MD5=[886ef4516489c6e399d7a259bbef452e]
reverse link Appointment to SNSUser--><path codeLine="109" d="M650.4572,575.77 C600.3972,611.2 528.9972,661.73 471.4772,702.44 " fill="none" id="Appointment-backto-SNSUser" style="stroke:#A80036;stroke-width:1.0;"/><polygon fill="#FFFFFF" points="661.1272,568.22,653.9188,568.4157,651.3269,575.1449,658.5354,574.9492,661.1272,568.22" style="stroke:#A80036;stroke-width:1.0;"/><!--MD5=[db5fb34fd733ab3677281d60b785e712]
reverse link VaccinationCenter to Employee--><path codeLine="111" d="M1370.1572,875.6 C1347.3672,898.15 1323.6772,921.6 1302.2972,942.77 " fill="none" id="VaccinationCenter-backto-Employee" style="stroke:#A80036;stroke-width:1.0;"/><polygon fill="#FFFFFF" points="1379.5172,866.33,1372.4386,867.7057,1370.9859,874.769,1378.0646,873.3933,1379.5172,866.33" style="stroke:#A80036;stroke-width:1.0;"/><text fill="#000000" font-family="sans-serif" font-size="13" lengthAdjust="spacing" textLength="73" x="1344.3072" y="909.0669">coordinator</text><!--MD5=[8c304936b446fd8cea914e03fbadd4b7]
link VaccinationCenterStore to VaccinationCenter--><path codeLine="112" d="M1474.3072,600.03 C1474.3072,623.84 1474.3072,651.03 1474.3072,676.59 " fill="none" id="VaccinationCenterStore-VaccinationCenter" style="stroke:#A80036;stroke-width:1.0;"/><polygon fill="#000000" points="1479.3072,643.5664,1482.2462,634.5213,1476.3683,634.5213,1479.3072,643.5664" style="stroke:#000000;stroke-width:1.0;"/><text fill="#000000" font-family="sans-serif" font-size="13" lengthAdjust="spacing" textLength="40" x="1488.3072" y="643.0669">stores</text><text fill="#000000" font-family="sans-serif" font-size="13" lengthAdjust="spacing" textLength="8" x="1465.9135" y="619.6549">1</text><text fill="#000000" font-family="sans-serif" font-size="13" lengthAdjust="spacing" textLength="7" x="1467.0393" y="665.8269">*</text><!--MD5=[bc0d5b4bfe6e1bf0a8fced13bc4bdd47]
link Company to VaccinationCenterStore--><path codeLine="114" d="M1474.3072,401.07 C1474.3072,419.07 1474.3072,438.56 1474.3072,456.81 " fill="none" id="Company-to-VaccinationCenterStore" style="stroke:#A80036;stroke-width:1.0;stroke-dasharray:7.0,7.0;"/><polygon fill="#A80036" points="1474.3072,461.93,1478.3072,452.93,1474.3072,456.93,1470.3072,452.93,1474.3072,461.93" style="stroke:#A80036;stroke-width:1.0;"/><!--MD5=[d297c41963c43fd8f2fc145746986e0d]
link WaitingRoomList to Arrive--><path codeLine="116" d="M1091.1072,1210.2 C774.2272,1189.06 14.3072,1127.11 14.3072,1019 C14.3072,530 14.3072,530 14.3072,530 C14.3072,391.67 221.0872,349.88 321.6472,337.74 " fill="none" id="WaitingRoomList-Arrive" style="stroke:#A80036;stroke-width:1.0;"/><polygon fill="#000000" points="16,767.8165,19.7787,776.5441,24.187,772.6562,16,767.8165" style="stroke:#000000;stroke-width:1.0;"/><text fill="#000000" font-family="sans-serif" font-size="13" lengthAdjust="spacing" textLength="40" x="28.3072" y="776.0669">stores</text><text fill="#000000" font-family="sans-serif" font-size="13" lengthAdjust="spacing" textLength="8" x="1075.4401" y="1206.3458">1</text><text fill="#000000" font-family="sans-serif" font-size="13" lengthAdjust="spacing" textLength="7" x="306.9664" y="334.6056">*</text><!--MD5=[66e8a8e94de5199ecbf2b3922a76fe10]
link Employee to WaitingRoomList--><path codeLine="118" d="M1227.3072,1093 C1227.3072,1118.62 1227.3072,1146.67 1227.3072,1169.74 " fill="none" id="Employee-WaitingRoomList" style="stroke:#A80036;stroke-width:1.0;"/><text fill="#000000" font-family="sans-serif" font-size="13" lengthAdjust="spacing" textLength="44" x="1228.3072" y="1136.0669">checks</text><text fill="#000000" font-family="sans-serif" font-size="13" lengthAdjust="spacing" textLength="8" x="1218.8947" y="1113.559">1</text><text fill="#000000" font-family="sans-serif" font-size="13" lengthAdjust="spacing" textLength="7" x="1219.8369" y="1159.1068">*</text><!--MD5=[36096f510a652bd50455fb416a944f55]
reverse link VaccinationCenter to WaitingRoomList--><path codeLine="119" d="M1485.7372,879.14 C1487.5772,945.61 1479.8172,1030.15 1439.3072,1093 C1418.2772,1125.63 1385.5172,1150.89 1351.9872,1169.91 " fill="none" id="VaccinationCenter-backto-WaitingRoomList" style="stroke:#A80036;stroke-width:1.0;"/><polygon fill="#A80036" points="1485.2472,866.1,1481.4741,872.2452,1485.6953,878.0916,1489.4685,871.9465,1485.2472,866.1" style="stroke:#A80036;stroke-width:1.0;"/><!--MD5=[4e225734c614e51a8b63b4b70bdd41bb]
link CheckWaitingRoomController to NurseSession--><path codeLine="121" d="M1701.5472,202.27 C1726.2572,225.36 1757.0872,254.17 1783.3072,278.67 " fill="none" id="CheckWaitingRoomController-to-NurseSession" style="stroke:#A80036;stroke-width:1.0;stroke-dasharray:7.0,7.0;"/><polygon fill="#A80036" points="1787.1472,282.26,1783.316,273.1869,1783.4991,278.8408,1777.8452,279.0239,1787.1472,282.26" style="stroke:#A80036;stroke-width:1.0;"/><!--MD5=[d139302f00cc62b984b6371d0fde1842]
link Appointment to VaccinationCenter--><path codeLine="123" d="M827.6272,568.09 C919.8872,596.97 1053.5372,638.8 1175.4172,676.95 " fill="none" id="Appointment-VaccinationCenter" style="stroke:#A80036;stroke-width:1.0;"/><polygon fill="#000000" points="1070.5355,637.0728,1078.2897,642.5795,1080.0455,636.97,1070.5355,637.0728" style="stroke:#000000;stroke-width:1.0;"/><text fill="#000000" font-family="sans-serif" font-size="13" lengthAdjust="spacing" textLength="23" x="1084.3072" y="643.0669">has</text><text fill="#000000" font-family="sans-serif" font-size="13" lengthAdjust="spacing" textLength="7" x="839.1474" y="587.5855">*</text><text fill="#000000" font-family="sans-serif" font-size="13" lengthAdjust="spacing" textLength="8" x="1143.2807" y="665.896">1</text><!--MD5=[c6a9fd2ed221381c7fd630d6ad7e89b0]
reverse link Appointment to Vaccine--><path codeLine="124" d="M732.3572,580.31 C748.5872,619.4 771.4472,674.46 788.3872,715.29 " fill="none" id="Appointment-backto-Vaccine" style="stroke:#A80036;stroke-width:1.0;"/><polygon fill="#FFFFFF" points="727.3472,568.22,725.9483,575.2941,731.9401,579.3063,733.3391,572.2322,727.3472,568.22" style="stroke:#A80036;stroke-width:1.0;"/><!--MD5=[08eb3195392da2c313a3b12211d05492]
@startuml
skinparam classAttributeIconSize 0

class Arrive {
  - Date arriveTime
  - int status
}

class NurseSession {
  - String nurseName
  - String vaccinationCenterId

  + NurseSession(String nurseName, String vaccinationCenterId)
  + String getVaccinationCenterId()
}

class Company {
  -designation: String
  -authFacade: AuthFacade
  -vaccinationCenterStore: VaccinationCenterStore
  
  +Company(designation)

  +getAuthFacade()
  +getVaccinationCenterStore()
}

class CheckWaitingRoomController {
  +getCategories()
  +CheckWaitingRoom(ref,designation,informalDesc,technicalDesc,duration,cost,categoryId)
  +saveTask()
}

class CheckWaitingRoomUI {}

class VaccinationCenter {
  - name: String
  - address: String
  - emailAddress: String
  - phoneNumber: String
  - faxNumber: String
  - websiteAddress: String
  - openingHours: String
  - closingHours: String
  - slotDuration: int
  - maximumVaccinesPerSlot: int
  
  +VaccinationCenter(name,address,emailAddress,phoneNumber,faxNumber,websiteAddress,openingHours,closingHours,slotDuration,maximumVaccinesPerSlot,coordinator)
}

class VaccinationCenterStore {
  +createVaccinationCenter(centerData,coordinator)
  +validateVaccinatonCenter(center)
  +saveVaccinationCenter(center)
  +checkDuplicates(center)
  +getWaitingRoom(center)

  -addVaccinationCenter(center)
}

class Employee {
  -id: String 
  -name: String 
  -email: String 
  -phone: String 
  -address: String 
  -citizenCardNumber: int 
  -roleId: String 

  +Employee(name,email,phone,address,citizenCardNumber,roleId)
}

class SNSUser {
  - String citizenCard
  - String snsNumber
  - Date birthDay
  - Char gender
  - String phoneNumber
  - String address
  + SNSUser(citizenCard, snsNumber, name, birthDay, gender, phoneNumber, email, address)
}

class WaitingRoomList {
  +createArrive(arriveTime, user, appointment)
  +saveArrive(arrive)
  +removeArrive(arrive)
  -checkDuplicates(arrive)
}

class Appointment {
  -Date appointmentDate

  +Appointment(appointmentDate, user, vaccine)
}

class Vaccine{
  -designation : String
  -brand : String
  -id : String
  -vacType : VaccineType

  +Vaccine(designation, id, brand, vacTypeId)
}

CheckWaitingRoomUI ..> CheckWaitingRoomController
CheckWaitingRoomController ..> Company

Arrive o- - SNSUser
Arrive o- - Appointment
Appointment o- - SNSUser

VaccinationCenter o- - Employee : coordinator
VaccinationCenterStore "1" - - "*" VaccinationCenter : stores >

Company ..> VaccinationCenterStore

WaitingRoomList "1" - - "*" Arrive : stores >

Employee "1" - - "*" WaitingRoomList : checks
VaccinationCenter *- - WaitingRoomList

CheckWaitingRoomController ..> NurseSession

Appointment "*" - - "1" VaccinationCenter : has <
Appointment o- - Vaccine

@enduml

PlantUML version 1.2022.0(Tue Jan 11 16:16:42 WET 2022)
(GPL source distribution)
Java Runtime: OpenJDK Runtime Environment
JVM: OpenJDK 64-Bit Server VM
Default Encoding: UTF-8
Language: en
Country: US
--></g></svg>