<?xml version="1.0" encoding="UTF-8" standalone="no"?><svg xmlns="http://www.w3.org/2000/svg" xmlns:xlink="http://www.w3.org/1999/xlink" contentScriptType="application/ecmascript" contentStyleType="text/css" height="367px" preserveAspectRatio="none" style="width:500px;height:367px;background:#FFFFFF;" version="1.1" viewBox="0 0 500 367" width="500px" zoomAndPan="magnify"><defs><filter height="300%" id="f7s9d2i6jvqf2" width="300%" x="-1" y="-1"><feGaussianBlur result="blurOut" stdDeviation="2.0"/><feColorMatrix in="blurOut" result="blurOut2" type="matrix" values="0 0 0 0 0 0 0 0 0 0 0 0 0 0 0 0 0 0 .4 0"/><feOffset dx="4.0" dy="4.0" in="blurOut2" result="blurOut3"/><feBlend in="SourceGraphic" in2="blurOut3" mode="normal"/></filter></defs><g><rect fill="#FFFFFF" filter="url(#f7s9d2i6jvqf2)" height="166.7969" style="stroke:#A80036;stroke-width:1.0;" width="10" x="46.5" y="98.2969"/><rect fill="#FFFFFF" filter="url(#f7s9d2i6jvqf2)" height="29.1328" style="stroke:#A80036;stroke-width:1.0;" width="10" x="448.5" y="119.4297"/><rect fill="#FFFFFF" filter="url(#f7s9d2i6jvqf2)" height="29.1328" style="stroke:#A80036;stroke-width:1.0;" width="10" x="448.5" y="177.6953"/><rect fill="#FFFFFF" filter="url(#f7s9d2i6jvqf2)" height="29.1328" style="stroke:#A80036;stroke-width:1.0;" width="10" x="448.5" y="235.9609"/><line style="stroke:#A80036;stroke-width:1.0;stroke-dasharray:5.0,5.0;" x1="51" x2="51" y1="88.2969" y2="283.0938"/><line style="stroke:#A80036;stroke-width:1.0;stroke-dasharray:5.0,5.0;" x1="453.5" x2="453.5" y1="88.2969" y2="283.0938"/><text fill="#000000" font-family="sans-serif" font-size="14" lengthAdjust="spacing" textLength="87" x="5" y="84.9951">Receptionist</text><ellipse cx="51.5" cy="15" fill="#FEFECE" filter="url(#f7s9d2i6jvqf2)" rx="8" ry="8" style="stroke:#A80036;stroke-width:2.0;"/><path d="M51.5,23 L51.5,50 M38.5,31 L64.5,31 M51.5,50 L38.5,65 M51.5,50 L64.5,65 " fill="none" filter="url(#f7s9d2i6jvqf2)" style="stroke:#A80036;stroke-width:2.0;"/><text fill="#000000" font-family="sans-serif" font-size="14" lengthAdjust="spacing" textLength="87" x="5" y="295.0889">Receptionist</text><ellipse cx="51.5" cy="308.3906" fill="#FEFECE" filter="url(#f7s9d2i6jvqf2)" rx="8" ry="8" style="stroke:#A80036;stroke-width:2.0;"/><path d="M51.5,316.3906 L51.5,343.3906 M38.5,324.3906 L64.5,324.3906 M51.5,343.3906 L38.5,358.3906 M51.5,343.3906 L64.5,358.3906 " fill="none" filter="url(#f7s9d2i6jvqf2)" style="stroke:#A80036;stroke-width:2.0;"/><rect fill="#FEFECE" filter="url(#f7s9d2i6jvqf2)" height="30.2969" style="stroke:#A80036;stroke-width:1.5;" width="70" x="416.5" y="53"/><text fill="#000000" font-family="sans-serif" font-size="14" lengthAdjust="spacing" textLength="56" x="423.5" y="72.9951">:System</text><rect fill="#FEFECE" filter="url(#f7s9d2i6jvqf2)" height="30.2969" style="stroke:#A80036;stroke-width:1.5;" width="70" x="416.5" y="282.0938"/><text fill="#000000" font-family="sans-serif" font-size="14" lengthAdjust="spacing" textLength="56" x="423.5" y="302.0889">:System</text><rect fill="#FFFFFF" filter="url(#f7s9d2i6jvqf2)" height="166.7969" style="stroke:#A80036;stroke-width:1.0;" width="10" x="46.5" y="98.2969"/><rect fill="#FFFFFF" filter="url(#f7s9d2i6jvqf2)" height="29.1328" style="stroke:#A80036;stroke-width:1.0;" width="10" x="448.5" y="119.4297"/><rect fill="#FFFFFF" filter="url(#f7s9d2i6jvqf2)" height="29.1328" style="stroke:#A80036;stroke-width:1.0;" width="10" x="448.5" y="177.6953"/><rect fill="#FFFFFF" filter="url(#f7s9d2i6jvqf2)" height="29.1328" style="stroke:#A80036;stroke-width:1.0;" width="10" x="448.5" y="235.9609"/><polygon fill="#A80036" points="436.5,115.4297,446.5,119.4297,436.5,123.4297,440.5,119.4297" style="stroke:#A80036;stroke-width:1.0;"/><line style="stroke:#A80036;stroke-width:1.0;" x1="56.5" x2="442.5" y1="119.4297" y2="119.4297"/><text fill="#000000" font-family="sans-serif" font-size="13" font-weight="bold" lengthAdjust="spacing" textLength="9" x="63.5" y="114.3638">1</text><text fill="#000000" font-family="sans-serif" font-size="13" lengthAdjust="spacing" textLength="177" x="76.5" y="114.3638">asks to register a SNS User</text><polygon fill="#A80036" points="67.5,144.5625,57.5,148.5625,67.5,152.5625,63.5,148.5625" style="stroke:#A80036;stroke-width:1.0;"/><line style="stroke:#A80036;stroke-width:1.0;stroke-dasharray:2.0,2.0;" x1="61.5" x2="452.5" y1="148.5625" y2="148.5625"/><text fill="#000000" font-family="sans-serif" font-size="13" font-weight="bold" lengthAdjust="spacing" textLength="9" x="73.5" y="143.4966">2</text><text fill="#000000" font-family="sans-serif" font-size="13" lengthAdjust="spacing" textLength="355" x="86.5" y="143.4966">requests data (name, birth date, phone number, email)</text><polygon fill="#A80036" points="436.5,173.6953,446.5,177.6953,436.5,181.6953,440.5,177.6953" style="stroke:#A80036;stroke-width:1.0;"/><line style="stroke:#A80036;stroke-width:1.0;" x1="56.5" x2="442.5" y1="177.6953" y2="177.6953"/><text fill="#000000" font-family="sans-serif" font-size="13" font-weight="bold" lengthAdjust="spacing" textLength="9" x="63.5" y="172.6294">3</text><text fill="#000000" font-family="sans-serif" font-size="13" lengthAdjust="spacing" textLength="137" x="76.5" y="172.6294">types requested data</text><polygon fill="#A80036" points="67.5,202.8281,57.5,206.8281,67.5,210.8281,63.5,206.8281" style="stroke:#A80036;stroke-width:1.0;"/><line style="stroke:#A80036;stroke-width:1.0;stroke-dasharray:2.0,2.0;" x1="61.5" x2="452.5" y1="206.8281" y2="206.8281"/><text fill="#000000" font-family="sans-serif" font-size="13" font-weight="bold" lengthAdjust="spacing" textLength="9" x="73.5" y="201.7622">4</text><text fill="#000000" font-family="sans-serif" font-size="13" lengthAdjust="spacing" textLength="262" x="86.5" y="201.7622">shows all data and requests confirmation</text><polygon fill="#A80036" points="436.5,231.9609,446.5,235.9609,436.5,239.9609,440.5,235.9609" style="stroke:#A80036;stroke-width:1.0;"/><line style="stroke:#A80036;stroke-width:1.0;" x1="56.5" x2="442.5" y1="235.9609" y2="235.9609"/><text fill="#000000" font-family="sans-serif" font-size="13" font-weight="bold" lengthAdjust="spacing" textLength="9" x="63.5" y="230.895">5</text><text fill="#000000" font-family="sans-serif" font-size="13" lengthAdjust="spacing" textLength="113" x="76.5" y="230.895">confirms the data</text><polygon fill="#A80036" points="62.5,261.0938,52.5,265.0938,62.5,269.0938,58.5,265.0938" style="stroke:#A80036;stroke-width:1.0;"/><line style="stroke:#A80036;stroke-width:1.0;stroke-dasharray:2.0,2.0;" x1="56.5" x2="452.5" y1="265.0938" y2="265.0938"/><text fill="#000000" font-family="sans-serif" font-size="13" font-weight="bold" lengthAdjust="spacing" textLength="9" x="68.5" y="260.0278">6</text><text fill="#000000" font-family="sans-serif" font-size="13" lengthAdjust="spacing" textLength="168" x="81.5" y="260.0278">informs operation success</text><!--MD5=[0fe2b078b296102e8ff457b46fd25b05]
@startuml System Sequence Diagram
autonumber
actor "Receptionist" as Receptionist

activate Receptionist
Receptionist -> ":System" : asks to register a SNS User
activate ":System"
":System" - -> Receptionist : requests data (name, birth date, phone number, email)
deactivate ":System"

Receptionist -> ":System" : types requested data
activate ":System"
":System" - -> Receptionist : shows all data and requests confirmation
deactivate ":System"

Receptionist -> ":System" : confirms the data
activate ":System"
":System" - -> Receptionist : informs operation success
deactivate ":System"

deactivate Receptionist

@enduml

PlantUML version 1.2022.0(Tue Jan 11 16:16:42 WET 2022)
(GPL source distribution)
Java Runtime: OpenJDK Runtime Environment
JVM: OpenJDK 64-Bit Server VM
Default Encoding: UTF-8
Language: en
Country: US
--></g></svg>