<?xml version="1.0" encoding="UTF-8" standalone="no"?><svg xmlns="http://www.w3.org/2000/svg" xmlns:xlink="http://www.w3.org/1999/xlink" contentScriptType="application/ecmascript" contentStyleType="text/css" height="939px" preserveAspectRatio="none" style="width:1445px;height:939px;background:#FFFFFF;" version="1.1" viewBox="0 0 1445 939" width="1445px" zoomAndPan="magnify"><defs><filter height="300%" id="fiparfcaqe4cg" width="300%" x="-1" y="-1"><feGaussianBlur result="blurOut" stdDeviation="2.0"/><feColorMatrix in="blurOut" result="blurOut2" type="matrix" values="0 0 0 0 0 0 0 0 0 0 0 0 0 0 0 0 0 0 .4 0"/><feOffset dx="4.0" dy="4.0" in="blurOut2" result="blurOut3"/><feBlend in="SourceGraphic" in2="blurOut3" mode="normal"/></filter></defs><g><!--MD5=[de60e6d4f424ae4d0522096f76a59010]
class VaccinationCenter--><rect codeLine="3" fill="#FEFECE" filter="url(#fiparfcaqe4cg)" height="227.8672" id="VaccinationCenter" style="stroke:#A80036;stroke-width:1.5;" width="876" x="7" y="461"/><ellipse cx="390.75" cy="477" fill="#ADD1B2" rx="11" ry="11" style="stroke:#A80036;stroke-width:1.0;"/><path d="M393.5156,472.875 Q393.6719,472.6563 393.8594,472.5469 Q394.0469,472.4375 394.2656,472.4375 Q394.6406,472.4375 394.875,472.7031 Q395.1094,472.9531 395.1094,473.5625 L395.1094,475.0156 Q395.1094,475.625 394.875,475.8906 Q394.6406,476.1563 394.2656,476.1563 Q393.9219,476.1563 393.7188,475.9531 Q393.5156,475.7656 393.4063,475.25 Q393.3594,474.8906 393.1719,474.7031 Q392.8438,474.3281 392.2344,474.1094 Q391.625,473.8906 391,473.8906 Q390.2344,473.8906 389.5938,474.2188 Q388.9688,474.5469 388.4688,475.2969 Q387.9844,476.0469 387.9844,477.0781 L387.9844,478.1719 Q387.9844,479.4063 388.875,480.2344 Q389.7656,481.0469 391.3594,481.0469 Q392.2969,481.0469 392.9531,480.7969 Q393.3438,480.6406 393.7656,480.2031 Q394.0313,479.9375 394.1719,479.8594 Q394.3281,479.7813 394.5313,479.7813 Q394.8594,479.7813 395.1094,480.0469 Q395.375,480.2969 395.375,480.6406 Q395.375,480.9844 395.0313,481.3906 Q394.5313,481.9688 393.7344,482.2969 Q392.6563,482.75 391.3594,482.75 Q389.8438,482.75 388.6406,482.125 Q387.6563,481.625 386.9688,480.5625 Q386.2813,479.4844 386.2813,478.2031 L386.2813,477.0469 Q386.2813,475.7188 386.8906,474.5781 Q387.5156,473.4219 388.6094,472.8125 Q389.7031,472.1875 390.9375,472.1875 Q391.6719,472.1875 392.3125,472.3594 Q392.9688,472.5156 393.5156,472.875 Z " fill="#000000"/><text fill="#000000" font-family="sans-serif" font-size="12" lengthAdjust="spacing" textLength="100" x="411.25" y="481.9102">VaccinationCenter</text><line style="stroke:#A80036;stroke-width:1.5;" x1="8" x2="882" y1="493" y2="493"/><text fill="#000000" font-family="sans-serif" font-size="11" lengthAdjust="spacing" textLength="64" x="13" y="508.4189">-name: String</text><text fill="#000000" font-family="sans-serif" font-size="11" lengthAdjust="spacing" textLength="78" x="13" y="522.2549">-address: String</text><text fill="#000000" font-family="sans-serif" font-size="11" lengthAdjust="spacing" textLength="104" x="13" y="536.0908">-emailAddress: String</text><text fill="#000000" font-family="sans-serif" font-size="11" lengthAdjust="spacing" textLength="88" x="13" y="549.9268">-phoneNumber: int</text><text fill="#000000" font-family="sans-serif" font-size="11" lengthAdjust="spacing" textLength="74" x="13" y="563.7627">-faxNumber: int</text><text fill="#000000" font-family="sans-serif" font-size="11" lengthAdjust="spacing" textLength="119" x="13" y="577.5986">-websiteAddress: String</text><text fill="#000000" font-family="sans-serif" font-size="11" lengthAdjust="spacing" textLength="105" x="13" y="591.4346">-openingHours: String</text><text fill="#000000" font-family="sans-serif" font-size="11" lengthAdjust="spacing" textLength="101" x="13" y="605.2705">-closingHours: String</text><text fill="#000000" font-family="sans-serif" font-size="11" lengthAdjust="spacing" textLength="78" x="13" y="619.1064">-slotDuration: int</text><text fill="#000000" font-family="sans-serif" font-size="11" lengthAdjust="spacing" textLength="145" x="13" y="632.9424">-maximumVaccinesPerSlot: int</text><text fill="#000000" font-family="sans-serif" font-size="11" lengthAdjust="spacing" textLength="119" x="13" y="646.7783">-coordinator: EMPLOYEE</text><text fill="#000000" font-family="sans-serif" font-size="11" lengthAdjust="spacing" textLength="50" x="13" y="660.6143">-typeId: int</text><line style="stroke:#A80036;stroke-width:1.0;" x1="8" x2="882" y1="667.0313" y2="667.0313"/><text fill="#000000" font-family="sans-serif" font-size="11" lengthAdjust="spacing" textLength="864" x="13" y="682.4502">+VaccinationCenter(name,address,emailAddress,phoneNumber,faxNumber,websiteAddress,openingHours,closingHours,slotDuration,maximumVaccinesPerSlot,coordinator,typeId)</text><!--MD5=[02e4b9b7573f1156f41e60aa5b4e25a4]
class Company--><rect codeLine="21" fill="#FEFECE" filter="url(#fiparfcaqe4cg)" height="103.3438" id="Company" style="stroke:#A80036;stroke-width:1.5;" width="156" x="836" y="280"/><ellipse cx="883.25" cy="296" fill="#ADD1B2" rx="11" ry="11" style="stroke:#A80036;stroke-width:1.0;"/><path d="M886.0156,291.875 Q886.1719,291.6563 886.3594,291.5469 Q886.5469,291.4375 886.7656,291.4375 Q887.1406,291.4375 887.375,291.7031 Q887.6094,291.9531 887.6094,292.5625 L887.6094,294.0156 Q887.6094,294.625 887.375,294.8906 Q887.1406,295.1563 886.7656,295.1563 Q886.4219,295.1563 886.2188,294.9531 Q886.0156,294.7656 885.9063,294.25 Q885.8594,293.8906 885.6719,293.7031 Q885.3438,293.3281 884.7344,293.1094 Q884.125,292.8906 883.5,292.8906 Q882.7344,292.8906 882.0938,293.2188 Q881.4688,293.5469 880.9688,294.2969 Q880.4844,295.0469 880.4844,296.0781 L880.4844,297.1719 Q880.4844,298.4063 881.375,299.2344 Q882.2656,300.0469 883.8594,300.0469 Q884.7969,300.0469 885.4531,299.7969 Q885.8438,299.6406 886.2656,299.2031 Q886.5313,298.9375 886.6719,298.8594 Q886.8281,298.7813 887.0313,298.7813 Q887.3594,298.7813 887.6094,299.0469 Q887.875,299.2969 887.875,299.6406 Q887.875,299.9844 887.5313,300.3906 Q887.0313,300.9688 886.2344,301.2969 Q885.1563,301.75 883.8594,301.75 Q882.3438,301.75 881.1406,301.125 Q880.1563,300.625 879.4688,299.5625 Q878.7813,298.4844 878.7813,297.2031 L878.7813,296.0469 Q878.7813,294.7188 879.3906,293.5781 Q880.0156,292.4219 881.1094,291.8125 Q882.2031,291.1875 883.4375,291.1875 Q884.1719,291.1875 884.8125,291.3594 Q885.4688,291.5156 886.0156,291.875 Z " fill="#000000"/><text fill="#000000" font-family="sans-serif" font-size="12" lengthAdjust="spacing" textLength="53" x="903.75" y="300.9102">Company</text><line style="stroke:#A80036;stroke-width:1.5;" x1="837" x2="991" y1="312" y2="312"/><text fill="#000000" font-family="sans-serif" font-size="11" lengthAdjust="spacing" textLength="93" x="842" y="327.4189">-designation: String</text><line style="stroke:#A80036;stroke-width:1.0;" x1="837" x2="991" y1="333.8359" y2="333.8359"/><text fill="#000000" font-family="sans-serif" font-size="11" lengthAdjust="spacing" textLength="85" x="842" y="349.2549">+getDesignation()</text><text fill="#000000" font-family="sans-serif" font-size="11" lengthAdjust="spacing" textLength="101" x="842" y="363.0908">+getEmployeeStore()</text><text fill="#000000" font-family="sans-serif" font-size="11" lengthAdjust="spacing" textLength="144" x="842" y="376.9268">+getVaccinationCenterStore()</text><!--MD5=[a29876ea2f21a6ca48ea477740122fd8]
class VaccinationCenterStore--><rect codeLine="29" fill="#FEFECE" filter="url(#fiparfcaqe4cg)" height="103.3438" id="VaccinationCenterStore" style="stroke:#A80036;stroke-width:1.5;" width="257" x="918.5" y="523.5"/><ellipse cx="978.25" cy="539.5" fill="#ADD1B2" rx="11" ry="11" style="stroke:#A80036;stroke-width:1.0;"/><path d="M981.0156,535.375 Q981.1719,535.1563 981.3594,535.0469 Q981.5469,534.9375 981.7656,534.9375 Q982.1406,534.9375 982.375,535.2031 Q982.6094,535.4531 982.6094,536.0625 L982.6094,537.5156 Q982.6094,538.125 982.375,538.3906 Q982.1406,538.6563 981.7656,538.6563 Q981.4219,538.6563 981.2188,538.4531 Q981.0156,538.2656 980.9063,537.75 Q980.8594,537.3906 980.6719,537.2031 Q980.3438,536.8281 979.7344,536.6094 Q979.125,536.3906 978.5,536.3906 Q977.7344,536.3906 977.0938,536.7188 Q976.4688,537.0469 975.9688,537.7969 Q975.4844,538.5469 975.4844,539.5781 L975.4844,540.6719 Q975.4844,541.9063 976.375,542.7344 Q977.2656,543.5469 978.8594,543.5469 Q979.7969,543.5469 980.4531,543.2969 Q980.8438,543.1406 981.2656,542.7031 Q981.5313,542.4375 981.6719,542.3594 Q981.8281,542.2813 982.0313,542.2813 Q982.3594,542.2813 982.6094,542.5469 Q982.875,542.7969 982.875,543.1406 Q982.875,543.4844 982.5313,543.8906 Q982.0313,544.4688 981.2344,544.7969 Q980.1563,545.25 978.8594,545.25 Q977.3438,545.25 976.1406,544.625 Q975.1563,544.125 974.4688,543.0625 Q973.7813,541.9844 973.7813,540.7031 L973.7813,539.5469 Q973.7813,538.2188 974.3906,537.0781 Q975.0156,535.9219 976.1094,535.3125 Q977.2031,534.6875 978.4375,534.6875 Q979.1719,534.6875 979.8125,534.8594 Q980.4688,535.0156 981.0156,535.375 Z " fill="#000000"/><text fill="#000000" font-family="sans-serif" font-size="12" lengthAdjust="spacing" textLength="129" x="998.75" y="544.4102">VaccinationCenterStore</text><line style="stroke:#A80036;stroke-width:1.5;" x1="919.5" x2="1174.5" y1="555.5" y2="555.5"/><line style="stroke:#A80036;stroke-width:1.0;" x1="919.5" x2="1174.5" y1="563.5" y2="563.5"/><text fill="#000000" font-family="sans-serif" font-size="11" lengthAdjust="spacing" textLength="245" x="924.5" y="578.9189">+createVaccinationCenter(centerData,coordinator)</text><text fill="#000000" font-family="sans-serif" font-size="11" lengthAdjust="spacing" textLength="169" x="924.5" y="592.7549">+validateVaccinatonCenter(center)</text><text fill="#000000" font-family="sans-serif" font-size="11" lengthAdjust="spacing" textLength="158" x="924.5" y="606.5908">+saveVaccinationCenter(center)</text><text fill="#000000" font-family="sans-serif" font-size="11" lengthAdjust="spacing" textLength="150" x="924.5" y="620.4268">-addVaccinationCenter(center)</text><!--MD5=[7421f545a0d8420c5bec41e74b387d9c]
class Employee--><rect codeLine="37" fill="#FEFECE" filter="url(#fiparfcaqe4cg)" height="158.6875" id="Employee" style="stroke:#A80036;stroke-width:1.5;" width="324" x="1107" y="767"/><ellipse cx="1237.25" cy="783" fill="#ADD1B2" rx="11" ry="11" style="stroke:#A80036;stroke-width:1.0;"/><path d="M1240.0156,778.875 Q1240.1719,778.6563 1240.3594,778.5469 Q1240.5469,778.4375 1240.7656,778.4375 Q1241.1406,778.4375 1241.375,778.7031 Q1241.6094,778.9531 1241.6094,779.5625 L1241.6094,781.0156 Q1241.6094,781.625 1241.375,781.8906 Q1241.1406,782.1563 1240.7656,782.1563 Q1240.4219,782.1563 1240.2188,781.9531 Q1240.0156,781.7656 1239.9063,781.25 Q1239.8594,780.8906 1239.6719,780.7031 Q1239.3438,780.3281 1238.7344,780.1094 Q1238.125,779.8906 1237.5,779.8906 Q1236.7344,779.8906 1236.0938,780.2188 Q1235.4688,780.5469 1234.9688,781.2969 Q1234.4844,782.0469 1234.4844,783.0781 L1234.4844,784.1719 Q1234.4844,785.4063 1235.375,786.2344 Q1236.2656,787.0469 1237.8594,787.0469 Q1238.7969,787.0469 1239.4531,786.7969 Q1239.8438,786.6406 1240.2656,786.2031 Q1240.5313,785.9375 1240.6719,785.8594 Q1240.8281,785.7813 1241.0313,785.7813 Q1241.3594,785.7813 1241.6094,786.0469 Q1241.875,786.2969 1241.875,786.6406 Q1241.875,786.9844 1241.5313,787.3906 Q1241.0313,787.9688 1240.2344,788.2969 Q1239.1563,788.75 1237.8594,788.75 Q1236.3438,788.75 1235.1406,788.125 Q1234.1563,787.625 1233.4688,786.5625 Q1232.7813,785.4844 1232.7813,784.2031 L1232.7813,783.0469 Q1232.7813,781.7188 1233.3906,780.5781 Q1234.0156,779.4219 1235.1094,778.8125 Q1236.2031,778.1875 1237.4375,778.1875 Q1238.1719,778.1875 1238.8125,778.3594 Q1239.4688,778.5156 1240.0156,778.875 Z " fill="#000000"/><text fill="#000000" font-family="sans-serif" font-size="12" lengthAdjust="spacing" textLength="55" x="1257.75" y="787.9102">Employee</text><line style="stroke:#A80036;stroke-width:1.5;" x1="1108" x2="1430" y1="799" y2="799"/><text fill="#000000" font-family="sans-serif" font-size="11" lengthAdjust="spacing" textLength="46" x="1113" y="814.4189">-id: String</text><text fill="#000000" font-family="sans-serif" font-size="11" lengthAdjust="spacing" textLength="64" x="1113" y="828.2549">-name: String</text><text fill="#000000" font-family="sans-serif" font-size="11" lengthAdjust="spacing" textLength="62" x="1113" y="842.0908">-email: String</text><text fill="#000000" font-family="sans-serif" font-size="11" lengthAdjust="spacing" textLength="68" x="1113" y="855.9268">-phone: String</text><text fill="#000000" font-family="sans-serif" font-size="11" lengthAdjust="spacing" textLength="78" x="1113" y="869.7627">-address: String</text><text fill="#000000" font-family="sans-serif" font-size="11" lengthAdjust="spacing" textLength="112" x="1113" y="883.5986">-citizenCardNumber: int</text><text fill="#000000" font-family="sans-serif" font-size="11" lengthAdjust="spacing" textLength="64" x="1113" y="897.4346">-roleId: String</text><line style="stroke:#A80036;stroke-width:1.0;" x1="1108" x2="1430" y1="903.8516" y2="903.8516"/><text fill="#000000" font-family="sans-serif" font-size="11" lengthAdjust="spacing" textLength="312" x="1113" y="919.2705">+Employee(name,email,phone,address,citizenCardNumber,roleId)</text><!--MD5=[829fb52c07ade3ad64ef85b99d1fca10]
class EmployeeStore--><rect codeLine="49" fill="#FEFECE" filter="url(#fiparfcaqe4cg)" height="61.8359" id="EmployeeStore" style="stroke:#A80036;stroke-width:1.5;" width="116" x="1211" y="544"/><ellipse cx="1226" cy="560" fill="#ADD1B2" rx="11" ry="11" style="stroke:#A80036;stroke-width:1.0;"/><path d="M1228.7656,555.875 Q1228.9219,555.6563 1229.1094,555.5469 Q1229.2969,555.4375 1229.5156,555.4375 Q1229.8906,555.4375 1230.125,555.7031 Q1230.3594,555.9531 1230.3594,556.5625 L1230.3594,558.0156 Q1230.3594,558.625 1230.125,558.8906 Q1229.8906,559.1563 1229.5156,559.1563 Q1229.1719,559.1563 1228.9688,558.9531 Q1228.7656,558.7656 1228.6563,558.25 Q1228.6094,557.8906 1228.4219,557.7031 Q1228.0938,557.3281 1227.4844,557.1094 Q1226.875,556.8906 1226.25,556.8906 Q1225.4844,556.8906 1224.8438,557.2188 Q1224.2188,557.5469 1223.7188,558.2969 Q1223.2344,559.0469 1223.2344,560.0781 L1223.2344,561.1719 Q1223.2344,562.4063 1224.125,563.2344 Q1225.0156,564.0469 1226.6094,564.0469 Q1227.5469,564.0469 1228.2031,563.7969 Q1228.5938,563.6406 1229.0156,563.2031 Q1229.2813,562.9375 1229.4219,562.8594 Q1229.5781,562.7813 1229.7813,562.7813 Q1230.1094,562.7813 1230.3594,563.0469 Q1230.625,563.2969 1230.625,563.6406 Q1230.625,563.9844 1230.2813,564.3906 Q1229.7813,564.9688 1228.9844,565.2969 Q1227.9063,565.75 1226.6094,565.75 Q1225.0938,565.75 1223.8906,565.125 Q1222.9063,564.625 1222.2188,563.5625 Q1221.5313,562.4844 1221.5313,561.2031 L1221.5313,560.0469 Q1221.5313,558.7188 1222.1406,557.5781 Q1222.7656,556.4219 1223.8594,555.8125 Q1224.9531,555.1875 1226.1875,555.1875 Q1226.9219,555.1875 1227.5625,555.3594 Q1228.2188,555.5156 1228.7656,555.875 Z " fill="#000000"/><text fill="#000000" font-family="sans-serif" font-size="12" lengthAdjust="spacing" textLength="84" x="1240" y="564.9102">EmployeeStore</text><line style="stroke:#A80036;stroke-width:1.5;" x1="1212" x2="1326" y1="576" y2="576"/><line style="stroke:#A80036;stroke-width:1.5;" x1="1212" x2="1326" y1="584" y2="584"/><text fill="#000000" font-family="sans-serif" font-size="11" lengthAdjust="spacing" textLength="104" x="1217" y="599.4189">+getEmployeeById(id)</text><!--MD5=[30f5d80da7eaef66e26152e87f16c093]
class VaccinationCenterController--><rect codeLine="53" fill="#FEFECE" filter="url(#fiparfcaqe4cg)" height="103.3438" id="VaccinationCenterController" style="stroke:#A80036;stroke-width:1.5;" width="817" x="261.5" y="116"/><ellipse cx="588.75" cy="132" fill="#ADD1B2" rx="11" ry="11" style="stroke:#A80036;stroke-width:1.0;"/><path d="M591.5156,127.875 Q591.6719,127.6563 591.8594,127.5469 Q592.0469,127.4375 592.2656,127.4375 Q592.6406,127.4375 592.875,127.7031 Q593.1094,127.9531 593.1094,128.5625 L593.1094,130.0156 Q593.1094,130.625 592.875,130.8906 Q592.6406,131.1563 592.2656,131.1563 Q591.9219,131.1563 591.7188,130.9531 Q591.5156,130.7656 591.4063,130.25 Q591.3594,129.8906 591.1719,129.7031 Q590.8438,129.3281 590.2344,129.1094 Q589.625,128.8906 589,128.8906 Q588.2344,128.8906 587.5938,129.2188 Q586.9688,129.5469 586.4688,130.2969 Q585.9844,131.0469 585.9844,132.0781 L585.9844,133.1719 Q585.9844,134.4063 586.875,135.2344 Q587.7656,136.0469 589.3594,136.0469 Q590.2969,136.0469 590.9531,135.7969 Q591.3438,135.6406 591.7656,135.2031 Q592.0313,134.9375 592.1719,134.8594 Q592.3281,134.7813 592.5313,134.7813 Q592.8594,134.7813 593.1094,135.0469 Q593.375,135.2969 593.375,135.6406 Q593.375,135.9844 593.0313,136.3906 Q592.5313,136.9688 591.7344,137.2969 Q590.6563,137.75 589.3594,137.75 Q587.8438,137.75 586.6406,137.125 Q585.6563,136.625 584.9688,135.5625 Q584.2813,134.4844 584.2813,133.2031 L584.2813,132.0469 Q584.2813,130.7188 584.8906,129.5781 Q585.5156,128.4219 586.6094,127.8125 Q587.7031,127.1875 588.9375,127.1875 Q589.6719,127.1875 590.3125,127.3594 Q590.9688,127.5156 591.5156,127.875 Z " fill="#000000"/><text fill="#000000" font-family="sans-serif" font-size="12" lengthAdjust="spacing" textLength="154" x="609.25" y="136.9102">VaccinationCenterController</text><line style="stroke:#A80036;stroke-width:1.5;" x1="262.5" x2="1077.5" y1="148" y2="148"/><line style="stroke:#A80036;stroke-width:1.0;" x1="262.5" x2="1077.5" y1="156" y2="156"/><text fill="#000000" font-family="sans-serif" font-size="11" lengthAdjust="spacing" textLength="91" x="267.5" y="171.4189">+getCoordinators()</text><text fill="#000000" font-family="sans-serif" font-size="11" lengthAdjust="spacing" textLength="107" x="267.5" y="185.2549">+selectCoordinator(id)</text><text fill="#000000" font-family="sans-serif" font-size="11" lengthAdjust="spacing" textLength="805" x="267.5" y="199.0908">+createVaccinationCenter(name,address,emailAddress,phoneNumber,faxNumber,websiteAddress,openingHours,closingHours,slotDuration,maximumVaccinesPerSlot)</text><text fill="#000000" font-family="sans-serif" font-size="11" lengthAdjust="spacing" textLength="158" x="267.5" y="212.9268">+saveVaccinationCenter(center)</text><!--MD5=[0949c93bb2ceac2c9377da7237d80f71]
class VaccinationCenterUI--><rect codeLine="61" fill="#FEFECE" filter="url(#fiparfcaqe4cg)" height="48" id="VaccinationCenterUI" style="stroke:#A80036;stroke-width:1.5;" width="144" x="598" y="7"/><ellipse cx="613" cy="23" fill="#ADD1B2" rx="11" ry="11" style="stroke:#A80036;stroke-width:1.0;"/><path d="M615.7656,18.875 Q615.9219,18.6563 616.1094,18.5469 Q616.2969,18.4375 616.5156,18.4375 Q616.8906,18.4375 617.125,18.7031 Q617.3594,18.9531 617.3594,19.5625 L617.3594,21.0156 Q617.3594,21.625 617.125,21.8906 Q616.8906,22.1563 616.5156,22.1563 Q616.1719,22.1563 615.9688,21.9531 Q615.7656,21.7656 615.6563,21.25 Q615.6094,20.8906 615.4219,20.7031 Q615.0938,20.3281 614.4844,20.1094 Q613.875,19.8906 613.25,19.8906 Q612.4844,19.8906 611.8438,20.2188 Q611.2188,20.5469 610.7188,21.2969 Q610.2344,22.0469 610.2344,23.0781 L610.2344,24.1719 Q610.2344,25.4063 611.125,26.2344 Q612.0156,27.0469 613.6094,27.0469 Q614.5469,27.0469 615.2031,26.7969 Q615.5938,26.6406 616.0156,26.2031 Q616.2813,25.9375 616.4219,25.8594 Q616.5781,25.7813 616.7813,25.7813 Q617.1094,25.7813 617.3594,26.0469 Q617.625,26.2969 617.625,26.6406 Q617.625,26.9844 617.2813,27.3906 Q616.7813,27.9688 615.9844,28.2969 Q614.9063,28.75 613.6094,28.75 Q612.0938,28.75 610.8906,28.125 Q609.9063,27.625 609.2188,26.5625 Q608.5313,25.4844 608.5313,24.2031 L608.5313,23.0469 Q608.5313,21.7188 609.1406,20.5781 Q609.7656,19.4219 610.8594,18.8125 Q611.9531,18.1875 613.1875,18.1875 Q613.9219,18.1875 614.5625,18.3594 Q615.2188,18.5156 615.7656,18.875 Z " fill="#000000"/><text fill="#000000" font-family="sans-serif" font-size="12" lengthAdjust="spacing" textLength="112" x="627" y="27.9102">VaccinationCenterUI</text><line style="stroke:#A80036;stroke-width:1.5;" x1="599" x2="741" y1="39" y2="39"/><line style="stroke:#A80036;stroke-width:1.5;" x1="599" x2="741" y1="47" y2="47"/><!--MD5=[2bb26c741d8a8989873ebb0fda8a5667]
link VaccinationCenterUI to VaccinationCenterController--><path codeLine="63" d="M670,55.12 C670,70.36 670,91.02 670,110.4 " fill="none" id="VaccinationCenterUI-to-VaccinationCenterController" style="stroke:#A80036;stroke-width:1.0;stroke-dasharray:7.0,7.0;"/><polygon fill="#A80036" points="670,115.83,674,106.83,670,110.83,666,106.83,670,115.83" style="stroke:#A80036;stroke-width:1.0;"/><!--MD5=[f1b0b71cb0e083e22e413376c9309a8e]
link VaccinationCenterController to Company--><path codeLine="64" d="M746.2,219.09 C773.81,237.42 805.07,258.18 833.07,276.77 " fill="none" id="VaccinationCenterController-to-Company" style="stroke:#A80036;stroke-width:1.0;stroke-dasharray:7.0,7.0;"/><polygon fill="#A80036" points="837.54,279.74,832.2374,271.4404,833.3688,276.983,827.8262,278.1144,837.54,279.74" style="stroke:#A80036;stroke-width:1.0;"/><!--MD5=[eebe9b198877275d05dd12630ed9e401]
link Company to VaccinationCenter--><path codeLine="65" d="M835.76,372.79 C789.79,396.46 729.11,427.71 669.31,458.5 " fill="none" id="Company-to-VaccinationCenter" style="stroke:#A80036;stroke-width:1.0;"/><polygon fill="#A80036" points="664.64,460.9,674.4714,460.3146,669.0803,458.6013,670.7936,453.2102,664.64,460.9" style="stroke:#A80036;stroke-width:1.0;"/><polygon fill="#000000" points="757.4453,419.8868,748.0583,421.4148,750.7491,426.6405,757.4453,419.8868" style="stroke:#000000;stroke-width:1.0;"/><text fill="#000000" font-family="sans-serif" font-size="13" lengthAdjust="spacing" textLength="60" x="762" y="427.4951">belongs to</text><text fill="#000000" font-family="sans-serif" font-size="13" lengthAdjust="spacing" textLength="7" x="820.9692" y="373.4584">1</text><text fill="#000000" font-family="sans-serif" font-size="13" lengthAdjust="spacing" textLength="5" x="674.2291" y="450.2078">*</text><!--MD5=[8eeecba333e79c9a3f008f77e540b32f]
link VaccinationCenterController to VaccinationCenter--><path codeLine="66" d="M641.96,219.04 C609.21,278.05 553.97,377.61 510.31,456.29 " fill="none" id="VaccinationCenterController-to-VaccinationCenter" style="stroke:#A80036;stroke-width:1.0;stroke-dasharray:7.0,7.0;"/><polygon fill="#A80036" points="507.72,460.97,515.5874,455.0452,510.1482,456.5992,508.5942,451.16,507.72,460.97" style="stroke:#A80036;stroke-width:1.0;"/><!--MD5=[bc0d5b4bfe6e1bf0a8fced13bc4bdd47]
link Company to VaccinationCenterStore--><path codeLine="67" d="M941.88,383.13 C963.78,422.89 994.24,478.19 1016.73,519.03 " fill="none" id="Company-to-VaccinationCenterStore" style="stroke:#A80036;stroke-width:1.0;stroke-dasharray:7.0,7.0;"/><polygon fill="#A80036" points="1019.16,523.44,1018.3485,513.6246,1016.7597,519.0538,1011.3306,517.4651,1019.16,523.44" style="stroke:#A80036;stroke-width:1.0;"/><!--MD5=[ce859576cba61219b3cb4d2d23fdcd81]
link Company to EmployeeStore--><path codeLine="68" d="M992.04,355.55 C1051.87,376.07 1133.91,410.71 1193,461 C1218.42,482.64 1238.92,514.79 1252.2,539.27 " fill="none" id="Company-to-EmployeeStore" style="stroke:#A80036;stroke-width:1.0;stroke-dasharray:7.0,7.0;"/><polygon fill="#A80036" points="1254.59,543.75,1253.8792,533.9268,1252.2348,539.3394,1246.8222,537.6951,1254.59,543.75" style="stroke:#A80036;stroke-width:1.0;"/><!--MD5=[2f3bac1bdf76f0b867b8cadb6fadb6bc]
link EmployeeStore to Employee--><path codeLine="69" d="M1269,606.13 C1269,643.52 1269,708.82 1269,761.78 " fill="none" id="EmployeeStore-to-Employee" style="stroke:#A80036;stroke-width:1.0;"/><polygon fill="#A80036" points="1269,766.86,1273,757.86,1269,761.86,1265,757.86,1269,766.86" style="stroke:#A80036;stroke-width:1.0;"/><text fill="#000000" font-family="sans-serif" font-size="13" lengthAdjust="spacing" textLength="36" x="1270" y="733.4951">stores</text><text fill="#000000" font-family="sans-serif" font-size="13" lengthAdjust="spacing" textLength="7" x="1261.3109" y="627.3796">1</text><text fill="#000000" font-family="sans-serif" font-size="13" lengthAdjust="spacing" textLength="5" x="1263.7617" y="756.0336">*</text><!--MD5=[e357f6dc7f7671f9a11a744510404462]
@startuml US09_CD
skinparam classAttributeIconSize 0

class VaccinationCenter {
  - name: String
  - address: String
  - emailAddress: String
  - phoneNumber: int
  - faxNumber: int
  - websiteAddress: String
  - openingHours: String
  - closingHours: String
  - slotDuration: int
  - maximumVaccinesPerSlot: int
  - coordinator: EMPLOYEE
  - typeId: int
  - - -
 +VaccinationCenter(name,address,emailAddress,phoneNumber,faxNumber,websiteAddress,openingHours,closingHours,slotDuration,maximumVaccinesPerSlot,coordinator,typeId)
}


class Company {
  -designation: String
  - - -
  +getDesignation()
  +getEmployeeStore()
  +getVaccinationCenterStore()
}

class VaccinationCenterStore {
- - -
+createVaccinationCenter(centerData,coordinator)
+validateVaccinatonCenter(center)
+saveVaccinationCenter(center)
-addVaccinationCenter(center)
}

class Employee {
  -id: String 
  -name: String 
  -email: String 
  -phone: String 
  -address: String 
  -citizenCardNumber: int 
  -roleId: String 
  - - -
  +Employee(name,email,phone,address,citizenCardNumber,roleId)
}

class EmployeeStore {
  +getEmployeeById(id)
}

class VaccinationCenterController {
  - - -
  +getCoordinators()
  +selectCoordinator(id)
  +createVaccinationCenter(name,address,emailAddress,phoneNumber,faxNumber,websiteAddress,openingHours,closingHours,slotDuration,maximumVaccinesPerSlot)
  +saveVaccinationCenter(center)
}

class VaccinationCenterUI {}

VaccinationCenterUI ..> VaccinationCenterController
VaccinationCenterController ..> Company
Company "1" - -> "*" VaccinationCenter : belongs to <
VaccinationCenterController ..> VaccinationCenter
Company ..> VaccinationCenterStore
Company ..> EmployeeStore
EmployeeStore "1" - -> "*" Employee : stores

@enduml

PlantUML version 1.2022.0(Tue Jan 11 16:16:42 WET 2022)
(GPL source distribution)
Java Runtime: Java(TM) SE Runtime Environment
JVM: Java HotSpot(TM) 64-Bit Server VM
Default Encoding: Cp1252
Language: pt
Country: PT
--></g></svg>