<?xml version="1.0" encoding="UTF-8" standalone="no"?><svg xmlns="http://www.w3.org/2000/svg" xmlns:xlink="http://www.w3.org/1999/xlink" contentScriptType="application/ecmascript" contentStyleType="text/css" height="854px" preserveAspectRatio="none" style="width:1255px;height:854px;background:#FFFFFF;" version="1.1" viewBox="0 0 1255 854" width="1255px" zoomAndPan="magnify"><defs><filter height="300%" id="f158elnpi4rngv" width="300%" x="-1" y="-1"><feGaussianBlur result="blurOut" stdDeviation="2.0"/><feColorMatrix in="blurOut" result="blurOut2" type="matrix" values="0 0 0 0 0 0 0 0 0 0 0 0 0 0 0 0 0 0 .4 0"/><feOffset dx="4.0" dy="4.0" in="blurOut2" result="blurOut3"/><feBlend in="SourceGraphic" in2="blurOut3" mode="normal"/></filter></defs><g><!--MD5=[de60e6d4f424ae4d0522096f76a59010]
class VaccinationCenter--><rect codeLine="3" fill="#FEFECE" filter="url(#f158elnpi4rngv)" height="214.0313" id="VaccinationCenter" style="stroke:#A80036;stroke-width:1.5;" width="844" x="397.5" y="626"/><ellipse cx="765.25" cy="642" fill="#ADD1B2" rx="11" ry="11" style="stroke:#A80036;stroke-width:1.0;"/><path d="M768.0156,637.875 Q768.1719,637.6563 768.3594,637.5469 Q768.5469,637.4375 768.7656,637.4375 Q769.1406,637.4375 769.375,637.7031 Q769.6094,637.9531 769.6094,638.5625 L769.6094,640.0156 Q769.6094,640.625 769.375,640.8906 Q769.1406,641.1563 768.7656,641.1563 Q768.4219,641.1563 768.2188,640.9531 Q768.0156,640.7656 767.9063,640.25 Q767.8594,639.8906 767.6719,639.7031 Q767.3438,639.3281 766.7344,639.1094 Q766.125,638.8906 765.5,638.8906 Q764.7344,638.8906 764.0938,639.2188 Q763.4688,639.5469 762.9688,640.2969 Q762.4844,641.0469 762.4844,642.0781 L762.4844,643.1719 Q762.4844,644.4063 763.375,645.2344 Q764.2656,646.0469 765.8594,646.0469 Q766.7969,646.0469 767.4531,645.7969 Q767.8438,645.6406 768.2656,645.2031 Q768.5313,644.9375 768.6719,644.8594 Q768.8281,644.7813 769.0313,644.7813 Q769.3594,644.7813 769.6094,645.0469 Q769.875,645.2969 769.875,645.6406 Q769.875,645.9844 769.5313,646.3906 Q769.0313,646.9688 768.2344,647.2969 Q767.1563,647.75 765.8594,647.75 Q764.3438,647.75 763.1406,647.125 Q762.1563,646.625 761.4688,645.5625 Q760.7813,644.4844 760.7813,643.2031 L760.7813,642.0469 Q760.7813,640.7188 761.3906,639.5781 Q762.0156,638.4219 763.1094,637.8125 Q764.2031,637.1875 765.4375,637.1875 Q766.1719,637.1875 766.8125,637.3594 Q767.4688,637.5156 768.0156,637.875 Z " fill="#000000"/><text fill="#000000" font-family="sans-serif" font-size="12" lengthAdjust="spacing" textLength="100" x="785.75" y="646.9102">VaccinationCenter</text><line style="stroke:#A80036;stroke-width:1.5;" x1="398.5" x2="1240.5" y1="658" y2="658"/><text fill="#000000" font-family="sans-serif" font-size="11" lengthAdjust="spacing" textLength="64" x="403.5" y="673.4189">-name: String</text><text fill="#000000" font-family="sans-serif" font-size="11" lengthAdjust="spacing" textLength="78" x="403.5" y="687.2549">-address: String</text><text fill="#000000" font-family="sans-serif" font-size="11" lengthAdjust="spacing" textLength="104" x="403.5" y="701.0908">-emailAddress: String</text><text fill="#000000" font-family="sans-serif" font-size="11" lengthAdjust="spacing" textLength="105" x="403.5" y="714.9268">-phoneNumber: String</text><text fill="#000000" font-family="sans-serif" font-size="11" lengthAdjust="spacing" textLength="91" x="403.5" y="728.7627">-faxNumber: String</text><text fill="#000000" font-family="sans-serif" font-size="11" lengthAdjust="spacing" textLength="119" x="403.5" y="742.5986">-websiteAddress: String</text><text fill="#000000" font-family="sans-serif" font-size="11" lengthAdjust="spacing" textLength="105" x="403.5" y="756.4346">-openingHours: String</text><text fill="#000000" font-family="sans-serif" font-size="11" lengthAdjust="spacing" textLength="101" x="403.5" y="770.2705">-closingHours: String</text><text fill="#000000" font-family="sans-serif" font-size="11" lengthAdjust="spacing" textLength="78" x="403.5" y="784.1064">-slotDuration: int</text><text fill="#000000" font-family="sans-serif" font-size="11" lengthAdjust="spacing" textLength="145" x="403.5" y="797.9424">-maximumVaccinesPerSlot: int</text><text fill="#000000" font-family="sans-serif" font-size="11" lengthAdjust="spacing" textLength="119" x="403.5" y="811.7783">-coordinator: EMPLOYEE</text><line style="stroke:#A80036;stroke-width:1.0;" x1="398.5" x2="1240.5" y1="818.1953" y2="818.1953"/><text fill="#000000" font-family="sans-serif" font-size="11" lengthAdjust="spacing" textLength="832" x="403.5" y="833.6143">+VaccinationCenter(name,address,emailAddress,phoneNumber,faxNumber,websiteAddress,openingHours,closingHours,slotDuration,maximumVaccinesPerSlot,coordinator)</text><!--MD5=[02e4b9b7573f1156f41e60aa5b4e25a4]
class Company--><rect codeLine="20" fill="#FEFECE" filter="url(#f158elnpi4rngv)" height="103.3438" id="Company" style="stroke:#A80036;stroke-width:1.5;" width="156" x="366.5" y="267"/><ellipse cx="413.75" cy="283" fill="#ADD1B2" rx="11" ry="11" style="stroke:#A80036;stroke-width:1.0;"/><path d="M416.5156,278.875 Q416.6719,278.6563 416.8594,278.5469 Q417.0469,278.4375 417.2656,278.4375 Q417.6406,278.4375 417.875,278.7031 Q418.1094,278.9531 418.1094,279.5625 L418.1094,281.0156 Q418.1094,281.625 417.875,281.8906 Q417.6406,282.1563 417.2656,282.1563 Q416.9219,282.1563 416.7188,281.9531 Q416.5156,281.7656 416.4063,281.25 Q416.3594,280.8906 416.1719,280.7031 Q415.8438,280.3281 415.2344,280.1094 Q414.625,279.8906 414,279.8906 Q413.2344,279.8906 412.5938,280.2188 Q411.9688,280.5469 411.4688,281.2969 Q410.9844,282.0469 410.9844,283.0781 L410.9844,284.1719 Q410.9844,285.4063 411.875,286.2344 Q412.7656,287.0469 414.3594,287.0469 Q415.2969,287.0469 415.9531,286.7969 Q416.3438,286.6406 416.7656,286.2031 Q417.0313,285.9375 417.1719,285.8594 Q417.3281,285.7813 417.5313,285.7813 Q417.8594,285.7813 418.1094,286.0469 Q418.375,286.2969 418.375,286.6406 Q418.375,286.9844 418.0313,287.3906 Q417.5313,287.9688 416.7344,288.2969 Q415.6563,288.75 414.3594,288.75 Q412.8438,288.75 411.6406,288.125 Q410.6563,287.625 409.9688,286.5625 Q409.2813,285.4844 409.2813,284.2031 L409.2813,283.0469 Q409.2813,281.7188 409.8906,280.5781 Q410.5156,279.4219 411.6094,278.8125 Q412.7031,278.1875 413.9375,278.1875 Q414.6719,278.1875 415.3125,278.3594 Q415.9688,278.5156 416.5156,278.875 Z " fill="#000000"/><text fill="#000000" font-family="sans-serif" font-size="12" lengthAdjust="spacing" textLength="53" x="434.25" y="287.9102">Company</text><line style="stroke:#A80036;stroke-width:1.5;" x1="367.5" x2="521.5" y1="299" y2="299"/><text fill="#000000" font-family="sans-serif" font-size="11" lengthAdjust="spacing" textLength="93" x="372.5" y="314.4189">-designation: String</text><line style="stroke:#A80036;stroke-width:1.0;" x1="367.5" x2="521.5" y1="320.8359" y2="320.8359"/><text fill="#000000" font-family="sans-serif" font-size="11" lengthAdjust="spacing" textLength="85" x="372.5" y="336.2549">+getDesignation()</text><text fill="#000000" font-family="sans-serif" font-size="11" lengthAdjust="spacing" textLength="101" x="372.5" y="350.0908">+getEmployeeStore()</text><text fill="#000000" font-family="sans-serif" font-size="11" lengthAdjust="spacing" textLength="144" x="372.5" y="363.9268">+getVaccinationCenterStore()</text><!--MD5=[a29876ea2f21a6ca48ea477740122fd8]
class VaccinationCenterStore--><rect codeLine="28" fill="#FEFECE" filter="url(#f158elnpi4rngv)" height="117.1797" id="VaccinationCenterStore" style="stroke:#A80036;stroke-width:1.5;" width="257" x="662" y="431"/><ellipse cx="721.75" cy="447" fill="#ADD1B2" rx="11" ry="11" style="stroke:#A80036;stroke-width:1.0;"/><path d="M724.5156,442.875 Q724.6719,442.6563 724.8594,442.5469 Q725.0469,442.4375 725.2656,442.4375 Q725.6406,442.4375 725.875,442.7031 Q726.1094,442.9531 726.1094,443.5625 L726.1094,445.0156 Q726.1094,445.625 725.875,445.8906 Q725.6406,446.1563 725.2656,446.1563 Q724.9219,446.1563 724.7188,445.9531 Q724.5156,445.7656 724.4063,445.25 Q724.3594,444.8906 724.1719,444.7031 Q723.8438,444.3281 723.2344,444.1094 Q722.625,443.8906 722,443.8906 Q721.2344,443.8906 720.5938,444.2188 Q719.9688,444.5469 719.4688,445.2969 Q718.9844,446.0469 718.9844,447.0781 L718.9844,448.1719 Q718.9844,449.4063 719.875,450.2344 Q720.7656,451.0469 722.3594,451.0469 Q723.2969,451.0469 723.9531,450.7969 Q724.3438,450.6406 724.7656,450.2031 Q725.0313,449.9375 725.1719,449.8594 Q725.3281,449.7813 725.5313,449.7813 Q725.8594,449.7813 726.1094,450.0469 Q726.375,450.2969 726.375,450.6406 Q726.375,450.9844 726.0313,451.3906 Q725.5313,451.9688 724.7344,452.2969 Q723.6563,452.75 722.3594,452.75 Q720.8438,452.75 719.6406,452.125 Q718.6563,451.625 717.9688,450.5625 Q717.2813,449.4844 717.2813,448.2031 L717.2813,447.0469 Q717.2813,445.7188 717.8906,444.5781 Q718.5156,443.4219 719.6094,442.8125 Q720.7031,442.1875 721.9375,442.1875 Q722.6719,442.1875 723.3125,442.3594 Q723.9688,442.5156 724.5156,442.875 Z " fill="#000000"/><text fill="#000000" font-family="sans-serif" font-size="12" lengthAdjust="spacing" textLength="129" x="742.25" y="451.9102">VaccinationCenterStore</text><line style="stroke:#A80036;stroke-width:1.5;" x1="663" x2="918" y1="463" y2="463"/><line style="stroke:#A80036;stroke-width:1.0;" x1="663" x2="918" y1="471" y2="471"/><text fill="#000000" font-family="sans-serif" font-size="11" lengthAdjust="spacing" textLength="245" x="668" y="486.4189">+createVaccinationCenter(centerData,coordinator)</text><text fill="#000000" font-family="sans-serif" font-size="11" lengthAdjust="spacing" textLength="169" x="668" y="500.2549">+validateVaccinatonCenter(center)</text><text fill="#000000" font-family="sans-serif" font-size="11" lengthAdjust="spacing" textLength="158" x="668" y="514.0908">+saveVaccinationCenter(center)</text><text fill="#000000" font-family="sans-serif" font-size="11" lengthAdjust="spacing" textLength="124" x="668" y="527.9268">+checkDuplicates(center)</text><text fill="#000000" font-family="sans-serif" font-size="11" lengthAdjust="spacing" textLength="150" x="668" y="541.7627">-addVaccinationCenter(center)</text><!--MD5=[7421f545a0d8420c5bec41e74b387d9c]
class Employee--><rect codeLine="37" fill="#FEFECE" filter="url(#f158elnpi4rngv)" height="158.6875" id="Employee" style="stroke:#A80036;stroke-width:1.5;" width="324" x="38.5" y="653.5"/><ellipse cx="168.75" cy="669.5" fill="#ADD1B2" rx="11" ry="11" style="stroke:#A80036;stroke-width:1.0;"/><path d="M171.5156,665.375 Q171.6719,665.1563 171.8594,665.0469 Q172.0469,664.9375 172.2656,664.9375 Q172.6406,664.9375 172.875,665.2031 Q173.1094,665.4531 173.1094,666.0625 L173.1094,667.5156 Q173.1094,668.125 172.875,668.3906 Q172.6406,668.6563 172.2656,668.6563 Q171.9219,668.6563 171.7188,668.4531 Q171.5156,668.2656 171.4063,667.75 Q171.3594,667.3906 171.1719,667.2031 Q170.8438,666.8281 170.2344,666.6094 Q169.625,666.3906 169,666.3906 Q168.2344,666.3906 167.5938,666.7188 Q166.9688,667.0469 166.4688,667.7969 Q165.9844,668.5469 165.9844,669.5781 L165.9844,670.6719 Q165.9844,671.9063 166.875,672.7344 Q167.7656,673.5469 169.3594,673.5469 Q170.2969,673.5469 170.9531,673.2969 Q171.3438,673.1406 171.7656,672.7031 Q172.0313,672.4375 172.1719,672.3594 Q172.3281,672.2813 172.5313,672.2813 Q172.8594,672.2813 173.1094,672.5469 Q173.375,672.7969 173.375,673.1406 Q173.375,673.4844 173.0313,673.8906 Q172.5313,674.4688 171.7344,674.7969 Q170.6563,675.25 169.3594,675.25 Q167.8438,675.25 166.6406,674.625 Q165.6563,674.125 164.9688,673.0625 Q164.2813,671.9844 164.2813,670.7031 L164.2813,669.5469 Q164.2813,668.2188 164.8906,667.0781 Q165.5156,665.9219 166.6094,665.3125 Q167.7031,664.6875 168.9375,664.6875 Q169.6719,664.6875 170.3125,664.8594 Q170.9688,665.0156 171.5156,665.375 Z " fill="#000000"/><text fill="#000000" font-family="sans-serif" font-size="12" lengthAdjust="spacing" textLength="55" x="189.25" y="674.4102">Employee</text><line style="stroke:#A80036;stroke-width:1.5;" x1="39.5" x2="361.5" y1="685.5" y2="685.5"/><text fill="#000000" font-family="sans-serif" font-size="11" lengthAdjust="spacing" textLength="46" x="44.5" y="700.9189">-id: String</text><text fill="#000000" font-family="sans-serif" font-size="11" lengthAdjust="spacing" textLength="64" x="44.5" y="714.7549">-name: String</text><text fill="#000000" font-family="sans-serif" font-size="11" lengthAdjust="spacing" textLength="62" x="44.5" y="728.5908">-email: String</text><text fill="#000000" font-family="sans-serif" font-size="11" lengthAdjust="spacing" textLength="68" x="44.5" y="742.4268">-phone: String</text><text fill="#000000" font-family="sans-serif" font-size="11" lengthAdjust="spacing" textLength="78" x="44.5" y="756.2627">-address: String</text><text fill="#000000" font-family="sans-serif" font-size="11" lengthAdjust="spacing" textLength="112" x="44.5" y="770.0986">-citizenCardNumber: int</text><text fill="#000000" font-family="sans-serif" font-size="11" lengthAdjust="spacing" textLength="64" x="44.5" y="783.9346">-roleId: String</text><line style="stroke:#A80036;stroke-width:1.0;" x1="39.5" x2="361.5" y1="790.3516" y2="790.3516"/><text fill="#000000" font-family="sans-serif" font-size="11" lengthAdjust="spacing" textLength="312" x="44.5" y="805.7705">+Employee(name,email,phone,address,citizenCardNumber,roleId)</text><!--MD5=[829fb52c07ade3ad64ef85b99d1fca10]
class EmployeeStore--><rect codeLine="49" fill="#FEFECE" filter="url(#f158elnpi4rngv)" height="61.8359" id="EmployeeStore" style="stroke:#A80036;stroke-width:1.5;" width="143" x="216" y="458.5"/><ellipse cx="243.15" cy="474.5" fill="#ADD1B2" rx="11" ry="11" style="stroke:#A80036;stroke-width:1.0;"/><path d="M245.9156,470.375 Q246.0719,470.1563 246.2594,470.0469 Q246.4469,469.9375 246.6656,469.9375 Q247.0406,469.9375 247.275,470.2031 Q247.5094,470.4531 247.5094,471.0625 L247.5094,472.5156 Q247.5094,473.125 247.275,473.3906 Q247.0406,473.6563 246.6656,473.6563 Q246.3219,473.6563 246.1188,473.4531 Q245.9156,473.2656 245.8063,472.75 Q245.7594,472.3906 245.5719,472.2031 Q245.2438,471.8281 244.6344,471.6094 Q244.025,471.3906 243.4,471.3906 Q242.6344,471.3906 241.9938,471.7188 Q241.3688,472.0469 240.8688,472.7969 Q240.3844,473.5469 240.3844,474.5781 L240.3844,475.6719 Q240.3844,476.9063 241.275,477.7344 Q242.1656,478.5469 243.7594,478.5469 Q244.6969,478.5469 245.3531,478.2969 Q245.7438,478.1406 246.1656,477.7031 Q246.4313,477.4375 246.5719,477.3594 Q246.7281,477.2813 246.9313,477.2813 Q247.2594,477.2813 247.5094,477.5469 Q247.775,477.7969 247.775,478.1406 Q247.775,478.4844 247.4313,478.8906 Q246.9313,479.4688 246.1344,479.7969 Q245.0563,480.25 243.7594,480.25 Q242.2438,480.25 241.0406,479.625 Q240.0563,479.125 239.3688,478.0625 Q238.6813,476.9844 238.6813,475.7031 L238.6813,474.5469 Q238.6813,473.2188 239.2906,472.0781 Q239.9156,470.9219 241.0094,470.3125 Q242.1031,469.6875 243.3375,469.6875 Q244.0719,469.6875 244.7125,469.8594 Q245.3688,470.0156 245.9156,470.375 Z " fill="#000000"/><text fill="#000000" font-family="sans-serif" font-size="12" lengthAdjust="spacing" textLength="84" x="259.85" y="479.4102">EmployeeStore</text><line style="stroke:#A80036;stroke-width:1.5;" x1="217" x2="358" y1="490.5" y2="490.5"/><line style="stroke:#A80036;stroke-width:1.5;" x1="217" x2="358" y1="498.5" y2="498.5"/><text fill="#000000" font-family="sans-serif" font-size="11" lengthAdjust="spacing" textLength="131" x="222" y="513.9189">+getEmployeesWithRole(id)</text><!--MD5=[30f5d80da7eaef66e26152e87f16c093]
class VaccinationCenterController--><rect codeLine="53" fill="#FEFECE" filter="url(#f158elnpi4rngv)" height="89.5078" id="VaccinationCenterController" style="stroke:#A80036;stroke-width:1.5;" width="875" x="7" y="116"/><ellipse cx="363.25" cy="132" fill="#ADD1B2" rx="11" ry="11" style="stroke:#A80036;stroke-width:1.0;"/><path d="M366.0156,127.875 Q366.1719,127.6563 366.3594,127.5469 Q366.5469,127.4375 366.7656,127.4375 Q367.1406,127.4375 367.375,127.7031 Q367.6094,127.9531 367.6094,128.5625 L367.6094,130.0156 Q367.6094,130.625 367.375,130.8906 Q367.1406,131.1563 366.7656,131.1563 Q366.4219,131.1563 366.2188,130.9531 Q366.0156,130.7656 365.9063,130.25 Q365.8594,129.8906 365.6719,129.7031 Q365.3438,129.3281 364.7344,129.1094 Q364.125,128.8906 363.5,128.8906 Q362.7344,128.8906 362.0938,129.2188 Q361.4688,129.5469 360.9688,130.2969 Q360.4844,131.0469 360.4844,132.0781 L360.4844,133.1719 Q360.4844,134.4063 361.375,135.2344 Q362.2656,136.0469 363.8594,136.0469 Q364.7969,136.0469 365.4531,135.7969 Q365.8438,135.6406 366.2656,135.2031 Q366.5313,134.9375 366.6719,134.8594 Q366.8281,134.7813 367.0313,134.7813 Q367.3594,134.7813 367.6094,135.0469 Q367.875,135.2969 367.875,135.6406 Q367.875,135.9844 367.5313,136.3906 Q367.0313,136.9688 366.2344,137.2969 Q365.1563,137.75 363.8594,137.75 Q362.3438,137.75 361.1406,137.125 Q360.1563,136.625 359.4688,135.5625 Q358.7813,134.4844 358.7813,133.2031 L358.7813,132.0469 Q358.7813,130.7188 359.3906,129.5781 Q360.0156,128.4219 361.1094,127.8125 Q362.2031,127.1875 363.4375,127.1875 Q364.1719,127.1875 364.8125,127.3594 Q365.4688,127.5156 366.0156,127.875 Z " fill="#000000"/><text fill="#000000" font-family="sans-serif" font-size="12" lengthAdjust="spacing" textLength="154" x="383.75" y="136.9102">VaccinationCenterController</text><line style="stroke:#A80036;stroke-width:1.5;" x1="8" x2="881" y1="148" y2="148"/><line style="stroke:#A80036;stroke-width:1.0;" x1="8" x2="881" y1="156" y2="156"/><text fill="#000000" font-family="sans-serif" font-size="11" lengthAdjust="spacing" textLength="91" x="13" y="171.4189">+getCoordinators()</text><text fill="#000000" font-family="sans-serif" font-size="11" lengthAdjust="spacing" textLength="863" x="13" y="185.2549">+createVaccinationCenter(name,address,emailAddress,phoneNumber,faxNumber,websiteAddress,openingHours,closingHours,slotDuration,maximumVaccinesPerSlot,coordinator)</text><text fill="#000000" font-family="sans-serif" font-size="11" lengthAdjust="spacing" textLength="158" x="13" y="199.0908">+saveVaccinationCenter(center)</text><!--MD5=[0949c93bb2ceac2c9377da7237d80f71]
class VaccinationCenterUI--><rect codeLine="60" fill="#FEFECE" filter="url(#f158elnpi4rngv)" height="48" id="VaccinationCenterUI" style="stroke:#A80036;stroke-width:1.5;" width="144" x="372.5" y="7"/><ellipse cx="387.5" cy="23" fill="#ADD1B2" rx="11" ry="11" style="stroke:#A80036;stroke-width:1.0;"/><path d="M390.2656,18.875 Q390.4219,18.6563 390.6094,18.5469 Q390.7969,18.4375 391.0156,18.4375 Q391.3906,18.4375 391.625,18.7031 Q391.8594,18.9531 391.8594,19.5625 L391.8594,21.0156 Q391.8594,21.625 391.625,21.8906 Q391.3906,22.1563 391.0156,22.1563 Q390.6719,22.1563 390.4688,21.9531 Q390.2656,21.7656 390.1563,21.25 Q390.1094,20.8906 389.9219,20.7031 Q389.5938,20.3281 388.9844,20.1094 Q388.375,19.8906 387.75,19.8906 Q386.9844,19.8906 386.3438,20.2188 Q385.7188,20.5469 385.2188,21.2969 Q384.7344,22.0469 384.7344,23.0781 L384.7344,24.1719 Q384.7344,25.4063 385.625,26.2344 Q386.5156,27.0469 388.1094,27.0469 Q389.0469,27.0469 389.7031,26.7969 Q390.0938,26.6406 390.5156,26.2031 Q390.7813,25.9375 390.9219,25.8594 Q391.0781,25.7813 391.2813,25.7813 Q391.6094,25.7813 391.8594,26.0469 Q392.125,26.2969 392.125,26.6406 Q392.125,26.9844 391.7813,27.3906 Q391.2813,27.9688 390.4844,28.2969 Q389.4063,28.75 388.1094,28.75 Q386.5938,28.75 385.3906,28.125 Q384.4063,27.625 383.7188,26.5625 Q383.0313,25.4844 383.0313,24.2031 L383.0313,23.0469 Q383.0313,21.7188 383.6406,20.5781 Q384.2656,19.4219 385.3594,18.8125 Q386.4531,18.1875 387.6875,18.1875 Q388.4219,18.1875 389.0625,18.3594 Q389.7188,18.5156 390.2656,18.875 Z " fill="#000000"/><text fill="#000000" font-family="sans-serif" font-size="12" lengthAdjust="spacing" textLength="112" x="401.5" y="27.9102">VaccinationCenterUI</text><line style="stroke:#A80036;stroke-width:1.5;" x1="373.5" x2="515.5" y1="39" y2="39"/><line style="stroke:#A80036;stroke-width:1.5;" x1="373.5" x2="515.5" y1="47" y2="47"/><!--MD5=[2bb26c741d8a8989873ebb0fda8a5667]
link VaccinationCenterUI to VaccinationCenterController--><path codeLine="62" d="M444.5,55.18 C444.5,70.59 444.5,91.42 444.5,110.45 " fill="none" id="VaccinationCenterUI-to-VaccinationCenterController" style="stroke:#A80036;stroke-width:1.0;stroke-dasharray:7.0,7.0;"/><polygon fill="#A80036" points="444.5,115.76,448.5,106.76,444.5,110.76,440.5,106.76,444.5,115.76" style="stroke:#A80036;stroke-width:1.0;"/><!--MD5=[f1b0b71cb0e083e22e413376c9309a8e]
link VaccinationCenterController to Company--><path codeLine="63" d="M444.5,206.14 C444.5,223.46 444.5,243.53 444.5,261.83 " fill="none" id="VaccinationCenterController-to-Company" style="stroke:#A80036;stroke-width:1.0;stroke-dasharray:7.0,7.0;"/><polygon fill="#A80036" points="444.5,266.94,448.5,257.94,444.5,261.94,440.5,257.94,444.5,266.94" style="stroke:#A80036;stroke-width:1.0;"/><!--MD5=[eebe9b198877275d05dd12630ed9e401]
link Company to VaccinationCenter--><path codeLine="64" d="M464.56,370.21 C485.65,419.31 522.33,494.04 569.5,548 C592.91,574.78 620.87,599.98 649.48,622.64 " fill="none" id="Company-to-VaccinationCenter" style="stroke:#A80036;stroke-width:1.0;"/><polygon fill="#A80036" points="653.7,625.96,649.093,617.2551,649.7679,622.8715,644.1515,623.5464,653.7,625.96" style="stroke:#A80036;stroke-width:1.0;"/><polygon fill="#000000" points="571.5452,485.6423,574.5196,494.6757,579.2613,491.2022,571.5452,485.6423" style="stroke:#000000;stroke-width:1.0;"/><text fill="#000000" font-family="sans-serif" font-size="13" lengthAdjust="spacing" textLength="60" x="583.5" y="494.9951">belongs to</text><text fill="#000000" font-family="sans-serif" font-size="13" lengthAdjust="spacing" textLength="7" x="459.7853" y="391.7292">1</text><text fill="#000000" font-family="sans-serif" font-size="13" lengthAdjust="spacing" textLength="5" x="636.3405" y="615.0186">*</text><!--MD5=[bc0d5b4bfe6e1bf0a8fced13bc4bdd47]
link Company to VaccinationCenterStore--><path codeLine="65" d="M522.58,357.64 C565.45,378.57 619.57,405.01 667.93,428.63 " fill="none" id="Company-to-VaccinationCenterStore" style="stroke:#A80036;stroke-width:1.0;stroke-dasharray:7.0,7.0;"/><polygon fill="#A80036" points="672.6,430.91,666.252,423.3798,668.1025,428.7255,662.7568,430.5759,672.6,430.91" style="stroke:#A80036;stroke-width:1.0;"/><!--MD5=[ce859576cba61219b3cb4d2d23fdcd81]
link Company to EmployeeStore--><path codeLine="66" d="M397.39,370.21 C372.02,397.52 341.4,430.48 318.93,454.67 " fill="none" id="Company-to-EmployeeStore" style="stroke:#A80036;stroke-width:1.0;stroke-dasharray:7.0,7.0;"/><polygon fill="#A80036" points="315.4,458.47,324.4656,454.621,318.8121,454.8152,318.6179,449.1617,315.4,458.47" style="stroke:#A80036;stroke-width:1.0;"/><!--MD5=[2f3bac1bdf76f0b867b8cadb6fadb6bc]
link EmployeeStore to Employee--><path codeLine="67" d="M276.66,520.6 C265.16,552.5 246.5,604.3 230.53,648.63 " fill="none" id="EmployeeStore-to-Employee" style="stroke:#A80036;stroke-width:1.0;"/><polygon fill="#A80036" points="228.8,653.45,235.6227,646.3472,230.5007,648.7481,228.0997,643.6261,228.8,653.45" style="stroke:#A80036;stroke-width:1.0;"/><polygon fill="#000000" points="257.8051,591.8798,263.6361,584.3664,258.1063,582.374,257.8051,591.8798" style="stroke:#000000;stroke-width:1.0;"/><text fill="#000000" font-family="sans-serif" font-size="13" lengthAdjust="spacing" textLength="36" x="268.5" y="592.4951">stores</text><text fill="#000000" font-family="sans-serif" font-size="13" lengthAdjust="spacing" textLength="7" x="266.8368" y="541.8437">1</text><text fill="#000000" font-family="sans-serif" font-size="13" lengthAdjust="spacing" textLength="5" x="226.2591" y="642.6322">*</text><!--MD5=[09366576ee87d48d594df10cacc83f45]
link Company to Employee--><path codeLine="68" d="M436.5,370.38 C427.32,418.6 409.14,491.81 376.5,548 C355.06,584.92 324.75,620.16 295.31,649.75 " fill="none" id="Company-to-Employee" style="stroke:#A80036;stroke-width:1.0;"/><polygon fill="#A80036" points="291.72,653.33,300.9195,649.813,295.2627,649.8016,295.2741,644.1448,291.72,653.33" style="stroke:#A80036;stroke-width:1.0;"/><polygon fill="#000000" points="426.2447,494.1383,432.9475,487.3912,427.7016,484.7399,426.2447,494.1383" style="stroke:#000000;stroke-width:1.0;"/><text fill="#000000" font-family="sans-serif" font-size="13" lengthAdjust="spacing" textLength="37" x="437.5" y="494.9951">knows</text><text fill="#000000" font-family="sans-serif" font-size="13" lengthAdjust="spacing" textLength="7" x="427.9547" y="391.922">1</text><text fill="#000000" font-family="sans-serif" font-size="13" lengthAdjust="spacing" textLength="5" x="294.8989" y="642.7736">*</text><!--MD5=[623f444085ea3d7eec5cbc74a2b0faf8]
link VaccinationCenterController to VaccinationCenterStore--><path codeLine="69" d="M491.16,206.03 C551.57,263.03 657.16,362.67 725.42,427.09 " fill="none" id="VaccinationCenterController-to-VaccinationCenterStore" style="stroke:#A80036;stroke-width:1.0;stroke-dasharray:7.0,7.0;"/><polygon fill="#A80036" points="729.46,430.9,725.6477,421.8189,725.819,427.4732,720.1647,427.6445,729.46,430.9" style="stroke:#A80036;stroke-width:1.0;"/><!--MD5=[e0c1cbfab36129e287d00d39216079af]
link VaccinationCenterController to EmployeeStore--><path codeLine="70" d="M395.55,206.08 C378.57,223.59 360.74,244.84 348.5,267 C315.07,327.51 298.95,407.62 292.02,453.05 " fill="none" id="VaccinationCenterController-to-EmployeeStore" style="stroke:#A80036;stroke-width:1.0;stroke-dasharray:7.0,7.0;"/><polygon fill="#A80036" points="291.26,458.14,296.5532,449.8344,292.0031,453.1955,288.642,448.6455,291.26,458.14" style="stroke:#A80036;stroke-width:1.0;"/><!--MD5=[8c304936b446fd8cea914e03fbadd4b7]
link VaccinationCenterStore to VaccinationCenter--><path codeLine="71" d="M797.41,548.04 C800.03,569.88 803.12,595.57 806.14,620.7 " fill="none" id="VaccinationCenterStore-to-VaccinationCenter" style="stroke:#A80036;stroke-width:1.0;"/><polygon fill="#A80036" points="806.74,625.72,809.6328,616.3056,806.1409,620.756,801.6904,617.2641,806.74,625.72" style="stroke:#A80036;stroke-width:1.0;"/><polygon fill="#000000" points="807.0965,592.1401,808.9354,582.809,803.0995,583.5102,807.0965,592.1401" style="stroke:#000000;stroke-width:1.0;"/><text fill="#000000" font-family="sans-serif" font-size="13" lengthAdjust="spacing" textLength="36" x="815.5" y="592.4951">stores</text><text fill="#000000" font-family="sans-serif" font-size="13" lengthAdjust="spacing" textLength="7" x="790.8256" y="569.6552">1</text><text fill="#000000" font-family="sans-serif" font-size="13" lengthAdjust="spacing" textLength="5" x="800.667" y="615.1208">*</text><!--MD5=[4ccfab21caabb2efc21312d73f774720]
@startuml US09_CD
skinparam classAttributeIconSize 0

class VaccinationCenter {
  - name: String
  - address: String
  - emailAddress: String
  - phoneNumber: String
  - faxNumber: String
  - websiteAddress: String
  - openingHours: String
  - closingHours: String
  - slotDuration: int
  - maximumVaccinesPerSlot: int
  - coordinator: EMPLOYEE
  - - -
 +VaccinationCenter(name,address,emailAddress,phoneNumber,faxNumber,websiteAddress,openingHours,closingHours,slotDuration,maximumVaccinesPerSlot,coordinator)
}


class Company {
  -designation: String
  - - -
  +getDesignation()
  +getEmployeeStore()
  +getVaccinationCenterStore()
}

class VaccinationCenterStore {
- - -
+createVaccinationCenter(centerData,coordinator)
+validateVaccinatonCenter(center)
+saveVaccinationCenter(center)
+checkDuplicates(center)
-addVaccinationCenter(center)
}

class Employee {
  -id: String 
  -name: String 
  -email: String 
  -phone: String 
  -address: String 
  -citizenCardNumber: int 
  -roleId: String 
  - - -
  +Employee(name,email,phone,address,citizenCardNumber,roleId)
}

class EmployeeStore {
  +getEmployeesWithRole(id)
}

class VaccinationCenterController {
  - - -
  +getCoordinators()
  +createVaccinationCenter(name,address,emailAddress,phoneNumber,faxNumber,websiteAddress,openingHours,closingHours,slotDuration,maximumVaccinesPerSlot,coordinator)
  +saveVaccinationCenter(center)
}

class VaccinationCenterUI {}

VaccinationCenterUI ..> VaccinationCenterController
VaccinationCenterController ..> Company
Company "1" - -> "*" VaccinationCenter : belongs to <
Company ..> VaccinationCenterStore
Company ..> EmployeeStore
EmployeeStore "1" - -> "*" Employee : stores >
Company "1" - -> "*" Employee : knows >
VaccinationCenterController ..> VaccinationCenterStore
VaccinationCenterController ..> EmployeeStore
VaccinationCenterStore "1" - -> "*" VaccinationCenter : stores >

@enduml

PlantUML version 1.2022.0(Tue Jan 11 16:16:42 WET 2022)
(GPL source distribution)
Java Runtime: Java(TM) SE Runtime Environment
JVM: Java HotSpot(TM) 64-Bit Server VM
Default Encoding: Cp1252
Language: pt
Country: PT
--></g></svg>