<?xml version="1.0" encoding="UTF-8" standalone="no"?><svg xmlns="http://www.w3.org/2000/svg" xmlns:xlink="http://www.w3.org/1999/xlink" contentScriptType="application/ecmascript" contentStyleType="text/css" height="690px" preserveAspectRatio="none" style="width:1373px;height:690px;background:#FFFFFF;" version="1.1" viewBox="0 0 1373 690" width="1373px" zoomAndPan="magnify"><defs><filter height="300%" id="f1e25oillf84bn" width="300%" x="-1" y="-1"><feGaussianBlur result="blurOut" stdDeviation="2.0"/><feColorMatrix in="blurOut" result="blurOut2" type="matrix" values="0 0 0 0 0 0 0 0 0 0 0 0 0 0 0 0 0 0 .4 0"/><feOffset dx="4.0" dy="4.0" in="blurOut2" result="blurOut3"/><feBlend in="SourceGraphic" in2="blurOut3" mode="normal"/></filter></defs><g><!--MD5=[de60e6d4f424ae4d0522096f76a59010]
class VaccinationCenter--><rect codeLine="3" fill="#FEFECE" filter="url(#f1e25oillf84bn)" height="214.0313" id="VaccinationCenter" style="stroke:#A80036;stroke-width:1.5;" width="844" x="7" y="462"/><ellipse cx="374.75" cy="478" fill="#ADD1B2" rx="11" ry="11" style="stroke:#A80036;stroke-width:1.0;"/><path d="M377.5156,473.875 Q377.6719,473.6563 377.8594,473.5469 Q378.0469,473.4375 378.2656,473.4375 Q378.6406,473.4375 378.875,473.7031 Q379.1094,473.9531 379.1094,474.5625 L379.1094,476.0156 Q379.1094,476.625 378.875,476.8906 Q378.6406,477.1563 378.2656,477.1563 Q377.9219,477.1563 377.7188,476.9531 Q377.5156,476.7656 377.4063,476.25 Q377.3594,475.8906 377.1719,475.7031 Q376.8438,475.3281 376.2344,475.1094 Q375.625,474.8906 375,474.8906 Q374.2344,474.8906 373.5938,475.2188 Q372.9688,475.5469 372.4688,476.2969 Q371.9844,477.0469 371.9844,478.0781 L371.9844,479.1719 Q371.9844,480.4063 372.875,481.2344 Q373.7656,482.0469 375.3594,482.0469 Q376.2969,482.0469 376.9531,481.7969 Q377.3438,481.6406 377.7656,481.2031 Q378.0313,480.9375 378.1719,480.8594 Q378.3281,480.7813 378.5313,480.7813 Q378.8594,480.7813 379.1094,481.0469 Q379.375,481.2969 379.375,481.6406 Q379.375,481.9844 379.0313,482.3906 Q378.5313,482.9688 377.7344,483.2969 Q376.6563,483.75 375.3594,483.75 Q373.8438,483.75 372.6406,483.125 Q371.6563,482.625 370.9688,481.5625 Q370.2813,480.4844 370.2813,479.2031 L370.2813,478.0469 Q370.2813,476.7188 370.8906,475.5781 Q371.5156,474.4219 372.6094,473.8125 Q373.7031,473.1875 374.9375,473.1875 Q375.6719,473.1875 376.3125,473.3594 Q376.9688,473.5156 377.5156,473.875 Z " fill="#000000"/><text fill="#000000" font-family="sans-serif" font-size="12" lengthAdjust="spacing" textLength="100" x="395.25" y="482.9102">VaccinationCenter</text><line style="stroke:#A80036;stroke-width:1.5;" x1="8" x2="850" y1="494" y2="494"/><text fill="#000000" font-family="sans-serif" font-size="11" lengthAdjust="spacing" textLength="61" x="13" y="509.4189">-name String</text><text fill="#000000" font-family="sans-serif" font-size="11" lengthAdjust="spacing" textLength="75" x="13" y="523.2549">-address String</text><text fill="#000000" font-family="sans-serif" font-size="11" lengthAdjust="spacing" textLength="101" x="13" y="537.0908">-emailAddress String</text><text fill="#000000" font-family="sans-serif" font-size="11" lengthAdjust="spacing" textLength="85" x="13" y="550.9268">-phoneNumber int</text><text fill="#000000" font-family="sans-serif" font-size="11" lengthAdjust="spacing" textLength="71" x="13" y="564.7627">-faxNumber int</text><text fill="#000000" font-family="sans-serif" font-size="11" lengthAdjust="spacing" textLength="116" x="13" y="578.5986">-websiteAddress String</text><text fill="#000000" font-family="sans-serif" font-size="11" lengthAdjust="spacing" textLength="102" x="13" y="592.4346">-openingHours String</text><text fill="#000000" font-family="sans-serif" font-size="11" lengthAdjust="spacing" textLength="98" x="13" y="606.2705">-closingHours String</text><text fill="#000000" font-family="sans-serif" font-size="11" lengthAdjust="spacing" textLength="75" x="13" y="620.1064">-slotDuration int</text><text fill="#000000" font-family="sans-serif" font-size="11" lengthAdjust="spacing" textLength="142" x="13" y="633.9424">-maximumVaccinesPerSlot int</text><text fill="#000000" font-family="sans-serif" font-size="11" lengthAdjust="spacing" textLength="116" x="13" y="647.7783">-coordinator EMPLOYEE</text><line style="stroke:#A80036;stroke-width:1.0;" x1="8" x2="850" y1="654.1953" y2="654.1953"/><text fill="#000000" font-family="sans-serif" font-size="11" lengthAdjust="spacing" textLength="832" x="13" y="669.6143">+VaccinationCenter(name,address,emailAddress,phoneNumber,faxNumber,websiteAddress,openingHours,closingHours,slotDuration,maximumVaccinesPerSlot,coordinator)</text><!--MD5=[02e4b9b7573f1156f41e60aa5b4e25a4]
class Company--><rect codeLine="20" fill="#FEFECE" filter="url(#f1e25oillf84bn)" height="131.0156" id="Company" style="stroke:#A80036;stroke-width:1.5;" width="817" x="542.5" y="253"/><ellipse cx="920.25" cy="269" fill="#ADD1B2" rx="11" ry="11" style="stroke:#A80036;stroke-width:1.0;"/><path d="M923.0156,264.875 Q923.1719,264.6563 923.3594,264.5469 Q923.5469,264.4375 923.7656,264.4375 Q924.1406,264.4375 924.375,264.7031 Q924.6094,264.9531 924.6094,265.5625 L924.6094,267.0156 Q924.6094,267.625 924.375,267.8906 Q924.1406,268.1563 923.7656,268.1563 Q923.4219,268.1563 923.2188,267.9531 Q923.0156,267.7656 922.9063,267.25 Q922.8594,266.8906 922.6719,266.7031 Q922.3438,266.3281 921.7344,266.1094 Q921.125,265.8906 920.5,265.8906 Q919.7344,265.8906 919.0938,266.2188 Q918.4688,266.5469 917.9688,267.2969 Q917.4844,268.0469 917.4844,269.0781 L917.4844,270.1719 Q917.4844,271.4063 918.375,272.2344 Q919.2656,273.0469 920.8594,273.0469 Q921.7969,273.0469 922.4531,272.7969 Q922.8438,272.6406 923.2656,272.2031 Q923.5313,271.9375 923.6719,271.8594 Q923.8281,271.7813 924.0313,271.7813 Q924.3594,271.7813 924.6094,272.0469 Q924.875,272.2969 924.875,272.6406 Q924.875,272.9844 924.5313,273.3906 Q924.0313,273.9688 923.2344,274.2969 Q922.1563,274.75 920.8594,274.75 Q919.3438,274.75 918.1406,274.125 Q917.1563,273.625 916.4688,272.5625 Q915.7813,271.4844 915.7813,270.2031 L915.7813,269.0469 Q915.7813,267.7188 916.3906,266.5781 Q917.0156,265.4219 918.1094,264.8125 Q919.2031,264.1875 920.4375,264.1875 Q921.1719,264.1875 921.8125,264.3594 Q922.4688,264.5156 923.0156,264.875 Z " fill="#000000"/><text fill="#000000" font-family="sans-serif" font-size="12" lengthAdjust="spacing" textLength="53" x="940.75" y="273.9102">Company</text><line style="stroke:#A80036;stroke-width:1.5;" x1="543.5" x2="1358.5" y1="285" y2="285"/><text fill="#000000" font-family="sans-serif" font-size="11" lengthAdjust="spacing" textLength="90" x="548.5" y="300.4189">-designation String</text><line style="stroke:#A80036;stroke-width:1.0;" x1="543.5" x2="1358.5" y1="306.8359" y2="306.8359"/><text fill="#000000" font-family="sans-serif" font-size="11" lengthAdjust="spacing" textLength="85" x="548.5" y="322.2549">+getDesignation()</text><text fill="#000000" font-family="sans-serif" font-size="11" lengthAdjust="spacing" textLength="805" x="548.5" y="336.0908">+createVaccinationCenter(name,address,emailAddress,phoneNumber,faxNumber,websiteAddress,openingHours,closingHours,slotDuration,maximumVaccinesPerSlot)</text><text fill="#000000" font-family="sans-serif" font-size="11" lengthAdjust="spacing" textLength="169" x="548.5" y="349.9268">+validateVaccinatonCenter(center)</text><text fill="#000000" font-family="sans-serif" font-size="11" lengthAdjust="spacing" textLength="158" x="548.5" y="363.7627">+saveVaccinationCenter(center)</text><text fill="#000000" font-family="sans-serif" font-size="11" lengthAdjust="spacing" textLength="117" x="548.5" y="377.5986">+getEmployeeByRoleId()</text><!--MD5=[a29876ea2f21a6ca48ea477740122fd8]
class VaccinationCenterStore--><rect codeLine="30" fill="#FEFECE" filter="url(#f1e25oillf84bn)" height="89.5078" id="VaccinationCenterStore" style="stroke:#A80036;stroke-width:1.5;" width="170" x="886" y="524"/><ellipse cx="905.05" cy="540" fill="#ADD1B2" rx="11" ry="11" style="stroke:#A80036;stroke-width:1.0;"/><path d="M907.8156,535.875 Q907.9719,535.6563 908.1594,535.5469 Q908.3469,535.4375 908.5656,535.4375 Q908.9406,535.4375 909.175,535.7031 Q909.4094,535.9531 909.4094,536.5625 L909.4094,538.0156 Q909.4094,538.625 909.175,538.8906 Q908.9406,539.1563 908.5656,539.1563 Q908.2219,539.1563 908.0188,538.9531 Q907.8156,538.7656 907.7063,538.25 Q907.6594,537.8906 907.4719,537.7031 Q907.1438,537.3281 906.5344,537.1094 Q905.925,536.8906 905.3,536.8906 Q904.5344,536.8906 903.8938,537.2188 Q903.2688,537.5469 902.7688,538.2969 Q902.2844,539.0469 902.2844,540.0781 L902.2844,541.1719 Q902.2844,542.4063 903.175,543.2344 Q904.0656,544.0469 905.6594,544.0469 Q906.5969,544.0469 907.2531,543.7969 Q907.6438,543.6406 908.0656,543.2031 Q908.3313,542.9375 908.4719,542.8594 Q908.6281,542.7813 908.8313,542.7813 Q909.1594,542.7813 909.4094,543.0469 Q909.675,543.2969 909.675,543.6406 Q909.675,543.9844 909.3313,544.3906 Q908.8313,544.9688 908.0344,545.2969 Q906.9563,545.75 905.6594,545.75 Q904.1438,545.75 902.9406,545.125 Q901.9563,544.625 901.2688,543.5625 Q900.5813,542.4844 900.5813,541.2031 L900.5813,540.0469 Q900.5813,538.7188 901.1906,537.5781 Q901.8156,536.4219 902.9094,535.8125 Q904.0031,535.1875 905.2375,535.1875 Q905.9719,535.1875 906.6125,535.3594 Q907.2688,535.5156 907.8156,535.875 Z " fill="#000000"/><text fill="#000000" font-family="sans-serif" font-size="12" lengthAdjust="spacing" textLength="129" x="919.95" y="544.9102">VaccinationCenterStore</text><line style="stroke:#A80036;stroke-width:1.5;" x1="887" x2="1055" y1="556" y2="556"/><line style="stroke:#A80036;stroke-width:1.0;" x1="887" x2="1055" y1="564" y2="564"/><text fill="#000000" font-family="sans-serif" font-size="11" lengthAdjust="spacing" textLength="138" x="892" y="579.4189">+validateVaccinatonCenter()</text><text fill="#000000" font-family="sans-serif" font-size="11" lengthAdjust="spacing" textLength="158" x="892" y="593.2549">+saveVaccinationCenter(center)</text><text fill="#000000" font-family="sans-serif" font-size="11" lengthAdjust="spacing" textLength="150" x="892" y="607.0908">-addVaccinationCenter(center)</text><!--MD5=[829fb52c07ade3ad64ef85b99d1fca10]
class EmployeeStore--><rect codeLine="37" fill="#FEFECE" filter="url(#f1e25oillf84bn)" height="61.8359" id="EmployeeStore" style="stroke:#A80036;stroke-width:1.5;" width="129" x="1091.5" y="538"/><ellipse cx="1112.35" cy="554" fill="#ADD1B2" rx="11" ry="11" style="stroke:#A80036;stroke-width:1.0;"/><path d="M1115.1156,549.875 Q1115.2719,549.6563 1115.4594,549.5469 Q1115.6469,549.4375 1115.8656,549.4375 Q1116.2406,549.4375 1116.475,549.7031 Q1116.7094,549.9531 1116.7094,550.5625 L1116.7094,552.0156 Q1116.7094,552.625 1116.475,552.8906 Q1116.2406,553.1563 1115.8656,553.1563 Q1115.5219,553.1563 1115.3188,552.9531 Q1115.1156,552.7656 1115.0063,552.25 Q1114.9594,551.8906 1114.7719,551.7031 Q1114.4438,551.3281 1113.8344,551.1094 Q1113.225,550.8906 1112.6,550.8906 Q1111.8344,550.8906 1111.1938,551.2188 Q1110.5688,551.5469 1110.0688,552.2969 Q1109.5844,553.0469 1109.5844,554.0781 L1109.5844,555.1719 Q1109.5844,556.4063 1110.475,557.2344 Q1111.3656,558.0469 1112.9594,558.0469 Q1113.8969,558.0469 1114.5531,557.7969 Q1114.9438,557.6406 1115.3656,557.2031 Q1115.6313,556.9375 1115.7719,556.8594 Q1115.9281,556.7813 1116.1313,556.7813 Q1116.4594,556.7813 1116.7094,557.0469 Q1116.975,557.2969 1116.975,557.6406 Q1116.975,557.9844 1116.6313,558.3906 Q1116.1313,558.9688 1115.3344,559.2969 Q1114.2563,559.75 1112.9594,559.75 Q1111.4438,559.75 1110.2406,559.125 Q1109.2563,558.625 1108.5688,557.5625 Q1107.8813,556.4844 1107.8813,555.2031 L1107.8813,554.0469 Q1107.8813,552.7188 1108.4906,551.5781 Q1109.1156,550.4219 1110.2094,549.8125 Q1111.3031,549.1875 1112.5375,549.1875 Q1113.2719,549.1875 1113.9125,549.3594 Q1114.5688,549.5156 1115.1156,549.875 Z " fill="#000000"/><text fill="#000000" font-family="sans-serif" font-size="12" lengthAdjust="spacing" textLength="84" x="1127.65" y="558.9102">EmployeeStore</text><line style="stroke:#A80036;stroke-width:1.5;" x1="1092.5" x2="1219.5" y1="570" y2="570"/><line style="stroke:#A80036;stroke-width:1.5;" x1="1092.5" x2="1219.5" y1="578" y2="578"/><text fill="#000000" font-family="sans-serif" font-size="11" lengthAdjust="spacing" textLength="117" x="1097.5" y="593.4189">+getEmployeeByRoleId()</text><!--MD5=[30f5d80da7eaef66e26152e87f16c093]
class VaccinationCenterController--><rect codeLine="41" fill="#FEFECE" filter="url(#f1e25oillf84bn)" height="75.6719" id="VaccinationCenterController" style="stroke:#A80036;stroke-width:1.5;" width="817" x="60.5" y="116"/><ellipse cx="387.75" cy="132" fill="#ADD1B2" rx="11" ry="11" style="stroke:#A80036;stroke-width:1.0;"/><path d="M390.5156,127.875 Q390.6719,127.6563 390.8594,127.5469 Q391.0469,127.4375 391.2656,127.4375 Q391.6406,127.4375 391.875,127.7031 Q392.1094,127.9531 392.1094,128.5625 L392.1094,130.0156 Q392.1094,130.625 391.875,130.8906 Q391.6406,131.1563 391.2656,131.1563 Q390.9219,131.1563 390.7188,130.9531 Q390.5156,130.7656 390.4063,130.25 Q390.3594,129.8906 390.1719,129.7031 Q389.8438,129.3281 389.2344,129.1094 Q388.625,128.8906 388,128.8906 Q387.2344,128.8906 386.5938,129.2188 Q385.9688,129.5469 385.4688,130.2969 Q384.9844,131.0469 384.9844,132.0781 L384.9844,133.1719 Q384.9844,134.4063 385.875,135.2344 Q386.7656,136.0469 388.3594,136.0469 Q389.2969,136.0469 389.9531,135.7969 Q390.3438,135.6406 390.7656,135.2031 Q391.0313,134.9375 391.1719,134.8594 Q391.3281,134.7813 391.5313,134.7813 Q391.8594,134.7813 392.1094,135.0469 Q392.375,135.2969 392.375,135.6406 Q392.375,135.9844 392.0313,136.3906 Q391.5313,136.9688 390.7344,137.2969 Q389.6563,137.75 388.3594,137.75 Q386.8438,137.75 385.6406,137.125 Q384.6563,136.625 383.9688,135.5625 Q383.2813,134.4844 383.2813,133.2031 L383.2813,132.0469 Q383.2813,130.7188 383.8906,129.5781 Q384.5156,128.4219 385.6094,127.8125 Q386.7031,127.1875 387.9375,127.1875 Q388.6719,127.1875 389.3125,127.3594 Q389.9688,127.5156 390.5156,127.875 Z " fill="#000000"/><text fill="#000000" font-family="sans-serif" font-size="12" lengthAdjust="spacing" textLength="154" x="408.25" y="136.9102">VaccinationCenterController</text><line style="stroke:#A80036;stroke-width:1.5;" x1="61.5" x2="876.5" y1="148" y2="148"/><line style="stroke:#A80036;stroke-width:1.0;" x1="61.5" x2="876.5" y1="156" y2="156"/><text fill="#000000" font-family="sans-serif" font-size="11" lengthAdjust="spacing" textLength="805" x="66.5" y="171.4189">+createVaccinationCenter(name,address,emailAddress,phoneNumber,faxNumber,websiteAddress,openingHours,closingHours,slotDuration,maximumVaccinesPerSlot)</text><text fill="#000000" font-family="sans-serif" font-size="11" lengthAdjust="spacing" textLength="158" x="66.5" y="185.2549">+saveVaccinationCenter(center)</text><!--MD5=[0949c93bb2ceac2c9377da7237d80f71]
class VaccinationCenterUI--><rect codeLine="47" fill="#FEFECE" filter="url(#f1e25oillf84bn)" height="48" id="VaccinationCenterUI" style="stroke:#A80036;stroke-width:1.5;" width="144" x="397" y="7"/><ellipse cx="412" cy="23" fill="#ADD1B2" rx="11" ry="11" style="stroke:#A80036;stroke-width:1.0;"/><path d="M414.7656,18.875 Q414.9219,18.6563 415.1094,18.5469 Q415.2969,18.4375 415.5156,18.4375 Q415.8906,18.4375 416.125,18.7031 Q416.3594,18.9531 416.3594,19.5625 L416.3594,21.0156 Q416.3594,21.625 416.125,21.8906 Q415.8906,22.1563 415.5156,22.1563 Q415.1719,22.1563 414.9688,21.9531 Q414.7656,21.7656 414.6563,21.25 Q414.6094,20.8906 414.4219,20.7031 Q414.0938,20.3281 413.4844,20.1094 Q412.875,19.8906 412.25,19.8906 Q411.4844,19.8906 410.8438,20.2188 Q410.2188,20.5469 409.7188,21.2969 Q409.2344,22.0469 409.2344,23.0781 L409.2344,24.1719 Q409.2344,25.4063 410.125,26.2344 Q411.0156,27.0469 412.6094,27.0469 Q413.5469,27.0469 414.2031,26.7969 Q414.5938,26.6406 415.0156,26.2031 Q415.2813,25.9375 415.4219,25.8594 Q415.5781,25.7813 415.7813,25.7813 Q416.1094,25.7813 416.3594,26.0469 Q416.625,26.2969 416.625,26.6406 Q416.625,26.9844 416.2813,27.3906 Q415.7813,27.9688 414.9844,28.2969 Q413.9063,28.75 412.6094,28.75 Q411.0938,28.75 409.8906,28.125 Q408.9063,27.625 408.2188,26.5625 Q407.5313,25.4844 407.5313,24.2031 L407.5313,23.0469 Q407.5313,21.7188 408.1406,20.5781 Q408.7656,19.4219 409.8594,18.8125 Q410.9531,18.1875 412.1875,18.1875 Q412.9219,18.1875 413.5625,18.3594 Q414.2188,18.5156 414.7656,18.875 Z " fill="#000000"/><text fill="#000000" font-family="sans-serif" font-size="12" lengthAdjust="spacing" textLength="112" x="426" y="27.9102">VaccinationCenterUI</text><line style="stroke:#A80036;stroke-width:1.5;" x1="398" x2="540" y1="39" y2="39"/><line style="stroke:#A80036;stroke-width:1.5;" x1="398" x2="540" y1="47" y2="47"/><!--MD5=[2bb26c741d8a8989873ebb0fda8a5667]
link VaccinationCenterUI to VaccinationCenterController--><path codeLine="49" d="M469,55.04 C469,70.71 469,91.91 469,110.58 " fill="none" id="VaccinationCenterUI-to-VaccinationCenterController" style="stroke:#A80036;stroke-width:1.0;stroke-dasharray:7.0,7.0;"/><polygon fill="#A80036" points="469,115.77,473,106.77,469,110.77,465,106.77,469,115.77" style="stroke:#A80036;stroke-width:1.0;"/><!--MD5=[f1b0b71cb0e083e22e413376c9309a8e]
link VaccinationCenterController to Company--><path codeLine="50" d="M578.98,192.08 C631,209.62 694.73,231.1 754.64,251.3 " fill="none" id="VaccinationCenterController-to-Company" style="stroke:#A80036;stroke-width:1.0;stroke-dasharray:7.0,7.0;"/><polygon fill="#A80036" points="759.68,253,752.4308,246.333,754.9423,251.4017,749.8736,253.9133,759.68,253" style="stroke:#A80036;stroke-width:1.0;"/><!--MD5=[eebe9b198877275d05dd12630ed9e401]
link Company to VaccinationCenter--><path codeLine="51" d="M815.21,384.14 C766.66,407.26 710.53,433.98 656.36,459.76 " fill="none" id="Company-to-VaccinationCenter" style="stroke:#A80036;stroke-width:1.0;"/><polygon fill="#A80036" points="651.8,461.94,661.6451,461.6687,656.3114,459.7842,658.1959,454.4505,651.8,461.94" style="stroke:#A80036;stroke-width:1.0;"/><polygon fill="#000000" points="761.5146,421.0266,752.0844,422.2609,754.6109,427.5681,761.5146,421.0266" style="stroke:#000000;stroke-width:1.0;"/><text fill="#000000" font-family="sans-serif" font-size="13" lengthAdjust="spacing" textLength="60" x="766" y="428.4951">belongs to</text><text fill="#000000" font-family="sans-serif" font-size="13" lengthAdjust="spacing" textLength="7" x="792.9752" y="405.7079">1</text><text fill="#000000" font-family="sans-serif" font-size="13" lengthAdjust="spacing" textLength="5" x="662.9783" y="450.9972">*</text><!--MD5=[8eeecba333e79c9a3f008f77e540b32f]
link VaccinationCenterController to VaccinationCenter--><path codeLine="52" d="M465.42,192.01 C459.71,250.93 448.33,368.37 439.81,456.4 " fill="none" id="VaccinationCenterController-to-VaccinationCenter" style="stroke:#A80036;stroke-width:1.0;stroke-dasharray:7.0,7.0;"/><polygon fill="#A80036" points="439.3,461.62,444.1538,453.0503,439.7848,456.6436,436.1915,452.2746,439.3,461.62" style="stroke:#A80036;stroke-width:1.0;"/><!--MD5=[bc0d5b4bfe6e1bf0a8fced13bc4bdd47]
link Company to VaccinationCenterStore--><path codeLine="53" d="M956.2,384.14 C959.58,426.12 963.92,479.99 967.02,518.55 " fill="none" id="Company-to-VaccinationCenterStore" style="stroke:#A80036;stroke-width:1.0;stroke-dasharray:7.0,7.0;"/><polygon fill="#A80036" points="967.43,523.65,970.6953,514.3582,967.029,518.6661,962.7211,514.9998,967.43,523.65" style="stroke:#A80036;stroke-width:1.0;"/><!--MD5=[ce859576cba61219b3cb4d2d23fdcd81]
link Company to EmployeeStore--><path codeLine="54" d="M1008.08,384.14 C1029.09,408.33 1052.9,436.19 1074,462 C1093.33,485.64 1114.39,512.91 1130.33,533.86 " fill="none" id="Company-to-EmployeeStore" style="stroke:#A80036;stroke-width:1.0;stroke-dasharray:7.0,7.0;"/><polygon fill="#A80036" points="1133.45,537.97,1131.2116,528.3789,1130.434,533.982,1124.8309,533.2045,1133.45,537.97" style="stroke:#A80036;stroke-width:1.0;"/><!--MD5=[133c0d2384ac88c1b836d24b3d659aed]
@startuml US09_CD
skinparam classAttributeIconSize 0

class VaccinationCenter {
  - name String
  - address String
  - emailAddress String
  - phoneNumber int
  - faxNumber int
  - websiteAddress String
  - openingHours String
  - closingHours String
  - slotDuration int
  - maximumVaccinesPerSlot int
  - coordinator EMPLOYEE
  - - -
 +VaccinationCenter(name,address,emailAddress,phoneNumber,faxNumber,websiteAddress,openingHours,closingHours,slotDuration,maximumVaccinesPerSlot,coordinator)
}


class Company {
  -designation String
  - - -
  +getDesignation()
  +createVaccinationCenter(name,address,emailAddress,phoneNumber,faxNumber,websiteAddress,openingHours,closingHours,slotDuration,maximumVaccinesPerSlot)
  +validateVaccinatonCenter(center)
  +saveVaccinationCenter(center)
  +getEmployeeByRoleId()
}

class VaccinationCenterStore {
- - -
+validateVaccinatonCenter()
+saveVaccinationCenter(center)
-addVaccinationCenter(center)
}

class EmployeeStore {
+getEmployeeByRoleId()
}

class VaccinationCenterController {
  - - -
  +createVaccinationCenter(name,address,emailAddress,phoneNumber,faxNumber,websiteAddress,openingHours,closingHours,slotDuration,maximumVaccinesPerSlot)
  +saveVaccinationCenter(center)
}

class VaccinationCenterUI {}

VaccinationCenterUI ..> VaccinationCenterController
VaccinationCenterController ..> Company
Company "1" - -> "*" VaccinationCenter : belongs to <
VaccinationCenterController ..> VaccinationCenter
Company ..> VaccinationCenterStore
Company ..> EmployeeStore

@enduml

PlantUML version 1.2022.0(Tue Jan 11 16:16:42 WET 2022)
(GPL source distribution)
Java Runtime: Java(TM) SE Runtime Environment
JVM: Java HotSpot(TM) 64-Bit Server VM
Default Encoding: Cp1252
Language: pt
Country: PT
--></g></svg>