<?xml version="1.0" encoding="UTF-8" standalone="no"?><svg xmlns="http://www.w3.org/2000/svg" xmlns:xlink="http://www.w3.org/1999/xlink" contentScriptType="application/ecmascript" contentStyleType="text/css" height="482px" preserveAspectRatio="none" style="width:745px;height:482px;background:#FFFFFF;" version="1.1" viewBox="0 0 745 482" width="745px" zoomAndPan="magnify"><defs><filter height="300%" id="fy8nzfxc13yvq" width="300%" x="-1" y="-1"><feGaussianBlur result="blurOut" stdDeviation="2.0"/><feColorMatrix in="blurOut" result="blurOut2" type="matrix" values="0 0 0 0 0 0 0 0 0 0 0 0 0 0 0 0 0 0 .4 0"/><feOffset dx="4.0" dy="4.0" in="blurOut2" result="blurOut3"/><feBlend in="SourceGraphic" in2="blurOut3" mode="normal"/></filter></defs><g><!--MD5=[de60e6d4f424ae4d0522096f76a59010]
class VaccinationCenter--><rect codeLine="3" fill="#FEFECE" filter="url(#fy8nzfxc13yvq)" height="61.8359" id="VaccinationCenter" style="stroke:#A80036;stroke-width:1.5;" width="724" x="7" y="407"/><ellipse cx="314.75" cy="423" fill="#ADD1B2" rx="11" ry="11" style="stroke:#A80036;stroke-width:1.0;"/><path d="M317.5156,418.875 Q317.6719,418.6563 317.8594,418.5469 Q318.0469,418.4375 318.2656,418.4375 Q318.6406,418.4375 318.875,418.7031 Q319.1094,418.9531 319.1094,419.5625 L319.1094,421.0156 Q319.1094,421.625 318.875,421.8906 Q318.6406,422.1563 318.2656,422.1563 Q317.9219,422.1563 317.7188,421.9531 Q317.5156,421.7656 317.4063,421.25 Q317.3594,420.8906 317.1719,420.7031 Q316.8438,420.3281 316.2344,420.1094 Q315.625,419.8906 315,419.8906 Q314.2344,419.8906 313.5938,420.2188 Q312.9688,420.5469 312.4688,421.2969 Q311.9844,422.0469 311.9844,423.0781 L311.9844,424.1719 Q311.9844,425.4063 312.875,426.2344 Q313.7656,427.0469 315.3594,427.0469 Q316.2969,427.0469 316.9531,426.7969 Q317.3438,426.6406 317.7656,426.2031 Q318.0313,425.9375 318.1719,425.8594 Q318.3281,425.7813 318.5313,425.7813 Q318.8594,425.7813 319.1094,426.0469 Q319.375,426.2969 319.375,426.6406 Q319.375,426.9844 319.0313,427.3906 Q318.5313,427.9688 317.7344,428.2969 Q316.6563,428.75 315.3594,428.75 Q313.8438,428.75 312.6406,428.125 Q311.6563,427.625 310.9688,426.5625 Q310.2813,425.4844 310.2813,424.2031 L310.2813,423.0469 Q310.2813,421.7188 310.8906,420.5781 Q311.5156,419.4219 312.6094,418.8125 Q313.7031,418.1875 314.9375,418.1875 Q315.6719,418.1875 316.3125,418.3594 Q316.9688,418.5156 317.5156,418.875 Z " fill="#000000"/><text fill="#000000" font-family="sans-serif" font-size="12" lengthAdjust="spacing" textLength="100" x="335.25" y="427.9102">VaccinationCenter</text><line style="stroke:#A80036;stroke-width:1.5;" x1="8" x2="730" y1="439" y2="439"/><line style="stroke:#A80036;stroke-width:1.5;" x1="8" x2="730" y1="447" y2="447"/><text fill="#000000" font-family="sans-serif" font-size="11" lengthAdjust="spacing" textLength="712" x="13" y="462.4189">+VaccinationCenter(name,address,phone number,fax number,website address,opening and closing hours,slot duration,maximum vaccines per slot)</text><!--MD5=[02e4b9b7573f1156f41e60aa5b4e25a4]
class Company--><rect codeLine="8" fill="#FEFECE" filter="url(#fy8nzfxc13yvq)" height="75.6719" id="Company" style="stroke:#A80036;stroke-width:1.5;" width="228" x="393" y="253"/><ellipse cx="476.25" cy="269" fill="#ADD1B2" rx="11" ry="11" style="stroke:#A80036;stroke-width:1.0;"/><path d="M479.0156,264.875 Q479.1719,264.6563 479.3594,264.5469 Q479.5469,264.4375 479.7656,264.4375 Q480.1406,264.4375 480.375,264.7031 Q480.6094,264.9531 480.6094,265.5625 L480.6094,267.0156 Q480.6094,267.625 480.375,267.8906 Q480.1406,268.1563 479.7656,268.1563 Q479.4219,268.1563 479.2188,267.9531 Q479.0156,267.7656 478.9063,267.25 Q478.8594,266.8906 478.6719,266.7031 Q478.3438,266.3281 477.7344,266.1094 Q477.125,265.8906 476.5,265.8906 Q475.7344,265.8906 475.0938,266.2188 Q474.4688,266.5469 473.9688,267.2969 Q473.4844,268.0469 473.4844,269.0781 L473.4844,270.1719 Q473.4844,271.4063 474.375,272.2344 Q475.2656,273.0469 476.8594,273.0469 Q477.7969,273.0469 478.4531,272.7969 Q478.8438,272.6406 479.2656,272.2031 Q479.5313,271.9375 479.6719,271.8594 Q479.8281,271.7813 480.0313,271.7813 Q480.3594,271.7813 480.6094,272.0469 Q480.875,272.2969 480.875,272.6406 Q480.875,272.9844 480.5313,273.3906 Q480.0313,273.9688 479.2344,274.2969 Q478.1563,274.75 476.8594,274.75 Q475.3438,274.75 474.1406,274.125 Q473.1563,273.625 472.4688,272.5625 Q471.7813,271.4844 471.7813,270.2031 L471.7813,269.0469 Q471.7813,267.7188 472.3906,266.5781 Q473.0156,265.4219 474.1094,264.8125 Q475.2031,264.1875 476.4375,264.1875 Q477.1719,264.1875 477.8125,264.3594 Q478.4688,264.5156 479.0156,264.875 Z " fill="#000000"/><text fill="#000000" font-family="sans-serif" font-size="12" lengthAdjust="spacing" textLength="53" x="496.75" y="273.9102">Company</text><line style="stroke:#A80036;stroke-width:1.5;" x1="394" x2="620" y1="285" y2="285"/><text fill="#000000" font-family="sans-serif" font-size="11" lengthAdjust="spacing" textLength="90" x="399" y="300.4189">-String designation</text><line style="stroke:#A80036;stroke-width:1.0;" x1="394" x2="620" y1="306.8359" y2="306.8359"/><text fill="#000000" font-family="sans-serif" font-size="11" lengthAdjust="spacing" textLength="216" x="399" y="322.2549">+saveVaccinationCenter(VaccinationCenter)</text><!--MD5=[30f5d80da7eaef66e26152e87f16c093]
class VaccinationCenterController--><rect codeLine="14" fill="#FEFECE" filter="url(#fy8nzfxc13yvq)" height="75.6719" id="VaccinationCenterController" style="stroke:#A80036;stroke-width:1.5;" width="186" x="267" y="116"/><ellipse cx="282" cy="132" fill="#ADD1B2" rx="11" ry="11" style="stroke:#A80036;stroke-width:1.0;"/><path d="M284.7656,127.875 Q284.9219,127.6563 285.1094,127.5469 Q285.2969,127.4375 285.5156,127.4375 Q285.8906,127.4375 286.125,127.7031 Q286.3594,127.9531 286.3594,128.5625 L286.3594,130.0156 Q286.3594,130.625 286.125,130.8906 Q285.8906,131.1563 285.5156,131.1563 Q285.1719,131.1563 284.9688,130.9531 Q284.7656,130.7656 284.6563,130.25 Q284.6094,129.8906 284.4219,129.7031 Q284.0938,129.3281 283.4844,129.1094 Q282.875,128.8906 282.25,128.8906 Q281.4844,128.8906 280.8438,129.2188 Q280.2188,129.5469 279.7188,130.2969 Q279.2344,131.0469 279.2344,132.0781 L279.2344,133.1719 Q279.2344,134.4063 280.125,135.2344 Q281.0156,136.0469 282.6094,136.0469 Q283.5469,136.0469 284.2031,135.7969 Q284.5938,135.6406 285.0156,135.2031 Q285.2813,134.9375 285.4219,134.8594 Q285.5781,134.7813 285.7813,134.7813 Q286.1094,134.7813 286.3594,135.0469 Q286.625,135.2969 286.625,135.6406 Q286.625,135.9844 286.2813,136.3906 Q285.7813,136.9688 284.9844,137.2969 Q283.9063,137.75 282.6094,137.75 Q281.0938,137.75 279.8906,137.125 Q278.9063,136.625 278.2188,135.5625 Q277.5313,134.4844 277.5313,133.2031 L277.5313,132.0469 Q277.5313,130.7188 278.1406,129.5781 Q278.7656,128.4219 279.8594,127.8125 Q280.9531,127.1875 282.1875,127.1875 Q282.9219,127.1875 283.5625,127.3594 Q284.2188,127.5156 284.7656,127.875 Z " fill="#000000"/><text fill="#000000" font-family="sans-serif" font-size="12" lengthAdjust="spacing" textLength="154" x="296" y="136.9102">VaccinationCenterController</text><line style="stroke:#A80036;stroke-width:1.5;" x1="268" x2="452" y1="148" y2="148"/><line style="stroke:#A80036;stroke-width:1.0;" x1="268" x2="452" y1="156" y2="156"/><text fill="#000000" font-family="sans-serif" font-size="11" lengthAdjust="spacing" textLength="118" x="273" y="171.4189">+setVaccinationCenter()</text><text fill="#000000" font-family="sans-serif" font-size="11" lengthAdjust="spacing" textLength="127" x="273" y="185.2549">+saveVaccinationCenter()</text><!--MD5=[0949c93bb2ceac2c9377da7237d80f71]
class VaccinationCenterUI--><rect codeLine="20" fill="#FEFECE" filter="url(#fy8nzfxc13yvq)" height="48" id="VaccinationCenterUI" style="stroke:#A80036;stroke-width:1.5;" width="144" x="288" y="7"/><ellipse cx="303" cy="23" fill="#ADD1B2" rx="11" ry="11" style="stroke:#A80036;stroke-width:1.0;"/><path d="M305.7656,18.875 Q305.9219,18.6563 306.1094,18.5469 Q306.2969,18.4375 306.5156,18.4375 Q306.8906,18.4375 307.125,18.7031 Q307.3594,18.9531 307.3594,19.5625 L307.3594,21.0156 Q307.3594,21.625 307.125,21.8906 Q306.8906,22.1563 306.5156,22.1563 Q306.1719,22.1563 305.9688,21.9531 Q305.7656,21.7656 305.6563,21.25 Q305.6094,20.8906 305.4219,20.7031 Q305.0938,20.3281 304.4844,20.1094 Q303.875,19.8906 303.25,19.8906 Q302.4844,19.8906 301.8438,20.2188 Q301.2188,20.5469 300.7188,21.2969 Q300.2344,22.0469 300.2344,23.0781 L300.2344,24.1719 Q300.2344,25.4063 301.125,26.2344 Q302.0156,27.0469 303.6094,27.0469 Q304.5469,27.0469 305.2031,26.7969 Q305.5938,26.6406 306.0156,26.2031 Q306.2813,25.9375 306.4219,25.8594 Q306.5781,25.7813 306.7813,25.7813 Q307.1094,25.7813 307.3594,26.0469 Q307.625,26.2969 307.625,26.6406 Q307.625,26.9844 307.2813,27.3906 Q306.7813,27.9688 305.9844,28.2969 Q304.9063,28.75 303.6094,28.75 Q302.0938,28.75 300.8906,28.125 Q299.9063,27.625 299.2188,26.5625 Q298.5313,25.4844 298.5313,24.2031 L298.5313,23.0469 Q298.5313,21.7188 299.1406,20.5781 Q299.7656,19.4219 300.8594,18.8125 Q301.9531,18.1875 303.1875,18.1875 Q303.9219,18.1875 304.5625,18.3594 Q305.2188,18.5156 305.7656,18.875 Z " fill="#000000"/><text fill="#000000" font-family="sans-serif" font-size="12" lengthAdjust="spacing" textLength="112" x="317" y="27.9102">VaccinationCenterUI</text><line style="stroke:#A80036;stroke-width:1.5;" x1="289" x2="431" y1="39" y2="39"/><line style="stroke:#A80036;stroke-width:1.5;" x1="289" x2="431" y1="47" y2="47"/><!--MD5=[2bb26c741d8a8989873ebb0fda8a5667]
link VaccinationCenterUI to VaccinationCenterController--><path codeLine="22" d="M360,55.04 C360,70.71 360,91.91 360,110.58 " fill="none" id="VaccinationCenterUI-to-VaccinationCenterController" style="stroke:#A80036;stroke-width:1.0;stroke-dasharray:7.0,7.0;"/><polygon fill="#A80036" points="360,115.77,364,106.77,360,110.77,356,106.77,360,115.77" style="stroke:#A80036;stroke-width:1.0;"/><!--MD5=[f1b0b71cb0e083e22e413376c9309a8e]
link VaccinationCenterController to Company--><path codeLine="23" d="M400.56,192.25 C419.84,209.95 442.93,231.16 462.67,249.29 " fill="none" id="VaccinationCenterController-to-Company" style="stroke:#A80036;stroke-width:1.0;stroke-dasharray:7.0,7.0;"/><polygon fill="#A80036" points="466.57,252.87,462.648,243.8357,462.8878,249.4875,457.236,249.7273,466.57,252.87" style="stroke:#A80036;stroke-width:1.0;"/><!--MD5=[eebe9b198877275d05dd12630ed9e401]
link Company to VaccinationCenter--><path codeLine="24" d="M471.46,329.34 C449.87,352.03 422.51,380.77 401.5,402.85 " fill="none" id="Company-to-VaccinationCenter" style="stroke:#A80036;stroke-width:1.0;"/><polygon fill="#A80036" points="397.92,406.62,407.0238,402.8623,401.3686,402.9997,401.2313,397.3445,397.92,406.62" style="stroke:#A80036;stroke-width:1.0;"/><polygon fill="#000000" points="450.447,364.5539,442.0824,369.0799,446.3402,373.1321,450.447,364.5539" style="stroke:#000000;stroke-width:1.0;"/><text fill="#000000" font-family="sans-serif" font-size="13" lengthAdjust="spacing" textLength="60" x="456" y="373.4951">belongs to</text><text fill="#000000" font-family="sans-serif" font-size="13" lengthAdjust="spacing" textLength="7" x="458.238" y="350.2747">1</text><text fill="#000000" font-family="sans-serif" font-size="13" lengthAdjust="spacing" textLength="5" x="398.3691" y="396.0462">*</text><!--MD5=[8eeecba333e79c9a3f008f77e540b32f]
link VaccinationCenterController to VaccinationCenter--><path codeLine="25" d="M361.19,192.16 C362.93,246.78 366.16,348.06 367.87,401.64 " fill="none" id="VaccinationCenterController-to-VaccinationCenter" style="stroke:#A80036;stroke-width:1.0;stroke-dasharray:7.0,7.0;"/><polygon fill="#A80036" points="368.03,406.67,371.7453,397.5488,367.8729,401.6725,363.7493,397.8001,368.03,406.67" style="stroke:#A80036;stroke-width:1.0;"/><!--MD5=[b4bdac81814ee6279a643f5dd5694cee]
@startuml US09_CD
skinparam classAttributeIconSize 0

class VaccinationCenter {
 +VaccinationCenter(name,address,phone number,fax number,website address,opening and closing hours,slot duration,maximum vaccines per slot)
}


class Company {
  -String designation
  - - -
  +saveVaccinationCenter(VaccinationCenter)
}

class VaccinationCenterController {
  - - -
  +setVaccinationCenter()
  +saveVaccinationCenter()
}

class VaccinationCenterUI {}

VaccinationCenterUI ..> VaccinationCenterController
VaccinationCenterController ..> Company
Company "1" - -> "*" VaccinationCenter : belongs to <
VaccinationCenterController ..> VaccinationCenter

@enduml

PlantUML version 1.2022.0(Tue Jan 11 16:16:42 WET 2022)
(GPL source distribution)
Java Runtime: Java(TM) SE Runtime Environment
JVM: Java HotSpot(TM) 64-Bit Server VM
Default Encoding: Cp1252
Language: pt
Country: PT
--></g></svg>