<?xml version="1.0" encoding="UTF-8" standalone="no"?><svg xmlns="http://www.w3.org/2000/svg" xmlns:xlink="http://www.w3.org/1999/xlink" contentScriptType="application/ecmascript" contentStyleType="text/css" height="867px" preserveAspectRatio="none" style="width:1256px;height:867px;background:#FFFFFF;" version="1.1" viewBox="0 0 1256 867" width="1256px" zoomAndPan="magnify"><defs><filter height="300%" id="fyf23dy96pp56" width="300%" x="-1" y="-1"><feGaussianBlur result="blurOut" stdDeviation="2.0"/><feColorMatrix in="blurOut" result="blurOut2" type="matrix" values="0 0 0 0 0 0 0 0 0 0 0 0 0 0 0 0 0 0 .4 0"/><feOffset dx="4.0" dy="4.0" in="blurOut2" result="blurOut3"/><feBlend in="SourceGraphic" in2="blurOut3" mode="normal"/></filter></defs><g><!--MD5=[de60e6d4f424ae4d0522096f76a59010]
class VaccinationCenter--><rect codeLine="3" fill="#FEFECE" filter="url(#fyf23dy96pp56)" height="227.8672" id="VaccinationCenter" style="stroke:#A80036;stroke-width:1.5;" width="876" x="366" y="626"/><ellipse cx="749.75" cy="642" fill="#ADD1B2" rx="11" ry="11" style="stroke:#A80036;stroke-width:1.0;"/><path d="M752.5156,637.875 Q752.6719,637.6563 752.8594,637.5469 Q753.0469,637.4375 753.2656,637.4375 Q753.6406,637.4375 753.875,637.7031 Q754.1094,637.9531 754.1094,638.5625 L754.1094,640.0156 Q754.1094,640.625 753.875,640.8906 Q753.6406,641.1563 753.2656,641.1563 Q752.9219,641.1563 752.7188,640.9531 Q752.5156,640.7656 752.4063,640.25 Q752.3594,639.8906 752.1719,639.7031 Q751.8438,639.3281 751.2344,639.1094 Q750.625,638.8906 750,638.8906 Q749.2344,638.8906 748.5938,639.2188 Q747.9688,639.5469 747.4688,640.2969 Q746.9844,641.0469 746.9844,642.0781 L746.9844,643.1719 Q746.9844,644.4063 747.875,645.2344 Q748.7656,646.0469 750.3594,646.0469 Q751.2969,646.0469 751.9531,645.7969 Q752.3438,645.6406 752.7656,645.2031 Q753.0313,644.9375 753.1719,644.8594 Q753.3281,644.7813 753.5313,644.7813 Q753.8594,644.7813 754.1094,645.0469 Q754.375,645.2969 754.375,645.6406 Q754.375,645.9844 754.0313,646.3906 Q753.5313,646.9688 752.7344,647.2969 Q751.6563,647.75 750.3594,647.75 Q748.8438,647.75 747.6406,647.125 Q746.6563,646.625 745.9688,645.5625 Q745.2813,644.4844 745.2813,643.2031 L745.2813,642.0469 Q745.2813,640.7188 745.8906,639.5781 Q746.5156,638.4219 747.6094,637.8125 Q748.7031,637.1875 749.9375,637.1875 Q750.6719,637.1875 751.3125,637.3594 Q751.9688,637.5156 752.5156,637.875 Z " fill="#000000"/><text fill="#000000" font-family="sans-serif" font-size="12" lengthAdjust="spacing" textLength="100" x="770.25" y="646.9102">VaccinationCenter</text><line style="stroke:#A80036;stroke-width:1.5;" x1="367" x2="1241" y1="658" y2="658"/><text fill="#000000" font-family="sans-serif" font-size="11" lengthAdjust="spacing" textLength="64" x="372" y="673.4189">-name: String</text><text fill="#000000" font-family="sans-serif" font-size="11" lengthAdjust="spacing" textLength="78" x="372" y="687.2549">-address: String</text><text fill="#000000" font-family="sans-serif" font-size="11" lengthAdjust="spacing" textLength="104" x="372" y="701.0908">-emailAddress: String</text><text fill="#000000" font-family="sans-serif" font-size="11" lengthAdjust="spacing" textLength="88" x="372" y="714.9268">-phoneNumber: int</text><text fill="#000000" font-family="sans-serif" font-size="11" lengthAdjust="spacing" textLength="74" x="372" y="728.7627">-faxNumber: int</text><text fill="#000000" font-family="sans-serif" font-size="11" lengthAdjust="spacing" textLength="119" x="372" y="742.5986">-websiteAddress: String</text><text fill="#000000" font-family="sans-serif" font-size="11" lengthAdjust="spacing" textLength="105" x="372" y="756.4346">-openingHours: String</text><text fill="#000000" font-family="sans-serif" font-size="11" lengthAdjust="spacing" textLength="101" x="372" y="770.2705">-closingHours: String</text><text fill="#000000" font-family="sans-serif" font-size="11" lengthAdjust="spacing" textLength="78" x="372" y="784.1064">-slotDuration: int</text><text fill="#000000" font-family="sans-serif" font-size="11" lengthAdjust="spacing" textLength="145" x="372" y="797.9424">-maximumVaccinesPerSlot: int</text><text fill="#000000" font-family="sans-serif" font-size="11" lengthAdjust="spacing" textLength="119" x="372" y="811.7783">-coordinator: EMPLOYEE</text><text fill="#000000" font-family="sans-serif" font-size="11" lengthAdjust="spacing" textLength="50" x="372" y="825.6143">-typeId: int</text><line style="stroke:#A80036;stroke-width:1.0;" x1="367" x2="1241" y1="832.0313" y2="832.0313"/><text fill="#000000" font-family="sans-serif" font-size="11" lengthAdjust="spacing" textLength="864" x="372" y="847.4502">+VaccinationCenter(name,address,emailAddress,phoneNumber,faxNumber,websiteAddress,openingHours,closingHours,slotDuration,maximumVaccinesPerSlot,coordinator,typeId)</text><!--MD5=[02e4b9b7573f1156f41e60aa5b4e25a4]
class Company--><rect codeLine="21" fill="#FEFECE" filter="url(#fyf23dy96pp56)" height="103.3438" id="Company" style="stroke:#A80036;stroke-width:1.5;" width="156" x="347" y="267"/><ellipse cx="394.25" cy="283" fill="#ADD1B2" rx="11" ry="11" style="stroke:#A80036;stroke-width:1.0;"/><path d="M397.0156,278.875 Q397.1719,278.6563 397.3594,278.5469 Q397.5469,278.4375 397.7656,278.4375 Q398.1406,278.4375 398.375,278.7031 Q398.6094,278.9531 398.6094,279.5625 L398.6094,281.0156 Q398.6094,281.625 398.375,281.8906 Q398.1406,282.1563 397.7656,282.1563 Q397.4219,282.1563 397.2188,281.9531 Q397.0156,281.7656 396.9063,281.25 Q396.8594,280.8906 396.6719,280.7031 Q396.3438,280.3281 395.7344,280.1094 Q395.125,279.8906 394.5,279.8906 Q393.7344,279.8906 393.0938,280.2188 Q392.4688,280.5469 391.9688,281.2969 Q391.4844,282.0469 391.4844,283.0781 L391.4844,284.1719 Q391.4844,285.4063 392.375,286.2344 Q393.2656,287.0469 394.8594,287.0469 Q395.7969,287.0469 396.4531,286.7969 Q396.8438,286.6406 397.2656,286.2031 Q397.5313,285.9375 397.6719,285.8594 Q397.8281,285.7813 398.0313,285.7813 Q398.3594,285.7813 398.6094,286.0469 Q398.875,286.2969 398.875,286.6406 Q398.875,286.9844 398.5313,287.3906 Q398.0313,287.9688 397.2344,288.2969 Q396.1563,288.75 394.8594,288.75 Q393.3438,288.75 392.1406,288.125 Q391.1563,287.625 390.4688,286.5625 Q389.7813,285.4844 389.7813,284.2031 L389.7813,283.0469 Q389.7813,281.7188 390.3906,280.5781 Q391.0156,279.4219 392.1094,278.8125 Q393.2031,278.1875 394.4375,278.1875 Q395.1719,278.1875 395.8125,278.3594 Q396.4688,278.5156 397.0156,278.875 Z " fill="#000000"/><text fill="#000000" font-family="sans-serif" font-size="12" lengthAdjust="spacing" textLength="53" x="414.75" y="287.9102">Company</text><line style="stroke:#A80036;stroke-width:1.5;" x1="348" x2="502" y1="299" y2="299"/><text fill="#000000" font-family="sans-serif" font-size="11" lengthAdjust="spacing" textLength="93" x="353" y="314.4189">-designation: String</text><line style="stroke:#A80036;stroke-width:1.0;" x1="348" x2="502" y1="320.8359" y2="320.8359"/><text fill="#000000" font-family="sans-serif" font-size="11" lengthAdjust="spacing" textLength="85" x="353" y="336.2549">+getDesignation()</text><text fill="#000000" font-family="sans-serif" font-size="11" lengthAdjust="spacing" textLength="101" x="353" y="350.0908">+getEmployeeStore()</text><text fill="#000000" font-family="sans-serif" font-size="11" lengthAdjust="spacing" textLength="144" x="353" y="363.9268">+getVaccinationCenterStore()</text><!--MD5=[a29876ea2f21a6ca48ea477740122fd8]
class VaccinationCenterStore--><rect codeLine="29" fill="#FEFECE" filter="url(#fyf23dy96pp56)" height="117.1797" id="VaccinationCenterStore" style="stroke:#A80036;stroke-width:1.5;" width="257" x="642.5" y="431"/><ellipse cx="702.25" cy="447" fill="#ADD1B2" rx="11" ry="11" style="stroke:#A80036;stroke-width:1.0;"/><path d="M705.0156,442.875 Q705.1719,442.6563 705.3594,442.5469 Q705.5469,442.4375 705.7656,442.4375 Q706.1406,442.4375 706.375,442.7031 Q706.6094,442.9531 706.6094,443.5625 L706.6094,445.0156 Q706.6094,445.625 706.375,445.8906 Q706.1406,446.1563 705.7656,446.1563 Q705.4219,446.1563 705.2188,445.9531 Q705.0156,445.7656 704.9063,445.25 Q704.8594,444.8906 704.6719,444.7031 Q704.3438,444.3281 703.7344,444.1094 Q703.125,443.8906 702.5,443.8906 Q701.7344,443.8906 701.0938,444.2188 Q700.4688,444.5469 699.9688,445.2969 Q699.4844,446.0469 699.4844,447.0781 L699.4844,448.1719 Q699.4844,449.4063 700.375,450.2344 Q701.2656,451.0469 702.8594,451.0469 Q703.7969,451.0469 704.4531,450.7969 Q704.8438,450.6406 705.2656,450.2031 Q705.5313,449.9375 705.6719,449.8594 Q705.8281,449.7813 706.0313,449.7813 Q706.3594,449.7813 706.6094,450.0469 Q706.875,450.2969 706.875,450.6406 Q706.875,450.9844 706.5313,451.3906 Q706.0313,451.9688 705.2344,452.2969 Q704.1563,452.75 702.8594,452.75 Q701.3438,452.75 700.1406,452.125 Q699.1563,451.625 698.4688,450.5625 Q697.7813,449.4844 697.7813,448.2031 L697.7813,447.0469 Q697.7813,445.7188 698.3906,444.5781 Q699.0156,443.4219 700.1094,442.8125 Q701.2031,442.1875 702.4375,442.1875 Q703.1719,442.1875 703.8125,442.3594 Q704.4688,442.5156 705.0156,442.875 Z " fill="#000000"/><text fill="#000000" font-family="sans-serif" font-size="12" lengthAdjust="spacing" textLength="129" x="722.75" y="451.9102">VaccinationCenterStore</text><line style="stroke:#A80036;stroke-width:1.5;" x1="643.5" x2="898.5" y1="463" y2="463"/><line style="stroke:#A80036;stroke-width:1.0;" x1="643.5" x2="898.5" y1="471" y2="471"/><text fill="#000000" font-family="sans-serif" font-size="11" lengthAdjust="spacing" textLength="245" x="648.5" y="486.4189">+createVaccinationCenter(centerData,coordinator)</text><text fill="#000000" font-family="sans-serif" font-size="11" lengthAdjust="spacing" textLength="169" x="648.5" y="500.2549">+validateVaccinatonCenter(center)</text><text fill="#000000" font-family="sans-serif" font-size="11" lengthAdjust="spacing" textLength="158" x="648.5" y="514.0908">+saveVaccinationCenter(center)</text><text fill="#000000" font-family="sans-serif" font-size="11" lengthAdjust="spacing" textLength="124" x="648.5" y="527.9268">+checkDuplicates(center)</text><text fill="#000000" font-family="sans-serif" font-size="11" lengthAdjust="spacing" textLength="150" x="648.5" y="541.7627">-addVaccinationCenter(center)</text><!--MD5=[7421f545a0d8420c5bec41e74b387d9c]
class Employee--><rect codeLine="38" fill="#FEFECE" filter="url(#fyf23dy96pp56)" height="158.6875" id="Employee" style="stroke:#A80036;stroke-width:1.5;" width="324" x="7" y="660.5"/><ellipse cx="137.25" cy="676.5" fill="#ADD1B2" rx="11" ry="11" style="stroke:#A80036;stroke-width:1.0;"/><path d="M140.0156,672.375 Q140.1719,672.1563 140.3594,672.0469 Q140.5469,671.9375 140.7656,671.9375 Q141.1406,671.9375 141.375,672.2031 Q141.6094,672.4531 141.6094,673.0625 L141.6094,674.5156 Q141.6094,675.125 141.375,675.3906 Q141.1406,675.6563 140.7656,675.6563 Q140.4219,675.6563 140.2188,675.4531 Q140.0156,675.2656 139.9063,674.75 Q139.8594,674.3906 139.6719,674.2031 Q139.3438,673.8281 138.7344,673.6094 Q138.125,673.3906 137.5,673.3906 Q136.7344,673.3906 136.0938,673.7188 Q135.4688,674.0469 134.9688,674.7969 Q134.4844,675.5469 134.4844,676.5781 L134.4844,677.6719 Q134.4844,678.9063 135.375,679.7344 Q136.2656,680.5469 137.8594,680.5469 Q138.7969,680.5469 139.4531,680.2969 Q139.8438,680.1406 140.2656,679.7031 Q140.5313,679.4375 140.6719,679.3594 Q140.8281,679.2813 141.0313,679.2813 Q141.3594,679.2813 141.6094,679.5469 Q141.875,679.7969 141.875,680.1406 Q141.875,680.4844 141.5313,680.8906 Q141.0313,681.4688 140.2344,681.7969 Q139.1563,682.25 137.8594,682.25 Q136.3438,682.25 135.1406,681.625 Q134.1563,681.125 133.4688,680.0625 Q132.7813,678.9844 132.7813,677.7031 L132.7813,676.5469 Q132.7813,675.2188 133.3906,674.0781 Q134.0156,672.9219 135.1094,672.3125 Q136.2031,671.6875 137.4375,671.6875 Q138.1719,671.6875 138.8125,671.8594 Q139.4688,672.0156 140.0156,672.375 Z " fill="#000000"/><text fill="#000000" font-family="sans-serif" font-size="12" lengthAdjust="spacing" textLength="55" x="157.75" y="681.4102">Employee</text><line style="stroke:#A80036;stroke-width:1.5;" x1="8" x2="330" y1="692.5" y2="692.5"/><text fill="#000000" font-family="sans-serif" font-size="11" lengthAdjust="spacing" textLength="46" x="13" y="707.9189">-id: String</text><text fill="#000000" font-family="sans-serif" font-size="11" lengthAdjust="spacing" textLength="64" x="13" y="721.7549">-name: String</text><text fill="#000000" font-family="sans-serif" font-size="11" lengthAdjust="spacing" textLength="62" x="13" y="735.5908">-email: String</text><text fill="#000000" font-family="sans-serif" font-size="11" lengthAdjust="spacing" textLength="68" x="13" y="749.4268">-phone: String</text><text fill="#000000" font-family="sans-serif" font-size="11" lengthAdjust="spacing" textLength="78" x="13" y="763.2627">-address: String</text><text fill="#000000" font-family="sans-serif" font-size="11" lengthAdjust="spacing" textLength="112" x="13" y="777.0986">-citizenCardNumber: int</text><text fill="#000000" font-family="sans-serif" font-size="11" lengthAdjust="spacing" textLength="64" x="13" y="790.9346">-roleId: String</text><line style="stroke:#A80036;stroke-width:1.0;" x1="8" x2="330" y1="797.3516" y2="797.3516"/><text fill="#000000" font-family="sans-serif" font-size="11" lengthAdjust="spacing" textLength="312" x="13" y="812.7705">+Employee(name,email,phone,address,citizenCardNumber,roleId)</text><!--MD5=[829fb52c07ade3ad64ef85b99d1fca10]
class EmployeeStore--><rect codeLine="50" fill="#FEFECE" filter="url(#fyf23dy96pp56)" height="61.8359" id="EmployeeStore" style="stroke:#A80036;stroke-width:1.5;" width="143" x="196.5" y="458.5"/><ellipse cx="223.65" cy="474.5" fill="#ADD1B2" rx="11" ry="11" style="stroke:#A80036;stroke-width:1.0;"/><path d="M226.4156,470.375 Q226.5719,470.1563 226.7594,470.0469 Q226.9469,469.9375 227.1656,469.9375 Q227.5406,469.9375 227.775,470.2031 Q228.0094,470.4531 228.0094,471.0625 L228.0094,472.5156 Q228.0094,473.125 227.775,473.3906 Q227.5406,473.6563 227.1656,473.6563 Q226.8219,473.6563 226.6188,473.4531 Q226.4156,473.2656 226.3063,472.75 Q226.2594,472.3906 226.0719,472.2031 Q225.7438,471.8281 225.1344,471.6094 Q224.525,471.3906 223.9,471.3906 Q223.1344,471.3906 222.4938,471.7188 Q221.8688,472.0469 221.3688,472.7969 Q220.8844,473.5469 220.8844,474.5781 L220.8844,475.6719 Q220.8844,476.9063 221.775,477.7344 Q222.6656,478.5469 224.2594,478.5469 Q225.1969,478.5469 225.8531,478.2969 Q226.2438,478.1406 226.6656,477.7031 Q226.9313,477.4375 227.0719,477.3594 Q227.2281,477.2813 227.4313,477.2813 Q227.7594,477.2813 228.0094,477.5469 Q228.275,477.7969 228.275,478.1406 Q228.275,478.4844 227.9313,478.8906 Q227.4313,479.4688 226.6344,479.7969 Q225.5563,480.25 224.2594,480.25 Q222.7438,480.25 221.5406,479.625 Q220.5563,479.125 219.8688,478.0625 Q219.1813,476.9844 219.1813,475.7031 L219.1813,474.5469 Q219.1813,473.2188 219.7906,472.0781 Q220.4156,470.9219 221.5094,470.3125 Q222.6031,469.6875 223.8375,469.6875 Q224.5719,469.6875 225.2125,469.8594 Q225.8688,470.0156 226.4156,470.375 Z " fill="#000000"/><text fill="#000000" font-family="sans-serif" font-size="12" lengthAdjust="spacing" textLength="84" x="240.35" y="479.4102">EmployeeStore</text><line style="stroke:#A80036;stroke-width:1.5;" x1="197.5" x2="338.5" y1="490.5" y2="490.5"/><line style="stroke:#A80036;stroke-width:1.5;" x1="197.5" x2="338.5" y1="498.5" y2="498.5"/><text fill="#000000" font-family="sans-serif" font-size="11" lengthAdjust="spacing" textLength="131" x="202.5" y="513.9189">+getEmployeesWithRole(id)</text><!--MD5=[30f5d80da7eaef66e26152e87f16c093]
class VaccinationCenterController--><rect codeLine="54" fill="#FEFECE" filter="url(#fyf23dy96pp56)" height="89.5078" id="VaccinationCenterController" style="stroke:#A80036;stroke-width:1.5;" width="817" x="16.5" y="116"/><ellipse cx="343.75" cy="132" fill="#ADD1B2" rx="11" ry="11" style="stroke:#A80036;stroke-width:1.0;"/><path d="M346.5156,127.875 Q346.6719,127.6563 346.8594,127.5469 Q347.0469,127.4375 347.2656,127.4375 Q347.6406,127.4375 347.875,127.7031 Q348.1094,127.9531 348.1094,128.5625 L348.1094,130.0156 Q348.1094,130.625 347.875,130.8906 Q347.6406,131.1563 347.2656,131.1563 Q346.9219,131.1563 346.7188,130.9531 Q346.5156,130.7656 346.4063,130.25 Q346.3594,129.8906 346.1719,129.7031 Q345.8438,129.3281 345.2344,129.1094 Q344.625,128.8906 344,128.8906 Q343.2344,128.8906 342.5938,129.2188 Q341.9688,129.5469 341.4688,130.2969 Q340.9844,131.0469 340.9844,132.0781 L340.9844,133.1719 Q340.9844,134.4063 341.875,135.2344 Q342.7656,136.0469 344.3594,136.0469 Q345.2969,136.0469 345.9531,135.7969 Q346.3438,135.6406 346.7656,135.2031 Q347.0313,134.9375 347.1719,134.8594 Q347.3281,134.7813 347.5313,134.7813 Q347.8594,134.7813 348.1094,135.0469 Q348.375,135.2969 348.375,135.6406 Q348.375,135.9844 348.0313,136.3906 Q347.5313,136.9688 346.7344,137.2969 Q345.6563,137.75 344.3594,137.75 Q342.8438,137.75 341.6406,137.125 Q340.6563,136.625 339.9688,135.5625 Q339.2813,134.4844 339.2813,133.2031 L339.2813,132.0469 Q339.2813,130.7188 339.8906,129.5781 Q340.5156,128.4219 341.6094,127.8125 Q342.7031,127.1875 343.9375,127.1875 Q344.6719,127.1875 345.3125,127.3594 Q345.9688,127.5156 346.5156,127.875 Z " fill="#000000"/><text fill="#000000" font-family="sans-serif" font-size="12" lengthAdjust="spacing" textLength="154" x="364.25" y="136.9102">VaccinationCenterController</text><line style="stroke:#A80036;stroke-width:1.5;" x1="17.5" x2="832.5" y1="148" y2="148"/><line style="stroke:#A80036;stroke-width:1.0;" x1="17.5" x2="832.5" y1="156" y2="156"/><text fill="#000000" font-family="sans-serif" font-size="11" lengthAdjust="spacing" textLength="91" x="22.5" y="171.4189">+getCoordinators()</text><text fill="#000000" font-family="sans-serif" font-size="11" lengthAdjust="spacing" textLength="805" x="22.5" y="185.2549">+createVaccinationCenter(name,address,emailAddress,phoneNumber,faxNumber,websiteAddress,openingHours,closingHours,slotDuration,maximumVaccinesPerSlot)</text><text fill="#000000" font-family="sans-serif" font-size="11" lengthAdjust="spacing" textLength="158" x="22.5" y="199.0908">+saveVaccinationCenter(center)</text><!--MD5=[0949c93bb2ceac2c9377da7237d80f71]
class VaccinationCenterUI--><rect codeLine="61" fill="#FEFECE" filter="url(#fyf23dy96pp56)" height="48" id="VaccinationCenterUI" style="stroke:#A80036;stroke-width:1.5;" width="144" x="353" y="7"/><ellipse cx="368" cy="23" fill="#ADD1B2" rx="11" ry="11" style="stroke:#A80036;stroke-width:1.0;"/><path d="M370.7656,18.875 Q370.9219,18.6563 371.1094,18.5469 Q371.2969,18.4375 371.5156,18.4375 Q371.8906,18.4375 372.125,18.7031 Q372.3594,18.9531 372.3594,19.5625 L372.3594,21.0156 Q372.3594,21.625 372.125,21.8906 Q371.8906,22.1563 371.5156,22.1563 Q371.1719,22.1563 370.9688,21.9531 Q370.7656,21.7656 370.6563,21.25 Q370.6094,20.8906 370.4219,20.7031 Q370.0938,20.3281 369.4844,20.1094 Q368.875,19.8906 368.25,19.8906 Q367.4844,19.8906 366.8438,20.2188 Q366.2188,20.5469 365.7188,21.2969 Q365.2344,22.0469 365.2344,23.0781 L365.2344,24.1719 Q365.2344,25.4063 366.125,26.2344 Q367.0156,27.0469 368.6094,27.0469 Q369.5469,27.0469 370.2031,26.7969 Q370.5938,26.6406 371.0156,26.2031 Q371.2813,25.9375 371.4219,25.8594 Q371.5781,25.7813 371.7813,25.7813 Q372.1094,25.7813 372.3594,26.0469 Q372.625,26.2969 372.625,26.6406 Q372.625,26.9844 372.2813,27.3906 Q371.7813,27.9688 370.9844,28.2969 Q369.9063,28.75 368.6094,28.75 Q367.0938,28.75 365.8906,28.125 Q364.9063,27.625 364.2188,26.5625 Q363.5313,25.4844 363.5313,24.2031 L363.5313,23.0469 Q363.5313,21.7188 364.1406,20.5781 Q364.7656,19.4219 365.8594,18.8125 Q366.9531,18.1875 368.1875,18.1875 Q368.9219,18.1875 369.5625,18.3594 Q370.2188,18.5156 370.7656,18.875 Z " fill="#000000"/><text fill="#000000" font-family="sans-serif" font-size="12" lengthAdjust="spacing" textLength="112" x="382" y="27.9102">VaccinationCenterUI</text><line style="stroke:#A80036;stroke-width:1.5;" x1="354" x2="496" y1="39" y2="39"/><line style="stroke:#A80036;stroke-width:1.5;" x1="354" x2="496" y1="47" y2="47"/><!--MD5=[2bb26c741d8a8989873ebb0fda8a5667]
link VaccinationCenterUI to VaccinationCenterController--><path codeLine="63" d="M425,55.18 C425,70.59 425,91.42 425,110.45 " fill="none" id="VaccinationCenterUI-to-VaccinationCenterController" style="stroke:#A80036;stroke-width:1.0;stroke-dasharray:7.0,7.0;"/><polygon fill="#A80036" points="425,115.76,429,106.76,425,110.76,421,106.76,425,115.76" style="stroke:#A80036;stroke-width:1.0;"/><!--MD5=[f1b0b71cb0e083e22e413376c9309a8e]
link VaccinationCenterController to Company--><path codeLine="64" d="M425,206.14 C425,223.46 425,243.53 425,261.83 " fill="none" id="VaccinationCenterController-to-Company" style="stroke:#A80036;stroke-width:1.0;stroke-dasharray:7.0,7.0;"/><polygon fill="#A80036" points="425,266.94,429,257.94,425,261.94,421,257.94,425,266.94" style="stroke:#A80036;stroke-width:1.0;"/><!--MD5=[eebe9b198877275d05dd12630ed9e401]
link Company to VaccinationCenter--><path codeLine="65" d="M445.18,370.1 C466.36,419.12 503.1,493.8 550,548 C572.97,574.54 600.21,599.69 628.18,622.5 " fill="none" id="Company-to-VaccinationCenter" style="stroke:#A80036;stroke-width:1.0;"/><polygon fill="#A80036" points="632.31,625.84,627.8473,617.0602,628.4294,622.687,622.8026,623.2691,632.31,625.84" style="stroke:#A80036;stroke-width:1.0;"/><polygon fill="#000000" points="552.0651,485.6278,554.9951,494.6758,559.7538,491.2255,552.0651,485.6278" style="stroke:#000000;stroke-width:1.0;"/><text fill="#000000" font-family="sans-serif" font-size="13" lengthAdjust="spacing" textLength="60" x="564" y="494.9951">belongs to</text><text fill="#000000" font-family="sans-serif" font-size="13" lengthAdjust="spacing" textLength="7" x="440.5256" y="391.9769">1</text><text fill="#000000" font-family="sans-serif" font-size="13" lengthAdjust="spacing" textLength="5" x="615.6066" y="615.1438">*</text><!--MD5=[bc0d5b4bfe6e1bf0a8fced13bc4bdd47]
link Company to VaccinationCenterStore--><path codeLine="66" d="M503.08,357.64 C545.95,378.57 600.07,405.01 648.43,428.63 " fill="none" id="Company-to-VaccinationCenterStore" style="stroke:#A80036;stroke-width:1.0;stroke-dasharray:7.0,7.0;"/><polygon fill="#A80036" points="653.1,430.91,646.752,423.3798,648.6025,428.7255,643.2568,430.5759,653.1,430.91" style="stroke:#A80036;stroke-width:1.0;"/><!--MD5=[ce859576cba61219b3cb4d2d23fdcd81]
link Company to EmployeeStore--><path codeLine="67" d="M377.89,370.21 C352.52,397.52 321.9,430.48 299.43,454.67 " fill="none" id="Company-to-EmployeeStore" style="stroke:#A80036;stroke-width:1.0;stroke-dasharray:7.0,7.0;"/><polygon fill="#A80036" points="295.9,458.47,304.9656,454.621,299.3121,454.8152,299.1179,449.1617,295.9,458.47" style="stroke:#A80036;stroke-width:1.0;"/><!--MD5=[2f3bac1bdf76f0b867b8cadb6fadb6bc]
link EmployeeStore to Employee--><path codeLine="68" d="M255.86,520.97 C242.58,554.3 220.73,609.15 202.27,655.5 " fill="none" id="EmployeeStore-to-Employee" style="stroke:#A80036;stroke-width:1.0;"/><polygon fill="#A80036" points="200.38,660.25,207.4364,653.3793,202.237,655.6076,200.0086,650.4081,200.38,660.25" style="stroke:#A80036;stroke-width:1.0;"/><polygon fill="#000000" points="234.1497,591.8208,240.2272,584.5055,234.7667,582.3303,234.1497,591.8208" style="stroke:#000000;stroke-width:1.0;"/><text fill="#000000" font-family="sans-serif" font-size="13" lengthAdjust="spacing" textLength="36" x="245" y="592.4951">stores</text><text fill="#000000" font-family="sans-serif" font-size="13" lengthAdjust="spacing" textLength="7" x="245.9764" y="541.7899">1</text><text fill="#000000" font-family="sans-serif" font-size="13" lengthAdjust="spacing" textLength="5" x="198.0424" y="649.6863">*</text><!--MD5=[09366576ee87d48d594df10cacc83f45]
link Company to Employee--><path codeLine="69" d="M417.27,370.02 C408.24,418.31 390.14,491.87 357,548 C333.59,587.66 300.17,625.2 268,656.33 " fill="none" id="Company-to-Employee" style="stroke:#A80036;stroke-width:1.0;"/><polygon fill="#A80036" points="264.08,660.1,273.3418,656.7505,267.6861,656.6365,267.8001,650.9807,264.08,660.1" style="stroke:#A80036;stroke-width:1.0;"/><polygon fill="#000000" points="406.6885,494.1094,413.4761,487.4476,408.264,484.7302,406.6885,494.1094" style="stroke:#000000;stroke-width:1.0;"/><text fill="#000000" font-family="sans-serif" font-size="13" lengthAdjust="spacing" textLength="37" x="418" y="494.9951">knows</text><text fill="#000000" font-family="sans-serif" font-size="13" lengthAdjust="spacing" textLength="7" x="408.6908" y="391.8857">1</text><text fill="#000000" font-family="sans-serif" font-size="13" lengthAdjust="spacing" textLength="5" x="267.6147" y="649.5224">*</text><!--MD5=[623f444085ea3d7eec5cbc74a2b0faf8]
link VaccinationCenterController to VaccinationCenterStore--><path codeLine="70" d="M471.66,206.03 C532.07,263.03 637.66,362.67 705.92,427.09 " fill="none" id="VaccinationCenterController-to-VaccinationCenterStore" style="stroke:#A80036;stroke-width:1.0;stroke-dasharray:7.0,7.0;"/><polygon fill="#A80036" points="709.96,430.9,706.1477,421.8189,706.319,427.4732,700.6647,427.6445,709.96,430.9" style="stroke:#A80036;stroke-width:1.0;"/><!--MD5=[e0c1cbfab36129e287d00d39216079af]
link VaccinationCenterController to EmployeeStore--><path codeLine="71" d="M376.05,206.08 C359.07,223.59 341.24,244.84 329,267 C295.57,327.51 279.45,407.62 272.52,453.05 " fill="none" id="VaccinationCenterController-to-EmployeeStore" style="stroke:#A80036;stroke-width:1.0;stroke-dasharray:7.0,7.0;"/><polygon fill="#A80036" points="271.76,458.14,277.0532,449.8344,272.5031,453.1955,269.142,448.6455,271.76,458.14" style="stroke:#A80036;stroke-width:1.0;"/><!--MD5=[8c304936b446fd8cea914e03fbadd4b7]
link VaccinationCenterStore to VaccinationCenter--><path codeLine="72" d="M778.65,548.14 C781.55,569.91 784.95,595.56 788.31,620.87 " fill="none" id="VaccinationCenterStore-to-VaccinationCenter" style="stroke:#A80036;stroke-width:1.0;"/><polygon fill="#A80036" points="788.98,625.93,791.7626,616.4824,788.3229,620.9734,783.832,617.5337,788.98,625.93" style="stroke:#A80036;stroke-width:1.0;"/><polygon fill="#000000" points="789.6583,592.1323,791.3808,582.779,785.5541,583.5529,789.6583,592.1323" style="stroke:#000000;stroke-width:1.0;"/><text fill="#000000" font-family="sans-serif" font-size="13" lengthAdjust="spacing" textLength="36" x="798" y="592.4951">stores</text><text fill="#000000" font-family="sans-serif" font-size="13" lengthAdjust="spacing" textLength="7" x="772.1558" y="569.7673">1</text><text fill="#000000" font-family="sans-serif" font-size="13" lengthAdjust="spacing" textLength="5" x="782.8029" y="615.2398">*</text><!--MD5=[47862720be9aa530dd73687516cc0d28]
@startuml US09_CD
skinparam classAttributeIconSize 0

class VaccinationCenter {
  - name: String
  - address: String
  - emailAddress: String
  - phoneNumber: int
  - faxNumber: int
  - websiteAddress: String
  - openingHours: String
  - closingHours: String
  - slotDuration: int
  - maximumVaccinesPerSlot: int
  - coordinator: EMPLOYEE
  - typeId: int
  - - -
 +VaccinationCenter(name,address,emailAddress,phoneNumber,faxNumber,websiteAddress,openingHours,closingHours,slotDuration,maximumVaccinesPerSlot,coordinator,typeId)
}


class Company {
  -designation: String
  - - -
  +getDesignation()
  +getEmployeeStore()
  +getVaccinationCenterStore()
}

class VaccinationCenterStore {
- - -
+createVaccinationCenter(centerData,coordinator)
+validateVaccinatonCenter(center)
+saveVaccinationCenter(center)
+checkDuplicates(center)
-addVaccinationCenter(center)
}

class Employee {
  -id: String 
  -name: String 
  -email: String 
  -phone: String 
  -address: String 
  -citizenCardNumber: int 
  -roleId: String 
  - - -
  +Employee(name,email,phone,address,citizenCardNumber,roleId)
}

class EmployeeStore {
  +getEmployeesWithRole(id)
}

class VaccinationCenterController {
  - - -
  +getCoordinators()
  +createVaccinationCenter(name,address,emailAddress,phoneNumber,faxNumber,websiteAddress,openingHours,closingHours,slotDuration,maximumVaccinesPerSlot)
  +saveVaccinationCenter(center)
}

class VaccinationCenterUI {}

VaccinationCenterUI ..> VaccinationCenterController
VaccinationCenterController ..> Company
Company "1" - -> "*" VaccinationCenter : belongs to <
Company ..> VaccinationCenterStore
Company ..> EmployeeStore
EmployeeStore "1" - -> "*" Employee : stores >
Company "1" - -> "*" Employee : knows >
VaccinationCenterController ..> VaccinationCenterStore
VaccinationCenterController ..> EmployeeStore
VaccinationCenterStore "1" - -> "*" VaccinationCenter : stores >

@enduml

PlantUML version 1.2022.0(Tue Jan 11 16:16:42 WET 2022)
(GPL source distribution)
Java Runtime: Java(TM) SE Runtime Environment
JVM: Java HotSpot(TM) 64-Bit Server VM
Default Encoding: Cp1252
Language: pt
Country: PT
--></g></svg>