<?xml version="1.0" encoding="UTF-8" standalone="no"?><svg xmlns="http://www.w3.org/2000/svg" xmlns:xlink="http://www.w3.org/1999/xlink" contentScriptType="application/ecmascript" contentStyleType="text/css" height="662px" preserveAspectRatio="none" style="width:1164px;height:662px;background:#FFFFFF;" version="1.1" viewBox="0 0 1164 662" width="1164px" zoomAndPan="magnify"><defs><filter height="300%" id="f1mv7tnhyejuaz" width="300%" x="-1" y="-1"><feGaussianBlur result="blurOut" stdDeviation="2.0"/><feColorMatrix in="blurOut" result="blurOut2" type="matrix" values="0 0 0 0 0 0 0 0 0 0 0 0 0 0 0 0 0 0 .4 0"/><feOffset dx="4.0" dy="4.0" in="blurOut2" result="blurOut3"/><feBlend in="SourceGraphic" in2="blurOut3" mode="normal"/></filter></defs><g><!--MD5=[de60e6d4f424ae4d0522096f76a59010]
class VaccinationCenter--><rect codeLine="3" fill="#FEFECE" filter="url(#f1mv7tnhyejuaz)" height="200.1953" id="VaccinationCenter" style="stroke:#A80036;stroke-width:1.5;" width="764" x="7" y="448"/><ellipse cx="334.75" cy="464" fill="#ADD1B2" rx="11" ry="11" style="stroke:#A80036;stroke-width:1.0;"/><path d="M337.5156,459.875 Q337.6719,459.6563 337.8594,459.5469 Q338.0469,459.4375 338.2656,459.4375 Q338.6406,459.4375 338.875,459.7031 Q339.1094,459.9531 339.1094,460.5625 L339.1094,462.0156 Q339.1094,462.625 338.875,462.8906 Q338.6406,463.1563 338.2656,463.1563 Q337.9219,463.1563 337.7188,462.9531 Q337.5156,462.7656 337.4063,462.25 Q337.3594,461.8906 337.1719,461.7031 Q336.8438,461.3281 336.2344,461.1094 Q335.625,460.8906 335,460.8906 Q334.2344,460.8906 333.5938,461.2188 Q332.9688,461.5469 332.4688,462.2969 Q331.9844,463.0469 331.9844,464.0781 L331.9844,465.1719 Q331.9844,466.4063 332.875,467.2344 Q333.7656,468.0469 335.3594,468.0469 Q336.2969,468.0469 336.9531,467.7969 Q337.3438,467.6406 337.7656,467.2031 Q338.0313,466.9375 338.1719,466.8594 Q338.3281,466.7813 338.5313,466.7813 Q338.8594,466.7813 339.1094,467.0469 Q339.375,467.2969 339.375,467.6406 Q339.375,467.9844 339.0313,468.3906 Q338.5313,468.9688 337.7344,469.2969 Q336.6563,469.75 335.3594,469.75 Q333.8438,469.75 332.6406,469.125 Q331.6563,468.625 330.9688,467.5625 Q330.2813,466.4844 330.2813,465.2031 L330.2813,464.0469 Q330.2813,462.7188 330.8906,461.5781 Q331.5156,460.4219 332.6094,459.8125 Q333.7031,459.1875 334.9375,459.1875 Q335.6719,459.1875 336.3125,459.3594 Q336.9688,459.5156 337.5156,459.875 Z " fill="#000000"/><text fill="#000000" font-family="sans-serif" font-size="12" lengthAdjust="spacing" textLength="100" x="355.25" y="468.9102">VaccinationCenter</text><line style="stroke:#A80036;stroke-width:1.5;" x1="8" x2="770" y1="480" y2="480"/><text fill="#000000" font-family="sans-serif" font-size="11" lengthAdjust="spacing" textLength="61" x="13" y="495.4189">-name String</text><text fill="#000000" font-family="sans-serif" font-size="11" lengthAdjust="spacing" textLength="75" x="13" y="509.2549">-address String</text><text fill="#000000" font-family="sans-serif" font-size="11" lengthAdjust="spacing" textLength="85" x="13" y="523.0908">-phoneNumber int</text><text fill="#000000" font-family="sans-serif" font-size="11" lengthAdjust="spacing" textLength="101" x="13" y="536.9268">-emailAddress String</text><text fill="#000000" font-family="sans-serif" font-size="11" lengthAdjust="spacing" textLength="71" x="13" y="550.7627">-faxNumber int</text><text fill="#000000" font-family="sans-serif" font-size="11" lengthAdjust="spacing" textLength="116" x="13" y="564.5986">-websiteAddress String</text><text fill="#000000" font-family="sans-serif" font-size="11" lengthAdjust="spacing" textLength="157" x="13" y="578.4346">-openingAndClosingHours String</text><text fill="#000000" font-family="sans-serif" font-size="11" lengthAdjust="spacing" textLength="75" x="13" y="592.2705">-slotDuration int</text><text fill="#000000" font-family="sans-serif" font-size="11" lengthAdjust="spacing" textLength="142" x="13" y="606.1064">-maximumVaccinesPerSlot int</text><text fill="#000000" font-family="sans-serif" font-size="11" lengthAdjust="spacing" textLength="137" x="13" y="619.9424">-coordinator COORDINATOR</text><line style="stroke:#A80036;stroke-width:1.0;" x1="8" x2="770" y1="626.3594" y2="626.3594"/><text fill="#000000" font-family="sans-serif" font-size="11" lengthAdjust="spacing" textLength="752" x="13" y="641.7783">+VaccinationCenter(name,address,phoneNumber,faxNumber,websiteAddress,openingAndClosingHours,slotDuration,maximumVaccinesPerSlot,coordinator)</text><!--MD5=[02e4b9b7573f1156f41e60aa5b4e25a4]
class Company--><rect codeLine="19" fill="#FEFECE" filter="url(#f1mv7tnhyejuaz)" height="117.1797" id="Company" style="stroke:#A80036;stroke-width:1.5;" width="737" x="413.5" y="253"/><ellipse cx="751.25" cy="269" fill="#ADD1B2" rx="11" ry="11" style="stroke:#A80036;stroke-width:1.0;"/><path d="M754.0156,264.875 Q754.1719,264.6563 754.3594,264.5469 Q754.5469,264.4375 754.7656,264.4375 Q755.1406,264.4375 755.375,264.7031 Q755.6094,264.9531 755.6094,265.5625 L755.6094,267.0156 Q755.6094,267.625 755.375,267.8906 Q755.1406,268.1563 754.7656,268.1563 Q754.4219,268.1563 754.2188,267.9531 Q754.0156,267.7656 753.9063,267.25 Q753.8594,266.8906 753.6719,266.7031 Q753.3438,266.3281 752.7344,266.1094 Q752.125,265.8906 751.5,265.8906 Q750.7344,265.8906 750.0938,266.2188 Q749.4688,266.5469 748.9688,267.2969 Q748.4844,268.0469 748.4844,269.0781 L748.4844,270.1719 Q748.4844,271.4063 749.375,272.2344 Q750.2656,273.0469 751.8594,273.0469 Q752.7969,273.0469 753.4531,272.7969 Q753.8438,272.6406 754.2656,272.2031 Q754.5313,271.9375 754.6719,271.8594 Q754.8281,271.7813 755.0313,271.7813 Q755.3594,271.7813 755.6094,272.0469 Q755.875,272.2969 755.875,272.6406 Q755.875,272.9844 755.5313,273.3906 Q755.0313,273.9688 754.2344,274.2969 Q753.1563,274.75 751.8594,274.75 Q750.3438,274.75 749.1406,274.125 Q748.1563,273.625 747.4688,272.5625 Q746.7813,271.4844 746.7813,270.2031 L746.7813,269.0469 Q746.7813,267.7188 747.3906,266.5781 Q748.0156,265.4219 749.1094,264.8125 Q750.2031,264.1875 751.4375,264.1875 Q752.1719,264.1875 752.8125,264.3594 Q753.4688,264.5156 754.0156,264.875 Z " fill="#000000"/><text fill="#000000" font-family="sans-serif" font-size="12" lengthAdjust="spacing" textLength="53" x="771.75" y="273.9102">Company</text><line style="stroke:#A80036;stroke-width:1.5;" x1="414.5" x2="1149.5" y1="285" y2="285"/><text fill="#000000" font-family="sans-serif" font-size="11" lengthAdjust="spacing" textLength="90" x="419.5" y="300.4189">-designation String</text><line style="stroke:#A80036;stroke-width:1.0;" x1="414.5" x2="1149.5" y1="306.8359" y2="306.8359"/><text fill="#000000" font-family="sans-serif" font-size="11" lengthAdjust="spacing" textLength="725" x="419.5" y="322.2549">+createVaccinationCenter(name,address,phoneNumber,faxNumber,websiteAddress,openingAndClosingHours,slotDuration,maximumVaccinesPerSlot)</text><text fill="#000000" font-family="sans-serif" font-size="11" lengthAdjust="spacing" textLength="169" x="419.5" y="336.0908">+validateVaccinatonCenter(center)</text><text fill="#000000" font-family="sans-serif" font-size="11" lengthAdjust="spacing" textLength="158" x="419.5" y="349.9268">+saveVaccinationCenter(center)</text><text fill="#000000" font-family="sans-serif" font-size="11" lengthAdjust="spacing" textLength="152" x="419.5" y="363.7627">+addVaccinationCenter(center)</text><!--MD5=[30f5d80da7eaef66e26152e87f16c093]
class VaccinationCenterController--><rect codeLine="28" fill="#FEFECE" filter="url(#f1mv7tnhyejuaz)" height="75.6719" id="VaccinationCenterController" style="stroke:#A80036;stroke-width:1.5;" width="186" x="287" y="116"/><ellipse cx="302" cy="132" fill="#ADD1B2" rx="11" ry="11" style="stroke:#A80036;stroke-width:1.0;"/><path d="M304.7656,127.875 Q304.9219,127.6563 305.1094,127.5469 Q305.2969,127.4375 305.5156,127.4375 Q305.8906,127.4375 306.125,127.7031 Q306.3594,127.9531 306.3594,128.5625 L306.3594,130.0156 Q306.3594,130.625 306.125,130.8906 Q305.8906,131.1563 305.5156,131.1563 Q305.1719,131.1563 304.9688,130.9531 Q304.7656,130.7656 304.6563,130.25 Q304.6094,129.8906 304.4219,129.7031 Q304.0938,129.3281 303.4844,129.1094 Q302.875,128.8906 302.25,128.8906 Q301.4844,128.8906 300.8438,129.2188 Q300.2188,129.5469 299.7188,130.2969 Q299.2344,131.0469 299.2344,132.0781 L299.2344,133.1719 Q299.2344,134.4063 300.125,135.2344 Q301.0156,136.0469 302.6094,136.0469 Q303.5469,136.0469 304.2031,135.7969 Q304.5938,135.6406 305.0156,135.2031 Q305.2813,134.9375 305.4219,134.8594 Q305.5781,134.7813 305.7813,134.7813 Q306.1094,134.7813 306.3594,135.0469 Q306.625,135.2969 306.625,135.6406 Q306.625,135.9844 306.2813,136.3906 Q305.7813,136.9688 304.9844,137.2969 Q303.9063,137.75 302.6094,137.75 Q301.0938,137.75 299.8906,137.125 Q298.9063,136.625 298.2188,135.5625 Q297.5313,134.4844 297.5313,133.2031 L297.5313,132.0469 Q297.5313,130.7188 298.1406,129.5781 Q298.7656,128.4219 299.8594,127.8125 Q300.9531,127.1875 302.1875,127.1875 Q302.9219,127.1875 303.5625,127.3594 Q304.2188,127.5156 304.7656,127.875 Z " fill="#000000"/><text fill="#000000" font-family="sans-serif" font-size="12" lengthAdjust="spacing" textLength="154" x="316" y="136.9102">VaccinationCenterController</text><line style="stroke:#A80036;stroke-width:1.5;" x1="288" x2="472" y1="148" y2="148"/><line style="stroke:#A80036;stroke-width:1.0;" x1="288" x2="472" y1="156" y2="156"/><text fill="#000000" font-family="sans-serif" font-size="11" lengthAdjust="spacing" textLength="134" x="293" y="171.4189">+createVaccinationCenter()</text><text fill="#000000" font-family="sans-serif" font-size="11" lengthAdjust="spacing" textLength="127" x="293" y="185.2549">+saveVaccinationCenter()</text><!--MD5=[0949c93bb2ceac2c9377da7237d80f71]
class VaccinationCenterUI--><rect codeLine="34" fill="#FEFECE" filter="url(#f1mv7tnhyejuaz)" height="48" id="VaccinationCenterUI" style="stroke:#A80036;stroke-width:1.5;" width="144" x="308" y="7"/><ellipse cx="323" cy="23" fill="#ADD1B2" rx="11" ry="11" style="stroke:#A80036;stroke-width:1.0;"/><path d="M325.7656,18.875 Q325.9219,18.6563 326.1094,18.5469 Q326.2969,18.4375 326.5156,18.4375 Q326.8906,18.4375 327.125,18.7031 Q327.3594,18.9531 327.3594,19.5625 L327.3594,21.0156 Q327.3594,21.625 327.125,21.8906 Q326.8906,22.1563 326.5156,22.1563 Q326.1719,22.1563 325.9688,21.9531 Q325.7656,21.7656 325.6563,21.25 Q325.6094,20.8906 325.4219,20.7031 Q325.0938,20.3281 324.4844,20.1094 Q323.875,19.8906 323.25,19.8906 Q322.4844,19.8906 321.8438,20.2188 Q321.2188,20.5469 320.7188,21.2969 Q320.2344,22.0469 320.2344,23.0781 L320.2344,24.1719 Q320.2344,25.4063 321.125,26.2344 Q322.0156,27.0469 323.6094,27.0469 Q324.5469,27.0469 325.2031,26.7969 Q325.5938,26.6406 326.0156,26.2031 Q326.2813,25.9375 326.4219,25.8594 Q326.5781,25.7813 326.7813,25.7813 Q327.1094,25.7813 327.3594,26.0469 Q327.625,26.2969 327.625,26.6406 Q327.625,26.9844 327.2813,27.3906 Q326.7813,27.9688 325.9844,28.2969 Q324.9063,28.75 323.6094,28.75 Q322.0938,28.75 320.8906,28.125 Q319.9063,27.625 319.2188,26.5625 Q318.5313,25.4844 318.5313,24.2031 L318.5313,23.0469 Q318.5313,21.7188 319.1406,20.5781 Q319.7656,19.4219 320.8594,18.8125 Q321.9531,18.1875 323.1875,18.1875 Q323.9219,18.1875 324.5625,18.3594 Q325.2188,18.5156 325.7656,18.875 Z " fill="#000000"/><text fill="#000000" font-family="sans-serif" font-size="12" lengthAdjust="spacing" textLength="112" x="337" y="27.9102">VaccinationCenterUI</text><line style="stroke:#A80036;stroke-width:1.5;" x1="309" x2="451" y1="39" y2="39"/><line style="stroke:#A80036;stroke-width:1.5;" x1="309" x2="451" y1="47" y2="47"/><!--MD5=[2bb26c741d8a8989873ebb0fda8a5667]
link VaccinationCenterUI to VaccinationCenterController--><path codeLine="36" d="M380,55.04 C380,70.71 380,91.91 380,110.58 " fill="none" id="VaccinationCenterUI-to-VaccinationCenterController" style="stroke:#A80036;stroke-width:1.0;stroke-dasharray:7.0,7.0;"/><polygon fill="#A80036" points="380,115.77,384,106.77,380,110.77,376,106.77,380,115.77" style="stroke:#A80036;stroke-width:1.0;"/><!--MD5=[f1b0b71cb0e083e22e413376c9309a8e]
link VaccinationCenterController to Company--><path codeLine="37" d="M473.24,191.07 C519.28,208.88 576.03,230.83 628.27,251.04 " fill="none" id="VaccinationCenterController-to-Company" style="stroke:#A80036;stroke-width:1.0;stroke-dasharray:7.0,7.0;"/><polygon fill="#A80036" points="632.99,252.86,626.0486,245.873,628.3292,251.0498,623.1524,253.3304,632.99,252.86" style="stroke:#A80036;stroke-width:1.0;"/><!--MD5=[eebe9b198877275d05dd12630ed9e401]
link Company to VaccinationCenter--><path codeLine="38" d="M685.61,370.02 C647.6,392.7 602.77,419.44 559.63,445.18 " fill="none" id="Company-to-VaccinationCenter" style="stroke:#A80036;stroke-width:1.0;"/><polygon fill="#A80036" points="555.2,447.83,564.9754,446.6295,559.4875,445.2575,560.8595,439.7696,555.2,447.83" style="stroke:#A80036;stroke-width:1.0;"/><polygon fill="#000000" points="641.2939,406.614,632.0204,408.7244,635.0319,413.7722,641.2939,406.614" style="stroke:#000000;stroke-width:1.0;"/><text fill="#000000" font-family="sans-serif" font-size="13" lengthAdjust="spacing" textLength="60" x="646" y="414.4951">belongs to</text><text fill="#000000" font-family="sans-serif" font-size="13" lengthAdjust="spacing" textLength="7" x="666.4359" y="391.6327">1</text><text fill="#000000" font-family="sans-serif" font-size="13" lengthAdjust="spacing" textLength="5" x="562.7333" y="437.0493">*</text><!--MD5=[8eeecba333e79c9a3f008f77e540b32f]
link VaccinationCenterController to VaccinationCenter--><path codeLine="39" d="M380.85,192.23 C382.16,249.08 384.7,359.63 386.6,442.28 " fill="none" id="VaccinationCenterController-to-VaccinationCenter" style="stroke:#A80036;stroke-width:1.0;stroke-dasharray:7.0,7.0;"/><polygon fill="#A80036" points="386.72,447.69,390.5127,438.6007,386.6054,442.6913,382.5148,438.784,386.72,447.69" style="stroke:#A80036;stroke-width:1.0;"/><!--MD5=[7e6115ec78be136be1922424b2ccb07f]
@startuml US09_CD
skinparam classAttributeIconSize 0

class VaccinationCenter {
  - name String
  - address String
  - phoneNumber int
  - emailAddress String
  - faxNumber int
  - websiteAddress String
  - openingAndClosingHours String
  - slotDuration int
  - maximumVaccinesPerSlot int
  - coordinator COORDINATOR
  - - -
 +VaccinationCenter(name,address,phoneNumber,faxNumber,websiteAddress,openingAndClosingHours,slotDuration,maximumVaccinesPerSlot,coordinator)
}


class Company {
  -designation String
  - - -
  +createVaccinationCenter(name,address,phoneNumber,faxNumber,websiteAddress,openingAndClosingHours,slotDuration,maximumVaccinesPerSlot)
  +validateVaccinatonCenter(center)
  +saveVaccinationCenter(center)
  +addVaccinationCenter(center)
}

class VaccinationCenterController {
  - - -
  +createVaccinationCenter()
  +saveVaccinationCenter()
}

class VaccinationCenterUI {}

VaccinationCenterUI ..> VaccinationCenterController
VaccinationCenterController ..> Company
Company "1" - -> "*" VaccinationCenter : belongs to <
VaccinationCenterController ..> VaccinationCenter

@enduml

PlantUML version 1.2022.0(Tue Jan 11 16:16:42 WET 2022)
(GPL source distribution)
Java Runtime: Java(TM) SE Runtime Environment
JVM: Java HotSpot(TM) 64-Bit Server VM
Default Encoding: Cp1252
Language: pt
Country: PT
--></g></svg>