<?xml version="1.0" encoding="UTF-8" standalone="no"?><svg xmlns="http://www.w3.org/2000/svg" xmlns:xlink="http://www.w3.org/1999/xlink" contentScriptType="application/ecmascript" contentStyleType="text/css" height="690px" preserveAspectRatio="none" style="width:1284px;height:690px;background:#FFFFFF;" version="1.1" viewBox="0 0 1284 690" width="1284px" zoomAndPan="magnify"><defs><filter height="300%" id="fruioxqs7jt9d" width="300%" x="-1" y="-1"><feGaussianBlur result="blurOut" stdDeviation="2.0"/><feColorMatrix in="blurOut" result="blurOut2" type="matrix" values="0 0 0 0 0 0 0 0 0 0 0 0 0 0 0 0 0 0 .4 0"/><feOffset dx="4.0" dy="4.0" in="blurOut2" result="blurOut3"/><feBlend in="SourceGraphic" in2="blurOut3" mode="normal"/></filter></defs><g><!--MD5=[de60e6d4f424ae4d0522096f76a59010]
class VaccinationCenter--><rect codeLine="3" fill="#FEFECE" filter="url(#fruioxqs7jt9d)" height="214.0313" id="VaccinationCenter" style="stroke:#A80036;stroke-width:1.5;" width="844" x="7" y="462"/><ellipse cx="374.75" cy="478" fill="#ADD1B2" rx="11" ry="11" style="stroke:#A80036;stroke-width:1.0;"/><path d="M377.5156,473.875 Q377.6719,473.6563 377.8594,473.5469 Q378.0469,473.4375 378.2656,473.4375 Q378.6406,473.4375 378.875,473.7031 Q379.1094,473.9531 379.1094,474.5625 L379.1094,476.0156 Q379.1094,476.625 378.875,476.8906 Q378.6406,477.1563 378.2656,477.1563 Q377.9219,477.1563 377.7188,476.9531 Q377.5156,476.7656 377.4063,476.25 Q377.3594,475.8906 377.1719,475.7031 Q376.8438,475.3281 376.2344,475.1094 Q375.625,474.8906 375,474.8906 Q374.2344,474.8906 373.5938,475.2188 Q372.9688,475.5469 372.4688,476.2969 Q371.9844,477.0469 371.9844,478.0781 L371.9844,479.1719 Q371.9844,480.4063 372.875,481.2344 Q373.7656,482.0469 375.3594,482.0469 Q376.2969,482.0469 376.9531,481.7969 Q377.3438,481.6406 377.7656,481.2031 Q378.0313,480.9375 378.1719,480.8594 Q378.3281,480.7813 378.5313,480.7813 Q378.8594,480.7813 379.1094,481.0469 Q379.375,481.2969 379.375,481.6406 Q379.375,481.9844 379.0313,482.3906 Q378.5313,482.9688 377.7344,483.2969 Q376.6563,483.75 375.3594,483.75 Q373.8438,483.75 372.6406,483.125 Q371.6563,482.625 370.9688,481.5625 Q370.2813,480.4844 370.2813,479.2031 L370.2813,478.0469 Q370.2813,476.7188 370.8906,475.5781 Q371.5156,474.4219 372.6094,473.8125 Q373.7031,473.1875 374.9375,473.1875 Q375.6719,473.1875 376.3125,473.3594 Q376.9688,473.5156 377.5156,473.875 Z " fill="#000000"/><text fill="#000000" font-family="sans-serif" font-size="12" lengthAdjust="spacing" textLength="100" x="395.25" y="482.9102">VaccinationCenter</text><line style="stroke:#A80036;stroke-width:1.5;" x1="8" x2="850" y1="494" y2="494"/><text fill="#000000" font-family="sans-serif" font-size="11" lengthAdjust="spacing" textLength="61" x="13" y="509.4189">-name String</text><text fill="#000000" font-family="sans-serif" font-size="11" lengthAdjust="spacing" textLength="75" x="13" y="523.2549">-address String</text><text fill="#000000" font-family="sans-serif" font-size="11" lengthAdjust="spacing" textLength="101" x="13" y="537.0908">-emailAddress String</text><text fill="#000000" font-family="sans-serif" font-size="11" lengthAdjust="spacing" textLength="85" x="13" y="550.9268">-phoneNumber int</text><text fill="#000000" font-family="sans-serif" font-size="11" lengthAdjust="spacing" textLength="71" x="13" y="564.7627">-faxNumber int</text><text fill="#000000" font-family="sans-serif" font-size="11" lengthAdjust="spacing" textLength="116" x="13" y="578.5986">-websiteAddress String</text><text fill="#000000" font-family="sans-serif" font-size="11" lengthAdjust="spacing" textLength="102" x="13" y="592.4346">-openingHours String</text><text fill="#000000" font-family="sans-serif" font-size="11" lengthAdjust="spacing" textLength="98" x="13" y="606.2705">-closingHours String</text><text fill="#000000" font-family="sans-serif" font-size="11" lengthAdjust="spacing" textLength="75" x="13" y="620.1064">-slotDuration int</text><text fill="#000000" font-family="sans-serif" font-size="11" lengthAdjust="spacing" textLength="142" x="13" y="633.9424">-maximumVaccinesPerSlot int</text><text fill="#000000" font-family="sans-serif" font-size="11" lengthAdjust="spacing" textLength="116" x="13" y="647.7783">-coordinator EMPLOYEE</text><line style="stroke:#A80036;stroke-width:1.0;" x1="8" x2="850" y1="654.1953" y2="654.1953"/><text fill="#000000" font-family="sans-serif" font-size="11" lengthAdjust="spacing" textLength="832" x="13" y="669.6143">+VaccinationCenter(name,address,emailAddress,phoneNumber,faxNumber,websiteAddress,openingHours,closingHours,slotDuration,maximumVaccinesPerSlot,coordinator)</text><!--MD5=[02e4b9b7573f1156f41e60aa5b4e25a4]
class Company--><rect codeLine="20" fill="#FEFECE" filter="url(#fruioxqs7jt9d)" height="131.0156" id="Company" style="stroke:#A80036;stroke-width:1.5;" width="817" x="453.5" y="253"/><ellipse cx="831.25" cy="269" fill="#ADD1B2" rx="11" ry="11" style="stroke:#A80036;stroke-width:1.0;"/><path d="M834.0156,264.875 Q834.1719,264.6563 834.3594,264.5469 Q834.5469,264.4375 834.7656,264.4375 Q835.1406,264.4375 835.375,264.7031 Q835.6094,264.9531 835.6094,265.5625 L835.6094,267.0156 Q835.6094,267.625 835.375,267.8906 Q835.1406,268.1563 834.7656,268.1563 Q834.4219,268.1563 834.2188,267.9531 Q834.0156,267.7656 833.9063,267.25 Q833.8594,266.8906 833.6719,266.7031 Q833.3438,266.3281 832.7344,266.1094 Q832.125,265.8906 831.5,265.8906 Q830.7344,265.8906 830.0938,266.2188 Q829.4688,266.5469 828.9688,267.2969 Q828.4844,268.0469 828.4844,269.0781 L828.4844,270.1719 Q828.4844,271.4063 829.375,272.2344 Q830.2656,273.0469 831.8594,273.0469 Q832.7969,273.0469 833.4531,272.7969 Q833.8438,272.6406 834.2656,272.2031 Q834.5313,271.9375 834.6719,271.8594 Q834.8281,271.7813 835.0313,271.7813 Q835.3594,271.7813 835.6094,272.0469 Q835.875,272.2969 835.875,272.6406 Q835.875,272.9844 835.5313,273.3906 Q835.0313,273.9688 834.2344,274.2969 Q833.1563,274.75 831.8594,274.75 Q830.3438,274.75 829.1406,274.125 Q828.1563,273.625 827.4688,272.5625 Q826.7813,271.4844 826.7813,270.2031 L826.7813,269.0469 Q826.7813,267.7188 827.3906,266.5781 Q828.0156,265.4219 829.1094,264.8125 Q830.2031,264.1875 831.4375,264.1875 Q832.1719,264.1875 832.8125,264.3594 Q833.4688,264.5156 834.0156,264.875 Z " fill="#000000"/><text fill="#000000" font-family="sans-serif" font-size="12" lengthAdjust="spacing" textLength="53" x="851.75" y="273.9102">Company</text><line style="stroke:#A80036;stroke-width:1.5;" x1="454.5" x2="1269.5" y1="285" y2="285"/><text fill="#000000" font-family="sans-serif" font-size="11" lengthAdjust="spacing" textLength="90" x="459.5" y="300.4189">-designation String</text><line style="stroke:#A80036;stroke-width:1.0;" x1="454.5" x2="1269.5" y1="306.8359" y2="306.8359"/><text fill="#000000" font-family="sans-serif" font-size="11" lengthAdjust="spacing" textLength="805" x="459.5" y="322.2549">+createVaccinationCenter(name,address,emailAddress,phoneNumber,faxNumber,websiteAddress,openingHours,closingHours,slotDuration,maximumVaccinesPerSlot)</text><text fill="#000000" font-family="sans-serif" font-size="11" lengthAdjust="spacing" textLength="169" x="459.5" y="336.0908">+validateVaccinatonCenter(center)</text><text fill="#000000" font-family="sans-serif" font-size="11" lengthAdjust="spacing" textLength="158" x="459.5" y="349.9268">+saveVaccinationCenter(center)</text><text fill="#000000" font-family="sans-serif" font-size="11" lengthAdjust="spacing" textLength="150" x="459.5" y="363.7627">-addVaccinationCenter(center)</text><text fill="#000000" font-family="sans-serif" font-size="11" lengthAdjust="spacing" textLength="117" x="459.5" y="377.5986">+getEmployeeByRoleId()</text><!--MD5=[30f5d80da7eaef66e26152e87f16c093]
class VaccinationCenterController--><rect codeLine="30" fill="#FEFECE" filter="url(#fruioxqs7jt9d)" height="75.6719" id="VaccinationCenterController" style="stroke:#A80036;stroke-width:1.5;" width="817" x="11.5" y="116"/><ellipse cx="338.75" cy="132" fill="#ADD1B2" rx="11" ry="11" style="stroke:#A80036;stroke-width:1.0;"/><path d="M341.5156,127.875 Q341.6719,127.6563 341.8594,127.5469 Q342.0469,127.4375 342.2656,127.4375 Q342.6406,127.4375 342.875,127.7031 Q343.1094,127.9531 343.1094,128.5625 L343.1094,130.0156 Q343.1094,130.625 342.875,130.8906 Q342.6406,131.1563 342.2656,131.1563 Q341.9219,131.1563 341.7188,130.9531 Q341.5156,130.7656 341.4063,130.25 Q341.3594,129.8906 341.1719,129.7031 Q340.8438,129.3281 340.2344,129.1094 Q339.625,128.8906 339,128.8906 Q338.2344,128.8906 337.5938,129.2188 Q336.9688,129.5469 336.4688,130.2969 Q335.9844,131.0469 335.9844,132.0781 L335.9844,133.1719 Q335.9844,134.4063 336.875,135.2344 Q337.7656,136.0469 339.3594,136.0469 Q340.2969,136.0469 340.9531,135.7969 Q341.3438,135.6406 341.7656,135.2031 Q342.0313,134.9375 342.1719,134.8594 Q342.3281,134.7813 342.5313,134.7813 Q342.8594,134.7813 343.1094,135.0469 Q343.375,135.2969 343.375,135.6406 Q343.375,135.9844 343.0313,136.3906 Q342.5313,136.9688 341.7344,137.2969 Q340.6563,137.75 339.3594,137.75 Q337.8438,137.75 336.6406,137.125 Q335.6563,136.625 334.9688,135.5625 Q334.2813,134.4844 334.2813,133.2031 L334.2813,132.0469 Q334.2813,130.7188 334.8906,129.5781 Q335.5156,128.4219 336.6094,127.8125 Q337.7031,127.1875 338.9375,127.1875 Q339.6719,127.1875 340.3125,127.3594 Q340.9688,127.5156 341.5156,127.875 Z " fill="#000000"/><text fill="#000000" font-family="sans-serif" font-size="12" lengthAdjust="spacing" textLength="154" x="359.25" y="136.9102">VaccinationCenterController</text><line style="stroke:#A80036;stroke-width:1.5;" x1="12.5" x2="827.5" y1="148" y2="148"/><line style="stroke:#A80036;stroke-width:1.0;" x1="12.5" x2="827.5" y1="156" y2="156"/><text fill="#000000" font-family="sans-serif" font-size="11" lengthAdjust="spacing" textLength="805" x="17.5" y="171.4189">+createVaccinationCenter(name,address,emailAddress,phoneNumber,faxNumber,websiteAddress,openingHours,closingHours,slotDuration,maximumVaccinesPerSlot)</text><text fill="#000000" font-family="sans-serif" font-size="11" lengthAdjust="spacing" textLength="158" x="17.5" y="185.2549">+saveVaccinationCenter(center)</text><!--MD5=[0949c93bb2ceac2c9377da7237d80f71]
class VaccinationCenterUI--><rect codeLine="36" fill="#FEFECE" filter="url(#fruioxqs7jt9d)" height="48" id="VaccinationCenterUI" style="stroke:#A80036;stroke-width:1.5;" width="144" x="348" y="7"/><ellipse cx="363" cy="23" fill="#ADD1B2" rx="11" ry="11" style="stroke:#A80036;stroke-width:1.0;"/><path d="M365.7656,18.875 Q365.9219,18.6563 366.1094,18.5469 Q366.2969,18.4375 366.5156,18.4375 Q366.8906,18.4375 367.125,18.7031 Q367.3594,18.9531 367.3594,19.5625 L367.3594,21.0156 Q367.3594,21.625 367.125,21.8906 Q366.8906,22.1563 366.5156,22.1563 Q366.1719,22.1563 365.9688,21.9531 Q365.7656,21.7656 365.6563,21.25 Q365.6094,20.8906 365.4219,20.7031 Q365.0938,20.3281 364.4844,20.1094 Q363.875,19.8906 363.25,19.8906 Q362.4844,19.8906 361.8438,20.2188 Q361.2188,20.5469 360.7188,21.2969 Q360.2344,22.0469 360.2344,23.0781 L360.2344,24.1719 Q360.2344,25.4063 361.125,26.2344 Q362.0156,27.0469 363.6094,27.0469 Q364.5469,27.0469 365.2031,26.7969 Q365.5938,26.6406 366.0156,26.2031 Q366.2813,25.9375 366.4219,25.8594 Q366.5781,25.7813 366.7813,25.7813 Q367.1094,25.7813 367.3594,26.0469 Q367.625,26.2969 367.625,26.6406 Q367.625,26.9844 367.2813,27.3906 Q366.7813,27.9688 365.9844,28.2969 Q364.9063,28.75 363.6094,28.75 Q362.0938,28.75 360.8906,28.125 Q359.9063,27.625 359.2188,26.5625 Q358.5313,25.4844 358.5313,24.2031 L358.5313,23.0469 Q358.5313,21.7188 359.1406,20.5781 Q359.7656,19.4219 360.8594,18.8125 Q361.9531,18.1875 363.1875,18.1875 Q363.9219,18.1875 364.5625,18.3594 Q365.2188,18.5156 365.7656,18.875 Z " fill="#000000"/><text fill="#000000" font-family="sans-serif" font-size="12" lengthAdjust="spacing" textLength="112" x="377" y="27.9102">VaccinationCenterUI</text><line style="stroke:#A80036;stroke-width:1.5;" x1="349" x2="491" y1="39" y2="39"/><line style="stroke:#A80036;stroke-width:1.5;" x1="349" x2="491" y1="47" y2="47"/><!--MD5=[2bb26c741d8a8989873ebb0fda8a5667]
link VaccinationCenterUI to VaccinationCenterController--><path codeLine="38" d="M420,55.04 C420,70.71 420,91.91 420,110.58 " fill="none" id="VaccinationCenterUI-to-VaccinationCenterController" style="stroke:#A80036;stroke-width:1.0;stroke-dasharray:7.0,7.0;"/><polygon fill="#A80036" points="420,115.77,424,106.77,420,110.77,416,106.77,420,115.77" style="stroke:#A80036;stroke-width:1.0;"/><!--MD5=[f1b0b71cb0e083e22e413376c9309a8e]
link VaccinationCenterController to Company--><path codeLine="39" d="M520.85,192.08 C568.46,209.58 626.76,231.01 681.6,251.18 " fill="none" id="VaccinationCenterController-to-Company" style="stroke:#A80036;stroke-width:1.0;stroke-dasharray:7.0,7.0;"/><polygon fill="#A80036" points="686.56,253,679.4939,246.1393,681.8673,251.2741,676.7325,253.6476,686.56,253" style="stroke:#A80036;stroke-width:1.0;"/><!--MD5=[eebe9b198877275d05dd12630ed9e401]
link Company to VaccinationCenter--><path codeLine="40" d="M749.36,384.14 C709.39,407.08 663.23,433.58 618.61,459.18 " fill="none" id="Company-to-VaccinationCenter" style="stroke:#A80036;stroke-width:1.0;"/><polygon fill="#A80036" points="614.02,461.82,623.8166,460.8069,618.3559,459.3301,619.8327,453.8694,614.02,461.82" style="stroke:#A80036;stroke-width:1.0;"/><polygon fill="#000000" points="706.3366,420.6869,697.0288,422.6403,699.9546,427.7383,706.3366,420.6869" style="stroke:#000000;stroke-width:1.0;"/><text fill="#000000" font-family="sans-serif" font-size="13" lengthAdjust="spacing" textLength="60" x="711" y="428.4951">belongs to</text><text fill="#000000" font-family="sans-serif" font-size="13" lengthAdjust="spacing" textLength="7" x="729.6572" y="405.7079">1</text><text fill="#000000" font-family="sans-serif" font-size="13" lengthAdjust="spacing" textLength="5" x="621.8534" y="451.2278">*</text><!--MD5=[8eeecba333e79c9a3f008f77e540b32f]
link VaccinationCenterController to VaccinationCenter--><path codeLine="41" d="M420.81,192.01 C422.09,250.93 424.65,368.37 426.57,456.4 " fill="none" id="VaccinationCenterController-to-VaccinationCenter" style="stroke:#A80036;stroke-width:1.0;stroke-dasharray:7.0,7.0;"/><polygon fill="#A80036" points="426.68,461.62,430.4992,452.5418,426.58,456.621,422.5008,452.7018,426.68,461.62" style="stroke:#A80036;stroke-width:1.0;"/><!--MD5=[c4e5a14dbb092ff65ebedca6813bd310]
@startuml US09_CD
skinparam classAttributeIconSize 0

class VaccinationCenter {
  - name String
  - address String
  - emailAddress String
  - phoneNumber int
  - faxNumber int
  - websiteAddress String
  - openingHours String
  - closingHours String
  - slotDuration int
  - maximumVaccinesPerSlot int
  - coordinator EMPLOYEE
  - - -
 +VaccinationCenter(name,address,emailAddress,phoneNumber,faxNumber,websiteAddress,openingHours,closingHours,slotDuration,maximumVaccinesPerSlot,coordinator)
}


class Company {
  -designation String
  - - -
  +createVaccinationCenter(name,address,emailAddress,phoneNumber,faxNumber,websiteAddress,openingHours,closingHours,slotDuration,maximumVaccinesPerSlot)
  +validateVaccinatonCenter(center)
  +saveVaccinationCenter(center)
  -addVaccinationCenter(center)
  +getEmployeeByRoleId()
}

class VaccinationCenterController {
  - - -
  +createVaccinationCenter(name,address,emailAddress,phoneNumber,faxNumber,websiteAddress,openingHours,closingHours,slotDuration,maximumVaccinesPerSlot)
  +saveVaccinationCenter(center)
}

class VaccinationCenterUI {}

VaccinationCenterUI ..> VaccinationCenterController
VaccinationCenterController ..> Company
Company "1" - -> "*" VaccinationCenter : belongs to <
VaccinationCenterController ..> VaccinationCenter

@enduml

PlantUML version 1.2022.0(Tue Jan 11 16:16:42 WET 2022)
(GPL source distribution)
Java Runtime: Java(TM) SE Runtime Environment
JVM: Java HotSpot(TM) 64-Bit Server VM
Default Encoding: Cp1252
Language: pt
Country: PT
--></g></svg>