<?xml version="1.0" encoding="UTF-8" standalone="no"?><svg xmlns="http://www.w3.org/2000/svg" xmlns:xlink="http://www.w3.org/1999/xlink" contentScriptType="application/ecmascript" contentStyleType="text/css" height="343px" preserveAspectRatio="none" style="width:773px;height:343px;background:#FFFFFF;" version="1.1" viewBox="0 0 773 343" width="773px" zoomAndPan="magnify"><defs><filter height="300%" id="f1wq4b735gq02c" width="300%" x="-1" y="-1"><feGaussianBlur result="blurOut" stdDeviation="2.0"/><feColorMatrix in="blurOut" result="blurOut2" type="matrix" values="0 0 0 0 0 0 0 0 0 0 0 0 0 0 0 0 0 0 .4 0"/><feOffset dx="4.0" dy="4.0" in="blurOut2" result="blurOut3"/><feBlend in="SourceGraphic" in2="blurOut3" mode="normal"/></filter></defs><g><!--MD5=[03960189e81aa2c066c762ffabbee709]
class Receptionist--><rect codeLine="5" fill="#FEFECE" filter="url(#f1wq4b735gq02c)" height="136.8516" id="Receptionist" style="stroke:#A80036;stroke-width:1.5;" width="107" x="204" y="7"/><ellipse cx="221.7" cy="23" fill="#ADD1B2" rx="11" ry="11" style="stroke:#A80036;stroke-width:1.0;"/><path d="M224.4656,18.875 Q224.6219,18.6563 224.8094,18.5469 Q224.9969,18.4375 225.2156,18.4375 Q225.5906,18.4375 225.825,18.7031 Q226.0594,18.9531 226.0594,19.5625 L226.0594,21.0156 Q226.0594,21.625 225.825,21.8906 Q225.5906,22.1563 225.2156,22.1563 Q224.8719,22.1563 224.6688,21.9531 Q224.4656,21.7656 224.3563,21.25 Q224.3094,20.8906 224.1219,20.7031 Q223.7938,20.3281 223.1844,20.1094 Q222.575,19.8906 221.95,19.8906 Q221.1844,19.8906 220.5438,20.2188 Q219.9188,20.5469 219.4188,21.2969 Q218.9344,22.0469 218.9344,23.0781 L218.9344,24.1719 Q218.9344,25.4063 219.825,26.2344 Q220.7156,27.0469 222.3094,27.0469 Q223.2469,27.0469 223.9031,26.7969 Q224.2938,26.6406 224.7156,26.2031 Q224.9813,25.9375 225.1219,25.8594 Q225.2781,25.7813 225.4813,25.7813 Q225.8094,25.7813 226.0594,26.0469 Q226.325,26.2969 226.325,26.6406 Q226.325,26.9844 225.9813,27.3906 Q225.4813,27.9688 224.6844,28.2969 Q223.6063,28.75 222.3094,28.75 Q220.7938,28.75 219.5906,28.125 Q218.6063,27.625 217.9188,26.5625 Q217.2313,25.4844 217.2313,24.2031 L217.2313,23.0469 Q217.2313,21.7188 217.8406,20.5781 Q218.4656,19.4219 219.5594,18.8125 Q220.6531,18.1875 221.8875,18.1875 Q222.6219,18.1875 223.2625,18.3594 Q223.9188,18.5156 224.4656,18.875 Z " fill="#000000"/><text fill="#000000" font-family="sans-serif" font-size="12" lengthAdjust="spacing" textLength="69" x="236.3" y="27.9102">Receptionist</text><line style="stroke:#A80036;stroke-width:1.5;" x1="205" x2="310" y1="39" y2="39"/><text fill="#000000" font-family="sans-serif" font-size="11" lengthAdjust="spacing" textLength="30" x="210" y="54.4189">-name</text><text fill="#000000" font-family="sans-serif" font-size="11" lengthAdjust="spacing" textLength="71" x="210" y="68.2549">-phoneNumber</text><text fill="#000000" font-family="sans-serif" font-size="11" lengthAdjust="spacing" textLength="28" x="210" y="82.0908">-email</text><text fill="#000000" font-family="sans-serif" font-size="11" lengthAdjust="spacing" textLength="54" x="210" y="95.9268">-password</text><text fill="#000000" font-family="sans-serif" font-size="11" lengthAdjust="spacing" textLength="44" x="210" y="109.7627">-address</text><text fill="#000000" font-family="sans-serif" font-size="11" lengthAdjust="spacing" textLength="95" x="210" y="123.5986">-citizenCardNumber</text><text fill="#000000" font-family="sans-serif" font-size="11" lengthAdjust="spacing" textLength="30" x="210" y="137.4346">-roleId</text><!--MD5=[950bab46f39ba9ae59885963abb53c18]
class Arrival--><rect codeLine="15" fill="#FEFECE" filter="url(#f1wq4b735gq02c)" height="53.8359" id="Arrival" style="stroke:#A80036;stroke-width:1.5;" width="65" x="464" y="138.5"/><ellipse cx="479" cy="154.5" fill="#ADD1B2" rx="11" ry="11" style="stroke:#A80036;stroke-width:1.0;"/><path d="M481.7656,150.375 Q481.9219,150.1563 482.1094,150.0469 Q482.2969,149.9375 482.5156,149.9375 Q482.8906,149.9375 483.125,150.2031 Q483.3594,150.4531 483.3594,151.0625 L483.3594,152.5156 Q483.3594,153.125 483.125,153.3906 Q482.8906,153.6563 482.5156,153.6563 Q482.1719,153.6563 481.9688,153.4531 Q481.7656,153.2656 481.6563,152.75 Q481.6094,152.3906 481.4219,152.2031 Q481.0938,151.8281 480.4844,151.6094 Q479.875,151.3906 479.25,151.3906 Q478.4844,151.3906 477.8438,151.7188 Q477.2188,152.0469 476.7188,152.7969 Q476.2344,153.5469 476.2344,154.5781 L476.2344,155.6719 Q476.2344,156.9063 477.125,157.7344 Q478.0156,158.5469 479.6094,158.5469 Q480.5469,158.5469 481.2031,158.2969 Q481.5938,158.1406 482.0156,157.7031 Q482.2813,157.4375 482.4219,157.3594 Q482.5781,157.2813 482.7813,157.2813 Q483.1094,157.2813 483.3594,157.5469 Q483.625,157.7969 483.625,158.1406 Q483.625,158.4844 483.2813,158.8906 Q482.7813,159.4688 481.9844,159.7969 Q480.9063,160.25 479.6094,160.25 Q478.0938,160.25 476.8906,159.625 Q475.9063,159.125 475.2188,158.0625 Q474.5313,156.9844 474.5313,155.7031 L474.5313,154.5469 Q474.5313,153.2188 475.1406,152.0781 Q475.7656,150.9219 476.8594,150.3125 Q477.9531,149.6875 479.1875,149.6875 Q479.9219,149.6875 480.5625,149.8594 Q481.2188,150.0156 481.7656,150.375 Z " fill="#000000"/><text fill="#000000" font-family="sans-serif" font-size="12" lengthAdjust="spacing" textLength="33" x="493" y="159.4102">Arrival</text><line style="stroke:#A80036;stroke-width:1.5;" x1="465" x2="528" y1="170.5" y2="170.5"/><text fill="#000000" font-family="sans-serif" font-size="11" lengthAdjust="spacing" textLength="25" x="470" y="185.9189">-date</text><!--MD5=[c508b5b6bbe276ff5e2700b6641f837f]
class Appointment--><rect codeLine="19" fill="#FEFECE" filter="url(#f1wq4b735gq02c)" height="40" id="Appointment" style="stroke:#A80036;stroke-width:1.5;" width="101" x="658" y="145.5"/><ellipse cx="673" cy="161.5" fill="#ADD1B2" rx="11" ry="11" style="stroke:#A80036;stroke-width:1.0;"/><path d="M675.7656,157.375 Q675.9219,157.1563 676.1094,157.0469 Q676.2969,156.9375 676.5156,156.9375 Q676.8906,156.9375 677.125,157.2031 Q677.3594,157.4531 677.3594,158.0625 L677.3594,159.5156 Q677.3594,160.125 677.125,160.3906 Q676.8906,160.6563 676.5156,160.6563 Q676.1719,160.6563 675.9688,160.4531 Q675.7656,160.2656 675.6563,159.75 Q675.6094,159.3906 675.4219,159.2031 Q675.0938,158.8281 674.4844,158.6094 Q673.875,158.3906 673.25,158.3906 Q672.4844,158.3906 671.8438,158.7188 Q671.2188,159.0469 670.7188,159.7969 Q670.2344,160.5469 670.2344,161.5781 L670.2344,162.6719 Q670.2344,163.9063 671.125,164.7344 Q672.0156,165.5469 673.6094,165.5469 Q674.5469,165.5469 675.2031,165.2969 Q675.5938,165.1406 676.0156,164.7031 Q676.2813,164.4375 676.4219,164.3594 Q676.5781,164.2813 676.7813,164.2813 Q677.1094,164.2813 677.3594,164.5469 Q677.625,164.7969 677.625,165.1406 Q677.625,165.4844 677.2813,165.8906 Q676.7813,166.4688 675.9844,166.7969 Q674.9063,167.25 673.6094,167.25 Q672.0938,167.25 670.8906,166.625 Q669.9063,166.125 669.2188,165.0625 Q668.5313,163.9844 668.5313,162.7031 L668.5313,161.5469 Q668.5313,160.2188 669.1406,159.0781 Q669.7656,157.9219 670.8594,157.3125 Q671.9531,156.6875 673.1875,156.6875 Q673.9219,156.6875 674.5625,156.8594 Q675.2188,157.0156 675.7656,157.375 Z " fill="#000000"/><text fill="#000000" font-family="sans-serif" font-size="12" lengthAdjust="spacing" textLength="69" x="687" y="166.4102">Appointment</text><line style="stroke:#A80036;stroke-width:1.5;" x1="659" x2="758" y1="177.5" y2="177.5"/><!--MD5=[72be06cc7ae02ccc98efe28a50e62246]
class SNSUser--><rect codeLine="21" fill="#FEFECE" filter="url(#f1wq4b735gq02c)" height="150.6875" id="SNSUser" style="stroke:#A80036;stroke-width:1.5;" width="84" x="215.5" y="179"/><ellipse cx="230.5" cy="195" fill="#ADD1B2" rx="11" ry="11" style="stroke:#A80036;stroke-width:1.0;"/><path d="M233.2656,190.875 Q233.4219,190.6563 233.6094,190.5469 Q233.7969,190.4375 234.0156,190.4375 Q234.3906,190.4375 234.625,190.7031 Q234.8594,190.9531 234.8594,191.5625 L234.8594,193.0156 Q234.8594,193.625 234.625,193.8906 Q234.3906,194.1563 234.0156,194.1563 Q233.6719,194.1563 233.4688,193.9531 Q233.2656,193.7656 233.1563,193.25 Q233.1094,192.8906 232.9219,192.7031 Q232.5938,192.3281 231.9844,192.1094 Q231.375,191.8906 230.75,191.8906 Q229.9844,191.8906 229.3438,192.2188 Q228.7188,192.5469 228.2188,193.2969 Q227.7344,194.0469 227.7344,195.0781 L227.7344,196.1719 Q227.7344,197.4063 228.625,198.2344 Q229.5156,199.0469 231.1094,199.0469 Q232.0469,199.0469 232.7031,198.7969 Q233.0938,198.6406 233.5156,198.2031 Q233.7813,197.9375 233.9219,197.8594 Q234.0781,197.7813 234.2813,197.7813 Q234.6094,197.7813 234.8594,198.0469 Q235.125,198.2969 235.125,198.6406 Q235.125,198.9844 234.7813,199.3906 Q234.2813,199.9688 233.4844,200.2969 Q232.4063,200.75 231.1094,200.75 Q229.5938,200.75 228.3906,200.125 Q227.4063,199.625 226.7188,198.5625 Q226.0313,197.4844 226.0313,196.2031 L226.0313,195.0469 Q226.0313,193.7188 226.6406,192.5781 Q227.2656,191.4219 228.3594,190.8125 Q229.4531,190.1875 230.6875,190.1875 Q231.4219,190.1875 232.0625,190.3594 Q232.7188,190.5156 233.2656,190.875 Z " fill="#000000"/><text fill="#000000" font-family="sans-serif" font-size="12" lengthAdjust="spacing" textLength="52" x="244.5" y="199.9102">SNSUser</text><line style="stroke:#A80036;stroke-width:1.5;" x1="216.5" x2="298.5" y1="211" y2="211"/><text fill="#000000" font-family="sans-serif" font-size="11" lengthAdjust="spacing" textLength="58" x="221.5" y="226.4189">-citizenCard</text><text fill="#000000" font-family="sans-serif" font-size="11" lengthAdjust="spacing" textLength="59" x="221.5" y="240.2549">-snsNumber</text><text fill="#000000" font-family="sans-serif" font-size="11" lengthAdjust="spacing" textLength="30" x="221.5" y="254.0908">-name</text><text fill="#000000" font-family="sans-serif" font-size="11" lengthAdjust="spacing" textLength="44" x="221.5" y="267.9268">-birthDay</text><text fill="#000000" font-family="sans-serif" font-size="11" lengthAdjust="spacing" textLength="38" x="221.5" y="281.7627">-gender</text><text fill="#000000" font-family="sans-serif" font-size="11" lengthAdjust="spacing" textLength="71" x="221.5" y="295.5986">-phoneNumber</text><text fill="#000000" font-family="sans-serif" font-size="11" lengthAdjust="spacing" textLength="28" x="221.5" y="309.4346">-email</text><text fill="#000000" font-family="sans-serif" font-size="11" lengthAdjust="spacing" textLength="44" x="221.5" y="323.2705">-address</text><!--MD5=[02e4b9b7573f1156f41e60aa5b4e25a4]
class Company--><rect codeLine="32" fill="#FEFECE" filter="url(#f1wq4b735gq02c)" height="53.8359" id="Company" style="stroke:#A80036;stroke-width:1.5;" width="85" x="7" y="138.5"/><ellipse cx="22" cy="154.5" fill="#ADD1B2" rx="11" ry="11" style="stroke:#A80036;stroke-width:1.0;"/><path d="M24.7656,150.375 Q24.9219,150.1563 25.1094,150.0469 Q25.2969,149.9375 25.5156,149.9375 Q25.8906,149.9375 26.125,150.2031 Q26.3594,150.4531 26.3594,151.0625 L26.3594,152.5156 Q26.3594,153.125 26.125,153.3906 Q25.8906,153.6563 25.5156,153.6563 Q25.1719,153.6563 24.9688,153.4531 Q24.7656,153.2656 24.6563,152.75 Q24.6094,152.3906 24.4219,152.2031 Q24.0938,151.8281 23.4844,151.6094 Q22.875,151.3906 22.25,151.3906 Q21.4844,151.3906 20.8438,151.7188 Q20.2188,152.0469 19.7188,152.7969 Q19.2344,153.5469 19.2344,154.5781 L19.2344,155.6719 Q19.2344,156.9063 20.125,157.7344 Q21.0156,158.5469 22.6094,158.5469 Q23.5469,158.5469 24.2031,158.2969 Q24.5938,158.1406 25.0156,157.7031 Q25.2813,157.4375 25.4219,157.3594 Q25.5781,157.2813 25.7813,157.2813 Q26.1094,157.2813 26.3594,157.5469 Q26.625,157.7969 26.625,158.1406 Q26.625,158.4844 26.2813,158.8906 Q25.7813,159.4688 24.9844,159.7969 Q23.9063,160.25 22.6094,160.25 Q21.0938,160.25 19.8906,159.625 Q18.9063,159.125 18.2188,158.0625 Q17.5313,156.9844 17.5313,155.7031 L17.5313,154.5469 Q17.5313,153.2188 18.1406,152.0781 Q18.7656,150.9219 19.8594,150.3125 Q20.9531,149.6875 22.1875,149.6875 Q22.9219,149.6875 23.5625,149.8594 Q24.2188,150.0156 24.7656,150.375 Z " fill="#000000"/><text fill="#000000" font-family="sans-serif" font-size="12" lengthAdjust="spacing" textLength="53" x="36" y="159.4102">Company</text><line style="stroke:#A80036;stroke-width:1.5;" x1="8" x2="91" y1="170.5" y2="170.5"/><text fill="#000000" font-family="sans-serif" font-size="11" lengthAdjust="spacing" textLength="59" x="13" y="185.9189">-designation</text><!--MD5=[cdda88bd94d57e06d95e6dd6ce9ee716]
link Arrival to Appointment--><path codeLine="36" d="M529.39,165.5 C563.47,165.5 617.95,165.5 657.69,165.5 " fill="none" id="Arrival-Appointment" style="stroke:#A80036;stroke-width:1.0;"/><polygon fill="#000000" points="569,156.6758,559.9549,153.7369,559.9549,159.6147,569,156.6758" style="stroke:#000000;stroke-width:1.0;"/><text fill="#000000" font-family="sans-serif" font-size="13" lengthAdjust="spacing" textLength="54" x="573" y="161.9951">related to</text><text fill="#000000" font-family="sans-serif" font-size="13" lengthAdjust="spacing" textLength="7" x="536.8954" y="180.6983">1</text><text fill="#000000" font-family="sans-serif" font-size="13" lengthAdjust="spacing" textLength="22" x="628.1569" y="179.9915">0..1</text><!--MD5=[5448e79142bdfcbfebd9929e0faf45a6]
link Company to Receptionist--><path codeLine="37" d="M92.19,147.29 C124.4,133.21 169.19,113.64 203.88,98.49 " fill="none" id="Company-Receptionist" style="stroke:#A80036;stroke-width:1.0;"/><polygon fill="#000000" points="131.5818,101.6739,122.1166,102.6022,124.47,107.9884,131.5818,101.6739" style="stroke:#000000;stroke-width:1.0;"/><text fill="#000000" font-family="sans-serif" font-size="13" lengthAdjust="spacing" textLength="37" x="136" y="108.9951">knows</text><text fill="#000000" font-family="sans-serif" font-size="13" lengthAdjust="spacing" textLength="7" x="100.1289" y="159.0746">1</text><text fill="#000000" font-family="sans-serif" font-size="13" lengthAdjust="spacing" textLength="5" x="190.9881" y="116.3782">*</text><!--MD5=[1a8aa2b864b87f860d28abceaa28b7a5]
link Company to SNSUser--><path codeLine="38" d="M92.19,183.51 C128.04,199 179.49,221.23 215.23,236.67 " fill="none" id="Company-SNSUser" style="stroke:#A80036;stroke-width:1.0;"/><polygon fill="#000000" points="131.5899,189.6589,124.4523,183.3735,122.121,188.7693,131.5899,189.6589" style="stroke:#000000;stroke-width:1.0;"/><text fill="#000000" font-family="sans-serif" font-size="13" lengthAdjust="spacing" textLength="37" x="136" y="192.9951">knows</text><text fill="#000000" font-family="sans-serif" font-size="13" lengthAdjust="spacing" textLength="7" x="100.1289" y="201.5199">1</text><text fill="#000000" font-family="sans-serif" font-size="13" lengthAdjust="spacing" textLength="5" x="202.5352" y="248.5327">*</text><!--MD5=[24f82a13fe82ee63074bc80db6bef9fb]
link Receptionist to Arrival--><path codeLine="39" d="M311.1,95.47 C357.87,113.24 424.74,138.63 463.78,153.45 " fill="none" id="Receptionist-Arrival" style="stroke:#A80036;stroke-width:1.0;"/><polygon fill="#000000" points="364.6743,100.4508,357.2618,94.4922,355.1751,99.9872,364.6743,100.4508" style="stroke:#000000;stroke-width:1.0;"/><text fill="#000000" font-family="sans-serif" font-size="13" lengthAdjust="spacing" textLength="50" x="369" y="103.9951">registers</text><text fill="#000000" font-family="sans-serif" font-size="13" lengthAdjust="spacing" textLength="7" x="319.1297" y="112.9336">1</text><text fill="#000000" font-family="sans-serif" font-size="13" lengthAdjust="spacing" textLength="5" x="451.0756" y="166.1156">*</text><!--MD5=[7237f06c0b74e3dd035481e962d83e87]
link SNSUser to Arrival--><path codeLine="40" d="M299.51,239.1 C346.15,221.59 421.29,193.37 463.71,177.44 " fill="none" id="SNSUser-Arrival" style="stroke:#A80036;stroke-width:1.0;"/><polygon fill="#000000" points="350.6808,177.918,341.1799,178.3465,343.2463,183.8492,350.6808,177.918" style="stroke:#000000;stroke-width:1.0;"/><text fill="#000000" font-family="sans-serif" font-size="13" lengthAdjust="spacing" textLength="78" x="355" y="184.9951">associated to</text><text fill="#000000" font-family="sans-serif" font-size="13" lengthAdjust="spacing" textLength="7" x="307.6165" y="251.3361">1</text><text fill="#000000" font-family="sans-serif" font-size="13" lengthAdjust="spacing" textLength="5" x="450.9903" y="195.3534">*</text><!--MD5=[dbed994cd7070defbe3a6b5107254f0b]
@startuml US04_DM
hide methods
left to right direction
skinparam classAttributeIconSize 0

class Receptionist {
  - name
  - phoneNumber
  - email
  - password
  - address
  - citizenCardNumber
  - roleId
}

class Arrival {
  - date
}

class Appointment {}

class SNSUser {
  - citizenCard
  - snsNumber
  - name
  - birthDay
  - gender
  - phoneNumber
  - email
  - address
}

class Company {
  - designation
}

Arrival "1" - - "0..1" Appointment : related to >
Company "1" - - "*" Receptionist : knows >
Company "1" - - "*" SNSUser : knows >
Receptionist "1" - - "*" Arrival : registers >
SNSUser "1" - - "*" Arrival : associated to >

@enduml

PlantUML version 1.2022.0(Tue Jan 11 16:16:42 WET 2022)
(GPL source distribution)
Java Runtime: Java(TM) SE Runtime Environment
JVM: Java HotSpot(TM) 64-Bit Server VM
Default Encoding: Cp1252
Language: pt
Country: PT
--></g></svg>