<?xml version="1.0" encoding="UTF-8" standalone="no"?><svg xmlns="http://www.w3.org/2000/svg" xmlns:xlink="http://www.w3.org/1999/xlink" contentScriptType="application/ecmascript" contentStyleType="text/css" height="1261px" preserveAspectRatio="none" style="width:437px;height:1261px;background:#FFFFFF;" version="1.1" viewBox="0 0 437 1261" width="437px" zoomAndPan="magnify"><defs><filter height="300%" id="f1dsujet4sv7ur" width="300%" x="-1" y="-1"><feGaussianBlur result="blurOut" stdDeviation="2.0"/><feColorMatrix in="blurOut" result="blurOut2" type="matrix" values="0 0 0 0 0 0 0 0 0 0 0 0 0 0 0 0 0 0 .4 0"/><feOffset dx="4.0" dy="4.0" in="blurOut2" result="blurOut3"/><feBlend in="SourceGraphic" in2="blurOut3" mode="normal"/></filter></defs><g><!--MD5=[c508b5b6bbe276ff5e2700b6641f837f]
class Appointment--><rect codeLine="5" fill="#FEFECE" filter="url(#f1dsujet4sv7ur)" height="40" id="Appointment" style="stroke:#A80036;stroke-width:1.5;" width="101" x="147.13" y="833"/><ellipse cx="162.13" cy="849" fill="#ADD1B2" rx="11" ry="11" style="stroke:#A80036;stroke-width:1.0;"/><path d="M164.8956,844.875 Q165.0519,844.6563 165.2394,844.5469 Q165.4269,844.4375 165.6456,844.4375 Q166.0206,844.4375 166.255,844.7031 Q166.4894,844.9531 166.4894,845.5625 L166.4894,847.0156 Q166.4894,847.625 166.255,847.8906 Q166.0206,848.1563 165.6456,848.1563 Q165.3019,848.1563 165.0988,847.9531 Q164.8956,847.7656 164.7863,847.25 Q164.7394,846.8906 164.5519,846.7031 Q164.2238,846.3281 163.6144,846.1094 Q163.005,845.8906 162.38,845.8906 Q161.6144,845.8906 160.9738,846.2188 Q160.3488,846.5469 159.8488,847.2969 Q159.3644,848.0469 159.3644,849.0781 L159.3644,850.1719 Q159.3644,851.4063 160.255,852.2344 Q161.1456,853.0469 162.7394,853.0469 Q163.6769,853.0469 164.3331,852.7969 Q164.7238,852.6406 165.1456,852.2031 Q165.4113,851.9375 165.5519,851.8594 Q165.7081,851.7813 165.9113,851.7813 Q166.2394,851.7813 166.4894,852.0469 Q166.755,852.2969 166.755,852.6406 Q166.755,852.9844 166.4113,853.3906 Q165.9113,853.9688 165.1144,854.2969 Q164.0363,854.75 162.7394,854.75 Q161.2238,854.75 160.0206,854.125 Q159.0363,853.625 158.3488,852.5625 Q157.6613,851.4844 157.6613,850.2031 L157.6613,849.0469 Q157.6613,847.7188 158.2706,846.5781 Q158.8956,845.4219 159.9894,844.8125 Q161.0831,844.1875 162.3175,844.1875 Q163.0519,844.1875 163.6925,844.3594 Q164.3488,844.5156 164.8956,844.875 Z " fill="#000000"/><text fill="#000000" font-family="sans-serif" font-size="12" lengthAdjust="spacing" textLength="69" x="176.13" y="853.9102">Appointment</text><line style="stroke:#A80036;stroke-width:1.5;" x1="148.13" x2="247.13" y1="865" y2="865"/><!--MD5=[950bab46f39ba9ae59885963abb53c18]
class Arrival--><rect codeLine="7" fill="#FEFECE" filter="url(#f1dsujet4sv7ur)" height="53.8359" id="Arrival" style="stroke:#A80036;stroke-width:1.5;" width="65" x="32.13" y="701"/><ellipse cx="47.13" cy="717" fill="#ADD1B2" rx="11" ry="11" style="stroke:#A80036;stroke-width:1.0;"/><path d="M49.8956,712.875 Q50.0519,712.6563 50.2394,712.5469 Q50.4269,712.4375 50.6456,712.4375 Q51.0206,712.4375 51.255,712.7031 Q51.4894,712.9531 51.4894,713.5625 L51.4894,715.0156 Q51.4894,715.625 51.255,715.8906 Q51.0206,716.1563 50.6456,716.1563 Q50.3019,716.1563 50.0987,715.9531 Q49.8956,715.7656 49.7862,715.25 Q49.7394,714.8906 49.5519,714.7031 Q49.2237,714.3281 48.6144,714.1094 Q48.005,713.8906 47.38,713.8906 Q46.6144,713.8906 45.9737,714.2188 Q45.3487,714.5469 44.8487,715.2969 Q44.3644,716.0469 44.3644,717.0781 L44.3644,718.1719 Q44.3644,719.4063 45.255,720.2344 Q46.1456,721.0469 47.7394,721.0469 Q48.6769,721.0469 49.3331,720.7969 Q49.7237,720.6406 50.1456,720.2031 Q50.4112,719.9375 50.5519,719.8594 Q50.7081,719.7813 50.9112,719.7813 Q51.2394,719.7813 51.4894,720.0469 Q51.755,720.2969 51.755,720.6406 Q51.755,720.9844 51.4112,721.3906 Q50.9112,721.9688 50.1144,722.2969 Q49.0362,722.75 47.7394,722.75 Q46.2237,722.75 45.0206,722.125 Q44.0362,721.625 43.3487,720.5625 Q42.6612,719.4844 42.6612,718.2031 L42.6612,717.0469 Q42.6612,715.7188 43.2706,714.5781 Q43.8956,713.4219 44.9894,712.8125 Q46.0831,712.1875 47.3175,712.1875 Q48.0519,712.1875 48.6925,712.3594 Q49.3487,712.5156 49.8956,712.875 Z " fill="#000000"/><text fill="#000000" font-family="sans-serif" font-size="12" lengthAdjust="spacing" textLength="33" x="61.13" y="721.9102">Arrival</text><line style="stroke:#A80036;stroke-width:1.5;" x1="33.13" x2="96.13" y1="733" y2="733"/><text fill="#000000" font-family="sans-serif" font-size="11" lengthAdjust="spacing" textLength="25" x="38.13" y="748.4189">-date</text><!--MD5=[02e4b9b7573f1156f41e60aa5b4e25a4]
class Company--><rect codeLine="11" fill="#FEFECE" filter="url(#f1dsujet4sv7ur)" height="53.8359" id="Company" style="stroke:#A80036;stroke-width:1.5;" width="85" x="276.13" y="7"/><ellipse cx="291.13" cy="23" fill="#ADD1B2" rx="11" ry="11" style="stroke:#A80036;stroke-width:1.0;"/><path d="M293.8956,18.875 Q294.0519,18.6563 294.2394,18.5469 Q294.4269,18.4375 294.6456,18.4375 Q295.0206,18.4375 295.255,18.7031 Q295.4894,18.9531 295.4894,19.5625 L295.4894,21.0156 Q295.4894,21.625 295.255,21.8906 Q295.0206,22.1563 294.6456,22.1563 Q294.3019,22.1563 294.0988,21.9531 Q293.8956,21.7656 293.7863,21.25 Q293.7394,20.8906 293.5519,20.7031 Q293.2238,20.3281 292.6144,20.1094 Q292.005,19.8906 291.38,19.8906 Q290.6144,19.8906 289.9738,20.2188 Q289.3488,20.5469 288.8488,21.2969 Q288.3644,22.0469 288.3644,23.0781 L288.3644,24.1719 Q288.3644,25.4063 289.255,26.2344 Q290.1456,27.0469 291.7394,27.0469 Q292.6769,27.0469 293.3331,26.7969 Q293.7238,26.6406 294.1456,26.2031 Q294.4113,25.9375 294.5519,25.8594 Q294.7081,25.7813 294.9113,25.7813 Q295.2394,25.7813 295.4894,26.0469 Q295.755,26.2969 295.755,26.6406 Q295.755,26.9844 295.4113,27.3906 Q294.9113,27.9688 294.1144,28.2969 Q293.0363,28.75 291.7394,28.75 Q290.2238,28.75 289.0206,28.125 Q288.0363,27.625 287.3488,26.5625 Q286.6613,25.4844 286.6613,24.2031 L286.6613,23.0469 Q286.6613,21.7188 287.2706,20.5781 Q287.8956,19.4219 288.9894,18.8125 Q290.0831,18.1875 291.3175,18.1875 Q292.0519,18.1875 292.6925,18.3594 Q293.3488,18.5156 293.8956,18.875 Z " fill="#000000"/><text fill="#000000" font-family="sans-serif" font-size="12" lengthAdjust="spacing" textLength="53" x="305.13" y="27.9102">Company</text><line style="stroke:#A80036;stroke-width:1.5;" x1="277.13" x2="360.13" y1="39" y2="39"/><text fill="#000000" font-family="sans-serif" font-size="11" lengthAdjust="spacing" textLength="59" x="282.13" y="54.4189">-designation</text><!--MD5=[7421f545a0d8420c5bec41e74b387d9c]
class Employee--><rect codeLine="15" fill="#FEFECE" filter="url(#f1dsujet4sv7ur)" height="136.8516" id="Employee" style="stroke:#A80036;stroke-width:1.5;" width="107" x="206.13" y="139"/><ellipse cx="230.13" cy="155" fill="#ADD1B2" rx="11" ry="11" style="stroke:#A80036;stroke-width:1.0;"/><path d="M232.8956,150.875 Q233.0519,150.6563 233.2394,150.5469 Q233.4269,150.4375 233.6456,150.4375 Q234.0206,150.4375 234.255,150.7031 Q234.4894,150.9531 234.4894,151.5625 L234.4894,153.0156 Q234.4894,153.625 234.255,153.8906 Q234.0206,154.1563 233.6456,154.1563 Q233.3019,154.1563 233.0988,153.9531 Q232.8956,153.7656 232.7863,153.25 Q232.7394,152.8906 232.5519,152.7031 Q232.2238,152.3281 231.6144,152.1094 Q231.005,151.8906 230.38,151.8906 Q229.6144,151.8906 228.9738,152.2188 Q228.3488,152.5469 227.8488,153.2969 Q227.3644,154.0469 227.3644,155.0781 L227.3644,156.1719 Q227.3644,157.4063 228.255,158.2344 Q229.1456,159.0469 230.7394,159.0469 Q231.6769,159.0469 232.3331,158.7969 Q232.7238,158.6406 233.1456,158.2031 Q233.4113,157.9375 233.5519,157.8594 Q233.7081,157.7813 233.9113,157.7813 Q234.2394,157.7813 234.4894,158.0469 Q234.755,158.2969 234.755,158.6406 Q234.755,158.9844 234.4113,159.3906 Q233.9113,159.9688 233.1144,160.2969 Q232.0363,160.75 230.7394,160.75 Q229.2238,160.75 228.0206,160.125 Q227.0363,159.625 226.3488,158.5625 Q225.6613,157.4844 225.6613,156.2031 L225.6613,155.0469 Q225.6613,153.7188 226.2706,152.5781 Q226.8956,151.4219 227.9894,150.8125 Q229.0831,150.1875 230.3175,150.1875 Q231.0519,150.1875 231.6925,150.3594 Q232.3488,150.5156 232.8956,150.875 Z " fill="#000000"/><text fill="#000000" font-family="sans-serif" font-size="12" lengthAdjust="spacing" textLength="55" x="246.13" y="159.9102">Employee</text><line style="stroke:#A80036;stroke-width:1.5;" x1="207.13" x2="312.13" y1="171" y2="171"/><text fill="#000000" font-family="sans-serif" font-size="11" lengthAdjust="spacing" textLength="30" x="212.13" y="186.4189">-name</text><text fill="#000000" font-family="sans-serif" font-size="11" lengthAdjust="spacing" textLength="71" x="212.13" y="200.2549">-phoneNumber</text><text fill="#000000" font-family="sans-serif" font-size="11" lengthAdjust="spacing" textLength="28" x="212.13" y="214.0908">-email</text><text fill="#000000" font-family="sans-serif" font-size="11" lengthAdjust="spacing" textLength="54" x="212.13" y="227.9268">-password</text><text fill="#000000" font-family="sans-serif" font-size="11" lengthAdjust="spacing" textLength="44" x="212.13" y="241.7627">-address</text><text fill="#000000" font-family="sans-serif" font-size="11" lengthAdjust="spacing" textLength="95" x="212.13" y="255.5986">-citizenCardNumber</text><text fill="#000000" font-family="sans-serif" font-size="11" lengthAdjust="spacing" textLength="30" x="212.13" y="269.4346">-roleId</text><!--MD5=[03960189e81aa2c066c762ffabbee709]
class Receptionist--><rect codeLine="25" fill="#FEFECE" filter="url(#f1dsujet4sv7ur)" height="40" id="Receptionist" style="stroke:#A80036;stroke-width:1.5;" width="101" x="146.13" y="354"/><ellipse cx="161.13" cy="370" fill="#ADD1B2" rx="11" ry="11" style="stroke:#A80036;stroke-width:1.0;"/><path d="M163.8956,365.875 Q164.0519,365.6563 164.2394,365.5469 Q164.4269,365.4375 164.6456,365.4375 Q165.0206,365.4375 165.255,365.7031 Q165.4894,365.9531 165.4894,366.5625 L165.4894,368.0156 Q165.4894,368.625 165.255,368.8906 Q165.0206,369.1563 164.6456,369.1563 Q164.3019,369.1563 164.0988,368.9531 Q163.8956,368.7656 163.7863,368.25 Q163.7394,367.8906 163.5519,367.7031 Q163.2238,367.3281 162.6144,367.1094 Q162.005,366.8906 161.38,366.8906 Q160.6144,366.8906 159.9738,367.2188 Q159.3488,367.5469 158.8488,368.2969 Q158.3644,369.0469 158.3644,370.0781 L158.3644,371.1719 Q158.3644,372.4063 159.255,373.2344 Q160.1456,374.0469 161.7394,374.0469 Q162.6769,374.0469 163.3331,373.7969 Q163.7238,373.6406 164.1456,373.2031 Q164.4113,372.9375 164.5519,372.8594 Q164.7081,372.7813 164.9113,372.7813 Q165.2394,372.7813 165.4894,373.0469 Q165.755,373.2969 165.755,373.6406 Q165.755,373.9844 165.4113,374.3906 Q164.9113,374.9688 164.1144,375.2969 Q163.0363,375.75 161.7394,375.75 Q160.2238,375.75 159.0206,375.125 Q158.0363,374.625 157.3488,373.5625 Q156.6613,372.4844 156.6613,371.2031 L156.6613,370.0469 Q156.6613,368.7188 157.2706,367.5781 Q157.8956,366.4219 158.9894,365.8125 Q160.0831,365.1875 161.3175,365.1875 Q162.0519,365.1875 162.6925,365.3594 Q163.3488,365.5156 163.8956,365.875 Z " fill="#000000"/><text fill="#000000" font-family="sans-serif" font-size="12" lengthAdjust="spacing" textLength="69" x="175.13" y="374.9102">Receptionist</text><line style="stroke:#A80036;stroke-width:1.5;" x1="147.13" x2="246.13" y1="386" y2="386"/><!--MD5=[72be06cc7ae02ccc98efe28a50e62246]
class SNSUser--><rect codeLine="27" fill="#FEFECE" filter="url(#f1dsujet4sv7ur)" height="150.6875" id="SNSUser" style="stroke:#A80036;stroke-width:1.5;" width="84" x="129.63" y="472"/><ellipse cx="144.63" cy="488" fill="#ADD1B2" rx="11" ry="11" style="stroke:#A80036;stroke-width:1.0;"/><path d="M147.3956,483.875 Q147.5519,483.6563 147.7394,483.5469 Q147.9269,483.4375 148.1456,483.4375 Q148.5206,483.4375 148.755,483.7031 Q148.9894,483.9531 148.9894,484.5625 L148.9894,486.0156 Q148.9894,486.625 148.755,486.8906 Q148.5206,487.1563 148.1456,487.1563 Q147.8019,487.1563 147.5988,486.9531 Q147.3956,486.7656 147.2863,486.25 Q147.2394,485.8906 147.0519,485.7031 Q146.7238,485.3281 146.1144,485.1094 Q145.505,484.8906 144.88,484.8906 Q144.1144,484.8906 143.4738,485.2188 Q142.8488,485.5469 142.3488,486.2969 Q141.8644,487.0469 141.8644,488.0781 L141.8644,489.1719 Q141.8644,490.4063 142.755,491.2344 Q143.6456,492.0469 145.2394,492.0469 Q146.1769,492.0469 146.8331,491.7969 Q147.2238,491.6406 147.6456,491.2031 Q147.9113,490.9375 148.0519,490.8594 Q148.2081,490.7813 148.4113,490.7813 Q148.7394,490.7813 148.9894,491.0469 Q149.255,491.2969 149.255,491.6406 Q149.255,491.9844 148.9113,492.3906 Q148.4113,492.9688 147.6144,493.2969 Q146.5363,493.75 145.2394,493.75 Q143.7238,493.75 142.5206,493.125 Q141.5363,492.625 140.8488,491.5625 Q140.1613,490.4844 140.1613,489.2031 L140.1613,488.0469 Q140.1613,486.7188 140.7706,485.5781 Q141.3956,484.4219 142.4894,483.8125 Q143.5831,483.1875 144.8175,483.1875 Q145.5519,483.1875 146.1925,483.3594 Q146.8488,483.5156 147.3956,483.875 Z " fill="#000000"/><text fill="#000000" font-family="sans-serif" font-size="12" lengthAdjust="spacing" textLength="52" x="158.63" y="492.9102">SNSUser</text><line style="stroke:#A80036;stroke-width:1.5;" x1="130.63" x2="212.63" y1="504" y2="504"/><text fill="#000000" font-family="sans-serif" font-size="11" lengthAdjust="spacing" textLength="58" x="135.63" y="519.4189">-citizenCard</text><text fill="#000000" font-family="sans-serif" font-size="11" lengthAdjust="spacing" textLength="59" x="135.63" y="533.2549">-snsNumber</text><text fill="#000000" font-family="sans-serif" font-size="11" lengthAdjust="spacing" textLength="30" x="135.63" y="547.0908">-name</text><text fill="#000000" font-family="sans-serif" font-size="11" lengthAdjust="spacing" textLength="44" x="135.63" y="560.9268">-birthDay</text><text fill="#000000" font-family="sans-serif" font-size="11" lengthAdjust="spacing" textLength="38" x="135.63" y="574.7627">-gender</text><text fill="#000000" font-family="sans-serif" font-size="11" lengthAdjust="spacing" textLength="71" x="135.63" y="588.5986">-phoneNumber</text><text fill="#000000" font-family="sans-serif" font-size="11" lengthAdjust="spacing" textLength="28" x="135.63" y="602.4346">-email</text><text fill="#000000" font-family="sans-serif" font-size="11" lengthAdjust="spacing" textLength="44" x="135.63" y="616.2705">-address</text><!--MD5=[de60e6d4f424ae4d0522096f76a59010]
class VaccinationCenter--><rect codeLine="38" fill="#FEFECE" filter="url(#f1dsujet4sv7ur)" height="178.3594" id="VaccinationCenter" style="stroke:#A80036;stroke-width:1.5;" width="140" x="266.63" y="951"/><ellipse cx="285.23" cy="967" fill="#ADD1B2" rx="11" ry="11" style="stroke:#A80036;stroke-width:1.0;"/><path d="M287.9956,962.875 Q288.1519,962.6563 288.3394,962.5469 Q288.5269,962.4375 288.7456,962.4375 Q289.1206,962.4375 289.355,962.7031 Q289.5894,962.9531 289.5894,963.5625 L289.5894,965.0156 Q289.5894,965.625 289.355,965.8906 Q289.1206,966.1563 288.7456,966.1563 Q288.4019,966.1563 288.1988,965.9531 Q287.9956,965.7656 287.8863,965.25 Q287.8394,964.8906 287.6519,964.7031 Q287.3238,964.3281 286.7144,964.1094 Q286.105,963.8906 285.48,963.8906 Q284.7144,963.8906 284.0738,964.2188 Q283.4488,964.5469 282.9488,965.2969 Q282.4644,966.0469 282.4644,967.0781 L282.4644,968.1719 Q282.4644,969.4063 283.355,970.2344 Q284.2456,971.0469 285.8394,971.0469 Q286.7769,971.0469 287.4331,970.7969 Q287.8238,970.6406 288.2456,970.2031 Q288.5113,969.9375 288.6519,969.8594 Q288.8081,969.7813 289.0113,969.7813 Q289.3394,969.7813 289.5894,970.0469 Q289.855,970.2969 289.855,970.6406 Q289.855,970.9844 289.5113,971.3906 Q289.0113,971.9688 288.2144,972.2969 Q287.1363,972.75 285.8394,972.75 Q284.3238,972.75 283.1206,972.125 Q282.1363,971.625 281.4488,970.5625 Q280.7613,969.4844 280.7613,968.2031 L280.7613,967.0469 Q280.7613,965.7188 281.3706,964.5781 Q281.9956,963.4219 283.0894,962.8125 Q284.1831,962.1875 285.4175,962.1875 Q286.1519,962.1875 286.7925,962.3594 Q287.4488,962.5156 287.9956,962.875 Z " fill="#000000"/><text fill="#000000" font-family="sans-serif" font-size="12" lengthAdjust="spacing" textLength="100" x="300.03" y="971.9102">VaccinationCenter</text><line style="stroke:#A80036;stroke-width:1.5;" x1="267.63" x2="405.63" y1="983" y2="983"/><text fill="#000000" font-family="sans-serif" font-size="11" lengthAdjust="spacing" textLength="30" x="272.63" y="998.4189">-name</text><text fill="#000000" font-family="sans-serif" font-size="11" lengthAdjust="spacing" textLength="44" x="272.63" y="1012.2549">-address</text><text fill="#000000" font-family="sans-serif" font-size="11" lengthAdjust="spacing" textLength="70" x="272.63" y="1026.0908">-emailAddress</text><text fill="#000000" font-family="sans-serif" font-size="11" lengthAdjust="spacing" textLength="71" x="272.63" y="1039.9268">-phoneNumber</text><text fill="#000000" font-family="sans-serif" font-size="11" lengthAdjust="spacing" textLength="57" x="272.63" y="1053.7627">-faxNumber</text><text fill="#000000" font-family="sans-serif" font-size="11" lengthAdjust="spacing" textLength="85" x="272.63" y="1067.5986">-websiteAddress</text><text fill="#000000" font-family="sans-serif" font-size="11" lengthAdjust="spacing" textLength="71" x="272.63" y="1081.4346">-openingHours</text><text fill="#000000" font-family="sans-serif" font-size="11" lengthAdjust="spacing" textLength="67" x="272.63" y="1095.2705">-closingHours</text><text fill="#000000" font-family="sans-serif" font-size="11" lengthAdjust="spacing" textLength="61" x="272.63" y="1109.1064">-slotDuration</text><text fill="#000000" font-family="sans-serif" font-size="11" lengthAdjust="spacing" textLength="128" x="272.63" y="1122.9424">-maximumVaccinesPerSlot</text><!--MD5=[0e501da62322464167c8ec4d233a6b7e]
class VaccineType--><rect codeLine="51" fill="#FEFECE" filter="url(#f1dsujet4sv7ur)" height="40" id="VaccineType" style="stroke:#A80036;stroke-width:1.5;" width="101" x="130.13" y="1020"/><ellipse cx="145.13" cy="1036" fill="#ADD1B2" rx="11" ry="11" style="stroke:#A80036;stroke-width:1.0;"/><path d="M147.8956,1031.875 Q148.0519,1031.6563 148.2394,1031.5469 Q148.4269,1031.4375 148.6456,1031.4375 Q149.0206,1031.4375 149.255,1031.7031 Q149.4894,1031.9531 149.4894,1032.5625 L149.4894,1034.0156 Q149.4894,1034.625 149.255,1034.8906 Q149.0206,1035.1563 148.6456,1035.1563 Q148.3019,1035.1563 148.0988,1034.9531 Q147.8956,1034.7656 147.7863,1034.25 Q147.7394,1033.8906 147.5519,1033.7031 Q147.2238,1033.3281 146.6144,1033.1094 Q146.005,1032.8906 145.38,1032.8906 Q144.6144,1032.8906 143.9738,1033.2188 Q143.3488,1033.5469 142.8488,1034.2969 Q142.3644,1035.0469 142.3644,1036.0781 L142.3644,1037.1719 Q142.3644,1038.4063 143.255,1039.2344 Q144.1456,1040.0469 145.7394,1040.0469 Q146.6769,1040.0469 147.3331,1039.7969 Q147.7238,1039.6406 148.1456,1039.2031 Q148.4113,1038.9375 148.5519,1038.8594 Q148.7081,1038.7813 148.9113,1038.7813 Q149.2394,1038.7813 149.4894,1039.0469 Q149.755,1039.2969 149.755,1039.6406 Q149.755,1039.9844 149.4113,1040.3906 Q148.9113,1040.9688 148.1144,1041.2969 Q147.0363,1041.75 145.7394,1041.75 Q144.2238,1041.75 143.0206,1041.125 Q142.0363,1040.625 141.3488,1039.5625 Q140.6613,1038.4844 140.6613,1037.2031 L140.6613,1036.0469 Q140.6613,1034.7188 141.2706,1033.5781 Q141.8956,1032.4219 142.9894,1031.8125 Q144.0831,1031.1875 145.3175,1031.1875 Q146.0519,1031.1875 146.6925,1031.3594 Q147.3488,1031.5156 147.8956,1031.875 Z " fill="#000000"/><text fill="#000000" font-family="sans-serif" font-size="12" lengthAdjust="spacing" textLength="69" x="159.13" y="1040.9102">VaccineType</text><line style="stroke:#A80036;stroke-width:1.5;" x1="131.13" x2="230.13" y1="1052" y2="1052"/><!--MD5=[aaa7e27c4ec43917c82a021675d2c87a]
class WaitingRoom--><rect codeLine="53" fill="#FEFECE" filter="url(#f1dsujet4sv7ur)" height="40" id="WaitingRoom" style="stroke:#A80036;stroke-width:1.5;" width="107" x="23.13" y="1207"/><ellipse cx="38.13" cy="1223" fill="#ADD1B2" rx="11" ry="11" style="stroke:#A80036;stroke-width:1.0;"/><path d="M40.8956,1218.875 Q41.0519,1218.6563 41.2394,1218.5469 Q41.4269,1218.4375 41.6456,1218.4375 Q42.0206,1218.4375 42.255,1218.7031 Q42.4894,1218.9531 42.4894,1219.5625 L42.4894,1221.0156 Q42.4894,1221.625 42.255,1221.8906 Q42.0206,1222.1563 41.6456,1222.1563 Q41.3019,1222.1563 41.0987,1221.9531 Q40.8956,1221.7656 40.7862,1221.25 Q40.7394,1220.8906 40.5519,1220.7031 Q40.2237,1220.3281 39.6144,1220.1094 Q39.005,1219.8906 38.38,1219.8906 Q37.6144,1219.8906 36.9737,1220.2188 Q36.3487,1220.5469 35.8487,1221.2969 Q35.3644,1222.0469 35.3644,1223.0781 L35.3644,1224.1719 Q35.3644,1225.4063 36.255,1226.2344 Q37.1456,1227.0469 38.7394,1227.0469 Q39.6769,1227.0469 40.3331,1226.7969 Q40.7237,1226.6406 41.1456,1226.2031 Q41.4112,1225.9375 41.5519,1225.8594 Q41.7081,1225.7813 41.9112,1225.7813 Q42.2394,1225.7813 42.4894,1226.0469 Q42.755,1226.2969 42.755,1226.6406 Q42.755,1226.9844 42.4112,1227.3906 Q41.9112,1227.9688 41.1144,1228.2969 Q40.0362,1228.75 38.7394,1228.75 Q37.2237,1228.75 36.0206,1228.125 Q35.0362,1227.625 34.3487,1226.5625 Q33.6612,1225.4844 33.6612,1224.2031 L33.6612,1223.0469 Q33.6612,1221.7188 34.2706,1220.5781 Q34.8956,1219.4219 35.9894,1218.8125 Q37.0831,1218.1875 38.3175,1218.1875 Q39.0519,1218.1875 39.6925,1218.3594 Q40.3487,1218.5156 40.8956,1218.875 Z " fill="#000000"/><text fill="#000000" font-family="sans-serif" font-size="12" lengthAdjust="spacing" textLength="75" x="52.13" y="1227.9102">WaitingRoom</text><line style="stroke:#A80036;stroke-width:1.5;" x1="24.13" x2="129.13" y1="1239" y2="1239"/><!--MD5=[cdda88bd94d57e06d95e6dd6ce9ee716]
link Arrival to Appointment--><path codeLine="56" d="M73.4,755.12 C79.63,770.55 89.26,789.61 102.63,803 C115.08,815.48 131.38,825.44 146.95,833.04 " fill="none" id="Arrival-Appointment" style="stroke:#A80036;stroke-width:1.0;"/><polygon fill="#000000" points="111.0621,797.8118,106.9906,789.2168,102.7162,793.2515,111.0621,797.8118" style="stroke:#000000;stroke-width:1.0;"/><text fill="#000000" font-family="sans-serif" font-size="13" lengthAdjust="spacing" textLength="54" x="116.63" y="799.4951">related to</text><text fill="#000000" font-family="sans-serif" font-size="13" lengthAdjust="spacing" textLength="7" x="67.5528" y="776.354">1</text><text fill="#000000" font-family="sans-serif" font-size="13" lengthAdjust="spacing" textLength="22" x="117.0472" y="826.9753">0..1</text><!--MD5=[c857544bf6ef1b6699ca7bc3e75266a9]
link Arrival to WaitingRoom--><path codeLine="57" d="M65.26,755.02 C67.39,843.3 74.32,1130.16 76.17,1206.95 " fill="none" id="Arrival-WaitingRoom" style="stroke:#A80036;stroke-width:1.0;"/><polygon fill="#000000" points="74.7507,917.1743,77.4704,908.0609,71.5943,908.2028,74.7507,917.1743" style="stroke:#000000;stroke-width:1.0;"/><text fill="#000000" font-family="sans-serif" font-size="13" lengthAdjust="spacing" textLength="24" x="83.63" y="917.4951">is in</text><text fill="#000000" font-family="sans-serif" font-size="13" lengthAdjust="spacing" textLength="5" x="59.8509" y="776.2321">*</text><text fill="#000000" font-family="sans-serif" font-size="13" lengthAdjust="spacing" textLength="5" x="70.3005" y="1196.2571">*</text><!--MD5=[d139302f00cc62b984b6371d0fde1842]
link Appointment to VaccinationCenter--><path codeLine="58" d="M211.98,873.1 C225.99,891.75 248.35,921.51 270.29,950.7 " fill="none" id="Appointment-VaccinationCenter" style="stroke:#A80036;stroke-width:1.0;"/><polygon fill="#000000" points="254.6336,916.1731,251.5496,907.1764,246.8505,910.7074,254.6336,916.1731" style="stroke:#000000;stroke-width:1.0;"/><text fill="#000000" font-family="sans-serif" font-size="13" lengthAdjust="spacing" textLength="21" x="260.63" y="917.4951">has</text><text fill="#000000" font-family="sans-serif" font-size="13" lengthAdjust="spacing" textLength="7" x="208.0316" y="894.5477">1</text><text fill="#000000" font-family="sans-serif" font-size="13" lengthAdjust="spacing" textLength="7" x="257.5064" y="940.1371">1</text><!--MD5=[d63168792e55d79de1fe85cd885704ff]
link Appointment to VaccineType--><path codeLine="59" d="M195.87,873.1 C192.62,908.55 185.67,984.14 182.4,1019.73 " fill="none" id="Appointment-VaccineType" style="stroke:#A80036;stroke-width:1.0;"/><text fill="#000000" font-family="sans-serif" font-size="13" lengthAdjust="spacing" textLength="21" x="194.63" y="917.4951">has</text><text fill="#000000" font-family="sans-serif" font-size="13" lengthAdjust="spacing" textLength="7" x="187.3906" y="894.5477">1</text><text fill="#000000" font-family="sans-serif" font-size="13" lengthAdjust="spacing" textLength="7" x="174.8918" y="1008.9724">1</text><!--MD5=[09366576ee87d48d594df10cacc83f45]
link Company to Employee--><path codeLine="60" d="M309.67,61.05 C302.58,81.66 292.34,111.42 282.97,138.65 " fill="none" id="Company-Employee" style="stroke:#A80036;stroke-width:1.0;"/><polygon fill="#000000" points="302.0032,104.9037,307.7251,97.307,302.167,95.3946,302.0032,104.9037" style="stroke:#000000;stroke-width:1.0;"/><text fill="#000000" font-family="sans-serif" font-size="13" lengthAdjust="spacing" textLength="37" x="312.63" y="105.4951">knows</text><text fill="#000000" font-family="sans-serif" font-size="13" lengthAdjust="spacing" textLength="7" x="299.9444" y="82.2687">1</text><text fill="#000000" font-family="sans-serif" font-size="13" lengthAdjust="spacing" textLength="5" x="280.1191" y="128.2457">*</text><!--MD5=[eebe9b198877275d05dd12630ed9e401]
link Company to VaccinationCenter--><path codeLine="61" d="M339.55,61.07 C345.9,70.1 352.32,80.58 356.63,91 C376.6,139.29 378.63,154.24 378.63,206.5 C378.63,206.5 378.63,206.5 378.63,854 C378.63,886.11 372.54,920.6 364.99,950.99 " fill="none" id="Company-VaccinationCenter" style="stroke:#A80036;stroke-width:1.0;"/><polygon fill="#000000" points="383.7729,552.6737,386.4521,543.5484,380.5767,543.7163,383.7729,552.6737" style="stroke:#000000;stroke-width:1.0;"/><text fill="#000000" font-family="sans-serif" font-size="13" lengthAdjust="spacing" textLength="37" x="392.63" y="552.9951">knows</text><text fill="#000000" font-family="sans-serif" font-size="13" lengthAdjust="spacing" textLength="7" x="336.3606" y="82.2931">1</text><text fill="#000000" font-family="sans-serif" font-size="13" lengthAdjust="spacing" textLength="5" x="362.2123" y="940.148">*</text><!--MD5=[1da12df22706e73e1def33b218b7f412]
link Employee to Receptionist--><path codeLine="62" d="M233.64,276.36 C222.93,304.33 211.34,334.58 204.04,353.65 " fill="none" id="Employee-Receptionist" style="stroke:#A80036;stroke-width:1.0;"/><polygon fill="#000000" points="224.8418,319.8451,230.8212,312.4493,225.3322,310.3472,224.8418,319.8451" style="stroke:#000000;stroke-width:1.0;"/><text fill="#000000" font-family="sans-serif" font-size="13" lengthAdjust="spacing" textLength="49" x="235.63" y="320.4951">plays as</text><!--MD5=[d205afa640eb10e9aa5da67d61820494]
link Receptionist to Appointment--><path codeLine="63" d="M236.01,394.16 C247.34,401.78 258.33,411.7 264.63,424 C268.28,431.12 265.02,434.01 264.63,442 C257.73,581.62 260.2,617.76 233.63,755 C229.41,776.82 227.31,782.15 219.63,803 C215.96,812.98 211.19,823.78 207.04,832.7 " fill="none" id="Receptionist-Appointment" style="stroke:#A80036;stroke-width:1.0;"/><polygon fill="#000000" points="256.3004,667.1649,259.8292,658.3332,253.9641,657.9458,256.3004,667.1649" style="stroke:#000000;stroke-width:1.0;"/><text fill="#000000" font-family="sans-serif" font-size="13" lengthAdjust="spacing" textLength="54" x="265.63" y="667.4951">related to</text><text fill="#000000" font-family="sans-serif" font-size="13" lengthAdjust="spacing" textLength="7" x="239.1013" y="415.6246">1</text><text fill="#000000" font-family="sans-serif" font-size="13" lengthAdjust="spacing" textLength="5" x="203.9834" y="822.2852">*</text><!--MD5=[24f82a13fe82ee63074bc80db6bef9fb]
link Receptionist to Arrival--><path codeLine="64" d="M146.04,392.72 C111.22,407.89 67.61,433.46 46.63,472 C6,546.65 36.23,652.31 54.04,700.81 " fill="none" id="Receptionist-Arrival" style="stroke:#A80036;stroke-width:1.0;"/><polygon fill="#000000" points="50.1994,552.4667,55.6035,544.6407,49.9714,542.9589,50.1994,552.4667" style="stroke:#000000;stroke-width:1.0;"/><text fill="#000000" font-family="sans-serif" font-size="13" lengthAdjust="spacing" textLength="50" x="60.63" y="552.9951">registers</text><text fill="#000000" font-family="sans-serif" font-size="13" lengthAdjust="spacing" textLength="7" x="131.0955" y="391.8154">1</text><text fill="#000000" font-family="sans-serif" font-size="13" lengthAdjust="spacing" textLength="5" x="46.0129" y="690.227">*</text><!--MD5=[7690a4971bd8576b261a40a0340b8203]
link Receptionist to SNSUser--><path codeLine="65" d="M182.69,394 C177.16,402.69 171.45,413.39 168.63,424 C164.59,439.22 163.14,455.87 163.11,471.86 " fill="none" id="Receptionist-SNSUser" style="stroke:#A80036;stroke-width:1.0;"/><polygon fill="#000000" points="172.4106,438.0248,177.4667,429.9696,171.7663,428.5361,172.4106,438.0248" style="stroke:#000000;stroke-width:1.0;"/><text fill="#000000" font-family="sans-serif" font-size="13" lengthAdjust="spacing" textLength="77" x="182.63" y="438.4951">schedules for</text><text fill="#000000" font-family="sans-serif" font-size="13" lengthAdjust="spacing" textLength="7" x="170.785" y="415.4196">1</text><text fill="#000000" font-family="sans-serif" font-size="13" lengthAdjust="spacing" textLength="5" x="157.0252" y="461.1545">*</text><!--MD5=[7237f06c0b74e3dd035481e962d83e87]
link SNSUser to Arrival--><path codeLine="66" d="M129.29,585.87 C110.98,604.3 90.96,627.94 78.63,653 C71.3,667.9 67.8,686.23 66.13,700.92 " fill="none" id="SNSUser-Arrival" style="stroke:#A80036;stroke-width:1.0;"/><polygon fill="#000000" points="81.2238,666.5587,88.1529,660.0442,83.0004,657.2156,81.2238,666.5587" style="stroke:#000000;stroke-width:1.0;"/><text fill="#000000" font-family="sans-serif" font-size="13" lengthAdjust="spacing" textLength="78" x="92.63" y="667.4951">associated to</text><text fill="#000000" font-family="sans-serif" font-size="13" lengthAdjust="spacing" textLength="7" x="114.6977" y="588.4501">1</text><text fill="#000000" font-family="sans-serif" font-size="13" lengthAdjust="spacing" textLength="5" x="60.8863" y="689.9272">*</text><!--MD5=[3f8bc51bb69ce45c3e3ea0b764df71f1]
link SNSUser to Appointment--><path codeLine="67" d="M178.02,623.13 C183.98,692.64 192.45,791.54 195.98,832.78 " fill="none" id="SNSUser-Appointment" style="stroke:#A80036;stroke-width:1.0;"/><polygon fill="#000000" points="195.0568,733.1575,197.2129,723.8946,191.3565,724.3963,195.0568,733.1575" style="stroke:#000000;stroke-width:1.0;"/><text fill="#000000" font-family="sans-serif" font-size="13" lengthAdjust="spacing" textLength="21" x="203.63" y="733.4951">has</text><text fill="#000000" font-family="sans-serif" font-size="13" lengthAdjust="spacing" textLength="7" x="171.2774" y="644.103">1</text><text fill="#000000" font-family="sans-serif" font-size="13" lengthAdjust="spacing" textLength="5" x="189.7609" y="822.0371">*</text><!--MD5=[de78e1efbcb885042a1719c3cec87a53]
link VaccinationCenter to WaitingRoom--><path codeLine="68" d="M266.58,1114.29 C260.67,1119.46 254.65,1124.43 248.63,1129 C206.86,1160.72 153.58,1189.17 117.47,1206.93 " fill="none" id="VaccinationCenter-WaitingRoom" style="stroke:#A80036;stroke-width:1.0;"/><polygon fill="#000000" points="205.3829,1170.8144,214.6169,1168.5374,211.515,1163.5447,205.3829,1170.8144" style="stroke:#000000;stroke-width:1.0;"/><text fill="#000000" font-family="sans-serif" font-size="13" lengthAdjust="spacing" textLength="21" x="218.63" y="1173.4951">has</text><text fill="#000000" font-family="sans-serif" font-size="13" lengthAdjust="spacing" textLength="7" x="251.5355" y="1119.0352">1</text><text fill="#000000" font-family="sans-serif" font-size="13" lengthAdjust="spacing" textLength="7" x="121.4386" y="1196.2312">1</text><!--MD5=[6aba1ff1400494eed4c7a268132f7404]
@startuml US04_DM
hide methods
' left to right direction
skinparam classAttributeIconSize 0

class Appointment {}

class Arrival {
  - date
}

class Company {
  - designation
}

class Employee {
  - name
  - phoneNumber
  - email
  - password
  - address
  - citizenCardNumber
  - roleId
}

class Receptionist {}

class SNSUser {
  - citizenCard
  - snsNumber
  - name
  - birthDay
  - gender
  - phoneNumber
  - email
  - address
}

class VaccinationCenter {
  - name
  - address
  - emailAddress
  - phoneNumber
  - faxNumber
  - websiteAddress
  - openingHours
  - closingHours
  - slotDuration
  - maximumVaccinesPerSlot
}

class VaccineType {}

class WaitingRoom {}


Arrival "1" - - "0..1" Appointment : related to >
Arrival "*" - - "*" WaitingRoom : is in >
Appointment "1" - - "1" VaccinationCenter : has >
Appointment "1" - - "1" VaccineType : has 
Company "1" - - "*" Employee : knows >
Company "1" - - "*" VaccinationCenter : knows >
Employee - - Receptionist : plays as >
Receptionist "1" - - "*" Appointment : related to >
Receptionist "1" - - "*" Arrival : registers >
Receptionist "1" - - "*" SNSUser : schedules for >
SNSUser "1" - - "*" Arrival : associated to >
SNSUser "1" - - "*" Appointment : has >
VaccinationCenter "1" - - "1" WaitingRoom : has >

@enduml

@startuml US04_DM
hide methods
skinparam classAttributeIconSize 0

class Appointment {}

class Arrival {
  - date
}

class Company {
  - designation
}

class Employee {
  - name
  - phoneNumber
  - email
  - password
  - address
  - citizenCardNumber
  - roleId
}

class Receptionist {}

class SNSUser {
  - citizenCard
  - snsNumber
  - name
  - birthDay
  - gender
  - phoneNumber
  - email
  - address
}

class VaccinationCenter {
  - name
  - address
  - emailAddress
  - phoneNumber
  - faxNumber
  - websiteAddress
  - openingHours
  - closingHours
  - slotDuration
  - maximumVaccinesPerSlot
}

class VaccineType {}

class WaitingRoom {}


Arrival "1" - - "0..1" Appointment : related to >
Arrival "*" - - "*" WaitingRoom : is in >
Appointment "1" - - "1" VaccinationCenter : has >
Appointment "1" - - "1" VaccineType : has 
Company "1" - - "*" Employee : knows >
Company "1" - - "*" VaccinationCenter : knows >
Employee - - Receptionist : plays as >
Receptionist "1" - - "*" Appointment : related to >
Receptionist "1" - - "*" Arrival : registers >
Receptionist "1" - - "*" SNSUser : schedules for >
SNSUser "1" - - "*" Arrival : associated to >
SNSUser "1" - - "*" Appointment : has >
VaccinationCenter "1" - - "1" WaitingRoom : has >

@enduml

PlantUML version 1.2022.0(Tue Jan 11 16:16:42 WET 2022)
(GPL source distribution)
Java Runtime: Java(TM) SE Runtime Environment
JVM: Java HotSpot(TM) 64-Bit Server VM
Default Encoding: Cp1252
Language: pt
Country: PT
--></g></svg>