<?xml version="1.0" encoding="UTF-8" standalone="no"?><svg xmlns="http://www.w3.org/2000/svg" xmlns:xlink="http://www.w3.org/1999/xlink" contentScriptType="application/ecmascript" contentStyleType="text/css" height="1020px" preserveAspectRatio="none" style="width:547px;height:1020px;background:#FFFFFF;" version="1.1" viewBox="0 0 547 1020" width="547px" zoomAndPan="magnify"><defs><filter height="300%" id="fdxywec12ogaq" width="300%" x="-1" y="-1"><feGaussianBlur result="blurOut" stdDeviation="2.0"/><feColorMatrix in="blurOut" result="blurOut2" type="matrix" values="0 0 0 0 0 0 0 0 0 0 0 0 0 0 0 0 0 0 .4 0"/><feOffset dx="4.0" dy="4.0" in="blurOut2" result="blurOut3"/><feBlend in="SourceGraphic" in2="blurOut3" mode="normal"/></filter></defs><g><!--MD5=[c508b5b6bbe276ff5e2700b6641f837f]
class Appointment--><rect codeLine="5" fill="#FEFECE" filter="url(#fdxywec12ogaq)" height="52.8047" id="Appointment" style="stroke:#A80036;stroke-width:1.5;" width="112" x="78.22" y="836"/><ellipse cx="93.22" cy="852" fill="#ADD1B2" rx="11" ry="11" style="stroke:#A80036;stroke-width:1.0;"/><path d="M96.1888,857.6406 Q95.6106,857.9375 94.97,858.0781 Q94.3294,858.2344 93.6263,858.2344 Q91.1263,858.2344 89.7981,856.5938 Q88.4856,854.9375 88.4856,851.8125 Q88.4856,848.6875 89.7981,847.0313 Q91.1263,845.375 93.6263,845.375 Q94.3294,845.375 94.97,845.5313 Q95.6263,845.6875 96.1888,845.9844 L96.1888,848.7031 Q95.5638,848.125 94.97,847.8594 Q94.3763,847.5781 93.7513,847.5781 Q92.4075,847.5781 91.72,848.6563 Q91.0325,849.7188 91.0325,851.8125 Q91.0325,853.9063 91.72,854.9844 Q92.4075,856.0469 93.7513,856.0469 Q94.3763,856.0469 94.97,855.7813 Q95.5638,855.5 96.1888,854.9219 L96.1888,857.6406 Z " fill="#000000"/><text fill="#000000" font-family="sans-serif" font-size="12" lengthAdjust="spacing" textLength="80" x="107.22" y="856.1543">Appointment</text><line style="stroke:#A80036;stroke-width:1.5;" x1="79.22" x2="189.22" y1="868" y2="868"/><text fill="#000000" font-family="sans-serif" font-size="11" lengthAdjust="spacing" textLength="29" x="84.22" y="882.2104">-date</text><!--MD5=[e962253c6721a4b87d8c880d8815b08d]
class AppointmentScheduleList--><rect codeLine="10" fill="#FEFECE" filter="url(#fdxywec12ogaq)" height="40" id="AppointmentScheduleList" style="stroke:#A80036;stroke-width:1.5;" width="191" x="268.72" y="712.5"/><ellipse cx="283.72" cy="728.5" fill="#ADD1B2" rx="11" ry="11" style="stroke:#A80036;stroke-width:1.0;"/><path d="M286.6887,734.1406 Q286.1106,734.4375 285.47,734.5781 Q284.8294,734.7344 284.1262,734.7344 Q281.6262,734.7344 280.2981,733.0938 Q278.9856,731.4375 278.9856,728.3125 Q278.9856,725.1875 280.2981,723.5313 Q281.6262,721.875 284.1262,721.875 Q284.8294,721.875 285.47,722.0313 Q286.1262,722.1875 286.6887,722.4844 L286.6887,725.2031 Q286.0637,724.625 285.47,724.3594 Q284.8762,724.0781 284.2512,724.0781 Q282.9075,724.0781 282.22,725.1563 Q281.5325,726.2188 281.5325,728.3125 Q281.5325,730.4063 282.22,731.4844 Q282.9075,732.5469 284.2512,732.5469 Q284.8762,732.5469 285.47,732.2813 Q286.0637,732 286.6887,731.4219 L286.6887,734.1406 Z " fill="#000000"/><text fill="#000000" font-family="sans-serif" font-size="12" lengthAdjust="spacing" textLength="159" x="297.72" y="732.6543">AppointmentScheduleList</text><line style="stroke:#A80036;stroke-width:1.5;" x1="269.72" x2="458.72" y1="744.5" y2="744.5"/><!--MD5=[950bab46f39ba9ae59885963abb53c18]
class Arrival--><rect codeLine="12" fill="#FEFECE" filter="url(#fdxywec12ogaq)" height="52.8047" id="Arrival" style="stroke:#A80036;stroke-width:1.5;" width="78" x="155.22" y="706"/><ellipse cx="173.82" cy="722" fill="#ADD1B2" rx="11" ry="11" style="stroke:#A80036;stroke-width:1.0;"/><path d="M176.7888,727.6406 Q176.2106,727.9375 175.57,728.0781 Q174.9294,728.2344 174.2263,728.2344 Q171.7263,728.2344 170.3981,726.5938 Q169.0856,724.9375 169.0856,721.8125 Q169.0856,718.6875 170.3981,717.0313 Q171.7263,715.375 174.2263,715.375 Q174.9294,715.375 175.57,715.5313 Q176.2263,715.6875 176.7888,715.9844 L176.7888,718.7031 Q176.1638,718.125 175.57,717.8594 Q174.9763,717.5781 174.3513,717.5781 Q173.0075,717.5781 172.32,718.6563 Q171.6325,719.7188 171.6325,721.8125 Q171.6325,723.9063 172.32,724.9844 Q173.0075,726.0469 174.3513,726.0469 Q174.9763,726.0469 175.57,725.7813 Q176.1638,725.5 176.7888,724.9219 L176.7888,727.6406 Z " fill="#000000"/><text fill="#000000" font-family="sans-serif" font-size="12" lengthAdjust="spacing" textLength="38" x="188.62" y="726.1543">Arrival</text><line style="stroke:#A80036;stroke-width:1.5;" x1="156.22" x2="232.22" y1="738" y2="738"/><text fill="#000000" font-family="sans-serif" font-size="11" lengthAdjust="spacing" textLength="66" x="161.22" y="752.2104">-arrivalDate</text><!--MD5=[02e4b9b7573f1156f41e60aa5b4e25a4]
class Company--><rect codeLine="16" fill="#FEFECE" filter="url(#fdxywec12ogaq)" height="52.8047" id="Company" style="stroke:#A80036;stroke-width:1.5;" width="89" x="263.72" y="7"/><ellipse cx="278.72" cy="23" fill="#ADD1B2" rx="11" ry="11" style="stroke:#A80036;stroke-width:1.0;"/><path d="M281.6887,28.6406 Q281.1106,28.9375 280.47,29.0781 Q279.8294,29.2344 279.1262,29.2344 Q276.6262,29.2344 275.2981,27.5938 Q273.9856,25.9375 273.9856,22.8125 Q273.9856,19.6875 275.2981,18.0313 Q276.6262,16.375 279.1262,16.375 Q279.8294,16.375 280.47,16.5313 Q281.1262,16.6875 281.6887,16.9844 L281.6887,19.7031 Q281.0637,19.125 280.47,18.8594 Q279.8762,18.5781 279.2512,18.5781 Q277.9075,18.5781 277.22,19.6563 Q276.5325,20.7188 276.5325,22.8125 Q276.5325,24.9063 277.22,25.9844 Q277.9075,27.0469 279.2512,27.0469 Q279.8762,27.0469 280.47,26.7813 Q281.0637,26.5 281.6887,25.9219 L281.6887,28.6406 Z " fill="#000000"/><text fill="#000000" font-family="sans-serif" font-size="12" lengthAdjust="spacing" textLength="57" x="292.72" y="27.1543">Company</text><line style="stroke:#A80036;stroke-width:1.5;" x1="264.72" x2="351.72" y1="39" y2="39"/><text fill="#000000" font-family="sans-serif" font-size="11" lengthAdjust="spacing" textLength="70" x="269.72" y="53.2104">-designation</text><!--MD5=[7421f545a0d8420c5bec41e74b387d9c]
class Employee--><rect codeLine="20" fill="#FEFECE" filter="url(#fdxywec12ogaq)" height="129.6328" id="Employee" style="stroke:#A80036;stroke-width:1.5;" width="123" x="177.72" y="137"/><ellipse cx="206.67" cy="153" fill="#ADD1B2" rx="11" ry="11" style="stroke:#A80036;stroke-width:1.0;"/><path d="M209.6388,158.6406 Q209.0606,158.9375 208.42,159.0781 Q207.7794,159.2344 207.0763,159.2344 Q204.5763,159.2344 203.2481,157.5938 Q201.9356,155.9375 201.9356,152.8125 Q201.9356,149.6875 203.2481,148.0313 Q204.5763,146.375 207.0763,146.375 Q207.7794,146.375 208.42,146.5313 Q209.0763,146.6875 209.6388,146.9844 L209.6388,149.7031 Q209.0138,149.125 208.42,148.8594 Q207.8263,148.5781 207.2013,148.5781 Q205.8575,148.5781 205.17,149.6563 Q204.4825,150.7188 204.4825,152.8125 Q204.4825,154.9063 205.17,155.9844 Q205.8575,157.0469 207.2013,157.0469 Q207.8263,157.0469 208.42,156.7813 Q209.0138,156.5 209.6388,155.9219 L209.6388,158.6406 Z " fill="#000000"/><text fill="#000000" font-family="sans-serif" font-size="12" lengthAdjust="spacing" textLength="60" x="223.77" y="157.1543">Employee</text><line style="stroke:#A80036;stroke-width:1.5;" x1="178.72" x2="299.72" y1="169" y2="169"/><text fill="#000000" font-family="sans-serif" font-size="11" lengthAdjust="spacing" textLength="36" x="183.72" y="183.2104">-name</text><text fill="#000000" font-family="sans-serif" font-size="11" lengthAdjust="spacing" textLength="84" x="183.72" y="196.0151">-phoneNumber</text><text fill="#000000" font-family="sans-serif" font-size="11" lengthAdjust="spacing" textLength="35" x="183.72" y="208.8198">-email</text><text fill="#000000" font-family="sans-serif" font-size="11" lengthAdjust="spacing" textLength="60" x="183.72" y="221.6245">-password</text><text fill="#000000" font-family="sans-serif" font-size="11" lengthAdjust="spacing" textLength="51" x="183.72" y="234.4292">-address</text><text fill="#000000" font-family="sans-serif" font-size="11" lengthAdjust="spacing" textLength="111" x="183.72" y="247.2339">-citizenCardNumber</text><text fill="#000000" font-family="sans-serif" font-size="11" lengthAdjust="spacing" textLength="36" x="183.72" y="260.0386">-roleId</text><!--MD5=[03960189e81aa2c066c762ffabbee709]
class Receptionist--><rect codeLine="30" fill="#FEFECE" filter="url(#fdxywec12ogaq)" height="40" id="Receptionist" style="stroke:#A80036;stroke-width:1.5;" width="110" x="134.22" y="344"/><ellipse cx="149.22" cy="360" fill="#ADD1B2" rx="11" ry="11" style="stroke:#A80036;stroke-width:1.0;"/><path d="M152.1888,365.6406 Q151.6106,365.9375 150.97,366.0781 Q150.3294,366.2344 149.6263,366.2344 Q147.1263,366.2344 145.7981,364.5938 Q144.4856,362.9375 144.4856,359.8125 Q144.4856,356.6875 145.7981,355.0313 Q147.1263,353.375 149.6263,353.375 Q150.3294,353.375 150.97,353.5313 Q151.6263,353.6875 152.1888,353.9844 L152.1888,356.7031 Q151.5638,356.125 150.97,355.8594 Q150.3763,355.5781 149.7513,355.5781 Q148.4075,355.5781 147.72,356.6563 Q147.0325,357.7188 147.0325,359.8125 Q147.0325,361.9063 147.72,362.9844 Q148.4075,364.0469 149.7513,364.0469 Q150.3763,364.0469 150.97,363.7813 Q151.5638,363.5 152.1888,362.9219 L152.1888,365.6406 Z " fill="#000000"/><text fill="#000000" font-family="sans-serif" font-size="12" lengthAdjust="spacing" textLength="78" x="163.22" y="364.1543">Receptionist</text><line style="stroke:#A80036;stroke-width:1.5;" x1="135.22" x2="243.22" y1="376" y2="376"/><!--MD5=[72be06cc7ae02ccc98efe28a50e62246]
class SNSUser--><rect codeLine="32" fill="#FEFECE" filter="url(#fdxywec12ogaq)" height="142.4375" id="SNSUser" style="stroke:#A80036;stroke-width:1.5;" width="96" x="92.22" y="474"/><ellipse cx="111.72" cy="490" fill="#ADD1B2" rx="11" ry="11" style="stroke:#A80036;stroke-width:1.0;"/><path d="M114.6888,495.6406 Q114.1106,495.9375 113.47,496.0781 Q112.8294,496.2344 112.1263,496.2344 Q109.6263,496.2344 108.2981,494.5938 Q106.9856,492.9375 106.9856,489.8125 Q106.9856,486.6875 108.2981,485.0313 Q109.6263,483.375 112.1263,483.375 Q112.8294,483.375 113.47,483.5313 Q114.1263,483.6875 114.6888,483.9844 L114.6888,486.7031 Q114.0638,486.125 113.47,485.8594 Q112.8763,485.5781 112.2513,485.5781 Q110.9075,485.5781 110.22,486.6563 Q109.5325,487.7188 109.5325,489.8125 Q109.5325,491.9063 110.22,492.9844 Q110.9075,494.0469 112.2513,494.0469 Q112.8763,494.0469 113.47,493.7813 Q114.0638,493.5 114.6888,492.9219 L114.6888,495.6406 Z " fill="#000000"/><text fill="#000000" font-family="sans-serif" font-size="12" lengthAdjust="spacing" textLength="54" x="126.72" y="494.1543">SNSUser</text><line style="stroke:#A80036;stroke-width:1.5;" x1="93.22" x2="187.22" y1="506" y2="506"/><text fill="#000000" font-family="sans-serif" font-size="11" lengthAdjust="spacing" textLength="66" x="98.22" y="520.2104">-citizenCard</text><text fill="#000000" font-family="sans-serif" font-size="11" lengthAdjust="spacing" textLength="70" x="98.22" y="533.0151">-snsNumber</text><text fill="#000000" font-family="sans-serif" font-size="11" lengthAdjust="spacing" textLength="36" x="98.22" y="545.8198">-name</text><text fill="#000000" font-family="sans-serif" font-size="11" lengthAdjust="spacing" textLength="51" x="98.22" y="558.6245">-birthDay</text><text fill="#000000" font-family="sans-serif" font-size="11" lengthAdjust="spacing" textLength="44" x="98.22" y="571.4292">-gender</text><text fill="#000000" font-family="sans-serif" font-size="11" lengthAdjust="spacing" textLength="84" x="98.22" y="584.2339">-phoneNumber</text><text fill="#000000" font-family="sans-serif" font-size="11" lengthAdjust="spacing" textLength="35" x="98.22" y="597.0386">-email</text><text fill="#000000" font-family="sans-serif" font-size="11" lengthAdjust="spacing" textLength="51" x="98.22" y="609.8433">-address</text><!--MD5=[de60e6d4f424ae4d0522096f76a59010]
class VaccinationCenter--><rect codeLine="43" fill="#FEFECE" filter="url(#fdxywec12ogaq)" height="168.0469" id="VaccinationCenter" style="stroke:#A80036;stroke-width:1.5;" width="163" x="370.72" y="461"/><ellipse cx="392.92" cy="477" fill="#ADD1B2" rx="11" ry="11" style="stroke:#A80036;stroke-width:1.0;"/><path d="M395.8887,482.6406 Q395.3106,482.9375 394.67,483.0781 Q394.0294,483.2344 393.3262,483.2344 Q390.8262,483.2344 389.4981,481.5938 Q388.1856,479.9375 388.1856,476.8125 Q388.1856,473.6875 389.4981,472.0313 Q390.8262,470.375 393.3262,470.375 Q394.0294,470.375 394.67,470.5313 Q395.3262,470.6875 395.8887,470.9844 L395.8887,473.7031 Q395.2637,473.125 394.67,472.8594 Q394.0762,472.5781 393.4512,472.5781 Q392.1075,472.5781 391.42,473.6563 Q390.7325,474.7188 390.7325,476.8125 Q390.7325,478.9063 391.42,479.9844 Q392.1075,481.0469 393.4512,481.0469 Q394.0762,481.0469 394.67,480.7813 Q395.2637,480.5 395.8887,479.9219 L395.8887,482.6406 Z " fill="#000000"/><text fill="#000000" font-family="sans-serif" font-size="12" lengthAdjust="spacing" textLength="115" x="408.52" y="481.1543">VaccinationCenter</text><line style="stroke:#A80036;stroke-width:1.5;" x1="371.72" x2="532.72" y1="493" y2="493"/><text fill="#000000" font-family="sans-serif" font-size="11" lengthAdjust="spacing" textLength="36" x="376.72" y="507.2104">-name</text><text fill="#000000" font-family="sans-serif" font-size="11" lengthAdjust="spacing" textLength="51" x="376.72" y="520.0151">-address</text><text fill="#000000" font-family="sans-serif" font-size="11" lengthAdjust="spacing" textLength="82" x="376.72" y="532.8198">-emailAddress</text><text fill="#000000" font-family="sans-serif" font-size="11" lengthAdjust="spacing" textLength="84" x="376.72" y="545.6245">-phoneNumber</text><text fill="#000000" font-family="sans-serif" font-size="11" lengthAdjust="spacing" textLength="66" x="376.72" y="558.4292">-faxNumber</text><text fill="#000000" font-family="sans-serif" font-size="11" lengthAdjust="spacing" textLength="95" x="376.72" y="571.2339">-websiteAddress</text><text fill="#000000" font-family="sans-serif" font-size="11" lengthAdjust="spacing" textLength="83" x="376.72" y="584.0386">-openingHours</text><text fill="#000000" font-family="sans-serif" font-size="11" lengthAdjust="spacing" textLength="78" x="376.72" y="596.8433">-closingHours</text><text fill="#000000" font-family="sans-serif" font-size="11" lengthAdjust="spacing" textLength="73" x="376.72" y="609.6479">-slotDuration</text><text fill="#000000" font-family="sans-serif" font-size="11" lengthAdjust="spacing" textLength="151" x="376.72" y="622.4526">-maximumVaccinesPerSlot</text><!--MD5=[0e501da62322464167c8ec4d233a6b7e]
class VaccineType--><rect codeLine="56" fill="#FEFECE" filter="url(#fdxywec12ogaq)" height="40" id="VaccineType" style="stroke:#A80036;stroke-width:1.5;" width="110" x="79.22" y="966"/><ellipse cx="94.22" cy="982" fill="#ADD1B2" rx="11" ry="11" style="stroke:#A80036;stroke-width:1.0;"/><path d="M97.1888,987.6406 Q96.6106,987.9375 95.97,988.0781 Q95.3294,988.2344 94.6263,988.2344 Q92.1263,988.2344 90.7981,986.5938 Q89.4856,984.9375 89.4856,981.8125 Q89.4856,978.6875 90.7981,977.0313 Q92.1263,975.375 94.6263,975.375 Q95.3294,975.375 95.97,975.5313 Q96.6263,975.6875 97.1888,975.9844 L97.1888,978.7031 Q96.5638,978.125 95.97,977.8594 Q95.3763,977.5781 94.7513,977.5781 Q93.4075,977.5781 92.72,978.6563 Q92.0325,979.7188 92.0325,981.8125 Q92.0325,983.9063 92.72,984.9844 Q93.4075,986.0469 94.7513,986.0469 Q95.3763,986.0469 95.97,985.7813 Q96.5638,985.5 97.1888,984.9219 L97.1888,987.6406 Z " fill="#000000"/><text fill="#000000" font-family="sans-serif" font-size="12" lengthAdjust="spacing" textLength="78" x="108.22" y="986.1543">VaccineType</text><line style="stroke:#A80036;stroke-width:1.5;" x1="80.22" x2="188.22" y1="998" y2="998"/><!--MD5=[7b3e8f70d80133538393dc99d446cc4d]
class WaitingRoomList--><rect codeLine="58" fill="#FEFECE" filter="url(#fdxywec12ogaq)" height="40" id="WaitingRoomList" style="stroke:#A80036;stroke-width:1.5;" width="134" x="388.22" y="13.5"/><ellipse cx="403.22" cy="29.5" fill="#ADD1B2" rx="11" ry="11" style="stroke:#A80036;stroke-width:1.0;"/><path d="M406.1887,35.1406 Q405.6106,35.4375 404.97,35.5781 Q404.3294,35.7344 403.6262,35.7344 Q401.1262,35.7344 399.7981,34.0938 Q398.4856,32.4375 398.4856,29.3125 Q398.4856,26.1875 399.7981,24.5313 Q401.1262,22.875 403.6262,22.875 Q404.3294,22.875 404.97,23.0313 Q405.6262,23.1875 406.1887,23.4844 L406.1887,26.2031 Q405.5637,25.625 404.97,25.3594 Q404.3762,25.0781 403.7512,25.0781 Q402.4075,25.0781 401.72,26.1563 Q401.0325,27.2188 401.0325,29.3125 Q401.0325,31.4063 401.72,32.4844 Q402.4075,33.5469 403.7512,33.5469 Q404.3762,33.5469 404.97,33.2813 Q405.5637,33 406.1887,32.4219 L406.1887,35.1406 Z " fill="#000000"/><text fill="#000000" font-family="sans-serif" font-size="12" lengthAdjust="spacing" textLength="102" x="417.22" y="33.6543">WaitingRoomList</text><line style="stroke:#A80036;stroke-width:1.5;" x1="389.22" x2="521.22" y1="45.5" y2="45.5"/><!--MD5=[aaa7e27c4ec43917c82a021675d2c87a]
class WaitingRoom--><rect fill="#FEFECE" filter="url(#fdxywec12ogaq)" height="40" id="WaitingRoom" style="stroke:#A80036;stroke-width:1.5;" width="113" x="238.72" y="842.5"/><ellipse cx="253.72" cy="858.5" fill="#ADD1B2" rx="11" ry="11" style="stroke:#A80036;stroke-width:1.0;"/><path d="M256.6888,864.1406 Q256.1106,864.4375 255.47,864.5781 Q254.8294,864.7344 254.1263,864.7344 Q251.6263,864.7344 250.2981,863.0938 Q248.9856,861.4375 248.9856,858.3125 Q248.9856,855.1875 250.2981,853.5313 Q251.6263,851.875 254.1263,851.875 Q254.8294,851.875 255.47,852.0313 Q256.1263,852.1875 256.6888,852.4844 L256.6888,855.2031 Q256.0638,854.625 255.47,854.3594 Q254.8763,854.0781 254.2513,854.0781 Q252.9075,854.0781 252.22,855.1563 Q251.5325,856.2188 251.5325,858.3125 Q251.5325,860.4063 252.22,861.4844 Q252.9075,862.5469 254.2513,862.5469 Q254.8763,862.5469 255.47,862.2813 Q256.0638,862 256.6888,861.4219 L256.6888,864.1406 Z " fill="#000000"/><text fill="#000000" font-family="sans-serif" font-size="12" lengthAdjust="spacing" textLength="81" x="267.72" y="862.6543">WaitingRoom</text><line style="stroke:#A80036;stroke-width:1.5;" x1="239.72" x2="350.72" y1="874.5" y2="874.5"/><!--MD5=[cdda88bd94d57e06d95e6dd6ce9ee716]
link Arrival to Appointment--><path codeLine="61" d="M174.95,759.14 C168.71,768.24 162.14,778.77 157.22,789 C150.08,803.88 144.43,821.51 140.52,835.67 " fill="none" id="Arrival-Appointment" style="stroke:#A80036;stroke-width:1.0;"/><polygon fill="#000000" points="160.1686,802.1262,166.5598,795.0832,161.1994,792.6717,160.1686,802.1262" style="stroke:#000000;stroke-width:1.0;"/><text fill="#000000" font-family="sans-serif" font-size="13" lengthAdjust="spacing" textLength="62" x="171.22" y="802.0669">related to</text><text fill="#000000" font-family="sans-serif" font-size="13" lengthAdjust="spacing" textLength="8" x="161.8597" y="778.7109">1</text><text fill="#000000" font-family="sans-serif" font-size="13" lengthAdjust="spacing" textLength="24" x="115.2019" y="824.836">0..1</text><!--MD5=[c857544bf6ef1b6699ca7bc3e75266a9]
link Arrival to WaitingRoom--><path codeLine="62" d="M214.62,759.18 C222.06,768.56 230.53,779.25 238.22,789 C252.51,807.1 268.76,827.77 280.24,842.4 " fill="none" id="Arrival-WaitingRoom" style="stroke:#A80036;stroke-width:1.0;"/><polygon fill="#000000" points="259.3159,801.4927,256.0232,792.5703,251.4076,796.2097,259.3159,801.4927" style="stroke:#000000;stroke-width:1.0;"/><text fill="#000000" font-family="sans-serif" font-size="13" lengthAdjust="spacing" textLength="25" x="265.22" y="802.0669">is in</text><text fill="#000000" font-family="sans-serif" font-size="13" lengthAdjust="spacing" textLength="7" x="211.3169" y="778.7597">*</text><text fill="#000000" font-family="sans-serif" font-size="13" lengthAdjust="spacing" textLength="7" x="267.8115" y="831.3789">*</text><!--MD5=[5bffdd6f8ef67cfbc17d6bd4398d763c]
link AppointmentScheduleList to Appointment--><path codeLine="64" d="M351.38,752.68 C339.58,768.96 320.69,791.87 299.22,806 C289.73,812.25 234.37,830.34 190.36,844.18 " fill="none" id="AppointmentScheduleList-Appointment" style="stroke:#A80036;stroke-width:1.0;"/><polygon fill="#000000" points="319.8728,800.0367,329.1889,798.1231,326.2849,793.0127,319.8728,800.0367" style="stroke:#000000;stroke-width:1.0;"/><text fill="#000000" font-family="sans-serif" font-size="13" lengthAdjust="spacing" textLength="23" x="333.22" y="802.0669">has</text><text fill="#000000" font-family="sans-serif" font-size="13" lengthAdjust="spacing" textLength="8" x="338.6438" y="772.5506">1</text><text fill="#000000" font-family="sans-serif" font-size="13" lengthAdjust="spacing" textLength="7" x="198.3741" y="837.7994">*</text><!--MD5=[d63168792e55d79de1fe85cd885704ff]
link Appointment to VaccineType--><path codeLine="65" d="M134.22,889.27 C134.22,912.12 134.22,944.98 134.22,965.65 " fill="none" id="Appointment-VaccineType" style="stroke:#A80036;stroke-width:1.0;"/><text fill="#000000" font-family="sans-serif" font-size="13" lengthAdjust="spacing" textLength="23" x="135.22" y="932.0669">has</text><text fill="#000000" font-family="sans-serif" font-size="13" lengthAdjust="spacing" textLength="8" x="125.345" y="908.8693">1</text><text fill="#000000" font-family="sans-serif" font-size="13" lengthAdjust="spacing" textLength="8" x="125.095" y="954.9028">1</text><!--MD5=[09366576ee87d48d594df10cacc83f45]
link Company to Employee--><path codeLine="66" d="M297.59,60.15 C289.13,80.58 276.9,110.1 265.82,136.84 " fill="none" id="Company-Employee" style="stroke:#A80036;stroke-width:1.0;"/><polygon fill="#000000" points="286.3064,103.1857,292.4833,95.9541,287.053,93.7045,286.3064,103.1857" style="stroke:#000000;stroke-width:1.0;"/><text fill="#000000" font-family="sans-serif" font-size="13" lengthAdjust="spacing" textLength="39" x="297.22" y="103.0669">knows</text><text fill="#000000" font-family="sans-serif" font-size="13" lengthAdjust="spacing" textLength="8" x="286.3897" y="79.7231">1</text><text fill="#000000" font-family="sans-serif" font-size="13" lengthAdjust="spacing" textLength="7" x="261.3466" y="125.9871">*</text><!--MD5=[eebe9b198877275d05dd12630ed9e401]
link Company to VaccinationCenter--><path codeLine="67" d="M328.14,60.21 C334.35,69.23 340.75,79.7 345.22,90 C398.77,213.3 427.87,367.59 441.7,460.83 " fill="none" id="Company-VaccinationCenter" style="stroke:#A80036;stroke-width:1.0;"/><polygon fill="#000000" points="420.5836,310.3769,420.9444,300.8732,415.2893,302.4761,420.5836,310.3769" style="stroke:#000000;stroke-width:1.0;"/><text fill="#000000" font-family="sans-serif" font-size="13" lengthAdjust="spacing" textLength="39" x="428.22" y="310.0669">knows</text><text fill="#000000" font-family="sans-serif" font-size="13" lengthAdjust="spacing" textLength="8" x="323.6225" y="79.7962">1</text><text fill="#000000" font-family="sans-serif" font-size="13" lengthAdjust="spacing" textLength="7" x="433.4952" y="450.0227">*</text><!--MD5=[bfff716514ca687b645fe473c6e098a4]
reverse link Employee to Receptionist--><path codeLine="68" d="M213.16,286.4 C206.44,307.9 199.83,329.08 195.26,343.7 " fill="none" id="Employee-backto-Receptionist" style="stroke:#A80036;stroke-width:1.0;"/><polygon fill="none" points="206.53,284.16,219.18,267.16,219.89,288.33,206.53,284.16" style="stroke:#A80036;stroke-width:1.0;"/><!--MD5=[d205afa640eb10e9aa5da67d61820494]
link Receptionist to Appointment--><path codeLine="69" d="M156.46,384.04 C130.27,400.96 94.66,428.08 74.22,461 C25.86,538.91 29.25,568.23 16.22,659 C6,730.29 66.32,799.8 104.53,835.92 " fill="none" id="Receptionist-Appointment" style="stroke:#A80036;stroke-width:1.0;"/><polygon fill="#000000" points="20.6492,672.5337,24.6015,663.8833,18.7621,663.2122,20.6492,672.5337" style="stroke:#000000;stroke-width:1.0;"/><text fill="#000000" font-family="sans-serif" font-size="13" lengthAdjust="spacing" textLength="62" x="30.22" y="672.0669">related to</text><text fill="#000000" font-family="sans-serif" font-size="13" lengthAdjust="spacing" textLength="8" x="137.6618" y="404.2163">1</text><text fill="#000000" font-family="sans-serif" font-size="13" lengthAdjust="spacing" textLength="7" x="89.8548" y="825.1438">*</text><!--MD5=[24f82a13fe82ee63074bc80db6bef9fb]
link Receptionist to Arrival--><path codeLine="70" d="M218.13,384.15 C227.65,392.13 237.1,402.29 242.22,414 C288.89,520.69 282.87,566.88 242.22,676 C238.13,686.98 230.78,697.24 223.05,705.87 " fill="none" id="Receptionist-Arrival" style="stroke:#A80036;stroke-width:1.0;"/><polygon fill="#000000" points="279.2965,550.0658,282.0967,540.9769,276.2196,541.0667,279.2965,550.0658" style="stroke:#000000;stroke-width:1.0;"/><text fill="#000000" font-family="sans-serif" font-size="13" lengthAdjust="spacing" textLength="56" x="288.22" y="549.5669">registers</text><text fill="#000000" font-family="sans-serif" font-size="13" lengthAdjust="spacing" textLength="8" x="217.1359" y="404.0121">1</text><text fill="#000000" font-family="sans-serif" font-size="13" lengthAdjust="spacing" textLength="7" x="221.9076" y="695.0823">*</text><!--MD5=[7690a4971bd8576b261a40a0340b8203]
link Receptionist to SNSUser--><path codeLine="71" d="M161.66,384.12 C152.4,392.16 143.18,402.36 138.22,414 C130.35,432.48 128.19,453.83 128.73,473.81 " fill="none" id="Receptionist-SNSUser" style="stroke:#A80036;stroke-width:1.0;"/><polygon fill="#000000" points="141.4967,427.26,147.373,419.7821,141.8553,417.7562,141.4967,427.26" style="stroke:#000000;stroke-width:1.0;"/><text fill="#000000" font-family="sans-serif" font-size="13" lengthAdjust="spacing" textLength="85" x="152.22" y="427.0669">schedules for</text><text fill="#000000" font-family="sans-serif" font-size="13" lengthAdjust="spacing" textLength="8" x="155.0338" y="403.9737">1</text><text fill="#000000" font-family="sans-serif" font-size="13" lengthAdjust="spacing" textLength="7" x="120.1842" y="462.7463">*</text><!--MD5=[7237f06c0b74e3dd035481e962d83e87]
link SNSUser to Arrival--><path codeLine="72" d="M128.09,616.16 C127.39,636.14 129.41,657.49 137.22,676 C142,687.33 150.35,697.48 159.2,705.92 " fill="none" id="SNSUser-Arrival" style="stroke:#A80036;stroke-width:1.0;"/><polygon fill="#000000" points="143.8574,672.2907,143.6722,662.7819,138.1184,664.7068,143.8574,672.2907" style="stroke:#000000;stroke-width:1.0;"/><text fill="#000000" font-family="sans-serif" font-size="13" lengthAdjust="spacing" textLength="86" x="151.22" y="672.0669">associated to</text><text fill="#000000" font-family="sans-serif" font-size="13" lengthAdjust="spacing" textLength="8" x="118.4266" y="636.323">1</text><text fill="#000000" font-family="sans-serif" font-size="13" lengthAdjust="spacing" textLength="7" x="143.2923" y="695.1438">*</text><!--MD5=[3f8bc51bb69ce45c3e3ea0b764df71f1]
link SNSUser to Appointment--><path codeLine="73" d="M113.95,616.35 C101.66,657.78 91.3,711.26 99.22,759 C103.72,786.08 114.47,815.61 122.88,835.99 " fill="none" id="SNSUser-Appointment" style="stroke:#A80036;stroke-width:1.0;"/><polygon fill="#000000" points="104.4231,737.5623,106.9922,728.4053,101.1192,728.6441,104.4231,737.5623" style="stroke:#000000;stroke-width:1.0;"/><text fill="#000000" font-family="sans-serif" font-size="13" lengthAdjust="spacing" textLength="23" x="113.22" y="737.0669">has</text><text fill="#000000" font-family="sans-serif" font-size="13" lengthAdjust="spacing" textLength="8" x="102.8284" y="636.5326">1</text><text fill="#000000" font-family="sans-serif" font-size="13" lengthAdjust="spacing" textLength="7" x="112.2628" y="824.8069">*</text><!--MD5=[de78e1efbcb885042a1719c3cec87a53]
link VaccinationCenter to WaitingRoom--><path codeLine="74" d="M484.78,629.04 C495.63,670.6 499.91,720.19 477.22,759 C450.42,804.87 394.69,831.8 351.92,846.46 " fill="none" id="VaccinationCenter-WaitingRoom" style="stroke:#A80036;stroke-width:1.0;"/><polygon fill="#000000" points="494.6129,736.8329,501.837,730.6472,496.8214,727.5823,494.6129,736.8329" style="stroke:#000000;stroke-width:1.0;"/><text fill="#000000" font-family="sans-serif" font-size="13" lengthAdjust="spacing" textLength="23" x="506.22" y="737.0669">has</text><text fill="#000000" font-family="sans-serif" font-size="13" lengthAdjust="spacing" textLength="8" x="479.2344" y="648.9773">1</text><text fill="#000000" font-family="sans-serif" font-size="13" lengthAdjust="spacing" textLength="8" x="359.6972" y="840.5193">1</text><!--MD5=[1b4e040ecc0059fa95a3752a963290c5]
link VaccinationCenter to AppointmentScheduleList--><path codeLine="75" d="M412.73,629.25 C398.11,660.08 382.82,692.31 373.4,712.15 " fill="none" id="VaccinationCenter-AppointmentScheduleList" style="stroke:#A80036;stroke-width:1.0;"/><polygon fill="#000000" points="400.0768,672.0838,406.6091,665.1715,401.2986,662.652,400.0768,672.0838" style="stroke:#000000;stroke-width:1.0;"/><text fill="#000000" font-family="sans-serif" font-size="13" lengthAdjust="spacing" textLength="23" x="411.22" y="672.0669">has</text><text fill="#000000" font-family="sans-serif" font-size="13" lengthAdjust="spacing" textLength="8" x="400.9926" y="649.2054">1</text><text fill="#000000" font-family="sans-serif" font-size="13" lengthAdjust="spacing" textLength="8" x="366.8569" y="701.4028">1</text><!--MD5=[91c3bda898752507ac78078c4d5f2d99]
@startuml US04_DM
hide methods
' left to right direction
skinparam classAttributeIconSize 0

class Appointment {
  -date
  ' -VaccineType
}

class AppointmentScheduleList {}

class Arrival {
  - arrivalDate
}

class Company {
  - designation
}

class Employee {
  - name
  - phoneNumber
  - email
  - password
  - address
  - citizenCardNumber
  - roleId
}

class Receptionist {}

class SNSUser {
  - citizenCard
  - snsNumber
  - name
  - birthDay
  - gender
  - phoneNumber
  - email
  - address
}

class VaccinationCenter {
  - name
  - address
  - emailAddress
  - phoneNumber
  - faxNumber
  - websiteAddress
  - openingHours
  - closingHours
  - slotDuration
  - maximumVaccinesPerSlot
}

class VaccineType {}

class WaitingRoomList {}


Arrival "1" - - "0..1" Appointment : related to >
Arrival "*" - - "*" WaitingRoom : is in >
' Appointment "1" - - "1" VaccinationCenter : has >
AppointmentScheduleList "1" - - "*" Appointment : has >
Appointment "1" - - "1" VaccineType : has 
Company "1" - - "*" Employee : knows >
Company "1" - - "*" VaccinationCenter : knows >
Employee <|- - Receptionist
Receptionist "1" - - "*" Appointment : related to >
Receptionist "1" - - "*" Arrival : registers >
Receptionist "1" - - "*" SNSUser : schedules for >
SNSUser "1" - - "*" Arrival : associated to >
SNSUser "1" - - "*" Appointment : has >
VaccinationCenter "1" - - "1" WaitingRoom : has >
VaccinationCenter "1" - - "1" AppointmentScheduleList : has >

@enduml

@startuml US04_DM
hide methods
skinparam classAttributeIconSize 0

class Appointment {
  -date
}

class AppointmentScheduleList {}

class Arrival {
  - arrivalDate
}

class Company {
  - designation
}

class Employee {
  - name
  - phoneNumber
  - email
  - password
  - address
  - citizenCardNumber
  - roleId
}

class Receptionist {}

class SNSUser {
  - citizenCard
  - snsNumber
  - name
  - birthDay
  - gender
  - phoneNumber
  - email
  - address
}

class VaccinationCenter {
  - name
  - address
  - emailAddress
  - phoneNumber
  - faxNumber
  - websiteAddress
  - openingHours
  - closingHours
  - slotDuration
  - maximumVaccinesPerSlot
}

class VaccineType {}

class WaitingRoomList {}


Arrival "1" - - "0..1" Appointment : related to >
Arrival "*" - - "*" WaitingRoom : is in >
AppointmentScheduleList "1" - - "*" Appointment : has >
Appointment "1" - - "1" VaccineType : has 
Company "1" - - "*" Employee : knows >
Company "1" - - "*" VaccinationCenter : knows >
Employee <|- - Receptionist
Receptionist "1" - - "*" Appointment : related to >
Receptionist "1" - - "*" Arrival : registers >
Receptionist "1" - - "*" SNSUser : schedules for >
SNSUser "1" - - "*" Arrival : associated to >
SNSUser "1" - - "*" Appointment : has >
VaccinationCenter "1" - - "1" WaitingRoom : has >
VaccinationCenter "1" - - "1" AppointmentScheduleList : has >

@enduml

PlantUML version 1.2022.0(Tue Jan 11 16:16:42 WET 2022)
(GPL source distribution)
Java Runtime: OpenJDK Runtime Environment
JVM: OpenJDK 64-Bit Server VM
Default Encoding: UTF-8
Language: en
Country: US
--></g></svg>