<?xml version="1.0" encoding="UTF-8" standalone="no"?><svg xmlns="http://www.w3.org/2000/svg" xmlns:xlink="http://www.w3.org/1999/xlink" contentScriptType="application/ecmascript" contentStyleType="text/css" height="292px" preserveAspectRatio="none" style="width:1060px;height:292px;background:#FFFFFF;" version="1.1" viewBox="0 0 1060 292" width="1060px" zoomAndPan="magnify"><defs><filter height="300%" id="f13gwiuajo03uo" width="300%" x="-1" y="-1"><feGaussianBlur result="blurOut" stdDeviation="2.0"/><feColorMatrix in="blurOut" result="blurOut2" type="matrix" values="0 0 0 0 0 0 0 0 0 0 0 0 0 0 0 0 0 0 .4 0"/><feOffset dx="4.0" dy="4.0" in="blurOut2" result="blurOut3"/><feBlend in="SourceGraphic" in2="blurOut3" mode="normal"/></filter></defs><g><!--MD5=[7421f545a0d8420c5bec41e74b387d9c]
class Employee--><rect codeLine="5" fill="#FEFECE" filter="url(#f13gwiuajo03uo)" height="136.8516" id="Employee" style="stroke:#A80036;stroke-width:1.5;" width="107" x="204" y="7"/><ellipse cx="228" cy="23" fill="#ADD1B2" rx="11" ry="11" style="stroke:#A80036;stroke-width:1.0;"/><path d="M230.7656,18.875 Q230.9219,18.6563 231.1094,18.5469 Q231.2969,18.4375 231.5156,18.4375 Q231.8906,18.4375 232.125,18.7031 Q232.3594,18.9531 232.3594,19.5625 L232.3594,21.0156 Q232.3594,21.625 232.125,21.8906 Q231.8906,22.1563 231.5156,22.1563 Q231.1719,22.1563 230.9688,21.9531 Q230.7656,21.7656 230.6563,21.25 Q230.6094,20.8906 230.4219,20.7031 Q230.0938,20.3281 229.4844,20.1094 Q228.875,19.8906 228.25,19.8906 Q227.4844,19.8906 226.8438,20.2188 Q226.2188,20.5469 225.7188,21.2969 Q225.2344,22.0469 225.2344,23.0781 L225.2344,24.1719 Q225.2344,25.4063 226.125,26.2344 Q227.0156,27.0469 228.6094,27.0469 Q229.5469,27.0469 230.2031,26.7969 Q230.5938,26.6406 231.0156,26.2031 Q231.2813,25.9375 231.4219,25.8594 Q231.5781,25.7813 231.7813,25.7813 Q232.1094,25.7813 232.3594,26.0469 Q232.625,26.2969 232.625,26.6406 Q232.625,26.9844 232.2813,27.3906 Q231.7813,27.9688 230.9844,28.2969 Q229.9063,28.75 228.6094,28.75 Q227.0938,28.75 225.8906,28.125 Q224.9063,27.625 224.2188,26.5625 Q223.5313,25.4844 223.5313,24.2031 L223.5313,23.0469 Q223.5313,21.7188 224.1406,20.5781 Q224.7656,19.4219 225.8594,18.8125 Q226.9531,18.1875 228.1875,18.1875 Q228.9219,18.1875 229.5625,18.3594 Q230.2188,18.5156 230.7656,18.875 Z " fill="#000000"/><text fill="#000000" font-family="sans-serif" font-size="12" lengthAdjust="spacing" textLength="55" x="244" y="27.9102">Employee</text><line style="stroke:#A80036;stroke-width:1.5;" x1="205" x2="310" y1="39" y2="39"/><text fill="#000000" font-family="sans-serif" font-size="11" lengthAdjust="spacing" textLength="30" x="210" y="54.4189">-name</text><text fill="#000000" font-family="sans-serif" font-size="11" lengthAdjust="spacing" textLength="71" x="210" y="68.2549">-phoneNumber</text><text fill="#000000" font-family="sans-serif" font-size="11" lengthAdjust="spacing" textLength="28" x="210" y="82.0908">-email</text><text fill="#000000" font-family="sans-serif" font-size="11" lengthAdjust="spacing" textLength="54" x="210" y="95.9268">-password</text><text fill="#000000" font-family="sans-serif" font-size="11" lengthAdjust="spacing" textLength="44" x="210" y="109.7627">-address</text><text fill="#000000" font-family="sans-serif" font-size="11" lengthAdjust="spacing" textLength="95" x="210" y="123.5986">-citizenCardNumber</text><text fill="#000000" font-family="sans-serif" font-size="11" lengthAdjust="spacing" textLength="30" x="210" y="137.4346">-roleId</text><!--MD5=[03960189e81aa2c066c762ffabbee709]
class Receptionist--><rect codeLine="15" fill="#FEFECE" filter="url(#f13gwiuajo03uo)" height="40" id="Receptionist" style="stroke:#A80036;stroke-width:1.5;" width="101" x="435" y="52.5"/><ellipse cx="450" cy="68.5" fill="#ADD1B2" rx="11" ry="11" style="stroke:#A80036;stroke-width:1.0;"/><path d="M452.7656,64.375 Q452.9219,64.1563 453.1094,64.0469 Q453.2969,63.9375 453.5156,63.9375 Q453.8906,63.9375 454.125,64.2031 Q454.3594,64.4531 454.3594,65.0625 L454.3594,66.5156 Q454.3594,67.125 454.125,67.3906 Q453.8906,67.6563 453.5156,67.6563 Q453.1719,67.6563 452.9688,67.4531 Q452.7656,67.2656 452.6563,66.75 Q452.6094,66.3906 452.4219,66.2031 Q452.0938,65.8281 451.4844,65.6094 Q450.875,65.3906 450.25,65.3906 Q449.4844,65.3906 448.8438,65.7188 Q448.2188,66.0469 447.7188,66.7969 Q447.2344,67.5469 447.2344,68.5781 L447.2344,69.6719 Q447.2344,70.9063 448.125,71.7344 Q449.0156,72.5469 450.6094,72.5469 Q451.5469,72.5469 452.2031,72.2969 Q452.5938,72.1406 453.0156,71.7031 Q453.2813,71.4375 453.4219,71.3594 Q453.5781,71.2813 453.7813,71.2813 Q454.1094,71.2813 454.3594,71.5469 Q454.625,71.7969 454.625,72.1406 Q454.625,72.4844 454.2813,72.8906 Q453.7813,73.4688 452.9844,73.7969 Q451.9063,74.25 450.6094,74.25 Q449.0938,74.25 447.8906,73.625 Q446.9063,73.125 446.2188,72.0625 Q445.5313,70.9844 445.5313,69.7031 L445.5313,68.5469 Q445.5313,67.2188 446.1406,66.0781 Q446.7656,64.9219 447.8594,64.3125 Q448.9531,63.6875 450.1875,63.6875 Q450.9219,63.6875 451.5625,63.8594 Q452.2188,64.0156 452.7656,64.375 Z " fill="#000000"/><text fill="#000000" font-family="sans-serif" font-size="12" lengthAdjust="spacing" textLength="69" x="464" y="73.4102">Receptionist</text><line style="stroke:#A80036;stroke-width:1.5;" x1="436" x2="535" y1="84.5" y2="84.5"/><!--MD5=[950bab46f39ba9ae59885963abb53c18]
class Arrival--><rect codeLine="17" fill="#FEFECE" filter="url(#f13gwiuajo03uo)" height="53.8359" id="Arrival" style="stroke:#A80036;stroke-width:1.5;" width="65" x="720" y="46.5"/><ellipse cx="735" cy="62.5" fill="#ADD1B2" rx="11" ry="11" style="stroke:#A80036;stroke-width:1.0;"/><path d="M737.7656,58.375 Q737.9219,58.1563 738.1094,58.0469 Q738.2969,57.9375 738.5156,57.9375 Q738.8906,57.9375 739.125,58.2031 Q739.3594,58.4531 739.3594,59.0625 L739.3594,60.5156 Q739.3594,61.125 739.125,61.3906 Q738.8906,61.6563 738.5156,61.6563 Q738.1719,61.6563 737.9688,61.4531 Q737.7656,61.2656 737.6563,60.75 Q737.6094,60.3906 737.4219,60.2031 Q737.0938,59.8281 736.4844,59.6094 Q735.875,59.3906 735.25,59.3906 Q734.4844,59.3906 733.8438,59.7188 Q733.2188,60.0469 732.7188,60.7969 Q732.2344,61.5469 732.2344,62.5781 L732.2344,63.6719 Q732.2344,64.9063 733.125,65.7344 Q734.0156,66.5469 735.6094,66.5469 Q736.5469,66.5469 737.2031,66.2969 Q737.5938,66.1406 738.0156,65.7031 Q738.2813,65.4375 738.4219,65.3594 Q738.5781,65.2813 738.7813,65.2813 Q739.1094,65.2813 739.3594,65.5469 Q739.625,65.7969 739.625,66.1406 Q739.625,66.4844 739.2813,66.8906 Q738.7813,67.4688 737.9844,67.7969 Q736.9063,68.25 735.6094,68.25 Q734.0938,68.25 732.8906,67.625 Q731.9063,67.125 731.2188,66.0625 Q730.5313,64.9844 730.5313,63.7031 L730.5313,62.5469 Q730.5313,61.2188 731.1406,60.0781 Q731.7656,58.9219 732.8594,58.3125 Q733.9531,57.6875 735.1875,57.6875 Q735.9219,57.6875 736.5625,57.8594 Q737.2188,58.0156 737.7656,58.375 Z " fill="#000000"/><text fill="#000000" font-family="sans-serif" font-size="12" lengthAdjust="spacing" textLength="33" x="749" y="67.4102">Arrival</text><line style="stroke:#A80036;stroke-width:1.5;" x1="721" x2="784" y1="78.5" y2="78.5"/><text fill="#000000" font-family="sans-serif" font-size="11" lengthAdjust="spacing" textLength="25" x="726" y="93.9189">-date</text><!--MD5=[c508b5b6bbe276ff5e2700b6641f837f]
class Appointment--><rect codeLine="21" fill="#FEFECE" filter="url(#f13gwiuajo03uo)" height="40" id="Appointment" style="stroke:#A80036;stroke-width:1.5;" width="101" x="945" y="53.5"/><ellipse cx="960" cy="69.5" fill="#ADD1B2" rx="11" ry="11" style="stroke:#A80036;stroke-width:1.0;"/><path d="M962.7656,65.375 Q962.9219,65.1563 963.1094,65.0469 Q963.2969,64.9375 963.5156,64.9375 Q963.8906,64.9375 964.125,65.2031 Q964.3594,65.4531 964.3594,66.0625 L964.3594,67.5156 Q964.3594,68.125 964.125,68.3906 Q963.8906,68.6563 963.5156,68.6563 Q963.1719,68.6563 962.9688,68.4531 Q962.7656,68.2656 962.6563,67.75 Q962.6094,67.3906 962.4219,67.2031 Q962.0938,66.8281 961.4844,66.6094 Q960.875,66.3906 960.25,66.3906 Q959.4844,66.3906 958.8438,66.7188 Q958.2188,67.0469 957.7188,67.7969 Q957.2344,68.5469 957.2344,69.5781 L957.2344,70.6719 Q957.2344,71.9063 958.125,72.7344 Q959.0156,73.5469 960.6094,73.5469 Q961.5469,73.5469 962.2031,73.2969 Q962.5938,73.1406 963.0156,72.7031 Q963.2813,72.4375 963.4219,72.3594 Q963.5781,72.2813 963.7813,72.2813 Q964.1094,72.2813 964.3594,72.5469 Q964.625,72.7969 964.625,73.1406 Q964.625,73.4844 964.2813,73.8906 Q963.7813,74.4688 962.9844,74.7969 Q961.9063,75.25 960.6094,75.25 Q959.0938,75.25 957.8906,74.625 Q956.9063,74.125 956.2188,73.0625 Q955.5313,71.9844 955.5313,70.7031 L955.5313,69.5469 Q955.5313,68.2188 956.1406,67.0781 Q956.7656,65.9219 957.8594,65.3125 Q958.9531,64.6875 960.1875,64.6875 Q960.9219,64.6875 961.5625,64.8594 Q962.2188,65.0156 962.7656,65.375 Z " fill="#000000"/><text fill="#000000" font-family="sans-serif" font-size="12" lengthAdjust="spacing" textLength="69" x="974" y="74.4102">Appointment</text><line style="stroke:#A80036;stroke-width:1.5;" x1="946" x2="1045" y1="85.5" y2="85.5"/><!--MD5=[72be06cc7ae02ccc98efe28a50e62246]
class SNSUser--><rect codeLine="23" fill="#FEFECE" filter="url(#f13gwiuajo03uo)" height="150.6875" id="SNSUser" style="stroke:#A80036;stroke-width:1.5;" width="84" x="443.5" y="128"/><ellipse cx="458.5" cy="144" fill="#ADD1B2" rx="11" ry="11" style="stroke:#A80036;stroke-width:1.0;"/><path d="M461.2656,139.875 Q461.4219,139.6563 461.6094,139.5469 Q461.7969,139.4375 462.0156,139.4375 Q462.3906,139.4375 462.625,139.7031 Q462.8594,139.9531 462.8594,140.5625 L462.8594,142.0156 Q462.8594,142.625 462.625,142.8906 Q462.3906,143.1563 462.0156,143.1563 Q461.6719,143.1563 461.4688,142.9531 Q461.2656,142.7656 461.1563,142.25 Q461.1094,141.8906 460.9219,141.7031 Q460.5938,141.3281 459.9844,141.1094 Q459.375,140.8906 458.75,140.8906 Q457.9844,140.8906 457.3438,141.2188 Q456.7188,141.5469 456.2188,142.2969 Q455.7344,143.0469 455.7344,144.0781 L455.7344,145.1719 Q455.7344,146.4063 456.625,147.2344 Q457.5156,148.0469 459.1094,148.0469 Q460.0469,148.0469 460.7031,147.7969 Q461.0938,147.6406 461.5156,147.2031 Q461.7813,146.9375 461.9219,146.8594 Q462.0781,146.7813 462.2813,146.7813 Q462.6094,146.7813 462.8594,147.0469 Q463.125,147.2969 463.125,147.6406 Q463.125,147.9844 462.7813,148.3906 Q462.2813,148.9688 461.4844,149.2969 Q460.4063,149.75 459.1094,149.75 Q457.5938,149.75 456.3906,149.125 Q455.4063,148.625 454.7188,147.5625 Q454.0313,146.4844 454.0313,145.2031 L454.0313,144.0469 Q454.0313,142.7188 454.6406,141.5781 Q455.2656,140.4219 456.3594,139.8125 Q457.4531,139.1875 458.6875,139.1875 Q459.4219,139.1875 460.0625,139.3594 Q460.7188,139.5156 461.2656,139.875 Z " fill="#000000"/><text fill="#000000" font-family="sans-serif" font-size="12" lengthAdjust="spacing" textLength="52" x="472.5" y="148.9102">SNSUser</text><line style="stroke:#A80036;stroke-width:1.5;" x1="444.5" x2="526.5" y1="160" y2="160"/><text fill="#000000" font-family="sans-serif" font-size="11" lengthAdjust="spacing" textLength="58" x="449.5" y="175.4189">-citizenCard</text><text fill="#000000" font-family="sans-serif" font-size="11" lengthAdjust="spacing" textLength="59" x="449.5" y="189.2549">-snsNumber</text><text fill="#000000" font-family="sans-serif" font-size="11" lengthAdjust="spacing" textLength="30" x="449.5" y="203.0908">-name</text><text fill="#000000" font-family="sans-serif" font-size="11" lengthAdjust="spacing" textLength="44" x="449.5" y="216.9268">-birthDay</text><text fill="#000000" font-family="sans-serif" font-size="11" lengthAdjust="spacing" textLength="38" x="449.5" y="230.7627">-gender</text><text fill="#000000" font-family="sans-serif" font-size="11" lengthAdjust="spacing" textLength="71" x="449.5" y="244.5986">-phoneNumber</text><text fill="#000000" font-family="sans-serif" font-size="11" lengthAdjust="spacing" textLength="28" x="449.5" y="258.4346">-email</text><text fill="#000000" font-family="sans-serif" font-size="11" lengthAdjust="spacing" textLength="44" x="449.5" y="272.2705">-address</text><!--MD5=[02e4b9b7573f1156f41e60aa5b4e25a4]
class Company--><rect codeLine="34" fill="#FEFECE" filter="url(#f13gwiuajo03uo)" height="53.8359" id="Company" style="stroke:#A80036;stroke-width:1.5;" width="85" x="7" y="143.5"/><ellipse cx="22" cy="159.5" fill="#ADD1B2" rx="11" ry="11" style="stroke:#A80036;stroke-width:1.0;"/><path d="M24.7656,155.375 Q24.9219,155.1563 25.1094,155.0469 Q25.2969,154.9375 25.5156,154.9375 Q25.8906,154.9375 26.125,155.2031 Q26.3594,155.4531 26.3594,156.0625 L26.3594,157.5156 Q26.3594,158.125 26.125,158.3906 Q25.8906,158.6563 25.5156,158.6563 Q25.1719,158.6563 24.9688,158.4531 Q24.7656,158.2656 24.6563,157.75 Q24.6094,157.3906 24.4219,157.2031 Q24.0938,156.8281 23.4844,156.6094 Q22.875,156.3906 22.25,156.3906 Q21.4844,156.3906 20.8438,156.7188 Q20.2188,157.0469 19.7188,157.7969 Q19.2344,158.5469 19.2344,159.5781 L19.2344,160.6719 Q19.2344,161.9063 20.125,162.7344 Q21.0156,163.5469 22.6094,163.5469 Q23.5469,163.5469 24.2031,163.2969 Q24.5938,163.1406 25.0156,162.7031 Q25.2813,162.4375 25.4219,162.3594 Q25.5781,162.2813 25.7813,162.2813 Q26.1094,162.2813 26.3594,162.5469 Q26.625,162.7969 26.625,163.1406 Q26.625,163.4844 26.2813,163.8906 Q25.7813,164.4688 24.9844,164.7969 Q23.9063,165.25 22.6094,165.25 Q21.0938,165.25 19.8906,164.625 Q18.9063,164.125 18.2188,163.0625 Q17.5313,161.9844 17.5313,160.7031 L17.5313,159.5469 Q17.5313,158.2188 18.1406,157.0781 Q18.7656,155.9219 19.8594,155.3125 Q20.9531,154.6875 22.1875,154.6875 Q22.9219,154.6875 23.5625,154.8594 Q24.2188,155.0156 24.7656,155.375 Z " fill="#000000"/><text fill="#000000" font-family="sans-serif" font-size="12" lengthAdjust="spacing" textLength="53" x="36" y="164.4102">Company</text><line style="stroke:#A80036;stroke-width:1.5;" x1="8" x2="91" y1="175.5" y2="175.5"/><text fill="#000000" font-family="sans-serif" font-size="11" lengthAdjust="spacing" textLength="59" x="13" y="190.9189">-designation</text><!--MD5=[7b3e8f70d80133538393dc99d446cc4d]
class WaitingRoomList--><rect codeLine="38" fill="#FEFECE" filter="url(#f13gwiuajo03uo)" height="40" id="WaitingRoomList" style="stroke:#A80036;stroke-width:1.5;" width="127" x="689" y="158.5"/><ellipse cx="704" cy="174.5" fill="#ADD1B2" rx="11" ry="11" style="stroke:#A80036;stroke-width:1.0;"/><path d="M706.7656,170.375 Q706.9219,170.1563 707.1094,170.0469 Q707.2969,169.9375 707.5156,169.9375 Q707.8906,169.9375 708.125,170.2031 Q708.3594,170.4531 708.3594,171.0625 L708.3594,172.5156 Q708.3594,173.125 708.125,173.3906 Q707.8906,173.6563 707.5156,173.6563 Q707.1719,173.6563 706.9688,173.4531 Q706.7656,173.2656 706.6563,172.75 Q706.6094,172.3906 706.4219,172.2031 Q706.0938,171.8281 705.4844,171.6094 Q704.875,171.3906 704.25,171.3906 Q703.4844,171.3906 702.8438,171.7188 Q702.2188,172.0469 701.7188,172.7969 Q701.2344,173.5469 701.2344,174.5781 L701.2344,175.6719 Q701.2344,176.9063 702.125,177.7344 Q703.0156,178.5469 704.6094,178.5469 Q705.5469,178.5469 706.2031,178.2969 Q706.5938,178.1406 707.0156,177.7031 Q707.2813,177.4375 707.4219,177.3594 Q707.5781,177.2813 707.7813,177.2813 Q708.1094,177.2813 708.3594,177.5469 Q708.625,177.7969 708.625,178.1406 Q708.625,178.4844 708.2813,178.8906 Q707.7813,179.4688 706.9844,179.7969 Q705.9063,180.25 704.6094,180.25 Q703.0938,180.25 701.8906,179.625 Q700.9063,179.125 700.2188,178.0625 Q699.5313,176.9844 699.5313,175.7031 L699.5313,174.5469 Q699.5313,173.2188 700.1406,172.0781 Q700.7656,170.9219 701.8594,170.3125 Q702.9531,169.6875 704.1875,169.6875 Q704.9219,169.6875 705.5625,169.8594 Q706.2188,170.0156 706.7656,170.375 Z " fill="#000000"/><text fill="#000000" font-family="sans-serif" font-size="12" lengthAdjust="spacing" textLength="95" x="718" y="179.4102">WaitingRoomList</text><line style="stroke:#A80036;stroke-width:1.5;" x1="690" x2="815" y1="190.5" y2="190.5"/><!--MD5=[cdda88bd94d57e06d95e6dd6ce9ee716]
link Arrival to Appointment--><path codeLine="40" d="M785.01,73.5 C825.71,73.5 897.01,73.5 944.99,73.5 " fill="none" id="Arrival-Appointment" style="stroke:#A80036;stroke-width:1.0;"/><polygon fill="#000000" points="856,64.6758,846.9549,61.7369,846.9549,67.6147,856,64.6758" style="stroke:#000000;stroke-width:1.0;"/><text fill="#000000" font-family="sans-serif" font-size="13" lengthAdjust="spacing" textLength="54" x="860" y="69.9951">related to</text><text fill="#000000" font-family="sans-serif" font-size="13" lengthAdjust="spacing" textLength="7" x="792.8872" y="88.8015">1</text><text fill="#000000" font-family="sans-serif" font-size="13" lengthAdjust="spacing" textLength="22" x="915.109" y="88.0426">0..1</text><!--MD5=[09366576ee87d48d594df10cacc83f45]
link Company to Employee--><path codeLine="41" d="M92.19,151.28 C124.4,136.42 169.19,115.76 203.88,99.77 " fill="none" id="Company-Employee" style="stroke:#A80036;stroke-width:1.0;"/><polygon fill="#000000" points="131.5404,102.5818,122.0959,103.7011,124.5575,109.0386,131.5404,102.5818" style="stroke:#000000;stroke-width:1.0;"/><text fill="#000000" font-family="sans-serif" font-size="13" lengthAdjust="spacing" textLength="37" x="136" y="109.9951">knows</text><text fill="#000000" font-family="sans-serif" font-size="13" lengthAdjust="spacing" textLength="7" x="100.1289" y="162.891">1</text><text fill="#000000" font-family="sans-serif" font-size="13" lengthAdjust="spacing" textLength="5" x="190.9881" y="117.8382">*</text><!--MD5=[1da12df22706e73e1def33b218b7f412]
link Employee to Receptionist--><path codeLine="42" d="M311.2,74.8 C348.51,74.31 398.21,73.65 434.82,73.16 " fill="none" id="Employee-Receptionist" style="stroke:#A80036;stroke-width:1.0;"/><polygon fill="#000000" points="350.9996,65.6095,341.9163,62.7908,341.9943,68.6681,350.9996,65.6095" style="stroke:#000000;stroke-width:1.0;"/><text fill="#000000" font-family="sans-serif" font-size="13" lengthAdjust="spacing" textLength="49" x="355" y="70.9951">plays as</text><!--MD5=[1a8aa2b864b87f860d28abceaa28b7a5]
link Company to SNSUser--><path codeLine="43" d="M92.11,173.66 C175.17,179.98 360.63,194.08 443.33,200.37 " fill="none" id="Company-SNSUser" style="stroke:#A80036;stroke-width:1.0;"/><polygon fill="#000000" points="241.4856,174.0549,232.6894,170.4386,232.2437,176.2995,241.4856,174.0549" style="stroke:#000000;stroke-width:1.0;"/><text fill="#000000" font-family="sans-serif" font-size="13" lengthAdjust="spacing" textLength="37" x="245.5" y="178.9951">knows</text><text fill="#000000" font-family="sans-serif" font-size="13" lengthAdjust="spacing" textLength="7" x="100.0352" y="189.1176">1</text><text fill="#000000" font-family="sans-serif" font-size="13" lengthAdjust="spacing" textLength="5" x="430.3732" y="214.7917">*</text><!--MD5=[24f82a13fe82ee63074bc80db6bef9fb]
link Receptionist to Arrival--><path codeLine="44" d="M536.03,72.69 C589.81,72.89 674.11,73.21 719.68,73.38 " fill="none" id="Receptionist-Arrival" style="stroke:#A80036;stroke-width:1.0;"/><polygon fill="#000000" points="590,64.6946,580.966,61.7217,580.9439,67.5995,590,64.6946" style="stroke:#000000;stroke-width:1.0;"/><text fill="#000000" font-family="sans-serif" font-size="13" lengthAdjust="spacing" textLength="50" x="594" y="69.9951">registers</text><text fill="#000000" font-family="sans-serif" font-size="13" lengthAdjust="spacing" textLength="7" x="543.9657" y="87.4138">1</text><text fill="#000000" font-family="sans-serif" font-size="13" lengthAdjust="spacing" textLength="5" x="706.9537" y="88.6553">*</text><!--MD5=[c327a9ddd3e53362cd43cb438962b380]
link Receptionist to WaitingRoomList--><path codeLine="45" d="M536.03,92.31 C583.22,111.19 653.9,139.46 701.31,158.42 " fill="none" id="Receptionist-WaitingRoomList" style="stroke:#A80036;stroke-width:1.0;"/><polygon fill="#000000" points="589.6424,99.5327,582.3357,93.4448,580.1528,98.9022,589.6424,99.5327" style="stroke:#000000;stroke-width:1.0;"/><text fill="#000000" font-family="sans-serif" font-size="13" lengthAdjust="spacing" textLength="50" x="594" y="102.9951">sends to</text><text fill="#000000" font-family="sans-serif" font-size="13" lengthAdjust="spacing" textLength="7" x="543.9657" y="109.9155">1</text><text fill="#000000" font-family="sans-serif" font-size="13" lengthAdjust="spacing" textLength="5" x="680.5386" y="147.7183">*</text><!--MD5=[492c4534cfc558181c13f8b01553fdc3]
link SNSUser to WaitingRoomList--><path codeLine="46" d="M527.65,218.42 C539.83,222.15 553.31,225.63 566,227.5 C606.89,233.54 618.89,237.47 659,227.5 C681.75,221.85 705.06,209.45 722.59,198.54 " fill="none" id="SNSUser-WaitingRoomList" style="stroke:#A80036;stroke-width:1.0;"/><polygon fill="#000000" points="602.9742,218.1685,593.6776,216.1624,594.274,222.0099,602.9742,218.1685" style="stroke:#000000;stroke-width:1.0;"/><text fill="#000000" font-family="sans-serif" font-size="13" lengthAdjust="spacing" textLength="24" x="607" y="223.9951">is in</text><text fill="#000000" font-family="sans-serif" font-size="13" lengthAdjust="spacing" textLength="5" x="535.6033" y="236.0569">*</text><text fill="#000000" font-family="sans-serif" font-size="13" lengthAdjust="spacing" textLength="5" x="708.4747" y="219.9708">*</text><!--MD5=[7237f06c0b74e3dd035481e962d83e87]
link SNSUser to Arrival--><path codeLine="47" d="M527.83,201.26 C564.29,197.78 617.87,188.95 659,166.5 C674.69,157.93 705.93,124.9 727.74,100.62 " fill="none" id="SNSUser-Arrival" style="stroke:#A80036;stroke-width:1.0;"/><polygon fill="#000000" points="575.466,155.4275,566.0654,156.8696,568.7085,162.1197,575.466,155.4275" style="stroke:#000000;stroke-width:1.0;"/><text fill="#000000" font-family="sans-serif" font-size="13" lengthAdjust="spacing" textLength="78" x="580" y="162.9951">associated to</text><text fill="#000000" font-family="sans-serif" font-size="13" lengthAdjust="spacing" textLength="7" x="535.4206" y="215.7641">1</text><text fill="#000000" font-family="sans-serif" font-size="13" lengthAdjust="spacing" textLength="5" x="716.7769" y="121.854">*</text><!--MD5=[c953b63158ac8d4d9fefbfe98a728a13]
@startuml US04_DM
hide methods
left to right direction
skinparam classAttributeIconSize 0

class Employee {
  - name
  - phoneNumber
  - email
  - password
  - address
  - citizenCardNumber
  - roleId
}

class Receptionist {}

class Arrival {
  - date
}

class Appointment {}

class SNSUser {
  - citizenCard
  - snsNumber
  - name
  - birthDay
  - gender
  - phoneNumber
  - email
  - address
}

class Company {
  - designation
}

class WaitingRoomList {}

Arrival "1" - - "0..1" Appointment : related to >
Company "1" - - "*" Employee : knows >
Employee - - Receptionist : plays as >
Company "1" - - "*" SNSUser : knows >
Receptionist "1" - - "*" Arrival : registers >
Receptionist "1" - - "*" WaitingRoomList : sends to >
SNSUser "*" - - "*" WaitingRoomList : is in >
SNSUser "1" - - "*" Arrival : associated to >

@enduml

PlantUML version 1.2022.0(Tue Jan 11 16:16:42 WET 2022)
(GPL source distribution)
Java Runtime: Java(TM) SE Runtime Environment
JVM: Java HotSpot(TM) 64-Bit Server VM
Default Encoding: Cp1252
Language: pt
Country: PT
--></g></svg>