<?xml version="1.0" encoding="UTF-8" standalone="no"?><svg xmlns="http://www.w3.org/2000/svg" xmlns:xlink="http://www.w3.org/1999/xlink" contentScriptType="application/ecmascript" contentStyleType="text/css" height="1632px" preserveAspectRatio="none" style="width:1975px;height:1632px;background:#FFFFFF;" version="1.1" viewBox="0 0 1975 1632" width="1975px" zoomAndPan="magnify"><defs><filter height="300%" id="fn7pwaqdo62yl" width="300%" x="-1" y="-1"><feGaussianBlur result="blurOut" stdDeviation="2.0"/><feColorMatrix in="blurOut" result="blurOut2" type="matrix" values="0 0 0 0 0 0 0 0 0 0 0 0 0 0 0 0 0 0 .4 0"/><feOffset dx="4.0" dy="4.0" in="blurOut2" result="blurOut3"/><feBlend in="SourceGraphic" in2="blurOut3" mode="normal"/></filter></defs><g><!--MD5=[c508b5b6bbe276ff5e2700b6641f837f]
class Appointment--><rect codeLine="3" fill="#FEFECE" filter="url(#fn7pwaqdo62yl)" height="186.3594" id="Appointment" style="stroke:#A80036;stroke-width:1.5;" width="341" x="946" y="1145"/><ellipse cx="1077.75" cy="1161" fill="#ADD1B2" rx="11" ry="11" style="stroke:#A80036;stroke-width:1.0;"/><path d="M1080.5156,1156.875 Q1080.6719,1156.6563 1080.8594,1156.5469 Q1081.0469,1156.4375 1081.2656,1156.4375 Q1081.6406,1156.4375 1081.875,1156.7031 Q1082.1094,1156.9531 1082.1094,1157.5625 L1082.1094,1159.0156 Q1082.1094,1159.625 1081.875,1159.8906 Q1081.6406,1160.1563 1081.2656,1160.1563 Q1080.9219,1160.1563 1080.7188,1159.9531 Q1080.5156,1159.7656 1080.4063,1159.25 Q1080.3594,1158.8906 1080.1719,1158.7031 Q1079.8438,1158.3281 1079.2344,1158.1094 Q1078.625,1157.8906 1078,1157.8906 Q1077.2344,1157.8906 1076.5938,1158.2188 Q1075.9688,1158.5469 1075.4688,1159.2969 Q1074.9844,1160.0469 1074.9844,1161.0781 L1074.9844,1162.1719 Q1074.9844,1163.4063 1075.875,1164.2344 Q1076.7656,1165.0469 1078.3594,1165.0469 Q1079.2969,1165.0469 1079.9531,1164.7969 Q1080.3438,1164.6406 1080.7656,1164.2031 Q1081.0313,1163.9375 1081.1719,1163.8594 Q1081.3281,1163.7813 1081.5313,1163.7813 Q1081.8594,1163.7813 1082.1094,1164.0469 Q1082.375,1164.2969 1082.375,1164.6406 Q1082.375,1164.9844 1082.0313,1165.3906 Q1081.5313,1165.9688 1080.7344,1166.2969 Q1079.6563,1166.75 1078.3594,1166.75 Q1076.8438,1166.75 1075.6406,1166.125 Q1074.6563,1165.625 1073.9688,1164.5625 Q1073.2813,1163.4844 1073.2813,1162.2031 L1073.2813,1161.0469 Q1073.2813,1159.7188 1073.8906,1158.5781 Q1074.5156,1157.4219 1075.6094,1156.8125 Q1076.7031,1156.1875 1077.9375,1156.1875 Q1078.6719,1156.1875 1079.3125,1156.3594 Q1079.9688,1156.5156 1080.5156,1156.875 Z " fill="#000000"/><text fill="#000000" font-family="sans-serif" font-size="12" lengthAdjust="spacing" textLength="69" x="1098.25" y="1165.9102">Appointment</text><line style="stroke:#A80036;stroke-width:1.5;" x1="947" x2="1286" y1="1177" y2="1177"/><text fill="#000000" font-family="sans-serif" font-size="11" lengthAdjust="spacing" textLength="98" x="952" y="1192.4189">-snsUser : SNSUser</text><text fill="#000000" font-family="sans-serif" font-size="11" lengthAdjust="spacing" textLength="56" x="952" y="1206.2549">-date : Date</text><text fill="#000000" font-family="sans-serif" font-size="11" lengthAdjust="spacing" textLength="133" x="952" y="1220.0908">-center : VaccinationCenter</text><text fill="#000000" font-family="sans-serif" font-size="11" lengthAdjust="spacing" textLength="139" x="952" y="1233.9268">-vaccineType : VaccineType</text><text fill="#000000" font-family="sans-serif" font-size="11" lengthAdjust="spacing" textLength="71" x="952" y="1247.7627">-sms : boolean</text><line style="stroke:#A80036;stroke-width:1.5;" x1="947" x2="1286" y1="1254.1797" y2="1254.1797"/><text fill="#000000" font-family="sans-serif" font-size="11" lengthAdjust="spacing" textLength="329" x="952" y="1269.5986">+Appointment(snsUser, date, vaccinationCenter, vaccineType, sms)</text><text fill="#000000" font-family="sans-serif" font-size="11" lengthAdjust="spacing" textLength="54" x="952" y="1283.4346">+hasSMS()</text><text fill="#000000" font-family="sans-serif" font-size="11" lengthAdjust="spacing" textLength="71" x="952" y="1297.2705">+getSnsUser()</text><text fill="#000000" font-family="sans-serif" font-size="11" lengthAdjust="spacing" textLength="51" x="952" y="1311.1064">+getDate()</text><text fill="#000000" font-family="sans-serif" font-size="11" lengthAdjust="spacing" textLength="93" x="952" y="1324.9424">+getVaccineType()</text><!--MD5=[e962253c6721a4b87d8c880d8815b08d]
class AppointmentScheduleList--><rect codeLine="16" fill="#FEFECE" filter="url(#fn7pwaqdo62yl)" height="158.6875" id="AppointmentScheduleList" style="stroke:#A80036;stroke-width:1.5;" width="295" x="966" y="606"/><ellipse cx="1038.75" cy="622" fill="#ADD1B2" rx="11" ry="11" style="stroke:#A80036;stroke-width:1.0;"/><path d="M1041.5156,617.875 Q1041.6719,617.6563 1041.8594,617.5469 Q1042.0469,617.4375 1042.2656,617.4375 Q1042.6406,617.4375 1042.875,617.7031 Q1043.1094,617.9531 1043.1094,618.5625 L1043.1094,620.0156 Q1043.1094,620.625 1042.875,620.8906 Q1042.6406,621.1563 1042.2656,621.1563 Q1041.9219,621.1563 1041.7188,620.9531 Q1041.5156,620.7656 1041.4063,620.25 Q1041.3594,619.8906 1041.1719,619.7031 Q1040.8438,619.3281 1040.2344,619.1094 Q1039.625,618.8906 1039,618.8906 Q1038.2344,618.8906 1037.5938,619.2188 Q1036.9688,619.5469 1036.4688,620.2969 Q1035.9844,621.0469 1035.9844,622.0781 L1035.9844,623.1719 Q1035.9844,624.4063 1036.875,625.2344 Q1037.7656,626.0469 1039.3594,626.0469 Q1040.2969,626.0469 1040.9531,625.7969 Q1041.3438,625.6406 1041.7656,625.2031 Q1042.0313,624.9375 1042.1719,624.8594 Q1042.3281,624.7813 1042.5313,624.7813 Q1042.8594,624.7813 1043.1094,625.0469 Q1043.375,625.2969 1043.375,625.6406 Q1043.375,625.9844 1043.0313,626.3906 Q1042.5313,626.9688 1041.7344,627.2969 Q1040.6563,627.75 1039.3594,627.75 Q1037.8438,627.75 1036.6406,627.125 Q1035.6563,626.625 1034.9688,625.5625 Q1034.2813,624.4844 1034.2813,623.2031 L1034.2813,622.0469 Q1034.2813,620.7188 1034.8906,619.5781 Q1035.5156,618.4219 1036.6094,617.8125 Q1037.7031,617.1875 1038.9375,617.1875 Q1039.6719,617.1875 1040.3125,617.3594 Q1040.9688,617.5156 1041.5156,617.875 Z " fill="#000000"/><text fill="#000000" font-family="sans-serif" font-size="12" lengthAdjust="spacing" textLength="141" x="1059.25" y="626.9102">AppointmentScheduleList</text><line style="stroke:#A80036;stroke-width:1.5;" x1="967" x2="1260" y1="638" y2="638"/><text fill="#000000" font-family="sans-serif" font-size="11" lengthAdjust="spacing" textLength="227" x="972" y="653.4189">-appointments: Map&lt;Calendar, Appointment[][]&gt;</text><text fill="#000000" font-family="sans-serif" font-size="11" lengthAdjust="spacing" textLength="82" x="972" y="667.2549">-slotsPerDay : int</text><text fill="#000000" font-family="sans-serif" font-size="11" lengthAdjust="spacing" textLength="99" x="972" y="681.0908">-vaccinesPerSlot: int</text><line style="stroke:#A80036;stroke-width:1.5;" x1="967" x2="1260" y1="687.5078" y2="687.5078"/><text fill="#000000" font-family="sans-serif" font-size="11" lengthAdjust="spacing" textLength="283" x="972" y="702.9268">+createAppointment(snsUser, date, vaccineTypeDto, sms)</text><text fill="#000000" font-family="sans-serif" font-size="11" lengthAdjust="spacing" textLength="156" x="972" y="716.7627">+saveAppointment(appointment)</text><text fill="#000000" font-family="sans-serif" font-size="11" lengthAdjust="spacing" textLength="177" x="972" y="730.5986">+hasAppointmentToday(snsNumber)</text><text fill="#000000" font-family="sans-serif" font-size="11" lengthAdjust="spacing" textLength="169" x="972" y="744.4346">+validateAppointment(appointment)</text><text fill="#000000" font-family="sans-serif" font-size="11" lengthAdjust="spacing" textLength="157" x="972" y="758.2705">-generateMessage(appointment)</text><!--MD5=[19e445fc4d3b48519cbe33da05496394]
class Vaccine--><rect codeLine="27" fill="#FEFECE" filter="url(#fn7pwaqdo62yl)" height="117.1797" id="Vaccine" style="stroke:#A80036;stroke-width:1.5;" width="237" x="7" y="1501"/><ellipse cx="99.75" cy="1517" fill="#ADD1B2" rx="11" ry="11" style="stroke:#A80036;stroke-width:1.0;"/><path d="M102.5156,1512.875 Q102.6719,1512.6563 102.8594,1512.5469 Q103.0469,1512.4375 103.2656,1512.4375 Q103.6406,1512.4375 103.875,1512.7031 Q104.1094,1512.9531 104.1094,1513.5625 L104.1094,1515.0156 Q104.1094,1515.625 103.875,1515.8906 Q103.6406,1516.1563 103.2656,1516.1563 Q102.9219,1516.1563 102.7188,1515.9531 Q102.5156,1515.7656 102.4063,1515.25 Q102.3594,1514.8906 102.1719,1514.7031 Q101.8438,1514.3281 101.2344,1514.1094 Q100.625,1513.8906 100,1513.8906 Q99.2344,1513.8906 98.5938,1514.2188 Q97.9688,1514.5469 97.4688,1515.2969 Q96.9844,1516.0469 96.9844,1517.0781 L96.9844,1518.1719 Q96.9844,1519.4063 97.875,1520.2344 Q98.7656,1521.0469 100.3594,1521.0469 Q101.2969,1521.0469 101.9531,1520.7969 Q102.3438,1520.6406 102.7656,1520.2031 Q103.0313,1519.9375 103.1719,1519.8594 Q103.3281,1519.7813 103.5313,1519.7813 Q103.8594,1519.7813 104.1094,1520.0469 Q104.375,1520.2969 104.375,1520.6406 Q104.375,1520.9844 104.0313,1521.3906 Q103.5313,1521.9688 102.7344,1522.2969 Q101.6563,1522.75 100.3594,1522.75 Q98.8438,1522.75 97.6406,1522.125 Q96.6563,1521.625 95.9688,1520.5625 Q95.2813,1519.4844 95.2813,1518.2031 L95.2813,1517.0469 Q95.2813,1515.7188 95.8906,1514.5781 Q96.5156,1513.4219 97.6094,1512.8125 Q98.7031,1512.1875 99.9375,1512.1875 Q100.6719,1512.1875 101.3125,1512.3594 Q101.9688,1512.5156 102.5156,1512.875 Z " fill="#000000"/><text fill="#000000" font-family="sans-serif" font-size="12" lengthAdjust="spacing" textLength="43" x="120.25" y="1521.9102">Vaccine</text><line style="stroke:#A80036;stroke-width:1.5;" x1="8" x2="243" y1="1533" y2="1533"/><text fill="#000000" font-family="sans-serif" font-size="11" lengthAdjust="spacing" textLength="96" x="13" y="1548.4189">-designation : String</text><text fill="#000000" font-family="sans-serif" font-size="11" lengthAdjust="spacing" textLength="69" x="13" y="1562.2549">-brand : String</text><text fill="#000000" font-family="sans-serif" font-size="11" lengthAdjust="spacing" textLength="49" x="13" y="1576.0908">-id : String</text><text fill="#000000" font-family="sans-serif" font-size="11" lengthAdjust="spacing" textLength="119" x="13" y="1589.9268">-vacType : VaccineType</text><line style="stroke:#A80036;stroke-width:1.5;" x1="8" x2="243" y1="1596.3438" y2="1596.3438"/><text fill="#000000" font-family="sans-serif" font-size="11" lengthAdjust="spacing" textLength="225" x="13" y="1611.7627">+Vaccine(designation, id, brand, vaccineType)</text><!--MD5=[b2e86da990ee9e769b8776cd15ea5c5f]
class ScheduleVaccineUI--><rect codeLine="36" fill="#FEFECE" filter="url(#fn7pwaqdo62yl)" height="48" id="ScheduleVaccineUI" style="stroke:#A80036;stroke-width:1.5;" width="139" x="1331" y="7"/><ellipse cx="1346" cy="23" fill="#ADD1B2" rx="11" ry="11" style="stroke:#A80036;stroke-width:1.0;"/><path d="M1348.7656,18.875 Q1348.9219,18.6563 1349.1094,18.5469 Q1349.2969,18.4375 1349.5156,18.4375 Q1349.8906,18.4375 1350.125,18.7031 Q1350.3594,18.9531 1350.3594,19.5625 L1350.3594,21.0156 Q1350.3594,21.625 1350.125,21.8906 Q1349.8906,22.1563 1349.5156,22.1563 Q1349.1719,22.1563 1348.9688,21.9531 Q1348.7656,21.7656 1348.6563,21.25 Q1348.6094,20.8906 1348.4219,20.7031 Q1348.0938,20.3281 1347.4844,20.1094 Q1346.875,19.8906 1346.25,19.8906 Q1345.4844,19.8906 1344.8438,20.2188 Q1344.2188,20.5469 1343.7188,21.2969 Q1343.2344,22.0469 1343.2344,23.0781 L1343.2344,24.1719 Q1343.2344,25.4063 1344.125,26.2344 Q1345.0156,27.0469 1346.6094,27.0469 Q1347.5469,27.0469 1348.2031,26.7969 Q1348.5938,26.6406 1349.0156,26.2031 Q1349.2813,25.9375 1349.4219,25.8594 Q1349.5781,25.7813 1349.7813,25.7813 Q1350.1094,25.7813 1350.3594,26.0469 Q1350.625,26.2969 1350.625,26.6406 Q1350.625,26.9844 1350.2813,27.3906 Q1349.7813,27.9688 1348.9844,28.2969 Q1347.9063,28.75 1346.6094,28.75 Q1345.0938,28.75 1343.8906,28.125 Q1342.9063,27.625 1342.2188,26.5625 Q1341.5313,25.4844 1341.5313,24.2031 L1341.5313,23.0469 Q1341.5313,21.7188 1342.1406,20.5781 Q1342.7656,19.4219 1343.8594,18.8125 Q1344.9531,18.1875 1346.1875,18.1875 Q1346.9219,18.1875 1347.5625,18.3594 Q1348.2188,18.5156 1348.7656,18.875 Z " fill="#000000"/><text fill="#000000" font-family="sans-serif" font-size="12" lengthAdjust="spacing" textLength="107" x="1360" y="27.9102">ScheduleVaccineUI</text><line style="stroke:#A80036;stroke-width:1.5;" x1="1332" x2="1469" y1="39" y2="39"/><line style="stroke:#A80036;stroke-width:1.5;" x1="1332" x2="1469" y1="47" y2="47"/><!--MD5=[f6c4ddcb8ab0ba42ee4498672e538bba]
class ScheduleVaccineController--><rect codeLine="38" fill="#FEFECE" filter="url(#fn7pwaqdo62yl)" height="131.0156" id="ScheduleVaccineController" style="stroke:#A80036;stroke-width:1.5;" width="330" x="1235.5" y="116"/><ellipse cx="1321.75" cy="132" fill="#ADD1B2" rx="11" ry="11" style="stroke:#A80036;stroke-width:1.0;"/><path d="M1324.5156,127.875 Q1324.6719,127.6563 1324.8594,127.5469 Q1325.0469,127.4375 1325.2656,127.4375 Q1325.6406,127.4375 1325.875,127.7031 Q1326.1094,127.9531 1326.1094,128.5625 L1326.1094,130.0156 Q1326.1094,130.625 1325.875,130.8906 Q1325.6406,131.1563 1325.2656,131.1563 Q1324.9219,131.1563 1324.7188,130.9531 Q1324.5156,130.7656 1324.4063,130.25 Q1324.3594,129.8906 1324.1719,129.7031 Q1323.8438,129.3281 1323.2344,129.1094 Q1322.625,128.8906 1322,128.8906 Q1321.2344,128.8906 1320.5938,129.2188 Q1319.9688,129.5469 1319.4688,130.2969 Q1318.9844,131.0469 1318.9844,132.0781 L1318.9844,133.1719 Q1318.9844,134.4063 1319.875,135.2344 Q1320.7656,136.0469 1322.3594,136.0469 Q1323.2969,136.0469 1323.9531,135.7969 Q1324.3438,135.6406 1324.7656,135.2031 Q1325.0313,134.9375 1325.1719,134.8594 Q1325.3281,134.7813 1325.5313,134.7813 Q1325.8594,134.7813 1326.1094,135.0469 Q1326.375,135.2969 1326.375,135.6406 Q1326.375,135.9844 1326.0313,136.3906 Q1325.5313,136.9688 1324.7344,137.2969 Q1323.6563,137.75 1322.3594,137.75 Q1320.8438,137.75 1319.6406,137.125 Q1318.6563,136.625 1317.9688,135.5625 Q1317.2813,134.4844 1317.2813,133.2031 L1317.2813,132.0469 Q1317.2813,130.7188 1317.8906,129.5781 Q1318.5156,128.4219 1319.6094,127.8125 Q1320.7031,127.1875 1321.9375,127.1875 Q1322.6719,127.1875 1323.3125,127.3594 Q1323.9688,127.5156 1324.5156,127.875 Z " fill="#000000"/><text fill="#000000" font-family="sans-serif" font-size="12" lengthAdjust="spacing" textLength="149" x="1342.25" y="136.9102">ScheduleVaccineController</text><line style="stroke:#A80036;stroke-width:1.5;" x1="1236.5" x2="1564.5" y1="148" y2="148"/><line style="stroke:#A80036;stroke-width:1.5;" x1="1236.5" x2="1564.5" y1="156" y2="156"/><text fill="#000000" font-family="sans-serif" font-size="11" lengthAdjust="spacing" textLength="189" x="1241.5" y="171.4189">+ScheduleVaccineController(company)</text><text fill="#000000" font-family="sans-serif" font-size="11" lengthAdjust="spacing" textLength="318" x="1241.5" y="185.2549">+createAppointment(snsNumber, date, center, vaccineType, sms)</text><text fill="#000000" font-family="sans-serif" font-size="11" lengthAdjust="spacing" textLength="145" x="1241.5" y="199.0908">+getSuggestedVaccineType()</text><text fill="#000000" font-family="sans-serif" font-size="11" lengthAdjust="spacing" textLength="316" x="1241.5" y="212.9268">+getListOfVaccinationCentersWithVaccineType(vaccineTypeDto)</text><text fill="#000000" font-family="sans-serif" font-size="11" lengthAdjust="spacing" textLength="128" x="1241.5" y="226.7627">+getListOfVaccineTypes()</text><text fill="#000000" font-family="sans-serif" font-size="11" lengthAdjust="spacing" textLength="38" x="1241.5" y="240.5986">+save()</text><!--MD5=[02e4b9b7573f1156f41e60aa5b4e25a4]
class Company--><rect codeLine="47" fill="#FEFECE" filter="url(#fn7pwaqdo62yl)" height="117.1797" id="Company" style="stroke:#A80036;stroke-width:1.5;" width="214" x="1080.5" y="308"/><ellipse cx="1156.75" cy="324" fill="#ADD1B2" rx="11" ry="11" style="stroke:#A80036;stroke-width:1.0;"/><path d="M1159.5156,319.875 Q1159.6719,319.6563 1159.8594,319.5469 Q1160.0469,319.4375 1160.2656,319.4375 Q1160.6406,319.4375 1160.875,319.7031 Q1161.1094,319.9531 1161.1094,320.5625 L1161.1094,322.0156 Q1161.1094,322.625 1160.875,322.8906 Q1160.6406,323.1563 1160.2656,323.1563 Q1159.9219,323.1563 1159.7188,322.9531 Q1159.5156,322.7656 1159.4063,322.25 Q1159.3594,321.8906 1159.1719,321.7031 Q1158.8438,321.3281 1158.2344,321.1094 Q1157.625,320.8906 1157,320.8906 Q1156.2344,320.8906 1155.5938,321.2188 Q1154.9688,321.5469 1154.4688,322.2969 Q1153.9844,323.0469 1153.9844,324.0781 L1153.9844,325.1719 Q1153.9844,326.4063 1154.875,327.2344 Q1155.7656,328.0469 1157.3594,328.0469 Q1158.2969,328.0469 1158.9531,327.7969 Q1159.3438,327.6406 1159.7656,327.2031 Q1160.0313,326.9375 1160.1719,326.8594 Q1160.3281,326.7813 1160.5313,326.7813 Q1160.8594,326.7813 1161.1094,327.0469 Q1161.375,327.2969 1161.375,327.6406 Q1161.375,327.9844 1161.0313,328.3906 Q1160.5313,328.9688 1159.7344,329.2969 Q1158.6563,329.75 1157.3594,329.75 Q1155.8438,329.75 1154.6406,329.125 Q1153.6563,328.625 1152.9688,327.5625 Q1152.2813,326.4844 1152.2813,325.2031 L1152.2813,324.0469 Q1152.2813,322.7188 1152.8906,321.5781 Q1153.5156,320.4219 1154.6094,319.8125 Q1155.7031,319.1875 1156.9375,319.1875 Q1157.6719,319.1875 1158.3125,319.3594 Q1158.9688,319.5156 1159.5156,319.875 Z " fill="#000000"/><text fill="#000000" font-family="sans-serif" font-size="12" lengthAdjust="spacing" textLength="53" x="1177.25" y="328.9102">Company</text><line style="stroke:#A80036;stroke-width:1.5;" x1="1081.5" x2="1293.5" y1="340" y2="340"/><text fill="#000000" font-family="sans-serif" font-size="11" lengthAdjust="spacing" textLength="96" x="1086.5" y="355.4189">-designation : String</text><line style="stroke:#A80036;stroke-width:1.5;" x1="1081.5" x2="1293.5" y1="361.8359" y2="361.8359"/><text fill="#000000" font-family="sans-serif" font-size="11" lengthAdjust="spacing" textLength="202" x="1086.5" y="377.2549">+getOngoingOutbreakVaccineTypeCode()</text><text fill="#000000" font-family="sans-serif" font-size="11" lengthAdjust="spacing" textLength="144" x="1086.5" y="391.0908">+getVaccinationCenterStore()</text><text fill="#000000" font-family="sans-serif" font-size="11" lengthAdjust="spacing" textLength="119" x="1086.5" y="404.9268">+getVaccineTypeStore()</text><text fill="#000000" font-family="sans-serif" font-size="11" lengthAdjust="spacing" textLength="97" x="1086.5" y="418.7627">+getSnsUserStore()</text><!--MD5=[72be06cc7ae02ccc98efe28a50e62246]
class SNSUser--><rect codeLine="55" fill="#FEFECE" filter="url(#fn7pwaqdo62yl)" height="200.1953" id="SNSUser" style="stroke:#A80036;stroke-width:1.5;" width="452" x="1175.5" y="795"/><ellipse cx="1371.25" cy="811" fill="#ADD1B2" rx="11" ry="11" style="stroke:#A80036;stroke-width:1.0;"/><path d="M1374.0156,806.875 Q1374.1719,806.6563 1374.3594,806.5469 Q1374.5469,806.4375 1374.7656,806.4375 Q1375.1406,806.4375 1375.375,806.7031 Q1375.6094,806.9531 1375.6094,807.5625 L1375.6094,809.0156 Q1375.6094,809.625 1375.375,809.8906 Q1375.1406,810.1563 1374.7656,810.1563 Q1374.4219,810.1563 1374.2188,809.9531 Q1374.0156,809.7656 1373.9063,809.25 Q1373.8594,808.8906 1373.6719,808.7031 Q1373.3438,808.3281 1372.7344,808.1094 Q1372.125,807.8906 1371.5,807.8906 Q1370.7344,807.8906 1370.0938,808.2188 Q1369.4688,808.5469 1368.9688,809.2969 Q1368.4844,810.0469 1368.4844,811.0781 L1368.4844,812.1719 Q1368.4844,813.4063 1369.375,814.2344 Q1370.2656,815.0469 1371.8594,815.0469 Q1372.7969,815.0469 1373.4531,814.7969 Q1373.8438,814.6406 1374.2656,814.2031 Q1374.5313,813.9375 1374.6719,813.8594 Q1374.8281,813.7813 1375.0313,813.7813 Q1375.3594,813.7813 1375.6094,814.0469 Q1375.875,814.2969 1375.875,814.6406 Q1375.875,814.9844 1375.5313,815.3906 Q1375.0313,815.9688 1374.2344,816.2969 Q1373.1563,816.75 1371.8594,816.75 Q1370.3438,816.75 1369.1406,816.125 Q1368.1563,815.625 1367.4688,814.5625 Q1366.7813,813.4844 1366.7813,812.2031 L1366.7813,811.0469 Q1366.7813,809.7188 1367.3906,808.5781 Q1368.0156,807.4219 1369.1094,806.8125 Q1370.2031,806.1875 1371.4375,806.1875 Q1372.1719,806.1875 1372.8125,806.3594 Q1373.4688,806.5156 1374.0156,806.875 Z " fill="#000000"/><text fill="#000000" font-family="sans-serif" font-size="12" lengthAdjust="spacing" textLength="52" x="1391.75" y="815.9102">SNSUser</text><line style="stroke:#A80036;stroke-width:1.5;" x1="1176.5" x2="1626.5" y1="827" y2="827"/><text fill="#000000" font-family="sans-serif" font-size="11" lengthAdjust="spacing" textLength="95" x="1181.5" y="842.4189">-citizenCard : String</text><text fill="#000000" font-family="sans-serif" font-size="11" lengthAdjust="spacing" textLength="96" x="1181.5" y="856.2549">-snsNumber : String</text><text fill="#000000" font-family="sans-serif" font-size="11" lengthAdjust="spacing" textLength="75" x="1181.5" y="870.0908">-birthDay : Date</text><text fill="#000000" font-family="sans-serif" font-size="11" lengthAdjust="spacing" textLength="70" x="1181.5" y="883.9268">-gender : Char</text><text fill="#000000" font-family="sans-serif" font-size="11" lengthAdjust="spacing" textLength="108" x="1181.5" y="897.7627">-phoneNumber : String</text><text fill="#000000" font-family="sans-serif" font-size="11" lengthAdjust="spacing" textLength="81" x="1181.5" y="911.5986">-address : String</text><text fill="#000000" font-family="sans-serif" font-size="11" lengthAdjust="spacing" textLength="162" x="1181.5" y="925.4346">-userHealthData : UserHealthData</text><line style="stroke:#A80036;stroke-width:1.5;" x1="1176.5" x2="1626.5" y1="931.8516" y2="931.8516"/><text fill="#000000" font-family="sans-serif" font-size="11" lengthAdjust="spacing" textLength="440" x="1181.5" y="947.2705">+SNSUser(citizenCard, snsNumber, name, birthDay, gender, phoneNumber, email, address)</text><text fill="#000000" font-family="sans-serif" font-size="11" lengthAdjust="spacing" textLength="179" x="1181.5" y="961.1064">+addAppointmentToList(appointment)</text><text fill="#000000" font-family="sans-serif" font-size="11" lengthAdjust="spacing" textLength="234" x="1181.5" y="974.9424">+hasAppointmentForVaccineType(vaccineType)</text><text fill="#000000" font-family="sans-serif" font-size="11" lengthAdjust="spacing" textLength="96" x="1181.5" y="988.7783">+getPhoneNumber()</text><!--MD5=[de60e6d4f424ae4d0522096f76a59010]
class VaccinationCenter--><rect codeLine="69" fill="#FEFECE" filter="url(#fn7pwaqdo62yl)" height="186.3594" id="VaccinationCenter" style="stroke:#A80036;stroke-width:1.5;" width="874" x="158.5" y="802"/><ellipse cx="541.25" cy="818" fill="#ADD1B2" rx="11" ry="11" style="stroke:#A80036;stroke-width:1.0;"/><path d="M544.0156,813.875 Q544.1719,813.6563 544.3594,813.5469 Q544.5469,813.4375 544.7656,813.4375 Q545.1406,813.4375 545.375,813.7031 Q545.6094,813.9531 545.6094,814.5625 L545.6094,816.0156 Q545.6094,816.625 545.375,816.8906 Q545.1406,817.1563 544.7656,817.1563 Q544.4219,817.1563 544.2188,816.9531 Q544.0156,816.7656 543.9063,816.25 Q543.8594,815.8906 543.6719,815.7031 Q543.3438,815.3281 542.7344,815.1094 Q542.125,814.8906 541.5,814.8906 Q540.7344,814.8906 540.0938,815.2188 Q539.4688,815.5469 538.9688,816.2969 Q538.4844,817.0469 538.4844,818.0781 L538.4844,819.1719 Q538.4844,820.4063 539.375,821.2344 Q540.2656,822.0469 541.8594,822.0469 Q542.7969,822.0469 543.4531,821.7969 Q543.8438,821.6406 544.2656,821.2031 Q544.5313,820.9375 544.6719,820.8594 Q544.8281,820.7813 545.0313,820.7813 Q545.3594,820.7813 545.6094,821.0469 Q545.875,821.2969 545.875,821.6406 Q545.875,821.9844 545.5313,822.3906 Q545.0313,822.9688 544.2344,823.2969 Q543.1563,823.75 541.8594,823.75 Q540.3438,823.75 539.1406,823.125 Q538.1563,822.625 537.4688,821.5625 Q536.7813,820.4844 536.7813,819.2031 L536.7813,818.0469 Q536.7813,816.7188 537.3906,815.5781 Q538.0156,814.4219 539.1094,813.8125 Q540.2031,813.1875 541.4375,813.1875 Q542.1719,813.1875 542.8125,813.3594 Q543.4688,813.5156 544.0156,813.875 Z " fill="#000000"/><text fill="#000000" font-family="sans-serif" font-size="12" lengthAdjust="spacing" textLength="100" x="561.75" y="822.9102">VaccinationCenter</text><line style="stroke:#A80036;stroke-width:1.5;" x1="159.5" x2="1031.5" y1="834" y2="834"/><text fill="#000000" font-family="sans-serif" font-size="11" lengthAdjust="spacing" textLength="67" x="164.5" y="849.4189">-name : String</text><text fill="#000000" font-family="sans-serif" font-size="11" lengthAdjust="spacing" textLength="81" x="164.5" y="863.2549">-address : String</text><text fill="#000000" font-family="sans-serif" font-size="11" lengthAdjust="spacing" textLength="107" x="164.5" y="877.0908">-emailAddress : String</text><text fill="#000000" font-family="sans-serif" font-size="11" lengthAdjust="spacing" textLength="108" x="164.5" y="890.9268">-phoneNumber : String</text><text fill="#000000" font-family="sans-serif" font-size="11" lengthAdjust="spacing" textLength="94" x="164.5" y="904.7627">-faxNumber : String</text><text fill="#000000" font-family="sans-serif" font-size="11" lengthAdjust="spacing" textLength="122" x="164.5" y="918.5986">-websiteAddress : String</text><line style="stroke:#A80036;stroke-width:1.5;" x1="159.5" x2="1031.5" y1="925.0156" y2="925.0156"/><text fill="#000000" font-family="sans-serif" font-size="11" lengthAdjust="spacing" textLength="862" x="164.5" y="940.4346">+VaccinationCenter(name, address, emailAddress, phoneNumber, faxNumber, websiteAddress, openingHours, closingHours, slotDuration, maximumVaccinesPerSlot, coordinator)</text><text fill="#000000" font-family="sans-serif" font-size="11" lengthAdjust="spacing" textLength="87" x="164.5" y="954.2705">+isOpenAt(hours)</text><text fill="#000000" font-family="sans-serif" font-size="11" lengthAdjust="spacing" textLength="130" x="164.5" y="968.1064">+hasAvailabilityInSlot(date)</text><text fill="#000000" font-family="sans-serif" font-size="11" lengthAdjust="spacing" textLength="106" x="164.5" y="981.9424">+getAppointmentList()</text><!--MD5=[2e42295458bb0bec21c9622a623eb29e]
class Time--><rect codeLine="82" fill="#FEFECE" filter="url(#fn7pwaqdo62yl)" height="75.6719" id="Time" style="stroke:#A80036;stroke-width:1.5;" width="73" x="432" y="1200"/><ellipse cx="452.85" cy="1216" fill="#ADD1B2" rx="11" ry="11" style="stroke:#A80036;stroke-width:1.0;"/><path d="M455.6156,1211.875 Q455.7719,1211.6563 455.9594,1211.5469 Q456.1469,1211.4375 456.3656,1211.4375 Q456.7406,1211.4375 456.975,1211.7031 Q457.2094,1211.9531 457.2094,1212.5625 L457.2094,1214.0156 Q457.2094,1214.625 456.975,1214.8906 Q456.7406,1215.1563 456.3656,1215.1563 Q456.0219,1215.1563 455.8188,1214.9531 Q455.6156,1214.7656 455.5063,1214.25 Q455.4594,1213.8906 455.2719,1213.7031 Q454.9438,1213.3281 454.3344,1213.1094 Q453.725,1212.8906 453.1,1212.8906 Q452.3344,1212.8906 451.6938,1213.2188 Q451.0688,1213.5469 450.5688,1214.2969 Q450.0844,1215.0469 450.0844,1216.0781 L450.0844,1217.1719 Q450.0844,1218.4063 450.975,1219.2344 Q451.8656,1220.0469 453.4594,1220.0469 Q454.3969,1220.0469 455.0531,1219.7969 Q455.4438,1219.6406 455.8656,1219.2031 Q456.1313,1218.9375 456.2719,1218.8594 Q456.4281,1218.7813 456.6313,1218.7813 Q456.9594,1218.7813 457.2094,1219.0469 Q457.475,1219.2969 457.475,1219.6406 Q457.475,1219.9844 457.1313,1220.3906 Q456.6313,1220.9688 455.8344,1221.2969 Q454.7563,1221.75 453.4594,1221.75 Q451.9438,1221.75 450.7406,1221.125 Q449.7563,1220.625 449.0688,1219.5625 Q448.3813,1218.4844 448.3813,1217.2031 L448.3813,1216.0469 Q448.3813,1214.7188 448.9906,1213.5781 Q449.6156,1212.4219 450.7094,1211.8125 Q451.8031,1211.1875 453.0375,1211.1875 Q453.7719,1211.1875 454.4125,1211.3594 Q455.0688,1211.5156 455.6156,1211.875 Z " fill="#000000"/><text fill="#000000" font-family="sans-serif" font-size="12" lengthAdjust="spacing" textLength="28" x="468.15" y="1220.9102">Time</text><line style="stroke:#A80036;stroke-width:1.5;" x1="433" x2="504" y1="1232" y2="1232"/><text fill="#000000" font-family="sans-serif" font-size="11" lengthAdjust="spacing" textLength="52" x="438" y="1247.4189">-hours : int</text><text fill="#000000" font-family="sans-serif" font-size="11" lengthAdjust="spacing" textLength="61" x="438" y="1261.2549">-minutes : int</text><line style="stroke:#A80036;stroke-width:1.5;" x1="433" x2="504" y1="1267.6719" y2="1267.6719"/><!--MD5=[45c6380d22fb72521f5065026b277fb9]
class Slot--><rect codeLine="87" fill="#FEFECE" filter="url(#fn7pwaqdo62yl)" height="75.6719" id="Slot" style="stroke:#A80036;stroke-width:1.5;" width="110" x="540.5" y="1200"/><ellipse cx="581.15" cy="1216" fill="#ADD1B2" rx="11" ry="11" style="stroke:#A80036;stroke-width:1.0;"/><path d="M583.9156,1211.875 Q584.0719,1211.6563 584.2594,1211.5469 Q584.4469,1211.4375 584.6656,1211.4375 Q585.0406,1211.4375 585.275,1211.7031 Q585.5094,1211.9531 585.5094,1212.5625 L585.5094,1214.0156 Q585.5094,1214.625 585.275,1214.8906 Q585.0406,1215.1563 584.6656,1215.1563 Q584.3219,1215.1563 584.1188,1214.9531 Q583.9156,1214.7656 583.8063,1214.25 Q583.7594,1213.8906 583.5719,1213.7031 Q583.2438,1213.3281 582.6344,1213.1094 Q582.025,1212.8906 581.4,1212.8906 Q580.6344,1212.8906 579.9938,1213.2188 Q579.3688,1213.5469 578.8688,1214.2969 Q578.3844,1215.0469 578.3844,1216.0781 L578.3844,1217.1719 Q578.3844,1218.4063 579.275,1219.2344 Q580.1656,1220.0469 581.7594,1220.0469 Q582.6969,1220.0469 583.3531,1219.7969 Q583.7438,1219.6406 584.1656,1219.2031 Q584.4313,1218.9375 584.5719,1218.8594 Q584.7281,1218.7813 584.9313,1218.7813 Q585.2594,1218.7813 585.5094,1219.0469 Q585.775,1219.2969 585.775,1219.6406 Q585.775,1219.9844 585.4313,1220.3906 Q584.9313,1220.9688 584.1344,1221.2969 Q583.0563,1221.75 581.7594,1221.75 Q580.2438,1221.75 579.0406,1221.125 Q578.0563,1220.625 577.3688,1219.5625 Q576.6813,1218.4844 576.6813,1217.2031 L576.6813,1216.0469 Q576.6813,1214.7188 577.2906,1213.5781 Q577.9156,1212.4219 579.0094,1211.8125 Q580.1031,1211.1875 581.3375,1211.1875 Q582.0719,1211.1875 582.7125,1211.3594 Q583.3688,1211.5156 583.9156,1211.875 Z " fill="#000000"/><text fill="#000000" font-family="sans-serif" font-size="12" lengthAdjust="spacing" textLength="21" x="600.85" y="1220.9102">Slot</text><line style="stroke:#A80036;stroke-width:1.5;" x1="541.5" x2="649.5" y1="1232" y2="1232"/><text fill="#000000" font-family="sans-serif" font-size="11" lengthAdjust="spacing" textLength="81" x="546.5" y="1247.4189">-slotDuration : int</text><text fill="#000000" font-family="sans-serif" font-size="11" lengthAdjust="spacing" textLength="98" x="546.5" y="1261.2549">-maxVacPerSlot : int</text><line style="stroke:#A80036;stroke-width:1.5;" x1="541.5" x2="649.5" y1="1267.6719" y2="1267.6719"/><!--MD5=[a29876ea2f21a6ca48ea477740122fd8]
class VaccinationCenterStore--><rect codeLine="92" fill="#FEFECE" filter="url(#fn7pwaqdo62yl)" height="89.5078" id="VaccinationCenterStore" style="stroke:#A80036;stroke-width:1.5;" width="294" x="448.5" y="486"/><ellipse cx="526.75" cy="502" fill="#ADD1B2" rx="11" ry="11" style="stroke:#A80036;stroke-width:1.0;"/><path d="M529.5156,497.875 Q529.6719,497.6563 529.8594,497.5469 Q530.0469,497.4375 530.2656,497.4375 Q530.6406,497.4375 530.875,497.7031 Q531.1094,497.9531 531.1094,498.5625 L531.1094,500.0156 Q531.1094,500.625 530.875,500.8906 Q530.6406,501.1563 530.2656,501.1563 Q529.9219,501.1563 529.7188,500.9531 Q529.5156,500.7656 529.4063,500.25 Q529.3594,499.8906 529.1719,499.7031 Q528.8438,499.3281 528.2344,499.1094 Q527.625,498.8906 527,498.8906 Q526.2344,498.8906 525.5938,499.2188 Q524.9688,499.5469 524.4688,500.2969 Q523.9844,501.0469 523.9844,502.0781 L523.9844,503.1719 Q523.9844,504.4063 524.875,505.2344 Q525.7656,506.0469 527.3594,506.0469 Q528.2969,506.0469 528.9531,505.7969 Q529.3438,505.6406 529.7656,505.2031 Q530.0313,504.9375 530.1719,504.8594 Q530.3281,504.7813 530.5313,504.7813 Q530.8594,504.7813 531.1094,505.0469 Q531.375,505.2969 531.375,505.6406 Q531.375,505.9844 531.0313,506.3906 Q530.5313,506.9688 529.7344,507.2969 Q528.6563,507.75 527.3594,507.75 Q525.8438,507.75 524.6406,507.125 Q523.6563,506.625 522.9688,505.5625 Q522.2813,504.4844 522.2813,503.2031 L522.2813,502.0469 Q522.2813,500.7188 522.8906,499.5781 Q523.5156,498.4219 524.6094,497.8125 Q525.7031,497.1875 526.9375,497.1875 Q527.6719,497.1875 528.3125,497.3594 Q528.9688,497.5156 529.5156,497.875 Z " fill="#000000"/><text fill="#000000" font-family="sans-serif" font-size="12" lengthAdjust="spacing" textLength="129" x="547.25" y="506.9102">VaccinationCenterStore</text><line style="stroke:#A80036;stroke-width:1.5;" x1="449.5" x2="741.5" y1="518" y2="518"/><text fill="#000000" font-family="sans-serif" font-size="11" lengthAdjust="spacing" textLength="282" x="454.5" y="533.4189">-availableVaccinationCentersList: List&lt;VaccinationCenter&gt;</text><line style="stroke:#A80036;stroke-width:1.5;" x1="449.5" x2="741.5" y1="539.8359" y2="539.8359"/><text fill="#000000" font-family="sans-serif" font-size="11" lengthAdjust="spacing" textLength="271" x="454.5" y="555.2549">+getVaccinationCentersWithVaccineType(vaccineType)</text><text fill="#000000" font-family="sans-serif" font-size="11" lengthAdjust="spacing" textLength="187" x="454.5" y="569.0908">+getVaccinationCenterWithEmail(email)</text><!--MD5=[0e501da62322464167c8ec4d233a6b7e]
class VaccineType--><rect codeLine="98" fill="#FEFECE" filter="url(#fn7pwaqdo62yl)" height="48" id="VaccineType" style="stroke:#A80036;stroke-width:1.5;" width="101" x="1066" y="1392"/><ellipse cx="1081" cy="1408" fill="#ADD1B2" rx="11" ry="11" style="stroke:#A80036;stroke-width:1.0;"/><path d="M1083.7656,1403.875 Q1083.9219,1403.6563 1084.1094,1403.5469 Q1084.2969,1403.4375 1084.5156,1403.4375 Q1084.8906,1403.4375 1085.125,1403.7031 Q1085.3594,1403.9531 1085.3594,1404.5625 L1085.3594,1406.0156 Q1085.3594,1406.625 1085.125,1406.8906 Q1084.8906,1407.1563 1084.5156,1407.1563 Q1084.1719,1407.1563 1083.9688,1406.9531 Q1083.7656,1406.7656 1083.6563,1406.25 Q1083.6094,1405.8906 1083.4219,1405.7031 Q1083.0938,1405.3281 1082.4844,1405.1094 Q1081.875,1404.8906 1081.25,1404.8906 Q1080.4844,1404.8906 1079.8438,1405.2188 Q1079.2188,1405.5469 1078.7188,1406.2969 Q1078.2344,1407.0469 1078.2344,1408.0781 L1078.2344,1409.1719 Q1078.2344,1410.4063 1079.125,1411.2344 Q1080.0156,1412.0469 1081.6094,1412.0469 Q1082.5469,1412.0469 1083.2031,1411.7969 Q1083.5938,1411.6406 1084.0156,1411.2031 Q1084.2813,1410.9375 1084.4219,1410.8594 Q1084.5781,1410.7813 1084.7813,1410.7813 Q1085.1094,1410.7813 1085.3594,1411.0469 Q1085.625,1411.2969 1085.625,1411.6406 Q1085.625,1411.9844 1085.2813,1412.3906 Q1084.7813,1412.9688 1083.9844,1413.2969 Q1082.9063,1413.75 1081.6094,1413.75 Q1080.0938,1413.75 1078.8906,1413.125 Q1077.9063,1412.625 1077.2188,1411.5625 Q1076.5313,1410.4844 1076.5313,1409.2031 L1076.5313,1408.0469 Q1076.5313,1406.7188 1077.1406,1405.5781 Q1077.7656,1404.4219 1078.8594,1403.8125 Q1079.9531,1403.1875 1081.1875,1403.1875 Q1081.9219,1403.1875 1082.5625,1403.3594 Q1083.2188,1403.5156 1083.7656,1403.875 Z " fill="#000000"/><text fill="#000000" font-family="sans-serif" font-size="12" lengthAdjust="spacing" textLength="69" x="1095" y="1412.9102">VaccineType</text><line style="stroke:#A80036;stroke-width:1.5;" x1="1067" x2="1166" y1="1424" y2="1424"/><line style="stroke:#A80036;stroke-width:1.5;" x1="1067" x2="1166" y1="1432" y2="1432"/><!--MD5=[9532c95099058dfe385d7270fd32fc0d]
class VaccineTypeStore--><rect codeLine="100" fill="#FEFECE" filter="url(#fn7pwaqdo62yl)" height="89.5078" id="VaccineTypeStore" style="stroke:#A80036;stroke-width:1.5;" width="186" x="1775.5" y="1025"/><ellipse cx="1815.7" cy="1041" fill="#ADD1B2" rx="11" ry="11" style="stroke:#A80036;stroke-width:1.0;"/><path d="M1818.4656,1036.875 Q1818.6219,1036.6563 1818.8094,1036.5469 Q1818.9969,1036.4375 1819.2156,1036.4375 Q1819.5906,1036.4375 1819.825,1036.7031 Q1820.0594,1036.9531 1820.0594,1037.5625 L1820.0594,1039.0156 Q1820.0594,1039.625 1819.825,1039.8906 Q1819.5906,1040.1563 1819.2156,1040.1563 Q1818.8719,1040.1563 1818.6688,1039.9531 Q1818.4656,1039.7656 1818.3563,1039.25 Q1818.3094,1038.8906 1818.1219,1038.7031 Q1817.7938,1038.3281 1817.1844,1038.1094 Q1816.575,1037.8906 1815.95,1037.8906 Q1815.1844,1037.8906 1814.5438,1038.2188 Q1813.9188,1038.5469 1813.4188,1039.2969 Q1812.9344,1040.0469 1812.9344,1041.0781 L1812.9344,1042.1719 Q1812.9344,1043.4063 1813.825,1044.2344 Q1814.7156,1045.0469 1816.3094,1045.0469 Q1817.2469,1045.0469 1817.9031,1044.7969 Q1818.2938,1044.6406 1818.7156,1044.2031 Q1818.9813,1043.9375 1819.1219,1043.8594 Q1819.2781,1043.7813 1819.4813,1043.7813 Q1819.8094,1043.7813 1820.0594,1044.0469 Q1820.325,1044.2969 1820.325,1044.6406 Q1820.325,1044.9844 1819.9813,1045.3906 Q1819.4813,1045.9688 1818.6844,1046.2969 Q1817.6063,1046.75 1816.3094,1046.75 Q1814.7938,1046.75 1813.5906,1046.125 Q1812.6063,1045.625 1811.9188,1044.5625 Q1811.2313,1043.4844 1811.2313,1042.2031 L1811.2313,1041.0469 Q1811.2313,1039.7188 1811.8406,1038.5781 Q1812.4656,1037.4219 1813.5594,1036.8125 Q1814.6531,1036.1875 1815.8875,1036.1875 Q1816.6219,1036.1875 1817.2625,1036.3594 Q1817.9188,1036.5156 1818.4656,1036.875 Z " fill="#000000"/><text fill="#000000" font-family="sans-serif" font-size="12" lengthAdjust="spacing" textLength="98" x="1835.3" y="1045.9102">VaccineTypeStore</text><line style="stroke:#A80036;stroke-width:1.5;" x1="1776.5" x2="1960.5" y1="1057" y2="1057"/><text fill="#000000" font-family="sans-serif" font-size="11" lengthAdjust="spacing" textLength="174" x="1781.5" y="1072.4189">-vaccineTypes : List&lt;VaccineType&gt;</text><line style="stroke:#A80036;stroke-width:1.5;" x1="1776.5" x2="1960.5" y1="1078.8359" y2="1078.8359"/><text fill="#000000" font-family="sans-serif" font-size="11" lengthAdjust="spacing" textLength="99" x="1781.5" y="1094.2549">+getVaccineTypes()</text><text fill="#000000" font-family="sans-serif" font-size="11" lengthAdjust="spacing" textLength="155" x="1781.5" y="1108.0908">+getVaccineTypeByCode(code)</text><!--MD5=[a88c56e1dc44d9d0e1fcd2eec4fd7e58]
class SMSSender--><rect codeLine="106" fill="#FEFECE" filter="url(#fn7pwaqdo62yl)" height="61.8359" id="SMSSender" style="stroke:#A80036;stroke-width:1.5;" width="189" x="1322" y="1207"/><ellipse cx="1379.75" cy="1223" fill="#ADD1B2" rx="11" ry="11" style="stroke:#A80036;stroke-width:1.0;"/><path d="M1382.5156,1218.875 Q1382.6719,1218.6563 1382.8594,1218.5469 Q1383.0469,1218.4375 1383.2656,1218.4375 Q1383.6406,1218.4375 1383.875,1218.7031 Q1384.1094,1218.9531 1384.1094,1219.5625 L1384.1094,1221.0156 Q1384.1094,1221.625 1383.875,1221.8906 Q1383.6406,1222.1563 1383.2656,1222.1563 Q1382.9219,1222.1563 1382.7188,1221.9531 Q1382.5156,1221.7656 1382.4063,1221.25 Q1382.3594,1220.8906 1382.1719,1220.7031 Q1381.8438,1220.3281 1381.2344,1220.1094 Q1380.625,1219.8906 1380,1219.8906 Q1379.2344,1219.8906 1378.5938,1220.2188 Q1377.9688,1220.5469 1377.4688,1221.2969 Q1376.9844,1222.0469 1376.9844,1223.0781 L1376.9844,1224.1719 Q1376.9844,1225.4063 1377.875,1226.2344 Q1378.7656,1227.0469 1380.3594,1227.0469 Q1381.2969,1227.0469 1381.9531,1226.7969 Q1382.3438,1226.6406 1382.7656,1226.2031 Q1383.0313,1225.9375 1383.1719,1225.8594 Q1383.3281,1225.7813 1383.5313,1225.7813 Q1383.8594,1225.7813 1384.1094,1226.0469 Q1384.375,1226.2969 1384.375,1226.6406 Q1384.375,1226.9844 1384.0313,1227.3906 Q1383.5313,1227.9688 1382.7344,1228.2969 Q1381.6563,1228.75 1380.3594,1228.75 Q1378.8438,1228.75 1377.6406,1228.125 Q1376.6563,1227.625 1375.9688,1226.5625 Q1375.2813,1225.4844 1375.2813,1224.2031 L1375.2813,1223.0469 Q1375.2813,1221.7188 1375.8906,1220.5781 Q1376.5156,1219.4219 1377.6094,1218.8125 Q1378.7031,1218.1875 1379.9375,1218.1875 Q1380.6719,1218.1875 1381.3125,1218.3594 Q1381.9688,1218.5156 1382.5156,1218.875 Z " fill="#000000"/><text fill="#000000" font-family="sans-serif" font-size="12" lengthAdjust="spacing" textLength="65" x="1400.25" y="1227.9102">SMSSender</text><line style="stroke:#A80036;stroke-width:1.5;" x1="1323" x2="1510" y1="1239" y2="1239"/><line style="stroke:#A80036;stroke-width:1.5;" x1="1323" x2="1510" y1="1247" y2="1247"/><text fill="#000000" font-family="sans-serif" font-size="11" lengthAdjust="spacing" textLength="177" x="1328" y="1262.4189">+sendSMS(phoneNumber, message)</text><!--MD5=[d0d3f323c921ace052b18808f85f1ae6]
class VaccineTypeMapper--><rect codeLine="110" fill="#FEFECE" filter="url(#fn7pwaqdo62yl)" height="89.5078" id="VaccineTypeMapper" style="stroke:#A80036;stroke-width:1.5;" width="142" x="1329.5" y="321.5"/><ellipse cx="1344.5" cy="337.5" fill="#ADD1B2" rx="11" ry="11" style="stroke:#A80036;stroke-width:1.0;"/><path d="M1347.2656,333.375 Q1347.4219,333.1563 1347.6094,333.0469 Q1347.7969,332.9375 1348.0156,332.9375 Q1348.3906,332.9375 1348.625,333.2031 Q1348.8594,333.4531 1348.8594,334.0625 L1348.8594,335.5156 Q1348.8594,336.125 1348.625,336.3906 Q1348.3906,336.6563 1348.0156,336.6563 Q1347.6719,336.6563 1347.4688,336.4531 Q1347.2656,336.2656 1347.1563,335.75 Q1347.1094,335.3906 1346.9219,335.2031 Q1346.5938,334.8281 1345.9844,334.6094 Q1345.375,334.3906 1344.75,334.3906 Q1343.9844,334.3906 1343.3438,334.7188 Q1342.7188,335.0469 1342.2188,335.7969 Q1341.7344,336.5469 1341.7344,337.5781 L1341.7344,338.6719 Q1341.7344,339.9063 1342.625,340.7344 Q1343.5156,341.5469 1345.1094,341.5469 Q1346.0469,341.5469 1346.7031,341.2969 Q1347.0938,341.1406 1347.5156,340.7031 Q1347.7813,340.4375 1347.9219,340.3594 Q1348.0781,340.2813 1348.2813,340.2813 Q1348.6094,340.2813 1348.8594,340.5469 Q1349.125,340.7969 1349.125,341.1406 Q1349.125,341.4844 1348.7813,341.8906 Q1348.2813,342.4688 1347.4844,342.7969 Q1346.4063,343.25 1345.1094,343.25 Q1343.5938,343.25 1342.3906,342.625 Q1341.4063,342.125 1340.7188,341.0625 Q1340.0313,339.9844 1340.0313,338.7031 L1340.0313,337.5469 Q1340.0313,336.2188 1340.6406,335.0781 Q1341.2656,333.9219 1342.3594,333.3125 Q1343.4531,332.6875 1344.6875,332.6875 Q1345.4219,332.6875 1346.0625,332.8594 Q1346.7188,333.0156 1347.2656,333.375 Z " fill="#000000"/><text fill="#000000" font-family="sans-serif" font-size="12" lengthAdjust="spacing" textLength="110" x="1358.5" y="342.4102">VaccineTypeMapper</text><line style="stroke:#A80036;stroke-width:1.5;" x1="1330.5" x2="1470.5" y1="353.5" y2="353.5"/><line style="stroke:#A80036;stroke-width:1.5;" x1="1330.5" x2="1470.5" y1="361.5" y2="361.5"/><text fill="#000000" font-family="sans-serif" font-size="11" lengthAdjust="spacing" textLength="107" x="1335.5" y="376.9189">+toDto(vaccineTypes)</text><text fill="#000000" font-family="sans-serif" font-size="11" lengthAdjust="spacing" textLength="101" x="1335.5" y="390.7549">+toDto(vaccineType)</text><text fill="#000000" font-family="sans-serif" font-size="11" lengthAdjust="spacing" textLength="129" x="1335.5" y="404.5908">+toModel(vaccineTypeDto)</text><!--MD5=[f7c67bc1ef36d5d8df4ebb55a80953b6]
class VaccinationCenterMapper--><rect codeLine="116" fill="#FEFECE" filter="url(#fn7pwaqdo62yl)" height="61.8359" id="VaccinationCenterMapper" style="stroke:#A80036;stroke-width:1.5;" width="173" x="1507" y="335.5"/><ellipse cx="1522" cy="351.5" fill="#ADD1B2" rx="11" ry="11" style="stroke:#A80036;stroke-width:1.0;"/><path d="M1524.7656,347.375 Q1524.9219,347.1563 1525.1094,347.0469 Q1525.2969,346.9375 1525.5156,346.9375 Q1525.8906,346.9375 1526.125,347.2031 Q1526.3594,347.4531 1526.3594,348.0625 L1526.3594,349.5156 Q1526.3594,350.125 1526.125,350.3906 Q1525.8906,350.6563 1525.5156,350.6563 Q1525.1719,350.6563 1524.9688,350.4531 Q1524.7656,350.2656 1524.6563,349.75 Q1524.6094,349.3906 1524.4219,349.2031 Q1524.0938,348.8281 1523.4844,348.6094 Q1522.875,348.3906 1522.25,348.3906 Q1521.4844,348.3906 1520.8438,348.7188 Q1520.2188,349.0469 1519.7188,349.7969 Q1519.2344,350.5469 1519.2344,351.5781 L1519.2344,352.6719 Q1519.2344,353.9063 1520.125,354.7344 Q1521.0156,355.5469 1522.6094,355.5469 Q1523.5469,355.5469 1524.2031,355.2969 Q1524.5938,355.1406 1525.0156,354.7031 Q1525.2813,354.4375 1525.4219,354.3594 Q1525.5781,354.2813 1525.7813,354.2813 Q1526.1094,354.2813 1526.3594,354.5469 Q1526.625,354.7969 1526.625,355.1406 Q1526.625,355.4844 1526.2813,355.8906 Q1525.7813,356.4688 1524.9844,356.7969 Q1523.9063,357.25 1522.6094,357.25 Q1521.0938,357.25 1519.8906,356.625 Q1518.9063,356.125 1518.2188,355.0625 Q1517.5313,353.9844 1517.5313,352.7031 L1517.5313,351.5469 Q1517.5313,350.2188 1518.1406,349.0781 Q1518.7656,347.9219 1519.8594,347.3125 Q1520.9531,346.6875 1522.1875,346.6875 Q1522.9219,346.6875 1523.5625,346.8594 Q1524.2188,347.0156 1524.7656,347.375 Z " fill="#000000"/><text fill="#000000" font-family="sans-serif" font-size="12" lengthAdjust="spacing" textLength="141" x="1536" y="356.4102">VaccinationCenterMapper</text><line style="stroke:#A80036;stroke-width:1.5;" x1="1508" x2="1679" y1="367.5" y2="367.5"/><line style="stroke:#A80036;stroke-width:1.5;" x1="1508" x2="1679" y1="375.5" y2="375.5"/><text fill="#000000" font-family="sans-serif" font-size="11" lengthAdjust="spacing" textLength="132" x="1513" y="390.9189">+toDto(vaccinationCenters)</text><!--MD5=[e108c694096fabfd01a9ae86427d8e48]
class ISender--><rect codeLine="120" fill="#FEFECE" filter="url(#fn7pwaqdo62yl)" height="48" id="ISender" style="stroke:#A80036;stroke-width:1.5;" width="76" x="1662.5" y="871"/><ellipse cx="1677.5" cy="887" fill="#B4A7E5" rx="11" ry="11" style="stroke:#A80036;stroke-width:1.0;"/><path d="M1678.4531,883.6406 L1678.4531,890.2969 L1680.1719,890.2969 Q1680.7813,890.2969 1681.0469,890.5313 Q1681.3125,890.7656 1681.3125,891.1563 Q1681.3125,891.5313 1681.0469,891.7656 Q1680.7813,892 1680.1719,892 L1675.0313,892 Q1674.4219,892 1674.1563,891.7656 Q1673.8906,891.5313 1673.8906,891.1406 Q1673.8906,890.7656 1674.1563,890.5313 Q1674.4219,890.2969 1675.0313,890.2969 L1676.75,890.2969 L1676.75,883.6406 L1675.0313,883.6406 Q1674.4219,883.6406 1674.1563,883.4063 Q1673.8906,883.1719 1673.8906,882.7813 Q1673.8906,882.4063 1674.1563,882.1719 Q1674.4219,881.9375 1675.0313,881.9375 L1680.1719,881.9375 Q1680.7813,881.9375 1681.0469,882.1719 Q1681.3125,882.4063 1681.3125,882.7813 Q1681.3125,883.1719 1681.0469,883.4063 Q1680.7813,883.6406 1680.1719,883.6406 L1678.4531,883.6406 Z " fill="#000000"/><text fill="#000000" font-family="sans-serif" font-size="12" font-style="italic" lengthAdjust="spacing" textLength="44" x="1691.5" y="891.9102">ISender</text><line style="stroke:#A80036;stroke-width:1.5;" x1="1663.5" x2="1737.5" y1="903" y2="903"/><line style="stroke:#A80036;stroke-width:1.5;" x1="1663.5" x2="1737.5" y1="911" y2="911"/><!--MD5=[a5ad3856b0c65e07b10297b4477b22bb]
class SNSUserStore--><rect codeLine="122" fill="#FEFECE" filter="url(#fn7pwaqdo62yl)" height="61.8359" id="SNSUserStore" style="stroke:#A80036;stroke-width:1.5;" width="147" x="1221" y="500"/><ellipse cx="1251.3" cy="516" fill="#ADD1B2" rx="11" ry="11" style="stroke:#A80036;stroke-width:1.0;"/><path d="M1254.0656,511.875 Q1254.2219,511.6563 1254.4094,511.5469 Q1254.5969,511.4375 1254.8156,511.4375 Q1255.1906,511.4375 1255.425,511.7031 Q1255.6594,511.9531 1255.6594,512.5625 L1255.6594,514.0156 Q1255.6594,514.625 1255.425,514.8906 Q1255.1906,515.1563 1254.8156,515.1563 Q1254.4719,515.1563 1254.2688,514.9531 Q1254.0656,514.7656 1253.9563,514.25 Q1253.9094,513.8906 1253.7219,513.7031 Q1253.3938,513.3281 1252.7844,513.1094 Q1252.175,512.8906 1251.55,512.8906 Q1250.7844,512.8906 1250.1438,513.2188 Q1249.5188,513.5469 1249.0188,514.2969 Q1248.5344,515.0469 1248.5344,516.0781 L1248.5344,517.1719 Q1248.5344,518.4063 1249.425,519.2344 Q1250.3156,520.0469 1251.9094,520.0469 Q1252.8469,520.0469 1253.5031,519.7969 Q1253.8938,519.6406 1254.3156,519.2031 Q1254.5813,518.9375 1254.7219,518.8594 Q1254.8781,518.7813 1255.0813,518.7813 Q1255.4094,518.7813 1255.6594,519.0469 Q1255.925,519.2969 1255.925,519.6406 Q1255.925,519.9844 1255.5813,520.3906 Q1255.0813,520.9688 1254.2844,521.2969 Q1253.2063,521.75 1251.9094,521.75 Q1250.3938,521.75 1249.1906,521.125 Q1248.2063,520.625 1247.5188,519.5625 Q1246.8313,518.4844 1246.8313,517.2031 L1246.8313,516.0469 Q1246.8313,514.7188 1247.4406,513.5781 Q1248.0656,512.4219 1249.1594,511.8125 Q1250.2531,511.1875 1251.4875,511.1875 Q1252.2219,511.1875 1252.8625,511.3594 Q1253.5188,511.5156 1254.0656,511.875 Z " fill="#000000"/><text fill="#000000" font-family="sans-serif" font-size="12" lengthAdjust="spacing" textLength="81" x="1268.7" y="520.9102">SNSUserStore</text><line style="stroke:#A80036;stroke-width:1.5;" x1="1222" x2="1367" y1="532" y2="532"/><line style="stroke:#A80036;stroke-width:1.5;" x1="1222" x2="1367" y1="540" y2="540"/><text fill="#000000" font-family="sans-serif" font-size="11" lengthAdjust="spacing" textLength="135" x="1227" y="555.4189">+findSnsUserByEmail(email)</text><!--MD5=[56872536300a053cf9fd13853ad6ab1e]
class CommunityMassVaccinationCenter--><rect codeLine="126" fill="#FEFECE" filter="url(#fn7pwaqdo62yl)" height="75.6719" id="CommunityMassVaccinationCenter" style="stroke:#A80036;stroke-width:1.5;" width="225" x="686" y="1200"/><ellipse cx="701" cy="1216" fill="#ADD1B2" rx="11" ry="11" style="stroke:#A80036;stroke-width:1.0;"/><path d="M703.7656,1211.875 Q703.9219,1211.6563 704.1094,1211.5469 Q704.2969,1211.4375 704.5156,1211.4375 Q704.8906,1211.4375 705.125,1211.7031 Q705.3594,1211.9531 705.3594,1212.5625 L705.3594,1214.0156 Q705.3594,1214.625 705.125,1214.8906 Q704.8906,1215.1563 704.5156,1215.1563 Q704.1719,1215.1563 703.9688,1214.9531 Q703.7656,1214.7656 703.6563,1214.25 Q703.6094,1213.8906 703.4219,1213.7031 Q703.0938,1213.3281 702.4844,1213.1094 Q701.875,1212.8906 701.25,1212.8906 Q700.4844,1212.8906 699.8438,1213.2188 Q699.2188,1213.5469 698.7188,1214.2969 Q698.2344,1215.0469 698.2344,1216.0781 L698.2344,1217.1719 Q698.2344,1218.4063 699.125,1219.2344 Q700.0156,1220.0469 701.6094,1220.0469 Q702.5469,1220.0469 703.2031,1219.7969 Q703.5938,1219.6406 704.0156,1219.2031 Q704.2813,1218.9375 704.4219,1218.8594 Q704.5781,1218.7813 704.7813,1218.7813 Q705.1094,1218.7813 705.3594,1219.0469 Q705.625,1219.2969 705.625,1219.6406 Q705.625,1219.9844 705.2813,1220.3906 Q704.7813,1220.9688 703.9844,1221.2969 Q702.9063,1221.75 701.6094,1221.75 Q700.0938,1221.75 698.8906,1221.125 Q697.9063,1220.625 697.2188,1219.5625 Q696.5313,1218.4844 696.5313,1217.2031 L696.5313,1216.0469 Q696.5313,1214.7188 697.1406,1213.5781 Q697.7656,1212.4219 698.8594,1211.8125 Q699.9531,1211.1875 701.1875,1211.1875 Q701.9219,1211.1875 702.5625,1211.3594 Q703.2188,1211.5156 703.7656,1211.875 Z " fill="#000000"/><text fill="#000000" font-family="sans-serif" font-size="12" lengthAdjust="spacing" textLength="193" x="715" y="1220.9102">CommunityMassVaccinationCenter</text><line style="stroke:#A80036;stroke-width:1.5;" x1="687" x2="910" y1="1232" y2="1232"/><text fill="#000000" font-family="sans-serif" font-size="11" lengthAdjust="spacing" textLength="202" x="692" y="1247.4189">-administeredVaccineType : VaccineType</text><line style="stroke:#A80036;stroke-width:1.5;" x1="687" x2="910" y1="1253.8359" y2="1253.8359"/><text fill="#000000" font-family="sans-serif" font-size="11" lengthAdjust="spacing" textLength="195" x="692" y="1269.2549">+administersVaccineType(vaccineType)</text><!--MD5=[1db03e903fe0a044a2ca0dcbef10799a]
class HealthCareCenter--><rect codeLine="131" fill="#FEFECE" filter="url(#fn7pwaqdo62yl)" height="48" id="HealthCareCenter" style="stroke:#A80036;stroke-width:1.5;" width="132" x="264.5" y="1214"/><ellipse cx="279.5" cy="1230" fill="#ADD1B2" rx="11" ry="11" style="stroke:#A80036;stroke-width:1.0;"/><path d="M282.2656,1225.875 Q282.4219,1225.6563 282.6094,1225.5469 Q282.7969,1225.4375 283.0156,1225.4375 Q283.3906,1225.4375 283.625,1225.7031 Q283.8594,1225.9531 283.8594,1226.5625 L283.8594,1228.0156 Q283.8594,1228.625 283.625,1228.8906 Q283.3906,1229.1563 283.0156,1229.1563 Q282.6719,1229.1563 282.4688,1228.9531 Q282.2656,1228.7656 282.1563,1228.25 Q282.1094,1227.8906 281.9219,1227.7031 Q281.5938,1227.3281 280.9844,1227.1094 Q280.375,1226.8906 279.75,1226.8906 Q278.9844,1226.8906 278.3438,1227.2188 Q277.7188,1227.5469 277.2188,1228.2969 Q276.7344,1229.0469 276.7344,1230.0781 L276.7344,1231.1719 Q276.7344,1232.4063 277.625,1233.2344 Q278.5156,1234.0469 280.1094,1234.0469 Q281.0469,1234.0469 281.7031,1233.7969 Q282.0938,1233.6406 282.5156,1233.2031 Q282.7813,1232.9375 282.9219,1232.8594 Q283.0781,1232.7813 283.2813,1232.7813 Q283.6094,1232.7813 283.8594,1233.0469 Q284.125,1233.2969 284.125,1233.6406 Q284.125,1233.9844 283.7813,1234.3906 Q283.2813,1234.9688 282.4844,1235.2969 Q281.4063,1235.75 280.1094,1235.75 Q278.5938,1235.75 277.3906,1235.125 Q276.4063,1234.625 275.7188,1233.5625 Q275.0313,1232.4844 275.0313,1231.2031 L275.0313,1230.0469 Q275.0313,1228.7188 275.6406,1227.5781 Q276.2656,1226.4219 277.3594,1225.8125 Q278.4531,1225.1875 279.6875,1225.1875 Q280.4219,1225.1875 281.0625,1225.3594 Q281.7188,1225.5156 282.2656,1225.875 Z " fill="#000000"/><text fill="#000000" font-family="sans-serif" font-size="12" lengthAdjust="spacing" textLength="100" x="293.5" y="1234.9102">HealthCareCenter</text><line style="stroke:#A80036;stroke-width:1.5;" x1="265.5" x2="395.5" y1="1246" y2="1246"/><line style="stroke:#A80036;stroke-width:1.5;" x1="265.5" x2="395.5" y1="1254" y2="1254"/><!--MD5=[309e42d4eafe9420dfa12985f72d4531]
class SenderFactory--><rect fill="#FEFECE" filter="url(#fn7pwaqdo62yl)" height="48" id="SenderFactory" style="stroke:#A80036;stroke-width:1.5;" width="111" x="1645" y="507"/><ellipse cx="1660" cy="523" fill="#ADD1B2" rx="11" ry="11" style="stroke:#A80036;stroke-width:1.0;"/><path d="M1662.7656,518.875 Q1662.9219,518.6563 1663.1094,518.5469 Q1663.2969,518.4375 1663.5156,518.4375 Q1663.8906,518.4375 1664.125,518.7031 Q1664.3594,518.9531 1664.3594,519.5625 L1664.3594,521.0156 Q1664.3594,521.625 1664.125,521.8906 Q1663.8906,522.1563 1663.5156,522.1563 Q1663.1719,522.1563 1662.9688,521.9531 Q1662.7656,521.7656 1662.6563,521.25 Q1662.6094,520.8906 1662.4219,520.7031 Q1662.0938,520.3281 1661.4844,520.1094 Q1660.875,519.8906 1660.25,519.8906 Q1659.4844,519.8906 1658.8438,520.2188 Q1658.2188,520.5469 1657.7188,521.2969 Q1657.2344,522.0469 1657.2344,523.0781 L1657.2344,524.1719 Q1657.2344,525.4063 1658.125,526.2344 Q1659.0156,527.0469 1660.6094,527.0469 Q1661.5469,527.0469 1662.2031,526.7969 Q1662.5938,526.6406 1663.0156,526.2031 Q1663.2813,525.9375 1663.4219,525.8594 Q1663.5781,525.7813 1663.7813,525.7813 Q1664.1094,525.7813 1664.3594,526.0469 Q1664.625,526.2969 1664.625,526.6406 Q1664.625,526.9844 1664.2813,527.3906 Q1663.7813,527.9688 1662.9844,528.2969 Q1661.9063,528.75 1660.6094,528.75 Q1659.0938,528.75 1657.8906,528.125 Q1656.9063,527.625 1656.2188,526.5625 Q1655.5313,525.4844 1655.5313,524.2031 L1655.5313,523.0469 Q1655.5313,521.7188 1656.1406,520.5781 Q1656.7656,519.4219 1657.8594,518.8125 Q1658.9531,518.1875 1660.1875,518.1875 Q1660.9219,518.1875 1661.5625,518.3594 Q1662.2188,518.5156 1662.7656,518.875 Z " fill="#000000"/><text fill="#000000" font-family="sans-serif" font-size="12" lengthAdjust="spacing" textLength="79" x="1674" y="527.9102">SenderFactory</text><line style="stroke:#A80036;stroke-width:1.5;" x1="1646" x2="1755" y1="539" y2="539"/><line style="stroke:#A80036;stroke-width:1.5;" x1="1646" x2="1755" y1="547" y2="547"/><!--MD5=[dbd744789a27dfb7a38205596e031569]
class EmailSender--><rect fill="#FEFECE" filter="url(#fn7pwaqdo62yl)" height="48" id="EmailSender" style="stroke:#A80036;stroke-width:1.5;" width="104" x="1546.5" y="1214"/><ellipse cx="1561.5" cy="1230" fill="#ADD1B2" rx="11" ry="11" style="stroke:#A80036;stroke-width:1.0;"/><path d="M1564.2656,1225.875 Q1564.4219,1225.6563 1564.6094,1225.5469 Q1564.7969,1225.4375 1565.0156,1225.4375 Q1565.3906,1225.4375 1565.625,1225.7031 Q1565.8594,1225.9531 1565.8594,1226.5625 L1565.8594,1228.0156 Q1565.8594,1228.625 1565.625,1228.8906 Q1565.3906,1229.1563 1565.0156,1229.1563 Q1564.6719,1229.1563 1564.4688,1228.9531 Q1564.2656,1228.7656 1564.1563,1228.25 Q1564.1094,1227.8906 1563.9219,1227.7031 Q1563.5938,1227.3281 1562.9844,1227.1094 Q1562.375,1226.8906 1561.75,1226.8906 Q1560.9844,1226.8906 1560.3438,1227.2188 Q1559.7188,1227.5469 1559.2188,1228.2969 Q1558.7344,1229.0469 1558.7344,1230.0781 L1558.7344,1231.1719 Q1558.7344,1232.4063 1559.625,1233.2344 Q1560.5156,1234.0469 1562.1094,1234.0469 Q1563.0469,1234.0469 1563.7031,1233.7969 Q1564.0938,1233.6406 1564.5156,1233.2031 Q1564.7813,1232.9375 1564.9219,1232.8594 Q1565.0781,1232.7813 1565.2813,1232.7813 Q1565.6094,1232.7813 1565.8594,1233.0469 Q1566.125,1233.2969 1566.125,1233.6406 Q1566.125,1233.9844 1565.7813,1234.3906 Q1565.2813,1234.9688 1564.4844,1235.2969 Q1563.4063,1235.75 1562.1094,1235.75 Q1560.5938,1235.75 1559.3906,1235.125 Q1558.4063,1234.625 1557.7188,1233.5625 Q1557.0313,1232.4844 1557.0313,1231.2031 L1557.0313,1230.0469 Q1557.0313,1228.7188 1557.6406,1227.5781 Q1558.2656,1226.4219 1559.3594,1225.8125 Q1560.4531,1225.1875 1561.6875,1225.1875 Q1562.4219,1225.1875 1563.0625,1225.3594 Q1563.7188,1225.5156 1564.2656,1225.875 Z " fill="#000000"/><text fill="#000000" font-family="sans-serif" font-size="12" lengthAdjust="spacing" textLength="72" x="1575.5" y="1234.9102">EmailSender</text><line style="stroke:#A80036;stroke-width:1.5;" x1="1547.5" x2="1649.5" y1="1246" y2="1246"/><line style="stroke:#A80036;stroke-width:1.5;" x1="1547.5" x2="1649.5" y1="1254" y2="1254"/><!--MD5=[467f7e0fe9ca2a47c651f8dc89503c22]
class ConsoleSender--><rect fill="#FEFECE" filter="url(#fn7pwaqdo62yl)" height="48" id="ConsoleSender" style="stroke:#A80036;stroke-width:1.5;" width="119" x="1686" y="1214"/><ellipse cx="1701" cy="1230" fill="#ADD1B2" rx="11" ry="11" style="stroke:#A80036;stroke-width:1.0;"/><path d="M1703.7656,1225.875 Q1703.9219,1225.6563 1704.1094,1225.5469 Q1704.2969,1225.4375 1704.5156,1225.4375 Q1704.8906,1225.4375 1705.125,1225.7031 Q1705.3594,1225.9531 1705.3594,1226.5625 L1705.3594,1228.0156 Q1705.3594,1228.625 1705.125,1228.8906 Q1704.8906,1229.1563 1704.5156,1229.1563 Q1704.1719,1229.1563 1703.9688,1228.9531 Q1703.7656,1228.7656 1703.6563,1228.25 Q1703.6094,1227.8906 1703.4219,1227.7031 Q1703.0938,1227.3281 1702.4844,1227.1094 Q1701.875,1226.8906 1701.25,1226.8906 Q1700.4844,1226.8906 1699.8438,1227.2188 Q1699.2188,1227.5469 1698.7188,1228.2969 Q1698.2344,1229.0469 1698.2344,1230.0781 L1698.2344,1231.1719 Q1698.2344,1232.4063 1699.125,1233.2344 Q1700.0156,1234.0469 1701.6094,1234.0469 Q1702.5469,1234.0469 1703.2031,1233.7969 Q1703.5938,1233.6406 1704.0156,1233.2031 Q1704.2813,1232.9375 1704.4219,1232.8594 Q1704.5781,1232.7813 1704.7813,1232.7813 Q1705.1094,1232.7813 1705.3594,1233.0469 Q1705.625,1233.2969 1705.625,1233.6406 Q1705.625,1233.9844 1705.2813,1234.3906 Q1704.7813,1234.9688 1703.9844,1235.2969 Q1702.9063,1235.75 1701.6094,1235.75 Q1700.0938,1235.75 1698.8906,1235.125 Q1697.9063,1234.625 1697.2188,1233.5625 Q1696.5313,1232.4844 1696.5313,1231.2031 L1696.5313,1230.0469 Q1696.5313,1228.7188 1697.1406,1227.5781 Q1697.7656,1226.4219 1698.8594,1225.8125 Q1699.9531,1225.1875 1701.1875,1225.1875 Q1701.9219,1225.1875 1702.5625,1225.3594 Q1703.2188,1225.5156 1703.7656,1225.875 Z " fill="#000000"/><text fill="#000000" font-family="sans-serif" font-size="12" lengthAdjust="spacing" textLength="87" x="1715" y="1234.9102">ConsoleSender</text><line style="stroke:#A80036;stroke-width:1.5;" x1="1687" x2="1804" y1="1246" y2="1246"/><line style="stroke:#A80036;stroke-width:1.5;" x1="1687" x2="1804" y1="1254" y2="1254"/><!--MD5=[77f394cc6139a22c0e019720b3e71c2a]
link ScheduleVaccineUI to ScheduleVaccineController--><path codeLine="134" d="M1400.5,55.2 C1400.5,70.24 1400.5,90.7 1400.5,110.72 " fill="none" id="ScheduleVaccineUI-to-ScheduleVaccineController" style="stroke:#A80036;stroke-width:1.0;stroke-dasharray:7.0,7.0;"/><polygon fill="#A80036" points="1400.5,115.8,1404.5,106.8,1400.5,110.8,1396.5,106.8,1400.5,115.8" style="stroke:#A80036;stroke-width:1.0;"/><!--MD5=[db2a7a64eac7f92e6334ba110bbdde2d]
link ScheduleVaccineController to Company--><path codeLine="136" d="M1325.4,247.02 C1303.64,265.72 1279.96,286.06 1258.46,304.54 " fill="none" id="ScheduleVaccineController-to-Company" style="stroke:#A80036;stroke-width:1.0;stroke-dasharray:7.0,7.0;"/><polygon fill="#A80036" points="1254.47,307.96,1263.9012,305.1223,1258.2602,304.699,1258.6836,299.058,1254.47,307.96" style="stroke:#A80036;stroke-width:1.0;"/><!--MD5=[3a36e47088afde0a08bf1fb6532140b2]
link ScheduleVaccineController to VaccinationCenterMapper--><path codeLine="137" d="M1468.54,247.02 C1498.63,275.54 1532.76,307.9 1557.74,331.59 " fill="none" id="ScheduleVaccineController-to-VaccinationCenterMapper" style="stroke:#A80036;stroke-width:1.0;stroke-dasharray:7.0,7.0;"/><polygon fill="#A80036" points="1561.67,335.32,1557.8944,326.2236,1558.0429,331.8785,1552.388,332.027,1561.67,335.32" style="stroke:#A80036;stroke-width:1.0;"/><!--MD5=[dcaf69741143def6bee2a1b6ba7dc4b4]
link ScheduleVaccineController to VaccineTypeMapper--><path codeLine="138" d="M1400.5,247.02 C1400.5,269.79 1400.5,295 1400.5,316.3 " fill="none" id="ScheduleVaccineController-to-VaccineTypeMapper" style="stroke:#A80036;stroke-width:1.0;stroke-dasharray:7.0,7.0;"/><polygon fill="#A80036" points="1400.5,321.34,1404.5,312.34,1400.5,316.34,1396.5,312.34,1400.5,321.34" style="stroke:#A80036;stroke-width:1.0;"/><!--MD5=[bc0d5b4bfe6e1bf0a8fced13bc4bdd47]
link Company to VaccinationCenterStore--><path codeLine="140" d="M1080.29,396.93 C987.31,422.45 851.66,459.69 747.48,488.28 " fill="none" id="Company-to-VaccinationCenterStore" style="stroke:#A80036;stroke-width:1.0;stroke-dasharray:7.0,7.0;"/><polygon fill="#A80036" points="742.55,489.64,752.2898,491.1017,747.3698,488.3099,750.1616,483.3899,742.55,489.64" style="stroke:#A80036;stroke-width:1.0;"/><!--MD5=[26b80dd60d3305f854b992ec0b603e2d]
link Company to VaccineTypeStore--><path codeLine="141" d="M1294.61,419.54 C1300.27,421.54 1305.92,423.38 1311.5,425 C1410.95,453.89 1699.17,413.89 1773.5,486 C1921.3,629.4 1895.68,906.56 1877.77,1019.39 " fill="none" id="Company-to-VaccineTypeStore" style="stroke:#A80036;stroke-width:1.0;stroke-dasharray:7.0,7.0;"/><polygon fill="#A80036" points="1876.92,1024.64,1882.287,1016.382,1877.7072,1019.7024,1874.3868,1015.1225,1876.92,1024.64" style="stroke:#A80036;stroke-width:1.0;"/><!--MD5=[8ded5959d12d57061fb7a38976b0fc68]
link Company to AppointmentScheduleList--><path codeLine="142" d="M1174.01,425.27 C1162.54,474.42 1145.92,545.62 1133,600.98 " fill="none" id="Company-to-AppointmentScheduleList" style="stroke:#A80036;stroke-width:1.0;stroke-dasharray:7.0,7.0;"/><polygon fill="#A80036" points="1131.84,605.94,1137.768,598.075,1132.9685,601.069,1129.9745,596.2694,1131.84,605.94" style="stroke:#A80036;stroke-width:1.0;"/><!--MD5=[1bd9080c7e199931e49bc5a1616681ac]
link Company to SNSUserStore--><path codeLine="143" d="M1225.53,425.25 C1241,448.76 1258.37,475.13 1271.81,495.54 " fill="none" id="Company-to-SNSUserStore" style="stroke:#A80036;stroke-width:1.0;stroke-dasharray:7.0,7.0;"/><polygon fill="#A80036" points="1274.61,499.8,1273.0076,490.0824,1271.863,495.6222,1266.3231,494.4776,1274.61,499.8" style="stroke:#A80036;stroke-width:1.0;"/><!--MD5=[8c304936b446fd8cea914e03fbadd4b7]
link VaccinationCenterStore to VaccinationCenter--><path codeLine="145" d="M595.5,576.03 C595.5,630.49 595.5,724.81 595.5,796.62 " fill="none" id="VaccinationCenterStore-to-VaccinationCenter" style="stroke:#A80036;stroke-width:1.0;"/><polygon fill="#A80036" points="595.5,801.75,599.5,792.75,595.5,796.75,591.5,792.75,595.5,801.75" style="stroke:#A80036;stroke-width:1.0;"/><text fill="#000000" font-family="sans-serif" font-size="13" lengthAdjust="spacing" textLength="36" x="596.5" y="690.9951">stores</text><text fill="#000000" font-family="sans-serif" font-size="13" lengthAdjust="spacing" textLength="7" x="588.0078" y="597.0418">1</text><text fill="#000000" font-family="sans-serif" font-size="13" lengthAdjust="spacing" textLength="5" x="590.3008" y="791.1764">*</text><!--MD5=[71d75b14c01668c1ea00f1e286358a3a]
link VaccinationCenterStore to Vaccine--><path codeLine="146" d="M448.48,572.36 C304.15,621.98 105.5,721.6 105.5,894 C105.5,894 105.5,894 105.5,1417 C105.5,1442.94 108.84,1471.3 112.78,1495.77 " fill="none" id="VaccinationCenterStore-to-Vaccine" style="stroke:#A80036;stroke-width:1.0;stroke-dasharray:7.0,7.0;"/><polygon fill="#A80036" points="113.63,1500.93,116.1139,1491.3995,112.8173,1495.9965,108.2203,1492.6999,113.63,1500.93" style="stroke:#A80036;stroke-width:1.0;"/><!--MD5=[3f8bc51bb69ce45c3e3ea0b764df71f1]
link SNSUser to Appointment--><path codeLine="148" d="M1287.44,995.02 C1277.68,1004.85 1268.22,1014.93 1259.5,1025 C1230.54,1058.47 1202.45,1098.01 1178.94,1133.83 " fill="none" id="SNSUser-to-Appointment" style="stroke:#A80036;stroke-width:1.0;"/><polygon fill="#FFFFFF" points="1171.8,1144.82,1178.4238,1141.9696,1178.3403,1134.759,1171.7165,1137.6094,1171.8,1144.82" style="stroke:#A80036;stroke-width:1.0;"/><text fill="#000000" font-family="sans-serif" font-size="13" lengthAdjust="spacing" textLength="7" x="1271.4393" y="1016.7914">1</text><text fill="#000000" font-family="sans-serif" font-size="13" lengthAdjust="spacing" textLength="5" x="1171.0075" y="1134.252">*</text><!--MD5=[5bffdd6f8ef67cfbc17d6bd4398d763c]
link AppointmentScheduleList to Appointment--><path codeLine="150" d="M1113.93,765.08 C1114.47,863.78 1115.39,1033.09 1115.97,1139.82 " fill="none" id="AppointmentScheduleList-to-Appointment" style="stroke:#A80036;stroke-width:1.0;"/><polygon fill="#A80036" points="1116,1144.85,1119.9485,1135.8273,1115.9714,1139.8501,1111.9486,1135.873,1116,1144.85" style="stroke:#A80036;stroke-width:1.0;"/><text fill="#000000" font-family="sans-serif" font-size="13" lengthAdjust="spacing" textLength="36" x="1116.5" y="900.4951">stores</text><text fill="#000000" font-family="sans-serif" font-size="13" lengthAdjust="spacing" textLength="7" x="1106.6662" y="786.1301">1</text><text fill="#000000" font-family="sans-serif" font-size="13" lengthAdjust="spacing" textLength="5" x="1110.7609" y="1134.2844">*</text><!--MD5=[e6b07597ecf97135b3551bd145bd9c3d]
reverse link Appointment to VaccineType--><path codeLine="152" d="M1116.5,1344.29 C1116.5,1362.2 1116.5,1379.11 1116.5,1391.9 " fill="none" id="Appointment-backto-VaccineType" style="stroke:#A80036;stroke-width:1.0;"/><polygon fill="#FFFFFF" points="1116.5,1331.12,1112.5,1337.12,1116.5,1343.12,1120.5,1337.12,1116.5,1331.12" style="stroke:#A80036;stroke-width:1.0;"/><!--MD5=[4e3bd2b934646162150ee15630d45001]
reverse link ISender to Appointment--><path codeLine="154" d="M1692.12,923.9 C1683.79,946.68 1668.7,977.82 1644.5,995 C1583.37,1038.4 1548.82,998.99 1478.5,1025 C1397.73,1054.88 1314.33,1102.39 1247.98,1144.86 " fill="none" id="ISender-backto-Appointment" style="stroke:#A80036;stroke-width:1.0;"/><polygon fill="#A80036" points="1693.8,919.18,1687.0225,926.326,1692.1292,923.8926,1694.5626,928.9993,1693.8,919.18" style="stroke:#A80036;stroke-width:1.0;"/><polygon fill="#000000" points="1487.9766,1067.9487,1478.5693,1069.3463,1481.1874,1074.6088,1487.9766,1067.9487" style="stroke:#000000;stroke-width:1.0;"/><text fill="#000000" font-family="sans-serif" font-size="13" lengthAdjust="spacing" textLength="43" x="1492.5" y="1075.4951">triggers</text><text fill="#000000" font-family="sans-serif" font-size="13" lengthAdjust="spacing" textLength="22" x="1667.4856" y="940.5618">0..1</text><text fill="#000000" font-family="sans-serif" font-size="13" lengthAdjust="spacing" textLength="7" x="1251.1784" y="1134.2952">1</text><!--MD5=[b87d85fc97cc3f91d0afd88eb00009fe]
link SenderFactory to ISender--><path codeLine="156" d="M1700.5,555.2 C1700.5,618.92 1700.5,796.52 1700.5,865.81 " fill="none" id="SenderFactory-to-ISender" style="stroke:#A80036;stroke-width:1.0;"/><polygon fill="#A80036" points="1700.5,871,1704.5,862,1700.5,866,1696.5,862,1700.5,871" style="stroke:#A80036;stroke-width:1.0;"/><polygon fill="#000000" points="1705.5,690.6758,1708.4389,681.6307,1702.5611,681.6307,1705.5,690.6758" style="stroke:#000000;stroke-width:1.0;"/><text fill="#000000" font-family="sans-serif" font-size="13" lengthAdjust="spacing" textLength="43" x="1714.5" y="690.9951">creates</text><!--MD5=[e92ab4778a14d751b00a64f10118f72b]
reverse link ISender to SMSSender--><path codeLine="157" d="M1679.98,937.37 C1670.19,955.66 1657.73,977.05 1644.5,995 C1583.36,1077.94 1496.64,1162.87 1449.73,1206.7 " fill="none" id="ISender-backto-SMSSender" style="stroke:#A80036;stroke-width:1.0;stroke-dasharray:7.0,7.0;"/><polygon fill="none" points="1673.89,933.91,1689.3,919.37,1686.32,940.35,1673.89,933.91" style="stroke:#A80036;stroke-width:1.0;"/><!--MD5=[a307af71b640ac660673838bc95b197a]
reverse link ISender to EmailSender--><path codeLine="158" d="M1687.82,938.4 C1666.08,1011.09 1622.39,1157.14 1605.44,1213.8 " fill="none" id="ISender-backto-EmailSender" style="stroke:#A80036;stroke-width:1.0;stroke-dasharray:7.0,7.0;"/><polygon fill="none" points="1681.13,936.33,1693.57,919.17,1694.54,940.34,1681.13,936.33" style="stroke:#A80036;stroke-width:1.0;"/><!--MD5=[8a1a081dc8ec919620e7d0b05751797d]
reverse link ISender to ConsoleSender--><path codeLine="159" d="M1706.22,939.34 C1715.85,1012.34 1734.99,1157.39 1742.44,1213.8 " fill="none" id="ISender-backto-ConsoleSender" style="stroke:#A80036;stroke-width:1.0;stroke-dasharray:7.0,7.0;"/><polygon fill="none" points="1699.23,939.91,1703.56,919.17,1713.11,938.08,1699.23,939.91" style="stroke:#A80036;stroke-width:1.0;"/><!--MD5=[7991057a0b57fcb72665747661b5eb1a]
link VaccineType to Vaccine--><path codeLine="161" d="M1065.99,1424.21 C917.49,1445.42 478.83,1508.05 257.05,1539.72 " fill="none" id="VaccineType-to-Vaccine" style="stroke:#A80036;stroke-width:1.0;"/><polygon fill="#FFFFFF" points="244.05,1541.57,250.5563,1544.6792,255.9289,1539.8693,249.4225,1536.76,244.05,1541.57" style="stroke:#A80036;stroke-width:1.0;"/><!--MD5=[d008df8d9f8e445f2ab98a1ffd9c1902]
link VaccineTypeStore to VaccineType--><path codeLine="163" d="M1875.01,1115.07 C1880.89,1173.48 1881.14,1275.59 1822.5,1331 C1775.4,1375.5 1330.62,1403.51 1172.2,1412.15 " fill="none" id="VaccineTypeStore-to-VaccineType" style="stroke:#A80036;stroke-width:1.0;"/><polygon fill="#A80036" points="1167.14,1412.42,1176.3436,1415.9263,1172.1326,1412.149,1175.9099,1407.938,1167.14,1412.42" style="stroke:#A80036;stroke-width:1.0;"/><polygon fill="#000000" points="1877.8945,1240.1225,1887.3702,1239.3079,1885.0816,1233.8938,1877.8945,1240.1225" style="stroke:#000000;stroke-width:1.0;"/><text fill="#000000" font-family="sans-serif" font-size="13" lengthAdjust="spacing" textLength="36" x="1891.5" y="1243.4951">stores</text><!--MD5=[b01d27099955aced792f1ce85db49798]
link SNSUserStore to SNSUser--><path codeLine="165" d="M1303.44,562.24 C1318.06,611.71 1347.76,712.17 1370.66,789.65 " fill="none" id="SNSUserStore-to-SNSUser" style="stroke:#A80036;stroke-width:1.0;"/><polygon fill="#A80036" points="1372.16,794.72,1373.4532,784.9564,1370.7469,789.9239,1365.7794,787.2175,1372.16,794.72" style="stroke:#A80036;stroke-width:1.0;"/><text fill="#000000" font-family="sans-serif" font-size="13" lengthAdjust="spacing" textLength="36" x="1362.5" y="690.9951">stores</text><!--MD5=[9c09d1db3efb59cb07492bc4345754ed]
reverse link VaccinationCenter to CommunityMassVaccinationCenter--><path codeLine="167" d="M660.85,1005.78 C700.54,1072.45 748.71,1153.37 776.27,1199.65 " fill="none" id="VaccinationCenter-backto-CommunityMassVaccinationCenter" style="stroke:#A80036;stroke-width:1.0;"/><polygon fill="none" points="654.65,1009.05,650.43,988.28,666.68,1001.88,654.65,1009.05" style="stroke:#A80036;stroke-width:1.0;"/><!--MD5=[4d7f47162e377c4884c583baac9698b3]
reverse link VaccinationCenter to HealthCareCenter--><path codeLine="168" d="M511.32,1004.32 C453.54,1078.67 381.56,1171.3 348.55,1213.77 " fill="none" id="VaccinationCenter-backto-HealthCareCenter" style="stroke:#A80036;stroke-width:1.0;"/><polygon fill="none" points="505.99,999.78,523.79,988.28,517.04,1008.37,505.99,999.78" style="stroke:#A80036;stroke-width:1.0;"/><!--MD5=[f17e71def2e220f6a6398972244b7dbb]
link VaccinationCenter to Appointment--><path codeLine="169" d="M736.15,988.05 C806.81,1034.3 892.52,1090.4 964.67,1137.63 " fill="none" id="VaccinationCenter-to-Appointment" style="stroke:#A80036;stroke-width:1.0;"/><polygon fill="#FFFFFF" points="975.67,1144.83,972.8459,1138.1949,965.635,1138.2499,968.4591,1144.8849,975.67,1144.83" style="stroke:#A80036;stroke-width:1.0;"/><text fill="#000000" font-family="sans-serif" font-size="13" lengthAdjust="spacing" textLength="7" x="740.5077" y="1009.913">1</text><text fill="#000000" font-family="sans-serif" font-size="13" lengthAdjust="spacing" textLength="5" x="959.2484" y="1134.2628">*</text><!--MD5=[b649bef0048cf03271726558ee7073ed]
link VaccinationCenter to Slot--><path codeLine="170" d="M595.5,988.28 C595.5,1055.4 595.5,1143.18 595.5,1194.5 " fill="none" id="VaccinationCenter-to-Slot" style="stroke:#A80036;stroke-width:1.0;"/><polygon fill="#A80036" points="595.5,1199.65,599.5,1190.65,595.5,1194.65,591.5,1190.65,595.5,1199.65" style="stroke:#A80036;stroke-width:1.0;"/><polygon fill="#000000" points="600.5,1075.1758,603.4389,1066.1307,597.5611,1066.1307,600.5,1075.1758" style="stroke:#000000;stroke-width:1.0;"/><text fill="#000000" font-family="sans-serif" font-size="13" lengthAdjust="spacing" textLength="21" x="609.5" y="1075.4951">has</text><text fill="#000000" font-family="sans-serif" font-size="13" lengthAdjust="spacing" textLength="7" x="588.2211" y="1009.8456">1</text><text fill="#000000" font-family="sans-serif" font-size="13" lengthAdjust="spacing" textLength="7" x="587.8984" y="1189.2371">1</text><!--MD5=[e67749f86d2edce8d072e016ba76df74]
link VaccinationCenter to Time--><path codeLine="171" d="M561.13,988.28 C536.08,1055.54 503.31,1143.53 484.21,1194.81 " fill="none" id="VaccinationCenter-to-Time" style="stroke:#A80036;stroke-width:1.0;"/><polygon fill="#A80036" points="482.41,1199.65,489.2966,1192.6091,484.1531,1194.9637,481.7985,1189.8201,482.41,1199.65" style="stroke:#A80036;stroke-width:1.0;"/><polygon fill="#000000" points="550.7549,1074.8614,556.6659,1067.4108,551.1577,1065.3593,550.7549,1074.8614" style="stroke:#000000;stroke-width:1.0;"/><text fill="#000000" font-family="sans-serif" font-size="13" lengthAdjust="spacing" textLength="21" x="561.5" y="1075.4951">has</text><text fill="#000000" font-family="sans-serif" font-size="13" lengthAdjust="spacing" textLength="7" x="551.1122" y="1009.8456">1</text><text fill="#000000" font-family="sans-serif" font-size="13" lengthAdjust="spacing" textLength="7" x="477.1992" y="1189.2371">1</text><!--MD5=[0a5d1547d7bf034298004c34e76a4d79]
@startuml US01_CD
skinparam classAttributeIconSize 0

class Appointment {
  - snsUser : SNSUser
  - date : Date
  - center : VaccinationCenter
  - vaccineType : VaccineType
  - sms : boolean
  +Appointment(snsUser, date, vaccinationCenter, vaccineType, sms)
  +hasSMS()
  +getSnsUser()
  +getDate()
  +getVaccineType()
}

class AppointmentScheduleList {
  -appointments: Map<Calendar, Appointment[][]>
  -slotsPerDay : int
  -vaccinesPerSlot: int
  +createAppointment(snsUser, date, vaccineTypeDto, sms)
  +saveAppointment(appointment)
  +hasAppointmentToday(snsNumber)
  +validateAppointment(appointment)
  -generateMessage(appointment)
}

class Vaccine   {
  -designation : String
  -brand : String
  -id : String
  -vacType : VaccineType

  +Vaccine(designation, id, brand, vaccineType)
}

class ScheduleVaccineUI {}

class ScheduleVaccineController {
  +ScheduleVaccineController(company)
  +createAppointment(snsNumber, date, center, vaccineType, sms)
  +getSuggestedVaccineType()
  +getListOfVaccinationCentersWithVaccineType(vaccineTypeDto)
  +getListOfVaccineTypes()
  +save()
}

class Company {
  -designation : String
  +getOngoingOutbreakVaccineTypeCode()
  +getVaccinationCenterStore()
  +getVaccineTypeStore()
  +getSnsUserStore()
}

class SNSUser {
  -citizenCard : String 
  -snsNumber : String 
  -birthDay : Date 
  -gender : Char
  -phoneNumber : String 
  -address : String
  -userHealthData : UserHealthData
  +SNSUser(citizenCard, snsNumber, name, birthDay, gender, phoneNumber, email, address)
  +addAppointmentToList(appointment)
  +hasAppointmentForVaccineType(vaccineType)
  +getPhoneNumber()
}

class VaccinationCenter{
  -name : String
  -address : String
  -emailAddress : String
  -phoneNumber : String
  -faxNumber : String
  -websiteAddress : String
  +VaccinationCenter(name, address, emailAddress, phoneNumber, faxNumber, websiteAddress, openingHours, closingHours, slotDuration, maximumVaccinesPerSlot, coordinator)
  +isOpenAt(hours)
  +hasAvailabilityInSlot(date)
  +getAppointmentList()
}

class Time {
  -hours : int
  -minutes : int
}

class Slot {
  -slotDuration : int
  -maxVacPerSlot : int
}

class VaccinationCenterStore {
  -availableVaccinationCentersList: List<VaccinationCenter>
  +getVaccinationCentersWithVaccineType(vaccineType)
  +getVaccinationCenterWithEmail(email)
}

class VaccineType {}

class VaccineTypeStore {
  -vaccineTypes : List<VaccineType>
  +getVaccineTypes()
  +getVaccineTypeByCode(code)
}

class SMSSender {
  +sendSMS(phoneNumber, message)
}

class VaccineTypeMapper {
  +toDto(vaccineTypes)
  +toDto(vaccineType)
  +toModel(vaccineTypeDto)
}

class VaccinationCenterMapper {
  +toDto(vaccinationCenters)
}

interface ISender {}

class SNSUserStore {
  +findSnsUserByEmail(email)                           
}

class CommunityMassVaccinationCenter {
  -administeredVaccineType : VaccineType
  +administersVaccineType(vaccineType)
}

class HealthCareCenter {}


ScheduleVaccineUI ..> ScheduleVaccineController

ScheduleVaccineController ..> Company
ScheduleVaccineController ..> VaccinationCenterMapper
ScheduleVaccineController ..> VaccineTypeMapper 

Company ..> VaccinationCenterStore
Company ..> VaccineTypeStore
Company ..> AppointmentScheduleList
Company ..> SNSUserStore

VaccinationCenterStore "1" - -> "*" VaccinationCenter : stores
VaccinationCenterStore ..> Vaccine

SNSUser "1" - -o "*" Appointment

AppointmentScheduleList "1" - -> "*" Appointment : stores

Appointment o- - VaccineType

ISender "0..1" <- - "1" Appointment : triggers <

SenderFactory - -> ISender : creates >
ISender <|.. SMSSender
ISender <|.. EmailSender
ISender <|.. ConsoleSender

VaccineType - -o Vaccine 

VaccineTypeStore - -> VaccineType : stores > 

SNSUserStore - -> SNSUser : stores

VaccinationCenter <|- - CommunityMassVaccinationCenter
VaccinationCenter <|- - HealthCareCenter
VaccinationCenter "1" - -o "*" Appointment
VaccinationCenter "1" - -> "1" Slot : has >
VaccinationCenter "1" - -> "1" Time : has >

@enduml

PlantUML version 1.2022.0(Tue Jan 11 16:16:42 WET 2022)
(GPL source distribution)
Java Runtime: Java(TM) SE Runtime Environment
JVM: Java HotSpot(TM) 64-Bit Server VM
Default Encoding: Cp1252
Language: pt
Country: PT
--></g></svg>