<?xml version="1.0" encoding="UTF-8" standalone="no"?><svg xmlns="http://www.w3.org/2000/svg" xmlns:xlink="http://www.w3.org/1999/xlink" contentScriptType="application/ecmascript" contentStyleType="text/css" height="409px" preserveAspectRatio="none" style="width:418px;height:409px;background:#FFFFFF;" version="1.1" viewBox="0 0 418 409" width="418px" zoomAndPan="magnify"><defs><filter height="300%" id="fcnh5idp87nq2" width="300%" x="-1" y="-1"><feGaussianBlur result="blurOut" stdDeviation="2.0"/><feColorMatrix in="blurOut" result="blurOut2" type="matrix" values="0 0 0 0 0 0 0 0 0 0 0 0 0 0 0 0 0 0 .4 0"/><feOffset dx="4.0" dy="4.0" in="blurOut2" result="blurOut3"/><feBlend in="SourceGraphic" in2="blurOut3" mode="normal"/></filter></defs><g><!--MD5=[da547346deef918ea16944ba046651ef]
class Administrator--><rect codeLine="4" fill="#FEFECE" filter="url(#fcnh5idp87nq2)" height="40" id="Administrator" style="stroke:#A80036;stroke-width:1.5;" width="116" x="44.5" y="137"/><ellipse cx="59.5" cy="153" fill="#ADD1B2" rx="11" ry="11" style="stroke:#A80036;stroke-width:1.0;"/><path d="M62.4688,158.6406 Q61.8906,158.9375 61.25,159.0781 Q60.6094,159.2344 59.9063,159.2344 Q57.4063,159.2344 56.0781,157.5938 Q54.7656,155.9375 54.7656,152.8125 Q54.7656,149.6875 56.0781,148.0313 Q57.4063,146.375 59.9063,146.375 Q60.6094,146.375 61.25,146.5313 Q61.9063,146.6875 62.4688,146.9844 L62.4688,149.7031 Q61.8438,149.125 61.25,148.8594 Q60.6563,148.5781 60.0313,148.5781 Q58.6875,148.5781 58,149.6563 Q57.3125,150.7188 57.3125,152.8125 Q57.3125,154.9063 58,155.9844 Q58.6875,157.0469 60.0313,157.0469 Q60.6563,157.0469 61.25,156.7813 Q61.8438,156.5 62.4688,155.9219 L62.4688,158.6406 Z " fill="#000000"/><text fill="#000000" font-family="sans-serif" font-size="12" lengthAdjust="spacing" textLength="84" x="73.5" y="157.1543">Administrator</text><line style="stroke:#A80036;stroke-width:1.5;" x1="45.5" x2="159.5" y1="169" y2="169"/><!--MD5=[7421f545a0d8420c5bec41e74b387d9c]
class Employee--><rect codeLine="6" fill="#FEFECE" filter="url(#fcnh5idp87nq2)" height="40" id="Employee" style="stroke:#A80036;stroke-width:1.5;" width="92" x="120.5" y="254"/><ellipse cx="135.5" cy="270" fill="#ADD1B2" rx="11" ry="11" style="stroke:#A80036;stroke-width:1.0;"/><path d="M138.4688,275.6406 Q137.8906,275.9375 137.25,276.0781 Q136.6094,276.2344 135.9063,276.2344 Q133.4063,276.2344 132.0781,274.5938 Q130.7656,272.9375 130.7656,269.8125 Q130.7656,266.6875 132.0781,265.0313 Q133.4063,263.375 135.9063,263.375 Q136.6094,263.375 137.25,263.5313 Q137.9063,263.6875 138.4688,263.9844 L138.4688,266.7031 Q137.8438,266.125 137.25,265.8594 Q136.6563,265.5781 136.0313,265.5781 Q134.6875,265.5781 134,266.6563 Q133.3125,267.7188 133.3125,269.8125 Q133.3125,271.9063 134,272.9844 Q134.6875,274.0469 136.0313,274.0469 Q136.6563,274.0469 137.25,273.7813 Q137.8438,273.5 138.4688,272.9219 L138.4688,275.6406 Z " fill="#000000"/><text fill="#000000" font-family="sans-serif" font-size="12" lengthAdjust="spacing" textLength="60" x="149.5" y="274.1543">Employee</text><line style="stroke:#A80036;stroke-width:1.5;" x1="121.5" x2="211.5" y1="286" y2="286"/><!--MD5=[02e4b9b7573f1156f41e60aa5b4e25a4]
class Company--><rect codeLine="9" fill="#FEFECE" filter="url(#fcnh5idp87nq2)" height="52.8047" id="Company" style="stroke:#A80036;stroke-width:1.5;" width="89" x="122" y="7"/><ellipse cx="137" cy="23" fill="#ADD1B2" rx="11" ry="11" style="stroke:#A80036;stroke-width:1.0;"/><path d="M139.9688,28.6406 Q139.3906,28.9375 138.75,29.0781 Q138.1094,29.2344 137.4063,29.2344 Q134.9063,29.2344 133.5781,27.5938 Q132.2656,25.9375 132.2656,22.8125 Q132.2656,19.6875 133.5781,18.0313 Q134.9063,16.375 137.4063,16.375 Q138.1094,16.375 138.75,16.5313 Q139.4063,16.6875 139.9688,16.9844 L139.9688,19.7031 Q139.3438,19.125 138.75,18.8594 Q138.1563,18.5781 137.5313,18.5781 Q136.1875,18.5781 135.5,19.6563 Q134.8125,20.7188 134.8125,22.8125 Q134.8125,24.9063 135.5,25.9844 Q136.1875,27.0469 137.5313,27.0469 Q138.1563,27.0469 138.75,26.7813 Q139.3438,26.5 139.9688,25.9219 L139.9688,28.6406 Z " fill="#000000"/><text fill="#000000" font-family="sans-serif" font-size="12" lengthAdjust="spacing" textLength="57" x="151" y="27.1543">Company</text><line style="stroke:#A80036;stroke-width:1.5;" x1="123" x2="210" y1="39" y2="39"/><text fill="#000000" font-family="sans-serif" font-size="11" lengthAdjust="spacing" textLength="70" x="128" y="53.2104">-designation</text><!--MD5=[a059576e163b46f56762f12600c49258]
class Nurse--><rect fill="#FEFECE" filter="url(#fcnh5idp87nq2)" height="40" id="Nurse" style="stroke:#A80036;stroke-width:1.5;" width="69" x="7" y="355"/><ellipse cx="22" cy="371" fill="#ADD1B2" rx="11" ry="11" style="stroke:#A80036;stroke-width:1.0;"/><path d="M24.9688,376.6406 Q24.3906,376.9375 23.75,377.0781 Q23.1094,377.2344 22.4063,377.2344 Q19.9063,377.2344 18.5781,375.5938 Q17.2656,373.9375 17.2656,370.8125 Q17.2656,367.6875 18.5781,366.0313 Q19.9063,364.375 22.4063,364.375 Q23.1094,364.375 23.75,364.5313 Q24.4063,364.6875 24.9688,364.9844 L24.9688,367.7031 Q24.3438,367.125 23.75,366.8594 Q23.1563,366.5781 22.5313,366.5781 Q21.1875,366.5781 20.5,367.6563 Q19.8125,368.7188 19.8125,370.8125 Q19.8125,372.9063 20.5,373.9844 Q21.1875,375.0469 22.5313,375.0469 Q23.1563,375.0469 23.75,374.7813 Q24.3438,374.5 24.9688,373.9219 L24.9688,376.6406 Z " fill="#000000"/><text fill="#000000" font-family="sans-serif" font-size="12" lengthAdjust="spacing" textLength="37" x="36" y="375.1543">Nurse</text><line style="stroke:#A80036;stroke-width:1.5;" x1="8" x2="75" y1="387" y2="387"/><!--MD5=[03960189e81aa2c066c762ffabbee709]
class Receptionist--><rect fill="#FEFECE" filter="url(#fcnh5idp87nq2)" height="40" id="Receptionist" style="stroke:#A80036;stroke-width:1.5;" width="110" x="111.5" y="355"/><ellipse cx="126.5" cy="371" fill="#ADD1B2" rx="11" ry="11" style="stroke:#A80036;stroke-width:1.0;"/><path d="M129.4688,376.6406 Q128.8906,376.9375 128.25,377.0781 Q127.6094,377.2344 126.9063,377.2344 Q124.4063,377.2344 123.0781,375.5938 Q121.7656,373.9375 121.7656,370.8125 Q121.7656,367.6875 123.0781,366.0313 Q124.4063,364.375 126.9063,364.375 Q127.6094,364.375 128.25,364.5313 Q128.9063,364.6875 129.4688,364.9844 L129.4688,367.7031 Q128.8438,367.125 128.25,366.8594 Q127.6563,366.5781 127.0313,366.5781 Q125.6875,366.5781 125,367.6563 Q124.3125,368.7188 124.3125,370.8125 Q124.3125,372.9063 125,373.9844 Q125.6875,375.0469 127.0313,375.0469 Q127.6563,375.0469 128.25,374.7813 Q128.8438,374.5 129.4688,373.9219 L129.4688,376.6406 Z " fill="#000000"/><text fill="#000000" font-family="sans-serif" font-size="12" lengthAdjust="spacing" textLength="78" x="140.5" y="375.1543">Receptionist</text><line style="stroke:#A80036;stroke-width:1.5;" x1="112.5" x2="220.5" y1="387" y2="387"/><!--MD5=[2d935fd2dd068a13da1ae531f9857c4f]
class CenterCoordinator--><rect fill="#FEFECE" filter="url(#fcnh5idp87nq2)" height="40" id="CenterCoordinator" style="stroke:#A80036;stroke-width:1.5;" width="148" x="256.5" y="355"/><ellipse cx="271.5" cy="371" fill="#ADD1B2" rx="11" ry="11" style="stroke:#A80036;stroke-width:1.0;"/><path d="M274.4688,376.6406 Q273.8906,376.9375 273.25,377.0781 Q272.6094,377.2344 271.9063,377.2344 Q269.4063,377.2344 268.0781,375.5938 Q266.7656,373.9375 266.7656,370.8125 Q266.7656,367.6875 268.0781,366.0313 Q269.4063,364.375 271.9063,364.375 Q272.6094,364.375 273.25,364.5313 Q273.9063,364.6875 274.4688,364.9844 L274.4688,367.7031 Q273.8438,367.125 273.25,366.8594 Q272.6563,366.5781 272.0313,366.5781 Q270.6875,366.5781 270,367.6563 Q269.3125,368.7188 269.3125,370.8125 Q269.3125,372.9063 270,373.9844 Q270.6875,375.0469 272.0313,375.0469 Q272.6563,375.0469 273.25,374.7813 Q273.8438,374.5 274.4688,373.9219 L274.4688,376.6406 Z " fill="#000000"/><text fill="#000000" font-family="sans-serif" font-size="12" lengthAdjust="spacing" textLength="116" x="285.5" y="375.1543">CenterCoordinator</text><line style="stroke:#A80036;stroke-width:1.5;" x1="257.5" x2="403.5" y1="387" y2="387"/><!--MD5=[8f7dd94d56b58fc07b233ccd3dd98f8c]
link Administrator to Employee--><path codeLine="13" d="M113.21,177.25 C125.03,198.48 143.92,232.44 155.75,253.69 " fill="none" id="Administrator-Employee" style="stroke:#A80036;stroke-width:1.0;"/><text fill="#000000" font-family="sans-serif" font-size="13" lengthAdjust="spacing" textLength="25" x="139.5" y="220.0669">lists</text><text fill="#000000" font-family="sans-serif" font-size="13" lengthAdjust="spacing" textLength="8" x="107.0972" y="197.1403">1</text><text fill="#000000" font-family="sans-serif" font-size="13" lengthAdjust="spacing" textLength="7" x="144.7422" y="242.954">*</text><!--MD5=[eaea43e34e45c5b9d20b595fc78f1f20]
link Company to Administrator--><path codeLine="15" d="M152.93,60.27 C140.89,83.12 123.58,115.98 112.69,136.65 " fill="none" id="Company-Administrator" style="stroke:#A80036;stroke-width:1.0;"/><polygon fill="#000000" points="139.1695,102.99,145.9856,96.3575,140.7853,93.6177,139.1695,102.99" style="stroke:#000000;stroke-width:1.0;"/><text fill="#000000" font-family="sans-serif" font-size="13" lengthAdjust="spacing" textLength="39" x="150.5" y="103.0669">knows</text><text fill="#000000" font-family="sans-serif" font-size="13" lengthAdjust="spacing" textLength="8" x="141.0866" y="79.8693">1</text><text fill="#000000" font-family="sans-serif" font-size="13" lengthAdjust="spacing" textLength="7" x="107.5716" y="125.9028">*</text><!--MD5=[09366576ee87d48d594df10cacc83f45]
link Company to Employee--><path codeLine="16" d="M184.97,60.07 C190.44,69.09 195.71,79.58 198.5,90 C214.22,148.73 189.44,220.19 175.28,253.79 " fill="none" id="Company-Employee" style="stroke:#A80036;stroke-width:1.0;"/><text fill="#000000" font-family="sans-serif" font-size="13" lengthAdjust="spacing" textLength="39" x="203.5" y="161.5669">knows</text><text fill="#000000" font-family="sans-serif" font-size="13" lengthAdjust="spacing" textLength="8" x="180.3162" y="80.0535">1</text><text fill="#000000" font-family="sans-serif" font-size="13" lengthAdjust="spacing" textLength="7" x="169.765" y="243.0821">*</text><!--MD5=[6716344a46572fc99c27bf4e50ddbd3d]
reverse link Employee to Nurse--><path codeLine="18" d="M126.59,306.61 C106.49,322.53 82.8,341.29 65.53,354.97 " fill="none" id="Employee-backto-Nurse" style="stroke:#A80036;stroke-width:1.0;"/><polygon fill="none" points="122.37,301.02,142.4,294.09,131.07,311.99,122.37,301.02" style="stroke:#A80036;stroke-width:1.0;"/><!--MD5=[bfff716514ca687b645fe473c6e098a4]
reverse link Employee to Receptionist--><path codeLine="19" d="M166.5,314.44 C166.5,328.4 166.5,343.48 166.5,354.97 " fill="none" id="Employee-backto-Receptionist" style="stroke:#A80036;stroke-width:1.0;"/><polygon fill="none" points="159.5,314.09,166.5,294.09,173.5,314.09,159.5,314.09" style="stroke:#A80036;stroke-width:1.0;"/><!--MD5=[98f7f3dc8d9719d04ad14614c4ea123f]
reverse link Employee to CenterCoordinator--><path codeLine="20" d="M215.34,304.48 C242.41,320.83 275.29,340.67 298.98,354.97 " fill="none" id="Employee-backto-CenterCoordinator" style="stroke:#A80036;stroke-width:1.0;"/><polygon fill="none" points="211.63,310.42,198.12,294.09,218.86,298.43,211.63,310.42" style="stroke:#A80036;stroke-width:1.0;"/><!--MD5=[41e674c7c55857a1b12d1b0b1ad6bdf6]
@startuml
hide methods
skinparam classAttributeIconSize 0

class Administrator {}

class Employee {
}

class Company {
  - designation
}

Administrator "1" - - "*" Employee : lists 

Company "1" - - "*" Administrator : knows  >
Company "1" - - "*" Employee : knows 

Employee <|- - Nurse
Employee <|- - Receptionist
Employee <|- - CenterCoordinator

@enduml

PlantUML version 1.2022.0(Tue Jan 11 16:16:42 WET 2022)
(GPL source distribution)
Java Runtime: Java(TM) SE Runtime Environment
JVM: Java HotSpot(TM) 64-Bit Server VM
Default Encoding: UTF-8
Language: en
Country: US
--></g></svg>