<?xml version="1.0" encoding="UTF-8" standalone="no"?><svg xmlns="http://www.w3.org/2000/svg" xmlns:xlink="http://www.w3.org/1999/xlink" contentScriptType="application/ecmascript" contentStyleType="text/css" height="409px" preserveAspectRatio="none" style="width:418px;height:409px;background:#FFFFFF;" version="1.1" viewBox="0 0 418 409" width="418px" zoomAndPan="magnify"><defs><filter height="300%" id="f1lzh27n2fro8i" width="300%" x="-1" y="-1"><feGaussianBlur result="blurOut" stdDeviation="2.0"/><feColorMatrix in="blurOut" result="blurOut2" type="matrix" values="0 0 0 0 0 0 0 0 0 0 0 0 0 0 0 0 0 0 .4 0"/><feOffset dx="4.0" dy="4.0" in="blurOut2" result="blurOut3"/><feBlend in="SourceGraphic" in2="blurOut3" mode="normal"/></filter></defs><g><!--MD5=[da547346deef918ea16944ba046651ef]
class Administrator--><rect codeLine="4" fill="#FEFECE" filter="url(#f1lzh27n2fro8i)" height="40" id="Administrator" style="stroke:#A80036;stroke-width:1.5;" width="116" x="49.5" y="137"/><ellipse cx="64.5" cy="153" fill="#ADD1B2" rx="11" ry="11" style="stroke:#A80036;stroke-width:1.0;"/><path d="M67.4688,158.6406 Q66.8906,158.9375 66.25,159.0781 Q65.6094,159.2344 64.9063,159.2344 Q62.4063,159.2344 61.0781,157.5938 Q59.7656,155.9375 59.7656,152.8125 Q59.7656,149.6875 61.0781,148.0313 Q62.4063,146.375 64.9063,146.375 Q65.6094,146.375 66.25,146.5313 Q66.9063,146.6875 67.4688,146.9844 L67.4688,149.7031 Q66.8438,149.125 66.25,148.8594 Q65.6563,148.5781 65.0313,148.5781 Q63.6875,148.5781 63,149.6563 Q62.3125,150.7188 62.3125,152.8125 Q62.3125,154.9063 63,155.9844 Q63.6875,157.0469 65.0313,157.0469 Q65.6563,157.0469 66.25,156.7813 Q66.8438,156.5 67.4688,155.9219 L67.4688,158.6406 Z " fill="#000000"/><text fill="#000000" font-family="sans-serif" font-size="12" lengthAdjust="spacing" textLength="84" x="78.5" y="157.1543">Administrator</text><line style="stroke:#A80036;stroke-width:1.5;" x1="50.5" x2="164.5" y1="169" y2="169"/><!--MD5=[7421f545a0d8420c5bec41e74b387d9c]
class Employee--><rect codeLine="6" fill="#FEFECE" filter="url(#f1lzh27n2fro8i)" height="40" id="Employee" style="stroke:#A80036;stroke-width:1.5;" width="92" x="139.5" y="254"/><ellipse cx="154.5" cy="270" fill="#ADD1B2" rx="11" ry="11" style="stroke:#A80036;stroke-width:1.0;"/><path d="M157.4688,275.6406 Q156.8906,275.9375 156.25,276.0781 Q155.6094,276.2344 154.9063,276.2344 Q152.4063,276.2344 151.0781,274.5938 Q149.7656,272.9375 149.7656,269.8125 Q149.7656,266.6875 151.0781,265.0313 Q152.4063,263.375 154.9063,263.375 Q155.6094,263.375 156.25,263.5313 Q156.9063,263.6875 157.4688,263.9844 L157.4688,266.7031 Q156.8438,266.125 156.25,265.8594 Q155.6563,265.5781 155.0313,265.5781 Q153.6875,265.5781 153,266.6563 Q152.3125,267.7188 152.3125,269.8125 Q152.3125,271.9063 153,272.9844 Q153.6875,274.0469 155.0313,274.0469 Q155.6563,274.0469 156.25,273.7813 Q156.8438,273.5 157.4688,272.9219 L157.4688,275.6406 Z " fill="#000000"/><text fill="#000000" font-family="sans-serif" font-size="12" lengthAdjust="spacing" textLength="60" x="168.5" y="274.1543">Employee</text><line style="stroke:#A80036;stroke-width:1.5;" x1="140.5" x2="230.5" y1="286" y2="286"/><!--MD5=[02e4b9b7573f1156f41e60aa5b4e25a4]
class Company--><rect codeLine="9" fill="#FEFECE" filter="url(#f1lzh27n2fro8i)" height="52.8047" id="Company" style="stroke:#A80036;stroke-width:1.5;" width="89" x="127" y="7"/><ellipse cx="142" cy="23" fill="#ADD1B2" rx="11" ry="11" style="stroke:#A80036;stroke-width:1.0;"/><path d="M144.9688,28.6406 Q144.3906,28.9375 143.75,29.0781 Q143.1094,29.2344 142.4063,29.2344 Q139.9063,29.2344 138.5781,27.5938 Q137.2656,25.9375 137.2656,22.8125 Q137.2656,19.6875 138.5781,18.0313 Q139.9063,16.375 142.4063,16.375 Q143.1094,16.375 143.75,16.5313 Q144.4063,16.6875 144.9688,16.9844 L144.9688,19.7031 Q144.3438,19.125 143.75,18.8594 Q143.1563,18.5781 142.5313,18.5781 Q141.1875,18.5781 140.5,19.6563 Q139.8125,20.7188 139.8125,22.8125 Q139.8125,24.9063 140.5,25.9844 Q141.1875,27.0469 142.5313,27.0469 Q143.1563,27.0469 143.75,26.7813 Q144.3438,26.5 144.9688,25.9219 L144.9688,28.6406 Z " fill="#000000"/><text fill="#000000" font-family="sans-serif" font-size="12" lengthAdjust="spacing" textLength="57" x="156" y="27.1543">Company</text><line style="stroke:#A80036;stroke-width:1.5;" x1="128" x2="215" y1="39" y2="39"/><text fill="#000000" font-family="sans-serif" font-size="11" lengthAdjust="spacing" textLength="70" x="133" y="53.2104">-designation</text><!--MD5=[a059576e163b46f56762f12600c49258]
class Nurse--><rect fill="#FEFECE" filter="url(#f1lzh27n2fro8i)" height="40" id="Nurse" style="stroke:#A80036;stroke-width:1.5;" width="69" x="7" y="355"/><ellipse cx="22" cy="371" fill="#ADD1B2" rx="11" ry="11" style="stroke:#A80036;stroke-width:1.0;"/><path d="M24.9688,376.6406 Q24.3906,376.9375 23.75,377.0781 Q23.1094,377.2344 22.4063,377.2344 Q19.9063,377.2344 18.5781,375.5938 Q17.2656,373.9375 17.2656,370.8125 Q17.2656,367.6875 18.5781,366.0313 Q19.9063,364.375 22.4063,364.375 Q23.1094,364.375 23.75,364.5313 Q24.4063,364.6875 24.9688,364.9844 L24.9688,367.7031 Q24.3438,367.125 23.75,366.8594 Q23.1563,366.5781 22.5313,366.5781 Q21.1875,366.5781 20.5,367.6563 Q19.8125,368.7188 19.8125,370.8125 Q19.8125,372.9063 20.5,373.9844 Q21.1875,375.0469 22.5313,375.0469 Q23.1563,375.0469 23.75,374.7813 Q24.3438,374.5 24.9688,373.9219 L24.9688,376.6406 Z " fill="#000000"/><text fill="#000000" font-family="sans-serif" font-size="12" lengthAdjust="spacing" textLength="37" x="36" y="375.1543">Nurse</text><line style="stroke:#A80036;stroke-width:1.5;" x1="8" x2="75" y1="387" y2="387"/><!--MD5=[2d935fd2dd068a13da1ae531f9857c4f]
class CenterCoordinator--><rect fill="#FEFECE" filter="url(#f1lzh27n2fro8i)" height="40" id="CenterCoordinator" style="stroke:#A80036;stroke-width:1.5;" width="148" x="111.5" y="355"/><ellipse cx="126.5" cy="371" fill="#ADD1B2" rx="11" ry="11" style="stroke:#A80036;stroke-width:1.0;"/><path d="M129.4688,376.6406 Q128.8906,376.9375 128.25,377.0781 Q127.6094,377.2344 126.9063,377.2344 Q124.4063,377.2344 123.0781,375.5938 Q121.7656,373.9375 121.7656,370.8125 Q121.7656,367.6875 123.0781,366.0313 Q124.4063,364.375 126.9063,364.375 Q127.6094,364.375 128.25,364.5313 Q128.9063,364.6875 129.4688,364.9844 L129.4688,367.7031 Q128.8438,367.125 128.25,366.8594 Q127.6563,366.5781 127.0313,366.5781 Q125.6875,366.5781 125,367.6563 Q124.3125,368.7188 124.3125,370.8125 Q124.3125,372.9063 125,373.9844 Q125.6875,375.0469 127.0313,375.0469 Q127.6563,375.0469 128.25,374.7813 Q128.8438,374.5 129.4688,373.9219 L129.4688,376.6406 Z " fill="#000000"/><text fill="#000000" font-family="sans-serif" font-size="12" lengthAdjust="spacing" textLength="116" x="140.5" y="375.1543">CenterCoordinator</text><line style="stroke:#A80036;stroke-width:1.5;" x1="112.5" x2="258.5" y1="387" y2="387"/><!--MD5=[03960189e81aa2c066c762ffabbee709]
class Receptionist--><rect fill="#FEFECE" filter="url(#f1lzh27n2fro8i)" height="40" id="Receptionist" style="stroke:#A80036;stroke-width:1.5;" width="110" x="294.5" y="355"/><ellipse cx="309.5" cy="371" fill="#ADD1B2" rx="11" ry="11" style="stroke:#A80036;stroke-width:1.0;"/><path d="M312.4688,376.6406 Q311.8906,376.9375 311.25,377.0781 Q310.6094,377.2344 309.9063,377.2344 Q307.4063,377.2344 306.0781,375.5938 Q304.7656,373.9375 304.7656,370.8125 Q304.7656,367.6875 306.0781,366.0313 Q307.4063,364.375 309.9063,364.375 Q310.6094,364.375 311.25,364.5313 Q311.9063,364.6875 312.4688,364.9844 L312.4688,367.7031 Q311.8438,367.125 311.25,366.8594 Q310.6563,366.5781 310.0313,366.5781 Q308.6875,366.5781 308,367.6563 Q307.3125,368.7188 307.3125,370.8125 Q307.3125,372.9063 308,373.9844 Q308.6875,375.0469 310.0313,375.0469 Q310.6563,375.0469 311.25,374.7813 Q311.8438,374.5 312.4688,373.9219 L312.4688,376.6406 Z " fill="#000000"/><text fill="#000000" font-family="sans-serif" font-size="12" lengthAdjust="spacing" textLength="78" x="323.5" y="375.1543">Receptionist</text><line style="stroke:#A80036;stroke-width:1.5;" x1="295.5" x2="403.5" y1="387" y2="387"/><!--MD5=[8f7dd94d56b58fc07b233ccd3dd98f8c]
link Administrator to Employee--><path codeLine="13" d="M89.9,177.04 C79.5,190.69 70.05,209.21 79.5,224 C92.77,244.75 117.32,256.84 139.46,263.82 " fill="none" id="Administrator-Employee" style="stroke:#A80036;stroke-width:1.0;"/><polygon fill="#000000" points="86.9796,219.9082,85.046,210.5963,79.9419,213.5113,86.9796,219.9082" style="stroke:#000000;stroke-width:1.0;"/><text fill="#000000" font-family="sans-serif" font-size="13" lengthAdjust="spacing" textLength="48" x="93.5" y="220.0669">creates</text><text fill="#000000" font-family="sans-serif" font-size="13" lengthAdjust="spacing" textLength="8" x="75.555" y="197.2163">1</text><text fill="#000000" font-family="sans-serif" font-size="13" lengthAdjust="spacing" textLength="7" x="124.5646" y="258.0797">*</text><!--MD5=[8f7dd94d56b58fc07b233ccd3dd98f8c]
link Administrator to Employee--><path codeLine="14" d="M123.7,177.08 C130.97,185.96 139.47,196.79 146.5,207 C156.99,222.24 167.59,240.39 175.08,253.79 " fill="none" id="Administrator-Employee-1" style="stroke:#A80036;stroke-width:1.0;"/><text fill="#000000" font-family="sans-serif" font-size="13" lengthAdjust="spacing" textLength="25" x="158.5" y="220.0669">lists</text><text fill="#000000" font-family="sans-serif" font-size="13" lengthAdjust="spacing" textLength="8" x="119.1313" y="196.9224">1</text><text fill="#000000" font-family="sans-serif" font-size="13" lengthAdjust="spacing" textLength="7" x="164.165" y="243.0821">*</text><!--MD5=[eaea43e34e45c5b9d20b595fc78f1f20]
link Company to Administrator--><path codeLine="16" d="M157.93,60.27 C145.89,83.12 128.58,115.98 117.69,136.65 " fill="none" id="Company-Administrator" style="stroke:#A80036;stroke-width:1.0;"/><polygon fill="#000000" points="144.1695,102.99,150.9856,96.3575,145.7853,93.6177,144.1695,102.99" style="stroke:#000000;stroke-width:1.0;"/><text fill="#000000" font-family="sans-serif" font-size="13" lengthAdjust="spacing" textLength="39" x="155.5" y="103.0669">knows</text><text fill="#000000" font-family="sans-serif" font-size="13" lengthAdjust="spacing" textLength="8" x="146.0866" y="79.8693">1</text><text fill="#000000" font-family="sans-serif" font-size="13" lengthAdjust="spacing" textLength="7" x="112.5716" y="125.9028">*</text><!--MD5=[09366576ee87d48d594df10cacc83f45]
link Company to Employee--><path codeLine="17" d="M189.97,60.07 C195.44,69.09 200.71,79.58 203.5,90 C219.1,148.29 201.85,220.25 191.76,253.93 " fill="none" id="Company-Employee" style="stroke:#A80036;stroke-width:1.0;"/><text fill="#000000" font-family="sans-serif" font-size="13" lengthAdjust="spacing" textLength="39" x="210.5" y="161.5669">knows</text><text fill="#000000" font-family="sans-serif" font-size="13" lengthAdjust="spacing" textLength="8" x="185.3162" y="80.0535">1</text><text fill="#000000" font-family="sans-serif" font-size="13" lengthAdjust="spacing" textLength="7" x="185.5707" y="242.9177">*</text><!--MD5=[6716344a46572fc99c27bf4e50ddbd3d]
reverse link Employee to Nurse--><path codeLine="19" d="M141.25,305.42 C117.74,321.58 89.58,340.95 69.18,354.97 " fill="none" id="Employee-backto-Nurse" style="stroke:#A80036;stroke-width:1.0;"/><polygon fill="none" points="137.29,299.65,157.74,294.09,145.22,311.19,137.29,299.65" style="stroke:#A80036;stroke-width:1.0;"/><!--MD5=[98f7f3dc8d9719d04ad14614c4ea123f]
reverse link Employee to CenterCoordinator--><path codeLine="20" d="M185.5,314.44 C185.5,328.4 185.5,343.48 185.5,354.97 " fill="none" id="Employee-backto-CenterCoordinator" style="stroke:#A80036;stroke-width:1.0;"/><polygon fill="none" points="178.5,314.09,185.5,294.09,192.5,314.09,178.5,314.09" style="stroke:#A80036;stroke-width:1.0;"/><!--MD5=[bfff716514ca687b645fe473c6e098a4]
reverse link Employee to Receptionist--><path codeLine="21" d="M234.34,304.48 C261.41,320.83 294.29,340.67 317.98,354.97 " fill="none" id="Employee-backto-Receptionist" style="stroke:#A80036;stroke-width:1.0;"/><polygon fill="none" points="230.63,310.42,217.12,294.09,237.86,298.43,230.63,310.42" style="stroke:#A80036;stroke-width:1.0;"/><!--MD5=[bd682526847f2393a4e4c9a67b46a780]
@startuml
hide methods
skinparam classAttributeIconSize 0

class Administrator {}

class Employee {
}

class Company {
  - designation
}

Administrator "1" - - "*" Employee : creates >
Administrator "1" - - "*" Employee : lists 

Company "1" - - "*" Administrator : knows  >
Company "1" - - "*" Employee : knows 

Employee <|- - Nurse
Employee <|- - CenterCoordinator
Employee <|- - Receptionist

@enduml

PlantUML version 1.2022.0(Tue Jan 11 16:16:42 WET 2022)
(GPL source distribution)
Java Runtime: OpenJDK Runtime Environment
JVM: OpenJDK 64-Bit Server VM
Default Encoding: UTF-8
Language: en
Country: US
--></g></svg>