<?xml version="1.0" encoding="UTF-8" standalone="no"?><svg xmlns="http://www.w3.org/2000/svg" xmlns:xlink="http://www.w3.org/1999/xlink" contentScriptType="application/ecmascript" contentStyleType="text/css" height="320px" preserveAspectRatio="none" style="width:226px;height:320px;background:#FFFFFF;" version="1.1" viewBox="0 0 226 320" width="226px" zoomAndPan="magnify"><defs><filter height="300%" id="f11xvgsqwpp6a7" width="300%" x="-1" y="-1"><feGaussianBlur result="blurOut" stdDeviation="2.0"/><feColorMatrix in="blurOut" result="blurOut2" type="matrix" values="0 0 0 0 0 0 0 0 0 0 0 0 0 0 0 0 0 0 .4 0"/><feOffset dx="4.0" dy="4.0" in="blurOut2" result="blurOut3"/><feBlend in="SourceGraphic" in2="blurOut3" mode="normal"/></filter></defs><g><!--MD5=[da547346deef918ea16944ba046651ef]
class Administrator--><rect codeLine="4" fill="#FEFECE" filter="url(#f11xvgsqwpp6a7)" height="40" id="Administrator" style="stroke:#A80036;stroke-width:1.5;" width="116" x="7" y="137"/><ellipse cx="22" cy="153" fill="#ADD1B2" rx="11" ry="11" style="stroke:#A80036;stroke-width:1.0;"/><path d="M24.9688,158.6406 Q24.3906,158.9375 23.75,159.0781 Q23.1094,159.2344 22.4063,159.2344 Q19.9063,159.2344 18.5781,157.5938 Q17.2656,155.9375 17.2656,152.8125 Q17.2656,149.6875 18.5781,148.0313 Q19.9063,146.375 22.4063,146.375 Q23.1094,146.375 23.75,146.5313 Q24.4063,146.6875 24.9688,146.9844 L24.9688,149.7031 Q24.3438,149.125 23.75,148.8594 Q23.1563,148.5781 22.5313,148.5781 Q21.1875,148.5781 20.5,149.6563 Q19.8125,150.7188 19.8125,152.8125 Q19.8125,154.9063 20.5,155.9844 Q21.1875,157.0469 22.5313,157.0469 Q23.1563,157.0469 23.75,156.7813 Q24.3438,156.5 24.9688,155.9219 L24.9688,158.6406 Z " fill="#000000"/><text fill="#000000" font-family="sans-serif" font-size="12" lengthAdjust="spacing" textLength="84" x="36" y="157.1543">Administrator</text><line style="stroke:#A80036;stroke-width:1.5;" x1="8" x2="122" y1="169" y2="169"/><!--MD5=[7421f545a0d8420c5bec41e74b387d9c]
class Employee--><rect codeLine="6" fill="#FEFECE" filter="url(#f11xvgsqwpp6a7)" height="52.8047" id="Employee" style="stroke:#A80036;stroke-width:1.5;" width="92" x="84" y="254"/><ellipse cx="99" cy="270" fill="#ADD1B2" rx="11" ry="11" style="stroke:#A80036;stroke-width:1.0;"/><path d="M101.9688,275.6406 Q101.3906,275.9375 100.75,276.0781 Q100.1094,276.2344 99.4063,276.2344 Q96.9063,276.2344 95.5781,274.5938 Q94.2656,272.9375 94.2656,269.8125 Q94.2656,266.6875 95.5781,265.0313 Q96.9063,263.375 99.4063,263.375 Q100.1094,263.375 100.75,263.5313 Q101.4063,263.6875 101.9688,263.9844 L101.9688,266.7031 Q101.3438,266.125 100.75,265.8594 Q100.1563,265.5781 99.5313,265.5781 Q98.1875,265.5781 97.5,266.6563 Q96.8125,267.7188 96.8125,269.8125 Q96.8125,271.9063 97.5,272.9844 Q98.1875,274.0469 99.5313,274.0469 Q100.1563,274.0469 100.75,273.7813 Q101.3438,273.5 101.9688,272.9219 L101.9688,275.6406 Z " fill="#000000"/><text fill="#000000" font-family="sans-serif" font-size="12" lengthAdjust="spacing" textLength="60" x="113" y="274.1543">Employee</text><line style="stroke:#A80036;stroke-width:1.5;" x1="85" x2="175" y1="286" y2="286"/><text fill="#000000" font-family="sans-serif" font-size="11" lengthAdjust="spacing" textLength="26" x="90" y="300.2104">-role</text><!--MD5=[02e4b9b7573f1156f41e60aa5b4e25a4]
class Company--><rect codeLine="10" fill="#FEFECE" filter="url(#f11xvgsqwpp6a7)" height="52.8047" id="Company" style="stroke:#A80036;stroke-width:1.5;" width="89" x="84.5" y="7"/><ellipse cx="99.5" cy="23" fill="#ADD1B2" rx="11" ry="11" style="stroke:#A80036;stroke-width:1.0;"/><path d="M102.4688,28.6406 Q101.8906,28.9375 101.25,29.0781 Q100.6094,29.2344 99.9063,29.2344 Q97.4063,29.2344 96.0781,27.5938 Q94.7656,25.9375 94.7656,22.8125 Q94.7656,19.6875 96.0781,18.0313 Q97.4063,16.375 99.9063,16.375 Q100.6094,16.375 101.25,16.5313 Q101.9063,16.6875 102.4688,16.9844 L102.4688,19.7031 Q101.8438,19.125 101.25,18.8594 Q100.6563,18.5781 100.0313,18.5781 Q98.6875,18.5781 98,19.6563 Q97.3125,20.7188 97.3125,22.8125 Q97.3125,24.9063 98,25.9844 Q98.6875,27.0469 100.0313,27.0469 Q100.6563,27.0469 101.25,26.7813 Q101.8438,26.5 102.4688,25.9219 L102.4688,28.6406 Z " fill="#000000"/><text fill="#000000" font-family="sans-serif" font-size="12" lengthAdjust="spacing" textLength="57" x="113.5" y="27.1543">Company</text><line style="stroke:#A80036;stroke-width:1.5;" x1="85.5" x2="172.5" y1="39" y2="39"/><text fill="#000000" font-family="sans-serif" font-size="11" lengthAdjust="spacing" textLength="70" x="90.5" y="53.2104">-designation</text><!--MD5=[8f7dd94d56b58fc07b233ccd3dd98f8c]
link Administrator to Employee--><path codeLine="14" d="M40.46,177.28 C26.85,190.4 14.43,208.19 24,224 C37.07,245.59 61.61,259.19 83.79,267.52 " fill="none" id="Administrator-Employee" style="stroke:#A80036;stroke-width:1.0;"/><polygon fill="#000000" points="31.1643,220.0737,29.8984,210.6478,24.5997,213.192,31.1643,220.0737" style="stroke:#000000;stroke-width:1.0;"/><text fill="#000000" font-family="sans-serif" font-size="13" lengthAdjust="spacing" textLength="48" x="38" y="220.0669">creates</text><text fill="#000000" font-family="sans-serif" font-size="13" lengthAdjust="spacing" textLength="8" x="24.4331" y="197.1787">1</text><text fill="#000000" font-family="sans-serif" font-size="13" lengthAdjust="spacing" textLength="7" x="68.8675" y="261.349">*</text><!--MD5=[8f7dd94d56b58fc07b233ccd3dd98f8c]
link Administrator to Employee--><path codeLine="15" d="M75.3,177.25 C86.4,198 104.11,231.1 116.36,254 " fill="none" id="Administrator-Employee-1" style="stroke:#A80036;stroke-width:1.0;"/><polygon fill="#000000" points="106.3586,219.9751,104.6832,210.6133,99.5005,213.386,106.3586,219.9751" style="stroke:#000000;stroke-width:1.0;"/><text fill="#000000" font-family="sans-serif" font-size="13" lengthAdjust="spacing" textLength="25" x="113" y="220.0669">lists</text><text fill="#000000" font-family="sans-serif" font-size="13" lengthAdjust="spacing" textLength="8" x="69.0719" y="197.1403">1</text><text fill="#000000" font-family="sans-serif" font-size="13" lengthAdjust="spacing" textLength="7" x="105.1821" y="242.8194">*</text><!--MD5=[eaea43e34e45c5b9d20b595fc78f1f20]
link Company to Administrator--><path codeLine="17" d="M115.43,60.27 C103.39,83.12 86.08,115.98 75.19,136.65 " fill="none" id="Company-Administrator" style="stroke:#A80036;stroke-width:1.0;"/><polygon fill="#000000" points="100.6695,102.99,107.4856,96.3575,102.2853,93.6177,100.6695,102.99" style="stroke:#000000;stroke-width:1.0;"/><text fill="#000000" font-family="sans-serif" font-size="13" lengthAdjust="spacing" textLength="39" x="112" y="103.0669">knows</text><text fill="#000000" font-family="sans-serif" font-size="13" lengthAdjust="spacing" textLength="8" x="103.5866" y="79.8693">1</text><text fill="#000000" font-family="sans-serif" font-size="13" lengthAdjust="spacing" textLength="7" x="70.0716" y="125.9028">*</text><!--MD5=[09366576ee87d48d594df10cacc83f45]
link Company to Employee--><path codeLine="18" d="M146.9,60.14 C152.2,69.16 157.3,79.64 160,90 C174.98,147.54 154.48,216.97 140.7,253.73 " fill="none" id="Company-Employee" style="stroke:#A80036;stroke-width:1.0;"/><polygon fill="#000000" points="169.8399,162.0638,173.0669,153.1175,167.1921,152.9293,169.8399,162.0638" style="stroke:#000000;stroke-width:1.0;"/><text fill="#000000" font-family="sans-serif" font-size="13" lengthAdjust="spacing" textLength="39" x="179" y="161.5669">knows</text><text fill="#000000" font-family="sans-serif" font-size="13" lengthAdjust="spacing" textLength="8" x="141.9406" y="79.7109">1</text><text fill="#000000" font-family="sans-serif" font-size="13" lengthAdjust="spacing" textLength="7" x="135.365" y="242.9099">*</text><!--MD5=[c64efdbe052c9911d4629db91eb3eec2]
@startuml
hide methods
skinparam classAttributeIconSize 0

class Administrator {}

class Employee {
  - role
}

class Company {
  - designation
}

Administrator "1" - - "*" Employee : creates >
Administrator "1" - - "*" Employee : lists >

Company "1" - - "*" Administrator : knows >
Company "1" - - "*" Employee : knows >

@enduml

PlantUML version 1.2022.0(Tue Jan 11 16:16:42 WET 2022)
(GPL source distribution)
Java Runtime: Java(TM) SE Runtime Environment
JVM: Java HotSpot(TM) 64-Bit Server VM
Default Encoding: UTF-8
Language: en
Country: US
--></g></svg>