<?xml version="1.0" encoding="UTF-8" standalone="no"?><svg xmlns="http://www.w3.org/2000/svg" xmlns:xlink="http://www.w3.org/1999/xlink" contentScriptType="application/ecmascript" contentStyleType="text/css" height="450px" preserveAspectRatio="none" style="width:291px;height:450px;background:#FFFFFF;" version="1.1" viewBox="0 0 291 450" width="291px" zoomAndPan="magnify"><defs><filter height="300%" id="fi8baogf0dqm7" width="300%" x="-1" y="-1"><feGaussianBlur result="blurOut" stdDeviation="2.0"/><feColorMatrix in="blurOut" result="blurOut2" type="matrix" values="0 0 0 0 0 0 0 0 0 0 0 0 0 0 0 0 0 0 .4 0"/><feOffset dx="4.0" dy="4.0" in="blurOut2" result="blurOut3"/><feBlend in="SourceGraphic" in2="blurOut3" mode="normal"/></filter></defs><g><!--MD5=[da547346deef918ea16944ba046651ef]
class Administrator--><rect codeLine="4" fill="#FEFECE" filter="url(#fi8baogf0dqm7)" height="40" id="Administrator" style="stroke:#A80036;stroke-width:1.5;" width="116" x="7" y="137"/><ellipse cx="22" cy="153" fill="#ADD1B2" rx="11" ry="11" style="stroke:#A80036;stroke-width:1.0;"/><path d="M24.9688,158.6406 Q24.3906,158.9375 23.75,159.0781 Q23.1094,159.2344 22.4063,159.2344 Q19.9063,159.2344 18.5781,157.5938 Q17.2656,155.9375 17.2656,152.8125 Q17.2656,149.6875 18.5781,148.0313 Q19.9063,146.375 22.4063,146.375 Q23.1094,146.375 23.75,146.5313 Q24.4063,146.6875 24.9688,146.9844 L24.9688,149.7031 Q24.3438,149.125 23.75,148.8594 Q23.1563,148.5781 22.5313,148.5781 Q21.1875,148.5781 20.5,149.6563 Q19.8125,150.7188 19.8125,152.8125 Q19.8125,154.9063 20.5,155.9844 Q21.1875,157.0469 22.5313,157.0469 Q23.1563,157.0469 23.75,156.7813 Q24.3438,156.5 24.9688,155.9219 L24.9688,158.6406 Z " fill="#000000"/><text fill="#000000" font-family="sans-serif" font-size="12" lengthAdjust="spacing" textLength="84" x="36" y="157.1543">Administrator</text><line style="stroke:#A80036;stroke-width:1.5;" x1="8" x2="122" y1="169" y2="169"/><!--MD5=[7421f545a0d8420c5bec41e74b387d9c]
class Employee--><rect codeLine="6" fill="#FEFECE" filter="url(#fi8baogf0dqm7)" height="40" id="Employee" style="stroke:#A80036;stroke-width:1.5;" width="92" x="120" y="254"/><ellipse cx="135" cy="270" fill="#ADD1B2" rx="11" ry="11" style="stroke:#A80036;stroke-width:1.0;"/><path d="M137.9688,275.6406 Q137.3906,275.9375 136.75,276.0781 Q136.1094,276.2344 135.4063,276.2344 Q132.9063,276.2344 131.5781,274.5938 Q130.2656,272.9375 130.2656,269.8125 Q130.2656,266.6875 131.5781,265.0313 Q132.9063,263.375 135.4063,263.375 Q136.1094,263.375 136.75,263.5313 Q137.4063,263.6875 137.9688,263.9844 L137.9688,266.7031 Q137.3438,266.125 136.75,265.8594 Q136.1563,265.5781 135.5313,265.5781 Q134.1875,265.5781 133.5,266.6563 Q132.8125,267.7188 132.8125,269.8125 Q132.8125,271.9063 133.5,272.9844 Q134.1875,274.0469 135.5313,274.0469 Q136.1563,274.0469 136.75,273.7813 Q137.3438,273.5 137.9688,272.9219 L137.9688,275.6406 Z " fill="#000000"/><text fill="#000000" font-family="sans-serif" font-size="12" lengthAdjust="spacing" textLength="60" x="149" y="274.1543">Employee</text><line style="stroke:#A80036;stroke-width:1.5;" x1="121" x2="211" y1="286" y2="286"/><!--MD5=[02e4b9b7573f1156f41e60aa5b4e25a4]
class Company--><rect codeLine="9" fill="#FEFECE" filter="url(#fi8baogf0dqm7)" height="52.8047" id="Company" style="stroke:#A80036;stroke-width:1.5;" width="89" x="148.5" y="7"/><ellipse cx="163.5" cy="23" fill="#ADD1B2" rx="11" ry="11" style="stroke:#A80036;stroke-width:1.0;"/><path d="M166.4688,28.6406 Q165.8906,28.9375 165.25,29.0781 Q164.6094,29.2344 163.9063,29.2344 Q161.4063,29.2344 160.0781,27.5938 Q158.7656,25.9375 158.7656,22.8125 Q158.7656,19.6875 160.0781,18.0313 Q161.4063,16.375 163.9063,16.375 Q164.6094,16.375 165.25,16.5313 Q165.9063,16.6875 166.4688,16.9844 L166.4688,19.7031 Q165.8438,19.125 165.25,18.8594 Q164.6563,18.5781 164.0313,18.5781 Q162.6875,18.5781 162,19.6563 Q161.3125,20.7188 161.3125,22.8125 Q161.3125,24.9063 162,25.9844 Q162.6875,27.0469 164.0313,27.0469 Q164.6563,27.0469 165.25,26.7813 Q165.8438,26.5 166.4688,25.9219 L166.4688,28.6406 Z " fill="#000000"/><text fill="#000000" font-family="sans-serif" font-size="12" lengthAdjust="spacing" textLength="57" x="177.5" y="27.1543">Company</text><line style="stroke:#A80036;stroke-width:1.5;" x1="149.5" x2="236.5" y1="39" y2="39"/><text fill="#000000" font-family="sans-serif" font-size="11" lengthAdjust="spacing" textLength="70" x="154.5" y="53.2104">-designation</text><!--MD5=[a3638c1e5b65d287ecad7f06f5c0f212]
class Role--><rect codeLine="13" fill="#FEFECE" filter="url(#fi8baogf0dqm7)" height="65.6094" id="Role" style="stroke:#A80036;stroke-width:1.5;" width="79" x="198.5" y="371"/><ellipse cx="222.5" cy="387" fill="#ADD1B2" rx="11" ry="11" style="stroke:#A80036;stroke-width:1.0;"/><path d="M225.4688,392.6406 Q224.8906,392.9375 224.25,393.0781 Q223.6094,393.2344 222.9063,393.2344 Q220.4063,393.2344 219.0781,391.5938 Q217.7656,389.9375 217.7656,386.8125 Q217.7656,383.6875 219.0781,382.0313 Q220.4063,380.375 222.9063,380.375 Q223.6094,380.375 224.25,380.5313 Q224.9063,380.6875 225.4688,380.9844 L225.4688,383.7031 Q224.8438,383.125 224.25,382.8594 Q223.6563,382.5781 223.0313,382.5781 Q221.6875,382.5781 221,383.6563 Q220.3125,384.7188 220.3125,386.8125 Q220.3125,388.9063 221,389.9844 Q221.6875,391.0469 223.0313,391.0469 Q223.6563,391.0469 224.25,390.7813 Q224.8438,390.5 225.4688,389.9219 L225.4688,392.6406 Z " fill="#000000"/><text fill="#000000" font-family="sans-serif" font-size="12" lengthAdjust="spacing" textLength="27" x="238.5" y="391.1543">Role</text><line style="stroke:#A80036;stroke-width:1.5;" x1="199.5" x2="276.5" y1="403" y2="403"/><text fill="#000000" font-family="sans-serif" font-size="11" lengthAdjust="spacing" textLength="14" x="204.5" y="417.2104">-id</text><text fill="#000000" font-family="sans-serif" font-size="11" lengthAdjust="spacing" textLength="67" x="204.5" y="430.0151">-description</text><!--MD5=[8f7dd94d56b58fc07b233ccd3dd98f8c]
link Administrator to Employee--><path codeLine="18" d="M47.09,177.24 C36.54,191 27.03,209.55 37,224 C55.5,250.82 90.75,262.97 119.73,268.47 " fill="none" id="Administrator-Employee" style="stroke:#A80036;stroke-width:1.0;"/><polygon fill="#000000" points="45.1145,219.4779,41.7795,210.5713,37.1812,214.2326,45.1145,219.4779" style="stroke:#000000;stroke-width:1.0;"/><text fill="#000000" font-family="sans-serif" font-size="13" lengthAdjust="spacing" textLength="48" x="51" y="220.0669">creates</text><text fill="#000000" font-family="sans-serif" font-size="13" lengthAdjust="spacing" textLength="8" x="32.9278" y="197.1274">1</text><text fill="#000000" font-family="sans-serif" font-size="13" lengthAdjust="spacing" textLength="7" x="105.109" y="263.5518">*</text><!--MD5=[8f7dd94d56b58fc07b233ccd3dd98f8c]
link Administrator to Employee--><path codeLine="19" d="M81.91,177.25 C100.55,198.48 130.37,232.44 149.04,253.69 " fill="none" id="Administrator-Employee-1" style="stroke:#A80036;stroke-width:1.0;"/><text fill="#000000" font-family="sans-serif" font-size="13" lengthAdjust="spacing" textLength="25" x="123" y="220.0669">lists</text><text fill="#000000" font-family="sans-serif" font-size="13" lengthAdjust="spacing" textLength="8" x="77.5409" y="197.1403">1</text><text fill="#000000" font-family="sans-serif" font-size="13" lengthAdjust="spacing" textLength="7" x="136.2856" y="242.954">*</text><!--MD5=[eaea43e34e45c5b9d20b595fc78f1f20]
link Company to Administrator--><path codeLine="21" d="M150.26,60.26 C137.58,68.9 124.12,79.13 113,90 C98.62,104.07 85.42,122.84 76.52,136.76 " fill="none" id="Company-Administrator" style="stroke:#A80036;stroke-width:1.0;"/><polygon fill="#000000" points="114.53,102.1663,122.9232,97.6937,118.6913,93.6144,114.53,102.1663" style="stroke:#000000;stroke-width:1.0;"/><text fill="#000000" font-family="sans-serif" font-size="13" lengthAdjust="spacing" textLength="39" x="127" y="103.0669">knows</text><text fill="#000000" font-family="sans-serif" font-size="13" lengthAdjust="spacing" textLength="8" x="132.6199" y="79.4269">1</text><text fill="#000000" font-family="sans-serif" font-size="13" lengthAdjust="spacing" textLength="7" x="71.7756" y="126.0437">*</text><!--MD5=[09366576ee87d48d594df10cacc83f45]
link Company to Employee--><path codeLine="22" d="M190.11,60.02 C184.67,108.09 173.01,211.04 168.18,253.79 " fill="none" id="Company-Employee" style="stroke:#A80036;stroke-width:1.0;"/><text fill="#000000" font-family="sans-serif" font-size="13" lengthAdjust="spacing" textLength="39" x="182" y="161.5669">knows</text><text fill="#000000" font-family="sans-serif" font-size="13" lengthAdjust="spacing" textLength="8" x="180.5167" y="79.992">1</text><text fill="#000000" font-family="sans-serif" font-size="13" lengthAdjust="spacing" textLength="7" x="160.8088" y="243.0821">*</text><!--MD5=[ffab42d7305e6830f0674a21f59219d7]
link Employee to Role--><path codeLine="24" d="M176.78,294.16 C188.16,314.39 206.29,346.62 219.87,370.77 " fill="none" id="Employee-Role" style="stroke:#A80036;stroke-width:1.0;"/><text fill="#000000" font-family="sans-serif" font-size="13" lengthAdjust="spacing" textLength="23" x="203" y="337.0669">has</text><text fill="#000000" font-family="sans-serif" font-size="13" lengthAdjust="spacing" textLength="7" x="171.8275" y="314.0249">*</text><text fill="#000000" font-family="sans-serif" font-size="13" lengthAdjust="spacing" textLength="8" x="207.5132" y="359.8697">1</text><!--MD5=[cd331ae55148281aa750447c4ddc276b]
link Company to Role--><path codeLine="25" d="M204.94,60.4 C213.68,80.75 224.87,110.05 230,137 C245.82,220.06 243.11,320.29 240.28,370.71 " fill="none" id="Company-Role" style="stroke:#A80036;stroke-width:1.0;"/><text fill="#000000" font-family="sans-serif" font-size="13" lengthAdjust="spacing" textLength="39" x="241" y="220.0669">knows</text><text fill="#000000" font-family="sans-serif" font-size="13" lengthAdjust="spacing" textLength="8" x="198.6769" y="80.0278">1</text><text fill="#000000" font-family="sans-serif" font-size="13" lengthAdjust="spacing" textLength="7" x="233.0474" y="360.0512">*</text><!--MD5=[b7fe42723e5e9518f1cdc0b1f3f44eb7]
@startuml
hide methods
skinparam classAttributeIconSize 0

class Administrator {}

class Employee {
}

class Company {
  - designation
}

class Role {
  - id
  - description
}

Administrator "1" - - "*" Employee : creates >
Administrator "1" - - "*" Employee : lists 

Company "1" - - "*" Administrator : knows  >
Company "1" - - "*" Employee : knows 

Employee "*" - - "1" Role : has
Company "1" - - "*" Role : knows

@enduml

PlantUML version 1.2022.0(Tue Jan 11 16:16:42 WET 2022)
(GPL source distribution)
Java Runtime: Java(TM) SE Runtime Environment
JVM: Java HotSpot(TM) 64-Bit Server VM
Default Encoding: UTF-8
Language: en
Country: US
--></g></svg>