<?xml version="1.0" encoding="UTF-8" standalone="no"?><svg xmlns="http://www.w3.org/2000/svg" xmlns:xlink="http://www.w3.org/1999/xlink" contentScriptType="application/ecmascript" contentStyleType="text/css" height="788px" preserveAspectRatio="none" style="width:1594px;height:788px;background:#FFFFFF;" version="1.1" viewBox="0 0 1594 788" width="1594px" zoomAndPan="magnify"><defs><filter height="300%" id="frpe49jd55kcy" width="300%" x="-1" y="-1"><feGaussianBlur result="blurOut" stdDeviation="2.0"/><feColorMatrix in="blurOut" result="blurOut2" type="matrix" values="0 0 0 0 0 0 0 0 0 0 0 0 0 0 0 0 0 0 .4 0"/><feOffset dx="4.0" dy="4.0" in="blurOut2" result="blurOut3"/><feBlend in="SourceGraphic" in2="blurOut3" mode="normal"/></filter></defs><g><rect fill="#FFFFFF" filter="url(#frpe49jd55kcy)" height="318.7188" style="stroke:#A80036;stroke-width:1.0;" width="10" x="92.5" y="373.8438"/><rect fill="#FFFFFF" filter="url(#frpe49jd55kcy)" height="592.9531" style="stroke:#A80036;stroke-width:1.0;" width="10" x="200.5" y="99.6094"/><rect fill="#FFFFFF" filter="url(#frpe49jd55kcy)" height="347.5859" style="stroke:#A80036;stroke-width:1.0;" width="10" x="367.5" y="208.9219"/><rect fill="#FFFFFF" filter="url(#frpe49jd55kcy)" height="90.7031" style="stroke:#A80036;stroke-width:1.0;" width="10" x="367.5" y="586.8594"/><rect fill="#FFFFFF" filter="url(#frpe49jd55kcy)" height="30" style="stroke:#A80036;stroke-width:1.0;" width="10" x="546.5" y="239.2734"/><rect fill="#FFFFFF" filter="url(#frpe49jd55kcy)" height="30" style="stroke:#A80036;stroke-width:1.0;" width="10" x="755" y="410.4531"/><rect fill="#FFFFFF" filter="url(#frpe49jd55kcy)" height="60.3516" style="stroke:#A80036;stroke-width:1.0;" width="10" x="755" y="617.2109"/><rect fill="#FFFFFF" filter="url(#frpe49jd55kcy)" height="30" style="stroke:#A80036;stroke-width:1.0;" width="10" x="982.5" y="496.1563"/><rect fill="#FFFFFF" filter="url(#frpe49jd55kcy)" height="30" style="stroke:#A80036;stroke-width:1.0;" width="10" x="982.5" y="647.5625"/><rect fill="#FFFFFF" filter="url(#frpe49jd55kcy)" height="230.1094" style="stroke:#000000;stroke-width:2.0;" width="1043.5" x="21" y="455.4531"/><line style="stroke:#A80036;stroke-width:1.0;stroke-dasharray:5.0,5.0;" x1="97" x2="97" y1="89.6094" y2="702.5625"/><line style="stroke:#A80036;stroke-width:1.0;stroke-dasharray:5.0,5.0;" x1="205" x2="205" y1="89.6094" y2="702.5625"/><line style="stroke:#A80036;stroke-width:1.0;stroke-dasharray:5.0,5.0;" x1="372" x2="372" y1="132.9141" y2="702.5625"/><line style="stroke:#A80036;stroke-width:1.0;stroke-dasharray:5.0,5.0;" x1="551" x2="551" y1="89.6094" y2="702.5625"/><line style="stroke:#A80036;stroke-width:1.0;stroke-dasharray:5.0,5.0;" x1="759.5" x2="759.5" y1="374.7969" y2="702.5625"/><line style="stroke:#A80036;stroke-width:1.0;stroke-dasharray:5.0,5.0;" x1="987.5" x2="987.5" y1="319.3828" y2="702.5625"/><line style="stroke:#A80036;stroke-width:1.0;stroke-dasharray:5.0,5.0;" x1="1105.5" x2="1105.5" y1="89.6094" y2="702.5625"/><line style="stroke:#A80036;stroke-width:1.0;stroke-dasharray:5.0,5.0;" x1="1270.5" x2="1270.5" y1="89.6094" y2="702.5625"/><line style="stroke:#A80036;stroke-width:1.0;stroke-dasharray:5.0,5.0;" x1="1489.5" x2="1489.5" y1="89.6094" y2="702.5625"/><text fill="#000000" font-family="sans-serif" font-size="14" lengthAdjust="spacing" textLength="127" x="31" y="86.5332">Receptionist / Nurse</text><ellipse cx="97.5" cy="15" fill="#FEFECE" filter="url(#frpe49jd55kcy)" rx="8" ry="8" style="stroke:#A80036;stroke-width:2.0;"/><path d="M97.5,23 L97.5,50 M84.5,31 L110.5,31 M97.5,50 L84.5,65 M97.5,50 L110.5,65 " fill="none" filter="url(#frpe49jd55kcy)" style="stroke:#A80036;stroke-width:2.0;"/><text fill="#000000" font-family="sans-serif" font-size="14" lengthAdjust="spacing" textLength="127" x="31" y="716.0957">Receptionist / Nurse</text><ellipse cx="97.5" cy="729.1719" fill="#FEFECE" filter="url(#frpe49jd55kcy)" rx="8" ry="8" style="stroke:#A80036;stroke-width:2.0;"/><path d="M97.5,737.1719 L97.5,764.1719 M84.5,745.1719 L110.5,745.1719 M97.5,764.1719 L84.5,779.1719 M97.5,764.1719 L110.5,779.1719 " fill="none" filter="url(#frpe49jd55kcy)" style="stroke:#A80036;stroke-width:2.0;"/><rect fill="#FEFECE" filter="url(#frpe49jd55kcy)" height="31.6094" style="stroke:#A80036;stroke-width:1.5;" width="59" x="174" y="53"/><text fill="#000000" font-family="sans-serif" font-size="14" lengthAdjust="spacing" textLength="45" x="181" y="74.5332">:AuthUI</text><rect fill="#FEFECE" filter="url(#frpe49jd55kcy)" height="31.6094" style="stroke:#A80036;stroke-width:1.5;" width="59" x="174" y="701.5625"/><text fill="#000000" font-family="sans-serif" font-size="14" lengthAdjust="spacing" textLength="45" x="181" y="723.0957">:AuthUI</text><rect fill="#FEFECE" filter="url(#frpe49jd55kcy)" height="31.6094" style="stroke:#A80036;stroke-width:1.5;" width="247" x="247" y="701.5625"/><text fill="#000000" font-family="sans-serif" font-size="14" lengthAdjust="spacing" textLength="233" x="254" y="723.0957">:SelectEmployeeVaccinationCenterUI</text><rect fill="#FEFECE" filter="url(#frpe49jd55kcy)" height="31.6094" style="stroke:#A80036;stroke-width:1.5;" width="43" x="528" y="53"/><text fill="#000000" font-family="sans-serif" font-size="14" lengthAdjust="spacing" textLength="29" x="535" y="74.5332">:App</text><rect fill="#FEFECE" filter="url(#frpe49jd55kcy)" height="31.6094" style="stroke:#A80036;stroke-width:1.5;" width="43" x="528" y="701.5625"/><text fill="#000000" font-family="sans-serif" font-size="14" lengthAdjust="spacing" textLength="29" x="535" y="723.0957">:App</text><rect fill="#FEFECE" filter="url(#frpe49jd55kcy)" height="31.6094" style="stroke:#A80036;stroke-width:1.5;" width="297" x="609.5" y="701.5625"/><text fill="#000000" font-family="sans-serif" font-size="14" lengthAdjust="spacing" textLength="283" x="616.5" y="723.0957">:SelectEmployeeVaccinationCenterController</text><rect fill="#FEFECE" filter="url(#frpe49jd55kcy)" height="49.2188" style="stroke:#A80036;stroke-width:1.5;" width="130" x="920.5" y="701.5625"/><text fill="#000000" font-family="sans-serif" font-size="14" lengthAdjust="spacing" textLength="77" x="947" y="723.0957">empSession</text><text fill="#000000" font-family="sans-serif" font-size="14" lengthAdjust="spacing" textLength="116" x="927.5" y="740.7051">:EmployeeSession</text><rect fill="#FEFECE" filter="url(#frpe49jd55kcy)" height="49.2188" style="stroke:#A80036;stroke-width:1.5;" width="78" x="1064.5" y="35.3906"/><text fill="#000000" font-family="sans-serif" font-size="14" lengthAdjust="spacing" textLength="57" x="1075" y="56.9238">company</text><text fill="#000000" font-family="sans-serif" font-size="14" lengthAdjust="spacing" textLength="64" x="1071.5" y="74.5332">:Company</text><rect fill="#FEFECE" filter="url(#frpe49jd55kcy)" height="49.2188" style="stroke:#A80036;stroke-width:1.5;" width="78" x="1064.5" y="701.5625"/><text fill="#000000" font-family="sans-serif" font-size="14" lengthAdjust="spacing" textLength="57" x="1075" y="723.0957">company</text><text fill="#000000" font-family="sans-serif" font-size="14" lengthAdjust="spacing" textLength="64" x="1071.5" y="740.7051">:Company</text><rect fill="#FEFECE" filter="url(#frpe49jd55kcy)" height="49.2188" style="stroke:#A80036;stroke-width:1.5;" width="224" x="1156.5" y="35.3906"/><text fill="#000000" font-family="sans-serif" font-size="14" lengthAdjust="spacing" textLength="121" x="1208" y="56.9238">vaccinationCenters</text><text fill="#000000" font-family="sans-serif" font-size="14" lengthAdjust="spacing" textLength="210" x="1163.5" y="74.5332">:List&lt;VaccinationCenterListDTO&gt;</text><rect fill="#FEFECE" filter="url(#frpe49jd55kcy)" height="49.2188" style="stroke:#A80036;stroke-width:1.5;" width="224" x="1156.5" y="701.5625"/><text fill="#000000" font-family="sans-serif" font-size="14" lengthAdjust="spacing" textLength="121" x="1208" y="723.0957">vaccinationCenters</text><text fill="#000000" font-family="sans-serif" font-size="14" lengthAdjust="spacing" textLength="210" x="1163.5" y="740.7051">:List&lt;VaccinationCenterListDTO&gt;</text><rect fill="#FEFECE" filter="url(#frpe49jd55kcy)" height="49.2188" style="stroke:#A80036;stroke-width:1.5;" width="186" x="1394.5" y="35.3906"/><text fill="#000000" font-family="sans-serif" font-size="14" lengthAdjust="spacing" textLength="70" x="1452.5" y="56.9238">centerDTO</text><text fill="#000000" font-family="sans-serif" font-size="14" lengthAdjust="spacing" textLength="172" x="1401.5" y="74.5332">:VaccinationCenterListDTO</text><rect fill="#FEFECE" filter="url(#frpe49jd55kcy)" height="49.2188" style="stroke:#A80036;stroke-width:1.5;" width="186" x="1394.5" y="701.5625"/><text fill="#000000" font-family="sans-serif" font-size="14" lengthAdjust="spacing" textLength="70" x="1452.5" y="723.0957">centerDTO</text><text fill="#000000" font-family="sans-serif" font-size="14" lengthAdjust="spacing" textLength="172" x="1401.5" y="740.7051">:VaccinationCenterListDTO</text><rect fill="#FFFFFF" filter="url(#frpe49jd55kcy)" height="318.7188" style="stroke:#A80036;stroke-width:1.0;" width="10" x="92.5" y="373.8438"/><rect fill="#FFFFFF" filter="url(#frpe49jd55kcy)" height="592.9531" style="stroke:#A80036;stroke-width:1.0;" width="10" x="200.5" y="99.6094"/><rect fill="#FFFFFF" filter="url(#frpe49jd55kcy)" height="347.5859" style="stroke:#A80036;stroke-width:1.0;" width="10" x="367.5" y="208.9219"/><rect fill="#FFFFFF" filter="url(#frpe49jd55kcy)" height="90.7031" style="stroke:#A80036;stroke-width:1.0;" width="10" x="367.5" y="586.8594"/><rect fill="#FFFFFF" filter="url(#frpe49jd55kcy)" height="30" style="stroke:#A80036;stroke-width:1.0;" width="10" x="546.5" y="239.2734"/><rect fill="#FFFFFF" filter="url(#frpe49jd55kcy)" height="30" style="stroke:#A80036;stroke-width:1.0;" width="10" x="755" y="410.4531"/><rect fill="#FFFFFF" filter="url(#frpe49jd55kcy)" height="60.3516" style="stroke:#A80036;stroke-width:1.0;" width="10" x="755" y="617.2109"/><rect fill="#FFFFFF" filter="url(#frpe49jd55kcy)" height="30" style="stroke:#A80036;stroke-width:1.0;" width="10" x="982.5" y="496.1563"/><rect fill="#FFFFFF" filter="url(#frpe49jd55kcy)" height="30" style="stroke:#A80036;stroke-width:1.0;" width="10" x="982.5" y="647.5625"/><polygon fill="#A80036" points="235,101.6094,245,105.6094,235,109.6094,239,105.6094" style="stroke:#A80036;stroke-width:1.0;"/><line style="stroke:#A80036;stroke-width:1.0;" x1="210.5" x2="241" y1="105.6094" y2="105.6094"/><rect fill="#FEFECE" filter="url(#frpe49jd55kcy)" height="31.6094" style="stroke:#A80036;stroke-width:1.5;" width="247" x="247" y="99.6094"/><text fill="#000000" font-family="sans-serif" font-size="14" lengthAdjust="spacing" textLength="233" x="254" y="121.1426">:SelectEmployeeVaccinationCenterUI</text><path d="M5,151.2188 L5,177.2188 L186,177.2188 L186,161.2188 L176,151.2188 L5,151.2188 " fill="#FBFB77" filter="url(#frpe49jd55kcy)" style="stroke:#A80036;stroke-width:1.0;"/><path d="M176,151.2188 L176,161.2188 L186,161.2188 L176,151.2188 " fill="#FBFB77" style="stroke:#A80036;stroke-width:1.0;"/><text fill="#000000" font-family="sans-serif" font-size="13" lengthAdjust="spacing" textLength="160" x="11" y="169.7139">after logging in successfully</text><polygon fill="#A80036" points="355.5,204.9219,365.5,208.9219,355.5,212.9219,359.5,208.9219" style="stroke:#A80036;stroke-width:1.0;"/><line style="stroke:#A80036;stroke-width:1.0;" x1="210.5" x2="361.5" y1="208.9219" y2="208.9219"/><text fill="#000000" font-family="sans-serif" font-size="13" lengthAdjust="spacing" textLength="26" x="217.5" y="204.0654">run()</text><polygon fill="#A80036" points="534.5,235.2734,544.5,239.2734,534.5,243.2734,538.5,239.2734" style="stroke:#A80036;stroke-width:1.0;"/><line style="stroke:#A80036;stroke-width:1.0;" x1="377.5" x2="540.5" y1="239.2734" y2="239.2734"/><text fill="#000000" font-family="sans-serif" font-size="13" lengthAdjust="spacing" textLength="150" x="384.5" y="234.417">company = getCompany()</text><polygon fill="#A80036" points="908.5,279.2734,918.5,283.2734,908.5,287.2734,912.5,283.2734" style="stroke:#A80036;stroke-width:1.0;"/><line style="stroke:#A80036;stroke-width:1.0;" x1="377.5" x2="914.5" y1="283.2734" y2="283.2734"/><rect fill="#FEFECE" filter="url(#frpe49jd55kcy)" height="49.2188" style="stroke:#A80036;stroke-width:1.5;" width="130" x="920.5" y="277.2734"/><text fill="#000000" font-family="sans-serif" font-size="14" lengthAdjust="spacing" textLength="77" x="947" y="298.8066">empSession</text><text fill="#000000" font-family="sans-serif" font-size="14" lengthAdjust="spacing" textLength="116" x="927.5" y="316.416">:EmployeeSession</text><polygon fill="#A80036" points="597.5,359.8438,607.5,363.8438,597.5,367.8438,601.5,363.8438" style="stroke:#A80036;stroke-width:1.0;"/><line style="stroke:#A80036;stroke-width:1.0;" x1="377.5" x2="603.5" y1="363.8438" y2="363.8438"/><text fill="#000000" font-family="sans-serif" font-size="13" lengthAdjust="spacing" textLength="208" x="384.5" y="358.9873">create(company, employeeSession)</text><rect fill="#FEFECE" filter="url(#frpe49jd55kcy)" height="31.6094" style="stroke:#A80036;stroke-width:1.5;" width="297" x="609.5" y="341.4922"/><text fill="#000000" font-family="sans-serif" font-size="14" lengthAdjust="spacing" textLength="283" x="616.5" y="363.0254">:SelectEmployeeVaccinationCenterController</text><polygon fill="#A80036" points="743,406.4531,753,410.4531,743,414.4531,747,410.4531" style="stroke:#A80036;stroke-width:1.0;"/><line style="stroke:#A80036;stroke-width:1.0;" x1="377.5" x2="749" y1="410.4531" y2="410.4531"/><text fill="#000000" font-family="sans-serif" font-size="13" lengthAdjust="spacing" textLength="277" x="384.5" y="405.5967">vaccinationCenters=getVaccinationCentersList()</text><path d="M21,455.4531 L94,455.4531 L94,463.4531 L84,473.4531 L21,473.4531 L21,455.4531 " fill="#EEEEEE" style="stroke:#000000;stroke-width:1.0;"/><rect fill="none" height="230.1094" style="stroke:#000000;stroke-width:2.0;" width="1043.5" x="21" y="455.4531"/><text fill="#000000" font-family="sans-serif" font-size="13" font-weight="bold" lengthAdjust="spacing" textLength="28" x="36" y="469.9482">loop</text><text fill="#000000" font-family="sans-serif" font-size="11" font-weight="bold" lengthAdjust="spacing" textLength="111" x="109" y="468.8721">[while valid == false]</text><polygon fill="#A80036" points="970.5,492.1563,980.5,496.1563,970.5,500.1563,974.5,496.1563" style="stroke:#A80036;stroke-width:1.0;"/><line style="stroke:#A80036;stroke-width:1.0;" x1="377.5" x2="976.5" y1="496.1563" y2="496.1563"/><text fill="#000000" font-family="sans-serif" font-size="13" lengthAdjust="spacing" textLength="108" x="384.5" y="491.2998">valid = hasCenter()</text><polygon fill="#A80036" points="113.5,552.5078,103.5,556.5078,113.5,560.5078,109.5,556.5078" style="stroke:#A80036;stroke-width:1.0;"/><line style="stroke:#A80036;stroke-width:1.0;stroke-dasharray:2.0,2.0;" x1="107.5" x2="371.5" y1="556.5078" y2="556.5078"/><text fill="#000000" font-family="sans-serif" font-size="13" lengthAdjust="spacing" textLength="141" x="119.5" y="551.6514">lists all avaliable centers</text><polygon fill="#A80036" points="355.5,582.8594,365.5,586.8594,355.5,590.8594,359.5,586.8594" style="stroke:#A80036;stroke-width:1.0;"/><line style="stroke:#A80036;stroke-width:1.0;" x1="102.5" x2="361.5" y1="586.8594" y2="586.8594"/><text fill="#000000" font-family="sans-serif" font-size="13" lengthAdjust="spacing" textLength="161" x="109.5" y="582.0029">selects a vaccination center</text><polygon fill="#A80036" points="743,613.2109,753,617.2109,743,621.2109,747,617.2109" style="stroke:#A80036;stroke-width:1.0;"/><line style="stroke:#A80036;stroke-width:1.0;" x1="377.5" x2="749" y1="617.2109" y2="617.2109"/><text fill="#000000" font-family="sans-serif" font-size="13" lengthAdjust="spacing" textLength="322" x="384.5" y="612.3545">selectVaccinationCenter(centerDTO, employeeSession)</text><polygon fill="#A80036" points="970.5,643.5625,980.5,647.5625,970.5,651.5625,974.5,647.5625" style="stroke:#A80036;stroke-width:1.0;"/><line style="stroke:#A80036;stroke-width:1.0;" x1="765" x2="976.5" y1="647.5625" y2="647.5625"/><text fill="#000000" font-family="sans-serif" font-size="13" lengthAdjust="spacing" textLength="194" x="772" y="642.7061">setVaccinationCenter(centerDTO)</text><!--MD5=[23e2e7f3f79bfb5cd2dc629bc97acf62]
@startuml

actor "Receptionist / Nurse" as EMP
participant ":AuthUI" as AUTHUI
participant ":SelectEmployeeVaccinationCenterUI" as UI
participant ":App" as APP
participant ":SelectEmployeeVaccinationCenterController" as CTRL
participant "empSession\n:EmployeeSession" as SESSION
participant "company\n:Company" as COMP
participant "vaccinationCenters\n:List<VaccinationCenterListDTO>"
participant "centerDTO\n:VaccinationCenterListDTO"

activate AUTHUI
  AUTHUI -> UI**

  note over EMP
    after logging in successfully
  end note

  AUTHUI -> UI : run()
  activate UI
    UI -> APP : company = getCompany()
    activate APP
    deactivate APP

    UI -> SESSION**

    UI -> CTRL** : create(company, employeeSession)

  activate EMP

    UI -> CTRL : vaccinationCenters=getVaccinationCentersList()
    activate CTRL
    deactivate CTRL

loop while valid == false

    UI -> SESSION : valid = hasCenter()
    activate SESSION
    deactivate SESSION

    EMP <- - UI : lists all avaliable centers
  deactivate UI

  EMP -> UI : selects a vaccination center
  activate UI

    UI -> CTRL : selectVaccinationCenter(centerDTO, employeeSession)
    activate CTRL

      CTRL -> SESSION : setVaccinationCenter(centerDTO)
      activate SESSION
      deactivate SESSION

    deactivate CTRL

  deactivate UI

end

  deactivate EMP
deactivate AUTHUI

@enduml

PlantUML version 1.2022.0(Tue Jan 11 16:16:42 WET 2022)
(GPL source distribution)
Java Runtime: Java(TM) SE Runtime Environment
JVM: Java HotSpot(TM) 64-Bit Server VM
Default Encoding: Cp1252
Language: pt
Country: PT
--></g></svg>