<?xml version="1.0" encoding="UTF-8" standalone="no"?><svg xmlns="http://www.w3.org/2000/svg" xmlns:xlink="http://www.w3.org/1999/xlink" contentScriptType="application/ecmascript" contentStyleType="text/css" height="700px" preserveAspectRatio="none" style="width:1702px;height:700px;background:#FFFFFF;" version="1.1" viewBox="0 0 1702 700" width="1702px" zoomAndPan="magnify"><defs><filter height="300%" id="f1i70yfdph3biy" width="300%" x="-1" y="-1"><feGaussianBlur result="blurOut" stdDeviation="2.0"/><feColorMatrix in="blurOut" result="blurOut2" type="matrix" values="0 0 0 0 0 0 0 0 0 0 0 0 0 0 0 0 0 0 .4 0"/><feOffset dx="4.0" dy="4.0" in="blurOut2" result="blurOut3"/><feBlend in="SourceGraphic" in2="blurOut3" mode="normal"/></filter></defs><g><rect fill="#FFFFFF" filter="url(#f1i70yfdph3biy)" height="497.1797" style="stroke:#A80036;stroke-width:1.0;" width="10" x="42" y="99.6094"/><rect fill="#FFFFFF" filter="url(#f1i70yfdph3biy)" height="30.3516" style="stroke:#A80036;stroke-width:1.0;" width="10" x="443" y="121.9609"/><rect fill="#FFFFFF" filter="url(#f1i70yfdph3biy)" height="323.4219" style="stroke:#A80036;stroke-width:1.0;" width="10" x="443" y="182.6641"/><rect fill="#FFFFFF" filter="url(#f1i70yfdph3biy)" height="60.3516" style="stroke:#A80036;stroke-width:1.0;" width="10" x="443" y="536.4375"/><rect fill="#FFFFFF" filter="url(#f1i70yfdph3biy)" height="224.1094" style="stroke:#A80036;stroke-width:1.0;" width="10" x="696.5" y="259.625"/><rect fill="#FFFFFF" filter="url(#f1i70yfdph3biy)" height="30" style="stroke:#A80036;stroke-width:1.0;" width="10" x="696.5" y="566.7891"/><rect fill="#FFFFFF" filter="url(#f1i70yfdph3biy)" height="30" style="stroke:#A80036;stroke-width:1.0;" width="10" x="938.5" y="289.9766"/><rect fill="#FFFFFF" filter="url(#f1i70yfdph3biy)" height="133.4063" style="stroke:#A80036;stroke-width:1.0;" width="10" x="1101" y="350.3281"/><rect fill="#FFFFFF" filter="url(#f1i70yfdph3biy)" height="55.7031" style="stroke:#A80036;stroke-width:1.0;" width="10" x="1456" y="406.0313"/><rect fill="#FFFFFF" filter="url(#f1i70yfdph3biy)" height="111.4063" style="stroke:#000000;stroke-width:2.0;" width="550" x="991.5" y="365.3281"/><rect fill="#FFFFFF" filter="url(#f1i70yfdph3biy)" height="48.7031" style="stroke:#000000;stroke-width:2.0;" width="530" x="1001.5" y="421.0313"/><line style="stroke:#A80036;stroke-width:1.0;stroke-dasharray:5.0,5.0;" x1="47" x2="47" y1="89.6094" y2="614.7891"/><line style="stroke:#A80036;stroke-width:1.0;stroke-dasharray:5.0,5.0;" x1="447.5" x2="447.5" y1="89.6094" y2="614.7891"/><line style="stroke:#A80036;stroke-width:1.0;stroke-dasharray:5.0,5.0;" x1="701" x2="701" y1="223.9688" y2="614.7891"/><line style="stroke:#A80036;stroke-width:1.0;stroke-dasharray:5.0,5.0;" x1="943.5" x2="943.5" y1="89.6094" y2="614.7891"/><line style="stroke:#A80036;stroke-width:1.0;stroke-dasharray:5.0,5.0;" x1="1105.5" x2="1105.5" y1="89.6094" y2="614.7891"/><line style="stroke:#A80036;stroke-width:1.0;stroke-dasharray:5.0,5.0;" x1="1460.5" x2="1460.5" y1="89.6094" y2="614.7891"/><line style="stroke:#A80036;stroke-width:1.0;stroke-dasharray:5.0,5.0;" x1="1611.5" x2="1611.5" y1="89.6094" y2="614.7891"/><text fill="#000000" font-family="sans-serif" font-size="14" lengthAdjust="spacing" textLength="78" x="5" y="86.5332">Receptionist</text><ellipse cx="47" cy="15" fill="#FEFECE" filter="url(#f1i70yfdph3biy)" rx="8" ry="8" style="stroke:#A80036;stroke-width:2.0;"/><path d="M47,23 L47,50 M34,31 L60,31 M47,50 L34,65 M47,50 L60,65 " fill="none" filter="url(#f1i70yfdph3biy)" style="stroke:#A80036;stroke-width:2.0;"/><text fill="#000000" font-family="sans-serif" font-size="14" lengthAdjust="spacing" textLength="78" x="5" y="628.3223">Receptionist</text><ellipse cx="47" cy="641.3984" fill="#FEFECE" filter="url(#f1i70yfdph3biy)" rx="8" ry="8" style="stroke:#A80036;stroke-width:2.0;"/><path d="M47,649.3984 L47,676.3984 M34,657.3984 L60,657.3984 M47,676.3984 L34,691.3984 M47,676.3984 L60,691.3984 " fill="none" filter="url(#f1i70yfdph3biy)" style="stroke:#A80036;stroke-width:2.0;"/><rect fill="#FEFECE" filter="url(#f1i70yfdph3biy)" height="31.6094" style="stroke:#A80036;stroke-width:1.5;" width="179" x="356.5" y="53"/><text fill="#000000" font-family="sans-serif" font-size="14" lengthAdjust="spacing" textLength="165" x="363.5" y="74.5332">:RegisterSNSUserArrivalUI</text><rect fill="#FEFECE" filter="url(#f1i70yfdph3biy)" height="31.6094" style="stroke:#A80036;stroke-width:1.5;" width="179" x="356.5" y="613.7891"/><text fill="#000000" font-family="sans-serif" font-size="14" lengthAdjust="spacing" textLength="165" x="363.5" y="635.3223">:RegisterSNSUserArrivalUI</text><rect fill="#FEFECE" filter="url(#f1i70yfdph3biy)" height="31.6094" style="stroke:#A80036;stroke-width:1.5;" width="229" x="585" y="613.7891"/><text fill="#000000" font-family="sans-serif" font-size="14" lengthAdjust="spacing" textLength="215" x="592" y="635.3223">:RegisterSNSUserArrivalController</text><rect fill="#FEFECE" filter="url(#f1i70yfdph3biy)" height="31.6094" style="stroke:#A80036;stroke-width:1.5;" width="112" x="885.5" y="53"/><text fill="#000000" font-family="sans-serif" font-size="14" lengthAdjust="spacing" textLength="98" x="892.5" y="74.5332">comp:Company</text><rect fill="#FEFECE" filter="url(#f1i70yfdph3biy)" height="31.6094" style="stroke:#A80036;stroke-width:1.5;" width="112" x="885.5" y="613.7891"/><text fill="#000000" font-family="sans-serif" font-size="14" lengthAdjust="spacing" textLength="98" x="892.5" y="635.3223">comp:Company</text><rect fill="#FEFECE" filter="url(#f1i70yfdph3biy)" height="31.6094" style="stroke:#A80036;stroke-width:1.5;" width="185" x="1011.5" y="53"/><text fill="#000000" font-family="sans-serif" font-size="14" lengthAdjust="spacing" textLength="171" x="1018.5" y="74.5332">aptStore:AppointmentStore</text><rect fill="#FEFECE" filter="url(#f1i70yfdph3biy)" height="31.6094" style="stroke:#A80036;stroke-width:1.5;" width="185" x="1011.5" y="613.7891"/><text fill="#000000" font-family="sans-serif" font-size="14" lengthAdjust="spacing" textLength="171" x="1018.5" y="635.3223">aptStore:AppointmentStore</text><rect fill="#FEFECE" filter="url(#f1i70yfdph3biy)" height="31.6094" style="stroke:#A80036;stroke-width:1.5;" width="117" x="1400.5" y="53"/><text fill="#000000" font-family="sans-serif" font-size="14" lengthAdjust="spacing" textLength="103" x="1407.5" y="74.5332">apt:Appointment</text><rect fill="#FEFECE" filter="url(#f1i70yfdph3biy)" height="31.6094" style="stroke:#A80036;stroke-width:1.5;" width="117" x="1400.5" y="613.7891"/><text fill="#000000" font-family="sans-serif" font-size="14" lengthAdjust="spacing" textLength="103" x="1407.5" y="635.3223">apt:Appointment</text><rect fill="#FEFECE" filter="url(#f1i70yfdph3biy)" height="31.6094" style="stroke:#A80036;stroke-width:1.5;" width="157" x="1531.5" y="53"/><text fill="#000000" font-family="sans-serif" font-size="14" lengthAdjust="spacing" textLength="143" x="1538.5" y="74.5332">wrLst:WaitingRoomList</text><rect fill="#FEFECE" filter="url(#f1i70yfdph3biy)" height="31.6094" style="stroke:#A80036;stroke-width:1.5;" width="157" x="1531.5" y="613.7891"/><text fill="#000000" font-family="sans-serif" font-size="14" lengthAdjust="spacing" textLength="143" x="1538.5" y="635.3223">wrLst:WaitingRoomList</text><rect fill="#FFFFFF" filter="url(#f1i70yfdph3biy)" height="497.1797" style="stroke:#A80036;stroke-width:1.0;" width="10" x="42" y="99.6094"/><rect fill="#FFFFFF" filter="url(#f1i70yfdph3biy)" height="30.3516" style="stroke:#A80036;stroke-width:1.0;" width="10" x="443" y="121.9609"/><rect fill="#FFFFFF" filter="url(#f1i70yfdph3biy)" height="323.4219" style="stroke:#A80036;stroke-width:1.0;" width="10" x="443" y="182.6641"/><rect fill="#FFFFFF" filter="url(#f1i70yfdph3biy)" height="60.3516" style="stroke:#A80036;stroke-width:1.0;" width="10" x="443" y="536.4375"/><rect fill="#FFFFFF" filter="url(#f1i70yfdph3biy)" height="224.1094" style="stroke:#A80036;stroke-width:1.0;" width="10" x="696.5" y="259.625"/><rect fill="#FFFFFF" filter="url(#f1i70yfdph3biy)" height="30" style="stroke:#A80036;stroke-width:1.0;" width="10" x="696.5" y="566.7891"/><rect fill="#FFFFFF" filter="url(#f1i70yfdph3biy)" height="30" style="stroke:#A80036;stroke-width:1.0;" width="10" x="938.5" y="289.9766"/><rect fill="#FFFFFF" filter="url(#f1i70yfdph3biy)" height="133.4063" style="stroke:#A80036;stroke-width:1.0;" width="10" x="1101" y="350.3281"/><rect fill="#FFFFFF" filter="url(#f1i70yfdph3biy)" height="55.7031" style="stroke:#A80036;stroke-width:1.0;" width="10" x="1456" y="406.0313"/><polygon fill="#A80036" points="431,117.9609,441,121.9609,431,125.9609,435,121.9609" style="stroke:#A80036;stroke-width:1.0;"/><line style="stroke:#A80036;stroke-width:1.0;" x1="52" x2="437" y1="121.9609" y2="121.9609"/><text fill="#000000" font-family="sans-serif" font-size="13" font-weight="bold" lengthAdjust="spacing" textLength="7" x="59" y="117.1045">1</text><text fill="#000000" font-family="sans-serif" font-size="13" lengthAdjust="spacing" textLength="361" x="70" y="117.1045">starts to register the SNS User arrival to the vaccination center</text><polygon fill="#A80036" points="63,148.3125,53,152.3125,63,156.3125,59,152.3125" style="stroke:#A80036;stroke-width:1.0;"/><line style="stroke:#A80036;stroke-width:1.0;stroke-dasharray:2.0,2.0;" x1="57" x2="447" y1="152.3125" y2="152.3125"/><text fill="#000000" font-family="sans-serif" font-size="13" font-weight="bold" lengthAdjust="spacing" textLength="7" x="69" y="147.4561">2</text><text fill="#000000" font-family="sans-serif" font-size="13" lengthAdjust="spacing" textLength="177" x="80" y="147.4561">asks for the SNS User number</text><polygon fill="#A80036" points="431,178.6641,441,182.6641,431,186.6641,435,182.6641" style="stroke:#A80036;stroke-width:1.0;"/><line style="stroke:#A80036;stroke-width:1.0;" x1="52" x2="437" y1="182.6641" y2="182.6641"/><text fill="#000000" font-family="sans-serif" font-size="13" font-weight="bold" lengthAdjust="spacing" textLength="7" x="59" y="177.8076">3</text><text fill="#000000" font-family="sans-serif" font-size="13" lengthAdjust="spacing" textLength="144" x="70" y="177.8076">types the requested data</text><polygon fill="#A80036" points="573,209.0156,583,213.0156,573,217.0156,577,213.0156" style="stroke:#A80036;stroke-width:1.0;"/><line style="stroke:#A80036;stroke-width:1.0;" x1="453" x2="579" y1="213.0156" y2="213.0156"/><text fill="#000000" font-family="sans-serif" font-size="13" font-weight="bold" lengthAdjust="spacing" textLength="7" x="460" y="208.1592">4</text><text fill="#000000" font-family="sans-serif" font-size="13" lengthAdjust="spacing" textLength="97" x="471" y="208.1592">create(company)</text><rect fill="#FEFECE" filter="url(#f1i70yfdph3biy)" height="31.6094" style="stroke:#A80036;stroke-width:1.5;" width="229" x="585" y="190.6641"/><text fill="#000000" font-family="sans-serif" font-size="14" lengthAdjust="spacing" textLength="215" x="592" y="212.1973">:RegisterSNSUserArrivalController</text><polygon fill="#A80036" points="684.5,255.625,694.5,259.625,684.5,263.625,688.5,259.625" style="stroke:#A80036;stroke-width:1.0;"/><line style="stroke:#A80036;stroke-width:1.0;" x1="453" x2="690.5" y1="259.625" y2="259.625"/><text fill="#000000" font-family="sans-serif" font-size="13" font-weight="bold" lengthAdjust="spacing" textLength="7" x="460" y="254.7686">5</text><text fill="#000000" font-family="sans-serif" font-size="13" lengthAdjust="spacing" textLength="167" x="471" y="254.7686">findAppointment(snsNumber)</text><polygon fill="#A80036" points="926.5,285.9766,936.5,289.9766,926.5,293.9766,930.5,289.9766" style="stroke:#A80036;stroke-width:1.0;"/><line style="stroke:#A80036;stroke-width:1.0;" x1="706.5" x2="932.5" y1="289.9766" y2="289.9766"/><text fill="#000000" font-family="sans-serif" font-size="13" font-weight="bold" lengthAdjust="spacing" textLength="7" x="713.5" y="285.1201">6</text><text fill="#000000" font-family="sans-serif" font-size="13" lengthAdjust="spacing" textLength="202" x="724.5" y="285.1201">aptStore = getAppointmentsStore()</text><polygon fill="#A80036" points="1089,346.3281,1099,350.3281,1089,354.3281,1093,350.3281" style="stroke:#A80036;stroke-width:1.0;"/><line style="stroke:#A80036;stroke-width:1.0;" x1="706.5" x2="1095" y1="350.3281" y2="350.3281"/><text fill="#000000" font-family="sans-serif" font-size="13" font-weight="bold" lengthAdjust="spacing" textLength="7" x="713.5" y="345.4717">7</text><text fill="#000000" font-family="sans-serif" font-size="13" lengthAdjust="spacing" textLength="201" x="724.5" y="345.4717">apt = findAppointment(snsNumber)</text><path d="M991.5,365.3281 L1064.5,365.3281 L1064.5,373.3281 L1054.5,383.3281 L991.5,383.3281 L991.5,365.3281 " fill="#EEEEEE" style="stroke:#000000;stroke-width:1.0;"/><rect fill="none" height="111.4063" style="stroke:#000000;stroke-width:2.0;" width="550" x="991.5" y="365.3281"/><text fill="#000000" font-family="sans-serif" font-size="13" font-weight="bold" lengthAdjust="spacing" textLength="28" x="1006.5" y="379.8232">loop</text><text fill="#000000" font-family="sans-serif" font-size="11" font-weight="bold" lengthAdjust="spacing" textLength="126" x="1079.5" y="378.7471">[for each appointment]</text><polygon fill="#A80036" points="1444,402.0313,1454,406.0313,1444,410.0313,1448,406.0313" style="stroke:#A80036;stroke-width:1.0;"/><line style="stroke:#A80036;stroke-width:1.0;" x1="1111" x2="1450" y1="406.0313" y2="406.0313"/><text fill="#000000" font-family="sans-serif" font-size="13" font-weight="bold" lengthAdjust="spacing" textLength="7" x="1118" y="401.1748">8</text><text fill="#000000" font-family="sans-serif" font-size="13" lengthAdjust="spacing" textLength="315" x="1129" y="401.1748">b = hasSNSNumber(snsNumber) &amp;&amp; isInTheNextSlot()</text><path d="M1001.5,421.0313 L1062.5,421.0313 L1062.5,429.0313 L1052.5,439.0313 L1001.5,439.0313 L1001.5,421.0313 " fill="#EEEEEE" style="stroke:#000000;stroke-width:1.0;"/><rect fill="none" height="48.7031" style="stroke:#000000;stroke-width:2.0;" width="530" x="1001.5" y="421.0313"/><text fill="#000000" font-family="sans-serif" font-size="13" font-weight="bold" lengthAdjust="spacing" textLength="16" x="1016.5" y="435.5264">alt</text><text fill="#000000" font-family="sans-serif" font-size="11" font-weight="bold" lengthAdjust="spacing" textLength="56" x="1077.5" y="434.4502">[b == true]</text><polygon fill="#A80036" points="1122,457.7344,1112,461.7344,1122,465.7344,1118,461.7344" style="stroke:#A80036;stroke-width:1.0;"/><line style="stroke:#A80036;stroke-width:1.0;stroke-dasharray:2.0,2.0;" x1="1116" x2="1460" y1="461.7344" y2="461.7344"/><text fill="#000000" font-family="sans-serif" font-size="13" font-weight="bold" lengthAdjust="spacing" textLength="7" x="1128" y="456.8779">9</text><text fill="#000000" font-family="sans-serif" font-size="13" lengthAdjust="spacing" textLength="55" x="1139" y="456.8779">return apt</text><polygon fill="#A80036" points="63,502.0859,53,506.0859,63,510.0859,59,506.0859" style="stroke:#A80036;stroke-width:1.0;"/><line style="stroke:#A80036;stroke-width:1.0;stroke-dasharray:2.0,2.0;" x1="57" x2="447" y1="506.0859" y2="506.0859"/><text fill="#000000" font-family="sans-serif" font-size="13" font-weight="bold" lengthAdjust="spacing" textLength="14" x="69" y="501.2295">10</text><text fill="#000000" font-family="sans-serif" font-size="13" lengthAdjust="spacing" textLength="235" x="87" y="501.2295">asks for confirmation for the appointment</text><polygon fill="#A80036" points="431,532.4375,441,536.4375,431,540.4375,435,536.4375" style="stroke:#A80036;stroke-width:1.0;"/><line style="stroke:#A80036;stroke-width:1.0;" x1="52" x2="437" y1="536.4375" y2="536.4375"/><text fill="#000000" font-family="sans-serif" font-size="13" font-weight="bold" lengthAdjust="spacing" textLength="14" x="59" y="531.5811">11</text><text fill="#000000" font-family="sans-serif" font-size="13" lengthAdjust="spacing" textLength="100" x="77" y="531.5811">confirms the data</text><polygon fill="#A80036" points="684.5,562.7891,694.5,566.7891,684.5,570.7891,688.5,566.7891" style="stroke:#A80036;stroke-width:1.0;"/><line style="stroke:#A80036;stroke-width:1.0;" x1="453" x2="690.5" y1="566.7891" y2="566.7891"/><text fill="#000000" font-family="sans-serif" font-size="13" font-weight="bold" lengthAdjust="spacing" textLength="14" x="460" y="561.9326">12</text><text fill="#000000" font-family="sans-serif" font-size="13" lengthAdjust="spacing" textLength="141" x="478" y="561.9326">confirmAppointment(apt)</text><!--MD5=[8f3a4b1eb22f7b12ff1682e74b53d203]
@startuml
autonumber

actor "Receptionist" as RECEPT

participant ":RegisterSNSUserArrivalUI" as UI
participant ":RegisterSNSUserArrivalController" as CTRL
participant "comp:Company" as COMP
participant "aptStore:AppointmentStore" as APTSTORE
participant "apt:Appointment" as APT
participant "wrLst:WaitingRoomList" as WRLST

activate RECEPT
  RECEPT -> UI : starts to register the SNS User arrival to the vaccination center
  activate UI
  
  RECEPT <- - UI : asks for the SNS User number
  deactivate UI

  RECEPT -> UI : types the requested data
  activate UI

    
    UI -> CTRL** : create(company)
    UI -> CTRL : findAppointment(snsNumber)
    activate CTRL

      CTRL -> COMP : aptStore = getAppointmentsStore()
      activate COMP
      deactivate COMP

      CTRL -> APTSTORE : apt = findAppointment(snsNumber)
      activate APTSTORE

        loop for each appointment
          APTSTORE -> APT : b = hasSNSNumber(snsNumber) && isInTheNextSlot()
          activate APT
          alt b == true
            APTSTORE <- - APT : return apt
            deactivate APT
          end
        end

      deactivate APTSTORE

    deactivate CTRL
  
  RECEPT <- - UI : asks for confirmation for the appointment
  deactivate UI

  RECEPT -> UI : confirms the data
  activate UI

    UI -> CTRL : confirmAppointment(apt)
    activate CTRL



    deactivate CTRL

  deactivate UI

deactivate RECEPT

@enduml

PlantUML version 1.2022.0(Tue Jan 11 16:16:42 WET 2022)
(GPL source distribution)
Java Runtime: Java(TM) SE Runtime Environment
JVM: Java HotSpot(TM) 64-Bit Server VM
Default Encoding: Cp1252
Language: pt
Country: PT
--></g></svg>