<?xml version="1.0" encoding="UTF-8" standalone="no"?><svg xmlns="http://www.w3.org/2000/svg" xmlns:xlink="http://www.w3.org/1999/xlink" contentScriptType="application/ecmascript" contentStyleType="text/css" height="1114px" preserveAspectRatio="none" style="width:2422px;height:1114px;background:#FFFFFF;" version="1.1" viewBox="0 0 2422 1114" width="2422px" zoomAndPan="magnify"><defs><filter height="300%" id="fi5o0c5nwdv0c" width="300%" x="-1" y="-1"><feGaussianBlur result="blurOut" stdDeviation="2.0"/><feColorMatrix in="blurOut" result="blurOut2" type="matrix" values="0 0 0 0 0 0 0 0 0 0 0 0 0 0 0 0 0 0 .4 0"/><feOffset dx="4.0" dy="4.0" in="blurOut2" result="blurOut3"/><feBlend in="SourceGraphic" in2="blurOut3" mode="normal"/></filter></defs><g><rect fill="#FFFFFF" filter="url(#fi5o0c5nwdv0c)" height="911.6563" style="stroke:#A80036;stroke-width:1.0;" width="10" x="42" y="99.6094"/><rect fill="#FFFFFF" filter="url(#fi5o0c5nwdv0c)" height="30.3516" style="stroke:#A80036;stroke-width:1.0;" width="10" x="443" y="121.9609"/><rect fill="#FFFFFF" filter="url(#fi5o0c5nwdv0c)" height="30.3516" style="stroke:#A80036;stroke-width:1.0;" width="10" x="443" y="182.6641"/><rect fill="#FFFFFF" filter="url(#fi5o0c5nwdv0c)" height="569.8828" style="stroke:#A80036;stroke-width:1.0;" width="10" x="443" y="243.3672"/><rect fill="#FFFFFF" filter="url(#fi5o0c5nwdv0c)" height="167.6641" style="stroke:#A80036;stroke-width:1.0;" width="10" x="443" y="843.6016"/><rect fill="#FFFFFF" filter="url(#fi5o0c5nwdv0c)" height="224.1094" style="stroke:#A80036;stroke-width:1.0;" width="10" x="696.5" y="320.3281"/><rect fill="#FFFFFF" filter="url(#fi5o0c5nwdv0c)" height="224.1094" style="stroke:#A80036;stroke-width:1.0;" width="10" x="696.5" y="566.7891"/><rect fill="#FFFFFF" filter="url(#fi5o0c5nwdv0c)" height="106.9609" style="stroke:#A80036;stroke-width:1.0;" width="10" x="696.5" y="873.9531"/><rect fill="#FFFFFF" filter="url(#fi5o0c5nwdv0c)" height="30" style="stroke:#A80036;stroke-width:1.0;" width="10" x="908.5" y="350.6797"/><rect fill="#FFFFFF" filter="url(#fi5o0c5nwdv0c)" height="133.4063" style="stroke:#A80036;stroke-width:1.0;" width="10" x="1057" y="411.0313"/><rect fill="#FFFFFF" filter="url(#fi5o0c5nwdv0c)" height="55.7031" style="stroke:#A80036;stroke-width:1.0;" width="10" x="1346" y="466.7344"/><rect fill="#FFFFFF" filter="url(#fi5o0c5nwdv0c)" height="30" style="stroke:#A80036;stroke-width:1.0;" width="10" x="1509.5" y="597.1406"/><rect fill="#FFFFFF" filter="url(#fi5o0c5nwdv0c)" height="133.4063" style="stroke:#A80036;stroke-width:1.0;" width="10" x="1703" y="657.4922"/><rect fill="#FFFFFF" filter="url(#fi5o0c5nwdv0c)" height="55.7031" style="stroke:#A80036;stroke-width:1.0;" width="10" x="2065" y="713.1953"/><rect fill="#FFFFFF" filter="url(#fi5o0c5nwdv0c)" height="30" style="stroke:#A80036;stroke-width:1.0;" width="10" x="2327" y="950.9141"/><rect fill="#FFFFFF" filter="url(#fi5o0c5nwdv0c)" height="111.4063" style="stroke:#000000;stroke-width:2.0;" width="474" x="961.5" y="426.0313"/><rect fill="#FFFFFF" filter="url(#fi5o0c5nwdv0c)" height="48.7031" style="stroke:#000000;stroke-width:2.0;" width="454" x="971.5" y="481.7344"/><rect fill="#FFFFFF" filter="url(#fi5o0c5nwdv0c)" height="111.4063" style="stroke:#000000;stroke-width:2.0;" width="557" x="1593.5" y="672.4922"/><rect fill="#FFFFFF" filter="url(#fi5o0c5nwdv0c)" height="48.7031" style="stroke:#000000;stroke-width:2.0;" width="537" x="1603.5" y="728.1953"/><line style="stroke:#A80036;stroke-width:1.0;stroke-dasharray:5.0,5.0;" x1="47" x2="47" y1="89.6094" y2="1029.2656"/><line style="stroke:#A80036;stroke-width:1.0;stroke-dasharray:5.0,5.0;" x1="447.5" x2="447.5" y1="89.6094" y2="1029.2656"/><line style="stroke:#A80036;stroke-width:1.0;stroke-dasharray:5.0,5.0;" x1="701" x2="701" y1="284.6719" y2="1029.2656"/><line style="stroke:#A80036;stroke-width:1.0;stroke-dasharray:5.0,5.0;" x1="913.5" x2="913.5" y1="89.6094" y2="1029.2656"/><line style="stroke:#A80036;stroke-width:1.0;stroke-dasharray:5.0,5.0;" x1="1061.5" x2="1061.5" y1="89.6094" y2="1029.2656"/><line style="stroke:#A80036;stroke-width:1.0;stroke-dasharray:5.0,5.0;" x1="1350.5" x2="1350.5" y1="89.6094" y2="1029.2656"/><line style="stroke:#A80036;stroke-width:1.0;stroke-dasharray:5.0,5.0;" x1="1514.5" x2="1514.5" y1="89.6094" y2="1029.2656"/><line style="stroke:#A80036;stroke-width:1.0;stroke-dasharray:5.0,5.0;" x1="1707.5" x2="1707.5" y1="89.6094" y2="1029.2656"/><line style="stroke:#A80036;stroke-width:1.0;stroke-dasharray:5.0,5.0;" x1="2069.5" x2="2069.5" y1="89.6094" y2="1029.2656"/><line style="stroke:#A80036;stroke-width:1.0;stroke-dasharray:5.0,5.0;" x1="2190.5" x2="2190.5" y1="915.2578" y2="1029.2656"/><line style="stroke:#A80036;stroke-width:1.0;stroke-dasharray:5.0,5.0;" x1="2331.5" x2="2331.5" y1="89.6094" y2="1029.2656"/><text fill="#000000" font-family="sans-serif" font-size="14" lengthAdjust="spacing" textLength="78" x="5" y="86.5332">Receptionist</text><ellipse cx="47" cy="15" fill="#FEFECE" filter="url(#fi5o0c5nwdv0c)" rx="8" ry="8" style="stroke:#A80036;stroke-width:2.0;"/><path d="M47,23 L47,50 M34,31 L60,31 M47,50 L34,65 M47,50 L60,65 " fill="none" filter="url(#fi5o0c5nwdv0c)" style="stroke:#A80036;stroke-width:2.0;"/><text fill="#000000" font-family="sans-serif" font-size="14" lengthAdjust="spacing" textLength="78" x="5" y="1042.7988">Receptionist</text><ellipse cx="47" cy="1055.875" fill="#FEFECE" filter="url(#fi5o0c5nwdv0c)" rx="8" ry="8" style="stroke:#A80036;stroke-width:2.0;"/><path d="M47,1063.875 L47,1090.875 M34,1071.875 L60,1071.875 M47,1090.875 L34,1105.875 M47,1090.875 L60,1105.875 " fill="none" filter="url(#fi5o0c5nwdv0c)" style="stroke:#A80036;stroke-width:2.0;"/><rect fill="#FEFECE" filter="url(#fi5o0c5nwdv0c)" height="31.6094" style="stroke:#A80036;stroke-width:1.5;" width="179" x="356.5" y="53"/><text fill="#000000" font-family="sans-serif" font-size="14" lengthAdjust="spacing" textLength="165" x="363.5" y="74.5332">:RegisterSNSUserArrivalUI</text><rect fill="#FEFECE" filter="url(#fi5o0c5nwdv0c)" height="31.6094" style="stroke:#A80036;stroke-width:1.5;" width="179" x="356.5" y="1028.2656"/><text fill="#000000" font-family="sans-serif" font-size="14" lengthAdjust="spacing" textLength="165" x="363.5" y="1049.7988">:RegisterSNSUserArrivalUI</text><rect fill="#FEFECE" filter="url(#fi5o0c5nwdv0c)" height="31.6094" style="stroke:#A80036;stroke-width:1.5;" width="229" x="585" y="1028.2656"/><text fill="#000000" font-family="sans-serif" font-size="14" lengthAdjust="spacing" textLength="215" x="592" y="1049.7988">:RegisterSNSUserArrivalController</text><rect fill="#FEFECE" filter="url(#fi5o0c5nwdv0c)" height="31.6094" style="stroke:#A80036;stroke-width:1.5;" width="112" x="855.5" y="53"/><text fill="#000000" font-family="sans-serif" font-size="14" lengthAdjust="spacing" textLength="98" x="862.5" y="74.5332">comp:Company</text><rect fill="#FEFECE" filter="url(#fi5o0c5nwdv0c)" height="31.6094" style="stroke:#A80036;stroke-width:1.5;" width="112" x="855.5" y="1028.2656"/><text fill="#000000" font-family="sans-serif" font-size="14" lengthAdjust="spacing" textLength="98" x="862.5" y="1049.7988">comp:Company</text><rect fill="#FEFECE" filter="url(#fi5o0c5nwdv0c)" height="31.6094" style="stroke:#A80036;stroke-width:1.5;" width="157" x="981.5" y="53"/><text fill="#000000" font-family="sans-serif" font-size="14" lengthAdjust="spacing" textLength="143" x="988.5" y="74.5332">suStore:SNSUserStore</text><rect fill="#FEFECE" filter="url(#fi5o0c5nwdv0c)" height="31.6094" style="stroke:#A80036;stroke-width:1.5;" width="157" x="981.5" y="1028.2656"/><text fill="#000000" font-family="sans-serif" font-size="14" lengthAdjust="spacing" textLength="143" x="988.5" y="1049.7988">suStore:SNSUserStore</text><rect fill="#FEFECE" filter="url(#fi5o0c5nwdv0c)" height="31.6094" style="stroke:#A80036;stroke-width:1.5;" width="125" x="1286.5" y="53"/><text fill="#000000" font-family="sans-serif" font-size="14" lengthAdjust="spacing" textLength="111" x="1293.5" y="74.5332">snsUser:SNSUser</text><rect fill="#FEFECE" filter="url(#fi5o0c5nwdv0c)" height="31.6094" style="stroke:#A80036;stroke-width:1.5;" width="125" x="1286.5" y="1028.2656"/><text fill="#000000" font-family="sans-serif" font-size="14" lengthAdjust="spacing" textLength="111" x="1293.5" y="1049.7988">snsUser:SNSUser</text><rect fill="#FEFECE" filter="url(#fi5o0c5nwdv0c)" height="31.6094" style="stroke:#A80036;stroke-width:1.5;" width="174" x="1425.5" y="53"/><text fill="#000000" font-family="sans-serif" font-size="14" lengthAdjust="spacing" textLength="160" x="1432.5" y="74.5332">center:VaccinationCenter</text><rect fill="#FEFECE" filter="url(#fi5o0c5nwdv0c)" height="31.6094" style="stroke:#A80036;stroke-width:1.5;" width="174" x="1425.5" y="1028.2656"/><text fill="#000000" font-family="sans-serif" font-size="14" lengthAdjust="spacing" textLength="160" x="1432.5" y="1049.7988">center:VaccinationCenter</text><rect fill="#FEFECE" filter="url(#fi5o0c5nwdv0c)" height="31.6094" style="stroke:#A80036;stroke-width:1.5;" width="185" x="1613.5" y="53"/><text fill="#000000" font-family="sans-serif" font-size="14" lengthAdjust="spacing" textLength="171" x="1620.5" y="74.5332">aptStore:AppointmentStore</text><rect fill="#FEFECE" filter="url(#fi5o0c5nwdv0c)" height="31.6094" style="stroke:#A80036;stroke-width:1.5;" width="185" x="1613.5" y="1028.2656"/><text fill="#000000" font-family="sans-serif" font-size="14" lengthAdjust="spacing" textLength="171" x="1620.5" y="1049.7988">aptStore:AppointmentStore</text><rect fill="#FEFECE" filter="url(#fi5o0c5nwdv0c)" height="31.6094" style="stroke:#A80036;stroke-width:1.5;" width="117" x="2009.5" y="53"/><text fill="#000000" font-family="sans-serif" font-size="14" lengthAdjust="spacing" textLength="103" x="2016.5" y="74.5332">apt:Appointment</text><rect fill="#FEFECE" filter="url(#fi5o0c5nwdv0c)" height="31.6094" style="stroke:#A80036;stroke-width:1.5;" width="117" x="2009.5" y="1028.2656"/><text fill="#000000" font-family="sans-serif" font-size="14" lengthAdjust="spacing" textLength="103" x="2016.5" y="1049.7988">apt:Appointment</text><rect fill="#FEFECE" filter="url(#fi5o0c5nwdv0c)" height="31.6094" style="stroke:#A80036;stroke-width:1.5;" width="97" x="2140.5" y="1028.2656"/><text fill="#000000" font-family="sans-serif" font-size="14" lengthAdjust="spacing" textLength="83" x="2147.5" y="1049.7988">arrival:Arrival</text><rect fill="#FEFECE" filter="url(#fi5o0c5nwdv0c)" height="31.6094" style="stroke:#A80036;stroke-width:1.5;" width="157" x="2251.5" y="53"/><text fill="#000000" font-family="sans-serif" font-size="14" lengthAdjust="spacing" textLength="143" x="2258.5" y="74.5332">wrLst:WaitingRoomList</text><rect fill="#FEFECE" filter="url(#fi5o0c5nwdv0c)" height="31.6094" style="stroke:#A80036;stroke-width:1.5;" width="157" x="2251.5" y="1028.2656"/><text fill="#000000" font-family="sans-serif" font-size="14" lengthAdjust="spacing" textLength="143" x="2258.5" y="1049.7988">wrLst:WaitingRoomList</text><rect fill="#FFFFFF" filter="url(#fi5o0c5nwdv0c)" height="911.6563" style="stroke:#A80036;stroke-width:1.0;" width="10" x="42" y="99.6094"/><rect fill="#FFFFFF" filter="url(#fi5o0c5nwdv0c)" height="30.3516" style="stroke:#A80036;stroke-width:1.0;" width="10" x="443" y="121.9609"/><rect fill="#FFFFFF" filter="url(#fi5o0c5nwdv0c)" height="30.3516" style="stroke:#A80036;stroke-width:1.0;" width="10" x="443" y="182.6641"/><rect fill="#FFFFFF" filter="url(#fi5o0c5nwdv0c)" height="569.8828" style="stroke:#A80036;stroke-width:1.0;" width="10" x="443" y="243.3672"/><rect fill="#FFFFFF" filter="url(#fi5o0c5nwdv0c)" height="167.6641" style="stroke:#A80036;stroke-width:1.0;" width="10" x="443" y="843.6016"/><rect fill="#FFFFFF" filter="url(#fi5o0c5nwdv0c)" height="224.1094" style="stroke:#A80036;stroke-width:1.0;" width="10" x="696.5" y="320.3281"/><rect fill="#FFFFFF" filter="url(#fi5o0c5nwdv0c)" height="224.1094" style="stroke:#A80036;stroke-width:1.0;" width="10" x="696.5" y="566.7891"/><rect fill="#FFFFFF" filter="url(#fi5o0c5nwdv0c)" height="106.9609" style="stroke:#A80036;stroke-width:1.0;" width="10" x="696.5" y="873.9531"/><rect fill="#FFFFFF" filter="url(#fi5o0c5nwdv0c)" height="30" style="stroke:#A80036;stroke-width:1.0;" width="10" x="908.5" y="350.6797"/><rect fill="#FFFFFF" filter="url(#fi5o0c5nwdv0c)" height="133.4063" style="stroke:#A80036;stroke-width:1.0;" width="10" x="1057" y="411.0313"/><rect fill="#FFFFFF" filter="url(#fi5o0c5nwdv0c)" height="55.7031" style="stroke:#A80036;stroke-width:1.0;" width="10" x="1346" y="466.7344"/><rect fill="#FFFFFF" filter="url(#fi5o0c5nwdv0c)" height="30" style="stroke:#A80036;stroke-width:1.0;" width="10" x="1509.5" y="597.1406"/><rect fill="#FFFFFF" filter="url(#fi5o0c5nwdv0c)" height="133.4063" style="stroke:#A80036;stroke-width:1.0;" width="10" x="1703" y="657.4922"/><rect fill="#FFFFFF" filter="url(#fi5o0c5nwdv0c)" height="55.7031" style="stroke:#A80036;stroke-width:1.0;" width="10" x="2065" y="713.1953"/><rect fill="#FFFFFF" filter="url(#fi5o0c5nwdv0c)" height="30" style="stroke:#A80036;stroke-width:1.0;" width="10" x="2327" y="950.9141"/><polygon fill="#A80036" points="431,117.9609,441,121.9609,431,125.9609,435,121.9609" style="stroke:#A80036;stroke-width:1.0;"/><line style="stroke:#A80036;stroke-width:1.0;" x1="52" x2="437" y1="121.9609" y2="121.9609"/><text fill="#000000" font-family="sans-serif" font-size="13" font-weight="bold" lengthAdjust="spacing" textLength="7" x="59" y="117.1045">1</text><text fill="#000000" font-family="sans-serif" font-size="13" lengthAdjust="spacing" textLength="361" x="70" y="117.1045">starts to register the SNS User arrival to the vaccination center</text><polygon fill="#A80036" points="63,148.3125,53,152.3125,63,156.3125,59,152.3125" style="stroke:#A80036;stroke-width:1.0;"/><line style="stroke:#A80036;stroke-width:1.0;stroke-dasharray:2.0,2.0;" x1="57" x2="447" y1="152.3125" y2="152.3125"/><text fill="#000000" font-family="sans-serif" font-size="13" font-weight="bold" lengthAdjust="spacing" textLength="7" x="69" y="147.4561">2</text><text fill="#000000" font-family="sans-serif" font-size="13" lengthAdjust="spacing" textLength="177" x="80" y="147.4561">asks for the SNS User number</text><polygon fill="#A80036" points="431,178.6641,441,182.6641,431,186.6641,435,182.6641" style="stroke:#A80036;stroke-width:1.0;"/><line style="stroke:#A80036;stroke-width:1.0;" x1="52" x2="437" y1="182.6641" y2="182.6641"/><text fill="#000000" font-family="sans-serif" font-size="13" font-weight="bold" lengthAdjust="spacing" textLength="7" x="59" y="177.8076">3</text><text fill="#000000" font-family="sans-serif" font-size="13" lengthAdjust="spacing" textLength="144" x="70" y="177.8076">types the requested data</text><polygon fill="#A80036" points="63,209.0156,53,213.0156,63,217.0156,59,213.0156" style="stroke:#A80036;stroke-width:1.0;"/><line style="stroke:#A80036;stroke-width:1.0;stroke-dasharray:2.0,2.0;" x1="57" x2="447" y1="213.0156" y2="213.0156"/><text fill="#000000" font-family="sans-serif" font-size="13" font-weight="bold" lengthAdjust="spacing" textLength="7" x="69" y="208.1592">4</text><text fill="#000000" font-family="sans-serif" font-size="13" lengthAdjust="spacing" textLength="212" x="80" y="208.1592">asks to select the vaccination center</text><polygon fill="#A80036" points="431,239.3672,441,243.3672,431,247.3672,435,243.3672" style="stroke:#A80036;stroke-width:1.0;"/><line style="stroke:#A80036;stroke-width:1.0;" x1="52" x2="437" y1="243.3672" y2="243.3672"/><text fill="#000000" font-family="sans-serif" font-size="13" font-weight="bold" lengthAdjust="spacing" textLength="7" x="59" y="238.5107">5</text><text fill="#000000" font-family="sans-serif" font-size="13" lengthAdjust="spacing" textLength="172" x="70" y="238.5107">selects the vaccination center</text><polygon fill="#A80036" points="573,269.7188,583,273.7188,573,277.7188,577,273.7188" style="stroke:#A80036;stroke-width:1.0;"/><line style="stroke:#A80036;stroke-width:1.0;" x1="453" x2="579" y1="273.7188" y2="273.7188"/><text fill="#000000" font-family="sans-serif" font-size="13" font-weight="bold" lengthAdjust="spacing" textLength="7" x="460" y="268.8623">6</text><text fill="#000000" font-family="sans-serif" font-size="13" lengthAdjust="spacing" textLength="97" x="471" y="268.8623">create(company)</text><rect fill="#FEFECE" filter="url(#fi5o0c5nwdv0c)" height="31.6094" style="stroke:#A80036;stroke-width:1.5;" width="229" x="585" y="251.3672"/><text fill="#000000" font-family="sans-serif" font-size="14" lengthAdjust="spacing" textLength="215" x="592" y="272.9004">:RegisterSNSUserArrivalController</text><polygon fill="#A80036" points="684.5,316.3281,694.5,320.3281,684.5,324.3281,688.5,320.3281" style="stroke:#A80036;stroke-width:1.0;"/><line style="stroke:#A80036;stroke-width:1.0;" x1="453" x2="690.5" y1="320.3281" y2="320.3281"/><text fill="#000000" font-family="sans-serif" font-size="13" font-weight="bold" lengthAdjust="spacing" textLength="7" x="460" y="315.4717">7</text><text fill="#000000" font-family="sans-serif" font-size="13" lengthAdjust="spacing" textLength="148" x="471" y="315.4717">findSNSUser(snsNumber)</text><polygon fill="#A80036" points="896.5,346.6797,906.5,350.6797,896.5,354.6797,900.5,350.6797" style="stroke:#A80036;stroke-width:1.0;"/><line style="stroke:#A80036;stroke-width:1.0;" x1="706.5" x2="902.5" y1="350.6797" y2="350.6797"/><text fill="#000000" font-family="sans-serif" font-size="13" font-weight="bold" lengthAdjust="spacing" textLength="7" x="713.5" y="345.8232">8</text><text fill="#000000" font-family="sans-serif" font-size="13" lengthAdjust="spacing" textLength="172" x="724.5" y="345.8232">suStore = getSNSUserStore()</text><polygon fill="#A80036" points="1045,407.0313,1055,411.0313,1045,415.0313,1049,411.0313" style="stroke:#A80036;stroke-width:1.0;"/><line style="stroke:#A80036;stroke-width:1.0;" x1="706.5" x2="1051" y1="411.0313" y2="411.0313"/><text fill="#000000" font-family="sans-serif" font-size="13" font-weight="bold" lengthAdjust="spacing" textLength="7" x="713.5" y="406.1748">9</text><text fill="#000000" font-family="sans-serif" font-size="13" lengthAdjust="spacing" textLength="197" x="724.5" y="406.1748">suStore.findSNSUser(snsNumber)</text><path d="M961.5,426.0313 L1034.5,426.0313 L1034.5,434.0313 L1024.5,444.0313 L961.5,444.0313 L961.5,426.0313 " fill="#EEEEEE" style="stroke:#000000;stroke-width:1.0;"/><rect fill="none" height="111.4063" style="stroke:#000000;stroke-width:2.0;" width="474" x="961.5" y="426.0313"/><text fill="#000000" font-family="sans-serif" font-size="13" font-weight="bold" lengthAdjust="spacing" textLength="28" x="976.5" y="440.5264">loop</text><text fill="#000000" font-family="sans-serif" font-size="11" font-weight="bold" lengthAdjust="spacing" textLength="103" x="1049.5" y="439.4502">[for each snsUser]</text><polygon fill="#A80036" points="1334,462.7344,1344,466.7344,1334,470.7344,1338,466.7344" style="stroke:#A80036;stroke-width:1.0;"/><line style="stroke:#A80036;stroke-width:1.0;" x1="1067" x2="1340" y1="466.7344" y2="466.7344"/><text fill="#000000" font-family="sans-serif" font-size="13" font-weight="bold" lengthAdjust="spacing" textLength="14" x="1074" y="461.8779">10</text><text fill="#000000" font-family="sans-serif" font-size="13" lengthAdjust="spacing" textLength="242" x="1092" y="461.8779">b = snsUser.hasSNSNumber(snsNumber)</text><path d="M971.5,481.7344 L1032.5,481.7344 L1032.5,489.7344 L1022.5,499.7344 L971.5,499.7344 L971.5,481.7344 " fill="#EEEEEE" style="stroke:#000000;stroke-width:1.0;"/><rect fill="none" height="48.7031" style="stroke:#000000;stroke-width:2.0;" width="454" x="971.5" y="481.7344"/><text fill="#000000" font-family="sans-serif" font-size="13" font-weight="bold" lengthAdjust="spacing" textLength="16" x="986.5" y="496.2295">alt</text><text fill="#000000" font-family="sans-serif" font-size="11" font-weight="bold" lengthAdjust="spacing" textLength="56" x="1047.5" y="495.1533">[b == true]</text><polygon fill="#A80036" points="1078,518.4375,1068,522.4375,1078,526.4375,1074,522.4375" style="stroke:#A80036;stroke-width:1.0;"/><line style="stroke:#A80036;stroke-width:1.0;stroke-dasharray:2.0,2.0;" x1="1072" x2="1350" y1="522.4375" y2="522.4375"/><text fill="#000000" font-family="sans-serif" font-size="13" font-weight="bold" lengthAdjust="spacing" textLength="14" x="1084" y="517.5811">11</text><text fill="#000000" font-family="sans-serif" font-size="13" lengthAdjust="spacing" textLength="85" x="1102" y="517.5811">return snsUser</text><polygon fill="#A80036" points="684.5,562.7891,694.5,566.7891,684.5,570.7891,688.5,566.7891" style="stroke:#A80036;stroke-width:1.0;"/><line style="stroke:#A80036;stroke-width:1.0;" x1="453" x2="690.5" y1="566.7891" y2="566.7891"/><text fill="#000000" font-family="sans-serif" font-size="13" font-weight="bold" lengthAdjust="spacing" textLength="14" x="460" y="561.9326">12</text><text fill="#000000" font-family="sans-serif" font-size="13" lengthAdjust="spacing" textLength="167" x="478" y="561.9326">findAppointment(snsNumber)</text><polygon fill="#A80036" points="1497.5,593.1406,1507.5,597.1406,1497.5,601.1406,1501.5,597.1406" style="stroke:#A80036;stroke-width:1.0;"/><line style="stroke:#A80036;stroke-width:1.0;" x1="706.5" x2="1503.5" y1="597.1406" y2="597.1406"/><text fill="#000000" font-family="sans-serif" font-size="13" font-weight="bold" lengthAdjust="spacing" textLength="14" x="713.5" y="592.2842">13</text><text fill="#000000" font-family="sans-serif" font-size="13" lengthAdjust="spacing" textLength="195" x="731.5" y="592.2842">aptStore = getAppointmentStore()</text><polygon fill="#A80036" points="1691,653.4922,1701,657.4922,1691,661.4922,1695,657.4922" style="stroke:#A80036;stroke-width:1.0;"/><line style="stroke:#A80036;stroke-width:1.0;" x1="706.5" x2="1697" y1="657.4922" y2="657.4922"/><text fill="#000000" font-family="sans-serif" font-size="13" font-weight="bold" lengthAdjust="spacing" textLength="14" x="713.5" y="652.6357">14</text><text fill="#000000" font-family="sans-serif" font-size="13" lengthAdjust="spacing" textLength="201" x="731.5" y="652.6357">apt = findAppointment(snsNumber)</text><path d="M1593.5,672.4922 L1666.5,672.4922 L1666.5,680.4922 L1656.5,690.4922 L1593.5,690.4922 L1593.5,672.4922 " fill="#EEEEEE" style="stroke:#000000;stroke-width:1.0;"/><rect fill="none" height="111.4063" style="stroke:#000000;stroke-width:2.0;" width="557" x="1593.5" y="672.4922"/><text fill="#000000" font-family="sans-serif" font-size="13" font-weight="bold" lengthAdjust="spacing" textLength="28" x="1608.5" y="686.9873">loop</text><text fill="#000000" font-family="sans-serif" font-size="11" font-weight="bold" lengthAdjust="spacing" textLength="126" x="1681.5" y="685.9111">[for each appointment]</text><polygon fill="#A80036" points="2053,709.1953,2063,713.1953,2053,717.1953,2057,713.1953" style="stroke:#A80036;stroke-width:1.0;"/><line style="stroke:#A80036;stroke-width:1.0;" x1="1713" x2="2059" y1="713.1953" y2="713.1953"/><text fill="#000000" font-family="sans-serif" font-size="13" font-weight="bold" lengthAdjust="spacing" textLength="14" x="1720" y="708.3389">15</text><text fill="#000000" font-family="sans-serif" font-size="13" lengthAdjust="spacing" textLength="315" x="1738" y="708.3389">b = hasSNSNumber(snsNumber) &amp;&amp; isInTheNextSlot()</text><path d="M1603.5,728.1953 L1664.5,728.1953 L1664.5,736.1953 L1654.5,746.1953 L1603.5,746.1953 L1603.5,728.1953 " fill="#EEEEEE" style="stroke:#000000;stroke-width:1.0;"/><rect fill="none" height="48.7031" style="stroke:#000000;stroke-width:2.0;" width="537" x="1603.5" y="728.1953"/><text fill="#000000" font-family="sans-serif" font-size="13" font-weight="bold" lengthAdjust="spacing" textLength="16" x="1618.5" y="742.6904">alt</text><text fill="#000000" font-family="sans-serif" font-size="11" font-weight="bold" lengthAdjust="spacing" textLength="56" x="1679.5" y="741.6143">[b == true]</text><polygon fill="#A80036" points="1724,764.8984,1714,768.8984,1724,772.8984,1720,768.8984" style="stroke:#A80036;stroke-width:1.0;"/><line style="stroke:#A80036;stroke-width:1.0;stroke-dasharray:2.0,2.0;" x1="1718" x2="2069" y1="768.8984" y2="768.8984"/><text fill="#000000" font-family="sans-serif" font-size="13" font-weight="bold" lengthAdjust="spacing" textLength="14" x="1730" y="764.042">16</text><text fill="#000000" font-family="sans-serif" font-size="13" lengthAdjust="spacing" textLength="55" x="1748" y="764.042">return apt</text><polygon fill="#A80036" points="63,809.25,53,813.25,63,817.25,59,813.25" style="stroke:#A80036;stroke-width:1.0;"/><line style="stroke:#A80036;stroke-width:1.0;stroke-dasharray:2.0,2.0;" x1="57" x2="447" y1="813.25" y2="813.25"/><text fill="#000000" font-family="sans-serif" font-size="13" font-weight="bold" lengthAdjust="spacing" textLength="14" x="69" y="808.3936">17</text><text fill="#000000" font-family="sans-serif" font-size="13" lengthAdjust="spacing" textLength="235" x="87" y="808.3936">asks for confirmation for the appointment</text><polygon fill="#A80036" points="431,839.6016,441,843.6016,431,847.6016,435,843.6016" style="stroke:#A80036;stroke-width:1.0;"/><line style="stroke:#A80036;stroke-width:1.0;" x1="52" x2="437" y1="843.6016" y2="843.6016"/><text fill="#000000" font-family="sans-serif" font-size="13" font-weight="bold" lengthAdjust="spacing" textLength="14" x="59" y="838.7451">18</text><text fill="#000000" font-family="sans-serif" font-size="13" lengthAdjust="spacing" textLength="100" x="77" y="838.7451">confirms the data</text><polygon fill="#A80036" points="684.5,869.9531,694.5,873.9531,684.5,877.9531,688.5,873.9531" style="stroke:#A80036;stroke-width:1.0;"/><line style="stroke:#A80036;stroke-width:1.0;" x1="453" x2="690.5" y1="873.9531" y2="873.9531"/><text fill="#000000" font-family="sans-serif" font-size="13" font-weight="bold" lengthAdjust="spacing" textLength="14" x="460" y="869.0967">19</text><text fill="#000000" font-family="sans-serif" font-size="13" lengthAdjust="spacing" textLength="141" x="478" y="869.0967">confirmAppointment(apt)</text><polygon fill="#A80036" points="2128.5,900.3047,2138.5,904.3047,2128.5,908.3047,2132.5,904.3047" style="stroke:#A80036;stroke-width:1.0;"/><line style="stroke:#A80036;stroke-width:1.0;" x1="706.5" x2="2134.5" y1="904.3047" y2="904.3047"/><text fill="#000000" font-family="sans-serif" font-size="13" font-weight="bold" lengthAdjust="spacing" textLength="14" x="713.5" y="899.4482">20</text><text fill="#000000" font-family="sans-serif" font-size="13" lengthAdjust="spacing" textLength="118" x="731.5" y="899.4482">create(snsUser, apt)</text><rect fill="#FEFECE" filter="url(#fi5o0c5nwdv0c)" height="31.6094" style="stroke:#A80036;stroke-width:1.5;" width="97" x="2140.5" y="881.9531"/><text fill="#000000" font-family="sans-serif" font-size="14" lengthAdjust="spacing" textLength="83" x="2147.5" y="903.4863">arrival:Arrival</text><polygon fill="#A80036" points="2315,946.9141,2325,950.9141,2315,954.9141,2319,950.9141" style="stroke:#A80036;stroke-width:1.0;"/><line style="stroke:#A80036;stroke-width:1.0;" x1="706.5" x2="2321" y1="950.9141" y2="950.9141"/><text fill="#000000" font-family="sans-serif" font-size="13" font-weight="bold" lengthAdjust="spacing" textLength="14" x="713.5" y="946.0576">21</text><text fill="#000000" font-family="sans-serif" font-size="13" lengthAdjust="spacing" textLength="62" x="731.5" y="946.0576">add(arrival)</text><polygon fill="#A80036" points="58,1007.2656,48,1011.2656,58,1015.2656,54,1011.2656" style="stroke:#A80036;stroke-width:1.0;"/><line style="stroke:#A80036;stroke-width:1.0;stroke-dasharray:2.0,2.0;" x1="52" x2="447" y1="1011.2656" y2="1011.2656"/><text fill="#000000" font-family="sans-serif" font-size="13" font-weight="bold" lengthAdjust="spacing" textLength="14" x="64" y="1006.4092">22</text><text fill="#000000" font-family="sans-serif" font-size="13" lengthAdjust="spacing" textLength="152" x="82" y="1006.4092">informs operation success</text><!--MD5=[6190cd1d206c2cfc6a1470ab2e16b049]
@startuml
autonumber

actor "Receptionist" as RECEPT

participant ":RegisterSNSUserArrivalUI" as UI
participant ":RegisterSNSUserArrivalController" as CTRL
participant "comp:Company" as COMP
participant "suStore:SNSUserStore" as SUSTORE
participant "snsUser:SNSUser" as SNSUSER
participant "center:VaccinationCenter" as CENTER
participant "aptStore:AppointmentStore" as APTSTORE
participant "apt:Appointment" as APT
participant "arrival:Arrival" as ARRIVAL
participant "wrLst:WaitingRoomList" as WRLST

activate RECEPT
  RECEPT -> UI : starts to register the SNS User arrival to the vaccination center
  activate UI
  
  RECEPT <- - UI : asks for the SNS User number
  deactivate UI

  RECEPT -> UI : types the requested data
  activate UI
  
  RECEPT <- - UI : asks to select the vaccination center
  deactivate UI

  RECEPT -> UI : selects the vaccination center
  activate UI
    
    UI -> CTRL** : create(company)

    UI -> CTRL : findSNSUser(snsNumber)
    activate CTRL

      CTRL -> COMP : suStore = getSNSUserStore()
      activate COMP
      deactivate COMP

      CTRL -> SUSTORE : suStore.findSNSUser(snsNumber)
      activate SUSTORE
        loop for each snsUser
          SUSTORE -> SNSUSER : b = snsUser.hasSNSNumber(snsNumber)
          activate SNSUSER
          alt b == true
            SUSTORE <- - SNSUSER : return snsUser
            deactivate SNSUSER
          end
        end
      deactivate SUSTORE

    deactivate CTRL

    UI -> CTRL : findAppointment(snsNumber)
    activate CTRL

      CTRL -> CENTER : aptStore = getAppointmentStore()
      activate CENTER
      deactivate CENTER

      CTRL -> APTSTORE : apt = findAppointment(snsNumber)
      activate APTSTORE

        loop for each appointment
          APTSTORE -> APT : b = hasSNSNumber(snsNumber) && isInTheNextSlot()
          activate APT
          alt b == true
            APTSTORE <- - APT : return apt
            deactivate APT
          end
        end

      deactivate APTSTORE

    deactivate CTRL
  
  RECEPT <- - UI : asks for confirmation for the appointment
  deactivate UI

  RECEPT -> UI : confirms the data
  activate UI

    UI -> CTRL : confirmAppointment(apt)
    activate CTRL
      CTRL -> ARRIVAL** : create(snsUser, apt)

      CTRL -> WRLST : add(arrival)
      activate WRLST
      deactivate WRLST

    deactivate CTRL

  RECEPT <- - UI : informs operation success
  deactivate UI

deactivate RECEPT

@enduml

PlantUML version 1.2022.0(Tue Jan 11 16:16:42 WET 2022)
(GPL source distribution)
Java Runtime: Java(TM) SE Runtime Environment
JVM: Java HotSpot(TM) 64-Bit Server VM
Default Encoding: Cp1252
Language: pt
Country: PT
--></g></svg>