<?xml version="1.0" encoding="UTF-8" standalone="no"?><svg xmlns="http://www.w3.org/2000/svg" xmlns:xlink="http://www.w3.org/1999/xlink" contentScriptType="application/ecmascript" contentStyleType="text/css" height="1495px" preserveAspectRatio="none" style="width:1745px;height:1495px;background:#FFFFFF;" version="1.1" viewBox="0 0 1745 1495" width="1745px" zoomAndPan="magnify"><defs><filter height="300%" id="fpqzix0fsyxp1" width="300%" x="-1" y="-1"><feGaussianBlur result="blurOut" stdDeviation="2.0"/><feColorMatrix in="blurOut" result="blurOut2" type="matrix" values="0 0 0 0 0 0 0 0 0 0 0 0 0 0 0 0 0 0 .4 0"/><feOffset dx="4.0" dy="4.0" in="blurOut2" result="blurOut3"/><feBlend in="SourceGraphic" in2="blurOut3" mode="normal"/></filter></defs><g><!--MD5=[9681dc6e01e10c6b4fe06895ae94f592]
cluster UI--><polygon fill="#FFFFFF" filter="url(#fpqzix0fsyxp1)" points="650,6,671,6,678,28.2969,896,28.2969,896,105,650,105,650,6" style="stroke:#000000;stroke-width:1.5;"/><line style="stroke:#000000;stroke-width:1.5;" x1="650" x2="678" y1="28.2969" y2="28.2969"/><text fill="#000000" font-family="sans-serif" font-size="14" font-weight="bold" lengthAdjust="spacing" textLength="15" x="654" y="20.9951">UI</text><!--MD5=[01435ace8273dc3cae88e7f376e4d373]
cluster core--><polygon fill="#FFFFFF" filter="url(#fpqzix0fsyxp1)" points="16,138,58,138,65,160.2969,1728,160.2969,1728,1488,16,1488,16,138" style="stroke:#000000;stroke-width:1.5;"/><line style="stroke:#000000;stroke-width:1.5;" x1="16" x2="65" y1="160.2969" y2="160.2969"/><text fill="#000000" font-family="sans-serif" font-size="14" font-weight="bold" lengthAdjust="spacing" textLength="36" x="20" y="152.9951">core</text><!--MD5=[27f772719433d509ddbc20ff768eba08]
cluster domain--><polygon fill="#FFFFFF" filter="url(#fpqzix0fsyxp1)" points="40,351,103,351,110,373.2969,1437,373.2969,1437,1265,40,1265,40,351" style="stroke:#000000;stroke-width:1.5;"/><line style="stroke:#000000;stroke-width:1.5;" x1="40" x2="110" y1="373.2969" y2="373.2969"/><text fill="#000000" font-family="sans-serif" font-size="14" font-weight="bold" lengthAdjust="spacing" textLength="57" x="44" y="365.9951">domain</text><!--MD5=[fbca5634cbc0239920b500cad9c4bedb]
cluster stores--><polygon fill="#FFFFFF" filter="url(#fpqzix0fsyxp1)" points="241,587,298,587,305,609.2969,1305,609.2969,1305,776,241,776,241,587" style="stroke:#000000;stroke-width:1.5;"/><line style="stroke:#000000;stroke-width:1.5;" x1="241" x2="305" y1="609.2969" y2="609.2969"/><text fill="#000000" font-family="sans-serif" font-size="14" font-weight="bold" lengthAdjust="spacing" textLength="51" x="245" y="601.9951">stores</text><!--MD5=[74377f9e5257669286bfbcdea75789c1]
cluster lists--><polygon fill="#FFFFFF" filter="url(#fpqzix0fsyxp1)" points="1211,1078,1249,1078,1256,1100.2969,1413,1100.2969,1413,1203,1211,1203,1211,1078" style="stroke:#000000;stroke-width:1.5;"/><line style="stroke:#000000;stroke-width:1.5;" x1="1211" x2="1256" y1="1100.2969" y2="1100.2969"/><text fill="#000000" font-family="sans-serif" font-size="14" font-weight="bold" lengthAdjust="spacing" textLength="32" x="1215" y="1092.9951">lists</text><!--MD5=[5d4cd377749310b66bf14896f5cd8d9b]
cluster model--><polygon fill="#FFFFFF" filter="url(#fpqzix0fsyxp1)" points="64,825,118,825,125,847.2969,1187,847.2969,1187,1241,64,1241,64,825" style="stroke:#000000;stroke-width:1.5;"/><line style="stroke:#000000;stroke-width:1.5;" x1="64" x2="125" y1="847.2969" y2="847.2969"/><text fill="#000000" font-family="sans-serif" font-size="14" font-weight="bold" lengthAdjust="spacing" textLength="48" x="68" y="839.9951">model</text><!--MD5=[f4e70ef68289585296b9045165e58692]
cluster controllers--><polygon fill="#FFFFFF" filter="url(#fpqzix0fsyxp1)" points="495,181,587,181,594,203.2969,1051,203.2969,1051,318,495,318,495,181" style="stroke:#000000;stroke-width:1.5;"/><line style="stroke:#000000;stroke-width:1.5;" x1="495" x2="594" y1="203.2969" y2="203.2969"/><text fill="#000000" font-family="sans-serif" font-size="14" font-weight="bold" lengthAdjust="spacing" textLength="86" x="499" y="195.9951">controllers</text><!--MD5=[c52f45833d539af9e29a9d34b8b7302b]
cluster utils--><polygon fill="#FFFFFF" filter="url(#fpqzix0fsyxp1)" points="1305,1314,1344,1314,1351,1336.2969,1463,1336.2969,1463,1464,1305,1464,1305,1314" style="stroke:#000000;stroke-width:1.5;"/><line style="stroke:#000000;stroke-width:1.5;" x1="1305" x2="1351" y1="1336.2969" y2="1336.2969"/><text fill="#000000" font-family="sans-serif" font-size="14" font-weight="bold" lengthAdjust="spacing" textLength="33" x="1309" y="1328.9951">utils</text><!--MD5=[7b0cfd9e7522513355bc4d2674f12d2a]
class AnalyseCenterPerformanceUI--><rect codeLine="4" fill="#FEFECE" filter="url(#fpqzix0fsyxp1)" height="48" id="AnalyseCenterPerformanceUI" style="stroke:#A80036;stroke-width:1.5;" width="214" x="666" y="41"/><ellipse cx="681" cy="57" fill="#ADD1B2" rx="11" ry="11" style="stroke:#A80036;stroke-width:1.0;"/><path d="M683.9688,62.6406 Q683.3906,62.9375 682.75,63.0781 Q682.1094,63.2344 681.4063,63.2344 Q678.9063,63.2344 677.5781,61.5938 Q676.2656,59.9375 676.2656,56.8125 Q676.2656,53.6875 677.5781,52.0313 Q678.9063,50.375 681.4063,50.375 Q682.1094,50.375 682.75,50.5313 Q683.4063,50.6875 683.9688,50.9844 L683.9688,53.7031 Q683.3438,53.125 682.75,52.8594 Q682.1563,52.5781 681.5313,52.5781 Q680.1875,52.5781 679.5,53.6563 Q678.8125,54.7188 678.8125,56.8125 Q678.8125,58.9063 679.5,59.9844 Q680.1875,61.0469 681.5313,61.0469 Q682.1563,61.0469 682.75,60.7813 Q683.3438,60.5 683.9688,59.9219 L683.9688,62.6406 Z " fill="#000000"/><text fill="#000000" font-family="sans-serif" font-size="12" lengthAdjust="spacing" textLength="182" x="695" y="61.1543">AnalyseCenterPerformanceUI</text><line style="stroke:#A80036;stroke-width:1.5;" x1="667" x2="879" y1="73" y2="73"/><line style="stroke:#A80036;stroke-width:1.5;" x1="667" x2="879" y1="81" y2="81"/><!--MD5=[02e4b9b7573f1156f41e60aa5b4e25a4]
class Company--><rect codeLine="71" fill="#FEFECE" filter="url(#fpqzix0fsyxp1)" height="137.6328" id="Company" style="stroke:#A80036;stroke-width:1.5;" width="289" x="628.5" y="386"/><ellipse cx="740.25" cy="402" fill="#ADD1B2" rx="11" ry="11" style="stroke:#A80036;stroke-width:1.0;"/><path d="M743.2188,407.6406 Q742.6406,407.9375 742,408.0781 Q741.3594,408.2344 740.6563,408.2344 Q738.1563,408.2344 736.8281,406.5938 Q735.5156,404.9375 735.5156,401.8125 Q735.5156,398.6875 736.8281,397.0313 Q738.1563,395.375 740.6563,395.375 Q741.3594,395.375 742,395.5313 Q742.6563,395.6875 743.2188,395.9844 L743.2188,398.7031 Q742.5938,398.125 742,397.8594 Q741.4063,397.5781 740.7813,397.5781 Q739.4375,397.5781 738.75,398.6563 Q738.0625,399.7188 738.0625,401.8125 Q738.0625,403.9063 738.75,404.9844 Q739.4375,406.0469 740.7813,406.0469 Q741.4063,406.0469 742,405.7813 Q742.5938,405.5 743.2188,404.9219 L743.2188,407.6406 Z " fill="#000000"/><text fill="#000000" font-family="sans-serif" font-size="12" lengthAdjust="spacing" textLength="57" x="760.75" y="406.1543">Company</text><line style="stroke:#A80036;stroke-width:1.5;" x1="629.5" x2="916.5" y1="418" y2="418"/><text fill="#000000" font-family="sans-serif" font-size="11" lengthAdjust="spacing" textLength="112" x="634.5" y="432.2104">-designation: String</text><text fill="#000000" font-family="sans-serif" font-size="11" lengthAdjust="spacing" textLength="142" x="634.5" y="445.0151">-authFacade: AuthFacade</text><text fill="#000000" font-family="sans-serif" font-size="11" lengthAdjust="spacing" textLength="277" x="634.5" y="457.8198">-vaccinationCenterStore: VaccinationCenterStore</text><line style="stroke:#A80036;stroke-width:1.5;" x1="629.5" x2="916.5" y1="464.4141" y2="464.4141"/><text fill="#000000" font-family="sans-serif" font-size="11" lengthAdjust="spacing" textLength="136" x="634.5" y="478.6245">+Company(designation)</text><text fill="#000000" font-family="sans-serif" font-size="11" lengthAdjust="spacing" textLength="0" x="638.5" y="491.4292"/><text fill="#000000" font-family="sans-serif" font-size="11" lengthAdjust="spacing" textLength="100" x="634.5" y="504.2339">+getAuthFacade()</text><text fill="#000000" font-family="sans-serif" font-size="11" lengthAdjust="spacing" textLength="168" x="634.5" y="517.0386">+getVaccinationCenterStore()</text><!--MD5=[a29876ea2f21a6ca48ea477740122fd8]
class VaccinationCenterStore--><rect codeLine="10" fill="#FEFECE" filter="url(#fpqzix0fsyxp1)" height="137.6328" id="VaccinationCenterStore" style="stroke:#A80036;stroke-width:1.5;" width="1031" x="257.5" y="622"/><ellipse cx="694.25" cy="638" fill="#ADD1B2" rx="11" ry="11" style="stroke:#A80036;stroke-width:1.0;"/><path d="M697.2188,643.6406 Q696.6406,643.9375 696,644.0781 Q695.3594,644.2344 694.6563,644.2344 Q692.1563,644.2344 690.8281,642.5938 Q689.5156,640.9375 689.5156,637.8125 Q689.5156,634.6875 690.8281,633.0313 Q692.1563,631.375 694.6563,631.375 Q695.3594,631.375 696,631.5313 Q696.6563,631.6875 697.2188,631.9844 L697.2188,634.7031 Q696.5938,634.125 696,633.8594 Q695.4063,633.5781 694.7813,633.5781 Q693.4375,633.5781 692.75,634.6563 Q692.0625,635.7188 692.0625,637.8125 Q692.0625,639.9063 692.75,640.9844 Q693.4375,642.0469 694.7813,642.0469 Q695.4063,642.0469 696,641.7813 Q696.5938,641.5 697.2188,640.9219 L697.2188,643.6406 Z " fill="#000000"/><text fill="#000000" font-family="sans-serif" font-size="12" lengthAdjust="spacing" textLength="149" x="714.75" y="642.1543">VaccinationCenterStore</text><line style="stroke:#A80036;stroke-width:1.5;" x1="258.5" x2="1287.5" y1="654" y2="654"/><line style="stroke:#A80036;stroke-width:1.5;" x1="258.5" x2="1287.5" y1="662" y2="662"/><text fill="#000000" font-family="sans-serif" font-size="11" lengthAdjust="spacing" textLength="1019" x="263.5" y="676.2104">+createVaccinationCenter(name,address,emailAddress,phoneNumber,faxNumber,websiteAddress,openingHours,closingHours,slotDuration,maximumVaccinesPerSlot,coordinator)</text><text fill="#000000" font-family="sans-serif" font-size="11" lengthAdjust="spacing" textLength="196" x="263.5" y="689.0151">+validateVaccinatonCenter(center)</text><text fill="#000000" font-family="sans-serif" font-size="11" lengthAdjust="spacing" textLength="182" x="263.5" y="701.8198">+saveVaccinationCenter(center)</text><text fill="#000000" font-family="sans-serif" font-size="11" lengthAdjust="spacing" textLength="144" x="263.5" y="714.6245">+checkDuplicates(center)</text><text fill="#000000" font-family="sans-serif" font-size="11" lengthAdjust="spacing" textLength="230" x="263.5" y="727.4292">+getVaccinationCenterWithPhone(phone)</text><text fill="#000000" font-family="sans-serif" font-size="11" lengthAdjust="spacing" textLength="0" x="267.5" y="740.2339"/><text fill="#000000" font-family="sans-serif" font-size="11" lengthAdjust="spacing" textLength="171" x="263.5" y="753.0386">-addVaccinationCenter(center)</text><!--MD5=[20d765a59dde7f6830bc6bfb5c6ca029]
class CenterEventList--><rect codeLine="22" fill="#FEFECE" filter="url(#fpqzix0fsyxp1)" height="73.6094" id="CenterEventList" style="stroke:#A80036;stroke-width:1.5;" width="169" x="1227.5" y="1113"/><ellipse cx="1260.05" cy="1129" fill="#ADD1B2" rx="11" ry="11" style="stroke:#A80036;stroke-width:1.0;"/><path d="M1263.0188,1134.6406 Q1262.4406,1134.9375 1261.8,1135.0781 Q1261.1594,1135.2344 1260.4563,1135.2344 Q1257.9563,1135.2344 1256.6281,1133.5938 Q1255.3156,1131.9375 1255.3156,1128.8125 Q1255.3156,1125.6875 1256.6281,1124.0313 Q1257.9563,1122.375 1260.4563,1122.375 Q1261.1594,1122.375 1261.8,1122.5313 Q1262.4563,1122.6875 1263.0188,1122.9844 L1263.0188,1125.7031 Q1262.3938,1125.125 1261.8,1124.8594 Q1261.2063,1124.5781 1260.5813,1124.5781 Q1259.2375,1124.5781 1258.55,1125.6563 Q1257.8625,1126.7188 1257.8625,1128.8125 Q1257.8625,1130.9063 1258.55,1131.9844 Q1259.2375,1133.0469 1260.5813,1133.0469 Q1261.2063,1133.0469 1261.8,1132.7813 Q1262.3938,1132.5 1263.0188,1131.9219 L1263.0188,1134.6406 Z " fill="#000000"/><text fill="#000000" font-family="sans-serif" font-size="12" lengthAdjust="spacing" textLength="98" x="1277.95" y="1133.1543">CenterEventList</text><line style="stroke:#A80036;stroke-width:1.5;" x1="1228.5" x2="1395.5" y1="1145" y2="1145"/><text fill="#000000" font-family="sans-serif" font-size="11" lengthAdjust="spacing" textLength="157" x="1233.5" y="1159.2104">-events: List&lt;CenterEvent&gt;</text><line style="stroke:#A80036;stroke-width:1.5;" x1="1228.5" x2="1395.5" y1="1165.8047" y2="1165.8047"/><text fill="#000000" font-family="sans-serif" font-size="11" lengthAdjust="spacing" textLength="106" x="1233.5" y="1180.0151">+CenterEventList()</text><!--MD5=[de60e6d4f424ae4d0522096f76a59010]
class VaccinationCenter--><rect codeLine="30" fill="#FEFECE" filter="url(#fpqzix0fsyxp1)" height="137.6328" id="VaccinationCenter" style="stroke:#A80036;stroke-width:1.5;" width="796" x="375" y="860"/><ellipse cx="711.25" cy="876" fill="#ADD1B2" rx="11" ry="11" style="stroke:#A80036;stroke-width:1.0;"/><path d="M714.2188,881.6406 Q713.6406,881.9375 713,882.0781 Q712.3594,882.2344 711.6563,882.2344 Q709.1563,882.2344 707.8281,880.5938 Q706.5156,878.9375 706.5156,875.8125 Q706.5156,872.6875 707.8281,871.0313 Q709.1563,869.375 711.6563,869.375 Q712.3594,869.375 713,869.5313 Q713.6563,869.6875 714.2188,869.9844 L714.2188,872.7031 Q713.5938,872.125 713,871.8594 Q712.4063,871.5781 711.7813,871.5781 Q710.4375,871.5781 709.75,872.6563 Q709.0625,873.7188 709.0625,875.8125 Q709.0625,877.9063 709.75,878.9844 Q710.4375,880.0469 711.7813,880.0469 Q712.4063,880.0469 713,879.7813 Q713.5938,879.5 714.2188,878.9219 L714.2188,881.6406 Z " fill="#000000"/><text fill="#000000" font-family="sans-serif" font-size="12" lengthAdjust="spacing" textLength="115" x="731.75" y="880.1543">VaccinationCenter</text><line style="stroke:#A80036;stroke-width:1.5;" x1="376" x2="1170" y1="892" y2="892"/><text fill="#000000" font-family="sans-serif" font-size="11" lengthAdjust="spacing" textLength="78" x="381" y="906.2104">-name: String</text><text fill="#000000" font-family="sans-serif" font-size="11" lengthAdjust="spacing" textLength="93" x="381" y="919.0151">-address: String</text><text fill="#000000" font-family="sans-serif" font-size="11" lengthAdjust="spacing" textLength="124" x="381" y="931.8198">-emailAddress: String</text><text fill="#000000" font-family="sans-serif" font-size="11" lengthAdjust="spacing" textLength="126" x="381" y="944.6245">-phoneNumber: String</text><text fill="#000000" font-family="sans-serif" font-size="11" lengthAdjust="spacing" textLength="108" x="381" y="957.4292">-faxNumber: String</text><text fill="#000000" font-family="sans-serif" font-size="11" lengthAdjust="spacing" textLength="137" x="381" y="970.2339">-websiteAddress: String</text><line style="stroke:#A80036;stroke-width:1.5;" x1="376" x2="1170" y1="976.8281" y2="976.8281"/><text fill="#000000" font-family="sans-serif" font-size="11" lengthAdjust="spacing" textLength="784" x="381" y="991.0386">+VaccinationCenter(name,address,emailAddress,phoneNumber,faxNumber,websiteAddress,openingHours,closingHours,slot,coordinator)</text><!--MD5=[7421f545a0d8420c5bec41e74b387d9c]
class Employee--><rect codeLine="41" fill="#FEFECE" filter="url(#fpqzix0fsyxp1)" height="150.4375" id="Employee" style="stroke:#A80036;stroke-width:1.5;" width="388" x="80" y="1075"/><ellipse cx="239.75" cy="1091" fill="#ADD1B2" rx="11" ry="11" style="stroke:#A80036;stroke-width:1.0;"/><path d="M242.7188,1096.6406 Q242.1406,1096.9375 241.5,1097.0781 Q240.8594,1097.2344 240.1563,1097.2344 Q237.6563,1097.2344 236.3281,1095.5938 Q235.0156,1093.9375 235.0156,1090.8125 Q235.0156,1087.6875 236.3281,1086.0313 Q237.6563,1084.375 240.1563,1084.375 Q240.8594,1084.375 241.5,1084.5313 Q242.1563,1084.6875 242.7188,1084.9844 L242.7188,1087.7031 Q242.0938,1087.125 241.5,1086.8594 Q240.9063,1086.5781 240.2813,1086.5781 Q238.9375,1086.5781 238.25,1087.6563 Q237.5625,1088.7188 237.5625,1090.8125 Q237.5625,1092.9063 238.25,1093.9844 Q238.9375,1095.0469 240.2813,1095.0469 Q240.9063,1095.0469 241.5,1094.7813 Q242.0938,1094.5 242.7188,1093.9219 L242.7188,1096.6406 Z " fill="#000000"/><text fill="#000000" font-family="sans-serif" font-size="12" lengthAdjust="spacing" textLength="60" x="260.25" y="1095.1543">Employee</text><line style="stroke:#A80036;stroke-width:1.5;" x1="81" x2="467" y1="1107" y2="1107"/><text fill="#000000" font-family="sans-serif" font-size="11" lengthAdjust="spacing" textLength="56" x="86" y="1121.2104">-id: String</text><text fill="#000000" font-family="sans-serif" font-size="11" lengthAdjust="spacing" textLength="78" x="86" y="1134.0151">-name: String</text><text fill="#000000" font-family="sans-serif" font-size="11" lengthAdjust="spacing" textLength="77" x="86" y="1146.8198">-email: String</text><text fill="#000000" font-family="sans-serif" font-size="11" lengthAdjust="spacing" textLength="81" x="86" y="1159.6245">-phone: String</text><text fill="#000000" font-family="sans-serif" font-size="11" lengthAdjust="spacing" textLength="93" x="86" y="1172.4292">-address: String</text><text fill="#000000" font-family="sans-serif" font-size="11" lengthAdjust="spacing" textLength="133" x="86" y="1185.2339">-citizenCardNumber: int</text><text fill="#000000" font-family="sans-serif" font-size="11" lengthAdjust="spacing" textLength="78" x="86" y="1198.0386">-roleId: String</text><line style="stroke:#A80036;stroke-width:1.5;" x1="81" x2="467" y1="1204.6328" y2="1204.6328"/><text fill="#000000" font-family="sans-serif" font-size="11" lengthAdjust="spacing" textLength="376" x="86" y="1218.8433">+Employee(name,email,phone,address,citizenCardNumber,roleId)</text><!--MD5=[45c6380d22fb72521f5065026b277fb9]
class Slot--><rect codeLine="53" fill="#FEFECE" filter="url(#fpqzix0fsyxp1)" height="86.4141" id="Slot" style="stroke:#A80036;stroke-width:1.5;" width="217" x="503.5" y="1107"/><ellipse cx="595.75" cy="1123" fill="#ADD1B2" rx="11" ry="11" style="stroke:#A80036;stroke-width:1.0;"/><path d="M598.7188,1128.6406 Q598.1406,1128.9375 597.5,1129.0781 Q596.8594,1129.2344 596.1563,1129.2344 Q593.6563,1129.2344 592.3281,1127.5938 Q591.0156,1125.9375 591.0156,1122.8125 Q591.0156,1119.6875 592.3281,1118.0313 Q593.6563,1116.375 596.1563,1116.375 Q596.8594,1116.375 597.5,1116.5313 Q598.1563,1116.6875 598.7188,1116.9844 L598.7188,1119.7031 Q598.0938,1119.125 597.5,1118.8594 Q596.9063,1118.5781 596.2813,1118.5781 Q594.9375,1118.5781 594.25,1119.6563 Q593.5625,1120.7188 593.5625,1122.8125 Q593.5625,1124.9063 594.25,1125.9844 Q594.9375,1127.0469 596.2813,1127.0469 Q596.9063,1127.0469 597.5,1126.7813 Q598.0938,1126.5 598.7188,1125.9219 L598.7188,1128.6406 Z " fill="#000000"/><text fill="#000000" font-family="sans-serif" font-size="12" lengthAdjust="spacing" textLength="24" x="616.25" y="1127.1543">Slot</text><line style="stroke:#A80036;stroke-width:1.5;" x1="504.5" x2="719.5" y1="1139" y2="1139"/><text fill="#000000" font-family="sans-serif" font-size="11" lengthAdjust="spacing" textLength="73" x="509.5" y="1153.2104">-duration: int</text><text fill="#000000" font-family="sans-serif" font-size="11" lengthAdjust="spacing" textLength="141" x="509.5" y="1166.0151">-maxVaccinesPerSlot: int</text><line style="stroke:#A80036;stroke-width:1.5;" x1="504.5" x2="719.5" y1="1172.6094" y2="1172.6094"/><text fill="#000000" font-family="sans-serif" font-size="11" lengthAdjust="spacing" textLength="205" x="509.5" y="1186.8198">+Slot(duration,maxVaccinesPerSlot)</text><!--MD5=[1eab586b2d892e406b67662793bf7ce1]
class CenterPerformance--><rect codeLine="60" fill="#FEFECE" filter="url(#fpqzix0fsyxp1)" height="124.8281" id="CenterPerformance" style="stroke:#A80036;stroke-width:1.5;" width="415" x="755.5" y="1087.5"/><ellipse cx="897.75" cy="1103.5" fill="#ADD1B2" rx="11" ry="11" style="stroke:#A80036;stroke-width:1.0;"/><path d="M900.7188,1109.1406 Q900.1406,1109.4375 899.5,1109.5781 Q898.8594,1109.7344 898.1563,1109.7344 Q895.6563,1109.7344 894.3281,1108.0938 Q893.0156,1106.4375 893.0156,1103.3125 Q893.0156,1100.1875 894.3281,1098.5313 Q895.6563,1096.875 898.1563,1096.875 Q898.8594,1096.875 899.5,1097.0313 Q900.1563,1097.1875 900.7188,1097.4844 L900.7188,1100.2031 Q900.0938,1099.625 899.5,1099.3594 Q898.9063,1099.0781 898.2813,1099.0781 Q896.9375,1099.0781 896.25,1100.1563 Q895.5625,1101.2188 895.5625,1103.3125 Q895.5625,1105.4063 896.25,1106.4844 Q896.9375,1107.5469 898.2813,1107.5469 Q898.9063,1107.5469 899.5,1107.2813 Q900.0938,1107 900.7188,1106.4219 L900.7188,1109.1406 Z " fill="#000000"/><text fill="#000000" font-family="sans-serif" font-size="12" lengthAdjust="spacing" textLength="122" x="918.25" y="1107.6543">CenterPerformance</text><line style="stroke:#A80036;stroke-width:1.5;" x1="756.5" x2="1169.5" y1="1119.5" y2="1119.5"/><text fill="#000000" font-family="sans-serif" font-size="11" lengthAdjust="spacing" textLength="58" x="761.5" y="1133.7104">-day: Date</text><text fill="#000000" font-family="sans-serif" font-size="11" lengthAdjust="spacing" textLength="68" x="761.5" y="1146.5151">-interval: int</text><text fill="#000000" font-family="sans-serif" font-size="11" lengthAdjust="spacing" textLength="80" x="761.5" y="1159.3198">-inputList: List</text><text fill="#000000" font-family="sans-serif" font-size="11" lengthAdjust="spacing" textLength="116" x="761.5" y="1172.1245">-optimalSubList: List</text><text fill="#000000" font-family="sans-serif" font-size="11" lengthAdjust="spacing" textLength="94" x="761.5" y="1184.9292">-optimalSum: int</text><line style="stroke:#A80036;stroke-width:1.5;" x1="756.5" x2="1169.5" y1="1191.5234" y2="1191.5234"/><text fill="#000000" font-family="sans-serif" font-size="11" lengthAdjust="spacing" textLength="403" x="761.5" y="1205.7339">+CenterPerformance(day,interval,inputList,optimalSublist,optimalSum)</text><!--MD5=[ad586fe025efc8307d6b66bf6c839593]
class AnalyseCenterPerformanceController--><rect codeLine="86" fill="#FEFECE" filter="url(#fpqzix0fsyxp1)" height="86.4141" id="AnalyseCenterPerformanceController" style="stroke:#A80036;stroke-width:1.5;" width="524" x="511" y="216"/><ellipse cx="653.25" cy="232" fill="#ADD1B2" rx="11" ry="11" style="stroke:#A80036;stroke-width:1.0;"/><path d="M656.2188,237.6406 Q655.6406,237.9375 655,238.0781 Q654.3594,238.2344 653.6563,238.2344 Q651.1563,238.2344 649.8281,236.5938 Q648.5156,234.9375 648.5156,231.8125 Q648.5156,228.6875 649.8281,227.0313 Q651.1563,225.375 653.6563,225.375 Q654.3594,225.375 655,225.5313 Q655.6563,225.6875 656.2188,225.9844 L656.2188,228.7031 Q655.5938,228.125 655,227.8594 Q654.4063,227.5781 653.7813,227.5781 Q652.4375,227.5781 651.75,228.6563 Q651.0625,229.7188 651.0625,231.8125 Q651.0625,233.9063 651.75,234.9844 Q652.4375,236.0469 653.7813,236.0469 Q654.4063,236.0469 655,235.7813 Q655.5938,235.5 656.2188,234.9219 L656.2188,237.6406 Z " fill="#000000"/><text fill="#000000" font-family="sans-serif" font-size="12" lengthAdjust="spacing" textLength="231" x="673.75" y="236.1543">AnalyseCenterPerformanceController</text><line style="stroke:#A80036;stroke-width:1.5;" x1="512" x2="1034" y1="248" y2="248"/><line style="stroke:#A80036;stroke-width:1.5;" x1="512" x2="1034" y1="256" y2="256"/><text fill="#000000" font-family="sans-serif" font-size="11" lengthAdjust="spacing" textLength="97" x="517" y="270.2104">+getCategories()</text><text fill="#000000" font-family="sans-serif" font-size="11" lengthAdjust="spacing" textLength="512" x="517" y="283.0151">+CheckWaitingRoom(ref,designation,informalDesc,technicalDesc,duration,cost,categoryId)</text><text fill="#000000" font-family="sans-serif" font-size="11" lengthAdjust="spacing" textLength="71" x="517" y="295.8198">+saveTask()</text><!--MD5=[2e42295458bb0bec21c9622a623eb29e]
class Time--><rect codeLine="94" fill="#FEFECE" filter="url(#fpqzix0fsyxp1)" height="99.2188" id="Time" style="stroke:#A80036;stroke-width:1.5;" width="126" x="1321" y="1349"/><ellipse cx="1365.25" cy="1365" fill="#ADD1B2" rx="11" ry="11" style="stroke:#A80036;stroke-width:1.0;"/><path d="M1368.2188,1370.6406 Q1367.6406,1370.9375 1367,1371.0781 Q1366.3594,1371.2344 1365.6563,1371.2344 Q1363.1563,1371.2344 1361.8281,1369.5938 Q1360.5156,1367.9375 1360.5156,1364.8125 Q1360.5156,1361.6875 1361.8281,1360.0313 Q1363.1563,1358.375 1365.6563,1358.375 Q1366.3594,1358.375 1367,1358.5313 Q1367.6563,1358.6875 1368.2188,1358.9844 L1368.2188,1361.7031 Q1367.5938,1361.125 1367,1360.8594 Q1366.4063,1360.5781 1365.7813,1360.5781 Q1364.4375,1360.5781 1363.75,1361.6563 Q1363.0625,1362.7188 1363.0625,1364.8125 Q1363.0625,1366.9063 1363.75,1367.9844 Q1364.4375,1369.0469 1365.7813,1369.0469 Q1366.4063,1369.0469 1367,1368.7813 Q1367.5938,1368.5 1368.2188,1367.9219 L1368.2188,1370.6406 Z " fill="#000000"/><text fill="#000000" font-family="sans-serif" font-size="12" lengthAdjust="spacing" textLength="29" x="1385.75" y="1369.1543">Time</text><line style="stroke:#A80036;stroke-width:1.5;" x1="1322" x2="1446" y1="1381" y2="1381"/><text fill="#000000" font-family="sans-serif" font-size="11" lengthAdjust="spacing" textLength="52" x="1327" y="1395.2104">-hour: int</text><text fill="#000000" font-family="sans-serif" font-size="11" lengthAdjust="spacing" textLength="65" x="1327" y="1408.0151">-minute: int</text><line style="stroke:#A80036;stroke-width:1.5;" x1="1322" x2="1446" y1="1414.6094" y2="1414.6094"/><text fill="#000000" font-family="sans-serif" font-size="11" lengthAdjust="spacing" textLength="114" x="1327" y="1428.8198">+Time(hour,minute)</text><text fill="#000000" font-family="sans-serif" font-size="11" lengthAdjust="spacing" textLength="70" x="1327" y="1441.6245">+Time(time)</text><!--MD5=[1d13de5e760cdeae93ca6db6fe28e2cb]
link AnalyseCenterPerformanceUI to AnalyseCenterPerformanceController--><path codeLine="104" d="M773,89.16 C773,119.13 773,172.08 773,210.72 " fill="none" id="AnalyseCenterPerformanceUI-to-AnalyseCenterPerformanceController" style="stroke:#A80036;stroke-width:1.0;stroke-dasharray:7.0,7.0;"/><polygon fill="#A80036" points="773,215.83,777,206.83,773,210.83,769,206.83,773,215.83" style="stroke:#A80036;stroke-width:1.0;"/><!--MD5=[cc56671b7038e21fc613037a00d35007]
link AnalyseCenterPerformanceController to Company--><path codeLine="105" d="M773,302.1 C773,324.98 773,353.93 773,380.41 " fill="none" id="AnalyseCenterPerformanceController-to-Company" style="stroke:#A80036;stroke-width:1.0;stroke-dasharray:7.0,7.0;"/><polygon fill="#A80036" points="773,385.67,777,376.67,773,380.67,769,376.67,773,385.67" style="stroke:#A80036;stroke-width:1.0;"/><!--MD5=[db5fb34fd733ab3677281d60b785e712]
reverse link VaccinationCenter to Employee--><path codeLine="107" d="M605.71,1003.42 C553.3,1026.42 495.45,1051.81 442.93,1074.86 " fill="none" id="VaccinationCenter-backto-Employee" style="stroke:#A80036;stroke-width:1.0;"/><polygon fill="#FFFFFF" points="617.85,998.09,610.7491,996.8343,606.8588,1002.9061,613.9598,1004.1617,617.85,998.09" style="stroke:#A80036;stroke-width:1.0;"/><text fill="#000000" font-family="sans-serif" font-size="13" lengthAdjust="spacing" textLength="73" x="539" y="1041.0669">coordinator</text><!--MD5=[91079b08053e6fc6d0a3af85820ed36a]
reverse link VaccinationCenter to Time--><path codeLine="108" d="M1184.02,978.57 C1288.29,999.69 1380.19,1029.24 1413,1070 C1477.33,1149.93 1437.03,1279.07 1407.31,1348.92 " fill="none" id="VaccinationCenter-backto-Time" style="stroke:#A80036;stroke-width:1.0;"/><polygon fill="#FFFFFF" points="1171.24,976.03,1176.3467,981.1213,1183.0105,978.3656,1177.9038,973.2743,1171.24,976.03" style="stroke:#A80036;stroke-width:1.0;"/><text fill="#000000" font-family="sans-serif" font-size="13" lengthAdjust="spacing" textLength="89" x="1448" y="1154.5669">openingHours</text><!--MD5=[91079b08053e6fc6d0a3af85820ed36a]
reverse link VaccinationCenter to Time--><path codeLine="109" d="M1184.16,955.67 C1343.27,975.2 1498.61,1009.56 1546,1070 C1601.67,1141 1585.87,1192.07 1546,1273 C1525.39,1314.84 1483.2,1346.55 1447.05,1367.49 " fill="none" id="VaccinationCenter-backto-Time-1" style="stroke:#A80036;stroke-width:1.0;"/><polygon fill="#FFFFFF" points="1171.22,954.12,1176.7031,958.8035,1183.1353,955.5435,1177.6521,950.86,1171.22,954.12" style="stroke:#A80036;stroke-width:1.0;"/><text fill="#000000" font-family="sans-serif" font-size="13" lengthAdjust="spacing" textLength="82" x="1583" y="1154.5669">closingHours</text><!--MD5=[99cf60c71dc20007695665c9ea3c4eb1]
reverse link VaccinationCenter to Slot--><path codeLine="110" d="M715.16,1008.68 C690.82,1041.79 663.47,1078.99 643.05,1106.76 " fill="none" id="VaccinationCenter-backto-Slot" style="stroke:#A80036;stroke-width:1.0;"/><polygon fill="#FFFFFF" points="722.94,998.09,716.1646,1000.5586,715.8374,1007.7622,722.6128,1005.2937,722.94,998.09" style="stroke:#A80036;stroke-width:1.0;"/><!--MD5=[b5cfad5f497f25fae1c228f2df0e544a]
reverse link VaccinationCenter to CenterEventList--><path codeLine="111" d="M1018.6,1002.32 C1074.95,1021.85 1133.88,1044.68 1187,1070 C1212.38,1082.1 1238.91,1098.3 1260.97,1112.88 " fill="none" id="VaccinationCenter-backto-CenterEventList" style="stroke:#A80036;stroke-width:1.0;"/><polygon fill="#A80036" points="1006.24,998.08,1010.6196,1003.8088,1017.5922,1001.9695,1013.2126,996.2407,1006.24,998.08" style="stroke:#A80036;stroke-width:1.0;"/><!--MD5=[85d8b15e810c9ff729a9ea97d09bcb70]
link VaccinationCenter to CenterPerformance--><path codeLine="113" d="M832.08,998.09 C856.8,1026.6 885.34,1059.49 909.45,1087.27 " fill="none" id="VaccinationCenter-CenterPerformance" style="stroke:#A80036;stroke-width:1.0;"/><polygon fill="#000000" points="876.2766,1040.3432,872.5691,1031.585,868.1293,1035.4369,876.2766,1040.3432" style="stroke:#000000;stroke-width:1.0;"/><text fill="#000000" font-family="sans-serif" font-size="13" lengthAdjust="spacing" textLength="65" x="882" y="1041.0669">generates</text><text fill="#000000" font-family="sans-serif" font-size="13" lengthAdjust="spacing" textLength="8" x="829.5019" y="1017.7208">1</text><text fill="#000000" font-family="sans-serif" font-size="13" lengthAdjust="spacing" textLength="7" x="895.8536" y="1076.2342">*</text><!--MD5=[7128e4477b9604ff8fff1a66f8872886]
reverse link CenterPerformance to Time--><path codeLine="115" d="M1048.21,1220.66 C1082.16,1246.68 1122.32,1275.38 1161,1298 C1212.6,1328.18 1275.01,1355.29 1320.67,1373.57 " fill="none" id="CenterPerformance-backto-Time" style="stroke:#A80036;stroke-width:1.0;"/><polygon fill="#FFFFFF" points="1037.88,1212.68,1040.1841,1219.5131,1047.3777,1220.0144,1045.0737,1213.1813,1037.88,1212.68" style="stroke:#A80036;stroke-width:1.0;"/><text fill="#000000" font-family="sans-serif" font-size="13" lengthAdjust="spacing" textLength="96" x="1162" y="1294.0669">startingInterval</text><!--MD5=[7128e4477b9604ff8fff1a66f8872886]
reverse link CenterPerformance to Time--><path codeLine="116" d="M1081.87,1218.61 C1121.83,1238.84 1167.36,1259.27 1211,1273 C1233.3,1280.02 1242.04,1270.63 1263,1281 C1295.15,1296.91 1324.34,1324.42 1345.99,1348.72 " fill="none" id="CenterPerformance-backto-Time-1" style="stroke:#A80036;stroke-width:1.0;"/><polygon fill="#FFFFFF" points="1070.21,1212.64,1073.7228,1218.9376,1080.8871,1218.1171,1077.3743,1211.8195,1070.21,1212.64" style="stroke:#A80036;stroke-width:1.0;"/><text fill="#000000" font-family="sans-serif" font-size="13" lengthAdjust="spacing" textLength="90" x="1291" y="1294.0669">endingInterval</text><!--MD5=[8c304936b446fd8cea914e03fbadd4b7]
link VaccinationCenterStore to VaccinationCenter--><path codeLine="118" d="M773,760.26 C773,791.57 773,828.6 773,859.89 " fill="none" id="VaccinationCenterStore-VaccinationCenter" style="stroke:#A80036;stroke-width:1.0;"/><polygon fill="#000000" points="778,805.5664,780.9389,796.5213,775.0611,796.5213,778,805.5664" style="stroke:#000000;stroke-width:1.0;"/><text fill="#000000" font-family="sans-serif" font-size="13" lengthAdjust="spacing" textLength="40" x="787" y="805.0669">stores</text><text fill="#000000" font-family="sans-serif" font-size="13" lengthAdjust="spacing" textLength="8" x="764.6188" y="779.6669">1</text><text fill="#000000" font-family="sans-serif" font-size="13" lengthAdjust="spacing" textLength="7" x="765.6391" y="849.0823">*</text><!--MD5=[bc0d5b4bfe6e1bf0a8fced13bc4bdd47]
link Company to VaccinationCenterStore--><path codeLine="120" d="M773,524.31 C773,554.93 773,590.97 773,621.6 " fill="none" id="Company-VaccinationCenterStore" style="stroke:#A80036;stroke-width:1.0;"/><polygon fill="#000000" points="778,567.5664,780.9389,558.5213,775.0611,558.5213,778,567.5664" style="stroke:#000000;stroke-width:1.0;"/><text fill="#000000" font-family="sans-serif" font-size="13" lengthAdjust="spacing" textLength="39" x="787" y="567.0669">knows</text><text fill="#000000" font-family="sans-serif" font-size="13" lengthAdjust="spacing" textLength="8" x="764.6188" y="543.7217">1</text><text fill="#000000" font-family="sans-serif" font-size="13" lengthAdjust="spacing" textLength="8" x="764.5875" y="610.7624">1</text><!--MD5=[3b9a3d73c7ea91582a1aa62fa95f78d1]
@startuml
skinparam classAttributeIconSize 0

package UI {
  class AnalyseCenterPerformanceUI {}
}

package core {
  package domain {
    package stores {
      class VaccinationCenterStore {
        +createVaccinationCenter(name,address,emailAddress,phoneNumber,faxNumber,websiteAddress,openingHours,closingHours,slotDuration,maximumVaccinesPerSlot,coordinator)
        +validateVaccinatonCenter(center)
        +saveVaccinationCenter(center)
        +checkDuplicates(center)
        +getVaccinationCenterWithPhone(phone)

        -addVaccinationCenter(center)
      }
    }

    package lists {
      class CenterEventList {
        - events: List<CenterEvent>

        +CenterEventList()
      }
    }

    package model {
      class VaccinationCenter {
        - name: String
        - address: String
        - emailAddress: String
        - phoneNumber: String
        - faxNumber: String
        - websiteAddress: String
        
        +VaccinationCenter(name,address,emailAddress,phoneNumber,faxNumber,websiteAddress,openingHours,closingHours,slot,coordinator)
      }

      class Employee {
        -id: String 
        -name: String 
        -email: String 
        -phone: String 
        -address: String 
        -citizenCardNumber: int 
        -roleId: String 

        +Employee(name,email,phone,address,citizenCardNumber,roleId)
      }

      class Slot {
        -duration: int
        -maxVaccinesPerSlot: int

        +Slot(duration,maxVaccinesPerSlot)
      }

      class CenterPerformance {
        - day: Date
        - interval: int
        - inputList: List
        - optimalSubList: List
        - optimalSum: int

        +CenterPerformance(day,interval,inputList,optimalSublist,optimalSum)
      }
    }

    class Company {
      -designation: String
      -authFacade: AuthFacade
      -vaccinationCenterStore: VaccinationCenterStore
      
      +Company(designation)

      +getAuthFacade()
      +getVaccinationCenterStore()
    }

    
  }

  package controllers {
    class AnalyseCenterPerformanceController {
      +getCategories()
      +CheckWaitingRoom(ref,designation,informalDesc,technicalDesc,duration,cost,categoryId)
      +saveTask()
    }
  }

  package utils {
    class Time {
      - hour: int
      - minute: int
      
      +Time(hour,minute)
      +Time(time)
    }
  }
}

AnalyseCenterPerformanceUI ..> AnalyseCenterPerformanceController
AnalyseCenterPerformanceController ..> Company

VaccinationCenter o- - Employee : coordinator
VaccinationCenter o- - Time : openingHours
VaccinationCenter o- - Time : closingHours
VaccinationCenter o- - Slot
VaccinationCenter *- - CenterEventList

VaccinationCenter "1" - - "*" CenterPerformance : generates >

CenterPerformance o- - Time : startingInterval
CenterPerformance o- - Time : endingInterval

VaccinationCenterStore "1" - - "*" VaccinationCenter : stores >

Company "1" - - "1" VaccinationCenterStore : knows >

@enduml

PlantUML version 1.2022.0(Tue Jan 11 16:16:42 WET 2022)
(GPL source distribution)
Java Runtime: OpenJDK Runtime Environment
JVM: OpenJDK 64-Bit Server VM
Default Encoding: UTF-8
Language: en
Country: US
--></g></svg>