<?xml version="1.0" encoding="UTF-8" standalone="no"?><svg xmlns="http://www.w3.org/2000/svg" xmlns:xlink="http://www.w3.org/1999/xlink" contentScriptType="application/ecmascript" contentStyleType="text/css" height="1347px" preserveAspectRatio="none" style="width:1375px;height:1347px;background:#FFFFFF;" version="1.1" viewBox="0 0 1375 1347" width="1375px" zoomAndPan="magnify"><defs><filter height="300%" id="ffignztqhwqdi" width="300%" x="-1" y="-1"><feGaussianBlur result="blurOut" stdDeviation="2.0"/><feColorMatrix in="blurOut" result="blurOut2" type="matrix" values="0 0 0 0 0 0 0 0 0 0 0 0 0 0 0 0 0 0 .4 0"/><feOffset dx="4.0" dy="4.0" in="blurOut2" result="blurOut3"/><feBlend in="SourceGraphic" in2="blurOut3" mode="normal"/></filter></defs><g><!--MD5=[9681dc6e01e10c6b4fe06895ae94f592]
cluster UI--><polygon fill="#FFFFFF" filter="url(#ffignztqhwqdi)" points="473,6,494,6,501,28.2969,719,28.2969,719,105,473,105,473,6" style="stroke:#000000;stroke-width:1.5;"/><line style="stroke:#000000;stroke-width:1.5;" x1="473" x2="501" y1="28.2969" y2="28.2969"/><text fill="#000000" font-family="sans-serif" font-size="14" font-weight="bold" lengthAdjust="spacing" textLength="15" x="477" y="20.9951">UI</text><!--MD5=[01435ace8273dc3cae88e7f376e4d373]
cluster core--><polygon fill="#FFFFFF" filter="url(#ffignztqhwqdi)" points="16,138,58,138,65,160.2969,1358,160.2969,1358,1340,16,1340,16,138" style="stroke:#000000;stroke-width:1.5;"/><line style="stroke:#000000;stroke-width:1.5;" x1="16" x2="65" y1="160.2969" y2="160.2969"/><text fill="#000000" font-family="sans-serif" font-size="14" font-weight="bold" lengthAdjust="spacing" textLength="36" x="20" y="152.9951">core</text><!--MD5=[27f772719433d509ddbc20ff768eba08]
cluster domain--><polygon fill="#FFFFFF" filter="url(#ffignztqhwqdi)" points="40,351,103,351,110,373.2969,1152,373.2969,1152,1316,40,1316,40,351" style="stroke:#000000;stroke-width:1.5;"/><line style="stroke:#000000;stroke-width:1.5;" x1="40" x2="110" y1="373.2969" y2="373.2969"/><text fill="#000000" font-family="sans-serif" font-size="14" font-weight="bold" lengthAdjust="spacing" textLength="57" x="44" y="365.9951">domain</text><!--MD5=[fbca5634cbc0239920b500cad9c4bedb]
cluster stores--><polygon fill="#FFFFFF" filter="url(#ffignztqhwqdi)" points="64,587,121,587,128,609.2969,1128,609.2969,1128,776,64,776,64,587" style="stroke:#000000;stroke-width:1.5;"/><line style="stroke:#000000;stroke-width:1.5;" x1="64" x2="128" y1="609.2969" y2="609.2969"/><text fill="#000000" font-family="sans-serif" font-size="14" font-weight="bold" lengthAdjust="spacing" textLength="51" x="68" y="601.9951">stores</text><!--MD5=[74377f9e5257669286bfbcdea75789c1]
cluster lists--><polygon fill="#FFFFFF" filter="url(#ffignztqhwqdi)" points="926,1129,964,1129,971,1151.2969,1128,1151.2969,1128,1254,926,1254,926,1129" style="stroke:#000000;stroke-width:1.5;"/><line style="stroke:#000000;stroke-width:1.5;" x1="926" x2="971" y1="1151.2969" y2="1151.2969"/><text fill="#000000" font-family="sans-serif" font-size="14" font-weight="bold" lengthAdjust="spacing" textLength="32" x="930" y="1143.9951">lists</text><!--MD5=[5d4cd377749310b66bf14896f5cd8d9b]
cluster model--><polygon fill="#FFFFFF" filter="url(#ffignztqhwqdi)" points="74,825,128,825,135,847.2969,902,847.2969,902,1292,74,1292,74,825" style="stroke:#000000;stroke-width:1.5;"/><line style="stroke:#000000;stroke-width:1.5;" x1="74" x2="135" y1="847.2969" y2="847.2969"/><text fill="#000000" font-family="sans-serif" font-size="14" font-weight="bold" lengthAdjust="spacing" textLength="48" x="78" y="839.9951">model</text><!--MD5=[f4e70ef68289585296b9045165e58692]
cluster controllers--><polygon fill="#FFFFFF" filter="url(#ffignztqhwqdi)" points="318,181,410,181,417,203.2969,874,203.2969,874,318,318,318,318,181" style="stroke:#000000;stroke-width:1.5;"/><line style="stroke:#000000;stroke-width:1.5;" x1="318" x2="417" y1="203.2969" y2="203.2969"/><text fill="#000000" font-family="sans-serif" font-size="14" font-weight="bold" lengthAdjust="spacing" textLength="86" x="322" y="195.9951">controllers</text><!--MD5=[c52f45833d539af9e29a9d34b8b7302b]
cluster utils--><polygon fill="#FFFFFF" filter="url(#ffignztqhwqdi)" points="1176,1116.5,1215,1116.5,1222,1138.7969,1334,1138.7969,1334,1266.5,1176,1266.5,1176,1116.5" style="stroke:#000000;stroke-width:1.5;"/><line style="stroke:#000000;stroke-width:1.5;" x1="1176" x2="1222" y1="1138.7969" y2="1138.7969"/><text fill="#000000" font-family="sans-serif" font-size="14" font-weight="bold" lengthAdjust="spacing" textLength="33" x="1180" y="1131.4951">utils</text><!--MD5=[7b0cfd9e7522513355bc4d2674f12d2a]
class AnalyseCenterPerformanceUI--><rect codeLine="4" fill="#FEFECE" filter="url(#ffignztqhwqdi)" height="48" id="AnalyseCenterPerformanceUI" style="stroke:#A80036;stroke-width:1.5;" width="214" x="489" y="41"/><ellipse cx="504" cy="57" fill="#ADD1B2" rx="11" ry="11" style="stroke:#A80036;stroke-width:1.0;"/><path d="M506.9688,62.6406 Q506.3906,62.9375 505.75,63.0781 Q505.1094,63.2344 504.4063,63.2344 Q501.9063,63.2344 500.5781,61.5938 Q499.2656,59.9375 499.2656,56.8125 Q499.2656,53.6875 500.5781,52.0313 Q501.9063,50.375 504.4063,50.375 Q505.1094,50.375 505.75,50.5313 Q506.4063,50.6875 506.9688,50.9844 L506.9688,53.7031 Q506.3438,53.125 505.75,52.8594 Q505.1563,52.5781 504.5313,52.5781 Q503.1875,52.5781 502.5,53.6563 Q501.8125,54.7188 501.8125,56.8125 Q501.8125,58.9063 502.5,59.9844 Q503.1875,61.0469 504.5313,61.0469 Q505.1563,61.0469 505.75,60.7813 Q506.3438,60.5 506.9688,59.9219 L506.9688,62.6406 Z " fill="#000000"/><text fill="#000000" font-family="sans-serif" font-size="12" lengthAdjust="spacing" textLength="182" x="518" y="61.1543">AnalyseCenterPerformanceUI</text><line style="stroke:#A80036;stroke-width:1.5;" x1="490" x2="702" y1="73" y2="73"/><line style="stroke:#A80036;stroke-width:1.5;" x1="490" x2="702" y1="81" y2="81"/><!--MD5=[02e4b9b7573f1156f41e60aa5b4e25a4]
class Company--><rect codeLine="65" fill="#FEFECE" filter="url(#ffignztqhwqdi)" height="137.6328" id="Company" style="stroke:#A80036;stroke-width:1.5;" width="289" x="451.5" y="386"/><ellipse cx="563.25" cy="402" fill="#ADD1B2" rx="11" ry="11" style="stroke:#A80036;stroke-width:1.0;"/><path d="M566.2188,407.6406 Q565.6406,407.9375 565,408.0781 Q564.3594,408.2344 563.6563,408.2344 Q561.1563,408.2344 559.8281,406.5938 Q558.5156,404.9375 558.5156,401.8125 Q558.5156,398.6875 559.8281,397.0313 Q561.1563,395.375 563.6563,395.375 Q564.3594,395.375 565,395.5313 Q565.6563,395.6875 566.2188,395.9844 L566.2188,398.7031 Q565.5938,398.125 565,397.8594 Q564.4063,397.5781 563.7813,397.5781 Q562.4375,397.5781 561.75,398.6563 Q561.0625,399.7188 561.0625,401.8125 Q561.0625,403.9063 561.75,404.9844 Q562.4375,406.0469 563.7813,406.0469 Q564.4063,406.0469 565,405.7813 Q565.5938,405.5 566.2188,404.9219 L566.2188,407.6406 Z " fill="#000000"/><text fill="#000000" font-family="sans-serif" font-size="12" lengthAdjust="spacing" textLength="57" x="583.75" y="406.1543">Company</text><line style="stroke:#A80036;stroke-width:1.5;" x1="452.5" x2="739.5" y1="418" y2="418"/><text fill="#000000" font-family="sans-serif" font-size="11" lengthAdjust="spacing" textLength="112" x="457.5" y="432.2104">-designation: String</text><text fill="#000000" font-family="sans-serif" font-size="11" lengthAdjust="spacing" textLength="142" x="457.5" y="445.0151">-authFacade: AuthFacade</text><text fill="#000000" font-family="sans-serif" font-size="11" lengthAdjust="spacing" textLength="277" x="457.5" y="457.8198">-vaccinationCenterStore: VaccinationCenterStore</text><line style="stroke:#A80036;stroke-width:1.5;" x1="452.5" x2="739.5" y1="464.4141" y2="464.4141"/><text fill="#000000" font-family="sans-serif" font-size="11" lengthAdjust="spacing" textLength="136" x="457.5" y="478.6245">+Company(designation)</text><text fill="#000000" font-family="sans-serif" font-size="11" lengthAdjust="spacing" textLength="0" x="461.5" y="491.4292"/><text fill="#000000" font-family="sans-serif" font-size="11" lengthAdjust="spacing" textLength="100" x="457.5" y="504.2339">+getAuthFacade()</text><text fill="#000000" font-family="sans-serif" font-size="11" lengthAdjust="spacing" textLength="168" x="457.5" y="517.0386">+getVaccinationCenterStore()</text><!--MD5=[a29876ea2f21a6ca48ea477740122fd8]
class VaccinationCenterStore--><rect codeLine="10" fill="#FEFECE" filter="url(#ffignztqhwqdi)" height="137.6328" id="VaccinationCenterStore" style="stroke:#A80036;stroke-width:1.5;" width="1031" x="80.5" y="622"/><ellipse cx="517.25" cy="638" fill="#ADD1B2" rx="11" ry="11" style="stroke:#A80036;stroke-width:1.0;"/><path d="M520.2188,643.6406 Q519.6406,643.9375 519,644.0781 Q518.3594,644.2344 517.6563,644.2344 Q515.1563,644.2344 513.8281,642.5938 Q512.5156,640.9375 512.5156,637.8125 Q512.5156,634.6875 513.8281,633.0313 Q515.1563,631.375 517.6563,631.375 Q518.3594,631.375 519,631.5313 Q519.6563,631.6875 520.2188,631.9844 L520.2188,634.7031 Q519.5938,634.125 519,633.8594 Q518.4063,633.5781 517.7813,633.5781 Q516.4375,633.5781 515.75,634.6563 Q515.0625,635.7188 515.0625,637.8125 Q515.0625,639.9063 515.75,640.9844 Q516.4375,642.0469 517.7813,642.0469 Q518.4063,642.0469 519,641.7813 Q519.5938,641.5 520.2188,640.9219 L520.2188,643.6406 Z " fill="#000000"/><text fill="#000000" font-family="sans-serif" font-size="12" lengthAdjust="spacing" textLength="149" x="537.75" y="642.1543">VaccinationCenterStore</text><line style="stroke:#A80036;stroke-width:1.5;" x1="81.5" x2="1110.5" y1="654" y2="654"/><line style="stroke:#A80036;stroke-width:1.5;" x1="81.5" x2="1110.5" y1="662" y2="662"/><text fill="#000000" font-family="sans-serif" font-size="11" lengthAdjust="spacing" textLength="1019" x="86.5" y="676.2104">+createVaccinationCenter(name,address,emailAddress,phoneNumber,faxNumber,websiteAddress,openingHours,closingHours,slotDuration,maximumVaccinesPerSlot,coordinator)</text><text fill="#000000" font-family="sans-serif" font-size="11" lengthAdjust="spacing" textLength="196" x="86.5" y="689.0151">+validateVaccinatonCenter(center)</text><text fill="#000000" font-family="sans-serif" font-size="11" lengthAdjust="spacing" textLength="182" x="86.5" y="701.8198">+saveVaccinationCenter(center)</text><text fill="#000000" font-family="sans-serif" font-size="11" lengthAdjust="spacing" textLength="144" x="86.5" y="714.6245">+checkDuplicates(center)</text><text fill="#000000" font-family="sans-serif" font-size="11" lengthAdjust="spacing" textLength="230" x="86.5" y="727.4292">+getVaccinationCenterWithPhone(phone)</text><text fill="#000000" font-family="sans-serif" font-size="11" lengthAdjust="spacing" textLength="0" x="90.5" y="740.2339"/><text fill="#000000" font-family="sans-serif" font-size="11" lengthAdjust="spacing" textLength="171" x="86.5" y="753.0386">-addVaccinationCenter(center)</text><!--MD5=[133fd58c9b09b9b9c6fed4b3816d1454]
class CenterEvents--><rect codeLine="22" fill="#FEFECE" filter="url(#ffignztqhwqdi)" height="73.6094" id="CenterEvents" style="stroke:#A80036;stroke-width:1.5;" width="169" x="942.5" y="1164"/><ellipse cx="981.35" cy="1180" fill="#ADD1B2" rx="11" ry="11" style="stroke:#A80036;stroke-width:1.0;"/><path d="M984.3188,1185.6406 Q983.7406,1185.9375 983.1,1186.0781 Q982.4594,1186.2344 981.7563,1186.2344 Q979.2563,1186.2344 977.9281,1184.5938 Q976.6156,1182.9375 976.6156,1179.8125 Q976.6156,1176.6875 977.9281,1175.0313 Q979.2563,1173.375 981.7563,1173.375 Q982.4594,1173.375 983.1,1173.5313 Q983.7563,1173.6875 984.3188,1173.9844 L984.3188,1176.7031 Q983.6938,1176.125 983.1,1175.8594 Q982.5063,1175.5781 981.8813,1175.5781 Q980.5375,1175.5781 979.85,1176.6563 Q979.1625,1177.7188 979.1625,1179.8125 Q979.1625,1181.9063 979.85,1182.9844 Q980.5375,1184.0469 981.8813,1184.0469 Q982.5063,1184.0469 983.1,1183.7813 Q983.6938,1183.5 984.3188,1182.9219 L984.3188,1185.6406 Z " fill="#000000"/><text fill="#000000" font-family="sans-serif" font-size="12" lengthAdjust="spacing" textLength="84" x="1000.65" y="1184.1543">CenterEvents</text><line style="stroke:#A80036;stroke-width:1.5;" x1="943.5" x2="1110.5" y1="1196" y2="1196"/><text fill="#000000" font-family="sans-serif" font-size="11" lengthAdjust="spacing" textLength="157" x="948.5" y="1210.2104">-events: List&lt;CenterEvent&gt;</text><line style="stroke:#A80036;stroke-width:1.5;" x1="943.5" x2="1110.5" y1="1216.8047" y2="1216.8047"/><text fill="#000000" font-family="sans-serif" font-size="11" lengthAdjust="spacing" textLength="93" x="948.5" y="1231.0151">+CenterEvents()</text><!--MD5=[de60e6d4f424ae4d0522096f76a59010]
class VaccinationCenter--><rect codeLine="30" fill="#FEFECE" filter="url(#ffignztqhwqdi)" height="188.8516" id="VaccinationCenter" style="stroke:#A80036;stroke-width:1.5;" width="796" x="90" y="860"/><ellipse cx="426.25" cy="876" fill="#ADD1B2" rx="11" ry="11" style="stroke:#A80036;stroke-width:1.0;"/><path d="M429.2188,881.6406 Q428.6406,881.9375 428,882.0781 Q427.3594,882.2344 426.6563,882.2344 Q424.1563,882.2344 422.8281,880.5938 Q421.5156,878.9375 421.5156,875.8125 Q421.5156,872.6875 422.8281,871.0313 Q424.1563,869.375 426.6563,869.375 Q427.3594,869.375 428,869.5313 Q428.6563,869.6875 429.2188,869.9844 L429.2188,872.7031 Q428.5938,872.125 428,871.8594 Q427.4063,871.5781 426.7813,871.5781 Q425.4375,871.5781 424.75,872.6563 Q424.0625,873.7188 424.0625,875.8125 Q424.0625,877.9063 424.75,878.9844 Q425.4375,880.0469 426.7813,880.0469 Q427.4063,880.0469 428,879.7813 Q428.5938,879.5 429.2188,878.9219 L429.2188,881.6406 Z " fill="#000000"/><text fill="#000000" font-family="sans-serif" font-size="12" lengthAdjust="spacing" textLength="115" x="446.75" y="880.1543">VaccinationCenter</text><line style="stroke:#A80036;stroke-width:1.5;" x1="91" x2="885" y1="892" y2="892"/><text fill="#000000" font-family="sans-serif" font-size="11" lengthAdjust="spacing" textLength="78" x="96" y="906.2104">-name: String</text><text fill="#000000" font-family="sans-serif" font-size="11" lengthAdjust="spacing" textLength="93" x="96" y="919.0151">-address: String</text><text fill="#000000" font-family="sans-serif" font-size="11" lengthAdjust="spacing" textLength="124" x="96" y="931.8198">-emailAddress: String</text><text fill="#000000" font-family="sans-serif" font-size="11" lengthAdjust="spacing" textLength="126" x="96" y="944.6245">-phoneNumber: String</text><text fill="#000000" font-family="sans-serif" font-size="11" lengthAdjust="spacing" textLength="108" x="96" y="957.4292">-faxNumber: String</text><text fill="#000000" font-family="sans-serif" font-size="11" lengthAdjust="spacing" textLength="137" x="96" y="970.2339">-websiteAddress: String</text><text fill="#000000" font-family="sans-serif" font-size="11" lengthAdjust="spacing" textLength="125" x="96" y="983.0386">-openingHours: String</text><text fill="#000000" font-family="sans-serif" font-size="11" lengthAdjust="spacing" textLength="120" x="96" y="995.8433">-closingHours: String</text><text fill="#000000" font-family="sans-serif" font-size="11" lengthAdjust="spacing" textLength="95" x="96" y="1008.6479">-slotDuration: int</text><text fill="#000000" font-family="sans-serif" font-size="11" lengthAdjust="spacing" textLength="173" x="96" y="1021.4526">-maximumVaccinesPerSlot: int</text><line style="stroke:#A80036;stroke-width:1.5;" x1="91" x2="885" y1="1028.0469" y2="1028.0469"/><text fill="#000000" font-family="sans-serif" font-size="11" lengthAdjust="spacing" textLength="784" x="96" y="1042.2573">+VaccinationCenter(name,address,emailAddress,phoneNumber,faxNumber,websiteAddress,openingHours,closingHours,slot,coordinator)</text><!--MD5=[7421f545a0d8420c5bec41e74b387d9c]
class Employee--><rect codeLine="45" fill="#FEFECE" filter="url(#ffignztqhwqdi)" height="150.4375" id="Employee" style="stroke:#A80036;stroke-width:1.5;" width="388" x="151" y="1126"/><ellipse cx="310.75" cy="1142" fill="#ADD1B2" rx="11" ry="11" style="stroke:#A80036;stroke-width:1.0;"/><path d="M313.7188,1147.6406 Q313.1406,1147.9375 312.5,1148.0781 Q311.8594,1148.2344 311.1563,1148.2344 Q308.6563,1148.2344 307.3281,1146.5938 Q306.0156,1144.9375 306.0156,1141.8125 Q306.0156,1138.6875 307.3281,1137.0313 Q308.6563,1135.375 311.1563,1135.375 Q311.8594,1135.375 312.5,1135.5313 Q313.1563,1135.6875 313.7188,1135.9844 L313.7188,1138.7031 Q313.0938,1138.125 312.5,1137.8594 Q311.9063,1137.5781 311.2813,1137.5781 Q309.9375,1137.5781 309.25,1138.6563 Q308.5625,1139.7188 308.5625,1141.8125 Q308.5625,1143.9063 309.25,1144.9844 Q309.9375,1146.0469 311.2813,1146.0469 Q311.9063,1146.0469 312.5,1145.7813 Q313.0938,1145.5 313.7188,1144.9219 L313.7188,1147.6406 Z " fill="#000000"/><text fill="#000000" font-family="sans-serif" font-size="12" lengthAdjust="spacing" textLength="60" x="331.25" y="1146.1543">Employee</text><line style="stroke:#A80036;stroke-width:1.5;" x1="152" x2="538" y1="1158" y2="1158"/><text fill="#000000" font-family="sans-serif" font-size="11" lengthAdjust="spacing" textLength="56" x="157" y="1172.2104">-id: String</text><text fill="#000000" font-family="sans-serif" font-size="11" lengthAdjust="spacing" textLength="78" x="157" y="1185.0151">-name: String</text><text fill="#000000" font-family="sans-serif" font-size="11" lengthAdjust="spacing" textLength="77" x="157" y="1197.8198">-email: String</text><text fill="#000000" font-family="sans-serif" font-size="11" lengthAdjust="spacing" textLength="81" x="157" y="1210.6245">-phone: String</text><text fill="#000000" font-family="sans-serif" font-size="11" lengthAdjust="spacing" textLength="93" x="157" y="1223.4292">-address: String</text><text fill="#000000" font-family="sans-serif" font-size="11" lengthAdjust="spacing" textLength="133" x="157" y="1236.2339">-citizenCardNumber: int</text><text fill="#000000" font-family="sans-serif" font-size="11" lengthAdjust="spacing" textLength="78" x="157" y="1249.0386">-roleId: String</text><line style="stroke:#A80036;stroke-width:1.5;" x1="152" x2="538" y1="1255.6328" y2="1255.6328"/><text fill="#000000" font-family="sans-serif" font-size="11" lengthAdjust="spacing" textLength="376" x="157" y="1269.8433">+Employee(name,email,phone,address,citizenCardNumber,roleId)</text><!--MD5=[45c6380d22fb72521f5065026b277fb9]
class Slot--><rect codeLine="57" fill="#FEFECE" filter="url(#ffignztqhwqdi)" height="86.4141" id="Slot" style="stroke:#A80036;stroke-width:1.5;" width="217" x="574.5" y="1158"/><ellipse cx="666.75" cy="1174" fill="#ADD1B2" rx="11" ry="11" style="stroke:#A80036;stroke-width:1.0;"/><path d="M669.7188,1179.6406 Q669.1406,1179.9375 668.5,1180.0781 Q667.8594,1180.2344 667.1563,1180.2344 Q664.6563,1180.2344 663.3281,1178.5938 Q662.0156,1176.9375 662.0156,1173.8125 Q662.0156,1170.6875 663.3281,1169.0313 Q664.6563,1167.375 667.1563,1167.375 Q667.8594,1167.375 668.5,1167.5313 Q669.1563,1167.6875 669.7188,1167.9844 L669.7188,1170.7031 Q669.0938,1170.125 668.5,1169.8594 Q667.9063,1169.5781 667.2813,1169.5781 Q665.9375,1169.5781 665.25,1170.6563 Q664.5625,1171.7188 664.5625,1173.8125 Q664.5625,1175.9063 665.25,1176.9844 Q665.9375,1178.0469 667.2813,1178.0469 Q667.9063,1178.0469 668.5,1177.7813 Q669.0938,1177.5 669.7188,1176.9219 L669.7188,1179.6406 Z " fill="#000000"/><text fill="#000000" font-family="sans-serif" font-size="12" lengthAdjust="spacing" textLength="24" x="687.25" y="1178.1543">Slot</text><line style="stroke:#A80036;stroke-width:1.5;" x1="575.5" x2="790.5" y1="1190" y2="1190"/><text fill="#000000" font-family="sans-serif" font-size="11" lengthAdjust="spacing" textLength="73" x="580.5" y="1204.2104">-duration: int</text><text fill="#000000" font-family="sans-serif" font-size="11" lengthAdjust="spacing" textLength="141" x="580.5" y="1217.0151">-maxVaccinesPerSlot: int</text><line style="stroke:#A80036;stroke-width:1.5;" x1="575.5" x2="790.5" y1="1223.6094" y2="1223.6094"/><text fill="#000000" font-family="sans-serif" font-size="11" lengthAdjust="spacing" textLength="205" x="580.5" y="1237.8198">+Slot(duration,maxVaccinesPerSlot)</text><!--MD5=[ad586fe025efc8307d6b66bf6c839593]
class AnalyseCenterPerformanceController--><rect codeLine="80" fill="#FEFECE" filter="url(#ffignztqhwqdi)" height="86.4141" id="AnalyseCenterPerformanceController" style="stroke:#A80036;stroke-width:1.5;" width="524" x="334" y="216"/><ellipse cx="476.25" cy="232" fill="#ADD1B2" rx="11" ry="11" style="stroke:#A80036;stroke-width:1.0;"/><path d="M479.2188,237.6406 Q478.6406,237.9375 478,238.0781 Q477.3594,238.2344 476.6563,238.2344 Q474.1563,238.2344 472.8281,236.5938 Q471.5156,234.9375 471.5156,231.8125 Q471.5156,228.6875 472.8281,227.0313 Q474.1563,225.375 476.6563,225.375 Q477.3594,225.375 478,225.5313 Q478.6563,225.6875 479.2188,225.9844 L479.2188,228.7031 Q478.5938,228.125 478,227.8594 Q477.4063,227.5781 476.7813,227.5781 Q475.4375,227.5781 474.75,228.6563 Q474.0625,229.7188 474.0625,231.8125 Q474.0625,233.9063 474.75,234.9844 Q475.4375,236.0469 476.7813,236.0469 Q477.4063,236.0469 478,235.7813 Q478.5938,235.5 479.2188,234.9219 L479.2188,237.6406 Z " fill="#000000"/><text fill="#000000" font-family="sans-serif" font-size="12" lengthAdjust="spacing" textLength="231" x="496.75" y="236.1543">AnalyseCenterPerformanceController</text><line style="stroke:#A80036;stroke-width:1.5;" x1="335" x2="857" y1="248" y2="248"/><line style="stroke:#A80036;stroke-width:1.5;" x1="335" x2="857" y1="256" y2="256"/><text fill="#000000" font-family="sans-serif" font-size="11" lengthAdjust="spacing" textLength="97" x="340" y="270.2104">+getCategories()</text><text fill="#000000" font-family="sans-serif" font-size="11" lengthAdjust="spacing" textLength="512" x="340" y="283.0151">+CheckWaitingRoom(ref,designation,informalDesc,technicalDesc,duration,cost,categoryId)</text><text fill="#000000" font-family="sans-serif" font-size="11" lengthAdjust="spacing" textLength="71" x="340" y="295.8198">+saveTask()</text><!--MD5=[2e42295458bb0bec21c9622a623eb29e]
class Time--><rect codeLine="88" fill="#FEFECE" filter="url(#ffignztqhwqdi)" height="99.2188" id="Time" style="stroke:#A80036;stroke-width:1.5;" width="126" x="1192" y="1151.5"/><ellipse cx="1236.25" cy="1167.5" fill="#ADD1B2" rx="11" ry="11" style="stroke:#A80036;stroke-width:1.0;"/><path d="M1239.2188,1173.1406 Q1238.6406,1173.4375 1238,1173.5781 Q1237.3594,1173.7344 1236.6563,1173.7344 Q1234.1563,1173.7344 1232.8281,1172.0938 Q1231.5156,1170.4375 1231.5156,1167.3125 Q1231.5156,1164.1875 1232.8281,1162.5313 Q1234.1563,1160.875 1236.6563,1160.875 Q1237.3594,1160.875 1238,1161.0313 Q1238.6563,1161.1875 1239.2188,1161.4844 L1239.2188,1164.2031 Q1238.5938,1163.625 1238,1163.3594 Q1237.4063,1163.0781 1236.7813,1163.0781 Q1235.4375,1163.0781 1234.75,1164.1563 Q1234.0625,1165.2188 1234.0625,1167.3125 Q1234.0625,1169.4063 1234.75,1170.4844 Q1235.4375,1171.5469 1236.7813,1171.5469 Q1237.4063,1171.5469 1238,1171.2813 Q1238.5938,1171 1239.2188,1170.4219 L1239.2188,1173.1406 Z " fill="#000000"/><text fill="#000000" font-family="sans-serif" font-size="12" lengthAdjust="spacing" textLength="29" x="1256.75" y="1171.6543">Time</text><line style="stroke:#A80036;stroke-width:1.5;" x1="1193" x2="1317" y1="1183.5" y2="1183.5"/><text fill="#000000" font-family="sans-serif" font-size="11" lengthAdjust="spacing" textLength="52" x="1198" y="1197.7104">-hour: int</text><text fill="#000000" font-family="sans-serif" font-size="11" lengthAdjust="spacing" textLength="65" x="1198" y="1210.5151">-minute: int</text><line style="stroke:#A80036;stroke-width:1.5;" x1="1193" x2="1317" y1="1217.1094" y2="1217.1094"/><text fill="#000000" font-family="sans-serif" font-size="11" lengthAdjust="spacing" textLength="114" x="1198" y="1231.3198">+Time(hour,minute)</text><text fill="#000000" font-family="sans-serif" font-size="11" lengthAdjust="spacing" textLength="70" x="1198" y="1244.1245">+Time(time)</text><!--MD5=[1d13de5e760cdeae93ca6db6fe28e2cb]
link AnalyseCenterPerformanceUI to AnalyseCenterPerformanceController--><path codeLine="98" d="M596,89.16 C596,119.13 596,172.08 596,210.72 " fill="none" id="AnalyseCenterPerformanceUI-to-AnalyseCenterPerformanceController" style="stroke:#A80036;stroke-width:1.0;stroke-dasharray:7.0,7.0;"/><polygon fill="#A80036" points="596,215.83,600,206.83,596,210.83,592,206.83,596,215.83" style="stroke:#A80036;stroke-width:1.0;"/><!--MD5=[cc56671b7038e21fc613037a00d35007]
link AnalyseCenterPerformanceController to Company--><path codeLine="99" d="M596,302.1 C596,324.98 596,353.93 596,380.41 " fill="none" id="AnalyseCenterPerformanceController-to-Company" style="stroke:#A80036;stroke-width:1.0;stroke-dasharray:7.0,7.0;"/><polygon fill="#A80036" points="596,385.67,600,376.67,596,380.67,592,376.67,596,385.67" style="stroke:#A80036;stroke-width:1.0;"/><!--MD5=[db5fb34fd733ab3677281d60b785e712]
reverse link VaccinationCenter to Employee--><path codeLine="101" d="M426.47,1060.7 C413.66,1082.61 400.41,1105.26 388.41,1125.77 " fill="none" id="VaccinationCenter-backto-Employee" style="stroke:#A80036;stroke-width:1.0;"/><polygon fill="#FFFFFF" points="433.12,1049.33,426.6402,1052.4941,427.0686,1059.6925,433.5485,1056.5284,433.12,1049.33" style="stroke:#A80036;stroke-width:1.0;"/><text fill="#000000" font-family="sans-serif" font-size="13" lengthAdjust="spacing" textLength="73" x="413" y="1092.0669">coordinator</text><!--MD5=[91079b08053e6fc6d0a3af85820ed36a]
reverse link VaccinationCenter to Time--><path codeLine="102" d="M895.37,1052.1 C1019.49,1081.68 1124.64,1106.96 1128,1108.5 C1152.34,1119.65 1176.75,1135.76 1197.57,1151.37 " fill="none" id="VaccinationCenter-backto-Time" style="stroke:#A80036;stroke-width:1.0;"/><polygon fill="#FFFFFF" points="882.51,1049.04,887.4244,1054.3172,894.1858,1051.8105,889.2714,1046.5333,882.51,1049.04" style="stroke:#A80036;stroke-width:1.0;"/><text fill="#000000" font-family="sans-serif" font-size="13" lengthAdjust="spacing" textLength="89" x="1071" y="1092.0669">openingHours</text><!--MD5=[91079b08053e6fc6d0a3af85820ed36a]
reverse link VaccinationCenter to Time--><path codeLine="103" d="M899.01,1004.09 C1013.95,1023.33 1120.68,1048.29 1169,1079 C1196.3,1096.35 1217.5,1125.77 1232.02,1151.25 " fill="none" id="VaccinationCenter-backto-Time-1" style="stroke:#A80036;stroke-width:1.0;"/><polygon fill="#FFFFFF" points="886.05,1001.95,891.3197,1006.8725,897.8903,1003.9014,892.6206,998.9789,886.05,1001.95" style="stroke:#A80036;stroke-width:1.0;"/><text fill="#000000" font-family="sans-serif" font-size="13" lengthAdjust="spacing" textLength="82" x="1188" y="1092.0669">closingHours</text><!--MD5=[99cf60c71dc20007695665c9ea3c4eb1]
reverse link VaccinationCenter to Slot--><path codeLine="104" d="M570.95,1059.5 C598.52,1094.08 627.69,1130.65 649.35,1157.81 " fill="none" id="VaccinationCenter-backto-Slot" style="stroke:#A80036;stroke-width:1.0;"/><polygon fill="#FFFFFF" points="562.83,1049.33,563.4387,1056.5154,570.3054,1058.7171,569.6968,1051.5318,562.83,1049.33" style="stroke:#A80036;stroke-width:1.0;"/><!--MD5=[5624529f5d3834e77b6b7cb3e499a669]
reverse link VaccinationCenter to CenterEvents--><path codeLine="105" d="M785.59,1054.03 C825.5,1070.54 865.29,1088.78 902,1108.5 C930.9,1124.03 960.65,1145.54 983.87,1163.8 " fill="none" id="VaccinationCenter-backto-CenterEvents" style="stroke:#A80036;stroke-width:1.0;"/><polygon fill="#A80036" points="773.49,1049.08,777.5254,1055.0562,784.594,1053.6298,780.5586,1047.6535,773.49,1049.08" style="stroke:#A80036;stroke-width:1.0;"/><!--MD5=[8c304936b446fd8cea914e03fbadd4b7]
link VaccinationCenterStore to VaccinationCenter--><path codeLine="107" d="M567.91,760.02 C555.34,790.44 540.33,826.79 526.73,859.73 " fill="none" id="VaccinationCenterStore-VaccinationCenter" style="stroke:#A80036;stroke-width:1.0;"/><polygon fill="#000000" points="554.0914,805.1878,560.2605,797.9495,554.8277,795.7058,554.0914,805.1878" style="stroke:#000000;stroke-width:1.0;"/><text fill="#000000" font-family="sans-serif" font-size="13" lengthAdjust="spacing" textLength="40" x="565" y="805.0669">stores</text><text fill="#000000" font-family="sans-serif" font-size="13" lengthAdjust="spacing" textLength="8" x="556.7511" y="779.6439">1</text><text fill="#000000" font-family="sans-serif" font-size="13" lengthAdjust="spacing" textLength="7" x="522.4273" y="848.9776">*</text><!--MD5=[bc0d5b4bfe6e1bf0a8fced13bc4bdd47]
link Company to VaccinationCenterStore--><path codeLine="109" d="M596,524.31 C596,554.93 596,590.97 596,621.6 " fill="none" id="Company-VaccinationCenterStore" style="stroke:#A80036;stroke-width:1.0;"/><polygon fill="#000000" points="601,567.5664,603.9389,558.5213,598.0611,558.5213,601,567.5664" style="stroke:#000000;stroke-width:1.0;"/><text fill="#000000" font-family="sans-serif" font-size="13" lengthAdjust="spacing" textLength="39" x="610" y="567.0669">knows</text><text fill="#000000" font-family="sans-serif" font-size="13" lengthAdjust="spacing" textLength="8" x="587.6188" y="543.7217">1</text><text fill="#000000" font-family="sans-serif" font-size="13" lengthAdjust="spacing" textLength="8" x="587.5875" y="610.7624">1</text><!--MD5=[06e64ea94c598fd386b699e83196008c]
@startuml
skinparam classAttributeIconSize 0

package UI {
  class AnalyseCenterPerformanceUI {}
}

package core {
  package domain {
    package stores {
      class VaccinationCenterStore {
        +createVaccinationCenter(name,address,emailAddress,phoneNumber,faxNumber,websiteAddress,openingHours,closingHours,slotDuration,maximumVaccinesPerSlot,coordinator)
        +validateVaccinatonCenter(center)
        +saveVaccinationCenter(center)
        +checkDuplicates(center)
        +getVaccinationCenterWithPhone(phone)

        -addVaccinationCenter(center)
      }
    }

    package lists {
      class CenterEvents {
        - events: List<CenterEvent>

        +CenterEvents()
      }
    }

    package model {
      class VaccinationCenter {
        - name: String
        - address: String
        - emailAddress: String
        - phoneNumber: String
        - faxNumber: String
        - websiteAddress: String
        - openingHours: String
        - closingHours: String
        - slotDuration: int
        - maximumVaccinesPerSlot: int
        
        +VaccinationCenter(name,address,emailAddress,phoneNumber,faxNumber,websiteAddress,openingHours,closingHours,slot,coordinator)
      }

      class Employee {
        -id: String 
        -name: String 
        -email: String 
        -phone: String 
        -address: String 
        -citizenCardNumber: int 
        -roleId: String 

        +Employee(name,email,phone,address,citizenCardNumber,roleId)
      }

      class Slot {
        -duration: int
        -maxVaccinesPerSlot: int

        +Slot(duration,maxVaccinesPerSlot)
      }
    }

    class Company {
      -designation: String
      -authFacade: AuthFacade
      -vaccinationCenterStore: VaccinationCenterStore
      
      +Company(designation)

      +getAuthFacade()
      +getVaccinationCenterStore()
    }

    
  }

  package controllers {
    class AnalyseCenterPerformanceController {
      +getCategories()
      +CheckWaitingRoom(ref,designation,informalDesc,technicalDesc,duration,cost,categoryId)
      +saveTask()
    }
  }

  package utils {
    class Time {
      - hour: int
      - minute: int
      
      +Time(hour,minute)
      +Time(time)
    }
  }
}

AnalyseCenterPerformanceUI ..> AnalyseCenterPerformanceController
AnalyseCenterPerformanceController ..> Company

VaccinationCenter o- - Employee : coordinator
VaccinationCenter o- - Time : openingHours
VaccinationCenter o- - Time : closingHours
VaccinationCenter o- - Slot
VaccinationCenter *- - CenterEvents

VaccinationCenterStore "1" - - "*" VaccinationCenter : stores >

Company "1" - - "1" VaccinationCenterStore : knows >
@enduml

PlantUML version 1.2022.0(Tue Jan 11 16:16:42 WET 2022)
(GPL source distribution)
Java Runtime: OpenJDK Runtime Environment
JVM: OpenJDK 64-Bit Server VM
Default Encoding: UTF-8
Language: en
Country: US
--></g></svg>