<?xml version="1.0" encoding="UTF-8" standalone="no"?><svg xmlns="http://www.w3.org/2000/svg" xmlns:xlink="http://www.w3.org/1999/xlink" contentScriptType="application/ecmascript" contentStyleType="text/css" height="1123px" preserveAspectRatio="none" style="width:1265px;height:1123px;background:#FFFFFF;" version="1.1" viewBox="0 0 1265 1123" width="1265px" zoomAndPan="magnify"><defs><filter height="300%" id="f7lmbpote73z3" width="300%" x="-1" y="-1"><feGaussianBlur result="blurOut" stdDeviation="2.0"/><feColorMatrix in="blurOut" result="blurOut2" type="matrix" values="0 0 0 0 0 0 0 0 0 0 0 0 0 0 0 0 0 0 .4 0"/><feOffset dx="4.0" dy="4.0" in="blurOut2" result="blurOut3"/><feBlend in="SourceGraphic" in2="blurOut3" mode="normal"/></filter></defs><g><!--MD5=[02e4b9b7573f1156f41e60aa5b4e25a4]
class Company--><rect codeLine="3" fill="#FEFECE" filter="url(#f7lmbpote73z3)" height="137.6328" id="Company" style="stroke:#A80036;stroke-width:1.5;" width="289" x="378" y="263"/><ellipse cx="489.75" cy="279" fill="#ADD1B2" rx="11" ry="11" style="stroke:#A80036;stroke-width:1.0;"/><path d="M492.7188,284.6406 Q492.1406,284.9375 491.5,285.0781 Q490.8594,285.2344 490.1563,285.2344 Q487.6563,285.2344 486.3281,283.5938 Q485.0156,281.9375 485.0156,278.8125 Q485.0156,275.6875 486.3281,274.0313 Q487.6563,272.375 490.1563,272.375 Q490.8594,272.375 491.5,272.5313 Q492.1563,272.6875 492.7188,272.9844 L492.7188,275.7031 Q492.0938,275.125 491.5,274.8594 Q490.9063,274.5781 490.2813,274.5781 Q488.9375,274.5781 488.25,275.6563 Q487.5625,276.7188 487.5625,278.8125 Q487.5625,280.9063 488.25,281.9844 Q488.9375,283.0469 490.2813,283.0469 Q490.9063,283.0469 491.5,282.7813 Q492.0938,282.5 492.7188,281.9219 L492.7188,284.6406 Z " fill="#000000"/><text fill="#000000" font-family="sans-serif" font-size="12" lengthAdjust="spacing" textLength="57" x="510.25" y="283.1543">Company</text><line style="stroke:#A80036;stroke-width:1.5;" x1="379" x2="666" y1="295" y2="295"/><text fill="#000000" font-family="sans-serif" font-size="11" lengthAdjust="spacing" textLength="112" x="384" y="309.2104">-designation: String</text><text fill="#000000" font-family="sans-serif" font-size="11" lengthAdjust="spacing" textLength="142" x="384" y="322.0151">-authFacade: AuthFacade</text><text fill="#000000" font-family="sans-serif" font-size="11" lengthAdjust="spacing" textLength="277" x="384" y="334.8198">-vaccinationCenterStore: VaccinationCenterStore</text><line style="stroke:#A80036;stroke-width:1.5;" x1="379" x2="666" y1="341.4141" y2="341.4141"/><text fill="#000000" font-family="sans-serif" font-size="11" lengthAdjust="spacing" textLength="136" x="384" y="355.6245">+Company(designation)</text><text fill="#000000" font-family="sans-serif" font-size="11" lengthAdjust="spacing" textLength="0" x="388" y="368.4292"/><text fill="#000000" font-family="sans-serif" font-size="11" lengthAdjust="spacing" textLength="100" x="384" y="381.2339">+getAuthFacade()</text><text fill="#000000" font-family="sans-serif" font-size="11" lengthAdjust="spacing" textLength="168" x="384" y="394.0386">+getVaccinationCenterStore()</text><!--MD5=[ad586fe025efc8307d6b66bf6c839593]
class AnalyseCenterPerformanceController--><rect codeLine="14" fill="#FEFECE" filter="url(#f7lmbpote73z3)" height="86.4141" id="AnalyseCenterPerformanceController" style="stroke:#A80036;stroke-width:1.5;" width="524" x="260.5" y="116"/><ellipse cx="402.75" cy="132" fill="#ADD1B2" rx="11" ry="11" style="stroke:#A80036;stroke-width:1.0;"/><path d="M405.7188,137.6406 Q405.1406,137.9375 404.5,138.0781 Q403.8594,138.2344 403.1563,138.2344 Q400.6563,138.2344 399.3281,136.5938 Q398.0156,134.9375 398.0156,131.8125 Q398.0156,128.6875 399.3281,127.0313 Q400.6563,125.375 403.1563,125.375 Q403.8594,125.375 404.5,125.5313 Q405.1563,125.6875 405.7188,125.9844 L405.7188,128.7031 Q405.0938,128.125 404.5,127.8594 Q403.9063,127.5781 403.2813,127.5781 Q401.9375,127.5781 401.25,128.6563 Q400.5625,129.7188 400.5625,131.8125 Q400.5625,133.9063 401.25,134.9844 Q401.9375,136.0469 403.2813,136.0469 Q403.9063,136.0469 404.5,135.7813 Q405.0938,135.5 405.7188,134.9219 L405.7188,137.6406 Z " fill="#000000"/><text fill="#000000" font-family="sans-serif" font-size="12" lengthAdjust="spacing" textLength="231" x="423.25" y="136.1543">AnalyseCenterPerformanceController</text><line style="stroke:#A80036;stroke-width:1.5;" x1="261.5" x2="783.5" y1="148" y2="148"/><line style="stroke:#A80036;stroke-width:1.5;" x1="261.5" x2="783.5" y1="156" y2="156"/><text fill="#000000" font-family="sans-serif" font-size="11" lengthAdjust="spacing" textLength="97" x="266.5" y="170.2104">+getCategories()</text><text fill="#000000" font-family="sans-serif" font-size="11" lengthAdjust="spacing" textLength="512" x="266.5" y="183.0151">+CheckWaitingRoom(ref,designation,informalDesc,technicalDesc,duration,cost,categoryId)</text><text fill="#000000" font-family="sans-serif" font-size="11" lengthAdjust="spacing" textLength="71" x="266.5" y="195.8198">+saveTask()</text><!--MD5=[7b0cfd9e7522513355bc4d2674f12d2a]
class AnalyseCenterPerformanceUI--><rect codeLine="20" fill="#FEFECE" filter="url(#f7lmbpote73z3)" height="48" id="AnalyseCenterPerformanceUI" style="stroke:#A80036;stroke-width:1.5;" width="214" x="415.5" y="7"/><ellipse cx="430.5" cy="23" fill="#ADD1B2" rx="11" ry="11" style="stroke:#A80036;stroke-width:1.0;"/><path d="M433.4688,28.6406 Q432.8906,28.9375 432.25,29.0781 Q431.6094,29.2344 430.9063,29.2344 Q428.4063,29.2344 427.0781,27.5938 Q425.7656,25.9375 425.7656,22.8125 Q425.7656,19.6875 427.0781,18.0313 Q428.4063,16.375 430.9063,16.375 Q431.6094,16.375 432.25,16.5313 Q432.9063,16.6875 433.4688,16.9844 L433.4688,19.7031 Q432.8438,19.125 432.25,18.8594 Q431.6563,18.5781 431.0313,18.5781 Q429.6875,18.5781 429,19.6563 Q428.3125,20.7188 428.3125,22.8125 Q428.3125,24.9063 429,25.9844 Q429.6875,27.0469 431.0313,27.0469 Q431.6563,27.0469 432.25,26.7813 Q432.8438,26.5 433.4688,25.9219 L433.4688,28.6406 Z " fill="#000000"/><text fill="#000000" font-family="sans-serif" font-size="12" lengthAdjust="spacing" textLength="182" x="444.5" y="27.1543">AnalyseCenterPerformanceUI</text><line style="stroke:#A80036;stroke-width:1.5;" x1="416.5" x2="628.5" y1="39" y2="39"/><line style="stroke:#A80036;stroke-width:1.5;" x1="416.5" x2="628.5" y1="47" y2="47"/><!--MD5=[de60e6d4f424ae4d0522096f76a59010]
class VaccinationCenter--><rect codeLine="22" fill="#FEFECE" filter="url(#f7lmbpote73z3)" height="188.8516" id="VaccinationCenter" style="stroke:#A80036;stroke-width:1.5;" width="796" x="124.5" y="693"/><ellipse cx="460.75" cy="709" fill="#ADD1B2" rx="11" ry="11" style="stroke:#A80036;stroke-width:1.0;"/><path d="M463.7188,714.6406 Q463.1406,714.9375 462.5,715.0781 Q461.8594,715.2344 461.1563,715.2344 Q458.6563,715.2344 457.3281,713.5938 Q456.0156,711.9375 456.0156,708.8125 Q456.0156,705.6875 457.3281,704.0313 Q458.6563,702.375 461.1563,702.375 Q461.8594,702.375 462.5,702.5313 Q463.1563,702.6875 463.7188,702.9844 L463.7188,705.7031 Q463.0938,705.125 462.5,704.8594 Q461.9063,704.5781 461.2813,704.5781 Q459.9375,704.5781 459.25,705.6563 Q458.5625,706.7188 458.5625,708.8125 Q458.5625,710.9063 459.25,711.9844 Q459.9375,713.0469 461.2813,713.0469 Q461.9063,713.0469 462.5,712.7813 Q463.0938,712.5 463.7188,711.9219 L463.7188,714.6406 Z " fill="#000000"/><text fill="#000000" font-family="sans-serif" font-size="12" lengthAdjust="spacing" textLength="115" x="481.25" y="713.1543">VaccinationCenter</text><line style="stroke:#A80036;stroke-width:1.5;" x1="125.5" x2="919.5" y1="725" y2="725"/><text fill="#000000" font-family="sans-serif" font-size="11" lengthAdjust="spacing" textLength="78" x="130.5" y="739.2104">-name: String</text><text fill="#000000" font-family="sans-serif" font-size="11" lengthAdjust="spacing" textLength="93" x="130.5" y="752.0151">-address: String</text><text fill="#000000" font-family="sans-serif" font-size="11" lengthAdjust="spacing" textLength="124" x="130.5" y="764.8198">-emailAddress: String</text><text fill="#000000" font-family="sans-serif" font-size="11" lengthAdjust="spacing" textLength="126" x="130.5" y="777.6245">-phoneNumber: String</text><text fill="#000000" font-family="sans-serif" font-size="11" lengthAdjust="spacing" textLength="108" x="130.5" y="790.4292">-faxNumber: String</text><text fill="#000000" font-family="sans-serif" font-size="11" lengthAdjust="spacing" textLength="137" x="130.5" y="803.2339">-websiteAddress: String</text><text fill="#000000" font-family="sans-serif" font-size="11" lengthAdjust="spacing" textLength="125" x="130.5" y="816.0386">-openingHours: String</text><text fill="#000000" font-family="sans-serif" font-size="11" lengthAdjust="spacing" textLength="120" x="130.5" y="828.8433">-closingHours: String</text><text fill="#000000" font-family="sans-serif" font-size="11" lengthAdjust="spacing" textLength="95" x="130.5" y="841.6479">-slotDuration: int</text><text fill="#000000" font-family="sans-serif" font-size="11" lengthAdjust="spacing" textLength="173" x="130.5" y="854.4526">-maximumVaccinesPerSlot: int</text><line style="stroke:#A80036;stroke-width:1.5;" x1="125.5" x2="919.5" y1="861.0469" y2="861.0469"/><text fill="#000000" font-family="sans-serif" font-size="11" lengthAdjust="spacing" textLength="784" x="130.5" y="875.2573">+VaccinationCenter(name,address,emailAddress,phoneNumber,faxNumber,websiteAddress,openingHours,closingHours,slot,coordinator)</text><!--MD5=[2e42295458bb0bec21c9622a623eb29e]
class Time--><rect codeLine="37" fill="#FEFECE" filter="url(#f7lmbpote73z3)" height="99.2188" id="Time" style="stroke:#A80036;stroke-width:1.5;" width="126" x="236.5" y="984.5"/><ellipse cx="280.75" cy="1000.5" fill="#ADD1B2" rx="11" ry="11" style="stroke:#A80036;stroke-width:1.0;"/><path d="M283.7188,1006.1406 Q283.1406,1006.4375 282.5,1006.5781 Q281.8594,1006.7344 281.1563,1006.7344 Q278.6563,1006.7344 277.3281,1005.0938 Q276.0156,1003.4375 276.0156,1000.3125 Q276.0156,997.1875 277.3281,995.5313 Q278.6563,993.875 281.1563,993.875 Q281.8594,993.875 282.5,994.0313 Q283.1563,994.1875 283.7188,994.4844 L283.7188,997.2031 Q283.0938,996.625 282.5,996.3594 Q281.9063,996.0781 281.2813,996.0781 Q279.9375,996.0781 279.25,997.1563 Q278.5625,998.2188 278.5625,1000.3125 Q278.5625,1002.4063 279.25,1003.4844 Q279.9375,1004.5469 281.2813,1004.5469 Q281.9063,1004.5469 282.5,1004.2813 Q283.0938,1004 283.7188,1003.4219 L283.7188,1006.1406 Z " fill="#000000"/><text fill="#000000" font-family="sans-serif" font-size="12" lengthAdjust="spacing" textLength="29" x="301.25" y="1004.6543">Time</text><line style="stroke:#A80036;stroke-width:1.5;" x1="237.5" x2="361.5" y1="1016.5" y2="1016.5"/><text fill="#000000" font-family="sans-serif" font-size="11" lengthAdjust="spacing" textLength="52" x="242.5" y="1030.7104">-hour: int</text><text fill="#000000" font-family="sans-serif" font-size="11" lengthAdjust="spacing" textLength="65" x="242.5" y="1043.5151">-minute: int</text><line style="stroke:#A80036;stroke-width:1.5;" x1="237.5" x2="361.5" y1="1050.1094" y2="1050.1094"/><text fill="#000000" font-family="sans-serif" font-size="11" lengthAdjust="spacing" textLength="114" x="242.5" y="1064.3198">+Time(hour,minute)</text><text fill="#000000" font-family="sans-serif" font-size="11" lengthAdjust="spacing" textLength="70" x="242.5" y="1077.1245">+Time(time)</text><!--MD5=[45c6380d22fb72521f5065026b277fb9]
class Slot--><rect codeLine="45" fill="#FEFECE" filter="url(#f7lmbpote73z3)" height="86.4141" id="Slot" style="stroke:#A80036;stroke-width:1.5;" width="217" x="406" y="991"/><ellipse cx="498.25" cy="1007" fill="#ADD1B2" rx="11" ry="11" style="stroke:#A80036;stroke-width:1.0;"/><path d="M501.2188,1012.6406 Q500.6406,1012.9375 500,1013.0781 Q499.3594,1013.2344 498.6563,1013.2344 Q496.1563,1013.2344 494.8281,1011.5938 Q493.5156,1009.9375 493.5156,1006.8125 Q493.5156,1003.6875 494.8281,1002.0313 Q496.1563,1000.375 498.6563,1000.375 Q499.3594,1000.375 500,1000.5313 Q500.6563,1000.6875 501.2188,1000.9844 L501.2188,1003.7031 Q500.5938,1003.125 500,1002.8594 Q499.4063,1002.5781 498.7813,1002.5781 Q497.4375,1002.5781 496.75,1003.6563 Q496.0625,1004.7188 496.0625,1006.8125 Q496.0625,1008.9063 496.75,1009.9844 Q497.4375,1011.0469 498.7813,1011.0469 Q499.4063,1011.0469 500,1010.7813 Q500.5938,1010.5 501.2188,1009.9219 L501.2188,1012.6406 Z " fill="#000000"/><text fill="#000000" font-family="sans-serif" font-size="12" lengthAdjust="spacing" textLength="24" x="518.75" y="1011.1543">Slot</text><line style="stroke:#A80036;stroke-width:1.5;" x1="407" x2="622" y1="1023" y2="1023"/><text fill="#000000" font-family="sans-serif" font-size="11" lengthAdjust="spacing" textLength="73" x="412" y="1037.2104">-duration: int</text><text fill="#000000" font-family="sans-serif" font-size="11" lengthAdjust="spacing" textLength="141" x="412" y="1050.0151">-maxVaccinesPerSlot: int</text><line style="stroke:#A80036;stroke-width:1.5;" x1="407" x2="622" y1="1056.6094" y2="1056.6094"/><text fill="#000000" font-family="sans-serif" font-size="11" lengthAdjust="spacing" textLength="205" x="412" y="1070.8198">+Slot(duration,maxVaccinesPerSlot)</text><!--MD5=[a29876ea2f21a6ca48ea477740122fd8]
class VaccinationCenterStore--><rect codeLine="52" fill="#FEFECE" filter="url(#f7lmbpote73z3)" height="137.6328" id="VaccinationCenterStore" style="stroke:#A80036;stroke-width:1.5;" width="1031" x="7" y="478"/><ellipse cx="443.75" cy="494" fill="#ADD1B2" rx="11" ry="11" style="stroke:#A80036;stroke-width:1.0;"/><path d="M446.7188,499.6406 Q446.1406,499.9375 445.5,500.0781 Q444.8594,500.2344 444.1563,500.2344 Q441.6563,500.2344 440.3281,498.5938 Q439.0156,496.9375 439.0156,493.8125 Q439.0156,490.6875 440.3281,489.0313 Q441.6563,487.375 444.1563,487.375 Q444.8594,487.375 445.5,487.5313 Q446.1563,487.6875 446.7188,487.9844 L446.7188,490.7031 Q446.0938,490.125 445.5,489.8594 Q444.9063,489.5781 444.2813,489.5781 Q442.9375,489.5781 442.25,490.6563 Q441.5625,491.7188 441.5625,493.8125 Q441.5625,495.9063 442.25,496.9844 Q442.9375,498.0469 444.2813,498.0469 Q444.9063,498.0469 445.5,497.7813 Q446.0938,497.5 446.7188,496.9219 L446.7188,499.6406 Z " fill="#000000"/><text fill="#000000" font-family="sans-serif" font-size="12" lengthAdjust="spacing" textLength="149" x="464.25" y="498.1543">VaccinationCenterStore</text><line style="stroke:#A80036;stroke-width:1.5;" x1="8" x2="1037" y1="510" y2="510"/><line style="stroke:#A80036;stroke-width:1.5;" x1="8" x2="1037" y1="518" y2="518"/><text fill="#000000" font-family="sans-serif" font-size="11" lengthAdjust="spacing" textLength="1019" x="13" y="532.2104">+createVaccinationCenter(name,address,emailAddress,phoneNumber,faxNumber,websiteAddress,openingHours,closingHours,slotDuration,maximumVaccinesPerSlot,coordinator)</text><text fill="#000000" font-family="sans-serif" font-size="11" lengthAdjust="spacing" textLength="196" x="13" y="545.0151">+validateVaccinatonCenter(center)</text><text fill="#000000" font-family="sans-serif" font-size="11" lengthAdjust="spacing" textLength="182" x="13" y="557.8198">+saveVaccinationCenter(center)</text><text fill="#000000" font-family="sans-serif" font-size="11" lengthAdjust="spacing" textLength="144" x="13" y="570.6245">+checkDuplicates(center)</text><text fill="#000000" font-family="sans-serif" font-size="11" lengthAdjust="spacing" textLength="230" x="13" y="583.4292">+getVaccinationCenterWithPhone(phone)</text><text fill="#000000" font-family="sans-serif" font-size="11" lengthAdjust="spacing" textLength="0" x="17" y="596.2339"/><text fill="#000000" font-family="sans-serif" font-size="11" lengthAdjust="spacing" textLength="171" x="13" y="609.0386">-addVaccinationCenter(center)</text><!--MD5=[7421f545a0d8420c5bec41e74b387d9c]
class Employee--><rect codeLine="62" fill="#FEFECE" filter="url(#f7lmbpote73z3)" height="150.4375" id="Employee" style="stroke:#A80036;stroke-width:1.5;" width="388" x="658.5" y="959"/><ellipse cx="818.25" cy="975" fill="#ADD1B2" rx="11" ry="11" style="stroke:#A80036;stroke-width:1.0;"/><path d="M821.2188,980.6406 Q820.6406,980.9375 820,981.0781 Q819.3594,981.2344 818.6563,981.2344 Q816.1563,981.2344 814.8281,979.5938 Q813.5156,977.9375 813.5156,974.8125 Q813.5156,971.6875 814.8281,970.0313 Q816.1563,968.375 818.6563,968.375 Q819.3594,968.375 820,968.5313 Q820.6563,968.6875 821.2188,968.9844 L821.2188,971.7031 Q820.5938,971.125 820,970.8594 Q819.4063,970.5781 818.7813,970.5781 Q817.4375,970.5781 816.75,971.6563 Q816.0625,972.7188 816.0625,974.8125 Q816.0625,976.9063 816.75,977.9844 Q817.4375,979.0469 818.7813,979.0469 Q819.4063,979.0469 820,978.7813 Q820.5938,978.5 821.2188,977.9219 L821.2188,980.6406 Z " fill="#000000"/><text fill="#000000" font-family="sans-serif" font-size="12" lengthAdjust="spacing" textLength="60" x="838.75" y="979.1543">Employee</text><line style="stroke:#A80036;stroke-width:1.5;" x1="659.5" x2="1045.5" y1="991" y2="991"/><text fill="#000000" font-family="sans-serif" font-size="11" lengthAdjust="spacing" textLength="56" x="664.5" y="1005.2104">-id: String</text><text fill="#000000" font-family="sans-serif" font-size="11" lengthAdjust="spacing" textLength="78" x="664.5" y="1018.0151">-name: String</text><text fill="#000000" font-family="sans-serif" font-size="11" lengthAdjust="spacing" textLength="77" x="664.5" y="1030.8198">-email: String</text><text fill="#000000" font-family="sans-serif" font-size="11" lengthAdjust="spacing" textLength="81" x="664.5" y="1043.6245">-phone: String</text><text fill="#000000" font-family="sans-serif" font-size="11" lengthAdjust="spacing" textLength="93" x="664.5" y="1056.4292">-address: String</text><text fill="#000000" font-family="sans-serif" font-size="11" lengthAdjust="spacing" textLength="133" x="664.5" y="1069.2339">-citizenCardNumber: int</text><text fill="#000000" font-family="sans-serif" font-size="11" lengthAdjust="spacing" textLength="78" x="664.5" y="1082.0386">-roleId: String</text><line style="stroke:#A80036;stroke-width:1.5;" x1="659.5" x2="1045.5" y1="1088.6328" y2="1088.6328"/><text fill="#000000" font-family="sans-serif" font-size="11" lengthAdjust="spacing" textLength="376" x="664.5" y="1102.8433">+Employee(name,email,phone,address,citizenCardNumber,roleId)</text><!--MD5=[133fd58c9b09b9b9c6fed4b3816d1454]
class CenterEvents--><rect codeLine="74" fill="#FEFECE" filter="url(#f7lmbpote73z3)" height="73.6094" id="CenterEvents" style="stroke:#A80036;stroke-width:1.5;" width="169" x="1082" y="997"/><ellipse cx="1120.85" cy="1013" fill="#ADD1B2" rx="11" ry="11" style="stroke:#A80036;stroke-width:1.0;"/><path d="M1123.8188,1018.6406 Q1123.2406,1018.9375 1122.6,1019.0781 Q1121.9594,1019.2344 1121.2563,1019.2344 Q1118.7563,1019.2344 1117.4281,1017.5938 Q1116.1156,1015.9375 1116.1156,1012.8125 Q1116.1156,1009.6875 1117.4281,1008.0313 Q1118.7563,1006.375 1121.2563,1006.375 Q1121.9594,1006.375 1122.6,1006.5313 Q1123.2563,1006.6875 1123.8188,1006.9844 L1123.8188,1009.7031 Q1123.1938,1009.125 1122.6,1008.8594 Q1122.0063,1008.5781 1121.3813,1008.5781 Q1120.0375,1008.5781 1119.35,1009.6563 Q1118.6625,1010.7188 1118.6625,1012.8125 Q1118.6625,1014.9063 1119.35,1015.9844 Q1120.0375,1017.0469 1121.3813,1017.0469 Q1122.0063,1017.0469 1122.6,1016.7813 Q1123.1938,1016.5 1123.8188,1015.9219 L1123.8188,1018.6406 Z " fill="#000000"/><text fill="#000000" font-family="sans-serif" font-size="12" lengthAdjust="spacing" textLength="84" x="1140.15" y="1017.1543">CenterEvents</text><line style="stroke:#A80036;stroke-width:1.5;" x1="1083" x2="1250" y1="1029" y2="1029"/><text fill="#000000" font-family="sans-serif" font-size="11" lengthAdjust="spacing" textLength="157" x="1088" y="1043.2104">-events: List&lt;CenterEvent&gt;</text><line style="stroke:#A80036;stroke-width:1.5;" x1="1083" x2="1250" y1="1049.8047" y2="1049.8047"/><text fill="#000000" font-family="sans-serif" font-size="11" lengthAdjust="spacing" textLength="93" x="1088" y="1064.0151">+CenterEvents()</text><!--MD5=[1d13de5e760cdeae93ca6db6fe28e2cb]
link AnalyseCenterPerformanceUI to AnalyseCenterPerformanceController--><path codeLine="80" d="M522.5,55.11 C522.5,70.63 522.5,91.64 522.5,110.63 " fill="none" id="AnalyseCenterPerformanceUI-to-AnalyseCenterPerformanceController" style="stroke:#A80036;stroke-width:1.0;stroke-dasharray:7.0,7.0;"/><polygon fill="#A80036" points="522.5,115.92,526.5,106.92,522.5,110.92,518.5,106.92,522.5,115.92" style="stroke:#A80036;stroke-width:1.0;"/><!--MD5=[cc56671b7038e21fc613037a00d35007]
link AnalyseCenterPerformanceController to Company--><path codeLine="81" d="M522.5,202.27 C522.5,218.99 522.5,238.71 522.5,257.63 " fill="none" id="AnalyseCenterPerformanceController-to-Company" style="stroke:#A80036;stroke-width:1.0;stroke-dasharray:7.0,7.0;"/><polygon fill="#A80036" points="522.5,262.93,526.5,253.93,522.5,257.93,518.5,253.93,522.5,262.93" style="stroke:#A80036;stroke-width:1.0;"/><!--MD5=[db5fb34fd733ab3677281d60b785e712]
reverse link VaccinationCenter to Employee--><path codeLine="83" d="M659.65,890.11 C690.8,913.19 723.31,937.28 752.57,958.96 " fill="none" id="VaccinationCenter-backto-Employee" style="stroke:#A80036;stroke-width:1.0;"/><polygon fill="#FFFFFF" points="649.14,882.33,651.5818,889.1151,658.7841,889.4708,656.3423,882.6857,649.14,882.33" style="stroke:#A80036;stroke-width:1.0;"/><text fill="#000000" font-family="sans-serif" font-size="13" lengthAdjust="spacing" textLength="73" x="708.5" y="925.0669">coordinator</text><!--MD5=[91079b08053e6fc6d0a3af85820ed36a]
reverse link VaccinationCenter to Time--><path codeLine="84" d="M296.1,891.83 C290.74,898.18 285.84,904.89 281.5,912 C268.38,933.47 271.26,960.99 278.14,984.36 " fill="none" id="VaccinationCenter-backto-Time" style="stroke:#A80036;stroke-width:1.0;"/><polygon fill="#FFFFFF" points="304.87,882.17,297.8767,883.9288,296.8104,891.0606,303.8037,889.3018,304.87,882.17" style="stroke:#A80036;stroke-width:1.0;"/><text fill="#000000" font-family="sans-serif" font-size="13" lengthAdjust="spacing" textLength="89" x="282.5" y="925.0669">openingHours</text><!--MD5=[91079b08053e6fc6d0a3af85820ed36a]
reverse link VaccinationCenter to Time--><path codeLine="85" d="M427.94,892.18 C398.81,924.12 368.09,957.79 344.01,984.2 " fill="none" id="VaccinationCenter-backto-Time-1" style="stroke:#A80036;stroke-width:1.0;"/><polygon fill="#FFFFFF" points="436.92,882.33,429.9212,884.067,428.8328,891.1955,435.8316,889.4585,436.92,882.33" style="stroke:#A80036;stroke-width:1.0;"/><text fill="#000000" font-family="sans-serif" font-size="13" lengthAdjust="spacing" textLength="82" x="405.5" y="925.0669">closingHours</text><!--MD5=[99cf60c71dc20007695665c9ea3c4eb1]
reverse link VaccinationCenter to Slot--><path codeLine="86" d="M518.99,895.62 C517.89,929.27 516.74,964.47 515.88,990.81 " fill="none" id="VaccinationCenter-backto-Slot" style="stroke:#A80036;stroke-width:1.0;"/><polygon fill="#FFFFFF" points="519.43,882.33,515.2407,888.1994,519.0474,894.3239,523.2366,888.4545,519.43,882.33" style="stroke:#A80036;stroke-width:1.0;"/><!--MD5=[5624529f5d3834e77b6b7cb3e499a669]
reverse link VaccinationCenter to CenterEvents--><path codeLine="87" d="M890.12,886.38 C949.72,907.26 1009.78,931.47 1064.5,959 C1085.02,969.33 1105.87,983.63 1123.32,996.91 " fill="none" id="VaccinationCenter-backto-CenterEvents" style="stroke:#A80036;stroke-width:1.0;"/><polygon fill="#A80036" points="877.82,882.12,882.1796,887.864,889.1586,886.0489,884.7989,880.3049,877.82,882.12" style="stroke:#A80036;stroke-width:1.0;"/><!--MD5=[8c304936b446fd8cea914e03fbadd4b7]
link VaccinationCenterStore to VaccinationCenter--><path codeLine="89" d="M522.5,616.03 C522.5,639.84 522.5,667.03 522.5,692.59 " fill="none" id="VaccinationCenterStore-VaccinationCenter" style="stroke:#A80036;stroke-width:1.0;"/><polygon fill="#000000" points="527.5,659.5664,530.4389,650.5213,524.5611,650.5213,527.5,659.5664" style="stroke:#000000;stroke-width:1.0;"/><text fill="#000000" font-family="sans-serif" font-size="13" lengthAdjust="spacing" textLength="40" x="536.5" y="659.0669">stores</text><text fill="#000000" font-family="sans-serif" font-size="13" lengthAdjust="spacing" textLength="8" x="514.1063" y="635.6549">1</text><text fill="#000000" font-family="sans-serif" font-size="13" lengthAdjust="spacing" textLength="7" x="515.232" y="681.8269">*</text><!--MD5=[bc0d5b4bfe6e1bf0a8fced13bc4bdd47]
link Company to VaccinationCenterStore--><path codeLine="91" d="M522.5,401.27 C522.5,425.73 522.5,453.29 522.5,477.75 " fill="none" id="Company-VaccinationCenterStore" style="stroke:#A80036;stroke-width:1.0;"/><polygon fill="#000000" points="527.5,444.5664,530.4389,435.5213,524.5611,435.5213,527.5,444.5664" style="stroke:#000000;stroke-width:1.0;"/><text fill="#000000" font-family="sans-serif" font-size="13" lengthAdjust="spacing" textLength="39" x="536.5" y="444.0669">knows</text><text fill="#000000" font-family="sans-serif" font-size="13" lengthAdjust="spacing" textLength="8" x="514.1188" y="420.6779">1</text><text fill="#000000" font-family="sans-serif" font-size="13" lengthAdjust="spacing" textLength="8" x="514.0875" y="466.9278">1</text><!--MD5=[8f084d54695fc772cdd4713eb94af99d]
@startuml
skinparam classAttributeIconSize 0

class Company {
  -designation: String
  -authFacade: AuthFacade
  -vaccinationCenterStore: VaccinationCenterStore
  
  +Company(designation)

  +getAuthFacade()
  +getVaccinationCenterStore()
}

class AnalyseCenterPerformanceController {
  +getCategories()
  +CheckWaitingRoom(ref,designation,informalDesc,technicalDesc,duration,cost,categoryId)
  +saveTask()
}

class AnalyseCenterPerformanceUI {}

class VaccinationCenter {
  - name: String
  - address: String
  - emailAddress: String
  - phoneNumber: String
  - faxNumber: String
  - websiteAddress: String
  - openingHours: String
  - closingHours: String
  - slotDuration: int
  - maximumVaccinesPerSlot: int
  
  +VaccinationCenter(name,address,emailAddress,phoneNumber,faxNumber,websiteAddress,openingHours,closingHours,slot,coordinator)
}

class Time {
  - hour: int
  - minute: int
  
  +Time(hour,minute)
  +Time(time)
}

class Slot {
  -duration: int
  -maxVaccinesPerSlot: int

  +Slot(duration,maxVaccinesPerSlot)
}

class VaccinationCenterStore {
  +createVaccinationCenter(name,address,emailAddress,phoneNumber,faxNumber,websiteAddress,openingHours,closingHours,slotDuration,maximumVaccinesPerSlot,coordinator)
  +validateVaccinatonCenter(center)
  +saveVaccinationCenter(center)
  +checkDuplicates(center)
  +getVaccinationCenterWithPhone(phone)

  -addVaccinationCenter(center)
}

class Employee {
  -id: String 
  -name: String 
  -email: String 
  -phone: String 
  -address: String 
  -citizenCardNumber: int 
  -roleId: String 

  +Employee(name,email,phone,address,citizenCardNumber,roleId)
}

class CenterEvents {
  - events: List<CenterEvent>

  +CenterEvents()
}

AnalyseCenterPerformanceUI ..> AnalyseCenterPerformanceController
AnalyseCenterPerformanceController ..> Company

VaccinationCenter o- - Employee : coordinator
VaccinationCenter o- - Time : openingHours
VaccinationCenter o- - Time : closingHours
VaccinationCenter o- - Slot
VaccinationCenter *- - CenterEvents

VaccinationCenterStore "1" - - "*" VaccinationCenter : stores >

Company "1" - - "1" VaccinationCenterStore : knows >
@enduml

PlantUML version 1.2022.0(Tue Jan 11 16:16:42 WET 2022)
(GPL source distribution)
Java Runtime: OpenJDK Runtime Environment
JVM: OpenJDK 64-Bit Server VM
Default Encoding: UTF-8
Language: en
Country: US
--></g></svg>