<?xml version="1.0" encoding="UTF-8" standalone="no"?><svg xmlns="http://www.w3.org/2000/svg" xmlns:xlink="http://www.w3.org/1999/xlink" contentScriptType="application/ecmascript" contentStyleType="text/css" height="1235px" preserveAspectRatio="none" style="width:2761px;height:1235px;background:#FFFFFF;" version="1.1" viewBox="0 0 2761 1235" width="2761px" zoomAndPan="magnify"><defs><filter height="300%" id="f1f2saznbi6587" width="300%" x="-1" y="-1"><feGaussianBlur result="blurOut" stdDeviation="2.0"/><feColorMatrix in="blurOut" result="blurOut2" type="matrix" values="0 0 0 0 0 0 0 0 0 0 0 0 0 0 0 0 0 0 .4 0"/><feOffset dx="4.0" dy="4.0" in="blurOut2" result="blurOut3"/><feBlend in="SourceGraphic" in2="blurOut3" mode="normal"/></filter></defs><g><!--MD5=[9681dc6e01e10c6b4fe06895ae94f592]
cluster UI--><polygon fill="#FFFFFF" filter="url(#f1f2saznbi6587)" points="195,6,216,6,223,28.2969,441,28.2969,441,105,195,105,195,6" style="stroke:#000000;stroke-width:1.5;"/><line style="stroke:#000000;stroke-width:1.5;" x1="195" x2="223" y1="28.2969" y2="28.2969"/><text fill="#000000" font-family="sans-serif" font-size="14" font-weight="bold" lengthAdjust="spacing" textLength="15" x="199" y="20.9951">UI</text><!--MD5=[01435ace8273dc3cae88e7f376e4d373]
cluster core--><polygon fill="#FFFFFF" filter="url(#f1f2saznbi6587)" points="16,138,58,138,65,160.2969,2645,160.2969,2645,1228,16,1228,16,138" style="stroke:#000000;stroke-width:1.5;"/><line style="stroke:#000000;stroke-width:1.5;" x1="16" x2="65" y1="160.2969" y2="160.2969"/><text fill="#000000" font-family="sans-serif" font-size="14" font-weight="bold" lengthAdjust="spacing" textLength="36" x="20" y="152.9951">core</text><!--MD5=[27f772719433d509ddbc20ff768eba08]
cluster domain--><polygon fill="#FFFFFF" filter="url(#f1f2saznbi6587)" points="620,181,683,181,690,203.2969,2354,203.2969,2354,1204,620,1204,620,181" style="stroke:#000000;stroke-width:1.5;"/><line style="stroke:#000000;stroke-width:1.5;" x1="620" x2="690" y1="203.2969" y2="203.2969"/><text fill="#000000" font-family="sans-serif" font-size="14" font-weight="bold" lengthAdjust="spacing" textLength="57" x="624" y="195.9951">domain</text><!--MD5=[3bbea03787a63c9e9e3a6e07c5a481f8]
cluster shared--><polygon fill="#FFFFFF" filter="url(#f1f2saznbi6587)" points="1997,250,2058,250,2065,272.2969,2167,272.2969,2167,387,1997,387,1997,250" style="stroke:#000000;stroke-width:1.5;"/><line style="stroke:#000000;stroke-width:1.5;" x1="1997" x2="2065" y1="272.2969" y2="272.2969"/><text fill="#000000" font-family="sans-serif" font-size="14" font-weight="bold" lengthAdjust="spacing" textLength="55" x="2001" y="264.9951">shared</text><!--MD5=[fbca5634cbc0239920b500cad9c4bedb]
cluster stores--><polygon fill="#FFFFFF" filter="url(#f1f2saznbi6587)" points="747,224,804,224,811,246.2969,1811,246.2969,1811,413,747,413,747,224" style="stroke:#000000;stroke-width:1.5;"/><line style="stroke:#000000;stroke-width:1.5;" x1="747" x2="811" y1="246.2969" y2="246.2969"/><text fill="#000000" font-family="sans-serif" font-size="14" font-weight="bold" lengthAdjust="spacing" textLength="51" x="751" y="238.9951">stores</text><!--MD5=[74377f9e5257669286bfbcdea75789c1]
cluster lists--><polygon fill="#FFFFFF" filter="url(#f1f2saznbi6587)" points="2094,702.5,2132,702.5,2139,724.7969,2330,724.7969,2330,878.5,2094,878.5,2094,702.5" style="stroke:#000000;stroke-width:1.5;"/><line style="stroke:#000000;stroke-width:1.5;" x1="2094" x2="2139" y1="724.7969" y2="724.7969"/><text fill="#000000" font-family="sans-serif" font-size="14" font-weight="bold" lengthAdjust="spacing" textLength="32" x="2098" y="717.4951">lists</text><!--MD5=[5d4cd377749310b66bf14896f5cd8d9b]
cluster model--><polygon fill="#FFFFFF" filter="url(#f1f2saznbi6587)" points="644,462,698,462,705,484.2969,2070,484.2969,2070,904,644,904,644,462" style="stroke:#000000;stroke-width:1.5;"/><line style="stroke:#000000;stroke-width:1.5;" x1="644" x2="705" y1="484.2969" y2="484.2969"/><text fill="#000000" font-family="sans-serif" font-size="14" font-weight="bold" lengthAdjust="spacing" textLength="48" x="648" y="476.9951">model</text><!--MD5=[7579d5565d2521d5936cec86ed3dadee]
cluster service--><polygon fill="#FFFFFF" filter="url(#f1f2saznbi6587)" points="1382,953,1446,953,1453,975.2969,1590,975.2969,1590,1180,1382,1180,1382,953" style="stroke:#000000;stroke-width:1.5;"/><line style="stroke:#000000;stroke-width:1.5;" x1="1382" x2="1453" y1="975.2969" y2="975.2969"/><text fill="#000000" font-family="sans-serif" font-size="14" font-weight="bold" lengthAdjust="spacing" textLength="58" x="1386" y="967.9951">service</text><!--MD5=[f4e70ef68289585296b9045165e58692]
cluster controllers--><polygon fill="#FFFFFF" filter="url(#f1f2saznbi6587)" points="40,250,132,250,139,272.2969,596,272.2969,596,387,40,387,40,250" style="stroke:#000000;stroke-width:1.5;"/><line style="stroke:#000000;stroke-width:1.5;" x1="40" x2="139" y1="272.2969" y2="272.2969"/><text fill="#000000" font-family="sans-serif" font-size="14" font-weight="bold" lengthAdjust="spacing" textLength="86" x="44" y="264.9951">controllers</text><!--MD5=[c52f45833d539af9e29a9d34b8b7302b]
cluster utils--><polygon fill="#FFFFFF" filter="url(#f1f2saznbi6587)" points="2378,991.5,2417,991.5,2424,1013.7969,2536,1013.7969,2536,1141.5,2378,1141.5,2378,991.5" style="stroke:#000000;stroke-width:1.5;"/><line style="stroke:#000000;stroke-width:1.5;" x1="2378" x2="2424" y1="1013.7969" y2="1013.7969"/><text fill="#000000" font-family="sans-serif" font-size="14" font-weight="bold" lengthAdjust="spacing" textLength="33" x="2382" y="1006.4951">utils</text><!--MD5=[7b0cfd9e7522513355bc4d2674f12d2a]
class AnalyseCenterPerformanceUI--><rect codeLine="4" fill="#FEFECE" filter="url(#f1f2saznbi6587)" height="48" id="AnalyseCenterPerformanceUI" style="stroke:#A80036;stroke-width:1.5;" width="214" x="211" y="41"/><ellipse cx="226" cy="57" fill="#ADD1B2" rx="11" ry="11" style="stroke:#A80036;stroke-width:1.0;"/><path d="M228.9688,62.6406 Q228.3906,62.9375 227.75,63.0781 Q227.1094,63.2344 226.4063,63.2344 Q223.9063,63.2344 222.5781,61.5938 Q221.2656,59.9375 221.2656,56.8125 Q221.2656,53.6875 222.5781,52.0313 Q223.9063,50.375 226.4063,50.375 Q227.1094,50.375 227.75,50.5313 Q228.4063,50.6875 228.9688,50.9844 L228.9688,53.7031 Q228.3438,53.125 227.75,52.8594 Q227.1563,52.5781 226.5313,52.5781 Q225.1875,52.5781 224.5,53.6563 Q223.8125,54.7188 223.8125,56.8125 Q223.8125,58.9063 224.5,59.9844 Q225.1875,61.0469 226.5313,61.0469 Q227.1563,61.0469 227.75,60.7813 Q228.3438,60.5 228.9688,59.9219 L228.9688,62.6406 Z " fill="#000000"/><text fill="#000000" font-family="sans-serif" font-size="12" lengthAdjust="spacing" textLength="182" x="240" y="61.1543">AnalyseCenterPerformanceUI</text><line style="stroke:#A80036;stroke-width:1.5;" x1="212" x2="424" y1="73" y2="73"/><line style="stroke:#A80036;stroke-width:1.5;" x1="212" x2="424" y1="81" y2="81"/><!--MD5=[29ca87e3f6f297962d71688dc1212604]
class CenterEventType--><rect codeLine="10" fill="#FEFECE" filter="url(#f1f2saznbi6587)" height="86.4141" id="CenterEventType" style="stroke:#A80036;stroke-width:1.5;" width="138" x="2013" y="285"/><ellipse cx="2028" cy="301" fill="#EB937F" rx="11" ry="11" style="stroke:#A80036;stroke-width:1.0;"/><path d="M2032.1094,307 L2024.3906,307 L2024.3906,294.6094 L2032.1094,294.6094 L2032.1094,296.7656 L2026.8438,296.7656 L2026.8438,299.4375 L2031.6094,299.4375 L2031.6094,301.5938 L2026.8438,301.5938 L2026.8438,304.8438 L2032.1094,304.8438 L2032.1094,307 Z " fill="#000000"/><text fill="#000000" font-family="sans-serif" font-size="12" lengthAdjust="spacing" textLength="106" x="2042" y="305.1543">CenterEventType</text><line style="stroke:#A80036;stroke-width:1.5;" x1="2014" x2="2150" y1="317" y2="317"/><text fill="#000000" font-family="sans-serif" font-size="11" lengthAdjust="spacing" textLength="44" x="2019" y="331.2104">ARRIVAL</text><text fill="#000000" font-family="sans-serif" font-size="11" lengthAdjust="spacing" textLength="70" x="2019" y="344.0151">VACCINATED</text><text fill="#000000" font-family="sans-serif" font-size="11" lengthAdjust="spacing" textLength="58" x="2019" y="356.8198">DEPARTED</text><line style="stroke:#A80036;stroke-width:1.5;" x1="2014" x2="2150" y1="363.4141" y2="363.4141"/><!--MD5=[a29876ea2f21a6ca48ea477740122fd8]
class VaccinationCenterStore--><rect codeLine="18" fill="#FEFECE" filter="url(#f1f2saznbi6587)" height="137.6328" id="VaccinationCenterStore" style="stroke:#A80036;stroke-width:1.5;" width="1031" x="763.5" y="259"/><ellipse cx="1200.25" cy="275" fill="#ADD1B2" rx="11" ry="11" style="stroke:#A80036;stroke-width:1.0;"/><path d="M1203.2188,280.6406 Q1202.6406,280.9375 1202,281.0781 Q1201.3594,281.2344 1200.6563,281.2344 Q1198.1563,281.2344 1196.8281,279.5938 Q1195.5156,277.9375 1195.5156,274.8125 Q1195.5156,271.6875 1196.8281,270.0313 Q1198.1563,268.375 1200.6563,268.375 Q1201.3594,268.375 1202,268.5313 Q1202.6563,268.6875 1203.2188,268.9844 L1203.2188,271.7031 Q1202.5938,271.125 1202,270.8594 Q1201.4063,270.5781 1200.7813,270.5781 Q1199.4375,270.5781 1198.75,271.6563 Q1198.0625,272.7188 1198.0625,274.8125 Q1198.0625,276.9063 1198.75,277.9844 Q1199.4375,279.0469 1200.7813,279.0469 Q1201.4063,279.0469 1202,278.7813 Q1202.5938,278.5 1203.2188,277.9219 L1203.2188,280.6406 Z " fill="#000000"/><text fill="#000000" font-family="sans-serif" font-size="12" lengthAdjust="spacing" textLength="149" x="1220.75" y="279.1543">VaccinationCenterStore</text><line style="stroke:#A80036;stroke-width:1.5;" x1="764.5" x2="1793.5" y1="291" y2="291"/><line style="stroke:#A80036;stroke-width:1.5;" x1="764.5" x2="1793.5" y1="299" y2="299"/><text fill="#000000" font-family="sans-serif" font-size="11" lengthAdjust="spacing" textLength="1019" x="769.5" y="313.2104">+createVaccinationCenter(name,address,emailAddress,phoneNumber,faxNumber,websiteAddress,openingHours,closingHours,slotDuration,maximumVaccinesPerSlot,coordinator)</text><text fill="#000000" font-family="sans-serif" font-size="11" lengthAdjust="spacing" textLength="196" x="769.5" y="326.0151">+validateVaccinatonCenter(center)</text><text fill="#000000" font-family="sans-serif" font-size="11" lengthAdjust="spacing" textLength="182" x="769.5" y="338.8198">+saveVaccinationCenter(center)</text><text fill="#000000" font-family="sans-serif" font-size="11" lengthAdjust="spacing" textLength="144" x="769.5" y="351.6245">+checkDuplicates(center)</text><text fill="#000000" font-family="sans-serif" font-size="11" lengthAdjust="spacing" textLength="230" x="769.5" y="364.4292">+getVaccinationCenterWithPhone(phone)</text><text fill="#000000" font-family="sans-serif" font-size="11" lengthAdjust="spacing" textLength="0" x="773.5" y="377.2339"/><text fill="#000000" font-family="sans-serif" font-size="11" lengthAdjust="spacing" textLength="171" x="769.5" y="390.0386">-addVaccinationCenter(center)</text><!--MD5=[20d765a59dde7f6830bc6bfb5c6ca029]
class CenterEventList--><rect codeLine="30" fill="#FEFECE" filter="url(#f1f2saznbi6587)" height="124.8281" id="CenterEventList" style="stroke:#A80036;stroke-width:1.5;" width="204" x="2110" y="737.5"/><ellipse cx="2158.75" cy="753.5" fill="#ADD1B2" rx="11" ry="11" style="stroke:#A80036;stroke-width:1.0;"/><path d="M2161.7188,759.1406 Q2161.1406,759.4375 2160.5,759.5781 Q2159.8594,759.7344 2159.1563,759.7344 Q2156.6563,759.7344 2155.3281,758.0938 Q2154.0156,756.4375 2154.0156,753.3125 Q2154.0156,750.1875 2155.3281,748.5313 Q2156.6563,746.875 2159.1563,746.875 Q2159.8594,746.875 2160.5,747.0313 Q2161.1563,747.1875 2161.7188,747.4844 L2161.7188,750.2031 Q2161.0938,749.625 2160.5,749.3594 Q2159.9063,749.0781 2159.2813,749.0781 Q2157.9375,749.0781 2157.25,750.1563 Q2156.5625,751.2188 2156.5625,753.3125 Q2156.5625,755.4063 2157.25,756.4844 Q2157.9375,757.5469 2159.2813,757.5469 Q2159.9063,757.5469 2160.5,757.2813 Q2161.0938,757 2161.7188,756.4219 L2161.7188,759.1406 Z " fill="#000000"/><text fill="#000000" font-family="sans-serif" font-size="12" lengthAdjust="spacing" textLength="98" x="2179.25" y="757.6543">CenterEventList</text><line style="stroke:#A80036;stroke-width:1.5;" x1="2111" x2="2313" y1="769.5" y2="769.5"/><text fill="#000000" font-family="sans-serif" font-size="11" lengthAdjust="spacing" textLength="157" x="2116" y="783.7104">-events: List&lt;CenterEvent&gt;</text><line style="stroke:#A80036;stroke-width:1.5;" x1="2111" x2="2313" y1="790.3047" y2="790.3047"/><text fill="#000000" font-family="sans-serif" font-size="11" lengthAdjust="spacing" textLength="192" x="2116" y="804.5151">+create(date,eventType,snsUser)</text><text fill="#000000" font-family="sans-serif" font-size="11" lengthAdjust="spacing" textLength="75" x="2116" y="817.3198">+save(event)</text><text fill="#000000" font-family="sans-serif" font-size="11" lengthAdjust="spacing" textLength="124" x="2116" y="830.1245">+getEventsInDay(day)</text><text fill="#000000" font-family="sans-serif" font-size="11" lengthAdjust="spacing" textLength="0" x="2120" y="842.9292"/><text fill="#000000" font-family="sans-serif" font-size="11" lengthAdjust="spacing" textLength="106" x="2116" y="855.7339">+CenterEventList()</text><!--MD5=[de60e6d4f424ae4d0522096f76a59010]
class VaccinationCenter--><rect codeLine="42" fill="#FEFECE" filter="url(#f1f2saznbi6587)" height="137.6328" id="VaccinationCenter" style="stroke:#A80036;stroke-width:1.5;" width="796" x="985" y="497"/><ellipse cx="1321.25" cy="513" fill="#ADD1B2" rx="11" ry="11" style="stroke:#A80036;stroke-width:1.0;"/><path d="M1324.2188,518.6406 Q1323.6406,518.9375 1323,519.0781 Q1322.3594,519.2344 1321.6563,519.2344 Q1319.1563,519.2344 1317.8281,517.5938 Q1316.5156,515.9375 1316.5156,512.8125 Q1316.5156,509.6875 1317.8281,508.0313 Q1319.1563,506.375 1321.6563,506.375 Q1322.3594,506.375 1323,506.5313 Q1323.6563,506.6875 1324.2188,506.9844 L1324.2188,509.7031 Q1323.5938,509.125 1323,508.8594 Q1322.4063,508.5781 1321.7813,508.5781 Q1320.4375,508.5781 1319.75,509.6563 Q1319.0625,510.7188 1319.0625,512.8125 Q1319.0625,514.9063 1319.75,515.9844 Q1320.4375,517.0469 1321.7813,517.0469 Q1322.4063,517.0469 1323,516.7813 Q1323.5938,516.5 1324.2188,515.9219 L1324.2188,518.6406 Z " fill="#000000"/><text fill="#000000" font-family="sans-serif" font-size="12" lengthAdjust="spacing" textLength="115" x="1341.75" y="517.1543">VaccinationCenter</text><line style="stroke:#A80036;stroke-width:1.5;" x1="986" x2="1780" y1="529" y2="529"/><text fill="#000000" font-family="sans-serif" font-size="11" lengthAdjust="spacing" textLength="78" x="991" y="543.2104">-name: String</text><text fill="#000000" font-family="sans-serif" font-size="11" lengthAdjust="spacing" textLength="93" x="991" y="556.0151">-address: String</text><text fill="#000000" font-family="sans-serif" font-size="11" lengthAdjust="spacing" textLength="124" x="991" y="568.8198">-emailAddress: String</text><text fill="#000000" font-family="sans-serif" font-size="11" lengthAdjust="spacing" textLength="126" x="991" y="581.6245">-phoneNumber: String</text><text fill="#000000" font-family="sans-serif" font-size="11" lengthAdjust="spacing" textLength="108" x="991" y="594.4292">-faxNumber: String</text><text fill="#000000" font-family="sans-serif" font-size="11" lengthAdjust="spacing" textLength="137" x="991" y="607.2339">-websiteAddress: String</text><line style="stroke:#A80036;stroke-width:1.5;" x1="986" x2="1780" y1="613.8281" y2="613.8281"/><text fill="#000000" font-family="sans-serif" font-size="11" lengthAdjust="spacing" textLength="784" x="991" y="628.0386">+VaccinationCenter(name,address,emailAddress,phoneNumber,faxNumber,websiteAddress,openingHours,closingHours,slot,coordinator)</text><!--MD5=[7421f545a0d8420c5bec41e74b387d9c]
class Employee--><rect codeLine="53" fill="#FEFECE" filter="url(#f1f2saznbi6587)" height="150.4375" id="Employee" style="stroke:#A80036;stroke-width:1.5;" width="388" x="1666" y="725"/><ellipse cx="1825.75" cy="741" fill="#ADD1B2" rx="11" ry="11" style="stroke:#A80036;stroke-width:1.0;"/><path d="M1828.7188,746.6406 Q1828.1406,746.9375 1827.5,747.0781 Q1826.8594,747.2344 1826.1563,747.2344 Q1823.6563,747.2344 1822.3281,745.5938 Q1821.0156,743.9375 1821.0156,740.8125 Q1821.0156,737.6875 1822.3281,736.0313 Q1823.6563,734.375 1826.1563,734.375 Q1826.8594,734.375 1827.5,734.5313 Q1828.1563,734.6875 1828.7188,734.9844 L1828.7188,737.7031 Q1828.0938,737.125 1827.5,736.8594 Q1826.9063,736.5781 1826.2813,736.5781 Q1824.9375,736.5781 1824.25,737.6563 Q1823.5625,738.7188 1823.5625,740.8125 Q1823.5625,742.9063 1824.25,743.9844 Q1824.9375,745.0469 1826.2813,745.0469 Q1826.9063,745.0469 1827.5,744.7813 Q1828.0938,744.5 1828.7188,743.9219 L1828.7188,746.6406 Z " fill="#000000"/><text fill="#000000" font-family="sans-serif" font-size="12" lengthAdjust="spacing" textLength="60" x="1846.25" y="745.1543">Employee</text><line style="stroke:#A80036;stroke-width:1.5;" x1="1667" x2="2053" y1="757" y2="757"/><text fill="#000000" font-family="sans-serif" font-size="11" lengthAdjust="spacing" textLength="56" x="1672" y="771.2104">-id: String</text><text fill="#000000" font-family="sans-serif" font-size="11" lengthAdjust="spacing" textLength="78" x="1672" y="784.0151">-name: String</text><text fill="#000000" font-family="sans-serif" font-size="11" lengthAdjust="spacing" textLength="77" x="1672" y="796.8198">-email: String</text><text fill="#000000" font-family="sans-serif" font-size="11" lengthAdjust="spacing" textLength="81" x="1672" y="809.6245">-phone: String</text><text fill="#000000" font-family="sans-serif" font-size="11" lengthAdjust="spacing" textLength="93" x="1672" y="822.4292">-address: String</text><text fill="#000000" font-family="sans-serif" font-size="11" lengthAdjust="spacing" textLength="133" x="1672" y="835.2339">-citizenCardNumber: int</text><text fill="#000000" font-family="sans-serif" font-size="11" lengthAdjust="spacing" textLength="78" x="1672" y="848.0386">-roleId: String</text><line style="stroke:#A80036;stroke-width:1.5;" x1="1667" x2="2053" y1="854.6328" y2="854.6328"/><text fill="#000000" font-family="sans-serif" font-size="11" lengthAdjust="spacing" textLength="376" x="1672" y="868.8433">+Employee(name,email,phone,address,citizenCardNumber,roleId)</text><!--MD5=[35309a5dc68e1a9749f40371070ca056]
class CenterEvent--><rect codeLine="65" fill="#FEFECE" filter="url(#f1f2saznbi6587)" height="112.0234" id="CenterEvent" style="stroke:#A80036;stroke-width:1.5;" width="237" x="1816.5" y="510"/><ellipse cx="1892.25" cy="526" fill="#ADD1B2" rx="11" ry="11" style="stroke:#A80036;stroke-width:1.0;"/><path d="M1895.2188,531.6406 Q1894.6406,531.9375 1894,532.0781 Q1893.3594,532.2344 1892.6563,532.2344 Q1890.1563,532.2344 1888.8281,530.5938 Q1887.5156,528.9375 1887.5156,525.8125 Q1887.5156,522.6875 1888.8281,521.0313 Q1890.1563,519.375 1892.6563,519.375 Q1893.3594,519.375 1894,519.5313 Q1894.6563,519.6875 1895.2188,519.9844 L1895.2188,522.7031 Q1894.5938,522.125 1894,521.8594 Q1893.4063,521.5781 1892.7813,521.5781 Q1891.4375,521.5781 1890.75,522.6563 Q1890.0625,523.7188 1890.0625,525.8125 Q1890.0625,527.9063 1890.75,528.9844 Q1891.4375,530.0469 1892.7813,530.0469 Q1893.4063,530.0469 1894,529.7813 Q1894.5938,529.5 1895.2188,528.9219 L1895.2188,531.6406 Z " fill="#000000"/><text fill="#000000" font-family="sans-serif" font-size="12" lengthAdjust="spacing" textLength="77" x="1912.75" y="530.1543">CenterEvent</text><line style="stroke:#A80036;stroke-width:1.5;" x1="1817.5" x2="2052.5" y1="542" y2="542"/><text fill="#000000" font-family="sans-serif" font-size="11" lengthAdjust="spacing" textLength="63" x="1822.5" y="556.2104">-date: Date</text><text fill="#000000" font-family="sans-serif" font-size="11" lengthAdjust="spacing" textLength="166" x="1822.5" y="569.0151">-eventType: CenterEventType</text><line style="stroke:#A80036;stroke-width:1.5;" x1="1817.5" x2="2052.5" y1="575.6094" y2="575.6094"/><text fill="#000000" font-family="sans-serif" font-size="11" lengthAdjust="spacing" textLength="78" x="1822.5" y="589.8198">+isInDay(day)</text><text fill="#000000" font-family="sans-serif" font-size="11" lengthAdjust="spacing" textLength="0" x="1826.5" y="602.6245"/><text fill="#000000" font-family="sans-serif" font-size="11" lengthAdjust="spacing" textLength="225" x="1822.5" y="615.4292">+CenterEvent(date,eventType,snsUser)</text><!--MD5=[45c6380d22fb72521f5065026b277fb9]
class Slot--><rect codeLine="74" fill="#FEFECE" filter="url(#f1f2saznbi6587)" height="86.4141" id="Slot" style="stroke:#A80036;stroke-width:1.5;" width="217" x="1089.5" y="757"/><ellipse cx="1181.75" cy="773" fill="#ADD1B2" rx="11" ry="11" style="stroke:#A80036;stroke-width:1.0;"/><path d="M1184.7188,778.6406 Q1184.1406,778.9375 1183.5,779.0781 Q1182.8594,779.2344 1182.1563,779.2344 Q1179.6563,779.2344 1178.3281,777.5938 Q1177.0156,775.9375 1177.0156,772.8125 Q1177.0156,769.6875 1178.3281,768.0313 Q1179.6563,766.375 1182.1563,766.375 Q1182.8594,766.375 1183.5,766.5313 Q1184.1563,766.6875 1184.7188,766.9844 L1184.7188,769.7031 Q1184.0938,769.125 1183.5,768.8594 Q1182.9063,768.5781 1182.2813,768.5781 Q1180.9375,768.5781 1180.25,769.6563 Q1179.5625,770.7188 1179.5625,772.8125 Q1179.5625,774.9063 1180.25,775.9844 Q1180.9375,777.0469 1182.2813,777.0469 Q1182.9063,777.0469 1183.5,776.7813 Q1184.0938,776.5 1184.7188,775.9219 L1184.7188,778.6406 Z " fill="#000000"/><text fill="#000000" font-family="sans-serif" font-size="12" lengthAdjust="spacing" textLength="24" x="1202.25" y="777.1543">Slot</text><line style="stroke:#A80036;stroke-width:1.5;" x1="1090.5" x2="1305.5" y1="789" y2="789"/><text fill="#000000" font-family="sans-serif" font-size="11" lengthAdjust="spacing" textLength="73" x="1095.5" y="803.2104">-duration: int</text><text fill="#000000" font-family="sans-serif" font-size="11" lengthAdjust="spacing" textLength="141" x="1095.5" y="816.0151">-maxVaccinesPerSlot: int</text><line style="stroke:#A80036;stroke-width:1.5;" x1="1090.5" x2="1305.5" y1="822.6094" y2="822.6094"/><text fill="#000000" font-family="sans-serif" font-size="11" lengthAdjust="spacing" textLength="205" x="1095.5" y="836.8198">+Slot(duration,maxVaccinesPerSlot)</text><!--MD5=[1eab586b2d892e406b67662793bf7ce1]
class CenterPerformance--><rect codeLine="81" fill="#FEFECE" filter="url(#f1f2saznbi6587)" height="176.0469" id="CenterPerformance" style="stroke:#A80036;stroke-width:1.5;" width="289" x="1341.5" y="712"/><ellipse cx="1420.75" cy="728" fill="#ADD1B2" rx="11" ry="11" style="stroke:#A80036;stroke-width:1.0;"/><path d="M1423.7188,733.6406 Q1423.1406,733.9375 1422.5,734.0781 Q1421.8594,734.2344 1421.1563,734.2344 Q1418.6563,734.2344 1417.3281,732.5938 Q1416.0156,730.9375 1416.0156,727.8125 Q1416.0156,724.6875 1417.3281,723.0313 Q1418.6563,721.375 1421.1563,721.375 Q1421.8594,721.375 1422.5,721.5313 Q1423.1563,721.6875 1423.7188,721.9844 L1423.7188,724.7031 Q1423.0938,724.125 1422.5,723.8594 Q1421.9063,723.5781 1421.2813,723.5781 Q1419.9375,723.5781 1419.25,724.6563 Q1418.5625,725.7188 1418.5625,727.8125 Q1418.5625,729.9063 1419.25,730.9844 Q1419.9375,732.0469 1421.2813,732.0469 Q1421.9063,732.0469 1422.5,731.7813 Q1423.0938,731.5 1423.7188,730.9219 L1423.7188,733.6406 Z " fill="#000000"/><text fill="#000000" font-family="sans-serif" font-size="12" lengthAdjust="spacing" textLength="122" x="1441.25" y="732.1543">CenterPerformance</text><line style="stroke:#A80036;stroke-width:1.5;" x1="1342.5" x2="1629.5" y1="744" y2="744"/><text fill="#000000" font-family="sans-serif" font-size="11" lengthAdjust="spacing" textLength="83" x="1347.5" y="758.2104">-day: Calendar</text><text fill="#000000" font-family="sans-serif" font-size="11" lengthAdjust="spacing" textLength="124" x="1347.5" y="771.0151">-maxSumSubList: List</text><text fill="#000000" font-family="sans-serif" font-size="11" lengthAdjust="spacing" textLength="51" x="1347.5" y="783.8198">-sum: int</text><line style="stroke:#A80036;stroke-width:1.5;" x1="1342.5" x2="1629.5" y1="790.4141" y2="790.4141"/><text fill="#000000" font-family="sans-serif" font-size="11" lengthAdjust="spacing" textLength="277" x="1347.5" y="804.6245">+CenterPerformance(day,interval,openingHours)</text><text fill="#000000" font-family="sans-serif" font-size="11" lengthAdjust="spacing" textLength="0" x="1351.5" y="817.4292"/><text fill="#000000" font-family="sans-serif" font-size="11" lengthAdjust="spacing" textLength="56" x="1347.5" y="830.2339">+getDay()</text><text fill="#000000" font-family="sans-serif" font-size="11" lengthAdjust="spacing" textLength="125" x="1347.5" y="843.0386">+getMaxSumSubList()</text><text fill="#000000" font-family="sans-serif" font-size="11" lengthAdjust="spacing" textLength="61" x="1347.5" y="855.8433">+getSum()</text><text fill="#000000" font-family="sans-serif" font-size="11" lengthAdjust="spacing" textLength="122" x="1347.5" y="868.6479">+getStartingInterval()</text><text fill="#000000" font-family="sans-serif" font-size="11" lengthAdjust="spacing" textLength="115" x="1347.5" y="881.4526">+getEndingInterval()</text><!--MD5=[02e4b9b7573f1156f41e60aa5b4e25a4]
class Company--><rect codeLine="95" fill="#FEFECE" filter="url(#f1f2saznbi6587)" height="124.8281" id="Company" style="stroke:#A80036;stroke-width:1.5;" width="289" x="660.5" y="503.5"/><ellipse cx="772.25" cy="519.5" fill="#ADD1B2" rx="11" ry="11" style="stroke:#A80036;stroke-width:1.0;"/><path d="M775.2188,525.1406 Q774.6406,525.4375 774,525.5781 Q773.3594,525.7344 772.6563,525.7344 Q770.1563,525.7344 768.8281,524.0938 Q767.5156,522.4375 767.5156,519.3125 Q767.5156,516.1875 768.8281,514.5313 Q770.1563,512.875 772.6563,512.875 Q773.3594,512.875 774,513.0313 Q774.6563,513.1875 775.2188,513.4844 L775.2188,516.2031 Q774.5938,515.625 774,515.3594 Q773.4063,515.0781 772.7813,515.0781 Q771.4375,515.0781 770.75,516.1563 Q770.0625,517.2188 770.0625,519.3125 Q770.0625,521.4063 770.75,522.4844 Q771.4375,523.5469 772.7813,523.5469 Q773.4063,523.5469 774,523.2813 Q774.5938,523 775.2188,522.4219 L775.2188,525.1406 Z " fill="#000000"/><text fill="#000000" font-family="sans-serif" font-size="12" lengthAdjust="spacing" textLength="57" x="792.75" y="523.6543">Company</text><line style="stroke:#A80036;stroke-width:1.5;" x1="661.5" x2="948.5" y1="535.5" y2="535.5"/><text fill="#000000" font-family="sans-serif" font-size="11" lengthAdjust="spacing" textLength="112" x="666.5" y="549.7104">-designation: String</text><text fill="#000000" font-family="sans-serif" font-size="11" lengthAdjust="spacing" textLength="142" x="666.5" y="562.5151">-authFacade: AuthFacade</text><text fill="#000000" font-family="sans-serif" font-size="11" lengthAdjust="spacing" textLength="277" x="666.5" y="575.3198">-vaccinationCenterStore: VaccinationCenterStore</text><line style="stroke:#A80036;stroke-width:1.5;" x1="661.5" x2="948.5" y1="581.9141" y2="581.9141"/><text fill="#000000" font-family="sans-serif" font-size="11" lengthAdjust="spacing" textLength="136" x="666.5" y="596.1245">+Company(designation)</text><text fill="#000000" font-family="sans-serif" font-size="11" lengthAdjust="spacing" textLength="0" x="670.5" y="608.9292"/><text fill="#000000" font-family="sans-serif" font-size="11" lengthAdjust="spacing" textLength="168" x="666.5" y="621.7339">+getVaccinationCenterStore()</text><!--MD5=[525b5724b938e460f24c1c25ff15360b]
class MaxSumSublistService--><rect codeLine="107" fill="#FEFECE" filter="url(#f1f2saznbi6587)" height="176.0469" id="MaxSumSublistService" style="stroke:#A80036;stroke-width:1.5;" width="175" x="1398.5" y="988"/><ellipse cx="1415.75" cy="1004" fill="#ADD1B2" rx="11" ry="11" style="stroke:#A80036;stroke-width:1.0;"/><path d="M1418.7188,1009.6406 Q1418.1406,1009.9375 1417.5,1010.0781 Q1416.8594,1010.2344 1416.1563,1010.2344 Q1413.6563,1010.2344 1412.3281,1008.5938 Q1411.0156,1006.9375 1411.0156,1003.8125 Q1411.0156,1000.6875 1412.3281,999.0313 Q1413.6563,997.375 1416.1563,997.375 Q1416.8594,997.375 1417.5,997.5313 Q1418.1563,997.6875 1418.7188,997.9844 L1418.7188,1000.7031 Q1418.0938,1000.125 1417.5,999.8594 Q1416.9063,999.5781 1416.2813,999.5781 Q1414.9375,999.5781 1414.25,1000.6563 Q1413.5625,1001.7188 1413.5625,1003.8125 Q1413.5625,1005.9063 1414.25,1006.9844 Q1414.9375,1008.0469 1416.2813,1008.0469 Q1416.9063,1008.0469 1417.5,1007.7813 Q1418.0938,1007.5 1418.7188,1006.9219 L1418.7188,1009.6406 Z " fill="#000000"/><text fill="#000000" font-family="sans-serif" font-size="12" lengthAdjust="spacing" textLength="138" x="1430.25" y="1008.1543">MaxSumSublistService</text><line style="stroke:#A80036;stroke-width:1.5;" x1="1399.5" x2="1572.5" y1="1020" y2="1020"/><text fill="#000000" font-family="sans-serif" font-size="11" lengthAdjust="spacing" textLength="49" x="1404.5" y="1034.2104">-list: List</text><text fill="#000000" font-family="sans-serif" font-size="11" lengthAdjust="spacing" textLength="111" x="1404.5" y="1047.0151">-beginningIndex: int</text><text fill="#000000" font-family="sans-serif" font-size="11" lengthAdjust="spacing" textLength="77" x="1404.5" y="1059.8198">-endIndex: int</text><text fill="#000000" font-family="sans-serif" font-size="11" lengthAdjust="spacing" textLength="76" x="1404.5" y="1072.6245">-maxSum: int</text><line style="stroke:#A80036;stroke-width:1.5;" x1="1399.5" x2="1572.5" y1="1079.2188" y2="1079.2188"/><text fill="#000000" font-family="sans-serif" font-size="11" lengthAdjust="spacing" textLength="163" x="1404.5" y="1093.4292">+MaxSumSublistService(list)</text><text fill="#000000" font-family="sans-serif" font-size="11" lengthAdjust="spacing" textLength="0" x="1408.5" y="1106.2339"/><text fill="#000000" font-family="sans-serif" font-size="11" lengthAdjust="spacing" textLength="61" x="1404.5" y="1119.0386">+getSum()</text><text fill="#000000" font-family="sans-serif" font-size="11" lengthAdjust="spacing" textLength="121" x="1404.5" y="1131.8433">+getBegginingIndex()</text><text fill="#000000" font-family="sans-serif" font-size="11" lengthAdjust="spacing" textLength="86" x="1404.5" y="1144.6479">+getEndIndex()</text><text fill="#000000" font-family="sans-serif" font-size="11" lengthAdjust="spacing" textLength="83" x="1404.5" y="1157.4526">+getMaxSum()</text><!--MD5=[ad586fe025efc8307d6b66bf6c839593]
class AnalyseCenterPerformanceController--><rect codeLine="124" fill="#FEFECE" filter="url(#f1f2saznbi6587)" height="86.4141" id="AnalyseCenterPerformanceController" style="stroke:#A80036;stroke-width:1.5;" width="524" x="56" y="285"/><ellipse cx="198.25" cy="301" fill="#ADD1B2" rx="11" ry="11" style="stroke:#A80036;stroke-width:1.0;"/><path d="M201.2188,306.6406 Q200.6406,306.9375 200,307.0781 Q199.3594,307.2344 198.6563,307.2344 Q196.1563,307.2344 194.8281,305.5938 Q193.5156,303.9375 193.5156,300.8125 Q193.5156,297.6875 194.8281,296.0313 Q196.1563,294.375 198.6563,294.375 Q199.3594,294.375 200,294.5313 Q200.6563,294.6875 201.2188,294.9844 L201.2188,297.7031 Q200.5938,297.125 200,296.8594 Q199.4063,296.5781 198.7813,296.5781 Q197.4375,296.5781 196.75,297.6563 Q196.0625,298.7188 196.0625,300.8125 Q196.0625,302.9063 196.75,303.9844 Q197.4375,305.0469 198.7813,305.0469 Q199.4063,305.0469 200,304.7813 Q200.5938,304.5 201.2188,303.9219 L201.2188,306.6406 Z " fill="#000000"/><text fill="#000000" font-family="sans-serif" font-size="12" lengthAdjust="spacing" textLength="231" x="218.75" y="305.1543">AnalyseCenterPerformanceController</text><line style="stroke:#A80036;stroke-width:1.5;" x1="57" x2="579" y1="317" y2="317"/><line style="stroke:#A80036;stroke-width:1.5;" x1="57" x2="579" y1="325" y2="325"/><text fill="#000000" font-family="sans-serif" font-size="11" lengthAdjust="spacing" textLength="97" x="62" y="339.2104">+getCategories()</text><text fill="#000000" font-family="sans-serif" font-size="11" lengthAdjust="spacing" textLength="512" x="62" y="352.0151">+CheckWaitingRoom(ref,designation,informalDesc,technicalDesc,duration,cost,categoryId)</text><text fill="#000000" font-family="sans-serif" font-size="11" lengthAdjust="spacing" textLength="71" x="62" y="364.8198">+saveTask()</text><!--MD5=[2e42295458bb0bec21c9622a623eb29e]
class Time--><rect codeLine="132" fill="#FEFECE" filter="url(#f1f2saznbi6587)" height="99.2188" id="Time" style="stroke:#A80036;stroke-width:1.5;" width="126" x="2394" y="1026.5"/><ellipse cx="2438.25" cy="1042.5" fill="#ADD1B2" rx="11" ry="11" style="stroke:#A80036;stroke-width:1.0;"/><path d="M2441.2188,1048.1406 Q2440.6406,1048.4375 2440,1048.5781 Q2439.3594,1048.7344 2438.6563,1048.7344 Q2436.1563,1048.7344 2434.8281,1047.0938 Q2433.5156,1045.4375 2433.5156,1042.3125 Q2433.5156,1039.1875 2434.8281,1037.5313 Q2436.1563,1035.875 2438.6563,1035.875 Q2439.3594,1035.875 2440,1036.0313 Q2440.6563,1036.1875 2441.2188,1036.4844 L2441.2188,1039.2031 Q2440.5938,1038.625 2440,1038.3594 Q2439.4063,1038.0781 2438.7813,1038.0781 Q2437.4375,1038.0781 2436.75,1039.1563 Q2436.0625,1040.2188 2436.0625,1042.3125 Q2436.0625,1044.4063 2436.75,1045.4844 Q2437.4375,1046.5469 2438.7813,1046.5469 Q2439.4063,1046.5469 2440,1046.2813 Q2440.5938,1046 2441.2188,1045.4219 L2441.2188,1048.1406 Z " fill="#000000"/><text fill="#000000" font-family="sans-serif" font-size="12" lengthAdjust="spacing" textLength="29" x="2458.75" y="1046.6543">Time</text><line style="stroke:#A80036;stroke-width:1.5;" x1="2395" x2="2519" y1="1058.5" y2="1058.5"/><text fill="#000000" font-family="sans-serif" font-size="11" lengthAdjust="spacing" textLength="52" x="2400" y="1072.7104">-hour: int</text><text fill="#000000" font-family="sans-serif" font-size="11" lengthAdjust="spacing" textLength="65" x="2400" y="1085.5151">-minute: int</text><line style="stroke:#A80036;stroke-width:1.5;" x1="2395" x2="2519" y1="1092.1094" y2="1092.1094"/><text fill="#000000" font-family="sans-serif" font-size="11" lengthAdjust="spacing" textLength="114" x="2400" y="1106.3198">+Time(hour,minute)</text><text fill="#000000" font-family="sans-serif" font-size="11" lengthAdjust="spacing" textLength="70" x="2400" y="1119.1245">+Time(time)</text><!--MD5=[8e55428d92a5788b28670d4e184d7c1d]
class snsUser--><rect fill="#FEFECE" filter="url(#f1f2saznbi6587)" height="48" id="snsUser" style="stroke:#A80036;stroke-width:1.5;" width="83" x="2664.5" y="776"/><ellipse cx="2679.5" cy="792" fill="#ADD1B2" rx="11" ry="11" style="stroke:#A80036;stroke-width:1.0;"/><path d="M2682.4688,797.6406 Q2681.8906,797.9375 2681.25,798.0781 Q2680.6094,798.2344 2679.9063,798.2344 Q2677.4063,798.2344 2676.0781,796.5938 Q2674.7656,794.9375 2674.7656,791.8125 Q2674.7656,788.6875 2676.0781,787.0313 Q2677.4063,785.375 2679.9063,785.375 Q2680.6094,785.375 2681.25,785.5313 Q2681.9063,785.6875 2682.4688,785.9844 L2682.4688,788.7031 Q2681.8438,788.125 2681.25,787.8594 Q2680.6563,787.5781 2680.0313,787.5781 Q2678.6875,787.5781 2678,788.6563 Q2677.3125,789.7188 2677.3125,791.8125 Q2677.3125,793.9063 2678,794.9844 Q2678.6875,796.0469 2680.0313,796.0469 Q2680.6563,796.0469 2681.25,795.7813 Q2681.8438,795.5 2682.4688,794.9219 L2682.4688,797.6406 Z " fill="#000000"/><text fill="#000000" font-family="sans-serif" font-size="12" lengthAdjust="spacing" textLength="51" x="2693.5" y="796.1543">snsUser</text><line style="stroke:#A80036;stroke-width:1.5;" x1="2665.5" x2="2746.5" y1="808" y2="808"/><line style="stroke:#A80036;stroke-width:1.5;" x1="2665.5" x2="2746.5" y1="816" y2="816"/><!--MD5=[1d13de5e760cdeae93ca6db6fe28e2cb]
link AnalyseCenterPerformanceUI to AnalyseCenterPerformanceController--><path codeLine="142" d="M318,89.16 C318,131.7 318,223.08 318,279.37 " fill="none" id="AnalyseCenterPerformanceUI-to-AnalyseCenterPerformanceController" style="stroke:#A80036;stroke-width:1.0;stroke-dasharray:7.0,7.0;"/><polygon fill="#A80036" points="318,284.7,322,275.7,318,279.7,314,275.7,318,284.7" style="stroke:#A80036;stroke-width:1.0;"/><!--MD5=[cc56671b7038e21fc613037a00d35007]
link AnalyseCenterPerformanceController to Company--><path codeLine="143" d="M404.79,371.06 C479.34,407.18 587.96,459.82 673.24,501.15 " fill="none" id="AnalyseCenterPerformanceController-to-Company" style="stroke:#A80036;stroke-width:1.0;stroke-dasharray:7.0,7.0;"/><polygon fill="#A80036" points="677.8,503.36,671.4327,495.8462,673.2969,501.1871,667.956,503.0512,677.8,503.36" style="stroke:#A80036;stroke-width:1.0;"/><!--MD5=[db5fb34fd733ab3677281d60b785e712]
reverse link VaccinationCenter to Employee--><path codeLine="145" d="M1536.87,640.73 C1573.34,658.28 1612.07,677 1648,694.5 C1668.11,704.29 1689.26,714.65 1710.1,724.89 " fill="none" id="VaccinationCenter-backto-Employee" style="stroke:#A80036;stroke-width:1.0;"/><polygon fill="#FFFFFF" points="1525.12,635.07,1528.7896,641.2776,1535.9311,640.2778,1532.2615,634.0702,1525.12,635.07" style="stroke:#A80036;stroke-width:1.0;"/><text fill="#000000" font-family="sans-serif" font-size="13" lengthAdjust="spacing" textLength="73" x="1620" y="678.0669">coordinator</text><!--MD5=[91079b08053e6fc6d0a3af85820ed36a]
reverse link VaccinationCenter to Time--><path codeLine="146" d="M1794.28,634.49 C1795.86,634.66 1797.43,634.83 1799,635 C1874.09,643.01 2432.45,632.81 2476,694.5 C2546.56,794.47 2505.22,948.66 2476.86,1026.5 " fill="none" id="VaccinationCenter-backto-Time" style="stroke:#A80036;stroke-width:1.0;"/><polygon fill="#FFFFFF" points="1781.14,633.03,1786.6638,637.6654,1793.0672,634.3494,1787.5434,629.7139,1781.14,633.03" style="stroke:#A80036;stroke-width:1.0;"/><text fill="#000000" font-family="sans-serif" font-size="13" lengthAdjust="spacing" textLength="89" x="2515" y="804.5669">openingHours</text><!--MD5=[91079b08053e6fc6d0a3af85820ed36a]
reverse link VaccinationCenter to Time--><path codeLine="147" d="M1794.3,634.35 C1795.87,634.57 1797.44,634.78 1799,635 C1916.63,651.19 2240.69,616.25 2330,694.5 C2404.91,760.14 2351.52,817.84 2384,912 C2397.6,951.42 2417.06,994.42 2432.47,1026.34 " fill="none" id="VaccinationCenter-backto-Time-1" style="stroke:#A80036;stroke-width:1.0;"/><polygon fill="#FFFFFF" points="1781.2,632.52,1786.5889,637.3116,1793.0846,634.1802,1787.6957,629.3885,1781.2,632.52" style="stroke:#A80036;stroke-width:1.0;"/><text fill="#000000" font-family="sans-serif" font-size="13" lengthAdjust="spacing" textLength="82" x="2385" y="804.5669">closingHours</text><!--MD5=[99cf60c71dc20007695665c9ea3c4eb1]
reverse link VaccinationCenter to Slot--><path codeLine="148" d="M1320.49,645.39 C1290.74,682.7 1256.35,725.82 1231.6,756.86 " fill="none" id="VaccinationCenter-backto-Slot" style="stroke:#A80036;stroke-width:1.0;"/><polygon fill="#FFFFFF" points="1328.74,635.04,1321.8732,637.2418,1321.2646,644.4271,1328.1313,642.2254,1328.74,635.04" style="stroke:#A80036;stroke-width:1.0;"/><!--MD5=[b5cfad5f497f25fae1c228f2df0e544a]
reverse link VaccinationCenter to CenterEventList--><path codeLine="149" d="M1794.43,635.75 C1924.1,658.93 2041.29,682.06 2070,694.5 C2095,705.33 2119.77,721.26 2141.47,737.44 " fill="none" id="VaccinationCenter-backto-CenterEventList" style="stroke:#A80036;stroke-width:1.0;"/><polygon fill="#A80036" points="1781.44,633.44,1786.6434,638.4325,1793.2531,635.5495,1788.0497,630.557,1781.44,633.44" style="stroke:#A80036;stroke-width:1.0;"/><!--MD5=[85d8b15e810c9ff729a9ea97d09bcb70]
link VaccinationCenter to CenterPerformance--><path codeLine="151" d="M1413.21,635.04 C1423.89,659.11 1436.06,686.52 1447.35,711.94 " fill="none" id="VaccinationCenter-CenterPerformance" style="stroke:#A80036;stroke-width:1.0;"/><polygon fill="#000000" points="1438.0288,678.1363,1437.0448,668.6768,1431.6725,671.0618,1438.0288,678.1363" style="stroke:#000000;stroke-width:1.0;"/><text fill="#000000" font-family="sans-serif" font-size="13" lengthAdjust="spacing" textLength="65" x="1445" y="678.0669">generates</text><text fill="#000000" font-family="sans-serif" font-size="13" lengthAdjust="spacing" textLength="8" x="1407.79" y="654.6659">1</text><text fill="#000000" font-family="sans-serif" font-size="13" lengthAdjust="spacing" textLength="7" x="1436.7277" y="700.7984">*</text><!--MD5=[7128e4477b9604ff8fff1a66f8872886]
reverse link CenterPerformance to Time--><path codeLine="153" d="M1613.67,894.67 C1625.3,901.11 1637.17,907.02 1649,912 C1911.63,1022.56 2254.56,1059.74 2393.97,1070.81 " fill="none" id="CenterPerformance-backto-Time" style="stroke:#A80036;stroke-width:1.0;"/><polygon fill="#FFFFFF" points="1602.13,888.05,1605.3417,894.5064,1612.5367,894.025,1609.325,887.5686,1602.13,888.05" style="stroke:#A80036;stroke-width:1.0;"/><text fill="#000000" font-family="sans-serif" font-size="13" lengthAdjust="spacing" textLength="96" x="1712" y="933.0669">startingInterval</text><!--MD5=[7128e4477b9604ff8fff1a66f8872886]
reverse link CenterPerformance to Time--><path codeLine="154" d="M1608.55,894.38 C1621.71,901.34 1635.31,907.42 1649,912 C1684.45,923.85 1780,914.69 1817,920 C2031.73,950.83 2279.75,1021.11 2393.74,1055.42 " fill="none" id="CenterPerformance-backto-Time-1" style="stroke:#A80036;stroke-width:1.0;"/><polygon fill="#FFFFFF" points="1597.09,888.05,1600.4061,894.4534,1607.5923,893.8553,1604.2763,887.4519,1597.09,888.05" style="stroke:#A80036;stroke-width:1.0;"/><text fill="#000000" font-family="sans-serif" font-size="13" lengthAdjust="spacing" textLength="90" x="1906" y="933.0669">endingInterval</text><!--MD5=[7128e4477b9604ff8fff1a66f8872886]
reverse link CenterPerformance to Time--><path codeLine="155" d="M1608.06,894.55 C1621.37,901.52 1635.13,907.55 1649,912 C1686.68,924.08 1966.05,913.06 2005,920 C2148.54,945.59 2308.02,1009.1 2393.91,1046.4 " fill="none" id="CenterPerformance-backto-Time-2" style="stroke:#A80036;stroke-width:1.0;"/><polygon fill="#FFFFFF" points="1596.5,888.2,1599.8352,894.5935,1607.0196,893.9739,1603.6844,887.5804,1596.5,888.2" style="stroke:#A80036;stroke-width:1.0;"/><text fill="#000000" font-family="sans-serif" font-size="13" lengthAdjust="spacing" textLength="89" x="2082" y="933.0669">openingHours</text><!--MD5=[c366fc3d57755da5fa51cb044aed3a17]
link CenterPerformance to MaxSumSublistService--><path codeLine="157" d="M1486,888.07 C1486,919.88 1486,955.85 1486,987.68 " fill="none" id="CenterPerformance-MaxSumSublistService" style="stroke:#A80036;stroke-width:1.0;"/><polygon fill="#000000" points="1491,933.5664,1493.9389,924.5213,1488.0611,924.5213,1491,933.5664" style="stroke:#000000;stroke-width:1.0;"/><text fill="#000000" font-family="sans-serif" font-size="13" lengthAdjust="spacing" textLength="30" x="1500" y="933.0669">uses</text><!--MD5=[43e39dc95143071e4511698c8f2bc390]
reverse link CenterEvent to snsUser--><path codeLine="159" d="M2066.7,581.98 C2191.45,597.6 2383.5,625.38 2547,665 C2587.91,674.91 2603.54,668.96 2637,694.5 C2665,715.87 2685.19,752.04 2696.25,775.72 " fill="none" id="CenterEvent-backto-snsUser" style="stroke:#A80036;stroke-width:1.0;"/><polygon fill="#FFFFFF" points="2053.71,580.36,2059.172,585.0681,2065.6187,581.8371,2060.1567,577.1289,2053.71,580.36" style="stroke:#A80036;stroke-width:1.0;"/><text fill="#000000" font-family="sans-serif" font-size="13" lengthAdjust="spacing" textLength="28" x="2618" y="678.0669">user</text><!--MD5=[8c304936b446fd8cea914e03fbadd4b7]
link VaccinationCenterStore to VaccinationCenter--><path codeLine="161" d="M1309.08,397.26 C1322.88,428.57 1339.2,465.6 1352.99,496.89 " fill="none" id="VaccinationCenterStore-VaccinationCenter" style="stroke:#A80036;stroke-width:1.0;"/><polygon fill="#000000" points="1334.0165,442.1417,1333.0579,432.6796,1327.6793,435.0501,1334.0165,442.1417" style="stroke:#000000;stroke-width:1.0;"/><text fill="#000000" font-family="sans-serif" font-size="13" lengthAdjust="spacing" textLength="40" x="1341" y="442.0669">stores</text><text fill="#000000" font-family="sans-serif" font-size="13" lengthAdjust="spacing" textLength="8" x="1303.5658" y="416.6669">1</text><text fill="#000000" font-family="sans-serif" font-size="13" lengthAdjust="spacing" textLength="7" x="1342.5343" y="486.0823">*</text><!--MD5=[bc0d5b4bfe6e1bf0a8fced13bc4bdd47]
link Company to VaccinationCenterStore--><path codeLine="163" d="M888.27,503.23 C913.22,486.13 941.11,468.34 968,454 C1006.64,433.39 1049.43,414.1 1090.6,397.13 " fill="none" id="Company-VaccinationCenterStore" style="stroke:#A80036;stroke-width:1.0;"/><polygon fill="#000000" points="1026.4281,435.2444,1017.0527,436.8422,1019.7825,442.0478,1026.4281,435.2444" style="stroke:#000000;stroke-width:1.0;"/><text fill="#000000" font-family="sans-serif" font-size="13" lengthAdjust="spacing" textLength="39" x="1031" y="442.0669">knows</text><text fill="#000000" font-family="sans-serif" font-size="13" lengthAdjust="spacing" textLength="8" x="888.9402" y="492.6278">1</text><text fill="#000000" font-family="sans-serif" font-size="13" lengthAdjust="spacing" textLength="8" x="1063.6606" y="416.7648">1</text><!--MD5=[89993428c86f3d88875ea3f4ba177eb1]
@startuml
skinparam classAttributeIconSize 0

package UI {
  class AnalyseCenterPerformanceUI {}
}

package core {
  package domain {
    package shared {
      enum CenterEventType {
        ARRIVAL
        VACCINATED
        DEPARTED
      }
    }

    package stores {
      class VaccinationCenterStore {
        +createVaccinationCenter(name,address,emailAddress,phoneNumber,faxNumber,websiteAddress,openingHours,closingHours,slotDuration,maximumVaccinesPerSlot,coordinator)
        +validateVaccinatonCenter(center)
        +saveVaccinationCenter(center)
        +checkDuplicates(center)
        +getVaccinationCenterWithPhone(phone)

        -addVaccinationCenter(center)
      }
    }

    package lists {
      class CenterEventList {
        - events: List<CenterEvent>

        + create(date,eventType,snsUser)
        + save(event)
        + getEventsInDay(day)

        +CenterEventList()
      }
    }

    package model {
      class VaccinationCenter {
        - name: String
        - address: String
        - emailAddress: String
        - phoneNumber: String
        - faxNumber: String
        - websiteAddress: String
        
        +VaccinationCenter(name,address,emailAddress,phoneNumber,faxNumber,websiteAddress,openingHours,closingHours,slot,coordinator)
      }

      class Employee {
        -id: String 
        -name: String 
        -email: String 
        -phone: String 
        -address: String 
        -citizenCardNumber: int 
        -roleId: String 

        +Employee(name,email,phone,address,citizenCardNumber,roleId)
      }

      class CenterEvent {
        - date: Date
        - eventType: CenterEventType

        + isInDay(day)

        + CenterEvent(date,eventType,snsUser)
      }

      class Slot {
        -duration: int
        -maxVaccinesPerSlot: int

        +Slot(duration,maxVaccinesPerSlot)
      }

      class CenterPerformance {
        - day: Calendar
        - maxSumSubList: List
        - sum: int

        +CenterPerformance(day,interval,openingHours)

        +getDay()
        +getMaxSumSubList()
        +getSum()
        +getStartingInterval()
        +getEndingInterval()
      }

      class Company {
        -designation: String
        -authFacade: AuthFacade
        -vaccinationCenterStore: VaccinationCenterStore
        
        +Company(designation)

        +getVaccinationCenterStore()
      }
    }

    package service {
      class MaxSumSublistService {
        - list: List
        - beginningIndex: int
        - endIndex: int
        - maxSum: int

        +MaxSumSublistService(list)

        +getSum()
        +getBegginingIndex()
        +getEndIndex()
        +getMaxSum()
      }
    }
  }

  package controllers {
    class AnalyseCenterPerformanceController {
      +getCategories()
      +CheckWaitingRoom(ref,designation,informalDesc,technicalDesc,duration,cost,categoryId)
      +saveTask()
    }
  }

  package utils {
    class Time {
      - hour: int
      - minute: int
      
      +Time(hour,minute)
      +Time(time)
    }
  }
}

AnalyseCenterPerformanceUI ..> AnalyseCenterPerformanceController
AnalyseCenterPerformanceController ..> Company

VaccinationCenter o- - Employee : coordinator
VaccinationCenter o- - Time : openingHours
VaccinationCenter o- - Time : closingHours
VaccinationCenter o- - Slot
VaccinationCenter *- - CenterEventList

VaccinationCenter "1" - - "*" CenterPerformance : generates >

CenterPerformance o- - Time : startingInterval
CenterPerformance o- - Time : endingInterval
CenterPerformance o- - Time : openingHours

CenterPerformance - - MaxSumSublistService : uses >

CenterEvent o- - snsUser : user

VaccinationCenterStore "1" - - "*" VaccinationCenter : stores >

Company "1" - - "1" VaccinationCenterStore : knows >

@enduml

PlantUML version 1.2022.0(Tue Jan 11 16:16:42 WET 2022)
(GPL source distribution)
Java Runtime: Java(TM) SE Runtime Environment
JVM: Java HotSpot(TM) 64-Bit Server VM
Default Encoding: UTF-8
Language: en
Country: US
--></g></svg>