<?xml version="1.0" encoding="UTF-8" standalone="no"?><svg xmlns="http://www.w3.org/2000/svg" xmlns:xlink="http://www.w3.org/1999/xlink" contentScriptType="application/ecmascript" contentStyleType="text/css" height="1248px" preserveAspectRatio="none" style="width:2661px;height:1248px;background:#FFFFFF;" version="1.1" viewBox="0 0 2661 1248" width="2661px" zoomAndPan="magnify"><defs><filter height="300%" id="fbwkvoudlxmjq" width="300%" x="-1" y="-1"><feGaussianBlur result="blurOut" stdDeviation="2.0"/><feColorMatrix in="blurOut" result="blurOut2" type="matrix" values="0 0 0 0 0 0 0 0 0 0 0 0 0 0 0 0 0 0 .4 0"/><feOffset dx="4.0" dy="4.0" in="blurOut2" result="blurOut3"/><feBlend in="SourceGraphic" in2="blurOut3" mode="normal"/></filter></defs><g><!--MD5=[9681dc6e01e10c6b4fe06895ae94f592]
cluster UI--><polygon fill="#FFFFFF" filter="url(#fbwkvoudlxmjq)" points="195,6,216,6,223,28.2969,441,28.2969,441,105,195,105,195,6" style="stroke:#000000;stroke-width:1.5;"/><line style="stroke:#000000;stroke-width:1.5;" x1="195" x2="223" y1="28.2969" y2="28.2969"/><text fill="#000000" font-family="sans-serif" font-size="14" font-weight="bold" lengthAdjust="spacing" textLength="15" x="199" y="20.9951">UI</text><!--MD5=[01435ace8273dc3cae88e7f376e4d373]
cluster core--><polygon fill="#FFFFFF" filter="url(#fbwkvoudlxmjq)" points="16,138,58,138,65,160.2969,2644,160.2969,2644,1241,16,1241,16,138" style="stroke:#000000;stroke-width:1.5;"/><line style="stroke:#000000;stroke-width:1.5;" x1="16" x2="65" y1="160.2969" y2="160.2969"/><text fill="#000000" font-family="sans-serif" font-size="14" font-weight="bold" lengthAdjust="spacing" textLength="36" x="20" y="152.9951">core</text><!--MD5=[27f772719433d509ddbc20ff768eba08]
cluster domain--><polygon fill="#FFFFFF" filter="url(#fbwkvoudlxmjq)" points="620,181,683,181,690,203.2969,2353,203.2969,2353,1217,620,1217,620,181" style="stroke:#000000;stroke-width:1.5;"/><line style="stroke:#000000;stroke-width:1.5;" x1="620" x2="690" y1="203.2969" y2="203.2969"/><text fill="#000000" font-family="sans-serif" font-size="14" font-weight="bold" lengthAdjust="spacing" textLength="57" x="624" y="195.9951">domain</text><!--MD5=[3bbea03787a63c9e9e3a6e07c5a481f8]
cluster shared--><polygon fill="#FFFFFF" filter="url(#fbwkvoudlxmjq)" points="2052,250,2113,250,2120,272.2969,2222,272.2969,2222,387,2052,387,2052,250" style="stroke:#000000;stroke-width:1.5;"/><line style="stroke:#000000;stroke-width:1.5;" x1="2052" x2="2120" y1="272.2969" y2="272.2969"/><text fill="#000000" font-family="sans-serif" font-size="14" font-weight="bold" lengthAdjust="spacing" textLength="55" x="2056" y="264.9951">shared</text><!--MD5=[fbca5634cbc0239920b500cad9c4bedb]
cluster stores--><polygon fill="#FFFFFF" filter="url(#fbwkvoudlxmjq)" points="857,224,914,224,921,246.2969,1921,246.2969,1921,413,857,413,857,224" style="stroke:#000000;stroke-width:1.5;"/><line style="stroke:#000000;stroke-width:1.5;" x1="857" x2="921" y1="246.2969" y2="246.2969"/><text fill="#000000" font-family="sans-serif" font-size="14" font-weight="bold" lengthAdjust="spacing" textLength="51" x="861" y="238.9951">stores</text><!--MD5=[74377f9e5257669286bfbcdea75789c1]
cluster lists--><polygon fill="#FFFFFF" filter="url(#fbwkvoudlxmjq)" points="2093,709,2131,709,2138,731.2969,2329,731.2969,2329,885,2093,885,2093,709" style="stroke:#000000;stroke-width:1.5;"/><line style="stroke:#000000;stroke-width:1.5;" x1="2093" x2="2138" y1="731.2969" y2="731.2969"/><text fill="#000000" font-family="sans-serif" font-size="14" font-weight="bold" lengthAdjust="spacing" textLength="32" x="2097" y="723.9951">lists</text><!--MD5=[5d4cd377749310b66bf14896f5cd8d9b]
cluster model--><polygon fill="#FFFFFF" filter="url(#fbwkvoudlxmjq)" points="644,462,698,462,705,484.2969,2069,484.2969,2069,917,644,917,644,462" style="stroke:#000000;stroke-width:1.5;"/><line style="stroke:#000000;stroke-width:1.5;" x1="644" x2="705" y1="484.2969" y2="484.2969"/><text fill="#000000" font-family="sans-serif" font-size="14" font-weight="bold" lengthAdjust="spacing" textLength="48" x="648" y="476.9951">model</text><!--MD5=[7579d5565d2521d5936cec86ed3dadee]
cluster service--><polygon fill="#FFFFFF" filter="url(#fbwkvoudlxmjq)" points="1804,966,1868,966,1875,988.2969,2012,988.2969,2012,1193,1804,1193,1804,966" style="stroke:#000000;stroke-width:1.5;"/><line style="stroke:#000000;stroke-width:1.5;" x1="1804" x2="1875" y1="988.2969" y2="988.2969"/><text fill="#000000" font-family="sans-serif" font-size="14" font-weight="bold" lengthAdjust="spacing" textLength="58" x="1808" y="980.9951">service</text><!--MD5=[f4e70ef68289585296b9045165e58692]
cluster controllers--><polygon fill="#FFFFFF" filter="url(#fbwkvoudlxmjq)" points="40,250,132,250,139,272.2969,596,272.2969,596,387,40,387,40,250" style="stroke:#000000;stroke-width:1.5;"/><line style="stroke:#000000;stroke-width:1.5;" x1="40" x2="139" y1="272.2969" y2="272.2969"/><text fill="#000000" font-family="sans-serif" font-size="14" font-weight="bold" lengthAdjust="spacing" textLength="86" x="44" y="264.9951">controllers</text><!--MD5=[c52f45833d539af9e29a9d34b8b7302b]
cluster utils--><polygon fill="#FFFFFF" filter="url(#fbwkvoudlxmjq)" points="2377,1004.5,2416,1004.5,2423,1026.7969,2535,1026.7969,2535,1154.5,2377,1154.5,2377,1004.5" style="stroke:#000000;stroke-width:1.5;"/><line style="stroke:#000000;stroke-width:1.5;" x1="2377" x2="2423" y1="1026.7969" y2="1026.7969"/><text fill="#000000" font-family="sans-serif" font-size="14" font-weight="bold" lengthAdjust="spacing" textLength="33" x="2381" y="1019.4951">utils</text><!--MD5=[7b0cfd9e7522513355bc4d2674f12d2a]
class AnalyseCenterPerformanceUI--><rect codeLine="4" fill="#FEFECE" filter="url(#fbwkvoudlxmjq)" height="48" id="AnalyseCenterPerformanceUI" style="stroke:#A80036;stroke-width:1.5;" width="214" x="211" y="41"/><ellipse cx="226" cy="57" fill="#ADD1B2" rx="11" ry="11" style="stroke:#A80036;stroke-width:1.0;"/><path d="M228.9688,62.6406 Q228.3906,62.9375 227.75,63.0781 Q227.1094,63.2344 226.4063,63.2344 Q223.9063,63.2344 222.5781,61.5938 Q221.2656,59.9375 221.2656,56.8125 Q221.2656,53.6875 222.5781,52.0313 Q223.9063,50.375 226.4063,50.375 Q227.1094,50.375 227.75,50.5313 Q228.4063,50.6875 228.9688,50.9844 L228.9688,53.7031 Q228.3438,53.125 227.75,52.8594 Q227.1563,52.5781 226.5313,52.5781 Q225.1875,52.5781 224.5,53.6563 Q223.8125,54.7188 223.8125,56.8125 Q223.8125,58.9063 224.5,59.9844 Q225.1875,61.0469 226.5313,61.0469 Q227.1563,61.0469 227.75,60.7813 Q228.3438,60.5 228.9688,59.9219 L228.9688,62.6406 Z " fill="#000000"/><text fill="#000000" font-family="sans-serif" font-size="12" lengthAdjust="spacing" textLength="182" x="240" y="61.1543">AnalyseCenterPerformanceUI</text><line style="stroke:#A80036;stroke-width:1.5;" x1="212" x2="424" y1="73" y2="73"/><line style="stroke:#A80036;stroke-width:1.5;" x1="212" x2="424" y1="81" y2="81"/><!--MD5=[29ca87e3f6f297962d71688dc1212604]
class CenterEventType--><rect codeLine="10" fill="#FEFECE" filter="url(#fbwkvoudlxmjq)" height="86.4141" id="CenterEventType" style="stroke:#A80036;stroke-width:1.5;" width="138" x="2068" y="285"/><ellipse cx="2083" cy="301" fill="#EB937F" rx="11" ry="11" style="stroke:#A80036;stroke-width:1.0;"/><path d="M2087.1094,307 L2079.3906,307 L2079.3906,294.6094 L2087.1094,294.6094 L2087.1094,296.7656 L2081.8438,296.7656 L2081.8438,299.4375 L2086.6094,299.4375 L2086.6094,301.5938 L2081.8438,301.5938 L2081.8438,304.8438 L2087.1094,304.8438 L2087.1094,307 Z " fill="#000000"/><text fill="#000000" font-family="sans-serif" font-size="12" lengthAdjust="spacing" textLength="106" x="2097" y="305.1543">CenterEventType</text><line style="stroke:#A80036;stroke-width:1.5;" x1="2069" x2="2205" y1="317" y2="317"/><text fill="#000000" font-family="sans-serif" font-size="11" lengthAdjust="spacing" textLength="44" x="2074" y="331.2104">ARRIVAL</text><text fill="#000000" font-family="sans-serif" font-size="11" lengthAdjust="spacing" textLength="70" x="2074" y="344.0151">VACCINATED</text><text fill="#000000" font-family="sans-serif" font-size="11" lengthAdjust="spacing" textLength="58" x="2074" y="356.8198">DEPARTED</text><line style="stroke:#A80036;stroke-width:1.5;" x1="2069" x2="2205" y1="363.4141" y2="363.4141"/><!--MD5=[a29876ea2f21a6ca48ea477740122fd8]
class VaccinationCenterStore--><rect codeLine="18" fill="#FEFECE" filter="url(#fbwkvoudlxmjq)" height="137.6328" id="VaccinationCenterStore" style="stroke:#A80036;stroke-width:1.5;" width="1031" x="873.5" y="259"/><ellipse cx="1310.25" cy="275" fill="#ADD1B2" rx="11" ry="11" style="stroke:#A80036;stroke-width:1.0;"/><path d="M1313.2188,280.6406 Q1312.6406,280.9375 1312,281.0781 Q1311.3594,281.2344 1310.6563,281.2344 Q1308.1563,281.2344 1306.8281,279.5938 Q1305.5156,277.9375 1305.5156,274.8125 Q1305.5156,271.6875 1306.8281,270.0313 Q1308.1563,268.375 1310.6563,268.375 Q1311.3594,268.375 1312,268.5313 Q1312.6563,268.6875 1313.2188,268.9844 L1313.2188,271.7031 Q1312.5938,271.125 1312,270.8594 Q1311.4063,270.5781 1310.7813,270.5781 Q1309.4375,270.5781 1308.75,271.6563 Q1308.0625,272.7188 1308.0625,274.8125 Q1308.0625,276.9063 1308.75,277.9844 Q1309.4375,279.0469 1310.7813,279.0469 Q1311.4063,279.0469 1312,278.7813 Q1312.5938,278.5 1313.2188,277.9219 L1313.2188,280.6406 Z " fill="#000000"/><text fill="#000000" font-family="sans-serif" font-size="12" lengthAdjust="spacing" textLength="149" x="1330.75" y="279.1543">VaccinationCenterStore</text><line style="stroke:#A80036;stroke-width:1.5;" x1="874.5" x2="1903.5" y1="291" y2="291"/><line style="stroke:#A80036;stroke-width:1.5;" x1="874.5" x2="1903.5" y1="299" y2="299"/><text fill="#000000" font-family="sans-serif" font-size="11" lengthAdjust="spacing" textLength="1019" x="879.5" y="313.2104">+createVaccinationCenter(name,address,emailAddress,phoneNumber,faxNumber,websiteAddress,openingHours,closingHours,slotDuration,maximumVaccinesPerSlot,coordinator)</text><text fill="#000000" font-family="sans-serif" font-size="11" lengthAdjust="spacing" textLength="196" x="879.5" y="326.0151">+validateVaccinatonCenter(center)</text><text fill="#000000" font-family="sans-serif" font-size="11" lengthAdjust="spacing" textLength="182" x="879.5" y="338.8198">+saveVaccinationCenter(center)</text><text fill="#000000" font-family="sans-serif" font-size="11" lengthAdjust="spacing" textLength="144" x="879.5" y="351.6245">+checkDuplicates(center)</text><text fill="#000000" font-family="sans-serif" font-size="11" lengthAdjust="spacing" textLength="230" x="879.5" y="364.4292">+getVaccinationCenterWithPhone(phone)</text><text fill="#000000" font-family="sans-serif" font-size="11" lengthAdjust="spacing" textLength="0" x="883.5" y="377.2339"/><text fill="#000000" font-family="sans-serif" font-size="11" lengthAdjust="spacing" textLength="171" x="879.5" y="390.0386">-addVaccinationCenter(center)</text><!--MD5=[20d765a59dde7f6830bc6bfb5c6ca029]
class CenterEventList--><rect codeLine="30" fill="#FEFECE" filter="url(#fbwkvoudlxmjq)" height="124.8281" id="CenterEventList" style="stroke:#A80036;stroke-width:1.5;" width="204" x="2109" y="744"/><ellipse cx="2157.75" cy="760" fill="#ADD1B2" rx="11" ry="11" style="stroke:#A80036;stroke-width:1.0;"/><path d="M2160.7188,765.6406 Q2160.1406,765.9375 2159.5,766.0781 Q2158.8594,766.2344 2158.1563,766.2344 Q2155.6563,766.2344 2154.3281,764.5938 Q2153.0156,762.9375 2153.0156,759.8125 Q2153.0156,756.6875 2154.3281,755.0313 Q2155.6563,753.375 2158.1563,753.375 Q2158.8594,753.375 2159.5,753.5313 Q2160.1563,753.6875 2160.7188,753.9844 L2160.7188,756.7031 Q2160.0938,756.125 2159.5,755.8594 Q2158.9063,755.5781 2158.2813,755.5781 Q2156.9375,755.5781 2156.25,756.6563 Q2155.5625,757.7188 2155.5625,759.8125 Q2155.5625,761.9063 2156.25,762.9844 Q2156.9375,764.0469 2158.2813,764.0469 Q2158.9063,764.0469 2159.5,763.7813 Q2160.0938,763.5 2160.7188,762.9219 L2160.7188,765.6406 Z " fill="#000000"/><text fill="#000000" font-family="sans-serif" font-size="12" lengthAdjust="spacing" textLength="98" x="2178.25" y="764.1543">CenterEventList</text><line style="stroke:#A80036;stroke-width:1.5;" x1="2110" x2="2312" y1="776" y2="776"/><text fill="#000000" font-family="sans-serif" font-size="11" lengthAdjust="spacing" textLength="157" x="2115" y="790.2104">-events: List&lt;CenterEvent&gt;</text><line style="stroke:#A80036;stroke-width:1.5;" x1="2110" x2="2312" y1="796.8047" y2="796.8047"/><text fill="#000000" font-family="sans-serif" font-size="11" lengthAdjust="spacing" textLength="192" x="2115" y="811.0151">+create(date,eventType,snsUser)</text><text fill="#000000" font-family="sans-serif" font-size="11" lengthAdjust="spacing" textLength="75" x="2115" y="823.8198">+save(event)</text><text fill="#000000" font-family="sans-serif" font-size="11" lengthAdjust="spacing" textLength="124" x="2115" y="836.6245">+getEventsInDay(day)</text><text fill="#000000" font-family="sans-serif" font-size="11" lengthAdjust="spacing" textLength="0" x="2119" y="849.4292"/><text fill="#000000" font-family="sans-serif" font-size="11" lengthAdjust="spacing" textLength="106" x="2115" y="862.2339">+CenterEventList()</text><!--MD5=[de60e6d4f424ae4d0522096f76a59010]
class VaccinationCenter--><rect codeLine="42" fill="#FEFECE" filter="url(#fbwkvoudlxmjq)" height="137.6328" id="VaccinationCenter" style="stroke:#A80036;stroke-width:1.5;" width="796" x="1257" y="497"/><ellipse cx="1593.25" cy="513" fill="#ADD1B2" rx="11" ry="11" style="stroke:#A80036;stroke-width:1.0;"/><path d="M1596.2188,518.6406 Q1595.6406,518.9375 1595,519.0781 Q1594.3594,519.2344 1593.6563,519.2344 Q1591.1563,519.2344 1589.8281,517.5938 Q1588.5156,515.9375 1588.5156,512.8125 Q1588.5156,509.6875 1589.8281,508.0313 Q1591.1563,506.375 1593.6563,506.375 Q1594.3594,506.375 1595,506.5313 Q1595.6563,506.6875 1596.2188,506.9844 L1596.2188,509.7031 Q1595.5938,509.125 1595,508.8594 Q1594.4063,508.5781 1593.7813,508.5781 Q1592.4375,508.5781 1591.75,509.6563 Q1591.0625,510.7188 1591.0625,512.8125 Q1591.0625,514.9063 1591.75,515.9844 Q1592.4375,517.0469 1593.7813,517.0469 Q1594.4063,517.0469 1595,516.7813 Q1595.5938,516.5 1596.2188,515.9219 L1596.2188,518.6406 Z " fill="#000000"/><text fill="#000000" font-family="sans-serif" font-size="12" lengthAdjust="spacing" textLength="115" x="1613.75" y="517.1543">VaccinationCenter</text><line style="stroke:#A80036;stroke-width:1.5;" x1="1258" x2="2052" y1="529" y2="529"/><text fill="#000000" font-family="sans-serif" font-size="11" lengthAdjust="spacing" textLength="78" x="1263" y="543.2104">-name: String</text><text fill="#000000" font-family="sans-serif" font-size="11" lengthAdjust="spacing" textLength="93" x="1263" y="556.0151">-address: String</text><text fill="#000000" font-family="sans-serif" font-size="11" lengthAdjust="spacing" textLength="124" x="1263" y="568.8198">-emailAddress: String</text><text fill="#000000" font-family="sans-serif" font-size="11" lengthAdjust="spacing" textLength="126" x="1263" y="581.6245">-phoneNumber: String</text><text fill="#000000" font-family="sans-serif" font-size="11" lengthAdjust="spacing" textLength="108" x="1263" y="594.4292">-faxNumber: String</text><text fill="#000000" font-family="sans-serif" font-size="11" lengthAdjust="spacing" textLength="137" x="1263" y="607.2339">-websiteAddress: String</text><line style="stroke:#A80036;stroke-width:1.5;" x1="1258" x2="2052" y1="613.8281" y2="613.8281"/><text fill="#000000" font-family="sans-serif" font-size="11" lengthAdjust="spacing" textLength="784" x="1263" y="628.0386">+VaccinationCenter(name,address,emailAddress,phoneNumber,faxNumber,websiteAddress,openingHours,closingHours,slot,coordinator)</text><!--MD5=[7421f545a0d8420c5bec41e74b387d9c]
class Employee--><rect codeLine="53" fill="#FEFECE" filter="url(#fbwkvoudlxmjq)" height="150.4375" id="Employee" style="stroke:#A80036;stroke-width:1.5;" width="388" x="1088" y="731.5"/><ellipse cx="1247.75" cy="747.5" fill="#ADD1B2" rx="11" ry="11" style="stroke:#A80036;stroke-width:1.0;"/><path d="M1250.7188,753.1406 Q1250.1406,753.4375 1249.5,753.5781 Q1248.8594,753.7344 1248.1563,753.7344 Q1245.6563,753.7344 1244.3281,752.0938 Q1243.0156,750.4375 1243.0156,747.3125 Q1243.0156,744.1875 1244.3281,742.5313 Q1245.6563,740.875 1248.1563,740.875 Q1248.8594,740.875 1249.5,741.0313 Q1250.1563,741.1875 1250.7188,741.4844 L1250.7188,744.2031 Q1250.0938,743.625 1249.5,743.3594 Q1248.9063,743.0781 1248.2813,743.0781 Q1246.9375,743.0781 1246.25,744.1563 Q1245.5625,745.2188 1245.5625,747.3125 Q1245.5625,749.4063 1246.25,750.4844 Q1246.9375,751.5469 1248.2813,751.5469 Q1248.9063,751.5469 1249.5,751.2813 Q1250.0938,751 1250.7188,750.4219 L1250.7188,753.1406 Z " fill="#000000"/><text fill="#000000" font-family="sans-serif" font-size="12" lengthAdjust="spacing" textLength="60" x="1268.25" y="751.6543">Employee</text><line style="stroke:#A80036;stroke-width:1.5;" x1="1089" x2="1475" y1="763.5" y2="763.5"/><text fill="#000000" font-family="sans-serif" font-size="11" lengthAdjust="spacing" textLength="56" x="1094" y="777.7104">-id: String</text><text fill="#000000" font-family="sans-serif" font-size="11" lengthAdjust="spacing" textLength="78" x="1094" y="790.5151">-name: String</text><text fill="#000000" font-family="sans-serif" font-size="11" lengthAdjust="spacing" textLength="77" x="1094" y="803.3198">-email: String</text><text fill="#000000" font-family="sans-serif" font-size="11" lengthAdjust="spacing" textLength="81" x="1094" y="816.1245">-phone: String</text><text fill="#000000" font-family="sans-serif" font-size="11" lengthAdjust="spacing" textLength="93" x="1094" y="828.9292">-address: String</text><text fill="#000000" font-family="sans-serif" font-size="11" lengthAdjust="spacing" textLength="133" x="1094" y="841.7339">-citizenCardNumber: int</text><text fill="#000000" font-family="sans-serif" font-size="11" lengthAdjust="spacing" textLength="78" x="1094" y="854.5386">-roleId: String</text><line style="stroke:#A80036;stroke-width:1.5;" x1="1089" x2="1475" y1="861.1328" y2="861.1328"/><text fill="#000000" font-family="sans-serif" font-size="11" lengthAdjust="spacing" textLength="376" x="1094" y="875.3433">+Employee(name,email,phone,address,citizenCardNumber,roleId)</text><!--MD5=[35309a5dc68e1a9749f40371070ca056]
class CenterEvent--><rect codeLine="65" fill="#FEFECE" filter="url(#fbwkvoudlxmjq)" height="112.0234" id="CenterEvent" style="stroke:#A80036;stroke-width:1.5;" width="237" x="984.5" y="510"/><ellipse cx="1060.25" cy="526" fill="#ADD1B2" rx="11" ry="11" style="stroke:#A80036;stroke-width:1.0;"/><path d="M1063.2188,531.6406 Q1062.6406,531.9375 1062,532.0781 Q1061.3594,532.2344 1060.6563,532.2344 Q1058.1563,532.2344 1056.8281,530.5938 Q1055.5156,528.9375 1055.5156,525.8125 Q1055.5156,522.6875 1056.8281,521.0313 Q1058.1563,519.375 1060.6563,519.375 Q1061.3594,519.375 1062,519.5313 Q1062.6563,519.6875 1063.2188,519.9844 L1063.2188,522.7031 Q1062.5938,522.125 1062,521.8594 Q1061.4063,521.5781 1060.7813,521.5781 Q1059.4375,521.5781 1058.75,522.6563 Q1058.0625,523.7188 1058.0625,525.8125 Q1058.0625,527.9063 1058.75,528.9844 Q1059.4375,530.0469 1060.7813,530.0469 Q1061.4063,530.0469 1062,529.7813 Q1062.5938,529.5 1063.2188,528.9219 L1063.2188,531.6406 Z " fill="#000000"/><text fill="#000000" font-family="sans-serif" font-size="12" lengthAdjust="spacing" textLength="77" x="1080.75" y="530.1543">CenterEvent</text><line style="stroke:#A80036;stroke-width:1.5;" x1="985.5" x2="1220.5" y1="542" y2="542"/><text fill="#000000" font-family="sans-serif" font-size="11" lengthAdjust="spacing" textLength="63" x="990.5" y="556.2104">-date: Date</text><text fill="#000000" font-family="sans-serif" font-size="11" lengthAdjust="spacing" textLength="166" x="990.5" y="569.0151">-eventType: CenterEventType</text><line style="stroke:#A80036;stroke-width:1.5;" x1="985.5" x2="1220.5" y1="575.6094" y2="575.6094"/><text fill="#000000" font-family="sans-serif" font-size="11" lengthAdjust="spacing" textLength="78" x="990.5" y="589.8198">+isInDay(day)</text><text fill="#000000" font-family="sans-serif" font-size="11" lengthAdjust="spacing" textLength="0" x="994.5" y="602.6245"/><text fill="#000000" font-family="sans-serif" font-size="11" lengthAdjust="spacing" textLength="225" x="990.5" y="615.4292">+CenterEvent(date,eventType,snsUser)</text><!--MD5=[45c6380d22fb72521f5065026b277fb9]
class Slot--><rect codeLine="74" fill="#FEFECE" filter="url(#fbwkvoudlxmjq)" height="86.4141" id="Slot" style="stroke:#A80036;stroke-width:1.5;" width="217" x="1511.5" y="763.5"/><ellipse cx="1603.75" cy="779.5" fill="#ADD1B2" rx="11" ry="11" style="stroke:#A80036;stroke-width:1.0;"/><path d="M1606.7188,785.1406 Q1606.1406,785.4375 1605.5,785.5781 Q1604.8594,785.7344 1604.1563,785.7344 Q1601.6563,785.7344 1600.3281,784.0938 Q1599.0156,782.4375 1599.0156,779.3125 Q1599.0156,776.1875 1600.3281,774.5313 Q1601.6563,772.875 1604.1563,772.875 Q1604.8594,772.875 1605.5,773.0313 Q1606.1563,773.1875 1606.7188,773.4844 L1606.7188,776.2031 Q1606.0938,775.625 1605.5,775.3594 Q1604.9063,775.0781 1604.2813,775.0781 Q1602.9375,775.0781 1602.25,776.1563 Q1601.5625,777.2188 1601.5625,779.3125 Q1601.5625,781.4063 1602.25,782.4844 Q1602.9375,783.5469 1604.2813,783.5469 Q1604.9063,783.5469 1605.5,783.2813 Q1606.0938,783 1606.7188,782.4219 L1606.7188,785.1406 Z " fill="#000000"/><text fill="#000000" font-family="sans-serif" font-size="12" lengthAdjust="spacing" textLength="24" x="1624.25" y="783.6543">Slot</text><line style="stroke:#A80036;stroke-width:1.5;" x1="1512.5" x2="1727.5" y1="795.5" y2="795.5"/><text fill="#000000" font-family="sans-serif" font-size="11" lengthAdjust="spacing" textLength="73" x="1517.5" y="809.7104">-duration: int</text><text fill="#000000" font-family="sans-serif" font-size="11" lengthAdjust="spacing" textLength="141" x="1517.5" y="822.5151">-maxVaccinesPerSlot: int</text><line style="stroke:#A80036;stroke-width:1.5;" x1="1512.5" x2="1727.5" y1="829.1094" y2="829.1094"/><text fill="#000000" font-family="sans-serif" font-size="11" lengthAdjust="spacing" textLength="205" x="1517.5" y="843.3198">+Slot(duration,maxVaccinesPerSlot)</text><!--MD5=[1eab586b2d892e406b67662793bf7ce1]
class CenterPerformance--><rect codeLine="81" fill="#FEFECE" filter="url(#fbwkvoudlxmjq)" height="188.8516" id="CenterPerformance" style="stroke:#A80036;stroke-width:1.5;" width="289" x="1763.5" y="712"/><ellipse cx="1842.75" cy="728" fill="#ADD1B2" rx="11" ry="11" style="stroke:#A80036;stroke-width:1.0;"/><path d="M1845.7188,733.6406 Q1845.1406,733.9375 1844.5,734.0781 Q1843.8594,734.2344 1843.1563,734.2344 Q1840.6563,734.2344 1839.3281,732.5938 Q1838.0156,730.9375 1838.0156,727.8125 Q1838.0156,724.6875 1839.3281,723.0313 Q1840.6563,721.375 1843.1563,721.375 Q1843.8594,721.375 1844.5,721.5313 Q1845.1563,721.6875 1845.7188,721.9844 L1845.7188,724.7031 Q1845.0938,724.125 1844.5,723.8594 Q1843.9063,723.5781 1843.2813,723.5781 Q1841.9375,723.5781 1841.25,724.6563 Q1840.5625,725.7188 1840.5625,727.8125 Q1840.5625,729.9063 1841.25,730.9844 Q1841.9375,732.0469 1843.2813,732.0469 Q1843.9063,732.0469 1844.5,731.7813 Q1845.0938,731.5 1845.7188,730.9219 L1845.7188,733.6406 Z " fill="#000000"/><text fill="#000000" font-family="sans-serif" font-size="12" lengthAdjust="spacing" textLength="122" x="1863.25" y="732.1543">CenterPerformance</text><line style="stroke:#A80036;stroke-width:1.5;" x1="1764.5" x2="2051.5" y1="744" y2="744"/><text fill="#000000" font-family="sans-serif" font-size="11" lengthAdjust="spacing" textLength="83" x="1769.5" y="758.2104">-day: Calendar</text><text fill="#000000" font-family="sans-serif" font-size="11" lengthAdjust="spacing" textLength="124" x="1769.5" y="771.0151">-maxSumSubList: List</text><text fill="#000000" font-family="sans-serif" font-size="11" lengthAdjust="spacing" textLength="51" x="1769.5" y="783.8198">-sum: int</text><line style="stroke:#A80036;stroke-width:1.5;" x1="1764.5" x2="2051.5" y1="790.4141" y2="790.4141"/><text fill="#000000" font-family="sans-serif" font-size="11" lengthAdjust="spacing" textLength="277" x="1769.5" y="804.6245">+CenterPerformance(day,interval,openingHours)</text><text fill="#000000" font-family="sans-serif" font-size="11" lengthAdjust="spacing" textLength="0" x="1773.5" y="817.4292"/><text fill="#000000" font-family="sans-serif" font-size="11" lengthAdjust="spacing" textLength="56" x="1769.5" y="830.2339">+getDay()</text><text fill="#000000" font-family="sans-serif" font-size="11" lengthAdjust="spacing" textLength="120" x="1769.5" y="843.0386">+getDifferencesList()</text><text fill="#000000" font-family="sans-serif" font-size="11" lengthAdjust="spacing" textLength="125" x="1769.5" y="855.8433">+getMaxSumSubList()</text><text fill="#000000" font-family="sans-serif" font-size="11" lengthAdjust="spacing" textLength="61" x="1769.5" y="868.6479">+getSum()</text><text fill="#000000" font-family="sans-serif" font-size="11" lengthAdjust="spacing" textLength="122" x="1769.5" y="881.4526">+getStartingInterval()</text><text fill="#000000" font-family="sans-serif" font-size="11" lengthAdjust="spacing" textLength="115" x="1769.5" y="894.2573">+getEndingInterval()</text><!--MD5=[02e4b9b7573f1156f41e60aa5b4e25a4]
class Company--><rect codeLine="96" fill="#FEFECE" filter="url(#fbwkvoudlxmjq)" height="124.8281" id="Company" style="stroke:#A80036;stroke-width:1.5;" width="289" x="660.5" y="503.5"/><ellipse cx="772.25" cy="519.5" fill="#ADD1B2" rx="11" ry="11" style="stroke:#A80036;stroke-width:1.0;"/><path d="M775.2188,525.1406 Q774.6406,525.4375 774,525.5781 Q773.3594,525.7344 772.6563,525.7344 Q770.1563,525.7344 768.8281,524.0938 Q767.5156,522.4375 767.5156,519.3125 Q767.5156,516.1875 768.8281,514.5313 Q770.1563,512.875 772.6563,512.875 Q773.3594,512.875 774,513.0313 Q774.6563,513.1875 775.2188,513.4844 L775.2188,516.2031 Q774.5938,515.625 774,515.3594 Q773.4063,515.0781 772.7813,515.0781 Q771.4375,515.0781 770.75,516.1563 Q770.0625,517.2188 770.0625,519.3125 Q770.0625,521.4063 770.75,522.4844 Q771.4375,523.5469 772.7813,523.5469 Q773.4063,523.5469 774,523.2813 Q774.5938,523 775.2188,522.4219 L775.2188,525.1406 Z " fill="#000000"/><text fill="#000000" font-family="sans-serif" font-size="12" lengthAdjust="spacing" textLength="57" x="792.75" y="523.6543">Company</text><line style="stroke:#A80036;stroke-width:1.5;" x1="661.5" x2="948.5" y1="535.5" y2="535.5"/><text fill="#000000" font-family="sans-serif" font-size="11" lengthAdjust="spacing" textLength="112" x="666.5" y="549.7104">-designation: String</text><text fill="#000000" font-family="sans-serif" font-size="11" lengthAdjust="spacing" textLength="142" x="666.5" y="562.5151">-authFacade: AuthFacade</text><text fill="#000000" font-family="sans-serif" font-size="11" lengthAdjust="spacing" textLength="277" x="666.5" y="575.3198">-vaccinationCenterStore: VaccinationCenterStore</text><line style="stroke:#A80036;stroke-width:1.5;" x1="661.5" x2="948.5" y1="581.9141" y2="581.9141"/><text fill="#000000" font-family="sans-serif" font-size="11" lengthAdjust="spacing" textLength="136" x="666.5" y="596.1245">+Company(designation)</text><text fill="#000000" font-family="sans-serif" font-size="11" lengthAdjust="spacing" textLength="0" x="670.5" y="608.9292"/><text fill="#000000" font-family="sans-serif" font-size="11" lengthAdjust="spacing" textLength="168" x="666.5" y="621.7339">+getVaccinationCenterStore()</text><!--MD5=[525b5724b938e460f24c1c25ff15360b]
class MaxSumSublistService--><rect codeLine="108" fill="#FEFECE" filter="url(#fbwkvoudlxmjq)" height="176.0469" id="MaxSumSublistService" style="stroke:#A80036;stroke-width:1.5;" width="175" x="1820.5" y="1001"/><ellipse cx="1837.75" cy="1017" fill="#ADD1B2" rx="11" ry="11" style="stroke:#A80036;stroke-width:1.0;"/><path d="M1840.7188,1022.6406 Q1840.1406,1022.9375 1839.5,1023.0781 Q1838.8594,1023.2344 1838.1563,1023.2344 Q1835.6563,1023.2344 1834.3281,1021.5938 Q1833.0156,1019.9375 1833.0156,1016.8125 Q1833.0156,1013.6875 1834.3281,1012.0313 Q1835.6563,1010.375 1838.1563,1010.375 Q1838.8594,1010.375 1839.5,1010.5313 Q1840.1563,1010.6875 1840.7188,1010.9844 L1840.7188,1013.7031 Q1840.0938,1013.125 1839.5,1012.8594 Q1838.9063,1012.5781 1838.2813,1012.5781 Q1836.9375,1012.5781 1836.25,1013.6563 Q1835.5625,1014.7188 1835.5625,1016.8125 Q1835.5625,1018.9063 1836.25,1019.9844 Q1836.9375,1021.0469 1838.2813,1021.0469 Q1838.9063,1021.0469 1839.5,1020.7813 Q1840.0938,1020.5 1840.7188,1019.9219 L1840.7188,1022.6406 Z " fill="#000000"/><text fill="#000000" font-family="sans-serif" font-size="12" lengthAdjust="spacing" textLength="138" x="1852.25" y="1021.1543">MaxSumSublistService</text><line style="stroke:#A80036;stroke-width:1.5;" x1="1821.5" x2="1994.5" y1="1033" y2="1033"/><text fill="#000000" font-family="sans-serif" font-size="11" lengthAdjust="spacing" textLength="49" x="1826.5" y="1047.2104">-list: List</text><text fill="#000000" font-family="sans-serif" font-size="11" lengthAdjust="spacing" textLength="111" x="1826.5" y="1060.0151">-beginningIndex: int</text><text fill="#000000" font-family="sans-serif" font-size="11" lengthAdjust="spacing" textLength="77" x="1826.5" y="1072.8198">-endIndex: int</text><text fill="#000000" font-family="sans-serif" font-size="11" lengthAdjust="spacing" textLength="76" x="1826.5" y="1085.6245">-maxSum: int</text><line style="stroke:#A80036;stroke-width:1.5;" x1="1821.5" x2="1994.5" y1="1092.2188" y2="1092.2188"/><text fill="#000000" font-family="sans-serif" font-size="11" lengthAdjust="spacing" textLength="163" x="1826.5" y="1106.4292">+MaxSumSublistService(list)</text><text fill="#000000" font-family="sans-serif" font-size="11" lengthAdjust="spacing" textLength="0" x="1830.5" y="1119.2339"/><text fill="#000000" font-family="sans-serif" font-size="11" lengthAdjust="spacing" textLength="61" x="1826.5" y="1132.0386">+getSum()</text><text fill="#000000" font-family="sans-serif" font-size="11" lengthAdjust="spacing" textLength="121" x="1826.5" y="1144.8433">+getBegginingIndex()</text><text fill="#000000" font-family="sans-serif" font-size="11" lengthAdjust="spacing" textLength="86" x="1826.5" y="1157.6479">+getEndIndex()</text><text fill="#000000" font-family="sans-serif" font-size="11" lengthAdjust="spacing" textLength="83" x="1826.5" y="1170.4526">+getMaxSum()</text><!--MD5=[ad586fe025efc8307d6b66bf6c839593]
class AnalyseCenterPerformanceController--><rect codeLine="125" fill="#FEFECE" filter="url(#fbwkvoudlxmjq)" height="86.4141" id="AnalyseCenterPerformanceController" style="stroke:#A80036;stroke-width:1.5;" width="524" x="56" y="285"/><ellipse cx="198.25" cy="301" fill="#ADD1B2" rx="11" ry="11" style="stroke:#A80036;stroke-width:1.0;"/><path d="M201.2188,306.6406 Q200.6406,306.9375 200,307.0781 Q199.3594,307.2344 198.6563,307.2344 Q196.1563,307.2344 194.8281,305.5938 Q193.5156,303.9375 193.5156,300.8125 Q193.5156,297.6875 194.8281,296.0313 Q196.1563,294.375 198.6563,294.375 Q199.3594,294.375 200,294.5313 Q200.6563,294.6875 201.2188,294.9844 L201.2188,297.7031 Q200.5938,297.125 200,296.8594 Q199.4063,296.5781 198.7813,296.5781 Q197.4375,296.5781 196.75,297.6563 Q196.0625,298.7188 196.0625,300.8125 Q196.0625,302.9063 196.75,303.9844 Q197.4375,305.0469 198.7813,305.0469 Q199.4063,305.0469 200,304.7813 Q200.5938,304.5 201.2188,303.9219 L201.2188,306.6406 Z " fill="#000000"/><text fill="#000000" font-family="sans-serif" font-size="12" lengthAdjust="spacing" textLength="231" x="218.75" y="305.1543">AnalyseCenterPerformanceController</text><line style="stroke:#A80036;stroke-width:1.5;" x1="57" x2="579" y1="317" y2="317"/><line style="stroke:#A80036;stroke-width:1.5;" x1="57" x2="579" y1="325" y2="325"/><text fill="#000000" font-family="sans-serif" font-size="11" lengthAdjust="spacing" textLength="97" x="62" y="339.2104">+getCategories()</text><text fill="#000000" font-family="sans-serif" font-size="11" lengthAdjust="spacing" textLength="512" x="62" y="352.0151">+CheckWaitingRoom(ref,designation,informalDesc,technicalDesc,duration,cost,categoryId)</text><text fill="#000000" font-family="sans-serif" font-size="11" lengthAdjust="spacing" textLength="71" x="62" y="364.8198">+saveTask()</text><!--MD5=[2e42295458bb0bec21c9622a623eb29e]
class Time--><rect codeLine="133" fill="#FEFECE" filter="url(#fbwkvoudlxmjq)" height="99.2188" id="Time" style="stroke:#A80036;stroke-width:1.5;" width="126" x="2393" y="1039.5"/><ellipse cx="2437.25" cy="1055.5" fill="#ADD1B2" rx="11" ry="11" style="stroke:#A80036;stroke-width:1.0;"/><path d="M2440.2188,1061.1406 Q2439.6406,1061.4375 2439,1061.5781 Q2438.3594,1061.7344 2437.6563,1061.7344 Q2435.1563,1061.7344 2433.8281,1060.0938 Q2432.5156,1058.4375 2432.5156,1055.3125 Q2432.5156,1052.1875 2433.8281,1050.5313 Q2435.1563,1048.875 2437.6563,1048.875 Q2438.3594,1048.875 2439,1049.0313 Q2439.6563,1049.1875 2440.2188,1049.4844 L2440.2188,1052.2031 Q2439.5938,1051.625 2439,1051.3594 Q2438.4063,1051.0781 2437.7813,1051.0781 Q2436.4375,1051.0781 2435.75,1052.1563 Q2435.0625,1053.2188 2435.0625,1055.3125 Q2435.0625,1057.4063 2435.75,1058.4844 Q2436.4375,1059.5469 2437.7813,1059.5469 Q2438.4063,1059.5469 2439,1059.2813 Q2439.5938,1059 2440.2188,1058.4219 L2440.2188,1061.1406 Z " fill="#000000"/><text fill="#000000" font-family="sans-serif" font-size="12" lengthAdjust="spacing" textLength="29" x="2457.75" y="1059.6543">Time</text><line style="stroke:#A80036;stroke-width:1.5;" x1="2394" x2="2518" y1="1071.5" y2="1071.5"/><text fill="#000000" font-family="sans-serif" font-size="11" lengthAdjust="spacing" textLength="52" x="2399" y="1085.7104">-hour: int</text><text fill="#000000" font-family="sans-serif" font-size="11" lengthAdjust="spacing" textLength="65" x="2399" y="1098.5151">-minute: int</text><line style="stroke:#A80036;stroke-width:1.5;" x1="2394" x2="2518" y1="1105.1094" y2="1105.1094"/><text fill="#000000" font-family="sans-serif" font-size="11" lengthAdjust="spacing" textLength="114" x="2399" y="1119.3198">+Time(hour,minute)</text><text fill="#000000" font-family="sans-serif" font-size="11" lengthAdjust="spacing" textLength="70" x="2399" y="1132.1245">+Time(time)</text><!--MD5=[1d13de5e760cdeae93ca6db6fe28e2cb]
link AnalyseCenterPerformanceUI to AnalyseCenterPerformanceController--><path codeLine="143" d="M318,89.16 C318,131.7 318,223.08 318,279.37 " fill="none" id="AnalyseCenterPerformanceUI-to-AnalyseCenterPerformanceController" style="stroke:#A80036;stroke-width:1.0;stroke-dasharray:7.0,7.0;"/><polygon fill="#A80036" points="318,284.7,322,275.7,318,279.7,314,275.7,318,284.7" style="stroke:#A80036;stroke-width:1.0;"/><!--MD5=[cc56671b7038e21fc613037a00d35007]
link AnalyseCenterPerformanceController to Company--><path codeLine="144" d="M404.79,371.06 C479.34,407.18 587.96,459.82 673.24,501.15 " fill="none" id="AnalyseCenterPerformanceController-to-Company" style="stroke:#A80036;stroke-width:1.0;stroke-dasharray:7.0,7.0;"/><polygon fill="#A80036" points="677.8,503.36,671.4327,495.8462,673.2969,501.1871,667.956,503.0512,677.8,503.36" style="stroke:#A80036;stroke-width:1.0;"/><!--MD5=[db5fb34fd733ab3677281d60b785e712]
reverse link VaccinationCenter to Employee--><path codeLine="146" d="M1537.44,642.17 C1492.94,670.62 1442.36,702.97 1398.01,731.33 " fill="none" id="VaccinationCenter-backto-Employee" style="stroke:#A80036;stroke-width:1.0;"/><polygon fill="#FFFFFF" points="1548.61,635.03,1541.4002,634.8936,1538.5013,641.4964,1545.7111,641.6328,1548.61,635.03" style="stroke:#A80036;stroke-width:1.0;"/><text fill="#000000" font-family="sans-serif" font-size="13" lengthAdjust="spacing" textLength="73" x="1491" y="678.0669">coordinator</text><!--MD5=[91079b08053e6fc6d0a3af85820ed36a]
reverse link VaccinationCenter to Time--><path codeLine="147" d="M2066.29,614.24 C2181.11,634.82 2286.23,663.11 2329,701 C2342.1,712.61 2410.91,937.76 2441.41,1039.19 " fill="none" id="VaccinationCenter-backto-Time" style="stroke:#A80036;stroke-width:1.0;"/><polygon fill="#FFFFFF" points="2053.33,611.96,2058.5442,616.9412,2065.1477,614.0439,2059.9335,609.0627,2053.33,611.96" style="stroke:#A80036;stroke-width:1.0;"/><text fill="#000000" font-family="sans-serif" font-size="13" lengthAdjust="spacing" textLength="89" x="2405" y="811.0669">openingHours</text><!--MD5=[91079b08053e6fc6d0a3af85820ed36a]
reverse link VaccinationCenter to Time--><path codeLine="148" d="M2066.24,582.06 C2252.92,598.47 2444.97,632.18 2503,701 C2584.37,797.5 2522.23,958.79 2482.5,1039.25 " fill="none" id="VaccinationCenter-backto-Time-1" style="stroke:#A80036;stroke-width:1.0;"/><polygon fill="#FFFFFF" points="2053.09,580.93,2058.7301,585.4232,2065.047,581.9451,2059.4069,577.4519,2053.09,580.93" style="stroke:#A80036;stroke-width:1.0;"/><text fill="#000000" font-family="sans-serif" font-size="13" lengthAdjust="spacing" textLength="82" x="2543" y="811.0669">closingHours</text><!--MD5=[99cf60c71dc20007695665c9ea3c4eb1]
reverse link VaccinationCenter to Slot--><path codeLine="149" d="M1643.13,647.9 C1637.45,686.61 1630.88,731.37 1626.2,763.27 " fill="none" id="VaccinationCenter-backto-Slot" style="stroke:#A80036;stroke-width:1.0;"/><polygon fill="#FFFFFF" points="1645.02,635.03,1640.1917,640.386,1643.2786,646.903,1648.107,641.5469,1645.02,635.03" style="stroke:#A80036;stroke-width:1.0;"/><!--MD5=[b5cfad5f497f25fae1c228f2df0e544a]
reverse link VaccinationCenter to CenterEventList--><path codeLine="150" d="M1921.62,639.29 C1971.76,656.77 2022.89,677.36 2069,701 C2092.15,712.87 2115.58,728.38 2136.56,743.8 " fill="none" id="VaccinationCenter-backto-CenterEventList" style="stroke:#A80036;stroke-width:1.0;"/><polygon fill="#A80036" points="1909.24,635.03,1913.6077,640.7679,1920.5841,638.9431,1916.2164,633.2052,1909.24,635.03" style="stroke:#A80036;stroke-width:1.0;"/><!--MD5=[85d8b15e810c9ff729a9ea97d09bcb70]
link VaccinationCenter to CenterPerformance--><path codeLine="152" d="M1727.16,635.03 C1752.43,658.84 1781.27,686.03 1808.38,711.59 " fill="none" id="VaccinationCenter-CenterPerformance" style="stroke:#A80036;stroke-width:1.0;"/><polygon fill="#000000" points="1781.6384,676.996,1777.0724,668.6532,1773.0406,672.9304,1781.6384,676.996" style="stroke:#000000;stroke-width:1.0;"/><text fill="#000000" font-family="sans-serif" font-size="13" lengthAdjust="spacing" textLength="65" x="1787" y="678.0669">generates</text><text fill="#000000" font-family="sans-serif" font-size="13" lengthAdjust="spacing" textLength="8" x="1725.8695" y="654.6549">1</text><text fill="#000000" font-family="sans-serif" font-size="13" lengthAdjust="spacing" textLength="7" x="1793.4849" y="700.8269">*</text><!--MD5=[7128e4477b9604ff8fff1a66f8872886]
reverse link CenterPerformance to Time--><path codeLine="154" d="M1965.61,911.79 C1976.89,926.07 1989.72,939.43 2004,950 C2123.21,1038.22 2299.41,1070.66 2392.7,1082.11 " fill="none" id="CenterPerformance-backto-Time" style="stroke:#A80036;stroke-width:1.0;"/><polygon fill="#FFFFFF" points="1957.67,901.25,1958.0874,908.449,1964.8932,910.8326,1964.4758,903.6336,1957.67,901.25" style="stroke:#A80036;stroke-width:1.0;"/><text fill="#000000" font-family="sans-serif" font-size="13" lengthAdjust="spacing" textLength="96" x="2005" y="946.0669">startingInterval</text><!--MD5=[7128e4477b9604ff8fff1a66f8872886]
reverse link CenterPerformance to Time--><path codeLine="155" d="M2062.2,907.66 C2072.54,913.68 2082.86,919.51 2093,925 C2195.06,980.26 2319.5,1033.19 2392.99,1063.05 " fill="none" id="CenterPerformance-backto-Time-1" style="stroke:#A80036;stroke-width:1.0;"/><polygon fill="#FFFFFF" points="2051,901.06,2054.1385,907.5523,2061.3385,907.1523,2058.2,900.66,2051,901.06" style="stroke:#A80036;stroke-width:1.0;"/><text fill="#000000" font-family="sans-serif" font-size="13" lengthAdjust="spacing" textLength="90" x="2132" y="946.0669">endingInterval</text><!--MD5=[7128e4477b9604ff8fff1a66f8872886]
reverse link CenterPerformance to Time--><path codeLine="156" d="M2049.68,907.19 C2063.87,914.18 2078.43,920.3 2093,925 C2151.47,943.85 2172.89,913.06 2231,933 C2296.5,955.48 2360.48,1002.73 2403.36,1039.19 " fill="none" id="CenterPerformance-backto-Time-2" style="stroke:#A80036;stroke-width:1.0;"/><polygon fill="#FFFFFF" points="2037.85,901.14,2041.3722,907.4324,2048.5352,906.6013,2045.0131,900.3089,2037.85,901.14" style="stroke:#A80036;stroke-width:1.0;"/><text fill="#000000" font-family="sans-serif" font-size="13" lengthAdjust="spacing" textLength="89" x="2266" y="946.0669">openingHours</text><!--MD5=[c366fc3d57755da5fa51cb044aed3a17]
link CenterPerformance to MaxSumSublistService--><path codeLine="158" d="M1908,901.29 C1908,933.46 1908,969.31 1908,1000.93 " fill="none" id="CenterPerformance-MaxSumSublistService" style="stroke:#A80036;stroke-width:1.0;"/><polygon fill="#000000" points="1913,946.5664,1915.9389,937.5213,1910.0611,937.5213,1913,946.5664" style="stroke:#000000;stroke-width:1.0;"/><text fill="#000000" font-family="sans-serif" font-size="13" lengthAdjust="spacing" textLength="30" x="1922" y="946.0669">uses</text><!--MD5=[8c304936b446fd8cea914e03fbadd4b7]
link VaccinationCenterStore to VaccinationCenter--><path codeLine="160" d="M1465.94,397.26 C1501.23,428.57 1542.97,465.6 1578.23,496.89 " fill="none" id="VaccinationCenterStore-VaccinationCenter" style="stroke:#A80036;stroke-width:1.0;"/><polygon fill="#000000" points="1522.7401,440.8848,1517.9247,432.6834,1514.0237,437.0801,1522.7401,440.8848" style="stroke:#000000;stroke-width:1.0;"/><text fill="#000000" font-family="sans-serif" font-size="13" lengthAdjust="spacing" textLength="40" x="1528" y="442.0669">stores</text><text fill="#000000" font-family="sans-serif" font-size="13" lengthAdjust="spacing" textLength="8" x="1464.8921" y="416.6669">1</text><text fill="#000000" font-family="sans-serif" font-size="13" lengthAdjust="spacing" textLength="7" x="1562.9522" y="486.0823">*</text><!--MD5=[bc0d5b4bfe6e1bf0a8fced13bc4bdd47]
link Company to VaccinationCenterStore--><path codeLine="162" d="M884.4,503.3 C909.79,485.61 938.68,467.48 967,454 C1012.96,432.12 1063.59,413.16 1113.33,397.08 " fill="none" id="Company-VaccinationCenterStore" style="stroke:#A80036;stroke-width:1.0;"/><polygon fill="#000000" points="1030.5356,435.462,1021.0937,436.603,1023.5676,441.9349,1030.5356,435.462" style="stroke:#000000;stroke-width:1.0;"/><text fill="#000000" font-family="sans-serif" font-size="13" lengthAdjust="spacing" textLength="39" x="1035" y="442.0669">knows</text><text fill="#000000" font-family="sans-serif" font-size="13" lengthAdjust="spacing" textLength="8" x="885.1181" y="492.2676">1</text><text fill="#000000" font-family="sans-serif" font-size="13" lengthAdjust="spacing" textLength="8" x="1077.8" y="416.7098">1</text><!--MD5=[220cc3f4b10e3d8b50a3b00b727386ce]
@startuml
skinparam classAttributeIconSize 0

package UI {
  class AnalyseCenterPerformanceUI {}
}

package core {
  package domain {
    package shared {
      enum CenterEventType {
        ARRIVAL
        VACCINATED
        DEPARTED
      }
    }

    package stores {
      class VaccinationCenterStore {
        +createVaccinationCenter(name,address,emailAddress,phoneNumber,faxNumber,websiteAddress,openingHours,closingHours,slotDuration,maximumVaccinesPerSlot,coordinator)
        +validateVaccinatonCenter(center)
        +saveVaccinationCenter(center)
        +checkDuplicates(center)
        +getVaccinationCenterWithPhone(phone)

        -addVaccinationCenter(center)
      }
    }

    package lists {
      class CenterEventList {
        - events: List<CenterEvent>

        + create(date,eventType,snsUser)
        + save(event)
        + getEventsInDay(day)

        +CenterEventList()
      }
    }

    package model {
      class VaccinationCenter {
        - name: String
        - address: String
        - emailAddress: String
        - phoneNumber: String
        - faxNumber: String
        - websiteAddress: String
        
        +VaccinationCenter(name,address,emailAddress,phoneNumber,faxNumber,websiteAddress,openingHours,closingHours,slot,coordinator)
      }

      class Employee {
        -id: String 
        -name: String 
        -email: String 
        -phone: String 
        -address: String 
        -citizenCardNumber: int 
        -roleId: String 

        +Employee(name,email,phone,address,citizenCardNumber,roleId)
      }

      class CenterEvent {
        - date: Date
        - eventType: CenterEventType

        + isInDay(day)

        + CenterEvent(date,eventType,snsUser)
      }

      class Slot {
        -duration: int
        -maxVaccinesPerSlot: int

        +Slot(duration,maxVaccinesPerSlot)
      }

      class CenterPerformance {
        - day: Calendar
        - maxSumSubList: List
        - sum: int

        +CenterPerformance(day,interval,openingHours)

        +getDay()
        +getDifferencesList()
        +getMaxSumSubList()
        +getSum()
        +getStartingInterval()
        +getEndingInterval()
      }

      class Company {
        -designation: String
        -authFacade: AuthFacade
        -vaccinationCenterStore: VaccinationCenterStore
        
        +Company(designation)

        +getVaccinationCenterStore()
      }
    }

    package service {
      class MaxSumSublistService {
        - list: List
        - beginningIndex: int
        - endIndex: int
        - maxSum: int

        +MaxSumSublistService(list)

        +getSum()
        +getBegginingIndex()
        +getEndIndex()
        +getMaxSum()
      }
    }
  }

  package controllers {
    class AnalyseCenterPerformanceController {
      +getCategories()
      +CheckWaitingRoom(ref,designation,informalDesc,technicalDesc,duration,cost,categoryId)
      +saveTask()
    }
  }

  package utils {
    class Time {
      - hour: int
      - minute: int
      
      +Time(hour,minute)
      +Time(time)
    }
  }
}

AnalyseCenterPerformanceUI ..> AnalyseCenterPerformanceController
AnalyseCenterPerformanceController ..> Company

VaccinationCenter o- - Employee : coordinator
VaccinationCenter o- - Time : openingHours
VaccinationCenter o- - Time : closingHours
VaccinationCenter o- - Slot
VaccinationCenter *- - CenterEventList

VaccinationCenter "1" - - "*" CenterPerformance : generates >

CenterPerformance o- - Time : startingInterval
CenterPerformance o- - Time : endingInterval
CenterPerformance o- - Time : openingHours

CenterPerformance - - MaxSumSublistService : uses >

VaccinationCenterStore "1" - - "*" VaccinationCenter : stores >

Company "1" - - "1" VaccinationCenterStore : knows >

@enduml

PlantUML version 1.2022.0(Tue Jan 11 16:16:42 WET 2022)
(GPL source distribution)
Java Runtime: OpenJDK Runtime Environment
JVM: OpenJDK 64-Bit Server VM
Default Encoding: UTF-8
Language: en
Country: US
--></g></svg>