<?xml version="1.0" encoding="UTF-8" standalone="no"?><svg xmlns="http://www.w3.org/2000/svg" xmlns:xlink="http://www.w3.org/1999/xlink" contentStyleType="text/css" height="1968px" preserveAspectRatio="none" style="width:4794px;height:1968px;background:#FFFFFF;" version="1.1" viewBox="0 0 4794 1968" width="4794px" zoomAndPan="magnify"><defs/><g><!--MD5=[9681dc6e01e10c6b4fe06895ae94f592]
cluster UI--><g id="cluster_UI"><path d="M333.5,6 L350.5,6 A3.75,3.75 0 0 1 353,8.5 L360,28.2969 L568.5,28.2969 A2.5,2.5 0 0 1 571,30.7969 L571,102.5 A2.5,2.5 0 0 1 568.5,105 L333.5,105 A2.5,2.5 0 0 1 331,102.5 L331,8.5 A2.5,2.5 0 0 1 333.5,6 " style="stroke:#000000;stroke-width:1.5;fill:none;"/><line style="stroke:#000000;stroke-width:1.5;fill:none;" x1="331" x2="360" y1="28.2969" y2="28.2969"/><text fill="#000000" font-family="sans-serif" font-size="14" font-weight="bold" lengthAdjust="spacing" textLength="16" x="335" y="20.9951">UI</text></g><!--MD5=[01435ace8273dc3cae88e7f376e4d373]
cluster core--><g id="cluster_core"><path d="M8.5,138 L44.5,138 A3.75,3.75 0 0 1 47,140.5 L54,160.2969 L4784.5,160.2969 A2.5,2.5 0 0 1 4787,162.7969 L4787,1958.5 A2.5,2.5 0 0 1 4784.5,1961 L8.5,1961 A2.5,2.5 0 0 1 6,1958.5 L6,140.5 A2.5,2.5 0 0 1 8.5,138 " style="stroke:#000000;stroke-width:1.5;fill:none;"/><line style="stroke:#000000;stroke-width:1.5;fill:none;" x1="6" x2="54" y1="160.2969" y2="160.2969"/><text fill="#000000" font-family="sans-serif" font-size="14" font-weight="bold" lengthAdjust="spacing" textLength="35" x="10" y="152.9951">core</text></g><!--MD5=[27f772719433d509ddbc20ff768eba08]
cluster domain--><g id="cluster_domain"><path d="M32.5,443 L93.5,443 A3.75,3.75 0 0 1 96,445.5 L103,465.2969 L4384.5,465.2969 A2.5,2.5 0 0 1 4387,467.7969 L4387,1783.5 A2.5,2.5 0 0 1 4384.5,1786 L32.5,1786 A2.5,2.5 0 0 1 30,1783.5 L30,445.5 A2.5,2.5 0 0 1 32.5,443 " style="stroke:#000000;stroke-width:1.5;fill:none;"/><line style="stroke:#000000;stroke-width:1.5;fill:none;" x1="30" x2="103" y1="465.2969" y2="465.2969"/><text fill="#000000" font-family="sans-serif" font-size="14" font-weight="bold" lengthAdjust="spacing" textLength="60" x="34" y="457.9951">domain</text></g><!--MD5=[5d4cd377749310b66bf14896f5cd8d9b]
cluster model--><g id="cluster_model"><path d="M56.5,486 L106.5,486 A3.75,3.75 0 0 1 109,488.5 L116,508.2969 L4360.5,508.2969 A2.5,2.5 0 0 1 4363,510.7969 L4363,1759.5 A2.5,2.5 0 0 1 4360.5,1762 L56.5,1762 A2.5,2.5 0 0 1 54,1759.5 L54,488.5 A2.5,2.5 0 0 1 56.5,486 " style="stroke:#000000;stroke-width:1.5;fill:none;"/><line style="stroke:#000000;stroke-width:1.5;fill:none;" x1="54" x2="116" y1="508.2969" y2="508.2969"/><text fill="#000000" font-family="sans-serif" font-size="14" font-weight="bold" lengthAdjust="spacing" textLength="49" x="58" y="500.9951">model</text></g><!--MD5=[3bbea03787a63c9e9e3a6e07c5a481f8]
cluster shared--><g id="cluster_shared"><path d="M2474.5,1590 L2530.5,1590 A3.75,3.75 0 0 1 2533,1592.5 L2540,1612.2969 L2661.5,1612.2969 A2.5,2.5 0 0 1 2664,1614.7969 L2664,1735.5 A2.5,2.5 0 0 1 2661.5,1738 L2474.5,1738 A2.5,2.5 0 0 1 2472,1735.5 L2472,1592.5 A2.5,2.5 0 0 1 2474.5,1590 " style="stroke:#000000;stroke-width:1.5;fill:none;"/><line style="stroke:#000000;stroke-width:1.5;fill:none;" x1="2472" x2="2540" y1="1612.2969" y2="1612.2969"/><text fill="#000000" font-family="sans-serif" font-size="14" font-weight="bold" lengthAdjust="spacing" textLength="55" x="2476" y="1604.9951">shared</text></g><!--MD5=[fbca5634cbc0239920b500cad9c4bedb]
cluster stores--><g id="cluster_stores"><path d="M80.5,822.5 L133.5,822.5 A3.75,3.75 0 0 1 136,825 L143,844.7969 L959.5,844.7969 A2.5,2.5 0 0 1 962,847.2969 L962,952 A2.5,2.5 0 0 1 959.5,954.5 L80.5,954.5 A2.5,2.5 0 0 1 78,952 L78,825 A2.5,2.5 0 0 1 80.5,822.5 " style="stroke:#000000;stroke-width:1.5;fill:none;"/><line style="stroke:#000000;stroke-width:1.5;fill:none;" x1="78" x2="143" y1="844.7969" y2="844.7969"/><text fill="#000000" font-family="sans-serif" font-size="14" font-weight="bold" lengthAdjust="spacing" textLength="52" x="82" y="837.4951">stores</text></g><!--MD5=[74377f9e5257669286bfbcdea75789c1]
cluster lists--><g id="cluster_lists"><path d="M1645.5,1034 L1682.5,1034 A3.75,3.75 0 0 1 1685,1036.5 L1692,1056.2969 L2708.5,1056.2969 A2.5,2.5 0 0 1 2711,1058.7969 L2711,1228.5 A2.5,2.5 0 0 1 2708.5,1231 L1645.5,1231 A2.5,2.5 0 0 1 1643,1228.5 L1643,1036.5 A2.5,2.5 0 0 1 1645.5,1034 " style="stroke:#000000;stroke-width:1.5;fill:none;"/><line style="stroke:#000000;stroke-width:1.5;fill:none;" x1="1643" x2="1692" y1="1056.2969" y2="1056.2969"/><text fill="#000000" font-family="sans-serif" font-size="14" font-weight="bold" lengthAdjust="spacing" textLength="36" x="1647" y="1048.9951">lists</text></g><!--MD5=[f4e70ef68289585296b9045165e58692]
cluster controllers--><g id="cluster_controllers"><path d="M143.5,181 L233.5,181 A3.75,3.75 0 0 1 236,183.5 L243,203.2969 L758.5,203.2969 A2.5,2.5 0 0 1 761,205.7969 L761,407.5 A2.5,2.5 0 0 1 758.5,410 L143.5,410 A2.5,2.5 0 0 1 141,407.5 L141,183.5 A2.5,2.5 0 0 1 143.5,181 " style="stroke:#000000;stroke-width:1.5;fill:none;"/><line style="stroke:#000000;stroke-width:1.5;fill:none;" x1="141" x2="243" y1="203.2969" y2="203.2969"/><text fill="#000000" font-family="sans-serif" font-size="14" font-weight="bold" lengthAdjust="spacing" textLength="89" x="145" y="195.9951">controllers</text></g><!--MD5=[c52f45833d539af9e29a9d34b8b7302b]
cluster utils--><g id="cluster_utils"><path d="M4413.5,1050.5 L4451.5,1050.5 A3.75,3.75 0 0 1 4454,1053 L4461,1072.7969 L4596.5,1072.7969 A2.5,2.5 0 0 1 4599,1075.2969 L4599,1212 A2.5,2.5 0 0 1 4596.5,1214.5 L4413.5,1214.5 A2.5,2.5 0 0 1 4411,1212 L4411,1053 A2.5,2.5 0 0 1 4413.5,1050.5 " style="stroke:#000000;stroke-width:1.5;fill:none;"/><line style="stroke:#000000;stroke-width:1.5;fill:none;" x1="4411" x2="4461" y1="1072.7969" y2="1072.7969"/><text fill="#000000" font-family="sans-serif" font-size="14" font-weight="bold" lengthAdjust="spacing" textLength="37" x="4415" y="1065.4951">utils</text></g><!--MD5=[7579d5565d2521d5936cec86ed3dadee]
cluster service--><g id="cluster_service"><path d="M4413.5,1311.5 L4471.5,1311.5 A3.75,3.75 0 0 1 4474,1314 L4481,1333.7969 L4760.5,1333.7969 A2.5,2.5 0 0 1 4763,1336.2969 L4763,1934.5 A2.5,2.5 0 0 1 4760.5,1937 L4413.5,1937 A2.5,2.5 0 0 1 4411,1934.5 L4411,1314 A2.5,2.5 0 0 1 4413.5,1311.5 " style="stroke:#000000;stroke-width:1.5;fill:none;"/><line style="stroke:#000000;stroke-width:1.5;fill:none;" x1="4411" x2="4481" y1="1333.7969" y2="1333.7969"/><text fill="#000000" font-family="sans-serif" font-size="14" font-weight="bold" lengthAdjust="spacing" textLength="57" x="4415" y="1326.4951">service</text></g><!--MD5=[fc367987ab86482764cc437d96380bc2]
cluster sender--><g id="cluster_sender"><path d="M4437.5,1354.5 L4492.5,1354.5 A3.75,3.75 0 0 1 4495,1357 L4502,1376.7969 L4736.5,1376.7969 A2.5,2.5 0 0 1 4739,1379.2969 L4739,1910.5 A2.5,2.5 0 0 1 4736.5,1913 L4437.5,1913 A2.5,2.5 0 0 1 4435,1910.5 L4435,1357 A2.5,2.5 0 0 1 4437.5,1354.5 " style="stroke:#000000;stroke-width:1.5;fill:none;"/><line style="stroke:#000000;stroke-width:1.5;fill:none;" x1="4435" x2="4502" y1="1376.7969" y2="1376.7969"/><text fill="#000000" font-family="sans-serif" font-size="14" font-weight="bold" lengthAdjust="spacing" textLength="54" x="4439" y="1369.4951">sender</text></g><!--MD5=[d0a5a65fe6f1caee67ac0dcb4193126d]
class VaccineAdministrationUI--><g id="elem_VaccineAdministrationUI"><rect codeLine="4" fill="#F1F1F1" height="48" id="VaccineAdministrationUI" rx="2.5" ry="2.5" style="stroke:#181818;stroke-width:0.5;" width="208" x="347" y="41"/><ellipse cx="362" cy="57" fill="#ADD1B2" rx="11" ry="11" style="stroke:#181818;stroke-width:1.0;"/><path d="M364.3438,52.6719 C363.4063,52.2344 362.8125,52.0938 361.9375,52.0938 C359.3125,52.0938 357.3125,54.1719 357.3125,56.8906 L357.3125,58.0156 C357.3125,60.5938 359.4219,62.4844 362.3125,62.4844 C363.5313,62.4844 364.6875,62.1875 365.4375,61.6406 C366.0156,61.2344 366.3438,60.7813 366.3438,60.3906 C366.3438,59.9375 365.9531,59.5469 365.4844,59.5469 C365.2656,59.5469 365.0625,59.625 364.875,59.8125 C364.4219,60.2969 364.4219,60.2969 364.2344,60.3906 C363.8125,60.6563 363.125,60.7813 362.3594,60.7813 C360.3125,60.7813 359.0156,59.6875 359.0156,57.9844 L359.0156,56.8906 C359.0156,55.1094 360.2656,53.7969 362,53.7969 C362.5781,53.7969 363.1875,53.9531 363.6563,54.2031 C364.1406,54.4844 364.3125,54.7031 364.4063,55.1094 C364.4688,55.5156 364.5,55.6406 364.6406,55.7656 C364.7813,55.9063 365.0156,56.0156 365.2344,56.0156 C365.5,56.0156 365.7656,55.875 365.9375,55.6563 C366.0469,55.5 366.0781,55.3125 366.0781,54.8906 L366.0781,53.4688 C366.0781,53.0313 366.0625,52.9063 365.9688,52.75 C365.8125,52.4844 365.5313,52.3438 365.2344,52.3438 C364.9375,52.3438 364.7344,52.4375 364.5156,52.75 L364.3438,52.6719 Z " fill="#000000"/><text fill="#000000" font-family="sans-serif" font-size="14" lengthAdjust="spacing" textLength="176" x="376" y="61.8467">VaccineAdministrationUI</text><line style="stroke:#181818;stroke-width:0.5;" x1="348" x2="554" y1="73" y2="73"/><line style="stroke:#181818;stroke-width:0.5;" x1="348" x2="554" y1="81" y2="81"/></g><!--MD5=[de60e6d4f424ae4d0522096f76a59010]
class VaccinationCenter--><g id="elem_VaccinationCenter"><rect codeLine="10" fill="#F1F1F1" height="145.7813" id="VaccinationCenter" rx="2.5" ry="2.5" style="stroke:#181818;stroke-width:0.5;" width="990" x="2577" y="825"/><ellipse cx="3000.75" cy="841" fill="#ADD1B2" rx="11" ry="11" style="stroke:#181818;stroke-width:1.0;"/><path d="M3003.0938,836.6719 C3002.1563,836.2344 3001.5625,836.0938 3000.6875,836.0938 C2998.0625,836.0938 2996.0625,838.1719 2996.0625,840.8906 L2996.0625,842.0156 C2996.0625,844.5938 2998.1719,846.4844 3001.0625,846.4844 C3002.2813,846.4844 3003.4375,846.1875 3004.1875,845.6406 C3004.7656,845.2344 3005.0938,844.7813 3005.0938,844.3906 C3005.0938,843.9375 3004.7031,843.5469 3004.2344,843.5469 C3004.0156,843.5469 3003.8125,843.625 3003.625,843.8125 C3003.1719,844.2969 3003.1719,844.2969 3002.9844,844.3906 C3002.5625,844.6563 3001.875,844.7813 3001.1094,844.7813 C2999.0625,844.7813 2997.7656,843.6875 2997.7656,841.9844 L2997.7656,840.8906 C2997.7656,839.1094 2999.0156,837.7969 3000.75,837.7969 C3001.3281,837.7969 3001.9375,837.9531 3002.4063,838.2031 C3002.8906,838.4844 3003.0625,838.7031 3003.1563,839.1094 C3003.2188,839.5156 3003.25,839.6406 3003.3906,839.7656 C3003.5313,839.9063 3003.7656,840.0156 3003.9844,840.0156 C3004.25,840.0156 3004.5156,839.875 3004.6875,839.6563 C3004.7969,839.5 3004.8281,839.3125 3004.8281,838.8906 L3004.8281,837.4688 C3004.8281,837.0313 3004.8125,836.9063 3004.7188,836.75 C3004.5625,836.4844 3004.2813,836.3438 3003.9844,836.3438 C3003.6875,836.3438 3003.4844,836.4375 3003.2656,836.75 L3003.0938,836.6719 Z " fill="#000000"/><text fill="#000000" font-family="sans-serif" font-size="14" lengthAdjust="spacing" textLength="134" x="3021.25" y="845.8467">VaccinationCenter</text><line style="stroke:#181818;stroke-width:0.5;" x1="2578" x2="3566" y1="857" y2="857"/><text fill="#000000" font-family="sans-serif" font-size="14" lengthAdjust="spacing" textLength="99" x="2583" y="873.9951">-name: String</text><text fill="#000000" font-family="sans-serif" font-size="14" lengthAdjust="spacing" textLength="155" x="2583" y="890.292">-emailAddress: String</text><text fill="#000000" font-family="sans-serif" font-size="14" lengthAdjust="spacing" textLength="162" x="2583" y="906.5889">-phoneNumber: String</text><text fill="#000000" font-family="sans-serif" font-size="14" lengthAdjust="spacing" textLength="138" x="2583" y="922.8857">-faxNumber: String</text><text fill="#000000" font-family="sans-serif" font-size="14" lengthAdjust="spacing" textLength="173" x="2583" y="939.1826">-websiteAddress: String</text><line style="stroke:#181818;stroke-width:0.5;" x1="2578" x2="3566" y1="946.4844" y2="946.4844"/><text fill="#000000" font-family="sans-serif" font-size="14" lengthAdjust="spacing" textLength="978" x="2583" y="963.4795">+VaccinationCenter(name,address,emailAddress,phoneNumber,faxNumber,websiteAddress,openingHours,closingHours,slot,coordinator)</text></g><!--MD5=[56872536300a053cf9fd13853ad6ab1e]
class CommunityMassVaccinationCenter--><g id="elem_CommunityMassVaccinationCenter"><rect codeLine="20" fill="#F1F1F1" height="96.8906" id="CommunityMassVaccinationCenter" rx="2.5" ry="2.5" style="stroke:#181818;stroke-width:0.5;" width="1201" x="3145.5" y="1093.5"/><ellipse cx="3616.25" cy="1109.5" fill="#ADD1B2" rx="11" ry="11" style="stroke:#181818;stroke-width:1.0;"/><path d="M3618.5938,1105.1719 C3617.6563,1104.7344 3617.0625,1104.5938 3616.1875,1104.5938 C3613.5625,1104.5938 3611.5625,1106.6719 3611.5625,1109.3906 L3611.5625,1110.5156 C3611.5625,1113.0938 3613.6719,1114.9844 3616.5625,1114.9844 C3617.7813,1114.9844 3618.9375,1114.6875 3619.6875,1114.1406 C3620.2656,1113.7344 3620.5938,1113.2813 3620.5938,1112.8906 C3620.5938,1112.4375 3620.2031,1112.0469 3619.7344,1112.0469 C3619.5156,1112.0469 3619.3125,1112.125 3619.125,1112.3125 C3618.6719,1112.7969 3618.6719,1112.7969 3618.4844,1112.8906 C3618.0625,1113.1563 3617.375,1113.2813 3616.6094,1113.2813 C3614.5625,1113.2813 3613.2656,1112.1875 3613.2656,1110.4844 L3613.2656,1109.3906 C3613.2656,1107.6094 3614.5156,1106.2969 3616.25,1106.2969 C3616.8281,1106.2969 3617.4375,1106.4531 3617.9063,1106.7031 C3618.3906,1106.9844 3618.5625,1107.2031 3618.6563,1107.6094 C3618.7188,1108.0156 3618.75,1108.1406 3618.8906,1108.2656 C3619.0313,1108.4063 3619.2656,1108.5156 3619.4844,1108.5156 C3619.75,1108.5156 3620.0156,1108.375 3620.1875,1108.1563 C3620.2969,1108 3620.3281,1107.8125 3620.3281,1107.3906 L3620.3281,1105.9688 C3620.3281,1105.5313 3620.3125,1105.4063 3620.2188,1105.25 C3620.0625,1104.9844 3619.7813,1104.8438 3619.4844,1104.8438 C3619.1875,1104.8438 3618.9844,1104.9375 3618.7656,1105.25 L3618.5938,1105.1719 Z " fill="#000000"/><text fill="#000000" font-family="sans-serif" font-size="14" lengthAdjust="spacing" textLength="251" x="3636.75" y="1114.3467">CommunityMassVaccinationCenter</text><line style="stroke:#181818;stroke-width:0.5;" x1="3146.5" x2="4345.5" y1="1125.5" y2="1125.5"/><text fill="#000000" font-family="sans-serif" font-size="14" lengthAdjust="spacing" textLength="201" x="3151.5" y="1142.4951">-vaccineType : VaccineType</text><line style="stroke:#181818;stroke-width:0.5;" x1="3146.5" x2="4345.5" y1="1149.7969" y2="1149.7969"/><text fill="#000000" font-family="sans-serif" font-size="14" lengthAdjust="spacing" textLength="1189" x="3151.5" y="1166.792">+CommunityMassVaccinationCenter(name,address,emailAddress,phoneNumber,faxNumber,websiteAddress,openingHours,closingHours,slot,coordinator,vaccineType)</text><text fill="#000000" font-family="sans-serif" font-size="14" lengthAdjust="spacing" textLength="287" x="3151.5" y="1183.0889">+administersVaccineType(vaccineType)</text></g><!--MD5=[0f39e4cb6f03951afbf6d14bd2505654]
class Address--><g id="elem_Address"><rect codeLine="27" fill="#F1F1F1" height="113.1875" id="Address" rx="2.5" ry="2.5" style="stroke:#181818;stroke-width:0.5;" width="153" x="2873.5" y="1357"/><ellipse cx="2917.3" cy="1373" fill="#ADD1B2" rx="11" ry="11" style="stroke:#181818;stroke-width:1.0;"/><path d="M2919.6438,1368.6719 C2918.7063,1368.2344 2918.1125,1368.0938 2917.2375,1368.0938 C2914.6125,1368.0938 2912.6125,1370.1719 2912.6125,1372.8906 L2912.6125,1374.0156 C2912.6125,1376.5938 2914.7219,1378.4844 2917.6125,1378.4844 C2918.8313,1378.4844 2919.9875,1378.1875 2920.7375,1377.6406 C2921.3156,1377.2344 2921.6438,1376.7813 2921.6438,1376.3906 C2921.6438,1375.9375 2921.2531,1375.5469 2920.7844,1375.5469 C2920.5656,1375.5469 2920.3625,1375.625 2920.175,1375.8125 C2919.7219,1376.2969 2919.7219,1376.2969 2919.5344,1376.3906 C2919.1125,1376.6563 2918.425,1376.7813 2917.6594,1376.7813 C2915.6125,1376.7813 2914.3156,1375.6875 2914.3156,1373.9844 L2914.3156,1372.8906 C2914.3156,1371.1094 2915.5656,1369.7969 2917.3,1369.7969 C2917.8781,1369.7969 2918.4875,1369.9531 2918.9563,1370.2031 C2919.4406,1370.4844 2919.6125,1370.7031 2919.7063,1371.1094 C2919.7688,1371.5156 2919.8,1371.6406 2919.9406,1371.7656 C2920.0813,1371.9063 2920.3156,1372.0156 2920.5344,1372.0156 C2920.8,1372.0156 2921.0656,1371.875 2921.2375,1371.6563 C2921.3469,1371.5 2921.3781,1371.3125 2921.3781,1370.8906 L2921.3781,1369.4688 C2921.3781,1369.0313 2921.3625,1368.9063 2921.2688,1368.75 C2921.1125,1368.4844 2920.8313,1368.3438 2920.5344,1368.3438 C2920.2375,1368.3438 2920.0344,1368.4375 2919.8156,1368.75 L2919.6438,1368.6719 Z " fill="#000000"/><text fill="#000000" font-family="sans-serif" font-size="14" lengthAdjust="spacing" textLength="57" x="2937.7" y="1377.8467">Address</text><line style="stroke:#181818;stroke-width:0.5;" x1="2874.5" x2="3025.5" y1="1389" y2="1389"/><text fill="#000000" font-family="sans-serif" font-size="14" lengthAdjust="spacing" textLength="104" x="2879.5" y="1405.9951">-street: String</text><text fill="#000000" font-family="sans-serif" font-size="14" lengthAdjust="spacing" textLength="125" x="2879.5" y="1422.292">-doorNumber: int</text><text fill="#000000" font-family="sans-serif" font-size="14" lengthAdjust="spacing" textLength="141" x="2879.5" y="1438.5889">-postalCode: String</text><text fill="#000000" font-family="sans-serif" font-size="14" lengthAdjust="spacing" textLength="86" x="2879.5" y="1454.8857">-city: String</text><line style="stroke:#181818;stroke-width:0.5;" x1="2874.5" x2="3025.5" y1="1462.1875" y2="1462.1875"/></g><!--MD5=[72be06cc7ae02ccc98efe28a50e62246]
class SNSUser--><g id="elem_SNSUser"><rect codeLine="34" fill="#F1F1F1" height="227.2656" id="SNSUser" rx="2.5" ry="2.5" style="stroke:#181818;stroke-width:0.5;" width="661" x="884.5" y="521"/><ellipse cx="1181.25" cy="537" fill="#ADD1B2" rx="11" ry="11" style="stroke:#181818;stroke-width:1.0;"/><path d="M1183.5938,532.6719 C1182.6563,532.2344 1182.0625,532.0938 1181.1875,532.0938 C1178.5625,532.0938 1176.5625,534.1719 1176.5625,536.8906 L1176.5625,538.0156 C1176.5625,540.5938 1178.6719,542.4844 1181.5625,542.4844 C1182.7813,542.4844 1183.9375,542.1875 1184.6875,541.6406 C1185.2656,541.2344 1185.5938,540.7813 1185.5938,540.3906 C1185.5938,539.9375 1185.2031,539.5469 1184.7344,539.5469 C1184.5156,539.5469 1184.3125,539.625 1184.125,539.8125 C1183.6719,540.2969 1183.6719,540.2969 1183.4844,540.3906 C1183.0625,540.6563 1182.375,540.7813 1181.6094,540.7813 C1179.5625,540.7813 1178.2656,539.6875 1178.2656,537.9844 L1178.2656,536.8906 C1178.2656,535.1094 1179.5156,533.7969 1181.25,533.7969 C1181.8281,533.7969 1182.4375,533.9531 1182.9063,534.2031 C1183.3906,534.4844 1183.5625,534.7031 1183.6563,535.1094 C1183.7188,535.5156 1183.75,535.6406 1183.8906,535.7656 C1184.0313,535.9063 1184.2656,536.0156 1184.4844,536.0156 C1184.75,536.0156 1185.0156,535.875 1185.1875,535.6563 C1185.2969,535.5 1185.3281,535.3125 1185.3281,534.8906 L1185.3281,533.4688 C1185.3281,533.0313 1185.3125,532.9063 1185.2188,532.75 C1185.0625,532.4844 1184.7813,532.3438 1184.4844,532.3438 C1184.1875,532.3438 1183.9844,532.4375 1183.7656,532.75 L1183.5938,532.6719 Z " fill="#000000"/><text fill="#000000" font-family="sans-serif" font-size="14" lengthAdjust="spacing" textLength="59" x="1201.75" y="541.8467">SNSUser</text><line style="stroke:#181818;stroke-width:0.5;" x1="885.5" x2="1544.5" y1="553" y2="553"/><text fill="#000000" font-family="sans-serif" font-size="14" lengthAdjust="spacing" textLength="136" x="890.5" y="569.9951">-String citizenCard</text><text fill="#000000" font-family="sans-serif" font-size="14" lengthAdjust="spacing" textLength="134" x="890.5" y="586.292">-String snsNumber</text><text fill="#000000" font-family="sans-serif" font-size="14" lengthAdjust="spacing" textLength="108" x="890.5" y="602.5889">-Date birthDay</text><text fill="#000000" font-family="sans-serif" font-size="14" lengthAdjust="spacing" textLength="94" x="890.5" y="618.8857">-Char gender</text><text fill="#000000" font-family="sans-serif" font-size="14" lengthAdjust="spacing" textLength="157" x="890.5" y="635.1826">-String phoneNumber</text><text fill="#000000" font-family="sans-serif" font-size="14" lengthAdjust="spacing" textLength="109" x="890.5" y="651.4795">-String address</text><line style="stroke:#181818;stroke-width:0.5;" x1="885.5" x2="1544.5" y1="658.7813" y2="658.7813"/><text fill="#000000" font-family="sans-serif" font-size="14" lengthAdjust="spacing" textLength="649" x="890.5" y="675.7764">+SNSUser(citizenCard, snsNumber, name, birthDay, gender, phoneNumber, email, address)</text><text fill="#000000" font-family="sans-serif" font-size="14" lengthAdjust="spacing" textLength="158" x="890.5" y="692.0732">+getUserHealthData()</text><text fill="#000000" font-family="sans-serif" font-size="14" lengthAdjust="spacing" textLength="87" x="890.5" y="708.3701">+getName()</text><text fill="#000000" font-family="sans-serif" font-size="14" lengthAdjust="spacing" textLength="74" x="890.5" y="724.667">+getAge()</text><text fill="#000000" font-family="sans-serif" font-size="14" lengthAdjust="spacing" textLength="148" x="890.5" y="740.9639">+getPhoneNumber()</text></g><!--MD5=[7421f545a0d8420c5bec41e74b387d9c]
class Employee--><g id="elem_Employee"><rect codeLine="48" fill="#F1F1F1" height="162.0781" id="Employee" rx="2.5" ry="2.5" style="stroke:#181818;stroke-width:0.5;" width="485" x="1139.5" y="1061"/><ellipse cx="1341.75" cy="1077" fill="#ADD1B2" rx="11" ry="11" style="stroke:#181818;stroke-width:1.0;"/><path d="M1344.0938,1072.6719 C1343.1563,1072.2344 1342.5625,1072.0938 1341.6875,1072.0938 C1339.0625,1072.0938 1337.0625,1074.1719 1337.0625,1076.8906 L1337.0625,1078.0156 C1337.0625,1080.5938 1339.1719,1082.4844 1342.0625,1082.4844 C1343.2813,1082.4844 1344.4375,1082.1875 1345.1875,1081.6406 C1345.7656,1081.2344 1346.0938,1080.7813 1346.0938,1080.3906 C1346.0938,1079.9375 1345.7031,1079.5469 1345.2344,1079.5469 C1345.0156,1079.5469 1344.8125,1079.625 1344.625,1079.8125 C1344.1719,1080.2969 1344.1719,1080.2969 1343.9844,1080.3906 C1343.5625,1080.6563 1342.875,1080.7813 1342.1094,1080.7813 C1340.0625,1080.7813 1338.7656,1079.6875 1338.7656,1077.9844 L1338.7656,1076.8906 C1338.7656,1075.1094 1340.0156,1073.7969 1341.75,1073.7969 C1342.3281,1073.7969 1342.9375,1073.9531 1343.4063,1074.2031 C1343.8906,1074.4844 1344.0625,1074.7031 1344.1563,1075.1094 C1344.2188,1075.5156 1344.25,1075.6406 1344.3906,1075.7656 C1344.5313,1075.9063 1344.7656,1076.0156 1344.9844,1076.0156 C1345.25,1076.0156 1345.5156,1075.875 1345.6875,1075.6563 C1345.7969,1075.5 1345.8281,1075.3125 1345.8281,1074.8906 L1345.8281,1073.4688 C1345.8281,1073.0313 1345.8125,1072.9063 1345.7188,1072.75 C1345.5625,1072.4844 1345.2813,1072.3438 1344.9844,1072.3438 C1344.6875,1072.3438 1344.4844,1072.4375 1344.2656,1072.75 L1344.0938,1072.6719 Z " fill="#000000"/><text fill="#000000" font-family="sans-serif" font-size="14" lengthAdjust="spacing" textLength="72" x="1362.25" y="1081.8467">Employee</text><line style="stroke:#181818;stroke-width:0.5;" x1="1140.5" x2="1623.5" y1="1093" y2="1093"/><text fill="#000000" font-family="sans-serif" font-size="14" lengthAdjust="spacing" textLength="72" x="1145.5" y="1109.9951">-id: String</text><text fill="#000000" font-family="sans-serif" font-size="14" lengthAdjust="spacing" textLength="99" x="1145.5" y="1126.292">-name: String</text><text fill="#000000" font-family="sans-serif" font-size="14" lengthAdjust="spacing" textLength="98" x="1145.5" y="1142.5889">-email: String</text><text fill="#000000" font-family="sans-serif" font-size="14" lengthAdjust="spacing" textLength="105" x="1145.5" y="1158.8857">-phone: String</text><text fill="#000000" font-family="sans-serif" font-size="14" lengthAdjust="spacing" textLength="174" x="1145.5" y="1175.1826">-citizenCardNumber: int</text><text fill="#000000" font-family="sans-serif" font-size="14" lengthAdjust="spacing" textLength="100" x="1145.5" y="1191.4795">-roleId: String</text><line style="stroke:#181818;stroke-width:0.5;" x1="1140.5" x2="1623.5" y1="1198.7813" y2="1198.7813"/><text fill="#000000" font-family="sans-serif" font-size="14" lengthAdjust="spacing" textLength="473" x="1145.5" y="1215.7764">+Employee(name,email,phone,address,citizenCardNumber,roleId)</text></g><!--MD5=[aaa7e27c4ec43917c82a021675d2c87a]
class WaitingRoom--><g id="elem_WaitingRoom"><rect codeLine="59" fill="#F1F1F1" height="80.5938" id="WaitingRoom" rx="2.5" ry="2.5" style="stroke:#181818;stroke-width:0.5;" width="176" x="673" y="594"/><ellipse cx="709.15" cy="610" fill="#ADD1B2" rx="11" ry="11" style="stroke:#181818;stroke-width:1.0;"/><path d="M711.4938,605.6719 C710.5563,605.2344 709.9625,605.0938 709.0875,605.0938 C706.4625,605.0938 704.4625,607.1719 704.4625,609.8906 L704.4625,611.0156 C704.4625,613.5938 706.5719,615.4844 709.4625,615.4844 C710.6813,615.4844 711.8375,615.1875 712.5875,614.6406 C713.1656,614.2344 713.4938,613.7813 713.4938,613.3906 C713.4938,612.9375 713.1031,612.5469 712.6344,612.5469 C712.4156,612.5469 712.2125,612.625 712.025,612.8125 C711.5719,613.2969 711.5719,613.2969 711.3844,613.3906 C710.9625,613.6563 710.275,613.7813 709.5094,613.7813 C707.4625,613.7813 706.1656,612.6875 706.1656,610.9844 L706.1656,609.8906 C706.1656,608.1094 707.4156,606.7969 709.15,606.7969 C709.7281,606.7969 710.3375,606.9531 710.8063,607.2031 C711.2906,607.4844 711.4625,607.7031 711.5563,608.1094 C711.6188,608.5156 711.65,608.6406 711.7906,608.7656 C711.9313,608.9063 712.1656,609.0156 712.3844,609.0156 C712.65,609.0156 712.9156,608.875 713.0875,608.6563 C713.1969,608.5 713.2281,608.3125 713.2281,607.8906 L713.2281,606.4688 C713.2281,606.0313 713.2125,605.9063 713.1188,605.75 C712.9625,605.4844 712.6813,605.3438 712.3844,605.3438 C712.0875,605.3438 711.8844,605.4375 711.6656,605.75 L711.4938,605.6719 Z " fill="#000000"/><text fill="#000000" font-family="sans-serif" font-size="14" lengthAdjust="spacing" textLength="97" x="727.85" y="614.8467">WaitingRoom</text><line style="stroke:#181818;stroke-width:0.5;" x1="674" x2="848" y1="626" y2="626"/><text fill="#000000" font-family="sans-serif" font-size="14" lengthAdjust="spacing" textLength="164" x="679" y="642.9951">-arrivals : List&lt;Arrival&gt;</text><line style="stroke:#181818;stroke-width:0.5;" x1="674" x2="848" y1="650.2969" y2="650.2969"/><text fill="#000000" font-family="sans-serif" font-size="14" lengthAdjust="spacing" textLength="137" x="679" y="667.292">+removeUser(user)</text></g><!--MD5=[f24502e7c9b1056c4d1f73c3d80dda4c]
class RecoveryRoom--><g id="elem_RecoveryRoom"><rect codeLine="65" fill="#F1F1F1" height="96.8906" id="RecoveryRoom" rx="2.5" ry="2.5" style="stroke:#181818;stroke-width:0.5;" width="412" x="692" y="1093.5"/><ellipse cx="839.25" cy="1109.5" fill="#ADD1B2" rx="11" ry="11" style="stroke:#181818;stroke-width:1.0;"/><path d="M841.5938,1105.1719 C840.6563,1104.7344 840.0625,1104.5938 839.1875,1104.5938 C836.5625,1104.5938 834.5625,1106.6719 834.5625,1109.3906 L834.5625,1110.5156 C834.5625,1113.0938 836.6719,1114.9844 839.5625,1114.9844 C840.7813,1114.9844 841.9375,1114.6875 842.6875,1114.1406 C843.2656,1113.7344 843.5938,1113.2813 843.5938,1112.8906 C843.5938,1112.4375 843.2031,1112.0469 842.7344,1112.0469 C842.5156,1112.0469 842.3125,1112.125 842.125,1112.3125 C841.6719,1112.7969 841.6719,1112.7969 841.4844,1112.8906 C841.0625,1113.1563 840.375,1113.2813 839.6094,1113.2813 C837.5625,1113.2813 836.2656,1112.1875 836.2656,1110.4844 L836.2656,1109.3906 C836.2656,1107.6094 837.5156,1106.2969 839.25,1106.2969 C839.8281,1106.2969 840.4375,1106.4531 840.9063,1106.7031 C841.3906,1106.9844 841.5625,1107.2031 841.6563,1107.6094 C841.7188,1108.0156 841.75,1108.1406 841.8906,1108.2656 C842.0313,1108.4063 842.2656,1108.5156 842.4844,1108.5156 C842.75,1108.5156 843.0156,1108.375 843.1875,1108.1563 C843.2969,1108 843.3281,1107.8125 843.3281,1107.3906 L843.3281,1105.9688 C843.3281,1105.5313 843.3125,1105.4063 843.2188,1105.25 C843.0625,1104.9844 842.7813,1104.8438 842.4844,1104.8438 C842.1875,1104.8438 841.9844,1104.9375 841.7656,1105.25 L841.5938,1105.1719 Z " fill="#000000"/><text fill="#000000" font-family="sans-serif" font-size="14" lengthAdjust="spacing" textLength="109" x="859.75" y="1114.3467">RecoveryRoom</text><line style="stroke:#181818;stroke-width:0.5;" x1="693" x2="1103" y1="1125.5" y2="1125.5"/><text fill="#000000" font-family="sans-serif" font-size="14" lengthAdjust="spacing" textLength="400" x="698" y="1142.4951">-VaccineAdministrations : List&lt;VaccineAdministration&gt;</text><line style="stroke:#181818;stroke-width:0.5;" x1="693" x2="1103" y1="1149.7969" y2="1149.7969"/><text fill="#000000" font-family="sans-serif" font-size="14" lengthAdjust="spacing" textLength="371" x="698" y="1166.792">+addVaccineAdministration(vaccineAdministration)</text><text fill="#000000" font-family="sans-serif" font-size="14" lengthAdjust="spacing" textLength="400" x="698" y="1183.0889">+removeVaccineAdministration(vaccineAdministration)</text></g><!--MD5=[35309a5dc68e1a9749f40371070ca056]
class CenterEvent--><g id="elem_CenterEvent"><rect codeLine="72" fill="#F1F1F1" height="96.8906" id="CenterEvent" rx="2.5" ry="2.5" style="stroke:#181818;stroke-width:0.5;" width="298" x="2419" y="1365"/><ellipse cx="2517.75" cy="1381" fill="#ADD1B2" rx="11" ry="11" style="stroke:#181818;stroke-width:1.0;"/><path d="M2520.0938,1376.6719 C2519.1563,1376.2344 2518.5625,1376.0938 2517.6875,1376.0938 C2515.0625,1376.0938 2513.0625,1378.1719 2513.0625,1380.8906 L2513.0625,1382.0156 C2513.0625,1384.5938 2515.1719,1386.4844 2518.0625,1386.4844 C2519.2813,1386.4844 2520.4375,1386.1875 2521.1875,1385.6406 C2521.7656,1385.2344 2522.0938,1384.7813 2522.0938,1384.3906 C2522.0938,1383.9375 2521.7031,1383.5469 2521.2344,1383.5469 C2521.0156,1383.5469 2520.8125,1383.625 2520.625,1383.8125 C2520.1719,1384.2969 2520.1719,1384.2969 2519.9844,1384.3906 C2519.5625,1384.6563 2518.875,1384.7813 2518.1094,1384.7813 C2516.0625,1384.7813 2514.7656,1383.6875 2514.7656,1381.9844 L2514.7656,1380.8906 C2514.7656,1379.1094 2516.0156,1377.7969 2517.75,1377.7969 C2518.3281,1377.7969 2518.9375,1377.9531 2519.4063,1378.2031 C2519.8906,1378.4844 2520.0625,1378.7031 2520.1563,1379.1094 C2520.2188,1379.5156 2520.25,1379.6406 2520.3906,1379.7656 C2520.5313,1379.9063 2520.7656,1380.0156 2520.9844,1380.0156 C2521.25,1380.0156 2521.5156,1379.875 2521.6875,1379.6563 C2521.7969,1379.5 2521.8281,1379.3125 2521.8281,1378.8906 L2521.8281,1377.4688 C2521.8281,1377.0313 2521.8125,1376.9063 2521.7188,1376.75 C2521.5625,1376.4844 2521.2813,1376.3438 2520.9844,1376.3438 C2520.6875,1376.3438 2520.4844,1376.4375 2520.2656,1376.75 L2520.0938,1376.6719 Z " fill="#000000"/><text fill="#000000" font-family="sans-serif" font-size="14" lengthAdjust="spacing" textLength="92" x="2538.25" y="1385.8467">CenterEvent</text><line style="stroke:#181818;stroke-width:0.5;" x1="2420" x2="2716" y1="1397" y2="1397"/><text fill="#000000" font-family="sans-serif" font-size="14" lengthAdjust="spacing" textLength="83" x="2425" y="1413.9951">-date: Date</text><text fill="#000000" font-family="sans-serif" font-size="14" lengthAdjust="spacing" textLength="221" x="2425" y="1430.292">-eventType: CenterEventType</text><line style="stroke:#181818;stroke-width:0.5;" x1="2420" x2="2716" y1="1437.5938" y2="1437.5938"/><text fill="#000000" font-family="sans-serif" font-size="14" lengthAdjust="spacing" textLength="286" x="2425" y="1454.5889">+CenterEvent(date,eventType,snsUser)</text></g><!--MD5=[19e445fc4d3b48519cbe33da05496394]
class Vaccine--><g id="elem_Vaccine"><rect codeLine="79" fill="#F1F1F1" height="96.8906" id="Vaccine" rx="2.5" ry="2.5" style="stroke:#181818;stroke-width:0.5;" width="347" x="70.5" y="1093.5"/><ellipse cx="211.75" cy="1109.5" fill="#ADD1B2" rx="11" ry="11" style="stroke:#181818;stroke-width:1.0;"/><path d="M214.0938,1105.1719 C213.1563,1104.7344 212.5625,1104.5938 211.6875,1104.5938 C209.0625,1104.5938 207.0625,1106.6719 207.0625,1109.3906 L207.0625,1110.5156 C207.0625,1113.0938 209.1719,1114.9844 212.0625,1114.9844 C213.2813,1114.9844 214.4375,1114.6875 215.1875,1114.1406 C215.7656,1113.7344 216.0938,1113.2813 216.0938,1112.8906 C216.0938,1112.4375 215.7031,1112.0469 215.2344,1112.0469 C215.0156,1112.0469 214.8125,1112.125 214.625,1112.3125 C214.1719,1112.7969 214.1719,1112.7969 213.9844,1112.8906 C213.5625,1113.1563 212.875,1113.2813 212.1094,1113.2813 C210.0625,1113.2813 208.7656,1112.1875 208.7656,1110.4844 L208.7656,1109.3906 C208.7656,1107.6094 210.0156,1106.2969 211.75,1106.2969 C212.3281,1106.2969 212.9375,1106.4531 213.4063,1106.7031 C213.8906,1106.9844 214.0625,1107.2031 214.1563,1107.6094 C214.2188,1108.0156 214.25,1108.1406 214.3906,1108.2656 C214.5313,1108.4063 214.7656,1108.5156 214.9844,1108.5156 C215.25,1108.5156 215.5156,1108.375 215.6875,1108.1563 C215.7969,1108 215.8281,1107.8125 215.8281,1107.3906 L215.8281,1105.9688 C215.8281,1105.5313 215.8125,1105.4063 215.7188,1105.25 C215.5625,1104.9844 215.2813,1104.8438 214.9844,1104.8438 C214.6875,1104.8438 214.4844,1104.9375 214.2656,1105.25 L214.0938,1105.1719 Z " fill="#000000"/><text fill="#000000" font-family="sans-serif" font-size="14" lengthAdjust="spacing" textLength="56" x="232.25" y="1114.3467">Vaccine</text><line style="stroke:#181818;stroke-width:0.5;" x1="71.5" x2="416.5" y1="1125.5" y2="1125.5"/><text fill="#000000" font-family="sans-serif" font-size="14" lengthAdjust="spacing" textLength="201" x="76.5" y="1142.4951">-vaccineType : VaccineType</text><line style="stroke:#181818;stroke-width:0.5;" x1="71.5" x2="416.5" y1="1149.7969" y2="1149.7969"/><text fill="#000000" font-family="sans-serif" font-size="14" lengthAdjust="spacing" textLength="138" x="76.5" y="1166.792">+getVaccineType()</text><text fill="#000000" font-family="sans-serif" font-size="14" lengthAdjust="spacing" textLength="335" x="76.5" y="1183.0889">+getDosageByDoseNumber(doseNumber, age)</text></g><!--MD5=[45c6380d22fb72521f5065026b277fb9]
class Slot--><g id="elem_Slot"><rect codeLine="86" fill="#F1F1F1" height="96.8906" id="Slot" rx="2.5" ry="2.5" style="stroke:#181818;stroke-width:0.5;" width="272" x="2730" y="1093.5"/><ellipse cx="2847.25" cy="1109.5" fill="#ADD1B2" rx="11" ry="11" style="stroke:#181818;stroke-width:1.0;"/><path d="M2849.5938,1105.1719 C2848.6563,1104.7344 2848.0625,1104.5938 2847.1875,1104.5938 C2844.5625,1104.5938 2842.5625,1106.6719 2842.5625,1109.3906 L2842.5625,1110.5156 C2842.5625,1113.0938 2844.6719,1114.9844 2847.5625,1114.9844 C2848.7813,1114.9844 2849.9375,1114.6875 2850.6875,1114.1406 C2851.2656,1113.7344 2851.5938,1113.2813 2851.5938,1112.8906 C2851.5938,1112.4375 2851.2031,1112.0469 2850.7344,1112.0469 C2850.5156,1112.0469 2850.3125,1112.125 2850.125,1112.3125 C2849.6719,1112.7969 2849.6719,1112.7969 2849.4844,1112.8906 C2849.0625,1113.1563 2848.375,1113.2813 2847.6094,1113.2813 C2845.5625,1113.2813 2844.2656,1112.1875 2844.2656,1110.4844 L2844.2656,1109.3906 C2844.2656,1107.6094 2845.5156,1106.2969 2847.25,1106.2969 C2847.8281,1106.2969 2848.4375,1106.4531 2848.9063,1106.7031 C2849.3906,1106.9844 2849.5625,1107.2031 2849.6563,1107.6094 C2849.7188,1108.0156 2849.75,1108.1406 2849.8906,1108.2656 C2850.0313,1108.4063 2850.2656,1108.5156 2850.4844,1108.5156 C2850.75,1108.5156 2851.0156,1108.375 2851.1875,1108.1563 C2851.2969,1108 2851.3281,1107.8125 2851.3281,1107.3906 L2851.3281,1105.9688 C2851.3281,1105.5313 2851.3125,1105.4063 2851.2188,1105.25 C2851.0625,1104.9844 2850.7813,1104.8438 2850.4844,1104.8438 C2850.1875,1104.8438 2849.9844,1104.9375 2849.7656,1105.25 L2849.5938,1105.1719 Z " fill="#000000"/><text fill="#000000" font-family="sans-serif" font-size="14" lengthAdjust="spacing" textLength="29" x="2867.75" y="1114.3467">Slot</text><line style="stroke:#181818;stroke-width:0.5;" x1="2731" x2="3001" y1="1125.5" y2="1125.5"/><text fill="#000000" font-family="sans-serif" font-size="14" lengthAdjust="spacing" textLength="95" x="2736" y="1142.4951">-duration: int</text><text fill="#000000" font-family="sans-serif" font-size="14" lengthAdjust="spacing" textLength="181" x="2736" y="1158.792">-maxVaccinesPerSlot: int</text><line style="stroke:#181818;stroke-width:0.5;" x1="2731" x2="3001" y1="1166.0938" y2="1166.0938"/><text fill="#000000" font-family="sans-serif" font-size="14" lengthAdjust="spacing" textLength="260" x="2736" y="1183.0889">+Slot(duration,maxVaccinesPerSlot)</text></g><!--MD5=[02e4b9b7573f1156f41e60aa5b4e25a4]
class Company--><g id="elem_Company"><rect codeLine="93" fill="#F1F1F1" height="178.375" id="Company" rx="2.5" ry="2.5" style="stroke:#181818;stroke-width:0.5;" width="224" x="339" y="545.5"/><ellipse cx="412.75" cy="561.5" fill="#ADD1B2" rx="11" ry="11" style="stroke:#181818;stroke-width:1.0;"/><path d="M415.0938,557.1719 C414.1563,556.7344 413.5625,556.5938 412.6875,556.5938 C410.0625,556.5938 408.0625,558.6719 408.0625,561.3906 L408.0625,562.5156 C408.0625,565.0938 410.1719,566.9844 413.0625,566.9844 C414.2813,566.9844 415.4375,566.6875 416.1875,566.1406 C416.7656,565.7344 417.0938,565.2813 417.0938,564.8906 C417.0938,564.4375 416.7031,564.0469 416.2344,564.0469 C416.0156,564.0469 415.8125,564.125 415.625,564.3125 C415.1719,564.7969 415.1719,564.7969 414.9844,564.8906 C414.5625,565.1563 413.875,565.2813 413.1094,565.2813 C411.0625,565.2813 409.7656,564.1875 409.7656,562.4844 L409.7656,561.3906 C409.7656,559.6094 411.0156,558.2969 412.75,558.2969 C413.3281,558.2969 413.9375,558.4531 414.4063,558.7031 C414.8906,558.9844 415.0625,559.2031 415.1563,559.6094 C415.2188,560.0156 415.25,560.1406 415.3906,560.2656 C415.5313,560.4063 415.7656,560.5156 415.9844,560.5156 C416.25,560.5156 416.5156,560.375 416.6875,560.1563 C416.7969,560 416.8281,559.8125 416.8281,559.3906 L416.8281,557.9688 C416.8281,557.5313 416.8125,557.4063 416.7188,557.25 C416.5625,556.9844 416.2813,556.8438 415.9844,556.8438 C415.6875,556.8438 415.4844,556.9375 415.2656,557.25 L415.0938,557.1719 Z " fill="#000000"/><text fill="#000000" font-family="sans-serif" font-size="14" lengthAdjust="spacing" textLength="68" x="433.25" y="566.3467">Company</text><line style="stroke:#181818;stroke-width:0.5;" x1="340" x2="562" y1="577.5" y2="577.5"/><text fill="#000000" font-family="sans-serif" font-size="14" lengthAdjust="spacing" textLength="143" x="345" y="594.4951">-designation: String</text><text fill="#000000" font-family="sans-serif" font-size="14" lengthAdjust="spacing" textLength="181" x="345" y="610.792">-authFacade: AuthFacade</text><text fill="#000000" font-family="sans-serif" font-size="14" lengthAdjust="spacing" textLength="205" x="345" y="627.0889">-vaccineStore: VaccineStore</text><text fill="#000000" font-family="sans-serif" font-size="14" lengthAdjust="spacing" textLength="212" x="345" y="643.3857">-snsUserStore : SNSUserStore</text><line style="stroke:#181818;stroke-width:0.5;" x1="340" x2="562" y1="650.6875" y2="650.6875"/><text fill="#000000" font-family="sans-serif" font-size="14" lengthAdjust="spacing" textLength="173" x="345" y="667.6826">+Company(designation)</text><text fill="#000000" font-family="sans-serif" font-size="14" lengthAdjust="spacing" textLength="4" x="345" y="683.9795"> </text><text fill="#000000" font-family="sans-serif" font-size="14" lengthAdjust="spacing" textLength="142" x="345" y="700.2764">+getVaccineStore()</text><text fill="#000000" font-family="sans-serif" font-size="14" lengthAdjust="spacing" textLength="142" x="345" y="716.5732">+getSnsUserStore()</text></g><!--MD5=[c508b5b6bbe276ff5e2700b6641f837f]
class Appointment--><g id="elem_Appointment"><rect codeLine="105" fill="#F1F1F1" height="113.1875" id="Appointment" rx="2.5" ry="2.5" style="stroke:#181818;stroke-width:0.5;" width="204" x="453" y="1085.5"/><ellipse cx="501.75" cy="1101.5" fill="#ADD1B2" rx="11" ry="11" style="stroke:#181818;stroke-width:1.0;"/><path d="M504.0938,1097.1719 C503.1563,1096.7344 502.5625,1096.5938 501.6875,1096.5938 C499.0625,1096.5938 497.0625,1098.6719 497.0625,1101.3906 L497.0625,1102.5156 C497.0625,1105.0938 499.1719,1106.9844 502.0625,1106.9844 C503.2813,1106.9844 504.4375,1106.6875 505.1875,1106.1406 C505.7656,1105.7344 506.0938,1105.2813 506.0938,1104.8906 C506.0938,1104.4375 505.7031,1104.0469 505.2344,1104.0469 C505.0156,1104.0469 504.8125,1104.125 504.625,1104.3125 C504.1719,1104.7969 504.1719,1104.7969 503.9844,1104.8906 C503.5625,1105.1563 502.875,1105.2813 502.1094,1105.2813 C500.0625,1105.2813 498.7656,1104.1875 498.7656,1102.4844 L498.7656,1101.3906 C498.7656,1099.6094 500.0156,1098.2969 501.75,1098.2969 C502.3281,1098.2969 502.9375,1098.4531 503.4063,1098.7031 C503.8906,1098.9844 504.0625,1099.2031 504.1563,1099.6094 C504.2188,1100.0156 504.25,1100.1406 504.3906,1100.2656 C504.5313,1100.4063 504.7656,1100.5156 504.9844,1100.5156 C505.25,1100.5156 505.5156,1100.375 505.6875,1100.1563 C505.7969,1100 505.8281,1099.8125 505.8281,1099.3906 L505.8281,1097.9688 C505.8281,1097.5313 505.8125,1097.4063 505.7188,1097.25 C505.5625,1096.9844 505.2813,1096.8438 504.9844,1096.8438 C504.6875,1096.8438 504.4844,1096.9375 504.2656,1097.25 L504.0938,1097.1719 Z " fill="#000000"/><text fill="#000000" font-family="sans-serif" font-size="14" lengthAdjust="spacing" textLength="98" x="522.25" y="1106.3467">Appointment</text><line style="stroke:#181818;stroke-width:0.5;" x1="454" x2="656" y1="1117.5" y2="1117.5"/><text fill="#000000" font-family="sans-serif" font-size="14" lengthAdjust="spacing" textLength="177" x="459" y="1134.4951">-Date appointmentTime</text><text fill="#000000" font-family="sans-serif" font-size="14" lengthAdjust="spacing" textLength="123" x="459" y="1150.792">-SNSUser snsUser</text><text fill="#000000" font-family="sans-serif" font-size="14" lengthAdjust="spacing" textLength="192" x="459" y="1167.0889">-VaccineType vaccineType</text><line style="stroke:#181818;stroke-width:0.5;" x1="454" x2="656" y1="1174.3906" y2="1174.3906"/><text fill="#000000" font-family="sans-serif" font-size="14" lengthAdjust="spacing" textLength="138" x="459" y="1191.3857">+getVaccineType()</text></g><!--MD5=[107cfa23aa516ff83d0cf17a6f9fe7ba]
class VaccineAdministration--><g id="elem_VaccineAdministration"><rect codeLine="113" fill="#F1F1F1" height="227.2656" id="VaccineAdministration" rx="2.5" ry="2.5" style="stroke:#181818;stroke-width:0.5;" width="700" x="698" y="1300"/><ellipse cx="962.25" cy="1316" fill="#ADD1B2" rx="11" ry="11" style="stroke:#181818;stroke-width:1.0;"/><path d="M964.5938,1311.6719 C963.6563,1311.2344 963.0625,1311.0938 962.1875,1311.0938 C959.5625,1311.0938 957.5625,1313.1719 957.5625,1315.8906 L957.5625,1317.0156 C957.5625,1319.5938 959.6719,1321.4844 962.5625,1321.4844 C963.7813,1321.4844 964.9375,1321.1875 965.6875,1320.6406 C966.2656,1320.2344 966.5938,1319.7813 966.5938,1319.3906 C966.5938,1318.9375 966.2031,1318.5469 965.7344,1318.5469 C965.5156,1318.5469 965.3125,1318.625 965.125,1318.8125 C964.6719,1319.2969 964.6719,1319.2969 964.4844,1319.3906 C964.0625,1319.6563 963.375,1319.7813 962.6094,1319.7813 C960.5625,1319.7813 959.2656,1318.6875 959.2656,1316.9844 L959.2656,1315.8906 C959.2656,1314.1094 960.5156,1312.7969 962.25,1312.7969 C962.8281,1312.7969 963.4375,1312.9531 963.9063,1313.2031 C964.3906,1313.4844 964.5625,1313.7031 964.6563,1314.1094 C964.7188,1314.5156 964.75,1314.6406 964.8906,1314.7656 C965.0313,1314.9063 965.2656,1315.0156 965.4844,1315.0156 C965.75,1315.0156 966.0156,1314.875 966.1875,1314.6563 C966.2969,1314.5 966.3281,1314.3125 966.3281,1313.8906 L966.3281,1312.4688 C966.3281,1312.0313 966.3125,1311.9063 966.2188,1311.75 C966.0625,1311.4844 965.7813,1311.3438 965.4844,1311.3438 C965.1875,1311.3438 964.9844,1311.4375 964.7656,1311.75 L964.5938,1311.6719 Z " fill="#000000"/><text fill="#000000" font-family="sans-serif" font-size="14" lengthAdjust="spacing" textLength="163" x="982.75" y="1320.8467">VaccineAdministration</text><line style="stroke:#181818;stroke-width:0.5;" x1="699" x2="1397" y1="1332" y2="1332"/><text fill="#000000" font-family="sans-serif" font-size="14" lengthAdjust="spacing" textLength="123" x="704" y="1348.9951">-SNSUser snsUser</text><text fill="#000000" font-family="sans-serif" font-size="14" lengthAdjust="spacing" textLength="120" x="704" y="1365.292">-Vaccine vaccine</text><text fill="#000000" font-family="sans-serif" font-size="14" lengthAdjust="spacing" textLength="131" x="704" y="1381.5889">-String lotNumber</text><text fill="#000000" font-family="sans-serif" font-size="14" lengthAdjust="spacing" textLength="121" x="704" y="1397.8857">-int doseNumber</text><text fill="#000000" font-family="sans-serif" font-size="14" lengthAdjust="spacing" textLength="276" x="704" y="1414.1826">-VaccinationCenter vaccinationCenter</text><text fill="#000000" font-family="sans-serif" font-size="14" lengthAdjust="spacing" textLength="185" x="704" y="1430.4795">-Date administrationDate</text><line style="stroke:#181818;stroke-width:1.0;" x1="699" x2="1397" y1="1437.7813" y2="1437.7813"/><text fill="#000000" font-family="sans-serif" font-size="14" lengthAdjust="spacing" textLength="688" x="704" y="1454.7764">+VaccineAdministration(snsUser, vaccine, lotNumber, doseNumber, center, administrationDate)</text><text fill="#000000" font-family="sans-serif" font-size="14" lengthAdjust="spacing" textLength="102" x="704" y="1471.0732">+getSnsUser()</text><text fill="#000000" font-family="sans-serif" font-size="14" lengthAdjust="spacing" textLength="102" x="704" y="1487.3701">+getVaccine()</text><text fill="#000000" font-family="sans-serif" font-size="14" lengthAdjust="spacing" textLength="139" x="704" y="1503.667">+getDoseNumber()</text><text fill="#000000" font-family="sans-serif" font-size="14" lengthAdjust="spacing" textLength="180" x="704" y="1519.9639">+getVaccinationCenter()</text></g><!--MD5=[950bab46f39ba9ae59885963abb53c18]
class Arrival--><g id="elem_Arrival"><rect codeLine="128" fill="#F1F1F1" height="80.5938" id="Arrival" rx="2.5" ry="2.5" style="stroke:#181818;stroke-width:0.5;" width="137" x="1018.5" y="857.5"/><ellipse cx="1060.05" cy="873.5" fill="#ADD1B2" rx="11" ry="11" style="stroke:#181818;stroke-width:1.0;"/><path d="M1062.3938,869.1719 C1061.4563,868.7344 1060.8625,868.5938 1059.9875,868.5938 C1057.3625,868.5938 1055.3625,870.6719 1055.3625,873.3906 L1055.3625,874.5156 C1055.3625,877.0938 1057.4719,878.9844 1060.3625,878.9844 C1061.5813,878.9844 1062.7375,878.6875 1063.4875,878.1406 C1064.0656,877.7344 1064.3938,877.2813 1064.3938,876.8906 C1064.3938,876.4375 1064.0031,876.0469 1063.5344,876.0469 C1063.3156,876.0469 1063.1125,876.125 1062.925,876.3125 C1062.4719,876.7969 1062.4719,876.7969 1062.2844,876.8906 C1061.8625,877.1563 1061.175,877.2813 1060.4094,877.2813 C1058.3625,877.2813 1057.0656,876.1875 1057.0656,874.4844 L1057.0656,873.3906 C1057.0656,871.6094 1058.3156,870.2969 1060.05,870.2969 C1060.6281,870.2969 1061.2375,870.4531 1061.7063,870.7031 C1062.1906,870.9844 1062.3625,871.2031 1062.4563,871.6094 C1062.5188,872.0156 1062.55,872.1406 1062.6906,872.2656 C1062.8313,872.4063 1063.0656,872.5156 1063.2844,872.5156 C1063.55,872.5156 1063.8156,872.375 1063.9875,872.1563 C1064.0969,872 1064.1281,871.8125 1064.1281,871.3906 L1064.1281,869.9688 C1064.1281,869.5313 1064.1125,869.4063 1064.0188,869.25 C1063.8625,868.9844 1063.5813,868.8438 1063.2844,868.8438 C1062.9875,868.8438 1062.7844,868.9375 1062.5656,869.25 L1062.3938,869.1719 Z " fill="#000000"/><text fill="#000000" font-family="sans-serif" font-size="14" lengthAdjust="spacing" textLength="46" x="1079.95" y="878.3467">Arrival</text><line style="stroke:#181818;stroke-width:0.5;" x1="1019.5" x2="1154.5" y1="889.5" y2="889.5"/><text fill="#000000" font-family="sans-serif" font-size="14" lengthAdjust="spacing" textLength="125" x="1024.5" y="906.4951">-Date arrivalTime</text><text fill="#000000" font-family="sans-serif" font-size="14" lengthAdjust="spacing" textLength="74" x="1024.5" y="922.792">-int status</text><line style="stroke:#181818;stroke-width:0.5;" x1="1019.5" x2="1154.5" y1="930.0938" y2="930.0938"/></g><!--MD5=[29ca87e3f6f297962d71688dc1212604]
class CenterEventType--><g id="elem_CenterEventType"><rect codeLine="134" fill="#F1F1F1" height="96.8906" id="CenterEventType" rx="2.5" ry="2.5" style="stroke:#181818;stroke-width:0.5;" width="160" x="2488" y="1625"/><ellipse cx="2503" cy="1641" fill="#EB937F" rx="11" ry="11" style="stroke:#181818;stroke-width:1.0;"/><path d="M2501.7969,1641.875 L2503.25,1641.875 L2503.25,1641.9844 C2503.25,1642.3906 2503.2813,1642.5469 2503.3594,1642.7031 C2503.5156,1642.9531 2503.7969,1643.1094 2504.0938,1643.1094 C2504.3438,1643.1094 2504.6094,1642.9688 2504.7656,1642.75 C2504.8906,1642.5938 2504.9219,1642.4375 2504.9219,1641.9844 L2504.9219,1640.0625 C2504.9219,1639.9063 2504.9219,1639.8594 2504.9063,1639.7031 C2504.8438,1639.2344 2504.5313,1638.9219 2504.0781,1638.9219 C2503.8281,1638.9219 2503.5625,1639.0625 2503.3906,1639.2813 C2503.2813,1639.4531 2503.25,1639.6094 2503.25,1640.0625 L2503.25,1640.1875 L2501.7969,1640.1875 L2501.7969,1637.7813 L2505.7813,1637.7813 L2505.7813,1638.6406 C2505.7813,1639.0469 2505.8125,1639.2188 2505.8906,1639.375 C2506.0625,1639.625 2506.3438,1639.7813 2506.625,1639.7813 C2506.8906,1639.7813 2507.1563,1639.6406 2507.3281,1639.4219 C2507.4375,1639.25 2507.4688,1639.1094 2507.4688,1638.6406 L2507.4688,1636.0938 L2499.8438,1636.0938 C2499.4063,1636.0938 2499.2813,1636.1094 2499.125,1636.2031 C2498.875,1636.3594 2498.7188,1636.6563 2498.7188,1636.9375 C2498.7188,1637.2188 2498.8594,1637.4688 2499.0781,1637.6406 C2499.2344,1637.75 2499.4219,1637.7813 2499.8438,1637.7813 L2500.0938,1637.7813 L2500.0938,1644.2969 L2499.8438,1644.2969 C2499.4375,1644.2969 2499.2813,1644.3125 2499.125,1644.4219 C2498.875,1644.5938 2498.7188,1644.8594 2498.7188,1645.1563 C2498.7188,1645.4219 2498.8594,1645.6719 2499.0781,1645.8281 C2499.2188,1645.9531 2499.4531,1646 2499.8438,1646 L2507.8438,1646 L2507.8438,1643.4219 C2507.8438,1642.9844 2507.8125,1642.8438 2507.7344,1642.6875 C2507.5625,1642.4375 2507.2813,1642.2813 2507,1642.2813 C2506.7344,1642.2813 2506.4688,1642.3906 2506.2969,1642.6406 C2506.1875,1642.7969 2506.1563,1642.9375 2506.1563,1643.4219 L2506.1563,1644.2969 L2501.7969,1644.2969 L2501.7969,1641.875 Z " fill="#000000"/><text fill="#000000" font-family="sans-serif" font-size="14" lengthAdjust="spacing" textLength="128" x="2517" y="1645.8467">CenterEventType</text><line style="stroke:#181818;stroke-width:0.5;" x1="2489" x2="2647" y1="1657" y2="1657"/><text fill="#000000" font-family="sans-serif" font-size="14" lengthAdjust="spacing" textLength="62" x="2494" y="1673.9951">ARRIVAL</text><text fill="#000000" font-family="sans-serif" font-size="14" lengthAdjust="spacing" textLength="93" x="2494" y="1690.292">VACCINATED</text><text fill="#000000" font-family="sans-serif" font-size="14" lengthAdjust="spacing" textLength="86" x="2494" y="1706.5889">DEPARTURE</text><line style="stroke:#181818;stroke-width:0.5;" x1="2489" x2="2647" y1="1713.8906" y2="1713.8906"/></g><!--MD5=[16e898dea44373438d7a6991ca77efa0]
class VaccineStore--><g id="elem_VaccineStore"><rect codeLine="143" fill="#F1F1F1" height="80.5938" id="VaccineStore" rx="2.5" ry="2.5" style="stroke:#181818;stroke-width:0.5;" width="541" x="94.5" y="857.5"/><ellipse cx="312.75" cy="873.5" fill="#ADD1B2" rx="11" ry="11" style="stroke:#181818;stroke-width:1.0;"/><path d="M315.0938,869.1719 C314.1563,868.7344 313.5625,868.5938 312.6875,868.5938 C310.0625,868.5938 308.0625,870.6719 308.0625,873.3906 L308.0625,874.5156 C308.0625,877.0938 310.1719,878.9844 313.0625,878.9844 C314.2813,878.9844 315.4375,878.6875 316.1875,878.1406 C316.7656,877.7344 317.0938,877.2813 317.0938,876.8906 C317.0938,876.4375 316.7031,876.0469 316.2344,876.0469 C316.0156,876.0469 315.8125,876.125 315.625,876.3125 C315.1719,876.7969 315.1719,876.7969 314.9844,876.8906 C314.5625,877.1563 313.875,877.2813 313.1094,877.2813 C311.0625,877.2813 309.7656,876.1875 309.7656,874.4844 L309.7656,873.3906 C309.7656,871.6094 311.0156,870.2969 312.75,870.2969 C313.3281,870.2969 313.9375,870.4531 314.4063,870.7031 C314.8906,870.9844 315.0625,871.2031 315.1563,871.6094 C315.2188,872.0156 315.25,872.1406 315.3906,872.2656 C315.5313,872.4063 315.7656,872.5156 315.9844,872.5156 C316.25,872.5156 316.5156,872.375 316.6875,872.1563 C316.7969,872 316.8281,871.8125 316.8281,871.3906 L316.8281,869.9688 C316.8281,869.5313 316.8125,869.4063 316.7188,869.25 C316.5625,868.9844 316.2813,868.8438 315.9844,868.8438 C315.6875,868.8438 315.4844,868.9375 315.2656,869.25 L315.0938,869.1719 Z " fill="#000000"/><text fill="#000000" font-family="sans-serif" font-size="14" lengthAdjust="spacing" textLength="96" x="333.25" y="878.3467">VaccineStore</text><line style="stroke:#181818;stroke-width:0.5;" x1="95.5" x2="634.5" y1="889.5" y2="889.5"/><line style="stroke:#181818;stroke-width:0.5;" x1="95.5" x2="634.5" y1="897.5" y2="897.5"/><text fill="#000000" font-family="sans-serif" font-size="14" lengthAdjust="spacing" textLength="529" x="100.5" y="914.4951">+getVaccinesByVaccineTypeWithAdminProcessForAge(vaccineType, age)</text><text fill="#000000" font-family="sans-serif" font-size="14" lengthAdjust="spacing" textLength="149" x="100.5" y="930.792">+findVaccineById(id)</text></g><!--MD5=[a5ad3856b0c65e07b10297b4477b22bb]
class SNSUserStore--><g id="elem_SNSUserStore"><rect codeLine="148" fill="#F1F1F1" height="64.2969" id="SNSUserStore" rx="2.5" ry="2.5" style="stroke:#181818;stroke-width:0.5;" width="275" x="670.5" y="866"/><ellipse cx="754.25" cy="882" fill="#ADD1B2" rx="11" ry="11" style="stroke:#181818;stroke-width:1.0;"/><path d="M756.5938,877.6719 C755.6563,877.2344 755.0625,877.0938 754.1875,877.0938 C751.5625,877.0938 749.5625,879.1719 749.5625,881.8906 L749.5625,883.0156 C749.5625,885.5938 751.6719,887.4844 754.5625,887.4844 C755.7813,887.4844 756.9375,887.1875 757.6875,886.6406 C758.2656,886.2344 758.5938,885.7813 758.5938,885.3906 C758.5938,884.9375 758.2031,884.5469 757.7344,884.5469 C757.5156,884.5469 757.3125,884.625 757.125,884.8125 C756.6719,885.2969 756.6719,885.2969 756.4844,885.3906 C756.0625,885.6563 755.375,885.7813 754.6094,885.7813 C752.5625,885.7813 751.2656,884.6875 751.2656,882.9844 L751.2656,881.8906 C751.2656,880.1094 752.5156,878.7969 754.25,878.7969 C754.8281,878.7969 755.4375,878.9531 755.9063,879.2031 C756.3906,879.4844 756.5625,879.7031 756.6563,880.1094 C756.7188,880.5156 756.75,880.6406 756.8906,880.7656 C757.0313,880.9063 757.2656,881.0156 757.4844,881.0156 C757.75,881.0156 758.0156,880.875 758.1875,880.6563 C758.2969,880.5 758.3281,880.3125 758.3281,879.8906 L758.3281,878.4688 C758.3281,878.0313 758.3125,877.9063 758.2188,877.75 C758.0625,877.4844 757.7813,877.3438 757.4844,877.3438 C757.1875,877.3438 756.9844,877.4375 756.7656,877.75 L756.5938,877.6719 Z " fill="#000000"/><text fill="#000000" font-family="sans-serif" font-size="14" lengthAdjust="spacing" textLength="99" x="774.75" y="886.8467">SNSUserStore</text><line style="stroke:#181818;stroke-width:0.5;" x1="671.5" x2="944.5" y1="898" y2="898"/><line style="stroke:#181818;stroke-width:0.5;" x1="671.5" x2="944.5" y1="906" y2="906"/><text fill="#000000" font-family="sans-serif" font-size="14" lengthAdjust="spacing" textLength="263" x="676.5" y="922.9951">+findSNSUserByNumber(snsNumber)</text></g><!--MD5=[20d765a59dde7f6830bc6bfb5c6ca029]
class CenterEventList--><g id="elem_CenterEventList"><rect codeLine="154" fill="#F1F1F1" height="129.4844" id="CenterEventList" rx="2.5" ry="2.5" style="stroke:#181818;stroke-width:0.5;" width="253" x="2441.5" y="1077.5"/><ellipse cx="2504.75" cy="1093.5" fill="#ADD1B2" rx="11" ry="11" style="stroke:#181818;stroke-width:1.0;"/><path d="M2507.0938,1089.1719 C2506.1563,1088.7344 2505.5625,1088.5938 2504.6875,1088.5938 C2502.0625,1088.5938 2500.0625,1090.6719 2500.0625,1093.3906 L2500.0625,1094.5156 C2500.0625,1097.0938 2502.1719,1098.9844 2505.0625,1098.9844 C2506.2813,1098.9844 2507.4375,1098.6875 2508.1875,1098.1406 C2508.7656,1097.7344 2509.0938,1097.2813 2509.0938,1096.8906 C2509.0938,1096.4375 2508.7031,1096.0469 2508.2344,1096.0469 C2508.0156,1096.0469 2507.8125,1096.125 2507.625,1096.3125 C2507.1719,1096.7969 2507.1719,1096.7969 2506.9844,1096.8906 C2506.5625,1097.1563 2505.875,1097.2813 2505.1094,1097.2813 C2503.0625,1097.2813 2501.7656,1096.1875 2501.7656,1094.4844 L2501.7656,1093.3906 C2501.7656,1091.6094 2503.0156,1090.2969 2504.75,1090.2969 C2505.3281,1090.2969 2505.9375,1090.4531 2506.4063,1090.7031 C2506.8906,1090.9844 2507.0625,1091.2031 2507.1563,1091.6094 C2507.2188,1092.0156 2507.25,1092.1406 2507.3906,1092.2656 C2507.5313,1092.4063 2507.7656,1092.5156 2507.9844,1092.5156 C2508.25,1092.5156 2508.5156,1092.375 2508.6875,1092.1563 C2508.7969,1092 2508.8281,1091.8125 2508.8281,1091.3906 L2508.8281,1089.9688 C2508.8281,1089.5313 2508.8125,1089.4063 2508.7188,1089.25 C2508.5625,1088.9844 2508.2813,1088.8438 2507.9844,1088.8438 C2507.6875,1088.8438 2507.4844,1088.9375 2507.2656,1089.25 L2507.0938,1089.1719 Z " fill="#000000"/><text fill="#000000" font-family="sans-serif" font-size="14" lengthAdjust="spacing" textLength="118" x="2525.25" y="1098.3467">CenterEventList</text><line style="stroke:#181818;stroke-width:0.5;" x1="2442.5" x2="2693.5" y1="1109.5" y2="1109.5"/><text fill="#000000" font-family="sans-serif" font-size="14" lengthAdjust="spacing" textLength="204" x="2447.5" y="1126.4951">-events: List&lt;CenterEvent&gt;</text><line style="stroke:#181818;stroke-width:0.5;" x1="2442.5" x2="2693.5" y1="1133.7969" y2="1133.7969"/><text fill="#000000" font-family="sans-serif" font-size="14" lengthAdjust="spacing" textLength="241" x="2447.5" y="1150.792">+create(date,eventType,snsUser)</text><text fill="#000000" font-family="sans-serif" font-size="14" lengthAdjust="spacing" textLength="95" x="2447.5" y="1167.0889">+save(event)</text><text fill="#000000" font-family="sans-serif" font-size="14" lengthAdjust="spacing" textLength="4" x="2447.5" y="1183.3857"> </text><text fill="#000000" font-family="sans-serif" font-size="14" lengthAdjust="spacing" textLength="139" x="2447.5" y="1199.6826">+CenterEventList()</text></g><!--MD5=[88abd14ffd0b0d78a5674339a98bc588]
class VaccineAdministrationList--><g id="elem_VaccineAdministrationList"><rect codeLine="163" fill="#F1F1F1" height="145.7813" id="VaccineAdministrationList" rx="2.5" ry="2.5" style="stroke:#181818;stroke-width:0.5;" width="747" x="1659.5" y="1069"/><ellipse cx="1934.25" cy="1085" fill="#ADD1B2" rx="11" ry="11" style="stroke:#181818;stroke-width:1.0;"/><path d="M1936.5938,1080.6719 C1935.6563,1080.2344 1935.0625,1080.0938 1934.1875,1080.0938 C1931.5625,1080.0938 1929.5625,1082.1719 1929.5625,1084.8906 L1929.5625,1086.0156 C1929.5625,1088.5938 1931.6719,1090.4844 1934.5625,1090.4844 C1935.7813,1090.4844 1936.9375,1090.1875 1937.6875,1089.6406 C1938.2656,1089.2344 1938.5938,1088.7813 1938.5938,1088.3906 C1938.5938,1087.9375 1938.2031,1087.5469 1937.7344,1087.5469 C1937.5156,1087.5469 1937.3125,1087.625 1937.125,1087.8125 C1936.6719,1088.2969 1936.6719,1088.2969 1936.4844,1088.3906 C1936.0625,1088.6563 1935.375,1088.7813 1934.6094,1088.7813 C1932.5625,1088.7813 1931.2656,1087.6875 1931.2656,1085.9844 L1931.2656,1084.8906 C1931.2656,1083.1094 1932.5156,1081.7969 1934.25,1081.7969 C1934.8281,1081.7969 1935.4375,1081.9531 1935.9063,1082.2031 C1936.3906,1082.4844 1936.5625,1082.7031 1936.6563,1083.1094 C1936.7188,1083.5156 1936.75,1083.6406 1936.8906,1083.7656 C1937.0313,1083.9063 1937.2656,1084.0156 1937.4844,1084.0156 C1937.75,1084.0156 1938.0156,1083.875 1938.1875,1083.6563 C1938.2969,1083.5 1938.3281,1083.3125 1938.3281,1082.8906 L1938.3281,1081.4688 C1938.3281,1081.0313 1938.3125,1080.9063 1938.2188,1080.75 C1938.0625,1080.4844 1937.7813,1080.3438 1937.4844,1080.3438 C1937.1875,1080.3438 1936.9844,1080.4375 1936.7656,1080.75 L1936.5938,1080.6719 Z " fill="#000000"/><text fill="#000000" font-family="sans-serif" font-size="14" lengthAdjust="spacing" textLength="189" x="1954.75" y="1089.8467">VaccineAdministrationList</text><line style="stroke:#181818;stroke-width:0.5;" x1="1660.5" x2="2405.5" y1="1101" y2="1101"/><text fill="#000000" font-family="sans-serif" font-size="14" lengthAdjust="spacing" textLength="398" x="1665.5" y="1117.9951">-vaccineAdministrations : List&lt;VaccineAdministration&gt;</text><line style="stroke:#181818;stroke-width:0.5;" x1="1660.5" x2="2405.5" y1="1125.2969" y2="1125.2969"/><text fill="#000000" font-family="sans-serif" font-size="14" lengthAdjust="spacing" textLength="376" x="1665.5" y="1142.292">+getLastTakenVaccineByVaccineType(vaccineType)</text><text fill="#000000" font-family="sans-serif" font-size="14" lengthAdjust="spacing" textLength="300" x="1665.5" y="1158.5889">+getNextDoseNumberOfVaccine(vaccine)</text><text fill="#000000" font-family="sans-serif" font-size="14" lengthAdjust="spacing" textLength="735" x="1665.5" y="1174.8857">+createVaccineAdministration(snsUser, vaccine, lotNumber, doseNumber, center, administrationDate)</text><text fill="#000000" font-family="sans-serif" font-size="14" lengthAdjust="spacing" textLength="402" x="1665.5" y="1191.1826">+validateVaccineAdministration(vaccineAdministration)</text><text fill="#000000" font-family="sans-serif" font-size="14" lengthAdjust="spacing" textLength="377" x="1665.5" y="1207.4795">+saveVaccineAdministration(vaccineAdministration)</text></g><!--MD5=[a660dec995c67fe27668c9294a4da967]
class RegisterVaccineAdministrationController--><g id="elem_RegisterVaccineAdministrationController"><rect codeLine="177" fill="#F1F1F1" height="178.375" id="RegisterVaccineAdministrationController" rx="2.5" ry="2.5" style="stroke:#181818;stroke-width:0.5;" width="587" x="157.5" y="216"/><ellipse cx="298.25" cy="232" fill="#ADD1B2" rx="11" ry="11" style="stroke:#181818;stroke-width:1.0;"/><path d="M300.5938,227.6719 C299.6563,227.2344 299.0625,227.0938 298.1875,227.0938 C295.5625,227.0938 293.5625,229.1719 293.5625,231.8906 L293.5625,233.0156 C293.5625,235.5938 295.6719,237.4844 298.5625,237.4844 C299.7813,237.4844 300.9375,237.1875 301.6875,236.6406 C302.2656,236.2344 302.5938,235.7813 302.5938,235.3906 C302.5938,234.9375 302.2031,234.5469 301.7344,234.5469 C301.5156,234.5469 301.3125,234.625 301.125,234.8125 C300.6719,235.2969 300.6719,235.2969 300.4844,235.3906 C300.0625,235.6563 299.375,235.7813 298.6094,235.7813 C296.5625,235.7813 295.2656,234.6875 295.2656,232.9844 L295.2656,231.8906 C295.2656,230.1094 296.5156,228.7969 298.25,228.7969 C298.8281,228.7969 299.4375,228.9531 299.9063,229.2031 C300.3906,229.4844 300.5625,229.7031 300.6563,230.1094 C300.7188,230.5156 300.75,230.6406 300.8906,230.7656 C301.0313,230.9063 301.2656,231.0156 301.4844,231.0156 C301.75,231.0156 302.0156,230.875 302.1875,230.6563 C302.2969,230.5 302.3281,230.3125 302.3281,229.8906 L302.3281,228.4688 C302.3281,228.0313 302.3125,227.9063 302.2188,227.75 C302.0625,227.4844 301.7813,227.3438 301.4844,227.3438 C301.1875,227.3438 300.9844,227.4375 300.7656,227.75 L300.5938,227.6719 Z " fill="#000000"/><text fill="#000000" font-family="sans-serif" font-size="14" lengthAdjust="spacing" textLength="297" x="318.75" y="236.8467">RegisterVaccineAdministrationController</text><line style="stroke:#181818;stroke-width:0.5;" x1="158.5" x2="743.5" y1="248" y2="248"/><line style="stroke:#181818;stroke-width:0.5;" x1="158.5" x2="743.5" y1="256" y2="256"/><text fill="#000000" font-family="sans-serif" font-size="14" lengthAdjust="spacing" textLength="411" x="163.5" y="272.9951">+RegisterVaccineAdministrationController(nurseSession)</text><text fill="#000000" font-family="sans-serif" font-size="14" lengthAdjust="spacing" textLength="296" x="163.5" y="289.292">+getWaitingRoomListFromNurseCenter()</text><text fill="#000000" font-family="sans-serif" font-size="14" lengthAdjust="spacing" textLength="343" x="163.5" y="305.5889">+getUserVaccinationInfoFromArrival(arrivalDto)</text><text fill="#000000" font-family="sans-serif" font-size="14" lengthAdjust="spacing" textLength="330" x="163.5" y="321.8857">+getLastTakenVaccineFromArrival(arrivalDto)</text><text fill="#000000" font-family="sans-serif" font-size="14" lengthAdjust="spacing" textLength="412" x="163.5" y="338.1826">+getListOfVaccinesWithVaccineTypeOfArrival(arrivalDto)</text><text fill="#000000" font-family="sans-serif" font-size="14" lengthAdjust="spacing" textLength="454" x="163.5" y="354.4795">+getDosageInfoFromVaccineBySnsUser(vaccineDto, arrivalDto)</text><text fill="#000000" font-family="sans-serif" font-size="14" lengthAdjust="spacing" textLength="575" x="163.5" y="370.7764">+createVaccineAdministration(arrivalDto, vaccineDto, lotNumber, doseNumber)</text><text fill="#000000" font-family="sans-serif" font-size="14" lengthAdjust="spacing" textLength="53" x="163.5" y="387.0732">+save()</text></g><!--MD5=[2e42295458bb0bec21c9622a623eb29e]
class Time--><g id="elem_Time"><rect codeLine="190" fill="#F1F1F1" height="113.1875" id="Time" rx="2.5" ry="2.5" style="stroke:#181818;stroke-width:0.5;" width="156" x="4427" y="1085.5"/><ellipse cx="4482.75" cy="1101.5" fill="#ADD1B2" rx="11" ry="11" style="stroke:#181818;stroke-width:1.0;"/><path d="M4485.0938,1097.1719 C4484.1563,1096.7344 4483.5625,1096.5938 4482.6875,1096.5938 C4480.0625,1096.5938 4478.0625,1098.6719 4478.0625,1101.3906 L4478.0625,1102.5156 C4478.0625,1105.0938 4480.1719,1106.9844 4483.0625,1106.9844 C4484.2813,1106.9844 4485.4375,1106.6875 4486.1875,1106.1406 C4486.7656,1105.7344 4487.0938,1105.2813 4487.0938,1104.8906 C4487.0938,1104.4375 4486.7031,1104.0469 4486.2344,1104.0469 C4486.0156,1104.0469 4485.8125,1104.125 4485.625,1104.3125 C4485.1719,1104.7969 4485.1719,1104.7969 4484.9844,1104.8906 C4484.5625,1105.1563 4483.875,1105.2813 4483.1094,1105.2813 C4481.0625,1105.2813 4479.7656,1104.1875 4479.7656,1102.4844 L4479.7656,1101.3906 C4479.7656,1099.6094 4481.0156,1098.2969 4482.75,1098.2969 C4483.3281,1098.2969 4483.9375,1098.4531 4484.4063,1098.7031 C4484.8906,1098.9844 4485.0625,1099.2031 4485.1563,1099.6094 C4485.2188,1100.0156 4485.25,1100.1406 4485.3906,1100.2656 C4485.5313,1100.4063 4485.7656,1100.5156 4485.9844,1100.5156 C4486.25,1100.5156 4486.5156,1100.375 4486.6875,1100.1563 C4486.7969,1100 4486.8281,1099.8125 4486.8281,1099.3906 L4486.8281,1097.9688 C4486.8281,1097.5313 4486.8125,1097.4063 4486.7188,1097.25 C4486.5625,1096.9844 4486.2813,1096.8438 4485.9844,1096.8438 C4485.6875,1096.8438 4485.4844,1096.9375 4485.2656,1097.25 L4485.0938,1097.1719 Z " fill="#000000"/><text fill="#000000" font-family="sans-serif" font-size="14" lengthAdjust="spacing" textLength="36" x="4503.25" y="1106.3467">Time</text><line style="stroke:#181818;stroke-width:0.5;" x1="4428" x2="4582" y1="1117.5" y2="1117.5"/><text fill="#000000" font-family="sans-serif" font-size="14" lengthAdjust="spacing" textLength="67" x="4433" y="1134.4951">-hour: int</text><text fill="#000000" font-family="sans-serif" font-size="14" lengthAdjust="spacing" textLength="86" x="4433" y="1150.792">-minute: int</text><line style="stroke:#181818;stroke-width:0.5;" x1="4428" x2="4582" y1="1158.0938" y2="1158.0938"/><text fill="#000000" font-family="sans-serif" font-size="14" lengthAdjust="spacing" textLength="144" x="4433" y="1175.0889">+Time(hour,minute)</text><text fill="#000000" font-family="sans-serif" font-size="14" lengthAdjust="spacing" textLength="91" x="4433" y="1191.3857">+Time(time)</text></g><!--MD5=[e108c694096fabfd01a9ae86427d8e48]
class ISender--><g id="elem_ISender"><rect codeLine="201" fill="#F1F1F1" height="48" id="ISender" rx="2.5" ry="2.5" style="stroke:#181818;stroke-width:0.5;" width="87" x="4534.5" y="1649.5"/><ellipse cx="4549.5" cy="1665.5" fill="#B4A7E5" rx="11" ry="11" style="stroke:#181818;stroke-width:1.0;"/><path d="M4550.4531,1662.2813 L4552.1719,1662.2813 C4552.5625,1662.2813 4552.75,1662.25 4552.875,1662.1719 C4553.1406,1662.0156 4553.2813,1661.7344 4553.2813,1661.4375 C4553.2813,1661.1719 4553.1719,1660.9063 4552.9375,1660.7344 C4552.7656,1660.625 4552.625,1660.5938 4552.1719,1660.5938 L4547.0313,1660.5938 C4546.5938,1660.5938 4546.4688,1660.6094 4546.3125,1660.7031 C4546.0625,1660.8594 4545.9063,1661.1563 4545.9063,1661.4375 C4545.9063,1661.7188 4546.0469,1661.9688 4546.2656,1662.1406 C4546.4219,1662.25 4546.6094,1662.2813 4547.0313,1662.2813 L4548.75,1662.2813 L4548.75,1668.7969 L4547.0313,1668.7969 C4546.5938,1668.7969 4546.4688,1668.8125 4546.3125,1668.9219 C4546.0625,1669.0781 4545.9063,1669.3594 4545.9063,1669.6563 C4545.9063,1669.9063 4546.0469,1670.1719 4546.2656,1670.3281 C4546.4219,1670.4531 4546.625,1670.5 4547.0313,1670.5 L4552.1719,1670.5 C4552.9219,1670.5 4553.2813,1670.2188 4553.2813,1669.6563 C4553.2813,1669.375 4553.1719,1669.125 4552.9375,1668.9531 C4552.7656,1668.8281 4552.625,1668.7969 4552.1719,1668.7969 L4550.4531,1668.7969 L4550.4531,1662.2813 Z " fill="#000000"/><text fill="#000000" font-family="sans-serif" font-size="14" font-style="italic" lengthAdjust="spacing" textLength="55" x="4563.5" y="1670.3467">ISender</text><line style="stroke:#181818;stroke-width:0.5;" x1="4535.5" x2="4620.5" y1="1681.5" y2="1681.5"/><line style="stroke:#181818;stroke-width:0.5;" x1="4535.5" x2="4620.5" y1="1689.5" y2="1689.5"/></g><!--MD5=[a88c56e1dc44d9d0e1fcd2eec4fd7e58]
class SMSSender--><g id="elem_SMSSender"><rect codeLine="203" fill="#F1F1F1" height="64.2969" id="SMSSender" rx="2.5" ry="2.5" style="stroke:#181818;stroke-width:0.5;" width="271" x="4451.5" y="1833"/><ellipse cx="4542.25" cy="1849" fill="#ADD1B2" rx="11" ry="11" style="stroke:#181818;stroke-width:1.0;"/><path d="M4544.5938,1844.6719 C4543.6563,1844.2344 4543.0625,1844.0938 4542.1875,1844.0938 C4539.5625,1844.0938 4537.5625,1846.1719 4537.5625,1848.8906 L4537.5625,1850.0156 C4537.5625,1852.5938 4539.6719,1854.4844 4542.5625,1854.4844 C4543.7813,1854.4844 4544.9375,1854.1875 4545.6875,1853.6406 C4546.2656,1853.2344 4546.5938,1852.7813 4546.5938,1852.3906 C4546.5938,1851.9375 4546.2031,1851.5469 4545.7344,1851.5469 C4545.5156,1851.5469 4545.3125,1851.625 4545.125,1851.8125 C4544.6719,1852.2969 4544.6719,1852.2969 4544.4844,1852.3906 C4544.0625,1852.6563 4543.375,1852.7813 4542.6094,1852.7813 C4540.5625,1852.7813 4539.2656,1851.6875 4539.2656,1849.9844 L4539.2656,1848.8906 C4539.2656,1847.1094 4540.5156,1845.7969 4542.25,1845.7969 C4542.8281,1845.7969 4543.4375,1845.9531 4543.9063,1846.2031 C4544.3906,1846.4844 4544.5625,1846.7031 4544.6563,1847.1094 C4544.7188,1847.5156 4544.75,1847.6406 4544.8906,1847.7656 C4545.0313,1847.9063 4545.2656,1848.0156 4545.4844,1848.0156 C4545.75,1848.0156 4546.0156,1847.875 4546.1875,1847.6563 C4546.2969,1847.5 4546.3281,1847.3125 4546.3281,1846.8906 L4546.3281,1845.4688 C4546.3281,1845.0313 4546.3125,1844.9063 4546.2188,1844.75 C4546.0625,1844.4844 4545.7813,1844.3438 4545.4844,1844.3438 C4545.1875,1844.3438 4544.9844,1844.4375 4544.7656,1844.75 L4544.5938,1844.6719 Z " fill="#000000"/><text fill="#000000" font-family="sans-serif" font-size="14" lengthAdjust="spacing" textLength="81" x="4562.75" y="1853.8467">SMSSender</text><line style="stroke:#181818;stroke-width:0.5;" x1="4452.5" x2="4721.5" y1="1865" y2="1865"/><line style="stroke:#181818;stroke-width:0.5;" x1="4452.5" x2="4721.5" y1="1873" y2="1873"/><text fill="#000000" font-family="sans-serif" font-size="14" lengthAdjust="spacing" textLength="259" x="4457.5" y="1889.9951">+sendSMS(phoneNumber, message)</text></g><!--MD5=[309e42d4eafe9420dfa12985f72d4531]
class SenderFactory--><g id="elem_SenderFactory"><rect codeLine="207" fill="#F1F1F1" height="48" id="SenderFactory" rx="2.5" ry="2.5" style="stroke:#181818;stroke-width:0.5;" width="137" x="4484.5" y="1389.5"/><ellipse cx="4499.5" cy="1405.5" fill="#ADD1B2" rx="11" ry="11" style="stroke:#181818;stroke-width:1.0;"/><path d="M4501.8438,1401.1719 C4500.9063,1400.7344 4500.3125,1400.5938 4499.4375,1400.5938 C4496.8125,1400.5938 4494.8125,1402.6719 4494.8125,1405.3906 L4494.8125,1406.5156 C4494.8125,1409.0938 4496.9219,1410.9844 4499.8125,1410.9844 C4501.0313,1410.9844 4502.1875,1410.6875 4502.9375,1410.1406 C4503.5156,1409.7344 4503.8438,1409.2813 4503.8438,1408.8906 C4503.8438,1408.4375 4503.4531,1408.0469 4502.9844,1408.0469 C4502.7656,1408.0469 4502.5625,1408.125 4502.375,1408.3125 C4501.9219,1408.7969 4501.9219,1408.7969 4501.7344,1408.8906 C4501.3125,1409.1563 4500.625,1409.2813 4499.8594,1409.2813 C4497.8125,1409.2813 4496.5156,1408.1875 4496.5156,1406.4844 L4496.5156,1405.3906 C4496.5156,1403.6094 4497.7656,1402.2969 4499.5,1402.2969 C4500.0781,1402.2969 4500.6875,1402.4531 4501.1563,1402.7031 C4501.6406,1402.9844 4501.8125,1403.2031 4501.9063,1403.6094 C4501.9688,1404.0156 4502,1404.1406 4502.1406,1404.2656 C4502.2813,1404.4063 4502.5156,1404.5156 4502.7344,1404.5156 C4503,1404.5156 4503.2656,1404.375 4503.4375,1404.1563 C4503.5469,1404 4503.5781,1403.8125 4503.5781,1403.3906 L4503.5781,1401.9688 C4503.5781,1401.5313 4503.5625,1401.4063 4503.4688,1401.25 C4503.3125,1400.9844 4503.0313,1400.8438 4502.7344,1400.8438 C4502.4375,1400.8438 4502.2344,1400.9375 4502.0156,1401.25 L4501.8438,1401.1719 Z " fill="#000000"/><text fill="#000000" font-family="sans-serif" font-size="14" lengthAdjust="spacing" textLength="105" x="4513.5" y="1410.3467">SenderFactory</text><line style="stroke:#181818;stroke-width:0.5;" x1="4485.5" x2="4620.5" y1="1421.5" y2="1421.5"/><line style="stroke:#181818;stroke-width:0.5;" x1="4485.5" x2="4620.5" y1="1429.5" y2="1429.5"/></g><!--MD5=[3ff38a43ded41251bb13c1e682a9df5e]
link VaccineAdministrationUI to RegisterVaccineAdministrationController--><g id="link_VaccineAdministrationUI_RegisterVaccineAdministrationController"><path codeLine="212" d="M451,89.25 C451,117.41 451,166.56 451,210.74 " fill="none" id="VaccineAdministrationUI-to-RegisterVaccineAdministrationController" style="stroke:#181818;stroke-width:1.0;stroke-dasharray:7.0,7.0;"/><polygon fill="#181818" points="451,215.82,455,206.82,451,210.82,447,206.82,451,215.82" style="stroke:#181818;stroke-width:1.0;"/></g><!--MD5=[347593ab63757999336aba239cab370f]
link RegisterVaccineAdministrationController to Company--><g id="link_RegisterVaccineAdministrationController_Company"><path codeLine="213" d="M451,394.19 C451,439.34 451,494.31 451,540.17 " fill="none" id="RegisterVaccineAdministrationController-to-Company" style="stroke:#181818;stroke-width:1.0;stroke-dasharray:7.0,7.0;"/><polygon fill="#181818" points="451,545.43,455,536.43,451,540.43,447,536.43,451,545.43" style="stroke:#181818;stroke-width:1.0;"/></g><!--MD5=[5bb1fbef306266ae3f8aae0f293285f6]
link VaccineAdministrationList to VaccineAdministration--><g id="link_VaccineAdministrationList_VaccineAdministration"><path codeLine="215" d="M1802.51,1215.015 C1741.4,1233.519 1675.35,1252.991 1614,1270 C1546.06,1288.838 1473.24,1307.963 1403.21,1325.827 " fill="none" id="VaccineAdministrationList-to-VaccineAdministration" style="stroke:#181818;stroke-width:1.0;"/><polygon fill="#181818" points="1398.17,1327.111,1407.8816,1328.7496,1403.0132,1325.8688,1405.894,1321.0004,1398.17,1327.111" style="stroke:#181818;stroke-width:1.0;"/><text fill="#000000" font-family="sans-serif" font-size="13" lengthAdjust="spacing" textLength="40" x="1673" y="1266.0669">stores</text><text fill="#000000" font-family="sans-serif" font-size="13" lengthAdjust="spacing" textLength="8" x="1772.1602" y="1234.7727">1</text><text fill="#000000" font-family="sans-serif" font-size="13" lengthAdjust="spacing" textLength="7" x="1406.4591" y="1321.9758">*</text></g><!--MD5=[6e223f58768bc85ffbc8622e4f713097]
link VaccineAdministrationList to SenderFactory--><g id="link_VaccineAdministrationList_SenderFactory"><path codeLine="216" d="M2290.12,1215.026 C2334.44,1224.88 2380.31,1233.491 2424,1239 C2576.91,1258.28 3657.05,1245.68 3811,1253 C4056.94,1264.695 4128.5,1224.943 4363,1300 C4422.47,1319.034 4483.18,1359.388 4519.47,1386.228 " fill="none" id="VaccineAdministrationList-to-SenderFactory" style="stroke:#181818;stroke-width:1.0;"/><polygon fill="#181818" points="4523.78,1389.432,4518.9486,1380.8496,4519.7691,1386.4466,4514.172,1387.2671,4523.78,1389.432" style="stroke:#181818;stroke-width:1.0;"/></g><!--MD5=[cdda88bd94d57e06d95e6dd6ce9ee716]
link Arrival to Appointment--><g id="link_Arrival_Appointment"><path codeLine="218" d="M1067.12,938.56 C1050.82,966.28 1024.92,1001.255 991,1018 C959.407,1033.598 706.496,1012.384 674,1026 C645.569,1037.912 620.067,1060.04 600.032,1081.727 " fill="none" id="Arrival-to-Appointment" style="stroke:#181818;stroke-width:1.0;"/><polygon fill="#181818" points="596.61,1085.485,605.6266,1081.5225,599.9759,1081.7876,599.7108,1076.137,596.61,1085.485" style="stroke:#181818;stroke-width:1.0;"/><text fill="#000000" font-family="sans-serif" font-size="13" lengthAdjust="spacing" textLength="62" x="1017" y="1014.0669">related to</text><text fill="#000000" font-family="sans-serif" font-size="13" lengthAdjust="spacing" textLength="8" x="1055.4634" y="958.0274">1</text><text fill="#000000" font-family="sans-serif" font-size="13" lengthAdjust="spacing" textLength="7" x="594.4928" y="1074.3465">*</text></g><!--MD5=[03837e62d72c3777ea18a233c91defed]
link Appointment to VaccineAdministration--><g id="link_Appointment_VaccineAdministration"><path codeLine="219" d="M618.022,1198.573 C635.518,1212.664 654.956,1227.15 674,1239 C707.007,1259.537 742.842,1279.17 778.82,1297.356 " fill="none" id="Appointment-to-VaccineAdministration" style="stroke:#181818;stroke-width:1.0;"/><polygon fill="#181818" points="783.667,1299.797,777.4274,1292.1768,779.2012,1297.5484,773.8296,1299.3221,783.667,1299.797" style="stroke:#181818;stroke-width:1.0;"/><text fill="#000000" font-family="sans-serif" font-size="13" lengthAdjust="spacing" textLength="62" x="724" y="1266.0669">related to</text><text fill="#000000" font-family="sans-serif" font-size="13" lengthAdjust="spacing" textLength="8" x="617.5842" y="1218.8457">1</text><text fill="#000000" font-family="sans-serif" font-size="13" lengthAdjust="spacing" textLength="8" x="758.4769" y="1289.0951">1</text></g><!--MD5=[db5fb34fd733ab3677281d60b785e712]
reverse link VaccinationCenter to Employee--><g id="link_VaccinationCenter_Employee"><path codeLine="221" d="M2563.56,926.72 C2224.92,948.52 1812.16,982.476 1643,1026 C1609.31,1034.668 1574.46,1047.238 1541.62,1060.917 " fill="none" id="VaccinationCenter-backto-Employee" style="stroke:#181818;stroke-width:1.0;"/><polygon fill="none" points="2576.59,925.88,2570.3472,922.2706,2564.6144,926.645,2570.8572,930.2543,2576.59,925.88" style="stroke:#181818;stroke-width:1.0;"/><text fill="#000000" font-family="sans-serif" font-size="13" lengthAdjust="spacing" textLength="73" x="1760" y="1014.0669">coordinator</text></g><!--MD5=[91079b08053e6fc6d0a3af85820ed36a]
reverse link VaccinationCenter to Time--><g id="link_VaccinationCenter_Time"><path codeLine="222" d="M3580.24,963.44 C3757.43,983.818 3957.75,1004.517 4141,1018 C4165.62,1019.811 4339.89,1017.343 4363,1026 C4396.57,1038.573 4428.17,1062.453 4453,1085.209 " fill="none" id="VaccinationCenter-backto-Time" style="stroke:#181818;stroke-width:1.0;"/><polygon fill="none" points="3567.25,961.94,3572.7535,966.5995,3579.1714,963.3115,3573.6678,958.652,3567.25,961.94" style="stroke:#181818;stroke-width:1.0;"/><text fill="#000000" font-family="sans-serif" font-size="13" lengthAdjust="spacing" textLength="88" x="4142" y="1014.0669">openingHours</text></g><!--MD5=[91079b08053e6fc6d0a3af85820ed36a]
reverse link VaccinationCenter to Time--><g id="link_VaccinationCenter_Time"><path codeLine="223" d="M3580.14,931.89 C3784.23,948.13 4021.33,970.85 4235,1001 C4292.4,1009.099 4310.48,1001.479 4363,1026 C4394.33,1040.628 4424.73,1063.648 4449.3,1085.261 " fill="none" id="VaccinationCenter-backto-Time-1" style="stroke:#181818;stroke-width:1.0;"/><polygon fill="none" points="3567.06,930.85,3572.7246,935.3123,3579.0224,931.7996,3573.3577,927.3373,3567.06,930.85" style="stroke:#181818;stroke-width:1.0;"/><text fill="#000000" font-family="sans-serif" font-size="13" lengthAdjust="spacing" textLength="81" x="4344" y="1014.0669">closingHours</text></g><!--MD5=[99cf60c71dc20007695665c9ea3c4eb1]
reverse link VaccinationCenter to Slot--><g id="link_VaccinationCenter_Slot"><path codeLine="224" d="M3001.68,981.612 C2970.02,1018.797 2933.78,1061.379 2906.71,1093.17 " fill="none" id="VaccinationCenter-backto-Slot" style="stroke:#181818;stroke-width:1.0;"/><polygon fill="none" points="3010.47,971.28,3003.5349,973.2561,3002.6917,980.4177,3009.6268,978.4416,3010.47,971.28" style="stroke:#181818;stroke-width:1.0;"/></g><!--MD5=[b5cfad5f497f25fae1c228f2df0e544a]
reverse link VaccinationCenter to CenterEventList--><g id="link_VaccinationCenter_CenterEventList"><path codeLine="225" d="M2802.76,975.9 C2766.53,990.395 2730.64,1007.061 2698,1026 C2673.89,1039.99 2650.23,1058.884 2629.85,1077.312 " fill="none" id="VaccinationCenter-backto-CenterEventList" style="stroke:#181818;stroke-width:1.0;"/><polygon fill="#181818" points="2815.05,971.07,2808.0024,969.543,2803.8823,975.4611,2810.9299,976.9881,2815.05,971.07" style="stroke:#181818;stroke-width:1.0;"/></g><!--MD5=[d8231e6c7ef513138ef1574cba4490ff]
reverse link VaccinationCenter to Address--><g id="link_VaccinationCenter_Address"><path codeLine="227" d="M3064.05,984.321 C3056.31,1053.764 3042.25,1153.863 3019,1239 C3007.94,1279.496 2990.41,1323.419 2975.79,1356.939 " fill="none" id="VaccinationCenter-backto-Address" style="stroke:#181818;stroke-width:1.0;"/><polygon fill="none" points="3065.47,971.29,3060.8443,976.822,3064.1716,983.2195,3068.7973,977.6876,3065.47,971.29" style="stroke:#181818;stroke-width:1.0;"/><polygon fill="#000000" points="3062.8476,1146.9318,3067.7921,1138.8076,3062.0725,1137.4528,3062.8476,1146.9318" style="stroke:#000000;stroke-width:1.0;"/><text fill="#000000" font-family="sans-serif" font-size="13" lengthAdjust="spacing" textLength="23" x="3073" y="1146.5669">has</text></g><!--MD5=[6011661c3fc81330c92341a4ff145354]
reverse link Employee to Address--><g id="link_Employee_Address"><path codeLine="228" d="M1488.13,1230.506 C1512.96,1246.557 1540.29,1261.049 1568,1270 C1814.65,1349.664 2483.05,1235.133 2734,1300 C2783.12,1312.698 2833.65,1338.21 2873.48,1361.734 " fill="none" id="Employee-backto-Address" style="stroke:#181818;stroke-width:1.0;"/><polygon fill="none" points="1477.28,1223.29,1480.0604,1229.9435,1487.2715,1229.9361,1484.4911,1223.2825,1477.28,1223.29" style="stroke:#181818;stroke-width:1.0;"/><polygon fill="#000000" points="1577.9777,1262.0379,1569.2501,1258.2591,1568.6958,1264.1108,1577.9777,1262.0379" style="stroke:#000000;stroke-width:1.0;"/><text fill="#000000" font-family="sans-serif" font-size="13" lengthAdjust="spacing" textLength="23" x="1582" y="1266.0669">has</text></g><!--MD5=[ead7d9d6b955a52c2ff80bc842b312e5]
link Employee to VaccineAdministration--><g id="link_Employee_VaccineAdministration"><path codeLine="230" d="M1282.69,1223.129 C1254.17,1246.145 1222.47,1271.721 1191.84,1296.441 " fill="none" id="Employee-to-VaccineAdministration" style="stroke:#181818;stroke-width:1.0;"/><polygon fill="#181818" points="1187.72,1299.765,1197.2349,1297.2221,1191.6098,1296.6234,1192.2084,1290.9984,1187.72,1299.765" style="stroke:#181818;stroke-width:1.0;"/><polygon fill="#000000" points="1246.1089,1264.7064,1254.9936,1261.3133,1251.3024,1256.739,1246.1089,1264.7064" style="stroke:#000000;stroke-width:1.0;"/><text fill="#000000" font-family="sans-serif" font-size="13" lengthAdjust="spacing" textLength="115" x="1259" y="1266.0669">nurse administers</text><text fill="#000000" font-family="sans-serif" font-size="13" lengthAdjust="spacing" textLength="8" x="1265.489" y="1243.0919">1</text><text fill="#000000" font-family="sans-serif" font-size="13" lengthAdjust="spacing" textLength="7" x="1189.4466" y="1289.061">*</text></g><!--MD5=[e9564c8395e48ed8a43d55d5fa00e6f5]
link SNSUser to VaccineAdministrationList--><g id="link_SNSUser_VaccineAdministrationList"><path codeLine="232" d="M1326.63,748.06 C1415.02,831.98 1545.01,944.35 1676,1018 C1706.41,1035.097 1739.6,1050.401 1773.11,1063.918 " fill="none" id="SNSUser-to-VaccineAdministrationList" style="stroke:#181818;stroke-width:1.0;"/><polygon fill="none" points="1785.46,1068.818,1781.3544,1062.8898,1774.3031,1064.3995,1778.4087,1070.3277,1785.46,1068.818" style="stroke:#181818;stroke-width:1.0;"/></g><!--MD5=[3f8bc51bb69ce45c3e3ea0b764df71f1]
link SNSUser to Appointment--><g id="link_SNSUser_Appointment"><path codeLine="233" d="M1055.99,748.1 C1035.2,768.28 1015.97,790.58 1001,814.5 C962.97,875.26 1014.07,921.74 962,971 C867.332,1060.552 789.677,966 674,1026 C650.11,1038.392 627.77,1057.113 609.044,1075.872 " fill="none" id="SNSUser-to-Appointment" style="stroke:#181818;stroke-width:1.0;"/><polygon fill="none" points="599.873,1085.353,606.9196,1083.8214,608.216,1076.7278,601.1694,1078.2594,599.873,1085.353" style="stroke:#181818;stroke-width:1.0;"/></g><!--MD5=[7237f06c0b74e3dd035481e962d83e87]
link SNSUser to Arrival--><g id="link_SNSUser_Arrival"><path codeLine="234" d="M1159.79,748.3 C1143.23,782.13 1125.86,817.6 1112.25,845.41 " fill="none" id="SNSUser-to-Arrival" style="stroke:#181818;stroke-width:1.0;"/><polygon fill="none" points="1106.47,857.23,1112.7009,853.6001,1111.7467,846.4524,1105.5158,850.0823,1106.47,857.23" style="stroke:#181818;stroke-width:1.0;"/></g><!--MD5=[061ad90a7995ac7aaabbf62d41d77536]
link CenterEventList to CenterEvent--><g id="link_CenterEventList_CenterEvent"><path codeLine="236" d="M2568,1206.526 C2568,1255.079 2568,1320.944 2568,1364.992 " fill="none" id="CenterEventList-CenterEvent" style="stroke:#181818;stroke-width:1.0;"/><polygon fill="#000000" points="2573,1266.5664,2575.9389,1257.5213,2570.0611,1257.5213,2573,1266.5664" style="stroke:#000000;stroke-width:1.0;"/><text fill="#000000" font-family="sans-serif" font-size="13" lengthAdjust="spacing" textLength="40" x="2582" y="1266.0669">stores</text></g><!--MD5=[1bd9080c7e199931e49bc5a1616681ac]
link Company to SNSUserStore--><g id="link_Company_SNSUserStore"><path codeLine="238" d="M563.467,717.88 C632.139,768.18 715.991,829.6 765.524,865.89 " fill="none" id="Company-SNSUserStore" style="stroke:#181818;stroke-width:1.0;"/><polygon fill="#000000" points="671.0336,789.5211,665.4735,781.8051,662,786.5469,671.0336,789.5211" style="stroke:#000000;stroke-width:1.0;"/><text fill="#000000" font-family="sans-serif" font-size="13" lengthAdjust="spacing" textLength="41" x="676" y="791.0669">knows</text><text fill="#000000" font-family="sans-serif" font-size="13" lengthAdjust="spacing" textLength="8" x="570.9282" y="719.8002">1</text><text fill="#000000" font-family="sans-serif" font-size="13" lengthAdjust="spacing" textLength="8" x="747.9383" y="854.7704">1</text></g><!--MD5=[f2e0045a3c67c0696cf082af1b4c8493]
link Company to VaccineStore--><g id="link_Company_VaccineStore"><path codeLine="239" d="M422.004,723.67 C407.083,769.04 389.636,822.09 378.012,857.44 " fill="none" id="Company-VaccineStore" style="stroke:#181818;stroke-width:1.0;"/><polygon fill="#000000" points="406.438,791.3162,412.0555,783.6419,406.4719,781.8056,406.438,791.3162" style="stroke:#000000;stroke-width:1.0;"/><text fill="#000000" font-family="sans-serif" font-size="13" lengthAdjust="spacing" textLength="41" x="417" y="791.0669">knows</text><text fill="#000000" font-family="sans-serif" font-size="13" lengthAdjust="spacing" textLength="8" x="411.1684" y="744.0341">1</text><text fill="#000000" font-family="sans-serif" font-size="13" lengthAdjust="spacing" textLength="8" x="371.5609" y="846.2929">1</text></g><!--MD5=[89791a9cd8c9c78fd39f4b892a053799]
link VaccineStore to Vaccine--><g id="link_VaccineStore_Vaccine"><path codeLine="241" d="M345.155,938.69 C324.672,979.656 292.617,1043.765 270.094,1088.813 " fill="none" id="VaccineStore-to-Vaccine" style="stroke:#181818;stroke-width:1.0;"/><polygon fill="#181818" points="267.808,1093.385,275.4098,1087.123,270.0435,1088.9126,268.254,1083.5462,267.808,1093.385" style="stroke:#181818;stroke-width:1.0;"/><text fill="#000000" font-family="sans-serif" font-size="13" lengthAdjust="spacing" textLength="40" x="313" y="1014.0669">stores</text><text fill="#000000" font-family="sans-serif" font-size="13" lengthAdjust="spacing" textLength="8" x="333.5037" y="958.1773">1</text><text fill="#000000" font-family="sans-serif" font-size="13" lengthAdjust="spacing" textLength="7" x="263.6638" y="1082.5778">*</text></g><!--MD5=[18f64380b239debceeec19af3072ce33]
link WaitingRoom to Arrival--><g id="link_WaitingRoom_Arrival"><path codeLine="243" d="M794.383,675.05 C814.344,697.61 840.844,725.73 867,748 C881.021,759.94 963.134,814.94 1022.95,854.65 " fill="none" id="WaitingRoom-to-Arrival" style="stroke:#181818;stroke-width:1.0;"/><polygon fill="#181818" points="1027.21,857.49,1021.9074,849.1904,1023.0388,854.733,1017.4962,855.8644,1027.21,857.49" style="stroke:#181818;stroke-width:1.0;"/><text fill="#000000" font-family="sans-serif" font-size="13" lengthAdjust="spacing" textLength="40" x="932" y="791.0669">stores</text><text fill="#000000" font-family="sans-serif" font-size="13" lengthAdjust="spacing" textLength="8" x="790.8823" y="694.5158">1</text><text fill="#000000" font-family="sans-serif" font-size="13" lengthAdjust="spacing" textLength="7" x="1009.332" y="846.3515">*</text></g><!--MD5=[aced56f7a141fcb9dc02d7684dd6cd8d]
link RecoveryRoom to VaccineAdministration--><g id="link_RecoveryRoom_VaccineAdministration"><path codeLine="245" d="M924.472,1190.561 C940.717,1219.747 962.284,1258.498 982.847,1295.443 " fill="none" id="RecoveryRoom-to-VaccineAdministration" style="stroke:#181818;stroke-width:1.0;"/><polygon fill="#181818" points="985.35,1299.938,984.4658,1290.1289,982.9173,1295.5697,977.4765,1294.0212,985.35,1299.938" style="stroke:#181818;stroke-width:1.0;"/><text fill="#000000" font-family="sans-serif" font-size="13" lengthAdjust="spacing" textLength="40" x="970" y="1266.0669">stores</text><text fill="#000000" font-family="sans-serif" font-size="13" lengthAdjust="spacing" textLength="8" x="919.6321" y="1210.5285">1</text><text fill="#000000" font-family="sans-serif" font-size="13" lengthAdjust="spacing" textLength="7" x="973.9055" y="1288.8666">*</text></g><!--MD5=[9c09d1db3efb59cb07492bc4345754ed]
reverse link VaccinationCenter to CommunityMassVaccinationCenter--><g id="link_VaccinationCenter_CommunityMassVaccinationCenter"><path codeLine="247" d="M3291.79,977.916 C3398.05,1016.067 3522.06,1060.595 3613.63,1093.474 " fill="none" id="VaccinationCenter-backto-CommunityMassVaccinationCenter" style="stroke:#181818;stroke-width:1.0;"/><polygon fill="none" points="3289.31,984.463,3272.85,971.12,3294.04,971.29,3289.31,984.463" style="stroke:#181818;stroke-width:1.0;"/></g><!--MD5=[b87d85fc97cc3f91d0afd88eb00009fe]
link SenderFactory to ISender--><g id="link_SenderFactory_ISender"><path codeLine="249" d="M4555.26,1437.851 C4559.86,1485.34 4570.3,1593.01 4575.27,1644.307 " fill="none" id="SenderFactory-to-ISender" style="stroke:#181818;stroke-width:1.0;"/><polygon fill="#181818" points="4575.76,1649.388,4578.8712,1640.0435,4575.2766,1644.4114,4570.9087,1640.8168,4575.76,1649.388" style="stroke:#181818;stroke-width:1.0;"/><polygon fill="#000000" points="4572.4823,1570.5431,4574.535,1561.2567,4568.6846,1561.8237,4572.4823,1570.5431" style="stroke:#000000;stroke-width:1.0;"/><text fill="#000000" font-family="sans-serif" font-size="13" lengthAdjust="spacing" textLength="48" x="4581" y="1570.0669">creates</text></g><!--MD5=[e92ab4778a14d751b00a64f10118f72b]
reverse link ISender to SMSSender--><g id="link_ISender_SMSSender"><path codeLine="250" d="M4580.07,1718.025 C4581.73,1753.042 4584.03,1801.406 4585.51,1832.695 " fill="none" id="ISender-backto-SMSSender" style="stroke:#181818;stroke-width:1.0;stroke-dasharray:7.0,7.0;"/><polygon fill="none" points="4573.06,1718.046,4579.1,1697.736,4587.04,1717.382,4573.06,1718.046" style="stroke:#181818;stroke-width:1.0;"/></g><!--MD5=[097f1467bada07454ee2ee4b63988508]
link CenterEvent to CenterEventType--><g id="link_CenterEvent_CenterEventType"><path codeLine="252" d="M2568,1462.122 C2568,1504.263 2568,1565.988 2568,1611.688 " fill="none" id="CenterEvent-to-CenterEventType" style="stroke:#181818;stroke-width:1.0;"/><polygon fill="none" points="2568,1624.719,2572,1618.719,2568,1612.719,2564,1618.719,2568,1624.719" style="stroke:#181818;stroke-width:1.0;"/></g><!--MD5=[d2aaf3a816144335832166ecb3e5dea6]
@startuml
skinparam classAttributeIconSize 0

package UI {
  class VaccineAdministrationUI {}
}

package core {
  package domain {
    package model {
      class VaccinationCenter {
        - name: String
        - emailAddress: String
        - phoneNumber: String
        - faxNumber: String
        - websiteAddress: String
        
        +VaccinationCenter(name,address,emailAddress,phoneNumber,faxNumber,websiteAddress,openingHours,closingHours,slot,coordinator)
      }

      class CommunityMassVaccinationCenter {
        - vaccineType : VaccineType

        +CommunityMassVaccinationCenter(name,address,emailAddress,phoneNumber,faxNumber,websiteAddress,openingHours,closingHours,slot,coordinator,vaccineType)
        +administersVaccineType(vaccineType)
      }

      class Address {
        - street: String
        - doorNumber: int
        - postalCode: String
        - city: String
      }

      class SNSUser {
        - String citizenCard
        - String snsNumber
        - Date birthDay
        - Char gender
        - String phoneNumber
        - String address
        + SNSUser(citizenCard, snsNumber, name, birthDay, gender, phoneNumber, email, address)
        + getUserHealthData()
        + getName()
        + getAge()
        + getPhoneNumber()
      }

      class Employee {
        -id: String 
        -name: String 
        -email: String 
        -phone: String 
        -citizenCardNumber: int 
        -roleId: String 

        +Employee(name,email,phone,address,citizenCardNumber,roleId)
      }

      class WaitingRoom {
        -arrivals : List<Arrival> 

        + removeUser(user)
      }

      class RecoveryRoom {
        -VaccineAdministrations : List<VaccineAdministration>

        + addVaccineAdministration(vaccineAdministration)
        + removeVaccineAdministration(vaccineAdministration)
      }

      class CenterEvent {
        - date: Date
        - eventType: CenterEventType

        + CenterEvent(date,eventType,snsUser)
      }

      class Vaccine {
        - vaccineType : VaccineType

        + getVaccineType()
        + getDosageByDoseNumber(doseNumber, age)
      }

      class Slot {
        -duration: int
        -maxVaccinesPerSlot: int

        +Slot(duration,maxVaccinesPerSlot)
      }

      class Company {
        -designation: String
        -authFacade: AuthFacade
        -vaccineStore: VaccineStore
        -snsUserStore : SNSUserStore
        
        +Company(designation)

        +getVaccineStore()
        +getSnsUserStore()
      }

      class Appointment {
        - Date appointmentTime
        - SNSUser snsUser
        - VaccineType vaccineType

        + getVaccineType()
      }

      class VaccineAdministration {
        - SNSUser snsUser
        - Vaccine vaccine
        - String lotNumber
        - int doseNumber
        - VaccinationCenter vaccinationCenter
        - Date administrationDate
        - - -
        + VaccineAdministration(snsUser, vaccine, lotNumber, doseNumber, center, administrationDate)
        + getSnsUser()
        + getVaccine()
        + getDoseNumber()
        + getVaccinationCenter()
      }

      class Arrival {
        - Date arrivalTime
        - int status
      }

      package shared {
        enum CenterEventType {
          ARRIVAL
          VACCINATED
          DEPARTURE
        }
      }

      package stores {

        class VaccineStore {
          + getVaccinesByVaccineTypeWithAdminProcessForAge(vaccineType, age)
          + findVaccineById(id)
        }

        class SNSUserStore {
          + findSNSUserByNumber(snsNumber)
        }
      }

      package lists {
        class CenterEventList {
          - events: List<CenterEvent>

          + create(date,eventType,snsUser)
          + save(event)

          +CenterEventList()
        }

        class VaccineAdministrationList {
          - vaccineAdministrations : List<VaccineAdministration>

          + getLastTakenVaccineByVaccineType(vaccineType)
          + getNextDoseNumberOfVaccine(vaccine)
          + createVaccineAdministration(snsUser, vaccine, lotNumber, doseNumber, center, administrationDate)
          + validateVaccineAdministration(vaccineAdministration)
          + saveVaccineAdministration(vaccineAdministration)
        }
      }
    }
  }

  package controllers {
    class RegisterVaccineAdministrationController {
      + RegisterVaccineAdministrationController(nurseSession)
      + getWaitingRoomListFromNurseCenter()
      + getUserVaccinationInfoFromArrival(arrivalDto)
      + getLastTakenVaccineFromArrival(arrivalDto)
      + getListOfVaccinesWithVaccineTypeOfArrival(arrivalDto)
      + getDosageInfoFromVaccineBySnsUser(vaccineDto, arrivalDto)
      + createVaccineAdministration(arrivalDto, vaccineDto, lotNumber, doseNumber)
      + save()
    }
  }

  package utils {
    class Time {
      - hour: int
      - minute: int
      
      +Time(hour,minute)
      +Time(time)
    }
  }

  package service {
    package sender {
      interface ISender {}

      class SMSSender {
        +sendSMS(phoneNumber, message)
      }

      class SenderFactory {}
    }
  }
}

VaccineAdministrationUI ..> RegisterVaccineAdministrationController
RegisterVaccineAdministrationController ..> Company

VaccineAdministrationList "1" - -> "*" VaccineAdministration : stores
VaccineAdministrationList - -> SenderFactory

Arrival "1" - -> "*" Appointment : related to
Appointment "1" - -> "1" VaccineAdministration : related to

VaccinationCenter o- - Employee : coordinator
VaccinationCenter o- - Time : openingHours
VaccinationCenter o- - Time : closingHours
VaccinationCenter o- - Slot
VaccinationCenter *- - CenterEventList

VaccinationCenter o- - Address : has >
Employee o- - Address : has >

Employee "1" - -> "*" VaccineAdministration : nurse administers >

SNSUser - -o VaccineAdministrationList
SNSUser - -o Appointment
SNSUser - -o Arrival

CenterEventList - - CenterEvent : stores >

Company "1" - - "1" SNSUserStore : knows >
Company "1" - - "1" VaccineStore : knows >

VaccineStore "1" - -> "*" Vaccine : stores

WaitingRoom "1" - -> "*" Arrival : stores

RecoveryRoom "1" - -> "*" VaccineAdministration : stores

VaccinationCenter <|- - CommunityMassVaccinationCenter

SenderFactory - -> ISender : creates >
ISender <|.. SMSSender

CenterEvent - -o CenterEventType
@enduml

PlantUML version 1.2022.6beta5(Unknown compile time)
(GPL source distribution)
Java Runtime: Java(TM) SE Runtime Environment
JVM: Java HotSpot(TM) 64-Bit Server VM
Default Encoding: UTF-8
Language: en
Country: US
--></g></svg>