<?xml version="1.0" encoding="UTF-8" standalone="no"?><svg xmlns="http://www.w3.org/2000/svg" xmlns:xlink="http://www.w3.org/1999/xlink" contentScriptType="application/ecmascript" contentStyleType="text/css" height="757px" preserveAspectRatio="none" style="width:2233px;height:757px;background:#FFFFFF;" version="1.1" viewBox="0 0 2233 757" width="2233px" zoomAndPan="magnify"><defs><filter height="300%" id="ft5422mv3pm63" width="300%" x="-1" y="-1"><feGaussianBlur result="blurOut" stdDeviation="2.0"/><feColorMatrix in="blurOut" result="blurOut2" type="matrix" values="0 0 0 0 0 0 0 0 0 0 0 0 0 0 0 0 0 0 .4 0"/><feOffset dx="4.0" dy="4.0" in="blurOut2" result="blurOut3"/><feBlend in="SourceGraphic" in2="blurOut3" mode="normal"/></filter></defs><g><!--MD5=[56872536300a053cf9fd13853ad6ab1e]
class CommunityMassVaccinationCenter--><rect codeLine="6" fill="#FEFECE" filter="url(#ft5422mv3pm63)" height="40" id="CommunityMassVaccinationCenter" style="stroke:#A80036;stroke-width:1.5;" width="247" x="1765" y="317"/><ellipse cx="1780" cy="333" fill="#ADD1B2" rx="11" ry="11" style="stroke:#A80036;stroke-width:1.0;"/><path d="M1782.9688,338.6406 Q1782.3906,338.9375 1781.75,339.0781 Q1781.1094,339.2344 1780.4063,339.2344 Q1777.9063,339.2344 1776.5781,337.5938 Q1775.2656,335.9375 1775.2656,332.8125 Q1775.2656,329.6875 1776.5781,328.0313 Q1777.9063,326.375 1780.4063,326.375 Q1781.1094,326.375 1781.75,326.5313 Q1782.4063,326.6875 1782.9688,326.9844 L1782.9688,329.7031 Q1782.3438,329.125 1781.75,328.8594 Q1781.1563,328.5781 1780.5313,328.5781 Q1779.1875,328.5781 1778.5,329.6563 Q1777.8125,330.7188 1777.8125,332.8125 Q1777.8125,334.9063 1778.5,335.9844 Q1779.1875,337.0469 1780.5313,337.0469 Q1781.1563,337.0469 1781.75,336.7813 Q1782.3438,336.5 1782.9688,335.9219 L1782.9688,338.6406 Z " fill="#000000"/><text fill="#000000" font-family="sans-serif" font-size="12" lengthAdjust="spacing" textLength="215" x="1794" y="337.1543">CommunityMassVaccinationCenter</text><line style="stroke:#A80036;stroke-width:1.5;" x1="1766" x2="2011" y1="349" y2="349"/><!--MD5=[1db03e903fe0a044a2ca0dcbef10799a]
class HealthCareCenter--><rect codeLine="8" fill="#FEFECE" filter="url(#ft5422mv3pm63)" height="40" id="HealthCareCenter" style="stroke:#A80036;stroke-width:1.5;" width="144" x="1816.5" y="392"/><ellipse cx="1831.5" cy="408" fill="#ADD1B2" rx="11" ry="11" style="stroke:#A80036;stroke-width:1.0;"/><path d="M1834.4688,413.6406 Q1833.8906,413.9375 1833.25,414.0781 Q1832.6094,414.2344 1831.9063,414.2344 Q1829.4063,414.2344 1828.0781,412.5938 Q1826.7656,410.9375 1826.7656,407.8125 Q1826.7656,404.6875 1828.0781,403.0313 Q1829.4063,401.375 1831.9063,401.375 Q1832.6094,401.375 1833.25,401.5313 Q1833.9063,401.6875 1834.4688,401.9844 L1834.4688,404.7031 Q1833.8438,404.125 1833.25,403.8594 Q1832.6563,403.5781 1832.0313,403.5781 Q1830.6875,403.5781 1830,404.6563 Q1829.3125,405.7188 1829.3125,407.8125 Q1829.3125,409.9063 1830,410.9844 Q1830.6875,412.0469 1832.0313,412.0469 Q1832.6563,412.0469 1833.25,411.7813 Q1833.8438,411.5 1834.4688,410.9219 L1834.4688,413.6406 Z " fill="#000000"/><text fill="#000000" font-family="sans-serif" font-size="12" lengthAdjust="spacing" textLength="112" x="1845.5" y="412.1543">HealthCareCenter</text><line style="stroke:#A80036;stroke-width:1.5;" x1="1817.5" x2="1959.5" y1="424" y2="424"/><!--MD5=[de60e6d4f424ae4d0522096f76a59010]
class VaccinationCenter--><rect codeLine="10" fill="#FEFECE" filter="url(#ft5422mv3pm63)" height="168.0469" id="VaccinationCenter" style="stroke:#A80036;stroke-width:1.5;" width="147" x="1520" y="290"/><ellipse cx="1535" cy="306" fill="#ADD1B2" rx="11" ry="11" style="stroke:#A80036;stroke-width:1.0;"/><path d="M1537.9688,311.6406 Q1537.3906,311.9375 1536.75,312.0781 Q1536.1094,312.2344 1535.4063,312.2344 Q1532.9063,312.2344 1531.5781,310.5938 Q1530.2656,308.9375 1530.2656,305.8125 Q1530.2656,302.6875 1531.5781,301.0313 Q1532.9063,299.375 1535.4063,299.375 Q1536.1094,299.375 1536.75,299.5313 Q1537.4063,299.6875 1537.9688,299.9844 L1537.9688,302.7031 Q1537.3438,302.125 1536.75,301.8594 Q1536.1563,301.5781 1535.5313,301.5781 Q1534.1875,301.5781 1533.5,302.6563 Q1532.8125,303.7188 1532.8125,305.8125 Q1532.8125,307.9063 1533.5,308.9844 Q1534.1875,310.0469 1535.5313,310.0469 Q1536.1563,310.0469 1536.75,309.7813 Q1537.3438,309.5 1537.9688,308.9219 L1537.9688,311.6406 Z " fill="#000000"/><text fill="#000000" font-family="sans-serif" font-size="12" lengthAdjust="spacing" textLength="115" x="1549" y="310.1543">VaccinationCenter</text><line style="stroke:#A80036;stroke-width:1.5;" x1="1521" x2="1666" y1="322" y2="322"/><text fill="#000000" font-family="sans-serif" font-size="11" lengthAdjust="spacing" textLength="41" x="1526" y="336.2104">+name</text><text fill="#000000" font-family="sans-serif" font-size="11" lengthAdjust="spacing" textLength="56" x="1526" y="349.0151">+address</text><text fill="#000000" font-family="sans-serif" font-size="11" lengthAdjust="spacing" textLength="44" x="1526" y="361.8198">+phone</text><text fill="#000000" font-family="sans-serif" font-size="11" lengthAdjust="spacing" textLength="40" x="1526" y="374.6245">+email</text><text fill="#000000" font-family="sans-serif" font-size="11" lengthAdjust="spacing" textLength="26" x="1526" y="387.4292">+fax</text><text fill="#000000" font-family="sans-serif" font-size="11" lengthAdjust="spacing" textLength="53" x="1526" y="400.2339">+website</text><text fill="#000000" font-family="sans-serif" font-size="11" lengthAdjust="spacing" textLength="88" x="1526" y="413.0386">+openingHours</text><text fill="#000000" font-family="sans-serif" font-size="11" lengthAdjust="spacing" textLength="83" x="1526" y="425.8433">+closingHours</text><text fill="#000000" font-family="sans-serif" font-size="11" lengthAdjust="spacing" textLength="78" x="1526" y="438.6479">+slotDuration</text><text fill="#000000" font-family="sans-serif" font-size="11" lengthAdjust="spacing" textLength="120" x="1526" y="451.4526">+nOfVaccinesPerSlot</text><!--MD5=[19e445fc4d3b48519cbe33da05496394]
class Vaccine--><rect codeLine="23" fill="#FEFECE" filter="url(#ft5422mv3pm63)" height="40" id="Vaccine" style="stroke:#A80036;stroke-width:1.5;" width="81" x="1553" y="580"/><ellipse cx="1568" cy="596" fill="#ADD1B2" rx="11" ry="11" style="stroke:#A80036;stroke-width:1.0;"/><path d="M1570.9688,601.6406 Q1570.3906,601.9375 1569.75,602.0781 Q1569.1094,602.2344 1568.4063,602.2344 Q1565.9063,602.2344 1564.5781,600.5938 Q1563.2656,598.9375 1563.2656,595.8125 Q1563.2656,592.6875 1564.5781,591.0313 Q1565.9063,589.375 1568.4063,589.375 Q1569.1094,589.375 1569.75,589.5313 Q1570.4063,589.6875 1570.9688,589.9844 L1570.9688,592.7031 Q1570.3438,592.125 1569.75,591.8594 Q1569.1563,591.5781 1568.5313,591.5781 Q1567.1875,591.5781 1566.5,592.6563 Q1565.8125,593.7188 1565.8125,595.8125 Q1565.8125,597.9063 1566.5,598.9844 Q1567.1875,600.0469 1568.5313,600.0469 Q1569.1563,600.0469 1569.75,599.7813 Q1570.3438,599.5 1570.9688,598.9219 L1570.9688,601.6406 Z " fill="#000000"/><text fill="#000000" font-family="sans-serif" font-size="12" lengthAdjust="spacing" textLength="49" x="1582" y="600.1543">Vaccine</text><line style="stroke:#A80036;stroke-width:1.5;" x1="1554" x2="1633" y1="612" y2="612"/><!--MD5=[0e501da62322464167c8ec4d233a6b7e]
class VaccineType--><rect codeLine="25" fill="#FEFECE" filter="url(#ft5422mv3pm63)" height="78.4141" id="VaccineType" style="stroke:#A80036;stroke-width:1.5;" width="110" x="1833.5" y="665"/><ellipse cx="1848.5" cy="681" fill="#ADD1B2" rx="11" ry="11" style="stroke:#A80036;stroke-width:1.0;"/><path d="M1851.4688,686.6406 Q1850.8906,686.9375 1850.25,687.0781 Q1849.6094,687.2344 1848.9063,687.2344 Q1846.4063,687.2344 1845.0781,685.5938 Q1843.7656,683.9375 1843.7656,680.8125 Q1843.7656,677.6875 1845.0781,676.0313 Q1846.4063,674.375 1848.9063,674.375 Q1849.6094,674.375 1850.25,674.5313 Q1850.9063,674.6875 1851.4688,674.9844 L1851.4688,677.7031 Q1850.8438,677.125 1850.25,676.8594 Q1849.6563,676.5781 1849.0313,676.5781 Q1847.6875,676.5781 1847,677.6563 Q1846.3125,678.7188 1846.3125,680.8125 Q1846.3125,682.9063 1847,683.9844 Q1847.6875,685.0469 1849.0313,685.0469 Q1849.6563,685.0469 1850.25,684.7813 Q1850.8438,684.5 1851.4688,683.9219 L1851.4688,686.6406 Z " fill="#000000"/><text fill="#000000" font-family="sans-serif" font-size="12" lengthAdjust="spacing" textLength="78" x="1862.5" y="685.1543">VaccineType</text><line style="stroke:#A80036;stroke-width:1.5;" x1="1834.5" x2="1942.5" y1="697" y2="697"/><text fill="#000000" font-family="sans-serif" font-size="11" lengthAdjust="spacing" textLength="19" x="1839.5" y="711.2104">+id</text><text fill="#000000" font-family="sans-serif" font-size="11" lengthAdjust="spacing" textLength="75" x="1839.5" y="724.0151">+designation</text><text fill="#000000" font-family="sans-serif" font-size="11" lengthAdjust="spacing" textLength="42" x="1839.5" y="736.8198">+whoid</text><!--MD5=[9dec31851c9c504cad5b41bb142d96c3]
class DGS--><rect codeLine="31" fill="#FEFECE" filter="url(#ft5422mv3pm63)" height="40" id="DGS" style="stroke:#A80036;stroke-width:1.5;" width="58" x="999" y="272"/><ellipse cx="1014" cy="288" fill="#ADD1B2" rx="11" ry="11" style="stroke:#A80036;stroke-width:1.0;"/><path d="M1016.9688,293.6406 Q1016.3906,293.9375 1015.75,294.0781 Q1015.1094,294.2344 1014.4063,294.2344 Q1011.9063,294.2344 1010.5781,292.5938 Q1009.2656,290.9375 1009.2656,287.8125 Q1009.2656,284.6875 1010.5781,283.0313 Q1011.9063,281.375 1014.4063,281.375 Q1015.1094,281.375 1015.75,281.5313 Q1016.4063,281.6875 1016.9688,281.9844 L1016.9688,284.7031 Q1016.3438,284.125 1015.75,283.8594 Q1015.1563,283.5781 1014.5313,283.5781 Q1013.1875,283.5781 1012.5,284.6563 Q1011.8125,285.7188 1011.8125,287.8125 Q1011.8125,289.9063 1012.5,290.9844 Q1013.1875,292.0469 1014.5313,292.0469 Q1015.1563,292.0469 1015.75,291.7813 Q1016.3438,291.5 1016.9688,290.9219 L1016.9688,293.6406 Z " fill="#000000"/><text fill="#000000" font-family="sans-serif" font-size="12" lengthAdjust="spacing" textLength="26" x="1028" y="292.1543">DGS</text><line style="stroke:#A80036;stroke-width:1.5;" x1="1000" x2="1056" y1="304" y2="304"/><!--MD5=[72be06cc7ae02ccc98efe28a50e62246]
class SNSUser--><rect codeLine="33" fill="#FEFECE" filter="url(#ft5422mv3pm63)" height="40" id="SNSUser" style="stroke:#A80036;stroke-width:1.5;" width="86" x="985" y="347"/><ellipse cx="1000" cy="363" fill="#ADD1B2" rx="11" ry="11" style="stroke:#A80036;stroke-width:1.0;"/><path d="M1002.9688,368.6406 Q1002.3906,368.9375 1001.75,369.0781 Q1001.1094,369.2344 1000.4063,369.2344 Q997.9063,369.2344 996.5781,367.5938 Q995.2656,365.9375 995.2656,362.8125 Q995.2656,359.6875 996.5781,358.0313 Q997.9063,356.375 1000.4063,356.375 Q1001.1094,356.375 1001.75,356.5313 Q1002.4063,356.6875 1002.9688,356.9844 L1002.9688,359.7031 Q1002.3438,359.125 1001.75,358.8594 Q1001.1563,358.5781 1000.5313,358.5781 Q999.1875,358.5781 998.5,359.6563 Q997.8125,360.7188 997.8125,362.8125 Q997.8125,364.9063 998.5,365.9844 Q999.1875,367.0469 1000.5313,367.0469 Q1001.1563,367.0469 1001.75,366.7813 Q1002.3438,366.5 1002.9688,365.9219 L1002.9688,368.6406 Z " fill="#000000"/><text fill="#000000" font-family="sans-serif" font-size="12" lengthAdjust="spacing" textLength="54" x="1014" y="367.1543">SNSUser</text><line style="stroke:#A80036;stroke-width:1.5;" x1="986" x2="1070" y1="379" y2="379"/><!--MD5=[2bca2830cfb79d02238429900cdb12af]
class HealthInformation--><rect codeLine="35" fill="#FEFECE" filter="url(#ft5422mv3pm63)" height="40" id="HealthInformation" style="stroke:#A80036;stroke-width:1.5;" width="144" x="1210" y="272"/><ellipse cx="1225" cy="288" fill="#ADD1B2" rx="11" ry="11" style="stroke:#A80036;stroke-width:1.0;"/><path d="M1227.9688,293.6406 Q1227.3906,293.9375 1226.75,294.0781 Q1226.1094,294.2344 1225.4063,294.2344 Q1222.9063,294.2344 1221.5781,292.5938 Q1220.2656,290.9375 1220.2656,287.8125 Q1220.2656,284.6875 1221.5781,283.0313 Q1222.9063,281.375 1225.4063,281.375 Q1226.1094,281.375 1226.75,281.5313 Q1227.4063,281.6875 1227.9688,281.9844 L1227.9688,284.7031 Q1227.3438,284.125 1226.75,283.8594 Q1226.1563,283.5781 1225.5313,283.5781 Q1224.1875,283.5781 1223.5,284.6563 Q1222.8125,285.7188 1222.8125,287.8125 Q1222.8125,289.9063 1223.5,290.9844 Q1224.1875,292.0469 1225.5313,292.0469 Q1226.1563,292.0469 1226.75,291.7813 Q1227.3438,291.5 1227.9688,290.9219 L1227.9688,293.6406 Z " fill="#000000"/><text fill="#000000" font-family="sans-serif" font-size="12" lengthAdjust="spacing" textLength="112" x="1239" y="292.1543">HealthInformation</text><line style="stroke:#A80036;stroke-width:1.5;" x1="1211" x2="1353" y1="304" y2="304"/><!--MD5=[da547346deef918ea16944ba046651ef]
class Administrator--><rect codeLine="37" fill="#FEFECE" filter="url(#ft5422mv3pm63)" height="40" id="Administrator" style="stroke:#A80036;stroke-width:1.5;" width="116" x="7" y="553"/><ellipse cx="22" cy="569" fill="#ADD1B2" rx="11" ry="11" style="stroke:#A80036;stroke-width:1.0;"/><path d="M24.9688,574.6406 Q24.3906,574.9375 23.75,575.0781 Q23.1094,575.2344 22.4063,575.2344 Q19.9063,575.2344 18.5781,573.5938 Q17.2656,571.9375 17.2656,568.8125 Q17.2656,565.6875 18.5781,564.0313 Q19.9063,562.375 22.4063,562.375 Q23.1094,562.375 23.75,562.5313 Q24.4063,562.6875 24.9688,562.9844 L24.9688,565.7031 Q24.3438,565.125 23.75,564.8594 Q23.1563,564.5781 22.5313,564.5781 Q21.1875,564.5781 20.5,565.6563 Q19.8125,566.7188 19.8125,568.8125 Q19.8125,570.9063 20.5,571.9844 Q21.1875,573.0469 22.5313,573.0469 Q23.1563,573.0469 23.75,572.7813 Q24.3438,572.5 24.9688,571.9219 L24.9688,574.6406 Z " fill="#000000"/><text fill="#000000" font-family="sans-serif" font-size="12" lengthAdjust="spacing" textLength="84" x="36" y="573.1543">Administrator</text><line style="stroke:#A80036;stroke-width:1.5;" x1="8" x2="122" y1="585" y2="585"/><!--MD5=[7421f545a0d8420c5bec41e74b387d9c]
class Employee--><rect codeLine="39" fill="#FEFECE" filter="url(#ft5422mv3pm63)" height="40" id="Employee" style="stroke:#A80036;stroke-width:1.5;" width="92" x="254" y="155"/><ellipse cx="269" cy="171" fill="#ADD1B2" rx="11" ry="11" style="stroke:#A80036;stroke-width:1.0;"/><path d="M271.9688,176.6406 Q271.3906,176.9375 270.75,177.0781 Q270.1094,177.2344 269.4063,177.2344 Q266.9063,177.2344 265.5781,175.5938 Q264.2656,173.9375 264.2656,170.8125 Q264.2656,167.6875 265.5781,166.0313 Q266.9063,164.375 269.4063,164.375 Q270.1094,164.375 270.75,164.5313 Q271.4063,164.6875 271.9688,164.9844 L271.9688,167.7031 Q271.3438,167.125 270.75,166.8594 Q270.1563,166.5781 269.5313,166.5781 Q268.1875,166.5781 267.5,167.6563 Q266.8125,168.7188 266.8125,170.8125 Q266.8125,172.9063 267.5,173.9844 Q268.1875,175.0469 269.5313,175.0469 Q270.1563,175.0469 270.75,174.7813 Q271.3438,174.5 271.9688,173.9219 L271.9688,176.6406 Z " fill="#000000"/><text fill="#000000" font-family="sans-serif" font-size="12" lengthAdjust="spacing" textLength="60" x="283" y="175.1543">Employee</text><line style="stroke:#A80036;stroke-width:1.5;" x1="255" x2="345" y1="187" y2="187"/><!--MD5=[a059576e163b46f56762f12600c49258]
class Nurse--><rect codeLine="41" fill="#FEFECE" filter="url(#ft5422mv3pm63)" height="40" id="Nurse" style="stroke:#A80036;stroke-width:1.5;" width="69" x="1559" y="163"/><ellipse cx="1574" cy="179" fill="#ADD1B2" rx="11" ry="11" style="stroke:#A80036;stroke-width:1.0;"/><path d="M1576.9688,184.6406 Q1576.3906,184.9375 1575.75,185.0781 Q1575.1094,185.2344 1574.4063,185.2344 Q1571.9063,185.2344 1570.5781,183.5938 Q1569.2656,181.9375 1569.2656,178.8125 Q1569.2656,175.6875 1570.5781,174.0313 Q1571.9063,172.375 1574.4063,172.375 Q1575.1094,172.375 1575.75,172.5313 Q1576.4063,172.6875 1576.9688,172.9844 L1576.9688,175.7031 Q1576.3438,175.125 1575.75,174.8594 Q1575.1563,174.5781 1574.5313,174.5781 Q1573.1875,174.5781 1572.5,175.6563 Q1571.8125,176.7188 1571.8125,178.8125 Q1571.8125,180.9063 1572.5,181.9844 Q1573.1875,183.0469 1574.5313,183.0469 Q1575.1563,183.0469 1575.75,182.7813 Q1576.3438,182.5 1576.9688,181.9219 L1576.9688,184.6406 Z " fill="#000000"/><text fill="#000000" font-family="sans-serif" font-size="12" lengthAdjust="spacing" textLength="37" x="1588" y="183.1543">Nurse</text><line style="stroke:#A80036;stroke-width:1.5;" x1="1560" x2="1627" y1="195" y2="195"/><!--MD5=[03960189e81aa2c066c762ffabbee709]
class Receptionist--><rect codeLine="43" fill="#FEFECE" filter="url(#ft5422mv3pm63)" height="40" id="Receptionist" style="stroke:#A80036;stroke-width:1.5;" width="110" x="407" y="256"/><ellipse cx="422" cy="272" fill="#ADD1B2" rx="11" ry="11" style="stroke:#A80036;stroke-width:1.0;"/><path d="M424.9688,277.6406 Q424.3906,277.9375 423.75,278.0781 Q423.1094,278.2344 422.4063,278.2344 Q419.9063,278.2344 418.5781,276.5938 Q417.2656,274.9375 417.2656,271.8125 Q417.2656,268.6875 418.5781,267.0313 Q419.9063,265.375 422.4063,265.375 Q423.1094,265.375 423.75,265.5313 Q424.4063,265.6875 424.9688,265.9844 L424.9688,268.7031 Q424.3438,268.125 423.75,267.8594 Q423.1563,267.5781 422.5313,267.5781 Q421.1875,267.5781 420.5,268.6563 Q419.8125,269.7188 419.8125,271.8125 Q419.8125,273.9063 420.5,274.9844 Q421.1875,276.0469 422.5313,276.0469 Q423.1563,276.0469 423.75,275.7813 Q424.3438,275.5 424.9688,274.9219 L424.9688,277.6406 Z " fill="#000000"/><text fill="#000000" font-family="sans-serif" font-size="12" lengthAdjust="spacing" textLength="78" x="436" y="276.1543">Receptionist</text><line style="stroke:#A80036;stroke-width:1.5;" x1="408" x2="516" y1="288" y2="288"/><!--MD5=[2d935fd2dd068a13da1ae531f9857c4f]
class CenterCoordinator--><rect codeLine="45" fill="#FEFECE" filter="url(#ft5422mv3pm63)" height="40" id="CenterCoordinator" style="stroke:#A80036;stroke-width:1.5;" width="148" x="1814.5" y="73"/><ellipse cx="1829.5" cy="89" fill="#ADD1B2" rx="11" ry="11" style="stroke:#A80036;stroke-width:1.0;"/><path d="M1832.4688,94.6406 Q1831.8906,94.9375 1831.25,95.0781 Q1830.6094,95.2344 1829.9063,95.2344 Q1827.4063,95.2344 1826.0781,93.5938 Q1824.7656,91.9375 1824.7656,88.8125 Q1824.7656,85.6875 1826.0781,84.0313 Q1827.4063,82.375 1829.9063,82.375 Q1830.6094,82.375 1831.25,82.5313 Q1831.9063,82.6875 1832.4688,82.9844 L1832.4688,85.7031 Q1831.8438,85.125 1831.25,84.8594 Q1830.6563,84.5781 1830.0313,84.5781 Q1828.6875,84.5781 1828,85.6563 Q1827.3125,86.7188 1827.3125,88.8125 Q1827.3125,90.9063 1828,91.9844 Q1828.6875,93.0469 1830.0313,93.0469 Q1830.6563,93.0469 1831.25,92.7813 Q1831.8438,92.5 1832.4688,91.9219 L1832.4688,94.6406 Z " fill="#000000"/><text fill="#000000" font-family="sans-serif" font-size="12" lengthAdjust="spacing" textLength="116" x="1843.5" y="93.1543">CenterCoordinator</text><line style="stroke:#A80036;stroke-width:1.5;" x1="1815.5" x2="1961.5" y1="105" y2="105"/><!--MD5=[c508b5b6bbe276ff5e2700b6641f837f]
class Appointment--><rect codeLine="47" fill="#FEFECE" filter="url(#ft5422mv3pm63)" height="52.8047" id="Appointment" style="stroke:#A80036;stroke-width:1.5;" width="112" x="1226" y="347.5"/><ellipse cx="1241" cy="363.5" fill="#ADD1B2" rx="11" ry="11" style="stroke:#A80036;stroke-width:1.0;"/><path d="M1243.9688,369.1406 Q1243.3906,369.4375 1242.75,369.5781 Q1242.1094,369.7344 1241.4063,369.7344 Q1238.9063,369.7344 1237.5781,368.0938 Q1236.2656,366.4375 1236.2656,363.3125 Q1236.2656,360.1875 1237.5781,358.5313 Q1238.9063,356.875 1241.4063,356.875 Q1242.1094,356.875 1242.75,357.0313 Q1243.4063,357.1875 1243.9688,357.4844 L1243.9688,360.2031 Q1243.3438,359.625 1242.75,359.3594 Q1242.1563,359.0781 1241.5313,359.0781 Q1240.1875,359.0781 1239.5,360.1563 Q1238.8125,361.2188 1238.8125,363.3125 Q1238.8125,365.4063 1239.5,366.4844 Q1240.1875,367.5469 1241.5313,367.5469 Q1242.1563,367.5469 1242.75,367.2813 Q1243.3438,367 1243.9688,366.4219 L1243.9688,369.1406 Z " fill="#000000"/><text fill="#000000" font-family="sans-serif" font-size="12" lengthAdjust="spacing" textLength="80" x="1255" y="367.6543">Appointment</text><line style="stroke:#A80036;stroke-width:1.5;" x1="1227" x2="1337" y1="379.5" y2="379.5"/><text fill="#000000" font-family="sans-serif" font-size="11" lengthAdjust="spacing" textLength="34" x="1232" y="393.7104">+date</text><!--MD5=[27b15205ea271c1a0133fe11fcedb921]
class AdministrationProccess--><rect codeLine="51" fill="#FEFECE" filter="url(#ft5422mv3pm63)" height="91.2188" id="AdministrationProccess" style="stroke:#A80036;stroke-width:1.5;" width="179" x="1799" y="538.5"/><ellipse cx="1814" cy="554.5" fill="#ADD1B2" rx="11" ry="11" style="stroke:#A80036;stroke-width:1.0;"/><path d="M1816.9688,560.1406 Q1816.3906,560.4375 1815.75,560.5781 Q1815.1094,560.7344 1814.4063,560.7344 Q1811.9063,560.7344 1810.5781,559.0938 Q1809.2656,557.4375 1809.2656,554.3125 Q1809.2656,551.1875 1810.5781,549.5313 Q1811.9063,547.875 1814.4063,547.875 Q1815.1094,547.875 1815.75,548.0313 Q1816.4063,548.1875 1816.9688,548.4844 L1816.9688,551.2031 Q1816.3438,550.625 1815.75,550.3594 Q1815.1563,550.0781 1814.5313,550.0781 Q1813.1875,550.0781 1812.5,551.1563 Q1811.8125,552.2188 1811.8125,554.3125 Q1811.8125,556.4063 1812.5,557.4844 Q1813.1875,558.5469 1814.5313,558.5469 Q1815.1563,558.5469 1815.75,558.2813 Q1816.3438,558 1816.9688,557.4219 L1816.9688,560.1406 Z " fill="#000000"/><text fill="#000000" font-family="sans-serif" font-size="12" lengthAdjust="spacing" textLength="147" x="1828" y="558.6543">AdministrationProccess</text><line style="stroke:#A80036;stroke-width:1.5;" x1="1800" x2="1977" y1="570.5" y2="570.5"/><text fill="#000000" font-family="sans-serif" font-size="11" lengthAdjust="spacing" textLength="65" x="1805" y="584.7104">+ageGroup</text><text fill="#000000" font-family="sans-serif" font-size="11" lengthAdjust="spacing" textLength="51" x="1805" y="597.5151">+dosage</text><text fill="#000000" font-family="sans-serif" font-size="11" lengthAdjust="spacing" textLength="65" x="1805" y="610.3198">+nOfDoses</text><text fill="#000000" font-family="sans-serif" font-size="11" lengthAdjust="spacing" textLength="136" x="1805" y="623.1245">+intervalBetweenDoses</text><!--MD5=[f8e092794d52bf9a252466252ae7bd1c]
class System--><rect codeLine="58" fill="#FEFECE" filter="url(#ft5422mv3pm63)" height="40" id="System" style="stroke:#A80036;stroke-width:1.5;" width="77" x="989.5" y="436"/><ellipse cx="1004.5" cy="452" fill="#ADD1B2" rx="11" ry="11" style="stroke:#A80036;stroke-width:1.0;"/><path d="M1007.4688,457.6406 Q1006.8906,457.9375 1006.25,458.0781 Q1005.6094,458.2344 1004.9063,458.2344 Q1002.4063,458.2344 1001.0781,456.5938 Q999.7656,454.9375 999.7656,451.8125 Q999.7656,448.6875 1001.0781,447.0313 Q1002.4063,445.375 1004.9063,445.375 Q1005.6094,445.375 1006.25,445.5313 Q1006.9063,445.6875 1007.4688,445.9844 L1007.4688,448.7031 Q1006.8438,448.125 1006.25,447.8594 Q1005.6563,447.5781 1005.0313,447.5781 Q1003.6875,447.5781 1003,448.6563 Q1002.3125,449.7188 1002.3125,451.8125 Q1002.3125,453.9063 1003,454.9844 Q1003.6875,456.0469 1005.0313,456.0469 Q1005.6563,456.0469 1006.25,455.7813 Q1006.8438,455.5 1007.4688,454.9219 L1007.4688,457.6406 Z " fill="#000000"/><text fill="#000000" font-family="sans-serif" font-size="12" lengthAdjust="spacing" textLength="45" x="1018.5" y="456.1543">System</text><line style="stroke:#A80036;stroke-width:1.5;" x1="990.5" x2="1065.5" y1="468" y2="468"/><!--MD5=[3d99830c51f2312653ffa5f597e45238]
class AGES--><rect codeLine="60" fill="#FEFECE" filter="url(#ft5422mv3pm63)" height="40" id="AGES" style="stroke:#A80036;stroke-width:1.5;" width="65" x="2154" y="355"/><ellipse cx="2169" cy="371" fill="#ADD1B2" rx="11" ry="11" style="stroke:#A80036;stroke-width:1.0;"/><path d="M2171.9688,376.6406 Q2171.3906,376.9375 2170.75,377.0781 Q2170.1094,377.2344 2169.4063,377.2344 Q2166.9063,377.2344 2165.5781,375.5938 Q2164.2656,373.9375 2164.2656,370.8125 Q2164.2656,367.6875 2165.5781,366.0313 Q2166.9063,364.375 2169.4063,364.375 Q2170.1094,364.375 2170.75,364.5313 Q2171.4063,364.6875 2171.9688,364.9844 L2171.9688,367.7031 Q2171.3438,367.125 2170.75,366.8594 Q2170.1563,366.5781 2169.5313,366.5781 Q2168.1875,366.5781 2167.5,367.6563 Q2166.8125,368.7188 2166.8125,370.8125 Q2166.8125,372.9063 2167.5,373.9844 Q2168.1875,375.0469 2169.5313,375.0469 Q2170.1563,375.0469 2170.75,374.7813 Q2171.3438,374.5 2171.9688,373.9219 L2171.9688,376.6406 Z " fill="#000000"/><text fill="#000000" font-family="sans-serif" font-size="12" lengthAdjust="spacing" textLength="33" x="2183" y="375.1543">AGES</text><line style="stroke:#A80036;stroke-width:1.5;" x1="2155" x2="2218" y1="387" y2="387"/><!--MD5=[f44bde12c85835f4e3e4c64f18a8c09c]
class ARS--><rect codeLine="62" fill="#FEFECE" filter="url(#ft5422mv3pm63)" height="40" id="ARS" style="stroke:#A80036;stroke-width:1.5;" width="56" x="2158.5" y="430"/><ellipse cx="2173.5" cy="446" fill="#ADD1B2" rx="11" ry="11" style="stroke:#A80036;stroke-width:1.0;"/><path d="M2176.4688,451.6406 Q2175.8906,451.9375 2175.25,452.0781 Q2174.6094,452.2344 2173.9063,452.2344 Q2171.4063,452.2344 2170.0781,450.5938 Q2168.7656,448.9375 2168.7656,445.8125 Q2168.7656,442.6875 2170.0781,441.0313 Q2171.4063,439.375 2173.9063,439.375 Q2174.6094,439.375 2175.25,439.5313 Q2175.9063,439.6875 2176.4688,439.9844 L2176.4688,442.7031 Q2175.8438,442.125 2175.25,441.8594 Q2174.6563,441.5781 2174.0313,441.5781 Q2172.6875,441.5781 2172,442.6563 Q2171.3125,443.7188 2171.3125,445.8125 Q2171.3125,447.9063 2172,448.9844 Q2172.6875,450.0469 2174.0313,450.0469 Q2174.6563,450.0469 2175.25,449.7813 Q2175.8438,449.5 2176.4688,448.9219 L2176.4688,451.6406 Z " fill="#000000"/><text fill="#000000" font-family="sans-serif" font-size="12" lengthAdjust="spacing" textLength="24" x="2187.5" y="450.1543">ARS</text><line style="stroke:#A80036;stroke-width:1.5;" x1="2159.5" x2="2213.5" y1="462" y2="462"/><!--MD5=[a44b39c29d2ca3f53df08ad7d6656013]
class ReadyUsersList--><rect fill="#FEFECE" filter="url(#ft5422mv3pm63)" height="40" id="ReadyUsersList" style="stroke:#A80036;stroke-width:1.5;" width="127" x="667.5" y="256"/><ellipse cx="682.5" cy="272" fill="#ADD1B2" rx="11" ry="11" style="stroke:#A80036;stroke-width:1.0;"/><path d="M685.4688,277.6406 Q684.8906,277.9375 684.25,278.0781 Q683.6094,278.2344 682.9063,278.2344 Q680.4063,278.2344 679.0781,276.5938 Q677.7656,274.9375 677.7656,271.8125 Q677.7656,268.6875 679.0781,267.0313 Q680.4063,265.375 682.9063,265.375 Q683.6094,265.375 684.25,265.5313 Q684.9063,265.6875 685.4688,265.9844 L685.4688,268.7031 Q684.8438,268.125 684.25,267.8594 Q683.6563,267.5781 683.0313,267.5781 Q681.6875,267.5781 681,268.6563 Q680.3125,269.7188 680.3125,271.8125 Q680.3125,273.9063 681,274.9844 Q681.6875,276.0469 683.0313,276.0469 Q683.6563,276.0469 684.25,275.7813 Q684.8438,275.5 685.4688,274.9219 L685.4688,277.6406 Z " fill="#000000"/><text fill="#000000" font-family="sans-serif" font-size="12" lengthAdjust="spacing" textLength="95" x="696.5" y="276.1543">ReadyUsersList</text><line style="stroke:#A80036;stroke-width:1.5;" x1="668.5" x2="793.5" y1="288" y2="288"/><!--MD5=[a2b7282dba5facf6f5bfc9eaf2edf494]
class ArrivedUsersList--><rect fill="#FEFECE" filter="url(#ft5422mv3pm63)" height="40" id="ArrivedUsersList" style="stroke:#A80036;stroke-width:1.5;" width="132" x="665" y="429"/><ellipse cx="680" cy="445" fill="#ADD1B2" rx="11" ry="11" style="stroke:#A80036;stroke-width:1.0;"/><path d="M682.9688,450.6406 Q682.3906,450.9375 681.75,451.0781 Q681.1094,451.2344 680.4063,451.2344 Q677.9063,451.2344 676.5781,449.5938 Q675.2656,447.9375 675.2656,444.8125 Q675.2656,441.6875 676.5781,440.0313 Q677.9063,438.375 680.4063,438.375 Q681.1094,438.375 681.75,438.5313 Q682.4063,438.6875 682.9688,438.9844 L682.9688,441.7031 Q682.3438,441.125 681.75,440.8594 Q681.1563,440.5781 680.5313,440.5781 Q679.1875,440.5781 678.5,441.6563 Q677.8125,442.7188 677.8125,444.8125 Q677.8125,446.9063 678.5,447.9844 Q679.1875,449.0469 680.5313,449.0469 Q681.1563,449.0469 681.75,448.7813 Q682.3438,448.5 682.9688,447.9219 L682.9688,450.6406 Z " fill="#000000"/><text fill="#000000" font-family="sans-serif" font-size="12" lengthAdjust="spacing" textLength="100" x="694" y="449.1543">ArrivedUsersList</text><line style="stroke:#A80036;stroke-width:1.5;" x1="666" x2="796" y1="461" y2="461"/><!--MD5=[38fc592cf59f287db359f48c1753826f]
class RecoveringUsersList--><rect fill="#FEFECE" filter="url(#ft5422mv3pm63)" height="40" id="RecoveringUsersList" style="stroke:#A80036;stroke-width:1.5;" width="158" x="652" y="149"/><ellipse cx="667" cy="165" fill="#ADD1B2" rx="11" ry="11" style="stroke:#A80036;stroke-width:1.0;"/><path d="M669.9688,170.6406 Q669.3906,170.9375 668.75,171.0781 Q668.1094,171.2344 667.4063,171.2344 Q664.9063,171.2344 663.5781,169.5938 Q662.2656,167.9375 662.2656,164.8125 Q662.2656,161.6875 663.5781,160.0313 Q664.9063,158.375 667.4063,158.375 Q668.1094,158.375 668.75,158.5313 Q669.4063,158.6875 669.9688,158.9844 L669.9688,161.7031 Q669.3438,161.125 668.75,160.8594 Q668.1563,160.5781 667.5313,160.5781 Q666.1875,160.5781 665.5,161.6563 Q664.8125,162.7188 664.8125,164.8125 Q664.8125,166.9063 665.5,167.9844 Q666.1875,169.0469 667.5313,169.0469 Q668.1563,169.0469 668.75,168.7813 Q669.3438,168.5 669.9688,167.9219 L669.9688,170.6406 Z " fill="#000000"/><text fill="#000000" font-family="sans-serif" font-size="12" lengthAdjust="spacing" textLength="126" x="681" y="169.1543">RecoveringUsersList</text><line style="stroke:#A80036;stroke-width:1.5;" x1="653" x2="809" y1="181" y2="181"/><!--MD5=[f1aa797bbb856f196dbabe5d61960c3a]
class VaccinationProcess--><rect fill="#FEFECE" filter="url(#ft5422mv3pm63)" height="40" id="VaccinationProcess" style="stroke:#A80036;stroke-width:1.5;" width="155" x="653.5" y="339"/><ellipse cx="668.5" cy="355" fill="#ADD1B2" rx="11" ry="11" style="stroke:#A80036;stroke-width:1.0;"/><path d="M671.4688,360.6406 Q670.8906,360.9375 670.25,361.0781 Q669.6094,361.2344 668.9063,361.2344 Q666.4063,361.2344 665.0781,359.5938 Q663.7656,357.9375 663.7656,354.8125 Q663.7656,351.6875 665.0781,350.0313 Q666.4063,348.375 668.9063,348.375 Q669.6094,348.375 670.25,348.5313 Q670.9063,348.6875 671.4688,348.9844 L671.4688,351.7031 Q670.8438,351.125 670.25,350.8594 Q669.6563,350.5781 669.0313,350.5781 Q667.6875,350.5781 667,351.6563 Q666.3125,352.7188 666.3125,354.8125 Q666.3125,356.9063 667,357.9844 Q667.6875,359.0469 669.0313,359.0469 Q669.6563,359.0469 670.25,358.7813 Q670.8438,358.5 671.4688,357.9219 L671.4688,360.6406 Z " fill="#000000"/><text fill="#000000" font-family="sans-serif" font-size="12" lengthAdjust="spacing" textLength="123" x="682.5" y="359.1543">VaccinationProcess</text><line style="stroke:#A80036;stroke-width:1.5;" x1="654.5" x2="807.5" y1="371" y2="371"/><!--MD5=[ade87be7d0bbac1c6123d2fb440b3468]
class SMS--><rect fill="#FEFECE" filter="url(#ft5422mv3pm63)" height="40" id="SMS" style="stroke:#A80036;stroke-width:1.5;" width="58" x="1253" y="436"/><ellipse cx="1268" cy="452" fill="#ADD1B2" rx="11" ry="11" style="stroke:#A80036;stroke-width:1.0;"/><path d="M1270.9688,457.6406 Q1270.3906,457.9375 1269.75,458.0781 Q1269.1094,458.2344 1268.4063,458.2344 Q1265.9063,458.2344 1264.5781,456.5938 Q1263.2656,454.9375 1263.2656,451.8125 Q1263.2656,448.6875 1264.5781,447.0313 Q1265.9063,445.375 1268.4063,445.375 Q1269.1094,445.375 1269.75,445.5313 Q1270.4063,445.6875 1270.9688,445.9844 L1270.9688,448.7031 Q1270.3438,448.125 1269.75,447.8594 Q1269.1563,447.5781 1268.5313,447.5781 Q1267.1875,447.5781 1266.5,448.6563 Q1265.8125,449.7188 1265.8125,451.8125 Q1265.8125,453.9063 1266.5,454.9844 Q1267.1875,456.0469 1268.5313,456.0469 Q1269.1563,456.0469 1269.75,455.7813 Q1270.3438,455.5 1270.9688,454.9219 L1270.9688,457.6406 Z " fill="#000000"/><text fill="#000000" font-family="sans-serif" font-size="12" lengthAdjust="spacing" textLength="26" x="1282" y="456.1543">SMS</text><line style="stroke:#A80036;stroke-width:1.5;" x1="1254" x2="1310" y1="468" y2="468"/><!--MD5=[3568623adf67b2630dce9e60c05bd02a]
link Vaccine to VaccineType--><path codeLine="64" d="M1634.02,614.03 C1685.48,632.29 1775.69,664.31 1833.46,684.82 " fill="none" id="Vaccine-VaccineType" style="stroke:#A80036;stroke-width:1.0;"/><polygon fill="#000000" points="1706.712,629.2389,1699.171,623.4437,1697.2049,628.983,1706.712,629.2389" style="stroke:#000000;stroke-width:1.0;"/><text fill="#000000" font-family="sans-serif" font-size="13" lengthAdjust="spacing" textLength="23" x="1711" y="632.0669">has</text><text fill="#000000" font-family="sans-serif" font-size="13" lengthAdjust="spacing" textLength="7" x="1642.1362" y="630.0787">*</text><text fill="#000000" font-family="sans-serif" font-size="13" lengthAdjust="spacing" textLength="8" x="1817.5265" y="695.2985">1</text><!--MD5=[6716344a46572fc99c27bf4e50ddbd3d]
reverse link Employee to Nurse--><path codeLine="66" d="M333.41,140.41 C363.48,112.2 411.02,77 461,77 C461,77 461,77 1283,77 C1388.36,77 1503.53,132.66 1558.98,163.31 " fill="none" id="Employee-backto-Nurse" style="stroke:#A80036;stroke-width:1.0;"/><polygon fill="none" points="338.11,145.6,318.97,154.69,328.26,135.65,338.11,145.6" style="stroke:#A80036;stroke-width:1.0;"/><!--MD5=[bfff716514ca687b645fe473c6e098a4]
reverse link Employee to Receptionist--><path codeLine="67" d="M350.2,206.06 C375.86,222.26 406.51,241.6 429.06,255.84 " fill="none" id="Employee-backto-Receptionist" style="stroke:#A80036;stroke-width:1.0;"/><polygon fill="none" points="346.17,211.79,332.99,195.2,353.64,199.95,346.17,211.79" style="stroke:#A80036;stroke-width:1.0;"/><!--MD5=[98f7f3dc8d9719d04ad14614c4ea123f]
reverse link Employee to CenterCoordinator--><path codeLine="68" d="M317.01,136.36 C340.56,86.48 389.62,6 461,6 C461,6 461,6 1594.5,6 C1687.89,6 1791.36,47.12 1846.9,72.82 " fill="none" id="Employee-backto-CenterCoordinator" style="stroke:#A80036;stroke-width:1.0;"/><polygon fill="none" points="323.27,139.53,308.74,154.95,310.48,133.83,323.27,139.53" style="stroke:#A80036;stroke-width:1.0;"/><!--MD5=[9c09d1db3efb59cb07492bc4345754ed]
reverse link VaccinationCenter to CommunityMassVaccinationCenter--><path codeLine="70" d="M1687.36,362.27 C1711.97,359.17 1738.93,355.76 1764.87,352.49 " fill="none" id="VaccinationCenter-backto-CommunityMassVaccinationCenter" style="stroke:#A80036;stroke-width:1.0;"/><polygon fill="none" points="1688.02,369.25,1667.3,364.81,1686.27,355.36,1688.02,369.25" style="stroke:#A80036;stroke-width:1.0;"/><!--MD5=[4d7f47162e377c4884c583baac9698b3]
reverse link VaccinationCenter to HealthCareCenter--><path codeLine="71" d="M1687.19,386.02 C1728.96,391.44 1777.5,397.73 1816.34,402.77 " fill="none" id="VaccinationCenter-backto-HealthCareCenter" style="stroke:#A80036;stroke-width:1.0;"/><polygon fill="none" points="1686.24,392.96,1667.3,383.44,1688.04,379.07,1686.24,392.96" style="stroke:#A80036;stroke-width:1.0;"/><!--MD5=[8d58cf1c2119791001cf5144e9295faa]
link VaccinationCenter to CenterCoordinator--><path codeLine="73" d="M1667.3,304.18 C1733.06,241.11 1825.61,152.36 1866.58,113.06 " fill="none" id="VaccinationCenter-CenterCoordinator" style="stroke:#A80036;stroke-width:1.0;"/><polygon fill="#000000" points="1705.6086,230.1055,1697.0463,234.2452,1701.1148,238.4874,1705.6086,230.1055" style="stroke:#000000;stroke-width:1.0;"/><text fill="#000000" font-family="sans-serif" font-size="13" lengthAdjust="spacing" textLength="23" x="1711" y="238.0669">has</text><text fill="#000000" font-family="sans-serif" font-size="13" lengthAdjust="spacing" textLength="8" x="1674.9584" y="310.1165">1</text><text fill="#000000" font-family="sans-serif" font-size="13" lengthAdjust="spacing" textLength="8" x="1851.29" y="132.8968">1</text><!--MD5=[85f06911c2f4dd592611bbf87a6e3e69]
link HealthCareCenter to AGES--><path codeLine="75" d="M1960.78,403.09 C2022.19,395.41 2107.96,384.69 2153.74,378.97 " fill="none" id="HealthCareCenter-AGES" style="stroke:#A80036;stroke-width:1.0;"/><polygon fill="#000000" points="2051.9614,373.9462,2042.6216,372.1519,2043.3507,377.9844,2051.9614,373.9462" style="stroke:#000000;stroke-width:1.0;"/><text fill="#000000" font-family="sans-serif" font-size="13" lengthAdjust="spacing" textLength="67" x="2056" y="379.0669">belongs to</text><text fill="#000000" font-family="sans-serif" font-size="13" lengthAdjust="spacing" textLength="7" x="1968.5948" y="415.0183">*</text><text fill="#000000" font-family="sans-serif" font-size="13" lengthAdjust="spacing" textLength="8" x="2138.1583" y="393.4163">1</text><!--MD5=[5b76ad4aea9bdf9551a08667802db279]
link HealthCareCenter to ARS--><path codeLine="76" d="M1960.78,421.15 C2024.24,429.3 2113.73,440.79 2158.2,446.49 " fill="none" id="HealthCareCenter-ARS" style="stroke:#A80036;stroke-width:1.0;"/><polygon fill="#000000" points="2051.9593,424.203,2043.362,420.1364,2042.6137,425.9664,2051.9593,424.203" style="stroke:#000000;stroke-width:1.0;"/><text fill="#000000" font-family="sans-serif" font-size="13" lengthAdjust="spacing" textLength="67" x="2056" y="428.0669">belongs to</text><text fill="#000000" font-family="sans-serif" font-size="13" lengthAdjust="spacing" textLength="7" x="1968.5948" y="434.9408">*</text><text fill="#000000" font-family="sans-serif" font-size="13" lengthAdjust="spacing" textLength="8" x="2142.3269" y="459.5456">1</text><!--MD5=[d139302f00cc62b984b6371d0fde1842]
link Appointment to VaccinationCenter--><path codeLine="78" d="M1338.33,374 C1389.02,374 1464.37,374 1519.88,374 " fill="none" id="Appointment-VaccinationCenter" style="stroke:#A80036;stroke-width:1.0;"/><polygon fill="#000000" points="1411.5,365.5664,1402.4549,362.6275,1402.4549,368.5053,1411.5,365.5664" style="stroke:#000000;stroke-width:1.0;"/><text fill="#000000" font-family="sans-serif" font-size="13" lengthAdjust="spacing" textLength="56" x="1415.5" y="370.0669">is held in</text><text fill="#000000" font-family="sans-serif" font-size="13" lengthAdjust="spacing" textLength="8" x="1346.0598" y="387.0489">1</text><text fill="#000000" font-family="sans-serif" font-size="13" lengthAdjust="spacing" textLength="8" x="1503.8754" y="386.8448">1</text><!--MD5=[6bee4428fa029b10117c8017dc752ad2]
link Appointment to Vaccine--><path codeLine="79" d="M1326.18,400.55 C1335.46,406.48 1345.13,412.84 1354,419 C1434.05,474.6 1524.78,545.85 1567.6,580 " fill="none" id="Appointment-Vaccine" style="stroke:#A80036;stroke-width:1.0;"/><polygon fill="#000000" points="1393.0128,436.5492,1387.5068,428.7946,1384.0003,433.512,1393.0128,436.5492" style="stroke:#000000;stroke-width:1.0;"/><text fill="#000000" font-family="sans-serif" font-size="13" lengthAdjust="spacing" textLength="91" x="1398" y="438.0669">has a specefic</text><text fill="#000000" font-family="sans-serif" font-size="13" lengthAdjust="spacing" textLength="8" x="1327.4716" y="420.5289">1</text><text fill="#000000" font-family="sans-serif" font-size="13" lengthAdjust="spacing" textLength="8" x="1550.8169" y="569.0083">1</text><!--MD5=[6c0a624e14e97e163e10eed5f7b8bb98]
link Appointment to Nurse--><path codeLine="80" d="M1337.98,347.3 C1380.51,325.93 1440.32,294.29 1490,262 C1518.07,243.76 1548.19,219.99 1568.46,203.31 " fill="none" id="Appointment-Nurse" style="stroke:#A80036;stroke-width:1.0;"/><polygon fill="#000000" points="1386.2595,256.2156,1395.4878,253.9157,1392.3735,248.9307,1386.2595,256.2156" style="stroke:#000000;stroke-width:1.0;"/><text fill="#000000" font-family="sans-serif" font-size="13" lengthAdjust="spacing" textLength="88" x="1399.5" y="258.0669">is assigned to</text><text fill="#000000" font-family="sans-serif" font-size="13" lengthAdjust="spacing" textLength="7" x="1345.9726" y="356.8089">*</text><text fill="#000000" font-family="sans-serif" font-size="13" lengthAdjust="spacing" textLength="8" x="1552.2925" y="223.2171">1</text><!--MD5=[154022eaa73d4e22b64241df49b8ea99]
link Receptionist to ReadyUsersList--><path codeLine="82" d="M517.03,276 C560.46,276 621.53,276 667.14,276 " fill="none" id="Receptionist-ReadyUsersList" style="stroke:#A80036;stroke-width:1.0;"/><polygon fill="#000000" points="557,267.5664,547.9549,264.6275,547.9549,270.5053,557,267.5664" style="stroke:#000000;stroke-width:1.0;"/><text fill="#000000" font-family="sans-serif" font-size="13" lengthAdjust="spacing" textLength="60" x="561" y="272.0669">manages</text><text fill="#000000" font-family="sans-serif" font-size="13" lengthAdjust="spacing" textLength="8" x="524.9622" y="289.0836">1</text><text fill="#000000" font-family="sans-serif" font-size="13" lengthAdjust="spacing" textLength="7" x="652.3515" y="288.9418">*</text><!--MD5=[6629afeb45f7b4337af60fd5beeec001]
link Receptionist to ArrivedUsersList--><path codeLine="83" d="M493.89,296.01 C545.23,329.28 647.55,395.58 698.98,428.9 " fill="none" id="Receptionist-ArrivedUsersList" style="stroke:#A80036;stroke-width:1.0;"/><polygon fill="#000000" points="556.1961,326.2853,550.2034,318.9003,547.0071,323.8332,556.1961,326.2853" style="stroke:#000000;stroke-width:1.0;"/><text fill="#000000" font-family="sans-serif" font-size="13" lengthAdjust="spacing" textLength="60" x="561" y="328.0669">manages</text><text fill="#000000" font-family="sans-serif" font-size="13" lengthAdjust="spacing" textLength="8" x="494.0827" y="316.1775">1</text><text fill="#000000" font-family="sans-serif" font-size="13" lengthAdjust="spacing" textLength="7" x="681.546" y="417.8789">*</text><!--MD5=[7af330a43427c71f376f8bb549e0d424]
link ReadyUsersList to SNSUser--><path codeLine="85" d="M771.27,296.18 C784.05,303.38 798.01,311.97 810,321 C824.81,332.16 823.14,342.28 840,350 C886.23,371.18 945.56,372.86 984.85,370.94 " fill="none" id="ReadyUsersList-SNSUser" style="stroke:#A80036;stroke-width:1.0;"/><polygon fill="#000000" points="849.7192,343.2183,842.153,337.4561,840.2111,343.0039,849.7192,343.2183" style="stroke:#000000;stroke-width:1.0;"/><text fill="#000000" font-family="sans-serif" font-size="13" lengthAdjust="spacing" textLength="100" x="854" y="346.0669">is composed by</text><text fill="#000000" font-family="sans-serif" font-size="13" lengthAdjust="spacing" textLength="8" x="773.4709" y="316.0506">1</text><text fill="#000000" font-family="sans-serif" font-size="13" lengthAdjust="spacing" textLength="7" x="970.1236" y="384.9126">*</text><!--MD5=[5f1ef68154a0c61aa74b1c253ff621bc]
link ArrivedUsersList to SNSUser--><path codeLine="86" d="M797.21,456.78 C843.2,459.55 905.23,457.7 955,436 C978.96,425.55 999.71,403.42 1012.69,387.03 " fill="none" id="ArrivedUsersList-SNSUser" style="stroke:#A80036;stroke-width:1.0;"/><polygon fill="#000000" points="849.757,426.0266,840.2464,426.0161,842.0566,431.6082,849.757,426.0266" style="stroke:#000000;stroke-width:1.0;"/><text fill="#000000" font-family="sans-serif" font-size="13" lengthAdjust="spacing" textLength="100" x="854" y="432.0669">is composed by</text><text fill="#000000" font-family="sans-serif" font-size="13" lengthAdjust="spacing" textLength="8" x="804.8892" y="470.5254">1</text><text fill="#000000" font-family="sans-serif" font-size="13" lengthAdjust="spacing" textLength="7" x="1000.1646" y="407.2033">*</text><!--MD5=[b7de56ac0dea6df6c3f252893e8d2aeb]
link RecoveringUsersList to SNSUser--><path codeLine="87" d="M794.95,189.01 C843.08,206.73 908.8,236.45 955,279 C974.06,296.56 968.55,308.98 985,329 C990.12,335.23 996.27,341.37 1002.26,346.83 " fill="none" id="RecoveringUsersList-SNSUser" style="stroke:#A80036;stroke-width:1.0;"/><polygon fill="#000000" points="848.9784,202.595,843.5616,194.7778,840.0012,199.4546,848.9784,202.595" style="stroke:#000000;stroke-width:1.0;"/><text fill="#000000" font-family="sans-serif" font-size="13" lengthAdjust="spacing" textLength="100" x="854" y="204.0669">is composed by</text><text fill="#000000" font-family="sans-serif" font-size="13" lengthAdjust="spacing" textLength="8" x="804.5603" y="209.1775">1</text><text fill="#000000" font-family="sans-serif" font-size="13" lengthAdjust="spacing" textLength="7" x="986.6708" y="335.7883">*</text><!--MD5=[0c84e11d4babe4bedf572314a7d130c3]
link ReadyUsersList to Nurse--><path codeLine="89" d="M794.58,269.24 C964.36,250.89 1429.6,200.61 1558.82,186.64 " fill="none" id="ReadyUsersList-Nurse" style="stroke:#A80036;stroke-width:1.0;"/><polygon fill="#000000" points="1111.029,221.1037,1120.3375,223.0536,1119.7059,217.2098,1111.029,221.1037" style="stroke:#000000;stroke-width:1.0;"/><text fill="#000000" font-family="sans-serif" font-size="13" lengthAdjust="spacing" textLength="44" x="1125" y="225.0669">checks</text><text fill="#000000" font-family="sans-serif" font-size="13" lengthAdjust="spacing" textLength="7" x="802.3361" y="281.4001">*</text><text fill="#000000" font-family="sans-serif" font-size="13" lengthAdjust="spacing" textLength="8" x="1542.8423" y="201.0182">1</text><!--MD5=[03a8bb6be670defb13a9c015fa3f901d]
link RecoveringUsersList to Nurse--><path codeLine="90" d="M810.26,170.27 C991.31,173.22 1433.16,180.41 1558.72,182.45 " fill="none" id="RecoveringUsersList-Nurse" style="stroke:#A80036;stroke-width:1.0;"/><polygon fill="#000000" points="1103.0007,167.485,1111.9967,170.5708,1112.0924,164.6937,1103.0007,167.485" style="stroke:#000000;stroke-width:1.0;"/><text fill="#000000" font-family="sans-serif" font-size="13" lengthAdjust="spacing" textLength="60" x="1117" y="172.0669">manages</text><text fill="#000000" font-family="sans-serif" font-size="13" lengthAdjust="spacing" textLength="7" x="817.8894" y="183.1515">*</text><text fill="#000000" font-family="sans-serif" font-size="13" lengthAdjust="spacing" textLength="8" x="1543.0852" y="177.9451">1</text><!--MD5=[8f7dd94d56b58fc07b233ccd3dd98f8c]
link Administrator to Employee--><path codeLine="92" d="M77.71,552.99 C117.49,485.05 247.11,263.64 287.12,195.29 " fill="none" id="Administrator-Employee" style="stroke:#A80036;stroke-width:1.0;"/><polygon fill="#000000" points="160.5261,291.2515,153.4201,297.5725,158.4926,300.5421,160.5261,291.2515" style="stroke:#000000;stroke-width:1.0;"/><text fill="#000000" font-family="sans-serif" font-size="13" lengthAdjust="spacing" textLength="56" x="167" y="300.0669">registers</text><text fill="#000000" font-family="sans-serif" font-size="13" lengthAdjust="spacing" textLength="8" x="72.2686" y="541.9953">1</text><text fill="#000000" font-family="sans-serif" font-size="13" lengthAdjust="spacing" textLength="7" x="275.5131" y="215.1915">*</text><!--MD5=[d497e8607f1e7b3d570c70d67196006d]
link Administrator to VaccinationCenter--><path codeLine="93" d="M123.36,555.99 C170.18,543.61 238.28,529 299,529 C299,529 299,529 1283,529 C1375.52,529 1409.26,552.17 1490,507 C1510.99,495.26 1529.1,477.27 1544,458.28 " fill="none" id="Administrator-VaccinationCenter" style="stroke:#A80036;stroke-width:1.0;"/><polygon fill="#000000" points="705.4882,520.2233,696.2628,517.912,696.6661,523.776,705.4882,520.2233" style="stroke:#000000;stroke-width:1.0;"/><text fill="#000000" font-family="sans-serif" font-size="13" lengthAdjust="spacing" textLength="56" x="709.5" y="525.0669">registers</text><text fill="#000000" font-family="sans-serif" font-size="13" lengthAdjust="spacing" textLength="8" x="130.9601" y="566.906">1</text><text fill="#000000" font-family="sans-serif" font-size="13" lengthAdjust="spacing" textLength="7" x="1532.4453" y="478.2379">*</text><!--MD5=[d0b477519989ed3601cd00d052224350]
link Administrator to VaccineType--><path codeLine="94" d="M85.41,593.18 C122.94,629.93 209.67,704 299,704 C299,704 299,704 1594.5,704 C1677.92,704 1774.71,704 1833.5,704 " fill="none" id="Administrator-VaccineType" style="stroke:#A80036;stroke-width:1.0;"/><polygon fill="#000000" points="869.99,695.8827,861.149,692.3774,860.7771,698.2435,869.99,695.8827" style="stroke:#000000;stroke-width:1.0;"/><text fill="#000000" font-family="sans-serif" font-size="13" lengthAdjust="spacing" textLength="60" x="874" y="700.0669">manages</text><text fill="#000000" font-family="sans-serif" font-size="13" lengthAdjust="spacing" textLength="8" x="82.0253" y="613.0506">1</text><text fill="#000000" font-family="sans-serif" font-size="13" lengthAdjust="spacing" textLength="7" x="1818.6391" y="717.0558">*</text><!--MD5=[0e439f75a3d966f965fe5f237a1bacbe]
link Administrator to Vaccine--><path codeLine="95" d="M123.39,589.62 C170.22,601.73 238.33,616 299,616 C299,616 299,616 1283,616 C1380.12,616 1494.15,608.05 1552.96,603.35 " fill="none" id="Administrator-Vaccine" style="stroke:#A80036;stroke-width:1.0;"/><polygon fill="#000000" points="703.4998,607.6144,694.4833,604.5888,694.4269,610.4663,703.4998,607.6144" style="stroke:#000000;stroke-width:1.0;"/><text fill="#000000" font-family="sans-serif" font-size="13" lengthAdjust="spacing" textLength="60" x="707.5" y="612.0669">manages</text><text fill="#000000" font-family="sans-serif" font-size="13" lengthAdjust="spacing" textLength="8" x="130.9938" y="604.6346">1</text><text fill="#000000" font-family="sans-serif" font-size="13" lengthAdjust="spacing" textLength="7" x="1538.1154" y="617.3614">*</text><!--MD5=[3cf8f5da51a8c3754031a5f60407502a]
link VaccinationProcess to DGS--><path codeLine="97" d="M790.74,338.98 C806.61,333.99 823.87,328.95 840,325 C895.72,311.37 962.09,301.03 998.88,295.79 " fill="none" id="VaccinationProcess-DGS" style="stroke:#A80036;stroke-width:1.0;"/><polygon fill="#000000" points="860.1043,296.5823,869.5578,297.6222,868.3636,291.8669,860.1043,296.5823" style="stroke:#000000;stroke-width:1.0;"/><text fill="#000000" font-family="sans-serif" font-size="13" lengthAdjust="spacing" textLength="60" x="874" y="300.0669">manages</text><!--MD5=[6f6c36201108bbf1b0834661bcc166ce]
link VaccinationProcess to SNSUser--><path codeLine="98" d="M770.87,379.11 C790.94,388.37 816.16,398.33 840,403 C890.16,412.83 905.26,414.74 955,403 C968.74,399.76 982.84,393.47 994.89,387.04 " fill="none" id="VaccinationProcess-SNSUser" style="stroke:#A80036;stroke-width:1.0;"/><polygon fill="#000000" points="862.0031,394.3895,870.9386,397.6466,871.1465,391.7724,862.0031,394.3895" style="stroke:#000000;stroke-width:1.0;"/><text fill="#000000" font-family="sans-serif" font-size="13" lengthAdjust="spacing" textLength="56" x="876" y="399.0669">is part of</text><!--MD5=[3f8bc51bb69ce45c3e3ea0b764df71f1]
link SNSUser to Appointment--><path codeLine="100" d="M1071.18,368.17 C1113.63,369.35 1179.32,371.18 1225.88,372.47 " fill="none" id="SNSUser-Appointment" style="stroke:#A80036;stroke-width:1.0;"/><polygon fill="#000000" points="1110.9981,361.7053,1102.0381,358.5162,1101.8748,364.3918,1110.9981,361.7053" style="stroke:#000000;stroke-width:1.0;"/><text fill="#000000" font-family="sans-serif" font-size="13" lengthAdjust="spacing" textLength="64" x="1115" y="366.0669">schedules</text><text fill="#000000" font-family="sans-serif" font-size="13" lengthAdjust="spacing" textLength="7" x="1078.9114" y="381.6839">*</text><text fill="#000000" font-family="sans-serif" font-size="13" lengthAdjust="spacing" textLength="8" x="1210.1771" y="385.3228">1</text><!--MD5=[107bf5e015911cb4bbdc32c2d684b6f4]
link SNSUser to HealthInformation--><path codeLine="101" d="M1071.24,354.02 C1081.01,351.03 1091.36,347.89 1101,345 C1137.66,334 1178.59,321.93 1212.14,312.1 " fill="none" id="SNSUser-HealthInformation" style="stroke:#A80036;stroke-width:1.0;"/><polygon fill="#000000" points="1131.2924,312.1406,1121.7848,311.903,1123.4609,317.5368,1131.2924,312.1406" style="stroke:#000000;stroke-width:1.0;"/><text fill="#000000" font-family="sans-serif" font-size="13" lengthAdjust="spacing" textLength="23" x="1135.5" y="318.0669">has</text><text fill="#000000" font-family="sans-serif" font-size="13" lengthAdjust="spacing" textLength="8" x="1079.0641" y="365.1903">1</text><text fill="#000000" font-family="sans-serif" font-size="13" lengthAdjust="spacing" textLength="8" x="1194.2151" y="327.8846">1</text><!--MD5=[ecd3d453b1d839a2865736a7db6ad3ae]
link Vaccine to AdministrationProccess--><path codeLine="103" d="M1634.02,597.84 C1676.03,595.55 1743.87,591.84 1798.8,588.84 " fill="none" id="Vaccine-AdministrationProccess" style="stroke:#A80036;stroke-width:1.0;"/><polygon fill="#000000" points="1706.9926,583.2937,1697.8007,580.8525,1698.1212,586.7216,1706.9926,583.2937" style="stroke:#000000;stroke-width:1.0;"/><text fill="#000000" font-family="sans-serif" font-size="13" lengthAdjust="spacing" textLength="23" x="1711" y="588.0669">has</text><text fill="#000000" font-family="sans-serif" font-size="13" lengthAdjust="spacing" textLength="8" x="1641.9501" y="610.8699">1</text><text fill="#000000" font-family="sans-serif" font-size="13" lengthAdjust="spacing" textLength="7" x="1784.0819" y="601.9252">*</text><!--MD5=[e4e5f9e5ef549da7610bbbb5b1483240]
link System to SMS--><path codeLine="105" d="M1066.64,462.23 C1077.68,463.78 1089.79,465.23 1101,466 C1154.7,469.71 1217.5,463.92 1252.92,459.72 " fill="none" id="System-SMS" style="stroke:#A80036;stroke-width:1.0;"/><polygon fill="#000000" points="1123.9995,457.499,1114.9157,454.6822,1114.9949,460.5596,1123.9995,457.499" style="stroke:#000000;stroke-width:1.0;"/><text fill="#000000" font-family="sans-serif" font-size="13" lengthAdjust="spacing" textLength="38" x="1128" y="462.0669">sends</text><!--MD5=[42478db727d6eff3ba72ee5725f9b2ca]
link SNSUser to SMS--><path codeLine="106" d="M1071.04,385.16 C1080.82,389.21 1091.23,393.37 1101,397 C1154.02,416.7 1217.05,436.56 1252.7,447.48 " fill="none" id="SNSUser-SMS" style="stroke:#A80036;stroke-width:1.0;"/><polygon fill="#000000" points="1106.7706,386.9439,1114.3725,392.6589,1116.2799,387.0991,1106.7706,386.9439" style="stroke:#000000;stroke-width:1.0;"/><text fill="#000000" font-family="sans-serif" font-size="13" lengthAdjust="spacing" textLength="53" x="1120.5" y="393.0669">receives</text><!--MD5=[59b8688b1d90f5e30a4cdddcfda01d6e]
@startuml

hide methods
left to right direction
skinparam classAttributeIconSize 0

class CommunityMassVaccinationCenter {}

class HealthCareCenter {}

class VaccinationCenter {
  + name
  + address
  + phone
  + email
  + fax
  + website
  + openingHours
  + closingHours
  + slotDuration
  + nOfVaccinesPerSlot
}

class Vaccine {}

class VaccineType {
    + id
    + designation
    + whoid
}

class DGS {}

class SNSUser {}

class HealthInformation {}

class Administrator {}

class Employee {}

class Nurse {}

class Receptionist {}

class CenterCoordinator {}

class Appointment {
  + date
}

class AdministrationProccess {
  + ageGroup
  + dosage
  + nOfDoses
  + intervalBetweenDoses
}

class System {}

class AGES {}

class ARS {}

Vaccine "*" - - "1" VaccineType : has >

Employee <|- - Nurse
Employee <|- - Receptionist
Employee <|- - CenterCoordinator

VaccinationCenter <|- - CommunityMassVaccinationCenter
VaccinationCenter <|- - HealthCareCenter

VaccinationCenter "1" - - "1" CenterCoordinator : has >

HealthCareCenter "*" - - "1" AGES : belongs to > 
HealthCareCenter "*" - - "1" ARS : belongs to >

Appointment "1" - - "1" VaccinationCenter : is held in >
Appointment "1" - - "1" Vaccine : has a specefic >
Appointment "*" - - "1" Nurse : is assigned to <

Receptionist "1" - - "*" ReadyUsersList : manages >
Receptionist "1" - - "*" ArrivedUsersList : manages >

ReadyUsersList "1" - - "*" SNSUser : is composed by >
ArrivedUsersList "1" - - "*" SNSUser : is composed by > 
RecoveringUsersList "1" - - "*" SNSUser : is composed by >

ReadyUsersList "*" - - "1" Nurse : checks <
RecoveringUsersList "*" - - "1" Nurse : manages <

Administrator "1" - - "*" Employee : registers >
Administrator "1" - - "*" VaccinationCenter : registers >
Administrator "1" - - "*" VaccineType : manages >
Administrator "1" - - "*" Vaccine : manages >

VaccinationProcess - - DGS : manages <
VaccinationProcess - - SNSUser : is part of <

SNSUser "*" - - "1" Appointment : schedules >
SNSUser "1" - - "1" HealthInformation : has >

Vaccine "1" - - "*" AdministrationProccess : has >

System - - SMS : sends >
SNSUser - - SMS : receives <

@enduml

PlantUML version 1.2022.0(Tue Jan 11 16:16:42 WET 2022)
(GPL source distribution)
Java Runtime: Java(TM) SE Runtime Environment
JVM: Java HotSpot(TM) 64-Bit Server VM
Default Encoding: UTF-8
Language: en
Country: US
--></g></svg>