<?xml version="1.0" encoding="UTF-8" standalone="no"?><svg xmlns="http://www.w3.org/2000/svg" xmlns:xlink="http://www.w3.org/1999/xlink" contentScriptType="application/ecmascript" contentStyleType="text/css" height="269px" preserveAspectRatio="none" style="width:975px;height:269px;background:#FFFFFF;" version="1.1" viewBox="0 0 975 269" width="975px" zoomAndPan="magnify"><defs><filter height="300%" id="f1tg0x1wi6u39k" width="300%" x="-1" y="-1"><feGaussianBlur result="blurOut" stdDeviation="2.0"/><feColorMatrix in="blurOut" result="blurOut2" type="matrix" values="0 0 0 0 0 0 0 0 0 0 0 0 0 0 0 0 0 0 .4 0"/><feOffset dx="4.0" dy="4.0" in="blurOut2" result="blurOut3"/><feBlend in="SourceGraphic" in2="blurOut3" mode="normal"/></filter></defs><g><!--MD5=[99b8db98afdc2c8404e39242ef4c1e65]
class Platform--><rect codeLine="6" fill="#FEFECE" filter="url(#f1tg0x1wi6u39k)" height="53.8359" id="Platform" style="stroke:#A80036;stroke-width:1.5;" width="78" x="7" y="201.5"/><ellipse cx="22" cy="217.5" fill="#ADD1B2" rx="11" ry="11" style="stroke:#A80036;stroke-width:1.0;"/><path d="M24,214 Q24.2031,213.5 24.4375,213.25 Q24.6719,213 24.9375,213 Q25.4063,213 25.7031,213.2813 Q26,213.5625 26,214.2188 L26,215.7813 Q26,216.4375 25.7188,216.7188 Q25.4375,217 25,217 Q24.6094,217 24.3594,216.8281 Q24.1094,216.6563 24,216.2031 Q23.9531,215.8906 23.7813,215.7188 Q23.4688,215.3906 22.9063,215.2031 Q22.3438,215 21.7813,215 Q21.0781,215 20.4844,215.2813 Q19.9063,215.5625 19.4531,216.1875 Q19,216.8125 19,217.6719 L19,218.5938 Q19,219.625 19.8438,220.3125 Q20.6875,221 22.1875,221 Q23.0781,221 23.7031,220.7969 Q24.0625,220.6875 24.4688,220.3281 Q24.7344,220.125 24.875,220.0625 Q25.0156,220 25.1875,220 Q25.5156,220 25.75,220.2656 Q26,220.5156 26,220.875 Q26,221.2188 25.6563,221.625 Q25.1563,222.2188 24.3594,222.5469 Q23.3125,223 22.0313,223 Q20.5313,223 19.3281,222.4063 Q18.3594,221.9375 17.6719,220.9219 Q17,219.9063 17,218.7031 L17,217.6094 Q17,216.3594 17.5938,215.2656 Q18.2031,214.1719 19.25,213.5938 Q20.3125,213 21.5,213 Q22.2188,213 22.8438,213.25 Q23.4688,213.5 24,214 Z " fill="#000000"/><text fill="#000000" font-family="sans-serif" font-size="12" lengthAdjust="spacing" textLength="46" x="36" y="222.4102">Platform</text><line style="stroke:#A80036;stroke-width:1.5;" x1="8" x2="84" y1="233.5" y2="233.5"/><text fill="#000000" font-family="sans-serif" font-size="11" lengthAdjust="spacing" textLength="59" x="13" y="248.9189">-designation</text><!--MD5=[86c7c362de55a38b660185a1328fe18d]
class Organization--><rect codeLine="10" fill="#FEFECE" filter="url(#f1tg0x1wi6u39k)" height="109.1797" id="Organization" style="stroke:#A80036;stroke-width:1.5;" width="101" x="242" y="88"/><ellipse cx="257" cy="104" fill="#ADD1B2" rx="11" ry="11" style="stroke:#A80036;stroke-width:1.0;"/><path d="M259,100.5 Q259.2031,100 259.4375,99.75 Q259.6719,99.5 259.9375,99.5 Q260.4063,99.5 260.7031,99.7813 Q261,100.0625 261,100.7188 L261,102.2813 Q261,102.9375 260.7188,103.2188 Q260.4375,103.5 260,103.5 Q259.6094,103.5 259.3594,103.3281 Q259.1094,103.1563 259,102.7031 Q258.9531,102.3906 258.7813,102.2188 Q258.4688,101.8906 257.9063,101.7031 Q257.3438,101.5 256.7813,101.5 Q256.0781,101.5 255.4844,101.7813 Q254.9063,102.0625 254.4531,102.6875 Q254,103.3125 254,104.1719 L254,105.0938 Q254,106.125 254.8438,106.8125 Q255.6875,107.5 257.1875,107.5 Q258.0781,107.5 258.7031,107.2969 Q259.0625,107.1875 259.4688,106.8281 Q259.7344,106.625 259.875,106.5625 Q260.0156,106.5 260.1875,106.5 Q260.5156,106.5 260.75,106.7656 Q261,107.0156 261,107.375 Q261,107.7188 260.6563,108.125 Q260.1563,108.7188 259.3594,109.0469 Q258.3125,109.5 257.0313,109.5 Q255.5313,109.5 254.3281,108.9063 Q253.3594,108.4375 252.6719,107.4219 Q252,106.4063 252,105.2031 L252,104.1094 Q252,102.8594 252.5938,101.7656 Q253.2031,100.6719 254.25,100.0938 Q255.3125,99.5 256.5,99.5 Q257.2188,99.5 257.8438,99.75 Q258.4688,100 259,100.5 Z " fill="#000000"/><text fill="#000000" font-family="sans-serif" font-size="12" lengthAdjust="spacing" textLength="69" x="271" y="108.9102">Organization</text><line style="stroke:#A80036;stroke-width:1.5;" x1="243" x2="342" y1="120" y2="120"/><text fill="#000000" font-family="sans-serif" font-size="11" lengthAdjust="spacing" textLength="30" x="248" y="135.4189">-name</text><text fill="#000000" font-family="sans-serif" font-size="11" lengthAdjust="spacing" textLength="58" x="248" y="149.2549">-VatNumber</text><text fill="#000000" font-family="sans-serif" font-size="11" lengthAdjust="spacing" textLength="43" x="248" y="163.0908">-website</text><text fill="#000000" font-family="sans-serif" font-size="11" lengthAdjust="spacing" textLength="71" x="248" y="176.9268">-phoneNumber</text><text fill="#000000" font-family="sans-serif" font-size="11" lengthAdjust="spacing" textLength="28" x="248" y="190.7627">-email</text><!--MD5=[b34797a66dc35cbf1d65f7e3ca75530e]
class Task--><rect codeLine="18" fill="#FEFECE" filter="url(#f1tg0x1wi6u39k)" height="123.0156" id="Task" style="stroke:#A80036;stroke-width:1.5;" width="84" x="459" y="81"/><ellipse cx="485.25" cy="97" fill="#ADD1B2" rx="11" ry="11" style="stroke:#A80036;stroke-width:1.0;"/><path d="M487.25,93.5 Q487.4531,93 487.6875,92.75 Q487.9219,92.5 488.1875,92.5 Q488.6563,92.5 488.9531,92.7813 Q489.25,93.0625 489.25,93.7188 L489.25,95.2813 Q489.25,95.9375 488.9688,96.2188 Q488.6875,96.5 488.25,96.5 Q487.8594,96.5 487.6094,96.3281 Q487.3594,96.1563 487.25,95.7031 Q487.2031,95.3906 487.0313,95.2188 Q486.7188,94.8906 486.1563,94.7031 Q485.5938,94.5 485.0313,94.5 Q484.3281,94.5 483.7344,94.7813 Q483.1563,95.0625 482.7031,95.6875 Q482.25,96.3125 482.25,97.1719 L482.25,98.0938 Q482.25,99.125 483.0938,99.8125 Q483.9375,100.5 485.4375,100.5 Q486.3281,100.5 486.9531,100.2969 Q487.3125,100.1875 487.7188,99.8281 Q487.9844,99.625 488.125,99.5625 Q488.2656,99.5 488.4375,99.5 Q488.7656,99.5 489,99.7656 Q489.25,100.0156 489.25,100.375 Q489.25,100.7188 488.9063,101.125 Q488.4063,101.7188 487.6094,102.0469 Q486.5625,102.5 485.2813,102.5 Q483.7813,102.5 482.5781,101.9063 Q481.6094,101.4375 480.9219,100.4219 Q480.25,99.4063 480.25,98.2031 L480.25,97.1094 Q480.25,95.8594 480.8438,94.7656 Q481.4531,93.6719 482.5,93.0938 Q483.5625,92.5 484.75,92.5 Q485.4688,92.5 486.0938,92.75 Q486.7188,93 487.25,93.5 Z " fill="#000000"/><text fill="#000000" font-family="sans-serif" font-size="12" lengthAdjust="spacing" textLength="27" x="501.75" y="101.9102">Task</text><line style="stroke:#A80036;stroke-width:1.5;" x1="460" x2="542" y1="113" y2="113"/><text fill="#000000" font-family="sans-serif" font-size="11" lengthAdjust="spacing" textLength="52" x="465" y="128.4189">-reference</text><text fill="#000000" font-family="sans-serif" font-size="11" lengthAdjust="spacing" textLength="59" x="465" y="142.2549">-designation</text><text fill="#000000" font-family="sans-serif" font-size="11" lengthAdjust="spacing" textLength="67" x="465" y="156.0908">-informalDesc</text><text fill="#000000" font-family="sans-serif" font-size="11" lengthAdjust="spacing" textLength="72" x="465" y="169.9268">-technicalDesc</text><text fill="#000000" font-family="sans-serif" font-size="11" lengthAdjust="spacing" textLength="43" x="465" y="183.7627">-duration</text><text fill="#000000" font-family="sans-serif" font-size="11" lengthAdjust="spacing" textLength="25" x="465" y="197.5986">-cost</text><!--MD5=[a96594a83e2ecdc78cbf17c2ddf01934]
class Category--><rect codeLine="27" fill="#FEFECE" filter="url(#f1tg0x1wi6u39k)" height="67.6719" id="Category" style="stroke:#A80036;stroke-width:1.5;" width="81" x="693" y="181.5"/><ellipse cx="708" cy="197.5" fill="#ADD1B2" rx="11" ry="11" style="stroke:#A80036;stroke-width:1.0;"/><path d="M710,194 Q710.2031,193.5 710.4375,193.25 Q710.6719,193 710.9375,193 Q711.4063,193 711.7031,193.2813 Q712,193.5625 712,194.2188 L712,195.7813 Q712,196.4375 711.7188,196.7188 Q711.4375,197 711,197 Q710.6094,197 710.3594,196.8281 Q710.1094,196.6563 710,196.2031 Q709.9531,195.8906 709.7813,195.7188 Q709.4688,195.3906 708.9063,195.2031 Q708.3438,195 707.7813,195 Q707.0781,195 706.4844,195.2813 Q705.9063,195.5625 705.4531,196.1875 Q705,196.8125 705,197.6719 L705,198.5938 Q705,199.625 705.8438,200.3125 Q706.6875,201 708.1875,201 Q709.0781,201 709.7031,200.7969 Q710.0625,200.6875 710.4688,200.3281 Q710.7344,200.125 710.875,200.0625 Q711.0156,200 711.1875,200 Q711.5156,200 711.75,200.2656 Q712,200.5156 712,200.875 Q712,201.2188 711.6563,201.625 Q711.1563,202.2188 710.3594,202.5469 Q709.3125,203 708.0313,203 Q706.5313,203 705.3281,202.4063 Q704.3594,201.9375 703.6719,200.9219 Q703,199.9063 703,198.7031 L703,197.6094 Q703,196.3594 703.5938,195.2656 Q704.2031,194.1719 705.25,193.5938 Q706.3125,193 707.5,193 Q708.2188,193 708.8438,193.25 Q709.4688,193.5 710,194 Z " fill="#000000"/><text fill="#000000" font-family="sans-serif" font-size="12" lengthAdjust="spacing" textLength="49" x="722" y="202.4102">Category</text><line style="stroke:#A80036;stroke-width:1.5;" x1="694" x2="773" y1="213.5" y2="213.5"/><text fill="#000000" font-family="sans-serif" font-size="11" lengthAdjust="spacing" textLength="12" x="699" y="228.9189">-id</text><text fill="#000000" font-family="sans-serif" font-size="11" lengthAdjust="spacing" textLength="57" x="699" y="242.7549">-description</text><!--MD5=[7421f545a0d8420c5bec41e74b387d9c]
class Employee--><rect codeLine="32" fill="#FEFECE" filter="url(#f1tg0x1wi6u39k)" height="95.3438" id="Employee" style="stroke:#A80036;stroke-width:1.5;" width="87" x="690" y="7"/><ellipse cx="705" cy="23" fill="#ADD1B2" rx="11" ry="11" style="stroke:#A80036;stroke-width:1.0;"/><path d="M707,19.5 Q707.2031,19 707.4375,18.75 Q707.6719,18.5 707.9375,18.5 Q708.4063,18.5 708.7031,18.7813 Q709,19.0625 709,19.7188 L709,21.2813 Q709,21.9375 708.7188,22.2188 Q708.4375,22.5 708,22.5 Q707.6094,22.5 707.3594,22.3281 Q707.1094,22.1563 707,21.7031 Q706.9531,21.3906 706.7813,21.2188 Q706.4688,20.8906 705.9063,20.7031 Q705.3438,20.5 704.7813,20.5 Q704.0781,20.5 703.4844,20.7813 Q702.9063,21.0625 702.4531,21.6875 Q702,22.3125 702,23.1719 L702,24.0938 Q702,25.125 702.8438,25.8125 Q703.6875,26.5 705.1875,26.5 Q706.0781,26.5 706.7031,26.2969 Q707.0625,26.1875 707.4688,25.8281 Q707.7344,25.625 707.875,25.5625 Q708.0156,25.5 708.1875,25.5 Q708.5156,25.5 708.75,25.7656 Q709,26.0156 709,26.375 Q709,26.7188 708.6563,27.125 Q708.1563,27.7188 707.3594,28.0469 Q706.3125,28.5 705.0313,28.5 Q703.5313,28.5 702.3281,27.9063 Q701.3594,27.4375 700.6719,26.4219 Q700,25.4063 700,24.2031 L700,23.1094 Q700,21.8594 700.5938,20.7656 Q701.2031,19.6719 702.25,19.0938 Q703.3125,18.5 704.5,18.5 Q705.2188,18.5 705.8438,18.75 Q706.4688,19 707,19.5 Z " fill="#000000"/><text fill="#000000" font-family="sans-serif" font-size="12" lengthAdjust="spacing" textLength="55" x="719" y="27.9102">Employee</text><line style="stroke:#A80036;stroke-width:1.5;" x1="691" x2="776" y1="39" y2="39"/><text fill="#000000" font-family="sans-serif" font-size="11" lengthAdjust="spacing" textLength="30" x="696" y="54.4189">-name</text><text fill="#000000" font-family="sans-serif" font-size="11" lengthAdjust="spacing" textLength="43" x="696" y="68.2549">-function</text><text fill="#000000" font-family="sans-serif" font-size="11" lengthAdjust="spacing" textLength="34" x="696" y="82.0908">-phone</text><text fill="#000000" font-family="sans-serif" font-size="11" lengthAdjust="spacing" textLength="28" x="696" y="95.9268">-email</text><!--MD5=[3fd616f346a44cd59a91eb10b19e157c]
class User--><rect codeLine="39" fill="#FEFECE" filter="url(#f1tg0x1wi6u39k)" height="81.5078" id="User" style="stroke:#A80036;stroke-width:1.5;" width="66" x="895" y="13.5"/><ellipse cx="913.15" cy="29.5" fill="#ADD1B2" rx="11" ry="11" style="stroke:#A80036;stroke-width:1.0;"/><path d="M915.15,26 Q915.3531,25.5 915.5875,25.25 Q915.8219,25 916.0875,25 Q916.5563,25 916.8531,25.2813 Q917.15,25.5625 917.15,26.2188 L917.15,27.7813 Q917.15,28.4375 916.8688,28.7188 Q916.5875,29 916.15,29 Q915.7594,29 915.5094,28.8281 Q915.2594,28.6563 915.15,28.2031 Q915.1031,27.8906 914.9313,27.7188 Q914.6188,27.3906 914.0563,27.2031 Q913.4938,27 912.9313,27 Q912.2281,27 911.6344,27.2813 Q911.0563,27.5625 910.6031,28.1875 Q910.15,28.8125 910.15,29.6719 L910.15,30.5938 Q910.15,31.625 910.9938,32.3125 Q911.8375,33 913.3375,33 Q914.2281,33 914.8531,32.7969 Q915.2125,32.6875 915.6188,32.3281 Q915.8844,32.125 916.025,32.0625 Q916.1656,32 916.3375,32 Q916.6656,32 916.9,32.2656 Q917.15,32.5156 917.15,32.875 Q917.15,33.2188 916.8063,33.625 Q916.3063,34.2188 915.5094,34.5469 Q914.4625,35 913.1813,35 Q911.6813,35 910.4781,34.4063 Q909.5094,33.9375 908.8219,32.9219 Q908.15,31.9063 908.15,30.7031 L908.15,29.6094 Q908.15,28.3594 908.7438,27.2656 Q909.3531,26.1719 910.4,25.5938 Q911.4625,25 912.65,25 Q913.3688,25 913.9938,25.25 Q914.6188,25.5 915.15,26 Z " fill="#000000"/><text fill="#000000" font-family="sans-serif" font-size="12" lengthAdjust="spacing" textLength="27" x="927.85" y="34.4102">User</text><line style="stroke:#A80036;stroke-width:1.5;" x1="896" x2="960" y1="45.5" y2="45.5"/><text fill="#000000" font-family="sans-serif" font-size="11" lengthAdjust="spacing" textLength="30" x="901" y="60.9189">-name</text><text fill="#000000" font-family="sans-serif" font-size="11" lengthAdjust="spacing" textLength="28" x="901" y="74.7549">-email</text><text fill="#000000" font-family="sans-serif" font-size="11" lengthAdjust="spacing" textLength="54" x="901" y="88.5908">-password</text><!--MD5=[7640e466c042ba2d6f9c19c816f7f0fc]
link Platform to Organization--><path codeLine="45" d="M85.2,215.06 C127.38,200.23 195.41,176.3 241.73,160.01 " fill="none" id="Platform-Organization" style="stroke:#A80036;stroke-width:1.0;"/><polygon fill="#000000" points="124.7168,162.0169,115.209,162.2454,117.1591,167.7903,124.7168,162.0169" style="stroke:#000000;stroke-width:1.0;"/><text fill="#000000" font-family="sans-serif" font-size="13" lengthAdjust="spacing" textLength="82" x="129" y="168.9951">has registered</text><text fill="#000000" font-family="sans-serif" font-size="13" lengthAdjust="spacing" textLength="7" x="93.0728" y="208.6497">1</text><text fill="#000000" font-family="sans-serif" font-size="13" lengthAdjust="spacing" textLength="5" x="228.906" y="177.2645">*</text><!--MD5=[703fa85125a481a8c2c7961b0558245b]
link Platform to Category--><path codeLine="46" d="M85.28,228.19 C168.53,227.46 372.31,225.41 543,221.5 C594.83,220.31 654.61,218.32 692.94,216.95 " fill="none" id="Platform-Category" style="stroke:#A80036;stroke-width:1.0;"/><polygon fill="#000000" points="382.9991,214.5833,373.9013,211.8122,374.01,217.689,382.9991,214.5833" style="stroke:#000000;stroke-width:1.0;"/><text fill="#000000" font-family="sans-serif" font-size="13" lengthAdjust="spacing" textLength="41" x="387" y="219.9951">defines</text><text fill="#000000" font-family="sans-serif" font-size="13" lengthAdjust="spacing" textLength="7" x="92.9002" y="243.1008">1</text><text fill="#000000" font-family="sans-serif" font-size="13" lengthAdjust="spacing" textLength="5" x="680.0008" y="232.2501">*</text><!--MD5=[5bf6ad6f265206f365d5de493131e3f1]
link Organization to Employee--><path codeLine="47" d="M343.01,112.66 C374.94,95.02 418.01,74.11 459,63.5 C538.57,42.9 635.5,46.03 689.98,50.23 " fill="none" id="Organization-Employee" style="stroke:#A80036;stroke-width:1.0;"/><polygon fill="#000000" points="492.921,39.7904,483.4984,38.4996,484.5393,44.2846,492.921,39.7904" style="stroke:#000000;stroke-width:1.0;"/><text fill="#000000" font-family="sans-serif" font-size="13" lengthAdjust="spacing" textLength="21" x="497" y="45.9951">has</text><text fill="#000000" font-family="sans-serif" font-size="13" lengthAdjust="spacing" textLength="7" x="350.9427" y="122.96">1</text><text fill="#000000" font-family="sans-serif" font-size="13" lengthAdjust="spacing" textLength="20" x="662.1193" y="64.2735">1..*</text><!--MD5=[4078351e3988aa35b1504a42837f2ab1]
link Organization to Task--><path codeLine="48" d="M343.22,142.5 C378.55,142.5 425.43,142.5 458.7,142.5 " fill="none" id="Organization-Task" style="stroke:#A80036;stroke-width:1.0;"/><polygon fill="#000000" points="388.5,133.6758,379.4549,130.7369,379.4549,136.6147,388.5,133.6758" style="stroke:#000000;stroke-width:1.0;"/><text fill="#000000" font-family="sans-serif" font-size="13" lengthAdjust="spacing" textLength="30" x="392.5" y="138.9951">owns</text><text fill="#000000" font-family="sans-serif" font-size="13" lengthAdjust="spacing" textLength="7" x="350.8447" y="157.1322">1</text><text fill="#000000" font-family="sans-serif" font-size="13" lengthAdjust="spacing" textLength="5" x="446" y="157.399">*</text><!--MD5=[72b927552ac827a15e7a5b9d45c09cc3]
link Task to Employee--><path codeLine="49" d="M543.21,126.77 C584.52,111 647.83,86.82 689.7,70.84 " fill="none" id="Task-Employee" style="stroke:#A80036;stroke-width:1.0;"/><polygon fill="#000000" points="588.1711,71.8923,578.6727,72.373,580.7693,77.8642,588.1711,71.8923" style="stroke:#000000;stroke-width:1.0;"/><text fill="#000000" font-family="sans-serif" font-size="13" lengthAdjust="spacing" textLength="61" x="592.5" y="78.9951">created by</text><text fill="#000000" font-family="sans-serif" font-size="13" lengthAdjust="spacing" textLength="5" x="550.8945" y="138.9654">*</text><text fill="#000000" font-family="sans-serif" font-size="13" lengthAdjust="spacing" textLength="7" x="674.8659" y="88.3671">1</text><!--MD5=[22fb9506fac029fc1d2ae00f0eb8d606]
link Employee to User--><path codeLine="50" d="M777.22,54.5 C812.78,54.5 862.62,54.5 894.86,54.5 " fill="none" id="Employee-User" style="stroke:#A80036;stroke-width:1.0;"/><polygon fill="#000000" points="817,45.6758,807.9549,42.7369,807.9549,48.6147,817,45.6758" style="stroke:#000000;stroke-width:1.0;"/><text fill="#000000" font-family="sans-serif" font-size="13" lengthAdjust="spacing" textLength="43" x="821" y="50.9951">acts as</text><text fill="#000000" font-family="sans-serif" font-size="13" lengthAdjust="spacing" textLength="22" x="784.915" y="69.1207">0..1</text><text fill="#000000" font-family="sans-serif" font-size="13" lengthAdjust="spacing" textLength="7" x="879.845" y="69.8374">1</text><!--MD5=[85b93ec21fe3232efb6e895d06aa0361]
link Task to Category--><path codeLine="51" d="M543.21,155.55 C585.55,168.96 651.02,189.7 692.8,202.93 " fill="none" id="Task-Category" style="stroke:#A80036;stroke-width:1.0;"/><polygon fill="#000000" points="582.7666,158.1855,575.0311,152.6526,573.2563,158.2561,582.7666,158.1855" style="stroke:#000000;stroke-width:1.0;"/><text fill="#000000" font-family="sans-serif" font-size="13" lengthAdjust="spacing" textLength="72" x="587" y="161.9951">classified as</text><text fill="#000000" font-family="sans-serif" font-size="13" lengthAdjust="spacing" textLength="5" x="550.8945" y="172.692">*</text><text fill="#000000" font-family="sans-serif" font-size="13" lengthAdjust="spacing" textLength="7" x="677.9269" y="196.8216">1</text><!--MD5=[58f712f09cb8d9d46e485913baf5d140]
@startuml
hide methods
left to right direction
skinparam classAttributeIconSize 0


class Platform {
  -designation
}

class Organization {
  -name
  -VatNumber
  -website
  -phoneNumber
  -email
}

class Task {
  -reference
  -designation
  -informalDesc
  -technicalDesc
  -duration
  -cost
}

class Category {
  -id
  -description
}

class Employee {
  -name
  -function
  -phone
  -email
}

class User {
  -name
  -email
  -password
}

Platform "1" - - "*" Organization : has registered >
Platform "1" - - "*" Category : defines >
Organization "1" - - "1..*" Employee : has >
Organization "1" - - "*" Task: owns >
Task "*" - - "1" Employee: created by >
Employee "0..1" - - "1" User: acts as >
Task "*" - - "1" Category: classified as >



@enduml

PlantUML version 1.2022.1(Tue Feb 01 18:19:58 GMT 2022)
(GPL source distribution)
Java Runtime: OpenJDK Runtime Environment
JVM: OpenJDK 64-Bit Server VM
Default Encoding: Cp1252
Language: pt
Country: PT
--></g></svg>