<?xml version="1.0" encoding="UTF-8" standalone="no"?><svg xmlns="http://www.w3.org/2000/svg" xmlns:xlink="http://www.w3.org/1999/xlink" contentScriptType="application/ecmascript" contentStyleType="text/css" height="806px" preserveAspectRatio="none" style="width:2163px;height:806px;background:#FFFFFF;" version="1.1" viewBox="0 0 2163 806" width="2163px" zoomAndPan="magnify"><defs><filter height="300%" id="f1jpu1ohd05l0b" width="300%" x="-1" y="-1"><feGaussianBlur result="blurOut" stdDeviation="2.0"/><feColorMatrix in="blurOut" result="blurOut2" type="matrix" values="0 0 0 0 0 0 0 0 0 0 0 0 0 0 0 0 0 0 .4 0"/><feOffset dx="4.0" dy="4.0" in="blurOut2" result="blurOut3"/><feBlend in="SourceGraphic" in2="blurOut3" mode="normal"/></filter></defs><g><!--MD5=[56872536300a053cf9fd13853ad6ab1e]
class CommunityMassVaccinationCenter--><rect codeLine="6" fill="#FEFECE" filter="url(#f1jpu1ohd05l0b)" height="40" id="CommunityMassVaccinationCenter" style="stroke:#A80036;stroke-width:1.5;" width="225" x="1645" y="280.3564"/><ellipse cx="1660" cy="296.3564" fill="#ADD1B2" rx="11" ry="11" style="stroke:#A80036;stroke-width:1.0;"/><path d="M1662.7656,292.2314 Q1662.9219,292.0127 1663.1094,291.9033 Q1663.2969,291.7939 1663.5156,291.7939 Q1663.8906,291.7939 1664.125,292.0596 Q1664.3594,292.3096 1664.3594,292.9189 L1664.3594,294.3721 Q1664.3594,294.9814 1664.125,295.2471 Q1663.8906,295.5127 1663.5156,295.5127 Q1663.1719,295.5127 1662.9688,295.3096 Q1662.7656,295.1221 1662.6563,294.6064 Q1662.6094,294.2471 1662.4219,294.0596 Q1662.0938,293.6846 1661.4844,293.4658 Q1660.875,293.2471 1660.25,293.2471 Q1659.4844,293.2471 1658.8438,293.5752 Q1658.2188,293.9033 1657.7188,294.6533 Q1657.2344,295.4033 1657.2344,296.4346 L1657.2344,297.5283 Q1657.2344,298.7627 1658.125,299.5908 Q1659.0156,300.4033 1660.6094,300.4033 Q1661.5469,300.4033 1662.2031,300.1533 Q1662.5938,299.9971 1663.0156,299.5596 Q1663.2813,299.2939 1663.4219,299.2158 Q1663.5781,299.1377 1663.7813,299.1377 Q1664.1094,299.1377 1664.3594,299.4033 Q1664.625,299.6533 1664.625,299.9971 Q1664.625,300.3408 1664.2813,300.7471 Q1663.7813,301.3252 1662.9844,301.6533 Q1661.9063,302.1064 1660.6094,302.1064 Q1659.0938,302.1064 1657.8906,301.4814 Q1656.9063,300.9814 1656.2188,299.9189 Q1655.5313,298.8408 1655.5313,297.5596 L1655.5313,296.4033 Q1655.5313,295.0752 1656.1406,293.9346 Q1656.7656,292.7783 1657.8594,292.1689 Q1658.9531,291.5439 1660.1875,291.5439 Q1660.9219,291.5439 1661.5625,291.7158 Q1662.2188,291.8721 1662.7656,292.2314 Z " fill="#000000"/><text fill="#000000" font-family="sans-serif" font-size="12" lengthAdjust="spacing" textLength="193" x="1674" y="301.2666">CommunityMassVaccinationCenter</text><line style="stroke:#A80036;stroke-width:1.5;" x1="1646" x2="1869" y1="312.3564" y2="312.3564"/><!--MD5=[1db03e903fe0a044a2ca0dcbef10799a]
class HealthCareCenter--><rect codeLine="8" fill="#FEFECE" filter="url(#f1jpu1ohd05l0b)" height="40" id="HealthCareCenter" style="stroke:#A80036;stroke-width:1.5;" width="132" x="1691.5" y="355.3564"/><ellipse cx="1706.5" cy="371.3564" fill="#ADD1B2" rx="11" ry="11" style="stroke:#A80036;stroke-width:1.0;"/><path d="M1709.2656,367.2314 Q1709.4219,367.0127 1709.6094,366.9033 Q1709.7969,366.7939 1710.0156,366.7939 Q1710.3906,366.7939 1710.625,367.0596 Q1710.8594,367.3096 1710.8594,367.9189 L1710.8594,369.3721 Q1710.8594,369.9814 1710.625,370.2471 Q1710.3906,370.5127 1710.0156,370.5127 Q1709.6719,370.5127 1709.4688,370.3096 Q1709.2656,370.1221 1709.1563,369.6064 Q1709.1094,369.2471 1708.9219,369.0596 Q1708.5938,368.6846 1707.9844,368.4658 Q1707.375,368.2471 1706.75,368.2471 Q1705.9844,368.2471 1705.3438,368.5752 Q1704.7188,368.9033 1704.2188,369.6533 Q1703.7344,370.4033 1703.7344,371.4346 L1703.7344,372.5283 Q1703.7344,373.7627 1704.625,374.5908 Q1705.5156,375.4033 1707.1094,375.4033 Q1708.0469,375.4033 1708.7031,375.1533 Q1709.0938,374.9971 1709.5156,374.5596 Q1709.7813,374.2939 1709.9219,374.2158 Q1710.0781,374.1377 1710.2813,374.1377 Q1710.6094,374.1377 1710.8594,374.4033 Q1711.125,374.6533 1711.125,374.9971 Q1711.125,375.3408 1710.7813,375.7471 Q1710.2813,376.3252 1709.4844,376.6533 Q1708.4063,377.1064 1707.1094,377.1064 Q1705.5938,377.1064 1704.3906,376.4814 Q1703.4063,375.9814 1702.7188,374.9189 Q1702.0313,373.8408 1702.0313,372.5596 L1702.0313,371.4033 Q1702.0313,370.0752 1702.6406,368.9346 Q1703.2656,367.7783 1704.3594,367.1689 Q1705.4531,366.5439 1706.6875,366.5439 Q1707.4219,366.5439 1708.0625,366.7158 Q1708.7188,366.8721 1709.2656,367.2314 Z " fill="#000000"/><text fill="#000000" font-family="sans-serif" font-size="12" lengthAdjust="spacing" textLength="100" x="1720.5" y="376.2666">HealthCareCenter</text><line style="stroke:#A80036;stroke-width:1.5;" x1="1692.5" x2="1822.5" y1="387.3564" y2="387.3564"/><!--MD5=[de60e6d4f424ae4d0522096f76a59010]
class VaccinationCenter--><rect codeLine="10" fill="#FEFECE" filter="url(#f1jpu1ohd05l0b)" height="178.3594" id="VaccinationCenter" style="stroke:#A80036;stroke-width:1.5;" width="132" x="1417" y="187.3564"/><ellipse cx="1432" cy="203.3564" fill="#ADD1B2" rx="11" ry="11" style="stroke:#A80036;stroke-width:1.0;"/><path d="M1434.7656,199.2314 Q1434.9219,199.0127 1435.1094,198.9033 Q1435.2969,198.7939 1435.5156,198.7939 Q1435.8906,198.7939 1436.125,199.0596 Q1436.3594,199.3096 1436.3594,199.9189 L1436.3594,201.3721 Q1436.3594,201.9814 1436.125,202.2471 Q1435.8906,202.5127 1435.5156,202.5127 Q1435.1719,202.5127 1434.9688,202.3096 Q1434.7656,202.1221 1434.6563,201.6064 Q1434.6094,201.2471 1434.4219,201.0596 Q1434.0938,200.6846 1433.4844,200.4658 Q1432.875,200.2471 1432.25,200.2471 Q1431.4844,200.2471 1430.8438,200.5752 Q1430.2188,200.9033 1429.7188,201.6533 Q1429.2344,202.4033 1429.2344,203.4346 L1429.2344,204.5283 Q1429.2344,205.7627 1430.125,206.5908 Q1431.0156,207.4033 1432.6094,207.4033 Q1433.5469,207.4033 1434.2031,207.1533 Q1434.5938,206.9971 1435.0156,206.5596 Q1435.2813,206.2939 1435.4219,206.2158 Q1435.5781,206.1377 1435.7813,206.1377 Q1436.1094,206.1377 1436.3594,206.4033 Q1436.625,206.6533 1436.625,206.9971 Q1436.625,207.3408 1436.2813,207.7471 Q1435.7813,208.3252 1434.9844,208.6533 Q1433.9063,209.1064 1432.6094,209.1064 Q1431.0938,209.1064 1429.8906,208.4814 Q1428.9063,207.9814 1428.2188,206.9189 Q1427.5313,205.8408 1427.5313,204.5596 L1427.5313,203.4033 Q1427.5313,202.0752 1428.1406,200.9346 Q1428.7656,199.7783 1429.8594,199.1689 Q1430.9531,198.5439 1432.1875,198.5439 Q1432.9219,198.5439 1433.5625,198.7158 Q1434.2188,198.8721 1434.7656,199.2314 Z " fill="#000000"/><text fill="#000000" font-family="sans-serif" font-size="12" lengthAdjust="spacing" textLength="100" x="1446" y="208.2666">VaccinationCenter</text><line style="stroke:#A80036;stroke-width:1.5;" x1="1418" x2="1548" y1="219.3564" y2="219.3564"/><text fill="#000000" font-family="sans-serif" font-size="11" lengthAdjust="spacing" textLength="26" x="1423" y="234.7754">name</text><text fill="#000000" font-family="sans-serif" font-size="11" lengthAdjust="spacing" textLength="40" x="1423" y="248.6113">address</text><text fill="#000000" font-family="sans-serif" font-size="11" lengthAdjust="spacing" textLength="30" x="1423" y="262.4473">phone</text><text fill="#000000" font-family="sans-serif" font-size="11" lengthAdjust="spacing" textLength="24" x="1423" y="276.2832">email</text><text fill="#000000" font-family="sans-serif" font-size="11" lengthAdjust="spacing" textLength="16" x="1423" y="290.1191">fax</text><text fill="#000000" font-family="sans-serif" font-size="11" lengthAdjust="spacing" textLength="39" x="1423" y="303.9551">website</text><text fill="#000000" font-family="sans-serif" font-size="11" lengthAdjust="spacing" textLength="67" x="1423" y="317.791">openingHours</text><text fill="#000000" font-family="sans-serif" font-size="11" lengthAdjust="spacing" textLength="63" x="1423" y="331.627">closingHours</text><text fill="#000000" font-family="sans-serif" font-size="11" lengthAdjust="spacing" textLength="57" x="1423" y="345.4629">slotDuration</text><text fill="#000000" font-family="sans-serif" font-size="11" lengthAdjust="spacing" textLength="98" x="1423" y="359.2988">nOfVaccinesPerSlot</text><!--MD5=[19e445fc4d3b48519cbe33da05496394]
class Vaccine--><rect codeLine="23" fill="#FEFECE" filter="url(#f1jpu1ohd05l0b)" height="40" id="Vaccine" style="stroke:#A80036;stroke-width:1.5;" width="75" x="1445.5" y="608.3564"/><ellipse cx="1460.5" cy="624.3564" fill="#ADD1B2" rx="11" ry="11" style="stroke:#A80036;stroke-width:1.0;"/><path d="M1463.2656,620.2314 Q1463.4219,620.0127 1463.6094,619.9033 Q1463.7969,619.7939 1464.0156,619.7939 Q1464.3906,619.7939 1464.625,620.0596 Q1464.8594,620.3096 1464.8594,620.9189 L1464.8594,622.3721 Q1464.8594,622.9814 1464.625,623.2471 Q1464.3906,623.5127 1464.0156,623.5127 Q1463.6719,623.5127 1463.4688,623.3096 Q1463.2656,623.1221 1463.1563,622.6064 Q1463.1094,622.2471 1462.9219,622.0596 Q1462.5938,621.6846 1461.9844,621.4658 Q1461.375,621.2471 1460.75,621.2471 Q1459.9844,621.2471 1459.3438,621.5752 Q1458.7188,621.9033 1458.2188,622.6533 Q1457.7344,623.4033 1457.7344,624.4346 L1457.7344,625.5283 Q1457.7344,626.7627 1458.625,627.5908 Q1459.5156,628.4033 1461.1094,628.4033 Q1462.0469,628.4033 1462.7031,628.1533 Q1463.0938,627.9971 1463.5156,627.5596 Q1463.7813,627.2939 1463.9219,627.2158 Q1464.0781,627.1377 1464.2813,627.1377 Q1464.6094,627.1377 1464.8594,627.4033 Q1465.125,627.6533 1465.125,627.9971 Q1465.125,628.3408 1464.7813,628.7471 Q1464.2813,629.3252 1463.4844,629.6533 Q1462.4063,630.1064 1461.1094,630.1064 Q1459.5938,630.1064 1458.3906,629.4814 Q1457.4063,628.9814 1456.7188,627.9189 Q1456.0313,626.8408 1456.0313,625.5596 L1456.0313,624.4033 Q1456.0313,623.0752 1456.6406,621.9346 Q1457.2656,620.7783 1458.3594,620.1689 Q1459.4531,619.5439 1460.6875,619.5439 Q1461.4219,619.5439 1462.0625,619.7158 Q1462.7188,619.8721 1463.2656,620.2314 Z " fill="#000000"/><text fill="#000000" font-family="sans-serif" font-size="12" lengthAdjust="spacing" textLength="43" x="1474.5" y="629.2666">Vaccine</text><line style="stroke:#A80036;stroke-width:1.5;" x1="1446.5" x2="1519.5" y1="640.3564" y2="640.3564"/><!--MD5=[0e501da62322464167c8ec4d233a6b7e]
class VaccineType--><rect codeLine="25" fill="#FEFECE" filter="url(#f1jpu1ohd05l0b)" height="81.5078" id="VaccineType" style="stroke:#A80036;stroke-width:1.5;" width="101" x="1707" y="711.3564"/><ellipse cx="1722" cy="727.3564" fill="#ADD1B2" rx="11" ry="11" style="stroke:#A80036;stroke-width:1.0;"/><path d="M1724.7656,723.2314 Q1724.9219,723.0127 1725.1094,722.9033 Q1725.2969,722.7939 1725.5156,722.7939 Q1725.8906,722.7939 1726.125,723.0596 Q1726.3594,723.3096 1726.3594,723.9189 L1726.3594,725.3721 Q1726.3594,725.9814 1726.125,726.2471 Q1725.8906,726.5127 1725.5156,726.5127 Q1725.1719,726.5127 1724.9688,726.3096 Q1724.7656,726.1221 1724.6563,725.6064 Q1724.6094,725.2471 1724.4219,725.0596 Q1724.0938,724.6846 1723.4844,724.4658 Q1722.875,724.2471 1722.25,724.2471 Q1721.4844,724.2471 1720.8438,724.5752 Q1720.2188,724.9033 1719.7188,725.6533 Q1719.2344,726.4033 1719.2344,727.4346 L1719.2344,728.5283 Q1719.2344,729.7627 1720.125,730.5908 Q1721.0156,731.4033 1722.6094,731.4033 Q1723.5469,731.4033 1724.2031,731.1533 Q1724.5938,730.9971 1725.0156,730.5596 Q1725.2813,730.2939 1725.4219,730.2158 Q1725.5781,730.1377 1725.7813,730.1377 Q1726.1094,730.1377 1726.3594,730.4033 Q1726.625,730.6533 1726.625,730.9971 Q1726.625,731.3408 1726.2813,731.7471 Q1725.7813,732.3252 1724.9844,732.6533 Q1723.9063,733.1064 1722.6094,733.1064 Q1721.0938,733.1064 1719.8906,732.4814 Q1718.9063,731.9814 1718.2188,730.9189 Q1717.5313,729.8408 1717.5313,728.5596 L1717.5313,727.4033 Q1717.5313,726.0752 1718.1406,724.9346 Q1718.7656,723.7783 1719.8594,723.1689 Q1720.9531,722.5439 1722.1875,722.5439 Q1722.9219,722.5439 1723.5625,722.7158 Q1724.2188,722.8721 1724.7656,723.2314 Z " fill="#000000"/><text fill="#000000" font-family="sans-serif" font-size="12" lengthAdjust="spacing" textLength="69" x="1736" y="732.2666">VaccineType</text><line style="stroke:#A80036;stroke-width:1.5;" x1="1708" x2="1807" y1="743.3564" y2="743.3564"/><text fill="#000000" font-family="sans-serif" font-size="11" lengthAdjust="spacing" textLength="8" x="1713" y="758.7754">id</text><text fill="#000000" font-family="sans-serif" font-size="11" lengthAdjust="spacing" textLength="55" x="1713" y="772.6113">designation</text><text fill="#000000" font-family="sans-serif" font-size="11" lengthAdjust="spacing" textLength="30" x="1713" y="786.4473">whoid</text><!--MD5=[72be06cc7ae02ccc98efe28a50e62246]
class SNSUser--><rect codeLine="31" fill="#FEFECE" filter="url(#f1jpu1ohd05l0b)" height="40" id="SNSUser" style="stroke:#A80036;stroke-width:1.5;" width="84" x="916" y="379.3564"/><ellipse cx="931" cy="395.3564" fill="#ADD1B2" rx="11" ry="11" style="stroke:#A80036;stroke-width:1.0;"/><path d="M933.7656,391.2314 Q933.9219,391.0127 934.1094,390.9033 Q934.2969,390.7939 934.5156,390.7939 Q934.8906,390.7939 935.125,391.0596 Q935.3594,391.3096 935.3594,391.9189 L935.3594,393.3721 Q935.3594,393.9814 935.125,394.2471 Q934.8906,394.5127 934.5156,394.5127 Q934.1719,394.5127 933.9688,394.3096 Q933.7656,394.1221 933.6563,393.6064 Q933.6094,393.2471 933.4219,393.0596 Q933.0938,392.6846 932.4844,392.4658 Q931.875,392.2471 931.25,392.2471 Q930.4844,392.2471 929.8438,392.5752 Q929.2188,392.9033 928.7188,393.6533 Q928.2344,394.4033 928.2344,395.4346 L928.2344,396.5283 Q928.2344,397.7627 929.125,398.5908 Q930.0156,399.4033 931.6094,399.4033 Q932.5469,399.4033 933.2031,399.1533 Q933.5938,398.9971 934.0156,398.5596 Q934.2813,398.2939 934.4219,398.2158 Q934.5781,398.1377 934.7813,398.1377 Q935.1094,398.1377 935.3594,398.4033 Q935.625,398.6533 935.625,398.9971 Q935.625,399.3408 935.2813,399.7471 Q934.7813,400.3252 933.9844,400.6533 Q932.9063,401.1064 931.6094,401.1064 Q930.0938,401.1064 928.8906,400.4814 Q927.9063,399.9814 927.2188,398.9189 Q926.5313,397.8408 926.5313,396.5596 L926.5313,395.4033 Q926.5313,394.0752 927.1406,392.9346 Q927.7656,391.7783 928.8594,391.1689 Q929.9531,390.5439 931.1875,390.5439 Q931.9219,390.5439 932.5625,390.7158 Q933.2188,390.8721 933.7656,391.2314 Z " fill="#000000"/><text fill="#000000" font-family="sans-serif" font-size="12" lengthAdjust="spacing" textLength="52" x="945" y="400.2666">SNSUser</text><line style="stroke:#A80036;stroke-width:1.5;" x1="917" x2="999" y1="411.3564" y2="411.3564"/><!--MD5=[2bca2830cfb79d02238429900cdb12af]
class HealthInformation--><rect codeLine="33" fill="#FEFECE" filter="url(#f1jpu1ohd05l0b)" height="40" id="HealthInformation" style="stroke:#A80036;stroke-width:1.5;" width="130" x="1131" y="253.3564"/><ellipse cx="1146" cy="269.3564" fill="#ADD1B2" rx="11" ry="11" style="stroke:#A80036;stroke-width:1.0;"/><path d="M1148.7656,265.2314 Q1148.9219,265.0127 1149.1094,264.9033 Q1149.2969,264.7939 1149.5156,264.7939 Q1149.8906,264.7939 1150.125,265.0596 Q1150.3594,265.3096 1150.3594,265.9189 L1150.3594,267.3721 Q1150.3594,267.9814 1150.125,268.2471 Q1149.8906,268.5127 1149.5156,268.5127 Q1149.1719,268.5127 1148.9688,268.3096 Q1148.7656,268.1221 1148.6563,267.6064 Q1148.6094,267.2471 1148.4219,267.0596 Q1148.0938,266.6846 1147.4844,266.4658 Q1146.875,266.2471 1146.25,266.2471 Q1145.4844,266.2471 1144.8438,266.5752 Q1144.2188,266.9033 1143.7188,267.6533 Q1143.2344,268.4033 1143.2344,269.4346 L1143.2344,270.5283 Q1143.2344,271.7627 1144.125,272.5908 Q1145.0156,273.4033 1146.6094,273.4033 Q1147.5469,273.4033 1148.2031,273.1533 Q1148.5938,272.9971 1149.0156,272.5596 Q1149.2813,272.2939 1149.4219,272.2158 Q1149.5781,272.1377 1149.7813,272.1377 Q1150.1094,272.1377 1150.3594,272.4033 Q1150.625,272.6533 1150.625,272.9971 Q1150.625,273.3408 1150.2813,273.7471 Q1149.7813,274.3252 1148.9844,274.6533 Q1147.9063,275.1064 1146.6094,275.1064 Q1145.0938,275.1064 1143.8906,274.4814 Q1142.9063,273.9814 1142.2188,272.9189 Q1141.5313,271.8408 1141.5313,270.5596 L1141.5313,269.4033 Q1141.5313,268.0752 1142.1406,266.9346 Q1142.7656,265.7783 1143.8594,265.1689 Q1144.9531,264.5439 1146.1875,264.5439 Q1146.9219,264.5439 1147.5625,264.7158 Q1148.2188,264.8721 1148.7656,265.2314 Z " fill="#000000"/><text fill="#000000" font-family="sans-serif" font-size="12" lengthAdjust="spacing" textLength="98" x="1160" y="274.2666">HealthInformation</text><line style="stroke:#A80036;stroke-width:1.5;" x1="1132" x2="1260" y1="285.3564" y2="285.3564"/><!--MD5=[da547346deef918ea16944ba046651ef]
class Administrator--><rect codeLine="35" fill="#FEFECE" filter="url(#f1jpu1ohd05l0b)" height="40" id="Administrator" style="stroke:#A80036;stroke-width:1.5;" width="105" x="7" y="403.3564"/><ellipse cx="22" cy="419.3564" fill="#ADD1B2" rx="11" ry="11" style="stroke:#A80036;stroke-width:1.0;"/><path d="M24.7656,415.2314 Q24.9219,415.0127 25.1094,414.9033 Q25.2969,414.7939 25.5156,414.7939 Q25.8906,414.7939 26.125,415.0596 Q26.3594,415.3096 26.3594,415.9189 L26.3594,417.3721 Q26.3594,417.9814 26.125,418.2471 Q25.8906,418.5127 25.5156,418.5127 Q25.1719,418.5127 24.9688,418.3096 Q24.7656,418.1221 24.6563,417.6064 Q24.6094,417.2471 24.4219,417.0596 Q24.0938,416.6846 23.4844,416.4658 Q22.875,416.2471 22.25,416.2471 Q21.4844,416.2471 20.8438,416.5752 Q20.2188,416.9033 19.7188,417.6533 Q19.2344,418.4033 19.2344,419.4346 L19.2344,420.5283 Q19.2344,421.7627 20.125,422.5908 Q21.0156,423.4033 22.6094,423.4033 Q23.5469,423.4033 24.2031,423.1533 Q24.5938,422.9971 25.0156,422.5596 Q25.2813,422.2939 25.4219,422.2158 Q25.5781,422.1377 25.7813,422.1377 Q26.1094,422.1377 26.3594,422.4033 Q26.625,422.6533 26.625,422.9971 Q26.625,423.3408 26.2813,423.7471 Q25.7813,424.3252 24.9844,424.6533 Q23.9063,425.1064 22.6094,425.1064 Q21.0938,425.1064 19.8906,424.4814 Q18.9063,423.9814 18.2188,422.9189 Q17.5313,421.8408 17.5313,420.5596 L17.5313,419.4033 Q17.5313,418.0752 18.1406,416.9346 Q18.7656,415.7783 19.8594,415.1689 Q20.9531,414.5439 22.1875,414.5439 Q22.9219,414.5439 23.5625,414.7158 Q24.2188,414.8721 24.7656,415.2314 Z " fill="#000000"/><text fill="#000000" font-family="sans-serif" font-size="12" lengthAdjust="spacing" textLength="73" x="36" y="424.2666">Administrator</text><line style="stroke:#A80036;stroke-width:1.5;" x1="8" x2="111" y1="435.3564" y2="435.3564"/><!--MD5=[7421f545a0d8420c5bec41e74b387d9c]
class Employee--><rect codeLine="37" fill="#FEFECE" filter="url(#f1jpu1ohd05l0b)" height="40" id="Employee" style="stroke:#A80036;stroke-width:1.5;" width="87" x="237" y="224.3564"/><ellipse cx="252" cy="240.3564" fill="#ADD1B2" rx="11" ry="11" style="stroke:#A80036;stroke-width:1.0;"/><path d="M254.7656,236.2314 Q254.9219,236.0127 255.1094,235.9033 Q255.2969,235.7939 255.5156,235.7939 Q255.8906,235.7939 256.125,236.0596 Q256.3594,236.3096 256.3594,236.9189 L256.3594,238.3721 Q256.3594,238.9814 256.125,239.2471 Q255.8906,239.5127 255.5156,239.5127 Q255.1719,239.5127 254.9688,239.3096 Q254.7656,239.1221 254.6563,238.6064 Q254.6094,238.2471 254.4219,238.0596 Q254.0938,237.6846 253.4844,237.4658 Q252.875,237.2471 252.25,237.2471 Q251.4844,237.2471 250.8438,237.5752 Q250.2188,237.9033 249.7188,238.6533 Q249.2344,239.4033 249.2344,240.4346 L249.2344,241.5283 Q249.2344,242.7627 250.125,243.5908 Q251.0156,244.4033 252.6094,244.4033 Q253.5469,244.4033 254.2031,244.1533 Q254.5938,243.9971 255.0156,243.5596 Q255.2813,243.2939 255.4219,243.2158 Q255.5781,243.1377 255.7813,243.1377 Q256.1094,243.1377 256.3594,243.4033 Q256.625,243.6533 256.625,243.9971 Q256.625,244.3408 256.2813,244.7471 Q255.7813,245.3252 254.9844,245.6533 Q253.9063,246.1064 252.6094,246.1064 Q251.0938,246.1064 249.8906,245.4814 Q248.9063,244.9814 248.2188,243.9189 Q247.5313,242.8408 247.5313,241.5596 L247.5313,240.4033 Q247.5313,239.0752 248.1406,237.9346 Q248.7656,236.7783 249.8594,236.1689 Q250.9531,235.5439 252.1875,235.5439 Q252.9219,235.5439 253.5625,235.7158 Q254.2188,235.8721 254.7656,236.2314 Z " fill="#000000"/><text fill="#000000" font-family="sans-serif" font-size="12" lengthAdjust="spacing" textLength="55" x="266" y="245.2666">Employee</text><line style="stroke:#A80036;stroke-width:1.5;" x1="238" x2="323" y1="256.3564" y2="256.3564"/><!--MD5=[a059576e163b46f56762f12600c49258]
class Nurse--><rect codeLine="39" fill="#FEFECE" filter="url(#f1jpu1ohd05l0b)" height="40" id="Nurse" style="stroke:#A80036;stroke-width:1.5;" width="66" x="925" y="205.3564"/><ellipse cx="940" cy="221.3564" fill="#ADD1B2" rx="11" ry="11" style="stroke:#A80036;stroke-width:1.0;"/><path d="M942.7656,217.2314 Q942.9219,217.0127 943.1094,216.9033 Q943.2969,216.7939 943.5156,216.7939 Q943.8906,216.7939 944.125,217.0596 Q944.3594,217.3096 944.3594,217.9189 L944.3594,219.3721 Q944.3594,219.9814 944.125,220.2471 Q943.8906,220.5127 943.5156,220.5127 Q943.1719,220.5127 942.9688,220.3096 Q942.7656,220.1221 942.6563,219.6064 Q942.6094,219.2471 942.4219,219.0596 Q942.0938,218.6846 941.4844,218.4658 Q940.875,218.2471 940.25,218.2471 Q939.4844,218.2471 938.8438,218.5752 Q938.2188,218.9033 937.7188,219.6533 Q937.2344,220.4033 937.2344,221.4346 L937.2344,222.5283 Q937.2344,223.7627 938.125,224.5908 Q939.0156,225.4033 940.6094,225.4033 Q941.5469,225.4033 942.2031,225.1533 Q942.5938,224.9971 943.0156,224.5596 Q943.2813,224.2939 943.4219,224.2158 Q943.5781,224.1377 943.7813,224.1377 Q944.1094,224.1377 944.3594,224.4033 Q944.625,224.6533 944.625,224.9971 Q944.625,225.3408 944.2813,225.7471 Q943.7813,226.3252 942.9844,226.6533 Q941.9063,227.1064 940.6094,227.1064 Q939.0938,227.1064 937.8906,226.4814 Q936.9063,225.9814 936.2188,224.9189 Q935.5313,223.8408 935.5313,222.5596 L935.5313,221.4033 Q935.5313,220.0752 936.1406,218.9346 Q936.7656,217.7783 937.8594,217.1689 Q938.9531,216.5439 940.1875,216.5439 Q940.9219,216.5439 941.5625,216.7158 Q942.2188,216.8721 942.7656,217.2314 Z " fill="#000000"/><text fill="#000000" font-family="sans-serif" font-size="12" lengthAdjust="spacing" textLength="34" x="954" y="226.2666">Nurse</text><line style="stroke:#A80036;stroke-width:1.5;" x1="926" x2="990" y1="237.3564" y2="237.3564"/><!--MD5=[03960189e81aa2c066c762ffabbee709]
class Receptionist--><rect codeLine="41" fill="#FEFECE" filter="url(#f1jpu1ohd05l0b)" height="40" id="Receptionist" style="stroke:#A80036;stroke-width:1.5;" width="101" x="385" y="382.3564"/><ellipse cx="400" cy="398.3564" fill="#ADD1B2" rx="11" ry="11" style="stroke:#A80036;stroke-width:1.0;"/><path d="M402.7656,394.2314 Q402.9219,394.0127 403.1094,393.9033 Q403.2969,393.7939 403.5156,393.7939 Q403.8906,393.7939 404.125,394.0596 Q404.3594,394.3096 404.3594,394.9189 L404.3594,396.3721 Q404.3594,396.9814 404.125,397.2471 Q403.8906,397.5127 403.5156,397.5127 Q403.1719,397.5127 402.9688,397.3096 Q402.7656,397.1221 402.6563,396.6064 Q402.6094,396.2471 402.4219,396.0596 Q402.0938,395.6846 401.4844,395.4658 Q400.875,395.2471 400.25,395.2471 Q399.4844,395.2471 398.8438,395.5752 Q398.2188,395.9033 397.7188,396.6533 Q397.2344,397.4033 397.2344,398.4346 L397.2344,399.5283 Q397.2344,400.7627 398.125,401.5908 Q399.0156,402.4033 400.6094,402.4033 Q401.5469,402.4033 402.2031,402.1533 Q402.5938,401.9971 403.0156,401.5596 Q403.2813,401.2939 403.4219,401.2158 Q403.5781,401.1377 403.7813,401.1377 Q404.1094,401.1377 404.3594,401.4033 Q404.625,401.6533 404.625,401.9971 Q404.625,402.3408 404.2813,402.7471 Q403.7813,403.3252 402.9844,403.6533 Q401.9063,404.1064 400.6094,404.1064 Q399.0938,404.1064 397.8906,403.4814 Q396.9063,402.9814 396.2188,401.9189 Q395.5313,400.8408 395.5313,399.5596 L395.5313,398.4033 Q395.5313,397.0752 396.1406,395.9346 Q396.7656,394.7783 397.8594,394.1689 Q398.9531,393.5439 400.1875,393.5439 Q400.9219,393.5439 401.5625,393.7158 Q402.2188,393.8721 402.7656,394.2314 Z " fill="#000000"/><text fill="#000000" font-family="sans-serif" font-size="12" lengthAdjust="spacing" textLength="69" x="414" y="403.2666">Receptionist</text><line style="stroke:#A80036;stroke-width:1.5;" x1="386" x2="485" y1="414.3564" y2="414.3564"/><!--MD5=[2d935fd2dd068a13da1ae531f9857c4f]
class CenterCoordinator--><rect codeLine="43" fill="#FEFECE" filter="url(#f1jpu1ohd05l0b)" height="40" id="CenterCoordinator" style="stroke:#A80036;stroke-width:1.5;" width="134" x="1690.5" y="104.3564"/><ellipse cx="1705.5" cy="120.3564" fill="#ADD1B2" rx="11" ry="11" style="stroke:#A80036;stroke-width:1.0;"/><path d="M1708.2656,116.2314 Q1708.4219,116.0127 1708.6094,115.9033 Q1708.7969,115.7939 1709.0156,115.7939 Q1709.3906,115.7939 1709.625,116.0596 Q1709.8594,116.3096 1709.8594,116.9189 L1709.8594,118.3721 Q1709.8594,118.9814 1709.625,119.2471 Q1709.3906,119.5127 1709.0156,119.5127 Q1708.6719,119.5127 1708.4688,119.3096 Q1708.2656,119.1221 1708.1563,118.6064 Q1708.1094,118.2471 1707.9219,118.0596 Q1707.5938,117.6846 1706.9844,117.4658 Q1706.375,117.2471 1705.75,117.2471 Q1704.9844,117.2471 1704.3438,117.5752 Q1703.7188,117.9033 1703.2188,118.6533 Q1702.7344,119.4033 1702.7344,120.4346 L1702.7344,121.5283 Q1702.7344,122.7627 1703.625,123.5908 Q1704.5156,124.4033 1706.1094,124.4033 Q1707.0469,124.4033 1707.7031,124.1533 Q1708.0938,123.9971 1708.5156,123.5596 Q1708.7813,123.2939 1708.9219,123.2158 Q1709.0781,123.1377 1709.2813,123.1377 Q1709.6094,123.1377 1709.8594,123.4033 Q1710.125,123.6533 1710.125,123.9971 Q1710.125,124.3408 1709.7813,124.7471 Q1709.2813,125.3252 1708.4844,125.6533 Q1707.4063,126.1064 1706.1094,126.1064 Q1704.5938,126.1064 1703.3906,125.4814 Q1702.4063,124.9814 1701.7188,123.9189 Q1701.0313,122.8408 1701.0313,121.5596 L1701.0313,120.4033 Q1701.0313,119.0752 1701.6406,117.9346 Q1702.2656,116.7783 1703.3594,116.1689 Q1704.4531,115.5439 1705.6875,115.5439 Q1706.4219,115.5439 1707.0625,115.7158 Q1707.7188,115.8721 1708.2656,116.2314 Z " fill="#000000"/><text fill="#000000" font-family="sans-serif" font-size="12" lengthAdjust="spacing" textLength="102" x="1719.5" y="125.2666">CenterCoordinator</text><line style="stroke:#A80036;stroke-width:1.5;" x1="1691.5" x2="1823.5" y1="136.3564" y2="136.3564"/><!--MD5=[c508b5b6bbe276ff5e2700b6641f837f]
class Appointment--><rect codeLine="45" fill="#FEFECE" filter="url(#f1jpu1ohd05l0b)" height="53.8359" id="Appointment" style="stroke:#A80036;stroke-width:1.5;" width="101" x="1145.5" y="431.3564"/><ellipse cx="1160.5" cy="447.3564" fill="#ADD1B2" rx="11" ry="11" style="stroke:#A80036;stroke-width:1.0;"/><path d="M1163.2656,443.2314 Q1163.4219,443.0127 1163.6094,442.9033 Q1163.7969,442.7939 1164.0156,442.7939 Q1164.3906,442.7939 1164.625,443.0596 Q1164.8594,443.3096 1164.8594,443.9189 L1164.8594,445.3721 Q1164.8594,445.9814 1164.625,446.2471 Q1164.3906,446.5127 1164.0156,446.5127 Q1163.6719,446.5127 1163.4688,446.3096 Q1163.2656,446.1221 1163.1563,445.6064 Q1163.1094,445.2471 1162.9219,445.0596 Q1162.5938,444.6846 1161.9844,444.4658 Q1161.375,444.2471 1160.75,444.2471 Q1159.9844,444.2471 1159.3438,444.5752 Q1158.7188,444.9033 1158.2188,445.6533 Q1157.7344,446.4033 1157.7344,447.4346 L1157.7344,448.5283 Q1157.7344,449.7627 1158.625,450.5908 Q1159.5156,451.4033 1161.1094,451.4033 Q1162.0469,451.4033 1162.7031,451.1533 Q1163.0938,450.9971 1163.5156,450.5596 Q1163.7813,450.2939 1163.9219,450.2158 Q1164.0781,450.1377 1164.2813,450.1377 Q1164.6094,450.1377 1164.8594,450.4033 Q1165.125,450.6533 1165.125,450.9971 Q1165.125,451.3408 1164.7813,451.7471 Q1164.2813,452.3252 1163.4844,452.6533 Q1162.4063,453.1064 1161.1094,453.1064 Q1159.5938,453.1064 1158.3906,452.4814 Q1157.4063,451.9814 1156.7188,450.9189 Q1156.0313,449.8408 1156.0313,448.5596 L1156.0313,447.4033 Q1156.0313,446.0752 1156.6406,444.9346 Q1157.2656,443.7783 1158.3594,443.1689 Q1159.4531,442.5439 1160.6875,442.5439 Q1161.4219,442.5439 1162.0625,442.7158 Q1162.7188,442.8721 1163.2656,443.2314 Z " fill="#000000"/><text fill="#000000" font-family="sans-serif" font-size="12" lengthAdjust="spacing" textLength="69" x="1174.5" y="452.2666">Appointment</text><line style="stroke:#A80036;stroke-width:1.5;" x1="1146.5" x2="1245.5" y1="463.3564" y2="463.3564"/><text fill="#000000" font-family="sans-serif" font-size="11" lengthAdjust="spacing" textLength="21" x="1151.5" y="478.7754">date</text><!--MD5=[27b15205ea271c1a0133fe11fcedb921]
class AdministrationProccess--><rect codeLine="49" fill="#FEFECE" filter="url(#f1jpu1ohd05l0b)" height="95.3438" id="AdministrationProccess" style="stroke:#A80036;stroke-width:1.5;" width="163" x="1676" y="580.8564"/><ellipse cx="1691" cy="596.8564" fill="#ADD1B2" rx="11" ry="11" style="stroke:#A80036;stroke-width:1.0;"/><path d="M1693.7656,592.7314 Q1693.9219,592.5127 1694.1094,592.4033 Q1694.2969,592.2939 1694.5156,592.2939 Q1694.8906,592.2939 1695.125,592.5596 Q1695.3594,592.8096 1695.3594,593.4189 L1695.3594,594.8721 Q1695.3594,595.4814 1695.125,595.7471 Q1694.8906,596.0127 1694.5156,596.0127 Q1694.1719,596.0127 1693.9688,595.8096 Q1693.7656,595.6221 1693.6563,595.1064 Q1693.6094,594.7471 1693.4219,594.5596 Q1693.0938,594.1846 1692.4844,593.9658 Q1691.875,593.7471 1691.25,593.7471 Q1690.4844,593.7471 1689.8438,594.0752 Q1689.2188,594.4033 1688.7188,595.1533 Q1688.2344,595.9033 1688.2344,596.9346 L1688.2344,598.0283 Q1688.2344,599.2627 1689.125,600.0908 Q1690.0156,600.9033 1691.6094,600.9033 Q1692.5469,600.9033 1693.2031,600.6533 Q1693.5938,600.4971 1694.0156,600.0596 Q1694.2813,599.7939 1694.4219,599.7158 Q1694.5781,599.6377 1694.7813,599.6377 Q1695.1094,599.6377 1695.3594,599.9033 Q1695.625,600.1533 1695.625,600.4971 Q1695.625,600.8408 1695.2813,601.2471 Q1694.7813,601.8252 1693.9844,602.1533 Q1692.9063,602.6064 1691.6094,602.6064 Q1690.0938,602.6064 1688.8906,601.9814 Q1687.9063,601.4814 1687.2188,600.4189 Q1686.5313,599.3408 1686.5313,598.0596 L1686.5313,596.9033 Q1686.5313,595.5752 1687.1406,594.4346 Q1687.7656,593.2783 1688.8594,592.6689 Q1689.9531,592.0439 1691.1875,592.0439 Q1691.9219,592.0439 1692.5625,592.2158 Q1693.2188,592.3721 1693.7656,592.7314 Z " fill="#000000"/><text fill="#000000" font-family="sans-serif" font-size="12" lengthAdjust="spacing" textLength="131" x="1705" y="601.7666">AdministrationProccess</text><line style="stroke:#A80036;stroke-width:1.5;" x1="1677" x2="1838" y1="612.8564" y2="612.8564"/><text fill="#000000" font-family="sans-serif" font-size="11" lengthAdjust="spacing" textLength="48" x="1682" y="628.2754">ageGroup</text><text fill="#000000" font-family="sans-serif" font-size="11" lengthAdjust="spacing" textLength="36" x="1682" y="642.1113">dosage</text><text fill="#000000" font-family="sans-serif" font-size="11" lengthAdjust="spacing" textLength="49" x="1682" y="655.9473">nOfDoses</text><text fill="#000000" font-family="sans-serif" font-size="11" lengthAdjust="spacing" textLength="110" x="1682" y="669.7832">intervalBetweenDoses</text><!--MD5=[3d99830c51f2312653ffa5f597e45238]
class AGES--><rect codeLine="56" fill="#FEFECE" filter="url(#f1jpu1ohd05l0b)" height="40" id="AGES" style="stroke:#A80036;stroke-width:1.5;" width="64" x="2045" y="280.3564"/><ellipse cx="2060" cy="296.3564" fill="#ADD1B2" rx="11" ry="11" style="stroke:#A80036;stroke-width:1.0;"/><path d="M2062.7656,292.2314 Q2062.9219,292.0127 2063.1094,291.9033 Q2063.2969,291.7939 2063.5156,291.7939 Q2063.8906,291.7939 2064.125,292.0596 Q2064.3594,292.3096 2064.3594,292.9189 L2064.3594,294.3721 Q2064.3594,294.9814 2064.125,295.2471 Q2063.8906,295.5127 2063.5156,295.5127 Q2063.1719,295.5127 2062.9688,295.3096 Q2062.7656,295.1221 2062.6563,294.6064 Q2062.6094,294.2471 2062.4219,294.0596 Q2062.0938,293.6846 2061.4844,293.4658 Q2060.875,293.2471 2060.25,293.2471 Q2059.4844,293.2471 2058.8438,293.5752 Q2058.2188,293.9033 2057.7188,294.6533 Q2057.2344,295.4033 2057.2344,296.4346 L2057.2344,297.5283 Q2057.2344,298.7627 2058.125,299.5908 Q2059.0156,300.4033 2060.6094,300.4033 Q2061.5469,300.4033 2062.2031,300.1533 Q2062.5938,299.9971 2063.0156,299.5596 Q2063.2813,299.2939 2063.4219,299.2158 Q2063.5781,299.1377 2063.7813,299.1377 Q2064.1094,299.1377 2064.3594,299.4033 Q2064.625,299.6533 2064.625,299.9971 Q2064.625,300.3408 2064.2813,300.7471 Q2063.7813,301.3252 2062.9844,301.6533 Q2061.9063,302.1064 2060.6094,302.1064 Q2059.0938,302.1064 2057.8906,301.4814 Q2056.9063,300.9814 2056.2188,299.9189 Q2055.5313,298.8408 2055.5313,297.5596 L2055.5313,296.4033 Q2055.5313,295.0752 2056.1406,293.9346 Q2056.7656,292.7783 2057.8594,292.1689 Q2058.9531,291.5439 2060.1875,291.5439 Q2060.9219,291.5439 2061.5625,291.7158 Q2062.2188,291.8721 2062.7656,292.2314 Z " fill="#000000"/><text fill="#000000" font-family="sans-serif" font-size="12" lengthAdjust="spacing" textLength="32" x="2074" y="301.2666">AGES</text><line style="stroke:#A80036;stroke-width:1.5;" x1="2046" x2="2108" y1="312.3564" y2="312.3564"/><!--MD5=[f44bde12c85835f4e3e4c64f18a8c09c]
class ARS--><rect codeLine="58" fill="#FEFECE" filter="url(#f1jpu1ohd05l0b)" height="40" id="ARS" style="stroke:#A80036;stroke-width:1.5;" width="56" x="2049" y="355.3564"/><ellipse cx="2064" cy="371.3564" fill="#ADD1B2" rx="11" ry="11" style="stroke:#A80036;stroke-width:1.0;"/><path d="M2066.7656,367.2314 Q2066.9219,367.0127 2067.1094,366.9033 Q2067.2969,366.7939 2067.5156,366.7939 Q2067.8906,366.7939 2068.125,367.0596 Q2068.3594,367.3096 2068.3594,367.9189 L2068.3594,369.3721 Q2068.3594,369.9814 2068.125,370.2471 Q2067.8906,370.5127 2067.5156,370.5127 Q2067.1719,370.5127 2066.9688,370.3096 Q2066.7656,370.1221 2066.6563,369.6064 Q2066.6094,369.2471 2066.4219,369.0596 Q2066.0938,368.6846 2065.4844,368.4658 Q2064.875,368.2471 2064.25,368.2471 Q2063.4844,368.2471 2062.8438,368.5752 Q2062.2188,368.9033 2061.7188,369.6533 Q2061.2344,370.4033 2061.2344,371.4346 L2061.2344,372.5283 Q2061.2344,373.7627 2062.125,374.5908 Q2063.0156,375.4033 2064.6094,375.4033 Q2065.5469,375.4033 2066.2031,375.1533 Q2066.5938,374.9971 2067.0156,374.5596 Q2067.2813,374.2939 2067.4219,374.2158 Q2067.5781,374.1377 2067.7813,374.1377 Q2068.1094,374.1377 2068.3594,374.4033 Q2068.625,374.6533 2068.625,374.9971 Q2068.625,375.3408 2068.2813,375.7471 Q2067.7813,376.3252 2066.9844,376.6533 Q2065.9063,377.1064 2064.6094,377.1064 Q2063.0938,377.1064 2061.8906,376.4814 Q2060.9063,375.9814 2060.2188,374.9189 Q2059.5313,373.8408 2059.5313,372.5596 L2059.5313,371.4033 Q2059.5313,370.0752 2060.1406,368.9346 Q2060.7656,367.7783 2061.8594,367.1689 Q2062.9531,366.5439 2064.1875,366.5439 Q2064.9219,366.5439 2065.5625,366.7158 Q2066.2188,366.8721 2066.7656,367.2314 Z " fill="#000000"/><text fill="#000000" font-family="sans-serif" font-size="12" lengthAdjust="spacing" textLength="24" x="2078" y="376.2666">ARS</text><line style="stroke:#A80036;stroke-width:1.5;" x1="2050" x2="2104" y1="387.3564" y2="387.3564"/><!--MD5=[76b5e19c9337179d2d7ae334371d68c8]
class Notification--><rect fill="#FEFECE" filter="url(#f1jpu1ohd05l0b)" height="40" id="Notification" style="stroke:#A80036;stroke-width:1.5;" width="93" x="1436.5" y="434.3564"/><ellipse cx="1451.5" cy="450.3564" fill="#ADD1B2" rx="11" ry="11" style="stroke:#A80036;stroke-width:1.0;"/><path d="M1454.2656,446.2314 Q1454.4219,446.0127 1454.6094,445.9033 Q1454.7969,445.7939 1455.0156,445.7939 Q1455.3906,445.7939 1455.625,446.0596 Q1455.8594,446.3096 1455.8594,446.9189 L1455.8594,448.3721 Q1455.8594,448.9814 1455.625,449.2471 Q1455.3906,449.5127 1455.0156,449.5127 Q1454.6719,449.5127 1454.4688,449.3096 Q1454.2656,449.1221 1454.1563,448.6064 Q1454.1094,448.2471 1453.9219,448.0596 Q1453.5938,447.6846 1452.9844,447.4658 Q1452.375,447.2471 1451.75,447.2471 Q1450.9844,447.2471 1450.3438,447.5752 Q1449.7188,447.9033 1449.2188,448.6533 Q1448.7344,449.4033 1448.7344,450.4346 L1448.7344,451.5283 Q1448.7344,452.7627 1449.625,453.5908 Q1450.5156,454.4033 1452.1094,454.4033 Q1453.0469,454.4033 1453.7031,454.1533 Q1454.0938,453.9971 1454.5156,453.5596 Q1454.7813,453.2939 1454.9219,453.2158 Q1455.0781,453.1377 1455.2813,453.1377 Q1455.6094,453.1377 1455.8594,453.4033 Q1456.125,453.6533 1456.125,453.9971 Q1456.125,454.3408 1455.7813,454.7471 Q1455.2813,455.3252 1454.4844,455.6533 Q1453.4063,456.1064 1452.1094,456.1064 Q1450.5938,456.1064 1449.3906,455.4814 Q1448.4063,454.9814 1447.7188,453.9189 Q1447.0313,452.8408 1447.0313,451.5596 L1447.0313,450.4033 Q1447.0313,449.0752 1447.6406,447.9346 Q1448.2656,446.7783 1449.3594,446.1689 Q1450.4531,445.5439 1451.6875,445.5439 Q1452.4219,445.5439 1453.0625,445.7158 Q1453.7188,445.8721 1454.2656,446.2314 Z " fill="#000000"/><text fill="#000000" font-family="sans-serif" font-size="12" lengthAdjust="spacing" textLength="61" x="1465.5" y="455.2666">Notification</text><line style="stroke:#A80036;stroke-width:1.5;" x1="1437.5" x2="1528.5" y1="466.3564" y2="466.3564"/><!--MD5=[a44b39c29d2ca3f53df08ad7d6656013]
class ReadyUsersList--><rect fill="#FEFECE" filter="url(#f1jpu1ohd05l0b)" height="40" id="ReadyUsersList" style="stroke:#A80036;stroke-width:1.5;" width="121" x="627.5" y="348.3564"/><ellipse cx="642.5" cy="364.3564" fill="#ADD1B2" rx="11" ry="11" style="stroke:#A80036;stroke-width:1.0;"/><path d="M645.2656,360.2314 Q645.4219,360.0127 645.6094,359.9033 Q645.7969,359.7939 646.0156,359.7939 Q646.3906,359.7939 646.625,360.0596 Q646.8594,360.3096 646.8594,360.9189 L646.8594,362.3721 Q646.8594,362.9814 646.625,363.2471 Q646.3906,363.5127 646.0156,363.5127 Q645.6719,363.5127 645.4688,363.3096 Q645.2656,363.1221 645.1563,362.6064 Q645.1094,362.2471 644.9219,362.0596 Q644.5938,361.6846 643.9844,361.4658 Q643.375,361.2471 642.75,361.2471 Q641.9844,361.2471 641.3438,361.5752 Q640.7188,361.9033 640.2188,362.6533 Q639.7344,363.4033 639.7344,364.4346 L639.7344,365.5283 Q639.7344,366.7627 640.625,367.5908 Q641.5156,368.4033 643.1094,368.4033 Q644.0469,368.4033 644.7031,368.1533 Q645.0938,367.9971 645.5156,367.5596 Q645.7813,367.2939 645.9219,367.2158 Q646.0781,367.1377 646.2813,367.1377 Q646.6094,367.1377 646.8594,367.4033 Q647.125,367.6533 647.125,367.9971 Q647.125,368.3408 646.7813,368.7471 Q646.2813,369.3252 645.4844,369.6533 Q644.4063,370.1064 643.1094,370.1064 Q641.5938,370.1064 640.3906,369.4814 Q639.4063,368.9814 638.7188,367.9189 Q638.0313,366.8408 638.0313,365.5596 L638.0313,364.4033 Q638.0313,363.0752 638.6406,361.9346 Q639.2656,360.7783 640.3594,360.1689 Q641.4531,359.5439 642.6875,359.5439 Q643.4219,359.5439 644.0625,359.7158 Q644.7188,359.8721 645.2656,360.2314 Z " fill="#000000"/><text fill="#000000" font-family="sans-serif" font-size="12" lengthAdjust="spacing" textLength="89" x="656.5" y="369.2666">ReadyUsersList</text><line style="stroke:#A80036;stroke-width:1.5;" x1="628.5" x2="747.5" y1="380.3564" y2="380.3564"/><!--MD5=[a2b7282dba5facf6f5bfc9eaf2edf494]
class ArrivedUsersList--><rect fill="#FEFECE" filter="url(#f1jpu1ohd05l0b)" height="40" id="ArrivedUsersList" style="stroke:#A80036;stroke-width:1.5;" width="123" x="626.5" y="423.3564"/><ellipse cx="641.5" cy="439.3564" fill="#ADD1B2" rx="11" ry="11" style="stroke:#A80036;stroke-width:1.0;"/><path d="M644.2656,435.2314 Q644.4219,435.0127 644.6094,434.9033 Q644.7969,434.7939 645.0156,434.7939 Q645.3906,434.7939 645.625,435.0596 Q645.8594,435.3096 645.8594,435.9189 L645.8594,437.3721 Q645.8594,437.9814 645.625,438.2471 Q645.3906,438.5127 645.0156,438.5127 Q644.6719,438.5127 644.4688,438.3096 Q644.2656,438.1221 644.1563,437.6064 Q644.1094,437.2471 643.9219,437.0596 Q643.5938,436.6846 642.9844,436.4658 Q642.375,436.2471 641.75,436.2471 Q640.9844,436.2471 640.3438,436.5752 Q639.7188,436.9033 639.2188,437.6533 Q638.7344,438.4033 638.7344,439.4346 L638.7344,440.5283 Q638.7344,441.7627 639.625,442.5908 Q640.5156,443.4033 642.1094,443.4033 Q643.0469,443.4033 643.7031,443.1533 Q644.0938,442.9971 644.5156,442.5596 Q644.7813,442.2939 644.9219,442.2158 Q645.0781,442.1377 645.2813,442.1377 Q645.6094,442.1377 645.8594,442.4033 Q646.125,442.6533 646.125,442.9971 Q646.125,443.3408 645.7813,443.7471 Q645.2813,444.3252 644.4844,444.6533 Q643.4063,445.1064 642.1094,445.1064 Q640.5938,445.1064 639.3906,444.4814 Q638.4063,443.9814 637.7188,442.9189 Q637.0313,441.8408 637.0313,440.5596 L637.0313,439.4033 Q637.0313,438.0752 637.6406,436.9346 Q638.2656,435.7783 639.3594,435.1689 Q640.4531,434.5439 641.6875,434.5439 Q642.4219,434.5439 643.0625,434.7158 Q643.7188,434.8721 644.2656,435.2314 Z " fill="#000000"/><text fill="#000000" font-family="sans-serif" font-size="12" lengthAdjust="spacing" textLength="91" x="655.5" y="444.2666">ArrivedUsersList</text><line style="stroke:#A80036;stroke-width:1.5;" x1="627.5" x2="748.5" y1="455.3564" y2="455.3564"/><!--MD5=[38fc592cf59f287db359f48c1753826f]
class RecoveringUsersList--><rect fill="#FEFECE" filter="url(#f1jpu1ohd05l0b)" height="40" id="RecoveringUsersList" style="stroke:#A80036;stroke-width:1.5;" width="148" x="614" y="250.3564"/><ellipse cx="629" cy="266.3564" fill="#ADD1B2" rx="11" ry="11" style="stroke:#A80036;stroke-width:1.0;"/><path d="M631.7656,262.2314 Q631.9219,262.0127 632.1094,261.9033 Q632.2969,261.7939 632.5156,261.7939 Q632.8906,261.7939 633.125,262.0596 Q633.3594,262.3096 633.3594,262.9189 L633.3594,264.3721 Q633.3594,264.9814 633.125,265.2471 Q632.8906,265.5127 632.5156,265.5127 Q632.1719,265.5127 631.9688,265.3096 Q631.7656,265.1221 631.6563,264.6064 Q631.6094,264.2471 631.4219,264.0596 Q631.0938,263.6846 630.4844,263.4658 Q629.875,263.2471 629.25,263.2471 Q628.4844,263.2471 627.8438,263.5752 Q627.2188,263.9033 626.7188,264.6533 Q626.2344,265.4033 626.2344,266.4346 L626.2344,267.5283 Q626.2344,268.7627 627.125,269.5908 Q628.0156,270.4033 629.6094,270.4033 Q630.5469,270.4033 631.2031,270.1533 Q631.5938,269.9971 632.0156,269.5596 Q632.2813,269.2939 632.4219,269.2158 Q632.5781,269.1377 632.7813,269.1377 Q633.1094,269.1377 633.3594,269.4033 Q633.625,269.6533 633.625,269.9971 Q633.625,270.3408 633.2813,270.7471 Q632.7813,271.3252 631.9844,271.6533 Q630.9063,272.1064 629.6094,272.1064 Q628.0938,272.1064 626.8906,271.4814 Q625.9063,270.9814 625.2188,269.9189 Q624.5313,268.8408 624.5313,267.5596 L624.5313,266.4033 Q624.5313,265.0752 625.1406,263.9346 Q625.7656,262.7783 626.8594,262.1689 Q627.9531,261.5439 629.1875,261.5439 Q629.9219,261.5439 630.5625,261.7158 Q631.2188,261.8721 631.7656,262.2314 Z " fill="#000000"/><text fill="#000000" font-family="sans-serif" font-size="12" lengthAdjust="spacing" textLength="116" x="643" y="271.2666">RecoveringUsersList</text><line style="stroke:#A80036;stroke-width:1.5;" x1="615" x2="761" y1="282.3564" y2="282.3564"/><!--MD5=[b0fb588a3746bf4ac8bbe89ee65239d0]
class OtherMedicalService--><rect fill="#FEFECE" filter="url(#f1jpu1ohd05l0b)" height="40" id="OtherMedicalService" style="stroke:#A80036;stroke-width:1.5;" width="144" x="2005" y="430.3564"/><ellipse cx="2020" cy="446.3564" fill="#ADD1B2" rx="11" ry="11" style="stroke:#A80036;stroke-width:1.0;"/><path d="M2022.7656,442.2314 Q2022.9219,442.0127 2023.1094,441.9033 Q2023.2969,441.7939 2023.5156,441.7939 Q2023.8906,441.7939 2024.125,442.0596 Q2024.3594,442.3096 2024.3594,442.9189 L2024.3594,444.3721 Q2024.3594,444.9814 2024.125,445.2471 Q2023.8906,445.5127 2023.5156,445.5127 Q2023.1719,445.5127 2022.9688,445.3096 Q2022.7656,445.1221 2022.6563,444.6064 Q2022.6094,444.2471 2022.4219,444.0596 Q2022.0938,443.6846 2021.4844,443.4658 Q2020.875,443.2471 2020.25,443.2471 Q2019.4844,443.2471 2018.8438,443.5752 Q2018.2188,443.9033 2017.7188,444.6533 Q2017.2344,445.4033 2017.2344,446.4346 L2017.2344,447.5283 Q2017.2344,448.7627 2018.125,449.5908 Q2019.0156,450.4033 2020.6094,450.4033 Q2021.5469,450.4033 2022.2031,450.1533 Q2022.5938,449.9971 2023.0156,449.5596 Q2023.2813,449.2939 2023.4219,449.2158 Q2023.5781,449.1377 2023.7813,449.1377 Q2024.1094,449.1377 2024.3594,449.4033 Q2024.625,449.6533 2024.625,449.9971 Q2024.625,450.3408 2024.2813,450.7471 Q2023.7813,451.3252 2022.9844,451.6533 Q2021.9063,452.1064 2020.6094,452.1064 Q2019.0938,452.1064 2017.8906,451.4814 Q2016.9063,450.9814 2016.2188,449.9189 Q2015.5313,448.8408 2015.5313,447.5596 L2015.5313,446.4033 Q2015.5313,445.0752 2016.1406,443.9346 Q2016.7656,442.7783 2017.8594,442.1689 Q2018.9531,441.5439 2020.1875,441.5439 Q2020.9219,441.5439 2021.5625,441.7158 Q2022.2188,441.8721 2022.7656,442.2314 Z " fill="#000000"/><text fill="#000000" font-family="sans-serif" font-size="12" lengthAdjust="spacing" textLength="112" x="2034" y="451.2666">OtherMedicalService</text><line style="stroke:#A80036;stroke-width:1.5;" x1="2006" x2="2148" y1="462.3564" y2="462.3564"/><!--MD5=[f082b347be438956eae752ed2dcedd8d]
class VaccinationCertificate--><rect fill="#FEFECE" filter="url(#f1jpu1ohd05l0b)" height="40" id="VaccinationCertificate" style="stroke:#A80036;stroke-width:1.5;" width="150" x="1121" y="569.3564"/><ellipse cx="1136" cy="585.3564" fill="#ADD1B2" rx="11" ry="11" style="stroke:#A80036;stroke-width:1.0;"/><path d="M1138.7656,581.2314 Q1138.9219,581.0127 1139.1094,580.9033 Q1139.2969,580.7939 1139.5156,580.7939 Q1139.8906,580.7939 1140.125,581.0596 Q1140.3594,581.3096 1140.3594,581.9189 L1140.3594,583.3721 Q1140.3594,583.9814 1140.125,584.2471 Q1139.8906,584.5127 1139.5156,584.5127 Q1139.1719,584.5127 1138.9688,584.3096 Q1138.7656,584.1221 1138.6563,583.6064 Q1138.6094,583.2471 1138.4219,583.0596 Q1138.0938,582.6846 1137.4844,582.4658 Q1136.875,582.2471 1136.25,582.2471 Q1135.4844,582.2471 1134.8438,582.5752 Q1134.2188,582.9033 1133.7188,583.6533 Q1133.2344,584.4033 1133.2344,585.4346 L1133.2344,586.5283 Q1133.2344,587.7627 1134.125,588.5908 Q1135.0156,589.4033 1136.6094,589.4033 Q1137.5469,589.4033 1138.2031,589.1533 Q1138.5938,588.9971 1139.0156,588.5596 Q1139.2813,588.2939 1139.4219,588.2158 Q1139.5781,588.1377 1139.7813,588.1377 Q1140.1094,588.1377 1140.3594,588.4033 Q1140.625,588.6533 1140.625,588.9971 Q1140.625,589.3408 1140.2813,589.7471 Q1139.7813,590.3252 1138.9844,590.6533 Q1137.9063,591.1064 1136.6094,591.1064 Q1135.0938,591.1064 1133.8906,590.4814 Q1132.9063,589.9814 1132.2188,588.9189 Q1131.5313,587.8408 1131.5313,586.5596 L1131.5313,585.4033 Q1131.5313,584.0752 1132.1406,582.9346 Q1132.7656,581.7783 1133.8594,581.1689 Q1134.9531,580.5439 1136.1875,580.5439 Q1136.9219,580.5439 1137.5625,580.7158 Q1138.2188,580.8721 1138.7656,581.2314 Z " fill="#000000"/><text fill="#000000" font-family="sans-serif" font-size="12" lengthAdjust="spacing" textLength="118" x="1150" y="590.2666">VaccinationCertificate</text><line style="stroke:#A80036;stroke-width:1.5;" x1="1122" x2="1270" y1="601.3564" y2="601.3564"/><!--MD5=[9dec31851c9c504cad5b41bb142d96c3]
class DGS--><rect fill="#FEFECE" filter="url(#f1jpu1ohd05l0b)" height="40" id="DGS" style="stroke:#A80036;stroke-width:1.5;" width="58" x="929" y="569.3564"/><ellipse cx="944" cy="585.3564" fill="#ADD1B2" rx="11" ry="11" style="stroke:#A80036;stroke-width:1.0;"/><path d="M946.7656,581.2314 Q946.9219,581.0127 947.1094,580.9033 Q947.2969,580.7939 947.5156,580.7939 Q947.8906,580.7939 948.125,581.0596 Q948.3594,581.3096 948.3594,581.9189 L948.3594,583.3721 Q948.3594,583.9814 948.125,584.2471 Q947.8906,584.5127 947.5156,584.5127 Q947.1719,584.5127 946.9688,584.3096 Q946.7656,584.1221 946.6563,583.6064 Q946.6094,583.2471 946.4219,583.0596 Q946.0938,582.6846 945.4844,582.4658 Q944.875,582.2471 944.25,582.2471 Q943.4844,582.2471 942.8438,582.5752 Q942.2188,582.9033 941.7188,583.6533 Q941.2344,584.4033 941.2344,585.4346 L941.2344,586.5283 Q941.2344,587.7627 942.125,588.5908 Q943.0156,589.4033 944.6094,589.4033 Q945.5469,589.4033 946.2031,589.1533 Q946.5938,588.9971 947.0156,588.5596 Q947.2813,588.2939 947.4219,588.2158 Q947.5781,588.1377 947.7813,588.1377 Q948.1094,588.1377 948.3594,588.4033 Q948.625,588.6533 948.625,588.9971 Q948.625,589.3408 948.2813,589.7471 Q947.7813,590.3252 946.9844,590.6533 Q945.9063,591.1064 944.6094,591.1064 Q943.0938,591.1064 941.8906,590.4814 Q940.9063,589.9814 940.2188,588.9189 Q939.5313,587.8408 939.5313,586.5596 L939.5313,585.4033 Q939.5313,584.0752 940.1406,582.9346 Q940.7656,581.7783 941.8594,581.1689 Q942.9531,580.5439 944.1875,580.5439 Q944.9219,580.5439 945.5625,580.7158 Q946.2188,580.8721 946.7656,581.2314 Z " fill="#000000"/><text fill="#000000" font-family="sans-serif" font-size="12" lengthAdjust="spacing" textLength="26" x="958" y="590.2666">DGS</text><line style="stroke:#A80036;stroke-width:1.5;" x1="930" x2="986" y1="601.3564" y2="601.3564"/><!--MD5=[9bf9dadbffb7fbceed2ede59f1107d85]
class AdverseReaction--><rect fill="#FEFECE" filter="url(#f1jpu1ohd05l0b)" height="40" id="AdverseReaction" style="stroke:#A80036;stroke-width:1.5;" width="125" x="1133.5" y="165.3564"/><ellipse cx="1148.5" cy="181.3564" fill="#ADD1B2" rx="11" ry="11" style="stroke:#A80036;stroke-width:1.0;"/><path d="M1151.2656,177.2314 Q1151.4219,177.0127 1151.6094,176.9033 Q1151.7969,176.7939 1152.0156,176.7939 Q1152.3906,176.7939 1152.625,177.0596 Q1152.8594,177.3096 1152.8594,177.9189 L1152.8594,179.3721 Q1152.8594,179.9814 1152.625,180.2471 Q1152.3906,180.5127 1152.0156,180.5127 Q1151.6719,180.5127 1151.4688,180.3096 Q1151.2656,180.1221 1151.1563,179.6064 Q1151.1094,179.2471 1150.9219,179.0596 Q1150.5938,178.6846 1149.9844,178.4658 Q1149.375,178.2471 1148.75,178.2471 Q1147.9844,178.2471 1147.3438,178.5752 Q1146.7188,178.9033 1146.2188,179.6533 Q1145.7344,180.4033 1145.7344,181.4346 L1145.7344,182.5283 Q1145.7344,183.7627 1146.625,184.5908 Q1147.5156,185.4033 1149.1094,185.4033 Q1150.0469,185.4033 1150.7031,185.1533 Q1151.0938,184.9971 1151.5156,184.5596 Q1151.7813,184.2939 1151.9219,184.2158 Q1152.0781,184.1377 1152.2813,184.1377 Q1152.6094,184.1377 1152.8594,184.4033 Q1153.125,184.6533 1153.125,184.9971 Q1153.125,185.3408 1152.7813,185.7471 Q1152.2813,186.3252 1151.4844,186.6533 Q1150.4063,187.1064 1149.1094,187.1064 Q1147.5938,187.1064 1146.3906,186.4814 Q1145.4063,185.9814 1144.7188,184.9189 Q1144.0313,183.8408 1144.0313,182.5596 L1144.0313,181.4033 Q1144.0313,180.0752 1144.6406,178.9346 Q1145.2656,177.7783 1146.3594,177.1689 Q1147.4531,176.5439 1148.6875,176.5439 Q1149.4219,176.5439 1150.0625,176.7158 Q1150.7188,176.8721 1151.2656,177.2314 Z " fill="#000000"/><text fill="#000000" font-family="sans-serif" font-size="12" lengthAdjust="spacing" textLength="93" x="1162.5" y="186.2666">AdverseReaction</text><line style="stroke:#A80036;stroke-width:1.5;" x1="1134.5" x2="1257.5" y1="197.3564" y2="197.3564"/><!--MD5=[8b63964df8485437d785d39f6a78b8e9]
class VaccinationReport--><rect fill="#FEFECE" filter="url(#f1jpu1ohd05l0b)" height="40" id="VaccinationReport" style="stroke:#A80036;stroke-width:1.5;" width="132" x="2011" y="132.3564"/><ellipse cx="2026" cy="148.3564" fill="#ADD1B2" rx="11" ry="11" style="stroke:#A80036;stroke-width:1.0;"/><path d="M2028.7656,144.2314 Q2028.9219,144.0127 2029.1094,143.9033 Q2029.2969,143.7939 2029.5156,143.7939 Q2029.8906,143.7939 2030.125,144.0596 Q2030.3594,144.3096 2030.3594,144.9189 L2030.3594,146.3721 Q2030.3594,146.9814 2030.125,147.2471 Q2029.8906,147.5127 2029.5156,147.5127 Q2029.1719,147.5127 2028.9688,147.3096 Q2028.7656,147.1221 2028.6563,146.6064 Q2028.6094,146.2471 2028.4219,146.0596 Q2028.0938,145.6846 2027.4844,145.4658 Q2026.875,145.2471 2026.25,145.2471 Q2025.4844,145.2471 2024.8438,145.5752 Q2024.2188,145.9033 2023.7188,146.6533 Q2023.2344,147.4033 2023.2344,148.4346 L2023.2344,149.5283 Q2023.2344,150.7627 2024.125,151.5908 Q2025.0156,152.4033 2026.6094,152.4033 Q2027.5469,152.4033 2028.2031,152.1533 Q2028.5938,151.9971 2029.0156,151.5596 Q2029.2813,151.2939 2029.4219,151.2158 Q2029.5781,151.1377 2029.7813,151.1377 Q2030.1094,151.1377 2030.3594,151.4033 Q2030.625,151.6533 2030.625,151.9971 Q2030.625,152.3408 2030.2813,152.7471 Q2029.7813,153.3252 2028.9844,153.6533 Q2027.9063,154.1064 2026.6094,154.1064 Q2025.0938,154.1064 2023.8906,153.4814 Q2022.9063,152.9814 2022.2188,151.9189 Q2021.5313,150.8408 2021.5313,149.5596 L2021.5313,148.4033 Q2021.5313,147.0752 2022.1406,145.9346 Q2022.7656,144.7783 2023.8594,144.1689 Q2024.9531,143.5439 2026.1875,143.5439 Q2026.9219,143.5439 2027.5625,143.7158 Q2028.2188,143.8721 2028.7656,144.2314 Z " fill="#000000"/><text fill="#000000" font-family="sans-serif" font-size="12" lengthAdjust="spacing" textLength="100" x="2040" y="153.2666">VaccinationReport</text><line style="stroke:#A80036;stroke-width:1.5;" x1="2012" x2="2142" y1="164.3564" y2="164.3564"/><!--MD5=[ade87be7d0bbac1c6123d2fb440b3468]
class SMS--><rect fill="#FEFECE" filter="url(#f1jpu1ohd05l0b)" height="40" id="SMS" style="stroke:#A80036;stroke-width:1.5;" width="57" x="1729" y="430.3564"/><ellipse cx="1744" cy="446.3564" fill="#ADD1B2" rx="11" ry="11" style="stroke:#A80036;stroke-width:1.0;"/><path d="M1746.7656,442.2314 Q1746.9219,442.0127 1747.1094,441.9033 Q1747.2969,441.7939 1747.5156,441.7939 Q1747.8906,441.7939 1748.125,442.0596 Q1748.3594,442.3096 1748.3594,442.9189 L1748.3594,444.3721 Q1748.3594,444.9814 1748.125,445.2471 Q1747.8906,445.5127 1747.5156,445.5127 Q1747.1719,445.5127 1746.9688,445.3096 Q1746.7656,445.1221 1746.6563,444.6064 Q1746.6094,444.2471 1746.4219,444.0596 Q1746.0938,443.6846 1745.4844,443.4658 Q1744.875,443.2471 1744.25,443.2471 Q1743.4844,443.2471 1742.8438,443.5752 Q1742.2188,443.9033 1741.7188,444.6533 Q1741.2344,445.4033 1741.2344,446.4346 L1741.2344,447.5283 Q1741.2344,448.7627 1742.125,449.5908 Q1743.0156,450.4033 1744.6094,450.4033 Q1745.5469,450.4033 1746.2031,450.1533 Q1746.5938,449.9971 1747.0156,449.5596 Q1747.2813,449.2939 1747.4219,449.2158 Q1747.5781,449.1377 1747.7813,449.1377 Q1748.1094,449.1377 1748.3594,449.4033 Q1748.625,449.6533 1748.625,449.9971 Q1748.625,450.3408 1748.2813,450.7471 Q1747.7813,451.3252 1746.9844,451.6533 Q1745.9063,452.1064 1744.6094,452.1064 Q1743.0938,452.1064 1741.8906,451.4814 Q1740.9063,450.9814 1740.2188,449.9189 Q1739.5313,448.8408 1739.5313,447.5596 L1739.5313,446.4033 Q1739.5313,445.0752 1740.1406,443.9346 Q1740.7656,442.7783 1741.8594,442.1689 Q1742.9531,441.5439 1744.1875,441.5439 Q1744.9219,441.5439 1745.5625,441.7158 Q1746.2188,441.8721 1746.7656,442.2314 Z " fill="#000000"/><text fill="#000000" font-family="sans-serif" font-size="12" lengthAdjust="spacing" textLength="25" x="1758" y="451.2666">SMS</text><line style="stroke:#A80036;stroke-width:1.5;" x1="1730" x2="1785" y1="462.3564" y2="462.3564"/><!--MD5=[78bec0fde86ad92ec1dc3fb343b83709]
class Email--><rect fill="#FEFECE" filter="url(#f1jpu1ohd05l0b)" height="40" id="Email" style="stroke:#A80036;stroke-width:1.5;" width="64" x="1725.5" y="505.3564"/><ellipse cx="1740.5" cy="521.3564" fill="#ADD1B2" rx="11" ry="11" style="stroke:#A80036;stroke-width:1.0;"/><path d="M1743.2656,517.2314 Q1743.4219,517.0127 1743.6094,516.9033 Q1743.7969,516.7939 1744.0156,516.7939 Q1744.3906,516.7939 1744.625,517.0596 Q1744.8594,517.3096 1744.8594,517.9189 L1744.8594,519.3721 Q1744.8594,519.9814 1744.625,520.2471 Q1744.3906,520.5127 1744.0156,520.5127 Q1743.6719,520.5127 1743.4688,520.3096 Q1743.2656,520.1221 1743.1563,519.6064 Q1743.1094,519.2471 1742.9219,519.0596 Q1742.5938,518.6846 1741.9844,518.4658 Q1741.375,518.2471 1740.75,518.2471 Q1739.9844,518.2471 1739.3438,518.5752 Q1738.7188,518.9033 1738.2188,519.6533 Q1737.7344,520.4033 1737.7344,521.4346 L1737.7344,522.5283 Q1737.7344,523.7627 1738.625,524.5908 Q1739.5156,525.4033 1741.1094,525.4033 Q1742.0469,525.4033 1742.7031,525.1533 Q1743.0938,524.9971 1743.5156,524.5596 Q1743.7813,524.2939 1743.9219,524.2158 Q1744.0781,524.1377 1744.2813,524.1377 Q1744.6094,524.1377 1744.8594,524.4033 Q1745.125,524.6533 1745.125,524.9971 Q1745.125,525.3408 1744.7813,525.7471 Q1744.2813,526.3252 1743.4844,526.6533 Q1742.4063,527.1064 1741.1094,527.1064 Q1739.5938,527.1064 1738.3906,526.4814 Q1737.4063,525.9814 1736.7188,524.9189 Q1736.0313,523.8408 1736.0313,522.5596 L1736.0313,521.4033 Q1736.0313,520.0752 1736.6406,518.9346 Q1737.2656,517.7783 1738.3594,517.1689 Q1739.4531,516.5439 1740.6875,516.5439 Q1741.4219,516.5439 1742.0625,516.7158 Q1742.7188,516.8721 1743.2656,517.2314 Z " fill="#000000"/><text fill="#000000" font-family="sans-serif" font-size="12" lengthAdjust="spacing" textLength="32" x="1754.5" y="526.2666">Email</text><line style="stroke:#A80036;stroke-width:1.5;" x1="1726.5" x2="1788.5" y1="537.3564" y2="537.3564"/><!--MD5=[3568623adf67b2630dce9e60c05bd02a]
link Vaccine to VaccineType--><path codeLine="60" d="M1520.75,645.0764 C1568.84,666.9564 1653.28,705.3864 1706.97,729.8164 " fill="none" id="Vaccine-VaccineType" style="stroke:#A80036;stroke-width:1.0;"/><polygon fill="#000000" points="1579.449,660.4613,1586.4645,666.8826,1588.8991,661.5327,1579.449,660.4613" style="stroke:#000000;stroke-width:1.0;"/><text fill="#000000" font-family="sans-serif" font-size="13" lengthAdjust="spacing" textLength="21" x="1593" y="667.8516">has</text><text fill="#000000" font-family="sans-serif" font-size="13" lengthAdjust="spacing" textLength="5" x="1528.4227" y="663.3173">*</text><text fill="#000000" font-family="sans-serif" font-size="13" lengthAdjust="spacing" textLength="7" x="1692.0343" y="741.238">1</text><!--MD5=[6716344a46572fc99c27bf4e50ddbd3d]
reverse link Employee to Nurse--><path codeLine="62" d="M344.34,239.1464 C440.61,231.4564 630.47,217.4164 792,212.3564 C833.76,211.0464 844.39,208.5764 886,212.3564 C898.73,213.5164 912.59,215.8064 924.65,218.1564 " fill="none" id="Employee-backto-Nurse" style="stroke:#A80036;stroke-width:1.0;"/><polygon fill="none" points="344.65,246.1464,324.15,240.7764,343.52,232.1864,344.65,246.1464" style="stroke:#A80036;stroke-width:1.0;"/><!--MD5=[bfff716514ca687b645fe473c6e098a4]
reverse link Employee to Receptionist--><path codeLine="63" d="M315.04,278.9864 C345.56,310.5164 389.59,355.9864 414.8,382.0064 " fill="none" id="Employee-backto-Receptionist" style="stroke:#A80036;stroke-width:1.0;"/><polygon fill="none" points="309.76,283.6064,300.88,264.3664,319.82,273.8664,309.76,283.6064" style="stroke:#A80036;stroke-width:1.0;"/><!--MD5=[98f7f3dc8d9719d04ad14614c4ea123f]
reverse link Employee to CenterCoordinator--><path codeLine="64" d="M303.06,207.3164 C328.87,168.2664 376.05,112.3564 434.5,112.3564 C434.5,112.3564 434.5,112.3564 1484,112.3564 C1554.56,112.3564 1635.29,116.4264 1690.46,119.8164 " fill="none" id="Employee-backto-CenterCoordinator" style="stroke:#A80036;stroke-width:1.0;"/><polygon fill="none" points="308.97,211.0564,292.44,224.3064,297.1,203.6364,308.97,211.0564" style="stroke:#A80036;stroke-width:1.0;"/><!--MD5=[9c09d1db3efb59cb07492bc4345754ed]
reverse link VaccinationCenter to CommunityMassVaccinationCenter--><path codeLine="66" d="M1569.55,283.8864 C1593.45,285.9964 1619.77,288.3164 1644.92,290.5264 " fill="none" id="VaccinationCenter-backto-CommunityMassVaccinationCenter" style="stroke:#A80036;stroke-width:1.0;"/><polygon fill="none" points="1568.58,290.8364,1549.27,282.1064,1569.81,276.8864,1568.58,290.8364" style="stroke:#A80036;stroke-width:1.0;"/><!--MD5=[4d7f47162e377c4884c583baac9698b3]
reverse link VaccinationCenter to HealthCareCenter--><path codeLine="67" d="M1567.94,309.5364 C1592.67,319.0864 1619.85,329.3464 1645,338.3564 C1660.94,344.0664 1678.26,349.9664 1694.4,355.3264 " fill="none" id="VaccinationCenter-backto-HealthCareCenter" style="stroke:#A80036;stroke-width:1.0;"/><polygon fill="none" points="1565.26,316.0064,1549.15,302.2464,1570.33,302.9564,1565.26,316.0064" style="stroke:#A80036;stroke-width:1.0;"/><!--MD5=[8d58cf1c2119791001cf5144e9295faa]
link VaccinationCenter to CenterCoordinator--><path codeLine="69" d="M1549.11,213.5064 C1558.73,205.8164 1568.83,198.5164 1579,192.3564 C1613.57,171.4064 1655.7,154.9264 1690.24,143.4464 " fill="none" id="VaccinationCenter-CenterCoordinator" style="stroke:#A80036;stroke-width:1.0;"/><text fill="#000000" font-family="sans-serif" font-size="13" lengthAdjust="spacing" textLength="21" x="1586.5" y="171.8516">has</text><text fill="#000000" font-family="sans-serif" font-size="13" lengthAdjust="spacing" textLength="7" x="1557.1587" y="220.6591">1</text><text fill="#000000" font-family="sans-serif" font-size="13" lengthAdjust="spacing" textLength="7" x="1675.5006" y="159.9238">1</text><!--MD5=[85f06911c2f4dd592611bbf87a6e3e69]
link HealthCareCenter to AGES--><path codeLine="71" d="M1823.52,359.9964 C1891.01,344.0564 1993.71,319.7964 2044.83,307.7164 " fill="none" id="HealthCareCenter-AGES" style="stroke:#A80036;stroke-width:1.0;"/><polygon fill="#000000" points="1909.8661,314.3827,1900.3876,313.602,1901.7389,319.3224,1909.8661,314.3827" style="stroke:#000000;stroke-width:1.0;"/><text fill="#000000" font-family="sans-serif" font-size="13" lengthAdjust="spacing" textLength="60" x="1914" y="320.8516">belongs to</text><text fill="#000000" font-family="sans-serif" font-size="13" lengthAdjust="spacing" textLength="5" x="1831.4426" y="372.6609">*</text><text fill="#000000" font-family="sans-serif" font-size="13" lengthAdjust="spacing" textLength="7" x="2030.0272" y="324.61">1</text><!--MD5=[5b76ad4aea9bdf9551a08667802db279]
link HealthCareCenter to ARS--><path codeLine="72" d="M1823.52,375.3564 C1892.82,375.3564 1999.26,375.3564 2048.84,375.3564 " fill="none" id="HealthCareCenter-ARS" style="stroke:#A80036;stroke-width:1.0;"/><polygon fill="#000000" points="1910,366.5322,1900.9549,363.5933,1900.9549,369.4712,1910,366.5322" style="stroke:#000000;stroke-width:1.0;"/><text fill="#000000" font-family="sans-serif" font-size="13" lengthAdjust="spacing" textLength="60" x="1914" y="371.8516">belongs to</text><text fill="#000000" font-family="sans-serif" font-size="13" lengthAdjust="spacing" textLength="5" x="1831.4426" y="389.7969">*</text><text fill="#000000" font-family="sans-serif" font-size="13" lengthAdjust="spacing" textLength="7" x="2034.1229" y="390.8444">1</text><!--MD5=[d139302f00cc62b984b6371d0fde1842]
link Appointment to VaccinationCenter--><path codeLine="74" d="M1239.36,431.3064 C1286.27,401.3464 1362.44,352.7064 1416.93,317.9064 " fill="none" id="Appointment-VaccinationCenter" style="stroke:#A80036;stroke-width:1.0;"/><polygon fill="#000000" points="1319.714,328.8411,1310.509,331.2325,1313.6726,336.1863,1319.714,328.8411" style="stroke:#000000;stroke-width:1.0;"/><text fill="#000000" font-family="sans-serif" font-size="13" lengthAdjust="spacing" textLength="52" x="1324.5" y="336.8516">is held in</text><text fill="#000000" font-family="sans-serif" font-size="13" lengthAdjust="spacing" textLength="7" x="1242.0759" y="420.321">1</text><text fill="#000000" font-family="sans-serif" font-size="13" lengthAdjust="spacing" textLength="7" x="1401.886" y="337.1303">1</text><!--MD5=[6bee4428fa029b10117c8017dc752ad2]
link Appointment to Vaccine--><path codeLine="75" d="M1242.47,485.4764 C1299.84,519.6964 1397.14,577.7364 1448.29,608.2464 " fill="none" id="Appointment-Vaccine" style="stroke:#A80036;stroke-width:1.0;"/><text fill="#000000" font-family="sans-serif" font-size="13" lengthAdjust="spacing" textLength="84" x="1302" y="518.8516">has a specefic</text><text fill="#000000" font-family="sans-serif" font-size="13" lengthAdjust="spacing" textLength="7" x="1244.8697" y="506.7105">1</text><text fill="#000000" font-family="sans-serif" font-size="13" lengthAdjust="spacing" textLength="7" x="1430.5434" y="597.8851">1</text><!--MD5=[2b5b74edf452990c5a9179627c3aa149]
link Appointment to Notification--><path codeLine="76" d="M1246.62,460.5664 C1284.97,461.9264 1339.36,463.1064 1387,461.3564 C1403.03,460.7664 1420.55,459.6164 1436.13,458.4164 " fill="none" id="Appointment-Notification" style="stroke:#A80036;stroke-width:1.0;"/><text fill="#000000" font-family="sans-serif" font-size="13" lengthAdjust="spacing" textLength="43" x="1322.5" y="457.8516">triggers</text><text fill="#000000" font-family="sans-serif" font-size="13" lengthAdjust="spacing" textLength="7" x="1254.5689" y="475.599">1</text><text fill="#000000" font-family="sans-serif" font-size="13" lengthAdjust="spacing" textLength="7" x="1421.4171" y="473.7852">1</text><!--MD5=[154022eaa73d4e22b64241df49b8ea99]
link Receptionist to ReadyUsersList--><path codeLine="78" d="M486.29,395.5964 C526.81,390.0964 584.13,382.3164 627.15,376.4764 " fill="none" id="Receptionist-ReadyUsersList" style="stroke:#A80036;stroke-width:1.0;"/><polygon fill="#000000" points="525.9546,372.8597,516.5964,371.1641,517.387,376.9885,525.9546,372.8597" style="stroke:#000000;stroke-width:1.0;"/><text fill="#000000" font-family="sans-serif" font-size="13" lengthAdjust="spacing" textLength="53" x="530" y="378.8516">manages</text><text fill="#000000" font-family="sans-serif" font-size="13" lengthAdjust="spacing" textLength="7" x="493.9245" y="409.2907">1</text><text fill="#000000" font-family="sans-serif" font-size="13" lengthAdjust="spacing" textLength="5" x="614.4292" y="391.9576">*</text><!--MD5=[6629afeb45f7b4337af60fd5beeec001]
link Receptionist to ArrivedUsersList--><path codeLine="79" d="M486.07,411.9864 C495.97,413.8364 506.31,415.7064 516,417.3564 C552.56,423.5864 593.64,429.8564 626.37,434.6764 " fill="none" id="Receptionist-ArrivedUsersList" style="stroke:#A80036;stroke-width:1.0;"/><polygon fill="#000000" points="525.9359,409.3305,517.476,404.9852,516.5376,410.7877,525.9359,409.3305" style="stroke:#000000;stroke-width:1.0;"/><text fill="#000000" font-family="sans-serif" font-size="13" lengthAdjust="spacing" textLength="53" x="530" y="413.8516">manages</text><text fill="#000000" font-family="sans-serif" font-size="13" lengthAdjust="spacing" textLength="7" x="494.0115" y="428.0968">1</text><text fill="#000000" font-family="sans-serif" font-size="13" lengthAdjust="spacing" textLength="5" x="613.5542" y="448.1101">*</text><!--MD5=[7af330a43427c71f376f8bb549e0d424]
link ReadyUsersList to SNSUser--><path codeLine="81" d="M739.02,388.4164 C755.6,394.1064 774.34,399.5164 792,402.3564 C833.25,408.9864 844.23,403.2364 886,402.3564 C895.62,402.1564 905.97,401.7964 915.71,401.3964 " fill="none" id="ReadyUsersList-SNSUser" style="stroke:#A80036;stroke-width:1.0;"/><text fill="#000000" font-family="sans-serif" font-size="13" lengthAdjust="spacing" textLength="92" x="793" y="398.8516">is composed by</text><text fill="#000000" font-family="sans-serif" font-size="13" lengthAdjust="spacing" textLength="7" x="745.385" y="409.8529">1</text><text fill="#000000" font-family="sans-serif" font-size="13" lengthAdjust="spacing" textLength="5" x="903.0117" y="416.6474">*</text><!--MD5=[5f1ef68154a0c61aa74b1c253ff621bc]
link ArrivedUsersList to SNSUser--><path codeLine="82" d="M749.77,445.2764 C789.15,445.1564 841.26,442.4064 886,431.3564 C897.16,428.5964 908.73,424.1464 919.22,419.4264 " fill="none" id="ArrivedUsersList-SNSUser" style="stroke:#A80036;stroke-width:1.0;"/><text fill="#000000" font-family="sans-serif" font-size="13" lengthAdjust="spacing" textLength="92" x="793" y="427.8516">is composed by</text><text fill="#000000" font-family="sans-serif" font-size="13" lengthAdjust="spacing" textLength="7" x="757.3168" y="459.9389">1</text><text fill="#000000" font-family="sans-serif" font-size="13" lengthAdjust="spacing" textLength="5" x="903.126" y="440.5126">*</text><!--MD5=[b7de56ac0dea6df6c3f252893e8d2aeb]
link RecoveringUsersList to SNSUser--><path codeLine="83" d="M762.14,279.5264 C801.03,286.8264 848.42,299.7264 886,322.3564 C909.99,336.8064 930.81,361.7364 943.59,379.3064 " fill="none" id="RecoveringUsersList-SNSUser" style="stroke:#A80036;stroke-width:1.0;"/><text fill="#000000" font-family="sans-serif" font-size="13" lengthAdjust="spacing" textLength="92" x="793" y="282.8516">is composed by</text><text fill="#000000" font-family="sans-serif" font-size="13" lengthAdjust="spacing" textLength="7" x="770.1466" y="294.8103">1</text><text fill="#000000" font-family="sans-serif" font-size="13" lengthAdjust="spacing" textLength="5" x="933.6227" y="368.6135">*</text><!--MD5=[0c84e11d4babe4bedf572314a7d130c3]
link ReadyUsersList to Nurse--><path codeLine="85" d="M748.8,375.8664 C790.46,378.0264 845.59,374.4964 886,348.3564 C923.06,324.3864 943,273.7964 951.65,245.5364 " fill="none" id="ReadyUsersList-Nurse" style="stroke:#A80036;stroke-width:1.0;"/><polygon fill="#000000" points="811.2934,342.2349,820.4918,339.8183,817.3146,334.8731,811.2934,342.2349" style="stroke:#000000;stroke-width:1.0;"/><text fill="#000000" font-family="sans-serif" font-size="13" lengthAdjust="spacing" textLength="42" x="824.5" y="344.8516">checks</text><text fill="#000000" font-family="sans-serif" font-size="13" lengthAdjust="spacing" textLength="5" x="756.5147" y="391.2733">*</text><text fill="#000000" font-family="sans-serif" font-size="13" lengthAdjust="spacing" textLength="7" x="941.8797" y="267.0066">1</text><!--MD5=[03a8bb6be670defb13a9c015fa3f901d]
link RecoveringUsersList to Nurse--><path codeLine="86" d="M762.23,258.0564 C815.39,249.1364 884.74,237.4864 924.72,230.7764 " fill="none" id="RecoveringUsersList-Nurse" style="stroke:#A80036;stroke-width:1.0;"/><polygon fill="#000000" points="805.069,230.3601,814.4759,231.7608,813.5027,225.9641,805.069,230.3601" style="stroke:#000000;stroke-width:1.0;"/><text fill="#000000" font-family="sans-serif" font-size="13" lengthAdjust="spacing" textLength="53" x="819" y="234.8516">manages</text><text fill="#000000" font-family="sans-serif" font-size="13" lengthAdjust="spacing" textLength="5" x="770.1428" y="271.1263">*</text><text fill="#000000" font-family="sans-serif" font-size="13" lengthAdjust="spacing" textLength="7" x="910.1341" y="247.0757">1</text><!--MD5=[8f7dd94d56b58fc07b233ccd3dd98f8c]
link Administrator to Employee--><path codeLine="88" d="M85.2,403.1664 C127.37,368.6964 212.78,298.8864 254.89,264.4664 " fill="none" id="Administrator-Employee" style="stroke:#A80036;stroke-width:1.0;"/><polygon fill="#000000" points="150.8713,295.3679,142.0081,298.8167,145.728,303.3677,150.8713,295.3679" style="stroke:#000000;stroke-width:1.0;"/><text fill="#000000" font-family="sans-serif" font-size="13" lengthAdjust="spacing" textLength="50" x="156" y="303.8516">registers</text><text fill="#000000" font-family="sans-serif" font-size="13" lengthAdjust="spacing" textLength="7" x="84.7213" y="392.4324">1</text><text fill="#000000" font-family="sans-serif" font-size="13" lengthAdjust="spacing" textLength="5" x="241.9841" y="285.9169">*</text><!--MD5=[d497e8607f1e7b3d570c70d67196006d]
link Administrator to VaccinationCenter--><path codeLine="89" d="M61.85,403.2964 C68.46,322.3864 104.67,24.3564 279.5,24.3564 C279.5,24.3564 279.5,24.3564 1197,24.3564 C1298.22,24.3564 1380.38,114.6664 1430.04,187.1564 " fill="none" id="Administrator-VaccinationCenter" style="stroke:#A80036;stroke-width:1.0;"/><text fill="#000000" font-family="sans-serif" font-size="13" lengthAdjust="spacing" textLength="50" x="663" y="20.8516">registers</text><text fill="#000000" font-family="sans-serif" font-size="13" lengthAdjust="spacing" textLength="7" x="54.5122" y="392.6006">1</text><text fill="#000000" font-family="sans-serif" font-size="13" lengthAdjust="spacing" textLength="5" x="1420.4472" y="176.6019">*</text><!--MD5=[d0b477519989ed3601cd00d052224350]
link Administrator to VaccineType--><path codeLine="90" d="M63.76,443.3764 C76.62,514.5964 130.58,751.3564 279.5,751.3564 C279.5,751.3564 279.5,751.3564 1484,751.3564 C1561.82,751.3564 1652.15,751.7664 1706.78,752.0664 " fill="none" id="Administrator-VaccineType" style="stroke:#A80036;stroke-width:1.0;"/><text fill="#000000" font-family="sans-serif" font-size="13" lengthAdjust="spacing" textLength="53" x="812.5" y="747.8516">manages</text><text fill="#000000" font-family="sans-serif" font-size="13" lengthAdjust="spacing" textLength="7" x="56.9737" y="464.8016">1</text><text fill="#000000" font-family="sans-serif" font-size="13" lengthAdjust="spacing" textLength="5" x="1693.9633" y="766.7559">*</text><!--MD5=[0e439f75a3d966f965fe5f237a1bacbe]
link Administrator to Vaccine--><path codeLine="91" d="M67.72,443.7364 C89.66,501.5264 161.32,662.3564 279.5,662.3564 C279.5,662.3564 279.5,662.3564 1197,662.3564 C1286.69,662.3564 1391.16,645.5464 1445.27,635.5664 " fill="none" id="Administrator-Vaccine" style="stroke:#A80036;stroke-width:1.0;"/><text fill="#000000" font-family="sans-serif" font-size="13" lengthAdjust="spacing" textLength="53" x="661.5" y="658.8516">manages</text><text fill="#000000" font-family="sans-serif" font-size="13" lengthAdjust="spacing" textLength="7" x="61.9885" y="464.9059">1</text><text fill="#000000" font-family="sans-serif" font-size="13" lengthAdjust="spacing" textLength="5" x="1432.6012" y="651.9945">*</text><!--MD5=[3f8bc51bb69ce45c3e3ea0b764df71f1]
link SNSUser to Appointment--><path codeLine="93" d="M1000.11,409.6364 C1040.52,419.7364 1102.24,435.1664 1145.36,445.9464 " fill="none" id="SNSUser-Appointment" style="stroke:#A80036;stroke-width:1.0;"/><text fill="#000000" font-family="sans-serif" font-size="13" lengthAdjust="spacing" textLength="59" x="1031" y="414.8516">schedules</text><text fill="#000000" font-family="sans-serif" font-size="13" lengthAdjust="spacing" textLength="7" x="1007.9492" y="426.3036">1</text><text fill="#000000" font-family="sans-serif" font-size="13" lengthAdjust="spacing" textLength="5" x="1132.5551" y="458.8317">*</text><!--MD5=[107bf5e015911cb4bbdc32c2d684b6f4]
link SNSUser to HealthInformation--><path codeLine="94" d="M979.76,379.1664 C993.26,366.8064 1011.71,351.3064 1030,340.3564 C1062.23,321.0564 1101.03,304.9864 1132.91,293.4264 " fill="none" id="SNSUser-HealthInformation" style="stroke:#A80036;stroke-width:1.0;"/><polygon fill="#000000" points="1051.8628,300.0897,1042.5347,301.9438,1045.4061,307.0726,1051.8628,300.0897" style="stroke:#000000;stroke-width:1.0;"/><text fill="#000000" font-family="sans-serif" font-size="13" lengthAdjust="spacing" textLength="21" x="1056.5" y="307.8516">has</text><text fill="#000000" font-family="sans-serif" font-size="13" lengthAdjust="spacing" textLength="7" x="978.1239" y="368.4324">1</text><text fill="#000000" font-family="sans-serif" font-size="13" lengthAdjust="spacing" textLength="7" x="1116.1296" y="311.0702">1</text><!--MD5=[ecd3d453b1d839a2865736a7db6ad3ae]
link Vaccine to AdministrationProccess--><path codeLine="96" d="M1520.75,628.3564 C1560.34,628.3564 1624.57,628.3564 1675.99,628.3564 " fill="none" id="Vaccine-AdministrationProccess" style="stroke:#A80036;stroke-width:1.0;"/><polygon fill="#000000" points="1589,619.5322,1579.9549,616.5933,1579.9549,622.4712,1589,619.5322" style="stroke:#000000;stroke-width:1.0;"/><text fill="#000000" font-family="sans-serif" font-size="13" lengthAdjust="spacing" textLength="21" x="1593" y="624.8516">has</text><text fill="#000000" font-family="sans-serif" font-size="13" lengthAdjust="spacing" textLength="7" x="1528.6133" y="643.4101">1</text><text fill="#000000" font-family="sans-serif" font-size="13" lengthAdjust="spacing" textLength="20" x="1648.1259" y="642.5394">1..*</text><!--MD5=[1d6d671bbc18d64756cbd8abf269fed7]
link SNSUser to Notification--><path codeLine="98" d="M1000.22,388.0064 C1078.2,368.5964 1251.62,335.3464 1387,381.3564 C1417.53,391.7264 1445.91,416.3064 1463.56,434.0764 " fill="none" id="SNSUser-Notification" style="stroke:#A80036;stroke-width:1.0;"/><polygon fill="#000000" points="1174.9755,349.0269,1166.2655,345.2075,1165.684,351.0565,1174.9755,349.0269" style="stroke:#000000;stroke-width:1.0;"/><text fill="#000000" font-family="sans-serif" font-size="13" lengthAdjust="spacing" textLength="47" x="1179" y="353.8516">receives</text><text fill="#000000" font-family="sans-serif" font-size="13" lengthAdjust="spacing" textLength="7" x="1008.0781" y="400.956">1</text><text fill="#000000" font-family="sans-serif" font-size="13" lengthAdjust="spacing" textLength="5" x="1452.3894" y="423.6673">*</text><!--MD5=[9430f23b5463d3b4676b35f5a026e628]
link HealthCareCenter to OtherMedicalService--><path codeLine="100" d="M1823.52,390.7164 C1876.31,403.1864 1950.65,420.7464 2005,433.5864 " fill="none" id="HealthCareCenter-OtherMedicalService" style="stroke:#A80036;stroke-width:1.0;"/><text fill="#000000" font-family="sans-serif" font-size="13" lengthAdjust="spacing" textLength="47" x="1914" y="406.8516">provides</text><text fill="#000000" font-family="sans-serif" font-size="13" lengthAdjust="spacing" textLength="7" x="1831.5583" y="406.9329">1</text><text fill="#000000" font-family="sans-serif" font-size="13" lengthAdjust="spacing" textLength="5" x="1991.8516" y="446.1416">*</text><!--MD5=[4199e571ecf4f955a781f82efeea42b0]
link SNSUser to VaccinationCertificate--><path codeLine="102" d="M984.26,419.6864 C1029.68,456.2564 1124.63,532.7064 1169.93,569.1664 " fill="none" id="SNSUser-VaccinationCertificate" style="stroke:#A80036;stroke-width:1.0;"/><text fill="#000000" font-family="sans-serif" font-size="13" lengthAdjust="spacing" textLength="50" x="1035.5" y="456.8516">requests</text><text fill="#000000" font-family="sans-serif" font-size="13" lengthAdjust="spacing" textLength="7" x="983.3768" y="440.8425">1</text><text fill="#000000" font-family="sans-serif" font-size="13" lengthAdjust="spacing" textLength="5" x="1156.5376" y="558.4324">*</text><!--MD5=[bfa4ccf71d3f75f2d3f668097063014a]
link VaccinationCertificate to Vaccine--><path codeLine="104" d="M1271.14,599.4964 C1327.05,607.1564 1401.36,617.3264 1445.2,623.3164 " fill="none" id="VaccinationCertificate-Vaccine" style="stroke:#A80036;stroke-width:1.0;"/><text fill="#000000" font-family="sans-serif" font-size="13" lengthAdjust="spacing" textLength="71" x="1308.5" y="599.8516">corresponds</text><text fill="#000000" font-family="sans-serif" font-size="13" lengthAdjust="spacing" textLength="7" x="1278.8811" y="614.7945">1</text><text fill="#000000" font-family="sans-serif" font-size="13" lengthAdjust="spacing" textLength="7" x="1430.5853" y="618.4397">1</text><!--MD5=[6fac865bfc46063e2a6b0563f15886ac]
link DGS to VaccinationCertificate--><path codeLine="105" d="M987.47,589.3564 C1020.32,589.3564 1075.64,589.3564 1120.91,589.3564 " fill="none" id="DGS-VaccinationCertificate" style="stroke:#A80036;stroke-width:1.0;"/><text fill="#000000" font-family="sans-serif" font-size="13" lengthAdjust="spacing" textLength="43" x="1039" y="585.8516">emmits</text><text fill="#000000" font-family="sans-serif" font-size="13" lengthAdjust="spacing" textLength="7" x="995.0943" y="604.7422">1</text><text fill="#000000" font-family="sans-serif" font-size="13" lengthAdjust="spacing" textLength="5" x="1107.9085" y="603.6947">*</text><!--MD5=[d205afa640eb10e9aa5da67d61820494]
link Receptionist to Appointment--><path codeLine="107" d="M470.79,422.4564 C505.56,441.6364 561.56,469.3564 614,481.3564 C820.73,528.6664 881.86,529.5264 1091,494.3564 C1109.18,491.2964 1128.43,485.4264 1145.37,479.3064 " fill="none" id="Receptionist-Appointment" style="stroke:#A80036;stroke-width:1.0;"/><text fill="#000000" font-family="sans-serif" font-size="13" lengthAdjust="spacing" textLength="59" x="809.5" y="510.8516">schedules</text><text fill="#000000" font-family="sans-serif" font-size="13" lengthAdjust="spacing" textLength="18" x="460.1841" y="443.9041">0,1</text><text fill="#000000" font-family="sans-serif" font-size="13" lengthAdjust="spacing" textLength="7" x="1130.4197" y="497.0915">1</text><!--MD5=[e061032a880d751bf0fb6ebc2f277ecf]
link Nurse to AdverseReaction--><path codeLine="109" d="M991.32,219.8764 C1027.68,213.7164 1087.58,203.5664 1133.03,195.8564 " fill="none" id="Nurse-AdverseReaction" style="stroke:#A80036;stroke-width:1.0;"/><polygon fill="#000000" points="1042.9297,194.6966,1033.5207,193.3106,1034.5029,199.1058,1042.9297,194.6966" style="stroke:#000000;stroke-width:1.0;"/><text fill="#000000" font-family="sans-serif" font-size="13" lengthAdjust="spacing" textLength="40" x="1047" y="200.8516">reports</text><text fill="#000000" font-family="sans-serif" font-size="13" lengthAdjust="spacing" textLength="7" x="998.9141" y="214.6276">1</text><text fill="#000000" font-family="sans-serif" font-size="13" lengthAdjust="spacing" textLength="5" x="1120.46" y="211.5109">*</text><!--MD5=[bc9b71b63296550b1a6ca7b2e12538be]
link Nurse to HealthInformation--><path codeLine="110" d="M991.32,231.9264 C1027.05,239.1964 1085.51,251.0864 1130.65,260.2664 " fill="none" id="Nurse-HealthInformation" style="stroke:#A80036;stroke-width:1.0;"/><text fill="#000000" font-family="sans-serif" font-size="13" lengthAdjust="spacing" textLength="42" x="1039.5" y="237.8516">checks</text><text fill="#000000" font-family="sans-serif" font-size="13" lengthAdjust="spacing" textLength="7" x="998.9141" y="248.4629">1</text><text fill="#000000" font-family="sans-serif" font-size="13" lengthAdjust="spacing" textLength="5" x="1117.8048" y="273.1934">*</text><!--MD5=[e38cb46ce4efbc6577476a31ee45e7a4]
link VaccinationCenter to VaccinationReport--><path codeLine="112" d="M1549.05,262.7364 C1662.89,238.8864 1896.93,189.8664 2010.84,166.0064 " fill="none" id="VaccinationCenter-VaccinationReport" style="stroke:#A80036;stroke-width:1.0;"/><polygon fill="#000000" points="1749.3938,186.5071,1739.9383,185.485,1741.1434,191.238,1749.3938,186.5071" style="stroke:#000000;stroke-width:1.0;"/><text fill="#000000" font-family="sans-serif" font-size="13" lengthAdjust="spacing" textLength="21" x="1753.5" y="192.8516">has</text><text fill="#000000" font-family="sans-serif" font-size="13" lengthAdjust="spacing" textLength="7" x="1557.0917" y="275.5813">1</text><text fill="#000000" font-family="sans-serif" font-size="13" lengthAdjust="spacing" textLength="7" x="1995.7856" y="182.0252">1</text><!--MD5=[2e0728a8b60edd8e324a8b23b65d54fa]
link CenterCoordinator to VaccinationReport--><path codeLine="113" d="M1824.6,141.9264 C1848.21,147.3764 1875.12,152.6664 1900,155.3564 C1933.14,158.9464 1941.67,155.8464 1975,155.3564 C1986.58,155.1864 1998.9,154.9064 2010.81,154.5764 " fill="none" id="CenterCoordinator-VaccinationReport" style="stroke:#A80036;stroke-width:1.0;"/><polygon fill="#000000" points="1913.9885,146.8711,1905.1634,143.3259,1904.765,149.1902,1913.9885,146.8711" style="stroke:#000000;stroke-width:1.0;"/><text fill="#000000" font-family="sans-serif" font-size="13" lengthAdjust="spacing" textLength="52" x="1918" y="151.8516">analyses</text><text fill="#000000" font-family="sans-serif" font-size="13" lengthAdjust="spacing" textLength="7" x="1832.3219" y="158.2375">1</text><text fill="#000000" font-family="sans-serif" font-size="13" lengthAdjust="spacing" textLength="5" x="1997.8677" y="151.4236">*</text><!--MD5=[2e0728a8b60edd8e324a8b23b65d54fa]
link CenterCoordinator to VaccinationReport--><path codeLine="114" d="M1824.54,124.6364 C1867.52,125.4164 1924.73,127.6164 1975,133.3564 C1986.61,134.6864 1998.89,136.5764 2010.74,138.6564 " fill="none" id="CenterCoordinator-VaccinationReport-1" style="stroke:#A80036;stroke-width:1.0;"/><polygon fill="#000000" points="1911.4859,119.9076,1902.687,116.2979,1902.2457,122.1591,1911.4859,119.9076" style="stroke:#000000;stroke-width:1.0;"/><text fill="#000000" font-family="sans-serif" font-size="13" lengthAdjust="spacing" textLength="57" x="1915.5" y="124.8516">generates</text><text fill="#000000" font-family="sans-serif" font-size="13" lengthAdjust="spacing" textLength="7" x="1832.6962" y="139.1093">1</text><text fill="#000000" font-family="sans-serif" font-size="13" lengthAdjust="spacing" textLength="5" x="1997.7896" y="133.6628">*</text><!--MD5=[032e968c32b1cce549d44d91f2c4037c]
reverse link Notification to SMS--><path codeLine="116" d="M1549.9,453.3864 C1607.05,452.5464 1686.95,451.3764 1728.66,450.7664 " fill="none" id="Notification-backto-SMS" style="stroke:#A80036;stroke-width:1.0;"/><polygon fill="none" points="1549.71,460.3964,1529.61,453.6864,1549.51,446.3964,1549.71,460.3964" style="stroke:#A80036;stroke-width:1.0;"/><!--MD5=[a16c58747e320c2e6cb8edbfb09a72d3]
reverse link Notification to Email--><path codeLine="117" d="M1549.02,471.2964 C1604.69,485.7964 1682.43,506.0564 1725.2,517.2064 " fill="none" id="Notification-backto-Email" style="stroke:#A80036;stroke-width:1.0;"/><polygon fill="none" points="1547.2,478.0564,1529.61,466.2364,1550.73,464.5064,1547.2,478.0564" style="stroke:#A80036;stroke-width:1.0;"/><!--MD5=[6da0abe4e8f47bf10459447a6a92d078]
@startuml

hide methods
left to right direction
skinparam classAttributeIconSize 0

class CommunityMassVaccinationCenter {}

class HealthCareCenter {}

class VaccinationCenter {
  name
  address
  phone
  email
  fax
  website
  openingHours
  closingHours
  slotDuration
  nOfVaccinesPerSlot
}

class Vaccine {}

class VaccineType {
  id
  designation
  whoid
}

class SNSUser {}

class HealthInformation {}

class Administrator {}

class Employee {}

class Nurse {}

class Receptionist {}

class CenterCoordinator {}

class Appointment {
  date
}

class AdministrationProccess {
  ageGroup
  dosage
  nOfDoses
  intervalBetweenDoses
}

class AGES {}

class ARS {}

Vaccine "*" - - "1" VaccineType : has <

Employee <|- - Nurse
Employee <|- - Receptionist
Employee <|- - CenterCoordinator

VaccinationCenter <|- - CommunityMassVaccinationCenter
VaccinationCenter <|- - HealthCareCenter

VaccinationCenter "1" - - "1" CenterCoordinator : has 

HealthCareCenter "*" - - "1" AGES : belongs to > 
HealthCareCenter "*" - - "1" ARS : belongs to >

Appointment "1" - - "1" VaccinationCenter : is held in >
Appointment "1" - - "1" Vaccine : has a specefic 
Appointment "1" - - "1" Notification : triggers 

Receptionist "1" - - "*" ReadyUsersList : manages >
Receptionist "1" - - "*" ArrivedUsersList : manages >

ReadyUsersList "1" - - "*" SNSUser : is composed by 
ArrivedUsersList "1" - - "*" SNSUser : is composed by 
RecoveringUsersList "1" - - "*" SNSUser : is composed by 

ReadyUsersList "*" - - "1" Nurse : checks <
RecoveringUsersList "*" - - "1" Nurse : manages <

Administrator "1" - - "*" Employee : registers >
Administrator "1" - - "*" VaccinationCenter : registers 
Administrator "1" - - "*" VaccineType : manages 
Administrator "1" - - "*" Vaccine : manages 

SNSUser "1" - - "*" Appointment : schedules 
SNSUser "1" - - "1" HealthInformation : has >

Vaccine "1" - - "1..*" AdministrationProccess : has >

SNSUser "1" - - "*" Notification : receives >

HealthCareCenter "1" - - "*" OtherMedicalService : provides 

SNSUser "1" - - "*" VaccinationCertificate : requests

VaccinationCertificate "1" - - "1" Vaccine : corresponds 
DGS "1" - - "*" VaccinationCertificate : emmits

Receptionist "0,1" - - "1" Appointment : schedules

Nurse "1" - - "*" AdverseReaction : reports >
Nurse "1" - - "*" HealthInformation : checks 

VaccinationCenter "1" - - "1" VaccinationReport : has >
CenterCoordinator "1" - - "*" VaccinationReport : analyses >
CenterCoordinator "1" - - "*" VaccinationReport : generates >

Notification <|- - SMS
Notification <|- - Email

@enduml

PlantUML version 1.2022.0(Tue Jan 11 16:16:42 WET 2022)
(GPL source distribution)
Java Runtime: Java(TM) SE Runtime Environment
JVM: Java HotSpot(TM) 64-Bit Server VM
Default Encoding: Cp1252
Language: pt
Country: PT
--></g></svg>