<?xml version="1.0" encoding="UTF-8" standalone="no"?><svg xmlns="http://www.w3.org/2000/svg" xmlns:xlink="http://www.w3.org/1999/xlink" contentScriptType="application/ecmascript" contentStyleType="text/css" height="2079px" preserveAspectRatio="none" style="width:697px;height:2079px;background:#FFFFFF;" version="1.1" viewBox="0 0 697 2079" width="697px" zoomAndPan="magnify"><defs><filter height="300%" id="fudltv7mrfibr" width="300%" x="-1" y="-1"><feGaussianBlur result="blurOut" stdDeviation="2.0"/><feColorMatrix in="blurOut" result="blurOut2" type="matrix" values="0 0 0 0 0 0 0 0 0 0 0 0 0 0 0 0 0 0 .4 0"/><feOffset dx="4.0" dy="4.0" in="blurOut2" result="blurOut3"/><feBlend in="SourceGraphic" in2="blurOut3" mode="normal"/></filter></defs><g><!--MD5=[99b31deea5d7419a569cd5090bf83263]
cluster System--><rect fill="#FFFFFF" filter="url(#fudltv7mrfibr)" height="2060" style="stroke:#000000;stroke-width:1.5;" width="490" x="195" y="7"/><text fill="#000000" font-family="sans-serif" font-size="14" font-weight="bold" lengthAdjust="spacing" textLength="50" x="415" y="23.5332">System</text><ellipse cx="439.7928" cy="703.8586" fill="#FEFECE" filter="url(#fudltv7mrfibr)" rx="102.2928" ry="22.8586" style="stroke:#A80036;stroke-width:1.5;"/><text fill="#000000" font-family="sans-serif" font-size="14" lengthAdjust="spacing" textLength="166" x="356.7928" y="707.5871">UC01. Schedule a vaccine</text><ellipse cx="440.1497" cy="611.1299" fill="#FEFECE" filter="url(#fudltv7mrfibr)" rx="163.6497" ry="35.1299" style="stroke:#A80036;stroke-width:1.5;"/><text fill="#000000" font-family="sans-serif" font-size="14" lengthAdjust="spacing" textLength="297" x="291.6497" y="614.8584">UC02. Request the vaccine certificate issuance</text><ellipse cx="440.1932" cy="1890.8386" fill="#FEFECE" filter="url(#fudltv7mrfibr)" rx="192.1932" ry="40.8386" style="stroke:#A80036;stroke-width:1.5;"/><text fill="#000000" font-family="sans-serif" font-size="14" lengthAdjust="spacing" textLength="356" x="262.1932" y="1894.5672">UC03. Send a SMS with appointment details to SNS User</text><ellipse cx="439.8325" cy="398.1665" fill="#FEFECE" filter="url(#fudltv7mrfibr)" rx="228.8325" ry="48.1665" style="stroke:#A80036;stroke-width:1.5;"/><text fill="#000000" font-family="sans-serif" font-size="14" lengthAdjust="spacing" textLength="431" x="224.3325" y="401.895">UC04. Check the list of SNS Users that are ready to take the vaccine</text><ellipse cx="439.9138" cy="510.8828" fill="#FEFECE" filter="url(#fudltv7mrfibr)" rx="137.4138" ry="29.8828" style="stroke:#A80036;stroke-width:1.5;"/><text fill="#000000" font-family="sans-serif" font-size="14" lengthAdjust="spacing" textLength="242" x="318.9138" y="514.6113">UC05. Check user's health information</text><ellipse cx="440.0541" cy="68.8108" fill="#FEFECE" filter="url(#fudltv7mrfibr)" rx="114.5541" ry="25.3108" style="stroke:#A80036;stroke-width:1.5;"/><text fill="#000000" font-family="sans-serif" font-size="14" lengthAdjust="spacing" textLength="193" x="343.5541" y="72.5393">UC06. Issue vaccine certificate</text><ellipse cx="439.7768" cy="169.7554" fill="#FEFECE" filter="url(#fudltv7mrfibr)" rx="189.2768" ry="40.2554" style="stroke:#A80036;stroke-width:1.5;"/><text fill="#000000" font-family="sans-serif" font-size="14" lengthAdjust="spacing" textLength="350" x="264.7768" y="173.4839">UC07. Report adverse reactions during recovery period</text><ellipse cx="439.7866" cy="279.9573" fill="#FEFECE" filter="url(#fudltv7mrfibr)" rx="160.2866" ry="34.4573" style="stroke:#A80036;stroke-width:1.5;"/><text fill="#000000" font-family="sans-serif" font-size="14" lengthAdjust="spacing" textLength="290" x="294.7866" y="283.6858">UC08. Register SNS User's vaccination details</text><ellipse cx="440.0714" cy="1044.1143" fill="#FEFECE" filter="url(#fudltv7mrfibr)" rx="143.5714" ry="31.1143" style="stroke:#A80036;stroke-width:1.5;"/><text fill="#000000" font-family="sans-serif" font-size="14" lengthAdjust="spacing" textLength="255" x="312.5714" y="1047.8428">UC09. Register the arrival of a SNS User</text><ellipse cx="439.847" cy="805.9694" fill="#FEFECE" filter="url(#fudltv7mrfibr)" rx="205.347" ry="43.4694" style="stroke:#A80036;stroke-width:1.5;"/><text fill="#000000" font-family="sans-serif" font-size="14" lengthAdjust="spacing" textLength="383" x="248.347" y="809.6979">UC10. Confirm vaccination appointment for a given SNS user</text><ellipse cx="439.9915" cy="931.0983" fill="#FEFECE" filter="url(#fudltv7mrfibr)" rx="220.9915" ry="46.5983" style="stroke:#A80036;stroke-width:1.5;"/><text fill="#000000" font-family="sans-serif" font-size="14" lengthAdjust="spacing" textLength="415" x="232.4915" y="934.8268">UC11. Register that a given SNS User is ready to take the vaccine</text><ellipse cx="440.0714" cy="1594.1143" fill="#FEFECE" filter="url(#fudltv7mrfibr)" rx="143.5714" ry="31.1143" style="stroke:#A80036;stroke-width:1.5;"/><text fill="#000000" font-family="sans-serif" font-size="14" lengthAdjust="spacing" textLength="255" x="312.5714" y="1597.8428">UC12. View centers' statistics and charts</text><ellipse cx="440.2402" cy="1686.048" fill="#FEFECE" filter="url(#fudltv7mrfibr)" rx="118.2402" ry="26.048" style="stroke:#A80036;stroke-width:1.5;"/><text fill="#000000" font-family="sans-serif" font-size="14" lengthAdjust="spacing" textLength="201" x="339.7402" y="1689.7766">UC13. Generate a center report</text><ellipse cx="439.9716" cy="1781.0943" fill="#FEFECE" filter="url(#fudltv7mrfibr)" rx="155.9716" ry="33.5943" style="stroke:#A80036;stroke-width:1.5;"/><text fill="#000000" font-family="sans-serif" font-size="14" lengthAdjust="spacing" textLength="281" x="299.4716" y="1784.8228">UC14. Analyse other center vaccination data</text><ellipse cx="440.1279" cy="1136.8256" fill="#FEFECE" filter="url(#fudltv7mrfibr)" rx="119.6279" ry="26.3256" style="stroke:#A80036;stroke-width:1.5;"/><text fill="#000000" font-family="sans-serif" font-size="14" lengthAdjust="spacing" textLength="204" x="338.1279" y="1140.5541">UC15. Configure type of vaccine</text><ellipse cx="439.7802" cy="1221.056" fill="#FEFECE" filter="url(#fudltv7mrfibr)" rx="98.2802" ry="22.056" style="stroke:#A80036;stroke-width:1.5;"/><text fill="#000000" font-family="sans-serif" font-size="14" lengthAdjust="spacing" textLength="157" x="361.2802" y="1224.7846">UC16. Configure vaccine</text><ellipse cx="440.1306" cy="1313.2261" fill="#FEFECE" filter="url(#fudltv7mrfibr)" rx="164.1306" ry="35.2261" style="stroke:#A80036;stroke-width:1.5;"/><text fill="#000000" font-family="sans-serif" font-size="14" lengthAdjust="spacing" textLength="298" x="291.1306" y="1316.9546">UC17. Register and manage vaccination center</text><ellipse cx="439.859" cy="1413.0718" fill="#FEFECE" filter="url(#fudltv7mrfibr)" rx="138.359" ry="30.0718" style="stroke:#A80036;stroke-width:1.5;"/><text fill="#000000" font-family="sans-serif" font-size="14" lengthAdjust="spacing" textLength="244" x="317.859" y="1416.8003">UC18. Register and manage employee</text><ellipse cx="440.2192" cy="1502.9438" fill="#FEFECE" filter="url(#fudltv7mrfibr)" rx="112.7192" ry="24.9438" style="stroke:#A80036;stroke-width:1.5;"/><text fill="#000000" font-family="sans-serif" font-size="14" lengthAdjust="spacing" textLength="189" x="345.7192" y="1506.6724">UC19. Register new SNS User</text><ellipse cx="440.0464" cy="2008.9093" fill="#FEFECE" filter="url(#fudltv7mrfibr)" rx="197.5464" ry="41.9093" style="stroke:#A80036;stroke-width:1.5;"/><text fill="#000000" font-family="sans-serif" font-size="14" lengthAdjust="spacing" textLength="367" x="256.5464" y="2012.6378">UC20  Notify SNS user that the recovery period has ended</text><!--MD5=[8fc3522a43f8c7199df5e09e5bb0188e]
entity user--><ellipse cx="78.5" cy="626" fill="#FEFECE" filter="url(#fudltv7mrfibr)" rx="8" ry="8" style="stroke:#A80036;stroke-width:1.5;"/><path d="M78.5,634 L78.5,661 M65.5,642 L91.5,642 M78.5,661 L65.5,676 M78.5,661 L91.5,676 " fill="none" filter="url(#fudltv7mrfibr)" style="stroke:#A80036;stroke-width:1.5;"/><text fill="#000000" font-family="sans-serif" font-size="14" lengthAdjust="spacing" textLength="60" x="48.5" y="696.0332">SNS User</text><!--MD5=[87d66015e0fe95d70bf3fa68103252e8]
entity nurse--><ellipse cx="78.5" cy="248" fill="#FEFECE" filter="url(#fudltv7mrfibr)" rx="8" ry="8" style="stroke:#A80036;stroke-width:1.5;"/><path d="M78.5,256 L78.5,283 M65.5,264 L91.5,264 M78.5,283 L65.5,298 M78.5,283 L91.5,298 " fill="none" filter="url(#fudltv7mrfibr)" style="stroke:#A80036;stroke-width:1.5;"/><text fill="#000000" font-family="sans-serif" font-size="14" lengthAdjust="spacing" textLength="37" x="60" y="318.0332">Nurse</text><!--MD5=[34dc565525bad95b6b789d13e524f0bb]
entity recept--><ellipse cx="78.5" cy="837" fill="#FEFECE" filter="url(#fudltv7mrfibr)" rx="8" ry="8" style="stroke:#A80036;stroke-width:1.5;"/><path d="M78.5,845 L78.5,872 M65.5,853 L91.5,853 M78.5,872 L65.5,887 M78.5,872 L91.5,887 " fill="none" filter="url(#fudltv7mrfibr)" style="stroke:#A80036;stroke-width:1.5;"/><text fill="#000000" font-family="sans-serif" font-size="14" lengthAdjust="spacing" textLength="78" x="39.5" y="907.0332">Receptionist</text><!--MD5=[79a439086b036a57b90a01d7b2f8bbd1]
entity admin--><ellipse cx="78.5" cy="1281" fill="#FEFECE" filter="url(#fudltv7mrfibr)" rx="8" ry="8" style="stroke:#A80036;stroke-width:1.5;"/><path d="M78.5,1289 L78.5,1316 M65.5,1297 L91.5,1297 M78.5,1316 L65.5,1331 M78.5,1316 L91.5,1331 " fill="none" filter="url(#fudltv7mrfibr)" style="stroke:#A80036;stroke-width:1.5;"/><text fill="#000000" font-family="sans-serif" font-size="14" lengthAdjust="spacing" textLength="83" x="37" y="1351.0332">Administrator</text><!--MD5=[4d302acd527bc9f790d99ea65b823e73]
entity coordinator--><ellipse cx="78.5" cy="1654" fill="#FEFECE" filter="url(#fudltv7mrfibr)" rx="8" ry="8" style="stroke:#A80036;stroke-width:1.5;"/><path d="M78.5,1662 L78.5,1689 M65.5,1670 L91.5,1670 M78.5,1689 L65.5,1704 M78.5,1689 L91.5,1704 " fill="none" filter="url(#fudltv7mrfibr)" style="stroke:#A80036;stroke-width:1.5;"/><text fill="#000000" font-family="sans-serif" font-size="14" lengthAdjust="spacing" textLength="122" x="17.5" y="1724.0332">Center Coordinator</text><!--MD5=[35a5fbeaf6a2ee9183db1c700347a06a]
entity dgs--><ellipse cx="78.5" cy="1859" fill="#FEFECE" filter="url(#fudltv7mrfibr)" rx="8" ry="8" style="stroke:#A80036;stroke-width:1.5;"/><path d="M78.5,1867 L78.5,1894 M65.5,1875 L91.5,1875 M78.5,1894 L65.5,1909 M78.5,1894 L91.5,1909 " fill="none" filter="url(#fudltv7mrfibr)" style="stroke:#A80036;stroke-width:1.5;"/><text fill="#000000" font-family="sans-serif" font-size="14" lengthAdjust="spacing" textLength="143" x="7" y="1929.0332">«system» SMS Sender</text><!--MD5=[76f0931641a759148885e2d4c4167c4e]
entity dgsMail--><ellipse cx="78.5" cy="1977" fill="#FEFECE" filter="url(#fudltv7mrfibr)" rx="8" ry="8" style="stroke:#A80036;stroke-width:1.5;"/><path d="M78.5,1985 L78.5,2012 M65.5,1993 L91.5,1993 M78.5,2012 L65.5,2027 M78.5,2012 L91.5,2027 " fill="none" filter="url(#fudltv7mrfibr)" style="stroke:#A80036;stroke-width:1.5;"/><text fill="#000000" font-family="sans-serif" font-size="14" lengthAdjust="spacing" textLength="145" x="6" y="2047.0332">«system» MAIL Sender</text><!--MD5=[140266ba44ac8b87f85e725624a55779]
link user to UC01--><path d="M108.61,661.73 C160.68,668.39 271.69,682.59 350.64,692.69 " fill="none" id="user-UC01" style="stroke:#A80036;stroke-width:1.0;"/><!--MD5=[c01662b9893b7f9ffe638de90c98fa3a]
link user to UC02--><path d="M108.61,654.19 C150.24,648.75 229.52,638.39 299.98,629.17 " fill="none" id="user-UC02" style="stroke:#A80036;stroke-width:1.0;"/><!--MD5=[de45711618a2a9dd1d44cfe2b3e3c73b]
link dgs to UC03--><path d="M150.1,1891 C178.52,1891 212.8,1891 247.67,1891 " fill="none" id="dgs-UC03" style="stroke:#A80036;stroke-width:1.0;"/><!--MD5=[fe6a743345b25717863c47e38c1fb64c]
link recept to UC01--><path d="M104.46,827.36 C123.49,799.45 152.29,764.37 187,745 C232.48,719.62 289.3,708.9 337.47,704.73 " fill="none" id="recept-UC01" style="stroke:#A80036;stroke-width:1.0;"/><!--MD5=[5bb5dcefbc65873dedbd3c6858dc790c]
link nurse to UC05--><path d="M97.29,289.94 C118.24,301.32 154.32,319.95 187,332 C218.08,343.46 252.01,353.77 284.61,362.64 " fill="none" id="nurse-UC05" style="stroke:#A80036;stroke-width:1.0;"/><!--MD5=[42568f645a79a37828c16c508b3ea4f3]
link nurse to UC06--><path d="M92.46,321.6 C107.93,364.07 138.06,428.51 187,463 C220.86,486.86 263.37,499.72 303.78,506.42 " fill="none" id="nurse-UC06" style="stroke:#A80036;stroke-width:1.0;"/><!--MD5=[281c5965a45307b972b9fafd7dc9d075]
link nurse to UC07--><path d="M94.65,238.28 C111.14,199.13 141.4,142.22 187,112 C227.42,85.21 279.23,73.46 325.36,68.78 " fill="none" id="nurse-UC07" style="stroke:#A80036;stroke-width:1.0;"/><!--MD5=[5306f834103bd019928d2c56277b17a1]
link nurse to UC08--><path d="M97.23,269.89 C118.12,258.34 154.15,239.56 187,228 C222.15,215.63 261,205.19 297.45,196.72 " fill="none" id="nurse-UC08" style="stroke:#A80036;stroke-width:1.0;"/><!--MD5=[ba10721c796bf8e05da1d4cf00621405]
link nurse to UC09--><path d="M97.33,280 C131.05,280 207.25,280 279.15,280 " fill="none" id="nurse-UC09" style="stroke:#A80036;stroke-width:1.0;"/><!--MD5=[5ecaaaa6d6a50bba066cd1281b230436]
link recept to UC10--><path d="M104.3,910.67 C123.34,938.93 152.23,974.71 187,995 C221.93,1015.39 263.77,1027.48 303.22,1034.59 " fill="none" id="recept-UC10" style="stroke:#A80036;stroke-width:1.0;"/><!--MD5=[fbc97369f0f4b67e192977046dde35f4]
link recept to UC11--><path d="M117.63,862.32 C156.85,855.45 220.55,844.28 280.93,833.7 " fill="none" id="recept-UC11" style="stroke:#A80036;stroke-width:1.0;"/><!--MD5=[e82707fa6bb15b9ef4ecfa203bd76ac0]
link recept to UC12--><path d="M117.63,875.58 C154.14,881.87 211.86,891.83 268.37,901.57 " fill="none" id="recept-UC12" style="stroke:#A80036;stroke-width:1.0;"/><!--MD5=[eff47a04e9e33751a43c3dbce1f8c35d]
link coordinator to UC13--><path d="M139.57,1658.94 C154.83,1652.76 171.34,1646.65 187,1642 C230.12,1629.21 278.45,1619.04 321.15,1611.41 " fill="none" id="coordinator-UC13" style="stroke:#A80036;stroke-width:1.0;"/><!--MD5=[42ba3c79aa54f6aa5590ffb0c1c4d0b4]
link coordinator to UC14--><path d="M139.67,1686 C189.24,1686 261.02,1686 321.86,1686 " fill="none" id="coordinator-UC14" style="stroke:#A80036;stroke-width:1.0;"/><!--MD5=[ab5c08cbc12cecfadf101c6b421cf747]
link coordinator to UC15--><path d="M139.66,1712.24 C154.92,1718.29 171.41,1724.31 187,1729 C228.82,1741.57 275.44,1752.12 317.11,1760.37 " fill="none" id="coordinator-UC15" style="stroke:#A80036;stroke-width:1.0;"/><!--MD5=[c91a3546b79c34870be8412b895a6d08]
link admin to UC16--><path d="M102.34,1271.35 C121.06,1241.32 150.41,1202.44 187,1181 C227.23,1157.42 276.86,1145.78 321.4,1140.26 " fill="none" id="admin-UC16" style="stroke:#A80036;stroke-width:1.0;"/><!--MD5=[c2b1f465eb733137c23c90427935fc97]
link admin to UC17--><path d="M120.13,1289.3 C139.75,1278.83 163.98,1267.27 187,1260 C238.72,1243.67 298.64,1234.04 347.08,1228.44 " fill="none" id="admin-UC17" style="stroke:#A80036;stroke-width:1.0;"/><!--MD5=[1d6c5b6750c8eddbc9651d1a414dbd9e]
link admin to UC18--><path d="M120.04,1313 C158.24,1313 218.04,1313 275.59,1313 " fill="none" id="admin-UC18" style="stroke:#A80036;stroke-width:1.0;"/><!--MD5=[7ea179abe86b631761001b69f44e0599]
link admin to UC19--><path d="M120.05,1335.74 C139.75,1345.97 164.07,1357.42 187,1365 C230.13,1379.26 278.9,1389.78 321.96,1397.27 " fill="none" id="admin-UC19" style="stroke:#A80036;stroke-width:1.0;"/><!--MD5=[b2ff0f21859b61254aea5512a0a9784e]
link admin to UC20--><path d="M98.61,1354.56 C116.5,1388.56 146.54,1434.96 187,1460 C228.61,1485.75 281.12,1497.3 327.42,1502.1 " fill="none" id="admin-UC20" style="stroke:#A80036;stroke-width:1.0;"/><!--MD5=[077a00791ed5eed6f9eb6475e00923f2]
link dgs to UC21--><path d="M150.27,1932.52 C162.28,1938.59 174.81,1944.35 187,1949 C220.41,1961.74 257.37,1972.35 292.45,1980.93 " fill="none" id="dgs-UC21" style="stroke:#A80036;stroke-width:1.0;"/><!--MD5=[6e5a4a0bd4dfa09099c436da22d4cead]
link dgsMail to UC21--><path d="M151.39,2009 C178.13,2009 209.92,2009 242.45,2009 " fill="none" id="dgsMail-UC21" style="stroke:#A80036;stroke-width:1.0;"/><!--MD5=[bd7907ffba4b68d8adbf992dacf73ca1]
@startuml UCD

left to right direction

actor "SNS User" as user
actor "Nurse" as nurse
actor "Receptionist" as recept
actor "Administrator" as admin
actor "Center Coordinator" as coordinator
actor "<< system >> SMS Sender" as dgs
actor "<< system >> MAIL Sender" as dgsMail

rectangle System {
  usecase "UC01. Schedule a vaccine" as UC01
  usecase "UC02. Request the vaccine certificate issuance" as UC02
  usecase "UC03. Send a SMS with appointment details to SNS User" as UC03
  usecase "UC04. Check the list of SNS Users that are ready to take the vaccine" as UC05
  usecase "UC05. Check user's health information" as UC06
  usecase "UC06. Issue vaccine certificate" as UC07
  usecase "UC07. Report adverse reactions during recovery period" as UC08
  usecase "UC08. Register SNS User's vaccination details" as UC09
  usecase "UC09. Register the arrival of a SNS User" as UC10
  usecase "UC10. Confirm vaccination appointment for a given SNS user" as UC11
  usecase "UC11. Register that a given SNS User is ready to take the vaccine" as UC12
  usecase "UC12. View centers' statistics and charts" as UC13
  usecase "UC13. Generate a center report" as UC14
  usecase "UC14. Analyse other center vaccination data" as UC15
  usecase "UC15. Configure type of vaccine" as UC16
  usecase "UC16. Configure vaccine" as UC17
  usecase "UC17. Register and manage vaccination center" as UC18
  usecase "UC18. Register and manage employee" as UC19
  usecase "UC19. Register new SNS User" as UC20
  usecase "UC20  Notify SNS user that the recovery period has ended" as UC21
}

user - - UC01
user - - UC02
dgs - - UC03
recept - - UC01
nurse - - UC05
nurse - - UC06
nurse - - UC07
nurse - - UC08
nurse - - UC09
recept - - UC10
recept - - UC11
recept - - UC12
coordinator - - UC13
coordinator - - UC14
coordinator - - UC15
admin - - UC16
admin - - UC17
admin - - UC18
admin - - UC19
admin - - UC20
dgs - - UC21
dgsMail - - UC21

@enduml

PlantUML version 1.2022.0(Tue Jan 11 16:16:42 WET 2022)
(GPL source distribution)
Java Runtime: Java(TM) SE Runtime Environment
JVM: Java HotSpot(TM) 64-Bit Server VM
Default Encoding: Cp1252
Language: pt
Country: PT
--></g></svg>