<?xml version="1.0" encoding="UTF-8" standalone="no"?><svg xmlns="http://www.w3.org/2000/svg" xmlns:xlink="http://www.w3.org/1999/xlink" contentScriptType="application/ecmascript" contentStyleType="text/css" height="2367px" preserveAspectRatio="none" style="width:733px;height:2367px;background:#FFFFFF;" version="1.1" viewBox="0 0 733 2367" width="733px" zoomAndPan="magnify"><defs><filter height="300%" id="f1nrsabps0goe4" width="300%" x="-1" y="-1"><feGaussianBlur result="blurOut" stdDeviation="2.0"/><feColorMatrix in="blurOut" result="blurOut2" type="matrix" values="0 0 0 0 0 0 0 0 0 0 0 0 0 0 0 0 0 0 .4 0"/><feOffset dx="4.0" dy="4.0" in="blurOut2" result="blurOut3"/><feBlend in="SourceGraphic" in2="blurOut3" mode="normal"/></filter></defs><g><!--MD5=[99b31deea5d7419a569cd5090bf83263]
cluster System--><rect fill="#FFFFFF" filter="url(#f1nrsabps0goe4)" height="2348" style="stroke:#000000;stroke-width:1.5;" width="541" x="180" y="7"/><text fill="#000000" font-family="sans-serif" font-size="14" font-weight="bold" lengthAdjust="spacing" textLength="50" x="425.5" y="23.5332">System</text><ellipse cx="450.5873" cy="183.1175" fill="#FEFECE" filter="url(#f1nrsabps0goe4)" rx="83.5873" ry="19.1175" style="stroke:#A80036;stroke-width:1.5;"/><text fill="#000000" font-family="sans-serif" font-size="14" lengthAdjust="spacing" textLength="123" x="389.0873" y="186.846">Schedule a vaccine</text><ellipse cx="450.4076" cy="85.9815" fill="#FEFECE" filter="url(#f1nrsabps0goe4)" rx="202.9076" ry="42.9815" style="stroke:#A80036;stroke-width:1.5;"/><text fill="#000000" font-family="sans-serif" font-size="14" lengthAdjust="spacing" textLength="378" x="261.4076" y="89.71">Request the issuance of the EU COVID-19 Digital Certificate</text><ellipse cx="450.5002" cy="2179.9" fill="#FEFECE" filter="url(#f1nrsabps0goe4)" rx="167.5002" ry="35.9" style="stroke:#A80036;stroke-width:1.5;"/><text fill="#000000" font-family="sans-serif" font-size="14" lengthAdjust="spacing" textLength="305" x="298.0002" y="2183.6286">Send a SMS with apointment details to SNS User</text><ellipse cx="450.3903" cy="358.0781" fill="#FEFECE" filter="url(#f1nrsabps0goe4)" rx="110.8903" ry="24.5781" style="stroke:#A80036;stroke-width:1.5;"/><text fill="#000000" font-family="sans-serif" font-size="14" lengthAdjust="spacing" textLength="185" x="357.8903" y="361.8066">Issue a vaccination certificate</text><ellipse cx="450.7387" cy="444.8477" fill="#FEFECE" filter="url(#f1nrsabps0goe4)" rx="124.7387" ry="27.3477" style="stroke:#A80036;stroke-width:1.5;"/><text fill="#000000" font-family="sans-serif" font-size="14" lengthAdjust="spacing" textLength="215" x="343.2387" y="448.5763">Schedule a vaccine to a SNS User</text><ellipse cx="450.3848" cy="560.777" fill="#FEFECE" filter="url(#f1nrsabps0goe4)" rx="254.3848" ry="53.277" style="stroke:#A80036;stroke-width:1.5;"/><text fill="#000000" font-family="sans-serif" font-size="14" lengthAdjust="spacing" textLength="483" x="208.8848" y="564.5055">Check the list of SNS Users that are present in the center to take the vaccine</text><ellipse cx="450.3167" cy="675.8633" fill="#FEFECE" filter="url(#f1nrsabps0goe4)" rx="117.3167" ry="25.8633" style="stroke:#A80036;stroke-width:1.5;"/><text fill="#000000" font-family="sans-serif" font-size="14" lengthAdjust="spacing" textLength="199" x="350.8167" y="679.5919">Check user's health information</text><ellipse cx="450.4639" cy="773.0928" fill="#FEFECE" filter="url(#f1nrsabps0goe4)" rx="168.4639" ry="36.0928" style="stroke:#A80036;stroke-width:1.5;"/><text fill="#000000" font-family="sans-serif" font-size="14" lengthAdjust="spacing" textLength="307" x="296.9639" y="776.8213">Report adverse reactions during recovery period</text><ellipse cx="450.2783" cy="267.8557" fill="#FEFECE" filter="url(#f1nrsabps0goe4)" rx="139.7783" ry="30.3557" style="stroke:#A80036;stroke-width:1.5;"/><text fill="#000000" font-family="sans-serif" font-size="14" lengthAdjust="spacing" textLength="247" x="326.7783" y="271.5842">Register SNS User's vaccination details</text><ellipse cx="450.5728" cy="988.8146" fill="#FEFECE" filter="url(#f1nrsabps0goe4)" rx="127.0728" ry="27.8146" style="stroke:#A80036;stroke-width:1.5;"/><text fill="#000000" font-family="sans-serif" font-size="14" lengthAdjust="spacing" textLength="220" x="340.5728" y="992.5431">Register the arrival of an SNS User</text><ellipse cx="450.7487" cy="884.9497" fill="#FEFECE" filter="url(#f1nrsabps0goe4)" rx="190.2487" ry="40.4497" style="stroke:#A80036;stroke-width:1.5;"/><text fill="#000000" font-family="sans-serif" font-size="14" lengthAdjust="spacing" textLength="352" x="274.7487" y="888.6782">Confirm vaccination apointment for a given SNS number</text><ellipse cx="450.4824" cy="1652.8965" fill="#FEFECE" filter="url(#f1nrsabps0goe4)" rx="199.9824" ry="42.3965" style="stroke:#A80036;stroke-width:1.5;"/><text fill="#000000" font-family="sans-serif" font-size="14" lengthAdjust="spacing" textLength="372" x="264.4824" y="1656.625">Register that a given SNS User is ready to take the vaccine</text><ellipse cx="450.3069" cy="1758.1614" fill="#FEFECE" filter="url(#f1nrsabps0goe4)" rx="123.8069" ry="27.1614" style="stroke:#A80036;stroke-width:1.5;"/><text fill="#000000" font-family="sans-serif" font-size="14" lengthAdjust="spacing" textLength="213" x="343.8069" y="1761.8899">Register a new vaccination center</text><ellipse cx="450.7239" cy="1842.1448" fill="#FEFECE" filter="url(#f1nrsabps0goe4)" rx="98.7239" ry="22.1448" style="stroke:#A80036;stroke-width:1.5;"/><text fill="#000000" font-family="sans-serif" font-size="14" lengthAdjust="spacing" textLength="158" x="371.7239" y="1845.8733">Register a new SNS User</text><ellipse cx="450.2727" cy="1389.7545" fill="#FEFECE" filter="url(#f1nrsabps0goe4)" rx="124.2727" ry="27.2545" style="stroke:#A80036;stroke-width:1.5;"/><text fill="#000000" font-family="sans-serif" font-size="14" lengthAdjust="spacing" textLength="214" x="343.2727" y="1393.4831">Register a new center coordinator</text><ellipse cx="450.5397" cy="1475.8079" fill="#FEFECE" filter="url(#f1nrsabps0goe4)" rx="104.5397" ry="23.3079" style="stroke:#A80036;stroke-width:1.5;"/><text fill="#000000" font-family="sans-serif" font-size="14" lengthAdjust="spacing" textLength="171" x="365.0397" y="1479.5365">Register a new receptionist</text><ellipse cx="450.7471" cy="1555.0494" fill="#FEFECE" filter="url(#f1nrsabps0goe4)" rx="88.2471" ry="20.0494" style="stroke:#A80036;stroke-width:1.5;"/><text fill="#000000" font-family="sans-serif" font-size="14" lengthAdjust="spacing" textLength="134" x="383.7471" y="1558.7779">Register a new nurse</text><ellipse cx="450.3414" cy="1926.0683" fill="#FEFECE" filter="url(#f1nrsabps0goe4)" rx="123.3414" ry="27.0683" style="stroke:#A80036;stroke-width:1.5;"/><text fill="#000000" font-family="sans-serif" font-size="14" lengthAdjust="spacing" textLength="212" x="344.3414" y="1929.7968">View center's statistics and charts</text><ellipse cx="450.7239" cy="2010.1448" fill="#FEFECE" filter="url(#f1nrsabps0goe4)" rx="98.7239" ry="22.1448" style="stroke:#A80036;stroke-width:1.5;"/><text fill="#000000" font-family="sans-serif" font-size="14" lengthAdjust="spacing" textLength="158" x="371.7239" y="2013.8733">Generate a center report</text><ellipse cx="450.4659" cy="2087.8932" fill="#FEFECE" filter="url(#f1nrsabps0goe4)" rx="89.9659" ry="20.3932" style="stroke:#A80036;stroke-width:1.5;"/><text fill="#000000" font-family="sans-serif" font-size="14" lengthAdjust="spacing" textLength="138" x="381.4659" y="2091.6217">Analyse other centers</text><ellipse cx="450.6901" cy="1148.038" fill="#FEFECE" filter="url(#f1nrsabps0goe4)" rx="103.1901" ry="23.038" style="stroke:#A80036;stroke-width:1.5;"/><text fill="#000000" font-family="sans-serif" font-size="14" lengthAdjust="spacing" textLength="168" x="366.6901" y="1151.7665">Configure type of vaccines</text><ellipse cx="450.2516" cy="1224.9503" fill="#FEFECE" filter="url(#f1nrsabps0goe4)" rx="82.7516" ry="18.9503" style="stroke:#A80036;stroke-width:1.5;"/><text fill="#000000" font-family="sans-serif" font-size="14" lengthAdjust="spacing" textLength="121" x="389.7516" y="1228.6788">Configure vaccines</text><ellipse cx="450.2512" cy="1302.8502" fill="#FEFECE" filter="url(#f1nrsabps0goe4)" rx="107.2512" ry="23.8502" style="stroke:#A80036;stroke-width:1.5;"/><text fill="#000000" font-family="sans-serif" font-size="14" lengthAdjust="spacing" textLength="177" x="361.7512" y="1306.5788">Manage vaccination centers</text><ellipse cx="450.5873" cy="1071.1175" fill="#FEFECE" filter="url(#f1nrsabps0goe4)" rx="83.5873" ry="19.1175" style="stroke:#A80036;stroke-width:1.5;"/><text fill="#000000" font-family="sans-serif" font-size="14" lengthAdjust="spacing" textLength="123" x="389.0873" y="1074.846">Manage employees</text><ellipse cx="450.2996" cy="2294.8599" fill="#FEFECE" filter="url(#f1nrsabps0goe4)" rx="207.2996" ry="43.8599" style="stroke:#A80036;stroke-width:1.5;"/><text fill="#000000" font-family="sans-serif" font-size="14" lengthAdjust="spacing" textLength="387" x="256.7996" y="2298.5884">Send a SMS to notify the user that the recovery period ended</text><!--MD5=[8fc3522a43f8c7199df5e09e5bb0188e]
entity user--><ellipse cx="71" cy="103" fill="#FEFECE" filter="url(#f1nrsabps0goe4)" rx="8" ry="8" style="stroke:#A80036;stroke-width:1.5;"/><path d="M71,111 L71,138 M58,119 L84,119 M71,138 L58,153 M71,138 L84,153 " fill="none" filter="url(#f1nrsabps0goe4)" style="stroke:#A80036;stroke-width:1.5;"/><text fill="#000000" font-family="sans-serif" font-size="14" lengthAdjust="spacing" textLength="60" x="41" y="173.0332">SNS User</text><!--MD5=[87d66015e0fe95d70bf3fa68103252e8]
entity nurse--><ellipse cx="71" cy="471" fill="#FEFECE" filter="url(#f1nrsabps0goe4)" rx="8" ry="8" style="stroke:#A80036;stroke-width:1.5;"/><path d="M71,479 L71,506 M58,487 L84,487 M71,506 L58,521 M71,506 L84,521 " fill="none" filter="url(#f1nrsabps0goe4)" style="stroke:#A80036;stroke-width:1.5;"/><text fill="#000000" font-family="sans-serif" font-size="14" lengthAdjust="spacing" textLength="37" x="52.5" y="541.0332">Nurse</text><!--MD5=[34dc565525bad95b6b789d13e524f0bb]
entity recept--><ellipse cx="71" cy="905" fill="#FEFECE" filter="url(#f1nrsabps0goe4)" rx="8" ry="8" style="stroke:#A80036;stroke-width:1.5;"/><path d="M71,913 L71,940 M58,921 L84,921 M71,940 L58,955 M71,940 L84,955 " fill="none" filter="url(#f1nrsabps0goe4)" style="stroke:#A80036;stroke-width:1.5;"/><text fill="#000000" font-family="sans-serif" font-size="14" lengthAdjust="spacing" textLength="78" x="32" y="975.0332">Receptionist</text><!--MD5=[d48fafb9a26bd4e554e8ff5ae11b5e16]
entity cadmin--><ellipse cx="71" cy="1155" fill="#FEFECE" filter="url(#f1nrsabps0goe4)" rx="8" ry="8" style="stroke:#A80036;stroke-width:1.5;"/><path d="M71,1163 L71,1190 M58,1171 L84,1171 M71,1190 L58,1205 M71,1190 L84,1205 " fill="none" filter="url(#f1nrsabps0goe4)" style="stroke:#A80036;stroke-width:1.5;"/><text fill="#000000" font-family="sans-serif" font-size="14" lengthAdjust="spacing" textLength="130" x="6" y="1225.0332">Center Administrator</text><!--MD5=[e098f6277154155999235ffbce7c1406]
entity dgsadmin--><ellipse cx="71" cy="1572" fill="#FEFECE" filter="url(#f1nrsabps0goe4)" rx="8" ry="8" style="stroke:#A80036;stroke-width:1.5;"/><path d="M71,1580 L71,1607 M58,1588 L84,1588 M71,1607 L58,1622 M71,1607 L84,1622 " fill="none" filter="url(#f1nrsabps0goe4)" style="stroke:#A80036;stroke-width:1.5;"/><text fill="#000000" font-family="sans-serif" font-size="14" lengthAdjust="spacing" textLength="117" x="12.5" y="1642.0332">DGS Administrator</text><!--MD5=[4d302acd527bc9f790d99ea65b823e73]
entity coordinator--><ellipse cx="71" cy="1978" fill="#FEFECE" filter="url(#f1nrsabps0goe4)" rx="8" ry="8" style="stroke:#A80036;stroke-width:1.5;"/><path d="M71,1986 L71,2013 M58,1994 L84,1994 M71,2013 L58,2028 M71,2013 L84,2028 " fill="none" filter="url(#f1nrsabps0goe4)" style="stroke:#A80036;stroke-width:1.5;"/><text fill="#000000" font-family="sans-serif" font-size="14" lengthAdjust="spacing" textLength="122" x="10" y="2048.0332">Center Coordinator</text><!--MD5=[35a5fbeaf6a2ee9183db1c700347a06a]
entity dgs--><ellipse cx="71" cy="2147" fill="#FEFECE" filter="url(#f1nrsabps0goe4)" rx="8" ry="8" style="stroke:#A80036;stroke-width:1.5;"/><path d="M71,2155 L71,2182 M58,2163 L84,2163 M71,2182 L58,2197 M71,2182 L84,2197 " fill="none" filter="url(#f1nrsabps0goe4)" style="stroke:#A80036;stroke-width:1.5;"/><text fill="#000000" font-family="sans-serif" font-size="14" lengthAdjust="spacing" textLength="30" x="56" y="2217.0332">DGS</text><!--MD5=[691a1726be306d84324876b17512fe90]
entity system--><ellipse cx="71" cy="2265" fill="#FEFECE" filter="url(#f1nrsabps0goe4)" rx="8" ry="8" style="stroke:#A80036;stroke-width:1.5;"/><path d="M71,2273 L71,2300 M58,2281 L84,2281 M71,2300 L58,2315 M71,2300 L84,2315 " fill="none" filter="url(#f1nrsabps0goe4)" style="stroke:#A80036;stroke-width:1.5;"/><text fill="#000000" font-family="sans-serif" font-size="14" lengthAdjust="spacing" textLength="46" x="48" y="2335.0332">System</text><!--MD5=[140266ba44ac8b87f85e725624a55779]
link user to UC01--><path d="M101.31,138.73 C158.83,146.04 288.19,162.49 372.01,173.15 " fill="none" id="user-to-UC01" style="stroke:#A80036;stroke-width:1.0;"/><polygon fill="#A80036" points="377.22,173.81,368.7947,168.7096,372.2597,173.181,367.7883,176.6461,377.22,173.81" style="stroke:#A80036;stroke-width:1.0;"/><!--MD5=[c01662b9893b7f9ffe638de90c98fa3a]
link user to UC02--><path d="M101.31,131.2 C138.62,126.35 206.16,117.59 271.89,109.05 " fill="none" id="user-to-UC02" style="stroke:#A80036;stroke-width:1.0;"/><polygon fill="#A80036" points="277.02,108.39,267.5803,105.5807,272.0615,109.033,268.6092,113.5142,277.02,108.39" style="stroke:#A80036;stroke-width:1.0;"/><!--MD5=[de45711618a2a9dd1d44cfe2b3e3c73b]
link dgs to UC03--><path d="M86.34,2179.04 C118.56,2179.12 199.96,2179.34 277.55,2179.54 " fill="none" id="dgs-to-UC03" style="stroke:#A80036;stroke-width:1.0;"/><polygon fill="#A80036" points="282.66,2179.56,273.6715,2175.5343,277.66,2179.5457,273.6486,2183.5343,282.66,2179.56" style="stroke:#A80036;stroke-width:1.0;"/><!--MD5=[73520b6383863c8c1eb4ab9889a39df5]
link nurse to UC04--><path d="M89.69,476.73 C107.48,452.59 137.21,417.9 172,400 C221.63,374.46 282.41,363.37 334.42,358.91 " fill="none" id="nurse-to-UC04" style="stroke:#A80036;stroke-width:1.0;"/><polygon fill="#A80036" points="339.43,358.5,330.1297,355.259,334.4472,358.914,330.7921,363.2315,339.43,358.5" style="stroke:#A80036;stroke-width:1.0;"/><!--MD5=[5bb5dcefbc65873dedbd3c6858dc790c]
link nurse to UC05--><path d="M89.7,500.28 C134.19,493.44 253.51,475.11 342.62,461.42 " fill="none" id="nurse-to-UC05" style="stroke:#A80036;stroke-width:1.0;"/><polygon fill="#A80036" points="347.64,460.65,338.1381,458.0588,342.6976,461.4071,339.3494,465.9666,347.64,460.65" style="stroke:#A80036;stroke-width:1.0;"/><!--MD5=[42568f645a79a37828c16c508b3ea4f3]
link nurse to UC06--><path d="M89.7,505.72 C118.13,510.09 177.1,519.15 239.22,528.69 " fill="none" id="nurse-to-UC06" style="stroke:#A80036;stroke-width:1.0;"/><polygon fill="#A80036" points="244.47,529.5,236.1794,524.1834,239.5276,528.7429,234.9681,532.0912,244.47,529.5" style="stroke:#A80036;stroke-width:1.0;"/><!--MD5=[281c5965a45307b972b9fafd7dc9d075]
link nurse to UC07--><path d="M89.58,538.42 C106.44,568.43 134.81,609.99 172,632 C218.47,659.5 276.64,671.44 327.7,676.14 " fill="none" id="nurse-to-UC07" style="stroke:#A80036;stroke-width:1.0;"/><polygon fill="#A80036" points="332.94,676.6,324.3292,671.8194,327.9596,676.1576,323.6214,679.788,332.94,676.6" style="stroke:#A80036;stroke-width:1.0;"/><!--MD5=[5306f834103bd019928d2c56277b17a1]
link nurse to UC08--><path d="M79.45,544.64 C90.6,594.16 116.54,675.54 172,719 C202.69,743.05 241.05,757.37 279.36,765.69 " fill="none" id="nurse-to-UC08" style="stroke:#A80036;stroke-width:1.0;"/><polygon fill="#A80036" points="284.52,766.77,276.5337,761.0064,279.6266,765.7428,274.8902,768.8358,284.52,766.77" style="stroke:#A80036;stroke-width:1.0;"/><!--MD5=[ba10721c796bf8e05da1d4cf00621405]
link nurse to UC09--><path d="M82.62,461.2 C95.95,417.75 123.2,351.24 172,316 C210.34,288.31 259.32,274.69 305.43,268.47 " fill="none" id="nurse-to-UC09" style="stroke:#A80036;stroke-width:1.0;"/><polygon fill="#A80036" points="310.46,267.81,301.0203,265.0007,305.5015,268.453,302.0492,272.9342,310.46,267.81" style="stroke:#A80036;stroke-width:1.0;"/><!--MD5=[5ecaaaa6d6a50bba066cd1281b230436]
link recept to UC10--><path d="M110.27,942.27 C163.01,949.54 260.2,962.92 337.08,973.51 " fill="none" id="recept-to-UC10" style="stroke:#A80036;stroke-width:1.0;"/><polygon fill="#A80036" points="342.12,974.21,333.7383,969.0382,337.1652,973.5389,332.6646,976.9658,342.12,974.21" style="stroke:#A80036;stroke-width:1.0;"/><!--MD5=[fbc97369f0f4b67e192977046dde35f4]
link recept to UC11--><path d="M110.27,931.73 C151.65,926.03 220.41,916.56 285.24,907.63 " fill="none" id="recept-to-UC11" style="stroke:#A80036;stroke-width:1.0;"/><polygon fill="#A80036" points="290.3,906.93,280.8368,904.2009,285.3472,907.6151,281.933,912.1255,290.3,906.93" style="stroke:#A80036;stroke-width:1.0;"/><!--MD5=[f10fd1867f992d6c23645b22e3c9060a]
link dgsadmin to UC12--><path d="M129.75,1611.5 C168.66,1616.55 222.24,1623.5 274.42,1630.27 " fill="none" id="dgsadmin-to-UC12" style="stroke:#A80036;stroke-width:1.0;"/><polygon fill="#A80036" points="279.46,1630.93,271.0492,1625.8058,274.5015,1630.287,270.0203,1633.7393,279.46,1630.93" style="stroke:#A80036;stroke-width:1.0;"/><!--MD5=[d7269a70f8a1b2dc62ea30a889632ee0]
link dgsadmin to UC13--><path d="M99.47,1645.71 C117.29,1669.29 142.62,1697.15 172,1713 C217.37,1737.47 272.54,1749.41 321.7,1754.99 " fill="none" id="dgsadmin-to-UC13" style="stroke:#A80036;stroke-width:1.0;"/><polygon fill="#A80036" points="326.75,1755.54,318.2374,1750.5867,321.7795,1754.9972,317.369,1758.5394,326.75,1755.54" style="stroke:#A80036;stroke-width:1.0;"/><!--MD5=[ca820776518cd617d7a259344ec2dfc4]
link dgsadmin to UC14--><path d="M80.92,1645.55 C93.13,1691.64 119.78,1764.47 172,1802 C223.7,1839.16 295.02,1848.78 352.4,1849.32 " fill="none" id="dgsadmin-to-UC14" style="stroke:#A80036;stroke-width:1.0;"/><polygon fill="#A80036" points="357.56,1849.34,348.583,1845.2886,352.5601,1849.3114,348.5373,1853.2885,357.56,1849.34" style="stroke:#A80036;stroke-width:1.0;"/><!--MD5=[6c0747816ff5f6894e13cbe642ecff63]
link dgsadmin to UC15--><path d="M85.04,1562.38 C99.66,1522.98 127.36,1465.45 172,1435 C215.27,1405.49 271.03,1392.81 321.2,1388.04 " fill="none" id="dgsadmin-to-UC15" style="stroke:#A80036;stroke-width:1.0;"/><polygon fill="#A80036" points="326.34,1387.57,317.0214,1384.382,321.3596,1388.0124,317.7292,1392.3506,326.34,1387.57" style="stroke:#A80036;stroke-width:1.0;"/><!--MD5=[f73cc0d7ef78d1f4a9a40524451515d9]
link dgsadmin to UC16--><path d="M109.57,1562.16 C126.91,1545.45 148.8,1527.68 172,1517 C224.5,1492.84 287.96,1482.27 340.93,1477.88 " fill="none" id="dgsadmin-to-UC16" style="stroke:#A80036;stroke-width:1.0;"/><polygon fill="#A80036" points="346.03,1477.47,336.7389,1474.2026,341.046,1477.8699,337.3787,1482.1769,346.03,1477.47" style="stroke:#A80036;stroke-width:1.0;"/><!--MD5=[a8f3fb4840e4a4fc2bcaca88307f7426]
link dgsadmin to UC17--><path d="M129.75,1596.5 C193.58,1588.22 296.87,1574.81 368.72,1565.49 " fill="none" id="dgsadmin-to-UC17" style="stroke:#A80036;stroke-width:1.0;"/><polygon fill="#A80036" points="373.84,1564.82,364.4003,1562.0107,368.8815,1565.463,365.4292,1569.9442,373.84,1564.82" style="stroke:#A80036;stroke-width:1.0;"/><!--MD5=[ceedcd86907d982e68a98fcbde707650]
link coordinator to UC18--><path d="M132.07,1983.46 C145.05,1978.44 158.84,1973.63 172,1970 C224.4,1955.56 283.75,1945.36 334.08,1938.43 " fill="none" id="coordinator-to-UC18" style="stroke:#A80036;stroke-width:1.0;"/><polygon fill="#A80036" points="339.24,1937.73,329.7846,1934.9742,334.2852,1938.4011,330.8583,1942.9018,339.24,1937.73" style="stroke:#A80036;stroke-width:1.0;"/><!--MD5=[60dec685cb8c65457641ae9c0dbdc30a]
link coordinator to UC19--><path d="M132.23,2010 C189.85,2010 277.89,2010 346.63,2010 " fill="none" id="coordinator-to-UC19" style="stroke:#A80036;stroke-width:1.0;"/><polygon fill="#A80036" points="351.96,2010,342.96,2006,346.96,2010,342.96,2014,351.96,2010" style="stroke:#A80036;stroke-width:1.0;"/><!--MD5=[2ff798229421eb8c555190bc272acb6b]
link coordinator to UC20--><path d="M132.07,2036.02 C145.05,2040.91 158.84,2045.56 172,2049 C233.78,2065.15 305.17,2075 360.06,2080.75 " fill="none" id="coordinator-to-UC20" style="stroke:#A80036;stroke-width:1.0;"/><polygon fill="#A80036" points="365.32,2081.3,356.7794,2076.3951,360.3465,2080.7855,355.9562,2084.3527,365.32,2081.3" style="stroke:#A80036;stroke-width:1.0;"/><!--MD5=[8c64daca5633e95bc0244ad180f5bced]
link cadmin to UC21--><path d="M136.04,1180.38 C195.08,1174.28 283.6,1165.14 351.52,1158.12 " fill="none" id="cadmin-to-UC21" style="stroke:#A80036;stroke-width:1.0;"/><polygon fill="#A80036" points="356.79,1157.58,347.4262,1154.5273,351.8165,1158.0945,348.2494,1162.4849,356.79,1157.58" style="stroke:#A80036;stroke-width:1.0;"/><!--MD5=[9acbe5158d26312848c5f9dcdf767e25]
link cadmin to UC22--><path d="M136.04,1193.45 C200.21,1199.91 299.19,1209.87 368.72,1216.87 " fill="none" id="cadmin-to-UC22" style="stroke:#A80036;stroke-width:1.0;"/><polygon fill="#A80036" points="374.09,1217.41,365.5355,1212.5294,369.1151,1216.9097,364.7349,1220.4893,374.09,1217.41" style="stroke:#A80036;stroke-width:1.0;"/><!--MD5=[0de9b869147e02faae49b7a94e799a26]
link cadmin to UC23--><path d="M118.42,1228.65 C134.4,1240.91 153.05,1253.13 172,1261 C224.53,1282.82 286.85,1293.47 339.12,1298.6 " fill="none" id="cadmin-to-UC23" style="stroke:#A80036;stroke-width:1.0;"/><polygon fill="#A80036" points="344.14,1299.08,335.5578,1294.2482,339.1623,1298.608,334.8026,1302.2125,344.14,1299.08" style="stroke:#A80036;stroke-width:1.0;"/><!--MD5=[55b301bf8b4fae40972fbc4a4aaa88cc]
link cadmin to UC24--><path d="M113.39,1145.45 C130.23,1130.94 150.72,1116.04 172,1107 C232.11,1081.45 305.62,1072.81 361.87,1070.36 " fill="none" id="cadmin-to-UC24" style="stroke:#A80036;stroke-width:1.0;"/><polygon fill="#A80036" points="366.92,1070.16,357.757,1066.549,361.9246,1070.3741,358.0995,1074.5417,366.92,1070.16" style="stroke:#A80036;stroke-width:1.0;"/><!--MD5=[a894ed12e856a42b63334c47b8961322]
link system to US25--><path d="M94.2,2296.88 C123.74,2296.73 179.04,2296.43 237.36,2296.12 " fill="none" id="system-to-US25" style="stroke:#A80036;stroke-width:1.0;"/><polygon fill="#A80036" points="242.65,2296.1,233.6273,2292.1515,237.6501,2296.1286,233.673,2300.1514,242.65,2296.1" style="stroke:#A80036;stroke-width:1.0;"/><!--MD5=[b2d8be22ddbbb6c990df8aef5e5a4f69]
@startuml UCD

left to right direction

actor "SNS User" as user
actor "Nurse" as nurse
actor "Receptionist" as recept
actor "Center Administrator" as cadmin
actor "DGS Administrator" as dgsadmin
actor "Center Coordinator" as coordinator
actor "DGS" as dgs
actor "System" as system

rectangle System {
  usecase "Schedule a vaccine" as UC01
  usecase "Request the issuance of the EU COVID-19 Digital Certificate" as UC02
  usecase "Send a SMS with apointment details to SNS User" as UC03
  usecase "Issue a vaccination certificate" as UC04
  usecase "Schedule a vaccine to a SNS User" as UC05
  usecase "Check the list of SNS Users that are present in the center to take the vaccine" as UC06
  usecase "Check user's health information" as UC07
  usecase "Report adverse reactions during recovery period" as UC08
  usecase "Register SNS User's vaccination details" as UC09
  usecase "Register the arrival of an SNS User" as UC10
  usecase "Confirm vaccination apointment for a given SNS number" as UC11
  usecase "Register that a given SNS User is ready to take the vaccine" as UC12
  usecase "Register a new vaccination center" as UC13
  usecase "Register a new SNS User" as UC14
  usecase "Register a new center coordinator" as UC15
  usecase "Register a new receptionist" as UC16
  usecase "Register a new nurse" as UC17
  usecase "View center's statistics and charts" as UC18
  usecase "Generate a center report" as UC19
  usecase "Analyse other centers" as UC20
  usecase "Configure type of vaccines" as UC21
  usecase "Configure vaccines" as UC22
  usecase "Manage vaccination centers" as UC23
  usecase "Manage employees" as UC24
  usecase "Send a SMS to notify the user that the recovery period ended" as US25
}

user - -> UC01
user - -> UC02
dgs - -> UC03
nurse - -> UC04
nurse - -> UC05
nurse - -> UC06
nurse - -> UC07
nurse - -> UC08
nurse - -> UC09
recept - -> UC10
recept - -> UC11
dgsadmin - -> UC12
dgsadmin - -> UC13
dgsadmin - -> UC14
dgsadmin - -> UC15
dgsadmin - -> UC16
dgsadmin - -> UC17
coordinator - -> UC18
coordinator - -> UC19
coordinator - -> UC20
cadmin - -> UC21
cadmin - -> UC22
cadmin - -> UC23
cadmin - -> UC24
system - -> US25

@enduml

PlantUML version 1.2022.1(Tue Feb 01 18:19:58 GMT 2022)
(GPL source distribution)
Java Runtime: OpenJDK Runtime Environment
JVM: OpenJDK 64-Bit Server VM
Default Encoding: Cp1252
Language: pt
Country: PT
--></g></svg>