<?xml version="1.0" encoding="UTF-8" standalone="no"?><svg xmlns="http://www.w3.org/2000/svg" xmlns:xlink="http://www.w3.org/1999/xlink" contentScriptType="application/ecmascript" contentStyleType="text/css" height="2362px" preserveAspectRatio="none" style="width:849px;height:2362px;background:#FFFFFF;" version="1.1" viewBox="0 0 849 2362" width="849px" zoomAndPan="magnify"><defs><filter height="300%" id="f108m7e7cw5jof" width="300%" x="-1" y="-1"><feGaussianBlur result="blurOut" stdDeviation="2.0"/><feColorMatrix in="blurOut" result="blurOut2" type="matrix" values="0 0 0 0 0 0 0 0 0 0 0 0 0 0 0 0 0 0 .4 0"/><feOffset dx="4.0" dy="4.0" in="blurOut2" result="blurOut3"/><feBlend in="SourceGraphic" in2="blurOut3" mode="normal"/></filter></defs><g><!--MD5=[99b31deea5d7419a569cd5090bf83263]
cluster System--><rect fill="#FFFFFF" filter="url(#f108m7e7cw5jof)" height="2343" style="stroke:#000000;stroke-width:1.5;" width="631" x="206" y="7"/><text fill="#000000" font-family="sans-serif" font-size="14" font-weight="bold" lengthAdjust="spacing" textLength="58" x="492.5" y="21.9951">System</text><ellipse cx="521.3276" cy="65.7655" fill="#FEFECE" filter="url(#f108m7e7cw5jof)" rx="106.8276" ry="23.7655" style="stroke:#A80036;stroke-width:1.5;"/><text fill="#000000" font-family="sans-serif" font-size="14" lengthAdjust="spacing" textLength="179" x="431.8276" y="68.6122">UC01. Schedule a vaccine</text><ellipse cx="521.3556" cy="163.1711" fill="#FEFECE" filter="url(#f108m7e7cw5jof)" rx="176.3556" ry="37.6711" style="stroke:#A80036;stroke-width:1.5;"/><text fill="#000000" font-family="sans-serif" font-size="14" lengthAdjust="spacing" textLength="325" x="358.8556" y="166.0178">UC02. Request the issuance vaccine certificate</text><ellipse cx="521.6177" cy="2290.2235" fill="#FEFECE" filter="url(#f108m7e7cw5jof)" rx="206.6177" ry="43.7235" style="stroke:#A80036;stroke-width:1.5;"/><text fill="#000000" font-family="sans-serif" font-size="14" lengthAdjust="spacing" textLength="387" x="328.1177" y="2293.0702">UC03. Send a SMS with appointment details to SNS User</text><ellipse cx="521.6339" cy="949.0268" fill="#FEFECE" filter="url(#f108m7e7cw5jof)" rx="153.1339" ry="33.0268" style="stroke:#A80036;stroke-width:1.5;"/><text fill="#000000" font-family="sans-serif" font-size="14" lengthAdjust="spacing" textLength="277" x="383.1339" y="951.8735">UC04. Schedule a vaccine to a SNS User</text><ellipse cx="521.3143" cy="527.7629" fill="#FEFECE" filter="url(#f108m7e7cw5jof)" rx="299.3143" ry="62.2629" style="stroke:#A80036;stroke-width:1.5;"/><text fill="#000000" font-family="sans-serif" font-size="14" lengthAdjust="spacing" textLength="575" x="233.8143" y="530.6095">UC05. Check the list of SNS Users that are present in the center to take the vaccine</text><ellipse cx="521.3886" cy="657.7777" fill="#FEFECE" filter="url(#f108m7e7cw5jof)" rx="146.8886" ry="31.7777" style="stroke:#A80036;stroke-width:1.5;"/><text fill="#000000" font-family="sans-serif" font-size="14" lengthAdjust="spacing" textLength="264" x="389.3886" y="660.6244">UC06. Check user's health information</text><ellipse cx="521.741" cy="752.1482" fill="#FEFECE" filter="url(#f108m7e7cw5jof)" rx="121.241" ry="26.6482" style="stroke:#A80036;stroke-width:1.5;"/><text fill="#000000" font-family="sans-serif" font-size="14" lengthAdjust="spacing" textLength="210" x="416.741" y="754.9949">UC07. Issue vaccine certificate</text><ellipse cx="521.7002" cy="278.94" fill="#FEFECE" filter="url(#f108m7e7cw5jof)" rx="202.7002" ry="42.94" style="stroke:#A80036;stroke-width:1.5;"/><text fill="#000000" font-family="sans-serif" font-size="14" lengthAdjust="spacing" textLength="379" x="332.2002" y="281.7867">UC08. Report adverse reactions during recovery period</text><ellipse cx="521.5296" cy="394.0059" fill="#FEFECE" filter="url(#f108m7e7cw5jof)" rx="170.5296" ry="36.5059" style="stroke:#A80036;stroke-width:1.5;"/><text fill="#000000" font-family="sans-serif" font-size="14" lengthAdjust="spacing" textLength="313" x="365.0296" y="396.8526">UC09. Register SNS User's vaccination details</text><ellipse cx="521.5781" cy="846.8156" fill="#FEFECE" filter="url(#f108m7e7cw5jof)" rx="154.5781" ry="33.3156" style="stroke:#A80036;stroke-width:1.5;"/><text fill="#000000" font-family="sans-serif" font-size="14" lengthAdjust="spacing" textLength="280" x="381.5781" y="849.6623">UC10. Register the arrival of an SNS User</text><ellipse cx="521.667" cy="1066.1334" fill="#FEFECE" filter="url(#f108m7e7cw5jof)" rx="231.167" ry="48.6334" style="stroke:#A80036;stroke-width:1.5;"/><text fill="#000000" font-family="sans-serif" font-size="14" lengthAdjust="spacing" textLength="437" x="303.167" y="1068.9801">UC11. Confirm vaccination appointment for a given SNS number</text><ellipse cx="521.5807" cy="1199.2161" fill="#FEFECE" filter="url(#f108m7e7cw5jof)" rx="236.5807" ry="49.7161" style="stroke:#A80036;stroke-width:1.5;"/><text fill="#000000" font-family="sans-serif" font-size="14" lengthAdjust="spacing" textLength="448" x="297.5807" y="1202.0628">UC12. Register that a given SNS User is ready to take the vaccine</text><ellipse cx="521.5781" cy="2001.8156" fill="#FEFECE" filter="url(#f108m7e7cw5jof)" rx="154.5781" ry="33.3156" style="stroke:#A80036;stroke-width:1.5;"/><text fill="#000000" font-family="sans-serif" font-size="14" lengthAdjust="spacing" textLength="280" x="381.5781" y="2004.6623">UC13. View center's statistics and charts</text><ellipse cx="521.5038" cy="2097.9008" fill="#FEFECE" filter="url(#f108m7e7cw5jof)" rx="125.0038" ry="27.4008" style="stroke:#A80036;stroke-width:1.5;"/><text fill="#000000" font-family="sans-serif" font-size="14" lengthAdjust="spacing" textLength="218" x="412.5038" y="2100.7474">UC14. Generate a center report</text><ellipse cx="521.6614" cy="2185.9323" fill="#FEFECE" filter="url(#f108m7e7cw5jof)" rx="115.1614" ry="25.4323" style="stroke:#A80036;stroke-width:1.5;"/><text fill="#000000" font-family="sans-serif" font-size="14" lengthAdjust="spacing" textLength="197" x="423.1614" y="2188.779">UC15. Analyse other centers</text><ellipse cx="521.7278" cy="1399.8456" fill="#FEFECE" filter="url(#f108m7e7cw5jof)" rx="129.7278" ry="28.3456" style="stroke:#A80036;stroke-width:1.5;"/><text fill="#000000" font-family="sans-serif" font-size="14" lengthAdjust="spacing" textLength="228" x="407.7278" y="1402.6922">UC16. Configure type of vaccines</text><ellipse cx="521.4086" cy="1487.0817" fill="#FEFECE" filter="url(#f108m7e7cw5jof)" rx="105.9086" ry="23.5817" style="stroke:#A80036;stroke-width:1.5;"/><text fill="#000000" font-family="sans-serif" font-size="14" lengthAdjust="spacing" textLength="177" x="432.9086" y="1489.9284">UC17. Configure vaccines</text><ellipse cx="521.2595" cy="1583.8519" fill="#FEFECE" filter="url(#f108m7e7cw5jof)" rx="179.7595" ry="38.3519" style="stroke:#A80036;stroke-width:1.5;"/><text fill="#000000" font-family="sans-serif" font-size="14" lengthAdjust="spacing" textLength="332" x="355.2595" y="1586.6986">UC18. Register and manage vaccination centers</text><ellipse cx="521.2809" cy="1688.0562" fill="#FEFECE" filter="url(#f108m7e7cw5jof)" rx="138.2809" ry="30.0562" style="stroke:#A80036;stroke-width:1.5;"/><text fill="#000000" font-family="sans-serif" font-size="14" lengthAdjust="spacing" textLength="246" x="398.2809" y="1690.9029">UC19. Register and manage nurses</text><ellipse cx="521.4346" cy="1787.0869" fill="#FEFECE" filter="url(#f108m7e7cw5jof)" rx="158.4346" ry="34.0869" style="stroke:#A80036;stroke-width:1.5;"/><text fill="#000000" font-family="sans-serif" font-size="14" lengthAdjust="spacing" textLength="288" x="377.4346" y="1789.9336">UC20. Register and manage receptionists</text><ellipse cx="521.7327" cy="1895.0465" fill="#FEFECE" filter="url(#f108m7e7cw5jof)" rx="180.7327" ry="38.5465" style="stroke:#A80036;stroke-width:1.5;"/><text fill="#000000" font-family="sans-serif" font-size="14" lengthAdjust="spacing" textLength="334" x="354.7327" y="1897.8932">UC21. Register and manage center coordinators</text><ellipse cx="521.3973" cy="1310.1795" fill="#FEFECE" filter="url(#f108m7e7cw5jof)" rx="118.8973" ry="26.1795" style="stroke:#A80036;stroke-width:1.5;"/><text fill="#000000" font-family="sans-serif" font-size="14" lengthAdjust="spacing" textLength="205" x="418.8973" y="1313.0261">UC22. Register new SNS User</text><!--MD5=[8fc3522a43f8c7199df5e09e5bb0188e]
entity user--><ellipse cx="84" cy="84" fill="#FEFECE" filter="url(#f108m7e7cw5jof)" rx="8" ry="8" style="stroke:#A80036;stroke-width:1.5;"/><path d="M84,92 L84,119 M71,100 L97,100 M84,119 L71,134 M84,119 L97,134 " fill="none" filter="url(#f108m7e7cw5jof)" style="stroke:#A80036;stroke-width:1.5;"/><text fill="#000000" font-family="sans-serif" font-size="14" lengthAdjust="spacing" textLength="64" x="52" y="152.4951">SNS User</text><!--MD5=[87d66015e0fe95d70bf3fa68103252e8]
entity nurse--><ellipse cx="84" cy="497" fill="#FEFECE" filter="url(#f108m7e7cw5jof)" rx="8" ry="8" style="stroke:#A80036;stroke-width:1.5;"/><path d="M84,505 L84,532 M71,513 L97,513 M84,532 L71,547 M84,532 L97,547 " fill="none" filter="url(#f108m7e7cw5jof)" style="stroke:#A80036;stroke-width:1.5;"/><text fill="#000000" font-family="sans-serif" font-size="14" lengthAdjust="spacing" textLength="41" x="63.5" y="565.4951">Nurse</text><!--MD5=[34dc565525bad95b6b789d13e524f0bb]
entity recept--><ellipse cx="84" cy="977" fill="#FEFECE" filter="url(#f108m7e7cw5jof)" rx="8" ry="8" style="stroke:#A80036;stroke-width:1.5;"/><path d="M84,985 L84,1012 M71,993 L97,993 M84,1012 L71,1027 M84,1012 L97,1027 " fill="none" filter="url(#f108m7e7cw5jof)" style="stroke:#A80036;stroke-width:1.5;"/><text fill="#000000" font-family="sans-serif" font-size="14" lengthAdjust="spacing" textLength="87" x="40.5" y="1045.4951">Receptionist</text><!--MD5=[79a439086b036a57b90a01d7b2f8bbd1]
entity admin--><ellipse cx="84" cy="1553" fill="#FEFECE" filter="url(#f108m7e7cw5jof)" rx="8" ry="8" style="stroke:#A80036;stroke-width:1.5;"/><path d="M84,1561 L84,1588 M71,1569 L97,1569 M84,1588 L71,1603 M84,1588 L97,1603 " fill="none" filter="url(#f108m7e7cw5jof)" style="stroke:#A80036;stroke-width:1.5;"/><text fill="#000000" font-family="sans-serif" font-size="14" lengthAdjust="spacing" textLength="91" x="38.5" y="1621.4951">Administrator</text><!--MD5=[4d302acd527bc9f790d99ea65b823e73]
entity coordinator--><ellipse cx="84" cy="2067" fill="#FEFECE" filter="url(#f108m7e7cw5jof)" rx="8" ry="8" style="stroke:#A80036;stroke-width:1.5;"/><path d="M84,2075 L84,2102 M71,2083 L97,2083 M84,2102 L71,2117 M84,2102 L97,2117 " fill="none" filter="url(#f108m7e7cw5jof)" style="stroke:#A80036;stroke-width:1.5;"/><text fill="#000000" font-family="sans-serif" font-size="14" lengthAdjust="spacing" textLength="132" x="18" y="2135.4951">Center Coordinator</text><!--MD5=[35a5fbeaf6a2ee9183db1c700347a06a]
entity dgs--><ellipse cx="84" cy="2259" fill="#FEFECE" filter="url(#f108m7e7cw5jof)" rx="8" ry="8" style="stroke:#A80036;stroke-width:1.5;"/><path d="M84,2267 L84,2294 M71,2275 L97,2275 M84,2294 L71,2309 M84,2294 L97,2309 " fill="none" filter="url(#f108m7e7cw5jof)" style="stroke:#A80036;stroke-width:1.5;"/><text fill="#000000" font-family="sans-serif" font-size="14" lengthAdjust="spacing" textLength="156" x="6" y="2327.4951">«system» SMS Sender</text><!--MD5=[140266ba44ac8b87f85e725624a55779]
link user to UC01--><path d="M116.32,111.48 C178.97,104.43 322.12,88.32 420.09,77.3 " fill="none" id="user-to-UC01" style="stroke:#A80036;stroke-width:1.0;"/><polygon fill="#A80036" points="425.31,76.71,415.9205,73.7372,420.3411,77.2669,416.8115,81.6875,425.31,76.71" style="stroke:#A80036;stroke-width:1.0;"/><!--MD5=[c01662b9893b7f9ffe638de90c98fa3a]
link user to UC02--><path d="M116.32,118.45 C166.9,124.03 269.94,135.38 359.32,145.24 " fill="none" id="user-to-UC02" style="stroke:#A80036;stroke-width:1.0;"/><polygon fill="#A80036" points="364.38,145.79,355.8689,140.834,359.4097,145.2457,354.998,148.7865,364.38,145.79" style="stroke:#A80036;stroke-width:1.0;"/><!--MD5=[de45711618a2a9dd1d44cfe2b3e3c73b]
link dgs to UC03--><path d="M162.11,2290 C203.52,2290 256.81,2290 309.56,2290 " fill="none" id="dgs-to-UC03" style="stroke:#A80036;stroke-width:1.0;"/><polygon fill="#A80036" points="314.66,2290,305.66,2286,309.66,2290,305.66,2294,314.66,2290" style="stroke:#A80036;stroke-width:1.0;"/><!--MD5=[48179833b0ecfc7a902007618e793e6f]
link recept to UC04--><path d="M127.55,1002.24 C187,994.18 297.58,979.2 386.33,967.18 " fill="none" id="recept-to-UC04" style="stroke:#A80036;stroke-width:1.0;"/><polygon fill="#A80036" points="391.34,966.5,381.8846,963.7442,386.3852,967.1711,382.9583,971.6718,391.34,966.5" style="stroke:#A80036;stroke-width:1.0;"/><!--MD5=[5bb5dcefbc65873dedbd3c6858dc790c]
link nurse to UC05--><path d="M104.56,528 C127.59,528 168.84,528 216.7,528 " fill="none" id="nurse-to-UC05" style="stroke:#A80036;stroke-width:1.0;"/><polygon fill="#A80036" points="221.95,528,212.95,524,216.95,528,212.95,532,221.95,528" style="stroke:#A80036;stroke-width:1.0;"/><!--MD5=[42568f645a79a37828c16c508b3ea4f3]
link nurse to UC06--><path d="M104.53,546.18 C125.8,564.88 161.69,593.29 198,608 C253.05,630.3 317.1,642.73 373.54,649.62 " fill="none" id="nurse-to-UC06" style="stroke:#A80036;stroke-width:1.0;"/><polygon fill="#A80036" points="378.63,650.23,370.1615,645.2016,373.6645,649.6433,369.2228,653.1463,378.63,650.23" style="stroke:#A80036;stroke-width:1.0;"/><!--MD5=[281c5965a45307b972b9fafd7dc9d075]
link nurse to UC07--><path d="M98.98,568.84 C115.62,610.83 147.67,674.51 198,707 C257.14,745.17 335.04,756.86 399.46,758.79 " fill="none" id="nurse-to-UC07" style="stroke:#A80036;stroke-width:1.0;"/><polygon fill="#A80036" points="404.46,758.92,395.5658,754.69,399.4617,758.7915,395.3602,762.6873,404.46,758.92" style="stroke:#A80036;stroke-width:1.0;"/><!--MD5=[5306f834103bd019928d2c56277b17a1]
link nurse to UC08--><path d="M98.14,487.23 C114.4,443.63 146.44,375.91 198,340 C233.68,315.15 276.75,299.7 319.62,290.24 " fill="none" id="nurse-to-UC08" style="stroke:#A80036;stroke-width:1.0;"/><polygon fill="#A80036" points="324.58,289.18,314.9376,287.1738,319.6931,290.2374,316.6295,294.9929,324.58,289.18" style="stroke:#A80036;stroke-width:1.0;"/><!--MD5=[ba10721c796bf8e05da1d4cf00621405]
link nurse to UC09--><path d="M104.56,509.91 C125.87,491.28 161.78,462.93 198,448 C247.32,427.67 303.88,414.99 355.73,407.08 " fill="none" id="nurse-to-UC09" style="stroke:#A80036;stroke-width:1.0;"/><polygon fill="#A80036" points="360.73,406.33,351.2355,403.712,355.7855,407.0731,352.4244,411.6232,360.73,406.33" style="stroke:#A80036;stroke-width:1.0;"/><!--MD5=[5ecaaaa6d6a50bba066cd1281b230436]
link recept to UC10--><path d="M115.88,967.24 C136.43,943.14 165.57,914.25 198,898 C248.57,872.67 308.71,859.33 363.29,852.5 " fill="none" id="recept-to-UC10" style="stroke:#A80036;stroke-width:1.0;"/><polygon fill="#A80036" points="368.55,851.85,359.1274,848.9839,363.5877,852.4632,360.1085,856.9235,368.55,851.85" style="stroke:#A80036;stroke-width:1.0;"/><!--MD5=[fbc97369f0f4b67e192977046dde35f4]
link recept to UC11--><path d="M127.55,1013.67 C172.96,1019.71 248.21,1029.74 320.77,1039.4 " fill="none" id="recept-to-UC11" style="stroke:#A80036;stroke-width:1.0;"/><polygon fill="#A80036" points="325.99,1040.09,317.5937,1034.942,321.0334,1039.4329,316.5424,1042.8726,325.99,1040.09" style="stroke:#A80036;stroke-width:1.0;"/><!--MD5=[e82707fa6bb15b9ef4ecfa203bd76ac0]
link recept to UC12--><path d="M111.54,1048.57 C131.89,1076.36 162.45,1111.73 198,1132 C231.28,1150.98 269.22,1164.61 307.12,1174.4 " fill="none" id="recept-to-UC12" style="stroke:#A80036;stroke-width:1.0;"/><polygon fill="#A80036" points="312.22,1175.69,304.4799,1169.5997,307.3735,1174.4605,302.5127,1177.3541,312.22,1175.69" style="stroke:#A80036;stroke-width:1.0;"/><!--MD5=[eff47a04e9e33751a43c3dbce1f8c35d]
link coordinator to UC13--><path d="M150.18,2069.19 C165.64,2063.17 182.22,2057.33 198,2053 C255.97,2037.09 321.25,2025.61 377.85,2017.62 " fill="none" id="coordinator-to-UC13" style="stroke:#A80036;stroke-width:1.0;"/><polygon fill="#A80036" points="382.95,2016.9,373.4791,2014.1977,377.9991,2017.5991,374.5977,2022.1191,382.95,2016.9" style="stroke:#A80036;stroke-width:1.0;"/><!--MD5=[42ba3c79aa54f6aa5590ffb0c1c4d0b4]
link coordinator to UC14--><path d="M150.2,2098 C213.59,2098 311.63,2098 390.92,2098 " fill="none" id="coordinator-to-UC14" style="stroke:#A80036;stroke-width:1.0;"/><polygon fill="#A80036" points="396.11,2098,387.11,2094,391.11,2098,387.11,2102,396.11,2098" style="stroke:#A80036;stroke-width:1.0;"/><!--MD5=[ab5c08cbc12cecfadf101c6b421cf747]
link coordinator to UC15--><path d="M150.11,2127.09 C165.56,2133.1 182.17,2138.86 198,2143 C266.04,2160.79 344.17,2171.45 406.49,2177.7 " fill="none" id="coordinator-to-UC15" style="stroke:#A80036;stroke-width:1.0;"/><polygon fill="#A80036" points="411.71,2178.22,403.1541,2173.3419,406.735,2177.7211,402.3558,2181.302,411.71,2178.22" style="stroke:#A80036;stroke-width:1.0;"/><!--MD5=[c91a3546b79c34870be8412b895a6d08]
link admin to UC16--><path d="M106.85,1543.38 C126.33,1511.4 157.94,1468.58 198,1446 C255.03,1413.86 326.42,1401.38 387.52,1397.35 " fill="none" id="admin-to-UC16" style="stroke:#A80036;stroke-width:1.0;"/><polygon fill="#A80036" points="392.65,1397.03,383.4162,1393.6041,387.6599,1397.3446,383.9195,1401.5883,392.65,1397.03" style="stroke:#A80036;stroke-width:1.0;"/><!--MD5=[c2b1f465eb733137c23c90427935fc97]
link admin to UC17--><path d="M129.76,1557.51 C149.96,1546.69 174.52,1535.09 198,1528 C267.37,1507.05 348.28,1496.8 411.7,1491.79 " fill="none" id="admin-to-UC17" style="stroke:#A80036;stroke-width:1.0;"/><polygon fill="#A80036" points="417.01,1491.38,407.7283,1488.0861,412.0249,1491.7657,408.3453,1496.0623,417.01,1491.38" style="stroke:#A80036;stroke-width:1.0;"/><!--MD5=[1d6c5b6750c8eddbc9651d1a414dbd9e]
link admin to UC18--><path d="M129.56,1584 C178.51,1584 260.31,1584 336.48,1584 " fill="none" id="admin-to-UC18" style="stroke:#A80036;stroke-width:1.0;"/><polygon fill="#A80036" points="341.49,1584,332.49,1580,336.49,1584,332.49,1588,341.49,1584" style="stroke:#A80036;stroke-width:1.0;"/><!--MD5=[7ea179abe86b631761001b69f44e0599]
link admin to UC19--><path d="M129.56,1610.11 C149.83,1620.92 174.5,1632.63 198,1640 C258.03,1658.83 326.73,1670.36 385.25,1677.37 " fill="none" id="admin-to-UC19" style="stroke:#A80036;stroke-width:1.0;"/><polygon fill="#A80036" points="390.52,1678,382.0498,1672.9744,385.5543,1677.415,381.1138,1680.9195,390.52,1678" style="stroke:#A80036;stroke-width:1.0;"/><!--MD5=[b2ff0f21859b61254aea5512a0a9784e]
link admin to UC20--><path d="M104.16,1624.72 C122.94,1659.88 155,1708.98 198,1735 C245.48,1763.72 303.77,1778.09 357.68,1784.87 " fill="none" id="admin-to-UC20" style="stroke:#A80036;stroke-width:1.0;"/><polygon fill="#A80036" points="362.88,1785.51,354.4241,1780.4604,357.916,1784.9109,353.4656,1788.4028,362.88,1785.51" style="stroke:#A80036;stroke-width:1.0;"/><!--MD5=[c47bec765a30654895c424492399229a]
link admin to UC21--><path d="M91.05,1624.67 C101.81,1681.81 129.94,1784.79 198,1838 C237.08,1868.56 286.99,1884.91 335.8,1893.18 " fill="none" id="admin-to-UC21" style="stroke:#A80036;stroke-width:1.0;"/><polygon fill="#A80036" points="340.82,1894.01,332.5772,1888.6197,335.8846,1893.2089,331.2954,1896.5163,340.82,1894.01" style="stroke:#A80036;stroke-width:1.0;"/><!--MD5=[c5e48a1cba4ca47b8085bbc54250c9bd]
link admin to UC22--><path d="M92.81,1543.17 C105.24,1490.3 134.85,1399.55 198,1354 C257.41,1311.15 339.34,1300.41 405.75,1300.25 " fill="none" id="admin-to-UC22" style="stroke:#A80036;stroke-width:1.0;"/><polygon fill="#A80036" points="410.91,1300.26,401.9215,1296.2343,405.91,1300.2457,401.8986,1304.2343,410.91,1300.26" style="stroke:#A80036;stroke-width:1.0;"/><!--MD5=[b6ef99bc3b6ba5d895cf8ca1f25b54f6]
@startuml UCD

left to right direction

actor "SNS User" as user
actor "Nurse" as nurse
actor "Receptionist" as recept
actor "Administrator" as admin
actor "Center Coordinator" as coordinator
actor "<< system >> SMS Sender" as dgs

rectangle System {
  usecase "UC01. Schedule a vaccine" as UC01
  usecase "UC02. Request the issuance vaccine certificate" as UC02
  usecase "UC03. Send a SMS with appointment details to SNS User" as UC03
  usecase "UC04. Schedule a vaccine to a SNS User" as UC04
  usecase "UC05. Check the list of SNS Users that are present in the center to take the vaccine" as UC05
  usecase "UC06. Check user's health information" as UC06
  usecase "UC07. Issue vaccine certificate" as UC07
  usecase "UC08. Report adverse reactions during recovery period" as UC08
  usecase "UC09. Register SNS User's vaccination details" as UC09
  usecase "UC10. Register the arrival of an SNS User" as UC10
  usecase "UC11. Confirm vaccination appointment for a given SNS number" as UC11
  usecase "UC12. Register that a given SNS User is ready to take the vaccine" as UC12
  usecase "UC13. View center's statistics and charts" as UC13
  usecase "UC14. Generate a center report" as UC14
  usecase "UC15. Analyse other centers" as UC15
  usecase "UC16. Configure type of vaccines" as UC16
  usecase "UC17. Configure vaccines" as UC17
  usecase "UC18. Register and manage vaccination centers" as UC18
  usecase "UC19. Register and manage nurses" as UC19
  usecase "UC20. Register and manage receptionists" as UC20
  usecase "UC21. Register and manage center coordinators" as UC21
  usecase "UC22. Register new SNS User" as UC22
}

user - -> UC01
user - -> UC02
dgs - -> UC03
recept - -> UC04
nurse - -> UC05
nurse - -> UC06
nurse - -> UC07
nurse - -> UC08
nurse - -> UC09
recept - -> UC10
recept - -> UC11
recept - -> UC12
coordinator - -> UC13
coordinator - -> UC14
coordinator - -> UC15
admin - -> UC16
admin - -> UC17
admin - -> UC18
admin - -> UC19
admin - -> UC20
admin - -> UC21
admin - -> UC22

@enduml

PlantUML version 1.2022.0(Tue Jan 11 16:16:42 WET 2022)
(GPL source distribution)
Java Runtime: Java(TM) SE Runtime Environment
JVM: Java HotSpot(TM) 64-Bit Server VM
Default Encoding: UTF-8
Language: en
Country: US
--></g></svg>