<?xml version="1.0" encoding="UTF-8" standalone="no"?><svg xmlns="http://www.w3.org/2000/svg" xmlns:xlink="http://www.w3.org/1999/xlink" contentScriptType="application/ecmascript" contentStyleType="text/css" height="2437px" preserveAspectRatio="none" style="width:775px;height:2437px;background:#FFFFFF;" version="1.1" viewBox="0 0 775 2437" width="775px" zoomAndPan="magnify"><defs><filter height="300%" id="f1ct0xg1r8yimo" width="300%" x="-1" y="-1"><feGaussianBlur result="blurOut" stdDeviation="2.0"/><feColorMatrix in="blurOut" result="blurOut2" type="matrix" values="0 0 0 0 0 0 0 0 0 0 0 0 0 0 0 0 0 0 .4 0"/><feOffset dx="4.0" dy="4.0" in="blurOut2" result="blurOut3"/><feBlend in="SourceGraphic" in2="blurOut3" mode="normal"/></filter></defs><g><!--MD5=[99b31deea5d7419a569cd5090bf83263]
cluster System--><rect fill="#FFFFFF" filter="url(#f1ct0xg1r8yimo)" height="2418" style="stroke:#000000;stroke-width:1.5;" width="583" x="180" y="7"/><text fill="#000000" font-family="sans-serif" font-size="14" font-weight="bold" lengthAdjust="spacing" textLength="50" x="446.5" y="23.5332">System</text><ellipse cx="471.2928" cy="65.8586" fill="#FEFECE" filter="url(#f1ct0xg1r8yimo)" rx="102.2928" ry="22.8586" style="stroke:#A80036;stroke-width:1.5;"/><text fill="#000000" font-family="sans-serif" font-size="14" lengthAdjust="spacing" textLength="166" x="388.2928" y="69.5871">UC01. Schedule a vaccine</text><ellipse cx="471.4306" cy="171.1861" fill="#FEFECE" filter="url(#f1ct0xg1r8yimo)" rx="223.9306" ry="47.1861" style="stroke:#A80036;stroke-width:1.5;"/><text fill="#000000" font-family="sans-serif" font-size="14" lengthAdjust="spacing" textLength="421" x="260.9306" y="174.9146">UC02. Request the issuance of the EU COVID-19 Digital Certificate</text><ellipse cx="471.3053" cy="2369.0611" fill="#FEFECE" filter="url(#f1ct0xg1r8yimo)" rx="188.3053" ry="40.0611" style="stroke:#A80036;stroke-width:1.5;"/><text fill="#000000" font-family="sans-serif" font-size="14" lengthAdjust="spacing" textLength="348" x="297.3053" y="2372.7896">UC03. Send a SMS with apointment details to SNS User</text><ellipse cx="471.3204" cy="282.0641" fill="#FEFECE" filter="url(#f1ct0xg1r8yimo)" rx="130.8204" ry="28.5641" style="stroke:#A80036;stroke-width:1.5;"/><text fill="#000000" font-family="sans-serif" font-size="14" lengthAdjust="spacing" textLength="228" x="357.3204" y="285.7926">UC04. Issue a vaccination certificate</text><ellipse cx="471.4967" cy="376.8993" fill="#FEFECE" filter="url(#f1ct0xg1r8yimo)" rx="144.9967" ry="31.3993" style="stroke:#A80036;stroke-width:1.5;"/><text fill="#000000" font-family="sans-serif" font-size="14" lengthAdjust="spacing" textLength="258" x="342.4967" y="380.6279">UC05. Schedule a vaccine to a SNS User</text><ellipse cx="471.5785" cy="501.0157" fill="#FEFECE" filter="url(#f1ct0xg1r8yimo)" rx="275.5785" ry="57.5157" style="stroke:#A80036;stroke-width:1.5;"/><text fill="#000000" font-family="sans-serif" font-size="14" lengthAdjust="spacing" textLength="526" x="208.5785" y="504.7442">UC06. Check the list of SNS Users that are present in the center to take the vaccine</text><ellipse cx="471.4138" cy="623.8828" fill="#FEFECE" filter="url(#f1ct0xg1r8yimo)" rx="137.4138" ry="29.8828" style="stroke:#A80036;stroke-width:1.5;"/><text fill="#000000" font-family="sans-serif" font-size="14" lengthAdjust="spacing" textLength="242" x="350.4138" y="627.6113">UC07. Check user's health information</text><ellipse cx="471.2768" cy="729.7554" fill="#FEFECE" filter="url(#f1ct0xg1r8yimo)" rx="189.2768" ry="40.2554" style="stroke:#A80036;stroke-width:1.5;"/><text fill="#000000" font-family="sans-serif" font-size="14" lengthAdjust="spacing" textLength="350" x="296.2768" y="733.4839">UC08. Report adverse reactions during recovery period</text><ellipse cx="471.2866" cy="839.9573" fill="#FEFECE" filter="url(#f1ct0xg1r8yimo)" rx="160.2866" ry="34.4573" style="stroke:#A80036;stroke-width:1.5;"/><text fill="#000000" font-family="sans-serif" font-size="14" lengthAdjust="spacing" textLength="290" x="326.2866" y="843.6858">UC09. Register SNS User's vaccination details</text><ellipse cx="471.3756" cy="941.8751" fill="#FEFECE" filter="url(#f1ct0xg1r8yimo)" rx="147.3756" ry="31.8751" style="stroke:#A80036;stroke-width:1.5;"/><text fill="#000000" font-family="sans-serif" font-size="14" lengthAdjust="spacing" textLength="263" x="339.8756" y="945.6036">UC10. Register the arrival of an SNS User</text><ellipse cx="471.7074" cy="1054.1415" fill="#FEFECE" filter="url(#f1ct0xg1r8yimo)" rx="211.2074" ry="44.6415" style="stroke:#A80036;stroke-width:1.5;"/><text fill="#000000" font-family="sans-serif" font-size="14" lengthAdjust="spacing" textLength="395" x="274.2074" y="1057.87">UC11. Confirm vaccination apointment for a given SNS number</text><ellipse cx="471.4915" cy="1697.0983" fill="#FEFECE" filter="url(#f1ct0xg1r8yimo)" rx="220.9915" ry="46.5983" style="stroke:#A80036;stroke-width:1.5;"/><text fill="#000000" font-family="sans-serif" font-size="14" lengthAdjust="spacing" textLength="415" x="263.9915" y="1700.8268">UC12. Register that a given SNS User is ready to take the vaccine</text><ellipse cx="471.5463" cy="1810.2093" fill="#FEFECE" filter="url(#f1ct0xg1r8yimo)" rx="144.0463" ry="31.2093" style="stroke:#A80036;stroke-width:1.5;"/><text fill="#000000" font-family="sans-serif" font-size="14" lengthAdjust="spacing" textLength="256" x="343.5463" y="1813.9378">UC13. Register a new vaccination center</text><ellipse cx="471.7402" cy="1902.048" fill="#FEFECE" filter="url(#f1ct0xg1r8yimo)" rx="118.2402" ry="26.048" style="stroke:#A80036;stroke-width:1.5;"/><text fill="#000000" font-family="sans-serif" font-size="14" lengthAdjust="spacing" textLength="201" x="371.2402" y="1905.7766">UC14. Register a new SNS User</text><ellipse cx="471.5214" cy="1994.8043" fill="#FEFECE" filter="url(#f1ct0xg1r8yimo)" rx="144.5214" ry="31.3043" style="stroke:#A80036;stroke-width:1.5;"/><text fill="#000000" font-family="sans-serif" font-size="14" lengthAdjust="spacing" textLength="257" x="343.0214" y="1998.5328">UC15. Register a new center coordinator</text><ellipse cx="471.2727" cy="1503.7545" fill="#FEFECE" filter="url(#f1ct0xg1r8yimo)" rx="124.2727" ry="27.2545" style="stroke:#A80036;stroke-width:1.5;"/><text fill="#000000" font-family="sans-serif" font-size="14" lengthAdjust="spacing" textLength="214" x="364.2727" y="1507.4831">UC16. Register a new receptionist</text><ellipse cx="471.2512" cy="1590.8502" fill="#FEFECE" filter="url(#f1ct0xg1r8yimo)" rx="107.2512" ry="23.8502" style="stroke:#A80036;stroke-width:1.5;"/><text fill="#000000" font-family="sans-serif" font-size="14" lengthAdjust="spacing" textLength="177" x="382.7512" y="1594.5788">UC17. Register a new nurse</text><ellipse cx="471.5714" cy="2263.1143" fill="#FEFECE" filter="url(#f1ct0xg1r8yimo)" rx="143.5714" ry="31.1143" style="stroke:#A80036;stroke-width:1.5;"/><text fill="#000000" font-family="sans-serif" font-size="14" lengthAdjust="spacing" textLength="255" x="344.0714" y="2266.8428">UC18. View center's statistics and charts</text><ellipse cx="471.7402" cy="2088.048" fill="#FEFECE" filter="url(#f1ct0xg1r8yimo)" rx="118.2402" ry="26.048" style="stroke:#A80036;stroke-width:1.5;"/><text fill="#000000" font-family="sans-serif" font-size="14" lengthAdjust="spacing" textLength="201" x="371.2402" y="2091.7766">UC19. Generate a center report</text><ellipse cx="471.5675" cy="2173.2135" fill="#FEFECE" filter="url(#f1ct0xg1r8yimo)" rx="109.0675" ry="24.2135" style="stroke:#A80036;stroke-width:1.5;"/><text fill="#000000" font-family="sans-serif" font-size="14" lengthAdjust="spacing" textLength="181" x="381.0675" y="2176.942">UC20. Analyse other centers</text><ellipse cx="471.3762" cy="1160.9752" fill="#FEFECE" filter="url(#f1ct0xg1r8yimo)" rx="122.8762" ry="26.9752" style="stroke:#A80036;stroke-width:1.5;"/><text fill="#000000" font-family="sans-serif" font-size="14" lengthAdjust="spacing" textLength="211" x="365.8762" y="1164.7038">UC21. Configure type of vaccines</text><ellipse cx="471.3975" cy="1246.1795" fill="#FEFECE" filter="url(#f1ct0xg1r8yimo)" rx="101.3975" ry="22.6795" style="stroke:#A80036;stroke-width:1.5;"/><text fill="#000000" font-family="sans-serif" font-size="14" lengthAdjust="spacing" textLength="164" x="389.3975" y="1249.908">UC22. Configure vaccines</text><ellipse cx="471.5728" cy="1331.8146" fill="#FEFECE" filter="url(#f1ct0xg1r8yimo)" rx="127.0728" ry="27.8146" style="stroke:#A80036;stroke-width:1.5;"/><text fill="#000000" font-family="sans-serif" font-size="14" lengthAdjust="spacing" textLength="220" x="361.5728" y="1335.5431">UC23. Manage vaccination centers</text><ellipse cx="471.2928" cy="1417.8586" fill="#FEFECE" filter="url(#f1ct0xg1r8yimo)" rx="102.2928" ry="22.8586" style="stroke:#A80036;stroke-width:1.5;"/><text fill="#000000" font-family="sans-serif" font-size="14" lengthAdjust="spacing" textLength="166" x="388.2928" y="1421.5871">UC24. Manage employees</text><!--MD5=[8fc3522a43f8c7199df5e09e5bb0188e]
entity user--><ellipse cx="71" cy="87" fill="#FEFECE" filter="url(#f1ct0xg1r8yimo)" rx="8" ry="8" style="stroke:#A80036;stroke-width:1.5;"/><path d="M71,95 L71,122 M58,103 L84,103 M71,122 L58,137 M71,122 L84,137 " fill="none" filter="url(#f1ct0xg1r8yimo)" style="stroke:#A80036;stroke-width:1.5;"/><text fill="#000000" font-family="sans-serif" font-size="14" lengthAdjust="spacing" textLength="60" x="41" y="157.0332">SNS User</text><!--MD5=[87d66015e0fe95d70bf3fa68103252e8]
entity nurse--><ellipse cx="71" cy="531" fill="#FEFECE" filter="url(#f1ct0xg1r8yimo)" rx="8" ry="8" style="stroke:#A80036;stroke-width:1.5;"/><path d="M71,539 L71,566 M58,547 L84,547 M71,566 L58,581 M71,566 L84,581 " fill="none" filter="url(#f1ct0xg1r8yimo)" style="stroke:#A80036;stroke-width:1.5;"/><text fill="#000000" font-family="sans-serif" font-size="14" lengthAdjust="spacing" textLength="37" x="52.5" y="601.0332">Nurse</text><!--MD5=[34dc565525bad95b6b789d13e524f0bb]
entity recept--><ellipse cx="71" cy="966" fill="#FEFECE" filter="url(#f1ct0xg1r8yimo)" rx="8" ry="8" style="stroke:#A80036;stroke-width:1.5;"/><path d="M71,974 L71,1001 M58,982 L84,982 M71,1001 L58,1016 M71,1001 L84,1016 " fill="none" filter="url(#f1ct0xg1r8yimo)" style="stroke:#A80036;stroke-width:1.5;"/><text fill="#000000" font-family="sans-serif" font-size="14" lengthAdjust="spacing" textLength="78" x="32" y="1036.0332">Receptionist</text><!--MD5=[d48fafb9a26bd4e554e8ff5ae11b5e16]
entity cadmin--><ellipse cx="71" cy="1257" fill="#FEFECE" filter="url(#f1ct0xg1r8yimo)" rx="8" ry="8" style="stroke:#A80036;stroke-width:1.5;"/><path d="M71,1265 L71,1292 M58,1273 L84,1273 M71,1292 L58,1307 M71,1292 L84,1307 " fill="none" filter="url(#f1ct0xg1r8yimo)" style="stroke:#A80036;stroke-width:1.5;"/><text fill="#000000" font-family="sans-serif" font-size="14" lengthAdjust="spacing" textLength="130" x="6" y="1327.0332">Center Administrator</text><!--MD5=[e098f6277154155999235ffbce7c1406]
entity dgsadmin--><ellipse cx="71" cy="1722" fill="#FEFECE" filter="url(#f1ct0xg1r8yimo)" rx="8" ry="8" style="stroke:#A80036;stroke-width:1.5;"/><path d="M71,1730 L71,1757 M58,1738 L84,1738 M71,1757 L58,1772 M71,1757 L84,1772 " fill="none" filter="url(#f1ct0xg1r8yimo)" style="stroke:#A80036;stroke-width:1.5;"/><text fill="#000000" font-family="sans-serif" font-size="14" lengthAdjust="spacing" textLength="117" x="12.5" y="1792.0332">DGS Administrator</text><!--MD5=[4d302acd527bc9f790d99ea65b823e73]
entity coordinator--><ellipse cx="71" cy="2141" fill="#FEFECE" filter="url(#f1ct0xg1r8yimo)" rx="8" ry="8" style="stroke:#A80036;stroke-width:1.5;"/><path d="M71,2149 L71,2176 M58,2157 L84,2157 M71,2176 L58,2191 M71,2176 L84,2191 " fill="none" filter="url(#f1ct0xg1r8yimo)" style="stroke:#A80036;stroke-width:1.5;"/><text fill="#000000" font-family="sans-serif" font-size="14" lengthAdjust="spacing" textLength="122" x="10" y="2211.0332">Center Coordinator</text><!--MD5=[35a5fbeaf6a2ee9183db1c700347a06a]
entity dgs--><ellipse cx="71" cy="2337" fill="#FEFECE" filter="url(#f1ct0xg1r8yimo)" rx="8" ry="8" style="stroke:#A80036;stroke-width:1.5;"/><path d="M71,2345 L71,2372 M58,2353 L84,2353 M71,2372 L58,2387 M71,2372 L84,2387 " fill="none" filter="url(#f1ct0xg1r8yimo)" style="stroke:#A80036;stroke-width:1.5;"/><text fill="#000000" font-family="sans-serif" font-size="14" lengthAdjust="spacing" textLength="30" x="56" y="2407.0332">DGS</text><!--MD5=[140266ba44ac8b87f85e725624a55779]
link user to UC01--><path d="M101.3,115.1 C158.81,107.45 288.62,90.19 377.91,78.31 " fill="none" id="user-to-UC01" style="stroke:#A80036;stroke-width:1.0;"/><polygon fill="#A80036" points="382.93,77.65,373.4824,74.8674,377.9734,78.3071,374.5337,82.798,382.93,77.65" style="stroke:#A80036;stroke-width:1.0;"/><!--MD5=[c01662b9893b7f9ffe638de90c98fa3a]
link user to UC02--><path d="M101.3,122.82 C138.97,127.74 207.64,136.7 275.63,145.57 " fill="none" id="user-to-UC02" style="stroke:#A80036;stroke-width:1.0;"/><polygon fill="#A80036" points="280.94,146.27,272.5292,141.1458,275.9815,145.627,271.5003,149.0793,280.94,146.27" style="stroke:#A80036;stroke-width:1.0;"/><!--MD5=[de45711618a2a9dd1d44cfe2b3e3c73b]
link dgs to UC03--><path d="M86.18,2369 C118,2369 198.49,2369 277.63,2369 " fill="none" id="dgs-to-UC03" style="stroke:#A80036;stroke-width:1.0;"/><polygon fill="#A80036" points="282.84,2369,273.84,2365,277.84,2369,273.84,2373,282.84,2369" style="stroke:#A80036;stroke-width:1.0;"/><!--MD5=[73520b6383863c8c1eb4ab9889a39df5]
link nurse to UC04--><path d="M77.38,521.15 C86.64,467.42 110.91,375.48 172,328 C219.02,291.46 283.07,278.28 339.79,274.94 " fill="none" id="nurse-to-UC04" style="stroke:#A80036;stroke-width:1.0;"/><polygon fill="#A80036" points="344.9,274.66,335.6964,271.1537,339.9074,274.931,336.1301,279.142,344.9,274.66" style="stroke:#A80036;stroke-width:1.0;"/><!--MD5=[5bb5dcefbc65873dedbd3c6858dc790c]
link nurse to UC05--><path d="M89.55,524.52 C106.14,492.78 134.13,449.3 172,426 C216.22,398.8 270.8,385.3 321.14,378.97 " fill="none" id="nurse-to-UC05" style="stroke:#A80036;stroke-width:1.0;"/><polygon fill="#A80036" points="326.31,378.35,316.8956,375.4572,321.346,378.9491,317.8541,383.3996,326.31,378.35" style="stroke:#A80036;stroke-width:1.0;"/><!--MD5=[42568f645a79a37828c16c508b3ea4f3]
link nurse to UC06--><path d="M89.64,560.26 C118.7,555.73 179.96,546.2 245.02,536.08 " fill="none" id="nurse-to-UC06" style="stroke:#A80036;stroke-width:1.0;"/><polygon fill="#A80036" points="250.11,535.29,240.6008,532.7257,245.1698,536.061,241.8345,540.63,250.11,535.29" style="stroke:#A80036;stroke-width:1.0;"/><!--MD5=[281c5965a45307b972b9fafd7dc9d075]
link nurse to UC07--><path d="M89.64,565.7 C135.07,572.65 259.13,591.65 353.43,606.08 " fill="none" id="nurse-to-UC07" style="stroke:#A80036;stroke-width:1.0;"/><polygon fill="#A80036" points="358.46,606.85,350.1694,601.5334,353.5176,606.0929,348.9581,609.4412,358.46,606.85" style="stroke:#A80036;stroke-width:1.0;"/><!--MD5=[5306f834103bd019928d2c56277b17a1]
link nurse to UC08--><path d="M89.59,590.18 C107.3,615.25 136.98,651.43 172,671 C208.23,691.24 250.33,704.61 291.29,713.43 " fill="none" id="nurse-to-UC08" style="stroke:#A80036;stroke-width:1.0;"/><polygon fill="#A80036" points="296.28,714.48,288.3133,708.6894,291.3902,713.4363,286.6433,716.5131,296.28,714.48" style="stroke:#A80036;stroke-width:1.0;"/><!--MD5=[ba10721c796bf8e05da1d4cf00621405]
link nurse to UC09--><path d="M78.42,604.72 C88.67,656.25 113.86,742.64 172,788 C209.82,817.5 258.56,832.59 305.65,839.78 " fill="none" id="nurse-to-UC09" style="stroke:#A80036;stroke-width:1.0;"/><polygon fill="#A80036" points="310.79,840.53,302.4695,835.2603,305.8434,839.8009,301.3029,843.1748,310.79,840.53" style="stroke:#A80036;stroke-width:1.0;"/><!--MD5=[5ecaaaa6d6a50bba066cd1281b230436]
link recept to UC10--><path d="M110.21,992.63 C163.11,985.2 261.24,971.41 341.74,960.09 " fill="none" id="recept-to-UC10" style="stroke:#A80036;stroke-width:1.0;"/><polygon fill="#A80036" points="347.02,959.35,337.548,956.6515,342.0694,960.0511,338.6698,964.5725,347.02,959.35" style="stroke:#A80036;stroke-width:1.0;"/><!--MD5=[fbc97369f0f4b67e192977046dde35f4]
link recept to UC11--><path d="M110.21,1003.37 C152.17,1009.27 222.59,1019.16 290.09,1028.65 " fill="none" id="recept-to-UC11" style="stroke:#A80036;stroke-width:1.0;"/><polygon fill="#A80036" points="295.36,1029.39,287.0077,1024.1709,290.4091,1028.6909,285.8891,1032.0923,295.36,1029.39" style="stroke:#A80036;stroke-width:1.0;"/><!--MD5=[f10fd1867f992d6c23645b22e3c9060a]
link dgsadmin to UC12--><path d="M129.52,1745.77 C170.21,1739.95 227.26,1731.79 283.07,1723.81 " fill="none" id="dgsadmin-to-UC12" style="stroke:#A80036;stroke-width:1.0;"/><polygon fill="#A80036" points="288.12,1723.09,278.6415,1720.4145,283.1711,1723.8031,279.7825,1728.3327,288.12,1723.09" style="stroke:#A80036;stroke-width:1.0;"/><!--MD5=[d7269a70f8a1b2dc62ea30a889632ee0]
link dgsadmin to UC13--><path d="M129.52,1762.08 C185.72,1769.98 273.11,1782.26 345.35,1792.41 " fill="none" id="dgsadmin-to-UC13" style="stroke:#A80036;stroke-width:1.0;"/><polygon fill="#A80036" points="350.52,1793.14,342.1677,1787.9209,345.5691,1792.4409,341.0491,1795.8423,350.52,1793.14" style="stroke:#A80036;stroke-width:1.0;"/><!--MD5=[ca820776518cd617d7a259344ec2dfc4]
link dgsadmin to UC14--><path d="M101.04,1795.51 C118.89,1817.72 143.72,1843.43 172,1858 C225.79,1885.71 291.82,1897.37 348.08,1901.83 " fill="none" id="dgsadmin-to-UC14" style="stroke:#A80036;stroke-width:1.0;"/><polygon fill="#A80036" points="353.15,1902.21,344.472,1897.5524,348.1638,1901.8385,343.8777,1905.5303,353.15,1902.21" style="stroke:#A80036;stroke-width:1.0;"/><!--MD5=[6c0747816ff5f6894e13cbe642ecff63]
link dgsadmin to UC15--><path d="M81.97,1795.51 C94.91,1839.89 122,1908.75 172,1945 C214.88,1976.08 270.26,1990.44 321.66,1996.42 " fill="none" id="dgsadmin-to-UC15" style="stroke:#A80036;stroke-width:1.0;"/><polygon fill="#A80036" points="326.94,1997.01,318.4274,1992.0567,321.9695,1996.4672,317.559,2000.0094,326.94,1997.01" style="stroke:#A80036;stroke-width:1.0;"/><!--MD5=[f73cc0d7ef78d1f4a9a40524451515d9]
link dgsadmin to UC16--><path d="M80.21,1712.36 C91.91,1664.81 118.21,1588.49 172,1549 C221.41,1512.72 287.99,1500.2 345.73,1497.3 " fill="none" id="dgsadmin-to-UC16" style="stroke:#A80036;stroke-width:1.0;"/><polygon fill="#A80036" points="350.93,1497.06,341.7567,1493.4752,345.9352,1497.2883,342.1221,1501.4668,350.93,1497.06" style="stroke:#A80036;stroke-width:1.0;"/><!--MD5=[a8f3fb4840e4a4fc2bcaca88307f7426]
link dgsadmin to UC17--><path d="M95.23,1712.28 C112.68,1685.09 139.18,1651.36 172,1633 C228.75,1601.26 300.73,1590.44 359.79,1587.7 " fill="none" id="dgsadmin-to-UC17" style="stroke:#A80036;stroke-width:1.0;"/><polygon fill="#A80036" points="365.1,1587.48,355.937,1583.869,360.1046,1587.6941,356.2795,1591.8617,365.1,1587.48" style="stroke:#A80036;stroke-width:1.0;"/><!--MD5=[ceedcd86907d982e68a98fcbde707650]
link coordinator to UC18--><path d="M132.04,2200.18 C145.03,2205.33 158.82,2210.27 172,2214 C225.72,2229.21 286.31,2240.24 338.79,2247.93 " fill="none" id="coordinator-to-UC18" style="stroke:#A80036;stroke-width:1.0;"/><polygon fill="#A80036" points="343.85,2248.67,335.5146,2243.4239,338.9014,2247.9549,334.3704,2251.3417,343.85,2248.67" style="stroke:#A80036;stroke-width:1.0;"/><!--MD5=[60dec685cb8c65457641ae9c0dbdc30a]
link coordinator to UC19--><path d="M132.2,2144.82 C145.12,2139.6 158.84,2134.65 172,2131 C231.51,2114.51 299.54,2104.09 355.61,2097.64 " fill="none" id="coordinator-to-UC19" style="stroke:#A80036;stroke-width:1.0;"/><polygon fill="#A80036" points="360.66,2097.07,351.2621,2094.1239,355.6927,2097.641,352.1756,2102.0716,360.66,2097.07" style="stroke:#A80036;stroke-width:1.0;"/><!--MD5=[2ff798229421eb8c555190bc272acb6b]
link coordinator to UC20--><path d="M132.09,2173 C191.44,2173 283.69,2173 356.89,2173 " fill="none" id="coordinator-to-UC20" style="stroke:#A80036;stroke-width:1.0;"/><polygon fill="#A80036" points="362.12,2173,353.12,2169,357.12,2173,353.12,2177,362.12,2173" style="stroke:#A80036;stroke-width:1.0;"/><!--MD5=[8c64daca5633e95bc0244ad180f5bced]
link cadmin to UC21--><path d="M111.8,1247.41 C128.88,1231.99 149.97,1215.87 172,1206 C225.52,1182.02 289.27,1170.41 344.1,1164.93 " fill="none" id="cadmin-to-UC21" style="stroke:#A80036;stroke-width:1.0;"/><polygon fill="#A80036" points="349.37,1164.42,340.0246,1161.3115,344.3936,1164.9048,340.8003,1169.2738,349.37,1164.42" style="stroke:#A80036;stroke-width:1.0;"/><!--MD5=[9acbe5158d26312848c5f9dcdf767e25]
link cadmin to UC22--><path d="M136.03,1282.09 C200.48,1275.14 300.69,1264.32 374.63,1256.35 " fill="none" id="cadmin-to-UC22" style="stroke:#A80036;stroke-width:1.0;"/><polygon fill="#A80036" points="379.9,1255.78,370.519,1252.7806,374.9295,1256.3228,371.3874,1260.7333,379.9,1255.78" style="stroke:#A80036;stroke-width:1.0;"/><!--MD5=[0de9b869147e02faae49b7a94e799a26]
link cadmin to UC23--><path d="M136.03,1295.91 C194.14,1302.18 281.33,1311.59 352.11,1319.23 " fill="none" id="cadmin-to-UC23" style="stroke:#A80036;stroke-width:1.0;"/><polygon fill="#A80036" points="357.18,1319.77,348.6674,1314.8167,352.2095,1319.2272,347.799,1322.7694,357.18,1319.77" style="stroke:#A80036;stroke-width:1.0;"/><!--MD5=[55b301bf8b4fae40972fbc4a4aaa88cc]
link cadmin to UC24--><path d="M108.5,1330.52 C125.97,1347.71 148.24,1366.13 172,1377 C231.8,1404.36 304.84,1414.73 363.71,1418.21 " fill="none" id="cadmin-to-UC24" style="stroke:#A80036;stroke-width:1.0;"/><polygon fill="#A80036" points="369,1418.5,360.2308,1414.0167,364.0074,1418.2282,359.7959,1422.0048,369,1418.5" style="stroke:#A80036;stroke-width:1.0;"/><!--MD5=[02728190957f77d8f4de0838b56849c7]
@startuml UCD

left to right direction

actor "SNS User" as user
actor "Nurse" as nurse
actor "Receptionist" as recept
actor "Center Administrator" as cadmin
actor "DGS Administrator" as dgsadmin
actor "Center Coordinator" as coordinator
actor "DGS" as dgs

rectangle System {
  usecase "UC01. Schedule a vaccine" as UC01
  usecase "UC02. Request the issuance of the EU COVID-19 Digital Certificate" as UC02
  usecase "UC03. Send a SMS with apointment details to SNS User" as UC03
  usecase "UC04. Issue a vaccination certificate" as UC04
  usecase "UC05. Schedule a vaccine to a SNS User" as UC05
  usecase "UC06. Check the list of SNS Users that are present in the center to take the vaccine" as UC06
  usecase "UC07. Check user's health information" as UC07
  usecase "UC08. Report adverse reactions during recovery period" as UC08
  usecase "UC09. Register SNS User's vaccination details" as UC09
  usecase "UC10. Register the arrival of an SNS User" as UC10
  usecase "UC11. Confirm vaccination apointment for a given SNS number" as UC11
  usecase "UC12. Register that a given SNS User is ready to take the vaccine" as UC12
  usecase "UC13. Register a new vaccination center" as UC13
  usecase "UC14. Register a new SNS User" as UC14
  usecase "UC15. Register a new center coordinator" as UC15
  usecase "UC16. Register a new receptionist" as UC16
  usecase "UC17. Register a new nurse" as UC17
  usecase "UC18. View center's statistics and charts" as UC18
  usecase "UC19. Generate a center report" as UC19
  usecase "UC20. Analyse other centers" as UC20
  usecase "UC21. Configure type of vaccines" as UC21
  usecase "UC22. Configure vaccines" as UC22
  usecase "UC23. Manage vaccination centers" as UC23
  usecase "UC24. Manage employees" as UC24
}

user - -> UC01
user - -> UC02
dgs - -> UC03
nurse - -> UC04
nurse - -> UC05
nurse - -> UC06
nurse - -> UC07
nurse - -> UC08
nurse - -> UC09
recept - -> UC10
recept - -> UC11
dgsadmin - -> UC12
dgsadmin - -> UC13
dgsadmin - -> UC14
dgsadmin - -> UC15
dgsadmin - -> UC16
dgsadmin - -> UC17
coordinator - -> UC18
coordinator - -> UC19
coordinator - -> UC20
cadmin - -> UC21
cadmin - -> UC22
cadmin - -> UC23
cadmin - -> UC24

@enduml

PlantUML version 1.2022.0(Tue Jan 11 16:16:42 WET 2022)
(GPL source distribution)
Java Runtime: OpenJDK Runtime Environment
JVM: OpenJDK 64-Bit Server VM
Default Encoding: Cp1252
Language: pt
Country: PT
--></g></svg>