<?xml version="1.0" encoding="UTF-8" standalone="no"?><svg xmlns="http://www.w3.org/2000/svg" xmlns:xlink="http://www.w3.org/1999/xlink" contentScriptType="application/ecmascript" contentStyleType="text/css" height="2162px" preserveAspectRatio="none" style="width:752px;height:2162px;background:#FFFFFF;" version="1.1" viewBox="0 0 752 2162" width="752px" zoomAndPan="magnify"><defs><filter height="300%" id="fjjvde1gguyhm" width="300%" x="-1" y="-1"><feGaussianBlur result="blurOut" stdDeviation="2.0"/><feColorMatrix in="blurOut" result="blurOut2" type="matrix" values="0 0 0 0 0 0 0 0 0 0 0 0 0 0 0 0 0 0 .4 0"/><feOffset dx="4.0" dy="4.0" in="blurOut2" result="blurOut3"/><feBlend in="SourceGraphic" in2="blurOut3" mode="normal"/></filter></defs><g><!--MD5=[99b31deea5d7419a569cd5090bf83263]
cluster System--><rect fill="#FFFFFF" filter="url(#fjjvde1gguyhm)" height="2143" style="stroke:#000000;stroke-width:1.5;" width="524" x="216" y="7"/><text fill="#000000" font-family="sans-serif" font-size="14" font-weight="bold" lengthAdjust="spacing" textLength="58" x="449" y="21.9951">System</text><ellipse cx="477.8276" cy="732.7655" fill="#FEFECE" filter="url(#fjjvde1gguyhm)" rx="106.8276" ry="23.7655" style="stroke:#A80036;stroke-width:1.5;"/><text fill="#000000" font-family="sans-serif" font-size="14" lengthAdjust="spacing" textLength="179" x="388.3276" y="735.6122">UC01. Schedule a vaccine</text><ellipse cx="477.8556" cy="636.1711" fill="#FEFECE" filter="url(#fjjvde1gguyhm)" rx="176.3556" ry="37.6711" style="stroke:#A80036;stroke-width:1.5;"/><text fill="#000000" font-family="sans-serif" font-size="14" lengthAdjust="spacing" textLength="325" x="315.3556" y="639.0178">UC02. Request the vaccine certificate issuance</text><ellipse cx="478.1177" cy="1965.2235" fill="#FEFECE" filter="url(#fjjvde1gguyhm)" rx="206.6177" ry="43.7235" style="stroke:#A80036;stroke-width:1.5;"/><text fill="#000000" font-family="sans-serif" font-size="14" lengthAdjust="spacing" textLength="387" x="284.6177" y="1968.0702">UC03. Send a SMS with appointment details to SNS User</text><ellipse cx="477.9407" cy="412.0881" fill="#FEFECE" filter="url(#fjjvde1gguyhm)" rx="245.9407" ry="51.5881" style="stroke:#A80036;stroke-width:1.5;"/><text fill="#000000" font-family="sans-serif" font-size="14" lengthAdjust="spacing" textLength="467" x="244.4407" y="414.9348">UC04. Check the list of SNS Users that are ready to take the vaccine</text><ellipse cx="477.8886" cy="530.7777" fill="#FEFECE" filter="url(#fjjvde1gguyhm)" rx="146.8886" ry="31.7777" style="stroke:#A80036;stroke-width:1.5;"/><text fill="#000000" font-family="sans-serif" font-size="14" lengthAdjust="spacing" textLength="264" x="345.8886" y="533.6244">UC05. Check user's health information</text><ellipse cx="478.241" cy="69.1482" fill="#FEFECE" filter="url(#fjjvde1gguyhm)" rx="121.241" ry="26.6482" style="stroke:#A80036;stroke-width:1.5;"/><text fill="#000000" font-family="sans-serif" font-size="14" lengthAdjust="spacing" textLength="210" x="373.241" y="71.9949">UC06. Issue vaccine certificate</text><ellipse cx="478.2002" cy="173.94" fill="#FEFECE" filter="url(#fjjvde1gguyhm)" rx="202.7002" ry="42.94" style="stroke:#A80036;stroke-width:1.5;"/><text fill="#000000" font-family="sans-serif" font-size="14" lengthAdjust="spacing" textLength="379" x="288.7002" y="176.7867">UC07. Report adverse reactions during recovery period</text><ellipse cx="478.0296" cy="289.0059" fill="#FEFECE" filter="url(#fjjvde1gguyhm)" rx="170.5296" ry="36.5059" style="stroke:#A80036;stroke-width:1.5;"/><text fill="#000000" font-family="sans-serif" font-size="14" lengthAdjust="spacing" textLength="313" x="321.5296" y="291.8526">UC08. Register SNS User's vaccination details</text><ellipse cx="478.2487" cy="1086.9497" fill="#FEFECE" filter="url(#fjjvde1gguyhm)" rx="150.2487" ry="32.4497" style="stroke:#A80036;stroke-width:1.5;"/><text fill="#000000" font-family="sans-serif" font-size="14" lengthAdjust="spacing" textLength="271" x="342.7487" y="1089.7964">UC09. Register the arrival of a SNS User</text><ellipse cx="477.8615" cy="838.8723" fill="#FEFECE" filter="url(#fjjvde1gguyhm)" rx="219.8615" ry="46.3723" style="stroke:#A80036;stroke-width:1.5;"/><text fill="#000000" font-family="sans-serif" font-size="14" lengthAdjust="spacing" textLength="414" x="270.8615" y="841.719">UC10. Confirm vaccination appointment for a given SNS user</text><ellipse cx="478.0807" cy="970.2161" fill="#FEFECE" filter="url(#fjjvde1gguyhm)" rx="236.5807" ry="49.7161" style="stroke:#A80036;stroke-width:1.5;"/><text fill="#000000" font-family="sans-serif" font-size="14" lengthAdjust="spacing" textLength="448" x="254.0807" y="973.0628">UC11. Register that a given SNS User is ready to take the vaccine</text><ellipse cx="478.0781" cy="1656.8156" fill="#FEFECE" filter="url(#fjjvde1gguyhm)" rx="154.5781" ry="33.3156" style="stroke:#A80036;stroke-width:1.5;"/><text fill="#000000" font-family="sans-serif" font-size="14" lengthAdjust="spacing" textLength="280" x="338.0781" y="1659.6623">UC12. View centers' statistics and charts</text><ellipse cx="478.0038" cy="1752.9008" fill="#FEFECE" filter="url(#fjjvde1gguyhm)" rx="125.0038" ry="27.4008" style="stroke:#A80036;stroke-width:1.5;"/><text fill="#000000" font-family="sans-serif" font-size="14" lengthAdjust="spacing" textLength="218" x="369.0038" y="1755.7474">UC13. Generate a center report</text><ellipse cx="478.1684" cy="1851.1337" fill="#FEFECE" filter="url(#fjjvde1gguyhm)" rx="166.1684" ry="35.6337" style="stroke:#A80036;stroke-width:1.5;"/><text fill="#000000" font-family="sans-serif" font-size="14" lengthAdjust="spacing" textLength="304" x="326.1684" y="1853.9804">UC14. Analyse other center vaccination data</text><ellipse cx="477.9468" cy="1182.0894" fill="#FEFECE" filter="url(#fjjvde1gguyhm)" rx="125.9468" ry="27.5894" style="stroke:#A80036;stroke-width:1.5;"/><text fill="#000000" font-family="sans-serif" font-size="14" lengthAdjust="spacing" textLength="220" x="367.9468" y="1184.936">UC15. Configure type of vaccine</text><ellipse cx="478.2481" cy="1267.8496" fill="#FEFECE" filter="url(#fjjvde1gguyhm)" rx="102.2481" ry="22.8496" style="stroke:#A80036;stroke-width:1.5;"/><text fill="#000000" font-family="sans-serif" font-size="14" lengthAdjust="spacing" textLength="169" x="393.7481" y="1270.6963">UC16. Configure vaccine</text><ellipse cx="477.8697" cy="1364.0739" fill="#FEFECE" filter="url(#fjjvde1gguyhm)" rx="175.8697" ry="37.5739" style="stroke:#A80036;stroke-width:1.5;"/><text fill="#000000" font-family="sans-serif" font-size="14" lengthAdjust="spacing" textLength="324" x="315.8697" y="1366.9206">UC17. Register and manage vaccination center</text><ellipse cx="477.8479" cy="1468.9696" fill="#FEFECE" filter="url(#fjjvde1gguyhm)" rx="147.8479" ry="31.9696" style="stroke:#A80036;stroke-width:1.5;"/><text fill="#000000" font-family="sans-serif" font-size="14" lengthAdjust="spacing" textLength="266" x="344.8479" y="1471.8163">UC18. Register and manage employee</text><ellipse cx="477.8973" cy="1562.1795" fill="#FEFECE" filter="url(#fjjvde1gguyhm)" rx="118.8973" ry="26.1795" style="stroke:#A80036;stroke-width:1.5;"/><text fill="#000000" font-family="sans-serif" font-size="14" lengthAdjust="spacing" textLength="205" x="375.3973" y="1565.0261">UC19. Register new SNS User</text><ellipse cx="478.0094" cy="2088.8019" fill="#FEFECE" filter="url(#fjjvde1gguyhm)" rx="212.0094" ry="44.8019" style="stroke:#A80036;stroke-width:1.5;"/><text fill="#000000" font-family="sans-serif" font-size="14" lengthAdjust="spacing" textLength="398" x="279.0094" y="2091.6486">UC20  Notify SNS user that the recovery period has ended</text><!--MD5=[8fc3522a43f8c7199df5e09e5bb0188e]
entity user--><ellipse cx="89" cy="654" fill="#FEFECE" filter="url(#fjjvde1gguyhm)" rx="8" ry="8" style="stroke:#A80036;stroke-width:1.5;"/><path d="M89,662 L89,689 M76,670 L102,670 M89,689 L76,704 M89,689 L102,704 " fill="none" filter="url(#fjjvde1gguyhm)" style="stroke:#A80036;stroke-width:1.5;"/><text fill="#000000" font-family="sans-serif" font-size="14" lengthAdjust="spacing" textLength="64" x="57" y="722.4951">SNS User</text><!--MD5=[87d66015e0fe95d70bf3fa68103252e8]
entity nurse--><ellipse cx="89" cy="258" fill="#FEFECE" filter="url(#fjjvde1gguyhm)" rx="8" ry="8" style="stroke:#A80036;stroke-width:1.5;"/><path d="M89,266 L89,293 M76,274 L102,274 M89,293 L76,308 M89,293 L102,308 " fill="none" filter="url(#fjjvde1gguyhm)" style="stroke:#A80036;stroke-width:1.5;"/><text fill="#000000" font-family="sans-serif" font-size="14" lengthAdjust="spacing" textLength="41" x="68.5" y="326.4951">Nurse</text><!--MD5=[34dc565525bad95b6b789d13e524f0bb]
entity recept--><ellipse cx="89" cy="874" fill="#FEFECE" filter="url(#fjjvde1gguyhm)" rx="8" ry="8" style="stroke:#A80036;stroke-width:1.5;"/><path d="M89,882 L89,909 M76,890 L102,890 M89,909 L76,924 M89,909 L102,924 " fill="none" filter="url(#fjjvde1gguyhm)" style="stroke:#A80036;stroke-width:1.5;"/><text fill="#000000" font-family="sans-serif" font-size="14" lengthAdjust="spacing" textLength="87" x="45.5" y="942.4951">Receptionist</text><!--MD5=[79a439086b036a57b90a01d7b2f8bbd1]
entity admin--><ellipse cx="89" cy="1333" fill="#FEFECE" filter="url(#fjjvde1gguyhm)" rx="8" ry="8" style="stroke:#A80036;stroke-width:1.5;"/><path d="M89,1341 L89,1368 M76,1349 L102,1349 M89,1368 L76,1383 M89,1368 L102,1383 " fill="none" filter="url(#fjjvde1gguyhm)" style="stroke:#A80036;stroke-width:1.5;"/><text fill="#000000" font-family="sans-serif" font-size="14" lengthAdjust="spacing" textLength="91" x="43.5" y="1401.4951">Administrator</text><!--MD5=[4d302acd527bc9f790d99ea65b823e73]
entity coordinator--><ellipse cx="89" cy="1722" fill="#FEFECE" filter="url(#fjjvde1gguyhm)" rx="8" ry="8" style="stroke:#A80036;stroke-width:1.5;"/><path d="M89,1730 L89,1757 M76,1738 L102,1738 M89,1757 L76,1772 M89,1757 L102,1772 " fill="none" filter="url(#fjjvde1gguyhm)" style="stroke:#A80036;stroke-width:1.5;"/><text fill="#000000" font-family="sans-serif" font-size="14" lengthAdjust="spacing" textLength="132" x="23" y="1790.4951">Center Coordinator</text><!--MD5=[35a5fbeaf6a2ee9183db1c700347a06a]
entity dgs--><ellipse cx="89" cy="1938" fill="#FEFECE" filter="url(#fjjvde1gguyhm)" rx="8" ry="8" style="stroke:#A80036;stroke-width:1.5;"/><path d="M89,1946 L89,1973 M76,1954 L102,1954 M89,1973 L76,1988 M89,1973 L102,1988 " fill="none" filter="url(#fjjvde1gguyhm)" style="stroke:#A80036;stroke-width:1.5;"/><text fill="#000000" font-family="sans-serif" font-size="14" lengthAdjust="spacing" textLength="156" x="11" y="2006.4951">«system» SMS Sender</text><!--MD5=[76f0931641a759148885e2d4c4167c4e]
entity dgsMail--><ellipse cx="89" cy="2058" fill="#FEFECE" filter="url(#fjjvde1gguyhm)" rx="8" ry="8" style="stroke:#A80036;stroke-width:1.5;"/><path d="M89,2066 L89,2093 M76,2074 L102,2074 M89,2093 L76,2108 M89,2093 L102,2108 " fill="none" filter="url(#fjjvde1gguyhm)" style="stroke:#A80036;stroke-width:1.5;"/><text fill="#000000" font-family="sans-serif" font-size="14" lengthAdjust="spacing" textLength="166" x="6" y="2126.4951">«system» EMAIL Sender</text><!--MD5=[140266ba44ac8b87f85e725624a55779]
link user to UC01--><path d="M121.02,688.85 C177.34,695.83 298.47,710.86 383.73,721.43 " fill="none" id="user-UC01" style="stroke:#A80036;stroke-width:1.0;"/><!--MD5=[c01662b9893b7f9ffe638de90c98fa3a]
link user to UC02--><path d="M121.02,681.07 C165.41,675.45 250.07,664.73 325.69,655.16 " fill="none" id="user-UC02" style="stroke:#A80036;stroke-width:1.0;"/><!--MD5=[de45711618a2a9dd1d44cfe2b3e3c73b]
link dgs to UC03--><path d="M167.39,1968.2 C197.83,1967.89 234.35,1967.51 271.46,1967.12 " fill="none" id="dgs-UC03" style="stroke:#A80036;stroke-width:1.0;"/><!--MD5=[fe6a743345b25717863c47e38c1fb64c]
link recept to UC01--><path d="M115.59,864.39 C136.63,834.62 169.23,795.9 208,775 C257.51,748.31 319.12,737.36 370.88,733.28 " fill="none" id="recept-UC01" style="stroke:#A80036;stroke-width:1.0;"/><!--MD5=[5bb5dcefbc65873dedbd3c6858dc790c]
link nurse to UC05--><path d="M109.6,299.28 C132.65,311.06 172.32,330.37 208,343 C240.72,354.58 276.32,365.11 310.58,374.25 " fill="none" id="nurse-UC05" style="stroke:#A80036;stroke-width:1.0;"/><!--MD5=[42568f645a79a37828c16c508b3ea4f3]
link nurse to UC06--><path d="M103.65,329.87 C120.74,374.42 154.46,444.23 208,481 C244.22,505.87 289.39,519.3 332.3,526.3 " fill="none" id="nurse-UC06" style="stroke:#A80036;stroke-width:1.0;"/><!--MD5=[281c5965a45307b972b9fafd7dc9d075]
link nurse to UC07--><path d="M105.77,248.27 C123.93,207.14 157.86,145.22 208,113 C251.79,84.86 307.62,72.78 357.05,68.15 " fill="none" id="nurse-UC07" style="stroke:#A80036;stroke-width:1.0;"/><!--MD5=[5306f834103bd019928d2c56277b17a1]
link nurse to UC08--><path d="M109.53,278.54 C132.53,266.59 172.15,247.12 208,235 C245.65,222.27 287.17,211.38 326.08,202.48 " fill="none" id="nurse-UC08" style="stroke:#A80036;stroke-width:1.0;"/><!--MD5=[ba10721c796bf8e05da1d4cf00621405]
link nurse to UC09--><path d="M109.72,289 C146.69,289 229.7,289 307.47,289 " fill="none" id="nurse-UC09" style="stroke:#A80036;stroke-width:1.0;"/><!--MD5=[5ecaaaa6d6a50bba066cd1281b230436]
link recept to UC10--><path d="M115.41,945.6 C136.46,975.7 169.16,1015.14 208,1037 C245.88,1058.31 291.04,1070.78 333.45,1078 " fill="none" id="recept-UC10" style="stroke:#A80036;stroke-width:1.0;"/><!--MD5=[fbc97369f0f4b67e192977046dde35f4]
link recept to UC11--><path d="M132.52,897.75 C174.74,890.55 242.24,879.04 306.35,868.1 " fill="none" id="recept-UC11" style="stroke:#A80036;stroke-width:1.0;"/><!--MD5=[e82707fa6bb15b9ef4ecfa203bd76ac0]
link recept to UC12--><path d="M132.52,912.14 C171.79,918.74 232.95,929.01 292.89,939.08 " fill="none" id="recept-UC12" style="stroke:#A80036;stroke-width:1.0;"/><!--MD5=[eff47a04e9e33751a43c3dbce1f8c35d]
link coordinator to UC13--><path d="M155.15,1725.8 C172.15,1719.35 190.6,1712.93 208,1708 C254.08,1694.96 305.55,1684.28 351.04,1676.13 " fill="none" id="coordinator-UC13" style="stroke:#A80036;stroke-width:1.0;"/><!--MD5=[42ba3c79aa54f6aa5590ffb0c1c4d0b4]
link coordinator to UC14--><path d="M155.21,1753 C209.07,1753 287.05,1753 352.76,1753 " fill="none" id="coordinator-UC14" style="stroke:#A80036;stroke-width:1.0;"/><!--MD5=[ab5c08cbc12cecfadf101c6b421cf747]
link coordinator to UC15--><path d="M155.18,1780.12 C172.18,1786.56 190.61,1793.01 208,1798 C252.15,1810.67 301.24,1821.32 345.27,1829.67 " fill="none" id="coordinator-UC15" style="stroke:#A80036;stroke-width:1.0;"/><!--MD5=[c91a3546b79c34870be8412b895a6d08]
link admin to UC16--><path d="M113.88,1323.27 C134.63,1291.73 167.65,1249.71 208,1227 C251.53,1202.49 304.87,1190.54 352.54,1184.96 " fill="none" id="admin-UC16" style="stroke:#A80036;stroke-width:1.0;"/><!--MD5=[c2b1f465eb733137c23c90427935fc97]
link admin to UC17--><path d="M134.76,1339.45 C156.32,1328.59 182.9,1316.59 208,1309 C264.41,1291.94 329.72,1281.77 381.86,1275.83 " fill="none" id="admin-UC17" style="stroke:#A80036;stroke-width:1.0;"/><!--MD5=[1d6c5b6750c8eddbc9651d1a414dbd9e]
link admin to UC18--><path d="M134.77,1364 C176.06,1364 240.09,1364 301.65,1364 " fill="none" id="admin-UC18" style="stroke:#A80036;stroke-width:1.0;"/><!--MD5=[7ea179abe86b631761001b69f44e0599]
link admin to UC19--><path d="M134.59,1388.04 C156.23,1398.86 182.92,1410.97 208,1419 C253.8,1433.67 305.45,1444.56 351.16,1452.36 " fill="none" id="admin-UC19" style="stroke:#A80036;stroke-width:1.0;"/><!--MD5=[b2ff0f21859b61254aea5512a0a9784e]
link admin to UC20--><path d="M109.88,1404.82 C129.62,1440.71 163.35,1491.26 208,1518 C252.96,1544.93 309.37,1556.79 358.9,1561.58 " fill="none" id="admin-UC20" style="stroke:#A80036;stroke-width:1.0;"/><!--MD5=[077a00791ed5eed6f9eb6475e00923f2]
link dgs to UC21--><path d="M167.04,2009.19 C180.48,2015.34 194.49,2021.22 208,2026 C244.06,2038.76 283.76,2049.68 321.33,2058.67 " fill="none" id="dgs-UC21" style="stroke:#A80036;stroke-width:1.0;"/><!--MD5=[6e5a4a0bd4dfa09099c436da22d4cead]
link dgsMail to UC21--><path d="M172.07,2089 C199.92,2089 232.43,2089 265.66,2089 " fill="none" id="dgsMail-UC21" style="stroke:#A80036;stroke-width:1.0;"/><!--MD5=[82c538e4520aa02276652fa4233e035c]
@startuml UCD

left to right direction

actor "SNS User" as user
actor "Nurse" as nurse
actor "Receptionist" as recept
actor "Administrator" as admin
actor "Center Coordinator" as coordinator
actor "<< system >> SMS Sender" as dgs
actor "<< system >> EMAIL Sender" as dgsMail

rectangle System {
  usecase "UC01. Schedule a vaccine" as UC01
  usecase "UC02. Request the vaccine certificate issuance" as UC02
  usecase "UC03. Send a SMS with appointment details to SNS User" as UC03
  usecase "UC04. Check the list of SNS Users that are ready to take the vaccine" as UC05
  usecase "UC05. Check user's health information" as UC06
  usecase "UC06. Issue vaccine certificate" as UC07
  usecase "UC07. Report adverse reactions during recovery period" as UC08
  usecase "UC08. Register SNS User's vaccination details" as UC09
  usecase "UC09. Register the arrival of a SNS User" as UC10
  usecase "UC10. Confirm vaccination appointment for a given SNS user" as UC11
  usecase "UC11. Register that a given SNS User is ready to take the vaccine" as UC12
  usecase "UC12. View centers' statistics and charts" as UC13
  usecase "UC13. Generate a center report" as UC14
  usecase "UC14. Analyse other center vaccination data" as UC15
  usecase "UC15. Configure type of vaccine" as UC16
  usecase "UC16. Configure vaccine" as UC17
  usecase "UC17. Register and manage vaccination center" as UC18
  usecase "UC18. Register and manage employee" as UC19
  usecase "UC19. Register new SNS User" as UC20
  usecase "UC20  Notify SNS user that the recovery period has ended" as UC21
}

user - - UC01
user - - UC02
dgs - - UC03
recept - - UC01
nurse - - UC05
nurse - - UC06
nurse - - UC07
nurse - - UC08
nurse - - UC09
recept - - UC10
recept - - UC11
recept - - UC12
coordinator - - UC13
coordinator - - UC14
coordinator - - UC15
admin - - UC16
admin - - UC17
admin - - UC18
admin - - UC19
admin - - UC20
dgs - - UC21
dgsMail - - UC21

@enduml

PlantUML version 1.2022.0(Tue Jan 11 16:16:42 WET 2022)
(GPL source distribution)
Java Runtime: Java(TM) SE Runtime Environment
JVM: Java HotSpot(TM) 64-Bit Server VM
Default Encoding: UTF-8
Language: en
Country: US
--></g></svg>