<?xml version="1.0" encoding="UTF-8" standalone="no"?><svg xmlns="http://www.w3.org/2000/svg" xmlns:xlink="http://www.w3.org/1999/xlink" contentScriptType="application/ecmascript" contentStyleType="text/css" height="2533px" preserveAspectRatio="none" style="width:835px;height:2533px;background:#FFFFFF;" version="1.1" viewBox="0 0 835 2533" width="835px" zoomAndPan="magnify"><defs><filter height="300%" id="f1qjn4g5yl85qk" width="300%" x="-1" y="-1"><feGaussianBlur result="blurOut" stdDeviation="2.0"/><feColorMatrix in="blurOut" result="blurOut2" type="matrix" values="0 0 0 0 0 0 0 0 0 0 0 0 0 0 0 0 0 0 .4 0"/><feOffset dx="4.0" dy="4.0" in="blurOut2" result="blurOut3"/><feBlend in="SourceGraphic" in2="blurOut3" mode="normal"/></filter></defs><g><!--MD5=[99b31deea5d7419a569cd5090bf83263]
cluster System--><rect fill="#FFFFFF" filter="url(#f1qjn4g5yl85qk)" height="2514" style="stroke:#000000;stroke-width:1.5;" width="631" x="192" y="7"/><text fill="#000000" font-family="sans-serif" font-size="14" font-weight="bold" lengthAdjust="spacing" textLength="58" x="478.5" y="21.9951">System</text><ellipse cx="507.3276" cy="65.7655" fill="#FEFECE" filter="url(#f1qjn4g5yl85qk)" rx="106.8276" ry="23.7655" style="stroke:#A80036;stroke-width:1.5;"/><text fill="#000000" font-family="sans-serif" font-size="14" lengthAdjust="spacing" textLength="179" x="417.8276" y="68.6122">UC01. Schedule a vaccine</text><ellipse cx="507.5278" cy="175.9056" fill="#FEFECE" filter="url(#f1qjn4g5yl85qk)" rx="240.0278" ry="50.4056" style="stroke:#A80036;stroke-width:1.5;"/><text fill="#000000" font-family="sans-serif" font-size="14" lengthAdjust="spacing" textLength="455" x="280.0278" y="178.7522">UC02. Request the issuance of the EU COVID-19 Digital Certificate</text><ellipse cx="507.6177" cy="2461.2235" fill="#FEFECE" filter="url(#f1qjn4g5yl85qk)" rx="206.6177" ry="43.7235" style="stroke:#A80036;stroke-width:1.5;"/><text fill="#000000" font-family="sans-serif" font-size="14" lengthAdjust="spacing" textLength="387" x="314.1177" y="2464.0702">UC03. Send a SMS with appointment details to SNS User</text><ellipse cx="507.2578" cy="292.1516" fill="#FEFECE" filter="url(#f1qjn4g5yl85qk)" rx="138.7578" ry="30.1516" style="stroke:#A80036;stroke-width:1.5;"/><text fill="#000000" font-family="sans-serif" font-size="14" lengthAdjust="spacing" textLength="247" x="383.7578" y="294.9982">UC04. Issue a vaccination certificate</text><ellipse cx="507.6339" cy="390.0268" fill="#FEFECE" filter="url(#f1qjn4g5yl85qk)" rx="153.1339" ry="33.0268" style="stroke:#A80036;stroke-width:1.5;"/><text fill="#000000" font-family="sans-serif" font-size="14" lengthAdjust="spacing" textLength="277" x="369.1339" y="392.8735">UC05. Schedule a vaccine to a SNS User</text><ellipse cx="507.3143" cy="520.7629" fill="#FEFECE" filter="url(#f1qjn4g5yl85qk)" rx="299.3143" ry="62.2629" style="stroke:#A80036;stroke-width:1.5;"/><text fill="#000000" font-family="sans-serif" font-size="14" lengthAdjust="spacing" textLength="575" x="219.8143" y="523.6095">UC06. Check the list of SNS Users that are present in the center to take the vaccine</text><ellipse cx="507.3886" cy="650.7777" fill="#FEFECE" filter="url(#f1qjn4g5yl85qk)" rx="146.8886" ry="31.7777" style="stroke:#A80036;stroke-width:1.5;"/><text fill="#000000" font-family="sans-serif" font-size="14" lengthAdjust="spacing" textLength="264" x="375.3886" y="653.6244">UC07. Check user's health information</text><ellipse cx="507.7002" cy="760.94" fill="#FEFECE" filter="url(#f1qjn4g5yl85qk)" rx="202.7002" ry="42.94" style="stroke:#A80036;stroke-width:1.5;"/><text fill="#000000" font-family="sans-serif" font-size="14" lengthAdjust="spacing" textLength="379" x="318.2002" y="763.7867">UC08. Report adverse reactions during recovery period</text><ellipse cx="507.5296" cy="876.0059" fill="#FEFECE" filter="url(#f1qjn4g5yl85qk)" rx="170.5296" ry="36.5059" style="stroke:#A80036;stroke-width:1.5;"/><text fill="#000000" font-family="sans-serif" font-size="14" lengthAdjust="spacing" textLength="313" x="351.0296" y="878.8526">UC09. Register SNS User's vaccination details</text><ellipse cx="507.5781" cy="980.8156" fill="#FEFECE" filter="url(#f1qjn4g5yl85qk)" rx="154.5781" ry="33.3156" style="stroke:#A80036;stroke-width:1.5;"/><text fill="#000000" font-family="sans-serif" font-size="14" lengthAdjust="spacing" textLength="280" x="367.5781" y="983.6623">UC10. Register the arrival of an SNS User</text><ellipse cx="507.667" cy="1098.1334" fill="#FEFECE" filter="url(#f1qjn4g5yl85qk)" rx="231.167" ry="48.6334" style="stroke:#A80036;stroke-width:1.5;"/><text fill="#000000" font-family="sans-serif" font-size="14" lengthAdjust="spacing" textLength="437" x="289.167" y="1100.9801">UC11. Confirm vaccination appointment for a given SNS number</text><ellipse cx="507.5807" cy="1231.2161" fill="#FEFECE" filter="url(#f1qjn4g5yl85qk)" rx="236.5807" ry="49.7161" style="stroke:#A80036;stroke-width:1.5;"/><text fill="#000000" font-family="sans-serif" font-size="14" lengthAdjust="spacing" textLength="448" x="283.5807" y="1234.0628">UC12. Register that a given SNS User is ready to take the vaccine</text><ellipse cx="507.5966" cy="1700.2193" fill="#FEFECE" filter="url(#f1qjn4g5yl85qk)" rx="154.0966" ry="33.2193" style="stroke:#A80036;stroke-width:1.5;"/><text fill="#000000" font-family="sans-serif" font-size="14" lengthAdjust="spacing" textLength="279" x="368.0966" y="1703.066">UC13. Register a new vaccination center</text><ellipse cx="507.5326" cy="1795.8065" fill="#FEFECE" filter="url(#f1qjn4g5yl85qk)" rx="124.5326" ry="27.3065" style="stroke:#A80036;stroke-width:1.5;"/><text fill="#000000" font-family="sans-serif" font-size="14" lengthAdjust="spacing" textLength="217" x="399.0326" y="1798.6532">UC14. Register a new SNS User</text><ellipse cx="507.5598" cy="1891.912" fill="#FEFECE" filter="url(#f1qjn4g5yl85qk)" rx="155.0598" ry="33.412" style="stroke:#A80036;stroke-width:1.5;"/><text fill="#000000" font-family="sans-serif" font-size="14" lengthAdjust="spacing" textLength="281" x="367.0598" y="1894.7586">UC15. Register a new center coordinator</text><ellipse cx="507.5468" cy="1990.0094" fill="#FEFECE" filter="url(#f1qjn4g5yl85qk)" rx="133.0468" ry="29.0094" style="stroke:#A80036;stroke-width:1.5;"/><text fill="#000000" font-family="sans-serif" font-size="14" lengthAdjust="spacing" textLength="235" x="390.0468" y="1992.856">UC16. Register a new receptionist</text><ellipse cx="507.3004" cy="2079.0601" fill="#FEFECE" filter="url(#f1qjn4g5yl85qk)" rx="113.3004" ry="25.0601" style="stroke:#A80036;stroke-width:1.5;"/><text fill="#000000" font-family="sans-serif" font-size="14" lengthAdjust="spacing" textLength="193" x="410.8004" y="2081.9068">UC17. Register a new nurse</text><ellipse cx="507.5781" cy="2348.8156" fill="#FEFECE" filter="url(#f1qjn4g5yl85qk)" rx="154.5781" ry="33.3156" style="stroke:#A80036;stroke-width:1.5;"/><text fill="#000000" font-family="sans-serif" font-size="14" lengthAdjust="spacing" textLength="280" x="367.5781" y="2351.6623">UC18. View center's statistics and charts</text><ellipse cx="507.5038" cy="2166.9008" fill="#FEFECE" filter="url(#f1qjn4g5yl85qk)" rx="125.0038" ry="27.4008" style="stroke:#A80036;stroke-width:1.5;"/><text fill="#000000" font-family="sans-serif" font-size="14" lengthAdjust="spacing" textLength="218" x="398.5038" y="2169.7474">UC19. Generate a center report</text><ellipse cx="507.6614" cy="2254.9323" fill="#FEFECE" filter="url(#f1qjn4g5yl85qk)" rx="115.1614" ry="25.4323" style="stroke:#A80036;stroke-width:1.5;"/><text fill="#000000" font-family="sans-serif" font-size="14" lengthAdjust="spacing" textLength="197" x="409.1614" y="2257.779">UC20. Analyse other centers</text><ellipse cx="507.7278" cy="1343.8456" fill="#FEFECE" filter="url(#f1qjn4g5yl85qk)" rx="129.7278" ry="28.3456" style="stroke:#A80036;stroke-width:1.5;"/><text fill="#000000" font-family="sans-serif" font-size="14" lengthAdjust="spacing" textLength="228" x="393.7278" y="1346.6922">UC21. Configure type of vaccines</text><ellipse cx="507.4086" cy="1431.0817" fill="#FEFECE" filter="url(#f1qjn4g5yl85qk)" rx="105.9086" ry="23.5817" style="stroke:#A80036;stroke-width:1.5;"/><text fill="#000000" font-family="sans-serif" font-size="14" lengthAdjust="spacing" textLength="177" x="418.9086" y="1433.9284">UC22. Configure vaccines</text><ellipse cx="507.4476" cy="1518.8895" fill="#FEFECE" filter="url(#f1qjn4g5yl85qk)" rx="134.9476" ry="29.3895" style="stroke:#A80036;stroke-width:1.5;"/><text fill="#000000" font-family="sans-serif" font-size="14" lengthAdjust="spacing" textLength="239" x="387.9476" y="1521.7362">UC23. Manage vaccination centers</text><ellipse cx="507.7482" cy="1607.9496" fill="#FEFECE" filter="url(#f1qjn4g5yl85qk)" rx="107.7482" ry="23.9496" style="stroke:#A80036;stroke-width:1.5;"/><text fill="#000000" font-family="sans-serif" font-size="14" lengthAdjust="spacing" textLength="181" x="417.2482" y="1610.7963">UC24. Manage employees</text><!--MD5=[8fc3522a43f8c7199df5e09e5bb0188e]
entity user--><ellipse cx="77" cy="90" fill="#FEFECE" filter="url(#f1qjn4g5yl85qk)" rx="8" ry="8" style="stroke:#A80036;stroke-width:1.5;"/><path d="M77,98 L77,125 M64,106 L90,106 M77,125 L64,140 M77,125 L90,140 " fill="none" filter="url(#f1qjn4g5yl85qk)" style="stroke:#A80036;stroke-width:1.5;"/><text fill="#000000" font-family="sans-serif" font-size="14" lengthAdjust="spacing" textLength="64" x="45" y="158.4951">SNS User</text><!--MD5=[87d66015e0fe95d70bf3fa68103252e8]
entity nurse--><ellipse cx="77" cy="555" fill="#FEFECE" filter="url(#f1qjn4g5yl85qk)" rx="8" ry="8" style="stroke:#A80036;stroke-width:1.5;"/><path d="M77,563 L77,590 M64,571 L90,571 M77,590 L64,605 M77,590 L90,605 " fill="none" filter="url(#f1qjn4g5yl85qk)" style="stroke:#A80036;stroke-width:1.5;"/><text fill="#000000" font-family="sans-serif" font-size="14" lengthAdjust="spacing" textLength="41" x="56.5" y="623.4951">Nurse</text><!--MD5=[34dc565525bad95b6b789d13e524f0bb]
entity recept--><ellipse cx="77" cy="1067" fill="#FEFECE" filter="url(#f1qjn4g5yl85qk)" rx="8" ry="8" style="stroke:#A80036;stroke-width:1.5;"/><path d="M77,1075 L77,1102 M64,1083 L90,1083 M77,1102 L64,1117 M77,1102 L90,1117 " fill="none" filter="url(#f1qjn4g5yl85qk)" style="stroke:#A80036;stroke-width:1.5;"/><text fill="#000000" font-family="sans-serif" font-size="14" lengthAdjust="spacing" textLength="87" x="33.5" y="1135.4951">Receptionist</text><!--MD5=[d48fafb9a26bd4e554e8ff5ae11b5e16]
entity cadmin--><ellipse cx="77" cy="1444" fill="#FEFECE" filter="url(#f1qjn4g5yl85qk)" rx="8" ry="8" style="stroke:#A80036;stroke-width:1.5;"/><path d="M77,1452 L77,1479 M64,1460 L90,1460 M77,1479 L64,1494 M77,1479 L90,1494 " fill="none" filter="url(#f1qjn4g5yl85qk)" style="stroke:#A80036;stroke-width:1.5;"/><text fill="#000000" font-family="sans-serif" font-size="14" lengthAdjust="spacing" textLength="142" x="6" y="1512.4951">Center Administrator</text><!--MD5=[e098f6277154155999235ffbce7c1406]
entity dgsadmin--><ellipse cx="77" cy="1861" fill="#FEFECE" filter="url(#f1qjn4g5yl85qk)" rx="8" ry="8" style="stroke:#A80036;stroke-width:1.5;"/><path d="M77,1869 L77,1896 M64,1877 L90,1877 M77,1896 L64,1911 M77,1896 L90,1911 " fill="none" filter="url(#f1qjn4g5yl85qk)" style="stroke:#A80036;stroke-width:1.5;"/><text fill="#000000" font-family="sans-serif" font-size="14" lengthAdjust="spacing" textLength="126" x="14" y="1929.4951">DGS Administrator</text><!--MD5=[4d302acd527bc9f790d99ea65b823e73]
entity coordinator--><ellipse cx="77" cy="2224" fill="#FEFECE" filter="url(#f1qjn4g5yl85qk)" rx="8" ry="8" style="stroke:#A80036;stroke-width:1.5;"/><path d="M77,2232 L77,2259 M64,2240 L90,2240 M77,2259 L64,2274 M77,2259 L90,2274 " fill="none" filter="url(#f1qjn4g5yl85qk)" style="stroke:#A80036;stroke-width:1.5;"/><text fill="#000000" font-family="sans-serif" font-size="14" lengthAdjust="spacing" textLength="132" x="11" y="2292.4951">Center Coordinator</text><!--MD5=[35a5fbeaf6a2ee9183db1c700347a06a]
entity dgs--><ellipse cx="77" cy="2430" fill="#FEFECE" filter="url(#f1qjn4g5yl85qk)" rx="8" ry="8" style="stroke:#A80036;stroke-width:1.5;"/><path d="M77,2438 L77,2465 M64,2446 L90,2446 M77,2465 L64,2480 M77,2465 L90,2480 " fill="none" filter="url(#f1qjn4g5yl85qk)" style="stroke:#A80036;stroke-width:1.5;"/><text fill="#000000" font-family="sans-serif" font-size="14" lengthAdjust="spacing" textLength="31" x="61.5" y="2498.4951">DGS</text><!--MD5=[140266ba44ac8b87f85e725624a55779]
link user to UC01--><path d="M109.16,117 C171.31,109.02 312.98,90.84 409.23,78.49 " fill="none" id="user-to-UC01" style="stroke:#A80036;stroke-width:1.0;"/><polygon fill="#A80036" points="414.35,77.83,404.9183,74.9939,409.3897,78.459,405.9247,82.9304,414.35,77.83" style="stroke:#A80036;stroke-width:1.0;"/><!--MD5=[c01662b9893b7f9ffe638de90c98fa3a]
link user to UC02--><path d="M109.16,125 C149.6,130.19 223.69,139.7 297.03,149.11 " fill="none" id="user-to-UC02" style="stroke:#A80036;stroke-width:1.0;"/><polygon fill="#A80036" points="302.31,149.79,293.8847,144.6896,297.3497,149.161,292.8783,152.6261,302.31,149.79" style="stroke:#A80036;stroke-width:1.0;"/><!--MD5=[de45711618a2a9dd1d44cfe2b3e3c73b]
link dgs to UC03--><path d="M92.5,2461 C125.76,2461 211.18,2461 295.85,2461 " fill="none" id="dgs-to-UC03" style="stroke:#A80036;stroke-width:1.0;"/><polygon fill="#A80036" points="300.91,2461,291.91,2457,295.91,2461,291.91,2465,300.91,2461" style="stroke:#A80036;stroke-width:1.0;"/><!--MD5=[73520b6383863c8c1eb4ab9889a39df5]
link nurse to UC04--><path d="M83.18,545.28 C92.61,489.25 118.13,389.6 184,339 C236.26,298.85 307.73,285.51 370.1,282.89 " fill="none" id="nurse-to-UC04" style="stroke:#A80036;stroke-width:1.0;"/><polygon fill="#A80036" points="375.34,282.69,366.1977,279.0268,370.3434,282.8756,366.4947,287.0213,375.34,282.69" style="stroke:#A80036;stroke-width:1.0;"/><!--MD5=[5bb5dcefbc65873dedbd3c6858dc790c]
link nurse to UC05--><path d="M96.59,545.22 C114.16,511.58 143.81,465.54 184,441 C233.08,411.03 293.89,396.81 349.45,390.55 " fill="none" id="nurse-to-UC05" style="stroke:#A80036;stroke-width:1.0;"/><polygon fill="#A80036" points="354.46,390.01,345.079,387.0106,349.4895,390.5528,345.9474,394.9633,354.46,390.01" style="stroke:#A80036;stroke-width:1.0;"/><!--MD5=[42568f645a79a37828c16c508b3ea4f3]
link nurse to UC06--><path d="M97.53,583.04 C128.32,578.37 191.69,568.75 259.54,558.46 " fill="none" id="nurse-to-UC06" style="stroke:#A80036;stroke-width:1.0;"/><polygon fill="#A80036" points="264.85,557.66,255.3481,555.0688,259.9076,558.4171,256.5594,562.9766,264.85,557.66" style="stroke:#A80036;stroke-width:1.0;"/><!--MD5=[281c5965a45307b972b9fafd7dc9d075]
link nurse to UC07--><path d="M97.53,588.96 C146.95,596.46 280.29,616.69 381.39,632.02 " fill="none" id="nurse-to-UC07" style="stroke:#A80036;stroke-width:1.0;"/><polygon fill="#A80036" points="386.48,632.79,378.1744,627.4968,381.5355,632.0469,376.9855,635.408,386.48,632.79" style="stroke:#A80036;stroke-width:1.0;"/><!--MD5=[5306f834103bd019928d2c56277b17a1]
link nurse to UC08--><path d="M97.54,616.04 C116.4,642.48 147.44,679.82 184,700 C223.03,721.54 268.32,735.62 312.41,744.77 " fill="none" id="nurse-to-UC08" style="stroke:#A80036;stroke-width:1.0;"/><polygon fill="#A80036" points="317.5,745.81,309.4816,740.0911,312.601,744.8102,307.8819,747.9296,317.5,745.81" style="stroke:#A80036;stroke-width:1.0;"/><!--MD5=[ba10721c796bf8e05da1d4cf00621405]
link nurse to UC09--><path d="M84.42,626.85 C95.1,680.35 121.85,772.97 184,821 C225.9,853.39 280.06,869.48 332,876.85 " fill="none" id="nurse-to-UC09" style="stroke:#A80036;stroke-width:1.0;"/><polygon fill="#A80036" points="337.01,877.53,328.643,872.3345,332.0572,876.8449,327.5468,880.2591,337.01,877.53" style="stroke:#A80036;stroke-width:1.0;"/><!--MD5=[5ecaaaa6d6a50bba066cd1281b230436]
link recept to UC10--><path d="M120.56,1066.04 C139.15,1053.57 161.76,1040.29 184,1032 C238.14,1011.82 300.29,999.62 355.49,992.25 " fill="none" id="recept-to-UC10" style="stroke:#A80036;stroke-width:1.0;"/><polygon fill="#A80036" points="360.47,991.6,351.0224,988.8174,355.5134,992.2571,352.0737,996.748,360.47,991.6" style="stroke:#A80036;stroke-width:1.0;"/><!--MD5=[fbc97369f0f4b67e192977046dde35f4]
link recept to UC11--><path d="M120.65,1098 C157.28,1098 213.22,1098 271.23,1098 " fill="none" id="recept-to-UC11" style="stroke:#A80036;stroke-width:1.0;"/><polygon fill="#A80036" points="276.49,1098,267.49,1094,271.49,1098,267.49,1102,276.49,1098" style="stroke:#A80036;stroke-width:1.0;"/><!--MD5=[e82707fa6bb15b9ef4ecfa203bd76ac0]
link recept to UC12--><path d="M120.5,1129.27 C139.18,1141.7 161.86,1155.14 184,1164 C223.28,1179.73 266.8,1191.96 308.82,1201.41 " fill="none" id="recept-to-UC12" style="stroke:#A80036;stroke-width:1.0;"/><polygon fill="#A80036" points="313.93,1202.55,306.012,1196.6929,309.0491,1201.4653,304.2766,1204.5024,313.93,1202.55" style="stroke:#A80036;stroke-width:1.0;"/><!--MD5=[d7269a70f8a1b2dc62ea30a889632ee0]
link dgsadmin to UC13--><path d="M97.4,1851.35 C115.21,1818.72 144.77,1774.6 184,1751 C232.92,1721.58 293.26,1707.41 348.47,1701.05 " fill="none" id="dgsadmin-to-UC13" style="stroke:#A80036;stroke-width:1.0;"/><polygon fill="#A80036" points="353.45,1700.5,344.0605,1697.5272,348.4811,1701.0569,344.9515,1705.4775,353.45,1700.5" style="stroke:#A80036;stroke-width:1.0;"/><!--MD5=[ca820776518cd617d7a259344ec2dfc4]
link dgsadmin to UC14--><path d="M140.05,1858.21 C154.17,1851.64 169.34,1845.43 184,1841 C248.08,1821.63 321.89,1810.55 382.71,1804.24 " fill="none" id="dgsadmin-to-UC14" style="stroke:#A80036;stroke-width:1.0;"/><polygon fill="#A80036" points="387.81,1803.72,378.4471,1800.6646,382.8364,1804.233,379.2679,1808.6224,387.81,1803.72" style="stroke:#A80036;stroke-width:1.0;"/><!--MD5=[6c0747816ff5f6894e13cbe642ecff63]
link dgsadmin to UC15--><path d="M140.31,1892 C194.37,1892 275.02,1892 346.89,1892 " fill="none" id="dgsadmin-to-UC15" style="stroke:#A80036;stroke-width:1.0;"/><polygon fill="#A80036" points="352.05,1892,343.05,1888,347.05,1892,343.05,1896,352.05,1892" style="stroke:#A80036;stroke-width:1.0;"/><!--MD5=[f73cc0d7ef78d1f4a9a40524451515d9]
link dgsadmin to UC16--><path d="M140.07,1925.72 C154.19,1932.29 169.35,1938.52 184,1943 C245.84,1961.9 316.74,1973.29 376.29,1980.11 " fill="none" id="dgsadmin-to-UC16" style="stroke:#A80036;stroke-width:1.0;"/><polygon fill="#A80036" points="381.28,1980.68,372.7831,1975.6998,376.3113,1980.1216,371.8896,1983.6498,381.28,1980.68" style="stroke:#A80036;stroke-width:1.0;"/><!--MD5=[a8f3fb4840e4a4fc2bcaca88307f7426]
link dgsadmin to UC17--><path d="M96.51,1932.75 C114.03,1966.32 143.66,2012.13 184,2036 C246.3,2072.87 327.05,2083.6 392.16,2085.12 " fill="none" id="dgsadmin-to-UC17" style="stroke:#A80036;stroke-width:1.0;"/><polygon fill="#A80036" points="397.22,2085.22,388.302,2081.0403,392.221,2085.1197,388.1416,2089.0387,397.22,2085.22" style="stroke:#A80036;stroke-width:1.0;"/><!--MD5=[ceedcd86907d982e68a98fcbde707650]
link coordinator to UC18--><path d="M143.06,2284.11 C156.41,2289.31 170.51,2294.25 184,2298 C241.79,2314.06 306.9,2325.56 363.4,2333.52 " fill="none" id="coordinator-to-UC18" style="stroke:#A80036;stroke-width:1.0;"/><polygon fill="#A80036" points="368.5,2334.23,360.1498,2329.0075,363.5494,2333.5289,359.028,2336.9285,368.5,2334.23" style="stroke:#A80036;stroke-width:1.0;"/><!--MD5=[60dec685cb8c65457641ae9c0dbdc30a]
link coordinator to UC19--><path d="M143.01,2225.7 C156.36,2220.52 170.48,2215.63 184,2212 C249.19,2194.52 323.72,2183.55 384.7,2176.83 " fill="none" id="coordinator-to-UC19" style="stroke:#A80036;stroke-width:1.0;"/><polygon fill="#A80036" points="389.81,2176.27,380.429,2173.2706,384.8395,2176.8128,381.2974,2181.2233,389.81,2176.27" style="stroke:#A80036;stroke-width:1.0;"/><!--MD5=[2ff798229421eb8c555190bc272acb6b]
link coordinator to UC20--><path d="M143.08,2255 C207.68,2255 308.21,2255 387.18,2255 " fill="none" id="coordinator-to-UC20" style="stroke:#A80036;stroke-width:1.0;"/><polygon fill="#A80036" points="392.35,2255,383.35,2251,387.35,2255,383.35,2259,392.35,2255" style="stroke:#A80036;stroke-width:1.0;"/><!--MD5=[8c64daca5633e95bc0244ad180f5bced]
link cadmin to UC21--><path d="M118.12,1434.32 C136.65,1417.93 159.87,1400.45 184,1390 C243.06,1364.42 313.34,1352.49 373.19,1347.13 " fill="none" id="cadmin-to-UC21" style="stroke:#A80036;stroke-width:1.0;"/><polygon fill="#A80036" points="378.22,1346.69,368.9014,1343.502,373.2396,1347.1324,369.6092,1351.4706,378.22,1346.69" style="stroke:#A80036;stroke-width:1.0;"/><!--MD5=[9acbe5158d26312848c5f9dcdf767e25]
link cadmin to UC22--><path d="M148.28,1467.78 C218.33,1460.59 326.59,1449.47 405.77,1441.34 " fill="none" id="cadmin-to-UC22" style="stroke:#A80036;stroke-width:1.0;"/><polygon fill="#A80036" points="410.94,1440.81,401.5849,1437.7307,405.9651,1441.3103,402.3855,1445.6906,410.94,1440.81" style="stroke:#A80036;stroke-width:1.0;"/><!--MD5=[0de9b869147e02faae49b7a94e799a26]
link cadmin to UC23--><path d="M148.28,1482.22 C210.88,1488.64 304.01,1498.21 379.62,1505.97 " fill="none" id="cadmin-to-UC23" style="stroke:#A80036;stroke-width:1.0;"/><polygon fill="#A80036" points="385.03,1506.53,376.4894,1501.6251,380.0565,1506.0155,375.6662,1509.5827,385.03,1506.53" style="stroke:#A80036;stroke-width:1.0;"/><!--MD5=[55b301bf8b4fae40972fbc4a4aaa88cc]
link cadmin to UC24--><path d="M114.41,1515.66 C133.3,1534.1 157.86,1554.34 184,1566 C249.96,1595.41 330.51,1605.92 394.61,1609.07 " fill="none" id="cadmin-to-UC24" style="stroke:#A80036;stroke-width:1.0;"/><polygon fill="#A80036" points="399.98,1609.32,391.1726,1604.912,394.9852,1609.091,390.8063,1612.9036,399.98,1609.32" style="stroke:#A80036;stroke-width:1.0;"/><!--MD5=[66398a738f4dadc393b0e12651c9632d]
@startuml UCD

left to right direction

actor "SNS User" as user
actor "Nurse" as nurse
actor "Receptionist" as recept
actor "Center Administrator" as cadmin
actor "DGS Administrator" as dgsadmin
actor "Center Coordinator" as coordinator
actor "DGS" as dgs

rectangle System {
  usecase "UC01. Schedule a vaccine" as UC01
  usecase "UC02. Request the issuance of the EU COVID-19 Digital Certificate" as UC02
  usecase "UC03. Send a SMS with appointment details to SNS User" as UC03
  usecase "UC04. Issue a vaccination certificate" as UC04
  usecase "UC05. Schedule a vaccine to a SNS User" as UC05
  usecase "UC06. Check the list of SNS Users that are present in the center to take the vaccine" as UC06
  usecase "UC07. Check user's health information" as UC07
  usecase "UC08. Report adverse reactions during recovery period" as UC08
  usecase "UC09. Register SNS User's vaccination details" as UC09
  usecase "UC10. Register the arrival of an SNS User" as UC10
  usecase "UC11. Confirm vaccination appointment for a given SNS number" as UC11
  usecase "UC12. Register that a given SNS User is ready to take the vaccine" as UC12
  usecase "UC13. Register a new vaccination center" as UC13
  usecase "UC14. Register a new SNS User" as UC14
  usecase "UC15. Register a new center coordinator" as UC15
  usecase "UC16. Register a new receptionist" as UC16
  usecase "UC17. Register a new nurse" as UC17
  usecase "UC18. View center's statistics and charts" as UC18
  usecase "UC19. Generate a center report" as UC19
  usecase "UC20. Analyse other centers" as UC20
  usecase "UC21. Configure type of vaccines" as UC21
  usecase "UC22. Configure vaccines" as UC22
  usecase "UC23. Manage vaccination centers" as UC23
  usecase "UC24. Manage employees" as UC24
}

user - -> UC01
user - -> UC02
dgs - -> UC03
nurse - -> UC04
nurse - -> UC05
nurse - -> UC06
nurse - -> UC07
nurse - -> UC08
nurse - -> UC09
recept - -> UC10
recept - -> UC11
recept - -> UC12
dgsadmin - -> UC13
dgsadmin - -> UC14
dgsadmin - -> UC15
dgsadmin - -> UC16
dgsadmin - -> UC17
coordinator - -> UC18
coordinator - -> UC19
coordinator - -> UC20
cadmin - -> UC21
cadmin - -> UC22
cadmin - -> UC23
cadmin - -> UC24

@enduml

PlantUML version 1.2022.0(Tue Jan 11 16:16:42 WET 2022)
(GPL source distribution)
Java Runtime: Java(TM) SE Runtime Environment
JVM: Java HotSpot(TM) 64-Bit Server VM
Default Encoding: UTF-8
Language: en
Country: US
--></g></svg>