<?xml version="1.0" encoding="UTF-8" standalone="no"?><svg xmlns="http://www.w3.org/2000/svg" xmlns:xlink="http://www.w3.org/1999/xlink" contentScriptType="application/ecmascript" contentStyleType="text/css" height="357px" preserveAspectRatio="none" style="width:1855px;height:357px;background:#FFFFFF;" version="1.1" viewBox="0 0 1855 357" width="1855px" zoomAndPan="magnify"><defs><filter height="300%" id="f1f1dnclj67vvy" width="300%" x="-1" y="-1"><feGaussianBlur result="blurOut" stdDeviation="2.0"/><feColorMatrix in="blurOut" result="blurOut2" type="matrix" values="0 0 0 0 0 0 0 0 0 0 0 0 0 0 0 0 0 0 .4 0"/><feOffset dx="4.0" dy="4.0" in="blurOut2" result="blurOut3"/><feBlend in="SourceGraphic" in2="blurOut3" mode="normal"/></filter></defs><g><!--MD5=[7421f545a0d8420c5bec41e74b387d9c]
class Employee--><rect codeLine="5" fill="#FEFECE" filter="url(#f1f1dnclj67vvy)" height="129.6328" id="Employee" style="stroke:#A80036;stroke-width:1.5;" width="123" x="210" y="137.5659"/><ellipse cx="238.95" cy="153.5659" fill="#ADD1B2" rx="11" ry="11" style="stroke:#A80036;stroke-width:1.0;"/><path d="M241.9188,159.2065 Q241.3406,159.5034 240.7,159.644 Q240.0594,159.8003 239.3563,159.8003 Q236.8563,159.8003 235.5281,158.1597 Q234.2156,156.5034 234.2156,153.3784 Q234.2156,150.2534 235.5281,148.5972 Q236.8563,146.9409 239.3563,146.9409 Q240.0594,146.9409 240.7,147.0972 Q241.3563,147.2534 241.9188,147.5503 L241.9188,150.269 Q241.2938,149.6909 240.7,149.4253 Q240.1063,149.144 239.4813,149.144 Q238.1375,149.144 237.45,150.2222 Q236.7625,151.2847 236.7625,153.3784 Q236.7625,155.4722 237.45,156.5503 Q238.1375,157.6128 239.4813,157.6128 Q240.1063,157.6128 240.7,157.3472 Q241.2938,157.0659 241.9188,156.4878 L241.9188,159.2065 Z " fill="#000000"/><text fill="#000000" font-family="sans-serif" font-size="12" lengthAdjust="spacing" textLength="60" x="256.05" y="157.7202">Employee</text><line style="stroke:#A80036;stroke-width:1.5;" x1="211" x2="332" y1="169.5659" y2="169.5659"/><text fill="#000000" font-family="sans-serif" font-size="11" lengthAdjust="spacing" textLength="14" x="216" y="183.7764">-id</text><text fill="#000000" font-family="sans-serif" font-size="11" lengthAdjust="spacing" textLength="36" x="216" y="196.5811">-name</text><text fill="#000000" font-family="sans-serif" font-size="11" lengthAdjust="spacing" textLength="35" x="216" y="209.3857">-email</text><text fill="#000000" font-family="sans-serif" font-size="11" lengthAdjust="spacing" textLength="39" x="216" y="222.1904">-phone</text><text fill="#000000" font-family="sans-serif" font-size="11" lengthAdjust="spacing" textLength="51" x="216" y="234.9951">-address</text><text fill="#000000" font-family="sans-serif" font-size="11" lengthAdjust="spacing" textLength="111" x="216" y="247.7998">-citizenCardNumber</text><text fill="#000000" font-family="sans-serif" font-size="11" lengthAdjust="spacing" textLength="36" x="216" y="260.6045">-roleId</text><!--MD5=[a3638c1e5b65d287ecad7f06f5c0f212]
class Role--><rect codeLine="15" fill="#FEFECE" filter="url(#f1f1dnclj67vvy)" height="52.8047" id="Role" style="stroke:#A80036;stroke-width:1.5;" width="82" x="445" y="94.0659"/><ellipse cx="470.35" cy="110.0659" fill="#ADD1B2" rx="11" ry="11" style="stroke:#A80036;stroke-width:1.0;"/><path d="M473.3188,115.7065 Q472.7406,116.0034 472.1,116.144 Q471.4594,116.3003 470.7563,116.3003 Q468.2563,116.3003 466.9281,114.6597 Q465.6156,113.0034 465.6156,109.8784 Q465.6156,106.7534 466.9281,105.0972 Q468.2563,103.4409 470.7563,103.4409 Q471.4594,103.4409 472.1,103.5972 Q472.7563,103.7534 473.3188,104.0503 L473.3188,106.769 Q472.6938,106.1909 472.1,105.9253 Q471.5063,105.644 470.8813,105.644 Q469.5375,105.644 468.85,106.7222 Q468.1625,107.7847 468.1625,109.8784 Q468.1625,111.9722 468.85,113.0503 Q469.5375,114.1128 470.8813,114.1128 Q471.5063,114.1128 472.1,113.8472 Q472.6938,113.5659 473.3188,112.9878 L473.3188,115.7065 Z " fill="#000000"/><text fill="#000000" font-family="sans-serif" font-size="12" lengthAdjust="spacing" textLength="27" x="486.65" y="114.2202">Role</text><line style="stroke:#A80036;stroke-width:1.5;" x1="446" x2="526" y1="126.0659" y2="126.0659"/><text fill="#000000" font-family="sans-serif" font-size="11" lengthAdjust="spacing" textLength="70" x="451" y="140.2764">-designation</text><!--MD5=[a059576e163b46f56762f12600c49258]
class Nurse--><rect codeLine="19" fill="#FEFECE" filter="url(#f1f1dnclj67vvy)" height="40" id="Nurse" style="stroke:#A80036;stroke-width:1.5;" width="69" x="451.5" y="182.5659"/><ellipse cx="466.5" cy="198.5659" fill="#ADD1B2" rx="11" ry="11" style="stroke:#A80036;stroke-width:1.0;"/><path d="M469.4688,204.2065 Q468.8906,204.5034 468.25,204.644 Q467.6094,204.8003 466.9063,204.8003 Q464.4063,204.8003 463.0781,203.1597 Q461.7656,201.5034 461.7656,198.3784 Q461.7656,195.2534 463.0781,193.5972 Q464.4063,191.9409 466.9063,191.9409 Q467.6094,191.9409 468.25,192.0972 Q468.9063,192.2534 469.4688,192.5503 L469.4688,195.269 Q468.8438,194.6909 468.25,194.4253 Q467.6563,194.144 467.0313,194.144 Q465.6875,194.144 465,195.2222 Q464.3125,196.2847 464.3125,198.3784 Q464.3125,200.4722 465,201.5503 Q465.6875,202.6128 467.0313,202.6128 Q467.6563,202.6128 468.25,202.3472 Q468.8438,202.0659 469.4688,201.4878 L469.4688,204.2065 Z " fill="#000000"/><text fill="#000000" font-family="sans-serif" font-size="12" lengthAdjust="spacing" textLength="37" x="480.5" y="202.7202">Nurse</text><line style="stroke:#A80036;stroke-width:1.5;" x1="452.5" x2="519.5" y1="214.5659" y2="214.5659"/><!--MD5=[03960189e81aa2c066c762ffabbee709]
class Receptionist--><rect codeLine="21" fill="#FEFECE" filter="url(#f1f1dnclj67vvy)" height="40" id="Receptionist" style="stroke:#A80036;stroke-width:1.5;" width="110" x="431" y="257.5659"/><ellipse cx="446" cy="273.5659" fill="#ADD1B2" rx="11" ry="11" style="stroke:#A80036;stroke-width:1.0;"/><path d="M448.9688,279.2065 Q448.3906,279.5034 447.75,279.644 Q447.1094,279.8003 446.4063,279.8003 Q443.9063,279.8003 442.5781,278.1597 Q441.2656,276.5034 441.2656,273.3784 Q441.2656,270.2534 442.5781,268.5972 Q443.9063,266.9409 446.4063,266.9409 Q447.1094,266.9409 447.75,267.0972 Q448.4063,267.2534 448.9688,267.5503 L448.9688,270.269 Q448.3438,269.6909 447.75,269.4253 Q447.1563,269.144 446.5313,269.144 Q445.1875,269.144 444.5,270.2222 Q443.8125,271.2847 443.8125,273.3784 Q443.8125,275.4722 444.5,276.5503 Q445.1875,277.6128 446.5313,277.6128 Q447.1563,277.6128 447.75,277.3472 Q448.3438,277.0659 448.9688,276.4878 L448.9688,279.2065 Z " fill="#000000"/><text fill="#000000" font-family="sans-serif" font-size="12" lengthAdjust="spacing" textLength="78" x="460" y="277.7202">Receptionist</text><line style="stroke:#A80036;stroke-width:1.5;" x1="432" x2="540" y1="289.5659" y2="289.5659"/><!--MD5=[de60e6d4f424ae4d0522096f76a59010]
class VaccinationCenter--><rect codeLine="23" fill="#FEFECE" filter="url(#f1f1dnclj67vvy)" height="116.8281" id="VaccinationCenter" style="stroke:#A80036;stroke-width:1.5;" width="147" x="1374" y="208.0659"/><ellipse cx="1389" cy="224.0659" fill="#ADD1B2" rx="11" ry="11" style="stroke:#A80036;stroke-width:1.0;"/><path d="M1391.9688,229.7065 Q1391.3906,230.0034 1390.75,230.144 Q1390.1094,230.3003 1389.4063,230.3003 Q1386.9063,230.3003 1385.5781,228.6597 Q1384.2656,227.0034 1384.2656,223.8784 Q1384.2656,220.7534 1385.5781,219.0972 Q1386.9063,217.4409 1389.4063,217.4409 Q1390.1094,217.4409 1390.75,217.5972 Q1391.4063,217.7534 1391.9688,218.0503 L1391.9688,220.769 Q1391.3438,220.1909 1390.75,219.9253 Q1390.1563,219.644 1389.5313,219.644 Q1388.1875,219.644 1387.5,220.7222 Q1386.8125,221.7847 1386.8125,223.8784 Q1386.8125,225.9722 1387.5,227.0503 Q1388.1875,228.1128 1389.5313,228.1128 Q1390.1563,228.1128 1390.75,227.8472 Q1391.3438,227.5659 1391.9688,226.9878 L1391.9688,229.7065 Z " fill="#000000"/><text fill="#000000" font-family="sans-serif" font-size="12" lengthAdjust="spacing" textLength="115" x="1403" y="228.2202">VaccinationCenter</text><line style="stroke:#A80036;stroke-width:1.5;" x1="1375" x2="1520" y1="240.0659" y2="240.0659"/><text fill="#000000" font-family="sans-serif" font-size="11" lengthAdjust="spacing" textLength="36" x="1380" y="254.2764">-name</text><text fill="#000000" font-family="sans-serif" font-size="11" lengthAdjust="spacing" textLength="51" x="1380" y="267.0811">-address</text><text fill="#000000" font-family="sans-serif" font-size="11" lengthAdjust="spacing" textLength="82" x="1380" y="279.8857">-emailAddress</text><text fill="#000000" font-family="sans-serif" font-size="11" lengthAdjust="spacing" textLength="84" x="1380" y="292.6904">-phoneNumber</text><text fill="#000000" font-family="sans-serif" font-size="11" lengthAdjust="spacing" textLength="66" x="1380" y="305.4951">-faxNumber</text><text fill="#000000" font-family="sans-serif" font-size="11" lengthAdjust="spacing" textLength="95" x="1380" y="318.2998">-websiteAddress</text><!--MD5=[aaa7e27c4ec43917c82a021675d2c87a]
class WaitingRoom--><rect codeLine="32" fill="#FEFECE" filter="url(#f1f1dnclj67vvy)" height="40" id="WaitingRoom" style="stroke:#A80036;stroke-width:1.5;" width="113" x="691" y="224.5659"/><ellipse cx="706" cy="240.5659" fill="#ADD1B2" rx="11" ry="11" style="stroke:#A80036;stroke-width:1.0;"/><path d="M708.9688,246.2065 Q708.3906,246.5034 707.75,246.644 Q707.1094,246.8003 706.4063,246.8003 Q703.9063,246.8003 702.5781,245.1597 Q701.2656,243.5034 701.2656,240.3784 Q701.2656,237.2534 702.5781,235.5972 Q703.9063,233.9409 706.4063,233.9409 Q707.1094,233.9409 707.75,234.0972 Q708.4063,234.2534 708.9688,234.5503 L708.9688,237.269 Q708.3438,236.6909 707.75,236.4253 Q707.1563,236.144 706.5313,236.144 Q705.1875,236.144 704.5,237.2222 Q703.8125,238.2847 703.8125,240.3784 Q703.8125,242.4722 704.5,243.5503 Q705.1875,244.6128 706.5313,244.6128 Q707.1563,244.6128 707.75,244.3472 Q708.3438,244.0659 708.9688,243.4878 L708.9688,246.2065 Z " fill="#000000"/><text fill="#000000" font-family="sans-serif" font-size="12" lengthAdjust="spacing" textLength="81" x="720" y="244.7202">WaitingRoom</text><line style="stroke:#A80036;stroke-width:1.5;" x1="692" x2="803" y1="256.5659" y2="256.5659"/><!--MD5=[72be06cc7ae02ccc98efe28a50e62246]
class SNSUser--><rect codeLine="34" fill="#FEFECE" filter="url(#f1f1dnclj67vvy)" height="116.8281" id="SNSUser" style="stroke:#A80036;stroke-width:1.5;" width="96" x="911" y="83.0659"/><ellipse cx="930.5" cy="99.0659" fill="#ADD1B2" rx="11" ry="11" style="stroke:#A80036;stroke-width:1.0;"/><path d="M933.4688,104.7065 Q932.8906,105.0034 932.25,105.144 Q931.6094,105.3003 930.9063,105.3003 Q928.4063,105.3003 927.0781,103.6597 Q925.7656,102.0034 925.7656,98.8784 Q925.7656,95.7534 927.0781,94.0972 Q928.4063,92.4409 930.9063,92.4409 Q931.6094,92.4409 932.25,92.5972 Q932.9063,92.7534 933.4688,93.0503 L933.4688,95.769 Q932.8438,95.1909 932.25,94.9253 Q931.6563,94.644 931.0313,94.644 Q929.6875,94.644 929,95.7222 Q928.3125,96.7847 928.3125,98.8784 Q928.3125,100.9722 929,102.0503 Q929.6875,103.1128 931.0313,103.1128 Q931.6563,103.1128 932.25,102.8472 Q932.8438,102.5659 933.4688,101.9878 L933.4688,104.7065 Z " fill="#000000"/><text fill="#000000" font-family="sans-serif" font-size="12" lengthAdjust="spacing" textLength="54" x="945.5" y="103.2202">SNSUser</text><line style="stroke:#A80036;stroke-width:1.5;" x1="912" x2="1006" y1="115.0659" y2="115.0659"/><text fill="#000000" font-family="sans-serif" font-size="11" lengthAdjust="spacing" textLength="66" x="917" y="129.2764">-citizenCard</text><text fill="#000000" font-family="sans-serif" font-size="11" lengthAdjust="spacing" textLength="70" x="917" y="142.0811">-snsNumber</text><text fill="#000000" font-family="sans-serif" font-size="11" lengthAdjust="spacing" textLength="51" x="917" y="154.8857">-birthDay</text><text fill="#000000" font-family="sans-serif" font-size="11" lengthAdjust="spacing" textLength="44" x="917" y="167.6904">-gender</text><text fill="#000000" font-family="sans-serif" font-size="11" lengthAdjust="spacing" textLength="84" x="917" y="180.4951">-phoneNumber</text><text fill="#000000" font-family="sans-serif" font-size="11" lengthAdjust="spacing" textLength="51" x="917" y="193.2998">-address</text><!--MD5=[02e4b9b7573f1156f41e60aa5b4e25a4]
class Company--><rect codeLine="43" fill="#FEFECE" filter="url(#f1f1dnclj67vvy)" height="40" id="Company" style="stroke:#A80036;stroke-width:1.5;" width="89" x="7" y="182.5659"/><ellipse cx="22" cy="198.5659" fill="#ADD1B2" rx="11" ry="11" style="stroke:#A80036;stroke-width:1.0;"/><path d="M24.9688,204.2065 Q24.3906,204.5034 23.75,204.644 Q23.1094,204.8003 22.4063,204.8003 Q19.9063,204.8003 18.5781,203.1597 Q17.2656,201.5034 17.2656,198.3784 Q17.2656,195.2534 18.5781,193.5972 Q19.9063,191.9409 22.4063,191.9409 Q23.1094,191.9409 23.75,192.0972 Q24.4063,192.2534 24.9688,192.5503 L24.9688,195.269 Q24.3438,194.6909 23.75,194.4253 Q23.1563,194.144 22.5313,194.144 Q21.1875,194.144 20.5,195.2222 Q19.8125,196.2847 19.8125,198.3784 Q19.8125,200.4722 20.5,201.5503 Q21.1875,202.6128 22.5313,202.6128 Q23.1563,202.6128 23.75,202.3472 Q24.3438,202.0659 24.9688,201.4878 L24.9688,204.2065 Z " fill="#000000"/><text fill="#000000" font-family="sans-serif" font-size="12" lengthAdjust="spacing" textLength="57" x="36" y="202.7202">Company</text><line style="stroke:#A80036;stroke-width:1.5;" x1="8" x2="95" y1="214.5659" y2="214.5659"/><!--MD5=[c508b5b6bbe276ff5e2700b6641f837f]
class Appointment--><rect codeLine="45" fill="#FEFECE" filter="url(#f1f1dnclj67vvy)" height="52.8047" id="Appointment" style="stroke:#A80036;stroke-width:1.5;" width="112" x="1146" y="115.0659"/><ellipse cx="1161" cy="131.0659" fill="#ADD1B2" rx="11" ry="11" style="stroke:#A80036;stroke-width:1.0;"/><path d="M1163.9688,136.7065 Q1163.3906,137.0034 1162.75,137.144 Q1162.1094,137.3003 1161.4063,137.3003 Q1158.9063,137.3003 1157.5781,135.6597 Q1156.2656,134.0034 1156.2656,130.8784 Q1156.2656,127.7534 1157.5781,126.0972 Q1158.9063,124.4409 1161.4063,124.4409 Q1162.1094,124.4409 1162.75,124.5972 Q1163.4063,124.7534 1163.9688,125.0503 L1163.9688,127.769 Q1163.3438,127.1909 1162.75,126.9253 Q1162.1563,126.644 1161.5313,126.644 Q1160.1875,126.644 1159.5,127.7222 Q1158.8125,128.7847 1158.8125,130.8784 Q1158.8125,132.9722 1159.5,134.0503 Q1160.1875,135.1128 1161.5313,135.1128 Q1162.1563,135.1128 1162.75,134.8472 Q1163.3438,134.5659 1163.9688,133.9878 L1163.9688,136.7065 Z " fill="#000000"/><text fill="#000000" font-family="sans-serif" font-size="12" lengthAdjust="spacing" textLength="80" x="1175" y="135.2202">Appointment</text><line style="stroke:#A80036;stroke-width:1.5;" x1="1147" x2="1257" y1="147.0659" y2="147.0659"/><text fill="#000000" font-family="sans-serif" font-size="11" lengthAdjust="spacing" textLength="29" x="1152" y="161.2764">-date</text><!--MD5=[2e42295458bb0bec21c9622a623eb29e]
class Time--><rect codeLine="49" fill="#FEFECE" filter="url(#f1f1dnclj67vvy)" height="65.6094" id="Time" style="stroke:#A80036;stroke-width:1.5;" width="62" x="1746.5" y="160.5659"/><ellipse cx="1761.95" cy="176.5659" fill="#ADD1B2" rx="11" ry="11" style="stroke:#A80036;stroke-width:1.0;"/><path d="M1764.9188,182.2065 Q1764.3406,182.5034 1763.7,182.644 Q1763.0594,182.8003 1762.3563,182.8003 Q1759.8563,182.8003 1758.5281,181.1597 Q1757.2156,179.5034 1757.2156,176.3784 Q1757.2156,173.2534 1758.5281,171.5972 Q1759.8563,169.9409 1762.3563,169.9409 Q1763.0594,169.9409 1763.7,170.0972 Q1764.3563,170.2534 1764.9188,170.5503 L1764.9188,173.269 Q1764.2938,172.6909 1763.7,172.4253 Q1763.1063,172.144 1762.4813,172.144 Q1761.1375,172.144 1760.45,173.2222 Q1759.7625,174.2847 1759.7625,176.3784 Q1759.7625,178.4722 1760.45,179.5503 Q1761.1375,180.6128 1762.4813,180.6128 Q1763.1063,180.6128 1763.7,180.3472 Q1764.2938,180.0659 1764.9188,179.4878 L1764.9188,182.2065 Z " fill="#000000"/><text fill="#000000" font-family="sans-serif" font-size="12" lengthAdjust="spacing" textLength="29" x="1776.05" y="180.7202">Time</text><line style="stroke:#A80036;stroke-width:1.5;" x1="1747.5" x2="1807.5" y1="192.5659" y2="192.5659"/><text fill="#000000" font-family="sans-serif" font-size="11" lengthAdjust="spacing" textLength="37" x="1752.5" y="206.7764">-hours</text><text fill="#000000" font-family="sans-serif" font-size="11" lengthAdjust="spacing" textLength="50" x="1752.5" y="219.5811">-minutes</text><!--MD5=[45c6380d22fb72521f5065026b277fb9]
class Slot--><rect codeLine="54" fill="#FEFECE" filter="url(#f1f1dnclj67vvy)" height="65.6094" id="Slot" style="stroke:#A80036;stroke-width:1.5;" width="127" x="1714" y="274.5659"/><ellipse cx="1761.25" cy="290.5659" fill="#ADD1B2" rx="11" ry="11" style="stroke:#A80036;stroke-width:1.0;"/><path d="M1764.2188,296.2065 Q1763.6406,296.5034 1763,296.644 Q1762.3594,296.8003 1761.6563,296.8003 Q1759.1563,296.8003 1757.8281,295.1597 Q1756.5156,293.5034 1756.5156,290.3784 Q1756.5156,287.2534 1757.8281,285.5972 Q1759.1563,283.9409 1761.6563,283.9409 Q1762.3594,283.9409 1763,284.0972 Q1763.6563,284.2534 1764.2188,284.5503 L1764.2188,287.269 Q1763.5938,286.6909 1763,286.4253 Q1762.4063,286.144 1761.7813,286.144 Q1760.4375,286.144 1759.75,287.2222 Q1759.0625,288.2847 1759.0625,290.3784 Q1759.0625,292.4722 1759.75,293.5503 Q1760.4375,294.6128 1761.7813,294.6128 Q1762.4063,294.6128 1763,294.3472 Q1763.5938,294.0659 1764.2188,293.4878 L1764.2188,296.2065 Z " fill="#000000"/><text fill="#000000" font-family="sans-serif" font-size="12" lengthAdjust="spacing" textLength="24" x="1781.75" y="294.7202">Slot</text><line style="stroke:#A80036;stroke-width:1.5;" x1="1715" x2="1840" y1="306.5659" y2="306.5659"/><text fill="#000000" font-family="sans-serif" font-size="11" lengthAdjust="spacing" textLength="51" x="1720" y="320.7764">-duration</text><text fill="#000000" font-family="sans-serif" font-size="11" lengthAdjust="spacing" textLength="115" x="1720" y="333.5811">-nOfVaccinesPerSlot</text><!--MD5=[6716344a46572fc99c27bf4e50ddbd3d]
reverse link Employee to Nurse--><path codeLine="59" d="M353.16,202.5659 C387.24,202.5659 425.04,202.5659 451.4,202.5659 " fill="none" id="Employee-backto-Nurse" style="stroke:#A80036;stroke-width:1.0;"/><polygon fill="none" points="353.11,209.5659,333.11,202.5659,353.11,195.5659,353.11,209.5659" style="stroke:#A80036;stroke-width:1.0;"/><!--MD5=[bfff716514ca687b645fe473c6e098a4]
reverse link Employee to Receptionist--><path codeLine="60" d="M352.16,230.6759 C378.4,239.9459 406.95,250.0159 430.83,258.4459 " fill="none" id="Employee-backto-Receptionist" style="stroke:#A80036;stroke-width:1.0;"/><polygon fill="none" points="349.64,237.2159,333.11,223.9559,354.3,224.0159,349.64,237.2159" style="stroke:#A80036;stroke-width:1.0;"/><!--MD5=[ffab42d7305e6830f0674a21f59219d7]
link Employee to Role--><path codeLine="62" d="M333.11,179.1759 C368.93,165.3559 413.3,148.2359 444.81,136.0759 " fill="none" id="Employee-Role" style="stroke:#A80036;stroke-width:1.0;"/><polygon fill="#000000" points="372.6648,144.3324,363.1681,144.8466,365.2841,150.3304,372.6648,144.3324" style="stroke:#000000;stroke-width:1.0;"/><text fill="#000000" font-family="sans-serif" font-size="13" lengthAdjust="spacing" textLength="23" x="377" y="150.6328">has</text><text fill="#000000" font-family="sans-serif" font-size="13" lengthAdjust="spacing" textLength="7" x="341.0453" y="189.3367">*</text><text fill="#000000" font-family="sans-serif" font-size="13" lengthAdjust="spacing" textLength="8" x="429.043" y="152.1259">1</text><!--MD5=[de78e1efbcb885042a1719c3cec87a53]
link VaccinationCenter to WaitingRoom--><path codeLine="64" d="M1373.77,264.2759 C1233.74,259.8559 929.46,250.2659 804.15,246.3159 " fill="none" id="VaccinationCenter-WaitingRoom" style="stroke:#A80036;stroke-width:1.0;"/><polygon fill="#000000" points="1057.5025,245.9748,1066.4505,249.1973,1066.6357,243.3223,1057.5025,245.9748" style="stroke:#000000;stroke-width:1.0;"/><text fill="#000000" font-family="sans-serif" font-size="13" lengthAdjust="spacing" textLength="23" x="1071.5" y="250.6328">has</text><text fill="#000000" font-family="sans-serif" font-size="13" lengthAdjust="spacing" textLength="8" x="1358.1185" y="276.8707">1</text><text fill="#000000" font-family="sans-serif" font-size="13" lengthAdjust="spacing" textLength="8" x="811.9208" y="259.5765">1</text><!--MD5=[1dfd2b8cef5257ed6efd914f274c3279]
link WaitingRoom to SNSUser--><path codeLine="65" d="M789.39,224.4659 C824.28,207.3059 874.46,182.6359 911,164.6759 " fill="none" id="WaitingRoom-SNSUser" style="stroke:#A80036;stroke-width:1.0;"/><polygon fill="#000000" points="834.513,175.3384,843.9268,173.985,841.3334,168.7102,834.513,175.3384" style="stroke:#000000;stroke-width:1.0;"/><text fill="#000000" font-family="sans-serif" font-size="13" lengthAdjust="spacing" textLength="32" x="848" y="177.6328">waits</text><text fill="#000000" font-family="sans-serif" font-size="13" lengthAdjust="spacing" textLength="8" x="792.5202" y="213.4448">1</text><text fill="#000000" font-family="sans-serif" font-size="13" lengthAdjust="spacing" textLength="7" x="896.1141" y="181.4533">*</text><!--MD5=[f78a9813840d149000a18b72ca69d94b]
link Appointment to Time--><path codeLine="67" d="M1258.24,145.6759 C1347.74,152.4659 1529.96,166.8459 1684,182.5659 C1704.75,184.6859 1728.08,187.4559 1746.12,189.6959 " fill="none" id="Appointment-Time" style="stroke:#A80036;stroke-width:1.0;"/><polygon fill="#000000" points="1401.9798,147.5816,1393.2354,143.8418,1392.7072,149.6959,1401.9798,147.5816" style="stroke:#000000;stroke-width:1.0;"/><text fill="#000000" font-family="sans-serif" font-size="13" lengthAdjust="spacing" textLength="96" x="1406" y="151.6328">is scheduled at</text><text fill="#000000" font-family="sans-serif" font-size="13" lengthAdjust="spacing" textLength="8" x="1265.9583" y="159.2514">1</text><text fill="#000000" font-family="sans-serif" font-size="13" lengthAdjust="spacing" textLength="8" x="1730.3806" y="184.3329">1</text><!--MD5=[e67749f86d2edce8d072e016ba76df74]
link VaccinationCenter to Time--><path codeLine="69" d="M1521.11,272.0759 C1568.6,273.3959 1631.35,270.7359 1684,253.5659 C1706.75,246.1459 1729.33,231.6659 1746.49,218.7959 " fill="none" id="VaccinationCenter-Time" style="stroke:#A80036;stroke-width:1.0;"/><polygon fill="#000000" points="1564.3659,243.982,1554.8873,243.2028,1556.2395,248.923,1564.3659,243.982" style="stroke:#000000;stroke-width:1.0;"/><text fill="#000000" font-family="sans-serif" font-size="13" lengthAdjust="spacing" textLength="111" x="1568.5" y="249.6328">has closing hours</text><text fill="#000000" font-family="sans-serif" font-size="13" lengthAdjust="spacing" textLength="8" x="1529.1135" y="285.5002">1</text><text fill="#000000" font-family="sans-serif" font-size="13" lengthAdjust="spacing" textLength="8" x="1730.3939" y="238.4921">1</text><!--MD5=[e67749f86d2edce8d072e016ba76df74]
link VaccinationCenter to Time--><path codeLine="70" d="M1521.18,240.9859 C1531.13,237.9159 1541.27,235.0059 1551,232.5659 C1619.98,215.2659 1702.74,203.0859 1746.29,197.3359 " fill="none" id="VaccinationCenter-Time-1" style="stroke:#A80036;stroke-width:1.0;"/><polygon fill="#000000" points="1560.9086,198.1805,1551.4694,197.0172,1552.5883,202.7875,1560.9086,198.1805" style="stroke:#000000;stroke-width:1.0;"/><text fill="#000000" font-family="sans-serif" font-size="13" lengthAdjust="spacing" textLength="118" x="1565" y="203.6328">has opening hours</text><text fill="#000000" font-family="sans-serif" font-size="13" lengthAdjust="spacing" textLength="8" x="1529.1908" y="251.204">1</text><text fill="#000000" font-family="sans-serif" font-size="13" lengthAdjust="spacing" textLength="8" x="1730.5878" y="211.9254">1</text><!--MD5=[b649bef0048cf03271726558ee7073ed]
link VaccinationCenter to Slot--><path codeLine="71" d="M1521.24,301.9959 C1531.05,305.5159 1541.14,308.5359 1551,310.5659 C1605.07,321.6859 1667.99,319.6459 1713.6,315.5659 " fill="none" id="VaccinationCenter-Slot" style="stroke:#A80036;stroke-width:1.0;"/><polygon fill="#000000" points="1608.4876,302.4842,1599.6718,298.916,1599.2581,304.7793,1608.4876,302.4842" style="stroke:#000000;stroke-width:1.0;"/><text fill="#000000" font-family="sans-serif" font-size="13" lengthAdjust="spacing" textLength="23" x="1612.5" y="306.6328">has</text><text fill="#000000" font-family="sans-serif" font-size="13" lengthAdjust="spacing" textLength="8" x="1528.8925" y="318.3037">1</text><text fill="#000000" font-family="sans-serif" font-size="13" lengthAdjust="spacing" textLength="8" x="1698.1734" y="329.3568">1</text><!--MD5=[aa988044c6ccb0a3eab3a4065e30c3e5]
link Nurse to WaitingRoom--><path codeLine="73" d="M520.66,208.0159 C563.72,214.9859 638.91,227.1559 690.62,235.5259 " fill="none" id="Nurse-WaitingRoom" style="stroke:#A80036;stroke-width:1.0;"/><polygon fill="#000000" points="580.9358,209.9312,572.4765,205.5848,571.5373,211.3872,580.9358,209.9312" style="stroke:#000000;stroke-width:1.0;"/><text fill="#000000" font-family="sans-serif" font-size="13" lengthAdjust="spacing" textLength="75" x="585" y="213.6328">consults list</text><text fill="#000000" font-family="sans-serif" font-size="13" lengthAdjust="spacing" textLength="8" x="528.6336" y="222.7674">1</text><text fill="#000000" font-family="sans-serif" font-size="13" lengthAdjust="spacing" textLength="7" x="675.8838" y="247.404">*</text><!--MD5=[120e6d7c8a557e6251338e72fb523695]
link Receptionist to WaitingRoom--><path codeLine="74" d="M541.08,279.4559 C575.62,279.7359 621.23,278.3959 661,271.5659 C670.82,269.8759 681.07,267.3459 690.93,264.4959 " fill="none" id="Receptionist-WaitingRoom" style="stroke:#A80036;stroke-width:1.0;"/><polygon fill="#000000" points="590.9753,262.6356,581.683,260.6098,582.2669,266.4585,590.9753,262.6356" style="stroke:#000000;stroke-width:1.0;"/><text fill="#000000" font-family="sans-serif" font-size="13" lengthAdjust="spacing" textLength="55" x="595" y="267.6328">sends to</text><text fill="#000000" font-family="sans-serif" font-size="13" lengthAdjust="spacing" textLength="8" x="549.0189" y="292.7935">1</text><text fill="#000000" font-family="sans-serif" font-size="13" lengthAdjust="spacing" textLength="7" x="675.8581" y="280.2576">*</text><!--MD5=[eebe9b198877275d05dd12630ed9e401]
link Company to VaccinationCenter--><path codeLine="76" d="M67.79,222.8359 C100.28,263.3659 180.61,350.5659 270.5,350.5659 C270.5,350.5659 270.5,350.5659 1203,350.5659 C1262.81,350.5659 1326.59,327.6359 1373.87,305.7359 " fill="none" id="Company-VaccinationCenter" style="stroke:#A80036;stroke-width:1.0;"/><polygon fill="#000000" points="730.49,342.449,721.6492,338.9431,721.2769,344.8091,730.49,342.449" style="stroke:#000000;stroke-width:1.0;"/><text fill="#000000" font-family="sans-serif" font-size="13" lengthAdjust="spacing" textLength="39" x="734.5" y="346.6328">knows</text><text fill="#000000" font-family="sans-serif" font-size="13" lengthAdjust="spacing" textLength="8" x="63.2466" y="242.7318">1</text><text fill="#000000" font-family="sans-serif" font-size="13" lengthAdjust="spacing" textLength="7" x="1358.916" y="322.6314">*</text><!--MD5=[1a8aa2b864b87f860d28abceaa28b7a5]
link Company to SNSUser--><path codeLine="77" d="M64.09,182.3759 C92.65,135.5659 171.33,23.5659 270.5,23.5659 C270.5,23.5659 270.5,23.5659 748.5,23.5659 C810.49,23.5659 871.06,63.2759 910.99,96.6159 " fill="none" id="Company-SNSUser" style="stroke:#A80036;stroke-width:1.0;"/><polygon fill="#000000" points="468.9746,14.6286,459.6794,12.6159,460.2716,18.4638,468.9746,14.6286" style="stroke:#000000;stroke-width:1.0;"/><text fill="#000000" font-family="sans-serif" font-size="13" lengthAdjust="spacing" textLength="39" x="473" y="19.6328">knows</text><text fill="#000000" font-family="sans-serif" font-size="13" lengthAdjust="spacing" textLength="8" x="58.6133" y="171.3284">1</text><text fill="#000000" font-family="sans-serif" font-size="13" lengthAdjust="spacing" textLength="7" x="896.1025" y="102.9716">*</text><!--MD5=[09366576ee87d48d594df10cacc83f45]
link Company to Employee--><path codeLine="78" d="M96.09,202.5659 C128.65,202.5659 173.55,202.5659 209.65,202.5659 " fill="none" id="Company-Employee" style="stroke:#A80036;stroke-width:1.0;"/><polygon fill="#000000" points="136,194.1323,126.9549,191.1934,126.9549,197.0713,136,194.1323" style="stroke:#000000;stroke-width:1.0;"/><text fill="#000000" font-family="sans-serif" font-size="13" lengthAdjust="spacing" textLength="39" x="140" y="198.6328">knows</text><text fill="#000000" font-family="sans-serif" font-size="13" lengthAdjust="spacing" textLength="8" x="104.1377" y="215.886">1</text><text fill="#000000" font-family="sans-serif" font-size="13" lengthAdjust="spacing" textLength="7" x="195.0939" y="215.5289">*</text><!--MD5=[3f8bc51bb69ce45c3e3ea0b764df71f1]
link SNSUser to Appointment--><path codeLine="80" d="M1007.04,141.5659 C1046.76,141.5659 1103.71,141.5659 1145.63,141.5659 " fill="none" id="SNSUser-Appointment" style="stroke:#A80036;stroke-width:1.0;"/><polygon fill="#000000" points="1047,133.1323,1037.9549,130.1934,1037.9549,136.0713,1047,133.1323" style="stroke:#000000;stroke-width:1.0;"/><text fill="#000000" font-family="sans-serif" font-size="13" lengthAdjust="spacing" textLength="64" x="1051" y="137.6328">schedules</text><text fill="#000000" font-family="sans-serif" font-size="13" lengthAdjust="spacing" textLength="8" x="1015.0086" y="154.8046">1</text><text fill="#000000" font-family="sans-serif" font-size="13" lengthAdjust="spacing" textLength="7" x="1130.9592" y="154.6148">*</text><!--MD5=[d139302f00cc62b984b6371d0fde1842]
link Appointment to VaccinationCenter--><path codeLine="81" d="M1254.64,168.0759 C1289.26,185.8459 1335.36,209.5159 1373.69,229.1859 " fill="none" id="Appointment-VaccinationCenter" style="stroke:#A80036;stroke-width:1.0;"/><polygon fill="#000000" points="1297.4482,179.4156,1290.7434,172.6705,1288.0592,177.8997,1297.4482,179.4156" style="stroke:#000000;stroke-width:1.0;"/><text fill="#000000" font-family="sans-serif" font-size="13" lengthAdjust="spacing" textLength="41" x="1302" y="181.6328">is held</text><text fill="#000000" font-family="sans-serif" font-size="13" lengthAdjust="spacing" textLength="7" x="1259.0036" y="188.0456">*</text><text fill="#000000" font-family="sans-serif" font-size="13" lengthAdjust="spacing" textLength="8" x="1358.0306" y="238.3265">1</text><!--MD5=[78cf647a49269eeff23fd9e027f94748]
@startuml
hide methods
left to right direction
skinparam classAttributeIconSize 0

class Employee {
  -id
  -name
  -email
  -phone
  -address
  -citizenCardNumber
  -roleId
}

class Role {
  -designation
}

class Nurse {}

class Receptionist {}

class VaccinationCenter {
  - name
  - address
  - emailAddress
  - phoneNumber
  - faxNumber
  - websiteAddress
}

class WaitingRoom {}

class SNSUser {
  - citizenCard
  - snsNumber
  - birthDay
  - gender
  - phoneNumber
  - address
}

class Company {}

class Appointment {
  -date
}

class Time {
  -hours
  -minutes
}

class Slot {
  -duration
  -nOfVaccinesPerSlot
}

Employee <|- - Nurse
Employee <|- - Receptionist

Employee "*" - - "1" Role : has >

VaccinationCenter "1" - - "1" WaitingRoom : has >
WaitingRoom "1" - - "*" SNSUser : waits <

Appointment "1" - - "1" Time : is scheduled at >

VaccinationCenter "1" - - "1" Time : has closing hours >
VaccinationCenter "1" - - "1" Time : has opening hours >
VaccinationCenter "1" - - "1" Slot : has >

Nurse "1" - - "*" WaitingRoom : consults list >
Receptionist "1" - - "*" WaitingRoom : sends to >

Company "1" - - "*" VaccinationCenter : knows > 
Company "1" - - "*" SNSUser : knows > 
Company "1" - - "*" Employee : knows > 

SNSUser "1" - - "*" Appointment : schedules >
Appointment "*" - - "1" VaccinationCenter : is held >

@enduml

PlantUML version 1.2022.0(Tue Jan 11 16:16:42 WET 2022)
(GPL source distribution)
Java Runtime: OpenJDK Runtime Environment
JVM: OpenJDK 64-Bit Server VM
Default Encoding: UTF-8
Language: en
Country: US
--></g></svg>