<?xml version="1.0" encoding="UTF-8" standalone="no"?><svg xmlns="http://www.w3.org/2000/svg" xmlns:xlink="http://www.w3.org/1999/xlink" contentScriptType="application/ecmascript" contentStyleType="text/css" height="624px" preserveAspectRatio="none" style="width:531px;height:624px;background:#FFFFFF;" version="1.1" viewBox="0 0 531 624" width="531px" zoomAndPan="magnify"><defs><filter height="300%" id="fivzc0ege8oye" width="300%" x="-1" y="-1"><feGaussianBlur result="blurOut" stdDeviation="2.0"/><feColorMatrix in="blurOut" result="blurOut2" type="matrix" values="0 0 0 0 0 0 0 0 0 0 0 0 0 0 0 0 0 0 .4 0"/><feOffset dx="4.0" dy="4.0" in="blurOut2" result="blurOut3"/><feBlend in="SourceGraphic" in2="blurOut3" mode="normal"/></filter></defs><g><rect fill="#FFFFFF" filter="url(#fivzc0ege8oye)" height="420.9219" style="stroke:#A80036;stroke-width:1.0;" width="10" x="57" y="99.6094"/><rect fill="#FFFFFF" filter="url(#fivzc0ege8oye)" height="30.3516" style="stroke:#A80036;stroke-width:1.0;" width="10" x="468" y="121.9609"/><rect fill="#FFFFFF" filter="url(#fivzc0ege8oye)" height="30.3516" style="stroke:#A80036;stroke-width:1.0;" width="10" x="468" y="182.6641"/><rect fill="#FFFFFF" filter="url(#fivzc0ege8oye)" height="55.7031" style="stroke:#A80036;stroke-width:1.0;" width="10" x="468" y="243.3672"/><rect fill="#FFFFFF" filter="url(#fivzc0ege8oye)" height="62.7031" style="stroke:#A80036;stroke-width:1.0;" width="10" x="468" y="329.4219"/><rect fill="#FFFFFF" filter="url(#fivzc0ege8oye)" height="30.3516" style="stroke:#A80036;stroke-width:1.0;" width="10" x="468" y="422.4766"/><rect fill="#FFFFFF" filter="url(#fivzc0ege8oye)" height="37.3516" style="stroke:#A80036;stroke-width:1.0;" width="10" x="468" y="483.1797"/><rect fill="#FFFFFF" filter="url(#fivzc0ege8oye)" height="79.0547" style="stroke:#000000;stroke-width:2.0;" width="507" x="10" y="258.3672"/><rect fill="#FFFFFF" filter="url(#fivzc0ege8oye)" height="139.7578" style="stroke:#000000;stroke-width:2.0;" width="507" x="10" y="351.4219"/><line style="stroke:#A80036;stroke-width:1.0;stroke-dasharray:5.0,5.0;" x1="62" x2="62" y1="89.6094" y2="538.5313"/><line style="stroke:#A80036;stroke-width:1.0;stroke-dasharray:5.0,5.0;" x1="473" x2="473" y1="89.6094" y2="538.5313"/><text fill="#000000" font-family="sans-serif" font-size="14" lengthAdjust="spacing" textLength="78" x="20" y="86.5332">Receptionist</text><ellipse cx="62" cy="15" fill="#FEFECE" filter="url(#fivzc0ege8oye)" rx="8" ry="8" style="stroke:#A80036;stroke-width:2.0;"/><path d="M62,23 L62,50 M49,31 L75,31 M62,50 L49,65 M62,50 L75,65 " fill="none" filter="url(#fivzc0ege8oye)" style="stroke:#A80036;stroke-width:2.0;"/><text fill="#000000" font-family="sans-serif" font-size="14" lengthAdjust="spacing" textLength="78" x="20" y="552.0645">Receptionist</text><ellipse cx="62" cy="565.1406" fill="#FEFECE" filter="url(#fivzc0ege8oye)" rx="8" ry="8" style="stroke:#A80036;stroke-width:2.0;"/><path d="M62,573.1406 L62,600.1406 M49,581.1406 L75,581.1406 M62,600.1406 L49,615.1406 M62,600.1406 L75,615.1406 " fill="none" filter="url(#fivzc0ege8oye)" style="stroke:#A80036;stroke-width:2.0;"/><rect fill="#FEFECE" filter="url(#fivzc0ege8oye)" height="31.6094" style="stroke:#A80036;stroke-width:1.5;" width="64" x="439" y="53"/><text fill="#000000" font-family="sans-serif" font-size="14" lengthAdjust="spacing" textLength="50" x="446" y="74.5332">:System</text><rect fill="#FEFECE" filter="url(#fivzc0ege8oye)" height="31.6094" style="stroke:#A80036;stroke-width:1.5;" width="64" x="439" y="537.5313"/><text fill="#000000" font-family="sans-serif" font-size="14" lengthAdjust="spacing" textLength="50" x="446" y="559.0645">:System</text><rect fill="#FFFFFF" filter="url(#fivzc0ege8oye)" height="420.9219" style="stroke:#A80036;stroke-width:1.0;" width="10" x="57" y="99.6094"/><rect fill="#FFFFFF" filter="url(#fivzc0ege8oye)" height="30.3516" style="stroke:#A80036;stroke-width:1.0;" width="10" x="468" y="121.9609"/><rect fill="#FFFFFF" filter="url(#fivzc0ege8oye)" height="30.3516" style="stroke:#A80036;stroke-width:1.0;" width="10" x="468" y="182.6641"/><rect fill="#FFFFFF" filter="url(#fivzc0ege8oye)" height="55.7031" style="stroke:#A80036;stroke-width:1.0;" width="10" x="468" y="243.3672"/><rect fill="#FFFFFF" filter="url(#fivzc0ege8oye)" height="62.7031" style="stroke:#A80036;stroke-width:1.0;" width="10" x="468" y="329.4219"/><rect fill="#FFFFFF" filter="url(#fivzc0ege8oye)" height="30.3516" style="stroke:#A80036;stroke-width:1.0;" width="10" x="468" y="422.4766"/><rect fill="#FFFFFF" filter="url(#fivzc0ege8oye)" height="37.3516" style="stroke:#A80036;stroke-width:1.0;" width="10" x="468" y="483.1797"/><polygon fill="#A80036" points="456,117.9609,466,121.9609,456,125.9609,460,121.9609" style="stroke:#A80036;stroke-width:1.0;"/><line style="stroke:#A80036;stroke-width:1.0;" x1="67" x2="462" y1="121.9609" y2="121.9609"/><text fill="#000000" font-family="sans-serif" font-size="13" font-weight="bold" lengthAdjust="spacing" textLength="7" x="74" y="117.1045">1</text><text fill="#000000" font-family="sans-serif" font-size="13" lengthAdjust="spacing" textLength="178" x="85" y="117.1045">asks to schedule a vaccination</text><polygon fill="#A80036" points="78,148.3125,68,152.3125,78,156.3125,74,152.3125" style="stroke:#A80036;stroke-width:1.0;"/><line style="stroke:#A80036;stroke-width:1.0;stroke-dasharray:2.0,2.0;" x1="72" x2="472" y1="152.3125" y2="152.3125"/><text fill="#000000" font-family="sans-serif" font-size="13" font-weight="bold" lengthAdjust="spacing" textLength="7" x="84" y="147.4561">2</text><text fill="#000000" font-family="sans-serif" font-size="13" lengthAdjust="spacing" textLength="229" x="95" y="147.4561">requests data (SNSNumber, date, time)</text><polygon fill="#A80036" points="456,178.6641,466,182.6641,456,186.6641,460,182.6641" style="stroke:#A80036;stroke-width:1.0;"/><line style="stroke:#A80036;stroke-width:1.0;" x1="67" x2="462" y1="182.6641" y2="182.6641"/><text fill="#000000" font-family="sans-serif" font-size="13" font-weight="bold" lengthAdjust="spacing" textLength="7" x="74" y="177.8076">3</text><text fill="#000000" font-family="sans-serif" font-size="13" lengthAdjust="spacing" textLength="122" x="85" y="177.8076">types requested data</text><polygon fill="#A80036" points="78,209.0156,68,213.0156,78,217.0156,74,213.0156" style="stroke:#A80036;stroke-width:1.0;"/><line style="stroke:#A80036;stroke-width:1.0;stroke-dasharray:2.0,2.0;" x1="72" x2="472" y1="213.0156" y2="213.0156"/><text fill="#000000" font-family="sans-serif" font-size="13" font-weight="bold" lengthAdjust="spacing" textLength="7" x="84" y="208.1592">4</text><text fill="#000000" font-family="sans-serif" font-size="13" lengthAdjust="spacing" textLength="303" x="95" y="208.1592">shows suggested vaccine type and asks to accept it</text><polygon fill="#A80036" points="456,239.3672,466,243.3672,456,247.3672,460,243.3672" style="stroke:#A80036;stroke-width:1.0;"/><line style="stroke:#A80036;stroke-width:1.0;" x1="67" x2="462" y1="243.3672" y2="243.3672"/><text fill="#000000" font-family="sans-serif" font-size="13" font-weight="bold" lengthAdjust="spacing" textLength="7" x="74" y="238.5107">5</text><text fill="#000000" font-family="sans-serif" font-size="13" lengthAdjust="spacing" textLength="208" x="85" y="238.5107">accepts the suggested vaccine type</text><path d="M10,258.3672 L75,258.3672 L75,266.3672 L65,276.3672 L10,276.3672 L10,258.3672 " fill="#EEEEEE" style="stroke:#000000;stroke-width:1.0;"/><rect fill="none" height="79.0547" style="stroke:#000000;stroke-width:2.0;" width="507" x="10" y="258.3672"/><text fill="#000000" font-family="sans-serif" font-size="13" font-weight="bold" lengthAdjust="spacing" textLength="20" x="25" y="272.8623">opt</text><text fill="#000000" font-family="sans-serif" font-size="11" font-weight="bold" lengthAdjust="spacing" textLength="96" x="90" y="271.7861">[does not accept]</text><polygon fill="#A80036" points="78,295.0703,68,299.0703,78,303.0703,74,299.0703" style="stroke:#A80036;stroke-width:1.0;"/><line style="stroke:#A80036;stroke-width:1.0;stroke-dasharray:2.0,2.0;" x1="72" x2="472" y1="299.0703" y2="299.0703"/><text fill="#000000" font-family="sans-serif" font-size="13" font-weight="bold" lengthAdjust="spacing" textLength="7" x="84" y="294.2139">6</text><text fill="#000000" font-family="sans-serif" font-size="13" lengthAdjust="spacing" textLength="273" x="95" y="294.2139">shows all vaccine types and asks to select one</text><polygon fill="#A80036" points="456,325.4219,466,329.4219,456,333.4219,460,329.4219" style="stroke:#A80036;stroke-width:1.0;"/><line style="stroke:#A80036;stroke-width:1.0;" x1="67" x2="462" y1="329.4219" y2="329.4219"/><text fill="#000000" font-family="sans-serif" font-size="13" font-weight="bold" lengthAdjust="spacing" textLength="7" x="74" y="324.5654">7</text><text fill="#000000" font-family="sans-serif" font-size="13" lengthAdjust="spacing" textLength="129" x="85" y="324.5654">selects a vaccine type</text><path d="M10,351.4219 L75,351.4219 L75,359.4219 L65,369.4219 L10,369.4219 L10,351.4219 " fill="#EEEEEE" style="stroke:#000000;stroke-width:1.0;"/><rect fill="none" height="139.7578" style="stroke:#000000;stroke-width:2.0;" width="507" x="10" y="351.4219"/><text fill="#000000" font-family="sans-serif" font-size="13" font-weight="bold" lengthAdjust="spacing" textLength="20" x="25" y="365.917">opt</text><text fill="#000000" font-family="sans-serif" font-size="11" font-weight="bold" lengthAdjust="spacing" textLength="130" x="90" y="364.8408">[vaccination scheduled]</text><polygon fill="#A80036" points="78,388.125,68,392.125,78,396.125,74,392.125" style="stroke:#A80036;stroke-width:1.0;"/><line style="stroke:#A80036;stroke-width:1.0;stroke-dasharray:2.0,2.0;" x1="72" x2="472" y1="392.125" y2="392.125"/><text fill="#000000" font-family="sans-serif" font-size="13" font-weight="bold" lengthAdjust="spacing" textLength="7" x="84" y="387.2686">8</text><text fill="#000000" font-family="sans-serif" font-size="13" lengthAdjust="spacing" textLength="366" x="95" y="387.2686">asks to send sms with information about the scheduled vaccine</text><polygon fill="#A80036" points="456,418.4766,466,422.4766,456,426.4766,460,422.4766" style="stroke:#A80036;stroke-width:1.0;"/><line style="stroke:#A80036;stroke-width:1.0;" x1="67" x2="462" y1="422.4766" y2="422.4766"/><text fill="#000000" font-family="sans-serif" font-size="13" font-weight="bold" lengthAdjust="spacing" textLength="7" x="74" y="417.6201">9</text><text fill="#000000" font-family="sans-serif" font-size="13" lengthAdjust="spacing" textLength="213" x="85" y="417.6201">accepts or declines the sendind sms</text><polygon fill="#A80036" points="78,448.8281,68,452.8281,78,456.8281,74,452.8281" style="stroke:#A80036;stroke-width:1.0;"/><line style="stroke:#A80036;stroke-width:1.0;stroke-dasharray:2.0,2.0;" x1="72" x2="472" y1="452.8281" y2="452.8281"/><text fill="#000000" font-family="sans-serif" font-size="13" font-weight="bold" lengthAdjust="spacing" textLength="14" x="84" y="447.9717">10</text><text fill="#000000" font-family="sans-serif" font-size="13" lengthAdjust="spacing" textLength="236" x="102" y="447.9717">shows all data and requests confirmation</text><polygon fill="#A80036" points="456,479.1797,466,483.1797,456,487.1797,460,483.1797" style="stroke:#A80036;stroke-width:1.0;"/><line style="stroke:#A80036;stroke-width:1.0;" x1="67" x2="462" y1="483.1797" y2="483.1797"/><text fill="#000000" font-family="sans-serif" font-size="13" font-weight="bold" lengthAdjust="spacing" textLength="14" x="74" y="478.3232">11</text><text fill="#000000" font-family="sans-serif" font-size="13" lengthAdjust="spacing" textLength="100" x="92" y="478.3232">confirms the data</text><polygon fill="#A80036" points="73,516.5313,63,520.5313,73,524.5313,69,520.5313" style="stroke:#A80036;stroke-width:1.0;"/><line style="stroke:#A80036;stroke-width:1.0;stroke-dasharray:2.0,2.0;" x1="67" x2="472" y1="520.5313" y2="520.5313"/><text fill="#000000" font-family="sans-serif" font-size="13" font-weight="bold" lengthAdjust="spacing" textLength="14" x="79" y="515.6748">12</text><text fill="#000000" font-family="sans-serif" font-size="13" lengthAdjust="spacing" textLength="152" x="97" y="515.6748">informs operation success</text><!--MD5=[b235d47edc8361070afbbcb3c7e9674f]
@startuml US02_SSD
autonumber
actor "Receptionist" as Recept

activate Recept
Recept -> ":System" : asks to schedule a vaccination
activate ":System"
":System" - -> Recept : requests data (SNSNumber, date, time)
deactivate ":System"
Recept -> ":System" : types requested data
activate ":System"

":System" - -> Recept : shows suggested vaccine type and asks to accept it
deactivate ":System"
Recept -> ":System" : accepts the suggested vaccine type
activate ":System"

opt does not accept
":System" - -> Recept : shows all vaccine types and asks to select one
deactivate ":System"
Recept -> ":System" : selects a vaccine type
activate ":System"
end

opt vaccination scheduled
":System" - -> Recept : asks to send sms with information about the scheduled vaccine 
deactivate ":System"
Recept -> ":System" : accepts or declines the sendind sms
activate ":System"

":System" - -> Recept : shows all data and requests confirmation
deactivate ":System"
Recept -> ":System" : confirms the data
activate ":System"
end
":System" - -> Recept : informs operation success
deactivate ":System"

deactivate Recept

@enduml

PlantUML version 1.2022.0(Tue Jan 11 16:16:42 WET 2022)
(GPL source distribution)
Java Runtime: Java(TM) SE Runtime Environment
JVM: Java HotSpot(TM) 64-Bit Server VM
Default Encoding: Cp1252
Language: pt
Country: PT
--></g></svg>