<?xml version="1.0" encoding="UTF-8" standalone="no"?><svg xmlns="http://www.w3.org/2000/svg" xmlns:xlink="http://www.w3.org/1999/xlink" contentScriptType="application/ecmascript" contentStyleType="text/css" height="652px" preserveAspectRatio="none" style="width:569px;height:652px;background:#FFFFFF;" version="1.1" viewBox="0 0 569 652" width="569px" zoomAndPan="magnify"><defs><filter height="300%" id="f1rh53lj2r1smt" width="300%" x="-1" y="-1"><feGaussianBlur result="blurOut" stdDeviation="2.0"/><feColorMatrix in="blurOut" result="blurOut2" type="matrix" values="0 0 0 0 0 0 0 0 0 0 0 0 0 0 0 0 0 0 .4 0"/><feOffset dx="4.0" dy="4.0" in="blurOut2" result="blurOut3"/><feBlend in="SourceGraphic" in2="blurOut3" mode="normal"/></filter></defs><g><rect fill="#FFFFFF" filter="url(#f1rh53lj2r1smt)" height="449.2734" style="stroke:#A80036;stroke-width:1.0;" width="10" x="57" y="99.6094"/><rect fill="#FFFFFF" filter="url(#f1rh53lj2r1smt)" height="30.3516" style="stroke:#A80036;stroke-width:1.0;" width="10" x="506" y="121.9609"/><rect fill="#FFFFFF" filter="url(#f1rh53lj2r1smt)" height="30.3516" style="stroke:#A80036;stroke-width:1.0;" width="10" x="506" y="182.6641"/><rect fill="#FFFFFF" filter="url(#f1rh53lj2r1smt)" height="55.7031" style="stroke:#A80036;stroke-width:1.0;" width="10" x="506" y="243.3672"/><rect fill="#FFFFFF" filter="url(#f1rh53lj2r1smt)" height="37.3516" style="stroke:#A80036;stroke-width:1.0;" width="10" x="506" y="329.4219"/><rect fill="#FFFFFF" filter="url(#f1rh53lj2r1smt)" height="30.3516" style="stroke:#A80036;stroke-width:1.0;" width="10" x="506" y="397.125"/><rect fill="#FFFFFF" filter="url(#f1rh53lj2r1smt)" height="30.3516" style="stroke:#A80036;stroke-width:1.0;" width="10" x="506" y="457.8281"/><rect fill="#FFFFFF" filter="url(#f1rh53lj2r1smt)" height="30.3516" style="stroke:#A80036;stroke-width:1.0;" width="10" x="506" y="518.5313"/><rect fill="#FFFFFF" filter="url(#f1rh53lj2r1smt)" height="79.0547" style="stroke:#000000;stroke-width:2.0;" width="545" x="10" y="258.3672"/><line style="stroke:#A80036;stroke-width:1.0;stroke-dasharray:5.0,5.0;" x1="62" x2="62" y1="89.6094" y2="566.8828"/><line style="stroke:#A80036;stroke-width:1.0;stroke-dasharray:5.0,5.0;" x1="511" x2="511" y1="89.6094" y2="566.8828"/><text fill="#000000" font-family="sans-serif" font-size="14" lengthAdjust="spacing" textLength="78" x="20" y="86.5332">Receptionist</text><ellipse cx="62" cy="15" fill="#FEFECE" filter="url(#f1rh53lj2r1smt)" rx="8" ry="8" style="stroke:#A80036;stroke-width:2.0;"/><path d="M62,23 L62,50 M49,31 L75,31 M62,50 L49,65 M62,50 L75,65 " fill="none" filter="url(#f1rh53lj2r1smt)" style="stroke:#A80036;stroke-width:2.0;"/><text fill="#000000" font-family="sans-serif" font-size="14" lengthAdjust="spacing" textLength="78" x="20" y="580.416">Receptionist</text><ellipse cx="62" cy="593.4922" fill="#FEFECE" filter="url(#f1rh53lj2r1smt)" rx="8" ry="8" style="stroke:#A80036;stroke-width:2.0;"/><path d="M62,601.4922 L62,628.4922 M49,609.4922 L75,609.4922 M62,628.4922 L49,643.4922 M62,628.4922 L75,643.4922 " fill="none" filter="url(#f1rh53lj2r1smt)" style="stroke:#A80036;stroke-width:2.0;"/><rect fill="#FEFECE" filter="url(#f1rh53lj2r1smt)" height="31.6094" style="stroke:#A80036;stroke-width:1.5;" width="64" x="477" y="53"/><text fill="#000000" font-family="sans-serif" font-size="14" lengthAdjust="spacing" textLength="50" x="484" y="74.5332">:System</text><rect fill="#FEFECE" filter="url(#f1rh53lj2r1smt)" height="31.6094" style="stroke:#A80036;stroke-width:1.5;" width="64" x="477" y="565.8828"/><text fill="#000000" font-family="sans-serif" font-size="14" lengthAdjust="spacing" textLength="50" x="484" y="587.416">:System</text><rect fill="#FFFFFF" filter="url(#f1rh53lj2r1smt)" height="449.2734" style="stroke:#A80036;stroke-width:1.0;" width="10" x="57" y="99.6094"/><rect fill="#FFFFFF" filter="url(#f1rh53lj2r1smt)" height="30.3516" style="stroke:#A80036;stroke-width:1.0;" width="10" x="506" y="121.9609"/><rect fill="#FFFFFF" filter="url(#f1rh53lj2r1smt)" height="30.3516" style="stroke:#A80036;stroke-width:1.0;" width="10" x="506" y="182.6641"/><rect fill="#FFFFFF" filter="url(#f1rh53lj2r1smt)" height="55.7031" style="stroke:#A80036;stroke-width:1.0;" width="10" x="506" y="243.3672"/><rect fill="#FFFFFF" filter="url(#f1rh53lj2r1smt)" height="37.3516" style="stroke:#A80036;stroke-width:1.0;" width="10" x="506" y="329.4219"/><rect fill="#FFFFFF" filter="url(#f1rh53lj2r1smt)" height="30.3516" style="stroke:#A80036;stroke-width:1.0;" width="10" x="506" y="397.125"/><rect fill="#FFFFFF" filter="url(#f1rh53lj2r1smt)" height="30.3516" style="stroke:#A80036;stroke-width:1.0;" width="10" x="506" y="457.8281"/><rect fill="#FFFFFF" filter="url(#f1rh53lj2r1smt)" height="30.3516" style="stroke:#A80036;stroke-width:1.0;" width="10" x="506" y="518.5313"/><polygon fill="#A80036" points="494,117.9609,504,121.9609,494,125.9609,498,121.9609" style="stroke:#A80036;stroke-width:1.0;"/><line style="stroke:#A80036;stroke-width:1.0;" x1="67" x2="500" y1="121.9609" y2="121.9609"/><text fill="#000000" font-family="sans-serif" font-size="13" font-weight="bold" lengthAdjust="spacing" textLength="7" x="74" y="117.1045">1</text><text fill="#000000" font-family="sans-serif" font-size="13" lengthAdjust="spacing" textLength="178" x="85" y="117.1045">asks to schedule a vaccination</text><polygon fill="#A80036" points="78,148.3125,68,152.3125,78,156.3125,74,152.3125" style="stroke:#A80036;stroke-width:1.0;"/><line style="stroke:#A80036;stroke-width:1.0;stroke-dasharray:2.0,2.0;" x1="72" x2="510" y1="152.3125" y2="152.3125"/><text fill="#000000" font-family="sans-serif" font-size="13" font-weight="bold" lengthAdjust="spacing" textLength="7" x="84" y="147.4561">2</text><text fill="#000000" font-family="sans-serif" font-size="13" lengthAdjust="spacing" textLength="229" x="95" y="147.4561">requests data (SNSNumber, date, time)</text><polygon fill="#A80036" points="494,178.6641,504,182.6641,494,186.6641,498,182.6641" style="stroke:#A80036;stroke-width:1.0;"/><line style="stroke:#A80036;stroke-width:1.0;" x1="67" x2="500" y1="182.6641" y2="182.6641"/><text fill="#000000" font-family="sans-serif" font-size="13" font-weight="bold" lengthAdjust="spacing" textLength="7" x="74" y="177.8076">3</text><text fill="#000000" font-family="sans-serif" font-size="13" lengthAdjust="spacing" textLength="122" x="85" y="177.8076">types requested data</text><polygon fill="#A80036" points="78,209.0156,68,213.0156,78,217.0156,74,213.0156" style="stroke:#A80036;stroke-width:1.0;"/><line style="stroke:#A80036;stroke-width:1.0;stroke-dasharray:2.0,2.0;" x1="72" x2="510" y1="213.0156" y2="213.0156"/><text fill="#000000" font-family="sans-serif" font-size="13" font-weight="bold" lengthAdjust="spacing" textLength="7" x="84" y="208.1592">4</text><text fill="#000000" font-family="sans-serif" font-size="13" lengthAdjust="spacing" textLength="303" x="95" y="208.1592">shows suggested vaccine type and asks to accept it</text><polygon fill="#A80036" points="494,239.3672,504,243.3672,494,247.3672,498,243.3672" style="stroke:#A80036;stroke-width:1.0;"/><line style="stroke:#A80036;stroke-width:1.0;" x1="67" x2="500" y1="243.3672" y2="243.3672"/><text fill="#000000" font-family="sans-serif" font-size="13" font-weight="bold" lengthAdjust="spacing" textLength="7" x="74" y="238.5107">5</text><text fill="#000000" font-family="sans-serif" font-size="13" lengthAdjust="spacing" textLength="275" x="85" y="238.5107">accepts or declines the suggested vaccine type</text><path d="M10,258.3672 L75,258.3672 L75,266.3672 L65,276.3672 L10,276.3672 L10,258.3672 " fill="#EEEEEE" style="stroke:#000000;stroke-width:1.0;"/><rect fill="none" height="79.0547" style="stroke:#000000;stroke-width:2.0;" width="545" x="10" y="258.3672"/><text fill="#000000" font-family="sans-serif" font-size="13" font-weight="bold" lengthAdjust="spacing" textLength="20" x="25" y="272.8623">opt</text><text fill="#000000" font-family="sans-serif" font-size="11" font-weight="bold" lengthAdjust="spacing" textLength="210" x="90" y="271.7861">[declines the suggested vaccine type]</text><polygon fill="#A80036" points="78,295.0703,68,299.0703,78,303.0703,74,299.0703" style="stroke:#A80036;stroke-width:1.0;"/><line style="stroke:#A80036;stroke-width:1.0;stroke-dasharray:2.0,2.0;" x1="72" x2="510" y1="299.0703" y2="299.0703"/><text fill="#000000" font-family="sans-serif" font-size="13" font-weight="bold" lengthAdjust="spacing" textLength="7" x="84" y="294.2139">6</text><text fill="#000000" font-family="sans-serif" font-size="13" lengthAdjust="spacing" textLength="273" x="95" y="294.2139">shows all vaccine types and asks to select one</text><polygon fill="#A80036" points="494,325.4219,504,329.4219,494,333.4219,498,329.4219" style="stroke:#A80036;stroke-width:1.0;"/><line style="stroke:#A80036;stroke-width:1.0;" x1="67" x2="500" y1="329.4219" y2="329.4219"/><text fill="#000000" font-family="sans-serif" font-size="13" font-weight="bold" lengthAdjust="spacing" textLength="7" x="74" y="324.5654">7</text><text fill="#000000" font-family="sans-serif" font-size="13" lengthAdjust="spacing" textLength="129" x="85" y="324.5654">selects a vaccine type</text><polygon fill="#A80036" points="78,362.7734,68,366.7734,78,370.7734,74,366.7734" style="stroke:#A80036;stroke-width:1.0;"/><line style="stroke:#A80036;stroke-width:1.0;stroke-dasharray:2.0,2.0;" x1="72" x2="510" y1="366.7734" y2="366.7734"/><text fill="#000000" font-family="sans-serif" font-size="13" font-weight="bold" lengthAdjust="spacing" textLength="7" x="84" y="361.917">8</text><text fill="#000000" font-family="sans-serif" font-size="13" lengthAdjust="spacing" textLength="404" x="95" y="361.917">shows a list of all available vaccination centers and asks to select one</text><polygon fill="#A80036" points="494,393.125,504,397.125,494,401.125,498,397.125" style="stroke:#A80036;stroke-width:1.0;"/><line style="stroke:#A80036;stroke-width:1.0;" x1="67" x2="500" y1="397.125" y2="397.125"/><text fill="#000000" font-family="sans-serif" font-size="13" font-weight="bold" lengthAdjust="spacing" textLength="7" x="74" y="392.2686">9</text><text fill="#000000" font-family="sans-serif" font-size="13" lengthAdjust="spacing" textLength="161" x="85" y="392.2686">selects a vaccination center</text><polygon fill="#A80036" points="78,423.4766,68,427.4766,78,431.4766,74,427.4766" style="stroke:#A80036;stroke-width:1.0;"/><line style="stroke:#A80036;stroke-width:1.0;stroke-dasharray:2.0,2.0;" x1="72" x2="510" y1="427.4766" y2="427.4766"/><text fill="#000000" font-family="sans-serif" font-size="13" font-weight="bold" lengthAdjust="spacing" textLength="14" x="84" y="422.6201">10</text><text fill="#000000" font-family="sans-serif" font-size="13" lengthAdjust="spacing" textLength="332" x="102" y="422.6201">requests to send information about the scheduled vaccine</text><polygon fill="#A80036" points="494,453.8281,504,457.8281,494,461.8281,498,457.8281" style="stroke:#A80036;stroke-width:1.0;"/><line style="stroke:#A80036;stroke-width:1.0;" x1="67" x2="500" y1="457.8281" y2="457.8281"/><text fill="#000000" font-family="sans-serif" font-size="13" font-weight="bold" lengthAdjust="spacing" textLength="14" x="74" y="452.9717">11</text><text fill="#000000" font-family="sans-serif" font-size="13" lengthAdjust="spacing" textLength="182" x="92" y="452.9717">accepts or declines the request</text><polygon fill="#A80036" points="78,484.1797,68,488.1797,78,492.1797,74,488.1797" style="stroke:#A80036;stroke-width:1.0;"/><line style="stroke:#A80036;stroke-width:1.0;stroke-dasharray:2.0,2.0;" x1="72" x2="510" y1="488.1797" y2="488.1797"/><text fill="#000000" font-family="sans-serif" font-size="13" font-weight="bold" lengthAdjust="spacing" textLength="14" x="84" y="483.3232">12</text><text fill="#000000" font-family="sans-serif" font-size="13" lengthAdjust="spacing" textLength="236" x="102" y="483.3232">shows all data and requests confirmation</text><polygon fill="#A80036" points="494,514.5313,504,518.5313,494,522.5313,498,518.5313" style="stroke:#A80036;stroke-width:1.0;"/><line style="stroke:#A80036;stroke-width:1.0;" x1="67" x2="500" y1="518.5313" y2="518.5313"/><text fill="#000000" font-family="sans-serif" font-size="13" font-weight="bold" lengthAdjust="spacing" textLength="14" x="74" y="513.6748">13</text><text fill="#000000" font-family="sans-serif" font-size="13" lengthAdjust="spacing" textLength="100" x="92" y="513.6748">confirms the data</text><polygon fill="#A80036" points="73,544.8828,63,548.8828,73,552.8828,69,548.8828" style="stroke:#A80036;stroke-width:1.0;"/><line style="stroke:#A80036;stroke-width:1.0;stroke-dasharray:2.0,2.0;" x1="67" x2="510" y1="548.8828" y2="548.8828"/><text fill="#000000" font-family="sans-serif" font-size="13" font-weight="bold" lengthAdjust="spacing" textLength="14" x="79" y="544.0264">14</text><text fill="#000000" font-family="sans-serif" font-size="13" lengthAdjust="spacing" textLength="152" x="97" y="544.0264">informs operation success</text><!--MD5=[fd7a72a0836a81e901607be2e36507b0]
@startuml US02_SSD
autonumber
actor "Receptionist" as Recept

activate Recept
Recept -> ":System" : asks to schedule a vaccination
activate ":System"
":System" - -> Recept : requests data (SNSNumber, date, time)
deactivate ":System"
Recept -> ":System" : types requested data
activate ":System"

":System" - -> Recept : shows suggested vaccine type and asks to accept it
deactivate ":System"
Recept -> ":System" : accepts or declines the suggested vaccine type
activate ":System"

opt declines the suggested vaccine type
":System" - -> Recept : shows all vaccine types and asks to select one
deactivate ":System"
Recept -> ":System" : selects a vaccine type
activate ":System"
end

":System" - -> Recept: shows a list of all available vaccination centers and asks to select one
deactivate ":System"
Recept -> ":System" : selects a vaccination center
activate ":System"

":System" - -> Recept : requests to send information about the scheduled vaccine 
deactivate ":System"
Recept -> ":System" : accepts or declines the request
activate ":System"

":System" - -> Recept : shows all data and requests confirmation
deactivate ":System"
Recept -> ":System" : confirms the data
activate ":System"

":System" - -> Recept : informs operation success
deactivate ":System"

deactivate Recept

@enduml

PlantUML version 1.2022.0(Tue Jan 11 16:16:42 WET 2022)
(GPL source distribution)
Java Runtime: Java(TM) SE Runtime Environment
JVM: Java HotSpot(TM) 64-Bit Server VM
Default Encoding: Cp1252
Language: pt
Country: PT
--></g></svg>