<?xml version="1.0" encoding="UTF-8" standalone="no"?><svg xmlns="http://www.w3.org/2000/svg" xmlns:xlink="http://www.w3.org/1999/xlink" contentScriptType="application/ecmascript" contentStyleType="text/css" height="713px" preserveAspectRatio="none" style="width:698px;height:713px;background:#FFFFFF;" version="1.1" viewBox="0 0 698 713" width="698px" zoomAndPan="magnify"><defs><filter height="300%" id="faqtiex4yhwo2" width="300%" x="-1" y="-1"><feGaussianBlur result="blurOut" stdDeviation="2.0"/><feColorMatrix in="blurOut" result="blurOut2" type="matrix" values="0 0 0 0 0 0 0 0 0 0 0 0 0 0 0 0 0 0 .4 0"/><feOffset dx="4.0" dy="4.0" in="blurOut2" result="blurOut3"/><feBlend in="SourceGraphic" in2="blurOut3" mode="normal"/></filter></defs><g><rect fill="#FFFFFF" filter="url(#faqtiex4yhwo2)" height="509.9766" style="stroke:#A80036;stroke-width:1.0;" width="10" x="57" y="99.6094"/><rect fill="#FFFFFF" filter="url(#faqtiex4yhwo2)" height="30.3516" style="stroke:#A80036;stroke-width:1.0;" width="10" x="635" y="121.9609"/><rect fill="#FFFFFF" filter="url(#faqtiex4yhwo2)" height="30.3516" style="stroke:#A80036;stroke-width:1.0;" width="10" x="635" y="182.6641"/><rect fill="#FFFFFF" filter="url(#faqtiex4yhwo2)" height="55.7031" style="stroke:#A80036;stroke-width:1.0;" width="10" x="635" y="243.3672"/><rect fill="#FFFFFF" filter="url(#faqtiex4yhwo2)" height="37.3516" style="stroke:#A80036;stroke-width:1.0;" width="10" x="635" y="329.4219"/><rect fill="#FFFFFF" filter="url(#faqtiex4yhwo2)" height="30.3516" style="stroke:#A80036;stroke-width:1.0;" width="10" x="635" y="397.125"/><rect fill="#FFFFFF" filter="url(#faqtiex4yhwo2)" height="30.3516" style="stroke:#A80036;stroke-width:1.0;" width="10" x="635" y="457.8281"/><rect fill="#FFFFFF" filter="url(#faqtiex4yhwo2)" height="30.3516" style="stroke:#A80036;stroke-width:1.0;" width="10" x="635" y="518.5313"/><rect fill="#FFFFFF" filter="url(#faqtiex4yhwo2)" height="30.3516" style="stroke:#A80036;stroke-width:1.0;" width="10" x="635" y="579.2344"/><rect fill="#FFFFFF" filter="url(#faqtiex4yhwo2)" height="79.0547" style="stroke:#000000;stroke-width:2.0;" width="674" x="10" y="258.3672"/><line style="stroke:#A80036;stroke-width:1.0;stroke-dasharray:5.0,5.0;" x1="62" x2="62" y1="89.6094" y2="627.5859"/><line style="stroke:#A80036;stroke-width:1.0;stroke-dasharray:5.0,5.0;" x1="640" x2="640" y1="89.6094" y2="627.5859"/><text fill="#000000" font-family="sans-serif" font-size="14" lengthAdjust="spacing" textLength="78" x="20" y="86.5332">Receptionist</text><ellipse cx="62" cy="15" fill="#FEFECE" filter="url(#faqtiex4yhwo2)" rx="8" ry="8" style="stroke:#A80036;stroke-width:2.0;"/><path d="M62,23 L62,50 M49,31 L75,31 M62,50 L49,65 M62,50 L75,65 " fill="none" filter="url(#faqtiex4yhwo2)" style="stroke:#A80036;stroke-width:2.0;"/><text fill="#000000" font-family="sans-serif" font-size="14" lengthAdjust="spacing" textLength="78" x="20" y="641.1191">Receptionist</text><ellipse cx="62" cy="654.1953" fill="#FEFECE" filter="url(#faqtiex4yhwo2)" rx="8" ry="8" style="stroke:#A80036;stroke-width:2.0;"/><path d="M62,662.1953 L62,689.1953 M49,670.1953 L75,670.1953 M62,689.1953 L49,704.1953 M62,689.1953 L75,704.1953 " fill="none" filter="url(#faqtiex4yhwo2)" style="stroke:#A80036;stroke-width:2.0;"/><rect fill="#FEFECE" filter="url(#faqtiex4yhwo2)" height="31.6094" style="stroke:#A80036;stroke-width:1.5;" width="64" x="606" y="53"/><text fill="#000000" font-family="sans-serif" font-size="14" lengthAdjust="spacing" textLength="50" x="613" y="74.5332">:System</text><rect fill="#FEFECE" filter="url(#faqtiex4yhwo2)" height="31.6094" style="stroke:#A80036;stroke-width:1.5;" width="64" x="606" y="626.5859"/><text fill="#000000" font-family="sans-serif" font-size="14" lengthAdjust="spacing" textLength="50" x="613" y="648.1191">:System</text><rect fill="#FFFFFF" filter="url(#faqtiex4yhwo2)" height="509.9766" style="stroke:#A80036;stroke-width:1.0;" width="10" x="57" y="99.6094"/><rect fill="#FFFFFF" filter="url(#faqtiex4yhwo2)" height="30.3516" style="stroke:#A80036;stroke-width:1.0;" width="10" x="635" y="121.9609"/><rect fill="#FFFFFF" filter="url(#faqtiex4yhwo2)" height="30.3516" style="stroke:#A80036;stroke-width:1.0;" width="10" x="635" y="182.6641"/><rect fill="#FFFFFF" filter="url(#faqtiex4yhwo2)" height="55.7031" style="stroke:#A80036;stroke-width:1.0;" width="10" x="635" y="243.3672"/><rect fill="#FFFFFF" filter="url(#faqtiex4yhwo2)" height="37.3516" style="stroke:#A80036;stroke-width:1.0;" width="10" x="635" y="329.4219"/><rect fill="#FFFFFF" filter="url(#faqtiex4yhwo2)" height="30.3516" style="stroke:#A80036;stroke-width:1.0;" width="10" x="635" y="397.125"/><rect fill="#FFFFFF" filter="url(#faqtiex4yhwo2)" height="30.3516" style="stroke:#A80036;stroke-width:1.0;" width="10" x="635" y="457.8281"/><rect fill="#FFFFFF" filter="url(#faqtiex4yhwo2)" height="30.3516" style="stroke:#A80036;stroke-width:1.0;" width="10" x="635" y="518.5313"/><rect fill="#FFFFFF" filter="url(#faqtiex4yhwo2)" height="30.3516" style="stroke:#A80036;stroke-width:1.0;" width="10" x="635" y="579.2344"/><polygon fill="#A80036" points="623,117.9609,633,121.9609,623,125.9609,627,121.9609" style="stroke:#A80036;stroke-width:1.0;"/><line style="stroke:#A80036;stroke-width:1.0;" x1="67" x2="629" y1="121.9609" y2="121.9609"/><text fill="#000000" font-family="sans-serif" font-size="13" font-weight="bold" lengthAdjust="spacing" textLength="7" x="74" y="117.1045">1</text><text fill="#000000" font-family="sans-serif" font-size="13" lengthAdjust="spacing" textLength="178" x="85" y="117.1045">asks to schedule a vaccination</text><polygon fill="#A80036" points="78,148.3125,68,152.3125,78,156.3125,74,152.3125" style="stroke:#A80036;stroke-width:1.0;"/><line style="stroke:#A80036;stroke-width:1.0;stroke-dasharray:2.0,2.0;" x1="72" x2="639" y1="152.3125" y2="152.3125"/><text fill="#000000" font-family="sans-serif" font-size="13" font-weight="bold" lengthAdjust="spacing" textLength="7" x="84" y="147.4561">2</text><text fill="#000000" font-family="sans-serif" font-size="13" lengthAdjust="spacing" textLength="163" x="95" y="147.4561">requests data (SNSNumber)</text><polygon fill="#A80036" points="623,178.6641,633,182.6641,623,186.6641,627,182.6641" style="stroke:#A80036;stroke-width:1.0;"/><line style="stroke:#A80036;stroke-width:1.0;" x1="67" x2="629" y1="182.6641" y2="182.6641"/><text fill="#000000" font-family="sans-serif" font-size="13" font-weight="bold" lengthAdjust="spacing" textLength="7" x="74" y="177.8076">3</text><text fill="#000000" font-family="sans-serif" font-size="13" lengthAdjust="spacing" textLength="122" x="85" y="177.8076">types requested data</text><polygon fill="#A80036" points="78,209.0156,68,213.0156,78,217.0156,74,213.0156" style="stroke:#A80036;stroke-width:1.0;"/><line style="stroke:#A80036;stroke-width:1.0;stroke-dasharray:2.0,2.0;" x1="72" x2="639" y1="213.0156" y2="213.0156"/><text fill="#000000" font-family="sans-serif" font-size="13" font-weight="bold" lengthAdjust="spacing" textLength="7" x="84" y="208.1592">4</text><text fill="#000000" font-family="sans-serif" font-size="13" lengthAdjust="spacing" textLength="303" x="95" y="208.1592">shows suggested vaccine type and asks to accept it</text><polygon fill="#A80036" points="623,239.3672,633,243.3672,623,247.3672,627,243.3672" style="stroke:#A80036;stroke-width:1.0;"/><line style="stroke:#A80036;stroke-width:1.0;" x1="67" x2="629" y1="243.3672" y2="243.3672"/><text fill="#000000" font-family="sans-serif" font-size="13" font-weight="bold" lengthAdjust="spacing" textLength="7" x="74" y="238.5107">5</text><text fill="#000000" font-family="sans-serif" font-size="13" lengthAdjust="spacing" textLength="208" x="85" y="238.5107">accepts the suggested vaccine type</text><path d="M10,258.3672 L75,258.3672 L75,266.3672 L65,276.3672 L10,276.3672 L10,258.3672 " fill="#EEEEEE" style="stroke:#000000;stroke-width:1.0;"/><rect fill="none" height="79.0547" style="stroke:#000000;stroke-width:2.0;" width="674" x="10" y="258.3672"/><text fill="#000000" font-family="sans-serif" font-size="13" font-weight="bold" lengthAdjust="spacing" textLength="20" x="25" y="272.8623">opt</text><text fill="#000000" font-family="sans-serif" font-size="11" font-weight="bold" lengthAdjust="spacing" textLength="210" x="90" y="271.7861">[declines the suggested vaccine type]</text><polygon fill="#A80036" points="78,295.0703,68,299.0703,78,303.0703,74,299.0703" style="stroke:#A80036;stroke-width:1.0;"/><line style="stroke:#A80036;stroke-width:1.0;stroke-dasharray:2.0,2.0;" x1="72" x2="639" y1="299.0703" y2="299.0703"/><text fill="#000000" font-family="sans-serif" font-size="13" font-weight="bold" lengthAdjust="spacing" textLength="7" x="84" y="294.2139">6</text><text fill="#000000" font-family="sans-serif" font-size="13" lengthAdjust="spacing" textLength="273" x="95" y="294.2139">shows all vaccine types and asks to select one</text><polygon fill="#A80036" points="623,325.4219,633,329.4219,623,333.4219,627,329.4219" style="stroke:#A80036;stroke-width:1.0;"/><line style="stroke:#A80036;stroke-width:1.0;" x1="67" x2="629" y1="329.4219" y2="329.4219"/><text fill="#000000" font-family="sans-serif" font-size="13" font-weight="bold" lengthAdjust="spacing" textLength="7" x="74" y="324.5654">7</text><text fill="#000000" font-family="sans-serif" font-size="13" lengthAdjust="spacing" textLength="129" x="85" y="324.5654">selects a vaccine type</text><polygon fill="#A80036" points="78,362.7734,68,366.7734,78,370.7734,74,366.7734" style="stroke:#A80036;stroke-width:1.0;"/><line style="stroke:#A80036;stroke-width:1.0;stroke-dasharray:2.0,2.0;" x1="72" x2="639" y1="366.7734" y2="366.7734"/><text fill="#000000" font-family="sans-serif" font-size="13" font-weight="bold" lengthAdjust="spacing" textLength="7" x="84" y="361.917">8</text><text fill="#000000" font-family="sans-serif" font-size="13" lengthAdjust="spacing" textLength="533" x="95" y="361.917">shows a list of all available vaccination centers with that vaccine type and asks to select one</text><polygon fill="#A80036" points="623,393.125,633,397.125,623,401.125,627,397.125" style="stroke:#A80036;stroke-width:1.0;"/><line style="stroke:#A80036;stroke-width:1.0;" x1="67" x2="629" y1="397.125" y2="397.125"/><text fill="#000000" font-family="sans-serif" font-size="13" font-weight="bold" lengthAdjust="spacing" textLength="7" x="74" y="392.2686">9</text><text fill="#000000" font-family="sans-serif" font-size="13" lengthAdjust="spacing" textLength="161" x="85" y="392.2686">selects a vaccination center</text><polygon fill="#A80036" points="78,423.4766,68,427.4766,78,431.4766,74,427.4766" style="stroke:#A80036;stroke-width:1.0;"/><line style="stroke:#A80036;stroke-width:1.0;stroke-dasharray:2.0,2.0;" x1="72" x2="639" y1="427.4766" y2="427.4766"/><text fill="#000000" font-family="sans-serif" font-size="13" font-weight="bold" lengthAdjust="spacing" textLength="14" x="84" y="422.6201">10</text><text fill="#000000" font-family="sans-serif" font-size="13" lengthAdjust="spacing" textLength="141" x="102" y="422.6201">requests data(date,time)</text><polygon fill="#A80036" points="623,453.8281,633,457.8281,623,461.8281,627,457.8281" style="stroke:#A80036;stroke-width:1.0;"/><line style="stroke:#A80036;stroke-width:1.0;" x1="67" x2="629" y1="457.8281" y2="457.8281"/><text fill="#000000" font-family="sans-serif" font-size="13" font-weight="bold" lengthAdjust="spacing" textLength="14" x="74" y="452.9717">11</text><text fill="#000000" font-family="sans-serif" font-size="13" lengthAdjust="spacing" textLength="122" x="92" y="452.9717">types requested data</text><polygon fill="#A80036" points="78,484.1797,68,488.1797,78,492.1797,74,488.1797" style="stroke:#A80036;stroke-width:1.0;"/><line style="stroke:#A80036;stroke-width:1.0;stroke-dasharray:2.0,2.0;" x1="72" x2="639" y1="488.1797" y2="488.1797"/><text fill="#000000" font-family="sans-serif" font-size="13" font-weight="bold" lengthAdjust="spacing" textLength="14" x="84" y="483.3232">12</text><text fill="#000000" font-family="sans-serif" font-size="13" lengthAdjust="spacing" textLength="339" x="102" y="483.3232">asks permission to send sms about the scheduled vaccine</text><polygon fill="#A80036" points="623,514.5313,633,518.5313,623,522.5313,627,518.5313" style="stroke:#A80036;stroke-width:1.0;"/><line style="stroke:#A80036;stroke-width:1.0;" x1="67" x2="629" y1="518.5313" y2="518.5313"/><text fill="#000000" font-family="sans-serif" font-size="13" font-weight="bold" lengthAdjust="spacing" textLength="14" x="74" y="513.6748">13</text><text fill="#000000" font-family="sans-serif" font-size="13" lengthAdjust="spacing" textLength="182" x="92" y="513.6748">accepts or declines the request</text><polygon fill="#A80036" points="78,544.8828,68,548.8828,78,552.8828,74,548.8828" style="stroke:#A80036;stroke-width:1.0;"/><line style="stroke:#A80036;stroke-width:1.0;stroke-dasharray:2.0,2.0;" x1="72" x2="639" y1="548.8828" y2="548.8828"/><text fill="#000000" font-family="sans-serif" font-size="13" font-weight="bold" lengthAdjust="spacing" textLength="14" x="84" y="544.0264">14</text><text fill="#000000" font-family="sans-serif" font-size="13" lengthAdjust="spacing" textLength="236" x="102" y="544.0264">shows all data and requests confirmation</text><polygon fill="#A80036" points="623,575.2344,633,579.2344,623,583.2344,627,579.2344" style="stroke:#A80036;stroke-width:1.0;"/><line style="stroke:#A80036;stroke-width:1.0;" x1="67" x2="629" y1="579.2344" y2="579.2344"/><text fill="#000000" font-family="sans-serif" font-size="13" font-weight="bold" lengthAdjust="spacing" textLength="14" x="74" y="574.3779">15</text><text fill="#000000" font-family="sans-serif" font-size="13" lengthAdjust="spacing" textLength="100" x="92" y="574.3779">confirms the data</text><polygon fill="#A80036" points="73,605.5859,63,609.5859,73,613.5859,69,609.5859" style="stroke:#A80036;stroke-width:1.0;"/><line style="stroke:#A80036;stroke-width:1.0;stroke-dasharray:2.0,2.0;" x1="67" x2="639" y1="609.5859" y2="609.5859"/><text fill="#000000" font-family="sans-serif" font-size="13" font-weight="bold" lengthAdjust="spacing" textLength="14" x="79" y="604.7295">16</text><text fill="#000000" font-family="sans-serif" font-size="13" lengthAdjust="spacing" textLength="152" x="97" y="604.7295">informs operation success</text><!--MD5=[b140c793a579d48f022b8642bc85c863]
@startuml US02_SSD
autonumber
actor "Receptionist" as Recept

activate Recept
Recept -> ":System" : asks to schedule a vaccination
activate ":System"
":System" - -> Recept : requests data (SNSNumber)
deactivate ":System"
Recept -> ":System" : types requested data
activate ":System"

":System" - -> Recept : shows suggested vaccine type and asks to accept it
deactivate ":System"
Recept -> ":System" : accepts the suggested vaccine type
activate ":System"

opt declines the suggested vaccine type
":System" - -> Recept : shows all vaccine types and asks to select one
deactivate ":System"
Recept -> ":System" : selects a vaccine type
activate ":System"
end

":System" - -> Recept: shows a list of all available vaccination centers with that vaccine type and asks to select one
deactivate ":System"
Recept -> ":System" : selects a vaccination center
activate ":System"

":System" - -> Recept : requests data(date,time)
deactivate ":System"
Recept -> ":System" : types requested data
activate ":System"

":System" - -> Recept : asks permission to send sms about the scheduled vaccine
deactivate ":System"
Recept -> ":System" : accepts or declines the request
activate ":System"

":System" - -> Recept : shows all data and requests confirmation
deactivate ":System"
Recept -> ":System" : confirms the data
activate ":System"

":System" - -> Recept : informs operation success
deactivate ":System"

deactivate Recept

@enduml

PlantUML version 1.2022.0(Tue Jan 11 16:16:42 WET 2022)
(GPL source distribution)
Java Runtime: Java(TM) SE Runtime Environment
JVM: Java HotSpot(TM) 64-Bit Server VM
Default Encoding: Cp1252
Language: pt
Country: PT
--></g></svg>