<?xml version="1.0" encoding="UTF-8" standalone="no"?><svg xmlns="http://www.w3.org/2000/svg" xmlns:xlink="http://www.w3.org/1999/xlink" contentScriptType="application/ecmascript" contentStyleType="text/css" height="139px" preserveAspectRatio="none" style="width:648px;height:139px;background:#FFFFFF;" version="1.1" viewBox="0 0 648 139" width="648px" zoomAndPan="magnify"><defs><filter height="300%" id="fedn0pqh4hsgd" width="300%" x="-1" y="-1"><feGaussianBlur result="blurOut" stdDeviation="2.0"/><feColorMatrix in="blurOut" result="blurOut2" type="matrix" values="0 0 0 0 0 0 0 0 0 0 0 0 0 0 0 0 0 0 .4 0"/><feOffset dx="4.0" dy="4.0" in="blurOut2" result="blurOut3"/><feBlend in="SourceGraphic" in2="blurOut3" mode="normal"/></filter></defs><g><!--MD5=[03960189e81aa2c066c762ffabbee709]
class Receptionist--><rect codeLine="5" fill="#FEFECE" filter="url(#fedn0pqh4hsgd)" height="40" id="Receptionist" style="stroke:#A80036;stroke-width:1.5;" width="101" x="204" y="7"/><ellipse cx="219" cy="23" fill="#ADD1B2" rx="11" ry="11" style="stroke:#A80036;stroke-width:1.0;"/><path d="M221.7656,18.875 Q221.9219,18.6563 222.1094,18.5469 Q222.2969,18.4375 222.5156,18.4375 Q222.8906,18.4375 223.125,18.7031 Q223.3594,18.9531 223.3594,19.5625 L223.3594,21.0156 Q223.3594,21.625 223.125,21.8906 Q222.8906,22.1563 222.5156,22.1563 Q222.1719,22.1563 221.9688,21.9531 Q221.7656,21.7656 221.6563,21.25 Q221.6094,20.8906 221.4219,20.7031 Q221.0938,20.3281 220.4844,20.1094 Q219.875,19.8906 219.25,19.8906 Q218.4844,19.8906 217.8438,20.2188 Q217.2188,20.5469 216.7188,21.2969 Q216.2344,22.0469 216.2344,23.0781 L216.2344,24.1719 Q216.2344,25.4063 217.125,26.2344 Q218.0156,27.0469 219.6094,27.0469 Q220.5469,27.0469 221.2031,26.7969 Q221.5938,26.6406 222.0156,26.2031 Q222.2813,25.9375 222.4219,25.8594 Q222.5781,25.7813 222.7813,25.7813 Q223.1094,25.7813 223.3594,26.0469 Q223.625,26.2969 223.625,26.6406 Q223.625,26.9844 223.2813,27.3906 Q222.7813,27.9688 221.9844,28.2969 Q220.9063,28.75 219.6094,28.75 Q218.0938,28.75 216.8906,28.125 Q215.9063,27.625 215.2188,26.5625 Q214.5313,25.4844 214.5313,24.2031 L214.5313,23.0469 Q214.5313,21.7188 215.1406,20.5781 Q215.7656,19.4219 216.8594,18.8125 Q217.9531,18.1875 219.1875,18.1875 Q219.9219,18.1875 220.5625,18.3594 Q221.2188,18.5156 221.7656,18.875 Z " fill="#000000"/><text fill="#000000" font-family="sans-serif" font-size="12" lengthAdjust="spacing" textLength="69" x="233" y="27.9102">Receptionist</text><line style="stroke:#A80036;stroke-width:1.5;" x1="205" x2="304" y1="39" y2="39"/><!--MD5=[72be06cc7ae02ccc98efe28a50e62246]
class SNSUser--><rect codeLine="8" fill="#FEFECE" filter="url(#fedn0pqh4hsgd)" height="109.1797" id="SNSUser" style="stroke:#A80036;stroke-width:1.5;" width="84" x="430" y="16.5"/><ellipse cx="445" cy="32.5" fill="#ADD1B2" rx="11" ry="11" style="stroke:#A80036;stroke-width:1.0;"/><path d="M447.7656,28.375 Q447.9219,28.1563 448.1094,28.0469 Q448.2969,27.9375 448.5156,27.9375 Q448.8906,27.9375 449.125,28.2031 Q449.3594,28.4531 449.3594,29.0625 L449.3594,30.5156 Q449.3594,31.125 449.125,31.3906 Q448.8906,31.6563 448.5156,31.6563 Q448.1719,31.6563 447.9688,31.4531 Q447.7656,31.2656 447.6563,30.75 Q447.6094,30.3906 447.4219,30.2031 Q447.0938,29.8281 446.4844,29.6094 Q445.875,29.3906 445.25,29.3906 Q444.4844,29.3906 443.8438,29.7188 Q443.2188,30.0469 442.7188,30.7969 Q442.2344,31.5469 442.2344,32.5781 L442.2344,33.6719 Q442.2344,34.9063 443.125,35.7344 Q444.0156,36.5469 445.6094,36.5469 Q446.5469,36.5469 447.2031,36.2969 Q447.5938,36.1406 448.0156,35.7031 Q448.2813,35.4375 448.4219,35.3594 Q448.5781,35.2813 448.7813,35.2813 Q449.1094,35.2813 449.3594,35.5469 Q449.625,35.7969 449.625,36.1406 Q449.625,36.4844 449.2813,36.8906 Q448.7813,37.4688 447.9844,37.7969 Q446.9063,38.25 445.6094,38.25 Q444.0938,38.25 442.8906,37.625 Q441.9063,37.125 441.2188,36.0625 Q440.5313,34.9844 440.5313,33.7031 L440.5313,32.5469 Q440.5313,31.2188 441.1406,30.0781 Q441.7656,28.9219 442.8594,28.3125 Q443.9531,27.6875 445.1875,27.6875 Q445.9219,27.6875 446.5625,27.8594 Q447.2188,28.0156 447.7656,28.375 Z " fill="#000000"/><text fill="#000000" font-family="sans-serif" font-size="12" lengthAdjust="spacing" textLength="52" x="459" y="37.4102">SNSUser</text><line style="stroke:#A80036;stroke-width:1.5;" x1="431" x2="513" y1="48.5" y2="48.5"/><text fill="#000000" font-family="sans-serif" font-size="11" lengthAdjust="spacing" textLength="62" x="436" y="63.9189">-SNSNumber</text><text fill="#000000" font-family="sans-serif" font-size="11" lengthAdjust="spacing" textLength="30" x="436" y="77.7549">-name</text><text fill="#000000" font-family="sans-serif" font-size="11" lengthAdjust="spacing" textLength="47" x="436" y="91.5908">-birthDate</text><text fill="#000000" font-family="sans-serif" font-size="11" lengthAdjust="spacing" textLength="71" x="436" y="105.4268">-phoneNumber</text><text fill="#000000" font-family="sans-serif" font-size="11" lengthAdjust="spacing" textLength="28" x="436" y="119.2627">-email</text><!--MD5=[02e4b9b7573f1156f41e60aa5b4e25a4]
class Company--><rect codeLine="16" fill="#FEFECE" filter="url(#fedn0pqh4hsgd)" height="53.8359" id="Company" style="stroke:#A80036;stroke-width:1.5;" width="85" x="7" y="41"/><ellipse cx="22" cy="57" fill="#ADD1B2" rx="11" ry="11" style="stroke:#A80036;stroke-width:1.0;"/><path d="M24.7656,52.875 Q24.9219,52.6563 25.1094,52.5469 Q25.2969,52.4375 25.5156,52.4375 Q25.8906,52.4375 26.125,52.7031 Q26.3594,52.9531 26.3594,53.5625 L26.3594,55.0156 Q26.3594,55.625 26.125,55.8906 Q25.8906,56.1563 25.5156,56.1563 Q25.1719,56.1563 24.9688,55.9531 Q24.7656,55.7656 24.6563,55.25 Q24.6094,54.8906 24.4219,54.7031 Q24.0938,54.3281 23.4844,54.1094 Q22.875,53.8906 22.25,53.8906 Q21.4844,53.8906 20.8438,54.2188 Q20.2188,54.5469 19.7188,55.2969 Q19.2344,56.0469 19.2344,57.0781 L19.2344,58.1719 Q19.2344,59.4063 20.125,60.2344 Q21.0156,61.0469 22.6094,61.0469 Q23.5469,61.0469 24.2031,60.7969 Q24.5938,60.6406 25.0156,60.2031 Q25.2813,59.9375 25.4219,59.8594 Q25.5781,59.7813 25.7813,59.7813 Q26.1094,59.7813 26.3594,60.0469 Q26.625,60.2969 26.625,60.6406 Q26.625,60.9844 26.2813,61.3906 Q25.7813,61.9688 24.9844,62.2969 Q23.9063,62.75 22.6094,62.75 Q21.0938,62.75 19.8906,62.125 Q18.9063,61.625 18.2188,60.5625 Q17.5313,59.4844 17.5313,58.2031 L17.5313,57.0469 Q17.5313,55.7188 18.1406,54.5781 Q18.7656,53.4219 19.8594,52.8125 Q20.9531,52.1875 22.1875,52.1875 Q22.9219,52.1875 23.5625,52.3594 Q24.2188,52.5156 24.7656,52.875 Z " fill="#000000"/><text fill="#000000" font-family="sans-serif" font-size="12" lengthAdjust="spacing" textLength="53" x="36" y="61.9102">Company</text><line style="stroke:#A80036;stroke-width:1.5;" x1="8" x2="91" y1="73" y2="73"/><text fill="#000000" font-family="sans-serif" font-size="11" lengthAdjust="spacing" textLength="59" x="13" y="88.4189">-designation</text><!--MD5=[3fd616f346a44cd59a91eb10b19e157c]
class User--><rect codeLine="20" fill="#FEFECE" filter="url(#fedn0pqh4hsgd)" height="81.5078" id="User" style="stroke:#A80036;stroke-width:1.5;" width="59" x="575" y="30"/><ellipse cx="590" cy="46" fill="#ADD1B2" rx="11" ry="11" style="stroke:#A80036;stroke-width:1.0;"/><path d="M592.7656,41.875 Q592.9219,41.6563 593.1094,41.5469 Q593.2969,41.4375 593.5156,41.4375 Q593.8906,41.4375 594.125,41.7031 Q594.3594,41.9531 594.3594,42.5625 L594.3594,44.0156 Q594.3594,44.625 594.125,44.8906 Q593.8906,45.1563 593.5156,45.1563 Q593.1719,45.1563 592.9688,44.9531 Q592.7656,44.7656 592.6563,44.25 Q592.6094,43.8906 592.4219,43.7031 Q592.0938,43.3281 591.4844,43.1094 Q590.875,42.8906 590.25,42.8906 Q589.4844,42.8906 588.8438,43.2188 Q588.2188,43.5469 587.7188,44.2969 Q587.2344,45.0469 587.2344,46.0781 L587.2344,47.1719 Q587.2344,48.4063 588.125,49.2344 Q589.0156,50.0469 590.6094,50.0469 Q591.5469,50.0469 592.2031,49.7969 Q592.5938,49.6406 593.0156,49.2031 Q593.2813,48.9375 593.4219,48.8594 Q593.5781,48.7813 593.7813,48.7813 Q594.1094,48.7813 594.3594,49.0469 Q594.625,49.2969 594.625,49.6406 Q594.625,49.9844 594.2813,50.3906 Q593.7813,50.9688 592.9844,51.2969 Q591.9063,51.75 590.6094,51.75 Q589.0938,51.75 587.8906,51.125 Q586.9063,50.625 586.2188,49.5625 Q585.5313,48.4844 585.5313,47.2031 L585.5313,46.0469 Q585.5313,44.7188 586.1406,43.5781 Q586.7656,42.4219 587.8594,41.8125 Q588.9531,41.1875 590.1875,41.1875 Q590.9219,41.1875 591.5625,41.3594 Q592.2188,41.5156 592.7656,41.875 Z " fill="#000000"/><text fill="#000000" font-family="sans-serif" font-size="12" lengthAdjust="spacing" textLength="27" x="604" y="50.9102">User</text><line style="stroke:#A80036;stroke-width:1.5;" x1="576" x2="633" y1="62" y2="62"/><text fill="#000000" font-family="sans-serif" font-size="11" lengthAdjust="spacing" textLength="30" x="581" y="77.4189">-name</text><text fill="#000000" font-family="sans-serif" font-size="11" lengthAdjust="spacing" textLength="28" x="581" y="91.2549">-email</text><text fill="#000000" font-family="sans-serif" font-size="11" lengthAdjust="spacing" textLength="26" x="581" y="105.0908">-pwd</text><!--MD5=[7690a4971bd8576b261a40a0340b8203]
link Receptionist to SNSUser--><path codeLine="26" d="M305.21,37.15 C343,44.87 394.36,55.35 429.86,62.6 " fill="none" id="Receptionist-SNSUser" style="stroke:#A80036;stroke-width:1.0;"/><polygon fill="#000000" points="344.8989,36.176,336.6246,31.4871,335.4488,37.2461,344.8989,36.176" style="stroke:#000000;stroke-width:1.0;"/><text fill="#000000" font-family="sans-serif" font-size="13" lengthAdjust="spacing" textLength="50" x="349" y="40.4951">registers</text><text fill="#000000" font-family="sans-serif" font-size="13" lengthAdjust="spacing" textLength="7" x="312.8333" y="53.2222">1</text><text fill="#000000" font-family="sans-serif" font-size="13" lengthAdjust="spacing" textLength="5" x="416.9085" y="57.1892">*</text><!--MD5=[5448e79142bdfcbfebd9929e0faf45a6]
link Company to Receptionist--><path codeLine="27" d="M92.07,59.6 C124.43,53.07 169.46,43.97 203.74,37.05 " fill="none" id="Company-Receptionist" style="stroke:#A80036;stroke-width:1.0;"/><polygon fill="#000000" points="131.9011,34.1861,122.4532,33.0957,123.6167,38.8572,131.9011,34.1861" style="stroke:#000000;stroke-width:1.0;"/><text fill="#000000" font-family="sans-serif" font-size="13" lengthAdjust="spacing" textLength="37" x="136" y="40.4951">knows</text><text fill="#000000" font-family="sans-serif" font-size="13" lengthAdjust="spacing" textLength="7" x="99.9883" y="54.3207">1</text><text fill="#000000" font-family="sans-serif" font-size="13" lengthAdjust="spacing" textLength="5" x="190.9174" y="53.222">*</text><!--MD5=[1a8aa2b864b87f860d28abceaa28b7a5]
link Company to SNSUser--><path codeLine="28" d="M92.13,72.83 C122.96,76.15 166.04,80.27 204,82 C283.95,85.64 377.38,79.38 429.83,74.91 " fill="none" id="Company-SNSUser" style="stroke:#A80036;stroke-width:1.0;"/><polygon fill="#000000" points="238.4999,73.2066,229.4731,70.212,229.4369,76.0897,238.4999,73.2066" style="stroke:#000000;stroke-width:1.0;"/><text fill="#000000" font-family="sans-serif" font-size="13" lengthAdjust="spacing" textLength="37" x="242.5" y="78.4951">knows</text><text fill="#000000" font-family="sans-serif" font-size="13" lengthAdjust="spacing" textLength="7" x="100.0586" y="88.5746">1</text><text fill="#000000" font-family="sans-serif" font-size="13" lengthAdjust="spacing" textLength="5" x="416.8732" y="90.5419">*</text><!--MD5=[ab35454d3b824bffa37139da8ad19722]
reverse link SNSUser to User--><path codeLine="29" d="M534.48,71 C548.59,71 562.93,71 574.86,71 " fill="none" id="SNSUser-backto-User" style="stroke:#A80036;stroke-width:1.0;"/><polygon fill="none" points="534.29,78,514.29,71,534.29,64,534.29,78" style="stroke:#A80036;stroke-width:1.0;"/><!--MD5=[4cc47d46d0568036badaed453d2fdd85]
@startuml Domain Model
hide methods
left to right direction
skinparam classAttributeIconSize 0

class Receptionist {
}

class SNSUser {
  - SNSNumber
  - name
  - birthDate
  - phoneNumber
  - email
}

class Company {
  - designation
}

class User {
  - name
  - email
  - pwd
}

Receptionist "1" - - "*" SNSUser : registers >
Company "1" - - "*" Receptionist : knows >
Company "1" - - "*" SNSUser : knows >
SNSUser <|- - User

@enduml

PlantUML version 1.2022.0(Tue Jan 11 16:16:42 WET 2022)
(GPL source distribution)
Java Runtime: Java(TM) SE Runtime Environment
JVM: Java HotSpot(TM) 64-Bit Server VM
Default Encoding: Cp1252
Language: pt
Country: PT
--></g></svg>