<?xml version="1.0" encoding="UTF-8" standalone="no"?><svg xmlns="http://www.w3.org/2000/svg" xmlns:xlink="http://www.w3.org/1999/xlink" contentScriptType="application/ecmascript" contentStyleType="text/css" height="142px" preserveAspectRatio="none" style="width:756px;height:142px;background:#FFFFFF;" version="1.1" viewBox="0 0 756 142" width="756px" zoomAndPan="magnify"><defs><filter height="300%" id="ffbloo70u38bu" width="300%" x="-1" y="-1"><feGaussianBlur result="blurOut" stdDeviation="2.0"/><feColorMatrix in="blurOut" result="blurOut2" type="matrix" values="0 0 0 0 0 0 0 0 0 0 0 0 0 0 0 0 0 0 .4 0"/><feOffset dx="4.0" dy="4.0" in="blurOut2" result="blurOut3"/><feBlend in="SourceGraphic" in2="blurOut3" mode="normal"/></filter></defs><g><!--MD5=[03960189e81aa2c066c762ffabbee709]
class Receptionist--><rect codeLine="5" fill="#FEFECE" filter="url(#ffbloo70u38bu)" height="40" id="Receptionist" style="stroke:#A80036;stroke-width:1.5;" width="110" x="210" y="7"/><ellipse cx="225" cy="23" fill="#ADD1B2" rx="11" ry="11" style="stroke:#A80036;stroke-width:1.0;"/><path d="M227.9688,28.6406 Q227.3906,28.9375 226.75,29.0781 Q226.1094,29.2344 225.4063,29.2344 Q222.9063,29.2344 221.5781,27.5938 Q220.2656,25.9375 220.2656,22.8125 Q220.2656,19.6875 221.5781,18.0313 Q222.9063,16.375 225.4063,16.375 Q226.1094,16.375 226.75,16.5313 Q227.4063,16.6875 227.9688,16.9844 L227.9688,19.7031 Q227.3438,19.125 226.75,18.8594 Q226.1563,18.5781 225.5313,18.5781 Q224.1875,18.5781 223.5,19.6563 Q222.8125,20.7188 222.8125,22.8125 Q222.8125,24.9063 223.5,25.9844 Q224.1875,27.0469 225.5313,27.0469 Q226.1563,27.0469 226.75,26.7813 Q227.3438,26.5 227.9688,25.9219 L227.9688,28.6406 Z " fill="#000000"/><text fill="#000000" font-family="sans-serif" font-size="12" lengthAdjust="spacing" textLength="78" x="239" y="27.1543">Receptionist</text><line style="stroke:#A80036;stroke-width:1.5;" x1="211" x2="319" y1="39" y2="39"/><!--MD5=[72be06cc7ae02ccc98efe28a50e62246]
class SNSUser--><rect codeLine="8" fill="#FEFECE" filter="url(#ffbloo70u38bu)" height="116.8281" id="SNSUser" style="stroke:#A80036;stroke-width:1.5;" width="96" x="451" y="11.5"/><ellipse cx="470.5" cy="27.5" fill="#ADD1B2" rx="11" ry="11" style="stroke:#A80036;stroke-width:1.0;"/><path d="M473.4688,33.1406 Q472.8906,33.4375 472.25,33.5781 Q471.6094,33.7344 470.9063,33.7344 Q468.4063,33.7344 467.0781,32.0938 Q465.7656,30.4375 465.7656,27.3125 Q465.7656,24.1875 467.0781,22.5313 Q468.4063,20.875 470.9063,20.875 Q471.6094,20.875 472.25,21.0313 Q472.9063,21.1875 473.4688,21.4844 L473.4688,24.2031 Q472.8438,23.625 472.25,23.3594 Q471.6563,23.0781 471.0313,23.0781 Q469.6875,23.0781 469,24.1563 Q468.3125,25.2188 468.3125,27.3125 Q468.3125,29.4063 469,30.4844 Q469.6875,31.5469 471.0313,31.5469 Q471.6563,31.5469 472.25,31.2813 Q472.8438,31 473.4688,30.4219 L473.4688,33.1406 Z " fill="#000000"/><text fill="#000000" font-family="sans-serif" font-size="12" lengthAdjust="spacing" textLength="54" x="485.5" y="31.6543">SNSUser</text><line style="stroke:#A80036;stroke-width:1.5;" x1="452" x2="546" y1="43.5" y2="43.5"/><text fill="#000000" font-family="sans-serif" font-size="11" lengthAdjust="spacing" textLength="73" x="457" y="57.7104">-SNSNumber</text><text fill="#000000" font-family="sans-serif" font-size="11" lengthAdjust="spacing" textLength="36" x="457" y="70.5151">-name</text><text fill="#000000" font-family="sans-serif" font-size="11" lengthAdjust="spacing" textLength="56" x="457" y="83.3198">-birthDate</text><text fill="#000000" font-family="sans-serif" font-size="11" lengthAdjust="spacing" textLength="44" x="457" y="96.1245">-gender</text><text fill="#000000" font-family="sans-serif" font-size="11" lengthAdjust="spacing" textLength="84" x="457" y="108.9292">-phoneNumber</text><text fill="#000000" font-family="sans-serif" font-size="11" lengthAdjust="spacing" textLength="35" x="457" y="121.7339">-email</text><!--MD5=[02e4b9b7573f1156f41e60aa5b4e25a4]
class Company--><rect codeLine="17" fill="#FEFECE" filter="url(#ffbloo70u38bu)" height="52.8047" id="Company" style="stroke:#A80036;stroke-width:1.5;" width="89" x="7" y="40.5"/><ellipse cx="22" cy="56.5" fill="#ADD1B2" rx="11" ry="11" style="stroke:#A80036;stroke-width:1.0;"/><path d="M24.9688,62.1406 Q24.3906,62.4375 23.75,62.5781 Q23.1094,62.7344 22.4063,62.7344 Q19.9063,62.7344 18.5781,61.0938 Q17.2656,59.4375 17.2656,56.3125 Q17.2656,53.1875 18.5781,51.5313 Q19.9063,49.875 22.4063,49.875 Q23.1094,49.875 23.75,50.0313 Q24.4063,50.1875 24.9688,50.4844 L24.9688,53.2031 Q24.3438,52.625 23.75,52.3594 Q23.1563,52.0781 22.5313,52.0781 Q21.1875,52.0781 20.5,53.1563 Q19.8125,54.2188 19.8125,56.3125 Q19.8125,58.4063 20.5,59.4844 Q21.1875,60.5469 22.5313,60.5469 Q23.1563,60.5469 23.75,60.2813 Q24.3438,60 24.9688,59.4219 L24.9688,62.1406 Z " fill="#000000"/><text fill="#000000" font-family="sans-serif" font-size="12" lengthAdjust="spacing" textLength="57" x="36" y="60.6543">Company</text><line style="stroke:#A80036;stroke-width:1.5;" x1="8" x2="95" y1="72.5" y2="72.5"/><text fill="#000000" font-family="sans-serif" font-size="11" lengthAdjust="spacing" textLength="70" x="13" y="86.7104">-designation</text><!--MD5=[3fd616f346a44cd59a91eb10b19e157c]
class User--><rect codeLine="21" fill="#FEFECE" filter="url(#ffbloo70u38bu)" height="91.2188" id="User" style="stroke:#A80036;stroke-width:1.5;" width="61" x="681" y="24.5"/><ellipse cx="696" cy="40.5" fill="#ADD1B2" rx="11" ry="11" style="stroke:#A80036;stroke-width:1.0;"/><path d="M698.9688,46.1406 Q698.3906,46.4375 697.75,46.5781 Q697.1094,46.7344 696.4063,46.7344 Q693.9063,46.7344 692.5781,45.0938 Q691.2656,43.4375 691.2656,40.3125 Q691.2656,37.1875 692.5781,35.5313 Q693.9063,33.875 696.4063,33.875 Q697.1094,33.875 697.75,34.0313 Q698.4063,34.1875 698.9688,34.4844 L698.9688,37.2031 Q698.3438,36.625 697.75,36.3594 Q697.1563,36.0781 696.5313,36.0781 Q695.1875,36.0781 694.5,37.1563 Q693.8125,38.2188 693.8125,40.3125 Q693.8125,42.4063 694.5,43.4844 Q695.1875,44.5469 696.5313,44.5469 Q697.1563,44.5469 697.75,44.2813 Q698.3438,44 698.9688,43.4219 L698.9688,46.1406 Z " fill="#000000"/><text fill="#000000" font-family="sans-serif" font-size="12" lengthAdjust="spacing" textLength="29" x="710" y="44.6543">User</text><line style="stroke:#A80036;stroke-width:1.5;" x1="682" x2="741" y1="56.5" y2="56.5"/><text fill="#000000" font-family="sans-serif" font-size="11" lengthAdjust="spacing" textLength="36" x="687" y="70.7104">-name</text><text fill="#000000" font-family="sans-serif" font-size="11" lengthAdjust="spacing" textLength="35" x="687" y="83.5151">-email</text><text fill="#000000" font-family="sans-serif" font-size="11" lengthAdjust="spacing" textLength="27" x="687" y="96.3198">-pwd</text><text fill="#000000" font-family="sans-serif" font-size="11" lengthAdjust="spacing" textLength="26" x="687" y="109.1245">-role</text><!--MD5=[7690a4971bd8576b261a40a0340b8203]
link Receptionist to SNSUser--><path codeLine="28" d="M320.1,37.03 C359.73,44.37 413,54.25 450.89,61.27 " fill="none" id="Receptionist-SNSUser" style="stroke:#A80036;stroke-width:1.0;"/><polygon fill="#000000" points="359.9163,36.4776,351.5582,31.9395,350.4871,37.719,359.9163,36.4776" style="stroke:#000000;stroke-width:1.0;"/><text fill="#000000" font-family="sans-serif" font-size="13" lengthAdjust="spacing" textLength="56" x="364" y="40.0669">registers</text><text fill="#000000" font-family="sans-serif" font-size="13" lengthAdjust="spacing" textLength="8" x="328.0416" y="51.4614">1</text><text fill="#000000" font-family="sans-serif" font-size="13" lengthAdjust="spacing" textLength="7" x="435.9872" y="55.875">*</text><!--MD5=[5448e79142bdfcbfebd9929e0faf45a6]
link Company to Receptionist--><path codeLine="29" d="M96.07,58.76 C129.08,52.52 174.63,43.9 209.97,37.22 " fill="none" id="Company-Receptionist" style="stroke:#A80036;stroke-width:1.0;"/><polygon fill="#000000" points="135.9129,34.6373,126.4793,33.4303,127.5715,39.2058,135.9129,34.6373" style="stroke:#000000;stroke-width:1.0;"/><text fill="#000000" font-family="sans-serif" font-size="13" lengthAdjust="spacing" textLength="39" x="140" y="40.0669">knows</text><text fill="#000000" font-family="sans-serif" font-size="13" lengthAdjust="spacing" textLength="8" x="104.1144" y="53.2471">1</text><text fill="#000000" font-family="sans-serif" font-size="13" lengthAdjust="spacing" textLength="7" x="195.105" y="51.6769">*</text><!--MD5=[1a8aa2b864b87f860d28abceaa28b7a5]
link Company to SNSUser--><path codeLine="30" d="M96.22,71.93 C127.79,75.24 171.47,79.29 210,81 C294.85,84.76 393.81,78.7 450.85,74.19 " fill="none" id="Company-SNSUser" style="stroke:#A80036;stroke-width:1.0;"/><polygon fill="#000000" points="247.9999,72.5983,238.9737,69.6018,238.9363,75.4795,247.9999,72.5983" style="stroke:#000000;stroke-width:1.0;"/><text fill="#000000" font-family="sans-serif" font-size="13" lengthAdjust="spacing" textLength="39" x="252" y="77.0669">knows</text><text fill="#000000" font-family="sans-serif" font-size="13" lengthAdjust="spacing" textLength="8" x="103.9848" y="86.0041">1</text><text fill="#000000" font-family="sans-serif" font-size="13" lengthAdjust="spacing" textLength="7" x="435.9411" y="88.0703">*</text><!--MD5=[f51b69263ffc056cc84c9ec54d5aea1b]
link SNSUser to User--><path codeLine="31" d="M547.24,70 C588.21,70 646.24,70 680.95,70 " fill="none" id="SNSUser-User" style="stroke:#A80036;stroke-width:1.0;"/><polygon fill="#000000" points="587,61.5664,577.9549,58.6275,577.9549,64.5053,587,61.5664" style="stroke:#000000;stroke-width:1.0;"/><text fill="#000000" font-family="sans-serif" font-size="13" lengthAdjust="spacing" textLength="59" x="591" y="66.0669">becomes</text><text fill="#000000" font-family="sans-serif" font-size="13" lengthAdjust="spacing" textLength="24" x="554.9583" y="83.0474">0..1</text><text fill="#000000" font-family="sans-serif" font-size="13" lengthAdjust="spacing" textLength="8" x="664.9603" y="83.7913">1</text><!--MD5=[af95287ebd9c8b72ab6d4782f2530fe5]
@startuml Domain Model
hide methods
left to right direction
skinparam classAttributeIconSize 0

class Receptionist {
}

class SNSUser {
  - SNSNumber
  - name
  - birthDate
  - gender
  - phoneNumber
  - email
}

class Company {
  - designation
}

class User {
  - name
  - email
  - pwd
  - role
}

Receptionist "1" - - "*" SNSUser : registers >
Company "1" - - "*" Receptionist : knows >
Company "1" - - "*" SNSUser : knows >
SNSUser "0..1" - - "1" User : becomes >

@enduml

PlantUML version 1.2022.0(Tue Jan 11 16:16:42 WET 2022)
(GPL source distribution)
Java Runtime: OpenJDK Runtime Environment
JVM: OpenJDK 64-Bit Server VM
Default Encoding: UTF-8
Language: en
Country: US
--></g></svg>