<?xml version="1.0" encoding="UTF-8" standalone="no"?><svg xmlns="http://www.w3.org/2000/svg" xmlns:xlink="http://www.w3.org/1999/xlink" contentScriptType="application/ecmascript" contentStyleType="text/css" height="921px" preserveAspectRatio="none" style="width:1051px;height:921px;background:#FFFFFF;" version="1.1" viewBox="0 0 1051 921" width="1051px" zoomAndPan="magnify"><defs><filter height="300%" id="fbkgohyvygg4d" width="300%" x="-1" y="-1"><feGaussianBlur result="blurOut" stdDeviation="2.0"/><feColorMatrix in="blurOut" result="blurOut2" type="matrix" values="0 0 0 0 0 0 0 0 0 0 0 0 0 0 0 0 0 0 .4 0"/><feOffset dx="4.0" dy="4.0" in="blurOut2" result="blurOut3"/><feBlend in="SourceGraphic" in2="blurOut3" mode="normal"/></filter></defs><g><!--MD5=[8ae808d068a8995f06b9b3ec51357f0b]
class AuthFacade--><rect codeLine="3" fill="#FEFECE" filter="url(#fbkgohyvygg4d)" height="75.6719" id="AuthFacade" style="stroke:#A80036;stroke-width:1.5;" width="225" x="7" y="632.5"/><ellipse cx="82.75" cy="648.5" fill="#ADD1B2" rx="11" ry="11" style="stroke:#A80036;stroke-width:1.0;"/><path d="M85.5156,644.375 Q85.6719,644.1563 85.8594,644.0469 Q86.0469,643.9375 86.2656,643.9375 Q86.6406,643.9375 86.875,644.2031 Q87.1094,644.4531 87.1094,645.0625 L87.1094,646.5156 Q87.1094,647.125 86.875,647.3906 Q86.6406,647.6563 86.2656,647.6563 Q85.9219,647.6563 85.7188,647.4531 Q85.5156,647.2656 85.4063,646.75 Q85.3594,646.3906 85.1719,646.2031 Q84.8438,645.8281 84.2344,645.6094 Q83.625,645.3906 83,645.3906 Q82.2344,645.3906 81.5938,645.7188 Q80.9688,646.0469 80.4688,646.7969 Q79.9844,647.5469 79.9844,648.5781 L79.9844,649.6719 Q79.9844,650.9063 80.875,651.7344 Q81.7656,652.5469 83.3594,652.5469 Q84.2969,652.5469 84.9531,652.2969 Q85.3438,652.1406 85.7656,651.7031 Q86.0313,651.4375 86.1719,651.3594 Q86.3281,651.2813 86.5313,651.2813 Q86.8594,651.2813 87.1094,651.5469 Q87.375,651.7969 87.375,652.1406 Q87.375,652.4844 87.0313,652.8906 Q86.5313,653.4688 85.7344,653.7969 Q84.6563,654.25 83.3594,654.25 Q81.8438,654.25 80.6406,653.625 Q79.6563,653.125 78.9688,652.0625 Q78.2813,650.9844 78.2813,649.7031 L78.2813,648.5469 Q78.2813,647.2188 78.8906,646.0781 Q79.5156,644.9219 80.6094,644.3125 Q81.7031,643.6875 82.9375,643.6875 Q83.6719,643.6875 84.3125,643.8594 Q84.9688,644.0156 85.5156,644.375 Z " fill="#000000"/><text fill="#000000" font-family="sans-serif" font-size="12" lengthAdjust="spacing" textLength="65" x="103.25" y="653.4102">AuthFacade</text><line style="stroke:#A80036;stroke-width:1.5;" x1="8" x2="231" y1="664.5" y2="664.5"/><line style="stroke:#A80036;stroke-width:1.5;" x1="8" x2="231" y1="672.5" y2="672.5"/><text fill="#000000" font-family="sans-serif" font-size="11" lengthAdjust="spacing" textLength="90" x="13" y="687.9189">+existsUser(email)</text><text fill="#000000" font-family="sans-serif" font-size="11" lengthAdjust="spacing" textLength="213" x="13" y="701.7549">+addUserWithRole(name, email, pwd, roleId)</text><!--MD5=[02e4b9b7573f1156f41e60aa5b4e25a4]
class Company--><rect codeLine="8" fill="#FEFECE" filter="url(#fbkgohyvygg4d)" height="103.3438" id="Company" style="stroke:#A80036;stroke-width:1.5;" width="316" x="231.5" y="253"/><ellipse cx="358.75" cy="269" fill="#ADD1B2" rx="11" ry="11" style="stroke:#A80036;stroke-width:1.0;"/><path d="M361.5156,264.875 Q361.6719,264.6563 361.8594,264.5469 Q362.0469,264.4375 362.2656,264.4375 Q362.6406,264.4375 362.875,264.7031 Q363.1094,264.9531 363.1094,265.5625 L363.1094,267.0156 Q363.1094,267.625 362.875,267.8906 Q362.6406,268.1563 362.2656,268.1563 Q361.9219,268.1563 361.7188,267.9531 Q361.5156,267.7656 361.4063,267.25 Q361.3594,266.8906 361.1719,266.7031 Q360.8438,266.3281 360.2344,266.1094 Q359.625,265.8906 359,265.8906 Q358.2344,265.8906 357.5938,266.2188 Q356.9688,266.5469 356.4688,267.2969 Q355.9844,268.0469 355.9844,269.0781 L355.9844,270.1719 Q355.9844,271.4063 356.875,272.2344 Q357.7656,273.0469 359.3594,273.0469 Q360.2969,273.0469 360.9531,272.7969 Q361.3438,272.6406 361.7656,272.2031 Q362.0313,271.9375 362.1719,271.8594 Q362.3281,271.7813 362.5313,271.7813 Q362.8594,271.7813 363.1094,272.0469 Q363.375,272.2969 363.375,272.6406 Q363.375,272.9844 363.0313,273.3906 Q362.5313,273.9688 361.7344,274.2969 Q360.6563,274.75 359.3594,274.75 Q357.8438,274.75 356.6406,274.125 Q355.6563,273.625 354.9688,272.5625 Q354.2813,271.4844 354.2813,270.2031 L354.2813,269.0469 Q354.2813,267.7188 354.8906,266.5781 Q355.5156,265.4219 356.6094,264.8125 Q357.7031,264.1875 358.9375,264.1875 Q359.6719,264.1875 360.3125,264.3594 Q360.9688,264.5156 361.5156,264.875 Z " fill="#000000"/><text fill="#000000" font-family="sans-serif" font-size="12" lengthAdjust="spacing" textLength="53" x="379.25" y="273.9102">Company</text><line style="stroke:#A80036;stroke-width:1.5;" x1="232.5" x2="546.5" y1="285" y2="285"/><text fill="#000000" font-family="sans-serif" font-size="11" lengthAdjust="spacing" textLength="90" x="237.5" y="300.4189">-String designation</text><line style="stroke:#A80036;stroke-width:1.5;" x1="232.5" x2="546.5" y1="306.8359" y2="306.8359"/><text fill="#000000" font-family="sans-serif" font-size="11" lengthAdjust="spacing" textLength="88" x="237.5" y="322.2549">+getAuthFacade()</text><text fill="#000000" font-family="sans-serif" font-size="11" lengthAdjust="spacing" textLength="85" x="237.5" y="336.0908">+getDesignation()</text><text fill="#000000" font-family="sans-serif" font-size="11" lengthAdjust="spacing" textLength="304" x="237.5" y="349.9268">+createUser(snsNumber, name, email, birthDay, phoneNumber)</text><!--MD5=[be89e96fded54ba83d4eaa5710b97d82]
class RegisterSNSUserController--><rect codeLine="15" fill="#FEFECE" filter="url(#fbkgohyvygg4d)" height="75.6719" id="RegisterSNSUserController" style="stroke:#A80036;stroke-width:1.5;" width="377" x="201" y="116"/><ellipse cx="308.75" cy="132" fill="#ADD1B2" rx="11" ry="11" style="stroke:#A80036;stroke-width:1.0;"/><path d="M311.5156,127.875 Q311.6719,127.6563 311.8594,127.5469 Q312.0469,127.4375 312.2656,127.4375 Q312.6406,127.4375 312.875,127.7031 Q313.1094,127.9531 313.1094,128.5625 L313.1094,130.0156 Q313.1094,130.625 312.875,130.8906 Q312.6406,131.1563 312.2656,131.1563 Q311.9219,131.1563 311.7188,130.9531 Q311.5156,130.7656 311.4063,130.25 Q311.3594,129.8906 311.1719,129.7031 Q310.8438,129.3281 310.2344,129.1094 Q309.625,128.8906 309,128.8906 Q308.2344,128.8906 307.5938,129.2188 Q306.9688,129.5469 306.4688,130.2969 Q305.9844,131.0469 305.9844,132.0781 L305.9844,133.1719 Q305.9844,134.4063 306.875,135.2344 Q307.7656,136.0469 309.3594,136.0469 Q310.2969,136.0469 310.9531,135.7969 Q311.3438,135.6406 311.7656,135.2031 Q312.0313,134.9375 312.1719,134.8594 Q312.3281,134.7813 312.5313,134.7813 Q312.8594,134.7813 313.1094,135.0469 Q313.375,135.2969 313.375,135.6406 Q313.375,135.9844 313.0313,136.3906 Q312.5313,136.9688 311.7344,137.2969 Q310.6563,137.75 309.3594,137.75 Q307.8438,137.75 306.6406,137.125 Q305.6563,136.625 304.9688,135.5625 Q304.2813,134.4844 304.2813,133.2031 L304.2813,132.0469 Q304.2813,130.7188 304.8906,129.5781 Q305.5156,128.4219 306.6094,127.8125 Q307.7031,127.1875 308.9375,127.1875 Q309.6719,127.1875 310.3125,127.3594 Q310.9688,127.5156 311.5156,127.875 Z " fill="#000000"/><text fill="#000000" font-family="sans-serif" font-size="12" lengthAdjust="spacing" textLength="153" x="329.25" y="136.9102">RegisterSNSUserController</text><line style="stroke:#A80036;stroke-width:1.5;" x1="202" x2="577" y1="148" y2="148"/><line style="stroke:#A80036;stroke-width:1.5;" x1="202" x2="577" y1="156" y2="156"/><text fill="#000000" font-family="sans-serif" font-size="11" lengthAdjust="spacing" textLength="365" x="207" y="171.4189">+createSNSUser(snsNumber, name, birthDay, gender, phoneNumber, email)</text><text fill="#000000" font-family="sans-serif" font-size="11" lengthAdjust="spacing" textLength="104" x="207" y="185.2549">+saveSNSUser(user)</text><!--MD5=[e51f1aa3cba897edd46f2fedbd5a5cd6]
class RegisterSNSUserUI--><rect codeLine="20" fill="#FEFECE" filter="url(#fbkgohyvygg4d)" height="48" id="RegisterSNSUserUI" style="stroke:#A80036;stroke-width:1.5;" width="143" x="318" y="7"/><ellipse cx="333" cy="23" fill="#ADD1B2" rx="11" ry="11" style="stroke:#A80036;stroke-width:1.0;"/><path d="M335.7656,18.875 Q335.9219,18.6563 336.1094,18.5469 Q336.2969,18.4375 336.5156,18.4375 Q336.8906,18.4375 337.125,18.7031 Q337.3594,18.9531 337.3594,19.5625 L337.3594,21.0156 Q337.3594,21.625 337.125,21.8906 Q336.8906,22.1563 336.5156,22.1563 Q336.1719,22.1563 335.9688,21.9531 Q335.7656,21.7656 335.6563,21.25 Q335.6094,20.8906 335.4219,20.7031 Q335.0938,20.3281 334.4844,20.1094 Q333.875,19.8906 333.25,19.8906 Q332.4844,19.8906 331.8438,20.2188 Q331.2188,20.5469 330.7188,21.2969 Q330.2344,22.0469 330.2344,23.0781 L330.2344,24.1719 Q330.2344,25.4063 331.125,26.2344 Q332.0156,27.0469 333.6094,27.0469 Q334.5469,27.0469 335.2031,26.7969 Q335.5938,26.6406 336.0156,26.2031 Q336.2813,25.9375 336.4219,25.8594 Q336.5781,25.7813 336.7813,25.7813 Q337.1094,25.7813 337.3594,26.0469 Q337.625,26.2969 337.625,26.6406 Q337.625,26.9844 337.2813,27.3906 Q336.7813,27.9688 335.9844,28.2969 Q334.9063,28.75 333.6094,28.75 Q332.0938,28.75 330.8906,28.125 Q329.9063,27.625 329.2188,26.5625 Q328.5313,25.4844 328.5313,24.2031 L328.5313,23.0469 Q328.5313,21.7188 329.1406,20.5781 Q329.7656,19.4219 330.8594,18.8125 Q331.9531,18.1875 333.1875,18.1875 Q333.9219,18.1875 334.5625,18.3594 Q335.2188,18.5156 335.7656,18.875 Z " fill="#000000"/><text fill="#000000" font-family="sans-serif" font-size="12" lengthAdjust="spacing" textLength="111" x="347" y="27.9102">RegisterSNSUserUI</text><line style="stroke:#A80036;stroke-width:1.5;" x1="319" x2="460" y1="39" y2="39"/><line style="stroke:#A80036;stroke-width:1.5;" x1="319" x2="460" y1="47" y2="47"/><!--MD5=[72be06cc7ae02ccc98efe28a50e62246]
class SNSUser--><rect codeLine="22" fill="#FEFECE" filter="url(#fbkgohyvygg4d)" height="144.8516" id="SNSUser" style="stroke:#A80036;stroke-width:1.5;" width="452" x="585.5" y="598"/><ellipse cx="781.25" cy="614" fill="#ADD1B2" rx="11" ry="11" style="stroke:#A80036;stroke-width:1.0;"/><path d="M784.0156,609.875 Q784.1719,609.6563 784.3594,609.5469 Q784.5469,609.4375 784.7656,609.4375 Q785.1406,609.4375 785.375,609.7031 Q785.6094,609.9531 785.6094,610.5625 L785.6094,612.0156 Q785.6094,612.625 785.375,612.8906 Q785.1406,613.1563 784.7656,613.1563 Q784.4219,613.1563 784.2188,612.9531 Q784.0156,612.7656 783.9063,612.25 Q783.8594,611.8906 783.6719,611.7031 Q783.3438,611.3281 782.7344,611.1094 Q782.125,610.8906 781.5,610.8906 Q780.7344,610.8906 780.0938,611.2188 Q779.4688,611.5469 778.9688,612.2969 Q778.4844,613.0469 778.4844,614.0781 L778.4844,615.1719 Q778.4844,616.4063 779.375,617.2344 Q780.2656,618.0469 781.8594,618.0469 Q782.7969,618.0469 783.4531,617.7969 Q783.8438,617.6406 784.2656,617.2031 Q784.5313,616.9375 784.6719,616.8594 Q784.8281,616.7813 785.0313,616.7813 Q785.3594,616.7813 785.6094,617.0469 Q785.875,617.2969 785.875,617.6406 Q785.875,617.9844 785.5313,618.3906 Q785.0313,618.9688 784.2344,619.2969 Q783.1563,619.75 781.8594,619.75 Q780.3438,619.75 779.1406,619.125 Q778.1563,618.625 777.4688,617.5625 Q776.7813,616.4844 776.7813,615.2031 L776.7813,614.0469 Q776.7813,612.7188 777.3906,611.5781 Q778.0156,610.4219 779.1094,609.8125 Q780.2031,609.1875 781.4375,609.1875 Q782.1719,609.1875 782.8125,609.3594 Q783.4688,609.5156 784.0156,609.875 Z " fill="#000000"/><text fill="#000000" font-family="sans-serif" font-size="12" lengthAdjust="spacing" textLength="52" x="801.75" y="618.9102">SNSUser</text><line style="stroke:#A80036;stroke-width:1.5;" x1="586.5" x2="1036.5" y1="630" y2="630"/><text fill="#000000" font-family="sans-serif" font-size="11" lengthAdjust="spacing" textLength="89" x="591.5" y="645.4189">-String citizenCard</text><text fill="#000000" font-family="sans-serif" font-size="11" lengthAdjust="spacing" textLength="90" x="591.5" y="659.2549">-String snsNumber</text><text fill="#000000" font-family="sans-serif" font-size="11" lengthAdjust="spacing" textLength="69" x="591.5" y="673.0908">-Date birthDay</text><text fill="#000000" font-family="sans-serif" font-size="11" lengthAdjust="spacing" textLength="64" x="591.5" y="686.9268">-Char gender</text><text fill="#000000" font-family="sans-serif" font-size="11" lengthAdjust="spacing" textLength="102" x="591.5" y="700.7627">-String phoneNumber</text><text fill="#000000" font-family="sans-serif" font-size="11" lengthAdjust="spacing" textLength="75" x="591.5" y="714.5986">-String address</text><line style="stroke:#A80036;stroke-width:1.5;" x1="586.5" x2="1036.5" y1="721.0156" y2="721.0156"/><text fill="#000000" font-family="sans-serif" font-size="11" lengthAdjust="spacing" textLength="440" x="591.5" y="736.4346">+SNSUser(citizenCard, snsNumber, name, birthDay, gender, phoneNumber, email, address)</text><!--MD5=[3fd616f346a44cd59a91eb10b19e157c]
class User--><rect codeLine="32" fill="#FEFECE" filter="url(#fbkgohyvygg4d)" height="103.3438" id="User" style="stroke:#A80036;stroke-width:1.5;" width="73" x="775" y="804"/><ellipse cx="796.3" cy="820" fill="#ADD1B2" rx="11" ry="11" style="stroke:#A80036;stroke-width:1.0;"/><path d="M799.0656,815.875 Q799.2219,815.6563 799.4094,815.5469 Q799.5969,815.4375 799.8156,815.4375 Q800.1906,815.4375 800.425,815.7031 Q800.6594,815.9531 800.6594,816.5625 L800.6594,818.0156 Q800.6594,818.625 800.425,818.8906 Q800.1906,819.1563 799.8156,819.1563 Q799.4719,819.1563 799.2688,818.9531 Q799.0656,818.7656 798.9563,818.25 Q798.9094,817.8906 798.7219,817.7031 Q798.3938,817.3281 797.7844,817.1094 Q797.175,816.8906 796.55,816.8906 Q795.7844,816.8906 795.1438,817.2188 Q794.5188,817.5469 794.0188,818.2969 Q793.5344,819.0469 793.5344,820.0781 L793.5344,821.1719 Q793.5344,822.4063 794.425,823.2344 Q795.3156,824.0469 796.9094,824.0469 Q797.8469,824.0469 798.5031,823.7969 Q798.8938,823.6406 799.3156,823.2031 Q799.5813,822.9375 799.7219,822.8594 Q799.8781,822.7813 800.0813,822.7813 Q800.4094,822.7813 800.6594,823.0469 Q800.925,823.2969 800.925,823.6406 Q800.925,823.9844 800.5813,824.3906 Q800.0813,824.9688 799.2844,825.2969 Q798.2063,825.75 796.9094,825.75 Q795.3938,825.75 794.1906,825.125 Q793.2063,824.625 792.5188,823.5625 Q791.8313,822.4844 791.8313,821.2031 L791.8313,820.0469 Q791.8313,818.7188 792.4406,817.5781 Q793.0656,816.4219 794.1594,815.8125 Q795.2531,815.1875 796.4875,815.1875 Q797.2219,815.1875 797.8625,815.3594 Q798.5188,815.5156 799.0656,815.875 Z " fill="#000000"/><text fill="#000000" font-family="sans-serif" font-size="12" lengthAdjust="spacing" textLength="27" x="811.7" y="824.9102">User</text><line style="stroke:#A80036;stroke-width:1.5;" x1="776" x2="847" y1="836" y2="836"/><text fill="#000000" font-family="sans-serif" font-size="11" lengthAdjust="spacing" textLength="61" x="781" y="851.4189">-String name</text><text fill="#000000" font-family="sans-serif" font-size="11" lengthAdjust="spacing" textLength="59" x="781" y="865.2549">-String email</text><text fill="#000000" font-family="sans-serif" font-size="11" lengthAdjust="spacing" textLength="57" x="781" y="879.0908">-String pwd</text><text fill="#000000" font-family="sans-serif" font-size="11" lengthAdjust="spacing" textLength="61" x="781" y="892.9268">-String roleId</text><line style="stroke:#A80036;stroke-width:1.5;" x1="776" x2="847" y1="899.3438" y2="899.3438"/><!--MD5=[a5ad3856b0c65e07b10297b4477b22bb]
class SNSUserStore--><rect codeLine="39" fill="#FEFECE" filter="url(#fbkgohyvygg4d)" height="103.3438" id="SNSUserStore" style="stroke:#A80036;stroke-width:1.5;" width="196" x="291.5" y="417"/><ellipse cx="344.75" cy="433" fill="#ADD1B2" rx="11" ry="11" style="stroke:#A80036;stroke-width:1.0;"/><path d="M347.5156,428.875 Q347.6719,428.6563 347.8594,428.5469 Q348.0469,428.4375 348.2656,428.4375 Q348.6406,428.4375 348.875,428.7031 Q349.1094,428.9531 349.1094,429.5625 L349.1094,431.0156 Q349.1094,431.625 348.875,431.8906 Q348.6406,432.1563 348.2656,432.1563 Q347.9219,432.1563 347.7188,431.9531 Q347.5156,431.7656 347.4063,431.25 Q347.3594,430.8906 347.1719,430.7031 Q346.8438,430.3281 346.2344,430.1094 Q345.625,429.8906 345,429.8906 Q344.2344,429.8906 343.5938,430.2188 Q342.9688,430.5469 342.4688,431.2969 Q341.9844,432.0469 341.9844,433.0781 L341.9844,434.1719 Q341.9844,435.4063 342.875,436.2344 Q343.7656,437.0469 345.3594,437.0469 Q346.2969,437.0469 346.9531,436.7969 Q347.3438,436.6406 347.7656,436.2031 Q348.0313,435.9375 348.1719,435.8594 Q348.3281,435.7813 348.5313,435.7813 Q348.8594,435.7813 349.1094,436.0469 Q349.375,436.2969 349.375,436.6406 Q349.375,436.9844 349.0313,437.3906 Q348.5313,437.9688 347.7344,438.2969 Q346.6563,438.75 345.3594,438.75 Q343.8438,438.75 342.6406,438.125 Q341.6563,437.625 340.9688,436.5625 Q340.2813,435.4844 340.2813,434.2031 L340.2813,433.0469 Q340.2813,431.7188 340.8906,430.5781 Q341.5156,429.4219 342.6094,428.8125 Q343.7031,428.1875 344.9375,428.1875 Q345.6719,428.1875 346.3125,428.3594 Q346.9688,428.5156 347.5156,428.875 Z " fill="#000000"/><text fill="#000000" font-family="sans-serif" font-size="12" lengthAdjust="spacing" textLength="81" x="365.25" y="437.9102">SNSUserStore</text><line style="stroke:#A80036;stroke-width:1.5;" x1="292.5" x2="486.5" y1="449" y2="449"/><line style="stroke:#A80036;stroke-width:1.5;" x1="292.5" x2="486.5" y1="457" y2="457"/><text fill="#000000" font-family="sans-serif" font-size="11" lengthAdjust="spacing" textLength="184" x="297.5" y="472.4189">+createUser(name, email, pwd, roleId)</text><text fill="#000000" font-family="sans-serif" font-size="11" lengthAdjust="spacing" textLength="96" x="297.5" y="486.2549">+validateUser(user)</text><text fill="#000000" font-family="sans-serif" font-size="11" lengthAdjust="spacing" textLength="83" x="297.5" y="500.0908">+saveUser(user)</text><text fill="#000000" font-family="sans-serif" font-size="11" lengthAdjust="spacing" textLength="115" x="297.5" y="513.9268">+checkDuplicates(user)</text><!--MD5=[9a2889027d1a5f59ee05c53124f224f8]
class PasswordGenerator--><rect codeLine="46" fill="#FEFECE" filter="url(#fbkgohyvygg4d)" height="61.8359" id="PasswordGenerator" style="stroke:#A80036;stroke-width:1.5;" width="143" x="407" y="639.5"/><ellipse cx="422" cy="655.5" fill="#ADD1B2" rx="11" ry="11" style="stroke:#A80036;stroke-width:1.0;"/><path d="M424.7656,651.375 Q424.9219,651.1563 425.1094,651.0469 Q425.2969,650.9375 425.5156,650.9375 Q425.8906,650.9375 426.125,651.2031 Q426.3594,651.4531 426.3594,652.0625 L426.3594,653.5156 Q426.3594,654.125 426.125,654.3906 Q425.8906,654.6563 425.5156,654.6563 Q425.1719,654.6563 424.9688,654.4531 Q424.7656,654.2656 424.6563,653.75 Q424.6094,653.3906 424.4219,653.2031 Q424.0938,652.8281 423.4844,652.6094 Q422.875,652.3906 422.25,652.3906 Q421.4844,652.3906 420.8438,652.7188 Q420.2188,653.0469 419.7188,653.7969 Q419.2344,654.5469 419.2344,655.5781 L419.2344,656.6719 Q419.2344,657.9063 420.125,658.7344 Q421.0156,659.5469 422.6094,659.5469 Q423.5469,659.5469 424.2031,659.2969 Q424.5938,659.1406 425.0156,658.7031 Q425.2813,658.4375 425.4219,658.3594 Q425.5781,658.2813 425.7813,658.2813 Q426.1094,658.2813 426.3594,658.5469 Q426.625,658.7969 426.625,659.1406 Q426.625,659.4844 426.2813,659.8906 Q425.7813,660.4688 424.9844,660.7969 Q423.9063,661.25 422.6094,661.25 Q421.0938,661.25 419.8906,660.625 Q418.9063,660.125 418.2188,659.0625 Q417.5313,657.9844 417.5313,656.7031 L417.5313,655.5469 Q417.5313,654.2188 418.1406,653.0781 Q418.7656,651.9219 419.8594,651.3125 Q420.9531,650.6875 422.1875,650.6875 Q422.9219,650.6875 423.5625,650.8594 Q424.2188,651.0156 424.7656,651.375 Z " fill="#000000"/><text fill="#000000" font-family="sans-serif" font-size="12" lengthAdjust="spacing" textLength="111" x="436" y="660.4102">PasswordGenerator</text><line style="stroke:#A80036;stroke-width:1.5;" x1="408" x2="549" y1="671.5" y2="671.5"/><line style="stroke:#A80036;stroke-width:1.5;" x1="408" x2="549" y1="679.5" y2="679.5"/><text fill="#000000" font-family="sans-serif" font-size="11" lengthAdjust="spacing" textLength="107" x="413" y="694.9189">+generatePassword()</text><!--MD5=[dbd744789a27dfb7a38205596e031569]
class EmailSender--><rect codeLine="50" fill="#FEFECE" filter="url(#fbkgohyvygg4d)" height="48" id="EmailSender" style="stroke:#A80036;stroke-width:1.5;" width="104" x="267.5" y="646.5"/><ellipse cx="282.5" cy="662.5" fill="#ADD1B2" rx="11" ry="11" style="stroke:#A80036;stroke-width:1.0;"/><path d="M285.2656,658.375 Q285.4219,658.1563 285.6094,658.0469 Q285.7969,657.9375 286.0156,657.9375 Q286.3906,657.9375 286.625,658.2031 Q286.8594,658.4531 286.8594,659.0625 L286.8594,660.5156 Q286.8594,661.125 286.625,661.3906 Q286.3906,661.6563 286.0156,661.6563 Q285.6719,661.6563 285.4688,661.4531 Q285.2656,661.2656 285.1563,660.75 Q285.1094,660.3906 284.9219,660.2031 Q284.5938,659.8281 283.9844,659.6094 Q283.375,659.3906 282.75,659.3906 Q281.9844,659.3906 281.3438,659.7188 Q280.7188,660.0469 280.2188,660.7969 Q279.7344,661.5469 279.7344,662.5781 L279.7344,663.6719 Q279.7344,664.9063 280.625,665.7344 Q281.5156,666.5469 283.1094,666.5469 Q284.0469,666.5469 284.7031,666.2969 Q285.0938,666.1406 285.5156,665.7031 Q285.7813,665.4375 285.9219,665.3594 Q286.0781,665.2813 286.2813,665.2813 Q286.6094,665.2813 286.8594,665.5469 Q287.125,665.7969 287.125,666.1406 Q287.125,666.4844 286.7813,666.8906 Q286.2813,667.4688 285.4844,667.7969 Q284.4063,668.25 283.1094,668.25 Q281.5938,668.25 280.3906,667.625 Q279.4063,667.125 278.7188,666.0625 Q278.0313,664.9844 278.0313,663.7031 L278.0313,662.5469 Q278.0313,661.2188 278.6406,660.0781 Q279.2656,658.9219 280.3594,658.3125 Q281.4531,657.6875 282.6875,657.6875 Q283.4219,657.6875 284.0625,657.8594 Q284.7188,658.0156 285.2656,658.375 Z " fill="#000000"/><text fill="#000000" font-family="sans-serif" font-size="12" lengthAdjust="spacing" textLength="72" x="296.5" y="667.4102">EmailSender</text><line style="stroke:#A80036;stroke-width:1.5;" x1="268.5" x2="370.5" y1="678.5" y2="678.5"/><line style="stroke:#A80036;stroke-width:1.5;" x1="268.5" x2="370.5" y1="686.5" y2="686.5"/><!--MD5=[1bd9080c7e199931e49bc5a1616681ac]
link Company to SNSUserStore--><path codeLine="53" d="M389.5,356.31 C389.5,373.96 389.5,393.83 389.5,411.84 " fill="none" id="Company-to-SNSUserStore" style="stroke:#A80036;stroke-width:1.0;stroke-dasharray:7.0,7.0;"/><polygon fill="#A80036" points="389.5,416.87,393.5,407.87,389.5,411.87,385.5,407.87,389.5,416.87" style="stroke:#A80036;stroke-width:1.0;"/><!--MD5=[717d4b03d3c4372f4eafe5e342a0a7dd]
link Company to AuthFacade--><path codeLine="54" d="M331.07,356.1 C311.65,374.31 290.64,395.65 273.5,417 C218.27,485.8 167.81,575.98 140.59,627.86 " fill="none" id="Company-to-AuthFacade" style="stroke:#A80036;stroke-width:1.0;stroke-dasharray:7.0,7.0;"/><polygon fill="#A80036" points="138.19,632.45,145.9035,626.3261,140.5058,628.0186,138.8133,622.6209,138.19,632.45" style="stroke:#A80036;stroke-width:1.0;"/><!--MD5=[1a8aa2b864b87f860d28abceaa28b7a5]
link Company to SNSUser--><path codeLine="55" d="M448.18,356.11 C519.85,417.94 641.73,523.07 724.37,594.35 " fill="none" id="Company-to-SNSUser" style="stroke:#A80036;stroke-width:1.0;"/><polygon fill="#A80036" points="728.28,597.71,724.0664,588.808,724.4898,594.449,718.8488,594.8723,728.28,597.71" style="stroke:#A80036;stroke-width:1.0;"/><text fill="#000000" font-family="sans-serif" font-size="13" lengthAdjust="spacing" textLength="37" x="636.5" y="473.9951">knows</text><text fill="#000000" font-family="sans-serif" font-size="13" lengthAdjust="spacing" textLength="7" x="448.9397" y="377.9883">1</text><text fill="#000000" font-family="sans-serif" font-size="13" lengthAdjust="spacing" textLength="5" x="714.4401" y="586.8994">*</text><!--MD5=[438f3eafa26f7112fe5a933ad6336f95]
link RegisterSNSUserController to Company--><path codeLine="57" d="M389.5,192.09 C389.5,208.89 389.5,229.12 389.5,247.7 " fill="none" id="RegisterSNSUserController-to-Company" style="stroke:#A80036;stroke-width:1.0;stroke-dasharray:7.0,7.0;"/><polygon fill="#A80036" points="389.5,252.89,393.5,243.89,389.5,247.89,385.5,243.89,389.5,252.89" style="stroke:#A80036;stroke-width:1.0;"/><!--MD5=[7bf6f1c174ef2382ab748189587a16d6]
link RegisterSNSUserUI to RegisterSNSUserController--><path codeLine="59" d="M389.5,55.04 C389.5,70.71 389.5,91.91 389.5,110.58 " fill="none" id="RegisterSNSUserUI-to-RegisterSNSUserController" style="stroke:#A80036;stroke-width:1.0;stroke-dasharray:7.0,7.0;"/><polygon fill="#A80036" points="389.5,115.77,393.5,106.77,389.5,110.77,385.5,106.77,389.5,115.77" style="stroke:#A80036;stroke-width:1.0;"/><!--MD5=[f51b69263ffc056cc84c9ec54d5aea1b]
link SNSUser to User--><path codeLine="62" d="M811.5,743.04 C811.5,761.48 811.5,781.06 811.5,798.58 " fill="none" id="SNSUser-to-User" style="stroke:#A80036;stroke-width:1.0;stroke-dasharray:7.0,7.0;"/><polygon fill="#A80036" points="811.5,803.95,815.5,794.95,811.5,798.95,807.5,794.95,811.5,803.95" style="stroke:#A80036;stroke-width:1.0;"/><!--MD5=[bc3349464b4fa8eddccb337858e655b4]
link SNSUserStore to AuthFacade--><path codeLine="64" d="M321.02,520.23 C275.31,554.08 216.04,597.99 173.63,629.4 " fill="none" id="SNSUserStore-to-AuthFacade" style="stroke:#A80036;stroke-width:1.0;"/><polygon fill="#A80036" points="169.58,632.4,179.1937,630.2605,173.5988,629.4252,174.434,623.8304,169.58,632.4" style="stroke:#A80036;stroke-width:1.0;"/><text fill="#000000" font-family="sans-serif" font-size="13" lengthAdjust="spacing" textLength="28" x="280.5" y="564.4951">uses</text><!--MD5=[b6e2ea40e00707054540f9b1c5529f61]
link SNSUserStore to PasswordGenerator--><path codeLine="65" d="M412.07,520.23 C427.96,555.93 448.82,602.8 462.89,634.42 " fill="none" id="SNSUserStore-to-PasswordGenerator" style="stroke:#A80036;stroke-width:1.0;"/><polygon fill="#A80036" points="465.09,639.36,465.0843,629.5111,463.0567,634.7921,457.7757,632.7645,465.09,639.36" style="stroke:#A80036;stroke-width:1.0;"/><text fill="#000000" font-family="sans-serif" font-size="13" lengthAdjust="spacing" textLength="28" x="431.5" y="564.4951">uses</text><!--MD5=[960de6b44c73ba19b3fff307658cbb8f]
link SNSUserStore to EmailSender--><path codeLine="66" d="M371.75,520.23 C358.29,558.67 340.3,610.08 329.32,641.43 " fill="none" id="SNSUserStore-to-EmailSender" style="stroke:#A80036;stroke-width:1.0;"/><polygon fill="#A80036" points="327.62,646.29,334.3715,639.1194,329.2737,641.5714,326.8217,636.4736,327.62,646.29" style="stroke:#A80036;stroke-width:1.0;"/><text fill="#000000" font-family="sans-serif" font-size="13" lengthAdjust="spacing" textLength="28" x="362.5" y="564.4951">uses</text><!--MD5=[b01d27099955aced792f1ce85db49798]
link SNSUserStore to SNSUser--><path codeLine="67" d="M487.64,516.01 C537.62,539.7 599.57,569.06 655.86,595.74 " fill="none" id="SNSUserStore-to-SNSUser" style="stroke:#A80036;stroke-width:1.0;stroke-dasharray:7.0,7.0;"/><polygon fill="#A80036" points="660.59,597.98,654.1748,590.507,656.0731,595.8359,650.7442,597.7341,660.59,597.98" style="stroke:#A80036;stroke-width:1.0;"/><!--MD5=[69e08fbc8115eaddd07da096492a5962]
@startuml US03_CD
skinparam classAttributeIconSize 0

class AuthFacade {
  + existsUser(email)
  + addUserWithRole(name, email, pwd, roleId)
}

class Company {
  - String designation
  + getAuthFacade()
  + getDesignation()
  + createUser(snsNumber, name, email, birthDay, phoneNumber)
}

class RegisterSNSUserController {
  + createSNSUser(snsNumber, name, birthDay, gender, phoneNumber, email)
  + saveSNSUser(user)
}

class RegisterSNSUserUI { }

class SNSUser {
  - String citizenCard
  - String snsNumber
  - Date birthDay
  - Char gender
  - String phoneNumber
  - String address
  + SNSUser(citizenCard, snsNumber, name, birthDay, gender, phoneNumber, email, address)
}

class User {
  - String name
  - String email
  - String pwd
  - String roleId
}

class SNSUserStore {
  + createUser(name, email, pwd, roleId)
  + validateUser(user)
  + saveUser(user)
  + checkDuplicates(user)
}

class PasswordGenerator {
  + generatePassword()
}

class EmailSender {}


Company ..> SNSUserStore
Company ..> AuthFacade
Company "1" - -> "*" SNSUser : knows

RegisterSNSUserController ..> Company

RegisterSNSUserUI ..> RegisterSNSUserController

' SNSUser - -|> User
SNSUser ..> User

SNSUserStore - -> AuthFacade : uses
SNSUserStore - -> PasswordGenerator : uses
SNSUserStore - -> EmailSender : uses
SNSUserStore ..> SNSUser

@enduml

@startuml US03_CD
skinparam classAttributeIconSize 0

class AuthFacade {
  + existsUser(email)
  + addUserWithRole(name, email, pwd, roleId)
}

class Company {
  - String designation
  + getAuthFacade()
  + getDesignation()
  + createUser(snsNumber, name, email, birthDay, phoneNumber)
}

class RegisterSNSUserController {
  + createSNSUser(snsNumber, name, birthDay, gender, phoneNumber, email)
  + saveSNSUser(user)
}

class RegisterSNSUserUI { }

class SNSUser {
  - String citizenCard
  - String snsNumber
  - Date birthDay
  - Char gender
  - String phoneNumber
  - String address
  + SNSUser(citizenCard, snsNumber, name, birthDay, gender, phoneNumber, email, address)
}

class User {
  - String name
  - String email
  - String pwd
  - String roleId
}

class SNSUserStore {
  + createUser(name, email, pwd, roleId)
  + validateUser(user)
  + saveUser(user)
  + checkDuplicates(user)
}

class PasswordGenerator {
  + generatePassword()
}

class EmailSender {}


Company ..> SNSUserStore
Company ..> AuthFacade
Company "1" - -> "*" SNSUser : knows

RegisterSNSUserController ..> Company

RegisterSNSUserUI ..> RegisterSNSUserController

SNSUser ..> User

SNSUserStore - -> AuthFacade : uses
SNSUserStore - -> PasswordGenerator : uses
SNSUserStore - -> EmailSender : uses
SNSUserStore ..> SNSUser

@enduml

PlantUML version 1.2022.0(Tue Jan 11 16:16:42 WET 2022)
(GPL source distribution)
Java Runtime: Java(TM) SE Runtime Environment
JVM: Java HotSpot(TM) 64-Bit Server VM
Default Encoding: Cp1252
Language: pt
Country: PT
--></g></svg>