<?xml version="1.0" encoding="UTF-8" standalone="no"?><svg xmlns="http://www.w3.org/2000/svg" xmlns:xlink="http://www.w3.org/1999/xlink" contentScriptType="application/ecmascript" contentStyleType="text/css" height="1754px" preserveAspectRatio="none" style="width:2354px;height:1754px;background:#FFFFFF;" version="1.1" viewBox="0 0 2354 1754" width="2354px" zoomAndPan="magnify"><defs><filter height="300%" id="f1hkc1tqqhjbez" width="300%" x="-1" y="-1"><feGaussianBlur result="blurOut" stdDeviation="2.0"/><feColorMatrix in="blurOut" result="blurOut2" type="matrix" values="0 0 0 0 0 0 0 0 0 0 0 0 0 0 0 0 0 0 .4 0"/><feOffset dx="4.0" dy="4.0" in="blurOut2" result="blurOut3"/><feBlend in="SourceGraphic" in2="blurOut3" mode="normal"/></filter></defs><g><!--MD5=[c508b5b6bbe276ff5e2700b6641f837f]
class Appointment--><rect codeLine="3" fill="#FEFECE" filter="url(#f1hkc1tqqhjbez)" height="200.1953" id="Appointment" style="stroke:#A80036;stroke-width:1.5;" width="325" x="1194.5" y="1156"/><ellipse cx="1318.25" cy="1172" fill="#ADD1B2" rx="11" ry="11" style="stroke:#A80036;stroke-width:1.0;"/><path d="M1321.0156,1167.875 Q1321.1719,1167.6563 1321.3594,1167.5469 Q1321.5469,1167.4375 1321.7656,1167.4375 Q1322.1406,1167.4375 1322.375,1167.7031 Q1322.6094,1167.9531 1322.6094,1168.5625 L1322.6094,1170.0156 Q1322.6094,1170.625 1322.375,1170.8906 Q1322.1406,1171.1563 1321.7656,1171.1563 Q1321.4219,1171.1563 1321.2188,1170.9531 Q1321.0156,1170.7656 1320.9063,1170.25 Q1320.8594,1169.8906 1320.6719,1169.7031 Q1320.3438,1169.3281 1319.7344,1169.1094 Q1319.125,1168.8906 1318.5,1168.8906 Q1317.7344,1168.8906 1317.0938,1169.2188 Q1316.4688,1169.5469 1315.9688,1170.2969 Q1315.4844,1171.0469 1315.4844,1172.0781 L1315.4844,1173.1719 Q1315.4844,1174.4063 1316.375,1175.2344 Q1317.2656,1176.0469 1318.8594,1176.0469 Q1319.7969,1176.0469 1320.4531,1175.7969 Q1320.8438,1175.6406 1321.2656,1175.2031 Q1321.5313,1174.9375 1321.6719,1174.8594 Q1321.8281,1174.7813 1322.0313,1174.7813 Q1322.3594,1174.7813 1322.6094,1175.0469 Q1322.875,1175.2969 1322.875,1175.6406 Q1322.875,1175.9844 1322.5313,1176.3906 Q1322.0313,1176.9688 1321.2344,1177.2969 Q1320.1563,1177.75 1318.8594,1177.75 Q1317.3438,1177.75 1316.1406,1177.125 Q1315.1563,1176.625 1314.4688,1175.5625 Q1313.7813,1174.4844 1313.7813,1173.2031 L1313.7813,1172.0469 Q1313.7813,1170.7188 1314.3906,1169.5781 Q1315.0156,1168.4219 1316.1094,1167.8125 Q1317.2031,1167.1875 1318.4375,1167.1875 Q1319.1719,1167.1875 1319.8125,1167.3594 Q1320.4688,1167.5156 1321.0156,1167.875 Z " fill="#000000"/><text fill="#000000" font-family="sans-serif" font-size="12" lengthAdjust="spacing" textLength="69" x="1338.75" y="1176.9102">Appointment</text><line style="stroke:#A80036;stroke-width:1.5;" x1="1195.5" x2="1518.5" y1="1188" y2="1188"/><text fill="#000000" font-family="sans-serif" font-size="11" lengthAdjust="spacing" textLength="98" x="1200.5" y="1203.4189">-snsUser : SNSUser</text><text fill="#000000" font-family="sans-serif" font-size="11" lengthAdjust="spacing" textLength="56" x="1200.5" y="1217.2549">-date : Date</text><text fill="#000000" font-family="sans-serif" font-size="11" lengthAdjust="spacing" textLength="133" x="1200.5" y="1231.0908">-center : VaccinationCenter</text><text fill="#000000" font-family="sans-serif" font-size="11" lengthAdjust="spacing" textLength="139" x="1200.5" y="1244.9268">-vaccineType : VaccineType</text><text fill="#000000" font-family="sans-serif" font-size="11" lengthAdjust="spacing" textLength="71" x="1200.5" y="1258.7627">-sms : boolean</text><line style="stroke:#A80036;stroke-width:1.5;" x1="1195.5" x2="1518.5" y1="1265.1797" y2="1265.1797"/><text fill="#000000" font-family="sans-serif" font-size="11" lengthAdjust="spacing" textLength="313" x="1200.5" y="1280.5986">+Appointment(SNSUserNumber, date, center, vaccineType, sms)</text><text fill="#000000" font-family="sans-serif" font-size="11" lengthAdjust="spacing" textLength="44" x="1200.5" y="1294.4346">+isSMS()</text><text fill="#000000" font-family="sans-serif" font-size="11" lengthAdjust="spacing" textLength="118" x="1200.5" y="1308.2705">+getVaccinationCenter()</text><text fill="#000000" font-family="sans-serif" font-size="11" lengthAdjust="spacing" textLength="71" x="1200.5" y="1322.1064">+getSnsUser()</text><text fill="#000000" font-family="sans-serif" font-size="11" lengthAdjust="spacing" textLength="51" x="1200.5" y="1335.9424">+getDate()</text><text fill="#000000" font-family="sans-serif" font-size="11" lengthAdjust="spacing" textLength="93" x="1200.5" y="1349.7783">+getVaccineType()</text><!--MD5=[e962253c6721a4b87d8c880d8815b08d]
class AppointmentScheduleList--><rect codeLine="17" fill="#FEFECE" filter="url(#f1hkc1tqqhjbez)" height="241.7031" id="AppointmentScheduleList" style="stroke:#A80036;stroke-width:1.5;" width="286" x="1015" y="606"/><ellipse cx="1083.25" cy="622" fill="#ADD1B2" rx="11" ry="11" style="stroke:#A80036;stroke-width:1.0;"/><path d="M1086.0156,617.875 Q1086.1719,617.6563 1086.3594,617.5469 Q1086.5469,617.4375 1086.7656,617.4375 Q1087.1406,617.4375 1087.375,617.7031 Q1087.6094,617.9531 1087.6094,618.5625 L1087.6094,620.0156 Q1087.6094,620.625 1087.375,620.8906 Q1087.1406,621.1563 1086.7656,621.1563 Q1086.4219,621.1563 1086.2188,620.9531 Q1086.0156,620.7656 1085.9063,620.25 Q1085.8594,619.8906 1085.6719,619.7031 Q1085.3438,619.3281 1084.7344,619.1094 Q1084.125,618.8906 1083.5,618.8906 Q1082.7344,618.8906 1082.0938,619.2188 Q1081.4688,619.5469 1080.9688,620.2969 Q1080.4844,621.0469 1080.4844,622.0781 L1080.4844,623.1719 Q1080.4844,624.4063 1081.375,625.2344 Q1082.2656,626.0469 1083.8594,626.0469 Q1084.7969,626.0469 1085.4531,625.7969 Q1085.8438,625.6406 1086.2656,625.2031 Q1086.5313,624.9375 1086.6719,624.8594 Q1086.8281,624.7813 1087.0313,624.7813 Q1087.3594,624.7813 1087.6094,625.0469 Q1087.875,625.2969 1087.875,625.6406 Q1087.875,625.9844 1087.5313,626.3906 Q1087.0313,626.9688 1086.2344,627.2969 Q1085.1563,627.75 1083.8594,627.75 Q1082.3438,627.75 1081.1406,627.125 Q1080.1563,626.625 1079.4688,625.5625 Q1078.7813,624.4844 1078.7813,623.2031 L1078.7813,622.0469 Q1078.7813,620.7188 1079.3906,619.5781 Q1080.0156,618.4219 1081.1094,617.8125 Q1082.2031,617.1875 1083.4375,617.1875 Q1084.1719,617.1875 1084.8125,617.3594 Q1085.4688,617.5156 1086.0156,617.875 Z " fill="#000000"/><text fill="#000000" font-family="sans-serif" font-size="12" lengthAdjust="spacing" textLength="141" x="1103.75" y="626.9102">AppointmentScheduleList</text><line style="stroke:#A80036;stroke-width:1.5;" x1="1016" x2="1300" y1="638" y2="638"/><text fill="#000000" font-family="sans-serif" font-size="11" lengthAdjust="spacing" textLength="227" x="1021" y="653.4189">-appointments: Map&lt;Calendar, Appointment[][]&gt;</text><text fill="#000000" font-family="sans-serif" font-size="11" lengthAdjust="spacing" textLength="82" x="1021" y="667.2549">-slotsPerDay : int</text><text fill="#000000" font-family="sans-serif" font-size="11" lengthAdjust="spacing" textLength="99" x="1021" y="681.0908">-vaccinesPerSlot: int</text><line style="stroke:#A80036;stroke-width:1.5;" x1="1016" x2="1300" y1="687.5078" y2="687.5078"/><text fill="#000000" font-family="sans-serif" font-size="11" lengthAdjust="spacing" textLength="274" x="1021" y="702.9268">+createAppointment(snsUser,date,vaccineTypeDto,sms)</text><text fill="#000000" font-family="sans-serif" font-size="11" lengthAdjust="spacing" textLength="156" x="1021" y="716.7627">+saveAppointment(appointment)</text><text fill="#000000" font-family="sans-serif" font-size="11" lengthAdjust="spacing" textLength="177" x="1021" y="730.5986">+hasAppointmentToday(snsNumber)</text><text fill="#000000" font-family="sans-serif" font-size="11" lengthAdjust="spacing" textLength="169" x="1021" y="744.4346">+validateAppointment(appointment)</text><text fill="#000000" font-family="sans-serif" font-size="11" lengthAdjust="spacing" textLength="133" x="1021" y="758.2705">+checkSlotAvailability(date)</text><text fill="#000000" font-family="sans-serif" font-size="11" lengthAdjust="spacing" textLength="0" x="1024" y="772.1064"/><text fill="#000000" font-family="sans-serif" font-size="11" lengthAdjust="spacing" textLength="108" x="1021" y="785.9424">-isValdSchedule(date)</text><text fill="#000000" font-family="sans-serif" font-size="11" lengthAdjust="spacing" textLength="142" x="1021" y="799.7783">-existsScheduleForDay(date)</text><text fill="#000000" font-family="sans-serif" font-size="11" lengthAdjust="spacing" textLength="152" x="1021" y="813.6143">-getAppointmentSlotIndex(date)</text><text fill="#000000" font-family="sans-serif" font-size="11" lengthAdjust="spacing" textLength="157" x="1021" y="827.4502">-generateMessage(appointment)</text><text fill="#000000" font-family="sans-serif" font-size="11" lengthAdjust="spacing" textLength="155" x="1021" y="841.2861">-sendNotification(notifcationDto)</text><!--MD5=[19e445fc4d3b48519cbe33da05496394]
class Vaccine--><rect codeLine="34" fill="#FEFECE" filter="url(#f1hkc1tqqhjbez)" height="117.1797" id="Vaccine" style="stroke:#A80036;stroke-width:1.5;" width="225" x="140.5" y="1581.5"/><ellipse cx="227.25" cy="1597.5" fill="#ADD1B2" rx="11" ry="11" style="stroke:#A80036;stroke-width:1.0;"/><path d="M230.0156,1593.375 Q230.1719,1593.1563 230.3594,1593.0469 Q230.5469,1592.9375 230.7656,1592.9375 Q231.1406,1592.9375 231.375,1593.2031 Q231.6094,1593.4531 231.6094,1594.0625 L231.6094,1595.5156 Q231.6094,1596.125 231.375,1596.3906 Q231.1406,1596.6563 230.7656,1596.6563 Q230.4219,1596.6563 230.2188,1596.4531 Q230.0156,1596.2656 229.9063,1595.75 Q229.8594,1595.3906 229.6719,1595.2031 Q229.3438,1594.8281 228.7344,1594.6094 Q228.125,1594.3906 227.5,1594.3906 Q226.7344,1594.3906 226.0938,1594.7188 Q225.4688,1595.0469 224.9688,1595.7969 Q224.4844,1596.5469 224.4844,1597.5781 L224.4844,1598.6719 Q224.4844,1599.9063 225.375,1600.7344 Q226.2656,1601.5469 227.8594,1601.5469 Q228.7969,1601.5469 229.4531,1601.2969 Q229.8438,1601.1406 230.2656,1600.7031 Q230.5313,1600.4375 230.6719,1600.3594 Q230.8281,1600.2813 231.0313,1600.2813 Q231.3594,1600.2813 231.6094,1600.5469 Q231.875,1600.7969 231.875,1601.1406 Q231.875,1601.4844 231.5313,1601.8906 Q231.0313,1602.4688 230.2344,1602.7969 Q229.1563,1603.25 227.8594,1603.25 Q226.3438,1603.25 225.1406,1602.625 Q224.1563,1602.125 223.4688,1601.0625 Q222.7813,1599.9844 222.7813,1598.7031 L222.7813,1597.5469 Q222.7813,1596.2188 223.3906,1595.0781 Q224.0156,1593.9219 225.1094,1593.3125 Q226.2031,1592.6875 227.4375,1592.6875 Q228.1719,1592.6875 228.8125,1592.8594 Q229.4688,1593.0156 230.0156,1593.375 Z " fill="#000000"/><text fill="#000000" font-family="sans-serif" font-size="12" lengthAdjust="spacing" textLength="43" x="247.75" y="1602.4102">Vaccine</text><line style="stroke:#A80036;stroke-width:1.5;" x1="141.5" x2="364.5" y1="1613.5" y2="1613.5"/><text fill="#000000" font-family="sans-serif" font-size="11" lengthAdjust="spacing" textLength="96" x="146.5" y="1628.9189">-designation : String</text><text fill="#000000" font-family="sans-serif" font-size="11" lengthAdjust="spacing" textLength="69" x="146.5" y="1642.7549">-brand : String</text><text fill="#000000" font-family="sans-serif" font-size="11" lengthAdjust="spacing" textLength="49" x="146.5" y="1656.5908">-id : String</text><text fill="#000000" font-family="sans-serif" font-size="11" lengthAdjust="spacing" textLength="119" x="146.5" y="1670.4268">-vacType : VaccineType</text><line style="stroke:#A80036;stroke-width:1.5;" x1="141.5" x2="364.5" y1="1676.8438" y2="1676.8438"/><text fill="#000000" font-family="sans-serif" font-size="11" lengthAdjust="spacing" textLength="213" x="146.5" y="1692.2627">+Vaccine(designation, id, brand, vacTypeId)</text><!--MD5=[1ad21b69415a111eb4699d10bab9c049]
class ScheduleVaccineReceptionistUI--><rect codeLine="43" fill="#FEFECE" filter="url(#f1hkc1tqqhjbez)" height="48" id="ScheduleVaccineReceptionistUI" style="stroke:#A80036;stroke-width:1.5;" width="208" x="1364" y="7"/><ellipse cx="1379" cy="23" fill="#ADD1B2" rx="11" ry="11" style="stroke:#A80036;stroke-width:1.0;"/><path d="M1381.7656,18.875 Q1381.9219,18.6563 1382.1094,18.5469 Q1382.2969,18.4375 1382.5156,18.4375 Q1382.8906,18.4375 1383.125,18.7031 Q1383.3594,18.9531 1383.3594,19.5625 L1383.3594,21.0156 Q1383.3594,21.625 1383.125,21.8906 Q1382.8906,22.1563 1382.5156,22.1563 Q1382.1719,22.1563 1381.9688,21.9531 Q1381.7656,21.7656 1381.6563,21.25 Q1381.6094,20.8906 1381.4219,20.7031 Q1381.0938,20.3281 1380.4844,20.1094 Q1379.875,19.8906 1379.25,19.8906 Q1378.4844,19.8906 1377.8438,20.2188 Q1377.2188,20.5469 1376.7188,21.2969 Q1376.2344,22.0469 1376.2344,23.0781 L1376.2344,24.1719 Q1376.2344,25.4063 1377.125,26.2344 Q1378.0156,27.0469 1379.6094,27.0469 Q1380.5469,27.0469 1381.2031,26.7969 Q1381.5938,26.6406 1382.0156,26.2031 Q1382.2813,25.9375 1382.4219,25.8594 Q1382.5781,25.7813 1382.7813,25.7813 Q1383.1094,25.7813 1383.3594,26.0469 Q1383.625,26.2969 1383.625,26.6406 Q1383.625,26.9844 1383.2813,27.3906 Q1382.7813,27.9688 1381.9844,28.2969 Q1380.9063,28.75 1379.6094,28.75 Q1378.0938,28.75 1376.8906,28.125 Q1375.9063,27.625 1375.2188,26.5625 Q1374.5313,25.4844 1374.5313,24.2031 L1374.5313,23.0469 Q1374.5313,21.7188 1375.1406,20.5781 Q1375.7656,19.4219 1376.8594,18.8125 Q1377.9531,18.1875 1379.1875,18.1875 Q1379.9219,18.1875 1380.5625,18.3594 Q1381.2188,18.5156 1381.7656,18.875 Z " fill="#000000"/><text fill="#000000" font-family="sans-serif" font-size="12" lengthAdjust="spacing" textLength="176" x="1393" y="27.9102">ScheduleVaccineReceptionistUI</text><line style="stroke:#A80036;stroke-width:1.5;" x1="1365" x2="1571" y1="39" y2="39"/><line style="stroke:#A80036;stroke-width:1.5;" x1="1365" x2="1571" y1="47" y2="47"/><!--MD5=[f6c4ddcb8ab0ba42ee4498672e538bba]
class ScheduleVaccineController--><rect codeLine="45" fill="#FEFECE" filter="url(#f1hkc1tqqhjbez)" height="131.0156" id="ScheduleVaccineController" style="stroke:#A80036;stroke-width:1.5;" width="328" x="1304" y="116"/><ellipse cx="1389.25" cy="132" fill="#ADD1B2" rx="11" ry="11" style="stroke:#A80036;stroke-width:1.0;"/><path d="M1392.0156,127.875 Q1392.1719,127.6563 1392.3594,127.5469 Q1392.5469,127.4375 1392.7656,127.4375 Q1393.1406,127.4375 1393.375,127.7031 Q1393.6094,127.9531 1393.6094,128.5625 L1393.6094,130.0156 Q1393.6094,130.625 1393.375,130.8906 Q1393.1406,131.1563 1392.7656,131.1563 Q1392.4219,131.1563 1392.2188,130.9531 Q1392.0156,130.7656 1391.9063,130.25 Q1391.8594,129.8906 1391.6719,129.7031 Q1391.3438,129.3281 1390.7344,129.1094 Q1390.125,128.8906 1389.5,128.8906 Q1388.7344,128.8906 1388.0938,129.2188 Q1387.4688,129.5469 1386.9688,130.2969 Q1386.4844,131.0469 1386.4844,132.0781 L1386.4844,133.1719 Q1386.4844,134.4063 1387.375,135.2344 Q1388.2656,136.0469 1389.8594,136.0469 Q1390.7969,136.0469 1391.4531,135.7969 Q1391.8438,135.6406 1392.2656,135.2031 Q1392.5313,134.9375 1392.6719,134.8594 Q1392.8281,134.7813 1393.0313,134.7813 Q1393.3594,134.7813 1393.6094,135.0469 Q1393.875,135.2969 1393.875,135.6406 Q1393.875,135.9844 1393.5313,136.3906 Q1393.0313,136.9688 1392.2344,137.2969 Q1391.1563,137.75 1389.8594,137.75 Q1388.3438,137.75 1387.1406,137.125 Q1386.1563,136.625 1385.4688,135.5625 Q1384.7813,134.4844 1384.7813,133.2031 L1384.7813,132.0469 Q1384.7813,130.7188 1385.3906,129.5781 Q1386.0156,128.4219 1387.1094,127.8125 Q1388.2031,127.1875 1389.4375,127.1875 Q1390.1719,127.1875 1390.8125,127.3594 Q1391.4688,127.5156 1392.0156,127.875 Z " fill="#000000"/><text fill="#000000" font-family="sans-serif" font-size="12" lengthAdjust="spacing" textLength="149" x="1409.75" y="136.9102">ScheduleVaccineController</text><line style="stroke:#A80036;stroke-width:1.5;" x1="1305" x2="1631" y1="148" y2="148"/><line style="stroke:#A80036;stroke-width:1.5;" x1="1305" x2="1631" y1="156" y2="156"/><text fill="#000000" font-family="sans-serif" font-size="11" lengthAdjust="spacing" textLength="189" x="1310" y="171.4189">+ScheduleVaccineController(company)</text><text fill="#000000" font-family="sans-serif" font-size="11" lengthAdjust="spacing" textLength="306" x="1310" y="185.2549">+createAppointment(snsNumber,date,center,vaccineType,sms)</text><text fill="#000000" font-family="sans-serif" font-size="11" lengthAdjust="spacing" textLength="145" x="1310" y="199.0908">+getSuggestedVaccineType()</text><text fill="#000000" font-family="sans-serif" font-size="11" lengthAdjust="spacing" textLength="316" x="1310" y="212.9268">+getListOfVaccinationCentersWithVaccineType(vaccineTypeDto)</text><text fill="#000000" font-family="sans-serif" font-size="11" lengthAdjust="spacing" textLength="128" x="1310" y="226.7627">+getListOfVaccineTypes()</text><text fill="#000000" font-family="sans-serif" font-size="11" lengthAdjust="spacing" textLength="38" x="1310" y="240.5986">+save()</text><!--MD5=[02e4b9b7573f1156f41e60aa5b4e25a4]
class Company--><rect codeLine="55" fill="#FEFECE" filter="url(#f1hkc1tqqhjbez)" height="117.1797" id="Company" style="stroke:#A80036;stroke-width:1.5;" width="214" x="1020" y="308"/><ellipse cx="1096.25" cy="324" fill="#ADD1B2" rx="11" ry="11" style="stroke:#A80036;stroke-width:1.0;"/><path d="M1099.0156,319.875 Q1099.1719,319.6563 1099.3594,319.5469 Q1099.5469,319.4375 1099.7656,319.4375 Q1100.1406,319.4375 1100.375,319.7031 Q1100.6094,319.9531 1100.6094,320.5625 L1100.6094,322.0156 Q1100.6094,322.625 1100.375,322.8906 Q1100.1406,323.1563 1099.7656,323.1563 Q1099.4219,323.1563 1099.2188,322.9531 Q1099.0156,322.7656 1098.9063,322.25 Q1098.8594,321.8906 1098.6719,321.7031 Q1098.3438,321.3281 1097.7344,321.1094 Q1097.125,320.8906 1096.5,320.8906 Q1095.7344,320.8906 1095.0938,321.2188 Q1094.4688,321.5469 1093.9688,322.2969 Q1093.4844,323.0469 1093.4844,324.0781 L1093.4844,325.1719 Q1093.4844,326.4063 1094.375,327.2344 Q1095.2656,328.0469 1096.8594,328.0469 Q1097.7969,328.0469 1098.4531,327.7969 Q1098.8438,327.6406 1099.2656,327.2031 Q1099.5313,326.9375 1099.6719,326.8594 Q1099.8281,326.7813 1100.0313,326.7813 Q1100.3594,326.7813 1100.6094,327.0469 Q1100.875,327.2969 1100.875,327.6406 Q1100.875,327.9844 1100.5313,328.3906 Q1100.0313,328.9688 1099.2344,329.2969 Q1098.1563,329.75 1096.8594,329.75 Q1095.3438,329.75 1094.1406,329.125 Q1093.1563,328.625 1092.4688,327.5625 Q1091.7813,326.4844 1091.7813,325.2031 L1091.7813,324.0469 Q1091.7813,322.7188 1092.3906,321.5781 Q1093.0156,320.4219 1094.1094,319.8125 Q1095.2031,319.1875 1096.4375,319.1875 Q1097.1719,319.1875 1097.8125,319.3594 Q1098.4688,319.5156 1099.0156,319.875 Z " fill="#000000"/><text fill="#000000" font-family="sans-serif" font-size="12" lengthAdjust="spacing" textLength="53" x="1116.75" y="328.9102">Company</text><line style="stroke:#A80036;stroke-width:1.5;" x1="1021" x2="1233" y1="340" y2="340"/><text fill="#000000" font-family="sans-serif" font-size="11" lengthAdjust="spacing" textLength="93" x="1026" y="355.4189">-designation: String</text><line style="stroke:#A80036;stroke-width:1.5;" x1="1021" x2="1233" y1="361.8359" y2="361.8359"/><text fill="#000000" font-family="sans-serif" font-size="11" lengthAdjust="spacing" textLength="202" x="1026" y="377.2549">+getOngoingOutbreakVaccineTypeCode()</text><text fill="#000000" font-family="sans-serif" font-size="11" lengthAdjust="spacing" textLength="144" x="1026" y="391.0908">+getVaccinationCenterStore()</text><text fill="#000000" font-family="sans-serif" font-size="11" lengthAdjust="spacing" textLength="119" x="1026" y="404.9268">+getVaccineTypeStore()</text><text fill="#000000" font-family="sans-serif" font-size="11" lengthAdjust="spacing" textLength="97" x="1026" y="418.7627">+getSnsUserStore()</text><!--MD5=[72be06cc7ae02ccc98efe28a50e62246]
class SNSUser--><rect codeLine="63" fill="#FEFECE" filter="url(#f1hkc1tqqhjbez)" height="186.3594" id="SNSUser" style="stroke:#A80036;stroke-width:1.5;" width="452" x="1250" y="885"/><ellipse cx="1445.75" cy="901" fill="#ADD1B2" rx="11" ry="11" style="stroke:#A80036;stroke-width:1.0;"/><path d="M1448.5156,896.875 Q1448.6719,896.6563 1448.8594,896.5469 Q1449.0469,896.4375 1449.2656,896.4375 Q1449.6406,896.4375 1449.875,896.7031 Q1450.1094,896.9531 1450.1094,897.5625 L1450.1094,899.0156 Q1450.1094,899.625 1449.875,899.8906 Q1449.6406,900.1563 1449.2656,900.1563 Q1448.9219,900.1563 1448.7188,899.9531 Q1448.5156,899.7656 1448.4063,899.25 Q1448.3594,898.8906 1448.1719,898.7031 Q1447.8438,898.3281 1447.2344,898.1094 Q1446.625,897.8906 1446,897.8906 Q1445.2344,897.8906 1444.5938,898.2188 Q1443.9688,898.5469 1443.4688,899.2969 Q1442.9844,900.0469 1442.9844,901.0781 L1442.9844,902.1719 Q1442.9844,903.4063 1443.875,904.2344 Q1444.7656,905.0469 1446.3594,905.0469 Q1447.2969,905.0469 1447.9531,904.7969 Q1448.3438,904.6406 1448.7656,904.2031 Q1449.0313,903.9375 1449.1719,903.8594 Q1449.3281,903.7813 1449.5313,903.7813 Q1449.8594,903.7813 1450.1094,904.0469 Q1450.375,904.2969 1450.375,904.6406 Q1450.375,904.9844 1450.0313,905.3906 Q1449.5313,905.9688 1448.7344,906.2969 Q1447.6563,906.75 1446.3594,906.75 Q1444.8438,906.75 1443.6406,906.125 Q1442.6563,905.625 1441.9688,904.5625 Q1441.2813,903.4844 1441.2813,902.2031 L1441.2813,901.0469 Q1441.2813,899.7188 1441.8906,898.5781 Q1442.5156,897.4219 1443.6094,896.8125 Q1444.7031,896.1875 1445.9375,896.1875 Q1446.6719,896.1875 1447.3125,896.3594 Q1447.9688,896.5156 1448.5156,896.875 Z " fill="#000000"/><text fill="#000000" font-family="sans-serif" font-size="12" lengthAdjust="spacing" textLength="52" x="1466.25" y="905.9102">SNSUser</text><line style="stroke:#A80036;stroke-width:1.5;" x1="1251" x2="1701" y1="917" y2="917"/><text fill="#000000" font-family="sans-serif" font-size="11" lengthAdjust="spacing" textLength="92" x="1256" y="932.4189">-citizenCard: String</text><text fill="#000000" font-family="sans-serif" font-size="11" lengthAdjust="spacing" textLength="93" x="1256" y="946.2549">-snsNumber: String</text><text fill="#000000" font-family="sans-serif" font-size="11" lengthAdjust="spacing" textLength="72" x="1256" y="960.0908">-birthDay: Date</text><text fill="#000000" font-family="sans-serif" font-size="11" lengthAdjust="spacing" textLength="67" x="1256" y="973.9268">-gender: Char</text><text fill="#000000" font-family="sans-serif" font-size="11" lengthAdjust="spacing" textLength="105" x="1256" y="987.7627">-phoneNumber: String</text><text fill="#000000" font-family="sans-serif" font-size="11" lengthAdjust="spacing" textLength="78" x="1256" y="1001.5986">-address: String</text><text fill="#000000" font-family="sans-serif" font-size="11" lengthAdjust="spacing" textLength="162" x="1256" y="1015.4346">-userHealthData : UserHealthData</text><line style="stroke:#A80036;stroke-width:1.5;" x1="1251" x2="1701" y1="1021.8516" y2="1021.8516"/><text fill="#000000" font-family="sans-serif" font-size="11" lengthAdjust="spacing" textLength="440" x="1256" y="1037.2705">+SNSUser(citizenCard, snsNumber, name, birthDay, gender, phoneNumber, email, address)</text><text fill="#000000" font-family="sans-serif" font-size="11" lengthAdjust="spacing" textLength="179" x="1256" y="1051.1064">+addAppointmentToList(appointment)</text><text fill="#000000" font-family="sans-serif" font-size="11" lengthAdjust="spacing" textLength="234" x="1256" y="1064.9424">+hasAppointmentForVaccineType(vaccineType)</text><!--MD5=[3295f5e61508e1eafd2783308a1a48b5]
class UserHealthData--><rect codeLine="76" fill="#FEFECE" filter="url(#f1hkc1tqqhjbez)" height="75.6719" id="UserHealthData" style="stroke:#A80036;stroke-width:1.5;" width="175" x="1406.5" y="493"/><ellipse cx="1445.8" cy="509" fill="#ADD1B2" rx="11" ry="11" style="stroke:#A80036;stroke-width:1.0;"/><path d="M1448.5656,504.875 Q1448.7219,504.6563 1448.9094,504.5469 Q1449.0969,504.4375 1449.3156,504.4375 Q1449.6906,504.4375 1449.925,504.7031 Q1450.1594,504.9531 1450.1594,505.5625 L1450.1594,507.0156 Q1450.1594,507.625 1449.925,507.8906 Q1449.6906,508.1563 1449.3156,508.1563 Q1448.9719,508.1563 1448.7688,507.9531 Q1448.5656,507.7656 1448.4563,507.25 Q1448.4094,506.8906 1448.2219,506.7031 Q1447.8938,506.3281 1447.2844,506.1094 Q1446.675,505.8906 1446.05,505.8906 Q1445.2844,505.8906 1444.6438,506.2188 Q1444.0188,506.5469 1443.5188,507.2969 Q1443.0344,508.0469 1443.0344,509.0781 L1443.0344,510.1719 Q1443.0344,511.4063 1443.925,512.2344 Q1444.8156,513.0469 1446.4094,513.0469 Q1447.3469,513.0469 1448.0031,512.7969 Q1448.3938,512.6406 1448.8156,512.2031 Q1449.0813,511.9375 1449.2219,511.8594 Q1449.3781,511.7813 1449.5813,511.7813 Q1449.9094,511.7813 1450.1594,512.0469 Q1450.425,512.2969 1450.425,512.6406 Q1450.425,512.9844 1450.0813,513.3906 Q1449.5813,513.9688 1448.7844,514.2969 Q1447.7063,514.75 1446.4094,514.75 Q1444.8938,514.75 1443.6906,514.125 Q1442.7063,513.625 1442.0188,512.5625 Q1441.3313,511.4844 1441.3313,510.2031 L1441.3313,509.0469 Q1441.3313,507.7188 1441.9406,506.5781 Q1442.5656,505.4219 1443.6594,504.8125 Q1444.7531,504.1875 1445.9875,504.1875 Q1446.7219,504.1875 1447.3625,504.3594 Q1448.0188,504.5156 1448.5656,504.875 Z " fill="#000000"/><text fill="#000000" font-family="sans-serif" font-size="12" lengthAdjust="spacing" textLength="89" x="1465.2" y="513.9102">UserHealthData</text><line style="stroke:#A80036;stroke-width:1.5;" x1="1407.5" x2="1580.5" y1="525" y2="525"/><text fill="#000000" font-family="sans-serif" font-size="11" lengthAdjust="spacing" textLength="163" x="1412.5" y="540.4189">-appointments: List&lt;Appointment&gt;</text><line style="stroke:#A80036;stroke-width:1.5;" x1="1407.5" x2="1580.5" y1="546.8359" y2="546.8359"/><text fill="#000000" font-family="sans-serif" font-size="11" lengthAdjust="spacing" textLength="150" x="1412.5" y="562.2549">+addAppointment(appointment)</text><!--MD5=[de60e6d4f424ae4d0522096f76a59010]
class VaccinationCenter--><rect codeLine="81" fill="#FEFECE" filter="url(#f1hkc1tqqhjbez)" height="200.1953" id="VaccinationCenter" style="stroke:#A80036;stroke-width:1.5;" width="838" x="269" y="878"/><ellipse cx="633.75" cy="894" fill="#ADD1B2" rx="11" ry="11" style="stroke:#A80036;stroke-width:1.0;"/><path d="M636.5156,889.875 Q636.6719,889.6563 636.8594,889.5469 Q637.0469,889.4375 637.2656,889.4375 Q637.6406,889.4375 637.875,889.7031 Q638.1094,889.9531 638.1094,890.5625 L638.1094,892.0156 Q638.1094,892.625 637.875,892.8906 Q637.6406,893.1563 637.2656,893.1563 Q636.9219,893.1563 636.7188,892.9531 Q636.5156,892.7656 636.4063,892.25 Q636.3594,891.8906 636.1719,891.7031 Q635.8438,891.3281 635.2344,891.1094 Q634.625,890.8906 634,890.8906 Q633.2344,890.8906 632.5938,891.2188 Q631.9688,891.5469 631.4688,892.2969 Q630.9844,893.0469 630.9844,894.0781 L630.9844,895.1719 Q630.9844,896.4063 631.875,897.2344 Q632.7656,898.0469 634.3594,898.0469 Q635.2969,898.0469 635.9531,897.7969 Q636.3438,897.6406 636.7656,897.2031 Q637.0313,896.9375 637.1719,896.8594 Q637.3281,896.7813 637.5313,896.7813 Q637.8594,896.7813 638.1094,897.0469 Q638.375,897.2969 638.375,897.6406 Q638.375,897.9844 638.0313,898.3906 Q637.5313,898.9688 636.7344,899.2969 Q635.6563,899.75 634.3594,899.75 Q632.8438,899.75 631.6406,899.125 Q630.6563,898.625 629.9688,897.5625 Q629.2813,896.4844 629.2813,895.2031 L629.2813,894.0469 Q629.2813,892.7188 629.8906,891.5781 Q630.5156,890.4219 631.6094,889.8125 Q632.7031,889.1875 633.9375,889.1875 Q634.6719,889.1875 635.3125,889.3594 Q635.9688,889.5156 636.5156,889.875 Z " fill="#000000"/><text fill="#000000" font-family="sans-serif" font-size="12" lengthAdjust="spacing" textLength="100" x="654.25" y="898.9102">VaccinationCenter</text><line style="stroke:#A80036;stroke-width:1.5;" x1="270" x2="1106" y1="910" y2="910"/><text fill="#000000" font-family="sans-serif" font-size="11" lengthAdjust="spacing" textLength="64" x="275" y="925.4189">-name: String</text><text fill="#000000" font-family="sans-serif" font-size="11" lengthAdjust="spacing" textLength="78" x="275" y="939.2549">-address: String</text><text fill="#000000" font-family="sans-serif" font-size="11" lengthAdjust="spacing" textLength="104" x="275" y="953.0908">-emailAddress: String</text><text fill="#000000" font-family="sans-serif" font-size="11" lengthAdjust="spacing" textLength="105" x="275" y="966.9268">-phoneNumber: String</text><text fill="#000000" font-family="sans-serif" font-size="11" lengthAdjust="spacing" textLength="91" x="275" y="980.7627">-faxNumber: String</text><text fill="#000000" font-family="sans-serif" font-size="11" lengthAdjust="spacing" textLength="119" x="275" y="994.5986">-websiteAddress: String</text><line style="stroke:#A80036;stroke-width:1.5;" x1="270" x2="1106" y1="1001.0156" y2="1001.0156"/><text fill="#000000" font-family="sans-serif" font-size="11" lengthAdjust="spacing" textLength="826" x="275" y="1016.4346">+VaccinationCenter(name,address,emailAddres,phoneNumber,faxNumber,websiteAddress,openingHours,closingHours,slotDuration,maximumVaccinesPerSlot,coordinator)</text><text fill="#000000" font-family="sans-serif" font-size="11" lengthAdjust="spacing" textLength="87" x="275" y="1030.2705">+isOpenAt(hours)</text><text fill="#000000" font-family="sans-serif" font-size="11" lengthAdjust="spacing" textLength="114" x="275" y="1044.1064">+getRealClosingHours()</text><text fill="#000000" font-family="sans-serif" font-size="11" lengthAdjust="spacing" textLength="130" x="275" y="1057.9424">+hasAvailabilityInSlot(date)</text><text fill="#000000" font-family="sans-serif" font-size="11" lengthAdjust="spacing" textLength="195" x="275" y="1071.7783">+administersVaccineType(vaccineType)</text><!--MD5=[2e42295458bb0bec21c9622a623eb29e]
class Time--><rect codeLine="95" fill="#FEFECE" filter="url(#f1hkc1tqqhjbez)" height="89.5078" id="Time" style="stroke:#A80036;stroke-width:1.5;" width="256" x="285" y="1211"/><ellipse cx="394.75" cy="1227" fill="#ADD1B2" rx="11" ry="11" style="stroke:#A80036;stroke-width:1.0;"/><path d="M397.5156,1222.875 Q397.6719,1222.6563 397.8594,1222.5469 Q398.0469,1222.4375 398.2656,1222.4375 Q398.6406,1222.4375 398.875,1222.7031 Q399.1094,1222.9531 399.1094,1223.5625 L399.1094,1225.0156 Q399.1094,1225.625 398.875,1225.8906 Q398.6406,1226.1563 398.2656,1226.1563 Q397.9219,1226.1563 397.7188,1225.9531 Q397.5156,1225.7656 397.4063,1225.25 Q397.3594,1224.8906 397.1719,1224.7031 Q396.8438,1224.3281 396.2344,1224.1094 Q395.625,1223.8906 395,1223.8906 Q394.2344,1223.8906 393.5938,1224.2188 Q392.9688,1224.5469 392.4688,1225.2969 Q391.9844,1226.0469 391.9844,1227.0781 L391.9844,1228.1719 Q391.9844,1229.4063 392.875,1230.2344 Q393.7656,1231.0469 395.3594,1231.0469 Q396.2969,1231.0469 396.9531,1230.7969 Q397.3438,1230.6406 397.7656,1230.2031 Q398.0313,1229.9375 398.1719,1229.8594 Q398.3281,1229.7813 398.5313,1229.7813 Q398.8594,1229.7813 399.1094,1230.0469 Q399.375,1230.2969 399.375,1230.6406 Q399.375,1230.9844 399.0313,1231.3906 Q398.5313,1231.9688 397.7344,1232.2969 Q396.6563,1232.75 395.3594,1232.75 Q393.8438,1232.75 392.6406,1232.125 Q391.6563,1231.625 390.9688,1230.5625 Q390.2813,1229.4844 390.2813,1228.2031 L390.2813,1227.0469 Q390.2813,1225.7188 390.8906,1224.5781 Q391.5156,1223.4219 392.6094,1222.8125 Q393.7031,1222.1875 394.9375,1222.1875 Q395.6719,1222.1875 396.3125,1222.3594 Q396.9688,1222.5156 397.5156,1222.875 Z " fill="#000000"/><text fill="#000000" font-family="sans-serif" font-size="12" lengthAdjust="spacing" textLength="28" x="415.25" y="1231.9102">Time</text><line style="stroke:#A80036;stroke-width:1.5;" x1="286" x2="540" y1="1243" y2="1243"/><text fill="#000000" font-family="sans-serif" font-size="11" lengthAdjust="spacing" textLength="52" x="291" y="1258.4189">-hours : int</text><text fill="#000000" font-family="sans-serif" font-size="11" lengthAdjust="spacing" textLength="61" x="291" y="1272.2549">-minutes : int</text><line style="stroke:#A80036;stroke-width:1.5;" x1="286" x2="540" y1="1278.6719" y2="1278.6719"/><text fill="#000000" font-family="sans-serif" font-size="11" lengthAdjust="spacing" textLength="244" x="291" y="1294.0908">+isBetween(openingHours,getRealClosingHours())</text><!--MD5=[45c6380d22fb72521f5065026b277fb9]
class Slot--><rect codeLine="101" fill="#FEFECE" filter="url(#f1hkc1tqqhjbez)" height="75.6719" id="Slot" style="stroke:#A80036;stroke-width:1.5;" width="110" x="576" y="1218"/><ellipse cx="616.65" cy="1234" fill="#ADD1B2" rx="11" ry="11" style="stroke:#A80036;stroke-width:1.0;"/><path d="M619.4156,1229.875 Q619.5719,1229.6563 619.7594,1229.5469 Q619.9469,1229.4375 620.1656,1229.4375 Q620.5406,1229.4375 620.775,1229.7031 Q621.0094,1229.9531 621.0094,1230.5625 L621.0094,1232.0156 Q621.0094,1232.625 620.775,1232.8906 Q620.5406,1233.1563 620.1656,1233.1563 Q619.8219,1233.1563 619.6188,1232.9531 Q619.4156,1232.7656 619.3063,1232.25 Q619.2594,1231.8906 619.0719,1231.7031 Q618.7438,1231.3281 618.1344,1231.1094 Q617.525,1230.8906 616.9,1230.8906 Q616.1344,1230.8906 615.4938,1231.2188 Q614.8688,1231.5469 614.3688,1232.2969 Q613.8844,1233.0469 613.8844,1234.0781 L613.8844,1235.1719 Q613.8844,1236.4063 614.775,1237.2344 Q615.6656,1238.0469 617.2594,1238.0469 Q618.1969,1238.0469 618.8531,1237.7969 Q619.2438,1237.6406 619.6656,1237.2031 Q619.9313,1236.9375 620.0719,1236.8594 Q620.2281,1236.7813 620.4313,1236.7813 Q620.7594,1236.7813 621.0094,1237.0469 Q621.275,1237.2969 621.275,1237.6406 Q621.275,1237.9844 620.9313,1238.3906 Q620.4313,1238.9688 619.6344,1239.2969 Q618.5563,1239.75 617.2594,1239.75 Q615.7438,1239.75 614.5406,1239.125 Q613.5563,1238.625 612.8688,1237.5625 Q612.1813,1236.4844 612.1813,1235.2031 L612.1813,1234.0469 Q612.1813,1232.7188 612.7906,1231.5781 Q613.4156,1230.4219 614.5094,1229.8125 Q615.6031,1229.1875 616.8375,1229.1875 Q617.5719,1229.1875 618.2125,1229.3594 Q618.8688,1229.5156 619.4156,1229.875 Z " fill="#000000"/><text fill="#000000" font-family="sans-serif" font-size="12" lengthAdjust="spacing" textLength="21" x="636.35" y="1238.9102">Slot</text><line style="stroke:#A80036;stroke-width:1.5;" x1="577" x2="685" y1="1250" y2="1250"/><text fill="#000000" font-family="sans-serif" font-size="11" lengthAdjust="spacing" textLength="81" x="582" y="1265.4189">-slotDuration : int</text><text fill="#000000" font-family="sans-serif" font-size="11" lengthAdjust="spacing" textLength="98" x="582" y="1279.2549">-maxVacPerSlot : int</text><line style="stroke:#A80036;stroke-width:1.5;" x1="577" x2="685" y1="1285.6719" y2="1285.6719"/><!--MD5=[a29876ea2f21a6ca48ea477740122fd8]
class VaccinationCenterStore--><rect codeLine="106" fill="#FEFECE" filter="url(#f1hkc1tqqhjbez)" height="89.5078" id="VaccinationCenterStore" style="stroke:#A80036;stroke-width:1.5;" width="294" x="541" y="486"/><ellipse cx="619.25" cy="502" fill="#ADD1B2" rx="11" ry="11" style="stroke:#A80036;stroke-width:1.0;"/><path d="M622.0156,497.875 Q622.1719,497.6563 622.3594,497.5469 Q622.5469,497.4375 622.7656,497.4375 Q623.1406,497.4375 623.375,497.7031 Q623.6094,497.9531 623.6094,498.5625 L623.6094,500.0156 Q623.6094,500.625 623.375,500.8906 Q623.1406,501.1563 622.7656,501.1563 Q622.4219,501.1563 622.2188,500.9531 Q622.0156,500.7656 621.9063,500.25 Q621.8594,499.8906 621.6719,499.7031 Q621.3438,499.3281 620.7344,499.1094 Q620.125,498.8906 619.5,498.8906 Q618.7344,498.8906 618.0938,499.2188 Q617.4688,499.5469 616.9688,500.2969 Q616.4844,501.0469 616.4844,502.0781 L616.4844,503.1719 Q616.4844,504.4063 617.375,505.2344 Q618.2656,506.0469 619.8594,506.0469 Q620.7969,506.0469 621.4531,505.7969 Q621.8438,505.6406 622.2656,505.2031 Q622.5313,504.9375 622.6719,504.8594 Q622.8281,504.7813 623.0313,504.7813 Q623.3594,504.7813 623.6094,505.0469 Q623.875,505.2969 623.875,505.6406 Q623.875,505.9844 623.5313,506.3906 Q623.0313,506.9688 622.2344,507.2969 Q621.1563,507.75 619.8594,507.75 Q618.3438,507.75 617.1406,507.125 Q616.1563,506.625 615.4688,505.5625 Q614.7813,504.4844 614.7813,503.2031 L614.7813,502.0469 Q614.7813,500.7188 615.3906,499.5781 Q616.0156,498.4219 617.1094,497.8125 Q618.2031,497.1875 619.4375,497.1875 Q620.1719,497.1875 620.8125,497.3594 Q621.4688,497.5156 622.0156,497.875 Z " fill="#000000"/><text fill="#000000" font-family="sans-serif" font-size="12" lengthAdjust="spacing" textLength="129" x="639.75" y="506.9102">VaccinationCenterStore</text><line style="stroke:#A80036;stroke-width:1.5;" x1="542" x2="834" y1="518" y2="518"/><text fill="#000000" font-family="sans-serif" font-size="11" lengthAdjust="spacing" textLength="282" x="547" y="533.4189">-availableVaccinationCentersList: List&lt;VaccinationCenter&gt;</text><line style="stroke:#A80036;stroke-width:1.5;" x1="542" x2="834" y1="539.8359" y2="539.8359"/><text fill="#000000" font-family="sans-serif" font-size="11" lengthAdjust="spacing" textLength="187" x="547" y="555.2549">+getVaccinationCenterWithEmail(email)</text><text fill="#000000" font-family="sans-serif" font-size="11" lengthAdjust="spacing" textLength="271" x="547" y="569.0908">+getVaccinationCentersWithVaccineType(vaccineType)</text><!--MD5=[0e501da62322464167c8ec4d233a6b7e]
class VaccineType--><rect codeLine="112" fill="#FEFECE" filter="url(#f1hkc1tqqhjbez)" height="48" id="VaccineType" style="stroke:#A80036;stroke-width:1.5;" width="101" x="269.5" y="1424"/><ellipse cx="284.5" cy="1440" fill="#ADD1B2" rx="11" ry="11" style="stroke:#A80036;stroke-width:1.0;"/><path d="M287.2656,1435.875 Q287.4219,1435.6563 287.6094,1435.5469 Q287.7969,1435.4375 288.0156,1435.4375 Q288.3906,1435.4375 288.625,1435.7031 Q288.8594,1435.9531 288.8594,1436.5625 L288.8594,1438.0156 Q288.8594,1438.625 288.625,1438.8906 Q288.3906,1439.1563 288.0156,1439.1563 Q287.6719,1439.1563 287.4688,1438.9531 Q287.2656,1438.7656 287.1563,1438.25 Q287.1094,1437.8906 286.9219,1437.7031 Q286.5938,1437.3281 285.9844,1437.1094 Q285.375,1436.8906 284.75,1436.8906 Q283.9844,1436.8906 283.3438,1437.2188 Q282.7188,1437.5469 282.2188,1438.2969 Q281.7344,1439.0469 281.7344,1440.0781 L281.7344,1441.1719 Q281.7344,1442.4063 282.625,1443.2344 Q283.5156,1444.0469 285.1094,1444.0469 Q286.0469,1444.0469 286.7031,1443.7969 Q287.0938,1443.6406 287.5156,1443.2031 Q287.7813,1442.9375 287.9219,1442.8594 Q288.0781,1442.7813 288.2813,1442.7813 Q288.6094,1442.7813 288.8594,1443.0469 Q289.125,1443.2969 289.125,1443.6406 Q289.125,1443.9844 288.7813,1444.3906 Q288.2813,1444.9688 287.4844,1445.2969 Q286.4063,1445.75 285.1094,1445.75 Q283.5938,1445.75 282.3906,1445.125 Q281.4063,1444.625 280.7188,1443.5625 Q280.0313,1442.4844 280.0313,1441.2031 L280.0313,1440.0469 Q280.0313,1438.7188 280.6406,1437.5781 Q281.2656,1436.4219 282.3594,1435.8125 Q283.4531,1435.1875 284.6875,1435.1875 Q285.4219,1435.1875 286.0625,1435.3594 Q286.7188,1435.5156 287.2656,1435.875 Z " fill="#000000"/><text fill="#000000" font-family="sans-serif" font-size="12" lengthAdjust="spacing" textLength="69" x="298.5" y="1444.9102">VaccineType</text><line style="stroke:#A80036;stroke-width:1.5;" x1="270.5" x2="369.5" y1="1456" y2="1456"/><line style="stroke:#A80036;stroke-width:1.5;" x1="270.5" x2="369.5" y1="1464" y2="1464"/><!--MD5=[9532c95099058dfe385d7270fd32fc0d]
class VaccineTypeStore--><rect codeLine="114" fill="#FEFECE" filter="url(#f1hkc1tqqhjbez)" height="75.6719" id="VaccineTypeStore" style="stroke:#A80036;stroke-width:1.5;" width="186" x="7" y="689"/><ellipse cx="47.2" cy="705" fill="#ADD1B2" rx="11" ry="11" style="stroke:#A80036;stroke-width:1.0;"/><path d="M49.9656,700.875 Q50.1219,700.6563 50.3094,700.5469 Q50.4969,700.4375 50.7156,700.4375 Q51.0906,700.4375 51.325,700.7031 Q51.5594,700.9531 51.5594,701.5625 L51.5594,703.0156 Q51.5594,703.625 51.325,703.8906 Q51.0906,704.1563 50.7156,704.1563 Q50.3719,704.1563 50.1688,703.9531 Q49.9656,703.7656 49.8563,703.25 Q49.8094,702.8906 49.6219,702.7031 Q49.2938,702.3281 48.6844,702.1094 Q48.075,701.8906 47.45,701.8906 Q46.6844,701.8906 46.0438,702.2188 Q45.4188,702.5469 44.9188,703.2969 Q44.4344,704.0469 44.4344,705.0781 L44.4344,706.1719 Q44.4344,707.4063 45.325,708.2344 Q46.2156,709.0469 47.8094,709.0469 Q48.7469,709.0469 49.4031,708.7969 Q49.7938,708.6406 50.2156,708.2031 Q50.4813,707.9375 50.6219,707.8594 Q50.7781,707.7813 50.9813,707.7813 Q51.3094,707.7813 51.5594,708.0469 Q51.825,708.2969 51.825,708.6406 Q51.825,708.9844 51.4813,709.3906 Q50.9813,709.9688 50.1844,710.2969 Q49.1063,710.75 47.8094,710.75 Q46.2938,710.75 45.0906,710.125 Q44.1063,709.625 43.4188,708.5625 Q42.7313,707.4844 42.7313,706.2031 L42.7313,705.0469 Q42.7313,703.7188 43.3406,702.5781 Q43.9656,701.4219 45.0594,700.8125 Q46.1531,700.1875 47.3875,700.1875 Q48.1219,700.1875 48.7625,700.3594 Q49.4188,700.5156 49.9656,700.875 Z " fill="#000000"/><text fill="#000000" font-family="sans-serif" font-size="12" lengthAdjust="spacing" textLength="98" x="66.8" y="709.9102">VaccineTypeStore</text><line style="stroke:#A80036;stroke-width:1.5;" x1="8" x2="192" y1="721" y2="721"/><text fill="#000000" font-family="sans-serif" font-size="11" lengthAdjust="spacing" textLength="174" x="13" y="736.4189">-vaccineTypes : List&lt;VaccineType&gt;</text><line style="stroke:#A80036;stroke-width:1.5;" x1="8" x2="192" y1="742.8359" y2="742.8359"/><text fill="#000000" font-family="sans-serif" font-size="11" lengthAdjust="spacing" textLength="99" x="13" y="758.2549">+getVaccineTypes()</text><!--MD5=[a88c56e1dc44d9d0e1fcd2eec4fd7e58]
class SMSSender--><rect codeLine="119" fill="#FEFECE" filter="url(#f1hkc1tqqhjbez)" height="61.8359" id="SMSSender" style="stroke:#A80036;stroke-width:1.5;" width="186" x="1808" y="1225"/><ellipse cx="1864.25" cy="1241" fill="#ADD1B2" rx="11" ry="11" style="stroke:#A80036;stroke-width:1.0;"/><path d="M1867.0156,1236.875 Q1867.1719,1236.6563 1867.3594,1236.5469 Q1867.5469,1236.4375 1867.7656,1236.4375 Q1868.1406,1236.4375 1868.375,1236.7031 Q1868.6094,1236.9531 1868.6094,1237.5625 L1868.6094,1239.0156 Q1868.6094,1239.625 1868.375,1239.8906 Q1868.1406,1240.1563 1867.7656,1240.1563 Q1867.4219,1240.1563 1867.2188,1239.9531 Q1867.0156,1239.7656 1866.9063,1239.25 Q1866.8594,1238.8906 1866.6719,1238.7031 Q1866.3438,1238.3281 1865.7344,1238.1094 Q1865.125,1237.8906 1864.5,1237.8906 Q1863.7344,1237.8906 1863.0938,1238.2188 Q1862.4688,1238.5469 1861.9688,1239.2969 Q1861.4844,1240.0469 1861.4844,1241.0781 L1861.4844,1242.1719 Q1861.4844,1243.4063 1862.375,1244.2344 Q1863.2656,1245.0469 1864.8594,1245.0469 Q1865.7969,1245.0469 1866.4531,1244.7969 Q1866.8438,1244.6406 1867.2656,1244.2031 Q1867.5313,1243.9375 1867.6719,1243.8594 Q1867.8281,1243.7813 1868.0313,1243.7813 Q1868.3594,1243.7813 1868.6094,1244.0469 Q1868.875,1244.2969 1868.875,1244.6406 Q1868.875,1244.9844 1868.5313,1245.3906 Q1868.0313,1245.9688 1867.2344,1246.2969 Q1866.1563,1246.75 1864.8594,1246.75 Q1863.3438,1246.75 1862.1406,1246.125 Q1861.1563,1245.625 1860.4688,1244.5625 Q1859.7813,1243.4844 1859.7813,1242.2031 L1859.7813,1241.0469 Q1859.7813,1239.7188 1860.3906,1238.5781 Q1861.0156,1237.4219 1862.1094,1236.8125 Q1863.2031,1236.1875 1864.4375,1236.1875 Q1865.1719,1236.1875 1865.8125,1236.3594 Q1866.4688,1236.5156 1867.0156,1236.875 Z " fill="#000000"/><text fill="#000000" font-family="sans-serif" font-size="12" lengthAdjust="spacing" textLength="65" x="1884.75" y="1245.9102">SMSSender</text><line style="stroke:#A80036;stroke-width:1.5;" x1="1809" x2="1993" y1="1257" y2="1257"/><line style="stroke:#A80036;stroke-width:1.5;" x1="1809" x2="1993" y1="1265" y2="1265"/><text fill="#000000" font-family="sans-serif" font-size="11" lengthAdjust="spacing" textLength="174" x="1814" y="1280.4189">+sendSMS(phoneNumber,message)</text><!--MD5=[d0d3f323c921ace052b18808f85f1ae6]
class VaccineTypeMapper--><rect codeLine="123" fill="#FEFECE" filter="url(#f1hkc1tqqhjbez)" height="89.5078" id="VaccineTypeMapper" style="stroke:#A80036;stroke-width:1.5;" width="142" x="1301" y="321.5"/><ellipse cx="1316" cy="337.5" fill="#ADD1B2" rx="11" ry="11" style="stroke:#A80036;stroke-width:1.0;"/><path d="M1318.7656,333.375 Q1318.9219,333.1563 1319.1094,333.0469 Q1319.2969,332.9375 1319.5156,332.9375 Q1319.8906,332.9375 1320.125,333.2031 Q1320.3594,333.4531 1320.3594,334.0625 L1320.3594,335.5156 Q1320.3594,336.125 1320.125,336.3906 Q1319.8906,336.6563 1319.5156,336.6563 Q1319.1719,336.6563 1318.9688,336.4531 Q1318.7656,336.2656 1318.6563,335.75 Q1318.6094,335.3906 1318.4219,335.2031 Q1318.0938,334.8281 1317.4844,334.6094 Q1316.875,334.3906 1316.25,334.3906 Q1315.4844,334.3906 1314.8438,334.7188 Q1314.2188,335.0469 1313.7188,335.7969 Q1313.2344,336.5469 1313.2344,337.5781 L1313.2344,338.6719 Q1313.2344,339.9063 1314.125,340.7344 Q1315.0156,341.5469 1316.6094,341.5469 Q1317.5469,341.5469 1318.2031,341.2969 Q1318.5938,341.1406 1319.0156,340.7031 Q1319.2813,340.4375 1319.4219,340.3594 Q1319.5781,340.2813 1319.7813,340.2813 Q1320.1094,340.2813 1320.3594,340.5469 Q1320.625,340.7969 1320.625,341.1406 Q1320.625,341.4844 1320.2813,341.8906 Q1319.7813,342.4688 1318.9844,342.7969 Q1317.9063,343.25 1316.6094,343.25 Q1315.0938,343.25 1313.8906,342.625 Q1312.9063,342.125 1312.2188,341.0625 Q1311.5313,339.9844 1311.5313,338.7031 L1311.5313,337.5469 Q1311.5313,336.2188 1312.1406,335.0781 Q1312.7656,333.9219 1313.8594,333.3125 Q1314.9531,332.6875 1316.1875,332.6875 Q1316.9219,332.6875 1317.5625,332.8594 Q1318.2188,333.0156 1318.7656,333.375 Z " fill="#000000"/><text fill="#000000" font-family="sans-serif" font-size="12" lengthAdjust="spacing" textLength="110" x="1330" y="342.4102">VaccineTypeMapper</text><line style="stroke:#A80036;stroke-width:1.5;" x1="1302" x2="1442" y1="353.5" y2="353.5"/><line style="stroke:#A80036;stroke-width:1.5;" x1="1302" x2="1442" y1="361.5" y2="361.5"/><text fill="#000000" font-family="sans-serif" font-size="11" lengthAdjust="spacing" textLength="107" x="1307" y="376.9189">+toDto(vaccineTypes)</text><text fill="#000000" font-family="sans-serif" font-size="11" lengthAdjust="spacing" textLength="101" x="1307" y="390.7549">+toDto(vaccineType)</text><text fill="#000000" font-family="sans-serif" font-size="11" lengthAdjust="spacing" textLength="129" x="1307" y="404.5908">+toModel(vaccineTypeDto)</text><!--MD5=[f7c67bc1ef36d5d8df4ebb55a80953b6]
class VaccinationCenterMapper--><rect codeLine="129" fill="#FEFECE" filter="url(#f1hkc1tqqhjbez)" height="61.8359" id="VaccinationCenterMapper" style="stroke:#A80036;stroke-width:1.5;" width="173" x="1478.5" y="335.5"/><ellipse cx="1493.5" cy="351.5" fill="#ADD1B2" rx="11" ry="11" style="stroke:#A80036;stroke-width:1.0;"/><path d="M1496.2656,347.375 Q1496.4219,347.1563 1496.6094,347.0469 Q1496.7969,346.9375 1497.0156,346.9375 Q1497.3906,346.9375 1497.625,347.2031 Q1497.8594,347.4531 1497.8594,348.0625 L1497.8594,349.5156 Q1497.8594,350.125 1497.625,350.3906 Q1497.3906,350.6563 1497.0156,350.6563 Q1496.6719,350.6563 1496.4688,350.4531 Q1496.2656,350.2656 1496.1563,349.75 Q1496.1094,349.3906 1495.9219,349.2031 Q1495.5938,348.8281 1494.9844,348.6094 Q1494.375,348.3906 1493.75,348.3906 Q1492.9844,348.3906 1492.3438,348.7188 Q1491.7188,349.0469 1491.2188,349.7969 Q1490.7344,350.5469 1490.7344,351.5781 L1490.7344,352.6719 Q1490.7344,353.9063 1491.625,354.7344 Q1492.5156,355.5469 1494.1094,355.5469 Q1495.0469,355.5469 1495.7031,355.2969 Q1496.0938,355.1406 1496.5156,354.7031 Q1496.7813,354.4375 1496.9219,354.3594 Q1497.0781,354.2813 1497.2813,354.2813 Q1497.6094,354.2813 1497.8594,354.5469 Q1498.125,354.7969 1498.125,355.1406 Q1498.125,355.4844 1497.7813,355.8906 Q1497.2813,356.4688 1496.4844,356.7969 Q1495.4063,357.25 1494.1094,357.25 Q1492.5938,357.25 1491.3906,356.625 Q1490.4063,356.125 1489.7188,355.0625 Q1489.0313,353.9844 1489.0313,352.7031 L1489.0313,351.5469 Q1489.0313,350.2188 1489.6406,349.0781 Q1490.2656,347.9219 1491.3594,347.3125 Q1492.4531,346.6875 1493.6875,346.6875 Q1494.4219,346.6875 1495.0625,346.8594 Q1495.7188,347.0156 1496.2656,347.375 Z " fill="#000000"/><text fill="#000000" font-family="sans-serif" font-size="12" lengthAdjust="spacing" textLength="141" x="1507.5" y="356.4102">VaccinationCenterMapper</text><line style="stroke:#A80036;stroke-width:1.5;" x1="1479.5" x2="1650.5" y1="367.5" y2="367.5"/><line style="stroke:#A80036;stroke-width:1.5;" x1="1479.5" x2="1650.5" y1="375.5" y2="375.5"/><text fill="#000000" font-family="sans-serif" font-size="11" lengthAdjust="spacing" textLength="132" x="1484.5" y="390.9189">+toDto(vaccinationCenters)</text><!--MD5=[71b7ceb966e6a29292f11c569f2251ca]
class AppointmentInsertMapper--><rect codeLine="133" fill="#FEFECE" filter="url(#f1hkc1tqqhjbez)" height="61.8359" id="AppointmentInsertMapper" style="stroke:#A80036;stroke-width:1.5;" width="173" x="1429.5" y="1417"/><ellipse cx="1444.5" cy="1433" fill="#ADD1B2" rx="11" ry="11" style="stroke:#A80036;stroke-width:1.0;"/><path d="M1447.2656,1428.875 Q1447.4219,1428.6563 1447.6094,1428.5469 Q1447.7969,1428.4375 1448.0156,1428.4375 Q1448.3906,1428.4375 1448.625,1428.7031 Q1448.8594,1428.9531 1448.8594,1429.5625 L1448.8594,1431.0156 Q1448.8594,1431.625 1448.625,1431.8906 Q1448.3906,1432.1563 1448.0156,1432.1563 Q1447.6719,1432.1563 1447.4688,1431.9531 Q1447.2656,1431.7656 1447.1563,1431.25 Q1447.1094,1430.8906 1446.9219,1430.7031 Q1446.5938,1430.3281 1445.9844,1430.1094 Q1445.375,1429.8906 1444.75,1429.8906 Q1443.9844,1429.8906 1443.3438,1430.2188 Q1442.7188,1430.5469 1442.2188,1431.2969 Q1441.7344,1432.0469 1441.7344,1433.0781 L1441.7344,1434.1719 Q1441.7344,1435.4063 1442.625,1436.2344 Q1443.5156,1437.0469 1445.1094,1437.0469 Q1446.0469,1437.0469 1446.7031,1436.7969 Q1447.0938,1436.6406 1447.5156,1436.2031 Q1447.7813,1435.9375 1447.9219,1435.8594 Q1448.0781,1435.7813 1448.2813,1435.7813 Q1448.6094,1435.7813 1448.8594,1436.0469 Q1449.125,1436.2969 1449.125,1436.6406 Q1449.125,1436.9844 1448.7813,1437.3906 Q1448.2813,1437.9688 1447.4844,1438.2969 Q1446.4063,1438.75 1445.1094,1438.75 Q1443.5938,1438.75 1442.3906,1438.125 Q1441.4063,1437.625 1440.7188,1436.5625 Q1440.0313,1435.4844 1440.0313,1434.2031 L1440.0313,1433.0469 Q1440.0313,1431.7188 1440.6406,1430.5781 Q1441.2656,1429.4219 1442.3594,1428.8125 Q1443.4531,1428.1875 1444.6875,1428.1875 Q1445.4219,1428.1875 1446.0625,1428.3594 Q1446.7188,1428.5156 1447.2656,1428.875 Z " fill="#000000"/><text fill="#000000" font-family="sans-serif" font-size="12" lengthAdjust="spacing" textLength="141" x="1458.5" y="1437.9102">AppointmentInsertMapper</text><line style="stroke:#A80036;stroke-width:1.5;" x1="1430.5" x2="1601.5" y1="1449" y2="1449"/><line style="stroke:#A80036;stroke-width:1.5;" x1="1430.5" x2="1601.5" y1="1457" y2="1457"/><text fill="#000000" font-family="sans-serif" font-size="11" lengthAdjust="spacing" textLength="97" x="1435.5" y="1472.4189">+toDto(appointment)</text><!--MD5=[8b785539317bc75e7eeb2bd649c42a07]
class AppointmentInsertDto--><rect codeLine="137" fill="#FEFECE" filter="url(#f1hkc1tqqhjbez)" height="200.1953" id="AppointmentInsertDto" style="stroke:#A80036;stroke-width:1.5;" width="169" x="1551.5" y="1540"/><ellipse cx="1574.6" cy="1556" fill="#ADD1B2" rx="11" ry="11" style="stroke:#A80036;stroke-width:1.0;"/><path d="M1577.3656,1551.875 Q1577.5219,1551.6563 1577.7094,1551.5469 Q1577.8969,1551.4375 1578.1156,1551.4375 Q1578.4906,1551.4375 1578.725,1551.7031 Q1578.9594,1551.9531 1578.9594,1552.5625 L1578.9594,1554.0156 Q1578.9594,1554.625 1578.725,1554.8906 Q1578.4906,1555.1563 1578.1156,1555.1563 Q1577.7719,1555.1563 1577.5688,1554.9531 Q1577.3656,1554.7656 1577.2563,1554.25 Q1577.2094,1553.8906 1577.0219,1553.7031 Q1576.6938,1553.3281 1576.0844,1553.1094 Q1575.475,1552.8906 1574.85,1552.8906 Q1574.0844,1552.8906 1573.4438,1553.2188 Q1572.8188,1553.5469 1572.3188,1554.2969 Q1571.8344,1555.0469 1571.8344,1556.0781 L1571.8344,1557.1719 Q1571.8344,1558.4063 1572.725,1559.2344 Q1573.6156,1560.0469 1575.2094,1560.0469 Q1576.1469,1560.0469 1576.8031,1559.7969 Q1577.1938,1559.6406 1577.6156,1559.2031 Q1577.8813,1558.9375 1578.0219,1558.8594 Q1578.1781,1558.7813 1578.3813,1558.7813 Q1578.7094,1558.7813 1578.9594,1559.0469 Q1579.225,1559.2969 1579.225,1559.6406 Q1579.225,1559.9844 1578.8813,1560.3906 Q1578.3813,1560.9688 1577.5844,1561.2969 Q1576.5063,1561.75 1575.2094,1561.75 Q1573.6938,1561.75 1572.4906,1561.125 Q1571.5063,1560.625 1570.8188,1559.5625 Q1570.1313,1558.4844 1570.1313,1557.2031 L1570.1313,1556.0469 Q1570.1313,1554.7188 1570.7406,1553.5781 Q1571.3656,1552.4219 1572.4594,1551.8125 Q1573.5531,1551.1875 1574.7875,1551.1875 Q1575.5219,1551.1875 1576.1625,1551.3594 Q1576.8188,1551.5156 1577.3656,1551.875 Z " fill="#000000"/><text fill="#000000" font-family="sans-serif" font-size="12" lengthAdjust="spacing" textLength="119" x="1590.4" y="1560.9102">AppointmentInsertDto</text><line style="stroke:#A80036;stroke-width:1.5;" x1="1552.5" x2="1719.5" y1="1572" y2="1572"/><text fill="#000000" font-family="sans-serif" font-size="11" lengthAdjust="spacing" textLength="119" x="1557.5" y="1587.4189">-snsUserNumber : String</text><text fill="#000000" font-family="sans-serif" font-size="11" lengthAdjust="spacing" textLength="157" x="1557.5" y="1601.2549">-vaccineTypeDescription : String</text><text fill="#000000" font-family="sans-serif" font-size="11" lengthAdjust="spacing" textLength="99" x="1557.5" y="1615.0908">-centerName : String</text><text fill="#000000" font-family="sans-serif" font-size="11" lengthAdjust="spacing" textLength="62" x="1557.5" y="1628.9268">-date : String</text><text fill="#000000" font-family="sans-serif" font-size="11" lengthAdjust="spacing" textLength="58" x="1557.5" y="1642.7627">-sms: String</text><line style="stroke:#A80036;stroke-width:1.5;" x1="1552.5" x2="1719.5" y1="1649.1797" y2="1649.1797"/><text fill="#000000" font-family="sans-serif" font-size="11" lengthAdjust="spacing" textLength="87" x="1557.5" y="1664.5986">+getSNSNumber()</text><text fill="#000000" font-family="sans-serif" font-size="11" lengthAdjust="spacing" textLength="51" x="1557.5" y="1678.4346">+getDate()</text><text fill="#000000" font-family="sans-serif" font-size="11" lengthAdjust="spacing" textLength="61" x="1557.5" y="1692.2705">+getCenter()</text><text fill="#000000" font-family="sans-serif" font-size="11" lengthAdjust="spacing" textLength="93" x="1557.5" y="1706.1064">+getVaccineType()</text><text fill="#000000" font-family="sans-serif" font-size="11" lengthAdjust="spacing" textLength="102" x="1557.5" y="1719.9424">+getSmsPermission()</text><text fill="#000000" font-family="sans-serif" font-size="11" lengthAdjust="spacing" textLength="51" x="1557.5" y="1733.7783">+toString()</text><!--MD5=[a5ad3856b0c65e07b10297b4477b22bb]
class SNSUserStore--><rect codeLine="151" fill="#FEFECE" filter="url(#f1hkc1tqqhjbez)" height="75.6719" id="SNSUserStore" style="stroke:#A80036;stroke-width:1.5;" width="191" x="1180.5" y="493"/><ellipse cx="1231.25" cy="509" fill="#ADD1B2" rx="11" ry="11" style="stroke:#A80036;stroke-width:1.0;"/><path d="M1234.0156,504.875 Q1234.1719,504.6563 1234.3594,504.5469 Q1234.5469,504.4375 1234.7656,504.4375 Q1235.1406,504.4375 1235.375,504.7031 Q1235.6094,504.9531 1235.6094,505.5625 L1235.6094,507.0156 Q1235.6094,507.625 1235.375,507.8906 Q1235.1406,508.1563 1234.7656,508.1563 Q1234.4219,508.1563 1234.2188,507.9531 Q1234.0156,507.7656 1233.9063,507.25 Q1233.8594,506.8906 1233.6719,506.7031 Q1233.3438,506.3281 1232.7344,506.1094 Q1232.125,505.8906 1231.5,505.8906 Q1230.7344,505.8906 1230.0938,506.2188 Q1229.4688,506.5469 1228.9688,507.2969 Q1228.4844,508.0469 1228.4844,509.0781 L1228.4844,510.1719 Q1228.4844,511.4063 1229.375,512.2344 Q1230.2656,513.0469 1231.8594,513.0469 Q1232.7969,513.0469 1233.4531,512.7969 Q1233.8438,512.6406 1234.2656,512.2031 Q1234.5313,511.9375 1234.6719,511.8594 Q1234.8281,511.7813 1235.0313,511.7813 Q1235.3594,511.7813 1235.6094,512.0469 Q1235.875,512.2969 1235.875,512.6406 Q1235.875,512.9844 1235.5313,513.3906 Q1235.0313,513.9688 1234.2344,514.2969 Q1233.1563,514.75 1231.8594,514.75 Q1230.3438,514.75 1229.1406,514.125 Q1228.1563,513.625 1227.4688,512.5625 Q1226.7813,511.4844 1226.7813,510.2031 L1226.7813,509.0469 Q1226.7813,507.7188 1227.3906,506.5781 Q1228.0156,505.4219 1229.1094,504.8125 Q1230.2031,504.1875 1231.4375,504.1875 Q1232.1719,504.1875 1232.8125,504.3594 Q1233.4688,504.5156 1234.0156,504.875 Z " fill="#000000"/><text fill="#000000" font-family="sans-serif" font-size="12" lengthAdjust="spacing" textLength="81" x="1251.75" y="513.9102">SNSUserStore</text><line style="stroke:#A80036;stroke-width:1.5;" x1="1181.5" x2="1370.5" y1="525" y2="525"/><line style="stroke:#A80036;stroke-width:1.5;" x1="1181.5" x2="1370.5" y1="533" y2="533"/><text fill="#000000" font-family="sans-serif" font-size="11" lengthAdjust="spacing" textLength="171" x="1186.5" y="548.4189">+checkSNSUserExists(snsNumber)</text><text fill="#000000" font-family="sans-serif" font-size="11" lengthAdjust="spacing" textLength="179" x="1186.5" y="562.2549">+findSnsUserByNumber(snsNumber)</text><!--MD5=[56872536300a053cf9fd13853ad6ab1e]
class CommunityMassVaccinationCenter--><rect codeLine="156" fill="#FEFECE" filter="url(#f1hkc1tqqhjbez)" height="48" id="CommunityMassVaccinationCenter" style="stroke:#A80036;stroke-width:1.5;" width="225" x="721.5" y="1232"/><ellipse cx="736.5" cy="1248" fill="#ADD1B2" rx="11" ry="11" style="stroke:#A80036;stroke-width:1.0;"/><path d="M739.2656,1243.875 Q739.4219,1243.6563 739.6094,1243.5469 Q739.7969,1243.4375 740.0156,1243.4375 Q740.3906,1243.4375 740.625,1243.7031 Q740.8594,1243.9531 740.8594,1244.5625 L740.8594,1246.0156 Q740.8594,1246.625 740.625,1246.8906 Q740.3906,1247.1563 740.0156,1247.1563 Q739.6719,1247.1563 739.4688,1246.9531 Q739.2656,1246.7656 739.1563,1246.25 Q739.1094,1245.8906 738.9219,1245.7031 Q738.5938,1245.3281 737.9844,1245.1094 Q737.375,1244.8906 736.75,1244.8906 Q735.9844,1244.8906 735.3438,1245.2188 Q734.7188,1245.5469 734.2188,1246.2969 Q733.7344,1247.0469 733.7344,1248.0781 L733.7344,1249.1719 Q733.7344,1250.4063 734.625,1251.2344 Q735.5156,1252.0469 737.1094,1252.0469 Q738.0469,1252.0469 738.7031,1251.7969 Q739.0938,1251.6406 739.5156,1251.2031 Q739.7813,1250.9375 739.9219,1250.8594 Q740.0781,1250.7813 740.2813,1250.7813 Q740.6094,1250.7813 740.8594,1251.0469 Q741.125,1251.2969 741.125,1251.6406 Q741.125,1251.9844 740.7813,1252.3906 Q740.2813,1252.9688 739.4844,1253.2969 Q738.4063,1253.75 737.1094,1253.75 Q735.5938,1253.75 734.3906,1253.125 Q733.4063,1252.625 732.7188,1251.5625 Q732.0313,1250.4844 732.0313,1249.2031 L732.0313,1248.0469 Q732.0313,1246.7188 732.6406,1245.5781 Q733.2656,1244.4219 734.3594,1243.8125 Q735.4531,1243.1875 736.6875,1243.1875 Q737.4219,1243.1875 738.0625,1243.3594 Q738.7188,1243.5156 739.2656,1243.875 Z " fill="#000000"/><text fill="#000000" font-family="sans-serif" font-size="12" lengthAdjust="spacing" textLength="193" x="750.5" y="1252.9102">CommunityMassVaccinationCenter</text><line style="stroke:#A80036;stroke-width:1.5;" x1="722.5" x2="945.5" y1="1264" y2="1264"/><line style="stroke:#A80036;stroke-width:1.5;" x1="722.5" x2="945.5" y1="1272" y2="1272"/><!--MD5=[1db03e903fe0a044a2ca0dcbef10799a]
class HealthCareCenter--><rect codeLine="158" fill="#FEFECE" filter="url(#f1hkc1tqqhjbez)" height="48" id="HealthCareCenter" style="stroke:#A80036;stroke-width:1.5;" width="132" x="982" y="1232"/><ellipse cx="997" cy="1248" fill="#ADD1B2" rx="11" ry="11" style="stroke:#A80036;stroke-width:1.0;"/><path d="M999.7656,1243.875 Q999.9219,1243.6563 1000.1094,1243.5469 Q1000.2969,1243.4375 1000.5156,1243.4375 Q1000.8906,1243.4375 1001.125,1243.7031 Q1001.3594,1243.9531 1001.3594,1244.5625 L1001.3594,1246.0156 Q1001.3594,1246.625 1001.125,1246.8906 Q1000.8906,1247.1563 1000.5156,1247.1563 Q1000.1719,1247.1563 999.9688,1246.9531 Q999.7656,1246.7656 999.6563,1246.25 Q999.6094,1245.8906 999.4219,1245.7031 Q999.0938,1245.3281 998.4844,1245.1094 Q997.875,1244.8906 997.25,1244.8906 Q996.4844,1244.8906 995.8438,1245.2188 Q995.2188,1245.5469 994.7188,1246.2969 Q994.2344,1247.0469 994.2344,1248.0781 L994.2344,1249.1719 Q994.2344,1250.4063 995.125,1251.2344 Q996.0156,1252.0469 997.6094,1252.0469 Q998.5469,1252.0469 999.2031,1251.7969 Q999.5938,1251.6406 1000.0156,1251.2031 Q1000.2813,1250.9375 1000.4219,1250.8594 Q1000.5781,1250.7813 1000.7813,1250.7813 Q1001.1094,1250.7813 1001.3594,1251.0469 Q1001.625,1251.2969 1001.625,1251.6406 Q1001.625,1251.9844 1001.2813,1252.3906 Q1000.7813,1252.9688 999.9844,1253.2969 Q998.9063,1253.75 997.6094,1253.75 Q996.0938,1253.75 994.8906,1253.125 Q993.9063,1252.625 993.2188,1251.5625 Q992.5313,1250.4844 992.5313,1249.2031 L992.5313,1248.0469 Q992.5313,1246.7188 993.1406,1245.5781 Q993.7656,1244.4219 994.8594,1243.8125 Q995.9531,1243.1875 997.1875,1243.1875 Q997.9219,1243.1875 998.5625,1243.3594 Q999.2188,1243.5156 999.7656,1243.875 Z " fill="#000000"/><text fill="#000000" font-family="sans-serif" font-size="12" lengthAdjust="spacing" textLength="100" x="1011" y="1252.9102">HealthCareCenter</text><line style="stroke:#A80036;stroke-width:1.5;" x1="983" x2="1113" y1="1264" y2="1264"/><line style="stroke:#A80036;stroke-width:1.5;" x1="983" x2="1113" y1="1272" y2="1272"/><!--MD5=[e108c694096fabfd01a9ae86427d8e48]
class ISender--><rect codeLine="160" fill="#FEFECE" filter="url(#f1hkc1tqqhjbez)" height="48" id="ISender" style="stroke:#A80036;stroke-width:1.5;" width="76" x="1970" y="954"/><ellipse cx="1985" cy="970" fill="#B4A7E5" rx="11" ry="11" style="stroke:#A80036;stroke-width:1.0;"/><path d="M1985.9531,966.6406 L1985.9531,973.2969 L1987.6719,973.2969 Q1988.2813,973.2969 1988.5469,973.5313 Q1988.8125,973.7656 1988.8125,974.1563 Q1988.8125,974.5313 1988.5469,974.7656 Q1988.2813,975 1987.6719,975 L1982.5313,975 Q1981.9219,975 1981.6563,974.7656 Q1981.3906,974.5313 1981.3906,974.1406 Q1981.3906,973.7656 1981.6563,973.5313 Q1981.9219,973.2969 1982.5313,973.2969 L1984.25,973.2969 L1984.25,966.6406 L1982.5313,966.6406 Q1981.9219,966.6406 1981.6563,966.4063 Q1981.3906,966.1719 1981.3906,965.7813 Q1981.3906,965.4063 1981.6563,965.1719 Q1981.9219,964.9375 1982.5313,964.9375 L1987.6719,964.9375 Q1988.2813,964.9375 1988.5469,965.1719 Q1988.8125,965.4063 1988.8125,965.7813 Q1988.8125,966.1719 1988.5469,966.4063 Q1988.2813,966.6406 1987.6719,966.6406 L1985.9531,966.6406 Z " fill="#000000"/><text fill="#000000" font-family="sans-serif" font-size="12" font-style="italic" lengthAdjust="spacing" textLength="44" x="1999" y="974.9102">ISender</text><line style="stroke:#A80036;stroke-width:1.5;" x1="1971" x2="2045" y1="986" y2="986"/><line style="stroke:#A80036;stroke-width:1.5;" x1="1971" x2="2045" y1="994" y2="994"/><!--MD5=[467f7e0fe9ca2a47c651f8dc89503c22]
class ConsoleSender--><rect codeLine="162" fill="#FEFECE" filter="url(#f1hkc1tqqhjbez)" height="61.8359" id="ConsoleSender" style="stroke:#A80036;stroke-width:1.5;" width="171" x="2029.5" y="1225"/><ellipse cx="2067.9" cy="1241" fill="#ADD1B2" rx="11" ry="11" style="stroke:#A80036;stroke-width:1.0;"/><path d="M2070.6656,1236.875 Q2070.8219,1236.6563 2071.0094,1236.5469 Q2071.1969,1236.4375 2071.4156,1236.4375 Q2071.7906,1236.4375 2072.025,1236.7031 Q2072.2594,1236.9531 2072.2594,1237.5625 L2072.2594,1239.0156 Q2072.2594,1239.625 2072.025,1239.8906 Q2071.7906,1240.1563 2071.4156,1240.1563 Q2071.0719,1240.1563 2070.8688,1239.9531 Q2070.6656,1239.7656 2070.5563,1239.25 Q2070.5094,1238.8906 2070.3219,1238.7031 Q2069.9938,1238.3281 2069.3844,1238.1094 Q2068.775,1237.8906 2068.15,1237.8906 Q2067.3844,1237.8906 2066.7438,1238.2188 Q2066.1188,1238.5469 2065.6188,1239.2969 Q2065.1344,1240.0469 2065.1344,1241.0781 L2065.1344,1242.1719 Q2065.1344,1243.4063 2066.025,1244.2344 Q2066.9156,1245.0469 2068.5094,1245.0469 Q2069.4469,1245.0469 2070.1031,1244.7969 Q2070.4938,1244.6406 2070.9156,1244.2031 Q2071.1813,1243.9375 2071.3219,1243.8594 Q2071.4781,1243.7813 2071.6813,1243.7813 Q2072.0094,1243.7813 2072.2594,1244.0469 Q2072.525,1244.2969 2072.525,1244.6406 Q2072.525,1244.9844 2072.1813,1245.3906 Q2071.6813,1245.9688 2070.8844,1246.2969 Q2069.8063,1246.75 2068.5094,1246.75 Q2066.9938,1246.75 2065.7906,1246.125 Q2064.8063,1245.625 2064.1188,1244.5625 Q2063.4313,1243.4844 2063.4313,1242.2031 L2063.4313,1241.0469 Q2063.4313,1239.7188 2064.0406,1238.5781 Q2064.6656,1237.4219 2065.7594,1236.8125 Q2066.8531,1236.1875 2068.0875,1236.1875 Q2068.8219,1236.1875 2069.4625,1236.3594 Q2070.1188,1236.5156 2070.6656,1236.875 Z " fill="#000000"/><text fill="#000000" font-family="sans-serif" font-size="12" lengthAdjust="spacing" textLength="87" x="2087.1" y="1245.9102">ConsoleSender</text><line style="stroke:#A80036;stroke-width:1.5;" x1="2030.5" x2="2199.5" y1="1257" y2="1257"/><line style="stroke:#A80036;stroke-width:1.5;" x1="2030.5" x2="2199.5" y1="1265" y2="1265"/><text fill="#000000" font-family="sans-serif" font-size="11" lengthAdjust="spacing" textLength="159" x="2035.5" y="1280.4189">+sendNotification(notificationDto)</text><!--MD5=[309e42d4eafe9420dfa12985f72d4531]
class SenderFactory--><rect fill="#FEFECE" filter="url(#f1hkc1tqqhjbez)" height="48" id="SenderFactory" style="stroke:#A80036;stroke-width:1.5;" width="111" x="1952.5" y="507"/><ellipse cx="1967.5" cy="523" fill="#ADD1B2" rx="11" ry="11" style="stroke:#A80036;stroke-width:1.0;"/><path d="M1970.2656,518.875 Q1970.4219,518.6563 1970.6094,518.5469 Q1970.7969,518.4375 1971.0156,518.4375 Q1971.3906,518.4375 1971.625,518.7031 Q1971.8594,518.9531 1971.8594,519.5625 L1971.8594,521.0156 Q1971.8594,521.625 1971.625,521.8906 Q1971.3906,522.1563 1971.0156,522.1563 Q1970.6719,522.1563 1970.4688,521.9531 Q1970.2656,521.7656 1970.1563,521.25 Q1970.1094,520.8906 1969.9219,520.7031 Q1969.5938,520.3281 1968.9844,520.1094 Q1968.375,519.8906 1967.75,519.8906 Q1966.9844,519.8906 1966.3438,520.2188 Q1965.7188,520.5469 1965.2188,521.2969 Q1964.7344,522.0469 1964.7344,523.0781 L1964.7344,524.1719 Q1964.7344,525.4063 1965.625,526.2344 Q1966.5156,527.0469 1968.1094,527.0469 Q1969.0469,527.0469 1969.7031,526.7969 Q1970.0938,526.6406 1970.5156,526.2031 Q1970.7813,525.9375 1970.9219,525.8594 Q1971.0781,525.7813 1971.2813,525.7813 Q1971.6094,525.7813 1971.8594,526.0469 Q1972.125,526.2969 1972.125,526.6406 Q1972.125,526.9844 1971.7813,527.3906 Q1971.2813,527.9688 1970.4844,528.2969 Q1969.4063,528.75 1968.1094,528.75 Q1966.5938,528.75 1965.3906,528.125 Q1964.4063,527.625 1963.7188,526.5625 Q1963.0313,525.4844 1963.0313,524.2031 L1963.0313,523.0469 Q1963.0313,521.7188 1963.6406,520.5781 Q1964.2656,519.4219 1965.3594,518.8125 Q1966.4531,518.1875 1967.6875,518.1875 Q1968.4219,518.1875 1969.0625,518.3594 Q1969.7188,518.5156 1970.2656,518.875 Z " fill="#000000"/><text fill="#000000" font-family="sans-serif" font-size="12" lengthAdjust="spacing" textLength="79" x="1981.5" y="527.9102">SenderFactory</text><line style="stroke:#A80036;stroke-width:1.5;" x1="1953.5" x2="2062.5" y1="539" y2="539"/><line style="stroke:#A80036;stroke-width:1.5;" x1="1953.5" x2="2062.5" y1="547" y2="547"/><!--MD5=[dbd744789a27dfb7a38205596e031569]
class EmailSender--><rect fill="#FEFECE" filter="url(#f1hkc1tqqhjbez)" height="48" id="EmailSender" style="stroke:#A80036;stroke-width:1.5;" width="104" x="2236" y="1232"/><ellipse cx="2251" cy="1248" fill="#ADD1B2" rx="11" ry="11" style="stroke:#A80036;stroke-width:1.0;"/><path d="M2253.7656,1243.875 Q2253.9219,1243.6563 2254.1094,1243.5469 Q2254.2969,1243.4375 2254.5156,1243.4375 Q2254.8906,1243.4375 2255.125,1243.7031 Q2255.3594,1243.9531 2255.3594,1244.5625 L2255.3594,1246.0156 Q2255.3594,1246.625 2255.125,1246.8906 Q2254.8906,1247.1563 2254.5156,1247.1563 Q2254.1719,1247.1563 2253.9688,1246.9531 Q2253.7656,1246.7656 2253.6563,1246.25 Q2253.6094,1245.8906 2253.4219,1245.7031 Q2253.0938,1245.3281 2252.4844,1245.1094 Q2251.875,1244.8906 2251.25,1244.8906 Q2250.4844,1244.8906 2249.8438,1245.2188 Q2249.2188,1245.5469 2248.7188,1246.2969 Q2248.2344,1247.0469 2248.2344,1248.0781 L2248.2344,1249.1719 Q2248.2344,1250.4063 2249.125,1251.2344 Q2250.0156,1252.0469 2251.6094,1252.0469 Q2252.5469,1252.0469 2253.2031,1251.7969 Q2253.5938,1251.6406 2254.0156,1251.2031 Q2254.2813,1250.9375 2254.4219,1250.8594 Q2254.5781,1250.7813 2254.7813,1250.7813 Q2255.1094,1250.7813 2255.3594,1251.0469 Q2255.625,1251.2969 2255.625,1251.6406 Q2255.625,1251.9844 2255.2813,1252.3906 Q2254.7813,1252.9688 2253.9844,1253.2969 Q2252.9063,1253.75 2251.6094,1253.75 Q2250.0938,1253.75 2248.8906,1253.125 Q2247.9063,1252.625 2247.2188,1251.5625 Q2246.5313,1250.4844 2246.5313,1249.2031 L2246.5313,1248.0469 Q2246.5313,1246.7188 2247.1406,1245.5781 Q2247.7656,1244.4219 2248.8594,1243.8125 Q2249.9531,1243.1875 2251.1875,1243.1875 Q2251.9219,1243.1875 2252.5625,1243.3594 Q2253.2188,1243.5156 2253.7656,1243.875 Z " fill="#000000"/><text fill="#000000" font-family="sans-serif" font-size="12" lengthAdjust="spacing" textLength="72" x="2265" y="1252.9102">EmailSender</text><line style="stroke:#A80036;stroke-width:1.5;" x1="2237" x2="2339" y1="1264" y2="1264"/><line style="stroke:#A80036;stroke-width:1.5;" x1="2237" x2="2339" y1="1272" y2="1272"/><!--MD5=[cfeeba60e8fdffa5dcb36e6483d9c98b]
link ScheduleVaccineReceptionistUI to ScheduleVaccineController--><path codeLine="166" d="M1468,55.2 C1468,70.24 1468,90.7 1468,110.72 " fill="none" id="ScheduleVaccineReceptionistUI-to-ScheduleVaccineController" style="stroke:#A80036;stroke-width:1.0;stroke-dasharray:7.0,7.0;"/><polygon fill="#A80036" points="1468,115.8,1472,106.8,1468,110.8,1464,106.8,1468,115.8" style="stroke:#A80036;stroke-width:1.0;"/><!--MD5=[db2a7a64eac7f92e6334ba110bbdde2d]
link ScheduleVaccineController to Company--><path codeLine="168" d="M1347.78,247.02 C1312.36,266.03 1273.76,286.74 1238.89,305.45 " fill="none" id="ScheduleVaccineController-to-Company" style="stroke:#A80036;stroke-width:1.0;stroke-dasharray:7.0,7.0;"/><polygon fill="#A80036" points="1234.22,307.96,1244.0404,307.2112,1238.6214,305.5878,1240.2448,300.1689,1234.22,307.96" style="stroke:#A80036;stroke-width:1.0;"/><!--MD5=[0a0ae18dee2276c8fda561f8a73e2257]
reverse link ScheduleVaccineController to AppointmentInsertDto--><path codeLine="169" d="M1636.92,227.64 C1699.27,255.39 1755,298.84 1755,365.5 C1755,365.5 1755,365.5 1755,1449 C1755,1484.42 1739.96,1518.67 1720.58,1548.1 " fill="none" id="ScheduleVaccineController-backto-AppointmentInsertDto" style="stroke:#A80036;stroke-width:1.0;"/><polygon fill="#A80036" points="1632.04,225.51,1638.6821,232.782,1636.6208,227.5141,1641.8887,225.4527,1632.04,225.51" style="stroke:#A80036;stroke-width:1.0;"/><!--MD5=[3a36e47088afde0a08bf1fb6532140b2]
link ScheduleVaccineController to VaccinationCenterMapper--><path codeLine="170" d="M1502.2,247.02 C1517.13,275.19 1534.05,307.11 1546.56,330.71 " fill="none" id="ScheduleVaccineController-to-VaccinationCenterMapper" style="stroke:#A80036;stroke-width:1.0;stroke-dasharray:7.0,7.0;"/><polygon fill="#A80036" points="1549,335.32,1548.3271,325.4942,1546.6619,330.9004,1541.2557,329.2352,1549,335.32" style="stroke:#A80036;stroke-width:1.0;"/><!--MD5=[dcaf69741143def6bee2a1b6ba7dc4b4]
link ScheduleVaccineController to VaccineTypeMapper--><path codeLine="171" d="M1434.15,247.02 C1422.11,269.98 1408.76,295.43 1397.53,316.84 " fill="none" id="ScheduleVaccineController-to-VaccineTypeMapper" style="stroke:#A80036;stroke-width:1.0;stroke-dasharray:7.0,7.0;"/><polygon fill="#A80036" points="1395.16,321.34,1402.889,315.2356,1397.487,316.9145,1395.8081,311.5125,1395.16,321.34" style="stroke:#A80036;stroke-width:1.0;"/><!--MD5=[bc0d5b4bfe6e1bf0a8fced13bc4bdd47]
link Company to VaccinationCenterStore--><path codeLine="173" d="M1019.89,407.15 C957.05,430.41 877.39,459.89 811.86,484.15 " fill="none" id="Company-to-VaccinationCenterStore" style="stroke:#A80036;stroke-width:1.0;stroke-dasharray:7.0,7.0;"/><polygon fill="#A80036" points="807.17,485.89,816.9999,486.5015,811.8563,484.1469,814.2109,479.0034,807.17,485.89" style="stroke:#A80036;stroke-width:1.0;"/><!--MD5=[26b80dd60d3305f854b992ec0b603e2d]
link Company to VaccineTypeStore--><path codeLine="174" d="M1019.66,370.36 C834.88,380.28 452.04,423.21 197,606 C167.77,626.95 142.53,658.92 125.12,684.6 " fill="none" id="Company-to-VaccineTypeStore" style="stroke:#A80036;stroke-width:1.0;stroke-dasharray:7.0,7.0;"/><polygon fill="#A80036" points="122.18,688.99,130.513,683.7401,124.9634,684.8363,123.8672,679.2867,122.18,688.99" style="stroke:#A80036;stroke-width:1.0;"/><!--MD5=[8ded5959d12d57061fb7a38976b0fc68]
link Company to AppointmentScheduleList--><path codeLine="175" d="M1131.98,425.1 C1136.07,472.36 1142,540.99 1147.17,600.77 " fill="none" id="Company-to-AppointmentScheduleList" style="stroke:#A80036;stroke-width:1.0;stroke-dasharray:7.0,7.0;"/><polygon fill="#A80036" points="1147.61,605.79,1150.8245,596.4805,1147.1818,600.8084,1142.8539,597.1656,1147.61,605.79" style="stroke:#A80036;stroke-width:1.0;"/><!--MD5=[1bd9080c7e199931e49bc5a1616681ac]
link Company to SNSUserStore--><path codeLine="176" d="M1179.95,425.25 C1199.24,446.29 1220.64,469.63 1238.34,488.92 " fill="none" id="Company-to-SNSUserStore" style="stroke:#A80036;stroke-width:1.0;stroke-dasharray:7.0,7.0;"/><polygon fill="#A80036" points="1241.83,492.73,1238.6873,483.396,1238.4475,489.0478,1232.7957,488.808,1241.83,492.73" style="stroke:#A80036;stroke-width:1.0;"/><!--MD5=[8c304936b446fd8cea914e03fbadd4b7]
link VaccinationCenterStore to VaccinationCenter--><path codeLine="178" d="M688,576.3 C688,644.87 688,778.61 688,872.66 " fill="none" id="VaccinationCenterStore-to-VaccinationCenter" style="stroke:#A80036;stroke-width:1.0;"/><polygon fill="#A80036" points="688,877.67,692,868.67,688,872.67,684,868.67,688,877.67" style="stroke:#A80036;stroke-width:1.0;"/><text fill="#000000" font-family="sans-serif" font-size="13" lengthAdjust="spacing" textLength="36" x="689" y="732.4951">stores</text><text fill="#000000" font-family="sans-serif" font-size="13" lengthAdjust="spacing" textLength="7" x="680.5297" y="597.014">1</text><text fill="#000000" font-family="sans-serif" font-size="13" lengthAdjust="spacing" textLength="5" x="682.8164" y="867.2154">*</text><!--MD5=[71d75b14c01668c1ea00f1e286358a3a]
link VaccinationCenterStore to Vaccine--><path codeLine="179" d="M580.9,576.03 C441.64,641.24 216,777.66 216,977 C216,977 216,977 216,1449 C216,1492.1 225.29,1539.7 234.55,1576.47 " fill="none" id="VaccinationCenterStore-to-Vaccine" style="stroke:#A80036;stroke-width:1.0;stroke-dasharray:7.0,7.0;"/><polygon fill="#A80036" points="235.8,1581.36,237.4641,1571.6527,234.5705,1576.5135,229.7097,1573.6199,235.8,1581.36" style="stroke:#A80036;stroke-width:1.0;"/><!--MD5=[3f8bc51bb69ce45c3e3ea0b764df71f1]
link SNSUser to Appointment--><path codeLine="181" d="M1436.21,1071.29 C1426.21,1094.48 1415.37,1119.61 1405.02,1143.63 " fill="none" id="SNSUser-to-Appointment" style="stroke:#A80036;stroke-width:1.0;"/><polygon fill="#FFFFFF" points="1399.82,1155.69,1405.8726,1151.77,1404.582,1144.6753,1398.5295,1148.5953,1399.82,1155.69" style="stroke:#A80036;stroke-width:1.0;"/><text fill="#000000" font-family="sans-serif" font-size="13" lengthAdjust="spacing" textLength="7" x="1425.7603" y="1092.8564">1</text><text fill="#000000" font-family="sans-serif" font-size="13" lengthAdjust="spacing" textLength="5" x="1397.781" y="1145.2368">*</text><!--MD5=[5bffdd6f8ef67cfbc17d6bd4398d763c]
link AppointmentScheduleList to Appointment--><path codeLine="183" d="M1151.89,848.31 C1152.77,918.19 1161.69,1006.3 1194,1078 C1205.84,1104.28 1223.15,1129.26 1242.1,1151.72 " fill="none" id="AppointmentScheduleList-to-Appointment" style="stroke:#A80036;stroke-width:1.0;"/><polygon fill="#A80036" points="1245.41,1155.59,1242.6104,1146.1474,1242.1643,1151.7867,1236.5251,1151.3406,1245.41,1155.59" style="stroke:#A80036;stroke-width:1.0;"/><text fill="#000000" font-family="sans-serif" font-size="13" lengthAdjust="spacing" textLength="36" x="1195" y="983.4951">stores</text><text fill="#000000" font-family="sans-serif" font-size="13" lengthAdjust="spacing" textLength="7" x="1144.3344" y="869.2996">1</text><text fill="#000000" font-family="sans-serif" font-size="13" lengthAdjust="spacing" textLength="5" x="1232.0315" y="1145.1295">*</text><!--MD5=[67943156b3bfb2a49059402d02be51d3]
link UserHealthData to SNSUser--><path codeLine="185" d="M1492.5,569.18 C1489.83,634.98 1484.2,774.2 1480.26,871.58 " fill="none" id="UserHealthData-to-SNSUser" style="stroke:#A80036;stroke-width:1.0;"/><polygon fill="#FFFFFF" points="1479.73,884.73,1483.9707,878.8976,1480.218,872.7399,1475.9773,878.5723,1479.73,884.73" style="stroke:#A80036;stroke-width:1.0;"/><!--MD5=[e6b07597ecf97135b3551bd145bd9c3d]
reverse link Appointment to VaccineType--><path codeLine="187" d="M1181.97,1339.72 C1164.98,1345.91 1147.81,1351.49 1131,1356 C850.83,1431.22 500.04,1444.33 370.81,1446.56 " fill="none" id="Appointment-backto-VaccineType" style="stroke:#A80036;stroke-width:1.0;"/><polygon fill="#FFFFFF" points="1194.3,1335.12,1187.2801,1333.4706,1183.0576,1339.3161,1190.0775,1340.9655,1194.3,1335.12" style="stroke:#A80036;stroke-width:1.0;"/><!--MD5=[4e3bd2b934646162150ee15630d45001]
reverse link ISender to Appointment--><path codeLine="189" d="M1965.05,997.21 C1876.11,1034.92 1667.73,1123.26 1519.76,1186 " fill="none" id="ISender-backto-Appointment" style="stroke:#A80036;stroke-width:1.0;"/><polygon fill="#A80036" points="1969.71,995.23,1959.8624,995.0728,1965.1091,997.1875,1962.9944,1002.4342,1969.71,995.23" style="stroke:#A80036;stroke-width:1.0;"/><polygon fill="#000000" points="1712.6034,1115.2241,1703.1286,1116.0489,1705.423,1121.4605,1712.6034,1115.2241" style="stroke:#000000;stroke-width:1.0;"/><text fill="#000000" font-family="sans-serif" font-size="13" lengthAdjust="spacing" textLength="43" x="1717" y="1122.4951">triggers</text><text fill="#000000" font-family="sans-serif" font-size="13" lengthAdjust="spacing" textLength="22" x="1939.8544" y="994.2242">0..1</text><text fill="#000000" font-family="sans-serif" font-size="13" lengthAdjust="spacing" textLength="7" x="1527.2937" y="1179.9643">1</text><!--MD5=[b87d85fc97cc3f91d0afd88eb00009fe]
link SenderFactory to ISender--><path codeLine="191" d="M2008,555.3 C2008,630.54 2008,866.91 2008,948.77 " fill="none" id="SenderFactory-to-ISender" style="stroke:#A80036;stroke-width:1.0;"/><polygon fill="#A80036" points="2008,953.93,2012,944.93,2008,948.93,2004,944.93,2008,953.93" style="stroke:#A80036;stroke-width:1.0;"/><polygon fill="#000000" points="2013,732.1758,2015.9389,723.1307,2010.0611,723.1307,2013,732.1758" style="stroke:#000000;stroke-width:1.0;"/><text fill="#000000" font-family="sans-serif" font-size="13" lengthAdjust="spacing" textLength="43" x="2022" y="732.4951">creates</text><!--MD5=[e92ab4778a14d751b00a64f10118f72b]
reverse link ISender to SMSSender--><path codeLine="192" d="M1991.71,1021.01 C1969.94,1077.18 1931.86,1175.4 1912.71,1224.81 " fill="none" id="ISender-backto-SMSSender" style="stroke:#A80036;stroke-width:1.0;stroke-dasharray:7.0,7.0;"/><polygon fill="none" points="1985.31,1018.17,1999.06,1002.06,1998.36,1023.23,1985.31,1018.17" style="stroke:#A80036;stroke-width:1.0;"/><!--MD5=[a307af71b640ac660673838bc95b197a]
reverse link ISender to EmailSender--><path codeLine="193" d="M2056.69,1014.32 C2101.33,1047.97 2167.92,1101.47 2218,1156 C2239.93,1179.87 2260.81,1210.85 2273.96,1231.74 " fill="none" id="ISender-backto-EmailSender" style="stroke:#A80036;stroke-width:1.0;stroke-dasharray:7.0,7.0;"/><polygon fill="none" points="2052.3,1019.78,2040.44,1002.22,2060.66,1008.55,2052.3,1019.78" style="stroke:#A80036;stroke-width:1.0;"/><!--MD5=[8a1a081dc8ec919620e7d0b05751797d]
reverse link ISender to ConsoleSender--><path codeLine="194" d="M2024.29,1021.01 C2046.06,1077.18 2084.14,1175.4 2103.29,1224.81 " fill="none" id="ISender-backto-ConsoleSender" style="stroke:#A80036;stroke-width:1.0;stroke-dasharray:7.0,7.0;"/><polygon fill="none" points="2017.64,1023.23,2016.94,1002.06,2030.69,1018.17,2017.64,1023.23" style="stroke:#A80036;stroke-width:1.0;"/><!--MD5=[7991057a0b57fcb72665747661b5eb1a]
link VaccineType to Vaccine--><path codeLine="196" d="M311.78,1472.3 C303.32,1496.3 289.7,1534.91 277.71,1568.93 " fill="none" id="VaccineType-to-Vaccine" style="stroke:#A80036;stroke-width:1.0;"/><polygon fill="#FFFFFF" points="273.38,1581.22,279.1452,1576.8884,277.3642,1569.9007,271.599,1574.2323,273.38,1581.22" style="stroke:#A80036;stroke-width:1.0;"/><!--MD5=[d008df8d9f8e445f2ab98a1ffd9c1902]
link VaccineTypeStore to VaccineType--><path codeLine="198" d="M106.17,765.28 C123.35,864.36 176.54,1141.31 267,1356 C276.42,1378.37 290.33,1402.01 301.53,1419.58 " fill="none" id="VaccineTypeStore-to-VaccineType" style="stroke:#A80036;stroke-width:1.0;"/><polygon fill="#A80036" points="304.31,1423.92,302.8079,1414.1864,301.6062,1419.7141,296.0785,1418.5124,304.31,1423.92" style="stroke:#A80036;stroke-width:1.0;"/><polygon fill="#000000" points="192.4305,1121.9668,192.6588,1112.459,187.0266,1114.1406,192.4305,1121.9668" style="stroke:#000000;stroke-width:1.0;"/><text fill="#000000" font-family="sans-serif" font-size="13" lengthAdjust="spacing" textLength="36" x="200" y="1122.4951">stores</text><!--MD5=[b01d27099955aced792f1ce85db49798]
link SNSUserStore to SNSUser--><path codeLine="200" d="M1298.21,569.2 C1304.85,580.84 1311.97,593.82 1318,606 C1363.11,697.18 1407.91,804.38 1438.23,880.04 " fill="none" id="SNSUserStore-to-SNSUser" style="stroke:#A80036;stroke-width:1.0;"/><polygon fill="#A80036" points="1440.2,884.98,1440.5714,875.1381,1438.343,880.3376,1433.1436,878.1093,1440.2,884.98" style="stroke:#A80036;stroke-width:1.0;"/><text fill="#000000" font-family="sans-serif" font-size="13" lengthAdjust="spacing" textLength="36" x="1425" y="732.4951">stores</text><!--MD5=[9c09d1db3efb59cb07492bc4345754ed]
reverse link VaccinationCenter to CommunityMassVaccinationCenter--><path codeLine="202" d="M749.92,1096.06 C776.88,1147.01 805.89,1201.86 821.8,1231.95 " fill="none" id="VaccinationCenter-backto-CommunityMassVaccinationCenter" style="stroke:#A80036;stroke-width:1.0;"/><polygon fill="none" points="743.67,1099.2,740.5,1078.25,756.04,1092.66,743.67,1099.2" style="stroke:#A80036;stroke-width:1.0;"/><!--MD5=[4d7f47162e377c4884c583baac9698b3]
reverse link VaccinationCenter to HealthCareCenter--><path codeLine="203" d="M876.88,1089.41 C907.13,1110.08 937.25,1132.6 964,1156 C990.3,1179 1015.54,1210.44 1031.37,1231.67 " fill="none" id="VaccinationCenter-backto-HealthCareCenter" style="stroke:#A80036;stroke-width:1.0;"/><polygon fill="none" points="872.77,1095.09,860.07,1078.13,880.58,1083.47,872.77,1095.09" style="stroke:#A80036;stroke-width:1.0;"/><!--MD5=[f17e71def2e220f6a6398972244b7dbb]
link VaccinationCenter to Appointment--><path codeLine="204" d="M940.14,1078.08 C1002.67,1103.11 1069.41,1130.21 1131,1156 C1147.69,1162.99 1165.03,1170.37 1182.35,1177.82 " fill="none" id="VaccinationCenter-to-Appointment" style="stroke:#A80036;stroke-width:1.0;"/><polygon fill="#FFFFFF" points="1194.33,1182.98,1190.4039,1176.9314,1183.3105,1178.2291,1187.2366,1184.2777,1194.33,1182.98" style="stroke:#A80036;stroke-width:1.0;"/><text fill="#000000" font-family="sans-serif" font-size="13" lengthAdjust="spacing" textLength="7" x="952.1765" y="1099.856">1</text><text fill="#000000" font-family="sans-serif" font-size="13" lengthAdjust="spacing" textLength="5" x="1181.3296" y="1176.5545">*</text><!--MD5=[b649bef0048cf03271726558ee7073ed]
link VaccinationCenter to Slot--><path codeLine="205" d="M667.5,1078.25 C657.95,1124.5 647.09,1177.08 639.72,1212.78 " fill="none" id="VaccinationCenter-to-Slot" style="stroke:#A80036;stroke-width:1.0;"/><polygon fill="#A80036" points="638.66,1217.92,644.3834,1209.9049,639.6626,1213.0216,636.5459,1208.3007,638.66,1217.92" style="stroke:#A80036;stroke-width:1.0;"/><polygon fill="#000000" points="665.9888,1122.0725,670.6962,1113.8086,664.9398,1112.6199,665.9888,1122.0725" style="stroke:#000000;stroke-width:1.0;"/><text fill="#000000" font-family="sans-serif" font-size="13" lengthAdjust="spacing" textLength="21" x="676" y="1122.4951">has</text><text fill="#000000" font-family="sans-serif" font-size="13" lengthAdjust="spacing" textLength="7" x="658.7375" y="1099.7005">1</text><text fill="#000000" font-family="sans-serif" font-size="13" lengthAdjust="spacing" textLength="7" x="632.401" y="1207.2677">1</text><!--MD5=[e67749f86d2edce8d072e016ba76df74]
link VaccinationCenter to Time--><path codeLine="206" d="M589.11,1078.25 C545.43,1122.09 496.09,1171.61 460.77,1207.05 " fill="none" id="VaccinationCenter-to-Time" style="stroke:#A80036;stroke-width:1.0;"/><polygon fill="#A80036" points="456.97,1210.87,466.1552,1207.3159,460.4984,1207.3273,460.487,1201.6705,456.97,1210.87" style="stroke:#A80036;stroke-width:1.0;"/><polygon fill="#000000" points="560.4708,1120.7176,568.937,1116.3848,564.7733,1112.2359,560.4708,1120.7176" style="stroke:#000000;stroke-width:1.0;"/><text fill="#000000" font-family="sans-serif" font-size="13" lengthAdjust="spacing" textLength="21" x="573" y="1122.4951">has</text><text fill="#000000" font-family="sans-serif" font-size="13" lengthAdjust="spacing" textLength="7" x="574.5907" y="1099.7005">1</text><text fill="#000000" font-family="sans-serif" font-size="13" lengthAdjust="spacing" textLength="7" x="456.167" y="1200.2942">1</text><!--MD5=[d81ec9c0274f7bef48d0d06cd193af45]
link AppointmentInsertMapper to AppointmentInsertDto--><path codeLine="208" d="M1535.01,1479.11 C1544.89,1494.74 1557.59,1514.86 1570.64,1535.52 " fill="none" id="AppointmentInsertMapper-to-AppointmentInsertDto" style="stroke:#A80036;stroke-width:1.0;"/><polygon fill="#A80036" points="1573.43,1539.93,1572.0048,1530.1848,1570.7595,1535.7029,1565.2414,1534.4576,1573.43,1539.93" style="stroke:#A80036;stroke-width:1.0;"/><!--MD5=[a8792f907f8774a3a37695718a88d5c1]
link Appointment to AppointmentInsertMapper--><path codeLine="209" d="M1439.99,1356.17 C1457.07,1376.58 1473.93,1396.73 1487.42,1412.84 " fill="none" id="Appointment-to-AppointmentInsertMapper" style="stroke:#A80036;stroke-width:1.0;"/><polygon fill="#A80036" points="1490.77,1416.85,1488.0466,1407.3852,1487.555,1413.0206,1481.9196,1412.5291,1490.77,1416.85" style="stroke:#A80036;stroke-width:1.0;"/><!--MD5=[fcc9bedc37e8cf47276713592fe5aef7]
@startuml US02_CD
skinparam classAttributeIconSize 0

class Appointment {
  - snsUser : SNSUser
  - date : Date
  - center : VaccinationCenter
  - vaccineType : VaccineType
  - sms : boolean
  +Appointment(SNSUserNumber, date, center, vaccineType, sms)
  +isSMS()
  +getVaccinationCenter()
  +getSnsUser()
  +getDate()
  +getVaccineType()
}

class AppointmentScheduleList {
  -appointments: Map<Calendar, Appointment[][]>
  -slotsPerDay : int
  -vaccinesPerSlot: int
  +createAppointment(snsUser,date,vaccineTypeDto,sms)
  +saveAppointment(appointment)
  +hasAppointmentToday(snsNumber)
  +validateAppointment(appointment)
  +checkSlotAvailability(date)

  -isValdSchedule(date)
  -existsScheduleForDay(date)
  -getAppointmentSlotIndex(date)
  -generateMessage(appointment)
  -sendNotification(notifcationDto)
}

class Vaccine   {
  -designation : String
  -brand : String
  -id : String
  -vacType : VaccineType

  +Vaccine(designation, id, brand, vacTypeId)
}

class ScheduleVaccineReceptionistUI {}

class ScheduleVaccineController {
  +ScheduleVaccineController(company)
  +createAppointment(snsNumber,date,center,vaccineType,sms)
  +getSuggestedVaccineType()
  +getListOfVaccinationCentersWithVaccineType(vaccineTypeDto)
  +getListOfVaccineTypes()
  +save()

}

class Company {
  -designation: String
  +getOngoingOutbreakVaccineTypeCode()
  +getVaccinationCenterStore()
  +getVaccineTypeStore()
  +getSnsUserStore()
}

class SNSUser {
  - citizenCard: String 
  - snsNumber: String 
  - birthDay: Date 
  - gender: Char
  - phoneNumber: String 
  - address: String
  - userHealthData : UserHealthData
  + SNSUser(citizenCard, snsNumber, name, birthDay, gender, phoneNumber, email, address)
  +addAppointmentToList(appointment)
  +hasAppointmentForVaccineType(vaccineType)
  }

class UserHealthData {
 - appointments: List<Appointment>
 + addAppointment(appointment)
}

class VaccinationCenter{
  - name: String
  - address: String
  - emailAddress: String
  - phoneNumber: String
  - faxNumber: String
  - websiteAddress: String
  +VaccinationCenter(name,address,emailAddres,phoneNumber,faxNumber,websiteAddress,openingHours,closingHours,slotDuration,maximumVaccinesPerSlot,coordinator)
  +isOpenAt(hours)
  +getRealClosingHours()
  +hasAvailabilityInSlot(date)
  +administersVaccineType(vaccineType)
}

class Time {
  - hours : int
  - minutes : int
  +isBetween(openingHours,getRealClosingHours())
}

class Slot {
  - slotDuration : int
  - maxVacPerSlot : int
}

class VaccinationCenterStore {
-availableVaccinationCentersList: List<VaccinationCenter>
+getVaccinationCenterWithEmail(email)
+getVaccinationCentersWithVaccineType(vaccineType)
}

class VaccineType {}

class VaccineTypeStore {
  -vaccineTypes : List<VaccineType>
  +getVaccineTypes()
}

class SMSSender {
  +sendSMS(phoneNumber,message)
}

class VaccineTypeMapper {
+toDto(vaccineTypes)
+toDto(vaccineType)
+toModel(vaccineTypeDto)
}

class VaccinationCenterMapper {
  +toDto(vaccinationCenters)
}

class AppointmentInsertMapper {
  +toDto(appointment)
}

class AppointmentInsertDto {
  -snsUserNumber : String
  -vaccineTypeDescription : String
  -centerName : String
  -date : String
  -sms: String
  +getSNSNumber()
  +getDate()
  +getCenter()
  +getVaccineType()
  +getSmsPermission()
  +toString()
}

class SNSUserStore {
  +checkSNSUserExists(snsNumber)
  +findSnsUserByNumber(snsNumber)                           
}

class CommunityMassVaccinationCenter {}

class HealthCareCenter {}

interface ISender {}

class ConsoleSender {
  +sendNotification(notificationDto)
}

ScheduleVaccineReceptionistUI ..> ScheduleVaccineController

ScheduleVaccineController ..> Company
ScheduleVaccineController <- - AppointmentInsertDto
ScheduleVaccineController ..> VaccinationCenterMapper
ScheduleVaccineController ..> VaccineTypeMapper 

Company ..> VaccinationCenterStore
Company ..> VaccineTypeStore
Company ..> AppointmentScheduleList
Company ..> SNSUserStore

VaccinationCenterStore "1" - -> "*" VaccinationCenter : stores
VaccinationCenterStore ..> Vaccine

SNSUser "1" - -o "*" Appointment

AppointmentScheduleList "1" - -> "*" Appointment : stores

UserHealthData  - -o SNSUser

Appointment o- - VaccineType

ISender "0..1" <- - "1" Appointment : triggers <

SenderFactory - -> ISender : creates >
ISender <|.. SMSSender
ISender <|.. EmailSender
ISender <|.. ConsoleSender

VaccineType - -o Vaccine 

VaccineTypeStore - -> VaccineType : stores > 

SNSUserStore - -> SNSUser : stores

VaccinationCenter <|- - CommunityMassVaccinationCenter
VaccinationCenter <|- - HealthCareCenter
VaccinationCenter "1" - -o "*" Appointment
VaccinationCenter "1" - -> "1" Slot : has >
VaccinationCenter "1" - -> "1" Time : has >

AppointmentInsertMapper - -> AppointmentInsertDto
Appointment - -> AppointmentInsertMapper


@enduml

PlantUML version 1.2022.0(Tue Jan 11 16:16:42 WET 2022)
(GPL source distribution)
Java Runtime: Java(TM) SE Runtime Environment
JVM: Java HotSpot(TM) 64-Bit Server VM
Default Encoding: Cp1252
Language: pt
Country: PT
--></g></svg>