<?xml version="1.0" encoding="UTF-8" standalone="no"?><svg xmlns="http://www.w3.org/2000/svg" xmlns:xlink="http://www.w3.org/1999/xlink" contentScriptType="application/ecmascript" contentStyleType="text/css" height="1503px" preserveAspectRatio="none" style="width:1253px;height:1503px;background:#FFFFFF;" version="1.1" viewBox="0 0 1253 1503" width="1253px" zoomAndPan="magnify"><defs><filter height="300%" id="f1h39390mdkig0" width="300%" x="-1" y="-1"><feGaussianBlur result="blurOut" stdDeviation="2.0"/><feColorMatrix in="blurOut" result="blurOut2" type="matrix" values="0 0 0 0 0 0 0 0 0 0 0 0 0 0 0 0 0 0 .4 0"/><feOffset dx="4.0" dy="4.0" in="blurOut2" result="blurOut3"/><feBlend in="SourceGraphic" in2="blurOut3" mode="normal"/></filter></defs><g><!--MD5=[c508b5b6bbe276ff5e2700b6641f837f]
class Appointment--><rect codeLine="3" fill="#FEFECE" filter="url(#f1h39390mdkig0)" height="89.5078" id="Appointment" style="stroke:#A80036;stroke-width:1.5;" width="350" x="482" y="1400"/><ellipse cx="618.25" cy="1416" fill="#ADD1B2" rx="11" ry="11" style="stroke:#A80036;stroke-width:1.0;"/><path d="M621.0156,1411.875 Q621.1719,1411.6563 621.3594,1411.5469 Q621.5469,1411.4375 621.7656,1411.4375 Q622.1406,1411.4375 622.375,1411.7031 Q622.6094,1411.9531 622.6094,1412.5625 L622.6094,1414.0156 Q622.6094,1414.625 622.375,1414.8906 Q622.1406,1415.1563 621.7656,1415.1563 Q621.4219,1415.1563 621.2188,1414.9531 Q621.0156,1414.7656 620.9063,1414.25 Q620.8594,1413.8906 620.6719,1413.7031 Q620.3438,1413.3281 619.7344,1413.1094 Q619.125,1412.8906 618.5,1412.8906 Q617.7344,1412.8906 617.0938,1413.2188 Q616.4688,1413.5469 615.9688,1414.2969 Q615.4844,1415.0469 615.4844,1416.0781 L615.4844,1417.1719 Q615.4844,1418.4063 616.375,1419.2344 Q617.2656,1420.0469 618.8594,1420.0469 Q619.7969,1420.0469 620.4531,1419.7969 Q620.8438,1419.6406 621.2656,1419.2031 Q621.5313,1418.9375 621.6719,1418.8594 Q621.8281,1418.7813 622.0313,1418.7813 Q622.3594,1418.7813 622.6094,1419.0469 Q622.875,1419.2969 622.875,1419.6406 Q622.875,1419.9844 622.5313,1420.3906 Q622.0313,1420.9688 621.2344,1421.2969 Q620.1563,1421.75 618.8594,1421.75 Q617.3438,1421.75 616.1406,1421.125 Q615.1563,1420.625 614.4688,1419.5625 Q613.7813,1418.4844 613.7813,1417.2031 L613.7813,1416.0469 Q613.7813,1414.7188 614.3906,1413.5781 Q615.0156,1412.4219 616.1094,1411.8125 Q617.2031,1411.1875 618.4375,1411.1875 Q619.1719,1411.1875 619.8125,1411.3594 Q620.4688,1411.5156 621.0156,1411.875 Z " fill="#000000"/><text fill="#000000" font-family="sans-serif" font-size="12" lengthAdjust="spacing" textLength="69" x="638.75" y="1420.9102">Appointment</text><line style="stroke:#A80036;stroke-width:1.5;" x1="483" x2="831" y1="1432" y2="1432"/><text fill="#000000" font-family="sans-serif" font-size="11" lengthAdjust="spacing" textLength="53" x="488" y="1447.4189">-date: Date</text><text fill="#000000" font-family="sans-serif" font-size="11" lengthAdjust="spacing" textLength="57" x="488" y="1461.2549">-time: String</text><line style="stroke:#A80036;stroke-width:1.5;" x1="483" x2="831" y1="1467.6719" y2="1467.6719"/><text fill="#000000" font-family="sans-serif" font-size="11" lengthAdjust="spacing" textLength="338" x="488" y="1483.0908">+Appointment(SNSUserNumber, date, time, center, vaccineType, sms)</text><!--MD5=[3b05b00339990c8bac96769c0a2fc94b]
class AppointmentStore--><rect codeLine="9" fill="#FEFECE" filter="url(#f1h39390mdkig0)" height="48" id="AppointmentStore" style="stroke:#A80036;stroke-width:1.5;" width="130" x="861" y="1322"/><ellipse cx="876" cy="1338" fill="#ADD1B2" rx="11" ry="11" style="stroke:#A80036;stroke-width:1.0;"/><path d="M878.7656,1333.875 Q878.9219,1333.6563 879.1094,1333.5469 Q879.2969,1333.4375 879.5156,1333.4375 Q879.8906,1333.4375 880.125,1333.7031 Q880.3594,1333.9531 880.3594,1334.5625 L880.3594,1336.0156 Q880.3594,1336.625 880.125,1336.8906 Q879.8906,1337.1563 879.5156,1337.1563 Q879.1719,1337.1563 878.9688,1336.9531 Q878.7656,1336.7656 878.6563,1336.25 Q878.6094,1335.8906 878.4219,1335.7031 Q878.0938,1335.3281 877.4844,1335.1094 Q876.875,1334.8906 876.25,1334.8906 Q875.4844,1334.8906 874.8438,1335.2188 Q874.2188,1335.5469 873.7188,1336.2969 Q873.2344,1337.0469 873.2344,1338.0781 L873.2344,1339.1719 Q873.2344,1340.4063 874.125,1341.2344 Q875.0156,1342.0469 876.6094,1342.0469 Q877.5469,1342.0469 878.2031,1341.7969 Q878.5938,1341.6406 879.0156,1341.2031 Q879.2813,1340.9375 879.4219,1340.8594 Q879.5781,1340.7813 879.7813,1340.7813 Q880.1094,1340.7813 880.3594,1341.0469 Q880.625,1341.2969 880.625,1341.6406 Q880.625,1341.9844 880.2813,1342.3906 Q879.7813,1342.9688 878.9844,1343.2969 Q877.9063,1343.75 876.6094,1343.75 Q875.0938,1343.75 873.8906,1343.125 Q872.9063,1342.625 872.2188,1341.5625 Q871.5313,1340.4844 871.5313,1339.2031 L871.5313,1338.0469 Q871.5313,1336.7188 872.1406,1335.5781 Q872.7656,1334.4219 873.8594,1333.8125 Q874.9531,1333.1875 876.1875,1333.1875 Q876.9219,1333.1875 877.5625,1333.3594 Q878.2188,1333.5156 878.7656,1333.875 Z " fill="#000000"/><text fill="#000000" font-family="sans-serif" font-size="12" lengthAdjust="spacing" textLength="98" x="890" y="1342.9102">AppointmentStore</text><line style="stroke:#A80036;stroke-width:1.5;" x1="862" x2="990" y1="1354" y2="1354"/><line style="stroke:#A80036;stroke-width:1.5;" x1="862" x2="990" y1="1362" y2="1362"/><!--MD5=[dcbdad995b733346266da03420fdd990]
class AppointmentUI--><rect codeLine="11" fill="#FEFECE" filter="url(#f1h39390mdkig0)" height="48" id="AppointmentUI" style="stroke:#A80036;stroke-width:1.5;" width="113" x="472.5" y="7"/><ellipse cx="487.5" cy="23" fill="#ADD1B2" rx="11" ry="11" style="stroke:#A80036;stroke-width:1.0;"/><path d="M490.2656,18.875 Q490.4219,18.6563 490.6094,18.5469 Q490.7969,18.4375 491.0156,18.4375 Q491.3906,18.4375 491.625,18.7031 Q491.8594,18.9531 491.8594,19.5625 L491.8594,21.0156 Q491.8594,21.625 491.625,21.8906 Q491.3906,22.1563 491.0156,22.1563 Q490.6719,22.1563 490.4688,21.9531 Q490.2656,21.7656 490.1563,21.25 Q490.1094,20.8906 489.9219,20.7031 Q489.5938,20.3281 488.9844,20.1094 Q488.375,19.8906 487.75,19.8906 Q486.9844,19.8906 486.3438,20.2188 Q485.7188,20.5469 485.2188,21.2969 Q484.7344,22.0469 484.7344,23.0781 L484.7344,24.1719 Q484.7344,25.4063 485.625,26.2344 Q486.5156,27.0469 488.1094,27.0469 Q489.0469,27.0469 489.7031,26.7969 Q490.0938,26.6406 490.5156,26.2031 Q490.7813,25.9375 490.9219,25.8594 Q491.0781,25.7813 491.2813,25.7813 Q491.6094,25.7813 491.8594,26.0469 Q492.125,26.2969 492.125,26.6406 Q492.125,26.9844 491.7813,27.3906 Q491.2813,27.9688 490.4844,28.2969 Q489.4063,28.75 488.1094,28.75 Q486.5938,28.75 485.3906,28.125 Q484.4063,27.625 483.7188,26.5625 Q483.0313,25.4844 483.0313,24.2031 L483.0313,23.0469 Q483.0313,21.7188 483.6406,20.5781 Q484.2656,19.4219 485.3594,18.8125 Q486.4531,18.1875 487.6875,18.1875 Q488.4219,18.1875 489.0625,18.3594 Q489.7188,18.5156 490.2656,18.875 Z " fill="#000000"/><text fill="#000000" font-family="sans-serif" font-size="12" lengthAdjust="spacing" textLength="81" x="501.5" y="27.9102">AppointmentUI</text><line style="stroke:#A80036;stroke-width:1.5;" x1="473.5" x2="584.5" y1="39" y2="39"/><line style="stroke:#A80036;stroke-width:1.5;" x1="473.5" x2="584.5" y1="47" y2="47"/><!--MD5=[a13f90256d6dda825146be5048c2dd0b]
class AppointmentController--><rect codeLine="13" fill="#FEFECE" filter="url(#f1h39390mdkig0)" height="75.6719" id="AppointmentController" style="stroke:#A80036;stroke-width:1.5;" width="378" x="340" y="116"/><ellipse cx="463.25" cy="132" fill="#ADD1B2" rx="11" ry="11" style="stroke:#A80036;stroke-width:1.0;"/><path d="M466.0156,127.875 Q466.1719,127.6563 466.3594,127.5469 Q466.5469,127.4375 466.7656,127.4375 Q467.1406,127.4375 467.375,127.7031 Q467.6094,127.9531 467.6094,128.5625 L467.6094,130.0156 Q467.6094,130.625 467.375,130.8906 Q467.1406,131.1563 466.7656,131.1563 Q466.4219,131.1563 466.2188,130.9531 Q466.0156,130.7656 465.9063,130.25 Q465.8594,129.8906 465.6719,129.7031 Q465.3438,129.3281 464.7344,129.1094 Q464.125,128.8906 463.5,128.8906 Q462.7344,128.8906 462.0938,129.2188 Q461.4688,129.5469 460.9688,130.2969 Q460.4844,131.0469 460.4844,132.0781 L460.4844,133.1719 Q460.4844,134.4063 461.375,135.2344 Q462.2656,136.0469 463.8594,136.0469 Q464.7969,136.0469 465.4531,135.7969 Q465.8438,135.6406 466.2656,135.2031 Q466.5313,134.9375 466.6719,134.8594 Q466.8281,134.7813 467.0313,134.7813 Q467.3594,134.7813 467.6094,135.0469 Q467.875,135.2969 467.875,135.6406 Q467.875,135.9844 467.5313,136.3906 Q467.0313,136.9688 466.2344,137.2969 Q465.1563,137.75 463.8594,137.75 Q462.3438,137.75 461.1406,137.125 Q460.1563,136.625 459.4688,135.5625 Q458.7813,134.4844 458.7813,133.2031 L458.7813,132.0469 Q458.7813,130.7188 459.3906,129.5781 Q460.0156,128.4219 461.1094,127.8125 Q462.2031,127.1875 463.4375,127.1875 Q464.1719,127.1875 464.8125,127.3594 Q465.4688,127.5156 466.0156,127.875 Z " fill="#000000"/><text fill="#000000" font-family="sans-serif" font-size="12" lengthAdjust="spacing" textLength="123" x="483.75" y="136.9102">AppointmentController</text><line style="stroke:#A80036;stroke-width:1.5;" x1="341" x2="717" y1="148" y2="148"/><line style="stroke:#A80036;stroke-width:1.5;" x1="341" x2="717" y1="156" y2="156"/><text fill="#000000" font-family="sans-serif" font-size="11" lengthAdjust="spacing" textLength="366" x="346" y="171.4189">+createAppointment(SNSUserNumber, date, time, center, vaccineType,sms)</text><text fill="#000000" font-family="sans-serif" font-size="11" lengthAdjust="spacing" textLength="156" x="346" y="185.2549">+saveAppointment(appointment)</text><!--MD5=[02e4b9b7573f1156f41e60aa5b4e25a4]
class Company--><rect codeLine="18" fill="#FEFECE" filter="url(#f1h39390mdkig0)" height="117.1797" id="Company" style="stroke:#A80036;stroke-width:1.5;" width="156" x="451" y="253"/><ellipse cx="498.25" cy="269" fill="#ADD1B2" rx="11" ry="11" style="stroke:#A80036;stroke-width:1.0;"/><path d="M501.0156,264.875 Q501.1719,264.6563 501.3594,264.5469 Q501.5469,264.4375 501.7656,264.4375 Q502.1406,264.4375 502.375,264.7031 Q502.6094,264.9531 502.6094,265.5625 L502.6094,267.0156 Q502.6094,267.625 502.375,267.8906 Q502.1406,268.1563 501.7656,268.1563 Q501.4219,268.1563 501.2188,267.9531 Q501.0156,267.7656 500.9063,267.25 Q500.8594,266.8906 500.6719,266.7031 Q500.3438,266.3281 499.7344,266.1094 Q499.125,265.8906 498.5,265.8906 Q497.7344,265.8906 497.0938,266.2188 Q496.4688,266.5469 495.9688,267.2969 Q495.4844,268.0469 495.4844,269.0781 L495.4844,270.1719 Q495.4844,271.4063 496.375,272.2344 Q497.2656,273.0469 498.8594,273.0469 Q499.7969,273.0469 500.4531,272.7969 Q500.8438,272.6406 501.2656,272.2031 Q501.5313,271.9375 501.6719,271.8594 Q501.8281,271.7813 502.0313,271.7813 Q502.3594,271.7813 502.6094,272.0469 Q502.875,272.2969 502.875,272.6406 Q502.875,272.9844 502.5313,273.3906 Q502.0313,273.9688 501.2344,274.2969 Q500.1563,274.75 498.8594,274.75 Q497.3438,274.75 496.1406,274.125 Q495.1563,273.625 494.4688,272.5625 Q493.7813,271.4844 493.7813,270.2031 L493.7813,269.0469 Q493.7813,267.7188 494.3906,266.5781 Q495.0156,265.4219 496.1094,264.8125 Q497.2031,264.1875 498.4375,264.1875 Q499.1719,264.1875 499.8125,264.3594 Q500.4688,264.5156 501.0156,264.875 Z " fill="#000000"/><text fill="#000000" font-family="sans-serif" font-size="12" lengthAdjust="spacing" textLength="53" x="518.75" y="273.9102">Company</text><line style="stroke:#A80036;stroke-width:1.5;" x1="452" x2="606" y1="285" y2="285"/><text fill="#000000" font-family="sans-serif" font-size="11" lengthAdjust="spacing" textLength="93" x="457" y="300.4189">-designation: String</text><line style="stroke:#A80036;stroke-width:1.5;" x1="452" x2="606" y1="306.8359" y2="306.8359"/><text fill="#000000" font-family="sans-serif" font-size="11" lengthAdjust="spacing" textLength="99" x="457" y="322.2549">+getSNSUserStore()</text><text fill="#000000" font-family="sans-serif" font-size="11" lengthAdjust="spacing" textLength="144" x="457" y="336.0908">+getVaccinationCenterStore()</text><text fill="#000000" font-family="sans-serif" font-size="11" lengthAdjust="spacing" textLength="119" x="457" y="349.9268">+getVaccineTypeStore()</text><text fill="#000000" font-family="sans-serif" font-size="11" lengthAdjust="spacing" textLength="115" x="457" y="363.7627">+getAppointmentStore()</text><!--MD5=[72be06cc7ae02ccc98efe28a50e62246]
class SNSUser--><rect codeLine="26" fill="#FEFECE" filter="url(#f1h39390mdkig0)" height="144.8516" id="SNSUser" style="stroke:#A80036;stroke-width:1.5;" width="452" x="137" y="917"/><ellipse cx="332.75" cy="933" fill="#ADD1B2" rx="11" ry="11" style="stroke:#A80036;stroke-width:1.0;"/><path d="M335.5156,928.875 Q335.6719,928.6563 335.8594,928.5469 Q336.0469,928.4375 336.2656,928.4375 Q336.6406,928.4375 336.875,928.7031 Q337.1094,928.9531 337.1094,929.5625 L337.1094,931.0156 Q337.1094,931.625 336.875,931.8906 Q336.6406,932.1563 336.2656,932.1563 Q335.9219,932.1563 335.7188,931.9531 Q335.5156,931.7656 335.4063,931.25 Q335.3594,930.8906 335.1719,930.7031 Q334.8438,930.3281 334.2344,930.1094 Q333.625,929.8906 333,929.8906 Q332.2344,929.8906 331.5938,930.2188 Q330.9688,930.5469 330.4688,931.2969 Q329.9844,932.0469 329.9844,933.0781 L329.9844,934.1719 Q329.9844,935.4063 330.875,936.2344 Q331.7656,937.0469 333.3594,937.0469 Q334.2969,937.0469 334.9531,936.7969 Q335.3438,936.6406 335.7656,936.2031 Q336.0313,935.9375 336.1719,935.8594 Q336.3281,935.7813 336.5313,935.7813 Q336.8594,935.7813 337.1094,936.0469 Q337.375,936.2969 337.375,936.6406 Q337.375,936.9844 337.0313,937.3906 Q336.5313,937.9688 335.7344,938.2969 Q334.6563,938.75 333.3594,938.75 Q331.8438,938.75 330.6406,938.125 Q329.6563,937.625 328.9688,936.5625 Q328.2813,935.4844 328.2813,934.2031 L328.2813,933.0469 Q328.2813,931.7188 328.8906,930.5781 Q329.5156,929.4219 330.6094,928.8125 Q331.7031,928.1875 332.9375,928.1875 Q333.6719,928.1875 334.3125,928.3594 Q334.9688,928.5156 335.5156,928.875 Z " fill="#000000"/><text fill="#000000" font-family="sans-serif" font-size="12" lengthAdjust="spacing" textLength="52" x="353.25" y="937.9102">SNSUser</text><line style="stroke:#A80036;stroke-width:1.5;" x1="138" x2="588" y1="949" y2="949"/><text fill="#000000" font-family="sans-serif" font-size="11" lengthAdjust="spacing" textLength="92" x="143" y="964.4189">-citizenCard: String</text><text fill="#000000" font-family="sans-serif" font-size="11" lengthAdjust="spacing" textLength="93" x="143" y="978.2549">-snsNumber: String</text><text fill="#000000" font-family="sans-serif" font-size="11" lengthAdjust="spacing" textLength="72" x="143" y="992.0908">-birthDay: Date</text><text fill="#000000" font-family="sans-serif" font-size="11" lengthAdjust="spacing" textLength="67" x="143" y="1005.9268">-gender: Char</text><text fill="#000000" font-family="sans-serif" font-size="11" lengthAdjust="spacing" textLength="105" x="143" y="1019.7627">-phoneNumber: String</text><text fill="#000000" font-family="sans-serif" font-size="11" lengthAdjust="spacing" textLength="78" x="143" y="1033.5986">-address: String</text><line style="stroke:#A80036;stroke-width:1.5;" x1="138" x2="588" y1="1040.0156" y2="1040.0156"/><text fill="#000000" font-family="sans-serif" font-size="11" lengthAdjust="spacing" textLength="440" x="143" y="1055.4346">+SNSUser(citizenCard, snsNumber, name, birthDay, gender, phoneNumber, email, address)</text><!--MD5=[a5ad3856b0c65e07b10297b4477b22bb]
class SNSUserStore--><rect codeLine="36" fill="#FEFECE" filter="url(#f1h39390mdkig0)" height="103.3438" id="SNSUserStore" style="stroke:#A80036;stroke-width:1.5;" width="196" x="274" y="476"/><ellipse cx="327.25" cy="492" fill="#ADD1B2" rx="11" ry="11" style="stroke:#A80036;stroke-width:1.0;"/><path d="M330.0156,487.875 Q330.1719,487.6563 330.3594,487.5469 Q330.5469,487.4375 330.7656,487.4375 Q331.1406,487.4375 331.375,487.7031 Q331.6094,487.9531 331.6094,488.5625 L331.6094,490.0156 Q331.6094,490.625 331.375,490.8906 Q331.1406,491.1563 330.7656,491.1563 Q330.4219,491.1563 330.2188,490.9531 Q330.0156,490.7656 329.9063,490.25 Q329.8594,489.8906 329.6719,489.7031 Q329.3438,489.3281 328.7344,489.1094 Q328.125,488.8906 327.5,488.8906 Q326.7344,488.8906 326.0938,489.2188 Q325.4688,489.5469 324.9688,490.2969 Q324.4844,491.0469 324.4844,492.0781 L324.4844,493.1719 Q324.4844,494.4063 325.375,495.2344 Q326.2656,496.0469 327.8594,496.0469 Q328.7969,496.0469 329.4531,495.7969 Q329.8438,495.6406 330.2656,495.2031 Q330.5313,494.9375 330.6719,494.8594 Q330.8281,494.7813 331.0313,494.7813 Q331.3594,494.7813 331.6094,495.0469 Q331.875,495.2969 331.875,495.6406 Q331.875,495.9844 331.5313,496.3906 Q331.0313,496.9688 330.2344,497.2969 Q329.1563,497.75 327.8594,497.75 Q326.3438,497.75 325.1406,497.125 Q324.1563,496.625 323.4688,495.5625 Q322.7813,494.4844 322.7813,493.2031 L322.7813,492.0469 Q322.7813,490.7188 323.3906,489.5781 Q324.0156,488.4219 325.1094,487.8125 Q326.2031,487.1875 327.4375,487.1875 Q328.1719,487.1875 328.8125,487.3594 Q329.4688,487.5156 330.0156,487.875 Z " fill="#000000"/><text fill="#000000" font-family="sans-serif" font-size="12" lengthAdjust="spacing" textLength="81" x="347.75" y="496.9102">SNSUserStore</text><line style="stroke:#A80036;stroke-width:1.5;" x1="275" x2="469" y1="508" y2="508"/><line style="stroke:#A80036;stroke-width:1.5;" x1="275" x2="469" y1="516" y2="516"/><text fill="#000000" font-family="sans-serif" font-size="11" lengthAdjust="spacing" textLength="184" x="280" y="531.4189">+createUser(name, email, pwd, roleId)</text><text fill="#000000" font-family="sans-serif" font-size="11" lengthAdjust="spacing" textLength="96" x="280" y="545.2549">+validateUser(user)</text><text fill="#000000" font-family="sans-serif" font-size="11" lengthAdjust="spacing" textLength="83" x="280" y="559.0908">+saveUser(user)</text><text fill="#000000" font-family="sans-serif" font-size="11" lengthAdjust="spacing" textLength="115" x="280" y="572.9268">+checkDuplicates(user)</text><!--MD5=[de60e6d4f424ae4d0522096f76a59010]
class VaccinationCenter--><rect codeLine="43" fill="#FEFECE" filter="url(#f1h39390mdkig0)" height="200.1953" id="VaccinationCenter" style="stroke:#A80036;stroke-width:1.5;" width="838" x="238" y="1092"/><ellipse cx="602.75" cy="1108" fill="#ADD1B2" rx="11" ry="11" style="stroke:#A80036;stroke-width:1.0;"/><path d="M605.5156,1103.875 Q605.6719,1103.6563 605.8594,1103.5469 Q606.0469,1103.4375 606.2656,1103.4375 Q606.6406,1103.4375 606.875,1103.7031 Q607.1094,1103.9531 607.1094,1104.5625 L607.1094,1106.0156 Q607.1094,1106.625 606.875,1106.8906 Q606.6406,1107.1563 606.2656,1107.1563 Q605.9219,1107.1563 605.7188,1106.9531 Q605.5156,1106.7656 605.4063,1106.25 Q605.3594,1105.8906 605.1719,1105.7031 Q604.8438,1105.3281 604.2344,1105.1094 Q603.625,1104.8906 603,1104.8906 Q602.2344,1104.8906 601.5938,1105.2188 Q600.9688,1105.5469 600.4688,1106.2969 Q599.9844,1107.0469 599.9844,1108.0781 L599.9844,1109.1719 Q599.9844,1110.4063 600.875,1111.2344 Q601.7656,1112.0469 603.3594,1112.0469 Q604.2969,1112.0469 604.9531,1111.7969 Q605.3438,1111.6406 605.7656,1111.2031 Q606.0313,1110.9375 606.1719,1110.8594 Q606.3281,1110.7813 606.5313,1110.7813 Q606.8594,1110.7813 607.1094,1111.0469 Q607.375,1111.2969 607.375,1111.6406 Q607.375,1111.9844 607.0313,1112.3906 Q606.5313,1112.9688 605.7344,1113.2969 Q604.6563,1113.75 603.3594,1113.75 Q601.8438,1113.75 600.6406,1113.125 Q599.6563,1112.625 598.9688,1111.5625 Q598.2813,1110.4844 598.2813,1109.2031 L598.2813,1108.0469 Q598.2813,1106.7188 598.8906,1105.5781 Q599.5156,1104.4219 600.6094,1103.8125 Q601.7031,1103.1875 602.9375,1103.1875 Q603.6719,1103.1875 604.3125,1103.3594 Q604.9688,1103.5156 605.5156,1103.875 Z " fill="#000000"/><text fill="#000000" font-family="sans-serif" font-size="12" lengthAdjust="spacing" textLength="100" x="623.25" y="1112.9102">VaccinationCenter</text><line style="stroke:#A80036;stroke-width:1.5;" x1="239" x2="1075" y1="1124" y2="1124"/><text fill="#000000" font-family="sans-serif" font-size="11" lengthAdjust="spacing" textLength="64" x="244" y="1139.4189">-name: String</text><text fill="#000000" font-family="sans-serif" font-size="11" lengthAdjust="spacing" textLength="78" x="244" y="1153.2549">-address: String</text><text fill="#000000" font-family="sans-serif" font-size="11" lengthAdjust="spacing" textLength="104" x="244" y="1167.0908">-emailAddress: String</text><text fill="#000000" font-family="sans-serif" font-size="11" lengthAdjust="spacing" textLength="105" x="244" y="1180.9268">-phoneNumber: String</text><text fill="#000000" font-family="sans-serif" font-size="11" lengthAdjust="spacing" textLength="91" x="244" y="1194.7627">-faxNumber: String</text><text fill="#000000" font-family="sans-serif" font-size="11" lengthAdjust="spacing" textLength="119" x="244" y="1208.5986">-websiteAddress: String</text><text fill="#000000" font-family="sans-serif" font-size="11" lengthAdjust="spacing" textLength="105" x="244" y="1222.4346">-openingHours: String</text><text fill="#000000" font-family="sans-serif" font-size="11" lengthAdjust="spacing" textLength="101" x="244" y="1236.2705">-closingHours: String</text><text fill="#000000" font-family="sans-serif" font-size="11" lengthAdjust="spacing" textLength="78" x="244" y="1250.1064">-slotDuration: int</text><text fill="#000000" font-family="sans-serif" font-size="11" lengthAdjust="spacing" textLength="145" x="244" y="1263.9424">-maximumVaccinesPerSlot: int</text><line style="stroke:#A80036;stroke-width:1.5;" x1="239" x2="1075" y1="1270.3594" y2="1270.3594"/><text fill="#000000" font-family="sans-serif" font-size="11" lengthAdjust="spacing" textLength="826" x="244" y="1285.7783">+VaccinationCenter(name,address,emailAddres,phoneNumber,faxNumber,websiteAddress,openingHours,closingHours,slotDuration,maximumVaccinesPerSlot,coordinator)</text><!--MD5=[a29876ea2f21a6ca48ea477740122fd8]
class VaccinationCenterStore--><rect codeLine="57" fill="#FEFECE" filter="url(#f1h39390mdkig0)" height="117.1797" id="VaccinationCenterStore" style="stroke:#A80036;stroke-width:1.5;" width="257" x="416.5" y="770"/><ellipse cx="476.25" cy="786" fill="#ADD1B2" rx="11" ry="11" style="stroke:#A80036;stroke-width:1.0;"/><path d="M479.0156,781.875 Q479.1719,781.6563 479.3594,781.5469 Q479.5469,781.4375 479.7656,781.4375 Q480.1406,781.4375 480.375,781.7031 Q480.6094,781.9531 480.6094,782.5625 L480.6094,784.0156 Q480.6094,784.625 480.375,784.8906 Q480.1406,785.1563 479.7656,785.1563 Q479.4219,785.1563 479.2188,784.9531 Q479.0156,784.7656 478.9063,784.25 Q478.8594,783.8906 478.6719,783.7031 Q478.3438,783.3281 477.7344,783.1094 Q477.125,782.8906 476.5,782.8906 Q475.7344,782.8906 475.0938,783.2188 Q474.4688,783.5469 473.9688,784.2969 Q473.4844,785.0469 473.4844,786.0781 L473.4844,787.1719 Q473.4844,788.4063 474.375,789.2344 Q475.2656,790.0469 476.8594,790.0469 Q477.7969,790.0469 478.4531,789.7969 Q478.8438,789.6406 479.2656,789.2031 Q479.5313,788.9375 479.6719,788.8594 Q479.8281,788.7813 480.0313,788.7813 Q480.3594,788.7813 480.6094,789.0469 Q480.875,789.2969 480.875,789.6406 Q480.875,789.9844 480.5313,790.3906 Q480.0313,790.9688 479.2344,791.2969 Q478.1563,791.75 476.8594,791.75 Q475.3438,791.75 474.1406,791.125 Q473.1563,790.625 472.4688,789.5625 Q471.7813,788.4844 471.7813,787.2031 L471.7813,786.0469 Q471.7813,784.7188 472.3906,783.5781 Q473.0156,782.4219 474.1094,781.8125 Q475.2031,781.1875 476.4375,781.1875 Q477.1719,781.1875 477.8125,781.3594 Q478.4688,781.5156 479.0156,781.875 Z " fill="#000000"/><text fill="#000000" font-family="sans-serif" font-size="12" lengthAdjust="spacing" textLength="129" x="496.75" y="790.9102">VaccinationCenterStore</text><line style="stroke:#A80036;stroke-width:1.5;" x1="417.5" x2="672.5" y1="802" y2="802"/><line style="stroke:#A80036;stroke-width:1.5;" x1="417.5" x2="672.5" y1="810" y2="810"/><text fill="#000000" font-family="sans-serif" font-size="11" lengthAdjust="spacing" textLength="245" x="422.5" y="825.4189">+createVaccinationCenter(centerData,coordinator)</text><text fill="#000000" font-family="sans-serif" font-size="11" lengthAdjust="spacing" textLength="169" x="422.5" y="839.2549">+validateVaccinatonCenter(center)</text><text fill="#000000" font-family="sans-serif" font-size="11" lengthAdjust="spacing" textLength="122" x="422.5" y="853.0908">-checkDuplicates(center)</text><text fill="#000000" font-family="sans-serif" font-size="11" lengthAdjust="spacing" textLength="158" x="422.5" y="866.9268">+saveVaccinationCenter(center)</text><text fill="#000000" font-family="sans-serif" font-size="11" lengthAdjust="spacing" textLength="34" x="422.5" y="880.7627">+size()</text><!--MD5=[0e501da62322464167c8ec4d233a6b7e]
class VaccineType--><rect codeLine="65" fill="#FEFECE" filter="url(#f1h39390mdkig0)" height="103.3438" id="VaccineType" style="stroke:#A80036;stroke-width:1.5;" width="226" x="7" y="637"/><ellipse cx="81.25" cy="653" fill="#ADD1B2" rx="11" ry="11" style="stroke:#A80036;stroke-width:1.0;"/><path d="M84.0156,648.875 Q84.1719,648.6563 84.3594,648.5469 Q84.5469,648.4375 84.7656,648.4375 Q85.1406,648.4375 85.375,648.7031 Q85.6094,648.9531 85.6094,649.5625 L85.6094,651.0156 Q85.6094,651.625 85.375,651.8906 Q85.1406,652.1563 84.7656,652.1563 Q84.4219,652.1563 84.2188,651.9531 Q84.0156,651.7656 83.9063,651.25 Q83.8594,650.8906 83.6719,650.7031 Q83.3438,650.3281 82.7344,650.1094 Q82.125,649.8906 81.5,649.8906 Q80.7344,649.8906 80.0938,650.2188 Q79.4688,650.5469 78.9688,651.2969 Q78.4844,652.0469 78.4844,653.0781 L78.4844,654.1719 Q78.4844,655.4063 79.375,656.2344 Q80.2656,657.0469 81.8594,657.0469 Q82.7969,657.0469 83.4531,656.7969 Q83.8438,656.6406 84.2656,656.2031 Q84.5313,655.9375 84.6719,655.8594 Q84.8281,655.7813 85.0313,655.7813 Q85.3594,655.7813 85.6094,656.0469 Q85.875,656.2969 85.875,656.6406 Q85.875,656.9844 85.5313,657.3906 Q85.0313,657.9688 84.2344,658.2969 Q83.1563,658.75 81.8594,658.75 Q80.3438,658.75 79.1406,658.125 Q78.1563,657.625 77.4688,656.5625 Q76.7813,655.4844 76.7813,654.2031 L76.7813,653.0469 Q76.7813,651.7188 77.3906,650.5781 Q78.0156,649.4219 79.1094,648.8125 Q80.2031,648.1875 81.4375,648.1875 Q82.1719,648.1875 82.8125,648.3594 Q83.4688,648.5156 84.0156,648.875 Z " fill="#000000"/><text fill="#000000" font-family="sans-serif" font-size="12" lengthAdjust="spacing" textLength="69" x="101.75" y="657.9102">VaccineType</text><line style="stroke:#A80036;stroke-width:1.5;" x1="8" x2="232" y1="669" y2="669"/><text fill="#000000" font-family="sans-serif" font-size="11" lengthAdjust="spacing" textLength="62" x="13" y="684.4189">-code: String</text><text fill="#000000" font-family="sans-serif" font-size="11" lengthAdjust="spacing" textLength="91" x="13" y="698.2549">-description: String</text><text fill="#000000" font-family="sans-serif" font-size="11" lengthAdjust="spacing" textLength="91" x="13" y="712.0908">-technology: String</text><line style="stroke:#A80036;stroke-width:1.5;" x1="8" x2="232" y1="718.5078" y2="718.5078"/><text fill="#000000" font-family="sans-serif" font-size="11" lengthAdjust="spacing" textLength="214" x="13" y="733.9268">+VaccineType(code,description,technology)</text><!--MD5=[9532c95099058dfe385d7270fd32fc0d]
class VaccineTypeStore--><rect codeLine="72" fill="#FEFECE" filter="url(#f1h39390mdkig0)" height="103.3438" id="VaccineTypeStore" style="stroke:#A80036;stroke-width:1.5;" width="167" x="59.5" y="476"/><ellipse cx="91.15" cy="492" fill="#ADD1B2" rx="11" ry="11" style="stroke:#A80036;stroke-width:1.0;"/><path d="M93.9156,487.875 Q94.0719,487.6563 94.2594,487.5469 Q94.4469,487.4375 94.6656,487.4375 Q95.0406,487.4375 95.275,487.7031 Q95.5094,487.9531 95.5094,488.5625 L95.5094,490.0156 Q95.5094,490.625 95.275,490.8906 Q95.0406,491.1563 94.6656,491.1563 Q94.3219,491.1563 94.1188,490.9531 Q93.9156,490.7656 93.8063,490.25 Q93.7594,489.8906 93.5719,489.7031 Q93.2438,489.3281 92.6344,489.1094 Q92.025,488.8906 91.4,488.8906 Q90.6344,488.8906 89.9938,489.2188 Q89.3688,489.5469 88.8688,490.2969 Q88.3844,491.0469 88.3844,492.0781 L88.3844,493.1719 Q88.3844,494.4063 89.275,495.2344 Q90.1656,496.0469 91.7594,496.0469 Q92.6969,496.0469 93.3531,495.7969 Q93.7438,495.6406 94.1656,495.2031 Q94.4313,494.9375 94.5719,494.8594 Q94.7281,494.7813 94.9313,494.7813 Q95.2594,494.7813 95.5094,495.0469 Q95.775,495.2969 95.775,495.6406 Q95.775,495.9844 95.4313,496.3906 Q94.9313,496.9688 94.1344,497.2969 Q93.0563,497.75 91.7594,497.75 Q90.2438,497.75 89.0406,497.125 Q88.0563,496.625 87.3688,495.5625 Q86.6813,494.4844 86.6813,493.2031 L86.6813,492.0469 Q86.6813,490.7188 87.2906,489.5781 Q87.9156,488.4219 89.0094,487.8125 Q90.1031,487.1875 91.3375,487.1875 Q92.0719,487.1875 92.7125,487.3594 Q93.3688,487.5156 93.9156,487.875 Z " fill="#000000"/><text fill="#000000" font-family="sans-serif" font-size="12" lengthAdjust="spacing" textLength="98" x="108.85" y="496.9102">VaccineTypeStore</text><line style="stroke:#A80036;stroke-width:1.5;" x1="60.5" x2="225.5" y1="508" y2="508"/><line style="stroke:#A80036;stroke-width:1.5;" x1="60.5" x2="225.5" y1="516" y2="516"/><text fill="#000000" font-family="sans-serif" font-size="11" lengthAdjust="spacing" textLength="155" x="65.5" y="531.4189">+getVaccineTypeByCode(code)</text><text fill="#000000" font-family="sans-serif" font-size="11" lengthAdjust="spacing" textLength="46" x="65.5" y="545.2549">+getList()</text><text fill="#000000" font-family="sans-serif" font-size="11" lengthAdjust="spacing" textLength="96" x="65.5" y="559.0908">+addVaccineType()</text><text fill="#000000" font-family="sans-serif" font-size="11" lengthAdjust="spacing" textLength="102" x="65.5" y="572.9268">+saveVaccineType()</text><!--MD5=[7421f545a0d8420c5bec41e74b387d9c]
class Employee--><rect codeLine="79" fill="#FEFECE" filter="url(#f1h39390mdkig0)" height="158.6875" id="Employee" style="stroke:#A80036;stroke-width:1.5;" width="324" x="582" y="448"/><ellipse cx="712.25" cy="464" fill="#ADD1B2" rx="11" ry="11" style="stroke:#A80036;stroke-width:1.0;"/><path d="M715.0156,459.875 Q715.1719,459.6563 715.3594,459.5469 Q715.5469,459.4375 715.7656,459.4375 Q716.1406,459.4375 716.375,459.7031 Q716.6094,459.9531 716.6094,460.5625 L716.6094,462.0156 Q716.6094,462.625 716.375,462.8906 Q716.1406,463.1563 715.7656,463.1563 Q715.4219,463.1563 715.2188,462.9531 Q715.0156,462.7656 714.9063,462.25 Q714.8594,461.8906 714.6719,461.7031 Q714.3438,461.3281 713.7344,461.1094 Q713.125,460.8906 712.5,460.8906 Q711.7344,460.8906 711.0938,461.2188 Q710.4688,461.5469 709.9688,462.2969 Q709.4844,463.0469 709.4844,464.0781 L709.4844,465.1719 Q709.4844,466.4063 710.375,467.2344 Q711.2656,468.0469 712.8594,468.0469 Q713.7969,468.0469 714.4531,467.7969 Q714.8438,467.6406 715.2656,467.2031 Q715.5313,466.9375 715.6719,466.8594 Q715.8281,466.7813 716.0313,466.7813 Q716.3594,466.7813 716.6094,467.0469 Q716.875,467.2969 716.875,467.6406 Q716.875,467.9844 716.5313,468.3906 Q716.0313,468.9688 715.2344,469.2969 Q714.1563,469.75 712.8594,469.75 Q711.3438,469.75 710.1406,469.125 Q709.1563,468.625 708.4688,467.5625 Q707.7813,466.4844 707.7813,465.2031 L707.7813,464.0469 Q707.7813,462.7188 708.3906,461.5781 Q709.0156,460.4219 710.1094,459.8125 Q711.2031,459.1875 712.4375,459.1875 Q713.1719,459.1875 713.8125,459.3594 Q714.4688,459.5156 715.0156,459.875 Z " fill="#000000"/><text fill="#000000" font-family="sans-serif" font-size="12" lengthAdjust="spacing" textLength="55" x="732.75" y="468.9102">Employee</text><line style="stroke:#A80036;stroke-width:1.5;" x1="583" x2="905" y1="480" y2="480"/><text fill="#000000" font-family="sans-serif" font-size="11" lengthAdjust="spacing" textLength="46" x="588" y="495.4189">-id: String</text><text fill="#000000" font-family="sans-serif" font-size="11" lengthAdjust="spacing" textLength="64" x="588" y="509.2549">-name: String</text><text fill="#000000" font-family="sans-serif" font-size="11" lengthAdjust="spacing" textLength="62" x="588" y="523.0908">-email: String</text><text fill="#000000" font-family="sans-serif" font-size="11" lengthAdjust="spacing" textLength="68" x="588" y="536.9268">-phone: String</text><text fill="#000000" font-family="sans-serif" font-size="11" lengthAdjust="spacing" textLength="78" x="588" y="550.7627">-address: String</text><text fill="#000000" font-family="sans-serif" font-size="11" lengthAdjust="spacing" textLength="112" x="588" y="564.5986">-citizenCardNumber: int</text><text fill="#000000" font-family="sans-serif" font-size="11" lengthAdjust="spacing" textLength="64" x="588" y="578.4346">-roleId: String</text><line style="stroke:#A80036;stroke-width:1.5;" x1="583" x2="905" y1="584.8516" y2="584.8516"/><text fill="#000000" font-family="sans-serif" font-size="11" lengthAdjust="spacing" textLength="312" x="588" y="600.2705">+Employee(name,email,phone,address,citizenCardNumber,roleId)</text><!--MD5=[ade87be7d0bbac1c6123d2fb440b3468]
class SMS--><rect codeLine="90" fill="#FEFECE" filter="url(#f1h39390mdkig0)" height="48" id="SMS" style="stroke:#A80036;stroke-width:1.5;" width="57" x="1182.5" y="1168"/><ellipse cx="1197.5" cy="1184" fill="#ADD1B2" rx="11" ry="11" style="stroke:#A80036;stroke-width:1.0;"/><path d="M1200.2656,1179.875 Q1200.4219,1179.6563 1200.6094,1179.5469 Q1200.7969,1179.4375 1201.0156,1179.4375 Q1201.3906,1179.4375 1201.625,1179.7031 Q1201.8594,1179.9531 1201.8594,1180.5625 L1201.8594,1182.0156 Q1201.8594,1182.625 1201.625,1182.8906 Q1201.3906,1183.1563 1201.0156,1183.1563 Q1200.6719,1183.1563 1200.4688,1182.9531 Q1200.2656,1182.7656 1200.1563,1182.25 Q1200.1094,1181.8906 1199.9219,1181.7031 Q1199.5938,1181.3281 1198.9844,1181.1094 Q1198.375,1180.8906 1197.75,1180.8906 Q1196.9844,1180.8906 1196.3438,1181.2188 Q1195.7188,1181.5469 1195.2188,1182.2969 Q1194.7344,1183.0469 1194.7344,1184.0781 L1194.7344,1185.1719 Q1194.7344,1186.4063 1195.625,1187.2344 Q1196.5156,1188.0469 1198.1094,1188.0469 Q1199.0469,1188.0469 1199.7031,1187.7969 Q1200.0938,1187.6406 1200.5156,1187.2031 Q1200.7813,1186.9375 1200.9219,1186.8594 Q1201.0781,1186.7813 1201.2813,1186.7813 Q1201.6094,1186.7813 1201.8594,1187.0469 Q1202.125,1187.2969 1202.125,1187.6406 Q1202.125,1187.9844 1201.7813,1188.3906 Q1201.2813,1188.9688 1200.4844,1189.2969 Q1199.4063,1189.75 1198.1094,1189.75 Q1196.5938,1189.75 1195.3906,1189.125 Q1194.4063,1188.625 1193.7188,1187.5625 Q1193.0313,1186.4844 1193.0313,1185.2031 L1193.0313,1184.0469 Q1193.0313,1182.7188 1193.6406,1181.5781 Q1194.2656,1180.4219 1195.3594,1179.8125 Q1196.4531,1179.1875 1197.6875,1179.1875 Q1198.4219,1179.1875 1199.0625,1179.3594 Q1199.7188,1179.5156 1200.2656,1179.875 Z " fill="#000000"/><text fill="#000000" font-family="sans-serif" font-size="12" lengthAdjust="spacing" textLength="25" x="1211.5" y="1188.9102">SMS</text><line style="stroke:#A80036;stroke-width:1.5;" x1="1183.5" x2="1238.5" y1="1200" y2="1200"/><line style="stroke:#A80036;stroke-width:1.5;" x1="1183.5" x2="1238.5" y1="1208" y2="1208"/><!--MD5=[679f8b1469705eb0146f782f201dd102]
link AppointmentUI to AppointmentController--><path codeLine="92" d="M529,55.04 C529,70.71 529,91.91 529,110.58 " fill="none" id="AppointmentUI-to-AppointmentController" style="stroke:#A80036;stroke-width:1.0;stroke-dasharray:7.0,7.0;"/><polygon fill="#A80036" points="529,115.77,533,106.77,529,110.77,525,106.77,529,115.77" style="stroke:#A80036;stroke-width:1.0;"/><!--MD5=[6aacf88cfe67e5bdc6db86699f92dd68]
link AppointmentController to Company--><path codeLine="93" d="M529,192.25 C529,208.84 529,228.84 529,247.64 " fill="none" id="AppointmentController-to-Company" style="stroke:#A80036;stroke-width:1.0;stroke-dasharray:7.0,7.0;"/><polygon fill="#A80036" points="529,252.9,533,243.9,529,247.9,525,243.9,529,252.9" style="stroke:#A80036;stroke-width:1.0;"/><!--MD5=[1bd9080c7e199931e49bc5a1616681ac]
link Company to SNSUserStore--><path codeLine="94" d="M486.72,370.13 C463.6,401.64 435.11,440.48 412.31,471.56 " fill="none" id="Company-to-SNSUserStore" style="stroke:#A80036;stroke-width:1.0;stroke-dasharray:7.0,7.0;"/><polygon fill="#A80036" points="409.27,475.7,417.8201,470.8118,412.2287,471.6693,411.3711,466.0779,409.27,475.7" style="stroke:#A80036;stroke-width:1.0;"/><!--MD5=[bc0d5b4bfe6e1bf0a8fced13bc4bdd47]
link Company to VaccinationCenterStore--><path codeLine="95" d="M530.79,370.08 C533.82,467.52 539.92,664.13 543.05,764.88 " fill="none" id="Company-to-VaccinationCenterStore" style="stroke:#A80036;stroke-width:1.0;stroke-dasharray:7.0,7.0;"/><polygon fill="#A80036" points="543.21,769.9,546.9245,760.7785,543.0525,764.9025,538.9285,761.0305,543.21,769.9" style="stroke:#A80036;stroke-width:1.0;"/><!--MD5=[26b80dd60d3305f854b992ec0b603e2d]
link Company to VaccineTypeStore--><path codeLine="96" d="M450.92,347.53 C395.44,373.31 319.77,410.3 256,448 C243.07,455.65 229.67,464.27 216.82,472.94 " fill="none" id="Company-to-VaccineTypeStore" style="stroke:#A80036;stroke-width:1.0;stroke-dasharray:7.0,7.0;"/><polygon fill="#A80036" points="212.48,475.87,222.1765,474.1444,216.6226,473.0702,217.6968,467.5163,212.48,475.87" style="stroke:#A80036;stroke-width:1.0;"/><!--MD5=[5e8565967da52dd71c74b831840db16e]
link Company to AppointmentStore--><path codeLine="97" d="M607.13,323.57 C769.62,348.79 1129,416.94 1129,526.5 C1129,526.5 1129,526.5 1129,990.5 C1129,1125.4 1179.91,1187.99 1094,1292 C1081.09,1307.63 1036.51,1321.28 996.52,1330.81 " fill="none" id="Company-to-AppointmentStore" style="stroke:#A80036;stroke-width:1.0;stroke-dasharray:7.0,7.0;"/><polygon fill="#A80036" points="991.16,1332.07,1000.8369,1333.9023,996.0271,1330.9248,999.0046,1326.115,991.16,1332.07" style="stroke:#A80036;stroke-width:1.0;"/><!--MD5=[09366576ee87d48d594df10cacc83f45]
link Company to Employee--><path codeLine="98" d="M586.9,370.13 C609.78,392.9 636.5,419.5 661.34,444.23 " fill="none" id="Company-to-Employee" style="stroke:#A80036;stroke-width:1.0;"/><polygon fill="#A80036" points="664.99,447.86,661.4359,438.6748,661.4473,444.3316,655.7905,444.343,664.99,447.86" style="stroke:#A80036;stroke-width:1.0;"/><text fill="#000000" font-family="sans-serif" font-size="13" lengthAdjust="spacing" textLength="37" x="632" y="414.4951">knows</text><text fill="#000000" font-family="sans-serif" font-size="13" lengthAdjust="spacing" textLength="7" x="586.53" y="391.7561">1</text><text fill="#000000" font-family="sans-serif" font-size="13" lengthAdjust="spacing" textLength="5" x="652.2211" y="437.0336">*</text><!--MD5=[8c304936b446fd8cea914e03fbadd4b7]
link VaccinationCenterStore to VaccinationCenter--><path codeLine="99" d="M588.7,887.45 C594.51,896.98 599.87,907.01 604,917 C626.24,970.78 639.28,1034.42 646.86,1086.83 " fill="none" id="VaccinationCenterStore-to-VaccinationCenter" style="stroke:#A80036;stroke-width:1.0;"/><polygon fill="#A80036" points="647.57,1091.86,650.2685,1082.388,646.8689,1086.9094,642.3475,1083.5098,647.57,1091.86" style="stroke:#A80036;stroke-width:1.0;"/><text fill="#000000" font-family="sans-serif" font-size="13" lengthAdjust="spacing" textLength="36" x="643" y="994.9951">stores</text><text fill="#000000" font-family="sans-serif" font-size="13" lengthAdjust="spacing" textLength="7" x="586.3481" y="908.6961">1</text><text fill="#000000" font-family="sans-serif" font-size="13" lengthAdjust="spacing" textLength="5" x="641.6566" y="1081.0816">*</text><!--MD5=[d008df8d9f8e445f2ab98a1ffd9c1902]
link VaccineTypeStore to VaccineType--><path codeLine="100" d="M135.66,579.25 C133.24,595.97 130.54,614.65 128.07,631.72 " fill="none" id="VaccineTypeStore-to-VaccineType" style="stroke:#A80036;stroke-width:1.0;"/><polygon fill="#A80036" points="127.31,636.96,132.5762,628.6373,128.0371,632.0131,124.6612,627.474,127.31,636.96" style="stroke:#A80036;stroke-width:1.0;"/><text fill="#000000" font-family="sans-serif" font-size="13" lengthAdjust="spacing" textLength="36" x="94.52" y="604.3451">stores</text><text fill="#000000" font-family="sans-serif" font-size="13" lengthAdjust="spacing" textLength="7" x="135.144" y="600.7745">1</text><text fill="#000000" font-family="sans-serif" font-size="13" lengthAdjust="spacing" textLength="5" x="122.9864" y="626.0829">*</text><!--MD5=[b01d27099955aced792f1ce85db49798]
link SNSUserStore to SNSUser--><path codeLine="101" d="M371.01,579.04 C369.44,659.52 366.35,817.33 364.5,911.79 " fill="none" id="SNSUserStore-to-SNSUser" style="stroke:#A80036;stroke-width:1.0;"/><polygon fill="#A80036" points="364.4,916.8,368.5792,907.8818,364.5,911.801,360.5808,907.7218,364.4,916.8" style="stroke:#A80036;stroke-width:1.0;"/><text fill="#000000" font-family="sans-serif" font-size="13" lengthAdjust="spacing" textLength="36" x="371" y="693.9951">stores</text><text fill="#000000" font-family="sans-serif" font-size="13" lengthAdjust="spacing" textLength="7" x="363.3786" y="600.9085">1</text><text fill="#000000" font-family="sans-serif" font-size="13" lengthAdjust="spacing" textLength="5" x="359.2866" y="905.9987">*</text><!--MD5=[7454cd36f47ee2c1597ee5b79ae5e9ce]
link Employee to VaccinationCenter--><path codeLine="102" d="M738.99,607.14 C731.59,711.59 715.57,901.61 688,1062 C687.03,1067.64 685.96,1073.41 684.81,1079.21 " fill="none" id="Employee-to-VaccinationCenter" style="stroke:#A80036;stroke-width:1.0;"/><polygon fill="#FFFFFF" points="682.19,1091.97,687.3153,1086.8974,684.6043,1080.2154,679.4789,1085.2879,682.19,1091.97" style="stroke:#A80036;stroke-width:1.0;"/><text fill="#000000" font-family="sans-serif" font-size="13" lengthAdjust="spacing" textLength="64" x="727" y="833.9951">coordinator</text><!--MD5=[f17e71def2e220f6a6398972244b7dbb]
link VaccinationCenter to Appointment--><path codeLine="103" d="M657,1292.2 C657,1324.23 657,1358.66 657,1386.61 " fill="none" id="VaccinationCenter-to-Appointment" style="stroke:#A80036;stroke-width:1.0;"/><polygon fill="#FFFFFF" points="657,1399.78,661,1393.78,657,1387.78,653,1393.78,657,1399.78" style="stroke:#A80036;stroke-width:1.0;"/><text fill="#000000" font-family="sans-serif" font-size="13" lengthAdjust="spacing" textLength="7" x="649.743" y="1313.6468">1</text><text fill="#000000" font-family="sans-serif" font-size="13" lengthAdjust="spacing" textLength="5" x="651.6172" y="1389.1904">*</text><!--MD5=[3f8bc51bb69ce45c3e3ea0b764df71f1]
link SNSUser to Appointment--><path codeLine="104" d="M241.32,1062.23 C232.92,1071.26 225.59,1081.18 220,1092 C179.21,1170.98 168.5,1219.55 220,1292 C276.56,1371.56 377.91,1409.84 468.76,1428.1 " fill="none" id="SNSUser-to-Appointment" style="stroke:#A80036;stroke-width:1.0;"/><polygon fill="#FFFFFF" points="481.8,1430.6,476.6638,1425.5385,470.0161,1428.3329,475.1523,1433.3944,481.8,1430.6" style="stroke:#A80036;stroke-width:1.0;"/><text fill="#000000" font-family="sans-serif" font-size="13" lengthAdjust="spacing" textLength="7" x="222.3888" y="1083.4435">1</text><text fill="#000000" font-family="sans-serif" font-size="13" lengthAdjust="spacing" textLength="5" x="468.748" y="1443.8242">*</text><!--MD5=[dcfb289409acccd9ab6e282e910f81b1]
link VaccineType to Appointment--><path codeLine="105" d="M114.11,740.36 C103.9,847.83 91.59,1103.59 178,1292 C196.58,1332.51 202.64,1347.33 241,1370 C279.9,1392.99 377.71,1410.99 468.71,1423.48 " fill="none" id="VaccineType-to-Appointment" style="stroke:#A80036;stroke-width:1.0;"/><polygon fill="#FFFFFF" points="481.79,1425.24,476.3751,1420.4778,469.8965,1423.6445,475.3114,1428.4068,481.79,1425.24" style="stroke:#A80036;stroke-width:1.0;"/><text fill="#000000" font-family="sans-serif" font-size="13" lengthAdjust="spacing" textLength="7" x="105.8482" y="761.8993">1</text><text fill="#000000" font-family="sans-serif" font-size="13" lengthAdjust="spacing" textLength="7" x="467.2507" y="1421.5818">1</text><!--MD5=[0842e86bfabf2992bafaf46f65678ecc]
link SMS to Appointment--><path codeLine="106" d="M1202.31,1216.25 C1193.22,1238.02 1177.18,1270.34 1155,1292 C1072.49,1372.54 948.57,1410.56 844.99,1428.43 " fill="none" id="SMS-to-Appointment" style="stroke:#A80036;stroke-width:1.0;"/><polygon fill="#FFFFFF" points="832.14,1430.56,838.7144,1433.5227,843.9778,1428.5936,837.4034,1425.6309,832.14,1430.56" style="stroke:#A80036;stroke-width:1.0;"/><text fill="#000000" font-family="sans-serif" font-size="13" lengthAdjust="spacing" textLength="76" x="1113" y="1351.4951">triggers SMS</text><text fill="#000000" font-family="sans-serif" font-size="13" lengthAdjust="spacing" textLength="22" x="1175.5106" y="1237.6489">0..1</text><text fill="#000000" font-family="sans-serif" font-size="13" lengthAdjust="spacing" textLength="7" x="840.2346" y="1427.0574">1</text><!--MD5=[7e4d1c1f89ef7b23edc77e66714a226e]
link AppointmentStore to Appointment--><path codeLine="107" d="M861.91,1370.11 C838.5,1378.55 811.13,1388.42 784.16,1398.15 " fill="none" id="AppointmentStore-to-Appointment" style="stroke:#A80036;stroke-width:1.0;"/><polygon fill="#A80036" points="779.13,1399.96,788.9539,1400.6603,783.8319,1398.2593,786.2328,1393.1373,779.13,1399.96" style="stroke:#A80036;stroke-width:1.0;"/><text fill="#000000" font-family="sans-serif" font-size="13" lengthAdjust="spacing" textLength="36" x="783.67" y="1381.4751">stores</text><text fill="#000000" font-family="sans-serif" font-size="13" lengthAdjust="spacing" textLength="7" x="845.8276" y="1387.9435">1</text><text fill="#000000" font-family="sans-serif" font-size="13" lengthAdjust="spacing" textLength="5" x="793.196" y="1389.0691">*</text><!--MD5=[493efee7bbccd6bfac7d1f082565fd9a]
@startuml US02_CD
skinparam classAttributeIconSize 0

class Appointment {
  - date: Date
  - time: String
  +Appointment(SNSUserNumber, date, time, center, vaccineType, sms)
}

class AppointmentStore {}

class AppointmentUI {}

class AppointmentController {
  +createAppointment(SNSUserNumber, date, time, center, vaccineType,sms)
  +saveAppointment(appointment)
}

class Company {
  -designation: String
  +getSNSUserStore()
  +getVaccinationCenterStore()
  +getVaccineTypeStore()
  +getAppointmentStore()
}

class SNSUser {
  - citizenCard: String 
  - snsNumber: String 
  - birthDay: Date 
  - gender: Char
  - phoneNumber: String 
  - address: String
  + SNSUser(citizenCard, snsNumber, name, birthDay, gender, phoneNumber, email, address)
  }

class SNSUserStore {
  + createUser(name, email, pwd, roleId)
  + validateUser(user)
  + saveUser(user)
  + checkDuplicates(user)
}

class VaccinationCenter{
  - name: String
  - address: String
  - emailAddress: String
  - phoneNumber: String
  - faxNumber: String
  - websiteAddress: String
  - openingHours: String
  - closingHours: String
  - slotDuration: int
  - maximumVaccinesPerSlot: int
  +VaccinationCenter(name,address,emailAddres,phoneNumber,faxNumber,websiteAddress,openingHours,closingHours,slotDuration,maximumVaccinesPerSlot,coordinator)
}

class VaccinationCenterStore {
+createVaccinationCenter(centerData,coordinator)
+validateVaccinatonCenter(center)
-checkDuplicates(center)
+saveVaccinationCenter(center)
+size()
}

class VaccineType {
  - code: String
  - description: String
  - technology: String
  + VaccineType(code,description,technology)
}

class VaccineTypeStore {
  +getVaccineTypeByCode(code)
  +getList()
  +addVaccineType()
  +saveVaccineType()
}

class Employee {
  -id: String 
  -name: String 
  -email: String 
  -phone: String 
  -address: String 
  -citizenCardNumber: int 
  -roleId: String 
  +Employee(name,email,phone,address,citizenCardNumber,roleId)
}

class SMS {}

AppointmentUI ..> AppointmentController
AppointmentController ..> Company
Company ..> SNSUserStore
Company ..> VaccinationCenterStore
Company ..> VaccineTypeStore
Company ..> AppointmentStore
Company "1" - -> "*" Employee : knows
VaccinationCenterStore "1" -> "*" VaccinationCenter : stores
VaccineTypeStore "1" -> "*" VaccineType : stores
SNSUserStore "1" -> "*" SNSUser : stores
Employee - - -o VaccinationCenter : coordinator
VaccinationCenter "1" - -o "*" Appointment
SNSUser "1" - -o "*" Appointment
VaccineType "1" - -o "1" Appointment
SMS "0..1" - -o "1" Appointment : triggers SMS
AppointmentStore "1" -> "*" Appointment : stores


@enduml

PlantUML version 1.2022.0(Tue Jan 11 16:16:42 WET 2022)
(GPL source distribution)
Java Runtime: Java(TM) SE Runtime Environment
JVM: Java HotSpot(TM) 64-Bit Server VM
Default Encoding: Cp1252
Language: pt
Country: PT
--></g></svg>