<?xml version="1.0" encoding="UTF-8" standalone="no"?><svg xmlns="http://www.w3.org/2000/svg" xmlns:xlink="http://www.w3.org/1999/xlink" contentScriptType="application/ecmascript" contentStyleType="text/css" height="1164px" preserveAspectRatio="none" style="width:1329px;height:1164px;background:#FFFFFF;" version="1.1" viewBox="0 0 1329 1164" width="1329px" zoomAndPan="magnify"><defs><filter height="300%" id="ftekfxx9diws8" width="300%" x="-1" y="-1"><feGaussianBlur result="blurOut" stdDeviation="2.0"/><feColorMatrix in="blurOut" result="blurOut2" type="matrix" values="0 0 0 0 0 0 0 0 0 0 0 0 0 0 0 0 0 0 .4 0"/><feOffset dx="4.0" dy="4.0" in="blurOut2" result="blurOut3"/><feBlend in="SourceGraphic" in2="blurOut3" mode="normal"/></filter></defs><g><!--MD5=[1612b8357b70f5d13ccd48e3242747ad]
class VaccinationSchedule--><rect codeLine="3" fill="#FEFECE" filter="url(#ftekfxx9diws8)" height="144.8516" id="VaccinationSchedule" style="stroke:#A80036;stroke-width:1.5;" width="389" x="775.5" y="1006"/><ellipse cx="908.25" cy="1022" fill="#ADD1B2" rx="11" ry="11" style="stroke:#A80036;stroke-width:1.0;"/><path d="M911.0156,1017.875 Q911.1719,1017.6563 911.3594,1017.5469 Q911.5469,1017.4375 911.7656,1017.4375 Q912.1406,1017.4375 912.375,1017.7031 Q912.6094,1017.9531 912.6094,1018.5625 L912.6094,1020.0156 Q912.6094,1020.625 912.375,1020.8906 Q912.1406,1021.1563 911.7656,1021.1563 Q911.4219,1021.1563 911.2188,1020.9531 Q911.0156,1020.7656 910.9063,1020.25 Q910.8594,1019.8906 910.6719,1019.7031 Q910.3438,1019.3281 909.7344,1019.1094 Q909.125,1018.8906 908.5,1018.8906 Q907.7344,1018.8906 907.0938,1019.2188 Q906.4688,1019.5469 905.9688,1020.2969 Q905.4844,1021.0469 905.4844,1022.0781 L905.4844,1023.1719 Q905.4844,1024.4063 906.375,1025.2344 Q907.2656,1026.0469 908.8594,1026.0469 Q909.7969,1026.0469 910.4531,1025.7969 Q910.8438,1025.6406 911.2656,1025.2031 Q911.5313,1024.9375 911.6719,1024.8594 Q911.8281,1024.7813 912.0313,1024.7813 Q912.3594,1024.7813 912.6094,1025.0469 Q912.875,1025.2969 912.875,1025.6406 Q912.875,1025.9844 912.5313,1026.3906 Q912.0313,1026.9688 911.2344,1027.2969 Q910.1563,1027.75 908.8594,1027.75 Q907.3438,1027.75 906.1406,1027.125 Q905.1563,1026.625 904.4688,1025.5625 Q903.7813,1024.4844 903.7813,1023.2031 L903.7813,1022.0469 Q903.7813,1020.7188 904.3906,1019.5781 Q905.0156,1018.4219 906.1094,1017.8125 Q907.2031,1017.1875 908.4375,1017.1875 Q909.1719,1017.1875 909.8125,1017.3594 Q910.4688,1017.5156 911.0156,1017.875 Z " fill="#000000"/><text fill="#000000" font-family="sans-serif" font-size="12" lengthAdjust="spacing" textLength="115" x="928.75" y="1026.9102">VaccinationSchedule</text><line style="stroke:#A80036;stroke-width:1.5;" x1="776.5" x2="1163.5" y1="1038" y2="1038"/><text fill="#000000" font-family="sans-serif" font-size="11" lengthAdjust="spacing" textLength="102" x="781.5" y="1053.4189">-SNSUserNumber: int</text><text fill="#000000" font-family="sans-serif" font-size="11" lengthAdjust="spacing" textLength="53" x="781.5" y="1067.2549">-date: Date</text><text fill="#000000" font-family="sans-serif" font-size="11" lengthAdjust="spacing" textLength="57" x="781.5" y="1081.0908">-time: String</text><text fill="#000000" font-family="sans-serif" font-size="11" lengthAdjust="spacing" textLength="150" x="781.5" y="1094.9268">-center: VACCINATIONCENTER</text><text fill="#000000" font-family="sans-serif" font-size="11" lengthAdjust="spacing" textLength="143" x="781.5" y="1108.7627">-vaccineType: VACCINETYPE</text><text fill="#000000" font-family="sans-serif" font-size="11" lengthAdjust="spacing" textLength="68" x="781.5" y="1122.5986">-sms: boolean</text><line style="stroke:#A80036;stroke-width:1.5;" x1="776.5" x2="1163.5" y1="1129.0156" y2="1129.0156"/><text fill="#000000" font-family="sans-serif" font-size="11" lengthAdjust="spacing" textLength="377" x="781.5" y="1144.4346">+VaccinationSchedule(SNSUserNumber, date, time, center, vaccineType,sms)</text><!--MD5=[02e4b9b7573f1156f41e60aa5b4e25a4]
class Company--><rect codeLine="14" fill="#FEFECE" filter="url(#ftekfxx9diws8)" height="103.3438" id="Company" style="stroke:#A80036;stroke-width:1.5;" width="156" x="670" y="239"/><ellipse cx="717.25" cy="255" fill="#ADD1B2" rx="11" ry="11" style="stroke:#A80036;stroke-width:1.0;"/><path d="M720.0156,250.875 Q720.1719,250.6563 720.3594,250.5469 Q720.5469,250.4375 720.7656,250.4375 Q721.1406,250.4375 721.375,250.7031 Q721.6094,250.9531 721.6094,251.5625 L721.6094,253.0156 Q721.6094,253.625 721.375,253.8906 Q721.1406,254.1563 720.7656,254.1563 Q720.4219,254.1563 720.2188,253.9531 Q720.0156,253.7656 719.9063,253.25 Q719.8594,252.8906 719.6719,252.7031 Q719.3438,252.3281 718.7344,252.1094 Q718.125,251.8906 717.5,251.8906 Q716.7344,251.8906 716.0938,252.2188 Q715.4688,252.5469 714.9688,253.2969 Q714.4844,254.0469 714.4844,255.0781 L714.4844,256.1719 Q714.4844,257.4063 715.375,258.2344 Q716.2656,259.0469 717.8594,259.0469 Q718.7969,259.0469 719.4531,258.7969 Q719.8438,258.6406 720.2656,258.2031 Q720.5313,257.9375 720.6719,257.8594 Q720.8281,257.7813 721.0313,257.7813 Q721.3594,257.7813 721.6094,258.0469 Q721.875,258.2969 721.875,258.6406 Q721.875,258.9844 721.5313,259.3906 Q721.0313,259.9688 720.2344,260.2969 Q719.1563,260.75 717.8594,260.75 Q716.3438,260.75 715.1406,260.125 Q714.1563,259.625 713.4688,258.5625 Q712.7813,257.4844 712.7813,256.2031 L712.7813,255.0469 Q712.7813,253.7188 713.3906,252.5781 Q714.0156,251.4219 715.1094,250.8125 Q716.2031,250.1875 717.4375,250.1875 Q718.1719,250.1875 718.8125,250.3594 Q719.4688,250.5156 720.0156,250.875 Z " fill="#000000"/><text fill="#000000" font-family="sans-serif" font-size="12" lengthAdjust="spacing" textLength="53" x="737.75" y="259.9102">Company</text><line style="stroke:#A80036;stroke-width:1.5;" x1="671" x2="825" y1="271" y2="271"/><text fill="#000000" font-family="sans-serif" font-size="11" lengthAdjust="spacing" textLength="93" x="676" y="286.4189">-designation: String</text><line style="stroke:#A80036;stroke-width:1.5;" x1="671" x2="825" y1="292.8359" y2="292.8359"/><text fill="#000000" font-family="sans-serif" font-size="11" lengthAdjust="spacing" textLength="99" x="676" y="308.2549">+getSNSUserStore()</text><text fill="#000000" font-family="sans-serif" font-size="11" lengthAdjust="spacing" textLength="144" x="676" y="322.0908">+getVaccinationCenterStore()</text><text fill="#000000" font-family="sans-serif" font-size="11" lengthAdjust="spacing" textLength="119" x="676" y="335.9268">+getVaccineTypeStore()</text><!--MD5=[7e4c6f49f20d8afd403962aca283b361]
class VaccinationScheduleController--><rect codeLine="21" fill="#FEFECE" filter="url(#ftekfxx9diws8)" height="61.8359" id="VaccinationScheduleController" style="stroke:#A80036;stroke-width:1.5;" width="420" x="7" y="116"/><ellipse cx="128.25" cy="132" fill="#ADD1B2" rx="11" ry="11" style="stroke:#A80036;stroke-width:1.0;"/><path d="M131.0156,127.875 Q131.1719,127.6563 131.3594,127.5469 Q131.5469,127.4375 131.7656,127.4375 Q132.1406,127.4375 132.375,127.7031 Q132.6094,127.9531 132.6094,128.5625 L132.6094,130.0156 Q132.6094,130.625 132.375,130.8906 Q132.1406,131.1563 131.7656,131.1563 Q131.4219,131.1563 131.2188,130.9531 Q131.0156,130.7656 130.9063,130.25 Q130.8594,129.8906 130.6719,129.7031 Q130.3438,129.3281 129.7344,129.1094 Q129.125,128.8906 128.5,128.8906 Q127.7344,128.8906 127.0938,129.2188 Q126.4688,129.5469 125.9688,130.2969 Q125.4844,131.0469 125.4844,132.0781 L125.4844,133.1719 Q125.4844,134.4063 126.375,135.2344 Q127.2656,136.0469 128.8594,136.0469 Q129.7969,136.0469 130.4531,135.7969 Q130.8438,135.6406 131.2656,135.2031 Q131.5313,134.9375 131.6719,134.8594 Q131.8281,134.7813 132.0313,134.7813 Q132.3594,134.7813 132.6094,135.0469 Q132.875,135.2969 132.875,135.6406 Q132.875,135.9844 132.5313,136.3906 Q132.0313,136.9688 131.2344,137.2969 Q130.1563,137.75 128.8594,137.75 Q127.3438,137.75 126.1406,137.125 Q125.1563,136.625 124.4688,135.5625 Q123.7813,134.4844 123.7813,133.2031 L123.7813,132.0469 Q123.7813,130.7188 124.3906,129.5781 Q125.0156,128.4219 126.1094,127.8125 Q127.2031,127.1875 128.4375,127.1875 Q129.1719,127.1875 129.8125,127.3594 Q130.4688,127.5156 131.0156,127.875 Z " fill="#000000"/><text fill="#000000" font-family="sans-serif" font-size="12" lengthAdjust="spacing" textLength="169" x="148.75" y="136.9102">VaccinationScheduleController</text><line style="stroke:#A80036;stroke-width:1.5;" x1="8" x2="426" y1="148" y2="148"/><line style="stroke:#A80036;stroke-width:1.5;" x1="8" x2="426" y1="156" y2="156"/><text fill="#000000" font-family="sans-serif" font-size="11" lengthAdjust="spacing" textLength="408" x="13" y="171.4189">+createVaccinationSchedule(SNSUserNumber, date, time, center, vaccineType,sms)</text><!--MD5=[3f00da2a3f7eb6f150d50977937dd864]
class VaccinationScheduleUI--><rect codeLine="25" fill="#FEFECE" filter="url(#ftekfxx9diws8)" height="48" id="VaccinationScheduleUI" style="stroke:#A80036;stroke-width:1.5;" width="159" x="137.5" y="7"/><ellipse cx="152.5" cy="23" fill="#ADD1B2" rx="11" ry="11" style="stroke:#A80036;stroke-width:1.0;"/><path d="M155.2656,18.875 Q155.4219,18.6563 155.6094,18.5469 Q155.7969,18.4375 156.0156,18.4375 Q156.3906,18.4375 156.625,18.7031 Q156.8594,18.9531 156.8594,19.5625 L156.8594,21.0156 Q156.8594,21.625 156.625,21.8906 Q156.3906,22.1563 156.0156,22.1563 Q155.6719,22.1563 155.4688,21.9531 Q155.2656,21.7656 155.1563,21.25 Q155.1094,20.8906 154.9219,20.7031 Q154.5938,20.3281 153.9844,20.1094 Q153.375,19.8906 152.75,19.8906 Q151.9844,19.8906 151.3438,20.2188 Q150.7188,20.5469 150.2188,21.2969 Q149.7344,22.0469 149.7344,23.0781 L149.7344,24.1719 Q149.7344,25.4063 150.625,26.2344 Q151.5156,27.0469 153.1094,27.0469 Q154.0469,27.0469 154.7031,26.7969 Q155.0938,26.6406 155.5156,26.2031 Q155.7813,25.9375 155.9219,25.8594 Q156.0781,25.7813 156.2813,25.7813 Q156.6094,25.7813 156.8594,26.0469 Q157.125,26.2969 157.125,26.6406 Q157.125,26.9844 156.7813,27.3906 Q156.2813,27.9688 155.4844,28.2969 Q154.4063,28.75 153.1094,28.75 Q151.5938,28.75 150.3906,28.125 Q149.4063,27.625 148.7188,26.5625 Q148.0313,25.4844 148.0313,24.2031 L148.0313,23.0469 Q148.0313,21.7188 148.6406,20.5781 Q149.2656,19.4219 150.3594,18.8125 Q151.4531,18.1875 152.6875,18.1875 Q153.4219,18.1875 154.0625,18.3594 Q154.7188,18.5156 155.2656,18.875 Z " fill="#000000"/><text fill="#000000" font-family="sans-serif" font-size="12" lengthAdjust="spacing" textLength="127" x="166.5" y="27.9102">VaccinationScheduleUI</text><line style="stroke:#A80036;stroke-width:1.5;" x1="138.5" x2="295.5" y1="39" y2="39"/><line style="stroke:#A80036;stroke-width:1.5;" x1="138.5" x2="295.5" y1="47" y2="47"/><!--MD5=[a5ad3856b0c65e07b10297b4477b22bb]
class SNSUserStore--><rect codeLine="27" fill="#FEFECE" filter="url(#ftekfxx9diws8)" height="103.3438" id="SNSUserStore" style="stroke:#A80036;stroke-width:1.5;" width="196" x="893" y="441"/><ellipse cx="946.25" cy="457" fill="#ADD1B2" rx="11" ry="11" style="stroke:#A80036;stroke-width:1.0;"/><path d="M949.0156,452.875 Q949.1719,452.6563 949.3594,452.5469 Q949.5469,452.4375 949.7656,452.4375 Q950.1406,452.4375 950.375,452.7031 Q950.6094,452.9531 950.6094,453.5625 L950.6094,455.0156 Q950.6094,455.625 950.375,455.8906 Q950.1406,456.1563 949.7656,456.1563 Q949.4219,456.1563 949.2188,455.9531 Q949.0156,455.7656 948.9063,455.25 Q948.8594,454.8906 948.6719,454.7031 Q948.3438,454.3281 947.7344,454.1094 Q947.125,453.8906 946.5,453.8906 Q945.7344,453.8906 945.0938,454.2188 Q944.4688,454.5469 943.9688,455.2969 Q943.4844,456.0469 943.4844,457.0781 L943.4844,458.1719 Q943.4844,459.4063 944.375,460.2344 Q945.2656,461.0469 946.8594,461.0469 Q947.7969,461.0469 948.4531,460.7969 Q948.8438,460.6406 949.2656,460.2031 Q949.5313,459.9375 949.6719,459.8594 Q949.8281,459.7813 950.0313,459.7813 Q950.3594,459.7813 950.6094,460.0469 Q950.875,460.2969 950.875,460.6406 Q950.875,460.9844 950.5313,461.3906 Q950.0313,461.9688 949.2344,462.2969 Q948.1563,462.75 946.8594,462.75 Q945.3438,462.75 944.1406,462.125 Q943.1563,461.625 942.4688,460.5625 Q941.7813,459.4844 941.7813,458.2031 L941.7813,457.0469 Q941.7813,455.7188 942.3906,454.5781 Q943.0156,453.4219 944.1094,452.8125 Q945.2031,452.1875 946.4375,452.1875 Q947.1719,452.1875 947.8125,452.3594 Q948.4688,452.5156 949.0156,452.875 Z " fill="#000000"/><text fill="#000000" font-family="sans-serif" font-size="12" lengthAdjust="spacing" textLength="81" x="966.75" y="461.9102">SNSUserStore</text><line style="stroke:#A80036;stroke-width:1.5;" x1="894" x2="1088" y1="473" y2="473"/><line style="stroke:#A80036;stroke-width:1.5;" x1="894" x2="1088" y1="481" y2="481"/><text fill="#000000" font-family="sans-serif" font-size="11" lengthAdjust="spacing" textLength="184" x="899" y="496.4189">+createUser(name, email, pwd, roleId)</text><text fill="#000000" font-family="sans-serif" font-size="11" lengthAdjust="spacing" textLength="96" x="899" y="510.2549">+validateUser(user)</text><text fill="#000000" font-family="sans-serif" font-size="11" lengthAdjust="spacing" textLength="83" x="899" y="524.0908">+saveUser(user)</text><text fill="#000000" font-family="sans-serif" font-size="11" lengthAdjust="spacing" textLength="115" x="899" y="537.9268">+checkDuplicates(user)</text><!--MD5=[a29876ea2f21a6ca48ea477740122fd8]
class VaccinationCenterStore--><rect codeLine="34" fill="#FEFECE" filter="url(#ftekfxx9diws8)" height="117.1797" id="VaccinationCenterStore" style="stroke:#A80036;stroke-width:1.5;" width="257" x="220.5" y="636.5"/><ellipse cx="280.25" cy="652.5" fill="#ADD1B2" rx="11" ry="11" style="stroke:#A80036;stroke-width:1.0;"/><path d="M283.0156,648.375 Q283.1719,648.1563 283.3594,648.0469 Q283.5469,647.9375 283.7656,647.9375 Q284.1406,647.9375 284.375,648.2031 Q284.6094,648.4531 284.6094,649.0625 L284.6094,650.5156 Q284.6094,651.125 284.375,651.3906 Q284.1406,651.6563 283.7656,651.6563 Q283.4219,651.6563 283.2188,651.4531 Q283.0156,651.2656 282.9063,650.75 Q282.8594,650.3906 282.6719,650.2031 Q282.3438,649.8281 281.7344,649.6094 Q281.125,649.3906 280.5,649.3906 Q279.7344,649.3906 279.0938,649.7188 Q278.4688,650.0469 277.9688,650.7969 Q277.4844,651.5469 277.4844,652.5781 L277.4844,653.6719 Q277.4844,654.9063 278.375,655.7344 Q279.2656,656.5469 280.8594,656.5469 Q281.7969,656.5469 282.4531,656.2969 Q282.8438,656.1406 283.2656,655.7031 Q283.5313,655.4375 283.6719,655.3594 Q283.8281,655.2813 284.0313,655.2813 Q284.3594,655.2813 284.6094,655.5469 Q284.875,655.7969 284.875,656.1406 Q284.875,656.4844 284.5313,656.8906 Q284.0313,657.4688 283.2344,657.7969 Q282.1563,658.25 280.8594,658.25 Q279.3438,658.25 278.1406,657.625 Q277.1563,657.125 276.4688,656.0625 Q275.7813,654.9844 275.7813,653.7031 L275.7813,652.5469 Q275.7813,651.2188 276.3906,650.0781 Q277.0156,648.9219 278.1094,648.3125 Q279.2031,647.6875 280.4375,647.6875 Q281.1719,647.6875 281.8125,647.8594 Q282.4688,648.0156 283.0156,648.375 Z " fill="#000000"/><text fill="#000000" font-family="sans-serif" font-size="12" lengthAdjust="spacing" textLength="129" x="300.75" y="657.4102">VaccinationCenterStore</text><line style="stroke:#A80036;stroke-width:1.5;" x1="221.5" x2="476.5" y1="668.5" y2="668.5"/><line style="stroke:#A80036;stroke-width:1.5;" x1="221.5" x2="476.5" y1="676.5" y2="676.5"/><text fill="#000000" font-family="sans-serif" font-size="11" lengthAdjust="spacing" textLength="245" x="226.5" y="691.9189">+createVaccinationCenter(centerData,coordinator)</text><text fill="#000000" font-family="sans-serif" font-size="11" lengthAdjust="spacing" textLength="169" x="226.5" y="705.7549">+validateVaccinatonCenter(center)</text><text fill="#000000" font-family="sans-serif" font-size="11" lengthAdjust="spacing" textLength="158" x="226.5" y="719.5908">+saveVaccinationCenter(center)</text><text fill="#000000" font-family="sans-serif" font-size="11" lengthAdjust="spacing" textLength="124" x="226.5" y="733.4268">+checkDuplicates(center)</text><text fill="#000000" font-family="sans-serif" font-size="11" lengthAdjust="spacing" textLength="150" x="226.5" y="747.2627">-addVaccinationCenter(center)</text><!--MD5=[9532c95099058dfe385d7270fd32fc0d]
class VaccineTypeStore--><rect codeLine="42" fill="#FEFECE" filter="url(#ftekfxx9diws8)" height="103.3438" id="VaccineTypeStore" style="stroke:#A80036;stroke-width:1.5;" width="167" x="664.5" y="441"/><ellipse cx="696.15" cy="457" fill="#ADD1B2" rx="11" ry="11" style="stroke:#A80036;stroke-width:1.0;"/><path d="M698.9156,452.875 Q699.0719,452.6563 699.2594,452.5469 Q699.4469,452.4375 699.6656,452.4375 Q700.0406,452.4375 700.275,452.7031 Q700.5094,452.9531 700.5094,453.5625 L700.5094,455.0156 Q700.5094,455.625 700.275,455.8906 Q700.0406,456.1563 699.6656,456.1563 Q699.3219,456.1563 699.1188,455.9531 Q698.9156,455.7656 698.8063,455.25 Q698.7594,454.8906 698.5719,454.7031 Q698.2438,454.3281 697.6344,454.1094 Q697.025,453.8906 696.4,453.8906 Q695.6344,453.8906 694.9938,454.2188 Q694.3688,454.5469 693.8688,455.2969 Q693.3844,456.0469 693.3844,457.0781 L693.3844,458.1719 Q693.3844,459.4063 694.275,460.2344 Q695.1656,461.0469 696.7594,461.0469 Q697.6969,461.0469 698.3531,460.7969 Q698.7438,460.6406 699.1656,460.2031 Q699.4313,459.9375 699.5719,459.8594 Q699.7281,459.7813 699.9313,459.7813 Q700.2594,459.7813 700.5094,460.0469 Q700.775,460.2969 700.775,460.6406 Q700.775,460.9844 700.4313,461.3906 Q699.9313,461.9688 699.1344,462.2969 Q698.0563,462.75 696.7594,462.75 Q695.2438,462.75 694.0406,462.125 Q693.0563,461.625 692.3688,460.5625 Q691.6813,459.4844 691.6813,458.2031 L691.6813,457.0469 Q691.6813,455.7188 692.2906,454.5781 Q692.9156,453.4219 694.0094,452.8125 Q695.1031,452.1875 696.3375,452.1875 Q697.0719,452.1875 697.7125,452.3594 Q698.3688,452.5156 698.9156,452.875 Z " fill="#000000"/><text fill="#000000" font-family="sans-serif" font-size="12" lengthAdjust="spacing" textLength="98" x="713.85" y="461.9102">VaccineTypeStore</text><line style="stroke:#A80036;stroke-width:1.5;" x1="665.5" x2="830.5" y1="473" y2="473"/><line style="stroke:#A80036;stroke-width:1.5;" x1="665.5" x2="830.5" y1="481" y2="481"/><text fill="#000000" font-family="sans-serif" font-size="11" lengthAdjust="spacing" textLength="155" x="670.5" y="496.4189">+getVaccineTypeByCode(code)</text><text fill="#000000" font-family="sans-serif" font-size="11" lengthAdjust="spacing" textLength="46" x="670.5" y="510.2549">+getList()</text><text fill="#000000" font-family="sans-serif" font-size="11" lengthAdjust="spacing" textLength="96" x="670.5" y="524.0908">+addVaccineType()</text><text fill="#000000" font-family="sans-serif" font-size="11" lengthAdjust="spacing" textLength="102" x="670.5" y="537.9268">+saveVaccineType()</text><!--MD5=[de60e6d4f424ae4d0522096f76a59010]
class VaccinationCenter--><rect codeLine="49" fill="#FEFECE" filter="url(#ftekfxx9diws8)" height="200.1953" id="VaccinationCenter" style="stroke:#A80036;stroke-width:1.5;" width="157" x="550.5" y="595"/><ellipse cx="576.75" cy="611" fill="#ADD1B2" rx="11" ry="11" style="stroke:#A80036;stroke-width:1.0;"/><path d="M579.5156,606.875 Q579.6719,606.6563 579.8594,606.5469 Q580.0469,606.4375 580.2656,606.4375 Q580.6406,606.4375 580.875,606.7031 Q581.1094,606.9531 581.1094,607.5625 L581.1094,609.0156 Q581.1094,609.625 580.875,609.8906 Q580.6406,610.1563 580.2656,610.1563 Q579.9219,610.1563 579.7188,609.9531 Q579.5156,609.7656 579.4063,609.25 Q579.3594,608.8906 579.1719,608.7031 Q578.8438,608.3281 578.2344,608.1094 Q577.625,607.8906 577,607.8906 Q576.2344,607.8906 575.5938,608.2188 Q574.9688,608.5469 574.4688,609.2969 Q573.9844,610.0469 573.9844,611.0781 L573.9844,612.1719 Q573.9844,613.4063 574.875,614.2344 Q575.7656,615.0469 577.3594,615.0469 Q578.2969,615.0469 578.9531,614.7969 Q579.3438,614.6406 579.7656,614.2031 Q580.0313,613.9375 580.1719,613.8594 Q580.3281,613.7813 580.5313,613.7813 Q580.8594,613.7813 581.1094,614.0469 Q581.375,614.2969 581.375,614.6406 Q581.375,614.9844 581.0313,615.3906 Q580.5313,615.9688 579.7344,616.2969 Q578.6563,616.75 577.3594,616.75 Q575.8438,616.75 574.6406,616.125 Q573.6563,615.625 572.9688,614.5625 Q572.2813,613.4844 572.2813,612.2031 L572.2813,611.0469 Q572.2813,609.7188 572.8906,608.5781 Q573.5156,607.4219 574.6094,606.8125 Q575.7031,606.1875 576.9375,606.1875 Q577.6719,606.1875 578.3125,606.3594 Q578.9688,606.5156 579.5156,606.875 Z " fill="#000000"/><text fill="#000000" font-family="sans-serif" font-size="12" lengthAdjust="spacing" textLength="100" x="593.25" y="615.9102">VaccinationCenter</text><line style="stroke:#A80036;stroke-width:1.5;" x1="551.5" x2="706.5" y1="627" y2="627"/><text fill="#000000" font-family="sans-serif" font-size="11" lengthAdjust="spacing" textLength="64" x="556.5" y="642.4189">-name: String</text><text fill="#000000" font-family="sans-serif" font-size="11" lengthAdjust="spacing" textLength="78" x="556.5" y="656.2549">-address: String</text><text fill="#000000" font-family="sans-serif" font-size="11" lengthAdjust="spacing" textLength="104" x="556.5" y="670.0908">-emailAddress: String</text><text fill="#000000" font-family="sans-serif" font-size="11" lengthAdjust="spacing" textLength="105" x="556.5" y="683.9268">-phoneNumber: String</text><text fill="#000000" font-family="sans-serif" font-size="11" lengthAdjust="spacing" textLength="91" x="556.5" y="697.7627">-faxNumber: String</text><text fill="#000000" font-family="sans-serif" font-size="11" lengthAdjust="spacing" textLength="119" x="556.5" y="711.5986">-websiteAddress: String</text><text fill="#000000" font-family="sans-serif" font-size="11" lengthAdjust="spacing" textLength="105" x="556.5" y="725.4346">-openingHours: String</text><text fill="#000000" font-family="sans-serif" font-size="11" lengthAdjust="spacing" textLength="101" x="556.5" y="739.2705">-closingHours: String</text><text fill="#000000" font-family="sans-serif" font-size="11" lengthAdjust="spacing" textLength="78" x="556.5" y="753.1064">-slotDuration: int</text><text fill="#000000" font-family="sans-serif" font-size="11" lengthAdjust="spacing" textLength="145" x="556.5" y="766.9424">-maximumVaccinesPerSlot: int</text><text fill="#000000" font-family="sans-serif" font-size="11" lengthAdjust="spacing" textLength="119" x="556.5" y="780.7783">-coordinator: EMPLOYEE</text><line style="stroke:#A80036;stroke-width:1.5;" x1="551.5" x2="706.5" y1="787.1953" y2="787.1953"/><!--MD5=[0e501da62322464167c8ec4d233a6b7e]
class VaccineType--><rect codeLine="63" fill="#FEFECE" filter="url(#ftekfxx9diws8)" height="103.3438" id="VaccineType" style="stroke:#A80036;stroke-width:1.5;" width="226" x="721" y="825"/><ellipse cx="795.25" cy="841" fill="#ADD1B2" rx="11" ry="11" style="stroke:#A80036;stroke-width:1.0;"/><path d="M798.0156,836.875 Q798.1719,836.6563 798.3594,836.5469 Q798.5469,836.4375 798.7656,836.4375 Q799.1406,836.4375 799.375,836.7031 Q799.6094,836.9531 799.6094,837.5625 L799.6094,839.0156 Q799.6094,839.625 799.375,839.8906 Q799.1406,840.1563 798.7656,840.1563 Q798.4219,840.1563 798.2188,839.9531 Q798.0156,839.7656 797.9063,839.25 Q797.8594,838.8906 797.6719,838.7031 Q797.3438,838.3281 796.7344,838.1094 Q796.125,837.8906 795.5,837.8906 Q794.7344,837.8906 794.0938,838.2188 Q793.4688,838.5469 792.9688,839.2969 Q792.4844,840.0469 792.4844,841.0781 L792.4844,842.1719 Q792.4844,843.4063 793.375,844.2344 Q794.2656,845.0469 795.8594,845.0469 Q796.7969,845.0469 797.4531,844.7969 Q797.8438,844.6406 798.2656,844.2031 Q798.5313,843.9375 798.6719,843.8594 Q798.8281,843.7813 799.0313,843.7813 Q799.3594,843.7813 799.6094,844.0469 Q799.875,844.2969 799.875,844.6406 Q799.875,844.9844 799.5313,845.3906 Q799.0313,845.9688 798.2344,846.2969 Q797.1563,846.75 795.8594,846.75 Q794.3438,846.75 793.1406,846.125 Q792.1563,845.625 791.4688,844.5625 Q790.7813,843.4844 790.7813,842.2031 L790.7813,841.0469 Q790.7813,839.7188 791.3906,838.5781 Q792.0156,837.4219 793.1094,836.8125 Q794.2031,836.1875 795.4375,836.1875 Q796.1719,836.1875 796.8125,836.3594 Q797.4688,836.5156 798.0156,836.875 Z " fill="#000000"/><text fill="#000000" font-family="sans-serif" font-size="12" lengthAdjust="spacing" textLength="69" x="815.75" y="845.9102">VaccineType</text><line style="stroke:#A80036;stroke-width:1.5;" x1="722" x2="946" y1="857" y2="857"/><text fill="#000000" font-family="sans-serif" font-size="11" lengthAdjust="spacing" textLength="62" x="727" y="872.4189">-code: String</text><text fill="#000000" font-family="sans-serif" font-size="11" lengthAdjust="spacing" textLength="91" x="727" y="886.2549">-description: String</text><text fill="#000000" font-family="sans-serif" font-size="11" lengthAdjust="spacing" textLength="91" x="727" y="900.0908">-technology: String</text><line style="stroke:#A80036;stroke-width:1.5;" x1="722" x2="946" y1="906.5078" y2="906.5078"/><text fill="#000000" font-family="sans-serif" font-size="11" lengthAdjust="spacing" textLength="214" x="727" y="921.9268">+VaccineType(code,description,technology)</text><!--MD5=[72be06cc7ae02ccc98efe28a50e62246]
class SNSUser--><rect codeLine="70" fill="#FEFECE" filter="url(#ftekfxx9diws8)" height="144.8516" id="SNSUser" style="stroke:#A80036;stroke-width:1.5;" width="452" x="791" y="622.5"/><ellipse cx="986.75" cy="638.5" fill="#ADD1B2" rx="11" ry="11" style="stroke:#A80036;stroke-width:1.0;"/><path d="M989.5156,634.375 Q989.6719,634.1563 989.8594,634.0469 Q990.0469,633.9375 990.2656,633.9375 Q990.6406,633.9375 990.875,634.2031 Q991.1094,634.4531 991.1094,635.0625 L991.1094,636.5156 Q991.1094,637.125 990.875,637.3906 Q990.6406,637.6563 990.2656,637.6563 Q989.9219,637.6563 989.7188,637.4531 Q989.5156,637.2656 989.4063,636.75 Q989.3594,636.3906 989.1719,636.2031 Q988.8438,635.8281 988.2344,635.6094 Q987.625,635.3906 987,635.3906 Q986.2344,635.3906 985.5938,635.7188 Q984.9688,636.0469 984.4688,636.7969 Q983.9844,637.5469 983.9844,638.5781 L983.9844,639.6719 Q983.9844,640.9063 984.875,641.7344 Q985.7656,642.5469 987.3594,642.5469 Q988.2969,642.5469 988.9531,642.2969 Q989.3438,642.1406 989.7656,641.7031 Q990.0313,641.4375 990.1719,641.3594 Q990.3281,641.2813 990.5313,641.2813 Q990.8594,641.2813 991.1094,641.5469 Q991.375,641.7969 991.375,642.1406 Q991.375,642.4844 991.0313,642.8906 Q990.5313,643.4688 989.7344,643.7969 Q988.6563,644.25 987.3594,644.25 Q985.8438,644.25 984.6406,643.625 Q983.6563,643.125 982.9688,642.0625 Q982.2813,640.9844 982.2813,639.7031 L982.2813,638.5469 Q982.2813,637.2188 982.8906,636.0781 Q983.5156,634.9219 984.6094,634.3125 Q985.7031,633.6875 986.9375,633.6875 Q987.6719,633.6875 988.3125,633.8594 Q988.9688,634.0156 989.5156,634.375 Z " fill="#000000"/><text fill="#000000" font-family="sans-serif" font-size="12" lengthAdjust="spacing" textLength="52" x="1007.25" y="643.4102">SNSUser</text><line style="stroke:#A80036;stroke-width:1.5;" x1="792" x2="1242" y1="654.5" y2="654.5"/><text fill="#000000" font-family="sans-serif" font-size="11" lengthAdjust="spacing" textLength="92" x="797" y="669.9189">-citizenCard: String</text><text fill="#000000" font-family="sans-serif" font-size="11" lengthAdjust="spacing" textLength="93" x="797" y="683.7549">-snsNumber: String</text><text fill="#000000" font-family="sans-serif" font-size="11" lengthAdjust="spacing" textLength="72" x="797" y="697.5908">-birthDay: Date</text><text fill="#000000" font-family="sans-serif" font-size="11" lengthAdjust="spacing" textLength="67" x="797" y="711.4268">-gender: Char</text><text fill="#000000" font-family="sans-serif" font-size="11" lengthAdjust="spacing" textLength="105" x="797" y="725.2627">-phoneNumber: String</text><text fill="#000000" font-family="sans-serif" font-size="11" lengthAdjust="spacing" textLength="78" x="797" y="739.0986">-address: String</text><line style="stroke:#A80036;stroke-width:1.5;" x1="792" x2="1242" y1="745.5156" y2="745.5156"/><text fill="#000000" font-family="sans-serif" font-size="11" lengthAdjust="spacing" textLength="440" x="797" y="760.9346">+SNSUser(citizenCard, snsNumber, name, birthDay, gender, phoneNumber, email, address)</text><!--MD5=[7421f545a0d8420c5bec41e74b387d9c]
class Employee--><rect codeLine="80" fill="#FEFECE" filter="url(#ftekfxx9diws8)" height="144.8516" id="Employee" style="stroke:#A80036;stroke-width:1.5;" width="124" x="1172" y="420"/><ellipse cx="1203.65" cy="436" fill="#ADD1B2" rx="11" ry="11" style="stroke:#A80036;stroke-width:1.0;"/><path d="M1206.4156,431.875 Q1206.5719,431.6563 1206.7594,431.5469 Q1206.9469,431.4375 1207.1656,431.4375 Q1207.5406,431.4375 1207.775,431.7031 Q1208.0094,431.9531 1208.0094,432.5625 L1208.0094,434.0156 Q1208.0094,434.625 1207.775,434.8906 Q1207.5406,435.1563 1207.1656,435.1563 Q1206.8219,435.1563 1206.6188,434.9531 Q1206.4156,434.7656 1206.3063,434.25 Q1206.2594,433.8906 1206.0719,433.7031 Q1205.7438,433.3281 1205.1344,433.1094 Q1204.525,432.8906 1203.9,432.8906 Q1203.1344,432.8906 1202.4938,433.2188 Q1201.8688,433.5469 1201.3688,434.2969 Q1200.8844,435.0469 1200.8844,436.0781 L1200.8844,437.1719 Q1200.8844,438.4063 1201.775,439.2344 Q1202.6656,440.0469 1204.2594,440.0469 Q1205.1969,440.0469 1205.8531,439.7969 Q1206.2438,439.6406 1206.6656,439.2031 Q1206.9313,438.9375 1207.0719,438.8594 Q1207.2281,438.7813 1207.4313,438.7813 Q1207.7594,438.7813 1208.0094,439.0469 Q1208.275,439.2969 1208.275,439.6406 Q1208.275,439.9844 1207.9313,440.3906 Q1207.4313,440.9688 1206.6344,441.2969 Q1205.5563,441.75 1204.2594,441.75 Q1202.7438,441.75 1201.5406,441.125 Q1200.5563,440.625 1199.8688,439.5625 Q1199.1813,438.4844 1199.1813,437.2031 L1199.1813,436.0469 Q1199.1813,434.7188 1199.7906,433.5781 Q1200.4156,432.4219 1201.5094,431.8125 Q1202.6031,431.1875 1203.8375,431.1875 Q1204.5719,431.1875 1205.2125,431.3594 Q1205.8688,431.5156 1206.4156,431.875 Z " fill="#000000"/><text fill="#000000" font-family="sans-serif" font-size="12" lengthAdjust="spacing" textLength="55" x="1221.35" y="440.9102">Employee</text><line style="stroke:#A80036;stroke-width:1.5;" x1="1173" x2="1295" y1="452" y2="452"/><text fill="#000000" font-family="sans-serif" font-size="11" lengthAdjust="spacing" textLength="46" x="1178" y="467.4189">-id: String</text><text fill="#000000" font-family="sans-serif" font-size="11" lengthAdjust="spacing" textLength="64" x="1178" y="481.2549">-name: String</text><text fill="#000000" font-family="sans-serif" font-size="11" lengthAdjust="spacing" textLength="62" x="1178" y="495.0908">-email: String</text><text fill="#000000" font-family="sans-serif" font-size="11" lengthAdjust="spacing" textLength="68" x="1178" y="508.9268">-phone: String</text><text fill="#000000" font-family="sans-serif" font-size="11" lengthAdjust="spacing" textLength="78" x="1178" y="522.7627">-address: String</text><text fill="#000000" font-family="sans-serif" font-size="11" lengthAdjust="spacing" textLength="112" x="1178" y="536.5986">-citizenCardNumber: int</text><text fill="#000000" font-family="sans-serif" font-size="11" lengthAdjust="spacing" textLength="64" x="1178" y="550.4346">-roleId: String</text><line style="stroke:#A80036;stroke-width:1.5;" x1="1173" x2="1295" y1="556.8516" y2="556.8516"/><!--MD5=[03960189e81aa2c066c762ffabbee709]
class Receptionist--><rect codeLine="90" fill="#FEFECE" filter="url(#ftekfxx9diws8)" height="48" id="Receptionist" style="stroke:#A80036;stroke-width:1.5;" width="101" x="1122.5" y="852.5"/><ellipse cx="1137.5" cy="868.5" fill="#ADD1B2" rx="11" ry="11" style="stroke:#A80036;stroke-width:1.0;"/><path d="M1140.2656,864.375 Q1140.4219,864.1563 1140.6094,864.0469 Q1140.7969,863.9375 1141.0156,863.9375 Q1141.3906,863.9375 1141.625,864.2031 Q1141.8594,864.4531 1141.8594,865.0625 L1141.8594,866.5156 Q1141.8594,867.125 1141.625,867.3906 Q1141.3906,867.6563 1141.0156,867.6563 Q1140.6719,867.6563 1140.4688,867.4531 Q1140.2656,867.2656 1140.1563,866.75 Q1140.1094,866.3906 1139.9219,866.2031 Q1139.5938,865.8281 1138.9844,865.6094 Q1138.375,865.3906 1137.75,865.3906 Q1136.9844,865.3906 1136.3438,865.7188 Q1135.7188,866.0469 1135.2188,866.7969 Q1134.7344,867.5469 1134.7344,868.5781 L1134.7344,869.6719 Q1134.7344,870.9063 1135.625,871.7344 Q1136.5156,872.5469 1138.1094,872.5469 Q1139.0469,872.5469 1139.7031,872.2969 Q1140.0938,872.1406 1140.5156,871.7031 Q1140.7813,871.4375 1140.9219,871.3594 Q1141.0781,871.2813 1141.2813,871.2813 Q1141.6094,871.2813 1141.8594,871.5469 Q1142.125,871.7969 1142.125,872.1406 Q1142.125,872.4844 1141.7813,872.8906 Q1141.2813,873.4688 1140.4844,873.7969 Q1139.4063,874.25 1138.1094,874.25 Q1136.5938,874.25 1135.3906,873.625 Q1134.4063,873.125 1133.7188,872.0625 Q1133.0313,870.9844 1133.0313,869.7031 L1133.0313,868.5469 Q1133.0313,867.2188 1133.6406,866.0781 Q1134.2656,864.9219 1135.3594,864.3125 Q1136.4531,863.6875 1137.6875,863.6875 Q1138.4219,863.6875 1139.0625,863.8594 Q1139.7188,864.0156 1140.2656,864.375 Z " fill="#000000"/><text fill="#000000" font-family="sans-serif" font-size="12" lengthAdjust="spacing" textLength="69" x="1151.5" y="873.4102">Receptionist</text><line style="stroke:#A80036;stroke-width:1.5;" x1="1123.5" x2="1222.5" y1="884.5" y2="884.5"/><line style="stroke:#A80036;stroke-width:1.5;" x1="1123.5" x2="1222.5" y1="892.5" y2="892.5"/><!--MD5=[ade87be7d0bbac1c6123d2fb440b3468]
class SMS--><rect codeLine="92" fill="#FEFECE" filter="url(#ftekfxx9diws8)" height="48" id="SMS" style="stroke:#A80036;stroke-width:1.5;" width="57" x="1258.5" y="852.5"/><ellipse cx="1273.5" cy="868.5" fill="#ADD1B2" rx="11" ry="11" style="stroke:#A80036;stroke-width:1.0;"/><path d="M1276.2656,864.375 Q1276.4219,864.1563 1276.6094,864.0469 Q1276.7969,863.9375 1277.0156,863.9375 Q1277.3906,863.9375 1277.625,864.2031 Q1277.8594,864.4531 1277.8594,865.0625 L1277.8594,866.5156 Q1277.8594,867.125 1277.625,867.3906 Q1277.3906,867.6563 1277.0156,867.6563 Q1276.6719,867.6563 1276.4688,867.4531 Q1276.2656,867.2656 1276.1563,866.75 Q1276.1094,866.3906 1275.9219,866.2031 Q1275.5938,865.8281 1274.9844,865.6094 Q1274.375,865.3906 1273.75,865.3906 Q1272.9844,865.3906 1272.3438,865.7188 Q1271.7188,866.0469 1271.2188,866.7969 Q1270.7344,867.5469 1270.7344,868.5781 L1270.7344,869.6719 Q1270.7344,870.9063 1271.625,871.7344 Q1272.5156,872.5469 1274.1094,872.5469 Q1275.0469,872.5469 1275.7031,872.2969 Q1276.0938,872.1406 1276.5156,871.7031 Q1276.7813,871.4375 1276.9219,871.3594 Q1277.0781,871.2813 1277.2813,871.2813 Q1277.6094,871.2813 1277.8594,871.5469 Q1278.125,871.7969 1278.125,872.1406 Q1278.125,872.4844 1277.7813,872.8906 Q1277.2813,873.4688 1276.4844,873.7969 Q1275.4063,874.25 1274.1094,874.25 Q1272.5938,874.25 1271.3906,873.625 Q1270.4063,873.125 1269.7188,872.0625 Q1269.0313,870.9844 1269.0313,869.7031 L1269.0313,868.5469 Q1269.0313,867.2188 1269.6406,866.0781 Q1270.2656,864.9219 1271.3594,864.3125 Q1272.4531,863.6875 1273.6875,863.6875 Q1274.4219,863.6875 1275.0625,863.8594 Q1275.7188,864.0156 1276.2656,864.375 Z " fill="#000000"/><text fill="#000000" font-family="sans-serif" font-size="12" lengthAdjust="spacing" textLength="25" x="1287.5" y="873.4102">SMS</text><line style="stroke:#A80036;stroke-width:1.5;" x1="1259.5" x2="1314.5" y1="884.5" y2="884.5"/><line style="stroke:#A80036;stroke-width:1.5;" x1="1259.5" x2="1314.5" y1="892.5" y2="892.5"/><!--MD5=[96a9cab42a196d27be9383ed09af0ccd]
link VaccinationScheduleUI to VaccinationScheduleController--><path codeLine="94" d="M217,55.07 C217,71.01 217,92.51 217,110.6 " fill="none" id="VaccinationScheduleUI-to-VaccinationScheduleController" style="stroke:#A80036;stroke-width:1.0;stroke-dasharray:7.0,7.0;"/><polygon fill="#A80036" points="217,115.61,221,106.61,217,110.61,213,106.61,217,115.61" style="stroke:#A80036;stroke-width:1.0;"/><!--MD5=[c4a089b07c6de5b3c4c33a83b1d7faad]
link VaccinationScheduleController to VaccinationSchedule--><path codeLine="95" d="M210.23,178.19 C204.43,206.72 197,250.8 197,289.5 C197,289.5 197,289.5 197,877.5 C197,995.93 541.35,1045.36 770.39,1065.15 " fill="none" id="VaccinationScheduleController-to-VaccinationSchedule" style="stroke:#A80036;stroke-width:1.0;stroke-dasharray:7.0,7.0;"/><polygon fill="#A80036" points="775.44,1065.58,766.8156,1060.8239,770.4584,1065.1518,766.1305,1068.7945,775.44,1065.58" style="stroke:#A80036;stroke-width:1.0;"/><!--MD5=[76cd983abc1275c7a00cdb4476a6b15c]
link VaccinationScheduleController to Company--><path codeLine="96" d="M329.61,178.01 C430,204.76 574.64,243.3 664.88,267.35 " fill="none" id="VaccinationScheduleController-to-Company" style="stroke:#A80036;stroke-width:1.0;stroke-dasharray:7.0,7.0;"/><polygon fill="#A80036" points="669.93,268.7,662.2623,262.5189,665.0984,267.4135,660.2038,270.2496,669.93,268.7" style="stroke:#A80036;stroke-width:1.0;"/><!--MD5=[1bd9080c7e199931e49bc5a1616681ac]
link Company to SNSUserStore--><path codeLine="97" d="M809.63,342.23 C845.04,371.37 889.49,407.96 925.53,437.61 " fill="none" id="Company-to-SNSUserStore" style="stroke:#A80036;stroke-width:1.0;stroke-dasharray:7.0,7.0;"/><polygon fill="#A80036" points="929.43,440.83,925.0186,432.0243,925.5679,437.6545,919.9377,438.2038,929.43,440.83" style="stroke:#A80036;stroke-width:1.0;"/><!--MD5=[bc0d5b4bfe6e1bf0a8fced13bc4bdd47]
link Company to VaccinationCenterStore--><path codeLine="98" d="M697.87,342.07 C624.63,415.96 488.53,553.25 409.71,632.75 " fill="none" id="Company-to-VaccinationCenterStore" style="stroke:#A80036;stroke-width:1.0;stroke-dasharray:7.0,7.0;"/><polygon fill="#A80036" points="406,636.5,415.1781,632.9274,409.5212,632.9502,409.4984,627.2934,406,636.5" style="stroke:#A80036;stroke-width:1.0;"/><!--MD5=[26b80dd60d3305f854b992ec0b603e2d]
link Company to VaccineTypeStore--><path codeLine="99" d="M748,342.23 C748,370.78 748,406.48 748,435.8 " fill="none" id="Company-to-VaccineTypeStore" style="stroke:#A80036;stroke-width:1.0;stroke-dasharray:7.0,7.0;"/><polygon fill="#A80036" points="748,440.83,752,431.83,748,435.83,744,431.83,748,440.83" style="stroke:#A80036;stroke-width:1.0;"/><!--MD5=[09366576ee87d48d594df10cacc83f45]
link Company to Employee--><path codeLine="100" d="M826.18,315.26 C899.93,338.66 1012.91,377.05 1107,420 C1126.95,429.11 1147.94,440.24 1166.99,450.98 " fill="none" id="Company-to-Employee" style="stroke:#A80036;stroke-width:1.0;"/><polygon fill="#A80036" points="1171.79,453.71,1165.9266,445.7967,1167.4383,451.2478,1161.9871,452.7595,1171.79,453.71" style="stroke:#A80036;stroke-width:1.0;"/><text fill="#000000" font-family="sans-serif" font-size="13" lengthAdjust="spacing" textLength="37" x="1031" y="386.4951">knows</text><text fill="#000000" font-family="sans-serif" font-size="13" lengthAdjust="spacing" textLength="7" x="833.9651" y="314.3529">1</text><text fill="#000000" font-family="sans-serif" font-size="13" lengthAdjust="spacing" textLength="5" x="1158.9035" y="445.5331">*</text><!--MD5=[8c304936b446fd8cea914e03fbadd4b7]
link VaccinationCenterStore to VaccinationCenter--><path codeLine="101" d="M477.53,695 C500.55,695 523.99,695 545.34,695 " fill="none" id="VaccinationCenterStore-to-VaccinationCenter" style="stroke:#A80036;stroke-width:1.0;"/><polygon fill="#A80036" points="550.43,695,541.43,691,545.43,695,541.43,699,550.43,695" style="stroke:#A80036;stroke-width:1.0;"/><text fill="#000000" font-family="sans-serif" font-size="13" lengthAdjust="spacing" textLength="36" x="496" y="688.4951">stores</text><text fill="#000000" font-family="sans-serif" font-size="13" lengthAdjust="spacing" textLength="7" x="485.5756" y="692.0129">1</text><text fill="#000000" font-family="sans-serif" font-size="13" lengthAdjust="spacing" textLength="5" x="537.4497" y="691.7153">*</text><!--MD5=[d008df8d9f8e445f2ab98a1ffd9c1902]
link VaccineTypeStore to VaccineType--><path codeLine="102" d="M732,544.11 C715.3,606.44 696.46,713.98 735,795 C739.5,804.46 745.71,813.16 752.85,821.08 " fill="none" id="VaccineTypeStore-to-VaccineType" style="stroke:#A80036;stroke-width:1.0;"/><polygon fill="#A80036" points="756.43,824.9,753.2121,815.5917,753.0179,821.2452,747.3644,821.051,756.43,824.9" style="stroke:#A80036;stroke-width:1.0;"/><text fill="#000000" font-family="sans-serif" font-size="13" lengthAdjust="spacing" textLength="36" x="736" y="700.4951">stores</text><text fill="#000000" font-family="sans-serif" font-size="13" lengthAdjust="spacing" textLength="7" x="722.2578" y="565.9883">1</text><text fill="#000000" font-family="sans-serif" font-size="13" lengthAdjust="spacing" textLength="5" x="740.1702" y="814.0144">*</text><!--MD5=[b01d27099955aced792f1ce85db49798]
link SNSUserStore to SNSUser--><path codeLine="103" d="M997.56,544.09 C1000.43,566.19 1003.85,592.59 1007.02,617.03 " fill="none" id="SNSUserStore-to-SNSUser" style="stroke:#A80036;stroke-width:1.0;"/><polygon fill="#A80036" points="1007.69,622.22,1010.4993,612.7803,1007.047,617.2615,1002.5658,613.8092,1007.69,622.22" style="stroke:#A80036;stroke-width:1.0;"/><text fill="#000000" font-family="sans-serif" font-size="13" lengthAdjust="spacing" textLength="36" x="965.63" y="579.6751">stores</text><text fill="#000000" font-family="sans-serif" font-size="13" lengthAdjust="spacing" textLength="7" x="990.9903" y="565.9655">1</text><text fill="#000000" font-family="sans-serif" font-size="13" lengthAdjust="spacing" textLength="5" x="1001.4721" y="611.4105">*</text><!--MD5=[1da12df22706e73e1def33b218b7f412]
link Employee to Receptionist--><path codeLine="104" d="M1251.49,565.17 C1263.31,627.9 1272.19,720.41 1244,795 C1236.16,815.73 1220.29,834.57 1205.53,848.81 " fill="none" id="Employee-to-Receptionist" style="stroke:#A80036;stroke-width:1.0;"/><polygon fill="#A80036" points="1201.81,852.32,1211.0989,849.0463,1205.4443,848.886,1205.6045,843.2315,1201.81,852.32" style="stroke:#A80036;stroke-width:1.0;"/><text fill="#000000" font-family="sans-serif" font-size="13" lengthAdjust="spacing" textLength="42" x="1263" y="700.4951">play as</text><text fill="#000000" font-family="sans-serif" font-size="13" lengthAdjust="spacing" textLength="7" x="1245.8234" y="586.3778">1</text><text fill="#000000" font-family="sans-serif" font-size="13" lengthAdjust="spacing" textLength="7" x="1201.2957" y="841.614">1</text><!--MD5=[75ce8a59ab257f4e0c5e0fa61625d325]
link Receptionist to VaccinationSchedule--><path codeLine="105" d="M1149.32,900.83 C1124.19,925.59 1083.16,966.01 1046.69,1001.95 " fill="none" id="Receptionist-to-VaccinationSchedule" style="stroke:#A80036;stroke-width:1.0;"/><polygon fill="#A80036" points="1042.72,1005.85,1051.9336,1002.3702,1046.2769,1002.336,1046.3112,996.6792,1042.72,1005.85" style="stroke:#A80036;stroke-width:1.0;"/><text fill="#000000" font-family="sans-serif" font-size="13" lengthAdjust="spacing" textLength="68" x="1090" y="972.4951">is related to</text><text fill="#000000" font-family="sans-serif" font-size="13" lengthAdjust="spacing" textLength="7" x="1136.0346" y="921.8421">1</text><text fill="#000000" font-family="sans-serif" font-size="13" lengthAdjust="spacing" textLength="7" x="1042.8583" y="995.0539">1</text><!--MD5=[0c5cc0657d107d2acd2458356bec6e07]
link VaccinationCenter to VaccinationSchedule--><path codeLine="106" d="M607.96,795.04 C604.03,839.09 607.52,889.55 633,928 C665.18,976.55 717.06,1009.48 770.58,1031.75 " fill="none" id="VaccinationCenter-to-VaccinationSchedule" style="stroke:#A80036;stroke-width:1.0;"/><polygon fill="#A80036" points="775.43,1033.74,768.6232,1026.6219,770.8045,1031.8413,765.5852,1034.0227,775.43,1033.74" style="stroke:#A80036;stroke-width:1.0;"/><text fill="#000000" font-family="sans-serif" font-size="13" lengthAdjust="spacing" textLength="68" x="634" y="881.9951">is related to</text><text fill="#000000" font-family="sans-serif" font-size="13" lengthAdjust="spacing" textLength="7" x="599.0812" y="816.8129">1</text><text fill="#000000" font-family="sans-serif" font-size="13" lengthAdjust="spacing" textLength="7" x="760.6929" y="1029.1839">1</text><!--MD5=[e5afb58c916b394863620b24828b7bc3]
link SNSUser to VaccinationSchedule--><path codeLine="107" d="M1008.16,767.76 C999.98,834.13 987.86,932.5 979.49,1000.49 " fill="none" id="SNSUser-to-VaccinationSchedule" style="stroke:#A80036;stroke-width:1.0;"/><polygon fill="#A80036" points="978.84,1005.74,983.9164,997.3002,979.4549,1000.778,975.9772,996.3164,978.84,1005.74" style="stroke:#A80036;stroke-width:1.0;"/><text fill="#000000" font-family="sans-serif" font-size="13" lengthAdjust="spacing" textLength="68" x="1001" y="881.9951">is related to</text><!--MD5=[e062b2de1748a84f5373d40a307dc805]
link VaccineType to VaccinationSchedule--><path codeLine="108" d="M868.49,928.23 C883.6,950.43 901.64,976.96 918.29,1001.46 " fill="none" id="VaccineType-to-VaccinationSchedule" style="stroke:#A80036;stroke-width:1.0;"/><polygon fill="#A80036" points="921.17,1005.69,919.4059,996.0004,918.3538,1001.5586,912.7956,1000.5064,921.17,1005.69" style="stroke:#A80036;stroke-width:1.0;"/><text fill="#000000" font-family="sans-serif" font-size="13" lengthAdjust="spacing" textLength="68" x="899" y="972.4951">is related to</text><text fill="#000000" font-family="sans-serif" font-size="13" lengthAdjust="spacing" textLength="7" x="865.6543" y="949.7519">1</text><text fill="#000000" font-family="sans-serif" font-size="13" lengthAdjust="spacing" textLength="7" x="909.0188" y="995.255">1</text><!--MD5=[325a319b30ae921eab122c242376ff6f]
link SMS to VaccinationSchedule--><path codeLine="109" d="M1268.22,900.56 C1260.3,909.62 1250.68,919.79 1241,928 C1207.64,956.31 1168.07,981.74 1129.63,1003.26 " fill="none" id="SMS-to-VaccinationSchedule" style="stroke:#A80036;stroke-width:1.0;"/><polygon fill="#A80036" points="1124.95,1005.86,1134.76,1004.9858,1129.3208,1003.4318,1130.8748,997.9926,1124.95,1005.86" style="stroke:#A80036;stroke-width:1.0;"/><text fill="#000000" font-family="sans-serif" font-size="13" lengthAdjust="spacing" textLength="68" x="1201" y="972.4951">is related to</text><text fill="#000000" font-family="sans-serif" font-size="13" lengthAdjust="spacing" textLength="22" x="1238.9611" y="921.9126">0..1</text><text fill="#000000" font-family="sans-serif" font-size="13" lengthAdjust="spacing" textLength="7" x="1133.5683" y="995.0649">1</text><!--MD5=[77d92fd39953dbca792b31c2c749bba1]
@startuml US02_CD
skinparam classAttributeIconSize 0

class VaccinationSchedule {
  - SNSUserNumber: int
  - date: Date
  - time: String
  - center: VACCINATIONCENTER
  - vaccineType: VACCINETYPE
  - sms: boolean
  +VaccinationSchedule(SNSUserNumber, date, time, center, vaccineType,sms)
}


class Company {
  -designation: String
  +getSNSUserStore()
  +getVaccinationCenterStore()
  +getVaccineTypeStore()
}

class VaccinationScheduleController {
  +createVaccinationSchedule(SNSUserNumber, date, time, center, vaccineType,sms)
}

class VaccinationScheduleUI {}

class SNSUserStore {
  + createUser(name, email, pwd, roleId)
  + validateUser(user)
  + saveUser(user)
  + checkDuplicates(user)
}

class VaccinationCenterStore {
+createVaccinationCenter(centerData,coordinator)
+validateVaccinatonCenter(center)
+saveVaccinationCenter(center)
+checkDuplicates(center)
-addVaccinationCenter(center)
}

class VaccineTypeStore {
  +getVaccineTypeByCode(code)
  +getList()
  +addVaccineType()
  +saveVaccineType()
}

class VaccinationCenter{
  - name: String
  - address: String
  - emailAddress: String
  - phoneNumber: String
  - faxNumber: String
  - websiteAddress: String
  - openingHours: String
  - closingHours: String
  - slotDuration: int
  - maximumVaccinesPerSlot: int
  - coordinator: EMPLOYEE
}

class VaccineType {
  - code: String
  - description: String
  - technology: String
  + VaccineType(code,description,technology)
}

class SNSUser {
  - citizenCard: String 
  - snsNumber: String 
  - birthDay: Date 
  - gender: Char
  - phoneNumber: String 
  - address: String
  + SNSUser(citizenCard, snsNumber, name, birthDay, gender, phoneNumber, email, address)
  }

class Employee {
  -id: String 
  -name: String 
  -email: String 
  -phone: String 
  -address: String 
  -citizenCardNumber: int 
  -roleId: String 
}

class Receptionist {}

class SMS {}

VaccinationScheduleUI ..> VaccinationScheduleController
VaccinationScheduleController ..> VaccinationSchedule
VaccinationScheduleController ..> Company
Company ..> SNSUserStore
Company ..> VaccinationCenterStore
Company ..> VaccineTypeStore
Company "1" - -> "*" Employee : knows
VaccinationCenterStore "1" -> "*" VaccinationCenter : stores
VaccineTypeStore "1" -> "*" VaccineType : stores
SNSUserStore "1" -> "*" SNSUser : stores
Employee "1" - -> "1" Receptionist : play as
Receptionist "1" - -> "1" VaccinationSchedule : is related to
VaccinationCenter "1" - -> "1" VaccinationSchedule : is related to
SNSUser - -> VaccinationSchedule : is related to
VaccineType "1" - -> "1" VaccinationSchedule : is related to
SMS "0..1" - -> "1" VaccinationSchedule : is related to


@enduml

PlantUML version 1.2022.0(Tue Jan 11 16:16:42 WET 2022)
(GPL source distribution)
Java Runtime: Java(TM) SE Runtime Environment
JVM: Java HotSpot(TM) 64-Bit Server VM
Default Encoding: Cp1252
Language: pt
Country: PT
--></g></svg>