<?xml version="1.0" encoding="UTF-8" standalone="no"?><svg xmlns="http://www.w3.org/2000/svg" xmlns:xlink="http://www.w3.org/1999/xlink" contentScriptType="application/ecmascript" contentStyleType="text/css" height="1318px" preserveAspectRatio="none" style="width:1848px;height:1318px;background:#FFFFFF;" version="1.1" viewBox="0 0 1848 1318" width="1848px" zoomAndPan="magnify"><defs><filter height="300%" id="f4uigqviwugf5" width="300%" x="-1" y="-1"><feGaussianBlur result="blurOut" stdDeviation="2.0"/><feColorMatrix in="blurOut" result="blurOut2" type="matrix" values="0 0 0 0 0 0 0 0 0 0 0 0 0 0 0 0 0 0 .4 0"/><feOffset dx="4.0" dy="4.0" in="blurOut2" result="blurOut3"/><feBlend in="SourceGraphic" in2="blurOut3" mode="normal"/></filter></defs><g><!--MD5=[9681dc6e01e10c6b4fe06895ae94f592]
cluster UI--><polygon fill="#FFFFFF" filter="url(#f4uigqviwugf5)" points="1253,6,1273,6,1280,29.6094,1395,29.6094,1395,106,1253,106,1253,6" style="stroke:#000000;stroke-width:1.5;"/><line style="stroke:#000000;stroke-width:1.5;" x1="1253" x2="1280" y1="29.6094" y2="29.6094"/><text fill="#000000" font-family="sans-serif" font-size="14" font-weight="bold" lengthAdjust="spacing" textLength="14" x="1257" y="22.5332">UI</text><!--MD5=[f4e70ef68289585296b9045165e58692]
cluster controllers--><polygon fill="#FFFFFF" filter="url(#f4uigqviwugf5)" points="1232,139,1315,139,1322,162.6094,1416,162.6094,1416,239,1232,239,1232,139" style="stroke:#000000;stroke-width:1.5;"/><line style="stroke:#000000;stroke-width:1.5;" x1="1232" x2="1322" y1="162.6094" y2="162.6094"/><text fill="#000000" font-family="sans-serif" font-size="14" font-weight="bold" lengthAdjust="spacing" textLength="77" x="1236" y="155.5332">controllers</text><!--MD5=[c52f45833d539af9e29a9d34b8b7302b]
cluster utils--><polygon fill="#FFFFFF" filter="url(#f4uigqviwugf5)" points="1695,686.5,1731,686.5,1738,710.1094,1831,710.1094,1831,855.5,1695,855.5,1695,686.5" style="stroke:#000000;stroke-width:1.5;"/><line style="stroke:#000000;stroke-width:1.5;" x1="1695" x2="1738" y1="710.1094" y2="710.1094"/><text fill="#000000" font-family="sans-serif" font-size="14" font-weight="bold" lengthAdjust="spacing" textLength="30" x="1699" y="703.0332">utils</text><!--MD5=[01435ace8273dc3cae88e7f376e4d373]
cluster core--><polygon fill="#FFFFFF" filter="url(#f4uigqviwugf5)" points="16,272,54,272,61,295.6094,1671,295.6094,1671,1311,16,1311,16,272" style="stroke:#000000;stroke-width:1.5;"/><line style="stroke:#000000;stroke-width:1.5;" x1="16" x2="61" y1="295.6094" y2="295.6094"/><text fill="#000000" font-family="sans-serif" font-size="14" font-weight="bold" lengthAdjust="spacing" textLength="32" x="20" y="288.5332">core</text><!--MD5=[27f772719433d509ddbc20ff768eba08]
cluster domain--><polygon fill="#FFFFFF" filter="url(#f4uigqviwugf5)" points="40,316,97,316,104,339.6094,1647,339.6094,1647,1287,40,1287,40,316" style="stroke:#000000;stroke-width:1.5;"/><line style="stroke:#000000;stroke-width:1.5;" x1="40" x2="104" y1="339.6094" y2="339.6094"/><text fill="#000000" font-family="sans-serif" font-size="14" font-weight="bold" lengthAdjust="spacing" textLength="51" x="44" y="332.5332">domain</text><!--MD5=[7579d5565d2521d5936cec86ed3dadee]
cluster service--><polygon fill="#FFFFFF" filter="url(#f4uigqviwugf5)" points="1294,1108,1353,1108,1360,1131.6094,1470,1131.6094,1470,1263,1294,1263,1294,1108" style="stroke:#000000;stroke-width:1.5;"/><line style="stroke:#000000;stroke-width:1.5;" x1="1294" x2="1360" y1="1131.6094" y2="1131.6094"/><text fill="#000000" font-family="sans-serif" font-size="14" font-weight="bold" lengthAdjust="spacing" textLength="53" x="1298" y="1124.5332">service</text><!--MD5=[5d4cd377749310b66bf14896f5cd8d9b]
cluster model--><polygon fill="#FFFFFF" filter="url(#f4uigqviwugf5)" points="64,360,113,360,120,383.6094,1389,383.6094,1389,1058,64,1058,64,360" style="stroke:#000000;stroke-width:1.5;"/><line style="stroke:#000000;stroke-width:1.5;" x1="64" x2="120" y1="383.6094" y2="383.6094"/><text fill="#000000" font-family="sans-serif" font-size="14" font-weight="bold" lengthAdjust="spacing" textLength="43" x="68" y="376.5332">model</text><!--MD5=[fbca5634cbc0239920b500cad9c4bedb]
cluster stores--><polygon fill="#FFFFFF" filter="url(#f4uigqviwugf5)" points="1429,721,1480,721,1487,744.6094,1623,744.6094,1623,821,1429,821,1429,721" style="stroke:#000000;stroke-width:1.5;"/><line style="stroke:#000000;stroke-width:1.5;" x1="1429" x2="1487" y1="744.6094" y2="744.6094"/><text fill="#000000" font-family="sans-serif" font-size="14" font-weight="bold" lengthAdjust="spacing" textLength="45" x="1433" y="737.5332">stores</text><!--MD5=[402ad09537f09c1bd7eacac4837c99a0]
class CsvExporterUI--><rect codeLine="4" fill="#FEFECE" filter="url(#f4uigqviwugf5)" height="48" id="CsvExporterUI" style="stroke:#A80036;stroke-width:1.5;" width="110" x="1269" y="42"/><ellipse cx="1284" cy="58" fill="#ADD1B2" rx="11" ry="11" style="stroke:#A80036;stroke-width:1.0;"/><path d="M1286.7656,53.875 Q1286.9219,53.6563 1287.1094,53.5469 Q1287.2969,53.4375 1287.5156,53.4375 Q1287.8906,53.4375 1288.125,53.7031 Q1288.3594,53.9531 1288.3594,54.5625 L1288.3594,56.0156 Q1288.3594,56.625 1288.125,56.8906 Q1287.8906,57.1563 1287.5156,57.1563 Q1287.1719,57.1563 1286.9688,56.9531 Q1286.7656,56.7656 1286.6563,56.25 Q1286.6094,55.8906 1286.4219,55.7031 Q1286.0938,55.3281 1285.4844,55.1094 Q1284.875,54.8906 1284.25,54.8906 Q1283.4844,54.8906 1282.8438,55.2188 Q1282.2188,55.5469 1281.7188,56.2969 Q1281.2344,57.0469 1281.2344,58.0781 L1281.2344,59.1719 Q1281.2344,60.4063 1282.125,61.2344 Q1283.0156,62.0469 1284.6094,62.0469 Q1285.5469,62.0469 1286.2031,61.7969 Q1286.5938,61.6406 1287.0156,61.2031 Q1287.2813,60.9375 1287.4219,60.8594 Q1287.5781,60.7813 1287.7813,60.7813 Q1288.1094,60.7813 1288.3594,61.0469 Q1288.625,61.2969 1288.625,61.6406 Q1288.625,61.9844 1288.2813,62.3906 Q1287.7813,62.9688 1286.9844,63.2969 Q1285.9063,63.75 1284.6094,63.75 Q1283.0938,63.75 1281.8906,63.125 Q1280.9063,62.625 1280.2188,61.5625 Q1279.5313,60.4844 1279.5313,59.2031 L1279.5313,58.0469 Q1279.5313,56.7188 1280.1406,55.5781 Q1280.7656,54.4219 1281.8594,53.8125 Q1282.9531,53.1875 1284.1875,53.1875 Q1284.9219,53.1875 1285.5625,53.3594 Q1286.2188,53.5156 1286.7656,53.875 Z " fill="#000000"/><text fill="#000000" font-family="sans-serif" font-size="12" lengthAdjust="spacing" textLength="78" x="1298" y="62.9102">CsvExporterUI</text><line style="stroke:#A80036;stroke-width:1.5;" x1="1270" x2="1378" y1="74" y2="74"/><line style="stroke:#A80036;stroke-width:1.5;" x1="1270" x2="1378" y1="82" y2="82"/><!--MD5=[c1d37d34f24fc29af1367e54859a0e51]
class CsvExporterController--><rect codeLine="8" fill="#FEFECE" filter="url(#f4uigqviwugf5)" height="48" id="CsvExporterController" style="stroke:#A80036;stroke-width:1.5;" width="152" x="1248" y="175"/><ellipse cx="1263" cy="191" fill="#ADD1B2" rx="11" ry="11" style="stroke:#A80036;stroke-width:1.0;"/><path d="M1265.7656,186.875 Q1265.9219,186.6563 1266.1094,186.5469 Q1266.2969,186.4375 1266.5156,186.4375 Q1266.8906,186.4375 1267.125,186.7031 Q1267.3594,186.9531 1267.3594,187.5625 L1267.3594,189.0156 Q1267.3594,189.625 1267.125,189.8906 Q1266.8906,190.1563 1266.5156,190.1563 Q1266.1719,190.1563 1265.9688,189.9531 Q1265.7656,189.7656 1265.6563,189.25 Q1265.6094,188.8906 1265.4219,188.7031 Q1265.0938,188.3281 1264.4844,188.1094 Q1263.875,187.8906 1263.25,187.8906 Q1262.4844,187.8906 1261.8438,188.2188 Q1261.2188,188.5469 1260.7188,189.2969 Q1260.2344,190.0469 1260.2344,191.0781 L1260.2344,192.1719 Q1260.2344,193.4063 1261.125,194.2344 Q1262.0156,195.0469 1263.6094,195.0469 Q1264.5469,195.0469 1265.2031,194.7969 Q1265.5938,194.6406 1266.0156,194.2031 Q1266.2813,193.9375 1266.4219,193.8594 Q1266.5781,193.7813 1266.7813,193.7813 Q1267.1094,193.7813 1267.3594,194.0469 Q1267.625,194.2969 1267.625,194.6406 Q1267.625,194.9844 1267.2813,195.3906 Q1266.7813,195.9688 1265.9844,196.2969 Q1264.9063,196.75 1263.6094,196.75 Q1262.0938,196.75 1260.8906,196.125 Q1259.9063,195.625 1259.2188,194.5625 Q1258.5313,193.4844 1258.5313,192.2031 L1258.5313,191.0469 Q1258.5313,189.7188 1259.1406,188.5781 Q1259.7656,187.4219 1260.8594,186.8125 Q1261.9531,186.1875 1263.1875,186.1875 Q1263.9219,186.1875 1264.5625,186.3594 Q1265.2188,186.5156 1265.7656,186.875 Z " fill="#000000"/><text fill="#000000" font-family="sans-serif" font-size="12" lengthAdjust="spacing" textLength="120" x="1277" y="195.9102">CsvExporterController</text><line style="stroke:#A80036;stroke-width:1.5;" x1="1249" x2="1399" y1="207" y2="207"/><line style="stroke:#A80036;stroke-width:1.5;" x1="1249" x2="1399" y1="215" y2="215"/><!--MD5=[2e42295458bb0bec21c9622a623eb29e]
class Time--><rect codeLine="14" fill="#FEFECE" filter="url(#f4uigqviwugf5)" height="117.1797" id="Time" style="stroke:#A80036;stroke-width:1.5;" width="104" x="1711" y="722.5"/><ellipse cx="1745.8" cy="738.5" fill="#ADD1B2" rx="11" ry="11" style="stroke:#A80036;stroke-width:1.0;"/><path d="M1748.5656,734.375 Q1748.7219,734.1563 1748.9094,734.0469 Q1749.0969,733.9375 1749.3156,733.9375 Q1749.6906,733.9375 1749.925,734.2031 Q1750.1594,734.4531 1750.1594,735.0625 L1750.1594,736.5156 Q1750.1594,737.125 1749.925,737.3906 Q1749.6906,737.6563 1749.3156,737.6563 Q1748.9719,737.6563 1748.7688,737.4531 Q1748.5656,737.2656 1748.4563,736.75 Q1748.4094,736.3906 1748.2219,736.2031 Q1747.8938,735.8281 1747.2844,735.6094 Q1746.675,735.3906 1746.05,735.3906 Q1745.2844,735.3906 1744.6438,735.7188 Q1744.0188,736.0469 1743.5188,736.7969 Q1743.0344,737.5469 1743.0344,738.5781 L1743.0344,739.6719 Q1743.0344,740.9063 1743.925,741.7344 Q1744.8156,742.5469 1746.4094,742.5469 Q1747.3469,742.5469 1748.0031,742.2969 Q1748.3938,742.1406 1748.8156,741.7031 Q1749.0813,741.4375 1749.2219,741.3594 Q1749.3781,741.2813 1749.5813,741.2813 Q1749.9094,741.2813 1750.1594,741.5469 Q1750.425,741.7969 1750.425,742.1406 Q1750.425,742.4844 1750.0813,742.8906 Q1749.5813,743.4688 1748.7844,743.7969 Q1747.7063,744.25 1746.4094,744.25 Q1744.8938,744.25 1743.6906,743.625 Q1742.7063,743.125 1742.0188,742.0625 Q1741.3313,740.9844 1741.3313,739.7031 L1741.3313,738.5469 Q1741.3313,737.2188 1741.9406,736.0781 Q1742.5656,734.9219 1743.6594,734.3125 Q1744.7531,733.6875 1745.9875,733.6875 Q1746.7219,733.6875 1747.3625,733.8594 Q1748.0188,734.0156 1748.5656,734.375 Z " fill="#000000"/><text fill="#000000" font-family="sans-serif" font-size="12" lengthAdjust="spacing" textLength="28" x="1764.2" y="743.4102">Time</text><line style="stroke:#A80036;stroke-width:1.5;" x1="1712" x2="1814" y1="754.5" y2="754.5"/><text fill="#000000" font-family="sans-serif" font-size="11" lengthAdjust="spacing" textLength="43" x="1717" y="769.9189">-hour: int</text><text fill="#000000" font-family="sans-serif" font-size="11" lengthAdjust="spacing" textLength="52" x="1717" y="783.7549">-minute: int</text><line style="stroke:#A80036;stroke-width:1.5;" x1="1712" x2="1814" y1="790.1719" y2="790.1719"/><text fill="#000000" font-family="sans-serif" font-size="11" lengthAdjust="spacing" textLength="92" x="1717" y="805.5908">+Time(hour,minute)</text><text fill="#000000" font-family="sans-serif" font-size="11" lengthAdjust="spacing" textLength="0" x="1720" y="819.4268"/><text fill="#000000" font-family="sans-serif" font-size="11" lengthAdjust="spacing" textLength="55" x="1717" y="833.2627">+Time(time)</text><!--MD5=[2716dd1044068487d604635069912977]
class FullyVaccinatedData--><rect codeLine="28" fill="#FEFECE" filter="url(#f4uigqviwugf5)" height="103.3438" id="FullyVaccinatedData" style="stroke:#A80036;stroke-width:1.5;" width="143" x="1310.5" y="1144"/><ellipse cx="1325.5" cy="1160" fill="#ADD1B2" rx="11" ry="11" style="stroke:#A80036;stroke-width:1.0;"/><path d="M1328.2656,1155.875 Q1328.4219,1155.6563 1328.6094,1155.5469 Q1328.7969,1155.4375 1329.0156,1155.4375 Q1329.3906,1155.4375 1329.625,1155.7031 Q1329.8594,1155.9531 1329.8594,1156.5625 L1329.8594,1158.0156 Q1329.8594,1158.625 1329.625,1158.8906 Q1329.3906,1159.1563 1329.0156,1159.1563 Q1328.6719,1159.1563 1328.4688,1158.9531 Q1328.2656,1158.7656 1328.1563,1158.25 Q1328.1094,1157.8906 1327.9219,1157.7031 Q1327.5938,1157.3281 1326.9844,1157.1094 Q1326.375,1156.8906 1325.75,1156.8906 Q1324.9844,1156.8906 1324.3438,1157.2188 Q1323.7188,1157.5469 1323.2188,1158.2969 Q1322.7344,1159.0469 1322.7344,1160.0781 L1322.7344,1161.1719 Q1322.7344,1162.4063 1323.625,1163.2344 Q1324.5156,1164.0469 1326.1094,1164.0469 Q1327.0469,1164.0469 1327.7031,1163.7969 Q1328.0938,1163.6406 1328.5156,1163.2031 Q1328.7813,1162.9375 1328.9219,1162.8594 Q1329.0781,1162.7813 1329.2813,1162.7813 Q1329.6094,1162.7813 1329.8594,1163.0469 Q1330.125,1163.2969 1330.125,1163.6406 Q1330.125,1163.9844 1329.7813,1164.3906 Q1329.2813,1164.9688 1328.4844,1165.2969 Q1327.4063,1165.75 1326.1094,1165.75 Q1324.5938,1165.75 1323.3906,1165.125 Q1322.4063,1164.625 1321.7188,1163.5625 Q1321.0313,1162.4844 1321.0313,1161.2031 L1321.0313,1160.0469 Q1321.0313,1158.7188 1321.6406,1157.5781 Q1322.2656,1156.4219 1323.3594,1155.8125 Q1324.4531,1155.1875 1325.6875,1155.1875 Q1326.4219,1155.1875 1327.0625,1155.3594 Q1327.7188,1155.5156 1328.2656,1155.875 Z " fill="#000000"/><text fill="#000000" font-family="sans-serif" font-size="12" lengthAdjust="spacing" textLength="111" x="1339.5" y="1164.9102">FullyVaccinatedData</text><line style="stroke:#A80036;stroke-width:1.5;" x1="1311.5" x2="1452.5" y1="1176" y2="1176"/><line style="stroke:#A80036;stroke-width:1.5;" x1="1311.5" x2="1452.5" y1="1184" y2="1184"/><text fill="#000000" font-family="sans-serif" font-size="11" lengthAdjust="spacing" textLength="96" x="1316.5" y="1199.4189">+getVacAdminList()</text><text fill="#000000" font-family="sans-serif" font-size="11" lengthAdjust="spacing" textLength="91" x="1316.5" y="1213.2549">+getSnsUserAge()</text><text fill="#000000" font-family="sans-serif" font-size="11" lengthAdjust="spacing" textLength="69" x="1316.5" y="1227.0908">+getVaccine()</text><text fill="#000000" font-family="sans-serif" font-size="11" lengthAdjust="spacing" textLength="73" x="1316.5" y="1240.9268">+getVacType()</text><!--MD5=[2f5d6e01fe75439dfc07f7d52cf7e59d]
class CsvExporter--><rect codeLine="38" fill="#FEFECE" filter="url(#f4uigqviwugf5)" height="48" id="CsvExporter" style="stroke:#A80036;stroke-width:1.5;" width="98" x="1072" y="973"/><ellipse cx="1087" cy="989" fill="#ADD1B2" rx="11" ry="11" style="stroke:#A80036;stroke-width:1.0;"/><path d="M1089.7656,984.875 Q1089.9219,984.6563 1090.1094,984.5469 Q1090.2969,984.4375 1090.5156,984.4375 Q1090.8906,984.4375 1091.125,984.7031 Q1091.3594,984.9531 1091.3594,985.5625 L1091.3594,987.0156 Q1091.3594,987.625 1091.125,987.8906 Q1090.8906,988.1563 1090.5156,988.1563 Q1090.1719,988.1563 1089.9688,987.9531 Q1089.7656,987.7656 1089.6563,987.25 Q1089.6094,986.8906 1089.4219,986.7031 Q1089.0938,986.3281 1088.4844,986.1094 Q1087.875,985.8906 1087.25,985.8906 Q1086.4844,985.8906 1085.8438,986.2188 Q1085.2188,986.5469 1084.7188,987.2969 Q1084.2344,988.0469 1084.2344,989.0781 L1084.2344,990.1719 Q1084.2344,991.4063 1085.125,992.2344 Q1086.0156,993.0469 1087.6094,993.0469 Q1088.5469,993.0469 1089.2031,992.7969 Q1089.5938,992.6406 1090.0156,992.2031 Q1090.2813,991.9375 1090.4219,991.8594 Q1090.5781,991.7813 1090.7813,991.7813 Q1091.1094,991.7813 1091.3594,992.0469 Q1091.625,992.2969 1091.625,992.6406 Q1091.625,992.9844 1091.2813,993.3906 Q1090.7813,993.9688 1089.9844,994.2969 Q1088.9063,994.75 1087.6094,994.75 Q1086.0938,994.75 1084.8906,994.125 Q1083.9063,993.625 1083.2188,992.5625 Q1082.5313,991.4844 1082.5313,990.2031 L1082.5313,989.0469 Q1082.5313,987.7188 1083.1406,986.5781 Q1083.7656,985.4219 1084.8594,984.8125 Q1085.9531,984.1875 1087.1875,984.1875 Q1087.9219,984.1875 1088.5625,984.3594 Q1089.2188,984.5156 1089.7656,984.875 Z " fill="#000000"/><text fill="#000000" font-family="sans-serif" font-size="12" lengthAdjust="spacing" textLength="66" x="1101" y="993.9102">CsvExporter</text><line style="stroke:#A80036;stroke-width:1.5;" x1="1073" x2="1169" y1="1005" y2="1005"/><line style="stroke:#A80036;stroke-width:1.5;" x1="1073" x2="1169" y1="1013" y2="1013"/><!--MD5=[107cfa23aa516ff83d0cf17a6f9fe7ba]
class VaccineAdministration--><rect codeLine="40" fill="#FEFECE" filter="url(#f4uigqviwugf5)" height="117.1797" id="VaccineAdministration" style="stroke:#A80036;stroke-width:1.5;" width="154" x="374" y="444.5"/><ellipse cx="389" cy="460.5" fill="#ADD1B2" rx="11" ry="11" style="stroke:#A80036;stroke-width:1.0;"/><path d="M391.7656,456.375 Q391.9219,456.1563 392.1094,456.0469 Q392.2969,455.9375 392.5156,455.9375 Q392.8906,455.9375 393.125,456.2031 Q393.3594,456.4531 393.3594,457.0625 L393.3594,458.5156 Q393.3594,459.125 393.125,459.3906 Q392.8906,459.6563 392.5156,459.6563 Q392.1719,459.6563 391.9688,459.4531 Q391.7656,459.2656 391.6563,458.75 Q391.6094,458.3906 391.4219,458.2031 Q391.0938,457.8281 390.4844,457.6094 Q389.875,457.3906 389.25,457.3906 Q388.4844,457.3906 387.8438,457.7188 Q387.2188,458.0469 386.7188,458.7969 Q386.2344,459.5469 386.2344,460.5781 L386.2344,461.6719 Q386.2344,462.9063 387.125,463.7344 Q388.0156,464.5469 389.6094,464.5469 Q390.5469,464.5469 391.2031,464.2969 Q391.5938,464.1406 392.0156,463.7031 Q392.2813,463.4375 392.4219,463.3594 Q392.5781,463.2813 392.7813,463.2813 Q393.1094,463.2813 393.3594,463.5469 Q393.625,463.7969 393.625,464.1406 Q393.625,464.4844 393.2813,464.8906 Q392.7813,465.4688 391.9844,465.7969 Q390.9063,466.25 389.6094,466.25 Q388.0938,466.25 386.8906,465.625 Q385.9063,465.125 385.2188,464.0625 Q384.5313,462.9844 384.5313,461.7031 L384.5313,460.5469 Q384.5313,459.2188 385.1406,458.0781 Q385.7656,456.9219 386.8594,456.3125 Q387.9531,455.6875 389.1875,455.6875 Q389.9219,455.6875 390.5625,455.8594 Q391.2188,456.0156 391.7656,456.375 Z " fill="#000000"/><text fill="#000000" font-family="sans-serif" font-size="12" lengthAdjust="spacing" textLength="122" x="403" y="465.4102">VaccineAdministration</text><line style="stroke:#A80036;stroke-width:1.5;" x1="375" x2="527" y1="476.5" y2="476.5"/><text fill="#000000" font-family="sans-serif" font-size="11" lengthAdjust="spacing" textLength="95" x="380" y="491.9189">-snsUser: SNSUser</text><text fill="#000000" font-family="sans-serif" font-size="11" lengthAdjust="spacing" textLength="88" x="380" y="505.7549">-vaccine: Vaccine</text><text fill="#000000" font-family="sans-serif" font-size="11" lengthAdjust="spacing" textLength="45" x="380" y="519.5908">-dose: int</text><text fill="#000000" font-family="sans-serif" font-size="11" lengthAdjust="spacing" textLength="86" x="380" y="533.4268">-lotNumber: String</text><text fill="#000000" font-family="sans-serif" font-size="11" lengthAdjust="spacing" textLength="52" x="380" y="547.2627">-date: date</text><line style="stroke:#A80036;stroke-width:1.5;" x1="375" x2="527" y1="553.6797" y2="553.6797"/><!--MD5=[02e4b9b7573f1156f41e60aa5b4e25a4]
class Company--><rect codeLine="48" fill="#FEFECE" filter="url(#f4uigqviwugf5)" height="61.8359" id="Company" style="stroke:#A80036;stroke-width:1.5;" width="97" x="1275.5" y="472"/><ellipse cx="1295.9" cy="488" fill="#ADD1B2" rx="11" ry="11" style="stroke:#A80036;stroke-width:1.0;"/><path d="M1298.6656,483.875 Q1298.8219,483.6563 1299.0094,483.5469 Q1299.1969,483.4375 1299.4156,483.4375 Q1299.7906,483.4375 1300.025,483.7031 Q1300.2594,483.9531 1300.2594,484.5625 L1300.2594,486.0156 Q1300.2594,486.625 1300.025,486.8906 Q1299.7906,487.1563 1299.4156,487.1563 Q1299.0719,487.1563 1298.8688,486.9531 Q1298.6656,486.7656 1298.5563,486.25 Q1298.5094,485.8906 1298.3219,485.7031 Q1297.9938,485.3281 1297.3844,485.1094 Q1296.775,484.8906 1296.15,484.8906 Q1295.3844,484.8906 1294.7438,485.2188 Q1294.1188,485.5469 1293.6188,486.2969 Q1293.1344,487.0469 1293.1344,488.0781 L1293.1344,489.1719 Q1293.1344,490.4063 1294.025,491.2344 Q1294.9156,492.0469 1296.5094,492.0469 Q1297.4469,492.0469 1298.1031,491.7969 Q1298.4938,491.6406 1298.9156,491.2031 Q1299.1813,490.9375 1299.3219,490.8594 Q1299.4781,490.7813 1299.6813,490.7813 Q1300.0094,490.7813 1300.2594,491.0469 Q1300.525,491.2969 1300.525,491.6406 Q1300.525,491.9844 1300.1813,492.3906 Q1299.6813,492.9688 1298.8844,493.2969 Q1297.8063,493.75 1296.5094,493.75 Q1294.9938,493.75 1293.7906,493.125 Q1292.8063,492.625 1292.1188,491.5625 Q1291.4313,490.4844 1291.4313,489.2031 L1291.4313,488.0469 Q1291.4313,486.7188 1292.0406,485.5781 Q1292.6656,484.4219 1293.7594,483.8125 Q1294.8531,483.1875 1296.0875,483.1875 Q1296.8219,483.1875 1297.4625,483.3594 Q1298.1188,483.5156 1298.6656,483.875 Z " fill="#000000"/><text fill="#000000" font-family="sans-serif" font-size="12" lengthAdjust="spacing" textLength="53" x="1311.1" y="492.9102">Company</text><line style="stroke:#A80036;stroke-width:1.5;" x1="1276.5" x2="1371.5" y1="504" y2="504"/><line style="stroke:#A80036;stroke-width:1.5;" x1="1276.5" x2="1371.5" y1="512" y2="512"/><text fill="#000000" font-family="sans-serif" font-size="11" lengthAdjust="spacing" textLength="85" x="1281.5" y="527.4189">+getDesignation()</text><!--MD5=[de60e6d4f424ae4d0522096f76a59010]
class VaccinationCenter--><rect codeLine="52" fill="#FEFECE" filter="url(#f4uigqviwugf5)" height="214.0313" id="VaccinationCenter" style="stroke:#A80036;stroke-width:1.5;" width="677" x="563.5" y="396"/><ellipse cx="847.75" cy="412" fill="#ADD1B2" rx="11" ry="11" style="stroke:#A80036;stroke-width:1.0;"/><path d="M850.5156,407.875 Q850.6719,407.6563 850.8594,407.5469 Q851.0469,407.4375 851.2656,407.4375 Q851.6406,407.4375 851.875,407.7031 Q852.1094,407.9531 852.1094,408.5625 L852.1094,410.0156 Q852.1094,410.625 851.875,410.8906 Q851.6406,411.1563 851.2656,411.1563 Q850.9219,411.1563 850.7188,410.9531 Q850.5156,410.7656 850.4063,410.25 Q850.3594,409.8906 850.1719,409.7031 Q849.8438,409.3281 849.2344,409.1094 Q848.625,408.8906 848,408.8906 Q847.2344,408.8906 846.5938,409.2188 Q845.9688,409.5469 845.4688,410.2969 Q844.9844,411.0469 844.9844,412.0781 L844.9844,413.1719 Q844.9844,414.4063 845.875,415.2344 Q846.7656,416.0469 848.3594,416.0469 Q849.2969,416.0469 849.9531,415.7969 Q850.3438,415.6406 850.7656,415.2031 Q851.0313,414.9375 851.1719,414.8594 Q851.3281,414.7813 851.5313,414.7813 Q851.8594,414.7813 852.1094,415.0469 Q852.375,415.2969 852.375,415.6406 Q852.375,415.9844 852.0313,416.3906 Q851.5313,416.9688 850.7344,417.2969 Q849.6563,417.75 848.3594,417.75 Q846.8438,417.75 845.6406,417.125 Q844.6563,416.625 843.9688,415.5625 Q843.2813,414.4844 843.2813,413.2031 L843.2813,412.0469 Q843.2813,410.7188 843.8906,409.5781 Q844.5156,408.4219 845.6094,407.8125 Q846.7031,407.1875 847.9375,407.1875 Q848.6719,407.1875 849.3125,407.3594 Q849.9688,407.5156 850.5156,407.875 Z " fill="#000000"/><text fill="#000000" font-family="sans-serif" font-size="12" lengthAdjust="spacing" textLength="100" x="868.25" y="416.9102">VaccinationCenter</text><line style="stroke:#A80036;stroke-width:1.5;" x1="564.5" x2="1239.5" y1="428" y2="428"/><text fill="#000000" font-family="sans-serif" font-size="11" lengthAdjust="spacing" textLength="64" x="569.5" y="443.4189">-name: String</text><text fill="#000000" font-family="sans-serif" font-size="11" lengthAdjust="spacing" textLength="78" x="569.5" y="457.2549">-address: String</text><text fill="#000000" font-family="sans-serif" font-size="11" lengthAdjust="spacing" textLength="104" x="569.5" y="471.0908">-emailAddress: String</text><text fill="#000000" font-family="sans-serif" font-size="11" lengthAdjust="spacing" textLength="105" x="569.5" y="484.9268">-phoneNumber: String</text><text fill="#000000" font-family="sans-serif" font-size="11" lengthAdjust="spacing" textLength="91" x="569.5" y="498.7627">-faxNumber: String</text><text fill="#000000" font-family="sans-serif" font-size="11" lengthAdjust="spacing" textLength="119" x="569.5" y="512.5986">-websiteAddress: String</text><text fill="#000000" font-family="sans-serif" font-size="11" lengthAdjust="spacing" textLength="105" x="569.5" y="526.4346">-openingHours: String</text><text fill="#000000" font-family="sans-serif" font-size="11" lengthAdjust="spacing" textLength="101" x="569.5" y="540.2705">-closingHours: String</text><text fill="#000000" font-family="sans-serif" font-size="11" lengthAdjust="spacing" textLength="78" x="569.5" y="554.1064">-slotDuration: int</text><text fill="#000000" font-family="sans-serif" font-size="11" lengthAdjust="spacing" textLength="145" x="569.5" y="567.9424">-maximumVaccinesPerSlot: int</text><text fill="#000000" font-family="sans-serif" font-size="11" lengthAdjust="spacing" textLength="59" x="569.5" y="581.7783">-coordinator</text><line style="stroke:#A80036;stroke-width:1.5;" x1="564.5" x2="1239.5" y1="588.1953" y2="588.1953"/><text fill="#000000" font-family="sans-serif" font-size="11" lengthAdjust="spacing" textLength="665" x="569.5" y="603.6143">+VaccinationCenter(name,address,emailAddress,phoneNumber,faxNumber,websiteAddress,openingHours,closingHours,slot,coordinator)</text><!--MD5=[7421f545a0d8420c5bec41e74b387d9c]
class Employee--><rect codeLine="69" fill="#FEFECE" filter="url(#f4uigqviwugf5)" height="158.6875" id="Employee" style="stroke:#A80036;stroke-width:1.5;" width="324" x="828" y="701.5"/><ellipse cx="958.25" cy="717.5" fill="#ADD1B2" rx="11" ry="11" style="stroke:#A80036;stroke-width:1.0;"/><path d="M961.0156,713.375 Q961.1719,713.1563 961.3594,713.0469 Q961.5469,712.9375 961.7656,712.9375 Q962.1406,712.9375 962.375,713.2031 Q962.6094,713.4531 962.6094,714.0625 L962.6094,715.5156 Q962.6094,716.125 962.375,716.3906 Q962.1406,716.6563 961.7656,716.6563 Q961.4219,716.6563 961.2188,716.4531 Q961.0156,716.2656 960.9063,715.75 Q960.8594,715.3906 960.6719,715.2031 Q960.3438,714.8281 959.7344,714.6094 Q959.125,714.3906 958.5,714.3906 Q957.7344,714.3906 957.0938,714.7188 Q956.4688,715.0469 955.9688,715.7969 Q955.4844,716.5469 955.4844,717.5781 L955.4844,718.6719 Q955.4844,719.9063 956.375,720.7344 Q957.2656,721.5469 958.8594,721.5469 Q959.7969,721.5469 960.4531,721.2969 Q960.8438,721.1406 961.2656,720.7031 Q961.5313,720.4375 961.6719,720.3594 Q961.8281,720.2813 962.0313,720.2813 Q962.3594,720.2813 962.6094,720.5469 Q962.875,720.7969 962.875,721.1406 Q962.875,721.4844 962.5313,721.8906 Q962.0313,722.4688 961.2344,722.7969 Q960.1563,723.25 958.8594,723.25 Q957.3438,723.25 956.1406,722.625 Q955.1563,722.125 954.4688,721.0625 Q953.7813,719.9844 953.7813,718.7031 L953.7813,717.5469 Q953.7813,716.2188 954.3906,715.0781 Q955.0156,713.9219 956.1094,713.3125 Q957.2031,712.6875 958.4375,712.6875 Q959.1719,712.6875 959.8125,712.8594 Q960.4688,713.0156 961.0156,713.375 Z " fill="#000000"/><text fill="#000000" font-family="sans-serif" font-size="12" lengthAdjust="spacing" textLength="55" x="978.75" y="722.4102">Employee</text><line style="stroke:#A80036;stroke-width:1.5;" x1="829" x2="1151" y1="733.5" y2="733.5"/><text fill="#000000" font-family="sans-serif" font-size="11" lengthAdjust="spacing" textLength="46" x="834" y="748.9189">-id: String</text><text fill="#000000" font-family="sans-serif" font-size="11" lengthAdjust="spacing" textLength="64" x="834" y="762.7549">-name: String</text><text fill="#000000" font-family="sans-serif" font-size="11" lengthAdjust="spacing" textLength="62" x="834" y="776.5908">-email: String</text><text fill="#000000" font-family="sans-serif" font-size="11" lengthAdjust="spacing" textLength="68" x="834" y="790.4268">-phone: String</text><text fill="#000000" font-family="sans-serif" font-size="11" lengthAdjust="spacing" textLength="78" x="834" y="804.2627">-address: String</text><text fill="#000000" font-family="sans-serif" font-size="11" lengthAdjust="spacing" textLength="112" x="834" y="818.0986">-citizenCardNumber: int</text><text fill="#000000" font-family="sans-serif" font-size="11" lengthAdjust="spacing" textLength="64" x="834" y="831.9346">-roleId: String</text><line style="stroke:#A80036;stroke-width:1.5;" x1="829" x2="1151" y1="838.3516" y2="838.3516"/><text fill="#000000" font-family="sans-serif" font-size="11" lengthAdjust="spacing" textLength="312" x="834" y="853.7705">+Employee(name,email,phone,address,citizenCardNumber,roleId)</text><!--MD5=[45c6380d22fb72521f5065026b277fb9]
class Slot--><rect codeLine="81" fill="#FEFECE" filter="url(#f4uigqviwugf5)" height="89.5078" id="Slot" style="stroke:#A80036;stroke-width:1.5;" width="186" x="1187" y="736"/><ellipse cx="1265.25" cy="752" fill="#ADD1B2" rx="11" ry="11" style="stroke:#A80036;stroke-width:1.0;"/><path d="M1268.0156,747.875 Q1268.1719,747.6563 1268.3594,747.5469 Q1268.5469,747.4375 1268.7656,747.4375 Q1269.1406,747.4375 1269.375,747.7031 Q1269.6094,747.9531 1269.6094,748.5625 L1269.6094,750.0156 Q1269.6094,750.625 1269.375,750.8906 Q1269.1406,751.1563 1268.7656,751.1563 Q1268.4219,751.1563 1268.2188,750.9531 Q1268.0156,750.7656 1267.9063,750.25 Q1267.8594,749.8906 1267.6719,749.7031 Q1267.3438,749.3281 1266.7344,749.1094 Q1266.125,748.8906 1265.5,748.8906 Q1264.7344,748.8906 1264.0938,749.2188 Q1263.4688,749.5469 1262.9688,750.2969 Q1262.4844,751.0469 1262.4844,752.0781 L1262.4844,753.1719 Q1262.4844,754.4063 1263.375,755.2344 Q1264.2656,756.0469 1265.8594,756.0469 Q1266.7969,756.0469 1267.4531,755.7969 Q1267.8438,755.6406 1268.2656,755.2031 Q1268.5313,754.9375 1268.6719,754.8594 Q1268.8281,754.7813 1269.0313,754.7813 Q1269.3594,754.7813 1269.6094,755.0469 Q1269.875,755.2969 1269.875,755.6406 Q1269.875,755.9844 1269.5313,756.3906 Q1269.0313,756.9688 1268.2344,757.2969 Q1267.1563,757.75 1265.8594,757.75 Q1264.3438,757.75 1263.1406,757.125 Q1262.1563,756.625 1261.4688,755.5625 Q1260.7813,754.4844 1260.7813,753.2031 L1260.7813,752.0469 Q1260.7813,750.7188 1261.3906,749.5781 Q1262.0156,748.4219 1263.1094,747.8125 Q1264.2031,747.1875 1265.4375,747.1875 Q1266.1719,747.1875 1266.8125,747.3594 Q1267.4688,747.5156 1268.0156,747.875 Z " fill="#000000"/><text fill="#000000" font-family="sans-serif" font-size="12" lengthAdjust="spacing" textLength="21" x="1285.75" y="756.9102">Slot</text><line style="stroke:#A80036;stroke-width:1.5;" x1="1188" x2="1372" y1="768" y2="768"/><text fill="#000000" font-family="sans-serif" font-size="11" lengthAdjust="spacing" textLength="60" x="1193" y="783.4189">-duration: int</text><text fill="#000000" font-family="sans-serif" font-size="11" lengthAdjust="spacing" textLength="121" x="1193" y="797.2549">-maxVaccinesPerSlot: int</text><line style="stroke:#A80036;stroke-width:1.5;" x1="1188" x2="1372" y1="803.6719" y2="803.6719"/><text fill="#000000" font-family="sans-serif" font-size="11" lengthAdjust="spacing" textLength="174" x="1193" y="819.0908">+Slot(duration,maxVaccinesPerSlot)</text><!--MD5=[19e445fc4d3b48519cbe33da05496394]
class Vaccine--><rect codeLine="88" fill="#FEFECE" filter="url(#f4uigqviwugf5)" height="117.1797" id="Vaccine" style="stroke:#A80036;stroke-width:1.5;" width="225" x="80.5" y="722.5"/><ellipse cx="167.25" cy="738.5" fill="#ADD1B2" rx="11" ry="11" style="stroke:#A80036;stroke-width:1.0;"/><path d="M170.0156,734.375 Q170.1719,734.1563 170.3594,734.0469 Q170.5469,733.9375 170.7656,733.9375 Q171.1406,733.9375 171.375,734.2031 Q171.6094,734.4531 171.6094,735.0625 L171.6094,736.5156 Q171.6094,737.125 171.375,737.3906 Q171.1406,737.6563 170.7656,737.6563 Q170.4219,737.6563 170.2188,737.4531 Q170.0156,737.2656 169.9063,736.75 Q169.8594,736.3906 169.6719,736.2031 Q169.3438,735.8281 168.7344,735.6094 Q168.125,735.3906 167.5,735.3906 Q166.7344,735.3906 166.0938,735.7188 Q165.4688,736.0469 164.9688,736.7969 Q164.4844,737.5469 164.4844,738.5781 L164.4844,739.6719 Q164.4844,740.9063 165.375,741.7344 Q166.2656,742.5469 167.8594,742.5469 Q168.7969,742.5469 169.4531,742.2969 Q169.8438,742.1406 170.2656,741.7031 Q170.5313,741.4375 170.6719,741.3594 Q170.8281,741.2813 171.0313,741.2813 Q171.3594,741.2813 171.6094,741.5469 Q171.875,741.7969 171.875,742.1406 Q171.875,742.4844 171.5313,742.8906 Q171.0313,743.4688 170.2344,743.7969 Q169.1563,744.25 167.8594,744.25 Q166.3438,744.25 165.1406,743.625 Q164.1563,743.125 163.4688,742.0625 Q162.7813,740.9844 162.7813,739.7031 L162.7813,738.5469 Q162.7813,737.2188 163.3906,736.0781 Q164.0156,734.9219 165.1094,734.3125 Q166.2031,733.6875 167.4375,733.6875 Q168.1719,733.6875 168.8125,733.8594 Q169.4688,734.0156 170.0156,734.375 Z " fill="#000000"/><text fill="#000000" font-family="sans-serif" font-size="12" lengthAdjust="spacing" textLength="43" x="187.75" y="743.4102">Vaccine</text><line style="stroke:#A80036;stroke-width:1.5;" x1="81.5" x2="304.5" y1="754.5" y2="754.5"/><text fill="#000000" font-family="sans-serif" font-size="11" lengthAdjust="spacing" textLength="96" x="86.5" y="769.9189">-designation : String</text><text fill="#000000" font-family="sans-serif" font-size="11" lengthAdjust="spacing" textLength="69" x="86.5" y="783.7549">-brand : String</text><text fill="#000000" font-family="sans-serif" font-size="11" lengthAdjust="spacing" textLength="49" x="86.5" y="797.5908">-id : String</text><text fill="#000000" font-family="sans-serif" font-size="11" lengthAdjust="spacing" textLength="119" x="86.5" y="811.4268">-vacType : VaccineType</text><line style="stroke:#A80036;stroke-width:1.5;" x1="81.5" x2="304.5" y1="817.8438" y2="817.8438"/><text fill="#000000" font-family="sans-serif" font-size="11" lengthAdjust="spacing" textLength="213" x="86.5" y="833.2627">+Vaccine(designation, id, brand, vacTypeId)</text><!--MD5=[0e501da62322464167c8ec4d233a6b7e]
class VaccineType--><rect codeLine="97" fill="#FEFECE" filter="url(#f4uigqviwugf5)" height="89.5078" id="VaccineType" style="stroke:#A80036;stroke-width:1.5;" width="101" x="142.5" y="952"/><ellipse cx="157.5" cy="968" fill="#ADD1B2" rx="11" ry="11" style="stroke:#A80036;stroke-width:1.0;"/><path d="M160.2656,963.875 Q160.4219,963.6563 160.6094,963.5469 Q160.7969,963.4375 161.0156,963.4375 Q161.3906,963.4375 161.625,963.7031 Q161.8594,963.9531 161.8594,964.5625 L161.8594,966.0156 Q161.8594,966.625 161.625,966.8906 Q161.3906,967.1563 161.0156,967.1563 Q160.6719,967.1563 160.4688,966.9531 Q160.2656,966.7656 160.1563,966.25 Q160.1094,965.8906 159.9219,965.7031 Q159.5938,965.3281 158.9844,965.1094 Q158.375,964.8906 157.75,964.8906 Q156.9844,964.8906 156.3438,965.2188 Q155.7188,965.5469 155.2188,966.2969 Q154.7344,967.0469 154.7344,968.0781 L154.7344,969.1719 Q154.7344,970.4063 155.625,971.2344 Q156.5156,972.0469 158.1094,972.0469 Q159.0469,972.0469 159.7031,971.7969 Q160.0938,971.6406 160.5156,971.2031 Q160.7813,970.9375 160.9219,970.8594 Q161.0781,970.7813 161.2813,970.7813 Q161.6094,970.7813 161.8594,971.0469 Q162.125,971.2969 162.125,971.6406 Q162.125,971.9844 161.7813,972.3906 Q161.2813,972.9688 160.4844,973.2969 Q159.4063,973.75 158.1094,973.75 Q156.5938,973.75 155.3906,973.125 Q154.4063,972.625 153.7188,971.5625 Q153.0313,970.4844 153.0313,969.2031 L153.0313,968.0469 Q153.0313,966.7188 153.6406,965.5781 Q154.2656,964.4219 155.3594,963.8125 Q156.4531,963.1875 157.6875,963.1875 Q158.4219,963.1875 159.0625,963.3594 Q159.7188,963.5156 160.2656,963.875 Z " fill="#000000"/><text fill="#000000" font-family="sans-serif" font-size="12" lengthAdjust="spacing" textLength="69" x="171.5" y="972.9102">VaccineType</text><line style="stroke:#A80036;stroke-width:1.5;" x1="143.5" x2="242.5" y1="984" y2="984"/><text fill="#000000" font-family="sans-serif" font-size="11" lengthAdjust="spacing" textLength="28" x="148.5" y="999.4189">-code</text><text fill="#000000" font-family="sans-serif" font-size="11" lengthAdjust="spacing" textLength="59" x="148.5" y="1013.2549">-designation</text><text fill="#000000" font-family="sans-serif" font-size="11" lengthAdjust="spacing" textLength="57" x="148.5" y="1027.0908">-technology</text><line style="stroke:#A80036;stroke-width:1.5;" x1="143.5" x2="242.5" y1="1033.5078" y2="1033.5078"/><!--MD5=[72be06cc7ae02ccc98efe28a50e62246]
class SNSUser--><rect codeLine="103" fill="#FEFECE" filter="url(#f4uigqviwugf5)" height="186.3594" id="SNSUser" style="stroke:#A80036;stroke-width:1.5;" width="452" x="341" y="688"/><ellipse cx="536.75" cy="704" fill="#ADD1B2" rx="11" ry="11" style="stroke:#A80036;stroke-width:1.0;"/><path d="M539.5156,699.875 Q539.6719,699.6563 539.8594,699.5469 Q540.0469,699.4375 540.2656,699.4375 Q540.6406,699.4375 540.875,699.7031 Q541.1094,699.9531 541.1094,700.5625 L541.1094,702.0156 Q541.1094,702.625 540.875,702.8906 Q540.6406,703.1563 540.2656,703.1563 Q539.9219,703.1563 539.7188,702.9531 Q539.5156,702.7656 539.4063,702.25 Q539.3594,701.8906 539.1719,701.7031 Q538.8438,701.3281 538.2344,701.1094 Q537.625,700.8906 537,700.8906 Q536.2344,700.8906 535.5938,701.2188 Q534.9688,701.5469 534.4688,702.2969 Q533.9844,703.0469 533.9844,704.0781 L533.9844,705.1719 Q533.9844,706.4063 534.875,707.2344 Q535.7656,708.0469 537.3594,708.0469 Q538.2969,708.0469 538.9531,707.7969 Q539.3438,707.6406 539.7656,707.2031 Q540.0313,706.9375 540.1719,706.8594 Q540.3281,706.7813 540.5313,706.7813 Q540.8594,706.7813 541.1094,707.0469 Q541.375,707.2969 541.375,707.6406 Q541.375,707.9844 541.0313,708.3906 Q540.5313,708.9688 539.7344,709.2969 Q538.6563,709.75 537.3594,709.75 Q535.8438,709.75 534.6406,709.125 Q533.6563,708.625 532.9688,707.5625 Q532.2813,706.4844 532.2813,705.2031 L532.2813,704.0469 Q532.2813,702.7188 532.8906,701.5781 Q533.5156,700.4219 534.6094,699.8125 Q535.7031,699.1875 536.9375,699.1875 Q537.6719,699.1875 538.3125,699.3594 Q538.9688,699.5156 539.5156,699.875 Z " fill="#000000"/><text fill="#000000" font-family="sans-serif" font-size="12" lengthAdjust="spacing" textLength="52" x="557.25" y="708.9102">SNSUser</text><line style="stroke:#A80036;stroke-width:1.5;" x1="342" x2="792" y1="720" y2="720"/><text fill="#000000" font-family="sans-serif" font-size="11" lengthAdjust="spacing" textLength="92" x="347" y="735.4189">-citizenCard: String</text><text fill="#000000" font-family="sans-serif" font-size="11" lengthAdjust="spacing" textLength="93" x="347" y="749.2549">-snsNumber: String</text><text fill="#000000" font-family="sans-serif" font-size="11" lengthAdjust="spacing" textLength="64" x="347" y="763.0908">-name: String</text><text fill="#000000" font-family="sans-serif" font-size="11" lengthAdjust="spacing" textLength="93" x="347" y="776.9268">-birthDay: Calendar</text><text fill="#000000" font-family="sans-serif" font-size="11" lengthAdjust="spacing" textLength="72" x="347" y="790.7627">-gender: String</text><text fill="#000000" font-family="sans-serif" font-size="11" lengthAdjust="spacing" textLength="105" x="347" y="804.5986">-phoneNumber: String</text><text fill="#000000" font-family="sans-serif" font-size="11" lengthAdjust="spacing" textLength="62" x="347" y="818.4346">-email: String</text><text fill="#000000" font-family="sans-serif" font-size="11" lengthAdjust="spacing" textLength="78" x="347" y="832.2705">-address: String</text><text fill="#000000" font-family="sans-serif" font-size="11" lengthAdjust="spacing" textLength="162" x="347" y="846.1064">-userHealthData : UserHealthData</text><line style="stroke:#A80036;stroke-width:1.5;" x1="342" x2="792" y1="852.5234" y2="852.5234"/><text fill="#000000" font-family="sans-serif" font-size="11" lengthAdjust="spacing" textLength="440" x="347" y="867.9424">+SNSUser(citizenCard, snsNumber, name, birthDay, gender, phoneNumber, email, address)</text><!--MD5=[a29876ea2f21a6ca48ea477740122fd8]
class VaccinationCenterStore--><rect codeLine="120" fill="#FEFECE" filter="url(#f4uigqviwugf5)" height="48" id="VaccinationCenterStore" style="stroke:#A80036;stroke-width:1.5;" width="161" x="1445.5" y="757"/><ellipse cx="1460.5" cy="773" fill="#ADD1B2" rx="11" ry="11" style="stroke:#A80036;stroke-width:1.0;"/><path d="M1463.2656,768.875 Q1463.4219,768.6563 1463.6094,768.5469 Q1463.7969,768.4375 1464.0156,768.4375 Q1464.3906,768.4375 1464.625,768.7031 Q1464.8594,768.9531 1464.8594,769.5625 L1464.8594,771.0156 Q1464.8594,771.625 1464.625,771.8906 Q1464.3906,772.1563 1464.0156,772.1563 Q1463.6719,772.1563 1463.4688,771.9531 Q1463.2656,771.7656 1463.1563,771.25 Q1463.1094,770.8906 1462.9219,770.7031 Q1462.5938,770.3281 1461.9844,770.1094 Q1461.375,769.8906 1460.75,769.8906 Q1459.9844,769.8906 1459.3438,770.2188 Q1458.7188,770.5469 1458.2188,771.2969 Q1457.7344,772.0469 1457.7344,773.0781 L1457.7344,774.1719 Q1457.7344,775.4063 1458.625,776.2344 Q1459.5156,777.0469 1461.1094,777.0469 Q1462.0469,777.0469 1462.7031,776.7969 Q1463.0938,776.6406 1463.5156,776.2031 Q1463.7813,775.9375 1463.9219,775.8594 Q1464.0781,775.7813 1464.2813,775.7813 Q1464.6094,775.7813 1464.8594,776.0469 Q1465.125,776.2969 1465.125,776.6406 Q1465.125,776.9844 1464.7813,777.3906 Q1464.2813,777.9688 1463.4844,778.2969 Q1462.4063,778.75 1461.1094,778.75 Q1459.5938,778.75 1458.3906,778.125 Q1457.4063,777.625 1456.7188,776.5625 Q1456.0313,775.4844 1456.0313,774.2031 L1456.0313,773.0469 Q1456.0313,771.7188 1456.6406,770.5781 Q1457.2656,769.4219 1458.3594,768.8125 Q1459.4531,768.1875 1460.6875,768.1875 Q1461.4219,768.1875 1462.0625,768.3594 Q1462.7188,768.5156 1463.2656,768.875 Z " fill="#000000"/><text fill="#000000" font-family="sans-serif" font-size="12" lengthAdjust="spacing" textLength="129" x="1474.5" y="777.9102">VaccinationCenterStore</text><line style="stroke:#A80036;stroke-width:1.5;" x1="1446.5" x2="1605.5" y1="789" y2="789"/><line style="stroke:#A80036;stroke-width:1.5;" x1="1446.5" x2="1605.5" y1="797" y2="797"/><!--MD5=[8438a6525e793a4c70cc1dd20fee145d]
link CsvExporterUI to CsvExporterController--><path codeLine="128" d="M1324,90.12 C1324,112.24 1324,145.68 1324,169.45 " fill="none" id="CsvExporterUI-to-CsvExporterController" style="stroke:#A80036;stroke-width:1.0;stroke-dasharray:7.0,7.0;"/><polygon fill="#A80036" points="1324,174.67,1328,165.67,1324,169.67,1320,165.67,1324,174.67" style="stroke:#A80036;stroke-width:1.0;"/><!--MD5=[a56ac81996f1edac0737708c0e4fdcc1]
link CsvExporterController to Company--><path codeLine="130" d="M1324,223.2 C1324,275.72 1324,404.04 1324,466.58 " fill="none" id="CsvExporterController-to-Company" style="stroke:#A80036;stroke-width:1.0;stroke-dasharray:7.0,7.0;"/><polygon fill="#A80036" points="1324,471.69,1328,462.69,1324,466.69,1320,462.69,1324,471.69" style="stroke:#A80036;stroke-width:1.0;"/><!--MD5=[bc0d5b4bfe6e1bf0a8fced13bc4bdd47]
link Company to VaccinationCenterStore--><path codeLine="132" d="M1372.71,527.83 C1414.01,550.71 1471.3,589.26 1502,640 C1524.08,676.5 1527.28,727.6 1527.03,756.9 " fill="none" id="Company-VaccinationCenterStore" style="stroke:#A80036;stroke-width:1.0;"/><polygon fill="#000000" points="1517.7936,653.3226,1515.1773,644.1789,1510.3025,647.463,1517.7936,653.3226" style="stroke:#000000;stroke-width:1.0;"/><text fill="#000000" font-family="sans-serif" font-size="13" lengthAdjust="spacing" textLength="37" x="1524" y="654.4951">knows</text><text fill="#000000" font-family="sans-serif" font-size="13" lengthAdjust="spacing" textLength="7" x="1380.3783" y="527.8349">1</text><text fill="#000000" font-family="sans-serif" font-size="13" lengthAdjust="spacing" textLength="7" x="1519.3971" y="746.2145">1</text><!--MD5=[db5fb34fd733ab3677281d60b785e712]
reverse link VaccinationCenter to Employee--><path codeLine="134" d="M939.88,622.81 C948.33,649.31 957.08,676.76 964.87,701.17 " fill="none" id="VaccinationCenter-backto-Employee" style="stroke:#A80036;stroke-width:1.0;"/><polygon fill="#FFFFFF" points="935.9,610.31,933.9085,617.2407,939.5401,621.7446,941.5316,614.8139,935.9,610.31" style="stroke:#A80036;stroke-width:1.0;"/><!--MD5=[91079b08053e6fc6d0a3af85820ed36a]
reverse link VaccinationCenter to Time--><path codeLine="135" d="M1253.72,609.16 C1255.15,609.44 1256.58,609.72 1258,610 C1394.73,636.67 1439.71,590.7 1570,640 C1622.85,660 1674.21,698.47 1710.64,730.03 " fill="none" id="VaccinationCenter-backto-Time" style="stroke:#A80036;stroke-width:1.0;"/><polygon fill="#FFFFFF" points="1240.8,606.51,1245.8792,611.6288,1252.5578,608.909,1247.4785,603.7903,1240.8,606.51" style="stroke:#A80036;stroke-width:1.0;"/><!--MD5=[99cf60c71dc20007695665c9ea3c4eb1]
reverse link VaccinationCenter to Slot--><path codeLine="136" d="M1085.44,617.55 C1114.31,637.09 1143.38,657.79 1170,678.5 C1192.66,696.13 1216.26,717.45 1235.75,735.99 " fill="none" id="VaccinationCenter-backto-Slot" style="stroke:#A80036;stroke-width:1.0;"/><polygon fill="#FFFFFF" points="1074.4,610.12,1077.1512,616.7857,1084.3622,616.8099,1081.6111,610.1442,1074.4,610.12" style="stroke:#A80036;stroke-width:1.0;"/><!--MD5=[09e640553caef1f503445df8eef57be6]
reverse link Vaccine to VaccineType--><path codeLine="138" d="M193,852.81 C193,885.5 193,923.3 193,951.85 " fill="none" id="Vaccine-backto-VaccineType" style="stroke:#A80036;stroke-width:1.0;"/><polygon fill="#FFFFFF" points="193,839.63,189,845.63,193,851.63,197,845.63,193,839.63" style="stroke:#A80036;stroke-width:1.0;"/><!--MD5=[d96ee281cdb1021d3c4ed227c45512e2]
link VaccineAdministration to Vaccine--><path codeLine="140" d="M397.23,561.52 C353.22,608.6 291.26,674.89 247.15,722.08 " fill="none" id="VaccineAdministration-Vaccine" style="stroke:#A80036;stroke-width:1.0;"/><!--MD5=[951a07871a6512bd4f8e62baa1d062ce]
link VaccineAdministration to SNSUser--><path codeLine="141" d="M475.18,561.52 C490.51,598.02 510.7,646.05 528.24,687.79 " fill="none" id="VaccineAdministration-SNSUser" style="stroke:#A80036;stroke-width:1.0;"/><!--MD5=[12f10beaad6101d0808e438627b46598]
link FullyVaccinatedData to VaccineAdministration--><path codeLine="143" d="M1391.3,1143.76 C1411.38,1027.14 1452.27,744.94 1391,678.5 C1263.28,540.01 714.77,693.72 546,610 C523.75,598.96 504.33,580.26 488.95,561.6 " fill="none" id="FullyVaccinatedData-VaccineAdministration" style="stroke:#A80036;stroke-width:1.0;"/><polygon fill="#000000" points="1420.7985,910.4652,1426.8058,917.8383,1429.9923,912.8992,1420.7985,910.4652" style="stroke:#000000;stroke-width:1.0;"/><text fill="#000000" font-family="sans-serif" font-size="13" lengthAdjust="spacing" textLength="28" x="1434" y="918.4951">uses</text><!--MD5=[3ae6509640748a3e90b03b20ef6831b9]
link CsvExporter to FullyVaccinatedData--><path codeLine="145" d="M1151.71,1021.12 C1191.59,1051.15 1262.33,1104.41 1314.92,1144 " fill="none" id="CsvExporter-FullyVaccinatedData" style="stroke:#A80036;stroke-width:1.0;"/><polygon fill="#000000" points="1244.0056,1080.1684,1249.4639,1087.9567,1252.9993,1083.2609,1244.0056,1080.1684" style="stroke:#000000;stroke-width:1.0;"/><text fill="#000000" font-family="sans-serif" font-size="13" lengthAdjust="spacing" textLength="79" x="1257" y="1088.4951">sends data to</text><!--MD5=[81e61372a6ec977ef7c2b853580200b0]
link Employee to CsvExporter--><path codeLine="147" d="M1038.22,860.77 C1062.59,900.58 1090.39,946 1106.78,972.77 " fill="none" id="Employee-CsvExporter" style="stroke:#A80036;stroke-width:1.0;"/><text fill="#000000" font-family="sans-serif" font-size="13" lengthAdjust="spacing" textLength="125" x="1075" y="918.4951">coordinator generates</text><!--MD5=[8c304936b446fd8cea914e03fbadd4b7]
link VaccinationCenterStore to VaccinationCenter--><path codeLine="150" d="M1513.87,756.92 C1495.89,725.18 1459.07,668.71 1411,640 C1351.51,604.47 1325.28,626.57 1258,610 C1254.04,609.02 1250.05,608.03 1246.05,607.02 " fill="none" id="VaccinationCenterStore-to-VaccinationCenter" style="stroke:#A80036;stroke-width:1.0;"/><polygon fill="#A80036" points="1240.97,605.74,1248.7101,611.8303,1245.8165,606.9695,1250.6773,604.0759,1240.97,605.74" style="stroke:#A80036;stroke-width:1.0;"/><polygon fill="#000000" points="1434.6369,646.7337,1441.0944,653.716,1443.9652,648.5869,1434.6369,646.7337" style="stroke:#000000;stroke-width:1.0;"/><text fill="#000000" font-family="sans-serif" font-size="13" lengthAdjust="spacing" textLength="36" x="1448" y="654.4951">stores</text><text fill="#000000" font-family="sans-serif" font-size="13" lengthAdjust="spacing" textLength="7" x="1502.8648" y="746.2397">1</text><text fill="#000000" font-family="sans-serif" font-size="13" lengthAdjust="spacing" textLength="5" x="1248.9732" y="605.4593">*</text><!--MD5=[8a2f5719a1fc41d03c46eb478ff7f574]
@startuml US15_CD
skinparam classAttributeIconSize 0

package UI {
class CsvExporterUI {}
}

package controllers {
     class CsvExporterController {

     }
}

   package utils {
     class Time {
       - hour: int
       - minute: int
       +Time(hour,minute)

       +Time(time)
     }
   }

package core {
  package domain {

    package service {

class FullyVaccinatedData {
    +getVacAdminList()
    +getSnsUserAge()
    +getVaccine()
    +getVacType()
    }
}

    package model {

class CsvExporter {}

class VaccineAdministration {
  -snsUser: SNSUser
  -vaccine: Vaccine
  -dose: int
  -lotNumber: String
  -date: date
}

class Company {
    +getDesignation()
}

class VaccinationCenter {
    - name: String
    - address: String
    - emailAddress: String
    - phoneNumber: String
    - faxNumber: String
    - websiteAddress: String
    - openingHours: String
    - closingHours: String
    - slotDuration: int
    - maximumVaccinesPerSlot: int
    - coordinator
        
    +VaccinationCenter(name,address,emailAddress,phoneNumber,faxNumber,websiteAddress,openingHours,closingHours,slot,coordinator)
}


class Employee {
    -id: String 
    -name: String 
    -email: String 
    -phone: String 
    -address: String 
    -citizenCardNumber: int 
    -roleId: String 

    +Employee(name,email,phone,address,citizenCardNumber,roleId)
}

class Slot {
    -duration: int
    -maxVaccinesPerSlot: int

    +Slot(duration,maxVaccinesPerSlot)
}

class Vaccine {
  -designation : String
  -brand : String
  -id : String
  -vacType : VaccineType

  +Vaccine(designation, id, brand, vacTypeId)
}

class VaccineType {
  -code
  -designation
  -technology 
}

class SNSUser {
  - citizenCard: String
  - snsNumber: String
  - name: String
  - birthDay: Calendar
  - gender: String
  - phoneNumber: String
  - email: String
  - address: String
  - userHealthData : UserHealthData
  + SNSUser(citizenCard, snsNumber, name, birthDay, gender, phoneNumber, email, address)
}


}

package stores {
      class VaccinationCenterStore {}
      }
}





CsvExporterUI ..> CsvExporterController

CsvExporterController ..> Company

Company "1" - - "1" VaccinationCenterStore : knows >

VaccinationCenter o- - Employee
VaccinationCenter o- - Time 
VaccinationCenter o- - Slot

Vaccine o- - VaccineType

VaccineAdministration - - Vaccine
VaccineAdministration - - SNSUser

FullyVaccinatedData - - VaccineAdministration : uses >

CsvExporter - - FullyVaccinatedData : sends data to <

Employee - - CsvExporter : coordinator generates


VaccinationCenterStore "1" - -> "*" VaccinationCenter : stores >
@enduml

PlantUML version 1.2022.0(Tue Jan 11 16:16:42 WET 2022)
(GPL source distribution)
Java Runtime: Java(TM) SE Runtime Environment
JVM: Java HotSpot(TM) 64-Bit Server VM
Default Encoding: Cp1252
Language: pt
Country: PT
--></g></svg>