<?xml version="1.0" encoding="UTF-8" standalone="no"?><svg xmlns="http://www.w3.org/2000/svg" xmlns:xlink="http://www.w3.org/1999/xlink" contentScriptType="application/ecmascript" contentStyleType="text/css" height="1170px" preserveAspectRatio="none" style="width:1401px;height:1170px;background:#FFFFFF;" version="1.1" viewBox="0 0 1401 1170" width="1401px" zoomAndPan="magnify"><defs><filter height="300%" id="f1aqrv30qgzr86" width="300%" x="-1" y="-1"><feGaussianBlur result="blurOut" stdDeviation="2.0"/><feColorMatrix in="blurOut" result="blurOut2" type="matrix" values="0 0 0 0 0 0 0 0 0 0 0 0 0 0 0 0 0 0 .4 0"/><feOffset dx="4.0" dy="4.0" in="blurOut2" result="blurOut3"/><feBlend in="SourceGraphic" in2="blurOut3" mode="normal"/></filter></defs><g><!--MD5=[9681dc6e01e10c6b4fe06895ae94f592]
cluster UI--><polygon fill="#FFFFFF" filter="url(#f1aqrv30qgzr86)" points="86,6,106,6,113,29.6094,284,29.6094,284,106,86,106,86,6" style="stroke:#000000;stroke-width:1.5;"/><line style="stroke:#000000;stroke-width:1.5;" x1="86" x2="113" y1="29.6094" y2="29.6094"/><text fill="#000000" font-family="sans-serif" font-size="14" font-weight="bold" lengthAdjust="spacing" textLength="14" x="90" y="22.5332">UI</text><!--MD5=[f4e70ef68289585296b9045165e58692]
cluster controllers--><polygon fill="#FFFFFF" filter="url(#f1aqrv30qgzr86)" points="16,139,99,139,106,162.6094,1384,162.6094,1384,1163,16,1163,16,139" style="stroke:#000000;stroke-width:1.5;"/><line style="stroke:#000000;stroke-width:1.5;" x1="16" x2="106" y1="162.6094" y2="162.6094"/><text fill="#000000" font-family="sans-serif" font-size="14" font-weight="bold" lengthAdjust="spacing" textLength="77" x="20" y="155.5332">controllers</text><!--MD5=[c52f45833d539af9e29a9d34b8b7302b]
cluster utils--><polygon fill="#FFFFFF" filter="url(#f1aqrv30qgzr86)" points="1224,901,1260,901,1267,924.6094,1360,924.6094,1360,1070,1224,1070,1224,901" style="stroke:#000000;stroke-width:1.5;"/><line style="stroke:#000000;stroke-width:1.5;" x1="1224" x2="1267" y1="924.6094" y2="924.6094"/><text fill="#000000" font-family="sans-serif" font-size="14" font-weight="bold" lengthAdjust="spacing" textLength="30" x="1228" y="917.5332">utils</text><!--MD5=[01435ace8273dc3cae88e7f376e4d373]
cluster core--><polygon fill="#FFFFFF" filter="url(#f1aqrv30qgzr86)" points="40,270,78,270,85,293.6094,1200,293.6094,1200,1139,40,1139,40,270" style="stroke:#000000;stroke-width:1.5;"/><line style="stroke:#000000;stroke-width:1.5;" x1="40" x2="85" y1="293.6094" y2="293.6094"/><text fill="#000000" font-family="sans-serif" font-size="14" font-weight="bold" lengthAdjust="spacing" textLength="32" x="44" y="286.5332">core</text><!--MD5=[27f772719433d509ddbc20ff768eba08]
cluster domain--><polygon fill="#FFFFFF" filter="url(#f1aqrv30qgzr86)" points="64,314,121,314,128,337.6094,1176,337.6094,1176,1115,64,1115,64,314" style="stroke:#000000;stroke-width:1.5;"/><line style="stroke:#000000;stroke-width:1.5;" x1="64" x2="128" y1="337.6094" y2="337.6094"/><text fill="#000000" font-family="sans-serif" font-size="14" font-weight="bold" lengthAdjust="spacing" textLength="51" x="68" y="330.5332">domain</text><!--MD5=[5d4cd377749310b66bf14896f5cd8d9b]
cluster model--><polygon fill="#FFFFFF" filter="url(#f1aqrv30qgzr86)" points="306,476,355,476,362,499.6094,1152,499.6094,1152,1091,306,1091,306,476" style="stroke:#000000;stroke-width:1.5;"/><line style="stroke:#000000;stroke-width:1.5;" x1="306" x2="362" y1="499.6094" y2="499.6094"/><text fill="#000000" font-family="sans-serif" font-size="14" font-weight="bold" lengthAdjust="spacing" textLength="43" x="310" y="492.5332">model</text><!--MD5=[fbca5634cbc0239920b500cad9c4bedb]
cluster stores--><polygon fill="#FFFFFF" filter="url(#f1aqrv30qgzr86)" points="88,476,139,476,146,499.6094,282,499.6094,282,576,88,576,88,476" style="stroke:#000000;stroke-width:1.5;"/><line style="stroke:#000000;stroke-width:1.5;" x1="88" x2="146" y1="499.6094" y2="499.6094"/><text fill="#000000" font-family="sans-serif" font-size="14" font-weight="bold" lengthAdjust="spacing" textLength="45" x="92" y="492.5332">stores</text><!--MD5=[fd69edc332f726597c3a27d97b7bd8fc]
class ExportCenterStatisticsUI--><rect codeLine="4" fill="#FEFECE" filter="url(#f1aqrv30qgzr86)" height="48" id="ExportCenterStatisticsUI" style="stroke:#A80036;stroke-width:1.5;" width="165" x="102.5" y="42"/><ellipse cx="117.5" cy="58" fill="#ADD1B2" rx="11" ry="11" style="stroke:#A80036;stroke-width:1.0;"/><path d="M120.2656,53.875 Q120.4219,53.6563 120.6094,53.5469 Q120.7969,53.4375 121.0156,53.4375 Q121.3906,53.4375 121.625,53.7031 Q121.8594,53.9531 121.8594,54.5625 L121.8594,56.0156 Q121.8594,56.625 121.625,56.8906 Q121.3906,57.1563 121.0156,57.1563 Q120.6719,57.1563 120.4688,56.9531 Q120.2656,56.7656 120.1563,56.25 Q120.1094,55.8906 119.9219,55.7031 Q119.5938,55.3281 118.9844,55.1094 Q118.375,54.8906 117.75,54.8906 Q116.9844,54.8906 116.3438,55.2188 Q115.7188,55.5469 115.2188,56.2969 Q114.7344,57.0469 114.7344,58.0781 L114.7344,59.1719 Q114.7344,60.4063 115.625,61.2344 Q116.5156,62.0469 118.1094,62.0469 Q119.0469,62.0469 119.7031,61.7969 Q120.0938,61.6406 120.5156,61.2031 Q120.7813,60.9375 120.9219,60.8594 Q121.0781,60.7813 121.2813,60.7813 Q121.6094,60.7813 121.8594,61.0469 Q122.125,61.2969 122.125,61.6406 Q122.125,61.9844 121.7813,62.3906 Q121.2813,62.9688 120.4844,63.2969 Q119.4063,63.75 118.1094,63.75 Q116.5938,63.75 115.3906,63.125 Q114.4063,62.625 113.7188,61.5625 Q113.0313,60.4844 113.0313,59.2031 L113.0313,58.0469 Q113.0313,56.7188 113.6406,55.5781 Q114.2656,54.4219 115.3594,53.8125 Q116.4531,53.1875 117.6875,53.1875 Q118.4219,53.1875 119.0625,53.3594 Q119.7188,53.5156 120.2656,53.875 Z " fill="#000000"/><text fill="#000000" font-family="sans-serif" font-size="12" lengthAdjust="spacing" textLength="133" x="131.5" y="62.9102">ExportCenterStatisticsUI</text><line style="stroke:#A80036;stroke-width:1.5;" x1="103.5" x2="266.5" y1="74" y2="74"/><line style="stroke:#A80036;stroke-width:1.5;" x1="103.5" x2="266.5" y1="82" y2="82"/><!--MD5=[93c339ae26d50accefb5d71117336a4b]
class ExportCenterStatisticsController--><rect codeLine="8" fill="#FEFECE" filter="url(#f1aqrv30qgzr86)" height="48" id="ExportCenterStatisticsController" style="stroke:#A80036;stroke-width:1.5;" width="207" x="81.5" y="175"/><ellipse cx="96.5" cy="191" fill="#ADD1B2" rx="11" ry="11" style="stroke:#A80036;stroke-width:1.0;"/><path d="M99.2656,186.875 Q99.4219,186.6563 99.6094,186.5469 Q99.7969,186.4375 100.0156,186.4375 Q100.3906,186.4375 100.625,186.7031 Q100.8594,186.9531 100.8594,187.5625 L100.8594,189.0156 Q100.8594,189.625 100.625,189.8906 Q100.3906,190.1563 100.0156,190.1563 Q99.6719,190.1563 99.4688,189.9531 Q99.2656,189.7656 99.1563,189.25 Q99.1094,188.8906 98.9219,188.7031 Q98.5938,188.3281 97.9844,188.1094 Q97.375,187.8906 96.75,187.8906 Q95.9844,187.8906 95.3438,188.2188 Q94.7188,188.5469 94.2188,189.2969 Q93.7344,190.0469 93.7344,191.0781 L93.7344,192.1719 Q93.7344,193.4063 94.625,194.2344 Q95.5156,195.0469 97.1094,195.0469 Q98.0469,195.0469 98.7031,194.7969 Q99.0938,194.6406 99.5156,194.2031 Q99.7813,193.9375 99.9219,193.8594 Q100.0781,193.7813 100.2813,193.7813 Q100.6094,193.7813 100.8594,194.0469 Q101.125,194.2969 101.125,194.6406 Q101.125,194.9844 100.7813,195.3906 Q100.2813,195.9688 99.4844,196.2969 Q98.4063,196.75 97.1094,196.75 Q95.5938,196.75 94.3906,196.125 Q93.4063,195.625 92.7188,194.5625 Q92.0313,193.4844 92.0313,192.2031 L92.0313,191.0469 Q92.0313,189.7188 92.6406,188.5781 Q93.2656,187.4219 94.3594,186.8125 Q95.4531,186.1875 96.6875,186.1875 Q97.4219,186.1875 98.0625,186.3594 Q98.7188,186.5156 99.2656,186.875 Z " fill="#000000"/><text fill="#000000" font-family="sans-serif" font-size="12" lengthAdjust="spacing" textLength="175" x="110.5" y="195.9102">ExportCenterStatisticsController</text><line style="stroke:#A80036;stroke-width:1.5;" x1="82.5" x2="287.5" y1="207" y2="207"/><line style="stroke:#A80036;stroke-width:1.5;" x1="82.5" x2="287.5" y1="215" y2="215"/><!--MD5=[2e42295458bb0bec21c9622a623eb29e]
class Time--><rect codeLine="13" fill="#FEFECE" filter="url(#f1aqrv30qgzr86)" height="117.1797" id="Time" style="stroke:#A80036;stroke-width:1.5;" width="104" x="1240" y="937"/><ellipse cx="1274.8" cy="953" fill="#ADD1B2" rx="11" ry="11" style="stroke:#A80036;stroke-width:1.0;"/><path d="M1277.5656,948.875 Q1277.7219,948.6563 1277.9094,948.5469 Q1278.0969,948.4375 1278.3156,948.4375 Q1278.6906,948.4375 1278.925,948.7031 Q1279.1594,948.9531 1279.1594,949.5625 L1279.1594,951.0156 Q1279.1594,951.625 1278.925,951.8906 Q1278.6906,952.1563 1278.3156,952.1563 Q1277.9719,952.1563 1277.7688,951.9531 Q1277.5656,951.7656 1277.4563,951.25 Q1277.4094,950.8906 1277.2219,950.7031 Q1276.8938,950.3281 1276.2844,950.1094 Q1275.675,949.8906 1275.05,949.8906 Q1274.2844,949.8906 1273.6438,950.2188 Q1273.0188,950.5469 1272.5188,951.2969 Q1272.0344,952.0469 1272.0344,953.0781 L1272.0344,954.1719 Q1272.0344,955.4063 1272.925,956.2344 Q1273.8156,957.0469 1275.4094,957.0469 Q1276.3469,957.0469 1277.0031,956.7969 Q1277.3938,956.6406 1277.8156,956.2031 Q1278.0813,955.9375 1278.2219,955.8594 Q1278.3781,955.7813 1278.5813,955.7813 Q1278.9094,955.7813 1279.1594,956.0469 Q1279.425,956.2969 1279.425,956.6406 Q1279.425,956.9844 1279.0813,957.3906 Q1278.5813,957.9688 1277.7844,958.2969 Q1276.7063,958.75 1275.4094,958.75 Q1273.8938,958.75 1272.6906,958.125 Q1271.7063,957.625 1271.0188,956.5625 Q1270.3313,955.4844 1270.3313,954.2031 L1270.3313,953.0469 Q1270.3313,951.7188 1270.9406,950.5781 Q1271.5656,949.4219 1272.6594,948.8125 Q1273.7531,948.1875 1274.9875,948.1875 Q1275.7219,948.1875 1276.3625,948.3594 Q1277.0188,948.5156 1277.5656,948.875 Z " fill="#000000"/><text fill="#000000" font-family="sans-serif" font-size="12" lengthAdjust="spacing" textLength="28" x="1293.2" y="957.9102">Time</text><line style="stroke:#A80036;stroke-width:1.5;" x1="1241" x2="1343" y1="969" y2="969"/><text fill="#000000" font-family="sans-serif" font-size="11" lengthAdjust="spacing" textLength="43" x="1246" y="984.4189">-hour: int</text><text fill="#000000" font-family="sans-serif" font-size="11" lengthAdjust="spacing" textLength="52" x="1246" y="998.2549">-minute: int</text><line style="stroke:#A80036;stroke-width:1.5;" x1="1241" x2="1343" y1="1004.6719" y2="1004.6719"/><text fill="#000000" font-family="sans-serif" font-size="11" lengthAdjust="spacing" textLength="92" x="1246" y="1020.0908">+Time(hour,minute)</text><text fill="#000000" font-family="sans-serif" font-size="11" lengthAdjust="spacing" textLength="0" x="1249" y="1033.9268"/><text fill="#000000" font-family="sans-serif" font-size="11" lengthAdjust="spacing" textLength="55" x="1246" y="1047.7627">+Time(time)</text><!--MD5=[02e4b9b7573f1156f41e60aa5b4e25a4]
class Company--><rect codeLine="26" fill="#FEFECE" filter="url(#f1aqrv30qgzr86)" height="61.8359" id="Company" style="stroke:#A80036;stroke-width:1.5;" width="97" x="136.5" y="350"/><ellipse cx="156.9" cy="366" fill="#ADD1B2" rx="11" ry="11" style="stroke:#A80036;stroke-width:1.0;"/><path d="M159.6656,361.875 Q159.8219,361.6563 160.0094,361.5469 Q160.1969,361.4375 160.4156,361.4375 Q160.7906,361.4375 161.025,361.7031 Q161.2594,361.9531 161.2594,362.5625 L161.2594,364.0156 Q161.2594,364.625 161.025,364.8906 Q160.7906,365.1563 160.4156,365.1563 Q160.0719,365.1563 159.8688,364.9531 Q159.6656,364.7656 159.5563,364.25 Q159.5094,363.8906 159.3219,363.7031 Q158.9938,363.3281 158.3844,363.1094 Q157.775,362.8906 157.15,362.8906 Q156.3844,362.8906 155.7438,363.2188 Q155.1188,363.5469 154.6188,364.2969 Q154.1344,365.0469 154.1344,366.0781 L154.1344,367.1719 Q154.1344,368.4063 155.025,369.2344 Q155.9156,370.0469 157.5094,370.0469 Q158.4469,370.0469 159.1031,369.7969 Q159.4938,369.6406 159.9156,369.2031 Q160.1813,368.9375 160.3219,368.8594 Q160.4781,368.7813 160.6813,368.7813 Q161.0094,368.7813 161.2594,369.0469 Q161.525,369.2969 161.525,369.6406 Q161.525,369.9844 161.1813,370.3906 Q160.6813,370.9688 159.8844,371.2969 Q158.8063,371.75 157.5094,371.75 Q155.9938,371.75 154.7906,371.125 Q153.8063,370.625 153.1188,369.5625 Q152.4313,368.4844 152.4313,367.2031 L152.4313,366.0469 Q152.4313,364.7188 153.0406,363.5781 Q153.6656,362.4219 154.7594,361.8125 Q155.8531,361.1875 157.0875,361.1875 Q157.8219,361.1875 158.4625,361.3594 Q159.1188,361.5156 159.6656,361.875 Z " fill="#000000"/><text fill="#000000" font-family="sans-serif" font-size="12" lengthAdjust="spacing" textLength="53" x="172.1" y="370.9102">Company</text><line style="stroke:#A80036;stroke-width:1.5;" x1="137.5" x2="232.5" y1="382" y2="382"/><line style="stroke:#A80036;stroke-width:1.5;" x1="137.5" x2="232.5" y1="390" y2="390"/><text fill="#000000" font-family="sans-serif" font-size="11" lengthAdjust="spacing" textLength="85" x="142.5" y="405.4189">+getDesignation()</text><!--MD5=[cbf6ed1efeae6ec1cb5f0ab34665af9e]
class FileReport--><rect codeLine="32" fill="#FEFECE" filter="url(#f1aqrv30qgzr86)" height="48" id="FileReport" style="stroke:#A80036;stroke-width:1.5;" width="89" x="922.5" y="512"/><ellipse cx="937.5" cy="528" fill="#ADD1B2" rx="11" ry="11" style="stroke:#A80036;stroke-width:1.0;"/><path d="M940.2656,523.875 Q940.4219,523.6563 940.6094,523.5469 Q940.7969,523.4375 941.0156,523.4375 Q941.3906,523.4375 941.625,523.7031 Q941.8594,523.9531 941.8594,524.5625 L941.8594,526.0156 Q941.8594,526.625 941.625,526.8906 Q941.3906,527.1563 941.0156,527.1563 Q940.6719,527.1563 940.4688,526.9531 Q940.2656,526.7656 940.1563,526.25 Q940.1094,525.8906 939.9219,525.7031 Q939.5938,525.3281 938.9844,525.1094 Q938.375,524.8906 937.75,524.8906 Q936.9844,524.8906 936.3438,525.2188 Q935.7188,525.5469 935.2188,526.2969 Q934.7344,527.0469 934.7344,528.0781 L934.7344,529.1719 Q934.7344,530.4063 935.625,531.2344 Q936.5156,532.0469 938.1094,532.0469 Q939.0469,532.0469 939.7031,531.7969 Q940.0938,531.6406 940.5156,531.2031 Q940.7813,530.9375 940.9219,530.8594 Q941.0781,530.7813 941.2813,530.7813 Q941.6094,530.7813 941.8594,531.0469 Q942.125,531.2969 942.125,531.6406 Q942.125,531.9844 941.7813,532.3906 Q941.2813,532.9688 940.4844,533.2969 Q939.4063,533.75 938.1094,533.75 Q936.5938,533.75 935.3906,533.125 Q934.4063,532.625 933.7188,531.5625 Q933.0313,530.4844 933.0313,529.2031 L933.0313,528.0469 Q933.0313,526.7188 933.6406,525.5781 Q934.2656,524.4219 935.3594,523.8125 Q936.4531,523.1875 937.6875,523.1875 Q938.4219,523.1875 939.0625,523.3594 Q939.7188,523.5156 940.2656,523.875 Z " fill="#000000"/><text fill="#000000" font-family="sans-serif" font-size="12" lengthAdjust="spacing" textLength="57" x="951.5" y="532.9102">FileReport</text><line style="stroke:#A80036;stroke-width:1.5;" x1="923.5" x2="1010.5" y1="544" y2="544"/><line style="stroke:#A80036;stroke-width:1.5;" x1="923.5" x2="1010.5" y1="552" y2="552"/><!--MD5=[de60e6d4f424ae4d0522096f76a59010]
class VaccinationCenter--><rect codeLine="34" fill="#FEFECE" filter="url(#f1aqrv30qgzr86)" height="214.0313" id="VaccinationCenter" style="stroke:#A80036;stroke-width:1.5;" width="677" x="322.5" y="640"/><ellipse cx="606.75" cy="656" fill="#ADD1B2" rx="11" ry="11" style="stroke:#A80036;stroke-width:1.0;"/><path d="M609.5156,651.875 Q609.6719,651.6563 609.8594,651.5469 Q610.0469,651.4375 610.2656,651.4375 Q610.6406,651.4375 610.875,651.7031 Q611.1094,651.9531 611.1094,652.5625 L611.1094,654.0156 Q611.1094,654.625 610.875,654.8906 Q610.6406,655.1563 610.2656,655.1563 Q609.9219,655.1563 609.7188,654.9531 Q609.5156,654.7656 609.4063,654.25 Q609.3594,653.8906 609.1719,653.7031 Q608.8438,653.3281 608.2344,653.1094 Q607.625,652.8906 607,652.8906 Q606.2344,652.8906 605.5938,653.2188 Q604.9688,653.5469 604.4688,654.2969 Q603.9844,655.0469 603.9844,656.0781 L603.9844,657.1719 Q603.9844,658.4063 604.875,659.2344 Q605.7656,660.0469 607.3594,660.0469 Q608.2969,660.0469 608.9531,659.7969 Q609.3438,659.6406 609.7656,659.2031 Q610.0313,658.9375 610.1719,658.8594 Q610.3281,658.7813 610.5313,658.7813 Q610.8594,658.7813 611.1094,659.0469 Q611.375,659.2969 611.375,659.6406 Q611.375,659.9844 611.0313,660.3906 Q610.5313,660.9688 609.7344,661.2969 Q608.6563,661.75 607.3594,661.75 Q605.8438,661.75 604.6406,661.125 Q603.6563,660.625 602.9688,659.5625 Q602.2813,658.4844 602.2813,657.2031 L602.2813,656.0469 Q602.2813,654.7188 602.8906,653.5781 Q603.5156,652.4219 604.6094,651.8125 Q605.7031,651.1875 606.9375,651.1875 Q607.6719,651.1875 608.3125,651.3594 Q608.9688,651.5156 609.5156,651.875 Z " fill="#000000"/><text fill="#000000" font-family="sans-serif" font-size="12" lengthAdjust="spacing" textLength="100" x="627.25" y="660.9102">VaccinationCenter</text><line style="stroke:#A80036;stroke-width:1.5;" x1="323.5" x2="998.5" y1="672" y2="672"/><text fill="#000000" font-family="sans-serif" font-size="11" lengthAdjust="spacing" textLength="64" x="328.5" y="687.4189">-name: String</text><text fill="#000000" font-family="sans-serif" font-size="11" lengthAdjust="spacing" textLength="78" x="328.5" y="701.2549">-address: String</text><text fill="#000000" font-family="sans-serif" font-size="11" lengthAdjust="spacing" textLength="104" x="328.5" y="715.0908">-emailAddress: String</text><text fill="#000000" font-family="sans-serif" font-size="11" lengthAdjust="spacing" textLength="105" x="328.5" y="728.9268">-phoneNumber: String</text><text fill="#000000" font-family="sans-serif" font-size="11" lengthAdjust="spacing" textLength="91" x="328.5" y="742.7627">-faxNumber: String</text><text fill="#000000" font-family="sans-serif" font-size="11" lengthAdjust="spacing" textLength="119" x="328.5" y="756.5986">-websiteAddress: String</text><text fill="#000000" font-family="sans-serif" font-size="11" lengthAdjust="spacing" textLength="105" x="328.5" y="770.4346">-openingHours: String</text><text fill="#000000" font-family="sans-serif" font-size="11" lengthAdjust="spacing" textLength="101" x="328.5" y="784.2705">-closingHours: String</text><text fill="#000000" font-family="sans-serif" font-size="11" lengthAdjust="spacing" textLength="78" x="328.5" y="798.1064">-slotDuration: int</text><text fill="#000000" font-family="sans-serif" font-size="11" lengthAdjust="spacing" textLength="145" x="328.5" y="811.9424">-maximumVaccinesPerSlot: int</text><text fill="#000000" font-family="sans-serif" font-size="11" lengthAdjust="spacing" textLength="59" x="328.5" y="825.7783">-coordinator</text><line style="stroke:#A80036;stroke-width:1.5;" x1="323.5" x2="998.5" y1="832.1953" y2="832.1953"/><text fill="#000000" font-family="sans-serif" font-size="11" lengthAdjust="spacing" textLength="665" x="328.5" y="847.6143">+VaccinationCenter(name,address,emailAddress,phoneNumber,faxNumber,websiteAddress,openingHours,closingHours,slot,coordinator)</text><!--MD5=[7421f545a0d8420c5bec41e74b387d9c]
class Employee--><rect codeLine="51" fill="#FEFECE" filter="url(#f1aqrv30qgzr86)" height="158.6875" id="Employee" style="stroke:#A80036;stroke-width:1.5;" width="324" x="801" y="916"/><ellipse cx="931.25" cy="932" fill="#ADD1B2" rx="11" ry="11" style="stroke:#A80036;stroke-width:1.0;"/><path d="M934.0156,927.875 Q934.1719,927.6563 934.3594,927.5469 Q934.5469,927.4375 934.7656,927.4375 Q935.1406,927.4375 935.375,927.7031 Q935.6094,927.9531 935.6094,928.5625 L935.6094,930.0156 Q935.6094,930.625 935.375,930.8906 Q935.1406,931.1563 934.7656,931.1563 Q934.4219,931.1563 934.2188,930.9531 Q934.0156,930.7656 933.9063,930.25 Q933.8594,929.8906 933.6719,929.7031 Q933.3438,929.3281 932.7344,929.1094 Q932.125,928.8906 931.5,928.8906 Q930.7344,928.8906 930.0938,929.2188 Q929.4688,929.5469 928.9688,930.2969 Q928.4844,931.0469 928.4844,932.0781 L928.4844,933.1719 Q928.4844,934.4063 929.375,935.2344 Q930.2656,936.0469 931.8594,936.0469 Q932.7969,936.0469 933.4531,935.7969 Q933.8438,935.6406 934.2656,935.2031 Q934.5313,934.9375 934.6719,934.8594 Q934.8281,934.7813 935.0313,934.7813 Q935.3594,934.7813 935.6094,935.0469 Q935.875,935.2969 935.875,935.6406 Q935.875,935.9844 935.5313,936.3906 Q935.0313,936.9688 934.2344,937.2969 Q933.1563,937.75 931.8594,937.75 Q930.3438,937.75 929.1406,937.125 Q928.1563,936.625 927.4688,935.5625 Q926.7813,934.4844 926.7813,933.2031 L926.7813,932.0469 Q926.7813,930.7188 927.3906,929.5781 Q928.0156,928.4219 929.1094,927.8125 Q930.2031,927.1875 931.4375,927.1875 Q932.1719,927.1875 932.8125,927.3594 Q933.4688,927.5156 934.0156,927.875 Z " fill="#000000"/><text fill="#000000" font-family="sans-serif" font-size="12" lengthAdjust="spacing" textLength="55" x="951.75" y="936.9102">Employee</text><line style="stroke:#A80036;stroke-width:1.5;" x1="802" x2="1124" y1="948" y2="948"/><text fill="#000000" font-family="sans-serif" font-size="11" lengthAdjust="spacing" textLength="46" x="807" y="963.4189">-id: String</text><text fill="#000000" font-family="sans-serif" font-size="11" lengthAdjust="spacing" textLength="64" x="807" y="977.2549">-name: String</text><text fill="#000000" font-family="sans-serif" font-size="11" lengthAdjust="spacing" textLength="62" x="807" y="991.0908">-email: String</text><text fill="#000000" font-family="sans-serif" font-size="11" lengthAdjust="spacing" textLength="68" x="807" y="1004.9268">-phone: String</text><text fill="#000000" font-family="sans-serif" font-size="11" lengthAdjust="spacing" textLength="78" x="807" y="1018.7627">-address: String</text><text fill="#000000" font-family="sans-serif" font-size="11" lengthAdjust="spacing" textLength="112" x="807" y="1032.5986">-citizenCardNumber: int</text><text fill="#000000" font-family="sans-serif" font-size="11" lengthAdjust="spacing" textLength="64" x="807" y="1046.4346">-roleId: String</text><line style="stroke:#A80036;stroke-width:1.5;" x1="802" x2="1124" y1="1052.8516" y2="1052.8516"/><text fill="#000000" font-family="sans-serif" font-size="11" lengthAdjust="spacing" textLength="312" x="807" y="1068.2705">+Employee(name,email,phone,address,citizenCardNumber,roleId)</text><!--MD5=[45c6380d22fb72521f5065026b277fb9]
class Slot--><rect codeLine="63" fill="#FEFECE" filter="url(#f1aqrv30qgzr86)" height="89.5078" id="Slot" style="stroke:#A80036;stroke-width:1.5;" width="186" x="568" y="950.5"/><ellipse cx="646.25" cy="966.5" fill="#ADD1B2" rx="11" ry="11" style="stroke:#A80036;stroke-width:1.0;"/><path d="M649.0156,962.375 Q649.1719,962.1563 649.3594,962.0469 Q649.5469,961.9375 649.7656,961.9375 Q650.1406,961.9375 650.375,962.2031 Q650.6094,962.4531 650.6094,963.0625 L650.6094,964.5156 Q650.6094,965.125 650.375,965.3906 Q650.1406,965.6563 649.7656,965.6563 Q649.4219,965.6563 649.2188,965.4531 Q649.0156,965.2656 648.9063,964.75 Q648.8594,964.3906 648.6719,964.2031 Q648.3438,963.8281 647.7344,963.6094 Q647.125,963.3906 646.5,963.3906 Q645.7344,963.3906 645.0938,963.7188 Q644.4688,964.0469 643.9688,964.7969 Q643.4844,965.5469 643.4844,966.5781 L643.4844,967.6719 Q643.4844,968.9063 644.375,969.7344 Q645.2656,970.5469 646.8594,970.5469 Q647.7969,970.5469 648.4531,970.2969 Q648.8438,970.1406 649.2656,969.7031 Q649.5313,969.4375 649.6719,969.3594 Q649.8281,969.2813 650.0313,969.2813 Q650.3594,969.2813 650.6094,969.5469 Q650.875,969.7969 650.875,970.1406 Q650.875,970.4844 650.5313,970.8906 Q650.0313,971.4688 649.2344,971.7969 Q648.1563,972.25 646.8594,972.25 Q645.3438,972.25 644.1406,971.625 Q643.1563,971.125 642.4688,970.0625 Q641.7813,968.9844 641.7813,967.7031 L641.7813,966.5469 Q641.7813,965.2188 642.3906,964.0781 Q643.0156,962.9219 644.1094,962.3125 Q645.2031,961.6875 646.4375,961.6875 Q647.1719,961.6875 647.8125,961.8594 Q648.4688,962.0156 649.0156,962.375 Z " fill="#000000"/><text fill="#000000" font-family="sans-serif" font-size="12" lengthAdjust="spacing" textLength="21" x="666.75" y="971.4102">Slot</text><line style="stroke:#A80036;stroke-width:1.5;" x1="569" x2="753" y1="982.5" y2="982.5"/><text fill="#000000" font-family="sans-serif" font-size="11" lengthAdjust="spacing" textLength="60" x="574" y="997.9189">-duration: int</text><text fill="#000000" font-family="sans-serif" font-size="11" lengthAdjust="spacing" textLength="121" x="574" y="1011.7549">-maxVaccinesPerSlot: int</text><line style="stroke:#A80036;stroke-width:1.5;" x1="569" x2="753" y1="1018.1719" y2="1018.1719"/><text fill="#000000" font-family="sans-serif" font-size="11" lengthAdjust="spacing" textLength="174" x="574" y="1033.5908">+Slot(duration,maxVaccinesPerSlot)</text><!--MD5=[a29876ea2f21a6ca48ea477740122fd8]
class VaccinationCenterStore--><rect codeLine="73" fill="#FEFECE" filter="url(#f1aqrv30qgzr86)" height="48" id="VaccinationCenterStore" style="stroke:#A80036;stroke-width:1.5;" width="161" x="104.5" y="512"/><ellipse cx="119.5" cy="528" fill="#ADD1B2" rx="11" ry="11" style="stroke:#A80036;stroke-width:1.0;"/><path d="M122.2656,523.875 Q122.4219,523.6563 122.6094,523.5469 Q122.7969,523.4375 123.0156,523.4375 Q123.3906,523.4375 123.625,523.7031 Q123.8594,523.9531 123.8594,524.5625 L123.8594,526.0156 Q123.8594,526.625 123.625,526.8906 Q123.3906,527.1563 123.0156,527.1563 Q122.6719,527.1563 122.4688,526.9531 Q122.2656,526.7656 122.1563,526.25 Q122.1094,525.8906 121.9219,525.7031 Q121.5938,525.3281 120.9844,525.1094 Q120.375,524.8906 119.75,524.8906 Q118.9844,524.8906 118.3438,525.2188 Q117.7188,525.5469 117.2188,526.2969 Q116.7344,527.0469 116.7344,528.0781 L116.7344,529.1719 Q116.7344,530.4063 117.625,531.2344 Q118.5156,532.0469 120.1094,532.0469 Q121.0469,532.0469 121.7031,531.7969 Q122.0938,531.6406 122.5156,531.2031 Q122.7813,530.9375 122.9219,530.8594 Q123.0781,530.7813 123.2813,530.7813 Q123.6094,530.7813 123.8594,531.0469 Q124.125,531.2969 124.125,531.6406 Q124.125,531.9844 123.7813,532.3906 Q123.2813,532.9688 122.4844,533.2969 Q121.4063,533.75 120.1094,533.75 Q118.5938,533.75 117.3906,533.125 Q116.4063,532.625 115.7188,531.5625 Q115.0313,530.4844 115.0313,529.2031 L115.0313,528.0469 Q115.0313,526.7188 115.6406,525.5781 Q116.2656,524.4219 117.3594,523.8125 Q118.4531,523.1875 119.6875,523.1875 Q120.4219,523.1875 121.0625,523.3594 Q121.7188,523.5156 122.2656,523.875 Z " fill="#000000"/><text fill="#000000" font-family="sans-serif" font-size="12" lengthAdjust="spacing" textLength="129" x="133.5" y="532.9102">VaccinationCenterStore</text><line style="stroke:#A80036;stroke-width:1.5;" x1="105.5" x2="264.5" y1="544" y2="544"/><line style="stroke:#A80036;stroke-width:1.5;" x1="105.5" x2="264.5" y1="552" y2="552"/><!--MD5=[83622bce6ec4666fff10b41c22ae215c]
link ExportCenterStatisticsUI to ExportCenterStatisticsController--><path codeLine="81" d="M185,90.12 C185,112.24 185,145.68 185,169.45 " fill="none" id="ExportCenterStatisticsUI-to-ExportCenterStatisticsController" style="stroke:#A80036;stroke-width:1.0;stroke-dasharray:7.0,7.0;"/><polygon fill="#A80036" points="185,174.67,189,165.67,185,169.67,181,165.67,185,174.67" style="stroke:#A80036;stroke-width:1.0;"/><!--MD5=[0d50fece99724e72ce7ec3ef8ae58538]
link ExportCenterStatisticsController to Company--><path codeLine="83" d="M185,223.16 C185,253.93 185,308.58 185,344.56 " fill="none" id="ExportCenterStatisticsController-to-Company" style="stroke:#A80036;stroke-width:1.0;stroke-dasharray:7.0,7.0;"/><polygon fill="#A80036" points="185,349.72,189,340.72,185,344.72,181,340.72,185,349.72" style="stroke:#A80036;stroke-width:1.0;"/><!--MD5=[bc0d5b4bfe6e1bf0a8fced13bc4bdd47]
link Company to VaccinationCenterStore--><path codeLine="85" d="M185,412.23 C185,441.49 185,485.22 185,511.82 " fill="none" id="Company-VaccinationCenterStore" style="stroke:#A80036;stroke-width:1.0;"/><polygon fill="#000000" points="190,456.1758,192.9389,447.1307,187.0611,447.1307,190,456.1758" style="stroke:#000000;stroke-width:1.0;"/><text fill="#000000" font-family="sans-serif" font-size="13" lengthAdjust="spacing" textLength="37" x="199" y="456.4951">knows</text><text fill="#000000" font-family="sans-serif" font-size="13" lengthAdjust="spacing" textLength="7" x="177.3328" y="433.2525">1</text><text fill="#000000" font-family="sans-serif" font-size="13" lengthAdjust="spacing" textLength="7" x="177.1031" y="501.114">1</text><!--MD5=[db5fb34fd733ab3677281d60b785e712]
reverse link VaccinationCenter to Employee--><path codeLine="87" d="M801.35,862.56 C823.36,880.52 845.68,898.74 866.41,915.66 " fill="none" id="VaccinationCenter-backto-Employee" style="stroke:#A80036;stroke-width:1.0;"/><polygon fill="#FFFFFF" points="791.27,854.33,793.3915,861.222,800.5692,861.9145,798.4478,855.0225,791.27,854.33" style="stroke:#A80036;stroke-width:1.0;"/><!--MD5=[91079b08053e6fc6d0a3af85820ed36a]
reverse link VaccinationCenter to Time--><path codeLine="88" d="M1012.53,850.7 C1088.41,873.09 1147.62,890.85 1152,893 C1183.11,908.31 1214.65,930.46 1239.89,950.17 " fill="none" id="VaccinationCenter-backto-Time" style="stroke:#A80036;stroke-width:1.0;"/><polygon fill="#FFFFFF" points="999.71,846.92,1004.3362,852.4516,1011.2215,850.3089,1006.5954,844.7772,999.71,846.92" style="stroke:#A80036;stroke-width:1.0;"/><!--MD5=[99cf60c71dc20007695665c9ea3c4eb1]
reverse link VaccinationCenter to Slot--><path codeLine="89" d="M661,867.44 C661,897.08 661,927.01 661,950.37 " fill="none" id="VaccinationCenter-backto-Slot" style="stroke:#A80036;stroke-width:1.0;"/><polygon fill="#FFFFFF" points="661,854.33,657,860.33,661,866.33,665,860.33,661,854.33" style="stroke:#A80036;stroke-width:1.0;"/><!--MD5=[dae07fc31e24a1218fd41b52d9d342c8]
link Employee to FileReport--><path codeLine="90" d="M999.07,915.73 C1006.48,895.98 1013.19,874.55 1017,854 C1034.35,760.49 1038.31,732.69 1017,640 C1011.43,615.78 999.37,590.64 988.49,571.27 " fill="none" id="Employee-to-FileReport" style="stroke:#A80036;stroke-width:1.0;"/><polygon fill="#FFFFFF" points="981.94,560.01,981.5047,567.208,987.9815,570.3782,988.4168,563.1803,981.94,560.01" style="stroke:#A80036;stroke-width:1.0;"/><text fill="#000000" font-family="sans-serif" font-size="13" lengthAdjust="spacing" textLength="64" x="1032" y="752.4951">coordinator</text><!--MD5=[5d8921e7942221d7257c6590765902eb]
link FileReport to VaccinationCenter--><path codeLine="91" d="M933.08,560.17 C905.05,579.32 863.04,608 820.38,637.14 " fill="none" id="FileReport-to-VaccinationCenter" style="stroke:#A80036;stroke-width:1.0;"/><polygon fill="#A80036" points="816.25,639.96,825.9396,638.1959,820.3814,637.1438,821.4336,631.5856,816.25,639.96" style="stroke:#A80036;stroke-width:1.0;"/><polygon fill="#000000" points="884.8711,603.9957,893.9979,601.3214,890.6829,596.4675,884.8711,603.9957" style="stroke:#000000;stroke-width:1.0;"/><text fill="#000000" font-family="sans-serif" font-size="13" lengthAdjust="spacing" textLength="52" x="898" y="606.4951">analyzes</text><text fill="#000000" font-family="sans-serif" font-size="13" lengthAdjust="spacing" textLength="7" x="916.9589" y="581.5494">1</text><text fill="#000000" font-family="sans-serif" font-size="13" lengthAdjust="spacing" textLength="7" x="820.3941" y="629.0186">1</text><!--MD5=[8c304936b446fd8cea914e03fbadd4b7]
link VaccinationCenterStore to VaccinationCenter--><path codeLine="93" d="M237.76,560.17 C281.73,579.47 347.77,608.47 414.68,637.85 " fill="none" id="VaccinationCenterStore-to-VaccinationCenter" style="stroke:#A80036;stroke-width:1.0;"/><polygon fill="#A80036" points="419.5,639.96,412.8686,632.6782,414.9222,637.9492,409.6512,640.0028,419.5,639.96" style="stroke:#A80036;stroke-width:1.0;"/><polygon fill="#000000" points="347.5781,603.1859,340.4777,596.8586,338.1147,602.2405,347.5781,603.1859" style="stroke:#000000;stroke-width:1.0;"/><text fill="#000000" font-family="sans-serif" font-size="13" lengthAdjust="spacing" textLength="36" x="352" y="606.4951">stores</text><text fill="#000000" font-family="sans-serif" font-size="13" lengthAdjust="spacing" textLength="7" x="242.7671" y="581.5494">1</text><text fill="#000000" font-family="sans-serif" font-size="13" lengthAdjust="spacing" textLength="5" x="396.5813" y="629.0186">*</text><!--MD5=[1428a3726bb483db071f66adf2ee60e8]
@startuml US15_CD
skinparam classAttributeIconSize 0

package UI {
class ExportCenterStatisticsUI {}
}

package controllers {
     class ExportCenterStatisticsController {

     }

   package utils {
     class Time {
       - hour: int
       - minute: int
       +Time(hour,minute)

       +Time(time)
     }
   }


package core {
  package domain {

class Company {
    +getDesignation()
}

    package model {

class FileReport {}

class VaccinationCenter {
    - name: String
    - address: String
    - emailAddress: String
    - phoneNumber: String
    - faxNumber: String
    - websiteAddress: String
    - openingHours: String
    - closingHours: String
    - slotDuration: int
    - maximumVaccinesPerSlot: int
    - coordinator
        
    +VaccinationCenter(name,address,emailAddress,phoneNumber,faxNumber,websiteAddress,openingHours,closingHours,slot,coordinator)
}


class Employee {
    -id: String 
    -name: String 
    -email: String 
    -phone: String 
    -address: String 
    -citizenCardNumber: int 
    -roleId: String 

    +Employee(name,email,phone,address,citizenCardNumber,roleId)
}

class Slot {
    -duration: int
    -maxVaccinesPerSlot: int

    +Slot(duration,maxVaccinesPerSlot)
}

}

package stores {
      class VaccinationCenterStore {}
      }
    }





ExportCenterStatisticsUI ..> ExportCenterStatisticsController

ExportCenterStatisticsController ..> Company

Company "1" - - "1" VaccinationCenterStore : knows >

VaccinationCenter o- - Employee
VaccinationCenter o- - Time 
VaccinationCenter o- - Slot
Employee - -o FileReport : coordinator
FileReport "1" - -> "1" VaccinationCenter : analyzes >

VaccinationCenterStore "1" - -> "*" VaccinationCenter : stores >
@enduml

PlantUML version 1.2022.0(Tue Jan 11 16:16:42 WET 2022)
(GPL source distribution)
Java Runtime: Java(TM) SE Runtime Environment
JVM: Java HotSpot(TM) 64-Bit Server VM
Default Encoding: Cp1252
Language: pt
Country: PT
--></g></svg>