<?xml version="1.0" encoding="UTF-8" standalone="no"?><svg xmlns="http://www.w3.org/2000/svg" xmlns:xlink="http://www.w3.org/1999/xlink" contentScriptType="application/ecmascript" contentStyleType="text/css" height="1250px" preserveAspectRatio="none" style="width:2222px;height:1250px;background:#FFFFFF;" version="1.1" viewBox="0 0 2222 1250" width="2222px" zoomAndPan="magnify"><defs><filter height="300%" id="f2u2owijkcjjb" width="300%" x="-1" y="-1"><feGaussianBlur result="blurOut" stdDeviation="2.0"/><feColorMatrix in="blurOut" result="blurOut2" type="matrix" values="0 0 0 0 0 0 0 0 0 0 0 0 0 0 0 0 0 0 .4 0"/><feOffset dx="4.0" dy="4.0" in="blurOut2" result="blurOut3"/><feBlend in="SourceGraphic" in2="blurOut3" mode="normal"/></filter></defs><g><!--MD5=[9681dc6e01e10c6b4fe06895ae94f592]
cluster UI--><polygon fill="#FFFFFF" filter="url(#f2u2owijkcjjb)" points="16,6,36,6,43,29.6094,158,29.6094,158,106,16,106,16,6" style="stroke:#000000;stroke-width:1.5;"/><line style="stroke:#000000;stroke-width:1.5;" x1="16" x2="43" y1="29.6094" y2="29.6094"/><text fill="#000000" font-family="sans-serif" font-size="14" font-weight="bold" lengthAdjust="spacing" textLength="14" x="20" y="22.5332">UI</text><!--MD5=[f4e70ef68289585296b9045165e58692]
cluster controllers--><polygon fill="#FFFFFF" filter="url(#f2u2owijkcjjb)" points="182,6,265,6,272,29.6094,366,29.6094,366,106,182,106,182,6" style="stroke:#000000;stroke-width:1.5;"/><line style="stroke:#000000;stroke-width:1.5;" x1="182" x2="272" y1="29.6094" y2="29.6094"/><text fill="#000000" font-family="sans-serif" font-size="14" font-weight="bold" lengthAdjust="spacing" textLength="77" x="186" y="22.5332">controllers</text><!--MD5=[c52f45833d539af9e29a9d34b8b7302b]
cluster utils--><polygon fill="#FFFFFF" filter="url(#f2u2owijkcjjb)" points="2069,618.5,2105,618.5,2112,642.1094,2205,642.1094,2205,787.5,2069,787.5,2069,618.5" style="stroke:#000000;stroke-width:1.5;"/><line style="stroke:#000000;stroke-width:1.5;" x1="2069" x2="2112" y1="642.1094" y2="642.1094"/><text fill="#000000" font-family="sans-serif" font-size="14" font-weight="bold" lengthAdjust="spacing" textLength="30" x="2073" y="635.0332">utils</text><!--MD5=[01435ace8273dc3cae88e7f376e4d373]
cluster core--><polygon fill="#FFFFFF" filter="url(#f2u2owijkcjjb)" points="390,6,428,6,435,29.6094,2045,29.6094,2045,1243,390,1243,390,6" style="stroke:#000000;stroke-width:1.5;"/><line style="stroke:#000000;stroke-width:1.5;" x1="390" x2="435" y1="29.6094" y2="29.6094"/><text fill="#000000" font-family="sans-serif" font-size="14" font-weight="bold" lengthAdjust="spacing" textLength="32" x="394" y="22.5332">core</text><!--MD5=[27f772719433d509ddbc20ff768eba08]
cluster domain--><polygon fill="#FFFFFF" filter="url(#f2u2owijkcjjb)" points="414,248,471,248,478,271.6094,2021,271.6094,2021,1219,414,1219,414,248" style="stroke:#000000;stroke-width:1.5;"/><line style="stroke:#000000;stroke-width:1.5;" x1="414" x2="478" y1="271.6094" y2="271.6094"/><text fill="#000000" font-family="sans-serif" font-size="14" font-weight="bold" lengthAdjust="spacing" textLength="51" x="418" y="264.5332">domain</text><!--MD5=[7579d5565d2521d5936cec86ed3dadee]
cluster service--><polygon fill="#FFFFFF" filter="url(#f2u2owijkcjjb)" points="1678,1040,1737,1040,1744,1063.6094,1834,1063.6094,1834,1195,1678,1195,1678,1040" style="stroke:#000000;stroke-width:1.5;"/><line style="stroke:#000000;stroke-width:1.5;" x1="1678" x2="1744" y1="1063.6094" y2="1063.6094"/><text fill="#000000" font-family="sans-serif" font-size="14" font-weight="bold" lengthAdjust="spacing" textLength="53" x="1682" y="1056.5332">service</text><!--MD5=[5d4cd377749310b66bf14896f5cd8d9b]
cluster model--><polygon fill="#FFFFFF" filter="url(#f2u2owijkcjjb)" points="438,292,487,292,494,315.6094,1763,315.6094,1763,990,438,990,438,292" style="stroke:#000000;stroke-width:1.5;"/><line style="stroke:#000000;stroke-width:1.5;" x1="438" x2="494" y1="315.6094" y2="315.6094"/><text fill="#000000" font-family="sans-serif" font-size="14" font-weight="bold" lengthAdjust="spacing" textLength="43" x="442" y="308.5332">model</text><!--MD5=[fbca5634cbc0239920b500cad9c4bedb]
cluster stores--><polygon fill="#FFFFFF" filter="url(#f2u2owijkcjjb)" points="1803,653,1854,653,1861,676.6094,1997,676.6094,1997,753,1803,753,1803,653" style="stroke:#000000;stroke-width:1.5;"/><line style="stroke:#000000;stroke-width:1.5;" x1="1803" x2="1861" y1="676.6094" y2="676.6094"/><text fill="#000000" font-family="sans-serif" font-size="14" font-weight="bold" lengthAdjust="spacing" textLength="45" x="1807" y="669.5332">stores</text><!--MD5=[402ad09537f09c1bd7eacac4837c99a0]
class CsvExporterUI--><rect codeLine="4" fill="#FEFECE" filter="url(#f2u2owijkcjjb)" height="48" id="CsvExporterUI" style="stroke:#A80036;stroke-width:1.5;" width="110" x="32" y="42"/><ellipse cx="47" cy="58" fill="#ADD1B2" rx="11" ry="11" style="stroke:#A80036;stroke-width:1.0;"/><path d="M49.7656,53.875 Q49.9219,53.6563 50.1094,53.5469 Q50.2969,53.4375 50.5156,53.4375 Q50.8906,53.4375 51.125,53.7031 Q51.3594,53.9531 51.3594,54.5625 L51.3594,56.0156 Q51.3594,56.625 51.125,56.8906 Q50.8906,57.1563 50.5156,57.1563 Q50.1719,57.1563 49.9688,56.9531 Q49.7656,56.7656 49.6563,56.25 Q49.6094,55.8906 49.4219,55.7031 Q49.0938,55.3281 48.4844,55.1094 Q47.875,54.8906 47.25,54.8906 Q46.4844,54.8906 45.8438,55.2188 Q45.2188,55.5469 44.7188,56.2969 Q44.2344,57.0469 44.2344,58.0781 L44.2344,59.1719 Q44.2344,60.4063 45.125,61.2344 Q46.0156,62.0469 47.6094,62.0469 Q48.5469,62.0469 49.2031,61.7969 Q49.5938,61.6406 50.0156,61.2031 Q50.2813,60.9375 50.4219,60.8594 Q50.5781,60.7813 50.7813,60.7813 Q51.1094,60.7813 51.3594,61.0469 Q51.625,61.2969 51.625,61.6406 Q51.625,61.9844 51.2813,62.3906 Q50.7813,62.9688 49.9844,63.2969 Q48.9063,63.75 47.6094,63.75 Q46.0938,63.75 44.8906,63.125 Q43.9063,62.625 43.2188,61.5625 Q42.5313,60.4844 42.5313,59.2031 L42.5313,58.0469 Q42.5313,56.7188 43.1406,55.5781 Q43.7656,54.4219 44.8594,53.8125 Q45.9531,53.1875 47.1875,53.1875 Q47.9219,53.1875 48.5625,53.3594 Q49.2188,53.5156 49.7656,53.875 Z " fill="#000000"/><text fill="#000000" font-family="sans-serif" font-size="12" lengthAdjust="spacing" textLength="78" x="61" y="62.9102">CsvExporterUI</text><line style="stroke:#A80036;stroke-width:1.5;" x1="33" x2="141" y1="74" y2="74"/><line style="stroke:#A80036;stroke-width:1.5;" x1="33" x2="141" y1="82" y2="82"/><!--MD5=[c1d37d34f24fc29af1367e54859a0e51]
class CsvExporterController--><rect codeLine="8" fill="#FEFECE" filter="url(#f2u2owijkcjjb)" height="48" id="CsvExporterController" style="stroke:#A80036;stroke-width:1.5;" width="152" x="198" y="42"/><ellipse cx="213" cy="58" fill="#ADD1B2" rx="11" ry="11" style="stroke:#A80036;stroke-width:1.0;"/><path d="M215.7656,53.875 Q215.9219,53.6563 216.1094,53.5469 Q216.2969,53.4375 216.5156,53.4375 Q216.8906,53.4375 217.125,53.7031 Q217.3594,53.9531 217.3594,54.5625 L217.3594,56.0156 Q217.3594,56.625 217.125,56.8906 Q216.8906,57.1563 216.5156,57.1563 Q216.1719,57.1563 215.9688,56.9531 Q215.7656,56.7656 215.6563,56.25 Q215.6094,55.8906 215.4219,55.7031 Q215.0938,55.3281 214.4844,55.1094 Q213.875,54.8906 213.25,54.8906 Q212.4844,54.8906 211.8438,55.2188 Q211.2188,55.5469 210.7188,56.2969 Q210.2344,57.0469 210.2344,58.0781 L210.2344,59.1719 Q210.2344,60.4063 211.125,61.2344 Q212.0156,62.0469 213.6094,62.0469 Q214.5469,62.0469 215.2031,61.7969 Q215.5938,61.6406 216.0156,61.2031 Q216.2813,60.9375 216.4219,60.8594 Q216.5781,60.7813 216.7813,60.7813 Q217.1094,60.7813 217.3594,61.0469 Q217.625,61.2969 217.625,61.6406 Q217.625,61.9844 217.2813,62.3906 Q216.7813,62.9688 215.9844,63.2969 Q214.9063,63.75 213.6094,63.75 Q212.0938,63.75 210.8906,63.125 Q209.9063,62.625 209.2188,61.5625 Q208.5313,60.4844 208.5313,59.2031 L208.5313,58.0469 Q208.5313,56.7188 209.1406,55.5781 Q209.7656,54.4219 210.8594,53.8125 Q211.9531,53.1875 213.1875,53.1875 Q213.9219,53.1875 214.5625,53.3594 Q215.2188,53.5156 215.7656,53.875 Z " fill="#000000"/><text fill="#000000" font-family="sans-serif" font-size="12" lengthAdjust="spacing" textLength="120" x="227" y="62.9102">CsvExporterController</text><line style="stroke:#A80036;stroke-width:1.5;" x1="199" x2="349" y1="74" y2="74"/><line style="stroke:#A80036;stroke-width:1.5;" x1="199" x2="349" y1="82" y2="82"/><!--MD5=[2e42295458bb0bec21c9622a623eb29e]
class Time--><rect codeLine="14" fill="#FEFECE" filter="url(#f2u2owijkcjjb)" height="117.1797" id="Time" style="stroke:#A80036;stroke-width:1.5;" width="104" x="2085" y="654.5"/><ellipse cx="2119.8" cy="670.5" fill="#ADD1B2" rx="11" ry="11" style="stroke:#A80036;stroke-width:1.0;"/><path d="M2122.5656,666.375 Q2122.7219,666.1563 2122.9094,666.0469 Q2123.0969,665.9375 2123.3156,665.9375 Q2123.6906,665.9375 2123.925,666.2031 Q2124.1594,666.4531 2124.1594,667.0625 L2124.1594,668.5156 Q2124.1594,669.125 2123.925,669.3906 Q2123.6906,669.6563 2123.3156,669.6563 Q2122.9719,669.6563 2122.7688,669.4531 Q2122.5656,669.2656 2122.4563,668.75 Q2122.4094,668.3906 2122.2219,668.2031 Q2121.8938,667.8281 2121.2844,667.6094 Q2120.675,667.3906 2120.05,667.3906 Q2119.2844,667.3906 2118.6438,667.7188 Q2118.0188,668.0469 2117.5188,668.7969 Q2117.0344,669.5469 2117.0344,670.5781 L2117.0344,671.6719 Q2117.0344,672.9063 2117.925,673.7344 Q2118.8156,674.5469 2120.4094,674.5469 Q2121.3469,674.5469 2122.0031,674.2969 Q2122.3938,674.1406 2122.8156,673.7031 Q2123.0813,673.4375 2123.2219,673.3594 Q2123.3781,673.2813 2123.5813,673.2813 Q2123.9094,673.2813 2124.1594,673.5469 Q2124.425,673.7969 2124.425,674.1406 Q2124.425,674.4844 2124.0813,674.8906 Q2123.5813,675.4688 2122.7844,675.7969 Q2121.7063,676.25 2120.4094,676.25 Q2118.8938,676.25 2117.6906,675.625 Q2116.7063,675.125 2116.0188,674.0625 Q2115.3313,672.9844 2115.3313,671.7031 L2115.3313,670.5469 Q2115.3313,669.2188 2115.9406,668.0781 Q2116.5656,666.9219 2117.6594,666.3125 Q2118.7531,665.6875 2119.9875,665.6875 Q2120.7219,665.6875 2121.3625,665.8594 Q2122.0188,666.0156 2122.5656,666.375 Z " fill="#000000"/><text fill="#000000" font-family="sans-serif" font-size="12" lengthAdjust="spacing" textLength="28" x="2138.2" y="675.4102">Time</text><line style="stroke:#A80036;stroke-width:1.5;" x1="2086" x2="2188" y1="686.5" y2="686.5"/><text fill="#000000" font-family="sans-serif" font-size="11" lengthAdjust="spacing" textLength="43" x="2091" y="701.9189">-hour: int</text><text fill="#000000" font-family="sans-serif" font-size="11" lengthAdjust="spacing" textLength="52" x="2091" y="715.7549">-minute: int</text><line style="stroke:#A80036;stroke-width:1.5;" x1="2086" x2="2188" y1="722.1719" y2="722.1719"/><text fill="#000000" font-family="sans-serif" font-size="11" lengthAdjust="spacing" textLength="92" x="2091" y="737.5908">+Time(hour,minute)</text><text fill="#000000" font-family="sans-serif" font-size="11" lengthAdjust="spacing" textLength="0" x="2094" y="751.4268"/><text fill="#000000" font-family="sans-serif" font-size="11" lengthAdjust="spacing" textLength="55" x="2091" y="765.2627">+Time(time)</text><!--MD5=[2d747de469dbc0394b69e35f75ac2f46]
class CsvExportersUI--><rect fill="#FEFECE" filter="url(#f2u2owijkcjjb)" height="48" id="CsvExportersUI" style="stroke:#A80036;stroke-width:1.5;" width="117" x="1639.5" y="42"/><ellipse cx="1654.5" cy="58" fill="#ADD1B2" rx="11" ry="11" style="stroke:#A80036;stroke-width:1.0;"/><path d="M1657.2656,53.875 Q1657.4219,53.6563 1657.6094,53.5469 Q1657.7969,53.4375 1658.0156,53.4375 Q1658.3906,53.4375 1658.625,53.7031 Q1658.8594,53.9531 1658.8594,54.5625 L1658.8594,56.0156 Q1658.8594,56.625 1658.625,56.8906 Q1658.3906,57.1563 1658.0156,57.1563 Q1657.6719,57.1563 1657.4688,56.9531 Q1657.2656,56.7656 1657.1563,56.25 Q1657.1094,55.8906 1656.9219,55.7031 Q1656.5938,55.3281 1655.9844,55.1094 Q1655.375,54.8906 1654.75,54.8906 Q1653.9844,54.8906 1653.3438,55.2188 Q1652.7188,55.5469 1652.2188,56.2969 Q1651.7344,57.0469 1651.7344,58.0781 L1651.7344,59.1719 Q1651.7344,60.4063 1652.625,61.2344 Q1653.5156,62.0469 1655.1094,62.0469 Q1656.0469,62.0469 1656.7031,61.7969 Q1657.0938,61.6406 1657.5156,61.2031 Q1657.7813,60.9375 1657.9219,60.8594 Q1658.0781,60.7813 1658.2813,60.7813 Q1658.6094,60.7813 1658.8594,61.0469 Q1659.125,61.2969 1659.125,61.6406 Q1659.125,61.9844 1658.7813,62.3906 Q1658.2813,62.9688 1657.4844,63.2969 Q1656.4063,63.75 1655.1094,63.75 Q1653.5938,63.75 1652.3906,63.125 Q1651.4063,62.625 1650.7188,61.5625 Q1650.0313,60.4844 1650.0313,59.2031 L1650.0313,58.0469 Q1650.0313,56.7188 1650.6406,55.5781 Q1651.2656,54.4219 1652.3594,53.8125 Q1653.4531,53.1875 1654.6875,53.1875 Q1655.4219,53.1875 1656.0625,53.3594 Q1656.7188,53.5156 1657.2656,53.875 Z " fill="#000000"/><text fill="#000000" font-family="sans-serif" font-size="12" lengthAdjust="spacing" textLength="85" x="1668.5" y="62.9102">CsvExportersUI</text><line style="stroke:#A80036;stroke-width:1.5;" x1="1640.5" x2="1755.5" y1="74" y2="74"/><line style="stroke:#A80036;stroke-width:1.5;" x1="1640.5" x2="1755.5" y1="82" y2="82"/><!--MD5=[62a2670d0b91c968d0b3a57acda235f1]
class CsvExportersController--><rect fill="#FEFECE" filter="url(#f2u2owijkcjjb)" height="48" id="CsvExportersController" style="stroke:#A80036;stroke-width:1.5;" width="159" x="1618.5" y="153"/><ellipse cx="1633.5" cy="169" fill="#ADD1B2" rx="11" ry="11" style="stroke:#A80036;stroke-width:1.0;"/><path d="M1636.2656,164.875 Q1636.4219,164.6563 1636.6094,164.5469 Q1636.7969,164.4375 1637.0156,164.4375 Q1637.3906,164.4375 1637.625,164.7031 Q1637.8594,164.9531 1637.8594,165.5625 L1637.8594,167.0156 Q1637.8594,167.625 1637.625,167.8906 Q1637.3906,168.1563 1637.0156,168.1563 Q1636.6719,168.1563 1636.4688,167.9531 Q1636.2656,167.7656 1636.1563,167.25 Q1636.1094,166.8906 1635.9219,166.7031 Q1635.5938,166.3281 1634.9844,166.1094 Q1634.375,165.8906 1633.75,165.8906 Q1632.9844,165.8906 1632.3438,166.2188 Q1631.7188,166.5469 1631.2188,167.2969 Q1630.7344,168.0469 1630.7344,169.0781 L1630.7344,170.1719 Q1630.7344,171.4063 1631.625,172.2344 Q1632.5156,173.0469 1634.1094,173.0469 Q1635.0469,173.0469 1635.7031,172.7969 Q1636.0938,172.6406 1636.5156,172.2031 Q1636.7813,171.9375 1636.9219,171.8594 Q1637.0781,171.7813 1637.2813,171.7813 Q1637.6094,171.7813 1637.8594,172.0469 Q1638.125,172.2969 1638.125,172.6406 Q1638.125,172.9844 1637.7813,173.3906 Q1637.2813,173.9688 1636.4844,174.2969 Q1635.4063,174.75 1634.1094,174.75 Q1632.5938,174.75 1631.3906,174.125 Q1630.4063,173.625 1629.7188,172.5625 Q1629.0313,171.4844 1629.0313,170.2031 L1629.0313,169.0469 Q1629.0313,167.7188 1629.6406,166.5781 Q1630.2656,165.4219 1631.3594,164.8125 Q1632.4531,164.1875 1633.6875,164.1875 Q1634.4219,164.1875 1635.0625,164.3594 Q1635.7188,164.5156 1636.2656,164.875 Z " fill="#000000"/><text fill="#000000" font-family="sans-serif" font-size="12" lengthAdjust="spacing" textLength="127" x="1647.5" y="173.9102">CsvExportersController</text><line style="stroke:#A80036;stroke-width:1.5;" x1="1619.5" x2="1776.5" y1="185" y2="185"/><line style="stroke:#A80036;stroke-width:1.5;" x1="1619.5" x2="1776.5" y1="193" y2="193"/><!--MD5=[d4d15ea54b9448c0296933a9a5d3611f]
class CsvExporterData--><rect codeLine="28" fill="#FEFECE" filter="url(#f2u2owijkcjjb)" height="103.3438" id="CsvExporterData" style="stroke:#A80036;stroke-width:1.5;" width="124" x="1694" y="1076"/><ellipse cx="1709" cy="1092" fill="#ADD1B2" rx="11" ry="11" style="stroke:#A80036;stroke-width:1.0;"/><path d="M1711.7656,1087.875 Q1711.9219,1087.6563 1712.1094,1087.5469 Q1712.2969,1087.4375 1712.5156,1087.4375 Q1712.8906,1087.4375 1713.125,1087.7031 Q1713.3594,1087.9531 1713.3594,1088.5625 L1713.3594,1090.0156 Q1713.3594,1090.625 1713.125,1090.8906 Q1712.8906,1091.1563 1712.5156,1091.1563 Q1712.1719,1091.1563 1711.9688,1090.9531 Q1711.7656,1090.7656 1711.6563,1090.25 Q1711.6094,1089.8906 1711.4219,1089.7031 Q1711.0938,1089.3281 1710.4844,1089.1094 Q1709.875,1088.8906 1709.25,1088.8906 Q1708.4844,1088.8906 1707.8438,1089.2188 Q1707.2188,1089.5469 1706.7188,1090.2969 Q1706.2344,1091.0469 1706.2344,1092.0781 L1706.2344,1093.1719 Q1706.2344,1094.4063 1707.125,1095.2344 Q1708.0156,1096.0469 1709.6094,1096.0469 Q1710.5469,1096.0469 1711.2031,1095.7969 Q1711.5938,1095.6406 1712.0156,1095.2031 Q1712.2813,1094.9375 1712.4219,1094.8594 Q1712.5781,1094.7813 1712.7813,1094.7813 Q1713.1094,1094.7813 1713.3594,1095.0469 Q1713.625,1095.2969 1713.625,1095.6406 Q1713.625,1095.9844 1713.2813,1096.3906 Q1712.7813,1096.9688 1711.9844,1097.2969 Q1710.9063,1097.75 1709.6094,1097.75 Q1708.0938,1097.75 1706.8906,1097.125 Q1705.9063,1096.625 1705.2188,1095.5625 Q1704.5313,1094.4844 1704.5313,1093.2031 L1704.5313,1092.0469 Q1704.5313,1090.7188 1705.1406,1089.5781 Q1705.7656,1088.4219 1706.8594,1087.8125 Q1707.9531,1087.1875 1709.1875,1087.1875 Q1709.9219,1087.1875 1710.5625,1087.3594 Q1711.2188,1087.5156 1711.7656,1087.875 Z " fill="#000000"/><text fill="#000000" font-family="sans-serif" font-size="12" lengthAdjust="spacing" textLength="92" x="1723" y="1096.9102">CsvExporterData</text><line style="stroke:#A80036;stroke-width:1.5;" x1="1695" x2="1817" y1="1108" y2="1108"/><line style="stroke:#A80036;stroke-width:1.5;" x1="1695" x2="1817" y1="1116" y2="1116"/><text fill="#000000" font-family="sans-serif" font-size="11" lengthAdjust="spacing" textLength="96" x="1700" y="1131.4189">+getVacAdminList()</text><text fill="#000000" font-family="sans-serif" font-size="11" lengthAdjust="spacing" textLength="91" x="1700" y="1145.2549">+getSnsUserAge()</text><text fill="#000000" font-family="sans-serif" font-size="11" lengthAdjust="spacing" textLength="69" x="1700" y="1159.0908">+getVaccine()</text><text fill="#000000" font-family="sans-serif" font-size="11" lengthAdjust="spacing" textLength="73" x="1700" y="1172.9268">+getVacType()</text><!--MD5=[2f5d6e01fe75439dfc07f7d52cf7e59d]
class CsvExporter--><rect codeLine="38" fill="#FEFECE" filter="url(#f2u2owijkcjjb)" height="48" id="CsvExporter" style="stroke:#A80036;stroke-width:1.5;" width="98" x="1446" y="905"/><ellipse cx="1461" cy="921" fill="#ADD1B2" rx="11" ry="11" style="stroke:#A80036;stroke-width:1.0;"/><path d="M1463.7656,916.875 Q1463.9219,916.6563 1464.1094,916.5469 Q1464.2969,916.4375 1464.5156,916.4375 Q1464.8906,916.4375 1465.125,916.7031 Q1465.3594,916.9531 1465.3594,917.5625 L1465.3594,919.0156 Q1465.3594,919.625 1465.125,919.8906 Q1464.8906,920.1563 1464.5156,920.1563 Q1464.1719,920.1563 1463.9688,919.9531 Q1463.7656,919.7656 1463.6563,919.25 Q1463.6094,918.8906 1463.4219,918.7031 Q1463.0938,918.3281 1462.4844,918.1094 Q1461.875,917.8906 1461.25,917.8906 Q1460.4844,917.8906 1459.8438,918.2188 Q1459.2188,918.5469 1458.7188,919.2969 Q1458.2344,920.0469 1458.2344,921.0781 L1458.2344,922.1719 Q1458.2344,923.4063 1459.125,924.2344 Q1460.0156,925.0469 1461.6094,925.0469 Q1462.5469,925.0469 1463.2031,924.7969 Q1463.5938,924.6406 1464.0156,924.2031 Q1464.2813,923.9375 1464.4219,923.8594 Q1464.5781,923.7813 1464.7813,923.7813 Q1465.1094,923.7813 1465.3594,924.0469 Q1465.625,924.2969 1465.625,924.6406 Q1465.625,924.9844 1465.2813,925.3906 Q1464.7813,925.9688 1463.9844,926.2969 Q1462.9063,926.75 1461.6094,926.75 Q1460.0938,926.75 1458.8906,926.125 Q1457.9063,925.625 1457.2188,924.5625 Q1456.5313,923.4844 1456.5313,922.2031 L1456.5313,921.0469 Q1456.5313,919.7188 1457.1406,918.5781 Q1457.7656,917.4219 1458.8594,916.8125 Q1459.9531,916.1875 1461.1875,916.1875 Q1461.9219,916.1875 1462.5625,916.3594 Q1463.2188,916.5156 1463.7656,916.875 Z " fill="#000000"/><text fill="#000000" font-family="sans-serif" font-size="12" lengthAdjust="spacing" textLength="66" x="1475" y="925.9102">CsvExporter</text><line style="stroke:#A80036;stroke-width:1.5;" x1="1447" x2="1543" y1="937" y2="937"/><line style="stroke:#A80036;stroke-width:1.5;" x1="1447" x2="1543" y1="945" y2="945"/><!--MD5=[107cfa23aa516ff83d0cf17a6f9fe7ba]
class VaccineAdministration--><rect codeLine="40" fill="#FEFECE" filter="url(#f2u2owijkcjjb)" height="117.1797" id="VaccineAdministration" style="stroke:#A80036;stroke-width:1.5;" width="154" x="748" y="376.5"/><ellipse cx="763" cy="392.5" fill="#ADD1B2" rx="11" ry="11" style="stroke:#A80036;stroke-width:1.0;"/><path d="M765.7656,388.375 Q765.9219,388.1563 766.1094,388.0469 Q766.2969,387.9375 766.5156,387.9375 Q766.8906,387.9375 767.125,388.2031 Q767.3594,388.4531 767.3594,389.0625 L767.3594,390.5156 Q767.3594,391.125 767.125,391.3906 Q766.8906,391.6563 766.5156,391.6563 Q766.1719,391.6563 765.9688,391.4531 Q765.7656,391.2656 765.6563,390.75 Q765.6094,390.3906 765.4219,390.2031 Q765.0938,389.8281 764.4844,389.6094 Q763.875,389.3906 763.25,389.3906 Q762.4844,389.3906 761.8438,389.7188 Q761.2188,390.0469 760.7188,390.7969 Q760.2344,391.5469 760.2344,392.5781 L760.2344,393.6719 Q760.2344,394.9063 761.125,395.7344 Q762.0156,396.5469 763.6094,396.5469 Q764.5469,396.5469 765.2031,396.2969 Q765.5938,396.1406 766.0156,395.7031 Q766.2813,395.4375 766.4219,395.3594 Q766.5781,395.2813 766.7813,395.2813 Q767.1094,395.2813 767.3594,395.5469 Q767.625,395.7969 767.625,396.1406 Q767.625,396.4844 767.2813,396.8906 Q766.7813,397.4688 765.9844,397.7969 Q764.9063,398.25 763.6094,398.25 Q762.0938,398.25 760.8906,397.625 Q759.9063,397.125 759.2188,396.0625 Q758.5313,394.9844 758.5313,393.7031 L758.5313,392.5469 Q758.5313,391.2188 759.1406,390.0781 Q759.7656,388.9219 760.8594,388.3125 Q761.9531,387.6875 763.1875,387.6875 Q763.9219,387.6875 764.5625,387.8594 Q765.2188,388.0156 765.7656,388.375 Z " fill="#000000"/><text fill="#000000" font-family="sans-serif" font-size="12" lengthAdjust="spacing" textLength="122" x="777" y="397.4102">VaccineAdministration</text><line style="stroke:#A80036;stroke-width:1.5;" x1="749" x2="901" y1="408.5" y2="408.5"/><text fill="#000000" font-family="sans-serif" font-size="11" lengthAdjust="spacing" textLength="95" x="754" y="423.9189">-snsUser: SNSUser</text><text fill="#000000" font-family="sans-serif" font-size="11" lengthAdjust="spacing" textLength="88" x="754" y="437.7549">-vaccine: Vaccine</text><text fill="#000000" font-family="sans-serif" font-size="11" lengthAdjust="spacing" textLength="45" x="754" y="451.5908">-dose: int</text><text fill="#000000" font-family="sans-serif" font-size="11" lengthAdjust="spacing" textLength="86" x="754" y="465.4268">-lotNumber: String</text><text fill="#000000" font-family="sans-serif" font-size="11" lengthAdjust="spacing" textLength="52" x="754" y="479.2627">-date: date</text><line style="stroke:#A80036;stroke-width:1.5;" x1="749" x2="901" y1="485.6797" y2="485.6797"/><!--MD5=[02e4b9b7573f1156f41e60aa5b4e25a4]
class Company--><rect codeLine="48" fill="#FEFECE" filter="url(#f2u2owijkcjjb)" height="61.8359" id="Company" style="stroke:#A80036;stroke-width:1.5;" width="97" x="1649.5" y="404"/><ellipse cx="1669.9" cy="420" fill="#ADD1B2" rx="11" ry="11" style="stroke:#A80036;stroke-width:1.0;"/><path d="M1672.6656,415.875 Q1672.8219,415.6563 1673.0094,415.5469 Q1673.1969,415.4375 1673.4156,415.4375 Q1673.7906,415.4375 1674.025,415.7031 Q1674.2594,415.9531 1674.2594,416.5625 L1674.2594,418.0156 Q1674.2594,418.625 1674.025,418.8906 Q1673.7906,419.1563 1673.4156,419.1563 Q1673.0719,419.1563 1672.8688,418.9531 Q1672.6656,418.7656 1672.5563,418.25 Q1672.5094,417.8906 1672.3219,417.7031 Q1671.9938,417.3281 1671.3844,417.1094 Q1670.775,416.8906 1670.15,416.8906 Q1669.3844,416.8906 1668.7438,417.2188 Q1668.1188,417.5469 1667.6188,418.2969 Q1667.1344,419.0469 1667.1344,420.0781 L1667.1344,421.1719 Q1667.1344,422.4063 1668.025,423.2344 Q1668.9156,424.0469 1670.5094,424.0469 Q1671.4469,424.0469 1672.1031,423.7969 Q1672.4938,423.6406 1672.9156,423.2031 Q1673.1813,422.9375 1673.3219,422.8594 Q1673.4781,422.7813 1673.6813,422.7813 Q1674.0094,422.7813 1674.2594,423.0469 Q1674.525,423.2969 1674.525,423.6406 Q1674.525,423.9844 1674.1813,424.3906 Q1673.6813,424.9688 1672.8844,425.2969 Q1671.8063,425.75 1670.5094,425.75 Q1668.9938,425.75 1667.7906,425.125 Q1666.8063,424.625 1666.1188,423.5625 Q1665.4313,422.4844 1665.4313,421.2031 L1665.4313,420.0469 Q1665.4313,418.7188 1666.0406,417.5781 Q1666.6656,416.4219 1667.7594,415.8125 Q1668.8531,415.1875 1670.0875,415.1875 Q1670.8219,415.1875 1671.4625,415.3594 Q1672.1188,415.5156 1672.6656,415.875 Z " fill="#000000"/><text fill="#000000" font-family="sans-serif" font-size="12" lengthAdjust="spacing" textLength="53" x="1685.1" y="424.9102">Company</text><line style="stroke:#A80036;stroke-width:1.5;" x1="1650.5" x2="1745.5" y1="436" y2="436"/><line style="stroke:#A80036;stroke-width:1.5;" x1="1650.5" x2="1745.5" y1="444" y2="444"/><text fill="#000000" font-family="sans-serif" font-size="11" lengthAdjust="spacing" textLength="85" x="1655.5" y="459.4189">+getDesignation()</text><!--MD5=[de60e6d4f424ae4d0522096f76a59010]
class VaccinationCenter--><rect codeLine="52" fill="#FEFECE" filter="url(#f2u2owijkcjjb)" height="214.0313" id="VaccinationCenter" style="stroke:#A80036;stroke-width:1.5;" width="677" x="937.5" y="328"/><ellipse cx="1221.75" cy="344" fill="#ADD1B2" rx="11" ry="11" style="stroke:#A80036;stroke-width:1.0;"/><path d="M1224.5156,339.875 Q1224.6719,339.6563 1224.8594,339.5469 Q1225.0469,339.4375 1225.2656,339.4375 Q1225.6406,339.4375 1225.875,339.7031 Q1226.1094,339.9531 1226.1094,340.5625 L1226.1094,342.0156 Q1226.1094,342.625 1225.875,342.8906 Q1225.6406,343.1563 1225.2656,343.1563 Q1224.9219,343.1563 1224.7188,342.9531 Q1224.5156,342.7656 1224.4063,342.25 Q1224.3594,341.8906 1224.1719,341.7031 Q1223.8438,341.3281 1223.2344,341.1094 Q1222.625,340.8906 1222,340.8906 Q1221.2344,340.8906 1220.5938,341.2188 Q1219.9688,341.5469 1219.4688,342.2969 Q1218.9844,343.0469 1218.9844,344.0781 L1218.9844,345.1719 Q1218.9844,346.4063 1219.875,347.2344 Q1220.7656,348.0469 1222.3594,348.0469 Q1223.2969,348.0469 1223.9531,347.7969 Q1224.3438,347.6406 1224.7656,347.2031 Q1225.0313,346.9375 1225.1719,346.8594 Q1225.3281,346.7813 1225.5313,346.7813 Q1225.8594,346.7813 1226.1094,347.0469 Q1226.375,347.2969 1226.375,347.6406 Q1226.375,347.9844 1226.0313,348.3906 Q1225.5313,348.9688 1224.7344,349.2969 Q1223.6563,349.75 1222.3594,349.75 Q1220.8438,349.75 1219.6406,349.125 Q1218.6563,348.625 1217.9688,347.5625 Q1217.2813,346.4844 1217.2813,345.2031 L1217.2813,344.0469 Q1217.2813,342.7188 1217.8906,341.5781 Q1218.5156,340.4219 1219.6094,339.8125 Q1220.7031,339.1875 1221.9375,339.1875 Q1222.6719,339.1875 1223.3125,339.3594 Q1223.9688,339.5156 1224.5156,339.875 Z " fill="#000000"/><text fill="#000000" font-family="sans-serif" font-size="12" lengthAdjust="spacing" textLength="100" x="1242.25" y="348.9102">VaccinationCenter</text><line style="stroke:#A80036;stroke-width:1.5;" x1="938.5" x2="1613.5" y1="360" y2="360"/><text fill="#000000" font-family="sans-serif" font-size="11" lengthAdjust="spacing" textLength="64" x="943.5" y="375.4189">-name: String</text><text fill="#000000" font-family="sans-serif" font-size="11" lengthAdjust="spacing" textLength="78" x="943.5" y="389.2549">-address: String</text><text fill="#000000" font-family="sans-serif" font-size="11" lengthAdjust="spacing" textLength="104" x="943.5" y="403.0908">-emailAddress: String</text><text fill="#000000" font-family="sans-serif" font-size="11" lengthAdjust="spacing" textLength="105" x="943.5" y="416.9268">-phoneNumber: String</text><text fill="#000000" font-family="sans-serif" font-size="11" lengthAdjust="spacing" textLength="91" x="943.5" y="430.7627">-faxNumber: String</text><text fill="#000000" font-family="sans-serif" font-size="11" lengthAdjust="spacing" textLength="119" x="943.5" y="444.5986">-websiteAddress: String</text><text fill="#000000" font-family="sans-serif" font-size="11" lengthAdjust="spacing" textLength="105" x="943.5" y="458.4346">-openingHours: String</text><text fill="#000000" font-family="sans-serif" font-size="11" lengthAdjust="spacing" textLength="101" x="943.5" y="472.2705">-closingHours: String</text><text fill="#000000" font-family="sans-serif" font-size="11" lengthAdjust="spacing" textLength="78" x="943.5" y="486.1064">-slotDuration: int</text><text fill="#000000" font-family="sans-serif" font-size="11" lengthAdjust="spacing" textLength="145" x="943.5" y="499.9424">-maximumVaccinesPerSlot: int</text><text fill="#000000" font-family="sans-serif" font-size="11" lengthAdjust="spacing" textLength="59" x="943.5" y="513.7783">-coordinator</text><line style="stroke:#A80036;stroke-width:1.5;" x1="938.5" x2="1613.5" y1="520.1953" y2="520.1953"/><text fill="#000000" font-family="sans-serif" font-size="11" lengthAdjust="spacing" textLength="665" x="943.5" y="535.6143">+VaccinationCenter(name,address,emailAddress,phoneNumber,faxNumber,websiteAddress,openingHours,closingHours,slot,coordinator)</text><!--MD5=[7421f545a0d8420c5bec41e74b387d9c]
class Employee--><rect codeLine="69" fill="#FEFECE" filter="url(#f2u2owijkcjjb)" height="158.6875" id="Employee" style="stroke:#A80036;stroke-width:1.5;" width="324" x="1202" y="633.5"/><ellipse cx="1332.25" cy="649.5" fill="#ADD1B2" rx="11" ry="11" style="stroke:#A80036;stroke-width:1.0;"/><path d="M1335.0156,645.375 Q1335.1719,645.1563 1335.3594,645.0469 Q1335.5469,644.9375 1335.7656,644.9375 Q1336.1406,644.9375 1336.375,645.2031 Q1336.6094,645.4531 1336.6094,646.0625 L1336.6094,647.5156 Q1336.6094,648.125 1336.375,648.3906 Q1336.1406,648.6563 1335.7656,648.6563 Q1335.4219,648.6563 1335.2188,648.4531 Q1335.0156,648.2656 1334.9063,647.75 Q1334.8594,647.3906 1334.6719,647.2031 Q1334.3438,646.8281 1333.7344,646.6094 Q1333.125,646.3906 1332.5,646.3906 Q1331.7344,646.3906 1331.0938,646.7188 Q1330.4688,647.0469 1329.9688,647.7969 Q1329.4844,648.5469 1329.4844,649.5781 L1329.4844,650.6719 Q1329.4844,651.9063 1330.375,652.7344 Q1331.2656,653.5469 1332.8594,653.5469 Q1333.7969,653.5469 1334.4531,653.2969 Q1334.8438,653.1406 1335.2656,652.7031 Q1335.5313,652.4375 1335.6719,652.3594 Q1335.8281,652.2813 1336.0313,652.2813 Q1336.3594,652.2813 1336.6094,652.5469 Q1336.875,652.7969 1336.875,653.1406 Q1336.875,653.4844 1336.5313,653.8906 Q1336.0313,654.4688 1335.2344,654.7969 Q1334.1563,655.25 1332.8594,655.25 Q1331.3438,655.25 1330.1406,654.625 Q1329.1563,654.125 1328.4688,653.0625 Q1327.7813,651.9844 1327.7813,650.7031 L1327.7813,649.5469 Q1327.7813,648.2188 1328.3906,647.0781 Q1329.0156,645.9219 1330.1094,645.3125 Q1331.2031,644.6875 1332.4375,644.6875 Q1333.1719,644.6875 1333.8125,644.8594 Q1334.4688,645.0156 1335.0156,645.375 Z " fill="#000000"/><text fill="#000000" font-family="sans-serif" font-size="12" lengthAdjust="spacing" textLength="55" x="1352.75" y="654.4102">Employee</text><line style="stroke:#A80036;stroke-width:1.5;" x1="1203" x2="1525" y1="665.5" y2="665.5"/><text fill="#000000" font-family="sans-serif" font-size="11" lengthAdjust="spacing" textLength="46" x="1208" y="680.9189">-id: String</text><text fill="#000000" font-family="sans-serif" font-size="11" lengthAdjust="spacing" textLength="64" x="1208" y="694.7549">-name: String</text><text fill="#000000" font-family="sans-serif" font-size="11" lengthAdjust="spacing" textLength="62" x="1208" y="708.5908">-email: String</text><text fill="#000000" font-family="sans-serif" font-size="11" lengthAdjust="spacing" textLength="68" x="1208" y="722.4268">-phone: String</text><text fill="#000000" font-family="sans-serif" font-size="11" lengthAdjust="spacing" textLength="78" x="1208" y="736.2627">-address: String</text><text fill="#000000" font-family="sans-serif" font-size="11" lengthAdjust="spacing" textLength="112" x="1208" y="750.0986">-citizenCardNumber: int</text><text fill="#000000" font-family="sans-serif" font-size="11" lengthAdjust="spacing" textLength="64" x="1208" y="763.9346">-roleId: String</text><line style="stroke:#A80036;stroke-width:1.5;" x1="1203" x2="1525" y1="770.3516" y2="770.3516"/><text fill="#000000" font-family="sans-serif" font-size="11" lengthAdjust="spacing" textLength="312" x="1208" y="785.7705">+Employee(name,email,phone,address,citizenCardNumber,roleId)</text><!--MD5=[45c6380d22fb72521f5065026b277fb9]
class Slot--><rect codeLine="81" fill="#FEFECE" filter="url(#f2u2owijkcjjb)" height="89.5078" id="Slot" style="stroke:#A80036;stroke-width:1.5;" width="186" x="1561" y="668"/><ellipse cx="1639.25" cy="684" fill="#ADD1B2" rx="11" ry="11" style="stroke:#A80036;stroke-width:1.0;"/><path d="M1642.0156,679.875 Q1642.1719,679.6563 1642.3594,679.5469 Q1642.5469,679.4375 1642.7656,679.4375 Q1643.1406,679.4375 1643.375,679.7031 Q1643.6094,679.9531 1643.6094,680.5625 L1643.6094,682.0156 Q1643.6094,682.625 1643.375,682.8906 Q1643.1406,683.1563 1642.7656,683.1563 Q1642.4219,683.1563 1642.2188,682.9531 Q1642.0156,682.7656 1641.9063,682.25 Q1641.8594,681.8906 1641.6719,681.7031 Q1641.3438,681.3281 1640.7344,681.1094 Q1640.125,680.8906 1639.5,680.8906 Q1638.7344,680.8906 1638.0938,681.2188 Q1637.4688,681.5469 1636.9688,682.2969 Q1636.4844,683.0469 1636.4844,684.0781 L1636.4844,685.1719 Q1636.4844,686.4063 1637.375,687.2344 Q1638.2656,688.0469 1639.8594,688.0469 Q1640.7969,688.0469 1641.4531,687.7969 Q1641.8438,687.6406 1642.2656,687.2031 Q1642.5313,686.9375 1642.6719,686.8594 Q1642.8281,686.7813 1643.0313,686.7813 Q1643.3594,686.7813 1643.6094,687.0469 Q1643.875,687.2969 1643.875,687.6406 Q1643.875,687.9844 1643.5313,688.3906 Q1643.0313,688.9688 1642.2344,689.2969 Q1641.1563,689.75 1639.8594,689.75 Q1638.3438,689.75 1637.1406,689.125 Q1636.1563,688.625 1635.4688,687.5625 Q1634.7813,686.4844 1634.7813,685.2031 L1634.7813,684.0469 Q1634.7813,682.7188 1635.3906,681.5781 Q1636.0156,680.4219 1637.1094,679.8125 Q1638.2031,679.1875 1639.4375,679.1875 Q1640.1719,679.1875 1640.8125,679.3594 Q1641.4688,679.5156 1642.0156,679.875 Z " fill="#000000"/><text fill="#000000" font-family="sans-serif" font-size="12" lengthAdjust="spacing" textLength="21" x="1659.75" y="688.9102">Slot</text><line style="stroke:#A80036;stroke-width:1.5;" x1="1562" x2="1746" y1="700" y2="700"/><text fill="#000000" font-family="sans-serif" font-size="11" lengthAdjust="spacing" textLength="60" x="1567" y="715.4189">-duration: int</text><text fill="#000000" font-family="sans-serif" font-size="11" lengthAdjust="spacing" textLength="121" x="1567" y="729.2549">-maxVaccinesPerSlot: int</text><line style="stroke:#A80036;stroke-width:1.5;" x1="1562" x2="1746" y1="735.6719" y2="735.6719"/><text fill="#000000" font-family="sans-serif" font-size="11" lengthAdjust="spacing" textLength="174" x="1567" y="751.0908">+Slot(duration,maxVaccinesPerSlot)</text><!--MD5=[19e445fc4d3b48519cbe33da05496394]
class Vaccine--><rect codeLine="88" fill="#FEFECE" filter="url(#f2u2owijkcjjb)" height="117.1797" id="Vaccine" style="stroke:#A80036;stroke-width:1.5;" width="225" x="454.5" y="654.5"/><ellipse cx="541.25" cy="670.5" fill="#ADD1B2" rx="11" ry="11" style="stroke:#A80036;stroke-width:1.0;"/><path d="M544.0156,666.375 Q544.1719,666.1563 544.3594,666.0469 Q544.5469,665.9375 544.7656,665.9375 Q545.1406,665.9375 545.375,666.2031 Q545.6094,666.4531 545.6094,667.0625 L545.6094,668.5156 Q545.6094,669.125 545.375,669.3906 Q545.1406,669.6563 544.7656,669.6563 Q544.4219,669.6563 544.2188,669.4531 Q544.0156,669.2656 543.9063,668.75 Q543.8594,668.3906 543.6719,668.2031 Q543.3438,667.8281 542.7344,667.6094 Q542.125,667.3906 541.5,667.3906 Q540.7344,667.3906 540.0938,667.7188 Q539.4688,668.0469 538.9688,668.7969 Q538.4844,669.5469 538.4844,670.5781 L538.4844,671.6719 Q538.4844,672.9063 539.375,673.7344 Q540.2656,674.5469 541.8594,674.5469 Q542.7969,674.5469 543.4531,674.2969 Q543.8438,674.1406 544.2656,673.7031 Q544.5313,673.4375 544.6719,673.3594 Q544.8281,673.2813 545.0313,673.2813 Q545.3594,673.2813 545.6094,673.5469 Q545.875,673.7969 545.875,674.1406 Q545.875,674.4844 545.5313,674.8906 Q545.0313,675.4688 544.2344,675.7969 Q543.1563,676.25 541.8594,676.25 Q540.3438,676.25 539.1406,675.625 Q538.1563,675.125 537.4688,674.0625 Q536.7813,672.9844 536.7813,671.7031 L536.7813,670.5469 Q536.7813,669.2188 537.3906,668.0781 Q538.0156,666.9219 539.1094,666.3125 Q540.2031,665.6875 541.4375,665.6875 Q542.1719,665.6875 542.8125,665.8594 Q543.4688,666.0156 544.0156,666.375 Z " fill="#000000"/><text fill="#000000" font-family="sans-serif" font-size="12" lengthAdjust="spacing" textLength="43" x="561.75" y="675.4102">Vaccine</text><line style="stroke:#A80036;stroke-width:1.5;" x1="455.5" x2="678.5" y1="686.5" y2="686.5"/><text fill="#000000" font-family="sans-serif" font-size="11" lengthAdjust="spacing" textLength="96" x="460.5" y="701.9189">-designation : String</text><text fill="#000000" font-family="sans-serif" font-size="11" lengthAdjust="spacing" textLength="69" x="460.5" y="715.7549">-brand : String</text><text fill="#000000" font-family="sans-serif" font-size="11" lengthAdjust="spacing" textLength="49" x="460.5" y="729.5908">-id : String</text><text fill="#000000" font-family="sans-serif" font-size="11" lengthAdjust="spacing" textLength="119" x="460.5" y="743.4268">-vacType : VaccineType</text><line style="stroke:#A80036;stroke-width:1.5;" x1="455.5" x2="678.5" y1="749.8438" y2="749.8438"/><text fill="#000000" font-family="sans-serif" font-size="11" lengthAdjust="spacing" textLength="213" x="460.5" y="765.2627">+Vaccine(designation, id, brand, vacTypeId)</text><!--MD5=[0e501da62322464167c8ec4d233a6b7e]
class VaccineType--><rect codeLine="97" fill="#FEFECE" filter="url(#f2u2owijkcjjb)" height="89.5078" id="VaccineType" style="stroke:#A80036;stroke-width:1.5;" width="101" x="516.5" y="884"/><ellipse cx="531.5" cy="900" fill="#ADD1B2" rx="11" ry="11" style="stroke:#A80036;stroke-width:1.0;"/><path d="M534.2656,895.875 Q534.4219,895.6563 534.6094,895.5469 Q534.7969,895.4375 535.0156,895.4375 Q535.3906,895.4375 535.625,895.7031 Q535.8594,895.9531 535.8594,896.5625 L535.8594,898.0156 Q535.8594,898.625 535.625,898.8906 Q535.3906,899.1563 535.0156,899.1563 Q534.6719,899.1563 534.4688,898.9531 Q534.2656,898.7656 534.1563,898.25 Q534.1094,897.8906 533.9219,897.7031 Q533.5938,897.3281 532.9844,897.1094 Q532.375,896.8906 531.75,896.8906 Q530.9844,896.8906 530.3438,897.2188 Q529.7188,897.5469 529.2188,898.2969 Q528.7344,899.0469 528.7344,900.0781 L528.7344,901.1719 Q528.7344,902.4063 529.625,903.2344 Q530.5156,904.0469 532.1094,904.0469 Q533.0469,904.0469 533.7031,903.7969 Q534.0938,903.6406 534.5156,903.2031 Q534.7813,902.9375 534.9219,902.8594 Q535.0781,902.7813 535.2813,902.7813 Q535.6094,902.7813 535.8594,903.0469 Q536.125,903.2969 536.125,903.6406 Q536.125,903.9844 535.7813,904.3906 Q535.2813,904.9688 534.4844,905.2969 Q533.4063,905.75 532.1094,905.75 Q530.5938,905.75 529.3906,905.125 Q528.4063,904.625 527.7188,903.5625 Q527.0313,902.4844 527.0313,901.2031 L527.0313,900.0469 Q527.0313,898.7188 527.6406,897.5781 Q528.2656,896.4219 529.3594,895.8125 Q530.4531,895.1875 531.6875,895.1875 Q532.4219,895.1875 533.0625,895.3594 Q533.7188,895.5156 534.2656,895.875 Z " fill="#000000"/><text fill="#000000" font-family="sans-serif" font-size="12" lengthAdjust="spacing" textLength="69" x="545.5" y="904.9102">VaccineType</text><line style="stroke:#A80036;stroke-width:1.5;" x1="517.5" x2="616.5" y1="916" y2="916"/><text fill="#000000" font-family="sans-serif" font-size="11" lengthAdjust="spacing" textLength="28" x="522.5" y="931.4189">-code</text><text fill="#000000" font-family="sans-serif" font-size="11" lengthAdjust="spacing" textLength="59" x="522.5" y="945.2549">-designation</text><text fill="#000000" font-family="sans-serif" font-size="11" lengthAdjust="spacing" textLength="57" x="522.5" y="959.0908">-technology</text><line style="stroke:#A80036;stroke-width:1.5;" x1="517.5" x2="616.5" y1="965.5078" y2="965.5078"/><!--MD5=[72be06cc7ae02ccc98efe28a50e62246]
class SNSUser--><rect codeLine="103" fill="#FEFECE" filter="url(#f2u2owijkcjjb)" height="186.3594" id="SNSUser" style="stroke:#A80036;stroke-width:1.5;" width="452" x="715" y="620"/><ellipse cx="910.75" cy="636" fill="#ADD1B2" rx="11" ry="11" style="stroke:#A80036;stroke-width:1.0;"/><path d="M913.5156,631.875 Q913.6719,631.6563 913.8594,631.5469 Q914.0469,631.4375 914.2656,631.4375 Q914.6406,631.4375 914.875,631.7031 Q915.1094,631.9531 915.1094,632.5625 L915.1094,634.0156 Q915.1094,634.625 914.875,634.8906 Q914.6406,635.1563 914.2656,635.1563 Q913.9219,635.1563 913.7188,634.9531 Q913.5156,634.7656 913.4063,634.25 Q913.3594,633.8906 913.1719,633.7031 Q912.8438,633.3281 912.2344,633.1094 Q911.625,632.8906 911,632.8906 Q910.2344,632.8906 909.5938,633.2188 Q908.9688,633.5469 908.4688,634.2969 Q907.9844,635.0469 907.9844,636.0781 L907.9844,637.1719 Q907.9844,638.4063 908.875,639.2344 Q909.7656,640.0469 911.3594,640.0469 Q912.2969,640.0469 912.9531,639.7969 Q913.3438,639.6406 913.7656,639.2031 Q914.0313,638.9375 914.1719,638.8594 Q914.3281,638.7813 914.5313,638.7813 Q914.8594,638.7813 915.1094,639.0469 Q915.375,639.2969 915.375,639.6406 Q915.375,639.9844 915.0313,640.3906 Q914.5313,640.9688 913.7344,641.2969 Q912.6563,641.75 911.3594,641.75 Q909.8438,641.75 908.6406,641.125 Q907.6563,640.625 906.9688,639.5625 Q906.2813,638.4844 906.2813,637.2031 L906.2813,636.0469 Q906.2813,634.7188 906.8906,633.5781 Q907.5156,632.4219 908.6094,631.8125 Q909.7031,631.1875 910.9375,631.1875 Q911.6719,631.1875 912.3125,631.3594 Q912.9688,631.5156 913.5156,631.875 Z " fill="#000000"/><text fill="#000000" font-family="sans-serif" font-size="12" lengthAdjust="spacing" textLength="52" x="931.25" y="640.9102">SNSUser</text><line style="stroke:#A80036;stroke-width:1.5;" x1="716" x2="1166" y1="652" y2="652"/><text fill="#000000" font-family="sans-serif" font-size="11" lengthAdjust="spacing" textLength="92" x="721" y="667.4189">-citizenCard: String</text><text fill="#000000" font-family="sans-serif" font-size="11" lengthAdjust="spacing" textLength="93" x="721" y="681.2549">-snsNumber: String</text><text fill="#000000" font-family="sans-serif" font-size="11" lengthAdjust="spacing" textLength="64" x="721" y="695.0908">-name: String</text><text fill="#000000" font-family="sans-serif" font-size="11" lengthAdjust="spacing" textLength="93" x="721" y="708.9268">-birthDay: Calendar</text><text fill="#000000" font-family="sans-serif" font-size="11" lengthAdjust="spacing" textLength="72" x="721" y="722.7627">-gender: String</text><text fill="#000000" font-family="sans-serif" font-size="11" lengthAdjust="spacing" textLength="105" x="721" y="736.5986">-phoneNumber: String</text><text fill="#000000" font-family="sans-serif" font-size="11" lengthAdjust="spacing" textLength="62" x="721" y="750.4346">-email: String</text><text fill="#000000" font-family="sans-serif" font-size="11" lengthAdjust="spacing" textLength="78" x="721" y="764.2705">-address: String</text><text fill="#000000" font-family="sans-serif" font-size="11" lengthAdjust="spacing" textLength="162" x="721" y="778.1064">-userHealthData : UserHealthData</text><line style="stroke:#A80036;stroke-width:1.5;" x1="716" x2="1166" y1="784.5234" y2="784.5234"/><text fill="#000000" font-family="sans-serif" font-size="11" lengthAdjust="spacing" textLength="440" x="721" y="799.9424">+SNSUser(citizenCard, snsNumber, name, birthDay, gender, phoneNumber, email, address)</text><!--MD5=[a29876ea2f21a6ca48ea477740122fd8]
class VaccinationCenterStore--><rect codeLine="120" fill="#FEFECE" filter="url(#f2u2owijkcjjb)" height="48" id="VaccinationCenterStore" style="stroke:#A80036;stroke-width:1.5;" width="161" x="1819.5" y="689"/><ellipse cx="1834.5" cy="705" fill="#ADD1B2" rx="11" ry="11" style="stroke:#A80036;stroke-width:1.0;"/><path d="M1837.2656,700.875 Q1837.4219,700.6563 1837.6094,700.5469 Q1837.7969,700.4375 1838.0156,700.4375 Q1838.3906,700.4375 1838.625,700.7031 Q1838.8594,700.9531 1838.8594,701.5625 L1838.8594,703.0156 Q1838.8594,703.625 1838.625,703.8906 Q1838.3906,704.1563 1838.0156,704.1563 Q1837.6719,704.1563 1837.4688,703.9531 Q1837.2656,703.7656 1837.1563,703.25 Q1837.1094,702.8906 1836.9219,702.7031 Q1836.5938,702.3281 1835.9844,702.1094 Q1835.375,701.8906 1834.75,701.8906 Q1833.9844,701.8906 1833.3438,702.2188 Q1832.7188,702.5469 1832.2188,703.2969 Q1831.7344,704.0469 1831.7344,705.0781 L1831.7344,706.1719 Q1831.7344,707.4063 1832.625,708.2344 Q1833.5156,709.0469 1835.1094,709.0469 Q1836.0469,709.0469 1836.7031,708.7969 Q1837.0938,708.6406 1837.5156,708.2031 Q1837.7813,707.9375 1837.9219,707.8594 Q1838.0781,707.7813 1838.2813,707.7813 Q1838.6094,707.7813 1838.8594,708.0469 Q1839.125,708.2969 1839.125,708.6406 Q1839.125,708.9844 1838.7813,709.3906 Q1838.2813,709.9688 1837.4844,710.2969 Q1836.4063,710.75 1835.1094,710.75 Q1833.5938,710.75 1832.3906,710.125 Q1831.4063,709.625 1830.7188,708.5625 Q1830.0313,707.4844 1830.0313,706.2031 L1830.0313,705.0469 Q1830.0313,703.7188 1830.6406,702.5781 Q1831.2656,701.4219 1832.3594,700.8125 Q1833.4531,700.1875 1834.6875,700.1875 Q1835.4219,700.1875 1836.0625,700.3594 Q1836.7188,700.5156 1837.2656,700.875 Z " fill="#000000"/><text fill="#000000" font-family="sans-serif" font-size="12" lengthAdjust="spacing" textLength="129" x="1848.5" y="709.9102">VaccinationCenterStore</text><line style="stroke:#A80036;stroke-width:1.5;" x1="1820.5" x2="1979.5" y1="721" y2="721"/><line style="stroke:#A80036;stroke-width:1.5;" x1="1820.5" x2="1979.5" y1="729" y2="729"/><!--MD5=[32135142b5d99c5def15013486ae5f7e]
link CsvExportersUI to CsvExportersController--><path codeLine="128" d="M1698,90.12 C1698,106.88 1698,129.65 1698,147.54 " fill="none" id="CsvExportersUI-to-CsvExportersController" style="stroke:#A80036;stroke-width:1.0;stroke-dasharray:7.0,7.0;"/><polygon fill="#A80036" points="1698,152.92,1702,143.92,1698,147.92,1694,143.92,1698,152.92" style="stroke:#A80036;stroke-width:1.0;"/><!--MD5=[c7b27e88225b2171835d9c8ba797d2b5]
link CsvExportersController to Company--><path codeLine="130" d="M1698,201.17 C1698,246.12 1698,345.41 1698,398.65 " fill="none" id="CsvExportersController-to-Company" style="stroke:#A80036;stroke-width:1.0;stroke-dasharray:7.0,7.0;"/><polygon fill="#A80036" points="1698,403.65,1702,394.65,1698,398.65,1694,394.65,1698,403.65" style="stroke:#A80036;stroke-width:1.0;"/><!--MD5=[bc0d5b4bfe6e1bf0a8fced13bc4bdd47]
link Company to VaccinationCenterStore--><path codeLine="132" d="M1746.71,459.83 C1788.01,482.71 1845.3,521.26 1876,572 C1898.08,608.5 1901.28,659.6 1901.03,688.9 " fill="none" id="Company-VaccinationCenterStore" style="stroke:#A80036;stroke-width:1.0;"/><polygon fill="#000000" points="1891.7936,585.3226,1889.1773,576.1789,1884.3025,579.463,1891.7936,585.3226" style="stroke:#000000;stroke-width:1.0;"/><text fill="#000000" font-family="sans-serif" font-size="13" lengthAdjust="spacing" textLength="37" x="1898" y="586.4951">knows</text><text fill="#000000" font-family="sans-serif" font-size="13" lengthAdjust="spacing" textLength="7" x="1754.3783" y="459.8349">1</text><text fill="#000000" font-family="sans-serif" font-size="13" lengthAdjust="spacing" textLength="7" x="1893.3971" y="678.2145">1</text><!--MD5=[db5fb34fd733ab3677281d60b785e712]
reverse link VaccinationCenter to Employee--><path codeLine="134" d="M1313.88,554.81 C1322.33,581.31 1331.08,608.76 1338.87,633.17 " fill="none" id="VaccinationCenter-backto-Employee" style="stroke:#A80036;stroke-width:1.0;"/><polygon fill="#FFFFFF" points="1309.9,542.31,1307.9085,549.2407,1313.5401,553.7446,1315.5316,546.8139,1309.9,542.31" style="stroke:#A80036;stroke-width:1.0;"/><!--MD5=[91079b08053e6fc6d0a3af85820ed36a]
reverse link VaccinationCenter to Time--><path codeLine="135" d="M1627.72,541.16 C1629.15,541.44 1630.58,541.72 1632,542 C1768.73,568.67 1813.71,522.7 1944,572 C1996.85,592 2048.21,630.47 2084.64,662.03 " fill="none" id="VaccinationCenter-backto-Time" style="stroke:#A80036;stroke-width:1.0;"/><polygon fill="#FFFFFF" points="1614.8,538.51,1619.8792,543.6288,1626.5578,540.909,1621.4785,535.7903,1614.8,538.51" style="stroke:#A80036;stroke-width:1.0;"/><!--MD5=[99cf60c71dc20007695665c9ea3c4eb1]
reverse link VaccinationCenter to Slot--><path codeLine="136" d="M1459.44,549.55 C1488.31,569.09 1517.38,589.79 1544,610.5 C1566.66,628.13 1590.26,649.45 1609.75,667.99 " fill="none" id="VaccinationCenter-backto-Slot" style="stroke:#A80036;stroke-width:1.0;"/><polygon fill="#FFFFFF" points="1448.4,542.12,1451.1512,548.7857,1458.3622,548.8099,1455.6111,542.1442,1448.4,542.12" style="stroke:#A80036;stroke-width:1.0;"/><!--MD5=[09e640553caef1f503445df8eef57be6]
reverse link Vaccine to VaccineType--><path codeLine="138" d="M567,784.81 C567,817.5 567,855.3 567,883.85 " fill="none" id="Vaccine-backto-VaccineType" style="stroke:#A80036;stroke-width:1.0;"/><polygon fill="#FFFFFF" points="567,771.63,563,777.63,567,783.63,571,777.63,567,771.63" style="stroke:#A80036;stroke-width:1.0;"/><!--MD5=[d96ee281cdb1021d3c4ed227c45512e2]
link VaccineAdministration to Vaccine--><path codeLine="140" d="M771.23,493.52 C727.22,540.6 665.26,606.89 621.15,654.08 " fill="none" id="VaccineAdministration-Vaccine" style="stroke:#A80036;stroke-width:1.0;"/><!--MD5=[951a07871a6512bd4f8e62baa1d062ce]
link VaccineAdministration to SNSUser--><path codeLine="141" d="M849.18,493.52 C864.51,530.02 884.7,578.05 902.24,619.79 " fill="none" id="VaccineAdministration-SNSUser" style="stroke:#A80036;stroke-width:1.0;"/><!--MD5=[84342335c23328c062acae650dddc769]
link CsvExporterData to VaccineAdministration--><path codeLine="143" d="M1765.3,1075.76 C1785.38,959.14 1826.27,676.94 1765,610.5 C1637.28,472.01 1088.77,625.72 920,542 C897.75,530.96 878.33,512.26 862.95,493.6 " fill="none" id="CsvExporterData-VaccineAdministration" style="stroke:#A80036;stroke-width:1.0;"/><polygon fill="#000000" points="1794.7985,842.4652,1800.8058,849.8383,1803.9923,844.8992,1794.7985,842.4652" style="stroke:#000000;stroke-width:1.0;"/><text fill="#000000" font-family="sans-serif" font-size="13" lengthAdjust="spacing" textLength="28" x="1808" y="850.4951">uses</text><!--MD5=[d06e2ccc9e88cf251f614dac5c664823]
link CsvExporter to CsvExporterData--><path codeLine="145" d="M1525.71,953.12 C1566.87,984.11 1640.9,1039.85 1693.92,1079.76 " fill="none" id="CsvExporter-CsvExporterData" style="stroke:#A80036;stroke-width:1.0;"/><polygon fill="#000000" points="1618.0055,1012.1685,1623.464,1019.9567,1626.9993,1015.2609,1618.0055,1012.1685" style="stroke:#000000;stroke-width:1.0;"/><text fill="#000000" font-family="sans-serif" font-size="13" lengthAdjust="spacing" textLength="79" x="1631" y="1020.4951">sends data to</text><!--MD5=[81e61372a6ec977ef7c2b853580200b0]
link Employee to CsvExporter--><path codeLine="147" d="M1412.22,792.77 C1436.59,832.58 1464.39,878 1480.78,904.77 " fill="none" id="Employee-CsvExporter" style="stroke:#A80036;stroke-width:1.0;"/><text fill="#000000" font-family="sans-serif" font-size="13" lengthAdjust="spacing" textLength="125" x="1449" y="850.4951">coordinator generates</text><!--MD5=[8c304936b446fd8cea914e03fbadd4b7]
link VaccinationCenterStore to VaccinationCenter--><path codeLine="150" d="M1887.87,688.92 C1869.89,657.18 1833.07,600.71 1785,572 C1725.51,536.47 1699.28,558.57 1632,542 C1628.04,541.02 1624.05,540.03 1620.05,539.02 " fill="none" id="VaccinationCenterStore-to-VaccinationCenter" style="stroke:#A80036;stroke-width:1.0;"/><polygon fill="#A80036" points="1614.97,537.74,1622.7101,543.8303,1619.8165,538.9695,1624.6773,536.0759,1614.97,537.74" style="stroke:#A80036;stroke-width:1.0;"/><polygon fill="#000000" points="1808.6369,578.7337,1815.0944,585.716,1817.9652,580.5869,1808.6369,578.7337" style="stroke:#000000;stroke-width:1.0;"/><text fill="#000000" font-family="sans-serif" font-size="13" lengthAdjust="spacing" textLength="36" x="1822" y="586.4951">stores</text><text fill="#000000" font-family="sans-serif" font-size="13" lengthAdjust="spacing" textLength="7" x="1876.8648" y="678.2397">1</text><text fill="#000000" font-family="sans-serif" font-size="13" lengthAdjust="spacing" textLength="5" x="1622.9732" y="537.4593">*</text><!--MD5=[fd32321d89125b050ef63824d9bab706]
@startuml US15_CD
skinparam classAttributeIconSize 0

package UI {
class CsvExporterUI {}
}

package controllers {
     class CsvExporterController {

     }
}

   package utils {
     class Time {
       - hour: int
       - minute: int
       +Time(hour,minute)

       +Time(time)
     }
   }

package core {
  package domain {

    package service {

class CsvExporterData {
    +getVacAdminList()
    +getSnsUserAge()
    +getVaccine()
    +getVacType()
    }
}

    package model {

class CsvExporter {}

class VaccineAdministration {
  -snsUser: SNSUser
  -vaccine: Vaccine
  -dose: int
  -lotNumber: String
  -date: date
}

class Company {
    +getDesignation()
}

class VaccinationCenter {
    - name: String
    - address: String
    - emailAddress: String
    - phoneNumber: String
    - faxNumber: String
    - websiteAddress: String
    - openingHours: String
    - closingHours: String
    - slotDuration: int
    - maximumVaccinesPerSlot: int
    - coordinator
        
    +VaccinationCenter(name,address,emailAddress,phoneNumber,faxNumber,websiteAddress,openingHours,closingHours,slot,coordinator)
}


class Employee {
    -id: String 
    -name: String 
    -email: String 
    -phone: String 
    -address: String 
    -citizenCardNumber: int 
    -roleId: String 

    +Employee(name,email,phone,address,citizenCardNumber,roleId)
}

class Slot {
    -duration: int
    -maxVaccinesPerSlot: int

    +Slot(duration,maxVaccinesPerSlot)
}

class Vaccine {
  -designation : String
  -brand : String
  -id : String
  -vacType : VaccineType

  +Vaccine(designation, id, brand, vacTypeId)
}

class VaccineType {
  -code
  -designation
  -technology 
}

class SNSUser {
  - citizenCard: String
  - snsNumber: String
  - name: String
  - birthDay: Calendar
  - gender: String
  - phoneNumber: String
  - email: String
  - address: String
  - userHealthData : UserHealthData
  + SNSUser(citizenCard, snsNumber, name, birthDay, gender, phoneNumber, email, address)
}


}

package stores {
      class VaccinationCenterStore {}
      }
}





CsvExportersUI ..> CsvExportersController

CsvExportersController ..> Company

Company "1" - - "1" VaccinationCenterStore : knows >

VaccinationCenter o- - Employee
VaccinationCenter o- - Time 
VaccinationCenter o- - Slot

Vaccine o- - VaccineType

VaccineAdministration - - Vaccine
VaccineAdministration - - SNSUser

CsvExporterData - - VaccineAdministration : uses >

CsvExporter - - CsvExporterData : sends data to <

Employee - - CsvExporter : coordinator generates


VaccinationCenterStore "1" - -> "*" VaccinationCenter : stores >
@enduml

PlantUML version 1.2022.0(Tue Jan 11 16:16:42 WET 2022)
(GPL source distribution)
Java Runtime: Java(TM) SE Runtime Environment
JVM: Java HotSpot(TM) 64-Bit Server VM
Default Encoding: Cp1252
Language: pt
Country: PT
--></g></svg>