<?xml version="1.0" encoding="UTF-8" standalone="no"?><svg xmlns="http://www.w3.org/2000/svg" xmlns:xlink="http://www.w3.org/1999/xlink" contentScriptType="application/ecmascript" contentStyleType="text/css" height="1317px" preserveAspectRatio="none" style="width:1527px;height:1317px;background:#FFFFFF;" version="1.1" viewBox="0 0 1527 1317" width="1527px" zoomAndPan="magnify"><defs><filter height="300%" id="f15gytc7xs01t2" width="300%" x="-1" y="-1"><feGaussianBlur result="blurOut" stdDeviation="2.0"/><feColorMatrix in="blurOut" result="blurOut2" type="matrix" values="0 0 0 0 0 0 0 0 0 0 0 0 0 0 0 0 0 0 .4 0"/><feOffset dx="4.0" dy="4.0" in="blurOut2" result="blurOut3"/><feBlend in="SourceGraphic" in2="blurOut3" mode="normal"/></filter></defs><g><!--MD5=[9681dc6e01e10c6b4fe06895ae94f592]
cluster UI--><polygon fill="#FFFFFF" filter="url(#f15gytc7xs01t2)" points="1019,6,1039,6,1046,29.6094,1217,29.6094,1217,106,1019,106,1019,6" style="stroke:#000000;stroke-width:1.5;"/><line style="stroke:#000000;stroke-width:1.5;" x1="1019" x2="1046" y1="29.6094" y2="29.6094"/><text fill="#000000" font-family="sans-serif" font-size="14" font-weight="bold" lengthAdjust="spacing" textLength="14" x="1023" y="22.5332">UI</text><!--MD5=[f4e70ef68289585296b9045165e58692]
cluster controllers--><polygon fill="#FFFFFF" filter="url(#f15gytc7xs01t2)" points="998,139,1081,139,1088,162.6094,1238,162.6094,1238,239,998,239,998,139" style="stroke:#000000;stroke-width:1.5;"/><line style="stroke:#000000;stroke-width:1.5;" x1="998" x2="1088" y1="162.6094" y2="162.6094"/><text fill="#000000" font-family="sans-serif" font-size="14" font-weight="bold" lengthAdjust="spacing" textLength="77" x="1002" y="155.5332">controllers</text><!--MD5=[c52f45833d539af9e29a9d34b8b7302b]
cluster utils--><polygon fill="#FFFFFF" filter="url(#f15gytc7xs01t2)" points="1374,674,1410,674,1417,697.6094,1510,697.6094,1510,843,1374,843,1374,674" style="stroke:#000000;stroke-width:1.5;"/><line style="stroke:#000000;stroke-width:1.5;" x1="1374" x2="1417" y1="697.6094" y2="697.6094"/><text fill="#000000" font-family="sans-serif" font-size="14" font-weight="bold" lengthAdjust="spacing" textLength="30" x="1378" y="690.5332">utils</text><!--MD5=[01435ace8273dc3cae88e7f376e4d373]
cluster core--><polygon fill="#FFFFFF" filter="url(#f15gytc7xs01t2)" points="16,272,54,272,61,295.6094,1350,295.6094,1350,1310,16,1310,16,272" style="stroke:#000000;stroke-width:1.5;"/><line style="stroke:#000000;stroke-width:1.5;" x1="16" x2="61" y1="295.6094" y2="295.6094"/><text fill="#000000" font-family="sans-serif" font-size="14" font-weight="bold" lengthAdjust="spacing" textLength="32" x="20" y="288.5332">core</text><!--MD5=[27f772719433d509ddbc20ff768eba08]
cluster domain--><polygon fill="#FFFFFF" filter="url(#f15gytc7xs01t2)" points="40,316,97,316,104,339.6094,1326,339.6094,1326,1286,40,1286,40,316" style="stroke:#000000;stroke-width:1.5;"/><line style="stroke:#000000;stroke-width:1.5;" x1="40" x2="104" y1="339.6094" y2="339.6094"/><text fill="#000000" font-family="sans-serif" font-size="14" font-weight="bold" lengthAdjust="spacing" textLength="51" x="44" y="332.5332">domain</text><!--MD5=[7579d5565d2521d5936cec86ed3dadee]
cluster service--><polygon fill="#FFFFFF" filter="url(#f15gytc7xs01t2)" points="1108,408.5,1167,408.5,1174,432.1094,1266,432.1094,1266,577.5,1108,577.5,1108,408.5" style="stroke:#000000;stroke-width:1.5;"/><line style="stroke:#000000;stroke-width:1.5;" x1="1108" x2="1174" y1="432.1094" y2="432.1094"/><text fill="#000000" font-family="sans-serif" font-size="14" font-weight="bold" lengthAdjust="spacing" textLength="53" x="1112" y="425.0332">service</text><!--MD5=[5d4cd377749310b66bf14896f5cd8d9b]
cluster model--><polygon fill="#FFFFFF" filter="url(#f15gytc7xs01t2)" points="64,360,113,360,120,383.6094,1084,383.6094,1084,1262,64,1262,64,360" style="stroke:#000000;stroke-width:1.5;"/><line style="stroke:#000000;stroke-width:1.5;" x1="64" x2="120" y1="383.6094" y2="383.6094"/><text fill="#000000" font-family="sans-serif" font-size="14" font-weight="bold" lengthAdjust="spacing" textLength="43" x="68" y="376.5332">model</text><!--MD5=[fbca5634cbc0239920b500cad9c4bedb]
cluster stores--><polygon fill="#FFFFFF" filter="url(#f15gytc7xs01t2)" points="1108,708.5,1159,708.5,1166,732.1094,1302,732.1094,1302,808.5,1108,808.5,1108,708.5" style="stroke:#000000;stroke-width:1.5;"/><line style="stroke:#000000;stroke-width:1.5;" x1="1108" x2="1166" y1="732.1094" y2="732.1094"/><text fill="#000000" font-family="sans-serif" font-size="14" font-weight="bold" lengthAdjust="spacing" textLength="45" x="1112" y="725.0332">stores</text><!--MD5=[fd69edc332f726597c3a27d97b7bd8fc]
class ExportCenterStatisticsUI--><rect codeLine="4" fill="#FEFECE" filter="url(#f15gytc7xs01t2)" height="48" id="ExportCenterStatisticsUI" style="stroke:#A80036;stroke-width:1.5;" width="165" x="1035.5" y="42"/><ellipse cx="1050.5" cy="58" fill="#ADD1B2" rx="11" ry="11" style="stroke:#A80036;stroke-width:1.0;"/><path d="M1053.2656,53.875 Q1053.4219,53.6563 1053.6094,53.5469 Q1053.7969,53.4375 1054.0156,53.4375 Q1054.3906,53.4375 1054.625,53.7031 Q1054.8594,53.9531 1054.8594,54.5625 L1054.8594,56.0156 Q1054.8594,56.625 1054.625,56.8906 Q1054.3906,57.1563 1054.0156,57.1563 Q1053.6719,57.1563 1053.4688,56.9531 Q1053.2656,56.7656 1053.1563,56.25 Q1053.1094,55.8906 1052.9219,55.7031 Q1052.5938,55.3281 1051.9844,55.1094 Q1051.375,54.8906 1050.75,54.8906 Q1049.9844,54.8906 1049.3438,55.2188 Q1048.7188,55.5469 1048.2188,56.2969 Q1047.7344,57.0469 1047.7344,58.0781 L1047.7344,59.1719 Q1047.7344,60.4063 1048.625,61.2344 Q1049.5156,62.0469 1051.1094,62.0469 Q1052.0469,62.0469 1052.7031,61.7969 Q1053.0938,61.6406 1053.5156,61.2031 Q1053.7813,60.9375 1053.9219,60.8594 Q1054.0781,60.7813 1054.2813,60.7813 Q1054.6094,60.7813 1054.8594,61.0469 Q1055.125,61.2969 1055.125,61.6406 Q1055.125,61.9844 1054.7813,62.3906 Q1054.2813,62.9688 1053.4844,63.2969 Q1052.4063,63.75 1051.1094,63.75 Q1049.5938,63.75 1048.3906,63.125 Q1047.4063,62.625 1046.7188,61.5625 Q1046.0313,60.4844 1046.0313,59.2031 L1046.0313,58.0469 Q1046.0313,56.7188 1046.6406,55.5781 Q1047.2656,54.4219 1048.3594,53.8125 Q1049.4531,53.1875 1050.6875,53.1875 Q1051.4219,53.1875 1052.0625,53.3594 Q1052.7188,53.5156 1053.2656,53.875 Z " fill="#000000"/><text fill="#000000" font-family="sans-serif" font-size="12" lengthAdjust="spacing" textLength="133" x="1064.5" y="62.9102">ExportCenterStatisticsUI</text><line style="stroke:#A80036;stroke-width:1.5;" x1="1036.5" x2="1199.5" y1="74" y2="74"/><line style="stroke:#A80036;stroke-width:1.5;" x1="1036.5" x2="1199.5" y1="82" y2="82"/><!--MD5=[93c339ae26d50accefb5d71117336a4b]
class ExportCenterStatisticsController--><rect codeLine="8" fill="#FEFECE" filter="url(#f15gytc7xs01t2)" height="48" id="ExportCenterStatisticsController" style="stroke:#A80036;stroke-width:1.5;" width="207" x="1014.5" y="175"/><ellipse cx="1029.5" cy="191" fill="#ADD1B2" rx="11" ry="11" style="stroke:#A80036;stroke-width:1.0;"/><path d="M1032.2656,186.875 Q1032.4219,186.6563 1032.6094,186.5469 Q1032.7969,186.4375 1033.0156,186.4375 Q1033.3906,186.4375 1033.625,186.7031 Q1033.8594,186.9531 1033.8594,187.5625 L1033.8594,189.0156 Q1033.8594,189.625 1033.625,189.8906 Q1033.3906,190.1563 1033.0156,190.1563 Q1032.6719,190.1563 1032.4688,189.9531 Q1032.2656,189.7656 1032.1563,189.25 Q1032.1094,188.8906 1031.9219,188.7031 Q1031.5938,188.3281 1030.9844,188.1094 Q1030.375,187.8906 1029.75,187.8906 Q1028.9844,187.8906 1028.3438,188.2188 Q1027.7188,188.5469 1027.2188,189.2969 Q1026.7344,190.0469 1026.7344,191.0781 L1026.7344,192.1719 Q1026.7344,193.4063 1027.625,194.2344 Q1028.5156,195.0469 1030.1094,195.0469 Q1031.0469,195.0469 1031.7031,194.7969 Q1032.0938,194.6406 1032.5156,194.2031 Q1032.7813,193.9375 1032.9219,193.8594 Q1033.0781,193.7813 1033.2813,193.7813 Q1033.6094,193.7813 1033.8594,194.0469 Q1034.125,194.2969 1034.125,194.6406 Q1034.125,194.9844 1033.7813,195.3906 Q1033.2813,195.9688 1032.4844,196.2969 Q1031.4063,196.75 1030.1094,196.75 Q1028.5938,196.75 1027.3906,196.125 Q1026.4063,195.625 1025.7188,194.5625 Q1025.0313,193.4844 1025.0313,192.2031 L1025.0313,191.0469 Q1025.0313,189.7188 1025.6406,188.5781 Q1026.2656,187.4219 1027.3594,186.8125 Q1028.4531,186.1875 1029.6875,186.1875 Q1030.4219,186.1875 1031.0625,186.3594 Q1031.7188,186.5156 1032.2656,186.875 Z " fill="#000000"/><text fill="#000000" font-family="sans-serif" font-size="12" lengthAdjust="spacing" textLength="175" x="1043.5" y="195.9102">ExportCenterStatisticsController</text><line style="stroke:#A80036;stroke-width:1.5;" x1="1015.5" x2="1220.5" y1="207" y2="207"/><line style="stroke:#A80036;stroke-width:1.5;" x1="1015.5" x2="1220.5" y1="215" y2="215"/><!--MD5=[2e42295458bb0bec21c9622a623eb29e]
class Time--><rect codeLine="14" fill="#FEFECE" filter="url(#f15gytc7xs01t2)" height="117.1797" id="Time" style="stroke:#A80036;stroke-width:1.5;" width="104" x="1390" y="710"/><ellipse cx="1424.8" cy="726" fill="#ADD1B2" rx="11" ry="11" style="stroke:#A80036;stroke-width:1.0;"/><path d="M1427.5656,721.875 Q1427.7219,721.6563 1427.9094,721.5469 Q1428.0969,721.4375 1428.3156,721.4375 Q1428.6906,721.4375 1428.925,721.7031 Q1429.1594,721.9531 1429.1594,722.5625 L1429.1594,724.0156 Q1429.1594,724.625 1428.925,724.8906 Q1428.6906,725.1563 1428.3156,725.1563 Q1427.9719,725.1563 1427.7688,724.9531 Q1427.5656,724.7656 1427.4563,724.25 Q1427.4094,723.8906 1427.2219,723.7031 Q1426.8938,723.3281 1426.2844,723.1094 Q1425.675,722.8906 1425.05,722.8906 Q1424.2844,722.8906 1423.6438,723.2188 Q1423.0188,723.5469 1422.5188,724.2969 Q1422.0344,725.0469 1422.0344,726.0781 L1422.0344,727.1719 Q1422.0344,728.4063 1422.925,729.2344 Q1423.8156,730.0469 1425.4094,730.0469 Q1426.3469,730.0469 1427.0031,729.7969 Q1427.3938,729.6406 1427.8156,729.2031 Q1428.0813,728.9375 1428.2219,728.8594 Q1428.3781,728.7813 1428.5813,728.7813 Q1428.9094,728.7813 1429.1594,729.0469 Q1429.425,729.2969 1429.425,729.6406 Q1429.425,729.9844 1429.0813,730.3906 Q1428.5813,730.9688 1427.7844,731.2969 Q1426.7063,731.75 1425.4094,731.75 Q1423.8938,731.75 1422.6906,731.125 Q1421.7063,730.625 1421.0188,729.5625 Q1420.3313,728.4844 1420.3313,727.2031 L1420.3313,726.0469 Q1420.3313,724.7188 1420.9406,723.5781 Q1421.5656,722.4219 1422.6594,721.8125 Q1423.7531,721.1875 1424.9875,721.1875 Q1425.7219,721.1875 1426.3625,721.3594 Q1427.0188,721.5156 1427.5656,721.875 Z " fill="#000000"/><text fill="#000000" font-family="sans-serif" font-size="12" lengthAdjust="spacing" textLength="28" x="1443.2" y="730.9102">Time</text><line style="stroke:#A80036;stroke-width:1.5;" x1="1391" x2="1493" y1="742" y2="742"/><text fill="#000000" font-family="sans-serif" font-size="11" lengthAdjust="spacing" textLength="43" x="1396" y="757.4189">-hour: int</text><text fill="#000000" font-family="sans-serif" font-size="11" lengthAdjust="spacing" textLength="52" x="1396" y="771.2549">-minute: int</text><line style="stroke:#A80036;stroke-width:1.5;" x1="1391" x2="1493" y1="777.6719" y2="777.6719"/><text fill="#000000" font-family="sans-serif" font-size="11" lengthAdjust="spacing" textLength="92" x="1396" y="793.0908">+Time(hour,minute)</text><text fill="#000000" font-family="sans-serif" font-size="11" lengthAdjust="spacing" textLength="0" x="1399" y="806.9268"/><text fill="#000000" font-family="sans-serif" font-size="11" lengthAdjust="spacing" textLength="55" x="1396" y="820.7627">+Time(time)</text><!--MD5=[ef8f8e825ec35b6db9451ba2eb8a8155]
class FileUtils--><rect codeLine="28" fill="#FEFECE" filter="url(#f15gytc7xs01t2)" height="117.1797" id="FileUtils" style="stroke:#A80036;stroke-width:1.5;" width="126" x="1124" y="444.5"/><ellipse cx="1161.05" cy="460.5" fill="#ADD1B2" rx="11" ry="11" style="stroke:#A80036;stroke-width:1.0;"/><path d="M1163.8156,456.375 Q1163.9719,456.1563 1164.1594,456.0469 Q1164.3469,455.9375 1164.5656,455.9375 Q1164.9406,455.9375 1165.175,456.2031 Q1165.4094,456.4531 1165.4094,457.0625 L1165.4094,458.5156 Q1165.4094,459.125 1165.175,459.3906 Q1164.9406,459.6563 1164.5656,459.6563 Q1164.2219,459.6563 1164.0188,459.4531 Q1163.8156,459.2656 1163.7063,458.75 Q1163.6594,458.3906 1163.4719,458.2031 Q1163.1438,457.8281 1162.5344,457.6094 Q1161.925,457.3906 1161.3,457.3906 Q1160.5344,457.3906 1159.8938,457.7188 Q1159.2688,458.0469 1158.7688,458.7969 Q1158.2844,459.5469 1158.2844,460.5781 L1158.2844,461.6719 Q1158.2844,462.9063 1159.175,463.7344 Q1160.0656,464.5469 1161.6594,464.5469 Q1162.5969,464.5469 1163.2531,464.2969 Q1163.6438,464.1406 1164.0656,463.7031 Q1164.3313,463.4375 1164.4719,463.3594 Q1164.6281,463.2813 1164.8313,463.2813 Q1165.1594,463.2813 1165.4094,463.5469 Q1165.675,463.7969 1165.675,464.1406 Q1165.675,464.4844 1165.3313,464.8906 Q1164.8313,465.4688 1164.0344,465.7969 Q1162.9563,466.25 1161.6594,466.25 Q1160.1438,466.25 1158.9406,465.625 Q1157.9563,465.125 1157.2688,464.0625 Q1156.5813,462.9844 1156.5813,461.7031 L1156.5813,460.5469 Q1156.5813,459.2188 1157.1906,458.0781 Q1157.8156,456.9219 1158.9094,456.3125 Q1160.0031,455.6875 1161.2375,455.6875 Q1161.9719,455.6875 1162.6125,455.8594 Q1163.2688,456.0156 1163.8156,456.375 Z " fill="#000000"/><text fill="#000000" font-family="sans-serif" font-size="12" lengthAdjust="spacing" textLength="45" x="1179.95" y="465.4102">FileUtils</text><line style="stroke:#A80036;stroke-width:1.5;" x1="1125" x2="1249" y1="476.5" y2="476.5"/><line style="stroke:#A80036;stroke-width:1.5;" x1="1125" x2="1249" y1="484.5" y2="484.5"/><text fill="#000000" font-family="sans-serif" font-size="11" lengthAdjust="spacing" textLength="67" x="1130" y="499.9189">+writeToFile()</text><text fill="#000000" font-family="sans-serif" font-size="11" lengthAdjust="spacing" textLength="92" x="1130" y="513.7549">+hasNoExtension()</text><text fill="#000000" font-family="sans-serif" font-size="11" lengthAdjust="spacing" textLength="97" x="1130" y="527.5908">+removeExtension()</text><text fill="#000000" font-family="sans-serif" font-size="11" lengthAdjust="spacing" textLength="114" x="1130" y="541.4268">+removeSpecialChars()</text><text fill="#000000" font-family="sans-serif" font-size="11" lengthAdjust="spacing" textLength="94" x="1130" y="555.2627">+buildDirStructure()</text><!--MD5=[2716dd1044068487d604635069912977]
class FullyVaccinatedData--><rect codeLine="39" fill="#FEFECE" filter="url(#f15gytc7xs01t2)" height="103.3438" id="FullyVaccinatedData" style="stroke:#A80036;stroke-width:1.5;" width="143" x="80.5" y="451.5"/><ellipse cx="95.5" cy="467.5" fill="#ADD1B2" rx="11" ry="11" style="stroke:#A80036;stroke-width:1.0;"/><path d="M98.2656,463.375 Q98.4219,463.1563 98.6094,463.0469 Q98.7969,462.9375 99.0156,462.9375 Q99.3906,462.9375 99.625,463.2031 Q99.8594,463.4531 99.8594,464.0625 L99.8594,465.5156 Q99.8594,466.125 99.625,466.3906 Q99.3906,466.6563 99.0156,466.6563 Q98.6719,466.6563 98.4688,466.4531 Q98.2656,466.2656 98.1563,465.75 Q98.1094,465.3906 97.9219,465.2031 Q97.5938,464.8281 96.9844,464.6094 Q96.375,464.3906 95.75,464.3906 Q94.9844,464.3906 94.3438,464.7188 Q93.7188,465.0469 93.2188,465.7969 Q92.7344,466.5469 92.7344,467.5781 L92.7344,468.6719 Q92.7344,469.9063 93.625,470.7344 Q94.5156,471.5469 96.1094,471.5469 Q97.0469,471.5469 97.7031,471.2969 Q98.0938,471.1406 98.5156,470.7031 Q98.7813,470.4375 98.9219,470.3594 Q99.0781,470.2813 99.2813,470.2813 Q99.6094,470.2813 99.8594,470.5469 Q100.125,470.7969 100.125,471.1406 Q100.125,471.4844 99.7813,471.8906 Q99.2813,472.4688 98.4844,472.7969 Q97.4063,473.25 96.1094,473.25 Q94.5938,473.25 93.3906,472.625 Q92.4063,472.125 91.7188,471.0625 Q91.0313,469.9844 91.0313,468.7031 L91.0313,467.5469 Q91.0313,466.2188 91.6406,465.0781 Q92.2656,463.9219 93.3594,463.3125 Q94.4531,462.6875 95.6875,462.6875 Q96.4219,462.6875 97.0625,462.8594 Q97.7188,463.0156 98.2656,463.375 Z " fill="#000000"/><text fill="#000000" font-family="sans-serif" font-size="12" lengthAdjust="spacing" textLength="111" x="109.5" y="472.4102">FullyVaccinatedData</text><line style="stroke:#A80036;stroke-width:1.5;" x1="81.5" x2="222.5" y1="483.5" y2="483.5"/><line style="stroke:#A80036;stroke-width:1.5;" x1="81.5" x2="222.5" y1="491.5" y2="491.5"/><text fill="#000000" font-family="sans-serif" font-size="11" lengthAdjust="spacing" textLength="96" x="86.5" y="506.9189">+getVacAdminList()</text><text fill="#000000" font-family="sans-serif" font-size="11" lengthAdjust="spacing" textLength="91" x="86.5" y="520.7549">+getSnsUserAge()</text><text fill="#000000" font-family="sans-serif" font-size="11" lengthAdjust="spacing" textLength="69" x="86.5" y="534.5908">+getVaccine()</text><text fill="#000000" font-family="sans-serif" font-size="11" lengthAdjust="spacing" textLength="73" x="86.5" y="548.4268">+getVacType()</text><!--MD5=[107cfa23aa516ff83d0cf17a6f9fe7ba]
class VaccineAdministration--><rect codeLine="46" fill="#FEFECE" filter="url(#f15gytc7xs01t2)" height="117.1797" id="VaccineAdministration" style="stroke:#A80036;stroke-width:1.5;" width="154" x="116" y="710"/><ellipse cx="131" cy="726" fill="#ADD1B2" rx="11" ry="11" style="stroke:#A80036;stroke-width:1.0;"/><path d="M133.7656,721.875 Q133.9219,721.6563 134.1094,721.5469 Q134.2969,721.4375 134.5156,721.4375 Q134.8906,721.4375 135.125,721.7031 Q135.3594,721.9531 135.3594,722.5625 L135.3594,724.0156 Q135.3594,724.625 135.125,724.8906 Q134.8906,725.1563 134.5156,725.1563 Q134.1719,725.1563 133.9688,724.9531 Q133.7656,724.7656 133.6563,724.25 Q133.6094,723.8906 133.4219,723.7031 Q133.0938,723.3281 132.4844,723.1094 Q131.875,722.8906 131.25,722.8906 Q130.4844,722.8906 129.8438,723.2188 Q129.2188,723.5469 128.7188,724.2969 Q128.2344,725.0469 128.2344,726.0781 L128.2344,727.1719 Q128.2344,728.4063 129.125,729.2344 Q130.0156,730.0469 131.6094,730.0469 Q132.5469,730.0469 133.2031,729.7969 Q133.5938,729.6406 134.0156,729.2031 Q134.2813,728.9375 134.4219,728.8594 Q134.5781,728.7813 134.7813,728.7813 Q135.1094,728.7813 135.3594,729.0469 Q135.625,729.2969 135.625,729.6406 Q135.625,729.9844 135.2813,730.3906 Q134.7813,730.9688 133.9844,731.2969 Q132.9063,731.75 131.6094,731.75 Q130.0938,731.75 128.8906,731.125 Q127.9063,730.625 127.2188,729.5625 Q126.5313,728.4844 126.5313,727.2031 L126.5313,726.0469 Q126.5313,724.7188 127.1406,723.5781 Q127.7656,722.4219 128.8594,721.8125 Q129.9531,721.1875 131.1875,721.1875 Q131.9219,721.1875 132.5625,721.3594 Q133.2188,721.5156 133.7656,721.875 Z " fill="#000000"/><text fill="#000000" font-family="sans-serif" font-size="12" lengthAdjust="spacing" textLength="122" x="145" y="730.9102">VaccineAdministration</text><line style="stroke:#A80036;stroke-width:1.5;" x1="117" x2="269" y1="742" y2="742"/><text fill="#000000" font-family="sans-serif" font-size="11" lengthAdjust="spacing" textLength="95" x="122" y="757.4189">-snsUser: SNSUser</text><text fill="#000000" font-family="sans-serif" font-size="11" lengthAdjust="spacing" textLength="88" x="122" y="771.2549">-vaccine: Vaccine</text><text fill="#000000" font-family="sans-serif" font-size="11" lengthAdjust="spacing" textLength="45" x="122" y="785.0908">-dose: int</text><text fill="#000000" font-family="sans-serif" font-size="11" lengthAdjust="spacing" textLength="86" x="122" y="798.9268">-lotNumber: String</text><text fill="#000000" font-family="sans-serif" font-size="11" lengthAdjust="spacing" textLength="52" x="122" y="812.7627">-date: date</text><line style="stroke:#A80036;stroke-width:1.5;" x1="117" x2="269" y1="819.1797" y2="819.1797"/><!--MD5=[02e4b9b7573f1156f41e60aa5b4e25a4]
class Company--><rect codeLine="54" fill="#FEFECE" filter="url(#f15gytc7xs01t2)" height="61.8359" id="Company" style="stroke:#A80036;stroke-width:1.5;" width="97" x="970.5" y="472"/><ellipse cx="990.9" cy="488" fill="#ADD1B2" rx="11" ry="11" style="stroke:#A80036;stroke-width:1.0;"/><path d="M993.6656,483.875 Q993.8219,483.6563 994.0094,483.5469 Q994.1969,483.4375 994.4156,483.4375 Q994.7906,483.4375 995.025,483.7031 Q995.2594,483.9531 995.2594,484.5625 L995.2594,486.0156 Q995.2594,486.625 995.025,486.8906 Q994.7906,487.1563 994.4156,487.1563 Q994.0719,487.1563 993.8688,486.9531 Q993.6656,486.7656 993.5563,486.25 Q993.5094,485.8906 993.3219,485.7031 Q992.9938,485.3281 992.3844,485.1094 Q991.775,484.8906 991.15,484.8906 Q990.3844,484.8906 989.7438,485.2188 Q989.1188,485.5469 988.6188,486.2969 Q988.1344,487.0469 988.1344,488.0781 L988.1344,489.1719 Q988.1344,490.4063 989.025,491.2344 Q989.9156,492.0469 991.5094,492.0469 Q992.4469,492.0469 993.1031,491.7969 Q993.4938,491.6406 993.9156,491.2031 Q994.1813,490.9375 994.3219,490.8594 Q994.4781,490.7813 994.6813,490.7813 Q995.0094,490.7813 995.2594,491.0469 Q995.525,491.2969 995.525,491.6406 Q995.525,491.9844 995.1813,492.3906 Q994.6813,492.9688 993.8844,493.2969 Q992.8063,493.75 991.5094,493.75 Q989.9938,493.75 988.7906,493.125 Q987.8063,492.625 987.1188,491.5625 Q986.4313,490.4844 986.4313,489.2031 L986.4313,488.0469 Q986.4313,486.7188 987.0406,485.5781 Q987.6656,484.4219 988.7594,483.8125 Q989.8531,483.1875 991.0875,483.1875 Q991.8219,483.1875 992.4625,483.3594 Q993.1188,483.5156 993.6656,483.875 Z " fill="#000000"/><text fill="#000000" font-family="sans-serif" font-size="12" lengthAdjust="spacing" textLength="53" x="1006.1" y="492.9102">Company</text><line style="stroke:#A80036;stroke-width:1.5;" x1="971.5" x2="1066.5" y1="504" y2="504"/><line style="stroke:#A80036;stroke-width:1.5;" x1="971.5" x2="1066.5" y1="512" y2="512"/><text fill="#000000" font-family="sans-serif" font-size="11" lengthAdjust="spacing" textLength="85" x="976.5" y="527.4189">+getDesignation()</text><!--MD5=[de60e6d4f424ae4d0522096f76a59010]
class VaccinationCenter--><rect codeLine="58" fill="#FEFECE" filter="url(#f15gytc7xs01t2)" height="214.0313" id="VaccinationCenter" style="stroke:#A80036;stroke-width:1.5;" width="677" x="258.5" y="396"/><ellipse cx="542.75" cy="412" fill="#ADD1B2" rx="11" ry="11" style="stroke:#A80036;stroke-width:1.0;"/><path d="M545.5156,407.875 Q545.6719,407.6563 545.8594,407.5469 Q546.0469,407.4375 546.2656,407.4375 Q546.6406,407.4375 546.875,407.7031 Q547.1094,407.9531 547.1094,408.5625 L547.1094,410.0156 Q547.1094,410.625 546.875,410.8906 Q546.6406,411.1563 546.2656,411.1563 Q545.9219,411.1563 545.7188,410.9531 Q545.5156,410.7656 545.4063,410.25 Q545.3594,409.8906 545.1719,409.7031 Q544.8438,409.3281 544.2344,409.1094 Q543.625,408.8906 543,408.8906 Q542.2344,408.8906 541.5938,409.2188 Q540.9688,409.5469 540.4688,410.2969 Q539.9844,411.0469 539.9844,412.0781 L539.9844,413.1719 Q539.9844,414.4063 540.875,415.2344 Q541.7656,416.0469 543.3594,416.0469 Q544.2969,416.0469 544.9531,415.7969 Q545.3438,415.6406 545.7656,415.2031 Q546.0313,414.9375 546.1719,414.8594 Q546.3281,414.7813 546.5313,414.7813 Q546.8594,414.7813 547.1094,415.0469 Q547.375,415.2969 547.375,415.6406 Q547.375,415.9844 547.0313,416.3906 Q546.5313,416.9688 545.7344,417.2969 Q544.6563,417.75 543.3594,417.75 Q541.8438,417.75 540.6406,417.125 Q539.6563,416.625 538.9688,415.5625 Q538.2813,414.4844 538.2813,413.2031 L538.2813,412.0469 Q538.2813,410.7188 538.8906,409.5781 Q539.5156,408.4219 540.6094,407.8125 Q541.7031,407.1875 542.9375,407.1875 Q543.6719,407.1875 544.3125,407.3594 Q544.9688,407.5156 545.5156,407.875 Z " fill="#000000"/><text fill="#000000" font-family="sans-serif" font-size="12" lengthAdjust="spacing" textLength="100" x="563.25" y="416.9102">VaccinationCenter</text><line style="stroke:#A80036;stroke-width:1.5;" x1="259.5" x2="934.5" y1="428" y2="428"/><text fill="#000000" font-family="sans-serif" font-size="11" lengthAdjust="spacing" textLength="64" x="264.5" y="443.4189">-name: String</text><text fill="#000000" font-family="sans-serif" font-size="11" lengthAdjust="spacing" textLength="78" x="264.5" y="457.2549">-address: String</text><text fill="#000000" font-family="sans-serif" font-size="11" lengthAdjust="spacing" textLength="104" x="264.5" y="471.0908">-emailAddress: String</text><text fill="#000000" font-family="sans-serif" font-size="11" lengthAdjust="spacing" textLength="105" x="264.5" y="484.9268">-phoneNumber: String</text><text fill="#000000" font-family="sans-serif" font-size="11" lengthAdjust="spacing" textLength="91" x="264.5" y="498.7627">-faxNumber: String</text><text fill="#000000" font-family="sans-serif" font-size="11" lengthAdjust="spacing" textLength="119" x="264.5" y="512.5986">-websiteAddress: String</text><text fill="#000000" font-family="sans-serif" font-size="11" lengthAdjust="spacing" textLength="105" x="264.5" y="526.4346">-openingHours: String</text><text fill="#000000" font-family="sans-serif" font-size="11" lengthAdjust="spacing" textLength="101" x="264.5" y="540.2705">-closingHours: String</text><text fill="#000000" font-family="sans-serif" font-size="11" lengthAdjust="spacing" textLength="78" x="264.5" y="554.1064">-slotDuration: int</text><text fill="#000000" font-family="sans-serif" font-size="11" lengthAdjust="spacing" textLength="145" x="264.5" y="567.9424">-maximumVaccinesPerSlot: int</text><text fill="#000000" font-family="sans-serif" font-size="11" lengthAdjust="spacing" textLength="59" x="264.5" y="581.7783">-coordinator</text><line style="stroke:#A80036;stroke-width:1.5;" x1="259.5" x2="934.5" y1="588.1953" y2="588.1953"/><text fill="#000000" font-family="sans-serif" font-size="11" lengthAdjust="spacing" textLength="665" x="264.5" y="603.6143">+VaccinationCenter(name,address,emailAddress,phoneNumber,faxNumber,websiteAddress,openingHours,closingHours,slot,coordinator)</text><!--MD5=[7421f545a0d8420c5bec41e74b387d9c]
class Employee--><rect codeLine="75" fill="#FEFECE" filter="url(#f15gytc7xs01t2)" height="158.6875" id="Employee" style="stroke:#A80036;stroke-width:1.5;" width="324" x="622" y="689"/><ellipse cx="752.25" cy="705" fill="#ADD1B2" rx="11" ry="11" style="stroke:#A80036;stroke-width:1.0;"/><path d="M755.0156,700.875 Q755.1719,700.6563 755.3594,700.5469 Q755.5469,700.4375 755.7656,700.4375 Q756.1406,700.4375 756.375,700.7031 Q756.6094,700.9531 756.6094,701.5625 L756.6094,703.0156 Q756.6094,703.625 756.375,703.8906 Q756.1406,704.1563 755.7656,704.1563 Q755.4219,704.1563 755.2188,703.9531 Q755.0156,703.7656 754.9063,703.25 Q754.8594,702.8906 754.6719,702.7031 Q754.3438,702.3281 753.7344,702.1094 Q753.125,701.8906 752.5,701.8906 Q751.7344,701.8906 751.0938,702.2188 Q750.4688,702.5469 749.9688,703.2969 Q749.4844,704.0469 749.4844,705.0781 L749.4844,706.1719 Q749.4844,707.4063 750.375,708.2344 Q751.2656,709.0469 752.8594,709.0469 Q753.7969,709.0469 754.4531,708.7969 Q754.8438,708.6406 755.2656,708.2031 Q755.5313,707.9375 755.6719,707.8594 Q755.8281,707.7813 756.0313,707.7813 Q756.3594,707.7813 756.6094,708.0469 Q756.875,708.2969 756.875,708.6406 Q756.875,708.9844 756.5313,709.3906 Q756.0313,709.9688 755.2344,710.2969 Q754.1563,710.75 752.8594,710.75 Q751.3438,710.75 750.1406,710.125 Q749.1563,709.625 748.4688,708.5625 Q747.7813,707.4844 747.7813,706.2031 L747.7813,705.0469 Q747.7813,703.7188 748.3906,702.5781 Q749.0156,701.4219 750.1094,700.8125 Q751.2031,700.1875 752.4375,700.1875 Q753.1719,700.1875 753.8125,700.3594 Q754.4688,700.5156 755.0156,700.875 Z " fill="#000000"/><text fill="#000000" font-family="sans-serif" font-size="12" lengthAdjust="spacing" textLength="55" x="772.75" y="709.9102">Employee</text><line style="stroke:#A80036;stroke-width:1.5;" x1="623" x2="945" y1="721" y2="721"/><text fill="#000000" font-family="sans-serif" font-size="11" lengthAdjust="spacing" textLength="46" x="628" y="736.4189">-id: String</text><text fill="#000000" font-family="sans-serif" font-size="11" lengthAdjust="spacing" textLength="64" x="628" y="750.2549">-name: String</text><text fill="#000000" font-family="sans-serif" font-size="11" lengthAdjust="spacing" textLength="62" x="628" y="764.0908">-email: String</text><text fill="#000000" font-family="sans-serif" font-size="11" lengthAdjust="spacing" textLength="68" x="628" y="777.9268">-phone: String</text><text fill="#000000" font-family="sans-serif" font-size="11" lengthAdjust="spacing" textLength="78" x="628" y="791.7627">-address: String</text><text fill="#000000" font-family="sans-serif" font-size="11" lengthAdjust="spacing" textLength="112" x="628" y="805.5986">-citizenCardNumber: int</text><text fill="#000000" font-family="sans-serif" font-size="11" lengthAdjust="spacing" textLength="64" x="628" y="819.4346">-roleId: String</text><line style="stroke:#A80036;stroke-width:1.5;" x1="623" x2="945" y1="825.8516" y2="825.8516"/><text fill="#000000" font-family="sans-serif" font-size="11" lengthAdjust="spacing" textLength="312" x="628" y="841.2705">+Employee(name,email,phone,address,citizenCardNumber,roleId)</text><!--MD5=[45c6380d22fb72521f5065026b277fb9]
class Slot--><rect codeLine="87" fill="#FEFECE" filter="url(#f15gytc7xs01t2)" height="89.5078" id="Slot" style="stroke:#A80036;stroke-width:1.5;" width="186" x="401" y="723.5"/><ellipse cx="479.25" cy="739.5" fill="#ADD1B2" rx="11" ry="11" style="stroke:#A80036;stroke-width:1.0;"/><path d="M482.0156,735.375 Q482.1719,735.1563 482.3594,735.0469 Q482.5469,734.9375 482.7656,734.9375 Q483.1406,734.9375 483.375,735.2031 Q483.6094,735.4531 483.6094,736.0625 L483.6094,737.5156 Q483.6094,738.125 483.375,738.3906 Q483.1406,738.6563 482.7656,738.6563 Q482.4219,738.6563 482.2188,738.4531 Q482.0156,738.2656 481.9063,737.75 Q481.8594,737.3906 481.6719,737.2031 Q481.3438,736.8281 480.7344,736.6094 Q480.125,736.3906 479.5,736.3906 Q478.7344,736.3906 478.0938,736.7188 Q477.4688,737.0469 476.9688,737.7969 Q476.4844,738.5469 476.4844,739.5781 L476.4844,740.6719 Q476.4844,741.9063 477.375,742.7344 Q478.2656,743.5469 479.8594,743.5469 Q480.7969,743.5469 481.4531,743.2969 Q481.8438,743.1406 482.2656,742.7031 Q482.5313,742.4375 482.6719,742.3594 Q482.8281,742.2813 483.0313,742.2813 Q483.3594,742.2813 483.6094,742.5469 Q483.875,742.7969 483.875,743.1406 Q483.875,743.4844 483.5313,743.8906 Q483.0313,744.4688 482.2344,744.7969 Q481.1563,745.25 479.8594,745.25 Q478.3438,745.25 477.1406,744.625 Q476.1563,744.125 475.4688,743.0625 Q474.7813,741.9844 474.7813,740.7031 L474.7813,739.5469 Q474.7813,738.2188 475.3906,737.0781 Q476.0156,735.9219 477.1094,735.3125 Q478.2031,734.6875 479.4375,734.6875 Q480.1719,734.6875 480.8125,734.8594 Q481.4688,735.0156 482.0156,735.375 Z " fill="#000000"/><text fill="#000000" font-family="sans-serif" font-size="12" lengthAdjust="spacing" textLength="21" x="499.75" y="744.4102">Slot</text><line style="stroke:#A80036;stroke-width:1.5;" x1="402" x2="586" y1="755.5" y2="755.5"/><text fill="#000000" font-family="sans-serif" font-size="11" lengthAdjust="spacing" textLength="60" x="407" y="770.9189">-duration: int</text><text fill="#000000" font-family="sans-serif" font-size="11" lengthAdjust="spacing" textLength="121" x="407" y="784.7549">-maxVaccinesPerSlot: int</text><line style="stroke:#A80036;stroke-width:1.5;" x1="402" x2="586" y1="791.1719" y2="791.1719"/><text fill="#000000" font-family="sans-serif" font-size="11" lengthAdjust="spacing" textLength="174" x="407" y="806.5908">+Slot(duration,maxVaccinesPerSlot)</text><!--MD5=[19e445fc4d3b48519cbe33da05496394]
class Vaccine--><rect codeLine="94" fill="#FEFECE" filter="url(#f15gytc7xs01t2)" height="117.1797" id="Vaccine" style="stroke:#A80036;stroke-width:1.5;" width="225" x="80.5" y="943.5"/><ellipse cx="167.25" cy="959.5" fill="#ADD1B2" rx="11" ry="11" style="stroke:#A80036;stroke-width:1.0;"/><path d="M170.0156,955.375 Q170.1719,955.1563 170.3594,955.0469 Q170.5469,954.9375 170.7656,954.9375 Q171.1406,954.9375 171.375,955.2031 Q171.6094,955.4531 171.6094,956.0625 L171.6094,957.5156 Q171.6094,958.125 171.375,958.3906 Q171.1406,958.6563 170.7656,958.6563 Q170.4219,958.6563 170.2188,958.4531 Q170.0156,958.2656 169.9063,957.75 Q169.8594,957.3906 169.6719,957.2031 Q169.3438,956.8281 168.7344,956.6094 Q168.125,956.3906 167.5,956.3906 Q166.7344,956.3906 166.0938,956.7188 Q165.4688,957.0469 164.9688,957.7969 Q164.4844,958.5469 164.4844,959.5781 L164.4844,960.6719 Q164.4844,961.9063 165.375,962.7344 Q166.2656,963.5469 167.8594,963.5469 Q168.7969,963.5469 169.4531,963.2969 Q169.8438,963.1406 170.2656,962.7031 Q170.5313,962.4375 170.6719,962.3594 Q170.8281,962.2813 171.0313,962.2813 Q171.3594,962.2813 171.6094,962.5469 Q171.875,962.7969 171.875,963.1406 Q171.875,963.4844 171.5313,963.8906 Q171.0313,964.4688 170.2344,964.7969 Q169.1563,965.25 167.8594,965.25 Q166.3438,965.25 165.1406,964.625 Q164.1563,964.125 163.4688,963.0625 Q162.7813,961.9844 162.7813,960.7031 L162.7813,959.5469 Q162.7813,958.2188 163.3906,957.0781 Q164.0156,955.9219 165.1094,955.3125 Q166.2031,954.6875 167.4375,954.6875 Q168.1719,954.6875 168.8125,954.8594 Q169.4688,955.0156 170.0156,955.375 Z " fill="#000000"/><text fill="#000000" font-family="sans-serif" font-size="12" lengthAdjust="spacing" textLength="43" x="187.75" y="964.4102">Vaccine</text><line style="stroke:#A80036;stroke-width:1.5;" x1="81.5" x2="304.5" y1="975.5" y2="975.5"/><text fill="#000000" font-family="sans-serif" font-size="11" lengthAdjust="spacing" textLength="96" x="86.5" y="990.9189">-designation : String</text><text fill="#000000" font-family="sans-serif" font-size="11" lengthAdjust="spacing" textLength="69" x="86.5" y="1004.7549">-brand : String</text><text fill="#000000" font-family="sans-serif" font-size="11" lengthAdjust="spacing" textLength="49" x="86.5" y="1018.5908">-id : String</text><text fill="#000000" font-family="sans-serif" font-size="11" lengthAdjust="spacing" textLength="119" x="86.5" y="1032.4268">-vacType : VaccineType</text><line style="stroke:#A80036;stroke-width:1.5;" x1="81.5" x2="304.5" y1="1038.8438" y2="1038.8438"/><text fill="#000000" font-family="sans-serif" font-size="11" lengthAdjust="spacing" textLength="213" x="86.5" y="1054.2627">+Vaccine(designation, id, brand, vacTypeId)</text><!--MD5=[0e501da62322464167c8ec4d233a6b7e]
class VaccineType--><rect codeLine="103" fill="#FEFECE" filter="url(#f15gytc7xs01t2)" height="89.5078" id="VaccineType" style="stroke:#A80036;stroke-width:1.5;" width="101" x="142.5" y="1156"/><ellipse cx="157.5" cy="1172" fill="#ADD1B2" rx="11" ry="11" style="stroke:#A80036;stroke-width:1.0;"/><path d="M160.2656,1167.875 Q160.4219,1167.6563 160.6094,1167.5469 Q160.7969,1167.4375 161.0156,1167.4375 Q161.3906,1167.4375 161.625,1167.7031 Q161.8594,1167.9531 161.8594,1168.5625 L161.8594,1170.0156 Q161.8594,1170.625 161.625,1170.8906 Q161.3906,1171.1563 161.0156,1171.1563 Q160.6719,1171.1563 160.4688,1170.9531 Q160.2656,1170.7656 160.1563,1170.25 Q160.1094,1169.8906 159.9219,1169.7031 Q159.5938,1169.3281 158.9844,1169.1094 Q158.375,1168.8906 157.75,1168.8906 Q156.9844,1168.8906 156.3438,1169.2188 Q155.7188,1169.5469 155.2188,1170.2969 Q154.7344,1171.0469 154.7344,1172.0781 L154.7344,1173.1719 Q154.7344,1174.4063 155.625,1175.2344 Q156.5156,1176.0469 158.1094,1176.0469 Q159.0469,1176.0469 159.7031,1175.7969 Q160.0938,1175.6406 160.5156,1175.2031 Q160.7813,1174.9375 160.9219,1174.8594 Q161.0781,1174.7813 161.2813,1174.7813 Q161.6094,1174.7813 161.8594,1175.0469 Q162.125,1175.2969 162.125,1175.6406 Q162.125,1175.9844 161.7813,1176.3906 Q161.2813,1176.9688 160.4844,1177.2969 Q159.4063,1177.75 158.1094,1177.75 Q156.5938,1177.75 155.3906,1177.125 Q154.4063,1176.625 153.7188,1175.5625 Q153.0313,1174.4844 153.0313,1173.2031 L153.0313,1172.0469 Q153.0313,1170.7188 153.6406,1169.5781 Q154.2656,1168.4219 155.3594,1167.8125 Q156.4531,1167.1875 157.6875,1167.1875 Q158.4219,1167.1875 159.0625,1167.3594 Q159.7188,1167.5156 160.2656,1167.875 Z " fill="#000000"/><text fill="#000000" font-family="sans-serif" font-size="12" lengthAdjust="spacing" textLength="69" x="171.5" y="1176.9102">VaccineType</text><line style="stroke:#A80036;stroke-width:1.5;" x1="143.5" x2="242.5" y1="1188" y2="1188"/><text fill="#000000" font-family="sans-serif" font-size="11" lengthAdjust="spacing" textLength="28" x="148.5" y="1203.4189">-code</text><text fill="#000000" font-family="sans-serif" font-size="11" lengthAdjust="spacing" textLength="59" x="148.5" y="1217.2549">-designation</text><text fill="#000000" font-family="sans-serif" font-size="11" lengthAdjust="spacing" textLength="57" x="148.5" y="1231.0908">-technology</text><line style="stroke:#A80036;stroke-width:1.5;" x1="143.5" x2="242.5" y1="1237.5078" y2="1237.5078"/><!--MD5=[72be06cc7ae02ccc98efe28a50e62246]
class SNSUser--><rect codeLine="109" fill="#FEFECE" filter="url(#f15gytc7xs01t2)" height="186.3594" id="SNSUser" style="stroke:#A80036;stroke-width:1.5;" width="452" x="341" y="909"/><ellipse cx="536.75" cy="925" fill="#ADD1B2" rx="11" ry="11" style="stroke:#A80036;stroke-width:1.0;"/><path d="M539.5156,920.875 Q539.6719,920.6563 539.8594,920.5469 Q540.0469,920.4375 540.2656,920.4375 Q540.6406,920.4375 540.875,920.7031 Q541.1094,920.9531 541.1094,921.5625 L541.1094,923.0156 Q541.1094,923.625 540.875,923.8906 Q540.6406,924.1563 540.2656,924.1563 Q539.9219,924.1563 539.7188,923.9531 Q539.5156,923.7656 539.4063,923.25 Q539.3594,922.8906 539.1719,922.7031 Q538.8438,922.3281 538.2344,922.1094 Q537.625,921.8906 537,921.8906 Q536.2344,921.8906 535.5938,922.2188 Q534.9688,922.5469 534.4688,923.2969 Q533.9844,924.0469 533.9844,925.0781 L533.9844,926.1719 Q533.9844,927.4063 534.875,928.2344 Q535.7656,929.0469 537.3594,929.0469 Q538.2969,929.0469 538.9531,928.7969 Q539.3438,928.6406 539.7656,928.2031 Q540.0313,927.9375 540.1719,927.8594 Q540.3281,927.7813 540.5313,927.7813 Q540.8594,927.7813 541.1094,928.0469 Q541.375,928.2969 541.375,928.6406 Q541.375,928.9844 541.0313,929.3906 Q540.5313,929.9688 539.7344,930.2969 Q538.6563,930.75 537.3594,930.75 Q535.8438,930.75 534.6406,930.125 Q533.6563,929.625 532.9688,928.5625 Q532.2813,927.4844 532.2813,926.2031 L532.2813,925.0469 Q532.2813,923.7188 532.8906,922.5781 Q533.5156,921.4219 534.6094,920.8125 Q535.7031,920.1875 536.9375,920.1875 Q537.6719,920.1875 538.3125,920.3594 Q538.9688,920.5156 539.5156,920.875 Z " fill="#000000"/><text fill="#000000" font-family="sans-serif" font-size="12" lengthAdjust="spacing" textLength="52" x="557.25" y="929.9102">SNSUser</text><line style="stroke:#A80036;stroke-width:1.5;" x1="342" x2="792" y1="941" y2="941"/><text fill="#000000" font-family="sans-serif" font-size="11" lengthAdjust="spacing" textLength="92" x="347" y="956.4189">-citizenCard: String</text><text fill="#000000" font-family="sans-serif" font-size="11" lengthAdjust="spacing" textLength="93" x="347" y="970.2549">-snsNumber: String</text><text fill="#000000" font-family="sans-serif" font-size="11" lengthAdjust="spacing" textLength="64" x="347" y="984.0908">-name: String</text><text fill="#000000" font-family="sans-serif" font-size="11" lengthAdjust="spacing" textLength="93" x="347" y="997.9268">-birthDay: Calendar</text><text fill="#000000" font-family="sans-serif" font-size="11" lengthAdjust="spacing" textLength="72" x="347" y="1011.7627">-gender: String</text><text fill="#000000" font-family="sans-serif" font-size="11" lengthAdjust="spacing" textLength="105" x="347" y="1025.5986">-phoneNumber: String</text><text fill="#000000" font-family="sans-serif" font-size="11" lengthAdjust="spacing" textLength="62" x="347" y="1039.4346">-email: String</text><text fill="#000000" font-family="sans-serif" font-size="11" lengthAdjust="spacing" textLength="78" x="347" y="1053.2705">-address: String</text><text fill="#000000" font-family="sans-serif" font-size="11" lengthAdjust="spacing" textLength="162" x="347" y="1067.1064">-userHealthData : UserHealthData</text><line style="stroke:#A80036;stroke-width:1.5;" x1="342" x2="792" y1="1073.5234" y2="1073.5234"/><text fill="#000000" font-family="sans-serif" font-size="11" lengthAdjust="spacing" textLength="440" x="347" y="1088.9424">+SNSUser(citizenCard, snsNumber, name, birthDay, gender, phoneNumber, email, address)</text><!--MD5=[a29876ea2f21a6ca48ea477740122fd8]
class VaccinationCenterStore--><rect codeLine="126" fill="#FEFECE" filter="url(#f15gytc7xs01t2)" height="48" id="VaccinationCenterStore" style="stroke:#A80036;stroke-width:1.5;" width="161" x="1124.5" y="744.5"/><ellipse cx="1139.5" cy="760.5" fill="#ADD1B2" rx="11" ry="11" style="stroke:#A80036;stroke-width:1.0;"/><path d="M1142.2656,756.375 Q1142.4219,756.1563 1142.6094,756.0469 Q1142.7969,755.9375 1143.0156,755.9375 Q1143.3906,755.9375 1143.625,756.2031 Q1143.8594,756.4531 1143.8594,757.0625 L1143.8594,758.5156 Q1143.8594,759.125 1143.625,759.3906 Q1143.3906,759.6563 1143.0156,759.6563 Q1142.6719,759.6563 1142.4688,759.4531 Q1142.2656,759.2656 1142.1563,758.75 Q1142.1094,758.3906 1141.9219,758.2031 Q1141.5938,757.8281 1140.9844,757.6094 Q1140.375,757.3906 1139.75,757.3906 Q1138.9844,757.3906 1138.3438,757.7188 Q1137.7188,758.0469 1137.2188,758.7969 Q1136.7344,759.5469 1136.7344,760.5781 L1136.7344,761.6719 Q1136.7344,762.9063 1137.625,763.7344 Q1138.5156,764.5469 1140.1094,764.5469 Q1141.0469,764.5469 1141.7031,764.2969 Q1142.0938,764.1406 1142.5156,763.7031 Q1142.7813,763.4375 1142.9219,763.3594 Q1143.0781,763.2813 1143.2813,763.2813 Q1143.6094,763.2813 1143.8594,763.5469 Q1144.125,763.7969 1144.125,764.1406 Q1144.125,764.4844 1143.7813,764.8906 Q1143.2813,765.4688 1142.4844,765.7969 Q1141.4063,766.25 1140.1094,766.25 Q1138.5938,766.25 1137.3906,765.625 Q1136.4063,765.125 1135.7188,764.0625 Q1135.0313,762.9844 1135.0313,761.7031 L1135.0313,760.5469 Q1135.0313,759.2188 1135.6406,758.0781 Q1136.2656,756.9219 1137.3594,756.3125 Q1138.4531,755.6875 1139.6875,755.6875 Q1140.4219,755.6875 1141.0625,755.8594 Q1141.7188,756.0156 1142.2656,756.375 Z " fill="#000000"/><text fill="#000000" font-family="sans-serif" font-size="12" lengthAdjust="spacing" textLength="129" x="1153.5" y="765.4102">VaccinationCenterStore</text><line style="stroke:#A80036;stroke-width:1.5;" x1="1125.5" x2="1284.5" y1="776.5" y2="776.5"/><line style="stroke:#A80036;stroke-width:1.5;" x1="1125.5" x2="1284.5" y1="784.5" y2="784.5"/><!--MD5=[83622bce6ec4666fff10b41c22ae215c]
link ExportCenterStatisticsUI to ExportCenterStatisticsController--><path codeLine="131" d="M1118,90.12 C1118,112.24 1118,145.68 1118,169.45 " fill="none" id="ExportCenterStatisticsUI-to-ExportCenterStatisticsController" style="stroke:#A80036;stroke-width:1.0;stroke-dasharray:7.0,7.0;"/><polygon fill="#A80036" points="1118,174.67,1122,165.67,1118,169.67,1114,165.67,1118,174.67" style="stroke:#A80036;stroke-width:1.0;"/><!--MD5=[0d50fece99724e72ce7ec3ef8ae58538]
link ExportCenterStatisticsController to Company--><path codeLine="133" d="M1110.4,223.2 C1093.18,275.72 1051.11,404.04 1030.61,466.58 " fill="none" id="ExportCenterStatisticsController-to-Company" style="stroke:#A80036;stroke-width:1.0;stroke-dasharray:7.0,7.0;"/><polygon fill="#A80036" points="1028.93,471.69,1035.5313,464.3809,1030.4854,466.9381,1027.9282,461.8922,1028.93,471.69" style="stroke:#A80036;stroke-width:1.0;"/><!--MD5=[bc0d5b4bfe6e1bf0a8fced13bc4bdd47]
link Company to VaccinationCenterStore--><path codeLine="135" d="M1040.34,534.23 C1077.84,587.35 1154.78,696.36 1188.53,744.16 " fill="none" id="Company-VaccinationCenterStore" style="stroke:#A80036;stroke-width:1.0;"/><polygon fill="#000000" points="1130.8835,653.2606,1128.0682,644.1762,1123.2662,647.566,1130.8835,653.2606" style="stroke:#000000;stroke-width:1.0;"/><text fill="#000000" font-family="sans-serif" font-size="13" lengthAdjust="spacing" textLength="37" x="1137" y="654.4951">knows</text><text fill="#000000" font-family="sans-serif" font-size="13" lengthAdjust="spacing" textLength="7" x="1036.7408" y="555.2525">1</text><text fill="#000000" font-family="sans-serif" font-size="13" lengthAdjust="spacing" textLength="7" x="1176.6623" y="733.8151">1</text><!--MD5=[db5fb34fd733ab3677281d60b785e712]
reverse link VaccinationCenter to Employee--><path codeLine="137" d="M679.96,620.9 C696.27,643.88 713.01,667.47 728.17,688.83 " fill="none" id="VaccinationCenter-backto-Employee" style="stroke:#A80036;stroke-width:1.0;"/><polygon fill="#FFFFFF" points="672.25,610.04,672.4586,617.2481,679.1924,619.8279,678.9838,612.6198,672.25,610.04" style="stroke:#A80036;stroke-width:1.0;"/><!--MD5=[91079b08053e6fc6d0a3af85820ed36a]
reverse link VaccinationCenter to Time--><path codeLine="138" d="M948.73,609.09 C950.16,609.39 951.58,609.7 953,610 C1053.83,631.44 1081.44,622.32 1183,640 C1236.33,649.29 1252.6,643.87 1302,666 C1333.37,680.05 1364.68,701.84 1389.72,721.63 " fill="none" id="VaccinationCenter-backto-Time" style="stroke:#A80036;stroke-width:1.0;"/><polygon fill="#FFFFFF" points="935.86,606.24,940.8581,611.438,947.5786,608.8236,942.5805,603.6256,935.86,606.24" style="stroke:#A80036;stroke-width:1.0;"/><!--MD5=[99cf60c71dc20007695665c9ea3c4eb1]
reverse link VaccinationCenter to Slot--><path codeLine="139" d="M550.8,622.19 C536.71,658.23 522.09,695.64 511.21,723.47 " fill="none" id="VaccinationCenter-backto-Slot" style="stroke:#A80036;stroke-width:1.0;"/><polygon fill="#FFFFFF" points="555.55,610.04,549.6421,614.1749,551.1867,621.2186,557.0945,617.0838,555.55,610.04" style="stroke:#A80036;stroke-width:1.0;"/><!--MD5=[09e640553caef1f503445df8eef57be6]
reverse link Vaccine to VaccineType--><path codeLine="141" d="M193,1073.69 C193,1101.12 193,1131.7 193,1155.89 " fill="none" id="Vaccine-backto-VaccineType" style="stroke:#A80036;stroke-width:1.0;"/><polygon fill="#FFFFFF" points="193,1060.51,189,1066.51,193,1072.51,197,1066.51,193,1060.51" style="stroke:#A80036;stroke-width:1.0;"/><!--MD5=[d96ee281cdb1021d3c4ed227c45512e2]
link VaccineAdministration to Vaccine--><path codeLine="143" d="M193,827.02 C193,862.51 193,907.87 193,943.37 " fill="none" id="VaccineAdministration-Vaccine" style="stroke:#A80036;stroke-width:1.0;"/><!--MD5=[951a07871a6512bd4f8e62baa1d062ce]
link VaccineAdministration to SNSUser--><path codeLine="144" d="M270.04,817.19 C312.81,843.66 367.47,877.5 418.22,908.91 " fill="none" id="VaccineAdministration-SNSUser" style="stroke:#A80036;stroke-width:1.0;"/><!--MD5=[12f10beaad6101d0808e438627b46598]
link FullyVaccinatedData to VaccineAdministration--><path codeLine="146" d="M159.91,554.81 C166.82,599.22 176.85,663.68 184.05,709.98 " fill="none" id="FullyVaccinatedData-VaccineAdministration" style="stroke:#A80036;stroke-width:1.0;"/><polygon fill="#000000" points="179.7686,654.1164,181.2822,644.727,175.4742,645.6306,179.7686,654.1164" style="stroke:#000000;stroke-width:1.0;"/><text fill="#000000" font-family="sans-serif" font-size="13" lengthAdjust="spacing" textLength="28" x="188" y="654.4951">uses</text><!--MD5=[81d20c65c22e16bdffd8b359dbf2279d]
reverse link FileUtils to ExportCenterStatisticsController--><path codeLine="148" d="M1172.65,439.17 C1157.29,371.97 1133.74,268.9 1123.3,223.2 " fill="none" id="FileUtils-backto-ExportCenterStatisticsController" style="stroke:#A80036;stroke-width:1.0;stroke-dasharray:7.0,7.0;"/><polygon fill="#A80036" points="1173.83,444.35,1175.7225,434.6847,1172.7151,439.4759,1167.9239,436.4685,1173.83,444.35" style="stroke:#A80036;stroke-width:1.0;"/><!--MD5=[8c304936b446fd8cea914e03fbadd4b7]
link VaccinationCenterStore to VaccinationCenter--><path codeLine="150" d="M1182.97,744.23 C1160.17,721.37 1122.54,686.96 1084,666 C1073.38,660.22 1069.51,661.69 1058,658 C1011.97,643.23 963.46,627.37 915.89,611.63 " fill="none" id="VaccinationCenterStore-to-VaccinationCenter" style="stroke:#A80036;stroke-width:1.0;"/><polygon fill="#A80036" points="910.99,610.01,918.2752,616.6376,915.7363,611.5826,920.7913,609.0436,910.99,610.01" style="stroke:#A80036;stroke-width:1.0;"/><polygon fill="#000000" points="1058.5216,646.9523,1065.3162,653.6069,1067.93,648.3422,1058.5216,646.9523" style="stroke:#000000;stroke-width:1.0;"/><text fill="#000000" font-family="sans-serif" font-size="13" lengthAdjust="spacing" textLength="36" x="1072" y="654.4951">stores</text><text fill="#000000" font-family="sans-serif" font-size="13" lengthAdjust="spacing" textLength="7" x="1169.4279" y="733.501">1</text><text fill="#000000" font-family="sans-serif" font-size="13" lengthAdjust="spacing" textLength="5" x="927.8916" y="631.603">*</text><!--MD5=[092c8502fbd08945fc7d58ea9faafd9c]
@startuml US15_CD
skinparam classAttributeIconSize 0

package UI {
class ExportCenterStatisticsUI {}
}

package controllers {
     class ExportCenterStatisticsController {

     }
}

   package utils {
     class Time {
       - hour: int
       - minute: int
       +Time(hour,minute)

       +Time(time)
     }
   }

package core {
  package domain {

    package service {

class FileUtils {
  +writeToFile()
  +hasNoExtension()
  +removeExtension()
  +removeSpecialChars()
  +buildDirStructure()
}
}

    package model {

class FullyVaccinatedData {
    +getVacAdminList()
    +getSnsUserAge()
    +getVaccine()
    +getVacType()
    }

class VaccineAdministration {
  -snsUser: SNSUser
  -vaccine: Vaccine
  -dose: int
  -lotNumber: String
  -date: date
}

class Company {
    +getDesignation()
}

class VaccinationCenter {
    - name: String
    - address: String
    - emailAddress: String
    - phoneNumber: String
    - faxNumber: String
    - websiteAddress: String
    - openingHours: String
    - closingHours: String
    - slotDuration: int
    - maximumVaccinesPerSlot: int
    - coordinator
        
    +VaccinationCenter(name,address,emailAddress,phoneNumber,faxNumber,websiteAddress,openingHours,closingHours,slot,coordinator)
}


class Employee {
    -id: String 
    -name: String 
    -email: String 
    -phone: String 
    -address: String 
    -citizenCardNumber: int 
    -roleId: String 

    +Employee(name,email,phone,address,citizenCardNumber,roleId)
}

class Slot {
    -duration: int
    -maxVaccinesPerSlot: int

    +Slot(duration,maxVaccinesPerSlot)
}

class Vaccine {
  -designation : String
  -brand : String
  -id : String
  -vacType : VaccineType

  +Vaccine(designation, id, brand, vacTypeId)
}

class VaccineType {
  -code
  -designation
  -technology 
}

class SNSUser {
  - citizenCard: String
  - snsNumber: String
  - name: String
  - birthDay: Calendar
  - gender: String
  - phoneNumber: String
  - email: String
  - address: String
  - userHealthData : UserHealthData
  + SNSUser(citizenCard, snsNumber, name, birthDay, gender, phoneNumber, email, address)
}


}

package stores {
      class VaccinationCenterStore {}
      }
}


ExportCenterStatisticsUI ..> ExportCenterStatisticsController

ExportCenterStatisticsController ..> Company

Company "1" - - "1" VaccinationCenterStore : knows >

VaccinationCenter o- - Employee
VaccinationCenter o- - Time 
VaccinationCenter o- - Slot

Vaccine o- - VaccineType

VaccineAdministration - - Vaccine
VaccineAdministration - - SNSUser

FullyVaccinatedData - - VaccineAdministration : uses >

FileUtils <.. ExportCenterStatisticsController

VaccinationCenterStore "1" - -> "*" VaccinationCenter : stores >
@enduml

PlantUML version 1.2022.0(Tue Jan 11 16:16:42 WET 2022)
(GPL source distribution)
Java Runtime: Java(TM) SE Runtime Environment
JVM: Java HotSpot(TM) 64-Bit Server VM
Default Encoding: Cp1252
Language: pt
Country: PT
--></g></svg>