<?xml version="1.0" encoding="UTF-8" standalone="no"?><svg xmlns="http://www.w3.org/2000/svg" xmlns:xlink="http://www.w3.org/1999/xlink" contentScriptType="application/ecmascript" contentStyleType="text/css" height="1340px" preserveAspectRatio="none" style="width:1896px;height:1340px;background:#FFFFFF;" version="1.1" viewBox="0 0 1896 1340" width="1896px" zoomAndPan="magnify"><defs><filter height="300%" id="fa92t6kpj02g9" width="300%" x="-1" y="-1"><feGaussianBlur result="blurOut" stdDeviation="2.0"/><feColorMatrix in="blurOut" result="blurOut2" type="matrix" values="0 0 0 0 0 0 0 0 0 0 0 0 0 0 0 0 0 0 .4 0"/><feOffset dx="4.0" dy="4.0" in="blurOut2" result="blurOut3"/><feBlend in="SourceGraphic" in2="blurOut3" mode="normal"/></filter></defs><g><!--MD5=[9681dc6e01e10c6b4fe06895ae94f592]
cluster UI--><polygon fill="#FFFFFF" filter="url(#fa92t6kpj02g9)" points="1249,6,1269,6,1276,29.6094,1447,29.6094,1447,106,1249,106,1249,6" style="stroke:#000000;stroke-width:1.5;"/><line style="stroke:#000000;stroke-width:1.5;" x1="1249" x2="1276" y1="29.6094" y2="29.6094"/><text fill="#000000" font-family="sans-serif" font-size="14" font-weight="bold" lengthAdjust="spacing" textLength="14" x="1253" y="22.5332">UI</text><!--MD5=[f4e70ef68289585296b9045165e58692]
cluster controllers--><polygon fill="#FFFFFF" filter="url(#fa92t6kpj02g9)" points="16,139,99,139,106,162.6094,1879,162.6094,1879,1333,16,1333,16,139" style="stroke:#000000;stroke-width:1.5;"/><line style="stroke:#000000;stroke-width:1.5;" x1="16" x2="106" y1="162.6094" y2="162.6094"/><text fill="#000000" font-family="sans-serif" font-size="14" font-weight="bold" lengthAdjust="spacing" textLength="77" x="20" y="155.5332">controllers</text><!--MD5=[c52f45833d539af9e29a9d34b8b7302b]
cluster utils--><polygon fill="#FFFFFF" filter="url(#fa92t6kpj02g9)" points="1719,684.5,1755,684.5,1762,708.1094,1855,708.1094,1855,853.5,1719,853.5,1719,684.5" style="stroke:#000000;stroke-width:1.5;"/><line style="stroke:#000000;stroke-width:1.5;" x1="1719" x2="1762" y1="708.1094" y2="708.1094"/><text fill="#000000" font-family="sans-serif" font-size="14" font-weight="bold" lengthAdjust="spacing" textLength="30" x="1723" y="701.0332">utils</text><!--MD5=[01435ace8273dc3cae88e7f376e4d373]
cluster core--><polygon fill="#FFFFFF" filter="url(#fa92t6kpj02g9)" points="40,270,78,270,85,293.6094,1695,293.6094,1695,1309,40,1309,40,270" style="stroke:#000000;stroke-width:1.5;"/><line style="stroke:#000000;stroke-width:1.5;" x1="40" x2="85" y1="293.6094" y2="293.6094"/><text fill="#000000" font-family="sans-serif" font-size="14" font-weight="bold" lengthAdjust="spacing" textLength="32" x="44" y="286.5332">core</text><!--MD5=[27f772719433d509ddbc20ff768eba08]
cluster domain--><polygon fill="#FFFFFF" filter="url(#fa92t6kpj02g9)" points="64,314,121,314,128,337.6094,1671,337.6094,1671,1285,64,1285,64,314" style="stroke:#000000;stroke-width:1.5;"/><line style="stroke:#000000;stroke-width:1.5;" x1="64" x2="128" y1="337.6094" y2="337.6094"/><text fill="#000000" font-family="sans-serif" font-size="14" font-weight="bold" lengthAdjust="spacing" textLength="51" x="68" y="330.5332">domain</text><!--MD5=[7579d5565d2521d5936cec86ed3dadee]
cluster service--><polygon fill="#FFFFFF" filter="url(#fa92t6kpj02g9)" points="1328,1106,1387,1106,1394,1129.6094,1484,1129.6094,1484,1261,1328,1261,1328,1106" style="stroke:#000000;stroke-width:1.5;"/><line style="stroke:#000000;stroke-width:1.5;" x1="1328" x2="1394" y1="1129.6094" y2="1129.6094"/><text fill="#000000" font-family="sans-serif" font-size="14" font-weight="bold" lengthAdjust="spacing" textLength="53" x="1332" y="1122.5332">service</text><!--MD5=[5d4cd377749310b66bf14896f5cd8d9b]
cluster model--><polygon fill="#FFFFFF" filter="url(#fa92t6kpj02g9)" points="88,358,137,358,144,381.6094,1413,381.6094,1413,1056,88,1056,88,358" style="stroke:#000000;stroke-width:1.5;"/><line style="stroke:#000000;stroke-width:1.5;" x1="88" x2="144" y1="381.6094" y2="381.6094"/><text fill="#000000" font-family="sans-serif" font-size="14" font-weight="bold" lengthAdjust="spacing" textLength="43" x="92" y="374.5332">model</text><!--MD5=[fbca5634cbc0239920b500cad9c4bedb]
cluster stores--><polygon fill="#FFFFFF" filter="url(#fa92t6kpj02g9)" points="1453,719,1504,719,1511,742.6094,1647,742.6094,1647,819,1453,819,1453,719" style="stroke:#000000;stroke-width:1.5;"/><line style="stroke:#000000;stroke-width:1.5;" x1="1453" x2="1511" y1="742.6094" y2="742.6094"/><text fill="#000000" font-family="sans-serif" font-size="14" font-weight="bold" lengthAdjust="spacing" textLength="45" x="1457" y="735.5332">stores</text><!--MD5=[fd69edc332f726597c3a27d97b7bd8fc]
class ExportCenterStatisticsUI--><rect codeLine="4" fill="#FEFECE" filter="url(#fa92t6kpj02g9)" height="48" id="ExportCenterStatisticsUI" style="stroke:#A80036;stroke-width:1.5;" width="165" x="1265.5" y="42"/><ellipse cx="1280.5" cy="58" fill="#ADD1B2" rx="11" ry="11" style="stroke:#A80036;stroke-width:1.0;"/><path d="M1283.2656,53.875 Q1283.4219,53.6563 1283.6094,53.5469 Q1283.7969,53.4375 1284.0156,53.4375 Q1284.3906,53.4375 1284.625,53.7031 Q1284.8594,53.9531 1284.8594,54.5625 L1284.8594,56.0156 Q1284.8594,56.625 1284.625,56.8906 Q1284.3906,57.1563 1284.0156,57.1563 Q1283.6719,57.1563 1283.4688,56.9531 Q1283.2656,56.7656 1283.1563,56.25 Q1283.1094,55.8906 1282.9219,55.7031 Q1282.5938,55.3281 1281.9844,55.1094 Q1281.375,54.8906 1280.75,54.8906 Q1279.9844,54.8906 1279.3438,55.2188 Q1278.7188,55.5469 1278.2188,56.2969 Q1277.7344,57.0469 1277.7344,58.0781 L1277.7344,59.1719 Q1277.7344,60.4063 1278.625,61.2344 Q1279.5156,62.0469 1281.1094,62.0469 Q1282.0469,62.0469 1282.7031,61.7969 Q1283.0938,61.6406 1283.5156,61.2031 Q1283.7813,60.9375 1283.9219,60.8594 Q1284.0781,60.7813 1284.2813,60.7813 Q1284.6094,60.7813 1284.8594,61.0469 Q1285.125,61.2969 1285.125,61.6406 Q1285.125,61.9844 1284.7813,62.3906 Q1284.2813,62.9688 1283.4844,63.2969 Q1282.4063,63.75 1281.1094,63.75 Q1279.5938,63.75 1278.3906,63.125 Q1277.4063,62.625 1276.7188,61.5625 Q1276.0313,60.4844 1276.0313,59.2031 L1276.0313,58.0469 Q1276.0313,56.7188 1276.6406,55.5781 Q1277.2656,54.4219 1278.3594,53.8125 Q1279.4531,53.1875 1280.6875,53.1875 Q1281.4219,53.1875 1282.0625,53.3594 Q1282.7188,53.5156 1283.2656,53.875 Z " fill="#000000"/><text fill="#000000" font-family="sans-serif" font-size="12" lengthAdjust="spacing" textLength="133" x="1294.5" y="62.9102">ExportCenterStatisticsUI</text><line style="stroke:#A80036;stroke-width:1.5;" x1="1266.5" x2="1429.5" y1="74" y2="74"/><line style="stroke:#A80036;stroke-width:1.5;" x1="1266.5" x2="1429.5" y1="82" y2="82"/><!--MD5=[93c339ae26d50accefb5d71117336a4b]
class ExportCenterStatisticsController--><rect codeLine="8" fill="#FEFECE" filter="url(#fa92t6kpj02g9)" height="48" id="ExportCenterStatisticsController" style="stroke:#A80036;stroke-width:1.5;" width="207" x="1244.5" y="175"/><ellipse cx="1259.5" cy="191" fill="#ADD1B2" rx="11" ry="11" style="stroke:#A80036;stroke-width:1.0;"/><path d="M1262.2656,186.875 Q1262.4219,186.6563 1262.6094,186.5469 Q1262.7969,186.4375 1263.0156,186.4375 Q1263.3906,186.4375 1263.625,186.7031 Q1263.8594,186.9531 1263.8594,187.5625 L1263.8594,189.0156 Q1263.8594,189.625 1263.625,189.8906 Q1263.3906,190.1563 1263.0156,190.1563 Q1262.6719,190.1563 1262.4688,189.9531 Q1262.2656,189.7656 1262.1563,189.25 Q1262.1094,188.8906 1261.9219,188.7031 Q1261.5938,188.3281 1260.9844,188.1094 Q1260.375,187.8906 1259.75,187.8906 Q1258.9844,187.8906 1258.3438,188.2188 Q1257.7188,188.5469 1257.2188,189.2969 Q1256.7344,190.0469 1256.7344,191.0781 L1256.7344,192.1719 Q1256.7344,193.4063 1257.625,194.2344 Q1258.5156,195.0469 1260.1094,195.0469 Q1261.0469,195.0469 1261.7031,194.7969 Q1262.0938,194.6406 1262.5156,194.2031 Q1262.7813,193.9375 1262.9219,193.8594 Q1263.0781,193.7813 1263.2813,193.7813 Q1263.6094,193.7813 1263.8594,194.0469 Q1264.125,194.2969 1264.125,194.6406 Q1264.125,194.9844 1263.7813,195.3906 Q1263.2813,195.9688 1262.4844,196.2969 Q1261.4063,196.75 1260.1094,196.75 Q1258.5938,196.75 1257.3906,196.125 Q1256.4063,195.625 1255.7188,194.5625 Q1255.0313,193.4844 1255.0313,192.2031 L1255.0313,191.0469 Q1255.0313,189.7188 1255.6406,188.5781 Q1256.2656,187.4219 1257.3594,186.8125 Q1258.4531,186.1875 1259.6875,186.1875 Q1260.4219,186.1875 1261.0625,186.3594 Q1261.7188,186.5156 1262.2656,186.875 Z " fill="#000000"/><text fill="#000000" font-family="sans-serif" font-size="12" lengthAdjust="spacing" textLength="175" x="1273.5" y="195.9102">ExportCenterStatisticsController</text><line style="stroke:#A80036;stroke-width:1.5;" x1="1245.5" x2="1450.5" y1="207" y2="207"/><line style="stroke:#A80036;stroke-width:1.5;" x1="1245.5" x2="1450.5" y1="215" y2="215"/><!--MD5=[2e42295458bb0bec21c9622a623eb29e]
class Time--><rect codeLine="13" fill="#FEFECE" filter="url(#fa92t6kpj02g9)" height="117.1797" id="Time" style="stroke:#A80036;stroke-width:1.5;" width="104" x="1735" y="720.5"/><ellipse cx="1769.8" cy="736.5" fill="#ADD1B2" rx="11" ry="11" style="stroke:#A80036;stroke-width:1.0;"/><path d="M1772.5656,732.375 Q1772.7219,732.1563 1772.9094,732.0469 Q1773.0969,731.9375 1773.3156,731.9375 Q1773.6906,731.9375 1773.925,732.2031 Q1774.1594,732.4531 1774.1594,733.0625 L1774.1594,734.5156 Q1774.1594,735.125 1773.925,735.3906 Q1773.6906,735.6563 1773.3156,735.6563 Q1772.9719,735.6563 1772.7688,735.4531 Q1772.5656,735.2656 1772.4563,734.75 Q1772.4094,734.3906 1772.2219,734.2031 Q1771.8938,733.8281 1771.2844,733.6094 Q1770.675,733.3906 1770.05,733.3906 Q1769.2844,733.3906 1768.6438,733.7188 Q1768.0188,734.0469 1767.5188,734.7969 Q1767.0344,735.5469 1767.0344,736.5781 L1767.0344,737.6719 Q1767.0344,738.9063 1767.925,739.7344 Q1768.8156,740.5469 1770.4094,740.5469 Q1771.3469,740.5469 1772.0031,740.2969 Q1772.3938,740.1406 1772.8156,739.7031 Q1773.0813,739.4375 1773.2219,739.3594 Q1773.3781,739.2813 1773.5813,739.2813 Q1773.9094,739.2813 1774.1594,739.5469 Q1774.425,739.7969 1774.425,740.1406 Q1774.425,740.4844 1774.0813,740.8906 Q1773.5813,741.4688 1772.7844,741.7969 Q1771.7063,742.25 1770.4094,742.25 Q1768.8938,742.25 1767.6906,741.625 Q1766.7063,741.125 1766.0188,740.0625 Q1765.3313,738.9844 1765.3313,737.7031 L1765.3313,736.5469 Q1765.3313,735.2188 1765.9406,734.0781 Q1766.5656,732.9219 1767.6594,732.3125 Q1768.7531,731.6875 1769.9875,731.6875 Q1770.7219,731.6875 1771.3625,731.8594 Q1772.0188,732.0156 1772.5656,732.375 Z " fill="#000000"/><text fill="#000000" font-family="sans-serif" font-size="12" lengthAdjust="spacing" textLength="28" x="1788.2" y="741.4102">Time</text><line style="stroke:#A80036;stroke-width:1.5;" x1="1736" x2="1838" y1="752.5" y2="752.5"/><text fill="#000000" font-family="sans-serif" font-size="11" lengthAdjust="spacing" textLength="43" x="1741" y="767.9189">-hour: int</text><text fill="#000000" font-family="sans-serif" font-size="11" lengthAdjust="spacing" textLength="52" x="1741" y="781.7549">-minute: int</text><line style="stroke:#A80036;stroke-width:1.5;" x1="1736" x2="1838" y1="788.1719" y2="788.1719"/><text fill="#000000" font-family="sans-serif" font-size="11" lengthAdjust="spacing" textLength="92" x="1741" y="803.5908">+Time(hour,minute)</text><text fill="#000000" font-family="sans-serif" font-size="11" lengthAdjust="spacing" textLength="0" x="1744" y="817.4268"/><text fill="#000000" font-family="sans-serif" font-size="11" lengthAdjust="spacing" textLength="55" x="1741" y="831.2627">+Time(time)</text><!--MD5=[d4d15ea54b9448c0296933a9a5d3611f]
class CsvExporterData--><rect codeLine="27" fill="#FEFECE" filter="url(#fa92t6kpj02g9)" height="103.3438" id="CsvExporterData" style="stroke:#A80036;stroke-width:1.5;" width="124" x="1344" y="1142"/><ellipse cx="1359" cy="1158" fill="#ADD1B2" rx="11" ry="11" style="stroke:#A80036;stroke-width:1.0;"/><path d="M1361.7656,1153.875 Q1361.9219,1153.6563 1362.1094,1153.5469 Q1362.2969,1153.4375 1362.5156,1153.4375 Q1362.8906,1153.4375 1363.125,1153.7031 Q1363.3594,1153.9531 1363.3594,1154.5625 L1363.3594,1156.0156 Q1363.3594,1156.625 1363.125,1156.8906 Q1362.8906,1157.1563 1362.5156,1157.1563 Q1362.1719,1157.1563 1361.9688,1156.9531 Q1361.7656,1156.7656 1361.6563,1156.25 Q1361.6094,1155.8906 1361.4219,1155.7031 Q1361.0938,1155.3281 1360.4844,1155.1094 Q1359.875,1154.8906 1359.25,1154.8906 Q1358.4844,1154.8906 1357.8438,1155.2188 Q1357.2188,1155.5469 1356.7188,1156.2969 Q1356.2344,1157.0469 1356.2344,1158.0781 L1356.2344,1159.1719 Q1356.2344,1160.4063 1357.125,1161.2344 Q1358.0156,1162.0469 1359.6094,1162.0469 Q1360.5469,1162.0469 1361.2031,1161.7969 Q1361.5938,1161.6406 1362.0156,1161.2031 Q1362.2813,1160.9375 1362.4219,1160.8594 Q1362.5781,1160.7813 1362.7813,1160.7813 Q1363.1094,1160.7813 1363.3594,1161.0469 Q1363.625,1161.2969 1363.625,1161.6406 Q1363.625,1161.9844 1363.2813,1162.3906 Q1362.7813,1162.9688 1361.9844,1163.2969 Q1360.9063,1163.75 1359.6094,1163.75 Q1358.0938,1163.75 1356.8906,1163.125 Q1355.9063,1162.625 1355.2188,1161.5625 Q1354.5313,1160.4844 1354.5313,1159.2031 L1354.5313,1158.0469 Q1354.5313,1156.7188 1355.1406,1155.5781 Q1355.7656,1154.4219 1356.8594,1153.8125 Q1357.9531,1153.1875 1359.1875,1153.1875 Q1359.9219,1153.1875 1360.5625,1153.3594 Q1361.2188,1153.5156 1361.7656,1153.875 Z " fill="#000000"/><text fill="#000000" font-family="sans-serif" font-size="12" lengthAdjust="spacing" textLength="92" x="1373" y="1162.9102">CsvExporterData</text><line style="stroke:#A80036;stroke-width:1.5;" x1="1345" x2="1467" y1="1174" y2="1174"/><line style="stroke:#A80036;stroke-width:1.5;" x1="1345" x2="1467" y1="1182" y2="1182"/><text fill="#000000" font-family="sans-serif" font-size="11" lengthAdjust="spacing" textLength="96" x="1350" y="1197.4189">+getVacAdminList()</text><text fill="#000000" font-family="sans-serif" font-size="11" lengthAdjust="spacing" textLength="91" x="1350" y="1211.2549">+getSnsUserAge()</text><text fill="#000000" font-family="sans-serif" font-size="11" lengthAdjust="spacing" textLength="69" x="1350" y="1225.0908">+getVaccine()</text><text fill="#000000" font-family="sans-serif" font-size="11" lengthAdjust="spacing" textLength="73" x="1350" y="1238.9268">+getVacType()</text><!--MD5=[2f5d6e01fe75439dfc07f7d52cf7e59d]
class CsvExporter--><rect codeLine="37" fill="#FEFECE" filter="url(#fa92t6kpj02g9)" height="48" id="CsvExporter" style="stroke:#A80036;stroke-width:1.5;" width="98" x="1096" y="971"/><ellipse cx="1111" cy="987" fill="#ADD1B2" rx="11" ry="11" style="stroke:#A80036;stroke-width:1.0;"/><path d="M1113.7656,982.875 Q1113.9219,982.6563 1114.1094,982.5469 Q1114.2969,982.4375 1114.5156,982.4375 Q1114.8906,982.4375 1115.125,982.7031 Q1115.3594,982.9531 1115.3594,983.5625 L1115.3594,985.0156 Q1115.3594,985.625 1115.125,985.8906 Q1114.8906,986.1563 1114.5156,986.1563 Q1114.1719,986.1563 1113.9688,985.9531 Q1113.7656,985.7656 1113.6563,985.25 Q1113.6094,984.8906 1113.4219,984.7031 Q1113.0938,984.3281 1112.4844,984.1094 Q1111.875,983.8906 1111.25,983.8906 Q1110.4844,983.8906 1109.8438,984.2188 Q1109.2188,984.5469 1108.7188,985.2969 Q1108.2344,986.0469 1108.2344,987.0781 L1108.2344,988.1719 Q1108.2344,989.4063 1109.125,990.2344 Q1110.0156,991.0469 1111.6094,991.0469 Q1112.5469,991.0469 1113.2031,990.7969 Q1113.5938,990.6406 1114.0156,990.2031 Q1114.2813,989.9375 1114.4219,989.8594 Q1114.5781,989.7813 1114.7813,989.7813 Q1115.1094,989.7813 1115.3594,990.0469 Q1115.625,990.2969 1115.625,990.6406 Q1115.625,990.9844 1115.2813,991.3906 Q1114.7813,991.9688 1113.9844,992.2969 Q1112.9063,992.75 1111.6094,992.75 Q1110.0938,992.75 1108.8906,992.125 Q1107.9063,991.625 1107.2188,990.5625 Q1106.5313,989.4844 1106.5313,988.2031 L1106.5313,987.0469 Q1106.5313,985.7188 1107.1406,984.5781 Q1107.7656,983.4219 1108.8594,982.8125 Q1109.9531,982.1875 1111.1875,982.1875 Q1111.9219,982.1875 1112.5625,982.3594 Q1113.2188,982.5156 1113.7656,982.875 Z " fill="#000000"/><text fill="#000000" font-family="sans-serif" font-size="12" lengthAdjust="spacing" textLength="66" x="1125" y="991.9102">CsvExporter</text><line style="stroke:#A80036;stroke-width:1.5;" x1="1097" x2="1193" y1="1003" y2="1003"/><line style="stroke:#A80036;stroke-width:1.5;" x1="1097" x2="1193" y1="1011" y2="1011"/><!--MD5=[107cfa23aa516ff83d0cf17a6f9fe7ba]
class VaccineAdministration--><rect codeLine="39" fill="#FEFECE" filter="url(#fa92t6kpj02g9)" height="117.1797" id="VaccineAdministration" style="stroke:#A80036;stroke-width:1.5;" width="154" x="398" y="442.5"/><ellipse cx="413" cy="458.5" fill="#ADD1B2" rx="11" ry="11" style="stroke:#A80036;stroke-width:1.0;"/><path d="M415.7656,454.375 Q415.9219,454.1563 416.1094,454.0469 Q416.2969,453.9375 416.5156,453.9375 Q416.8906,453.9375 417.125,454.2031 Q417.3594,454.4531 417.3594,455.0625 L417.3594,456.5156 Q417.3594,457.125 417.125,457.3906 Q416.8906,457.6563 416.5156,457.6563 Q416.1719,457.6563 415.9688,457.4531 Q415.7656,457.2656 415.6563,456.75 Q415.6094,456.3906 415.4219,456.2031 Q415.0938,455.8281 414.4844,455.6094 Q413.875,455.3906 413.25,455.3906 Q412.4844,455.3906 411.8438,455.7188 Q411.2188,456.0469 410.7188,456.7969 Q410.2344,457.5469 410.2344,458.5781 L410.2344,459.6719 Q410.2344,460.9063 411.125,461.7344 Q412.0156,462.5469 413.6094,462.5469 Q414.5469,462.5469 415.2031,462.2969 Q415.5938,462.1406 416.0156,461.7031 Q416.2813,461.4375 416.4219,461.3594 Q416.5781,461.2813 416.7813,461.2813 Q417.1094,461.2813 417.3594,461.5469 Q417.625,461.7969 417.625,462.1406 Q417.625,462.4844 417.2813,462.8906 Q416.7813,463.4688 415.9844,463.7969 Q414.9063,464.25 413.6094,464.25 Q412.0938,464.25 410.8906,463.625 Q409.9063,463.125 409.2188,462.0625 Q408.5313,460.9844 408.5313,459.7031 L408.5313,458.5469 Q408.5313,457.2188 409.1406,456.0781 Q409.7656,454.9219 410.8594,454.3125 Q411.9531,453.6875 413.1875,453.6875 Q413.9219,453.6875 414.5625,453.8594 Q415.2188,454.0156 415.7656,454.375 Z " fill="#000000"/><text fill="#000000" font-family="sans-serif" font-size="12" lengthAdjust="spacing" textLength="122" x="427" y="463.4102">VaccineAdministration</text><line style="stroke:#A80036;stroke-width:1.5;" x1="399" x2="551" y1="474.5" y2="474.5"/><text fill="#000000" font-family="sans-serif" font-size="11" lengthAdjust="spacing" textLength="95" x="404" y="489.9189">-snsUser: SNSUser</text><text fill="#000000" font-family="sans-serif" font-size="11" lengthAdjust="spacing" textLength="88" x="404" y="503.7549">-vaccine: Vaccine</text><text fill="#000000" font-family="sans-serif" font-size="11" lengthAdjust="spacing" textLength="45" x="404" y="517.5908">-dose: int</text><text fill="#000000" font-family="sans-serif" font-size="11" lengthAdjust="spacing" textLength="86" x="404" y="531.4268">-lotNumber: String</text><text fill="#000000" font-family="sans-serif" font-size="11" lengthAdjust="spacing" textLength="52" x="404" y="545.2627">-date: date</text><line style="stroke:#A80036;stroke-width:1.5;" x1="399" x2="551" y1="551.6797" y2="551.6797"/><!--MD5=[02e4b9b7573f1156f41e60aa5b4e25a4]
class Company--><rect codeLine="47" fill="#FEFECE" filter="url(#fa92t6kpj02g9)" height="61.8359" id="Company" style="stroke:#A80036;stroke-width:1.5;" width="97" x="1299.5" y="470"/><ellipse cx="1319.9" cy="486" fill="#ADD1B2" rx="11" ry="11" style="stroke:#A80036;stroke-width:1.0;"/><path d="M1322.6656,481.875 Q1322.8219,481.6563 1323.0094,481.5469 Q1323.1969,481.4375 1323.4156,481.4375 Q1323.7906,481.4375 1324.025,481.7031 Q1324.2594,481.9531 1324.2594,482.5625 L1324.2594,484.0156 Q1324.2594,484.625 1324.025,484.8906 Q1323.7906,485.1563 1323.4156,485.1563 Q1323.0719,485.1563 1322.8688,484.9531 Q1322.6656,484.7656 1322.5563,484.25 Q1322.5094,483.8906 1322.3219,483.7031 Q1321.9938,483.3281 1321.3844,483.1094 Q1320.775,482.8906 1320.15,482.8906 Q1319.3844,482.8906 1318.7438,483.2188 Q1318.1188,483.5469 1317.6188,484.2969 Q1317.1344,485.0469 1317.1344,486.0781 L1317.1344,487.1719 Q1317.1344,488.4063 1318.025,489.2344 Q1318.9156,490.0469 1320.5094,490.0469 Q1321.4469,490.0469 1322.1031,489.7969 Q1322.4938,489.6406 1322.9156,489.2031 Q1323.1813,488.9375 1323.3219,488.8594 Q1323.4781,488.7813 1323.6813,488.7813 Q1324.0094,488.7813 1324.2594,489.0469 Q1324.525,489.2969 1324.525,489.6406 Q1324.525,489.9844 1324.1813,490.3906 Q1323.6813,490.9688 1322.8844,491.2969 Q1321.8063,491.75 1320.5094,491.75 Q1318.9938,491.75 1317.7906,491.125 Q1316.8063,490.625 1316.1188,489.5625 Q1315.4313,488.4844 1315.4313,487.2031 L1315.4313,486.0469 Q1315.4313,484.7188 1316.0406,483.5781 Q1316.6656,482.4219 1317.7594,481.8125 Q1318.8531,481.1875 1320.0875,481.1875 Q1320.8219,481.1875 1321.4625,481.3594 Q1322.1188,481.5156 1322.6656,481.875 Z " fill="#000000"/><text fill="#000000" font-family="sans-serif" font-size="12" lengthAdjust="spacing" textLength="53" x="1335.1" y="490.9102">Company</text><line style="stroke:#A80036;stroke-width:1.5;" x1="1300.5" x2="1395.5" y1="502" y2="502"/><line style="stroke:#A80036;stroke-width:1.5;" x1="1300.5" x2="1395.5" y1="510" y2="510"/><text fill="#000000" font-family="sans-serif" font-size="11" lengthAdjust="spacing" textLength="85" x="1305.5" y="525.4189">+getDesignation()</text><!--MD5=[de60e6d4f424ae4d0522096f76a59010]
class VaccinationCenter--><rect codeLine="51" fill="#FEFECE" filter="url(#fa92t6kpj02g9)" height="214.0313" id="VaccinationCenter" style="stroke:#A80036;stroke-width:1.5;" width="677" x="587.5" y="394"/><ellipse cx="871.75" cy="410" fill="#ADD1B2" rx="11" ry="11" style="stroke:#A80036;stroke-width:1.0;"/><path d="M874.5156,405.875 Q874.6719,405.6563 874.8594,405.5469 Q875.0469,405.4375 875.2656,405.4375 Q875.6406,405.4375 875.875,405.7031 Q876.1094,405.9531 876.1094,406.5625 L876.1094,408.0156 Q876.1094,408.625 875.875,408.8906 Q875.6406,409.1563 875.2656,409.1563 Q874.9219,409.1563 874.7188,408.9531 Q874.5156,408.7656 874.4063,408.25 Q874.3594,407.8906 874.1719,407.7031 Q873.8438,407.3281 873.2344,407.1094 Q872.625,406.8906 872,406.8906 Q871.2344,406.8906 870.5938,407.2188 Q869.9688,407.5469 869.4688,408.2969 Q868.9844,409.0469 868.9844,410.0781 L868.9844,411.1719 Q868.9844,412.4063 869.875,413.2344 Q870.7656,414.0469 872.3594,414.0469 Q873.2969,414.0469 873.9531,413.7969 Q874.3438,413.6406 874.7656,413.2031 Q875.0313,412.9375 875.1719,412.8594 Q875.3281,412.7813 875.5313,412.7813 Q875.8594,412.7813 876.1094,413.0469 Q876.375,413.2969 876.375,413.6406 Q876.375,413.9844 876.0313,414.3906 Q875.5313,414.9688 874.7344,415.2969 Q873.6563,415.75 872.3594,415.75 Q870.8438,415.75 869.6406,415.125 Q868.6563,414.625 867.9688,413.5625 Q867.2813,412.4844 867.2813,411.2031 L867.2813,410.0469 Q867.2813,408.7188 867.8906,407.5781 Q868.5156,406.4219 869.6094,405.8125 Q870.7031,405.1875 871.9375,405.1875 Q872.6719,405.1875 873.3125,405.3594 Q873.9688,405.5156 874.5156,405.875 Z " fill="#000000"/><text fill="#000000" font-family="sans-serif" font-size="12" lengthAdjust="spacing" textLength="100" x="892.25" y="414.9102">VaccinationCenter</text><line style="stroke:#A80036;stroke-width:1.5;" x1="588.5" x2="1263.5" y1="426" y2="426"/><text fill="#000000" font-family="sans-serif" font-size="11" lengthAdjust="spacing" textLength="64" x="593.5" y="441.4189">-name: String</text><text fill="#000000" font-family="sans-serif" font-size="11" lengthAdjust="spacing" textLength="78" x="593.5" y="455.2549">-address: String</text><text fill="#000000" font-family="sans-serif" font-size="11" lengthAdjust="spacing" textLength="104" x="593.5" y="469.0908">-emailAddress: String</text><text fill="#000000" font-family="sans-serif" font-size="11" lengthAdjust="spacing" textLength="105" x="593.5" y="482.9268">-phoneNumber: String</text><text fill="#000000" font-family="sans-serif" font-size="11" lengthAdjust="spacing" textLength="91" x="593.5" y="496.7627">-faxNumber: String</text><text fill="#000000" font-family="sans-serif" font-size="11" lengthAdjust="spacing" textLength="119" x="593.5" y="510.5986">-websiteAddress: String</text><text fill="#000000" font-family="sans-serif" font-size="11" lengthAdjust="spacing" textLength="105" x="593.5" y="524.4346">-openingHours: String</text><text fill="#000000" font-family="sans-serif" font-size="11" lengthAdjust="spacing" textLength="101" x="593.5" y="538.2705">-closingHours: String</text><text fill="#000000" font-family="sans-serif" font-size="11" lengthAdjust="spacing" textLength="78" x="593.5" y="552.1064">-slotDuration: int</text><text fill="#000000" font-family="sans-serif" font-size="11" lengthAdjust="spacing" textLength="145" x="593.5" y="565.9424">-maximumVaccinesPerSlot: int</text><text fill="#000000" font-family="sans-serif" font-size="11" lengthAdjust="spacing" textLength="59" x="593.5" y="579.7783">-coordinator</text><line style="stroke:#A80036;stroke-width:1.5;" x1="588.5" x2="1263.5" y1="586.1953" y2="586.1953"/><text fill="#000000" font-family="sans-serif" font-size="11" lengthAdjust="spacing" textLength="665" x="593.5" y="601.6143">+VaccinationCenter(name,address,emailAddress,phoneNumber,faxNumber,websiteAddress,openingHours,closingHours,slot,coordinator)</text><!--MD5=[7421f545a0d8420c5bec41e74b387d9c]
class Employee--><rect codeLine="68" fill="#FEFECE" filter="url(#fa92t6kpj02g9)" height="158.6875" id="Employee" style="stroke:#A80036;stroke-width:1.5;" width="324" x="852" y="699.5"/><ellipse cx="982.25" cy="715.5" fill="#ADD1B2" rx="11" ry="11" style="stroke:#A80036;stroke-width:1.0;"/><path d="M985.0156,711.375 Q985.1719,711.1563 985.3594,711.0469 Q985.5469,710.9375 985.7656,710.9375 Q986.1406,710.9375 986.375,711.2031 Q986.6094,711.4531 986.6094,712.0625 L986.6094,713.5156 Q986.6094,714.125 986.375,714.3906 Q986.1406,714.6563 985.7656,714.6563 Q985.4219,714.6563 985.2188,714.4531 Q985.0156,714.2656 984.9063,713.75 Q984.8594,713.3906 984.6719,713.2031 Q984.3438,712.8281 983.7344,712.6094 Q983.125,712.3906 982.5,712.3906 Q981.7344,712.3906 981.0938,712.7188 Q980.4688,713.0469 979.9688,713.7969 Q979.4844,714.5469 979.4844,715.5781 L979.4844,716.6719 Q979.4844,717.9063 980.375,718.7344 Q981.2656,719.5469 982.8594,719.5469 Q983.7969,719.5469 984.4531,719.2969 Q984.8438,719.1406 985.2656,718.7031 Q985.5313,718.4375 985.6719,718.3594 Q985.8281,718.2813 986.0313,718.2813 Q986.3594,718.2813 986.6094,718.5469 Q986.875,718.7969 986.875,719.1406 Q986.875,719.4844 986.5313,719.8906 Q986.0313,720.4688 985.2344,720.7969 Q984.1563,721.25 982.8594,721.25 Q981.3438,721.25 980.1406,720.625 Q979.1563,720.125 978.4688,719.0625 Q977.7813,717.9844 977.7813,716.7031 L977.7813,715.5469 Q977.7813,714.2188 978.3906,713.0781 Q979.0156,711.9219 980.1094,711.3125 Q981.2031,710.6875 982.4375,710.6875 Q983.1719,710.6875 983.8125,710.8594 Q984.4688,711.0156 985.0156,711.375 Z " fill="#000000"/><text fill="#000000" font-family="sans-serif" font-size="12" lengthAdjust="spacing" textLength="55" x="1002.75" y="720.4102">Employee</text><line style="stroke:#A80036;stroke-width:1.5;" x1="853" x2="1175" y1="731.5" y2="731.5"/><text fill="#000000" font-family="sans-serif" font-size="11" lengthAdjust="spacing" textLength="46" x="858" y="746.9189">-id: String</text><text fill="#000000" font-family="sans-serif" font-size="11" lengthAdjust="spacing" textLength="64" x="858" y="760.7549">-name: String</text><text fill="#000000" font-family="sans-serif" font-size="11" lengthAdjust="spacing" textLength="62" x="858" y="774.5908">-email: String</text><text fill="#000000" font-family="sans-serif" font-size="11" lengthAdjust="spacing" textLength="68" x="858" y="788.4268">-phone: String</text><text fill="#000000" font-family="sans-serif" font-size="11" lengthAdjust="spacing" textLength="78" x="858" y="802.2627">-address: String</text><text fill="#000000" font-family="sans-serif" font-size="11" lengthAdjust="spacing" textLength="112" x="858" y="816.0986">-citizenCardNumber: int</text><text fill="#000000" font-family="sans-serif" font-size="11" lengthAdjust="spacing" textLength="64" x="858" y="829.9346">-roleId: String</text><line style="stroke:#A80036;stroke-width:1.5;" x1="853" x2="1175" y1="836.3516" y2="836.3516"/><text fill="#000000" font-family="sans-serif" font-size="11" lengthAdjust="spacing" textLength="312" x="858" y="851.7705">+Employee(name,email,phone,address,citizenCardNumber,roleId)</text><!--MD5=[45c6380d22fb72521f5065026b277fb9]
class Slot--><rect codeLine="80" fill="#FEFECE" filter="url(#fa92t6kpj02g9)" height="89.5078" id="Slot" style="stroke:#A80036;stroke-width:1.5;" width="186" x="1211" y="734"/><ellipse cx="1289.25" cy="750" fill="#ADD1B2" rx="11" ry="11" style="stroke:#A80036;stroke-width:1.0;"/><path d="M1292.0156,745.875 Q1292.1719,745.6563 1292.3594,745.5469 Q1292.5469,745.4375 1292.7656,745.4375 Q1293.1406,745.4375 1293.375,745.7031 Q1293.6094,745.9531 1293.6094,746.5625 L1293.6094,748.0156 Q1293.6094,748.625 1293.375,748.8906 Q1293.1406,749.1563 1292.7656,749.1563 Q1292.4219,749.1563 1292.2188,748.9531 Q1292.0156,748.7656 1291.9063,748.25 Q1291.8594,747.8906 1291.6719,747.7031 Q1291.3438,747.3281 1290.7344,747.1094 Q1290.125,746.8906 1289.5,746.8906 Q1288.7344,746.8906 1288.0938,747.2188 Q1287.4688,747.5469 1286.9688,748.2969 Q1286.4844,749.0469 1286.4844,750.0781 L1286.4844,751.1719 Q1286.4844,752.4063 1287.375,753.2344 Q1288.2656,754.0469 1289.8594,754.0469 Q1290.7969,754.0469 1291.4531,753.7969 Q1291.8438,753.6406 1292.2656,753.2031 Q1292.5313,752.9375 1292.6719,752.8594 Q1292.8281,752.7813 1293.0313,752.7813 Q1293.3594,752.7813 1293.6094,753.0469 Q1293.875,753.2969 1293.875,753.6406 Q1293.875,753.9844 1293.5313,754.3906 Q1293.0313,754.9688 1292.2344,755.2969 Q1291.1563,755.75 1289.8594,755.75 Q1288.3438,755.75 1287.1406,755.125 Q1286.1563,754.625 1285.4688,753.5625 Q1284.7813,752.4844 1284.7813,751.2031 L1284.7813,750.0469 Q1284.7813,748.7188 1285.3906,747.5781 Q1286.0156,746.4219 1287.1094,745.8125 Q1288.2031,745.1875 1289.4375,745.1875 Q1290.1719,745.1875 1290.8125,745.3594 Q1291.4688,745.5156 1292.0156,745.875 Z " fill="#000000"/><text fill="#000000" font-family="sans-serif" font-size="12" lengthAdjust="spacing" textLength="21" x="1309.75" y="754.9102">Slot</text><line style="stroke:#A80036;stroke-width:1.5;" x1="1212" x2="1396" y1="766" y2="766"/><text fill="#000000" font-family="sans-serif" font-size="11" lengthAdjust="spacing" textLength="60" x="1217" y="781.4189">-duration: int</text><text fill="#000000" font-family="sans-serif" font-size="11" lengthAdjust="spacing" textLength="121" x="1217" y="795.2549">-maxVaccinesPerSlot: int</text><line style="stroke:#A80036;stroke-width:1.5;" x1="1212" x2="1396" y1="801.6719" y2="801.6719"/><text fill="#000000" font-family="sans-serif" font-size="11" lengthAdjust="spacing" textLength="174" x="1217" y="817.0908">+Slot(duration,maxVaccinesPerSlot)</text><!--MD5=[19e445fc4d3b48519cbe33da05496394]
class Vaccine--><rect codeLine="87" fill="#FEFECE" filter="url(#fa92t6kpj02g9)" height="117.1797" id="Vaccine" style="stroke:#A80036;stroke-width:1.5;" width="225" x="104.5" y="720.5"/><ellipse cx="191.25" cy="736.5" fill="#ADD1B2" rx="11" ry="11" style="stroke:#A80036;stroke-width:1.0;"/><path d="M194.0156,732.375 Q194.1719,732.1563 194.3594,732.0469 Q194.5469,731.9375 194.7656,731.9375 Q195.1406,731.9375 195.375,732.2031 Q195.6094,732.4531 195.6094,733.0625 L195.6094,734.5156 Q195.6094,735.125 195.375,735.3906 Q195.1406,735.6563 194.7656,735.6563 Q194.4219,735.6563 194.2188,735.4531 Q194.0156,735.2656 193.9063,734.75 Q193.8594,734.3906 193.6719,734.2031 Q193.3438,733.8281 192.7344,733.6094 Q192.125,733.3906 191.5,733.3906 Q190.7344,733.3906 190.0938,733.7188 Q189.4688,734.0469 188.9688,734.7969 Q188.4844,735.5469 188.4844,736.5781 L188.4844,737.6719 Q188.4844,738.9063 189.375,739.7344 Q190.2656,740.5469 191.8594,740.5469 Q192.7969,740.5469 193.4531,740.2969 Q193.8438,740.1406 194.2656,739.7031 Q194.5313,739.4375 194.6719,739.3594 Q194.8281,739.2813 195.0313,739.2813 Q195.3594,739.2813 195.6094,739.5469 Q195.875,739.7969 195.875,740.1406 Q195.875,740.4844 195.5313,740.8906 Q195.0313,741.4688 194.2344,741.7969 Q193.1563,742.25 191.8594,742.25 Q190.3438,742.25 189.1406,741.625 Q188.1563,741.125 187.4688,740.0625 Q186.7813,738.9844 186.7813,737.7031 L186.7813,736.5469 Q186.7813,735.2188 187.3906,734.0781 Q188.0156,732.9219 189.1094,732.3125 Q190.2031,731.6875 191.4375,731.6875 Q192.1719,731.6875 192.8125,731.8594 Q193.4688,732.0156 194.0156,732.375 Z " fill="#000000"/><text fill="#000000" font-family="sans-serif" font-size="12" lengthAdjust="spacing" textLength="43" x="211.75" y="741.4102">Vaccine</text><line style="stroke:#A80036;stroke-width:1.5;" x1="105.5" x2="328.5" y1="752.5" y2="752.5"/><text fill="#000000" font-family="sans-serif" font-size="11" lengthAdjust="spacing" textLength="96" x="110.5" y="767.9189">-designation : String</text><text fill="#000000" font-family="sans-serif" font-size="11" lengthAdjust="spacing" textLength="69" x="110.5" y="781.7549">-brand : String</text><text fill="#000000" font-family="sans-serif" font-size="11" lengthAdjust="spacing" textLength="49" x="110.5" y="795.5908">-id : String</text><text fill="#000000" font-family="sans-serif" font-size="11" lengthAdjust="spacing" textLength="119" x="110.5" y="809.4268">-vacType : VaccineType</text><line style="stroke:#A80036;stroke-width:1.5;" x1="105.5" x2="328.5" y1="815.8438" y2="815.8438"/><text fill="#000000" font-family="sans-serif" font-size="11" lengthAdjust="spacing" textLength="213" x="110.5" y="831.2627">+Vaccine(designation, id, brand, vacTypeId)</text><!--MD5=[0e501da62322464167c8ec4d233a6b7e]
class VaccineType--><rect codeLine="96" fill="#FEFECE" filter="url(#fa92t6kpj02g9)" height="89.5078" id="VaccineType" style="stroke:#A80036;stroke-width:1.5;" width="101" x="166.5" y="950"/><ellipse cx="181.5" cy="966" fill="#ADD1B2" rx="11" ry="11" style="stroke:#A80036;stroke-width:1.0;"/><path d="M184.2656,961.875 Q184.4219,961.6563 184.6094,961.5469 Q184.7969,961.4375 185.0156,961.4375 Q185.3906,961.4375 185.625,961.7031 Q185.8594,961.9531 185.8594,962.5625 L185.8594,964.0156 Q185.8594,964.625 185.625,964.8906 Q185.3906,965.1563 185.0156,965.1563 Q184.6719,965.1563 184.4688,964.9531 Q184.2656,964.7656 184.1563,964.25 Q184.1094,963.8906 183.9219,963.7031 Q183.5938,963.3281 182.9844,963.1094 Q182.375,962.8906 181.75,962.8906 Q180.9844,962.8906 180.3438,963.2188 Q179.7188,963.5469 179.2188,964.2969 Q178.7344,965.0469 178.7344,966.0781 L178.7344,967.1719 Q178.7344,968.4063 179.625,969.2344 Q180.5156,970.0469 182.1094,970.0469 Q183.0469,970.0469 183.7031,969.7969 Q184.0938,969.6406 184.5156,969.2031 Q184.7813,968.9375 184.9219,968.8594 Q185.0781,968.7813 185.2813,968.7813 Q185.6094,968.7813 185.8594,969.0469 Q186.125,969.2969 186.125,969.6406 Q186.125,969.9844 185.7813,970.3906 Q185.2813,970.9688 184.4844,971.2969 Q183.4063,971.75 182.1094,971.75 Q180.5938,971.75 179.3906,971.125 Q178.4063,970.625 177.7188,969.5625 Q177.0313,968.4844 177.0313,967.2031 L177.0313,966.0469 Q177.0313,964.7188 177.6406,963.5781 Q178.2656,962.4219 179.3594,961.8125 Q180.4531,961.1875 181.6875,961.1875 Q182.4219,961.1875 183.0625,961.3594 Q183.7188,961.5156 184.2656,961.875 Z " fill="#000000"/><text fill="#000000" font-family="sans-serif" font-size="12" lengthAdjust="spacing" textLength="69" x="195.5" y="970.9102">VaccineType</text><line style="stroke:#A80036;stroke-width:1.5;" x1="167.5" x2="266.5" y1="982" y2="982"/><text fill="#000000" font-family="sans-serif" font-size="11" lengthAdjust="spacing" textLength="28" x="172.5" y="997.4189">-code</text><text fill="#000000" font-family="sans-serif" font-size="11" lengthAdjust="spacing" textLength="59" x="172.5" y="1011.2549">-designation</text><text fill="#000000" font-family="sans-serif" font-size="11" lengthAdjust="spacing" textLength="57" x="172.5" y="1025.0908">-technology</text><line style="stroke:#A80036;stroke-width:1.5;" x1="167.5" x2="266.5" y1="1031.5078" y2="1031.5078"/><!--MD5=[72be06cc7ae02ccc98efe28a50e62246]
class SNSUser--><rect codeLine="102" fill="#FEFECE" filter="url(#fa92t6kpj02g9)" height="186.3594" id="SNSUser" style="stroke:#A80036;stroke-width:1.5;" width="452" x="365" y="686"/><ellipse cx="560.75" cy="702" fill="#ADD1B2" rx="11" ry="11" style="stroke:#A80036;stroke-width:1.0;"/><path d="M563.5156,697.875 Q563.6719,697.6563 563.8594,697.5469 Q564.0469,697.4375 564.2656,697.4375 Q564.6406,697.4375 564.875,697.7031 Q565.1094,697.9531 565.1094,698.5625 L565.1094,700.0156 Q565.1094,700.625 564.875,700.8906 Q564.6406,701.1563 564.2656,701.1563 Q563.9219,701.1563 563.7188,700.9531 Q563.5156,700.7656 563.4063,700.25 Q563.3594,699.8906 563.1719,699.7031 Q562.8438,699.3281 562.2344,699.1094 Q561.625,698.8906 561,698.8906 Q560.2344,698.8906 559.5938,699.2188 Q558.9688,699.5469 558.4688,700.2969 Q557.9844,701.0469 557.9844,702.0781 L557.9844,703.1719 Q557.9844,704.4063 558.875,705.2344 Q559.7656,706.0469 561.3594,706.0469 Q562.2969,706.0469 562.9531,705.7969 Q563.3438,705.6406 563.7656,705.2031 Q564.0313,704.9375 564.1719,704.8594 Q564.3281,704.7813 564.5313,704.7813 Q564.8594,704.7813 565.1094,705.0469 Q565.375,705.2969 565.375,705.6406 Q565.375,705.9844 565.0313,706.3906 Q564.5313,706.9688 563.7344,707.2969 Q562.6563,707.75 561.3594,707.75 Q559.8438,707.75 558.6406,707.125 Q557.6563,706.625 556.9688,705.5625 Q556.2813,704.4844 556.2813,703.2031 L556.2813,702.0469 Q556.2813,700.7188 556.8906,699.5781 Q557.5156,698.4219 558.6094,697.8125 Q559.7031,697.1875 560.9375,697.1875 Q561.6719,697.1875 562.3125,697.3594 Q562.9688,697.5156 563.5156,697.875 Z " fill="#000000"/><text fill="#000000" font-family="sans-serif" font-size="12" lengthAdjust="spacing" textLength="52" x="581.25" y="706.9102">SNSUser</text><line style="stroke:#A80036;stroke-width:1.5;" x1="366" x2="816" y1="718" y2="718"/><text fill="#000000" font-family="sans-serif" font-size="11" lengthAdjust="spacing" textLength="92" x="371" y="733.4189">-citizenCard: String</text><text fill="#000000" font-family="sans-serif" font-size="11" lengthAdjust="spacing" textLength="93" x="371" y="747.2549">-snsNumber: String</text><text fill="#000000" font-family="sans-serif" font-size="11" lengthAdjust="spacing" textLength="64" x="371" y="761.0908">-name: String</text><text fill="#000000" font-family="sans-serif" font-size="11" lengthAdjust="spacing" textLength="93" x="371" y="774.9268">-birthDay: Calendar</text><text fill="#000000" font-family="sans-serif" font-size="11" lengthAdjust="spacing" textLength="72" x="371" y="788.7627">-gender: String</text><text fill="#000000" font-family="sans-serif" font-size="11" lengthAdjust="spacing" textLength="105" x="371" y="802.5986">-phoneNumber: String</text><text fill="#000000" font-family="sans-serif" font-size="11" lengthAdjust="spacing" textLength="62" x="371" y="816.4346">-email: String</text><text fill="#000000" font-family="sans-serif" font-size="11" lengthAdjust="spacing" textLength="78" x="371" y="830.2705">-address: String</text><text fill="#000000" font-family="sans-serif" font-size="11" lengthAdjust="spacing" textLength="162" x="371" y="844.1064">-userHealthData : UserHealthData</text><line style="stroke:#A80036;stroke-width:1.5;" x1="366" x2="816" y1="850.5234" y2="850.5234"/><text fill="#000000" font-family="sans-serif" font-size="11" lengthAdjust="spacing" textLength="440" x="371" y="865.9424">+SNSUser(citizenCard, snsNumber, name, birthDay, gender, phoneNumber, email, address)</text><!--MD5=[a29876ea2f21a6ca48ea477740122fd8]
class VaccinationCenterStore--><rect codeLine="119" fill="#FEFECE" filter="url(#fa92t6kpj02g9)" height="48" id="VaccinationCenterStore" style="stroke:#A80036;stroke-width:1.5;" width="161" x="1469.5" y="755"/><ellipse cx="1484.5" cy="771" fill="#ADD1B2" rx="11" ry="11" style="stroke:#A80036;stroke-width:1.0;"/><path d="M1487.2656,766.875 Q1487.4219,766.6563 1487.6094,766.5469 Q1487.7969,766.4375 1488.0156,766.4375 Q1488.3906,766.4375 1488.625,766.7031 Q1488.8594,766.9531 1488.8594,767.5625 L1488.8594,769.0156 Q1488.8594,769.625 1488.625,769.8906 Q1488.3906,770.1563 1488.0156,770.1563 Q1487.6719,770.1563 1487.4688,769.9531 Q1487.2656,769.7656 1487.1563,769.25 Q1487.1094,768.8906 1486.9219,768.7031 Q1486.5938,768.3281 1485.9844,768.1094 Q1485.375,767.8906 1484.75,767.8906 Q1483.9844,767.8906 1483.3438,768.2188 Q1482.7188,768.5469 1482.2188,769.2969 Q1481.7344,770.0469 1481.7344,771.0781 L1481.7344,772.1719 Q1481.7344,773.4063 1482.625,774.2344 Q1483.5156,775.0469 1485.1094,775.0469 Q1486.0469,775.0469 1486.7031,774.7969 Q1487.0938,774.6406 1487.5156,774.2031 Q1487.7813,773.9375 1487.9219,773.8594 Q1488.0781,773.7813 1488.2813,773.7813 Q1488.6094,773.7813 1488.8594,774.0469 Q1489.125,774.2969 1489.125,774.6406 Q1489.125,774.9844 1488.7813,775.3906 Q1488.2813,775.9688 1487.4844,776.2969 Q1486.4063,776.75 1485.1094,776.75 Q1483.5938,776.75 1482.3906,776.125 Q1481.4063,775.625 1480.7188,774.5625 Q1480.0313,773.4844 1480.0313,772.2031 L1480.0313,771.0469 Q1480.0313,769.7188 1480.6406,768.5781 Q1481.2656,767.4219 1482.3594,766.8125 Q1483.4531,766.1875 1484.6875,766.1875 Q1485.4219,766.1875 1486.0625,766.3594 Q1486.7188,766.5156 1487.2656,766.875 Z " fill="#000000"/><text fill="#000000" font-family="sans-serif" font-size="12" lengthAdjust="spacing" textLength="129" x="1498.5" y="775.9102">VaccinationCenterStore</text><line style="stroke:#A80036;stroke-width:1.5;" x1="1470.5" x2="1629.5" y1="787" y2="787"/><line style="stroke:#A80036;stroke-width:1.5;" x1="1470.5" x2="1629.5" y1="795" y2="795"/><!--MD5=[83622bce6ec4666fff10b41c22ae215c]
link ExportCenterStatisticsUI to ExportCenterStatisticsController--><path codeLine="127" d="M1348,90.12 C1348,112.24 1348,145.68 1348,169.45 " fill="none" id="ExportCenterStatisticsUI-to-ExportCenterStatisticsController" style="stroke:#A80036;stroke-width:1.0;stroke-dasharray:7.0,7.0;"/><polygon fill="#A80036" points="1348,174.67,1352,165.67,1348,169.67,1344,165.67,1348,174.67" style="stroke:#A80036;stroke-width:1.0;"/><!--MD5=[0d50fece99724e72ce7ec3ef8ae58538]
link ExportCenterStatisticsController to Company--><path codeLine="129" d="M1348,223.04 C1348,275.22 1348,402.69 1348,464.81 " fill="none" id="ExportCenterStatisticsController-to-Company" style="stroke:#A80036;stroke-width:1.0;stroke-dasharray:7.0,7.0;"/><polygon fill="#A80036" points="1348,469.89,1352,460.89,1348,464.89,1344,460.89,1348,469.89" style="stroke:#A80036;stroke-width:1.0;"/><!--MD5=[bc0d5b4bfe6e1bf0a8fced13bc4bdd47]
link Company to VaccinationCenterStore--><path codeLine="131" d="M1396.71,525.83 C1438.01,548.71 1495.3,587.26 1526,638 C1548.08,674.5 1551.28,725.6 1551.03,754.9 " fill="none" id="Company-VaccinationCenterStore" style="stroke:#A80036;stroke-width:1.0;"/><polygon fill="#000000" points="1541.7936,651.3226,1539.1773,642.1789,1534.3025,645.463,1541.7936,651.3226" style="stroke:#000000;stroke-width:1.0;"/><text fill="#000000" font-family="sans-serif" font-size="13" lengthAdjust="spacing" textLength="37" x="1548" y="652.4951">knows</text><text fill="#000000" font-family="sans-serif" font-size="13" lengthAdjust="spacing" textLength="7" x="1404.3783" y="525.8349">1</text><text fill="#000000" font-family="sans-serif" font-size="13" lengthAdjust="spacing" textLength="7" x="1543.3971" y="744.2145">1</text><!--MD5=[db5fb34fd733ab3677281d60b785e712]
reverse link VaccinationCenter to Employee--><path codeLine="133" d="M963.88,620.81 C972.33,647.31 981.08,674.76 988.87,699.17 " fill="none" id="VaccinationCenter-backto-Employee" style="stroke:#A80036;stroke-width:1.0;"/><polygon fill="#FFFFFF" points="959.9,608.31,957.9085,615.2407,963.5401,619.7446,965.5316,612.8139,959.9,608.31" style="stroke:#A80036;stroke-width:1.0;"/><!--MD5=[91079b08053e6fc6d0a3af85820ed36a]
reverse link VaccinationCenter to Time--><path codeLine="134" d="M1277.72,607.16 C1279.15,607.44 1280.58,607.72 1282,608 C1418.73,634.67 1463.71,588.7 1594,638 C1646.85,658 1698.21,696.47 1734.64,728.03 " fill="none" id="VaccinationCenter-backto-Time" style="stroke:#A80036;stroke-width:1.0;"/><polygon fill="#FFFFFF" points="1264.8,604.51,1269.8792,609.6288,1276.5578,606.909,1271.4785,601.7903,1264.8,604.51" style="stroke:#A80036;stroke-width:1.0;"/><!--MD5=[99cf60c71dc20007695665c9ea3c4eb1]
reverse link VaccinationCenter to Slot--><path codeLine="135" d="M1109.44,615.55 C1138.31,635.09 1167.38,655.79 1194,676.5 C1216.66,694.13 1240.26,715.45 1259.75,733.99 " fill="none" id="VaccinationCenter-backto-Slot" style="stroke:#A80036;stroke-width:1.0;"/><polygon fill="#FFFFFF" points="1098.4,608.12,1101.1512,614.7857,1108.3622,614.8099,1105.6111,608.1442,1098.4,608.12" style="stroke:#A80036;stroke-width:1.0;"/><!--MD5=[09e640553caef1f503445df8eef57be6]
reverse link Vaccine to VaccineType--><path codeLine="137" d="M217,850.81 C217,883.5 217,921.3 217,949.85 " fill="none" id="Vaccine-backto-VaccineType" style="stroke:#A80036;stroke-width:1.0;"/><polygon fill="#FFFFFF" points="217,837.63,213,843.63,217,849.63,221,843.63,217,837.63" style="stroke:#A80036;stroke-width:1.0;"/><!--MD5=[d96ee281cdb1021d3c4ed227c45512e2]
link VaccineAdministration to Vaccine--><path codeLine="139" d="M421.23,559.52 C377.22,606.6 315.26,672.89 271.15,720.08 " fill="none" id="VaccineAdministration-Vaccine" style="stroke:#A80036;stroke-width:1.0;"/><!--MD5=[951a07871a6512bd4f8e62baa1d062ce]
link VaccineAdministration to SNSUser--><path codeLine="140" d="M499.18,559.52 C514.51,596.02 534.7,644.05 552.24,685.79 " fill="none" id="VaccineAdministration-SNSUser" style="stroke:#A80036;stroke-width:1.0;"/><!--MD5=[84342335c23328c062acae650dddc769]
link CsvExporterData to VaccineAdministration--><path codeLine="142" d="M1415.3,1141.76 C1435.38,1025.14 1476.27,742.94 1415,676.5 C1287.28,538.01 738.77,691.72 570,608 C547.75,596.96 528.33,578.26 512.95,559.6 " fill="none" id="CsvExporterData-VaccineAdministration" style="stroke:#A80036;stroke-width:1.0;"/><polygon fill="#000000" points="1444.7985,908.4652,1450.8058,915.8383,1453.9923,910.8992,1444.7985,908.4652" style="stroke:#000000;stroke-width:1.0;"/><text fill="#000000" font-family="sans-serif" font-size="13" lengthAdjust="spacing" textLength="28" x="1458" y="916.4951">uses</text><!--MD5=[d06e2ccc9e88cf251f614dac5c664823]
link CsvExporter to CsvExporterData--><path codeLine="144" d="M1175.71,1019.12 C1216.87,1050.11 1290.9,1105.85 1343.92,1145.76 " fill="none" id="CsvExporter-CsvExporterData" style="stroke:#A80036;stroke-width:1.0;"/><polygon fill="#000000" points="1268.0055,1078.1685,1273.464,1085.9567,1276.9993,1081.2609,1268.0055,1078.1685" style="stroke:#000000;stroke-width:1.0;"/><text fill="#000000" font-family="sans-serif" font-size="13" lengthAdjust="spacing" textLength="79" x="1281" y="1086.4951">sends data to</text><!--MD5=[81e61372a6ec977ef7c2b853580200b0]
link Employee to CsvExporter--><path codeLine="146" d="M1062.22,858.77 C1086.59,898.58 1114.39,944 1130.78,970.77 " fill="none" id="Employee-CsvExporter" style="stroke:#A80036;stroke-width:1.0;"/><text fill="#000000" font-family="sans-serif" font-size="13" lengthAdjust="spacing" textLength="125" x="1099" y="916.4951">coordinator generates</text><!--MD5=[8c304936b446fd8cea914e03fbadd4b7]
link VaccinationCenterStore to VaccinationCenter--><path codeLine="149" d="M1537.87,754.92 C1519.89,723.18 1483.07,666.71 1435,638 C1375.51,602.47 1349.28,624.57 1282,608 C1278.04,607.02 1274.05,606.03 1270.05,605.02 " fill="none" id="VaccinationCenterStore-to-VaccinationCenter" style="stroke:#A80036;stroke-width:1.0;"/><polygon fill="#A80036" points="1264.97,603.74,1272.7101,609.8303,1269.8165,604.9695,1274.6773,602.0759,1264.97,603.74" style="stroke:#A80036;stroke-width:1.0;"/><polygon fill="#000000" points="1458.6369,644.7337,1465.0944,651.716,1467.9652,646.5869,1458.6369,644.7337" style="stroke:#000000;stroke-width:1.0;"/><text fill="#000000" font-family="sans-serif" font-size="13" lengthAdjust="spacing" textLength="36" x="1472" y="652.4951">stores</text><text fill="#000000" font-family="sans-serif" font-size="13" lengthAdjust="spacing" textLength="7" x="1526.8648" y="744.2397">1</text><text fill="#000000" font-family="sans-serif" font-size="13" lengthAdjust="spacing" textLength="5" x="1272.9732" y="603.4593">*</text><!--MD5=[c6ef6fd5fb1a2b08e7f761ab9c2eb56a]
@startuml US15_CD
skinparam classAttributeIconSize 0

package UI {
class ExportCenterStatisticsUI {}
}

package controllers {
     class ExportCenterStatisticsController {

     }

   package utils {
     class Time {
       - hour: int
       - minute: int
       +Time(hour,minute)

       +Time(time)
     }
   }

package core {
  package domain {

    package service {

class CsvExporterData {
    +getVacAdminList()
    +getSnsUserAge()
    +getVaccine()
    +getVacType()
    }
}

    package model {

class CsvExporter {}

class VaccineAdministration {
  -snsUser: SNSUser
  -vaccine: Vaccine
  -dose: int
  -lotNumber: String
  -date: date
}

class Company {
    +getDesignation()
}

class VaccinationCenter {
    - name: String
    - address: String
    - emailAddress: String
    - phoneNumber: String
    - faxNumber: String
    - websiteAddress: String
    - openingHours: String
    - closingHours: String
    - slotDuration: int
    - maximumVaccinesPerSlot: int
    - coordinator
        
    +VaccinationCenter(name,address,emailAddress,phoneNumber,faxNumber,websiteAddress,openingHours,closingHours,slot,coordinator)
}


class Employee {
    -id: String 
    -name: String 
    -email: String 
    -phone: String 
    -address: String 
    -citizenCardNumber: int 
    -roleId: String 

    +Employee(name,email,phone,address,citizenCardNumber,roleId)
}

class Slot {
    -duration: int
    -maxVaccinesPerSlot: int

    +Slot(duration,maxVaccinesPerSlot)
}

class Vaccine {
  -designation : String
  -brand : String
  -id : String
  -vacType : VaccineType

  +Vaccine(designation, id, brand, vacTypeId)
}

class VaccineType {
  -code
  -designation
  -technology 
}

class SNSUser {
  - citizenCard: String
  - snsNumber: String
  - name: String
  - birthDay: Calendar
  - gender: String
  - phoneNumber: String
  - email: String
  - address: String
  - userHealthData : UserHealthData
  + SNSUser(citizenCard, snsNumber, name, birthDay, gender, phoneNumber, email, address)
}


}

package stores {
      class VaccinationCenterStore {}
      }
}





ExportCenterStatisticsUI ..> ExportCenterStatisticsController

ExportCenterStatisticsController ..> Company

Company "1" - - "1" VaccinationCenterStore : knows >

VaccinationCenter o- - Employee
VaccinationCenter o- - Time 
VaccinationCenter o- - Slot

Vaccine o- - VaccineType

VaccineAdministration - - Vaccine
VaccineAdministration - - SNSUser

CsvExporterData - - VaccineAdministration : uses >

CsvExporter - - CsvExporterData : sends data to <

Employee - - CsvExporter : coordinator generates


VaccinationCenterStore "1" - -> "*" VaccinationCenter : stores >
@enduml

PlantUML version 1.2022.0(Tue Jan 11 16:16:42 WET 2022)
(GPL source distribution)
Java Runtime: Java(TM) SE Runtime Environment
JVM: Java HotSpot(TM) 64-Bit Server VM
Default Encoding: Cp1252
Language: pt
Country: PT
--></g></svg>