<?xml version="1.0" encoding="UTF-8" standalone="no"?><svg xmlns="http://www.w3.org/2000/svg" xmlns:xlink="http://www.w3.org/1999/xlink" contentScriptType="application/ecmascript" contentStyleType="text/css" height="1052px" preserveAspectRatio="none" style="width:2235px;height:1052px;background:#FFFFFF;" version="1.1" viewBox="0 0 2235 1052" width="2235px" zoomAndPan="magnify"><defs><filter height="300%" id="f12nnfj4gu6srz" width="300%" x="-1" y="-1"><feGaussianBlur result="blurOut" stdDeviation="2.0"/><feColorMatrix in="blurOut" result="blurOut2" type="matrix" values="0 0 0 0 0 0 0 0 0 0 0 0 0 0 0 0 0 0 .4 0"/><feOffset dx="4.0" dy="4.0" in="blurOut2" result="blurOut3"/><feBlend in="SourceGraphic" in2="blurOut3" mode="normal"/></filter></defs><g><!--MD5=[7db3c59d38ae5b37b484eb2df9368145]
cluster java.util--><polygon fill="#FFFFFF" filter="url(#f12nnfj4gu6srz)" points="1687,181.02,1748,181.02,1755,204.6294,2218,204.6294,2218,356.02,1687,356.02,1687,181.02" style="stroke:#000000;stroke-width:1.5;"/><line style="stroke:#000000;stroke-width:1.5;" x1="1687" x2="1755" y1="204.6294" y2="204.6294"/><text fill="#000000" font-family="sans-serif" font-size="14" font-weight="bold" lengthAdjust="spacing" textLength="55" x="1691" y="197.5532">java.util</text><!--MD5=[aa8f7b917213fcc1c2766e2d59b49067]
cluster java.lang--><polygon fill="#FFFFFF" filter="url(#f12nnfj4gu6srz)" points="2026,432.02,2095,432.02,2102,455.6294,2146,455.6294,2146,566.02,2026,566.02,2026,432.02" style="stroke:#000000;stroke-width:1.5;"/><line style="stroke:#000000;stroke-width:1.5;" x1="2026" x2="2102" y1="455.6294" y2="455.6294"/><text fill="#000000" font-family="sans-serif" font-size="14" font-weight="bold" lengthAdjust="spacing" textLength="63" x="2030" y="448.5532">java.lang</text><!--MD5=[01435ace8273dc3cae88e7f376e4d373]
cluster core--><polygon fill="#FFFFFF" filter="url(#f12nnfj4gu6srz)" points="16,65.02,54,65.02,61,88.6294,1663,88.6294,1663,1045.52,16,1045.52,16,65.02" style="stroke:#000000;stroke-width:1.5;"/><line style="stroke:#000000;stroke-width:1.5;" x1="16" x2="61" y1="88.6294" y2="88.6294"/><text fill="#000000" font-family="sans-serif" font-size="14" font-weight="bold" lengthAdjust="spacing" textLength="32" x="20" y="81.5532">core</text><!--MD5=[27f772719433d509ddbc20ff768eba08]
cluster domain--><polygon fill="#FFFFFF" filter="url(#f12nnfj4gu6srz)" points="40,109.02,97,109.02,104,132.6294,1639,132.6294,1639,1021.52,40,1021.52,40,109.02" style="stroke:#000000;stroke-width:1.5;"/><line style="stroke:#000000;stroke-width:1.5;" x1="40" x2="104" y1="132.6294" y2="132.6294"/><text fill="#000000" font-family="sans-serif" font-size="14" font-weight="bold" lengthAdjust="spacing" textLength="51" x="44" y="125.5532">domain</text><!--MD5=[5d4cd377749310b66bf14896f5cd8d9b]
cluster model--><polygon fill="#FFFFFF" filter="url(#f12nnfj4gu6srz)" points="64,153.02,113,153.02,120,176.6294,1020,176.6294,1020,997.52,64,997.52,64,153.02" style="stroke:#000000;stroke-width:1.5;"/><line style="stroke:#000000;stroke-width:1.5;" x1="64" x2="120" y1="176.6294" y2="176.6294"/><text fill="#000000" font-family="sans-serif" font-size="14" font-weight="bold" lengthAdjust="spacing" textLength="43" x="68" y="169.5532">model</text><!--MD5=[fbca5634cbc0239920b500cad9c4bedb]
cluster stores--><polygon fill="#FFFFFF" filter="url(#f12nnfj4gu6srz)" points="1256,432.02,1307,432.02,1314,455.6294,1615,455.6294,1615,566.02,1256,566.02,1256,432.02" style="stroke:#000000;stroke-width:1.5;"/><line style="stroke:#000000;stroke-width:1.5;" x1="1256" x2="1314" y1="455.6294" y2="455.6294"/><text fill="#000000" font-family="sans-serif" font-size="14" font-weight="bold" lengthAdjust="spacing" textLength="45" x="1260" y="448.5532">stores</text><!--MD5=[7579d5565d2521d5936cec86ed3dadee]
cluster service--><polygon fill="#FFFFFF" filter="url(#f12nnfj4gu6srz)" points="1044,432.02,1103,432.02,1110,455.6294,1232,455.6294,1232,566.02,1044,566.02,1044,432.02" style="stroke:#000000;stroke-width:1.5;"/><line style="stroke:#000000;stroke-width:1.5;" x1="1044" x2="1110" y1="455.6294" y2="455.6294"/><text fill="#000000" font-family="sans-serif" font-size="14" font-weight="bold" lengthAdjust="spacing" textLength="53" x="1048" y="448.5532">service</text><!--MD5=[1b844c90688aafb95cd8c95626c3b83a]
class Timer--><rect codeLine="4" fill="#FEFECE" filter="url(#f12nnfj4gu6srz)" height="61.8359" id="Timer" style="stroke:#A80036;stroke-width:1.5;" width="232" x="1703" y="257.52"/><ellipse cx="1798.75" cy="273.52" fill="#ADD1B2" rx="11" ry="11" style="stroke:#A80036;stroke-width:1.0;"/><path d="M1801.5156,269.395 Q1801.6719,269.1763 1801.8594,269.0669 Q1802.0469,268.9575 1802.2656,268.9575 Q1802.6406,268.9575 1802.875,269.2231 Q1803.1094,269.4731 1803.1094,270.0825 L1803.1094,271.5356 Q1803.1094,272.145 1802.875,272.4106 Q1802.6406,272.6763 1802.2656,272.6763 Q1801.9219,272.6763 1801.7188,272.4731 Q1801.5156,272.2856 1801.4063,271.77 Q1801.3594,271.4106 1801.1719,271.2231 Q1800.8438,270.8481 1800.2344,270.6294 Q1799.625,270.4106 1799,270.4106 Q1798.2344,270.4106 1797.5938,270.7388 Q1796.9688,271.0669 1796.4688,271.8169 Q1795.9844,272.5669 1795.9844,273.5981 L1795.9844,274.6919 Q1795.9844,275.9263 1796.875,276.7544 Q1797.7656,277.5669 1799.3594,277.5669 Q1800.2969,277.5669 1800.9531,277.3169 Q1801.3438,277.1606 1801.7656,276.7231 Q1802.0313,276.4575 1802.1719,276.3794 Q1802.3281,276.3013 1802.5313,276.3013 Q1802.8594,276.3013 1803.1094,276.5669 Q1803.375,276.8169 1803.375,277.1606 Q1803.375,277.5044 1803.0313,277.9106 Q1802.5313,278.4888 1801.7344,278.8169 Q1800.6563,279.27 1799.3594,279.27 Q1797.8438,279.27 1796.6406,278.645 Q1795.6563,278.145 1794.9688,277.0825 Q1794.2813,276.0044 1794.2813,274.7231 L1794.2813,273.5669 Q1794.2813,272.2388 1794.8906,271.0981 Q1795.5156,269.9419 1796.6094,269.3325 Q1797.7031,268.7075 1798.9375,268.7075 Q1799.6719,268.7075 1800.3125,268.8794 Q1800.9688,269.0356 1801.5156,269.395 Z " fill="#000000"/><text fill="#000000" font-family="sans-serif" font-size="12" lengthAdjust="spacing" textLength="32" x="1819.25" y="278.4302">Timer</text><line style="stroke:#A80036;stroke-width:1.5;" x1="1704" x2="1934" y1="289.52" y2="289.52"/><line style="stroke:#A80036;stroke-width:1.5;" x1="1704" x2="1934" y1="297.52" y2="297.52"/><text fill="#000000" font-family="sans-serif" font-size="11" lengthAdjust="spacing" textLength="220" x="1709" y="312.9389">+scheduleAtFixedRate(task, firstTime, period)</text><!--MD5=[74054751ba3b9eca75fda5044dcc84d9]
class TimerTask--><rect codeLine="7" fill="#FEFECE" filter="url(#f12nnfj4gu6srz)" height="103.3438" id="TimerTask" style="stroke:#A80036;stroke-width:1.5;" width="232" x="1970" y="237.02"/><ellipse cx="2052.25" cy="253.02" fill="#A9DCDF" rx="11" ry="11" style="stroke:#A80036;stroke-width:1.0;"/><path d="M2054.4375,254.7856 L2050.2969,254.7856 L2049.875,255.8169 L2050.2969,255.8169 Q2050.9063,255.8169 2051.1719,256.0513 Q2051.4375,256.2856 2051.4375,256.6763 Q2051.4375,257.0513 2051.1719,257.2856 Q2050.9063,257.52 2050.2969,257.52 L2048,257.52 Q2047.3906,257.52 2047.1406,257.2856 Q2046.875,257.0513 2046.875,256.6606 Q2046.875,256.2856 2047.1563,256.0513 Q2047.4219,255.8012 2048.0469,255.8169 L2050.7188,249.1606 L2049.6094,249.1606 Q2049,249.1606 2048.7344,248.9262 Q2048.4688,248.6919 2048.4688,248.3012 Q2048.4688,247.9262 2048.7344,247.6919 Q2049,247.4575 2049.6094,247.4575 L2053.2813,247.4575 L2056.6719,255.8169 Q2057.2656,255.8169 2057.4531,255.9575 Q2057.8438,256.2231 2057.8438,256.6763 Q2057.8438,257.0513 2057.5781,257.2856 Q2057.3281,257.52 2056.7188,257.52 L2054.4219,257.52 Q2053.8125,257.52 2053.5469,257.2856 Q2053.2813,257.0513 2053.2813,256.6606 Q2053.2813,256.2856 2053.5469,256.0513 Q2053.8125,255.8169 2054.4219,255.8169 L2054.8438,255.8169 L2054.4375,254.7856 Z M2053.7188,253.0825 L2052.3594,249.7075 L2050.9844,253.0825 L2053.7188,253.0825 Z " fill="#000000"/><text fill="#000000" font-family="sans-serif" font-size="12" font-style="italic" lengthAdjust="spacing" textLength="59" x="2072.75" y="257.9302">TimerTask</text><line style="stroke:#A80036;stroke-width:1.5;" x1="1971" x2="2201" y1="269.02" y2="269.02"/><line style="stroke:#A80036;stroke-width:1.5;" x1="1971" x2="2201" y1="277.02" y2="277.02"/><text fill="#000000" font-family="sans-serif" font-size="11" lengthAdjust="spacing" textLength="63" x="1976" y="292.4389">+TimerTask()</text><text fill="#000000" font-family="sans-serif" font-size="11" lengthAdjust="spacing" textLength="30" x="1976" y="306.2749">+run()</text><text fill="#000000" font-family="sans-serif" font-size="11" lengthAdjust="spacing" textLength="46" x="1976" y="320.1108">+cancel()</text><text fill="#000000" font-family="sans-serif" font-size="11" lengthAdjust="spacing" textLength="220" x="1976" y="333.9468">+scheduleAtFixedRate(task, firstTime, period)</text><!--MD5=[53ae8b34bebe44116eb8626f99f3fe78]
class Runnable--><rect codeLine="16" fill="#FEFECE" filter="url(#f12nnfj4gu6srz)" height="61.8359" id="Runnable" style="stroke:#A80036;stroke-width:1.5;" width="87" x="2042.5" y="488.02"/><ellipse cx="2057.5" cy="504.02" fill="#B4A7E5" rx="11" ry="11" style="stroke:#A80036;stroke-width:1.0;"/><path d="M2058.4531,500.6606 L2058.4531,507.3169 L2060.1719,507.3169 Q2060.7813,507.3169 2061.0469,507.5513 Q2061.3125,507.7856 2061.3125,508.1763 Q2061.3125,508.5513 2061.0469,508.7856 Q2060.7813,509.02 2060.1719,509.02 L2055.0313,509.02 Q2054.4219,509.02 2054.1563,508.7856 Q2053.8906,508.5513 2053.8906,508.1606 Q2053.8906,507.7856 2054.1563,507.5513 Q2054.4219,507.3169 2055.0313,507.3169 L2056.75,507.3169 L2056.75,500.6606 L2055.0313,500.6606 Q2054.4219,500.6606 2054.1563,500.4263 Q2053.8906,500.1919 2053.8906,499.8013 Q2053.8906,499.4263 2054.1563,499.1919 Q2054.4219,498.9575 2055.0313,498.9575 L2060.1719,498.9575 Q2060.7813,498.9575 2061.0469,499.1919 Q2061.3125,499.4263 2061.3125,499.8013 Q2061.3125,500.1919 2061.0469,500.4263 Q2060.7813,500.6606 2060.1719,500.6606 L2058.4531,500.6606 Z " fill="#000000"/><text fill="#000000" font-family="sans-serif" font-size="12" font-style="italic" lengthAdjust="spacing" textLength="55" x="2071.5" y="508.9302">Runnable</text><line style="stroke:#A80036;stroke-width:1.5;" x1="2043.5" x2="2128.5" y1="520.02" y2="520.02"/><line style="stroke:#A80036;stroke-width:1.5;" x1="2043.5" x2="2128.5" y1="528.02" y2="528.02"/><text fill="#000000" font-family="sans-serif" font-size="11" lengthAdjust="spacing" textLength="30" x="2048.5" y="543.4389">+run()</text><!--MD5=[02e4b9b7573f1156f41e60aa5b4e25a4]
class Company--><rect codeLine="26" fill="#FEFECE" filter="url(#f12nnfj4gu6srz)" height="117.1797" id="Company" style="stroke:#A80036;stroke-width:1.5;" width="352" x="652" y="230.02"/><ellipse cx="797.25" cy="246.02" fill="#ADD1B2" rx="11" ry="11" style="stroke:#A80036;stroke-width:1.0;"/><path d="M800.0156,241.895 Q800.1719,241.6762 800.3594,241.5669 Q800.5469,241.4575 800.7656,241.4575 Q801.1406,241.4575 801.375,241.7231 Q801.6094,241.9731 801.6094,242.5825 L801.6094,244.0356 Q801.6094,244.645 801.375,244.9106 Q801.1406,245.1762 800.7656,245.1762 Q800.4219,245.1762 800.2188,244.9731 Q800.0156,244.7856 799.9063,244.27 Q799.8594,243.9106 799.6719,243.7231 Q799.3438,243.3481 798.7344,243.1294 Q798.125,242.9106 797.5,242.9106 Q796.7344,242.9106 796.0938,243.2387 Q795.4688,243.5669 794.9688,244.3169 Q794.4844,245.0669 794.4844,246.0981 L794.4844,247.1919 Q794.4844,248.4262 795.375,249.2544 Q796.2656,250.0669 797.8594,250.0669 Q798.7969,250.0669 799.4531,249.8169 Q799.8438,249.6606 800.2656,249.2231 Q800.5313,248.9575 800.6719,248.8794 Q800.8281,248.8012 801.0313,248.8012 Q801.3594,248.8012 801.6094,249.0669 Q801.875,249.3169 801.875,249.6606 Q801.875,250.0044 801.5313,250.4106 Q801.0313,250.9887 800.2344,251.3169 Q799.1563,251.77 797.8594,251.77 Q796.3438,251.77 795.1406,251.145 Q794.1563,250.645 793.4688,249.5825 Q792.7813,248.5044 792.7813,247.2231 L792.7813,246.0669 Q792.7813,244.7387 793.3906,243.5981 Q794.0156,242.4419 795.1094,241.8325 Q796.2031,241.2075 797.4375,241.2075 Q798.1719,241.2075 798.8125,241.3794 Q799.4688,241.5356 800.0156,241.895 Z " fill="#000000"/><text fill="#000000" font-family="sans-serif" font-size="12" lengthAdjust="spacing" textLength="53" x="817.75" y="250.9302">Company</text><line style="stroke:#A80036;stroke-width:1.5;" x1="653" x2="1003" y1="262.02" y2="262.02"/><text fill="#000000" font-family="sans-serif" font-size="11" lengthAdjust="spacing" textLength="93" x="658" y="277.4389">-designation: String</text><text fill="#000000" font-family="sans-serif" font-size="11" lengthAdjust="spacing" textLength="238" x="658" y="291.2749">-vaccinationCenterStore: VaccinationCenterStore</text><text fill="#000000" font-family="sans-serif" font-size="11" lengthAdjust="spacing" textLength="188" x="658" y="305.1108">-vaccineTypeStore: VaccineTypeStore</text><line style="stroke:#A80036;stroke-width:1.5;" x1="653" x2="1003" y1="311.5278" y2="311.5278"/><text fill="#000000" font-family="sans-serif" font-size="11" lengthAdjust="spacing" textLength="114" x="658" y="326.9468">+Company(designation)</text><text fill="#000000" font-family="sans-serif" font-size="11" lengthAdjust="spacing" textLength="340" x="658" y="340.7827">+scheduleExportDailyVaccinated(filePath, time, separator, timeInterval)</text><!--MD5=[c4f5fcc40433f2773da7848e45efddae]
class ExportDailyVaccinatedTask--><rect codeLine="35" fill="#FEFECE" filter="url(#f12nnfj4gu6srz)" height="131.0156" id="ExportDailyVaccinatedTask" style="stroke:#A80036;stroke-width:1.5;" width="370" x="80" y="223.02"/><ellipse cx="186.75" cy="239.02" fill="#ADD1B2" rx="11" ry="11" style="stroke:#A80036;stroke-width:1.0;"/><path d="M189.5156,234.895 Q189.6719,234.6762 189.8594,234.5669 Q190.0469,234.4575 190.2656,234.4575 Q190.6406,234.4575 190.875,234.7231 Q191.1094,234.9731 191.1094,235.5825 L191.1094,237.0356 Q191.1094,237.645 190.875,237.9106 Q190.6406,238.1762 190.2656,238.1762 Q189.9219,238.1762 189.7188,237.9731 Q189.5156,237.7856 189.4063,237.27 Q189.3594,236.9106 189.1719,236.7231 Q188.8438,236.3481 188.2344,236.1294 Q187.625,235.9106 187,235.9106 Q186.2344,235.9106 185.5938,236.2387 Q184.9688,236.5669 184.4688,237.3169 Q183.9844,238.0669 183.9844,239.0981 L183.9844,240.1919 Q183.9844,241.4262 184.875,242.2544 Q185.7656,243.0669 187.3594,243.0669 Q188.2969,243.0669 188.9531,242.8169 Q189.3438,242.6606 189.7656,242.2231 Q190.0313,241.9575 190.1719,241.8794 Q190.3281,241.8012 190.5313,241.8012 Q190.8594,241.8012 191.1094,242.0669 Q191.375,242.3169 191.375,242.6606 Q191.375,243.0044 191.0313,243.4106 Q190.5313,243.9887 189.7344,244.3169 Q188.6563,244.77 187.3594,244.77 Q185.8438,244.77 184.6406,244.145 Q183.6563,243.645 182.9688,242.5825 Q182.2813,241.5044 182.2813,240.2231 L182.2813,239.0669 Q182.2813,237.7387 182.8906,236.5981 Q183.5156,235.4419 184.6094,234.8325 Q185.7031,234.2075 186.9375,234.2075 Q187.6719,234.2075 188.3125,234.3794 Q188.9688,234.5356 189.5156,234.895 Z " fill="#000000"/><text fill="#000000" font-family="sans-serif" font-size="12" lengthAdjust="spacing" textLength="148" x="207.25" y="243.9302">ExportDailyVaccinatedTask</text><line style="stroke:#A80036;stroke-width:1.5;" x1="81" x2="449" y1="255.02" y2="255.02"/><text fill="#000000" font-family="sans-serif" font-size="11" lengthAdjust="spacing" textLength="73" x="86" y="270.4389">-filePath: String</text><text fill="#000000" font-family="sans-serif" font-size="11" lengthAdjust="spacing" textLength="185" x="86" y="284.2749">-vacCenterSt: VaccinationCenterStore</text><text fill="#000000" font-family="sans-serif" font-size="11" lengthAdjust="spacing" textLength="152" x="86" y="298.1108">-vacTypeSt: VaccineTypeStore</text><text fill="#000000" font-family="sans-serif" font-size="11" lengthAdjust="spacing" textLength="79" x="86" y="311.9468">-separator: char</text><line style="stroke:#A80036;stroke-width:1.5;" x1="81" x2="449" y1="318.3638" y2="318.3638"/><text fill="#000000" font-family="sans-serif" font-size="11" lengthAdjust="spacing" textLength="358" x="86" y="333.7827">+ExportDailyVaccinatedTask(filePath, separator, vacCenterSt, vacTypeSt)</text><text fill="#000000" font-family="sans-serif" font-size="11" lengthAdjust="spacing" textLength="30" x="86" y="347.6186">+run()</text><!--MD5=[de60e6d4f424ae4d0522096f76a59010]
class VaccinationCenter--><rect codeLine="44" fill="#FEFECE" filter="url(#f12nnfj4gu6srz)" height="158.6875" id="VaccinationCenter" style="stroke:#A80036;stroke-width:1.5;" width="132" x="485" y="209.02"/><ellipse cx="500" cy="225.02" fill="#ADD1B2" rx="11" ry="11" style="stroke:#A80036;stroke-width:1.0;"/><path d="M502.7656,220.895 Q502.9219,220.6762 503.1094,220.5669 Q503.2969,220.4575 503.5156,220.4575 Q503.8906,220.4575 504.125,220.7231 Q504.3594,220.9731 504.3594,221.5825 L504.3594,223.0356 Q504.3594,223.645 504.125,223.9106 Q503.8906,224.1762 503.5156,224.1762 Q503.1719,224.1762 502.9688,223.9731 Q502.7656,223.7856 502.6563,223.27 Q502.6094,222.9106 502.4219,222.7231 Q502.0938,222.3481 501.4844,222.1294 Q500.875,221.9106 500.25,221.9106 Q499.4844,221.9106 498.8438,222.2387 Q498.2188,222.5669 497.7188,223.3169 Q497.2344,224.0669 497.2344,225.0981 L497.2344,226.1919 Q497.2344,227.4262 498.125,228.2544 Q499.0156,229.0669 500.6094,229.0669 Q501.5469,229.0669 502.2031,228.8169 Q502.5938,228.6606 503.0156,228.2231 Q503.2813,227.9575 503.4219,227.8794 Q503.5781,227.8012 503.7813,227.8012 Q504.1094,227.8012 504.3594,228.0669 Q504.625,228.3169 504.625,228.6606 Q504.625,229.0044 504.2813,229.4106 Q503.7813,229.9887 502.9844,230.3169 Q501.9063,230.77 500.6094,230.77 Q499.0938,230.77 497.8906,230.145 Q496.9063,229.645 496.2188,228.5825 Q495.5313,227.5044 495.5313,226.2231 L495.5313,225.0669 Q495.5313,223.7387 496.1406,222.5981 Q496.7656,221.4419 497.8594,220.8325 Q498.9531,220.2075 500.1875,220.2075 Q500.9219,220.2075 501.5625,220.3794 Q502.2188,220.5356 502.7656,220.895 Z " fill="#000000"/><text fill="#000000" font-family="sans-serif" font-size="12" lengthAdjust="spacing" textLength="100" x="514" y="229.9302">VaccinationCenter</text><line style="stroke:#A80036;stroke-width:1.5;" x1="486" x2="616" y1="241.02" y2="241.02"/><text fill="#000000" font-family="sans-serif" font-size="11" lengthAdjust="spacing" textLength="64" x="491" y="256.4389">-name: String</text><text fill="#000000" font-family="sans-serif" font-size="11" lengthAdjust="spacing" textLength="92" x="491" y="270.2749">-address: Address</text><text fill="#000000" font-family="sans-serif" font-size="11" lengthAdjust="spacing" textLength="105" x="491" y="284.1108">-phoneNumber: String</text><text fill="#000000" font-family="sans-serif" font-size="11" lengthAdjust="spacing" textLength="104" x="491" y="297.9468">-emailAddress: String</text><text fill="#000000" font-family="sans-serif" font-size="11" lengthAdjust="spacing" textLength="91" x="491" y="311.7827">-faxNumber: String</text><text fill="#000000" font-family="sans-serif" font-size="11" lengthAdjust="spacing" textLength="120" x="491" y="325.6186">-webSiteAddress: String</text><line style="stroke:#A80036;stroke-width:1.5;" x1="486" x2="616" y1="332.0356" y2="332.0356"/><text fill="#000000" font-family="sans-serif" font-size="11" lengthAdjust="spacing" textLength="116" x="491" y="347.4546">+getVaccinaAdminList()</text><text fill="#000000" font-family="sans-serif" font-size="11" lengthAdjust="spacing" textLength="56" x="491" y="361.2905">+getName()</text><!--MD5=[19e445fc4d3b48519cbe33da05496394]
class Vaccine--><rect codeLine="55" fill="#FEFECE" filter="url(#f12nnfj4gu6srz)" height="131.0156" id="Vaccine" style="stroke:#A80036;stroke-width:1.5;" width="158" x="771" y="669.52"/><ellipse cx="824.25" cy="685.52" fill="#ADD1B2" rx="11" ry="11" style="stroke:#A80036;stroke-width:1.0;"/><path d="M827.0156,681.395 Q827.1719,681.1763 827.3594,681.0669 Q827.5469,680.9575 827.7656,680.9575 Q828.1406,680.9575 828.375,681.2231 Q828.6094,681.4731 828.6094,682.0825 L828.6094,683.5356 Q828.6094,684.145 828.375,684.4106 Q828.1406,684.6763 827.7656,684.6763 Q827.4219,684.6763 827.2188,684.4731 Q827.0156,684.2856 826.9063,683.77 Q826.8594,683.4106 826.6719,683.2231 Q826.3438,682.8481 825.7344,682.6294 Q825.125,682.4106 824.5,682.4106 Q823.7344,682.4106 823.0938,682.7388 Q822.4688,683.0669 821.9688,683.8169 Q821.4844,684.5669 821.4844,685.5981 L821.4844,686.6919 Q821.4844,687.9263 822.375,688.7544 Q823.2656,689.5669 824.8594,689.5669 Q825.7969,689.5669 826.4531,689.3169 Q826.8438,689.1606 827.2656,688.7231 Q827.5313,688.4575 827.6719,688.3794 Q827.8281,688.3013 828.0313,688.3013 Q828.3594,688.3013 828.6094,688.5669 Q828.875,688.8169 828.875,689.1606 Q828.875,689.5044 828.5313,689.9106 Q828.0313,690.4888 827.2344,690.8169 Q826.1563,691.27 824.8594,691.27 Q823.3438,691.27 822.1406,690.645 Q821.1563,690.145 820.4688,689.0825 Q819.7813,688.0044 819.7813,686.7231 L819.7813,685.5669 Q819.7813,684.2388 820.3906,683.0981 Q821.0156,681.9419 822.1094,681.3325 Q823.2031,680.7075 824.4375,680.7075 Q825.1719,680.7075 825.8125,680.8794 Q826.4688,681.0356 827.0156,681.395 Z " fill="#000000"/><text fill="#000000" font-family="sans-serif" font-size="12" lengthAdjust="spacing" textLength="43" x="844.75" y="690.4302">Vaccine</text><line style="stroke:#A80036;stroke-width:1.5;" x1="772" x2="928" y1="701.52" y2="701.52"/><text fill="#000000" font-family="sans-serif" font-size="11" lengthAdjust="spacing" textLength="93" x="777" y="716.9389">-designation: String</text><text fill="#000000" font-family="sans-serif" font-size="11" lengthAdjust="spacing" textLength="66" x="777" y="730.7749">-brand: String</text><text fill="#000000" font-family="sans-serif" font-size="11" lengthAdjust="spacing" textLength="46" x="777" y="744.6108">-id: String</text><text fill="#000000" font-family="sans-serif" font-size="11" lengthAdjust="spacing" textLength="116" x="777" y="758.4468">-vacType: VaccineType</text><text fill="#000000" font-family="sans-serif" font-size="11" lengthAdjust="spacing" textLength="146" x="777" y="772.2827">-adminProcList: AdminProcList</text><line style="stroke:#A80036;stroke-width:1.5;" x1="772" x2="928" y1="778.6997" y2="778.6997"/><text fill="#000000" font-family="sans-serif" font-size="11" lengthAdjust="spacing" textLength="73" x="777" y="794.1186">+getVacType()</text><!--MD5=[107cfa23aa516ff83d0cf17a6f9fe7ba]
class VaccineAdministration--><rect codeLine="64" fill="#FEFECE" filter="url(#f12nnfj4gu6srz)" height="144.8516" id="VaccineAdministration" style="stroke:#A80036;stroke-width:1.5;" width="198" x="637" y="446.52"/><ellipse cx="671.8" cy="462.52" fill="#ADD1B2" rx="11" ry="11" style="stroke:#A80036;stroke-width:1.0;"/><path d="M674.5656,458.395 Q674.7219,458.1763 674.9094,458.0669 Q675.0969,457.9575 675.3156,457.9575 Q675.6906,457.9575 675.925,458.2231 Q676.1594,458.4731 676.1594,459.0825 L676.1594,460.5356 Q676.1594,461.145 675.925,461.4106 Q675.6906,461.6763 675.3156,461.6763 Q674.9719,461.6763 674.7688,461.4731 Q674.5656,461.2856 674.4563,460.77 Q674.4094,460.4106 674.2219,460.2231 Q673.8938,459.8481 673.2844,459.6294 Q672.675,459.4106 672.05,459.4106 Q671.2844,459.4106 670.6438,459.7388 Q670.0188,460.0669 669.5188,460.8169 Q669.0344,461.5669 669.0344,462.5981 L669.0344,463.6919 Q669.0344,464.9263 669.925,465.7544 Q670.8156,466.5669 672.4094,466.5669 Q673.3469,466.5669 674.0031,466.3169 Q674.3938,466.1606 674.8156,465.7231 Q675.0813,465.4575 675.2219,465.3794 Q675.3781,465.3013 675.5813,465.3013 Q675.9094,465.3013 676.1594,465.5669 Q676.425,465.8169 676.425,466.1606 Q676.425,466.5044 676.0813,466.9106 Q675.5813,467.4888 674.7844,467.8169 Q673.7063,468.27 672.4094,468.27 Q670.8938,468.27 669.6906,467.645 Q668.7063,467.145 668.0188,466.0825 Q667.3313,465.0044 667.3313,463.7231 L667.3313,462.5669 Q667.3313,461.2388 667.9406,460.0981 Q668.5656,458.9419 669.6594,458.3325 Q670.7531,457.7075 671.9875,457.7075 Q672.7219,457.7075 673.3625,457.8794 Q674.0188,458.0356 674.5656,458.395 Z " fill="#000000"/><text fill="#000000" font-family="sans-serif" font-size="12" lengthAdjust="spacing" textLength="122" x="690.2" y="467.4302">VaccineAdministration</text><line style="stroke:#A80036;stroke-width:1.5;" x1="638" x2="834" y1="478.52" y2="478.52"/><text fill="#000000" font-family="sans-serif" font-size="11" lengthAdjust="spacing" textLength="95" x="643" y="493.9389">-snsUser: SNSUser</text><text fill="#000000" font-family="sans-serif" font-size="11" lengthAdjust="spacing" textLength="88" x="643" y="507.7749">-vaccine: Vaccine</text><text fill="#000000" font-family="sans-serif" font-size="11" lengthAdjust="spacing" textLength="86" x="643" y="521.6108">-lotNumber: String</text><text fill="#000000" font-family="sans-serif" font-size="11" lengthAdjust="spacing" textLength="82" x="643" y="535.4468">-doseNumber: int</text><text fill="#000000" font-family="sans-serif" font-size="11" lengthAdjust="spacing" textLength="186" x="643" y="549.2827">-vaccinationCenter: VaccinationCenter</text><text fill="#000000" font-family="sans-serif" font-size="11" lengthAdjust="spacing" textLength="74" x="643" y="563.1186">-date: Calendar</text><line style="stroke:#A80036;stroke-width:1.5;" x1="638" x2="834" y1="569.5356" y2="569.5356"/><text fill="#000000" font-family="sans-serif" font-size="11" lengthAdjust="spacing" textLength="69" x="643" y="584.9546">+getVaccine()</text><!--MD5=[0e501da62322464167c8ec4d233a6b7e]
class VaccineType--><rect codeLine="74" fill="#FEFECE" filter="url(#f12nnfj4gu6srz)" height="103.3438" id="VaccineType" style="stroke:#A80036;stroke-width:1.5;" width="103" x="892.5" y="878.52"/><ellipse cx="908.4" cy="894.52" fill="#ADD1B2" rx="11" ry="11" style="stroke:#A80036;stroke-width:1.0;"/><path d="M911.1656,890.395 Q911.3219,890.1763 911.5094,890.0669 Q911.6969,889.9575 911.9156,889.9575 Q912.2906,889.9575 912.525,890.2231 Q912.7594,890.4731 912.7594,891.0825 L912.7594,892.5356 Q912.7594,893.145 912.525,893.4106 Q912.2906,893.6763 911.9156,893.6763 Q911.5719,893.6763 911.3688,893.4731 Q911.1656,893.2856 911.0563,892.77 Q911.0094,892.4106 910.8219,892.2231 Q910.4938,891.8481 909.8844,891.6294 Q909.275,891.4106 908.65,891.4106 Q907.8844,891.4106 907.2438,891.7388 Q906.6188,892.0669 906.1188,892.8169 Q905.6344,893.5669 905.6344,894.5981 L905.6344,895.6919 Q905.6344,896.9263 906.525,897.7544 Q907.4156,898.5669 909.0094,898.5669 Q909.9469,898.5669 910.6031,898.3169 Q910.9938,898.1606 911.4156,897.7231 Q911.6813,897.4575 911.8219,897.3794 Q911.9781,897.3013 912.1813,897.3013 Q912.5094,897.3013 912.7594,897.5669 Q913.025,897.8169 913.025,898.1606 Q913.025,898.5044 912.6813,898.9106 Q912.1813,899.4888 911.3844,899.8169 Q910.3063,900.27 909.0094,900.27 Q907.4938,900.27 906.2906,899.645 Q905.3063,899.145 904.6188,898.0825 Q903.9313,897.0044 903.9313,895.7231 L903.9313,894.5669 Q903.9313,893.2388 904.5406,892.0981 Q905.1656,890.9419 906.2594,890.3325 Q907.3531,889.7075 908.5875,889.7075 Q909.3219,889.7075 909.9625,889.8794 Q910.6188,890.0356 911.1656,890.395 Z " fill="#000000"/><text fill="#000000" font-family="sans-serif" font-size="12" lengthAdjust="spacing" textLength="69" x="922.6" y="899.4302">VaccineType</text><line style="stroke:#A80036;stroke-width:1.5;" x1="893.5" x2="994.5" y1="910.52" y2="910.52"/><text fill="#000000" font-family="sans-serif" font-size="11" lengthAdjust="spacing" textLength="62" x="898.5" y="925.9389">-code: String</text><text fill="#000000" font-family="sans-serif" font-size="11" lengthAdjust="spacing" textLength="91" x="898.5" y="939.7749">-description: String</text><text fill="#000000" font-family="sans-serif" font-size="11" lengthAdjust="spacing" textLength="91" x="898.5" y="953.6108">-technology: String</text><line style="stroke:#A80036;stroke-width:1.5;" x1="893.5" x2="994.5" y1="960.0278" y2="960.0278"/><text fill="#000000" font-family="sans-serif" font-size="11" lengthAdjust="spacing" textLength="83" x="898.5" y="975.4468">+getDescription()</text><!--MD5=[a29876ea2f21a6ca48ea477740122fd8]
class VaccinationCenterStore--><rect codeLine="83" fill="#FEFECE" filter="url(#f12nnfj4gu6srz)" height="61.8359" id="VaccinationCenterStore" style="stroke:#A80036;stroke-width:1.5;" width="161" x="1272.5" y="488.02"/><ellipse cx="1287.5" cy="504.02" fill="#ADD1B2" rx="11" ry="11" style="stroke:#A80036;stroke-width:1.0;"/><path d="M1290.2656,499.895 Q1290.4219,499.6763 1290.6094,499.5669 Q1290.7969,499.4575 1291.0156,499.4575 Q1291.3906,499.4575 1291.625,499.7231 Q1291.8594,499.9731 1291.8594,500.5825 L1291.8594,502.0356 Q1291.8594,502.645 1291.625,502.9106 Q1291.3906,503.1763 1291.0156,503.1763 Q1290.6719,503.1763 1290.4688,502.9731 Q1290.2656,502.7856 1290.1563,502.27 Q1290.1094,501.9106 1289.9219,501.7231 Q1289.5938,501.3481 1288.9844,501.1294 Q1288.375,500.9106 1287.75,500.9106 Q1286.9844,500.9106 1286.3438,501.2388 Q1285.7188,501.5669 1285.2188,502.3169 Q1284.7344,503.0669 1284.7344,504.0981 L1284.7344,505.1919 Q1284.7344,506.4263 1285.625,507.2544 Q1286.5156,508.0669 1288.1094,508.0669 Q1289.0469,508.0669 1289.7031,507.8169 Q1290.0938,507.6606 1290.5156,507.2231 Q1290.7813,506.9575 1290.9219,506.8794 Q1291.0781,506.8013 1291.2813,506.8013 Q1291.6094,506.8013 1291.8594,507.0669 Q1292.125,507.3169 1292.125,507.6606 Q1292.125,508.0044 1291.7813,508.4106 Q1291.2813,508.9888 1290.4844,509.3169 Q1289.4063,509.77 1288.1094,509.77 Q1286.5938,509.77 1285.3906,509.145 Q1284.4063,508.645 1283.7188,507.5825 Q1283.0313,506.5044 1283.0313,505.2231 L1283.0313,504.0669 Q1283.0313,502.7388 1283.6406,501.5981 Q1284.2656,500.4419 1285.3594,499.8325 Q1286.4531,499.2075 1287.6875,499.2075 Q1288.4219,499.2075 1289.0625,499.3794 Q1289.7188,499.5356 1290.2656,499.895 Z " fill="#000000"/><text fill="#000000" font-family="sans-serif" font-size="12" lengthAdjust="spacing" textLength="129" x="1301.5" y="508.9302">VaccinationCenterStore</text><line style="stroke:#A80036;stroke-width:1.5;" x1="1273.5" x2="1432.5" y1="520.02" y2="520.02"/><line style="stroke:#A80036;stroke-width:1.5;" x1="1273.5" x2="1432.5" y1="528.02" y2="528.02"/><text fill="#000000" font-family="sans-serif" font-size="11" lengthAdjust="spacing" textLength="124" x="1278.5" y="543.4389">+getVaccinationCenters()</text><!--MD5=[9532c95099058dfe385d7270fd32fc0d]
class VaccineTypeStore--><rect codeLine="87" fill="#FEFECE" filter="url(#f12nnfj4gu6srz)" height="61.8359" id="VaccineTypeStore" style="stroke:#A80036;stroke-width:1.5;" width="130" x="1469" y="488.02"/><ellipse cx="1484" cy="504.02" fill="#ADD1B2" rx="11" ry="11" style="stroke:#A80036;stroke-width:1.0;"/><path d="M1486.7656,499.895 Q1486.9219,499.6763 1487.1094,499.5669 Q1487.2969,499.4575 1487.5156,499.4575 Q1487.8906,499.4575 1488.125,499.7231 Q1488.3594,499.9731 1488.3594,500.5825 L1488.3594,502.0356 Q1488.3594,502.645 1488.125,502.9106 Q1487.8906,503.1763 1487.5156,503.1763 Q1487.1719,503.1763 1486.9688,502.9731 Q1486.7656,502.7856 1486.6563,502.27 Q1486.6094,501.9106 1486.4219,501.7231 Q1486.0938,501.3481 1485.4844,501.1294 Q1484.875,500.9106 1484.25,500.9106 Q1483.4844,500.9106 1482.8438,501.2388 Q1482.2188,501.5669 1481.7188,502.3169 Q1481.2344,503.0669 1481.2344,504.0981 L1481.2344,505.1919 Q1481.2344,506.4263 1482.125,507.2544 Q1483.0156,508.0669 1484.6094,508.0669 Q1485.5469,508.0669 1486.2031,507.8169 Q1486.5938,507.6606 1487.0156,507.2231 Q1487.2813,506.9575 1487.4219,506.8794 Q1487.5781,506.8013 1487.7813,506.8013 Q1488.1094,506.8013 1488.3594,507.0669 Q1488.625,507.3169 1488.625,507.6606 Q1488.625,508.0044 1488.2813,508.4106 Q1487.7813,508.9888 1486.9844,509.3169 Q1485.9063,509.77 1484.6094,509.77 Q1483.0938,509.77 1481.8906,509.145 Q1480.9063,508.645 1480.2188,507.5825 Q1479.5313,506.5044 1479.5313,505.2231 L1479.5313,504.0669 Q1479.5313,502.7388 1480.1406,501.5981 Q1480.7656,500.4419 1481.8594,499.8325 Q1482.9531,499.2075 1484.1875,499.2075 Q1484.9219,499.2075 1485.5625,499.3794 Q1486.2188,499.5356 1486.7656,499.895 Z " fill="#000000"/><text fill="#000000" font-family="sans-serif" font-size="12" lengthAdjust="spacing" textLength="98" x="1498" y="508.9302">VaccineTypeStore</text><line style="stroke:#A80036;stroke-width:1.5;" x1="1470" x2="1598" y1="520.02" y2="520.02"/><line style="stroke:#A80036;stroke-width:1.5;" x1="1470" x2="1598" y1="528.02" y2="528.02"/><text fill="#000000" font-family="sans-serif" font-size="11" lengthAdjust="spacing" textLength="99" x="1475" y="543.4389">+getVaccineTypes()</text><!--MD5=[ef8f8e825ec35b6db9451ba2eb8a8155]
class FileUtils--><rect codeLine="93" fill="#FEFECE" filter="url(#f12nnfj4gu6srz)" height="61.8359" id="FileUtils" style="stroke:#A80036;stroke-width:1.5;" width="156" x="1060" y="488.02"/><ellipse cx="1111.25" cy="504.02" fill="#ADD1B2" rx="11" ry="11" style="stroke:#A80036;stroke-width:1.0;"/><path d="M1114.0156,499.895 Q1114.1719,499.6763 1114.3594,499.5669 Q1114.5469,499.4575 1114.7656,499.4575 Q1115.1406,499.4575 1115.375,499.7231 Q1115.6094,499.9731 1115.6094,500.5825 L1115.6094,502.0356 Q1115.6094,502.645 1115.375,502.9106 Q1115.1406,503.1763 1114.7656,503.1763 Q1114.4219,503.1763 1114.2188,502.9731 Q1114.0156,502.7856 1113.9063,502.27 Q1113.8594,501.9106 1113.6719,501.7231 Q1113.3438,501.3481 1112.7344,501.1294 Q1112.125,500.9106 1111.5,500.9106 Q1110.7344,500.9106 1110.0938,501.2388 Q1109.4688,501.5669 1108.9688,502.3169 Q1108.4844,503.0669 1108.4844,504.0981 L1108.4844,505.1919 Q1108.4844,506.4263 1109.375,507.2544 Q1110.2656,508.0669 1111.8594,508.0669 Q1112.7969,508.0669 1113.4531,507.8169 Q1113.8438,507.6606 1114.2656,507.2231 Q1114.5313,506.9575 1114.6719,506.8794 Q1114.8281,506.8013 1115.0313,506.8013 Q1115.3594,506.8013 1115.6094,507.0669 Q1115.875,507.3169 1115.875,507.6606 Q1115.875,508.0044 1115.5313,508.4106 Q1115.0313,508.9888 1114.2344,509.3169 Q1113.1563,509.77 1111.8594,509.77 Q1110.3438,509.77 1109.1406,509.145 Q1108.1563,508.645 1107.4688,507.5825 Q1106.7813,506.5044 1106.7813,505.2231 L1106.7813,504.0669 Q1106.7813,502.7388 1107.3906,501.5981 Q1108.0156,500.4419 1109.1094,499.8325 Q1110.2031,499.2075 1111.4375,499.2075 Q1112.1719,499.2075 1112.8125,499.3794 Q1113.4688,499.5356 1114.0156,499.895 Z " fill="#000000"/><text fill="#000000" font-family="sans-serif" font-size="12" lengthAdjust="spacing" textLength="45" x="1131.75" y="508.9302">FileUtils</text><line style="stroke:#A80036;stroke-width:1.5;" x1="1061" x2="1215" y1="520.02" y2="520.02"/><line style="stroke:#A80036;stroke-width:1.5;" x1="1061" x2="1215" y1="528.02" y2="528.02"/><text fill="#000000" font-family="sans-serif" font-size="11" lengthAdjust="spacing" textLength="144" x="1066" y="543.4389">+writeToFile(filepath, content)</text><!--MD5=[d1e8a9c17617a8d4c9d7da7ce0d3de13]
link TimerTask to Runnable--><path codeLine="101" d="M2086,340.23 C2086,378.13 2086,429.7 2086,467.54 " fill="none" id="TimerTask-to-Runnable" style="stroke:#A80036;stroke-width:1.0;stroke-dasharray:7.0,7.0;"/><polygon fill="none" points="2093,467.77,2086,487.77,2079,467.77,2093,467.77" style="stroke:#A80036;stroke-width:1.0;"/><!--MD5=[da7aeb6714666eff3cae4b9d1e79a064]
link ExportDailyVaccinatedTask to TimerTask--><path codeLine="102" d="M298.85,222.78 C335.07,161.06 399.05,73.63 484.5,42.02 C522.3,28.04 1897.7,28.04 1935.5,42.02 C2008.8,69.14 2048.64,154.62 2068.58,217.34 " fill="none" id="ExportDailyVaccinatedTask-to-TimerTask" style="stroke:#A80036;stroke-width:1.0;"/><polygon fill="none" points="2075.38,215.64,2074.38,236.8,2061.96,219.63,2075.38,215.64" style="stroke:#A80036;stroke-width:1.0;"/><!--MD5=[9deafd3694cb0423f6ca7eee171afa52]
link ExportDailyVaccinatedTask to FileUtils--><path codeLine="103" d="M419.81,354.04 C435.58,359.3 451.5,364.09 467,368.02 C477.26,370.62 834.45,415.11 845,416.02 C883.79,419.36 983.55,410.34 1020,424.02 C1053.61,436.64 1085.06,462.69 1107.02,484.18 " fill="none" id="ExportDailyVaccinatedTask-to-FileUtils" style="stroke:#A80036;stroke-width:1.0;"/><polygon fill="#A80036" points="1110.74,487.86,1107.1859,478.6748,1107.1973,484.3316,1101.5405,484.343,1110.74,487.86" style="stroke:#A80036;stroke-width:1.0;"/><text fill="#000000" font-family="sans-serif" font-size="13" lengthAdjust="spacing" textLength="28" x="846" y="412.5151">uses</text><!--MD5=[bc0d5b4bfe6e1bf0a8fced13bc4bdd47]
link Company to VaccinationCenterStore--><path codeLine="104" d="M1004.1,333.98 C1076.96,355.94 1160.86,385.99 1232,424.02 C1262.83,440.5 1293.88,464.83 1316.82,484.6 " fill="none" id="Company-to-VaccinationCenterStore" style="stroke:#A80036;stroke-width:1.0;stroke-dasharray:7.0,7.0;"/><polygon fill="#A80036" points="1320.71,487.99,1316.5516,479.0621,1316.94,484.7056,1311.2965,485.094,1320.71,487.99" style="stroke:#A80036;stroke-width:1.0;"/><text fill="#000000" font-family="sans-serif" font-size="13" lengthAdjust="spacing" textLength="37" x="1213" y="412.5151">knows</text><!--MD5=[26b80dd60d3305f854b992ec0b603e2d]
link Company to VaccineTypeStore--><path codeLine="105" d="M1004.17,298.14 C1135.15,311.26 1314.12,343.81 1451,424.02 C1475.9,438.61 1497.27,463.3 1512.09,483.71 " fill="none" id="Company-to-VaccineTypeStore" style="stroke:#A80036;stroke-width:1.0;stroke-dasharray:7.0,7.0;"/><polygon fill="#A80036" points="1515.15,488,1513.1642,478.3534,1512.2398,483.9342,1506.659,483.0098,1515.15,488" style="stroke:#A80036;stroke-width:1.0;"/><text fill="#000000" font-family="sans-serif" font-size="13" lengthAdjust="spacing" textLength="37" x="1438" y="412.5151">knows</text><!--MD5=[09e640553caef1f503445df8eef57be6]
reverse link Vaccine to VaccineType--><path codeLine="106" d="M887.16,812.33 C897.95,834.48 909.47,858.11 919.29,878.28 " fill="none" id="Vaccine-backto-VaccineType" style="stroke:#A80036;stroke-width:1.0;"/><polygon fill="#FFFFFF" points="881.43,800.55,880.4582,807.6953,886.6802,811.3405,887.6519,804.1952,881.43,800.55" style="stroke:#A80036;stroke-width:1.0;"/><polygon fill="#000000" points="910.1899,844.1907,908.8704,834.7721,903.5863,837.3465,910.1899,844.1907" style="stroke:#000000;stroke-width:1.0;"/><text fill="#000000" font-family="sans-serif" font-size="13" lengthAdjust="spacing" textLength="21" x="917" y="845.0151">has</text><text fill="#000000" font-family="sans-serif" font-size="13" lengthAdjust="spacing" textLength="5" x="879.5942" y="822.1058">*</text><text fill="#000000" font-family="sans-serif" font-size="13" lengthAdjust="spacing" textLength="7" x="908.4993" y="867.7481">1</text><!--MD5=[c58bd6eba898ded10585dd85dd8e9c64]
reverse link VaccineAdministration to Vaccine--><path codeLine="107" d="M780.34,603.25 C792.03,625.21 804.48,648.57 815.56,669.38 " fill="none" id="VaccineAdministration-backto-Vaccine" style="stroke:#A80036;stroke-width:1.0;"/><polygon fill="#FFFFFF" points="774.12,591.58,773.4123,598.7563,779.7643,602.1697,780.4721,594.9934,774.12,591.58" style="stroke:#A80036;stroke-width:1.0;"/><polygon fill="#000000" points="804.3504,635.1089,802.6925,625.744,797.5045,628.507,804.3504,635.1089" style="stroke:#000000;stroke-width:1.0;"/><text fill="#000000" font-family="sans-serif" font-size="13" lengthAdjust="spacing" textLength="21" x="811" y="636.0151">has</text><text fill="#000000" font-family="sans-serif" font-size="13" lengthAdjust="spacing" textLength="5" x="772.515" y="612.7773">*</text><text fill="#000000" font-family="sans-serif" font-size="13" lengthAdjust="spacing" textLength="5" x="806.5197" y="658.8391">*</text><!--MD5=[f145e827c0d785481ce2b5038ad8ef1a]
reverse link VaccinationCenter to VaccineAdministration--><path codeLine="108" d="M622.93,378.36 C641.11,400.81 660.4,424.64 677.81,446.14 " fill="none" id="VaccinationCenter-backto-VaccineAdministration" style="stroke:#A80036;stroke-width:1.0;"/><polygon fill="#FFFFFF" points="614.67,368.16,615.3342,375.3405,622.2177,377.4891,621.5536,370.3086,614.67,368.16" style="stroke:#A80036;stroke-width:1.0;"/><polygon fill="#000000" points="658.1464,411.0817,654.7386,402.2026,650.1705,405.9014,658.1464,411.0817" style="stroke:#000000;stroke-width:1.0;"/><text fill="#000000" font-family="sans-serif" font-size="13" lengthAdjust="spacing" textLength="21" x="664" y="412.5151">has</text><text fill="#000000" font-family="sans-serif" font-size="13" lengthAdjust="spacing" textLength="7" x="612.8409" y="389.2152">1</text><text fill="#000000" font-family="sans-serif" font-size="13" lengthAdjust="spacing" textLength="5" x="666.8358" y="435.6981">*</text><!--MD5=[d008df8d9f8e445f2ab98a1ffd9c1902]
link VaccineTypeStore to VaccineType--><path codeLine="109" d="M1500.87,550.21 C1485.98,563.35 1467.97,578.64 1451,591.52 C1293.47,711.08 1095.5,836.09 1000.27,894.76 " fill="none" id="VaccineTypeStore-to-VaccineType" style="stroke:#A80036;stroke-width:1.0;"/><polygon fill="#A80036" points="995.81,897.51,1005.5693,896.1852,1000.0644,894.8831,1001.3664,889.3782,995.81,897.51" style="stroke:#A80036;stroke-width:1.0;"/><text fill="#000000" font-family="sans-serif" font-size="13" lengthAdjust="spacing" textLength="29" x="1340" y="740.5151">store</text><text fill="#000000" font-family="sans-serif" font-size="13" lengthAdjust="spacing" textLength="7" x="1486.6585" y="571.4714">1</text><text fill="#000000" font-family="sans-serif" font-size="13" lengthAdjust="spacing" textLength="5" x="1003.4473" y="889.3089">*</text><!--MD5=[8c304936b446fd8cea914e03fbadd4b7]
link VaccinationCenterStore to VaccinationCenter--><path codeLine="110" d="M1324.28,487.77 C1301.52,465.93 1267.69,437.92 1232,424.02 C1211.85,416.17 1156.54,417.94 1135,416.02 C1079.3,411.05 684.91,391.16 634,368.02 C629.76,366.09 625.59,363.86 621.53,361.39 " fill="none" id="VaccinationCenterStore-to-VaccinationCenter" style="stroke:#A80036;stroke-width:1.0;"/><polygon fill="#A80036" points="617.16,358.62,622.6199,366.8169,621.383,361.297,626.903,360.0601,617.16,358.62" style="stroke:#A80036;stroke-width:1.0;"/><text fill="#000000" font-family="sans-serif" font-size="13" lengthAdjust="spacing" textLength="36" x="1136" y="412.5151">stores</text><text fill="#000000" font-family="sans-serif" font-size="13" lengthAdjust="spacing" textLength="7" x="1310.6346" y="477.223">1</text><text fill="#000000" font-family="sans-serif" font-size="13" lengthAdjust="spacing" textLength="5" x="625.0988" y="363.3338">*</text><!--MD5=[01558f40b86ad3407c4a50a817100da8]
link Company to Timer--><path codeLine="111" d="M1004.03,288.52 C1203.68,288.52 1523.97,288.52 1697.6,288.52 " fill="none" id="Company-to-Timer" style="stroke:#A80036;stroke-width:1.0;"/><polygon fill="#A80036" points="1702.7,288.52,1693.7,284.52,1697.7,288.52,1693.7,292.52,1702.7,288.52" style="stroke:#A80036;stroke-width:1.0;"/><text fill="#000000" font-family="sans-serif" font-size="13" lengthAdjust="spacing" textLength="28" x="1339.5" y="282.0151">uses</text><!--MD5=[127ad7ebdcd792edde10e8f6172c7485]
link Timer to ExportDailyVaccinatedTask--><path codeLine="112" d="M1722.24,257.5 C1573.3,211.54 1278,127.51 1020,97.02 C775.92,68.18 695.3,6 467,97.02 C405.56,121.51 352.08,174.56 315.61,218.62 " fill="none" id="Timer-to-ExportDailyVaccinatedTask" style="stroke:#A80036;stroke-width:1.0;"/><polygon fill="#A80036" points="312.35,222.58,321.1476,218.1526,315.5185,218.7121,314.959,213.083,312.35,222.58" style="stroke:#A80036;stroke-width:1.0;"/><text fill="#000000" font-family="sans-serif" font-size="13" lengthAdjust="spacing" textLength="59" x="1046.5" y="45.5151">schedules</text><!--MD5=[d6edd88d6473a38dfcc36ff1870d3c2b]
@startuml
skinparam classAttributeIconSize 0

package java.util{
    class Timer{
        +scheduleAtFixedRate(task, firstTime, period)
    }
    abstract TimerTask{
        +TimerTask()
        +run()
        +cancel()
        +scheduleAtFixedRate(task, firstTime, period)
    }
}

package java.lang{
    interface Runnable{
        +run()
    }
}
    
package core {
    

    package domain{
        package model{
            class Company{
                -designation: String
                -vaccinationCenterStore: VaccinationCenterStore
                -vaccineTypeStore: VaccineTypeStore
                +Company(designation)
                +scheduleExportDailyVaccinated(filePath, time, separator, timeInterval)
            }


            class ExportDailyVaccinatedTask {
                -filePath: String
                -vacCenterSt: VaccinationCenterStore
                -vacTypeSt: VaccineTypeStore
                -separator: char
                +ExportDailyVaccinatedTask(filePath, separator, vacCenterSt, vacTypeSt)
                +run()
            }
                    
            class VaccinationCenter {
                -name: String 
                -address: Address
                -phoneNumber: String
                -emailAddress: String
                -faxNumber: String
                -webSiteAddress: String
                +getVaccinaAdminList()
                +getName()
            }

            class Vaccine {
                -designation: String
                -brand: String
                -id: String
                -vacType: VaccineType
                -adminProcList: AdminProcList
                +getVacType()
            }

            class VaccineAdministration {
                -snsUser: SNSUser
                -vaccine: Vaccine
                -lotNumber: String
                -doseNumber: int
                -vaccinationCenter: VaccinationCenter
                -date: Calendar
                +getVaccine()
            }

            class VaccineType {
                -code: String
                -description: String
                -technology: String
                +getDescription()
            }
        }
        package stores{
            
            class VaccinationCenterStore {
                +getVaccinationCenters()
            }

            class VaccineTypeStore {
                +getVaccineTypes()
            }

        }
        package service{
            class FileUtils {
                +writeToFile(filepath, content)
            }
        }
    }
}


TimerTask ..|> Runnable
ExportDailyVaccinatedTask -|> TimerTask
ExportDailyVaccinatedTask - -> FileUtils : uses
Company ..> VaccinationCenterStore : knows
Company ..> VaccineTypeStore : knows
Vaccine "*" o- - "1" VaccineType : has > 
VaccineAdministration "*" o- - "*" Vaccine : has >
VaccinationCenter "1" o- - "*" VaccineAdministration : has >
VaccineTypeStore "1" - -> "*" VaccineType : store
VaccinationCenterStore "1" -> "*" VaccinationCenter : stores
Company - -> Timer : uses
Timer - -> ExportDailyVaccinatedTask : schedules

@enduml

PlantUML version 1.2022.0(Tue Jan 11 16:16:42 WET 2022)
(GPL source distribution)
Java Runtime: Java(TM) SE Runtime Environment
JVM: Java HotSpot(TM) 64-Bit Server VM
Default Encoding: Cp1252
Language: pt
Country: PT
--></g></svg>