<?xml version="1.0" encoding="UTF-8" standalone="no"?><svg xmlns="http://www.w3.org/2000/svg" xmlns:xlink="http://www.w3.org/1999/xlink" contentScriptType="application/ecmascript" contentStyleType="text/css" height="435px" preserveAspectRatio="none" style="width:242px;height:435px;background:#FFFFFF;" version="1.1" viewBox="0 0 242 435" width="242px" zoomAndPan="magnify"><defs><filter height="300%" id="f1hekwvyo02r66" width="300%" x="-1" y="-1"><feGaussianBlur result="blurOut" stdDeviation="2.0"/><feColorMatrix in="blurOut" result="blurOut2" type="matrix" values="0 0 0 0 0 0 0 0 0 0 0 0 0 0 0 0 0 0 .4 0"/><feOffset dx="4.0" dy="4.0" in="blurOut2" result="blurOut3"/><feBlend in="SourceGraphic" in2="blurOut3" mode="normal"/></filter></defs><g><!--MD5=[02e4b9b7573f1156f41e60aa5b4e25a4]
class Company--><rect codeLine="4" fill="#FEFECE" filter="url(#f1hekwvyo02r66)" height="53.8359" id="Company" style="stroke:#A80036;stroke-width:1.5;" width="85" x="78" y="7"/><ellipse cx="93" cy="23" fill="#ADD1B2" rx="11" ry="11" style="stroke:#A80036;stroke-width:1.0;"/><path d="M95.7656,18.875 Q95.9219,18.6563 96.1094,18.5469 Q96.2969,18.4375 96.5156,18.4375 Q96.8906,18.4375 97.125,18.7031 Q97.3594,18.9531 97.3594,19.5625 L97.3594,21.0156 Q97.3594,21.625 97.125,21.8906 Q96.8906,22.1563 96.5156,22.1563 Q96.1719,22.1563 95.9688,21.9531 Q95.7656,21.7656 95.6563,21.25 Q95.6094,20.8906 95.4219,20.7031 Q95.0938,20.3281 94.4844,20.1094 Q93.875,19.8906 93.25,19.8906 Q92.4844,19.8906 91.8438,20.2188 Q91.2188,20.5469 90.7188,21.2969 Q90.2344,22.0469 90.2344,23.0781 L90.2344,24.1719 Q90.2344,25.4063 91.125,26.2344 Q92.0156,27.0469 93.6094,27.0469 Q94.5469,27.0469 95.2031,26.7969 Q95.5938,26.6406 96.0156,26.2031 Q96.2813,25.9375 96.4219,25.8594 Q96.5781,25.7813 96.7813,25.7813 Q97.1094,25.7813 97.3594,26.0469 Q97.625,26.2969 97.625,26.6406 Q97.625,26.9844 97.2813,27.3906 Q96.7813,27.9688 95.9844,28.2969 Q94.9063,28.75 93.6094,28.75 Q92.0938,28.75 90.8906,28.125 Q89.9063,27.625 89.2188,26.5625 Q88.5313,25.4844 88.5313,24.2031 L88.5313,23.0469 Q88.5313,21.7188 89.1406,20.5781 Q89.7656,19.4219 90.8594,18.8125 Q91.9531,18.1875 93.1875,18.1875 Q93.9219,18.1875 94.5625,18.3594 Q95.2188,18.5156 95.7656,18.875 Z " fill="#000000"/><text fill="#000000" font-family="sans-serif" font-size="12" lengthAdjust="spacing" textLength="53" x="107" y="27.9102">Company</text><line style="stroke:#A80036;stroke-width:1.5;" x1="79" x2="162" y1="39" y2="39"/><text fill="#000000" font-family="sans-serif" font-size="11" lengthAdjust="spacing" textLength="59" x="84" y="54.4189">-designation</text><!--MD5=[de60e6d4f424ae4d0522096f76a59010]
class VaccinationCenter--><rect codeLine="8" fill="#FEFECE" filter="url(#f1hekwvyo02r66)" height="164.5234" id="VaccinationCenter" style="stroke:#A80036;stroke-width:1.5;" width="146" x="48.5" y="257"/><ellipse cx="69.8" cy="273" fill="#ADD1B2" rx="11" ry="11" style="stroke:#A80036;stroke-width:1.0;"/><path d="M72.5656,268.875 Q72.7219,268.6563 72.9094,268.5469 Q73.0969,268.4375 73.3156,268.4375 Q73.6906,268.4375 73.925,268.7031 Q74.1594,268.9531 74.1594,269.5625 L74.1594,271.0156 Q74.1594,271.625 73.925,271.8906 Q73.6906,272.1563 73.3156,272.1563 Q72.9719,272.1563 72.7688,271.9531 Q72.5656,271.7656 72.4563,271.25 Q72.4094,270.8906 72.2219,270.7031 Q71.8938,270.3281 71.2844,270.1094 Q70.675,269.8906 70.05,269.8906 Q69.2844,269.8906 68.6438,270.2188 Q68.0188,270.5469 67.5188,271.2969 Q67.0344,272.0469 67.0344,273.0781 L67.0344,274.1719 Q67.0344,275.4063 67.925,276.2344 Q68.8156,277.0469 70.4094,277.0469 Q71.3469,277.0469 72.0031,276.7969 Q72.3938,276.6406 72.8156,276.2031 Q73.0813,275.9375 73.2219,275.8594 Q73.3781,275.7813 73.5813,275.7813 Q73.9094,275.7813 74.1594,276.0469 Q74.425,276.2969 74.425,276.6406 Q74.425,276.9844 74.0813,277.3906 Q73.5813,277.9688 72.7844,278.2969 Q71.7063,278.75 70.4094,278.75 Q68.8938,278.75 67.6906,278.125 Q66.7063,277.625 66.0188,276.5625 Q65.3313,275.4844 65.3313,274.2031 L65.3313,273.0469 Q65.3313,271.7188 65.9406,270.5781 Q66.5656,269.4219 67.6594,268.8125 Q68.7531,268.1875 69.9875,268.1875 Q70.7219,268.1875 71.3625,268.3594 Q72.0188,268.5156 72.5656,268.875 Z " fill="#000000"/><text fill="#000000" font-family="sans-serif" font-size="12" lengthAdjust="spacing" textLength="100" x="85.2" y="277.9102">VaccinationCenter</text><line style="stroke:#A80036;stroke-width:1.5;" x1="49.5" x2="193.5" y1="289" y2="289"/><text fill="#000000" font-family="sans-serif" font-size="11" lengthAdjust="spacing" textLength="30" x="54.5" y="304.4189">-name</text><text fill="#000000" font-family="sans-serif" font-size="11" lengthAdjust="spacing" textLength="44" x="54.5" y="318.2549">-address</text><text fill="#000000" font-family="sans-serif" font-size="11" lengthAdjust="spacing" textLength="73" x="54.5" y="332.0908">-phone number</text><text fill="#000000" font-family="sans-serif" font-size="11" lengthAdjust="spacing" textLength="59" x="54.5" y="345.9268">-fax number</text><text fill="#000000" font-family="sans-serif" font-size="11" lengthAdjust="spacing" textLength="75" x="54.5" y="359.7627">-e-mail address</text><text fill="#000000" font-family="sans-serif" font-size="11" lengthAdjust="spacing" textLength="86" x="54.5" y="373.5986">-website address</text><text fill="#000000" font-family="sans-serif" font-size="11" lengthAdjust="spacing" textLength="131" x="54.5" y="387.4346">-opening and closing hours</text><text fill="#000000" font-family="sans-serif" font-size="11" lengthAdjust="spacing" textLength="63" x="54.5" y="401.2705">-slot duration</text><text fill="#000000" font-family="sans-serif" font-size="11" lengthAdjust="spacing" textLength="134" x="54.5" y="415.1064">-maximum vaccines per slot</text><!--MD5=[da547346deef918ea16944ba046651ef]
class Administrator--><rect codeLine="20" fill="#FEFECE" filter="url(#f1hekwvyo02r66)" height="40" id="Administrator" style="stroke:#A80036;stroke-width:1.5;" width="105" x="7" y="139"/><ellipse cx="22" cy="155" fill="#ADD1B2" rx="11" ry="11" style="stroke:#A80036;stroke-width:1.0;"/><path d="M24.7656,150.875 Q24.9219,150.6563 25.1094,150.5469 Q25.2969,150.4375 25.5156,150.4375 Q25.8906,150.4375 26.125,150.7031 Q26.3594,150.9531 26.3594,151.5625 L26.3594,153.0156 Q26.3594,153.625 26.125,153.8906 Q25.8906,154.1563 25.5156,154.1563 Q25.1719,154.1563 24.9688,153.9531 Q24.7656,153.7656 24.6563,153.25 Q24.6094,152.8906 24.4219,152.7031 Q24.0938,152.3281 23.4844,152.1094 Q22.875,151.8906 22.25,151.8906 Q21.4844,151.8906 20.8438,152.2188 Q20.2188,152.5469 19.7188,153.2969 Q19.2344,154.0469 19.2344,155.0781 L19.2344,156.1719 Q19.2344,157.4063 20.125,158.2344 Q21.0156,159.0469 22.6094,159.0469 Q23.5469,159.0469 24.2031,158.7969 Q24.5938,158.6406 25.0156,158.2031 Q25.2813,157.9375 25.4219,157.8594 Q25.5781,157.7813 25.7813,157.7813 Q26.1094,157.7813 26.3594,158.0469 Q26.625,158.2969 26.625,158.6406 Q26.625,158.9844 26.2813,159.3906 Q25.7813,159.9688 24.9844,160.2969 Q23.9063,160.75 22.6094,160.75 Q21.0938,160.75 19.8906,160.125 Q18.9063,159.625 18.2188,158.5625 Q17.5313,157.4844 17.5313,156.2031 L17.5313,155.0469 Q17.5313,153.7188 18.1406,152.5781 Q18.7656,151.4219 19.8594,150.8125 Q20.9531,150.1875 22.1875,150.1875 Q22.9219,150.1875 23.5625,150.3594 Q24.2188,150.5156 24.7656,150.875 Z " fill="#000000"/><text fill="#000000" font-family="sans-serif" font-size="12" lengthAdjust="spacing" textLength="73" x="36" y="159.9102">Administrator</text><line style="stroke:#A80036;stroke-width:1.5;" x1="8" x2="111" y1="171" y2="171"/><!--MD5=[eaea43e34e45c5b9d20b595fc78f1f20]
link Company to Administrator--><path codeLine="23" d="M107.56,61.09 C96.02,84.36 79.39,117.89 69.03,138.79 " fill="none" id="Company-Administrator" style="stroke:#A80036;stroke-width:1.0;"/><polygon fill="#000000" points="95.2787,104.6553,101.93,97.8574,96.6641,95.2462,95.2787,104.6553" style="stroke:#000000;stroke-width:1.0;"/><text fill="#000000" font-family="sans-serif" font-size="13" lengthAdjust="spacing" textLength="37" x="106.5" y="105.4951">knows</text><text fill="#000000" font-family="sans-serif" font-size="13" lengthAdjust="spacing" textLength="7" x="96.9638" y="82.3175">1</text><text fill="#000000" font-family="sans-serif" font-size="13" lengthAdjust="spacing" textLength="5" x="66.0951" y="128.0501">*</text><!--MD5=[d497e8607f1e7b3d570c70d67196006d]
link Administrator to VaccinationCenter--><path codeLine="24" d="M66.14,179.1 C72.66,197.9 83.09,227.91 93.14,256.85 " fill="none" id="Administrator-VaccinationCenter" style="stroke:#A80036;stroke-width:1.0;"/><text fill="#000000" font-family="sans-serif" font-size="13" lengthAdjust="spacing" textLength="43" x="82.5" y="223.4951">creates</text><text fill="#000000" font-family="sans-serif" font-size="13" lengthAdjust="spacing" textLength="7" x="60.0231" y="200.5477">1</text><text fill="#000000" font-family="sans-serif" font-size="13" lengthAdjust="spacing" textLength="5" x="85.2951" y="246.0265">*</text><!--MD5=[98843e815386fb19a65c4c349019f4be]
link VaccinationCenter to Company--><path codeLine="25" d="M147.2,256.91 C158.76,208.14 166.92,145.31 152.5,91 C149.74,80.61 144.55,70.14 139.14,61.11 " fill="none" id="VaccinationCenter-Company" style="stroke:#A80036;stroke-width:1.0;"/><polygon fill="#000000" points="165.2944,154.18,162.7299,163.3383,168.6028,163.0966,165.2944,154.18" style="stroke:#000000;stroke-width:1.0;"/><text fill="#000000" font-family="sans-serif" font-size="13" lengthAdjust="spacing" textLength="60" x="174.5" y="164.4951">belongs to</text><text fill="#000000" font-family="sans-serif" font-size="13" lengthAdjust="spacing" textLength="5" x="144.3387" y="246.092">*</text><text fill="#000000" font-family="sans-serif" font-size="13" lengthAdjust="spacing" textLength="7" x="135.4519" y="82.3418">1</text><!--MD5=[4312d113357f670978596d1edb624afa]
@startuml US09_DM
hide methods
skinparam classAttributeIconSize 0

class Company {
  -designation 
}

class VaccinationCenter {
  -name
  -address
  -phone number
  -fax number
  -e-mail address
  -website address
  -opening and closing hours
  -slot duration
  -maximum vaccines per slot
}

class Administrator {

}
Company "1" - - "*" Administrator : knows >
Administrator "1" - - "*" VaccinationCenter : creates 
VaccinationCenter "*" - - "1" Company : belongs to >
@enduml

PlantUML version 1.2022.0(Tue Jan 11 16:16:42 WET 2022)
(GPL source distribution)
Java Runtime: Java(TM) SE Runtime Environment
JVM: Java HotSpot(TM) 64-Bit Server VM
Default Encoding: Cp1252
Language: pt
Country: PT
--></g></svg>