<?xml version="1.0" encoding="UTF-8" standalone="no"?><svg xmlns="http://www.w3.org/2000/svg" xmlns:xlink="http://www.w3.org/1999/xlink" contentScriptType="application/ecmascript" contentStyleType="text/css" height="449px" preserveAspectRatio="none" style="width:440px;height:449px;background:#FFFFFF;" version="1.1" viewBox="0 0 440 449" width="440px" zoomAndPan="magnify"><defs><filter height="300%" id="f12sp133eqtq6b" width="300%" x="-1" y="-1"><feGaussianBlur result="blurOut" stdDeviation="2.0"/><feColorMatrix in="blurOut" result="blurOut2" type="matrix" values="0 0 0 0 0 0 0 0 0 0 0 0 0 0 0 0 0 0 .4 0"/><feOffset dx="4.0" dy="4.0" in="blurOut2" result="blurOut3"/><feBlend in="SourceGraphic" in2="blurOut3" mode="normal"/></filter></defs><g><!--MD5=[02e4b9b7573f1156f41e60aa5b4e25a4]
class Company--><rect codeLine="4" fill="#FEFECE" filter="url(#f12sp133eqtq6b)" height="53.8359" id="Company" style="stroke:#A80036;stroke-width:1.5;" width="85" x="78" y="7"/><ellipse cx="93" cy="23" fill="#ADD1B2" rx="11" ry="11" style="stroke:#A80036;stroke-width:1.0;"/><path d="M95.7656,18.875 Q95.9219,18.6563 96.1094,18.5469 Q96.2969,18.4375 96.5156,18.4375 Q96.8906,18.4375 97.125,18.7031 Q97.3594,18.9531 97.3594,19.5625 L97.3594,21.0156 Q97.3594,21.625 97.125,21.8906 Q96.8906,22.1563 96.5156,22.1563 Q96.1719,22.1563 95.9688,21.9531 Q95.7656,21.7656 95.6563,21.25 Q95.6094,20.8906 95.4219,20.7031 Q95.0938,20.3281 94.4844,20.1094 Q93.875,19.8906 93.25,19.8906 Q92.4844,19.8906 91.8438,20.2188 Q91.2188,20.5469 90.7188,21.2969 Q90.2344,22.0469 90.2344,23.0781 L90.2344,24.1719 Q90.2344,25.4063 91.125,26.2344 Q92.0156,27.0469 93.6094,27.0469 Q94.5469,27.0469 95.2031,26.7969 Q95.5938,26.6406 96.0156,26.2031 Q96.2813,25.9375 96.4219,25.8594 Q96.5781,25.7813 96.7813,25.7813 Q97.1094,25.7813 97.3594,26.0469 Q97.625,26.2969 97.625,26.6406 Q97.625,26.9844 97.2813,27.3906 Q96.7813,27.9688 95.9844,28.2969 Q94.9063,28.75 93.6094,28.75 Q92.0938,28.75 90.8906,28.125 Q89.9063,27.625 89.2188,26.5625 Q88.5313,25.4844 88.5313,24.2031 L88.5313,23.0469 Q88.5313,21.7188 89.1406,20.5781 Q89.7656,19.4219 90.8594,18.8125 Q91.9531,18.1875 93.1875,18.1875 Q93.9219,18.1875 94.5625,18.3594 Q95.2188,18.5156 95.7656,18.875 Z " fill="#000000"/><text fill="#000000" font-family="sans-serif" font-size="12" lengthAdjust="spacing" textLength="53" x="107" y="27.9102">Company</text><line style="stroke:#A80036;stroke-width:1.5;" x1="79" x2="162" y1="39" y2="39"/><text fill="#000000" font-family="sans-serif" font-size="11" lengthAdjust="spacing" textLength="59" x="84" y="54.4189">-designation</text><!--MD5=[de60e6d4f424ae4d0522096f76a59010]
class VaccinationCenter--><rect codeLine="8" fill="#FEFECE" filter="url(#f12sp133eqtq6b)" height="178.3594" id="VaccinationCenter" style="stroke:#A80036;stroke-width:1.5;" width="140" x="112.5" y="257"/><ellipse cx="131.1" cy="273" fill="#ADD1B2" rx="11" ry="11" style="stroke:#A80036;stroke-width:1.0;"/><path d="M133.8656,268.875 Q134.0219,268.6563 134.2094,268.5469 Q134.3969,268.4375 134.6156,268.4375 Q134.9906,268.4375 135.225,268.7031 Q135.4594,268.9531 135.4594,269.5625 L135.4594,271.0156 Q135.4594,271.625 135.225,271.8906 Q134.9906,272.1563 134.6156,272.1563 Q134.2719,272.1563 134.0688,271.9531 Q133.8656,271.7656 133.7563,271.25 Q133.7094,270.8906 133.5219,270.7031 Q133.1938,270.3281 132.5844,270.1094 Q131.975,269.8906 131.35,269.8906 Q130.5844,269.8906 129.9438,270.2188 Q129.3188,270.5469 128.8188,271.2969 Q128.3344,272.0469 128.3344,273.0781 L128.3344,274.1719 Q128.3344,275.4063 129.225,276.2344 Q130.1156,277.0469 131.7094,277.0469 Q132.6469,277.0469 133.3031,276.7969 Q133.6938,276.6406 134.1156,276.2031 Q134.3813,275.9375 134.5219,275.8594 Q134.6781,275.7813 134.8813,275.7813 Q135.2094,275.7813 135.4594,276.0469 Q135.725,276.2969 135.725,276.6406 Q135.725,276.9844 135.3813,277.3906 Q134.8813,277.9688 134.0844,278.2969 Q133.0063,278.75 131.7094,278.75 Q130.1938,278.75 128.9906,278.125 Q128.0063,277.625 127.3188,276.5625 Q126.6313,275.4844 126.6313,274.2031 L126.6313,273.0469 Q126.6313,271.7188 127.2406,270.5781 Q127.8656,269.4219 128.9594,268.8125 Q130.0531,268.1875 131.2875,268.1875 Q132.0219,268.1875 132.6625,268.3594 Q133.3188,268.5156 133.8656,268.875 Z " fill="#000000"/><text fill="#000000" font-family="sans-serif" font-size="12" lengthAdjust="spacing" textLength="100" x="145.9" y="277.9102">VaccinationCenter</text><line style="stroke:#A80036;stroke-width:1.5;" x1="113.5" x2="251.5" y1="289" y2="289"/><text fill="#000000" font-family="sans-serif" font-size="11" lengthAdjust="spacing" textLength="30" x="118.5" y="304.4189">-name</text><text fill="#000000" font-family="sans-serif" font-size="11" lengthAdjust="spacing" textLength="44" x="118.5" y="318.2549">-address</text><text fill="#000000" font-family="sans-serif" font-size="11" lengthAdjust="spacing" textLength="70" x="118.5" y="332.0908">-emailAddress</text><text fill="#000000" font-family="sans-serif" font-size="11" lengthAdjust="spacing" textLength="71" x="118.5" y="345.9268">-phoneNumber</text><text fill="#000000" font-family="sans-serif" font-size="11" lengthAdjust="spacing" textLength="57" x="118.5" y="359.7627">-faxNumber</text><text fill="#000000" font-family="sans-serif" font-size="11" lengthAdjust="spacing" textLength="85" x="118.5" y="373.5986">-websiteAddress</text><text fill="#000000" font-family="sans-serif" font-size="11" lengthAdjust="spacing" textLength="71" x="118.5" y="387.4346">-openingHours</text><text fill="#000000" font-family="sans-serif" font-size="11" lengthAdjust="spacing" textLength="67" x="118.5" y="401.2705">-closingHours</text><text fill="#000000" font-family="sans-serif" font-size="11" lengthAdjust="spacing" textLength="61" x="118.5" y="415.1064">-slotDuration</text><text fill="#000000" font-family="sans-serif" font-size="11" lengthAdjust="spacing" textLength="128" x="118.5" y="428.9424">-maximumVaccinesPerSlot</text><!--MD5=[da547346deef918ea16944ba046651ef]
class Administrator--><rect codeLine="21" fill="#FEFECE" filter="url(#f12sp133eqtq6b)" height="40" id="Administrator" style="stroke:#A80036;stroke-width:1.5;" width="105" x="7" y="139"/><ellipse cx="22" cy="155" fill="#ADD1B2" rx="11" ry="11" style="stroke:#A80036;stroke-width:1.0;"/><path d="M24.7656,150.875 Q24.9219,150.6563 25.1094,150.5469 Q25.2969,150.4375 25.5156,150.4375 Q25.8906,150.4375 26.125,150.7031 Q26.3594,150.9531 26.3594,151.5625 L26.3594,153.0156 Q26.3594,153.625 26.125,153.8906 Q25.8906,154.1563 25.5156,154.1563 Q25.1719,154.1563 24.9688,153.9531 Q24.7656,153.7656 24.6563,153.25 Q24.6094,152.8906 24.4219,152.7031 Q24.0938,152.3281 23.4844,152.1094 Q22.875,151.8906 22.25,151.8906 Q21.4844,151.8906 20.8438,152.2188 Q20.2188,152.5469 19.7188,153.2969 Q19.2344,154.0469 19.2344,155.0781 L19.2344,156.1719 Q19.2344,157.4063 20.125,158.2344 Q21.0156,159.0469 22.6094,159.0469 Q23.5469,159.0469 24.2031,158.7969 Q24.5938,158.6406 25.0156,158.2031 Q25.2813,157.9375 25.4219,157.8594 Q25.5781,157.7813 25.7813,157.7813 Q26.1094,157.7813 26.3594,158.0469 Q26.625,158.2969 26.625,158.6406 Q26.625,158.9844 26.2813,159.3906 Q25.7813,159.9688 24.9844,160.2969 Q23.9063,160.75 22.6094,160.75 Q21.0938,160.75 19.8906,160.125 Q18.9063,159.625 18.2188,158.5625 Q17.5313,157.4844 17.5313,156.2031 L17.5313,155.0469 Q17.5313,153.7188 18.1406,152.5781 Q18.7656,151.4219 19.8594,150.8125 Q20.9531,150.1875 22.1875,150.1875 Q22.9219,150.1875 23.5625,150.3594 Q24.2188,150.5156 24.7656,150.875 Z " fill="#000000"/><text fill="#000000" font-family="sans-serif" font-size="12" lengthAdjust="spacing" textLength="73" x="36" y="159.9102">Administrator</text><line style="stroke:#A80036;stroke-width:1.5;" x1="8" x2="111" y1="171" y2="171"/><!--MD5=[2d935fd2dd068a13da1ae531f9857c4f]
class CenterCoordinator--><rect codeLine="24" fill="#FEFECE" filter="url(#f12sp133eqtq6b)" height="40" id="CenterCoordinator" style="stroke:#A80036;stroke-width:1.5;" width="134" x="292.5" y="139"/><ellipse cx="307.5" cy="155" fill="#ADD1B2" rx="11" ry="11" style="stroke:#A80036;stroke-width:1.0;"/><path d="M310.2656,150.875 Q310.4219,150.6563 310.6094,150.5469 Q310.7969,150.4375 311.0156,150.4375 Q311.3906,150.4375 311.625,150.7031 Q311.8594,150.9531 311.8594,151.5625 L311.8594,153.0156 Q311.8594,153.625 311.625,153.8906 Q311.3906,154.1563 311.0156,154.1563 Q310.6719,154.1563 310.4688,153.9531 Q310.2656,153.7656 310.1563,153.25 Q310.1094,152.8906 309.9219,152.7031 Q309.5938,152.3281 308.9844,152.1094 Q308.375,151.8906 307.75,151.8906 Q306.9844,151.8906 306.3438,152.2188 Q305.7188,152.5469 305.2188,153.2969 Q304.7344,154.0469 304.7344,155.0781 L304.7344,156.1719 Q304.7344,157.4063 305.625,158.2344 Q306.5156,159.0469 308.1094,159.0469 Q309.0469,159.0469 309.7031,158.7969 Q310.0938,158.6406 310.5156,158.2031 Q310.7813,157.9375 310.9219,157.8594 Q311.0781,157.7813 311.2813,157.7813 Q311.6094,157.7813 311.8594,158.0469 Q312.125,158.2969 312.125,158.6406 Q312.125,158.9844 311.7813,159.3906 Q311.2813,159.9688 310.4844,160.2969 Q309.4063,160.75 308.1094,160.75 Q306.5938,160.75 305.3906,160.125 Q304.4063,159.625 303.7188,158.5625 Q303.0313,157.4844 303.0313,156.2031 L303.0313,155.0469 Q303.0313,153.7188 303.6406,152.5781 Q304.2656,151.4219 305.3594,150.8125 Q306.4531,150.1875 307.6875,150.1875 Q308.4219,150.1875 309.0625,150.3594 Q309.7188,150.5156 310.2656,150.875 Z " fill="#000000"/><text fill="#000000" font-family="sans-serif" font-size="12" lengthAdjust="spacing" textLength="102" x="321.5" y="159.9102">CenterCoordinator</text><line style="stroke:#A80036;stroke-width:1.5;" x1="293.5" x2="425.5" y1="171" y2="171"/><!--MD5=[eaea43e34e45c5b9d20b595fc78f1f20]
link Company to Administrator--><path codeLine="27" d="M107.56,61.09 C96.02,84.36 79.39,117.89 69.03,138.79 " fill="none" id="Company-Administrator" style="stroke:#A80036;stroke-width:1.0;"/><polygon fill="#000000" points="95.2787,104.6553,101.93,97.8574,96.6641,95.2462,95.2787,104.6553" style="stroke:#000000;stroke-width:1.0;"/><text fill="#000000" font-family="sans-serif" font-size="13" lengthAdjust="spacing" textLength="37" x="106.5" y="105.4951">knows</text><text fill="#000000" font-family="sans-serif" font-size="13" lengthAdjust="spacing" textLength="7" x="96.9638" y="82.3175">1</text><text fill="#000000" font-family="sans-serif" font-size="13" lengthAdjust="spacing" textLength="5" x="66.0951" y="128.0501">*</text><!--MD5=[d497e8607f1e7b3d570c70d67196006d]
link Administrator to VaccinationCenter--><path codeLine="28" d="M69.97,179.05 C77.58,192.61 88.29,211.17 98.5,227 C104.77,236.72 111.5,246.76 118.32,256.68 " fill="none" id="Administrator-VaccinationCenter" style="stroke:#A80036;stroke-width:1.0;"/><polygon fill="#000000" points="106.1434,222.4199,103.8561,213.1885,98.8668,216.2959,106.1434,222.4199" style="stroke:#000000;stroke-width:1.0;"/><text fill="#000000" font-family="sans-serif" font-size="13" lengthAdjust="spacing" textLength="43" x="112.5" y="223.4951">creates</text><text fill="#000000" font-family="sans-serif" font-size="13" lengthAdjust="spacing" textLength="7" x="64.9303" y="200.4836">1</text><text fill="#000000" font-family="sans-serif" font-size="13" lengthAdjust="spacing" textLength="5" x="107.7981" y="246.1155">*</text><!--MD5=[98843e815386fb19a65c4c349019f4be]
link VaccinationCenter to Company--><path codeLine="29" d="M180.73,256.72 C177.61,206.99 170.08,144.35 152.5,91 C149.1,80.68 143.68,70.15 138.26,61.03 " fill="none" id="VaccinationCenter-Company" style="stroke:#A80036;stroke-width:1.0;"/><polygon fill="#000000" points="176.4396,154.2895,175.4859,163.7522,181.23,162.5055,176.4396,154.2895" style="stroke:#000000;stroke-width:1.0;"/><text fill="#000000" font-family="sans-serif" font-size="13" lengthAdjust="spacing" textLength="60" x="186.5" y="164.4951">belongs to</text><text fill="#000000" font-family="sans-serif" font-size="13" lengthAdjust="spacing" textLength="5" x="175.3764" y="246.1588">*</text><text fill="#000000" font-family="sans-serif" font-size="13" lengthAdjust="spacing" textLength="7" x="134.3794" y="82.2443">1</text><!--MD5=[d5cf03d886352995267197dc535618ec]
link CenterCoordinator to VaccinationCenter--><path codeLine="30" d="M341.22,179.1 C320.29,200.98 284.73,238.15 252.56,271.77 " fill="none" id="CenterCoordinator-VaccinationCenter" style="stroke:#A80036;stroke-width:1.0;"/><polygon fill="#000000" points="313.0435,221.7886,321.4199,217.2846,317.1728,213.2213,313.0435,221.7886" style="stroke:#000000;stroke-width:1.0;"/><text fill="#000000" font-family="sans-serif" font-size="13" lengthAdjust="spacing" textLength="21" x="325.5" y="223.4951">has</text><text fill="#000000" font-family="sans-serif" font-size="13" lengthAdjust="spacing" textLength="7" x="328.0944" y="200.5477">1</text><text fill="#000000" font-family="sans-serif" font-size="13" lengthAdjust="spacing" textLength="7" x="260.6056" y="260.2708">1</text><!--MD5=[f871fff18678a7341f270667068b32ca]
@startuml US09_DM
hide methods
skinparam classAttributeIconSize 0

class Company {
  -designation 
}

class VaccinationCenter {
  -name
  -address
  -emailAddress
  -phoneNumber
  -faxNumber
  -websiteAddress
  -openingHours  
  -closingHours
  -slotDuration
  -maximumVaccinesPerSlot
}

class Administrator {
}

class CenterCoordinator {
}

Company "1" - - "*" Administrator : knows >
Administrator "1" - - "*" VaccinationCenter : creates > 
VaccinationCenter "*" - - "1" Company : belongs to >
CenterCoordinator "1" - - "1" VaccinationCenter : has >
@enduml

PlantUML version 1.2022.0(Tue Jan 11 16:16:42 WET 2022)
(GPL source distribution)
Java Runtime: Java(TM) SE Runtime Environment
JVM: Java HotSpot(TM) 64-Bit Server VM
Default Encoding: Cp1252
Language: pt
Country: PT
--></g></svg>