<?xml version="1.0" encoding="UTF-8" standalone="no"?><svg xmlns="http://www.w3.org/2000/svg" xmlns:xlink="http://www.w3.org/1999/xlink" contentScriptType="application/ecmascript" contentStyleType="text/css" height="309px" preserveAspectRatio="none" style="width:1094px;height:309px;background:#FFFFFF;" version="1.1" viewBox="0 0 1094 309" width="1094px" zoomAndPan="magnify"><defs><filter height="300%" id="f1lst1drcafeak" width="300%" x="-1" y="-1"><feGaussianBlur result="blurOut" stdDeviation="2.0"/><feColorMatrix in="blurOut" result="blurOut2" type="matrix" values="0 0 0 0 0 0 0 0 0 0 0 0 0 0 0 0 0 0 .4 0"/><feOffset dx="4.0" dy="4.0" in="blurOut2" result="blurOut3"/><feBlend in="SourceGraphic" in2="blurOut3" mode="normal"/></filter></defs><g><rect fill="#FFFFFF" filter="url(#f1lst1drcafeak)" height="108.5313" style="stroke:#A80036;stroke-width:1.0;" width="10" x="69" y="98.2969"/><rect fill="#FFFFFF" filter="url(#f1lst1drcafeak)" height="87.3984" style="stroke:#A80036;stroke-width:1.0;" width="10" x="1042" y="119.4297"/><line style="stroke:#A80036;stroke-width:1.0;stroke-dasharray:5.0,5.0;" x1="74" x2="74" y1="88.2969" y2="224.8281"/><line style="stroke:#A80036;stroke-width:1.0;stroke-dasharray:5.0,5.0;" x1="1047" x2="1047" y1="88.2969" y2="224.8281"/><text fill="#000000" font-family="sans-serif" font-size="14" lengthAdjust="spacing" textLength="132" x="5" y="84.9951">Center Coordinator</text><ellipse cx="74" cy="15" fill="#FEFECE" filter="url(#f1lst1drcafeak)" rx="8" ry="8" style="stroke:#A80036;stroke-width:2.0;"/><path d="M74,23 L74,50 M61,31 L87,31 M74,50 L61,65 M74,50 L87,65 " fill="none" filter="url(#f1lst1drcafeak)" style="stroke:#A80036;stroke-width:2.0;"/><text fill="#000000" font-family="sans-serif" font-size="14" lengthAdjust="spacing" textLength="132" x="5" y="236.8232">Center Coordinator</text><ellipse cx="74" cy="250.125" fill="#FEFECE" filter="url(#f1lst1drcafeak)" rx="8" ry="8" style="stroke:#A80036;stroke-width:2.0;"/><path d="M74,258.125 L74,285.125 M61,266.125 L87,266.125 M74,285.125 L61,300.125 M74,285.125 L87,300.125 " fill="none" filter="url(#f1lst1drcafeak)" style="stroke:#A80036;stroke-width:2.0;"/><rect fill="#FEFECE" filter="url(#f1lst1drcafeak)" height="30.2969" style="stroke:#A80036;stroke-width:1.5;" width="70" x="1010" y="53"/><text fill="#000000" font-family="sans-serif" font-size="14" lengthAdjust="spacing" textLength="56" x="1017" y="72.9951">:System</text><rect fill="#FEFECE" filter="url(#f1lst1drcafeak)" height="30.2969" style="stroke:#A80036;stroke-width:1.5;" width="70" x="1010" y="223.8281"/><text fill="#000000" font-family="sans-serif" font-size="14" lengthAdjust="spacing" textLength="56" x="1017" y="243.8232">:System</text><rect fill="#FFFFFF" filter="url(#f1lst1drcafeak)" height="108.5313" style="stroke:#A80036;stroke-width:1.0;" width="10" x="69" y="98.2969"/><rect fill="#FFFFFF" filter="url(#f1lst1drcafeak)" height="87.3984" style="stroke:#A80036;stroke-width:1.0;" width="10" x="1042" y="119.4297"/><polygon fill="#A80036" points="1030,115.4297,1040,119.4297,1030,123.4297,1034,119.4297" style="stroke:#A80036;stroke-width:1.0;"/><line style="stroke:#A80036;stroke-width:1.0;" x1="79" x2="1036" y1="119.4297" y2="119.4297"/><text fill="#000000" font-family="sans-serif" font-size="13" lengthAdjust="spacing" textLength="577" x="86" y="114.3638">asks to list all present users in the waiting room for the vaccination the nurse is working on</text><polygon fill="#A80036" points="90,144.5625,80,148.5625,90,152.5625,86,148.5625" style="stroke:#A80036;stroke-width:1.0;"/><line style="stroke:#A80036;stroke-width:1.0;stroke-dasharray:2.0,2.0;" x1="84" x2="1041" y1="148.5625" y2="148.5625"/><text fill="#000000" font-family="sans-serif" font-size="13" lengthAdjust="spacing" textLength="231" x="96" y="143.4966">requests data (date &amp; time interval)</text><polygon fill="#A80036" points="1030,173.6953,1040,177.6953,1030,181.6953,1034,177.6953" style="stroke:#A80036;stroke-width:1.0;"/><line style="stroke:#A80036;stroke-width:1.0;" x1="79" x2="1036" y1="177.6953" y2="177.6953"/><text fill="#000000" font-family="sans-serif" font-size="13" lengthAdjust="spacing" textLength="162" x="86" y="172.6294">types the requested data</text><polygon fill="#A80036" points="85,202.8281,75,206.8281,85,210.8281,81,206.8281" style="stroke:#A80036;stroke-width:1.0;"/><line style="stroke:#A80036;stroke-width:1.0;stroke-dasharray:2.0,2.0;" x1="79" x2="1046" y1="206.8281" y2="206.8281"/><text fill="#000000" font-family="sans-serif" font-size="13" lengthAdjust="spacing" textLength="939" x="91" y="201.7622">the list with the differences of arrived and left users, maximum continuous sublist, its sum, the time inteval corresponding to this continuous sublist</text><!--MD5=[879046e66265750688146df8c1642949]
@startuml

actor "Center Coordinator" AS COORD
participant ":System" as SYS
activate COORD
COORD -> SYS : asks to list all present users in the waiting room for the vaccination the nurse is working on
activate SYS
SYS - -> COORD : requests data (date & time interval)
COORD -> SYS : types the requested data
SYS - -> COORD : the list with the differences of arrived and left users, maximum continuous sublist, its sum, the time inteval corresponding to this continuous sublist 
deactivate SYS

deactivate COORD

@enduml

PlantUML version 1.2022.0(Tue Jan 11 16:16:42 WET 2022)
(GPL source distribution)
Java Runtime: OpenJDK Runtime Environment
JVM: OpenJDK 64-Bit Server VM
Default Encoding: UTF-8
Language: en
Country: US
--></g></svg>