<?xml version="1.0" encoding="UTF-8" standalone="no"?><svg xmlns="http://www.w3.org/2000/svg" xmlns:xlink="http://www.w3.org/1999/xlink" contentStyleType="text/css" height="506px" preserveAspectRatio="none" style="width:2046px;height:506px;background:#FFFFFF;" version="1.1" viewBox="0 0 2046 506" width="2046px" zoomAndPan="magnify"><defs/><g><!--MD5=[02e4b9b7573f1156f41e60aa5b4e25a4]
class Company--><g id="elem_Company"><rect codeLine="5" fill="#F1F1F1" height="56.2969" id="Company" rx="2.5" ry="2.5" style="stroke:#181818;stroke-width:0.5;" width="102" x="7" y="238"/><ellipse cx="22.9" cy="254" fill="#ADD1B2" rx="11" ry="11" style="stroke:#181818;stroke-width:1.0;"/><path d="M25.2438,249.6719 C24.3063,249.2344 23.7125,249.0938 22.8375,249.0938 C20.2125,249.0938 18.2125,251.1719 18.2125,253.8906 L18.2125,255.0156 C18.2125,257.5938 20.3219,259.4844 23.2125,259.4844 C24.4313,259.4844 25.5875,259.1875 26.3375,258.6406 C26.9156,258.2344 27.2438,257.7813 27.2438,257.3906 C27.2438,256.9375 26.8531,256.5469 26.3844,256.5469 C26.1656,256.5469 25.9625,256.625 25.775,256.8125 C25.3219,257.2969 25.3219,257.2969 25.1344,257.3906 C24.7125,257.6563 24.025,257.7813 23.2594,257.7813 C21.2125,257.7813 19.9156,256.6875 19.9156,254.9844 L19.9156,253.8906 C19.9156,252.1094 21.1656,250.7969 22.9,250.7969 C23.4781,250.7969 24.0875,250.9531 24.5563,251.2031 C25.0406,251.4844 25.2125,251.7031 25.3063,252.1094 C25.3688,252.5156 25.4,252.6406 25.5406,252.7656 C25.6813,252.9063 25.9156,253.0156 26.1344,253.0156 C26.4,253.0156 26.6656,252.875 26.8375,252.6563 C26.9469,252.5 26.9781,252.3125 26.9781,251.8906 L26.9781,250.4688 C26.9781,250.0313 26.9625,249.9063 26.8688,249.75 C26.7125,249.4844 26.4313,249.3438 26.1344,249.3438 C25.8375,249.3438 25.6344,249.4375 25.4156,249.75 L25.2438,249.6719 Z " fill="#000000"/><text fill="#000000" font-family="sans-serif" font-size="14" lengthAdjust="spacing" textLength="68" x="37.1" y="258.8467">Company</text><line style="stroke:#181818;stroke-width:0.5;" x1="8" x2="108" y1="270" y2="270"/><text fill="#000000" font-family="sans-serif" font-size="14" lengthAdjust="spacing" textLength="90" x="13" y="286.9951">-designation</text></g><!--MD5=[56872536300a053cf9fd13853ad6ab1e]
class CommunityMassVaccinationCenter--><g id="elem_CommunityMassVaccinationCenter"><rect codeLine="9" fill="#F1F1F1" height="40" id="CommunityMassVaccinationCenter" rx="2.5" ry="2.5" style="stroke:#181818;stroke-width:0.5;" width="283" x="1543" y="276"/><ellipse cx="1558" cy="292" fill="#ADD1B2" rx="11" ry="11" style="stroke:#181818;stroke-width:1.0;"/><path d="M1560.3438,287.6719 C1559.4063,287.2344 1558.8125,287.0938 1557.9375,287.0938 C1555.3125,287.0938 1553.3125,289.1719 1553.3125,291.8906 L1553.3125,293.0156 C1553.3125,295.5938 1555.4219,297.4844 1558.3125,297.4844 C1559.5313,297.4844 1560.6875,297.1875 1561.4375,296.6406 C1562.0156,296.2344 1562.3438,295.7813 1562.3438,295.3906 C1562.3438,294.9375 1561.9531,294.5469 1561.4844,294.5469 C1561.2656,294.5469 1561.0625,294.625 1560.875,294.8125 C1560.4219,295.2969 1560.4219,295.2969 1560.2344,295.3906 C1559.8125,295.6563 1559.125,295.7813 1558.3594,295.7813 C1556.3125,295.7813 1555.0156,294.6875 1555.0156,292.9844 L1555.0156,291.8906 C1555.0156,290.1094 1556.2656,288.7969 1558,288.7969 C1558.5781,288.7969 1559.1875,288.9531 1559.6563,289.2031 C1560.1406,289.4844 1560.3125,289.7031 1560.4063,290.1094 C1560.4688,290.5156 1560.5,290.6406 1560.6406,290.7656 C1560.7813,290.9063 1561.0156,291.0156 1561.2344,291.0156 C1561.5,291.0156 1561.7656,290.875 1561.9375,290.6563 C1562.0469,290.5 1562.0781,290.3125 1562.0781,289.8906 L1562.0781,288.4688 C1562.0781,288.0313 1562.0625,287.9063 1561.9688,287.75 C1561.8125,287.4844 1561.5313,287.3438 1561.2344,287.3438 C1560.9375,287.3438 1560.7344,287.4375 1560.5156,287.75 L1560.3438,287.6719 Z " fill="#000000"/><text fill="#000000" font-family="sans-serif" font-size="14" lengthAdjust="spacing" textLength="251" x="1572" y="296.8467">CommunityMassVaccinationCenter</text><line style="stroke:#181818;stroke-width:0.5;" x1="1544" x2="1825" y1="308" y2="308"/></g><!--MD5=[1db03e903fe0a044a2ca0dcbef10799a]
class HealthCareCenter--><g id="elem_HealthCareCenter"><rect codeLine="11" fill="#F1F1F1" height="40" id="HealthCareCenter" rx="2.5" ry="2.5" style="stroke:#181818;stroke-width:0.5;" width="162" x="1603.5" y="351"/><ellipse cx="1618.5" cy="367" fill="#ADD1B2" rx="11" ry="11" style="stroke:#181818;stroke-width:1.0;"/><path d="M1620.8438,362.6719 C1619.9063,362.2344 1619.3125,362.0938 1618.4375,362.0938 C1615.8125,362.0938 1613.8125,364.1719 1613.8125,366.8906 L1613.8125,368.0156 C1613.8125,370.5938 1615.9219,372.4844 1618.8125,372.4844 C1620.0313,372.4844 1621.1875,372.1875 1621.9375,371.6406 C1622.5156,371.2344 1622.8438,370.7813 1622.8438,370.3906 C1622.8438,369.9375 1622.4531,369.5469 1621.9844,369.5469 C1621.7656,369.5469 1621.5625,369.625 1621.375,369.8125 C1620.9219,370.2969 1620.9219,370.2969 1620.7344,370.3906 C1620.3125,370.6563 1619.625,370.7813 1618.8594,370.7813 C1616.8125,370.7813 1615.5156,369.6875 1615.5156,367.9844 L1615.5156,366.8906 C1615.5156,365.1094 1616.7656,363.7969 1618.5,363.7969 C1619.0781,363.7969 1619.6875,363.9531 1620.1563,364.2031 C1620.6406,364.4844 1620.8125,364.7031 1620.9063,365.1094 C1620.9688,365.5156 1621,365.6406 1621.1406,365.7656 C1621.2813,365.9063 1621.5156,366.0156 1621.7344,366.0156 C1622,366.0156 1622.2656,365.875 1622.4375,365.6563 C1622.5469,365.5 1622.5781,365.3125 1622.5781,364.8906 L1622.5781,363.4688 C1622.5781,363.0313 1622.5625,362.9063 1622.4688,362.75 C1622.3125,362.4844 1622.0313,362.3438 1621.7344,362.3438 C1621.4375,362.3438 1621.2344,362.4375 1621.0156,362.75 L1620.8438,362.6719 Z " fill="#000000"/><text fill="#000000" font-family="sans-serif" font-size="14" lengthAdjust="spacing" textLength="130" x="1632.5" y="371.8467">HealthCareCenter</text><line style="stroke:#181818;stroke-width:0.5;" x1="1604.5" x2="1764.5" y1="383" y2="383"/></g><!--MD5=[de60e6d4f424ae4d0522096f76a59010]
class VaccinationCenter--><g id="elem_VaccinationCenter"><rect codeLine="13" fill="#F1F1F1" height="154.0781" id="VaccinationCenter" rx="2.5" ry="2.5" style="stroke:#181818;stroke-width:0.5;" width="166" x="1279" y="223"/><ellipse cx="1294" cy="239" fill="#ADD1B2" rx="11" ry="11" style="stroke:#181818;stroke-width:1.0;"/><path d="M1296.3438,234.6719 C1295.4063,234.2344 1294.8125,234.0938 1293.9375,234.0938 C1291.3125,234.0938 1289.3125,236.1719 1289.3125,238.8906 L1289.3125,240.0156 C1289.3125,242.5938 1291.4219,244.4844 1294.3125,244.4844 C1295.5313,244.4844 1296.6875,244.1875 1297.4375,243.6406 C1298.0156,243.2344 1298.3438,242.7813 1298.3438,242.3906 C1298.3438,241.9375 1297.9531,241.5469 1297.4844,241.5469 C1297.2656,241.5469 1297.0625,241.625 1296.875,241.8125 C1296.4219,242.2969 1296.4219,242.2969 1296.2344,242.3906 C1295.8125,242.6563 1295.125,242.7813 1294.3594,242.7813 C1292.3125,242.7813 1291.0156,241.6875 1291.0156,239.9844 L1291.0156,238.8906 C1291.0156,237.1094 1292.2656,235.7969 1294,235.7969 C1294.5781,235.7969 1295.1875,235.9531 1295.6563,236.2031 C1296.1406,236.4844 1296.3125,236.7031 1296.4063,237.1094 C1296.4688,237.5156 1296.5,237.6406 1296.6406,237.7656 C1296.7813,237.9063 1297.0156,238.0156 1297.2344,238.0156 C1297.5,238.0156 1297.7656,237.875 1297.9375,237.6563 C1298.0469,237.5 1298.0781,237.3125 1298.0781,236.8906 L1298.0781,235.4688 C1298.0781,235.0313 1298.0625,234.9063 1297.9688,234.75 C1297.8125,234.4844 1297.5313,234.3438 1297.2344,234.3438 C1296.9375,234.3438 1296.7344,234.4375 1296.5156,234.75 L1296.3438,234.6719 Z " fill="#000000"/><text fill="#000000" font-family="sans-serif" font-size="14" lengthAdjust="spacing" textLength="134" x="1308" y="243.8467">VaccinationCenter</text><line style="stroke:#181818;stroke-width:0.5;" x1="1280" x2="1444" y1="255" y2="255"/><text fill="#000000" font-family="sans-serif" font-size="14" lengthAdjust="spacing" textLength="46" x="1285" y="271.9951">-name</text><text fill="#000000" font-family="sans-serif" font-size="14" lengthAdjust="spacing" textLength="61" x="1285" y="288.292">-address</text><text fill="#000000" font-family="sans-serif" font-size="14" lengthAdjust="spacing" textLength="102" x="1285" y="304.5889">-emailAddress</text><text fill="#000000" font-family="sans-serif" font-size="14" lengthAdjust="spacing" textLength="52" x="1285" y="320.8857">-phone</text><text fill="#000000" font-family="sans-serif" font-size="14" lengthAdjust="spacing" textLength="45" x="1285" y="337.1826">-email</text><text fill="#000000" font-family="sans-serif" font-size="14" lengthAdjust="spacing" textLength="28" x="1285" y="353.4795">-fax</text><text fill="#000000" font-family="sans-serif" font-size="14" lengthAdjust="spacing" textLength="63" x="1285" y="369.7764">-website</text></g><!--MD5=[19e445fc4d3b48519cbe33da05496394]
class Vaccine--><g id="elem_Vaccine"><rect codeLine="23" fill="#F1F1F1" height="40" id="Vaccine" rx="2.5" ry="2.5" style="stroke:#181818;stroke-width:0.5;" width="88" x="1318" y="148"/><ellipse cx="1333" cy="164" fill="#ADD1B2" rx="11" ry="11" style="stroke:#181818;stroke-width:1.0;"/><path d="M1335.3438,159.6719 C1334.4063,159.2344 1333.8125,159.0938 1332.9375,159.0938 C1330.3125,159.0938 1328.3125,161.1719 1328.3125,163.8906 L1328.3125,165.0156 C1328.3125,167.5938 1330.4219,169.4844 1333.3125,169.4844 C1334.5313,169.4844 1335.6875,169.1875 1336.4375,168.6406 C1337.0156,168.2344 1337.3438,167.7813 1337.3438,167.3906 C1337.3438,166.9375 1336.9531,166.5469 1336.4844,166.5469 C1336.2656,166.5469 1336.0625,166.625 1335.875,166.8125 C1335.4219,167.2969 1335.4219,167.2969 1335.2344,167.3906 C1334.8125,167.6563 1334.125,167.7813 1333.3594,167.7813 C1331.3125,167.7813 1330.0156,166.6875 1330.0156,164.9844 L1330.0156,163.8906 C1330.0156,162.1094 1331.2656,160.7969 1333,160.7969 C1333.5781,160.7969 1334.1875,160.9531 1334.6563,161.2031 C1335.1406,161.4844 1335.3125,161.7031 1335.4063,162.1094 C1335.4688,162.5156 1335.5,162.6406 1335.6406,162.7656 C1335.7813,162.9063 1336.0156,163.0156 1336.2344,163.0156 C1336.5,163.0156 1336.7656,162.875 1336.9375,162.6563 C1337.0469,162.5 1337.0781,162.3125 1337.0781,161.8906 L1337.0781,160.4688 C1337.0781,160.0313 1337.0625,159.9063 1336.9688,159.75 C1336.8125,159.4844 1336.5313,159.3438 1336.2344,159.3438 C1335.9375,159.3438 1335.7344,159.4375 1335.5156,159.75 L1335.3438,159.6719 Z " fill="#000000"/><text fill="#000000" font-family="sans-serif" font-size="14" lengthAdjust="spacing" textLength="56" x="1347" y="168.8467">Vaccine</text><line style="stroke:#181818;stroke-width:0.5;" x1="1319" x2="1405" y1="180" y2="180"/></g><!--MD5=[0e501da62322464167c8ec4d233a6b7e]
class VaccineType--><g id="elem_VaccineType"><rect codeLine="25" fill="#F1F1F1" height="88.8906" id="VaccineType" rx="2.5" ry="2.5" style="stroke:#181818;stroke-width:0.5;" width="124" x="1622.5" y="40.5"/><ellipse cx="1637.5" cy="56.5" fill="#ADD1B2" rx="11" ry="11" style="stroke:#181818;stroke-width:1.0;"/><path d="M1639.8438,52.1719 C1638.9063,51.7344 1638.3125,51.5938 1637.4375,51.5938 C1634.8125,51.5938 1632.8125,53.6719 1632.8125,56.3906 L1632.8125,57.5156 C1632.8125,60.0938 1634.9219,61.9844 1637.8125,61.9844 C1639.0313,61.9844 1640.1875,61.6875 1640.9375,61.1406 C1641.5156,60.7344 1641.8438,60.2813 1641.8438,59.8906 C1641.8438,59.4375 1641.4531,59.0469 1640.9844,59.0469 C1640.7656,59.0469 1640.5625,59.125 1640.375,59.3125 C1639.9219,59.7969 1639.9219,59.7969 1639.7344,59.8906 C1639.3125,60.1563 1638.625,60.2813 1637.8594,60.2813 C1635.8125,60.2813 1634.5156,59.1875 1634.5156,57.4844 L1634.5156,56.3906 C1634.5156,54.6094 1635.7656,53.2969 1637.5,53.2969 C1638.0781,53.2969 1638.6875,53.4531 1639.1563,53.7031 C1639.6406,53.9844 1639.8125,54.2031 1639.9063,54.6094 C1639.9688,55.0156 1640,55.1406 1640.1406,55.2656 C1640.2813,55.4063 1640.5156,55.5156 1640.7344,55.5156 C1641,55.5156 1641.2656,55.375 1641.4375,55.1563 C1641.5469,55 1641.5781,54.8125 1641.5781,54.3906 L1641.5781,52.9688 C1641.5781,52.5313 1641.5625,52.4063 1641.4688,52.25 C1641.3125,51.9844 1641.0313,51.8438 1640.7344,51.8438 C1640.4375,51.8438 1640.2344,51.9375 1640.0156,52.25 L1639.8438,52.1719 Z " fill="#000000"/><text fill="#000000" font-family="sans-serif" font-size="14" lengthAdjust="spacing" textLength="92" x="1651.5" y="61.3467">VaccineType</text><line style="stroke:#181818;stroke-width:0.5;" x1="1623.5" x2="1745.5" y1="72.5" y2="72.5"/><text fill="#000000" font-family="sans-serif" font-size="14" lengthAdjust="spacing" textLength="19" x="1628.5" y="89.4951">-id</text><text fill="#000000" font-family="sans-serif" font-size="14" lengthAdjust="spacing" textLength="90" x="1628.5" y="105.792">-designation</text><text fill="#000000" font-family="sans-serif" font-size="14" lengthAdjust="spacing" textLength="48" x="1628.5" y="122.0889">-whoId</text></g><!--MD5=[72be06cc7ae02ccc98efe28a50e62246]
class SNSUser--><g id="elem_SNSUser"><rect codeLine="31" fill="#F1F1F1" height="170.375" id="SNSUser" rx="2.5" ry="2.5" style="stroke:#181818;stroke-width:0.5;" width="121" x="390" y="35"/><ellipse cx="418.5" cy="51" fill="#ADD1B2" rx="11" ry="11" style="stroke:#181818;stroke-width:1.0;"/><path d="M420.8438,46.6719 C419.9063,46.2344 419.3125,46.0938 418.4375,46.0938 C415.8125,46.0938 413.8125,48.1719 413.8125,50.8906 L413.8125,52.0156 C413.8125,54.5938 415.9219,56.4844 418.8125,56.4844 C420.0313,56.4844 421.1875,56.1875 421.9375,55.6406 C422.5156,55.2344 422.8438,54.7813 422.8438,54.3906 C422.8438,53.9375 422.4531,53.5469 421.9844,53.5469 C421.7656,53.5469 421.5625,53.625 421.375,53.8125 C420.9219,54.2969 420.9219,54.2969 420.7344,54.3906 C420.3125,54.6563 419.625,54.7813 418.8594,54.7813 C416.8125,54.7813 415.5156,53.6875 415.5156,51.9844 L415.5156,50.8906 C415.5156,49.1094 416.7656,47.7969 418.5,47.7969 C419.0781,47.7969 419.6875,47.9531 420.1563,48.2031 C420.6406,48.4844 420.8125,48.7031 420.9063,49.1094 C420.9688,49.5156 421,49.6406 421.1406,49.7656 C421.2813,49.9063 421.5156,50.0156 421.7344,50.0156 C422,50.0156 422.2656,49.875 422.4375,49.6563 C422.5469,49.5 422.5781,49.3125 422.5781,48.8906 L422.5781,47.4688 C422.5781,47.0313 422.5625,46.9063 422.4688,46.75 C422.3125,46.4844 422.0313,46.3438 421.7344,46.3438 C421.4375,46.3438 421.2344,46.4375 421.0156,46.75 L420.8438,46.6719 Z " fill="#000000"/><text fill="#000000" font-family="sans-serif" font-size="14" lengthAdjust="spacing" textLength="59" x="435.5" y="55.8467">SNSUser</text><line style="stroke:#181818;stroke-width:0.5;" x1="391" x2="510" y1="67" y2="67"/><text fill="#000000" font-family="sans-serif" font-size="14" lengthAdjust="spacing" textLength="88" x="396" y="83.9951">-citizenCard</text><text fill="#000000" font-family="sans-serif" font-size="14" lengthAdjust="spacing" textLength="86" x="396" y="100.292">-snsNumber</text><text fill="#000000" font-family="sans-serif" font-size="14" lengthAdjust="spacing" textLength="46" x="396" y="116.5889">-name</text><text fill="#000000" font-family="sans-serif" font-size="14" lengthAdjust="spacing" textLength="69" x="396" y="132.8857">-birthDay</text><text fill="#000000" font-family="sans-serif" font-size="14" lengthAdjust="spacing" textLength="57" x="396" y="149.1826">-gender</text><text fill="#000000" font-family="sans-serif" font-size="14" lengthAdjust="spacing" textLength="109" x="396" y="165.4795">-phoneNumber</text><text fill="#000000" font-family="sans-serif" font-size="14" lengthAdjust="spacing" textLength="45" x="396" y="181.7764">-email</text><text fill="#000000" font-family="sans-serif" font-size="14" lengthAdjust="spacing" textLength="61" x="396" y="198.0732">-address</text></g><!--MD5=[45c6380d22fb72521f5065026b277fb9]
class Slot--><g id="elem_Slot"><rect codeLine="42" fill="#F1F1F1" height="72.5938" id="Slot" rx="2.5" ry="2.5" style="stroke:#181818;stroke-width:0.5;" width="127" x="1621" y="426.5"/><ellipse cx="1665.75" cy="442.5" fill="#ADD1B2" rx="11" ry="11" style="stroke:#181818;stroke-width:1.0;"/><path d="M1668.0938,438.1719 C1667.1563,437.7344 1666.5625,437.5938 1665.6875,437.5938 C1663.0625,437.5938 1661.0625,439.6719 1661.0625,442.3906 L1661.0625,443.5156 C1661.0625,446.0938 1663.1719,447.9844 1666.0625,447.9844 C1667.2813,447.9844 1668.4375,447.6875 1669.1875,447.1406 C1669.7656,446.7344 1670.0938,446.2813 1670.0938,445.8906 C1670.0938,445.4375 1669.7031,445.0469 1669.2344,445.0469 C1669.0156,445.0469 1668.8125,445.125 1668.625,445.3125 C1668.1719,445.7969 1668.1719,445.7969 1667.9844,445.8906 C1667.5625,446.1563 1666.875,446.2813 1666.1094,446.2813 C1664.0625,446.2813 1662.7656,445.1875 1662.7656,443.4844 L1662.7656,442.3906 C1662.7656,440.6094 1664.0156,439.2969 1665.75,439.2969 C1666.3281,439.2969 1666.9375,439.4531 1667.4063,439.7031 C1667.8906,439.9844 1668.0625,440.2031 1668.1563,440.6094 C1668.2188,441.0156 1668.25,441.1406 1668.3906,441.2656 C1668.5313,441.4063 1668.7656,441.5156 1668.9844,441.5156 C1669.25,441.5156 1669.5156,441.375 1669.6875,441.1563 C1669.7969,441 1669.8281,440.8125 1669.8281,440.3906 L1669.8281,438.9688 C1669.8281,438.5313 1669.8125,438.4063 1669.7188,438.25 C1669.5625,437.9844 1669.2813,437.8438 1668.9844,437.8438 C1668.6875,437.8438 1668.4844,437.9375 1668.2656,438.25 L1668.0938,438.1719 Z " fill="#000000"/><text fill="#000000" font-family="sans-serif" font-size="14" lengthAdjust="spacing" textLength="29" x="1686.25" y="447.3467">Slot</text><line style="stroke:#181818;stroke-width:0.5;" x1="1622" x2="1747" y1="458.5" y2="458.5"/><text fill="#000000" font-family="sans-serif" font-size="14" lengthAdjust="spacing" textLength="95" x="1627" y="475.4951">-slotDuration</text><text fill="#000000" font-family="sans-serif" font-size="14" lengthAdjust="spacing" textLength="115" x="1627" y="491.792">-maxVacPerSlot</text></g><!--MD5=[2e42295458bb0bec21c9622a623eb29e]
class Time--><g id="elem_Time"><rect codeLine="47" fill="#F1F1F1" height="72.5938" id="Time" rx="2.5" ry="2.5" style="stroke:#181818;stroke-width:0.5;" width="117" x="1626" y="167.5"/><ellipse cx="1663.05" cy="183.5" fill="#ADD1B2" rx="11" ry="11" style="stroke:#181818;stroke-width:1.0;"/><path d="M1665.3938,179.1719 C1664.4563,178.7344 1663.8625,178.5938 1662.9875,178.5938 C1660.3625,178.5938 1658.3625,180.6719 1658.3625,183.3906 L1658.3625,184.5156 C1658.3625,187.0938 1660.4719,188.9844 1663.3625,188.9844 C1664.5813,188.9844 1665.7375,188.6875 1666.4875,188.1406 C1667.0656,187.7344 1667.3938,187.2813 1667.3938,186.8906 C1667.3938,186.4375 1667.0031,186.0469 1666.5344,186.0469 C1666.3156,186.0469 1666.1125,186.125 1665.925,186.3125 C1665.4719,186.7969 1665.4719,186.7969 1665.2844,186.8906 C1664.8625,187.1563 1664.175,187.2813 1663.4094,187.2813 C1661.3625,187.2813 1660.0656,186.1875 1660.0656,184.4844 L1660.0656,183.3906 C1660.0656,181.6094 1661.3156,180.2969 1663.05,180.2969 C1663.6281,180.2969 1664.2375,180.4531 1664.7063,180.7031 C1665.1906,180.9844 1665.3625,181.2031 1665.4563,181.6094 C1665.5188,182.0156 1665.55,182.1406 1665.6906,182.2656 C1665.8313,182.4063 1666.0656,182.5156 1666.2844,182.5156 C1666.55,182.5156 1666.8156,182.375 1666.9875,182.1563 C1667.0969,182 1667.1281,181.8125 1667.1281,181.3906 L1667.1281,179.9688 C1667.1281,179.5313 1667.1125,179.4063 1667.0188,179.25 C1666.8625,178.9844 1666.5813,178.8438 1666.2844,178.8438 C1665.9875,178.8438 1665.7844,178.9375 1665.5656,179.25 L1665.3938,179.1719 Z " fill="#000000"/><text fill="#000000" font-family="sans-serif" font-size="14" lengthAdjust="spacing" textLength="36" x="1681.95" y="188.3467">Time</text><line style="stroke:#181818;stroke-width:0.5;" x1="1627" x2="1742" y1="199.5" y2="199.5"/><text fill="#000000" font-family="sans-serif" font-size="14" lengthAdjust="spacing" textLength="105" x="1632" y="216.4951">-openingHours</text><text fill="#000000" font-family="sans-serif" font-size="14" lengthAdjust="spacing" textLength="96" x="1632" y="232.792">-closingHours</text></g><!--MD5=[3295f5e61508e1eafd2783308a1a48b5]
class UserHealthData--><g id="elem_UserHealthData"><rect codeLine="52" fill="#F1F1F1" height="40" id="UserHealthData" rx="2.5" ry="2.5" style="stroke:#181818;stroke-width:0.5;" width="144" x="672" y="185"/><ellipse cx="687" cy="201" fill="#ADD1B2" rx="11" ry="11" style="stroke:#181818;stroke-width:1.0;"/><path d="M689.3438,196.6719 C688.4063,196.2344 687.8125,196.0938 686.9375,196.0938 C684.3125,196.0938 682.3125,198.1719 682.3125,200.8906 L682.3125,202.0156 C682.3125,204.5938 684.4219,206.4844 687.3125,206.4844 C688.5313,206.4844 689.6875,206.1875 690.4375,205.6406 C691.0156,205.2344 691.3438,204.7813 691.3438,204.3906 C691.3438,203.9375 690.9531,203.5469 690.4844,203.5469 C690.2656,203.5469 690.0625,203.625 689.875,203.8125 C689.4219,204.2969 689.4219,204.2969 689.2344,204.3906 C688.8125,204.6563 688.125,204.7813 687.3594,204.7813 C685.3125,204.7813 684.0156,203.6875 684.0156,201.9844 L684.0156,200.8906 C684.0156,199.1094 685.2656,197.7969 687,197.7969 C687.5781,197.7969 688.1875,197.9531 688.6563,198.2031 C689.1406,198.4844 689.3125,198.7031 689.4063,199.1094 C689.4688,199.5156 689.5,199.6406 689.6406,199.7656 C689.7813,199.9063 690.0156,200.0156 690.2344,200.0156 C690.5,200.0156 690.7656,199.875 690.9375,199.6563 C691.0469,199.5 691.0781,199.3125 691.0781,198.8906 L691.0781,197.4688 C691.0781,197.0313 691.0625,196.9063 690.9688,196.75 C690.8125,196.4844 690.5313,196.3438 690.2344,196.3438 C689.9375,196.3438 689.7344,196.4375 689.5156,196.75 L689.3438,196.6719 Z " fill="#000000"/><text fill="#000000" font-family="sans-serif" font-size="14" lengthAdjust="spacing" textLength="112" x="701" y="205.8467">UserHealthData</text><line style="stroke:#181818;stroke-width:0.5;" x1="673" x2="815" y1="217" y2="217"/></g><!--MD5=[7421f545a0d8420c5bec41e74b387d9c]
class Employee--><g id="elem_Employee"><rect codeLine="54" fill="#F1F1F1" height="40" id="Employee" rx="2.5" ry="2.5" style="stroke:#181818;stroke-width:0.5;" width="104" x="225" y="246"/><ellipse cx="240" cy="262" fill="#ADD1B2" rx="11" ry="11" style="stroke:#181818;stroke-width:1.0;"/><path d="M242.3438,257.6719 C241.4063,257.2344 240.8125,257.0938 239.9375,257.0938 C237.3125,257.0938 235.3125,259.1719 235.3125,261.8906 L235.3125,263.0156 C235.3125,265.5938 237.4219,267.4844 240.3125,267.4844 C241.5313,267.4844 242.6875,267.1875 243.4375,266.6406 C244.0156,266.2344 244.3438,265.7813 244.3438,265.3906 C244.3438,264.9375 243.9531,264.5469 243.4844,264.5469 C243.2656,264.5469 243.0625,264.625 242.875,264.8125 C242.4219,265.2969 242.4219,265.2969 242.2344,265.3906 C241.8125,265.6563 241.125,265.7813 240.3594,265.7813 C238.3125,265.7813 237.0156,264.6875 237.0156,262.9844 L237.0156,261.8906 C237.0156,260.1094 238.2656,258.7969 240,258.7969 C240.5781,258.7969 241.1875,258.9531 241.6563,259.2031 C242.1406,259.4844 242.3125,259.7031 242.4063,260.1094 C242.4688,260.5156 242.5,260.6406 242.6406,260.7656 C242.7813,260.9063 243.0156,261.0156 243.2344,261.0156 C243.5,261.0156 243.7656,260.875 243.9375,260.6563 C244.0469,260.5 244.0781,260.3125 244.0781,259.8906 L244.0781,258.4688 C244.0781,258.0313 244.0625,257.9063 243.9688,257.75 C243.8125,257.4844 243.5313,257.3438 243.2344,257.3438 C242.9375,257.3438 242.7344,257.4375 242.5156,257.75 L242.3438,257.6719 Z " fill="#000000"/><text fill="#000000" font-family="sans-serif" font-size="14" lengthAdjust="spacing" textLength="72" x="254" y="266.8467">Employee</text><line style="stroke:#181818;stroke-width:0.5;" x1="226" x2="328" y1="278" y2="278"/></g><!--MD5=[a059576e163b46f56762f12600c49258]
class Nurse--><g id="elem_Nurse"><rect codeLine="56" fill="#F1F1F1" height="40" id="Nurse" rx="2.5" ry="2.5" style="stroke:#181818;stroke-width:0.5;" width="72" x="414.5" y="246"/><ellipse cx="429.5" cy="262" fill="#ADD1B2" rx="11" ry="11" style="stroke:#181818;stroke-width:1.0;"/><path d="M431.8438,257.6719 C430.9063,257.2344 430.3125,257.0938 429.4375,257.0938 C426.8125,257.0938 424.8125,259.1719 424.8125,261.8906 L424.8125,263.0156 C424.8125,265.5938 426.9219,267.4844 429.8125,267.4844 C431.0313,267.4844 432.1875,267.1875 432.9375,266.6406 C433.5156,266.2344 433.8438,265.7813 433.8438,265.3906 C433.8438,264.9375 433.4531,264.5469 432.9844,264.5469 C432.7656,264.5469 432.5625,264.625 432.375,264.8125 C431.9219,265.2969 431.9219,265.2969 431.7344,265.3906 C431.3125,265.6563 430.625,265.7813 429.8594,265.7813 C427.8125,265.7813 426.5156,264.6875 426.5156,262.9844 L426.5156,261.8906 C426.5156,260.1094 427.7656,258.7969 429.5,258.7969 C430.0781,258.7969 430.6875,258.9531 431.1563,259.2031 C431.6406,259.4844 431.8125,259.7031 431.9063,260.1094 C431.9688,260.5156 432,260.6406 432.1406,260.7656 C432.2813,260.9063 432.5156,261.0156 432.7344,261.0156 C433,261.0156 433.2656,260.875 433.4375,260.6563 C433.5469,260.5 433.5781,260.3125 433.5781,259.8906 L433.5781,258.4688 C433.5781,258.0313 433.5625,257.9063 433.4688,257.75 C433.3125,257.4844 433.0313,257.3438 432.7344,257.3438 C432.4375,257.3438 432.2344,257.4375 432.0156,257.75 L431.8438,257.6719 Z " fill="#000000"/><text fill="#000000" font-family="sans-serif" font-size="14" lengthAdjust="spacing" textLength="40" x="443.5" y="266.8467">Nurse</text><line style="stroke:#181818;stroke-width:0.5;" x1="415.5" x2="485.5" y1="278" y2="278"/></g><!--MD5=[3d99830c51f2312653ffa5f597e45238]
class AGES--><g id="elem_AGES"><rect codeLine="58" fill="#F1F1F1" height="40" id="AGES" rx="2.5" ry="2.5" style="stroke:#181818;stroke-width:0.5;" width="71" x="1968" y="313"/><ellipse cx="1983" cy="329" fill="#ADD1B2" rx="11" ry="11" style="stroke:#181818;stroke-width:1.0;"/><path d="M1985.3438,324.6719 C1984.4063,324.2344 1983.8125,324.0938 1982.9375,324.0938 C1980.3125,324.0938 1978.3125,326.1719 1978.3125,328.8906 L1978.3125,330.0156 C1978.3125,332.5938 1980.4219,334.4844 1983.3125,334.4844 C1984.5313,334.4844 1985.6875,334.1875 1986.4375,333.6406 C1987.0156,333.2344 1987.3438,332.7813 1987.3438,332.3906 C1987.3438,331.9375 1986.9531,331.5469 1986.4844,331.5469 C1986.2656,331.5469 1986.0625,331.625 1985.875,331.8125 C1985.4219,332.2969 1985.4219,332.2969 1985.2344,332.3906 C1984.8125,332.6563 1984.125,332.7813 1983.3594,332.7813 C1981.3125,332.7813 1980.0156,331.6875 1980.0156,329.9844 L1980.0156,328.8906 C1980.0156,327.1094 1981.2656,325.7969 1983,325.7969 C1983.5781,325.7969 1984.1875,325.9531 1984.6563,326.2031 C1985.1406,326.4844 1985.3125,326.7031 1985.4063,327.1094 C1985.4688,327.5156 1985.5,327.6406 1985.6406,327.7656 C1985.7813,327.9063 1986.0156,328.0156 1986.2344,328.0156 C1986.5,328.0156 1986.7656,327.875 1986.9375,327.6563 C1987.0469,327.5 1987.0781,327.3125 1987.0781,326.8906 L1987.0781,325.4688 C1987.0781,325.0313 1987.0625,324.9063 1986.9688,324.75 C1986.8125,324.4844 1986.5313,324.3438 1986.2344,324.3438 C1985.9375,324.3438 1985.7344,324.4375 1985.5156,324.75 L1985.3438,324.6719 Z " fill="#000000"/><text fill="#000000" font-family="sans-serif" font-size="14" lengthAdjust="spacing" textLength="39" x="1997" y="333.8467">AGES</text><line style="stroke:#181818;stroke-width:0.5;" x1="1969" x2="2038" y1="345" y2="345"/></g><!--MD5=[f44bde12c85835f4e3e4c64f18a8c09c]
class ARS--><g id="elem_ARS"><rect codeLine="60" fill="#F1F1F1" height="40" id="ARS" rx="2.5" ry="2.5" style="stroke:#181818;stroke-width:0.5;" width="61" x="1973" y="388"/><ellipse cx="1988" cy="404" fill="#ADD1B2" rx="11" ry="11" style="stroke:#181818;stroke-width:1.0;"/><path d="M1990.3438,399.6719 C1989.4063,399.2344 1988.8125,399.0938 1987.9375,399.0938 C1985.3125,399.0938 1983.3125,401.1719 1983.3125,403.8906 L1983.3125,405.0156 C1983.3125,407.5938 1985.4219,409.4844 1988.3125,409.4844 C1989.5313,409.4844 1990.6875,409.1875 1991.4375,408.6406 C1992.0156,408.2344 1992.3438,407.7813 1992.3438,407.3906 C1992.3438,406.9375 1991.9531,406.5469 1991.4844,406.5469 C1991.2656,406.5469 1991.0625,406.625 1990.875,406.8125 C1990.4219,407.2969 1990.4219,407.2969 1990.2344,407.3906 C1989.8125,407.6563 1989.125,407.7813 1988.3594,407.7813 C1986.3125,407.7813 1985.0156,406.6875 1985.0156,404.9844 L1985.0156,403.8906 C1985.0156,402.1094 1986.2656,400.7969 1988,400.7969 C1988.5781,400.7969 1989.1875,400.9531 1989.6563,401.2031 C1990.1406,401.4844 1990.3125,401.7031 1990.4063,402.1094 C1990.4688,402.5156 1990.5,402.6406 1990.6406,402.7656 C1990.7813,402.9063 1991.0156,403.0156 1991.2344,403.0156 C1991.5,403.0156 1991.7656,402.875 1991.9375,402.6563 C1992.0469,402.5 1992.0781,402.3125 1992.0781,401.8906 L1992.0781,400.4688 C1992.0781,400.0313 1992.0625,399.9063 1991.9688,399.75 C1991.8125,399.4844 1991.5313,399.3438 1991.2344,399.3438 C1990.9375,399.3438 1990.7344,399.4375 1990.5156,399.75 L1990.3438,399.6719 Z " fill="#000000"/><text fill="#000000" font-family="sans-serif" font-size="14" lengthAdjust="spacing" textLength="29" x="2002" y="408.8467">ARS</text><line style="stroke:#181818;stroke-width:0.5;" x1="1974" x2="2033" y1="420" y2="420"/></g><!--MD5=[c508b5b6bbe276ff5e2700b6641f837f]
class Appointment--><g id="elem_Appointment"><rect codeLine="62" fill="#F1F1F1" height="121.4844" id="Appointment" rx="2.5" ry="2.5" style="stroke:#181818;stroke-width:0.5;" width="150" x="975.5" y="17.5"/><ellipse cx="999.5" cy="33.5" fill="#ADD1B2" rx="11" ry="11" style="stroke:#181818;stroke-width:1.0;"/><path d="M1001.8438,29.1719 C1000.9063,28.7344 1000.3125,28.5938 999.4375,28.5938 C996.8125,28.5938 994.8125,30.6719 994.8125,33.3906 L994.8125,34.5156 C994.8125,37.0938 996.9219,38.9844 999.8125,38.9844 C1001.0313,38.9844 1002.1875,38.6875 1002.9375,38.1406 C1003.5156,37.7344 1003.8438,37.2813 1003.8438,36.8906 C1003.8438,36.4375 1003.4531,36.0469 1002.9844,36.0469 C1002.7656,36.0469 1002.5625,36.125 1002.375,36.3125 C1001.9219,36.7969 1001.9219,36.7969 1001.7344,36.8906 C1001.3125,37.1563 1000.625,37.2813 999.8594,37.2813 C997.8125,37.2813 996.5156,36.1875 996.5156,34.4844 L996.5156,33.3906 C996.5156,31.6094 997.7656,30.2969 999.5,30.2969 C1000.0781,30.2969 1000.6875,30.4531 1001.1563,30.7031 C1001.6406,30.9844 1001.8125,31.2031 1001.9063,31.6094 C1001.9688,32.0156 1002,32.1406 1002.1406,32.2656 C1002.2813,32.4063 1002.5156,32.5156 1002.7344,32.5156 C1003,32.5156 1003.2656,32.375 1003.4375,32.1563 C1003.5469,32 1003.5781,31.8125 1003.5781,31.3906 L1003.5781,29.9688 C1003.5781,29.5313 1003.5625,29.4063 1003.4688,29.25 C1003.3125,28.9844 1003.0313,28.8438 1002.7344,28.8438 C1002.4375,28.8438 1002.2344,28.9375 1002.0156,29.25 L1001.8438,29.1719 Z " fill="#000000"/><text fill="#000000" font-family="sans-serif" font-size="14" lengthAdjust="spacing" textLength="98" x="1015.5" y="38.3467">Appointment</text><line style="stroke:#181818;stroke-width:0.5;" x1="976.5" x2="1124.5" y1="49.5" y2="49.5"/><text fill="#000000" font-family="sans-serif" font-size="14" lengthAdjust="spacing" textLength="60" x="981.5" y="66.4951">-snsUser</text><text fill="#000000" font-family="sans-serif" font-size="14" lengthAdjust="spacing" textLength="39" x="981.5" y="82.792">-date</text><text fill="#000000" font-family="sans-serif" font-size="14" lengthAdjust="spacing" textLength="138" x="981.5" y="99.0889">-vaccinationCenter</text><text fill="#000000" font-family="sans-serif" font-size="14" lengthAdjust="spacing" textLength="96" x="981.5" y="115.3857">-vaccineType</text><text fill="#000000" font-family="sans-serif" font-size="14" lengthAdjust="spacing" textLength="34" x="981.5" y="131.6826">-sms</text></g><!--MD5=[950bab46f39ba9ae59885963abb53c18]
class Arrival--><g id="elem_Arrival"><rect codeLine="70" fill="#F1F1F1" height="56.2969" id="Arrival" rx="2.5" ry="2.5" style="stroke:#181818;stroke-width:0.5;" width="97" x="695.5" y="7"/><ellipse cx="719.05" cy="23" fill="#ADD1B2" rx="11" ry="11" style="stroke:#181818;stroke-width:1.0;"/><path d="M721.3938,18.6719 C720.4563,18.2344 719.8625,18.0938 718.9875,18.0938 C716.3625,18.0938 714.3625,20.1719 714.3625,22.8906 L714.3625,24.0156 C714.3625,26.5938 716.4719,28.4844 719.3625,28.4844 C720.5813,28.4844 721.7375,28.1875 722.4875,27.6406 C723.0656,27.2344 723.3938,26.7813 723.3938,26.3906 C723.3938,25.9375 723.0031,25.5469 722.5344,25.5469 C722.3156,25.5469 722.1125,25.625 721.925,25.8125 C721.4719,26.2969 721.4719,26.2969 721.2844,26.3906 C720.8625,26.6563 720.175,26.7813 719.4094,26.7813 C717.3625,26.7813 716.0656,25.6875 716.0656,23.9844 L716.0656,22.8906 C716.0656,21.1094 717.3156,19.7969 719.05,19.7969 C719.6281,19.7969 720.2375,19.9531 720.7063,20.2031 C721.1906,20.4844 721.3625,20.7031 721.4563,21.1094 C721.5188,21.5156 721.55,21.6406 721.6906,21.7656 C721.8313,21.9063 722.0656,22.0156 722.2844,22.0156 C722.55,22.0156 722.8156,21.875 722.9875,21.6563 C723.0969,21.5 723.1281,21.3125 723.1281,20.8906 L723.1281,19.4688 C723.1281,19.0313 723.1125,18.9063 723.0188,18.75 C722.8625,18.4844 722.5813,18.3438 722.2844,18.3438 C721.9875,18.3438 721.7844,18.4375 721.5656,18.75 L721.3938,18.6719 Z " fill="#000000"/><text fill="#000000" font-family="sans-serif" font-size="14" lengthAdjust="spacing" textLength="46" x="734.95" y="27.8467">Arrival</text><line style="stroke:#181818;stroke-width:0.5;" x1="696.5" x2="791.5" y1="39" y2="39"/><text fill="#000000" font-family="sans-serif" font-size="14" lengthAdjust="spacing" textLength="85" x="701.5" y="55.9951">-arrivalDate</text></g><!--MD5=[107cfa23aa516ff83d0cf17a6f9fe7ba]
class VaccineAdministration--><g id="elem_VaccineAdministration"><rect codeLine="74" fill="#F1F1F1" height="137.7813" id="VaccineAdministration" rx="2.5" ry="2.5" style="stroke:#181818;stroke-width:0.5;" width="195" x="953" y="174"/><ellipse cx="968" cy="190" fill="#ADD1B2" rx="11" ry="11" style="stroke:#181818;stroke-width:1.0;"/><path d="M970.3438,185.6719 C969.4063,185.2344 968.8125,185.0938 967.9375,185.0938 C965.3125,185.0938 963.3125,187.1719 963.3125,189.8906 L963.3125,191.0156 C963.3125,193.5938 965.4219,195.4844 968.3125,195.4844 C969.5313,195.4844 970.6875,195.1875 971.4375,194.6406 C972.0156,194.2344 972.3438,193.7813 972.3438,193.3906 C972.3438,192.9375 971.9531,192.5469 971.4844,192.5469 C971.2656,192.5469 971.0625,192.625 970.875,192.8125 C970.4219,193.2969 970.4219,193.2969 970.2344,193.3906 C969.8125,193.6563 969.125,193.7813 968.3594,193.7813 C966.3125,193.7813 965.0156,192.6875 965.0156,190.9844 L965.0156,189.8906 C965.0156,188.1094 966.2656,186.7969 968,186.7969 C968.5781,186.7969 969.1875,186.9531 969.6563,187.2031 C970.1406,187.4844 970.3125,187.7031 970.4063,188.1094 C970.4688,188.5156 970.5,188.6406 970.6406,188.7656 C970.7813,188.9063 971.0156,189.0156 971.2344,189.0156 C971.5,189.0156 971.7656,188.875 971.9375,188.6563 C972.0469,188.5 972.0781,188.3125 972.0781,187.8906 L972.0781,186.4688 C972.0781,186.0313 972.0625,185.9063 971.9688,185.75 C971.8125,185.4844 971.5313,185.3438 971.2344,185.3438 C970.9375,185.3438 970.7344,185.4375 970.5156,185.75 L970.3438,185.6719 Z " fill="#000000"/><text fill="#000000" font-family="sans-serif" font-size="14" lengthAdjust="spacing" textLength="163" x="982" y="194.8467">VaccineAdministration</text><line style="stroke:#181818;stroke-width:0.5;" x1="954" x2="1147" y1="206" y2="206"/><text fill="#000000" font-family="sans-serif" font-size="14" lengthAdjust="spacing" textLength="60" x="959" y="222.9951">-snsUser</text><text fill="#000000" font-family="sans-serif" font-size="14" lengthAdjust="spacing" textLength="60" x="959" y="239.292">-vaccine</text><text fill="#000000" font-family="sans-serif" font-size="14" lengthAdjust="spacing" textLength="83" x="959" y="255.5889">-lotNumber</text><text fill="#000000" font-family="sans-serif" font-size="14" lengthAdjust="spacing" textLength="97" x="959" y="271.8857">-doseNumber</text><text fill="#000000" font-family="sans-serif" font-size="14" lengthAdjust="spacing" textLength="138" x="959" y="288.1826">-vaccinationCenter</text><text fill="#000000" font-family="sans-serif" font-size="14" lengthAdjust="spacing" textLength="39" x="959" y="304.4795">-date</text></g><!--MD5=[cdda88bd94d57e06d95e6dd6ce9ee716]
link Arrival to Appointment--><g id="link_Arrival_Appointment"><path codeLine="83" d="M792.578,41.719 C841.504,48.628 918.38,59.484 975.303,67.522 " fill="none" id="Arrival-Appointment" style="stroke:#181818;stroke-width:1.0;"/><polygon fill="#000000" points="855.9509,43.2655,847.4056,39.0907,846.5837,44.9109,855.9509,43.2655" style="stroke:#000000;stroke-width:1.0;"/><text fill="#000000" font-family="sans-serif" font-size="13" lengthAdjust="spacing" textLength="62" x="860" y="47.0669">related to</text><text fill="#000000" font-family="sans-serif" font-size="13" lengthAdjust="spacing" textLength="8" x="800.629" y="55.9506">1</text><text fill="#000000" font-family="sans-serif" font-size="13" lengthAdjust="spacing" textLength="24" x="943.537" y="79.308">0..1</text></g><!--MD5=[3568623adf67b2630dce9e60c05bd02a]
link Vaccine to VaccineType--><g id="link_Vaccine_VaccineType"><path codeLine="85" d="M1406.22,156.806 C1461.93,142.381 1559.11,117.214 1622.36,100.833 " fill="none" id="Vaccine-VaccineType" style="stroke:#181818;stroke-width:1.0;"/><polygon fill="#000000" points="1475.1597,123.8199,1484.6527,124.3974,1483.1791,118.7072,1475.1597,123.8199" style="stroke:#000000;stroke-width:1.0;"/><text fill="#000000" font-family="sans-serif" font-size="13" lengthAdjust="spacing" textLength="23" x="1489" y="127.0669">has</text><text fill="#000000" font-family="sans-serif" font-size="13" lengthAdjust="spacing" textLength="7" x="1414.1236" y="168.2721">*</text><text fill="#000000" font-family="sans-serif" font-size="13" lengthAdjust="spacing" textLength="8" x="1606.2992" y="115.7584">1</text></g><!--MD5=[6716344a46572fc99c27bf4e50ddbd3d]
reverse link Employee to Nurse--><g id="link_Employee_Nurse"><path codeLine="87" d="M349.483,266 C371.898,266 395.652,266 414.384,266 " fill="none" id="Employee-backto-Nurse" style="stroke:#181818;stroke-width:1.0;"/><polygon fill="none" points="349.456,273,329.456,266,349.456,259,349.456,273" style="stroke:#181818;stroke-width:1.0;"/></g><!--MD5=[c156db0cf05f3fec75f26701ab7e4af1]
link Nurse to UserHealthData--><g id="link_Nurse_UserHealthData"><path codeLine="89" d="M486.662,258.642 C532.317,249.088 613.091,232.185 671.792,219.901 " fill="none" id="Nurse-UserHealthData" style="stroke:#181818;stroke-width:1.0;"/><polygon fill="#000000" points="571.894,216.5423,562.4387,215.5183,563.6426,221.2716,571.894,216.5423" style="stroke:#000000;stroke-width:1.0;"/><text fill="#000000" font-family="sans-serif" font-size="13" lengthAdjust="spacing" textLength="44" x="576" y="222.0669">checks</text><text fill="#000000" font-family="sans-serif" font-size="13" lengthAdjust="spacing" textLength="8" x="494.5689" y="252.7968">1</text><text fill="#000000" font-family="sans-serif" font-size="13" lengthAdjust="spacing" textLength="7" x="656.9846" y="234.2848">*</text></g><!--MD5=[195cd4b2065cc6507c3064f693e1e4c8]
link Nurse to VaccineAdministration--><g id="link_Nurse_VaccineAdministration"><path codeLine="90" d="M486.707,266.078 C551.774,266.075 695.236,265.386 816,260 C860.97,257.994 910.732,254.542 952.723,251.271 " fill="none" id="Nurse-VaccineAdministration" style="stroke:#181818;stroke-width:1.0;"/><polygon fill="#000000" points="718.4975,251.4076,709.3636,248.7574,709.5503,254.6323,718.4975,251.4076" style="stroke:#000000;stroke-width:1.0;"/><text fill="#000000" font-family="sans-serif" font-size="13" lengthAdjust="spacing" textLength="56" x="722.5" y="256.0669">registers</text><text fill="#000000" font-family="sans-serif" font-size="13" lengthAdjust="spacing" textLength="8" x="494.6228" y="279.6499">1</text><text fill="#000000" font-family="sans-serif" font-size="13" lengthAdjust="spacing" textLength="7" x="937.969" y="264.5588">*</text></g><!--MD5=[9c09d1db3efb59cb07492bc4345754ed]
reverse link VaccinationCenter to CommunityMassVaccinationCenter--><g id="link_VaccinationCenter_CommunityMassVaccinationCenter"><path codeLine="92" d="M1465.28,298.724 C1489.94,298.416 1516.72,298.081 1542.8,297.756 " fill="none" id="VaccinationCenter-backto-CommunityMassVaccinationCenter" style="stroke:#181818;stroke-width:1.0;"/><polygon fill="none" points="1465.21,305.725,1445.12,298.975,1465.03,291.726,1465.21,305.725" style="stroke:#181818;stroke-width:1.0;"/></g><!--MD5=[4d7f47162e377c4884c583baac9698b3]
reverse link VaccinationCenter to HealthCareCenter--><g id="link_VaccinationCenter_HealthCareCenter"><path codeLine="93" d="M1464.79,322.55 C1509.53,332.46 1561.31,343.932 1603.26,353.224 " fill="none" id="VaccinationCenter-backto-HealthCareCenter" style="stroke:#181818;stroke-width:1.0;"/><polygon fill="none" points="1463.13,329.352,1445.12,318.192,1466.16,315.684,1463.13,329.352" style="stroke:#181818;stroke-width:1.0;"/></g><!--MD5=[b649bef0048cf03271726558ee7073ed]
link VaccinationCenter to Slot--><g id="link_VaccinationCenter_Slot"><path codeLine="95" d="M1445.07,353.907 C1475.21,372.571 1510.03,392.841 1543,409 C1567.87,421.1908 1596.24,432.5443 1620.94,441.6638 " fill="none" id="VaccinationCenter-Slot" style="stroke:#181818;stroke-width:1.0;"/><polygon fill="#000000" points="1484.4739,366.7988,1477.6927,360.1306,1475.0683,365.39,1484.4739,366.7988" style="stroke:#000000;stroke-width:1.0;"/><text fill="#000000" font-family="sans-serif" font-size="13" lengthAdjust="spacing" textLength="23" x="1489" y="369.0669">has</text><text fill="#000000" font-family="sans-serif" font-size="13" lengthAdjust="spacing" textLength="8" x="1453.0968" y="371.6374">1</text><text fill="#000000" font-family="sans-serif" font-size="13" lengthAdjust="spacing" textLength="8" x="1605.1284" y="452.162">1</text></g><!--MD5=[e67749f86d2edce8d072e016ba76df74]
link VaccinationCenter to Time--><g id="link_VaccinationCenter_Time"><path codeLine="96" d="M1445.12,275.402 C1501.69,258.458 1575.45,236.364 1625.85,221.267 " fill="none" id="VaccinationCenter-Time" style="stroke:#181818;stroke-width:1.0;"/><polygon fill="#000000" points="1484.7897,247.1317,1475.2817,246.9118,1476.9683,252.5424,1484.7897,247.1317" style="stroke:#000000;stroke-width:1.0;"/><text fill="#000000" font-family="sans-serif" font-size="13" lengthAdjust="spacing" textLength="23" x="1489" y="253.0669">has</text><text fill="#000000" font-family="sans-serif" font-size="13" lengthAdjust="spacing" textLength="8" x="1452.8791" y="285.9485">1</text><text fill="#000000" font-family="sans-serif" font-size="13" lengthAdjust="spacing" textLength="8" x="1609.823" y="236.5417">1</text></g><!--MD5=[85f06911c2f4dd592611bbf87a6e3e69]
link HealthCareCenter to AGES--><g id="link_HealthCareCenter_AGES"><path codeLine="98" d="M1765.9,361.362 C1831.02,353.556 1919.58,342.94 1967.77,337.163 " fill="none" id="HealthCareCenter-AGES" style="stroke:#181818;stroke-width:1.0;"/><polygon fill="#000000" points="1865.9645,331.9713,1856.6339,330.1298,1857.3335,335.9659,1865.9645,331.9713" style="stroke:#000000;stroke-width:1.0;"/><text fill="#000000" font-family="sans-serif" font-size="13" lengthAdjust="spacing" textLength="67" x="1870" y="337.0669">belongs to</text><text fill="#000000" font-family="sans-serif" font-size="13" lengthAdjust="spacing" textLength="7" x="1773.4614" y="373.2444">*</text><text fill="#000000" font-family="sans-serif" font-size="13" lengthAdjust="spacing" textLength="8" x="1951.9482" y="351.5391">1</text></g><!--MD5=[5b76ad4aea9bdf9551a08667802db279]
link HealthCareCenter to ARS--><g id="link_HealthCareCenter_ARS"><path codeLine="99" d="M1765.68,381.787 C1794.17,385.504 1826.5,389.587 1856,393 C1896.38,397.672 1943.12,402.3267 1972.73,405.1835 " fill="none" id="HealthCareCenter-ARS" style="stroke:#181818;stroke-width:1.0;"/><polygon fill="#000000" points="1865.9684,385.1278,1857.3105,381.1919,1856.6505,387.0325,1865.9684,385.1278" style="stroke:#000000;stroke-width:1.0;"/><text fill="#000000" font-family="sans-serif" font-size="13" lengthAdjust="spacing" textLength="67" x="1870" y="389.0669">belongs to</text><text fill="#000000" font-family="sans-serif" font-size="13" lengthAdjust="spacing" textLength="7" x="1773.4864" y="395.5458">*</text><text fill="#000000" font-family="sans-serif" font-size="13" lengthAdjust="spacing" textLength="8" x="1957.1241" y="418.2894">1</text></g><!--MD5=[d139302f00cc62b984b6371d0fde1842]
link Appointment to VaccinationCenter--><g id="link_Appointment_VaccinationCenter"><path codeLine="101" d="M1125.55,114.63 C1163.85,134.973 1210.51,161.996 1249,191 C1261.78,200.634 1274.63,211.617 1286.82,222.815 " fill="none" id="Appointment-VaccinationCenter" style="stroke:#181818;stroke-width:1.0;"/><polygon fill="#000000" points="1187.1523,140.3519,1181.278,132.8723,1178.0035,137.7536,1187.1523,140.3519" style="stroke:#000000;stroke-width:1.0;"/><text fill="#000000" font-family="sans-serif" font-size="13" lengthAdjust="spacing" textLength="56" x="1192" y="142.0669">is held in</text><text fill="#000000" font-family="sans-serif" font-size="13" lengthAdjust="spacing" textLength="7" x="1133.6505" y="131.2297">*</text><text fill="#000000" font-family="sans-serif" font-size="13" lengthAdjust="spacing" textLength="8" x="1271.2732" y="211.813">1</text></g><!--MD5=[d63168792e55d79de1fe85cd885704ff]
link Appointment to VaccineType--><g id="link_Appointment_VaccineType"><path codeLine="102" d="M1125.55,78.82 C1251.53,80.216 1505.26,83.026 1622.07,84.32 " fill="none" id="Appointment-VaccineType" style="stroke:#181818;stroke-width:1.0;"/><polygon fill="#000000" points="1320.9997,71.6218,1311.9877,68.5829,1311.9226,74.4603,1320.9997,71.6218" style="stroke:#000000;stroke-width:1.0;"/><text fill="#000000" font-family="sans-serif" font-size="13" lengthAdjust="spacing" textLength="87" x="1325" y="76.0669">has a specific</text><text fill="#000000" font-family="sans-serif" font-size="13" lengthAdjust="spacing" textLength="8" x="1133.702" y="91.7268">1</text><text fill="#000000" font-family="sans-serif" font-size="13" lengthAdjust="spacing" textLength="8" x="1606.389" y="97.1895">1</text></g><!--MD5=[3f8bc51bb69ce45c3e3ea0b764df71f1]
link SNSUser to Appointment--><g id="link_SNSUser_Appointment"><path codeLine="104" d="M511.195,116.859 C583.414,112.952 708.67,105.834 816,98 C869.361,94.105 929.513,88.934 975.399,84.826 " fill="none" id="SNSUser-Appointment" style="stroke:#181818;stroke-width:1.0;"/><polygon fill="#000000" points="714.4881,89.2222,705.2622,86.9129,705.6668,92.7768,714.4881,89.2222" style="stroke:#000000;stroke-width:1.0;"/><text fill="#000000" font-family="sans-serif" font-size="13" lengthAdjust="spacing" textLength="64" x="718.5" y="94.0669">schedules</text><text fill="#000000" font-family="sans-serif" font-size="13" lengthAdjust="spacing" textLength="8" x="519.0797" y="129.4424">1</text><text fill="#000000" font-family="sans-serif" font-size="13" lengthAdjust="spacing" textLength="7" x="960.2933" y="98.3521">*</text></g><!--MD5=[7237f06c0b74e3dd035481e962d83e87]
link SNSUser to Arrival--><g id="link_SNSUser_Arrival"><path codeLine="105" d="M511.483,98.557 C521.308,95.237 531.409,91.939 541,89 C593.409,72.941 654.271,57.039 695.38,46.696 " fill="none" id="SNSUser-Arrival" style="stroke:#181818;stroke-width:1.0;"/><polygon fill="#000000" points="550.8123,51.2093,541.3091,50.8357,542.9045,56.4929,550.8123,51.2093" style="stroke:#000000;stroke-width:1.0;"/><text fill="#000000" font-family="sans-serif" font-size="13" lengthAdjust="spacing" textLength="86" x="555" y="57.0669">associated to</text><text fill="#000000" font-family="sans-serif" font-size="13" lengthAdjust="spacing" textLength="8" x="518.9967" y="108.9977">1</text><text fill="#000000" font-family="sans-serif" font-size="13" lengthAdjust="spacing" textLength="7" x="680.3991" y="61.6897">*</text></g><!--MD5=[f8a44d8858dd7923d650df3c015ca53f]
link SNSUser to UserHealthData--><g id="link_SNSUser_UserHealthData"><path codeLine="106" d="M511.135,147.001 C521.003,150.981 531.21,154.809 541,158 C583.621,171.891 632.563,183.387 671.596,191.532 " fill="none" id="SNSUser-UserHealthData" style="stroke:#181818;stroke-width:1.0;"/><polygon fill="#000000" points="582.3179,150.9035,574.3881,145.6528,572.8163,151.3166,582.3179,150.9035" style="stroke:#000000;stroke-width:1.0;"/><text fill="#000000" font-family="sans-serif" font-size="13" lengthAdjust="spacing" textLength="23" x="586.5" y="154.0669">has</text><text fill="#000000" font-family="sans-serif" font-size="13" lengthAdjust="spacing" textLength="8" x="519.0124" y="163.2579">1</text><text fill="#000000" font-family="sans-serif" font-size="13" lengthAdjust="spacing" textLength="8" x="656.075" y="203.018">1</text></g><!--MD5=[09366576ee87d48d594df10cacc83f45]
link Company to Employee--><g id="link_Company_Employee"><path codeLine="108" d="M109.057,266 C143.728,266 189.748,266 224.688,266 " fill="none" id="Company-Employee" style="stroke:#181818;stroke-width:1.0;"/><polygon fill="#000000" points="149,257.5664,139.9549,254.6275,139.9549,260.5053,149,257.5664" style="stroke:#000000;stroke-width:1.0;"/><text fill="#000000" font-family="sans-serif" font-size="13" lengthAdjust="spacing" textLength="41" x="153" y="262.0669">knows</text><text fill="#000000" font-family="sans-serif" font-size="13" lengthAdjust="spacing" textLength="8" x="117.1435" y="279.1564">1</text><text fill="#000000" font-family="sans-serif" font-size="13" lengthAdjust="spacing" textLength="7" x="209.8394" y="279.1309">*</text></g><!--MD5=[eebe9b198877275d05dd12630ed9e401]
link Company to VaccinationCenter--><g id="link_Company_VaccinationCenter"><path codeLine="109" d="M95.1154,294.105 C136.426,323.373 207.261,365 276,365 C276,365 276,365 1051.5,365 C1129.88,365 1217.08,344.789 1278.9,326.907 " fill="none" id="Company-VaccinationCenter" style="stroke:#181818;stroke-width:1.0;"/><polygon fill="#000000" points="573.4981,356.7049,564.5379,353.5166,564.3751,359.3922,573.4981,356.7049" style="stroke:#000000;stroke-width:1.0;"/><text fill="#000000" font-family="sans-serif" font-size="13" lengthAdjust="spacing" textLength="41" x="577.5" y="361.0669">knows</text><text fill="#000000" font-family="sans-serif" font-size="13" lengthAdjust="spacing" textLength="8" x="94.7733" y="314.3866">1</text><text fill="#000000" font-family="sans-serif" font-size="13" lengthAdjust="spacing" textLength="7" x="1263.9166" y="342.1483">*</text></g><!--MD5=[1a8aa2b864b87f860d28abceaa28b7a5]
link Company to SNSUser--><g id="link_Company_SNSUser"><path codeLine="110" d="M109.252,247.212 C181.143,220.333 313.117,170.991 389.861,142.298 " fill="none" id="Company-SNSUser" style="stroke:#181818;stroke-width:1.0;"/><polygon fill="#000000" points="258.6834,155.8154,249.1819,156.2302,251.2403,161.7358,258.6834,155.8154" style="stroke:#000000;stroke-width:1.0;"/><text fill="#000000" font-family="sans-serif" font-size="13" lengthAdjust="spacing" textLength="41" x="263" y="162.0669">knows</text><text fill="#000000" font-family="sans-serif" font-size="13" lengthAdjust="spacing" textLength="8" x="117.0218" y="257.68">1</text><text fill="#000000" font-family="sans-serif" font-size="13" lengthAdjust="spacing" textLength="7" x="375.0441" y="157.9818">*</text></g><!--MD5=[d96ee281cdb1021d3c4ed227c45512e2]
link VaccineAdministration to Vaccine--><g id="link_VaccineAdministration_Vaccine"><path codeLine="112" d="M1148.07,232.147 C1180.47,227.37 1216.59,220.795 1249,212 C1272.29,205.68 1297.36,196.106 1317.87,187.501 " fill="none" id="VaccineAdministration-Vaccine" style="stroke:#181818;stroke-width:1.0;"/><polygon fill="#000000" points="1204.3356,202.295,1194.8405,201.7527,1196.3352,207.4373,1204.3356,202.295" style="stroke:#000000;stroke-width:1.0;"/><text fill="#000000" font-family="sans-serif" font-size="13" lengthAdjust="spacing" textLength="23" x="1208.5" y="208.0669">has</text><text fill="#000000" font-family="sans-serif" font-size="13" lengthAdjust="spacing" textLength="7" x="1156.124" y="243.9607">*</text><text fill="#000000" font-family="sans-serif" font-size="13" lengthAdjust="spacing" textLength="8" x="1301.8985" y="204.0509">1</text></g><!--MD5=[6bb3ec5f470f72ee4f54b0838c98c655]
link VaccineAdministration to VaccinationCenter--><g id="link_VaccineAdministration_VaccinationCenter"><path codeLine="113" d="M1148.2,278.612 C1158.17,281.457 1168.23,283.999 1178,286 C1210.62,292.681 1247.1,296.24 1278.86,298.113 " fill="none" id="VaccineAdministration-VaccinationCenter" style="stroke:#181818;stroke-width:1.0;"/><polygon fill="#000000" points="1187.9452,278.3045,1179.4331,274.0626,1178.5654,279.876,1187.9452,278.3045" style="stroke:#000000;stroke-width:1.0;"/><text fill="#000000" font-family="sans-serif" font-size="13" lengthAdjust="spacing" textLength="56" x="1192" y="282.0669">is held in</text><text fill="#000000" font-family="sans-serif" font-size="13" lengthAdjust="spacing" textLength="7" x="1155.9481" y="293.9931">*</text><text fill="#000000" font-family="sans-serif" font-size="13" lengthAdjust="spacing" textLength="8" x="1263.0991" y="310.6822">1</text></g><!--MD5=[aa2073a23a3d61f2738cc42d59f10cce]
link UserHealthData to VaccineAdministration--><g id="link_UserHealthData_VaccineAdministration"><path codeLine="115" d="M816.007,213.861 C856.778,218.949 908.542,225.409 952.965,230.953 " fill="none" id="UserHealthData-VaccineAdministration" style="stroke:#181818;stroke-width:1.0;"/><polygon fill="#000000" points="875.4615,210.1856,866.85,206.1492,866.1221,211.9818,875.4615,210.1856" style="stroke:#000000;stroke-width:1.0;"/><text fill="#000000" font-family="sans-serif" font-size="13" lengthAdjust="spacing" textLength="23" x="879.5" y="214.0669">has</text><text fill="#000000" font-family="sans-serif" font-size="13" lengthAdjust="spacing" textLength="8" x="823.8452" y="227.622">1</text><text fill="#000000" font-family="sans-serif" font-size="13" lengthAdjust="spacing" textLength="7" x="937.9138" y="242.6716">*</text></g><!--MD5=[641f9153c324d46e105c9241ddc56435]
@startuml
hide methods
left to right direction
skinparam classAttributeIconSize 0

class Company {
  -designation
}

class CommunityMassVaccinationCenter {}

class HealthCareCenter {}

class VaccinationCenter {
  -name
  -address
  -emailAddress
  -phone
  -email
  -fax
  -website
}

class Vaccine {}

class VaccineType {
  -id
  -designation
  -whoId
}

class SNSUser {
  - citizenCard
  - snsNumber
  - name
  - birthDay
  - gender
  - phoneNumber
  - email
  - address
}

class Slot {
  -slotDuration
  -maxVacPerSlot
}

class Time {
  -openingHours
  -closingHours
}

class UserHealthData {}

class Employee {}

class Nurse {}

class AGES {}

class ARS {}

class Appointment {
  -snsUser
  -date
  -vaccinationCenter
  -vaccineType
  -sms
}

class Arrival {
  - arrivalDate
}

class VaccineAdministration {
  -snsUser
  -vaccine
  -lotNumber
  -doseNumber
  -vaccinationCenter
  -date
}

Arrival "1" - - "0..1" Appointment : related to >

Vaccine "*" - - "1" VaccineType : has <

Employee <|- - Nurse

Nurse "1" - - "*" UserHealthData : checks >
Nurse "1" - - "*" VaccineAdministration : registers >

VaccinationCenter <|- - CommunityMassVaccinationCenter
VaccinationCenter <|- - HealthCareCenter

VaccinationCenter "1" - - "1" Slot : has >
VaccinationCenter "1" - - "1" Time : has >

HealthCareCenter "*" - - "1" AGES : belongs to > 
HealthCareCenter "*" - - "1" ARS : belongs to > 

Appointment "*" - - "1" VaccinationCenter : is held in >
Appointment "1" - - "1" VaccineType : has a specific >

SNSUser "1" - - "*" Appointment : schedules >
SNSUser "1" - - "*" Arrival : associated to >
SNSUser "1" - - "1" UserHealthData : has >

Company "1" - - "*" Employee : knows >
Company "1" - - "*" VaccinationCenter : knows >
Company "1" - - "*" SNSUser : knows >

VaccineAdministration "*" - - "1" Vaccine : has >
VaccineAdministration "*" - - "1" VaccinationCenter : is held in >

UserHealthData "1" - - "*" VaccineAdministration : has >
@enduml

PlantUML version 1.2022.6beta5(Unknown compile time)
(GPL source distribution)
Java Runtime: Java(TM) SE Runtime Environment
JVM: Java HotSpot(TM) 64-Bit Server VM
Default Encoding: UTF-8
Language: en
Country: US
--></g></svg>