<?xml version="1.0" encoding="UTF-8" standalone="no"?><svg xmlns="http://www.w3.org/2000/svg" xmlns:xlink="http://www.w3.org/1999/xlink" contentStyleType="text/css" height="620px" preserveAspectRatio="none" style="width:2046px;height:620px;background:#FFFFFF;" version="1.1" viewBox="0 0 2046 620" width="2046px" zoomAndPan="magnify"><defs/><g><!--MD5=[02e4b9b7573f1156f41e60aa5b4e25a4]
class Company--><g id="elem_Company"><rect codeLine="5" fill="#F1F1F1" height="56.2969" id="Company" rx="2.5" ry="2.5" style="stroke:#181818;stroke-width:0.5;" width="102" x="7" y="105.5659"/><ellipse cx="22.9" cy="121.5659" fill="#ADD1B2" rx="11" ry="11" style="stroke:#181818;stroke-width:1.0;"/><path d="M25.2438,117.2378 C24.3063,116.8003 23.7125,116.6597 22.8375,116.6597 C20.2125,116.6597 18.2125,118.7378 18.2125,121.4565 L18.2125,122.5815 C18.2125,125.1597 20.3219,127.0503 23.2125,127.0503 C24.4313,127.0503 25.5875,126.7534 26.3375,126.2065 C26.9156,125.8003 27.2438,125.3472 27.2438,124.9565 C27.2438,124.5034 26.8531,124.1128 26.3844,124.1128 C26.1656,124.1128 25.9625,124.1909 25.775,124.3784 C25.3219,124.8628 25.3219,124.8628 25.1344,124.9565 C24.7125,125.2222 24.025,125.3472 23.2594,125.3472 C21.2125,125.3472 19.9156,124.2534 19.9156,122.5503 L19.9156,121.4565 C19.9156,119.6753 21.1656,118.3628 22.9,118.3628 C23.4781,118.3628 24.0875,118.519 24.5563,118.769 C25.0406,119.0503 25.2125,119.269 25.3063,119.6753 C25.3688,120.0815 25.4,120.2065 25.5406,120.3315 C25.6813,120.4722 25.9156,120.5815 26.1344,120.5815 C26.4,120.5815 26.6656,120.4409 26.8375,120.2222 C26.9469,120.0659 26.9781,119.8784 26.9781,119.4565 L26.9781,118.0347 C26.9781,117.5972 26.9625,117.4722 26.8688,117.3159 C26.7125,117.0503 26.4313,116.9097 26.1344,116.9097 C25.8375,116.9097 25.6344,117.0034 25.4156,117.3159 L25.2438,117.2378 Z " fill="#000000"/><text fill="#000000" font-family="sans-serif" font-size="14" lengthAdjust="spacing" textLength="68" x="37.1" y="126.4126">Company</text><line style="stroke:#181818;stroke-width:0.5;" x1="8" x2="108" y1="137.5659" y2="137.5659"/><text fill="#000000" font-family="sans-serif" font-size="14" lengthAdjust="spacing" textLength="90" x="13" y="154.561">-designation</text></g><!--MD5=[56872536300a053cf9fd13853ad6ab1e]
class CommunityMassVaccinationCenter--><g id="elem_CommunityMassVaccinationCenter"><rect codeLine="9" fill="#F1F1F1" height="40" id="CommunityMassVaccinationCenter" rx="2.5" ry="2.5" style="stroke:#181818;stroke-width:0.5;" width="283" x="1543" y="158.5659"/><ellipse cx="1558" cy="174.5659" fill="#ADD1B2" rx="11" ry="11" style="stroke:#181818;stroke-width:1.0;"/><path d="M1560.3438,170.2378 C1559.4063,169.8003 1558.8125,169.6597 1557.9375,169.6597 C1555.3125,169.6597 1553.3125,171.7378 1553.3125,174.4565 L1553.3125,175.5815 C1553.3125,178.1597 1555.4219,180.0503 1558.3125,180.0503 C1559.5313,180.0503 1560.6875,179.7534 1561.4375,179.2065 C1562.0156,178.8003 1562.3438,178.3472 1562.3438,177.9565 C1562.3438,177.5034 1561.9531,177.1128 1561.4844,177.1128 C1561.2656,177.1128 1561.0625,177.1909 1560.875,177.3784 C1560.4219,177.8628 1560.4219,177.8628 1560.2344,177.9565 C1559.8125,178.2222 1559.125,178.3472 1558.3594,178.3472 C1556.3125,178.3472 1555.0156,177.2534 1555.0156,175.5503 L1555.0156,174.4565 C1555.0156,172.6753 1556.2656,171.3628 1558,171.3628 C1558.5781,171.3628 1559.1875,171.519 1559.6563,171.769 C1560.1406,172.0503 1560.3125,172.269 1560.4063,172.6753 C1560.4688,173.0815 1560.5,173.2065 1560.6406,173.3315 C1560.7813,173.4722 1561.0156,173.5815 1561.2344,173.5815 C1561.5,173.5815 1561.7656,173.4409 1561.9375,173.2222 C1562.0469,173.0659 1562.0781,172.8784 1562.0781,172.4565 L1562.0781,171.0347 C1562.0781,170.5972 1562.0625,170.4722 1561.9688,170.3159 C1561.8125,170.0503 1561.5313,169.9097 1561.2344,169.9097 C1560.9375,169.9097 1560.7344,170.0034 1560.5156,170.3159 L1560.3438,170.2378 Z " fill="#000000"/><text fill="#000000" font-family="sans-serif" font-size="14" lengthAdjust="spacing" textLength="251" x="1572" y="179.4126">CommunityMassVaccinationCenter</text><line style="stroke:#181818;stroke-width:0.5;" x1="1544" x2="1825" y1="190.5659" y2="190.5659"/></g><!--MD5=[1db03e903fe0a044a2ca0dcbef10799a]
class HealthCareCenter--><g id="elem_HealthCareCenter"><rect codeLine="11" fill="#F1F1F1" height="40" id="HealthCareCenter" rx="2.5" ry="2.5" style="stroke:#181818;stroke-width:0.5;" width="162" x="1603.5" y="233.5659"/><ellipse cx="1618.5" cy="249.5659" fill="#ADD1B2" rx="11" ry="11" style="stroke:#181818;stroke-width:1.0;"/><path d="M1620.8438,245.2378 C1619.9063,244.8003 1619.3125,244.6597 1618.4375,244.6597 C1615.8125,244.6597 1613.8125,246.7378 1613.8125,249.4565 L1613.8125,250.5815 C1613.8125,253.1597 1615.9219,255.0503 1618.8125,255.0503 C1620.0313,255.0503 1621.1875,254.7534 1621.9375,254.2065 C1622.5156,253.8003 1622.8438,253.3472 1622.8438,252.9565 C1622.8438,252.5034 1622.4531,252.1128 1621.9844,252.1128 C1621.7656,252.1128 1621.5625,252.1909 1621.375,252.3784 C1620.9219,252.8628 1620.9219,252.8628 1620.7344,252.9565 C1620.3125,253.2222 1619.625,253.3472 1618.8594,253.3472 C1616.8125,253.3472 1615.5156,252.2534 1615.5156,250.5503 L1615.5156,249.4565 C1615.5156,247.6753 1616.7656,246.3628 1618.5,246.3628 C1619.0781,246.3628 1619.6875,246.519 1620.1563,246.769 C1620.6406,247.0503 1620.8125,247.269 1620.9063,247.6753 C1620.9688,248.0815 1621,248.2065 1621.1406,248.3315 C1621.2813,248.4722 1621.5156,248.5815 1621.7344,248.5815 C1622,248.5815 1622.2656,248.4409 1622.4375,248.2222 C1622.5469,248.0659 1622.5781,247.8784 1622.5781,247.4565 L1622.5781,246.0347 C1622.5781,245.5972 1622.5625,245.4722 1622.4688,245.3159 C1622.3125,245.0503 1622.0313,244.9097 1621.7344,244.9097 C1621.4375,244.9097 1621.2344,245.0034 1621.0156,245.3159 L1620.8438,245.2378 Z " fill="#000000"/><text fill="#000000" font-family="sans-serif" font-size="14" lengthAdjust="spacing" textLength="130" x="1632.5" y="254.4126">HealthCareCenter</text><line style="stroke:#181818;stroke-width:0.5;" x1="1604.5" x2="1764.5" y1="265.5659" y2="265.5659"/></g><!--MD5=[de60e6d4f424ae4d0522096f76a59010]
class VaccinationCenter--><g id="elem_VaccinationCenter"><rect codeLine="13" fill="#F1F1F1" height="154.0781" id="VaccinationCenter" rx="2.5" ry="2.5" style="stroke:#181818;stroke-width:0.5;" width="166" x="1279" y="176.5659"/><ellipse cx="1294" cy="192.5659" fill="#ADD1B2" rx="11" ry="11" style="stroke:#181818;stroke-width:1.0;"/><path d="M1296.3438,188.2378 C1295.4063,187.8003 1294.8125,187.6597 1293.9375,187.6597 C1291.3125,187.6597 1289.3125,189.7378 1289.3125,192.4565 L1289.3125,193.5815 C1289.3125,196.1597 1291.4219,198.0503 1294.3125,198.0503 C1295.5313,198.0503 1296.6875,197.7534 1297.4375,197.2065 C1298.0156,196.8003 1298.3438,196.3472 1298.3438,195.9565 C1298.3438,195.5034 1297.9531,195.1128 1297.4844,195.1128 C1297.2656,195.1128 1297.0625,195.1909 1296.875,195.3784 C1296.4219,195.8628 1296.4219,195.8628 1296.2344,195.9565 C1295.8125,196.2222 1295.125,196.3472 1294.3594,196.3472 C1292.3125,196.3472 1291.0156,195.2534 1291.0156,193.5503 L1291.0156,192.4565 C1291.0156,190.6753 1292.2656,189.3628 1294,189.3628 C1294.5781,189.3628 1295.1875,189.519 1295.6563,189.769 C1296.1406,190.0503 1296.3125,190.269 1296.4063,190.6753 C1296.4688,191.0815 1296.5,191.2065 1296.6406,191.3315 C1296.7813,191.4722 1297.0156,191.5815 1297.2344,191.5815 C1297.5,191.5815 1297.7656,191.4409 1297.9375,191.2222 C1298.0469,191.0659 1298.0781,190.8784 1298.0781,190.4565 L1298.0781,189.0347 C1298.0781,188.5972 1298.0625,188.4722 1297.9688,188.3159 C1297.8125,188.0503 1297.5313,187.9097 1297.2344,187.9097 C1296.9375,187.9097 1296.7344,188.0034 1296.5156,188.3159 L1296.3438,188.2378 Z " fill="#000000"/><text fill="#000000" font-family="sans-serif" font-size="14" lengthAdjust="spacing" textLength="134" x="1308" y="197.4126">VaccinationCenter</text><line style="stroke:#181818;stroke-width:0.5;" x1="1280" x2="1444" y1="208.5659" y2="208.5659"/><text fill="#000000" font-family="sans-serif" font-size="14" lengthAdjust="spacing" textLength="46" x="1285" y="225.561">-name</text><text fill="#000000" font-family="sans-serif" font-size="14" lengthAdjust="spacing" textLength="61" x="1285" y="241.8579">-address</text><text fill="#000000" font-family="sans-serif" font-size="14" lengthAdjust="spacing" textLength="102" x="1285" y="258.1548">-emailAddress</text><text fill="#000000" font-family="sans-serif" font-size="14" lengthAdjust="spacing" textLength="52" x="1285" y="274.4517">-phone</text><text fill="#000000" font-family="sans-serif" font-size="14" lengthAdjust="spacing" textLength="45" x="1285" y="290.7485">-email</text><text fill="#000000" font-family="sans-serif" font-size="14" lengthAdjust="spacing" textLength="28" x="1285" y="307.0454">-fax</text><text fill="#000000" font-family="sans-serif" font-size="14" lengthAdjust="spacing" textLength="63" x="1285" y="323.3423">-website</text></g><!--MD5=[19e445fc4d3b48519cbe33da05496394]
class Vaccine--><g id="elem_Vaccine"><rect codeLine="23" fill="#F1F1F1" height="40" id="Vaccine" rx="2.5" ry="2.5" style="stroke:#181818;stroke-width:0.5;" width="88" x="1318" y="420.5659"/><ellipse cx="1333" cy="436.5659" fill="#ADD1B2" rx="11" ry="11" style="stroke:#181818;stroke-width:1.0;"/><path d="M1335.3438,432.2378 C1334.4063,431.8003 1333.8125,431.6597 1332.9375,431.6597 C1330.3125,431.6597 1328.3125,433.7378 1328.3125,436.4565 L1328.3125,437.5815 C1328.3125,440.1597 1330.4219,442.0503 1333.3125,442.0503 C1334.5313,442.0503 1335.6875,441.7534 1336.4375,441.2065 C1337.0156,440.8003 1337.3438,440.3472 1337.3438,439.9565 C1337.3438,439.5034 1336.9531,439.1128 1336.4844,439.1128 C1336.2656,439.1128 1336.0625,439.1909 1335.875,439.3784 C1335.4219,439.8628 1335.4219,439.8628 1335.2344,439.9565 C1334.8125,440.2222 1334.125,440.3472 1333.3594,440.3472 C1331.3125,440.3472 1330.0156,439.2534 1330.0156,437.5503 L1330.0156,436.4565 C1330.0156,434.6753 1331.2656,433.3628 1333,433.3628 C1333.5781,433.3628 1334.1875,433.519 1334.6563,433.769 C1335.1406,434.0503 1335.3125,434.269 1335.4063,434.6753 C1335.4688,435.0815 1335.5,435.2065 1335.6406,435.3315 C1335.7813,435.4722 1336.0156,435.5815 1336.2344,435.5815 C1336.5,435.5815 1336.7656,435.4409 1336.9375,435.2222 C1337.0469,435.0659 1337.0781,434.8784 1337.0781,434.4565 L1337.0781,433.0347 C1337.0781,432.5972 1337.0625,432.4722 1336.9688,432.3159 C1336.8125,432.0503 1336.5313,431.9097 1336.2344,431.9097 C1335.9375,431.9097 1335.7344,432.0034 1335.5156,432.3159 L1335.3438,432.2378 Z " fill="#000000"/><text fill="#000000" font-family="sans-serif" font-size="14" lengthAdjust="spacing" textLength="56" x="1347" y="441.4126">Vaccine</text><line style="stroke:#181818;stroke-width:0.5;" x1="1319" x2="1405" y1="452.5659" y2="452.5659"/></g><!--MD5=[0e501da62322464167c8ec4d233a6b7e]
class VaccineType--><g id="elem_VaccineType"><rect codeLine="25" fill="#F1F1F1" height="88.8906" id="VaccineType" rx="2.5" ry="2.5" style="stroke:#181818;stroke-width:0.5;" width="124" x="1622.5" y="525.0659"/><ellipse cx="1637.5" cy="541.0659" fill="#ADD1B2" rx="11" ry="11" style="stroke:#181818;stroke-width:1.0;"/><path d="M1639.8438,536.7378 C1638.9063,536.3003 1638.3125,536.1597 1637.4375,536.1597 C1634.8125,536.1597 1632.8125,538.2378 1632.8125,540.9565 L1632.8125,542.0815 C1632.8125,544.6597 1634.9219,546.5503 1637.8125,546.5503 C1639.0313,546.5503 1640.1875,546.2534 1640.9375,545.7065 C1641.5156,545.3003 1641.8438,544.8472 1641.8438,544.4565 C1641.8438,544.0034 1641.4531,543.6128 1640.9844,543.6128 C1640.7656,543.6128 1640.5625,543.6909 1640.375,543.8784 C1639.9219,544.3628 1639.9219,544.3628 1639.7344,544.4565 C1639.3125,544.7222 1638.625,544.8472 1637.8594,544.8472 C1635.8125,544.8472 1634.5156,543.7534 1634.5156,542.0503 L1634.5156,540.9565 C1634.5156,539.1753 1635.7656,537.8628 1637.5,537.8628 C1638.0781,537.8628 1638.6875,538.019 1639.1563,538.269 C1639.6406,538.5503 1639.8125,538.769 1639.9063,539.1753 C1639.9688,539.5815 1640,539.7065 1640.1406,539.8315 C1640.2813,539.9722 1640.5156,540.0815 1640.7344,540.0815 C1641,540.0815 1641.2656,539.9409 1641.4375,539.7222 C1641.5469,539.5659 1641.5781,539.3784 1641.5781,538.9565 L1641.5781,537.5347 C1641.5781,537.0972 1641.5625,536.9722 1641.4688,536.8159 C1641.3125,536.5503 1641.0313,536.4097 1640.7344,536.4097 C1640.4375,536.4097 1640.2344,536.5034 1640.0156,536.8159 L1639.8438,536.7378 Z " fill="#000000"/><text fill="#000000" font-family="sans-serif" font-size="14" lengthAdjust="spacing" textLength="92" x="1651.5" y="545.9126">VaccineType</text><line style="stroke:#181818;stroke-width:0.5;" x1="1623.5" x2="1745.5" y1="557.0659" y2="557.0659"/><text fill="#000000" font-family="sans-serif" font-size="14" lengthAdjust="spacing" textLength="19" x="1628.5" y="574.061">-id</text><text fill="#000000" font-family="sans-serif" font-size="14" lengthAdjust="spacing" textLength="90" x="1628.5" y="590.3579">-designation</text><text fill="#000000" font-family="sans-serif" font-size="14" lengthAdjust="spacing" textLength="48" x="1628.5" y="606.6548">-whoId</text></g><!--MD5=[72be06cc7ae02ccc98efe28a50e62246]
class SNSUser--><g id="elem_SNSUser"><rect codeLine="31" fill="#F1F1F1" height="170.375" id="SNSUser" rx="2.5" ry="2.5" style="stroke:#181818;stroke-width:0.5;" width="121" x="390" y="237.5659"/><ellipse cx="418.5" cy="253.5659" fill="#ADD1B2" rx="11" ry="11" style="stroke:#181818;stroke-width:1.0;"/><path d="M420.8438,249.2378 C419.9063,248.8003 419.3125,248.6597 418.4375,248.6597 C415.8125,248.6597 413.8125,250.7378 413.8125,253.4565 L413.8125,254.5815 C413.8125,257.1597 415.9219,259.0503 418.8125,259.0503 C420.0313,259.0503 421.1875,258.7534 421.9375,258.2065 C422.5156,257.8003 422.8438,257.3472 422.8438,256.9565 C422.8438,256.5034 422.4531,256.1128 421.9844,256.1128 C421.7656,256.1128 421.5625,256.1909 421.375,256.3784 C420.9219,256.8628 420.9219,256.8628 420.7344,256.9565 C420.3125,257.2222 419.625,257.3472 418.8594,257.3472 C416.8125,257.3472 415.5156,256.2534 415.5156,254.5503 L415.5156,253.4565 C415.5156,251.6753 416.7656,250.3628 418.5,250.3628 C419.0781,250.3628 419.6875,250.519 420.1563,250.769 C420.6406,251.0503 420.8125,251.269 420.9063,251.6753 C420.9688,252.0815 421,252.2065 421.1406,252.3315 C421.2813,252.4722 421.5156,252.5815 421.7344,252.5815 C422,252.5815 422.2656,252.4409 422.4375,252.2222 C422.5469,252.0659 422.5781,251.8784 422.5781,251.4565 L422.5781,250.0347 C422.5781,249.5972 422.5625,249.4722 422.4688,249.3159 C422.3125,249.0503 422.0313,248.9097 421.7344,248.9097 C421.4375,248.9097 421.2344,249.0034 421.0156,249.3159 L420.8438,249.2378 Z " fill="#000000"/><text fill="#000000" font-family="sans-serif" font-size="14" lengthAdjust="spacing" textLength="59" x="435.5" y="258.4126">SNSUser</text><line style="stroke:#181818;stroke-width:0.5;" x1="391" x2="510" y1="269.5659" y2="269.5659"/><text fill="#000000" font-family="sans-serif" font-size="14" lengthAdjust="spacing" textLength="88" x="396" y="286.561">-citizenCard</text><text fill="#000000" font-family="sans-serif" font-size="14" lengthAdjust="spacing" textLength="86" x="396" y="302.8579">-snsNumber</text><text fill="#000000" font-family="sans-serif" font-size="14" lengthAdjust="spacing" textLength="46" x="396" y="319.1548">-name</text><text fill="#000000" font-family="sans-serif" font-size="14" lengthAdjust="spacing" textLength="69" x="396" y="335.4517">-birthDay</text><text fill="#000000" font-family="sans-serif" font-size="14" lengthAdjust="spacing" textLength="57" x="396" y="351.7485">-gender</text><text fill="#000000" font-family="sans-serif" font-size="14" lengthAdjust="spacing" textLength="109" x="396" y="368.0454">-phoneNumber</text><text fill="#000000" font-family="sans-serif" font-size="14" lengthAdjust="spacing" textLength="45" x="396" y="384.3423">-email</text><text fill="#000000" font-family="sans-serif" font-size="14" lengthAdjust="spacing" textLength="61" x="396" y="400.6392">-address</text></g><!--MD5=[45c6380d22fb72521f5065026b277fb9]
class Slot--><g id="elem_Slot"><rect codeLine="42" fill="#F1F1F1" height="72.5938" id="Slot" rx="2.5" ry="2.5" style="stroke:#181818;stroke-width:0.5;" width="127" x="1621" y="309.0659"/><ellipse cx="1665.75" cy="325.0659" fill="#ADD1B2" rx="11" ry="11" style="stroke:#181818;stroke-width:1.0;"/><path d="M1668.0938,320.7378 C1667.1563,320.3003 1666.5625,320.1597 1665.6875,320.1597 C1663.0625,320.1597 1661.0625,322.2378 1661.0625,324.9565 L1661.0625,326.0815 C1661.0625,328.6597 1663.1719,330.5503 1666.0625,330.5503 C1667.2813,330.5503 1668.4375,330.2534 1669.1875,329.7065 C1669.7656,329.3003 1670.0938,328.8472 1670.0938,328.4565 C1670.0938,328.0034 1669.7031,327.6128 1669.2344,327.6128 C1669.0156,327.6128 1668.8125,327.6909 1668.625,327.8784 C1668.1719,328.3628 1668.1719,328.3628 1667.9844,328.4565 C1667.5625,328.7222 1666.875,328.8472 1666.1094,328.8472 C1664.0625,328.8472 1662.7656,327.7534 1662.7656,326.0503 L1662.7656,324.9565 C1662.7656,323.1753 1664.0156,321.8628 1665.75,321.8628 C1666.3281,321.8628 1666.9375,322.019 1667.4063,322.269 C1667.8906,322.5503 1668.0625,322.769 1668.1563,323.1753 C1668.2188,323.5815 1668.25,323.7065 1668.3906,323.8315 C1668.5313,323.9722 1668.7656,324.0815 1668.9844,324.0815 C1669.25,324.0815 1669.5156,323.9409 1669.6875,323.7222 C1669.7969,323.5659 1669.8281,323.3784 1669.8281,322.9565 L1669.8281,321.5347 C1669.8281,321.0972 1669.8125,320.9722 1669.7188,320.8159 C1669.5625,320.5503 1669.2813,320.4097 1668.9844,320.4097 C1668.6875,320.4097 1668.4844,320.5034 1668.2656,320.8159 L1668.0938,320.7378 Z " fill="#000000"/><text fill="#000000" font-family="sans-serif" font-size="14" lengthAdjust="spacing" textLength="29" x="1686.25" y="329.9126">Slot</text><line style="stroke:#181818;stroke-width:0.5;" x1="1622" x2="1747" y1="341.0659" y2="341.0659"/><text fill="#000000" font-family="sans-serif" font-size="14" lengthAdjust="spacing" textLength="95" x="1627" y="358.061">-slotDuration</text><text fill="#000000" font-family="sans-serif" font-size="14" lengthAdjust="spacing" textLength="115" x="1627" y="374.3579">-maxVacPerSlot</text></g><!--MD5=[2e42295458bb0bec21c9622a623eb29e]
class Time--><g id="elem_Time"><rect codeLine="47" fill="#F1F1F1" height="72.5938" id="Time" rx="2.5" ry="2.5" style="stroke:#181818;stroke-width:0.5;" width="117" x="1626" y="417.0659"/><ellipse cx="1663.05" cy="433.0659" fill="#ADD1B2" rx="11" ry="11" style="stroke:#181818;stroke-width:1.0;"/><path d="M1665.3938,428.7378 C1664.4563,428.3003 1663.8625,428.1597 1662.9875,428.1597 C1660.3625,428.1597 1658.3625,430.2378 1658.3625,432.9565 L1658.3625,434.0815 C1658.3625,436.6597 1660.4719,438.5503 1663.3625,438.5503 C1664.5813,438.5503 1665.7375,438.2534 1666.4875,437.7065 C1667.0656,437.3003 1667.3938,436.8472 1667.3938,436.4565 C1667.3938,436.0034 1667.0031,435.6128 1666.5344,435.6128 C1666.3156,435.6128 1666.1125,435.6909 1665.925,435.8784 C1665.4719,436.3628 1665.4719,436.3628 1665.2844,436.4565 C1664.8625,436.7222 1664.175,436.8472 1663.4094,436.8472 C1661.3625,436.8472 1660.0656,435.7534 1660.0656,434.0503 L1660.0656,432.9565 C1660.0656,431.1753 1661.3156,429.8628 1663.05,429.8628 C1663.6281,429.8628 1664.2375,430.019 1664.7063,430.269 C1665.1906,430.5503 1665.3625,430.769 1665.4563,431.1753 C1665.5188,431.5815 1665.55,431.7065 1665.6906,431.8315 C1665.8313,431.9722 1666.0656,432.0815 1666.2844,432.0815 C1666.55,432.0815 1666.8156,431.9409 1666.9875,431.7222 C1667.0969,431.5659 1667.1281,431.3784 1667.1281,430.9565 L1667.1281,429.5347 C1667.1281,429.0972 1667.1125,428.9722 1667.0188,428.8159 C1666.8625,428.5503 1666.5813,428.4097 1666.2844,428.4097 C1665.9875,428.4097 1665.7844,428.5034 1665.5656,428.8159 L1665.3938,428.7378 Z " fill="#000000"/><text fill="#000000" font-family="sans-serif" font-size="14" lengthAdjust="spacing" textLength="36" x="1681.95" y="437.9126">Time</text><line style="stroke:#181818;stroke-width:0.5;" x1="1627" x2="1742" y1="449.0659" y2="449.0659"/><text fill="#000000" font-family="sans-serif" font-size="14" lengthAdjust="spacing" textLength="105" x="1632" y="466.061">-openingHours</text><text fill="#000000" font-family="sans-serif" font-size="14" lengthAdjust="spacing" textLength="96" x="1632" y="482.3579">-closingHours</text></g><!--MD5=[3295f5e61508e1eafd2783308a1a48b5]
class UserHealthData--><g id="elem_UserHealthData"><rect codeLine="52" fill="#F1F1F1" height="40" id="UserHealthData" rx="2.5" ry="2.5" style="stroke:#181818;stroke-width:0.5;" width="144" x="672" y="235.5659"/><ellipse cx="687" cy="251.5659" fill="#ADD1B2" rx="11" ry="11" style="stroke:#181818;stroke-width:1.0;"/><path d="M689.3438,247.2378 C688.4063,246.8003 687.8125,246.6597 686.9375,246.6597 C684.3125,246.6597 682.3125,248.7378 682.3125,251.4565 L682.3125,252.5815 C682.3125,255.1597 684.4219,257.0503 687.3125,257.0503 C688.5313,257.0503 689.6875,256.7534 690.4375,256.2065 C691.0156,255.8003 691.3438,255.3472 691.3438,254.9565 C691.3438,254.5034 690.9531,254.1128 690.4844,254.1128 C690.2656,254.1128 690.0625,254.1909 689.875,254.3784 C689.4219,254.8628 689.4219,254.8628 689.2344,254.9565 C688.8125,255.2222 688.125,255.3472 687.3594,255.3472 C685.3125,255.3472 684.0156,254.2534 684.0156,252.5503 L684.0156,251.4565 C684.0156,249.6753 685.2656,248.3628 687,248.3628 C687.5781,248.3628 688.1875,248.519 688.6563,248.769 C689.1406,249.0503 689.3125,249.269 689.4063,249.6753 C689.4688,250.0815 689.5,250.2065 689.6406,250.3315 C689.7813,250.4722 690.0156,250.5815 690.2344,250.5815 C690.5,250.5815 690.7656,250.4409 690.9375,250.2222 C691.0469,250.0659 691.0781,249.8784 691.0781,249.4565 L691.0781,248.0347 C691.0781,247.5972 691.0625,247.4722 690.9688,247.3159 C690.8125,247.0503 690.5313,246.9097 690.2344,246.9097 C689.9375,246.9097 689.7344,247.0034 689.5156,247.3159 L689.3438,247.2378 Z " fill="#000000"/><text fill="#000000" font-family="sans-serif" font-size="14" lengthAdjust="spacing" textLength="112" x="701" y="256.4126">UserHealthData</text><line style="stroke:#181818;stroke-width:0.5;" x1="673" x2="815" y1="267.5659" y2="267.5659"/></g><!--MD5=[7421f545a0d8420c5bec41e74b387d9c]
class Employee--><g id="elem_Employee"><rect codeLine="54" fill="#F1F1F1" height="40" id="Employee" rx="2.5" ry="2.5" style="stroke:#181818;stroke-width:0.5;" width="104" x="225" y="113.5659"/><ellipse cx="240" cy="129.5659" fill="#ADD1B2" rx="11" ry="11" style="stroke:#181818;stroke-width:1.0;"/><path d="M242.3438,125.2378 C241.4063,124.8003 240.8125,124.6597 239.9375,124.6597 C237.3125,124.6597 235.3125,126.7378 235.3125,129.4565 L235.3125,130.5815 C235.3125,133.1597 237.4219,135.0503 240.3125,135.0503 C241.5313,135.0503 242.6875,134.7534 243.4375,134.2065 C244.0156,133.8003 244.3438,133.3472 244.3438,132.9565 C244.3438,132.5034 243.9531,132.1128 243.4844,132.1128 C243.2656,132.1128 243.0625,132.1909 242.875,132.3784 C242.4219,132.8628 242.4219,132.8628 242.2344,132.9565 C241.8125,133.2222 241.125,133.3472 240.3594,133.3472 C238.3125,133.3472 237.0156,132.2534 237.0156,130.5503 L237.0156,129.4565 C237.0156,127.6753 238.2656,126.3628 240,126.3628 C240.5781,126.3628 241.1875,126.519 241.6563,126.769 C242.1406,127.0503 242.3125,127.269 242.4063,127.6753 C242.4688,128.0815 242.5,128.2065 242.6406,128.3315 C242.7813,128.4722 243.0156,128.5815 243.2344,128.5815 C243.5,128.5815 243.7656,128.4409 243.9375,128.2222 C244.0469,128.0659 244.0781,127.8784 244.0781,127.4565 L244.0781,126.0347 C244.0781,125.5972 244.0625,125.4722 243.9688,125.3159 C243.8125,125.0503 243.5313,124.9097 243.2344,124.9097 C242.9375,124.9097 242.7344,125.0034 242.5156,125.3159 L242.3438,125.2378 Z " fill="#000000"/><text fill="#000000" font-family="sans-serif" font-size="14" lengthAdjust="spacing" textLength="72" x="254" y="134.4126">Employee</text><line style="stroke:#181818;stroke-width:0.5;" x1="226" x2="328" y1="145.5659" y2="145.5659"/></g><!--MD5=[a059576e163b46f56762f12600c49258]
class Nurse--><g id="elem_Nurse"><rect codeLine="56" fill="#F1F1F1" height="40" id="Nurse" rx="2.5" ry="2.5" style="stroke:#181818;stroke-width:0.5;" width="72" x="414.5" y="147.5659"/><ellipse cx="429.5" cy="163.5659" fill="#ADD1B2" rx="11" ry="11" style="stroke:#181818;stroke-width:1.0;"/><path d="M431.8438,159.2378 C430.9063,158.8003 430.3125,158.6597 429.4375,158.6597 C426.8125,158.6597 424.8125,160.7378 424.8125,163.4565 L424.8125,164.5815 C424.8125,167.1597 426.9219,169.0503 429.8125,169.0503 C431.0313,169.0503 432.1875,168.7534 432.9375,168.2065 C433.5156,167.8003 433.8438,167.3472 433.8438,166.9565 C433.8438,166.5034 433.4531,166.1128 432.9844,166.1128 C432.7656,166.1128 432.5625,166.1909 432.375,166.3784 C431.9219,166.8628 431.9219,166.8628 431.7344,166.9565 C431.3125,167.2222 430.625,167.3472 429.8594,167.3472 C427.8125,167.3472 426.5156,166.2534 426.5156,164.5503 L426.5156,163.4565 C426.5156,161.6753 427.7656,160.3628 429.5,160.3628 C430.0781,160.3628 430.6875,160.519 431.1563,160.769 C431.6406,161.0503 431.8125,161.269 431.9063,161.6753 C431.9688,162.0815 432,162.2065 432.1406,162.3315 C432.2813,162.4722 432.5156,162.5815 432.7344,162.5815 C433,162.5815 433.2656,162.4409 433.4375,162.2222 C433.5469,162.0659 433.5781,161.8784 433.5781,161.4565 L433.5781,160.0347 C433.5781,159.5972 433.5625,159.4722 433.4688,159.3159 C433.3125,159.0503 433.0313,158.9097 432.7344,158.9097 C432.4375,158.9097 432.2344,159.0034 432.0156,159.3159 L431.8438,159.2378 Z " fill="#000000"/><text fill="#000000" font-family="sans-serif" font-size="14" lengthAdjust="spacing" textLength="40" x="443.5" y="168.4126">Nurse</text><line style="stroke:#181818;stroke-width:0.5;" x1="415.5" x2="485.5" y1="179.5659" y2="179.5659"/></g><!--MD5=[3d99830c51f2312653ffa5f597e45238]
class AGES--><g id="elem_AGES"><rect codeLine="58" fill="#F1F1F1" height="40" id="AGES" rx="2.5" ry="2.5" style="stroke:#181818;stroke-width:0.5;" width="71" x="1968" y="195.5659"/><ellipse cx="1983" cy="211.5659" fill="#ADD1B2" rx="11" ry="11" style="stroke:#181818;stroke-width:1.0;"/><path d="M1985.3438,207.2378 C1984.4063,206.8003 1983.8125,206.6597 1982.9375,206.6597 C1980.3125,206.6597 1978.3125,208.7378 1978.3125,211.4565 L1978.3125,212.5815 C1978.3125,215.1597 1980.4219,217.0503 1983.3125,217.0503 C1984.5313,217.0503 1985.6875,216.7534 1986.4375,216.2065 C1987.0156,215.8003 1987.3438,215.3472 1987.3438,214.9565 C1987.3438,214.5034 1986.9531,214.1128 1986.4844,214.1128 C1986.2656,214.1128 1986.0625,214.1909 1985.875,214.3784 C1985.4219,214.8628 1985.4219,214.8628 1985.2344,214.9565 C1984.8125,215.2222 1984.125,215.3472 1983.3594,215.3472 C1981.3125,215.3472 1980.0156,214.2534 1980.0156,212.5503 L1980.0156,211.4565 C1980.0156,209.6753 1981.2656,208.3628 1983,208.3628 C1983.5781,208.3628 1984.1875,208.519 1984.6563,208.769 C1985.1406,209.0503 1985.3125,209.269 1985.4063,209.6753 C1985.4688,210.0815 1985.5,210.2065 1985.6406,210.3315 C1985.7813,210.4722 1986.0156,210.5815 1986.2344,210.5815 C1986.5,210.5815 1986.7656,210.4409 1986.9375,210.2222 C1987.0469,210.0659 1987.0781,209.8784 1987.0781,209.4565 L1987.0781,208.0347 C1987.0781,207.5972 1987.0625,207.4722 1986.9688,207.3159 C1986.8125,207.0503 1986.5313,206.9097 1986.2344,206.9097 C1985.9375,206.9097 1985.7344,207.0034 1985.5156,207.3159 L1985.3438,207.2378 Z " fill="#000000"/><text fill="#000000" font-family="sans-serif" font-size="14" lengthAdjust="spacing" textLength="39" x="1997" y="216.4126">AGES</text><line style="stroke:#181818;stroke-width:0.5;" x1="1969" x2="2038" y1="227.5659" y2="227.5659"/></g><!--MD5=[f44bde12c85835f4e3e4c64f18a8c09c]
class ARS--><g id="elem_ARS"><rect codeLine="60" fill="#F1F1F1" height="40" id="ARS" rx="2.5" ry="2.5" style="stroke:#181818;stroke-width:0.5;" width="61" x="1973" y="270.5659"/><ellipse cx="1988" cy="286.5659" fill="#ADD1B2" rx="11" ry="11" style="stroke:#181818;stroke-width:1.0;"/><path d="M1990.3438,282.2378 C1989.4063,281.8003 1988.8125,281.6597 1987.9375,281.6597 C1985.3125,281.6597 1983.3125,283.7378 1983.3125,286.4565 L1983.3125,287.5815 C1983.3125,290.1597 1985.4219,292.0503 1988.3125,292.0503 C1989.5313,292.0503 1990.6875,291.7534 1991.4375,291.2065 C1992.0156,290.8003 1992.3438,290.3472 1992.3438,289.9565 C1992.3438,289.5034 1991.9531,289.1128 1991.4844,289.1128 C1991.2656,289.1128 1991.0625,289.1909 1990.875,289.3784 C1990.4219,289.8628 1990.4219,289.8628 1990.2344,289.9565 C1989.8125,290.2222 1989.125,290.3472 1988.3594,290.3472 C1986.3125,290.3472 1985.0156,289.2534 1985.0156,287.5503 L1985.0156,286.4565 C1985.0156,284.6753 1986.2656,283.3628 1988,283.3628 C1988.5781,283.3628 1989.1875,283.519 1989.6563,283.769 C1990.1406,284.0503 1990.3125,284.269 1990.4063,284.6753 C1990.4688,285.0815 1990.5,285.2065 1990.6406,285.3315 C1990.7813,285.4722 1991.0156,285.5815 1991.2344,285.5815 C1991.5,285.5815 1991.7656,285.4409 1991.9375,285.2222 C1992.0469,285.0659 1992.0781,284.8784 1992.0781,284.4565 L1992.0781,283.0347 C1992.0781,282.5972 1992.0625,282.4722 1991.9688,282.3159 C1991.8125,282.0503 1991.5313,281.9097 1991.2344,281.9097 C1990.9375,281.9097 1990.7344,282.0034 1990.5156,282.3159 L1990.3438,282.2378 Z " fill="#000000"/><text fill="#000000" font-family="sans-serif" font-size="14" lengthAdjust="spacing" textLength="29" x="2002" y="291.4126">ARS</text><line style="stroke:#181818;stroke-width:0.5;" x1="1974" x2="2033" y1="302.5659" y2="302.5659"/></g><!--MD5=[c508b5b6bbe276ff5e2700b6641f837f]
class Appointment--><g id="elem_Appointment"><rect codeLine="62" fill="#F1F1F1" height="121.4844" id="Appointment" rx="2.5" ry="2.5" style="stroke:#181818;stroke-width:0.5;" width="150" x="975.5" y="358.0659"/><ellipse cx="999.5" cy="374.0659" fill="#ADD1B2" rx="11" ry="11" style="stroke:#181818;stroke-width:1.0;"/><path d="M1001.8438,369.7378 C1000.9063,369.3003 1000.3125,369.1597 999.4375,369.1597 C996.8125,369.1597 994.8125,371.2378 994.8125,373.9565 L994.8125,375.0815 C994.8125,377.6597 996.9219,379.5503 999.8125,379.5503 C1001.0313,379.5503 1002.1875,379.2534 1002.9375,378.7065 C1003.5156,378.3003 1003.8438,377.8472 1003.8438,377.4565 C1003.8438,377.0034 1003.4531,376.6128 1002.9844,376.6128 C1002.7656,376.6128 1002.5625,376.6909 1002.375,376.8784 C1001.9219,377.3628 1001.9219,377.3628 1001.7344,377.4565 C1001.3125,377.7222 1000.625,377.8472 999.8594,377.8472 C997.8125,377.8472 996.5156,376.7534 996.5156,375.0503 L996.5156,373.9565 C996.5156,372.1753 997.7656,370.8628 999.5,370.8628 C1000.0781,370.8628 1000.6875,371.019 1001.1563,371.269 C1001.6406,371.5503 1001.8125,371.769 1001.9063,372.1753 C1001.9688,372.5815 1002,372.7065 1002.1406,372.8315 C1002.2813,372.9722 1002.5156,373.0815 1002.7344,373.0815 C1003,373.0815 1003.2656,372.9409 1003.4375,372.7222 C1003.5469,372.5659 1003.5781,372.3784 1003.5781,371.9565 L1003.5781,370.5347 C1003.5781,370.0972 1003.5625,369.9722 1003.4688,369.8159 C1003.3125,369.5503 1003.0313,369.4097 1002.7344,369.4097 C1002.4375,369.4097 1002.2344,369.5034 1002.0156,369.8159 L1001.8438,369.7378 Z " fill="#000000"/><text fill="#000000" font-family="sans-serif" font-size="14" lengthAdjust="spacing" textLength="98" x="1015.5" y="378.9126">Appointment</text><line style="stroke:#181818;stroke-width:0.5;" x1="976.5" x2="1124.5" y1="390.0659" y2="390.0659"/><text fill="#000000" font-family="sans-serif" font-size="14" lengthAdjust="spacing" textLength="60" x="981.5" y="407.061">-snsUser</text><text fill="#000000" font-family="sans-serif" font-size="14" lengthAdjust="spacing" textLength="39" x="981.5" y="423.3579">-date</text><text fill="#000000" font-family="sans-serif" font-size="14" lengthAdjust="spacing" textLength="138" x="981.5" y="439.6548">-vaccinationCenter</text><text fill="#000000" font-family="sans-serif" font-size="14" lengthAdjust="spacing" textLength="96" x="981.5" y="455.9517">-vaccineType</text><text fill="#000000" font-family="sans-serif" font-size="14" lengthAdjust="spacing" textLength="34" x="981.5" y="472.2485">-sms</text></g><!--MD5=[950bab46f39ba9ae59885963abb53c18]
class Arrival--><g id="elem_Arrival"><rect codeLine="70" fill="#F1F1F1" height="56.2969" id="Arrival" rx="2.5" ry="2.5" style="stroke:#181818;stroke-width:0.5;" width="97" x="695.5" y="310.5659"/><ellipse cx="719.05" cy="326.5659" fill="#ADD1B2" rx="11" ry="11" style="stroke:#181818;stroke-width:1.0;"/><path d="M721.3938,322.2378 C720.4563,321.8003 719.8625,321.6597 718.9875,321.6597 C716.3625,321.6597 714.3625,323.7378 714.3625,326.4565 L714.3625,327.5815 C714.3625,330.1597 716.4719,332.0503 719.3625,332.0503 C720.5813,332.0503 721.7375,331.7534 722.4875,331.2065 C723.0656,330.8003 723.3938,330.3472 723.3938,329.9565 C723.3938,329.5034 723.0031,329.1128 722.5344,329.1128 C722.3156,329.1128 722.1125,329.1909 721.925,329.3784 C721.4719,329.8628 721.4719,329.8628 721.2844,329.9565 C720.8625,330.2222 720.175,330.3472 719.4094,330.3472 C717.3625,330.3472 716.0656,329.2534 716.0656,327.5503 L716.0656,326.4565 C716.0656,324.6753 717.3156,323.3628 719.05,323.3628 C719.6281,323.3628 720.2375,323.519 720.7063,323.769 C721.1906,324.0503 721.3625,324.269 721.4563,324.6753 C721.5188,325.0815 721.55,325.2065 721.6906,325.3315 C721.8313,325.4722 722.0656,325.5815 722.2844,325.5815 C722.55,325.5815 722.8156,325.4409 722.9875,325.2222 C723.0969,325.0659 723.1281,324.8784 723.1281,324.4565 L723.1281,323.0347 C723.1281,322.5972 723.1125,322.4722 723.0188,322.3159 C722.8625,322.0503 722.5813,321.9097 722.2844,321.9097 C721.9875,321.9097 721.7844,322.0034 721.5656,322.3159 L721.3938,322.2378 Z " fill="#000000"/><text fill="#000000" font-family="sans-serif" font-size="14" lengthAdjust="spacing" textLength="46" x="734.95" y="331.4126">Arrival</text><line style="stroke:#181818;stroke-width:0.5;" x1="696.5" x2="791.5" y1="342.5659" y2="342.5659"/><text fill="#000000" font-family="sans-serif" font-size="14" lengthAdjust="spacing" textLength="85" x="701.5" y="359.561">-arrivalDate</text></g><!--MD5=[107cfa23aa516ff83d0cf17a6f9fe7ba]
class VaccineAdministration--><g id="elem_VaccineAdministration"><rect codeLine="74" fill="#F1F1F1" height="137.7813" id="VaccineAdministration" rx="2.5" ry="2.5" style="stroke:#181818;stroke-width:0.5;" width="195" x="953" y="184.5659"/><ellipse cx="968" cy="200.5659" fill="#ADD1B2" rx="11" ry="11" style="stroke:#181818;stroke-width:1.0;"/><path d="M970.3438,196.2378 C969.4063,195.8003 968.8125,195.6597 967.9375,195.6597 C965.3125,195.6597 963.3125,197.7378 963.3125,200.4565 L963.3125,201.5815 C963.3125,204.1597 965.4219,206.0503 968.3125,206.0503 C969.5313,206.0503 970.6875,205.7534 971.4375,205.2065 C972.0156,204.8003 972.3438,204.3472 972.3438,203.9565 C972.3438,203.5034 971.9531,203.1128 971.4844,203.1128 C971.2656,203.1128 971.0625,203.1909 970.875,203.3784 C970.4219,203.8628 970.4219,203.8628 970.2344,203.9565 C969.8125,204.2222 969.125,204.3472 968.3594,204.3472 C966.3125,204.3472 965.0156,203.2534 965.0156,201.5503 L965.0156,200.4565 C965.0156,198.6753 966.2656,197.3628 968,197.3628 C968.5781,197.3628 969.1875,197.519 969.6563,197.769 C970.1406,198.0503 970.3125,198.269 970.4063,198.6753 C970.4688,199.0815 970.5,199.2065 970.6406,199.3315 C970.7813,199.4722 971.0156,199.5815 971.2344,199.5815 C971.5,199.5815 971.7656,199.4409 971.9375,199.2222 C972.0469,199.0659 972.0781,198.8784 972.0781,198.4565 L972.0781,197.0347 C972.0781,196.5972 972.0625,196.4722 971.9688,196.3159 C971.8125,196.0503 971.5313,195.9097 971.2344,195.9097 C970.9375,195.9097 970.7344,196.0034 970.5156,196.3159 L970.3438,196.2378 Z " fill="#000000"/><text fill="#000000" font-family="sans-serif" font-size="14" lengthAdjust="spacing" textLength="163" x="982" y="205.4126">VaccineAdministration</text><line style="stroke:#181818;stroke-width:0.5;" x1="954" x2="1147" y1="216.5659" y2="216.5659"/><text fill="#000000" font-family="sans-serif" font-size="14" lengthAdjust="spacing" textLength="60" x="959" y="233.561">-snsUser</text><text fill="#000000" font-family="sans-serif" font-size="14" lengthAdjust="spacing" textLength="60" x="959" y="249.8579">-vaccine</text><text fill="#000000" font-family="sans-serif" font-size="14" lengthAdjust="spacing" textLength="83" x="959" y="266.1548">-lotNumber</text><text fill="#000000" font-family="sans-serif" font-size="14" lengthAdjust="spacing" textLength="97" x="959" y="282.4517">-doseNumber</text><text fill="#000000" font-family="sans-serif" font-size="14" lengthAdjust="spacing" textLength="138" x="959" y="298.7485">-vaccinationCenter</text><text fill="#000000" font-family="sans-serif" font-size="14" lengthAdjust="spacing" textLength="39" x="959" y="315.0454">-date</text></g><!--MD5=[0f39e4cb6f03951afbf6d14bd2505654]
class Address--><g id="elem_Address"><rect codeLine="83" fill="#F1F1F1" height="105.1875" id="Address" rx="2.5" ry="2.5" style="stroke:#181818;stroke-width:0.5;" width="108" x="1630.5" y="18.0659"/><ellipse cx="1654.05" cy="34.0659" fill="#ADD1B2" rx="11" ry="11" style="stroke:#181818;stroke-width:1.0;"/><path d="M1656.3938,29.7378 C1655.4563,29.3003 1654.8625,29.1597 1653.9875,29.1597 C1651.3625,29.1597 1649.3625,31.2378 1649.3625,33.9565 L1649.3625,35.0815 C1649.3625,37.6597 1651.4719,39.5503 1654.3625,39.5503 C1655.5813,39.5503 1656.7375,39.2534 1657.4875,38.7065 C1658.0656,38.3003 1658.3938,37.8472 1658.3938,37.4565 C1658.3938,37.0034 1658.0031,36.6128 1657.5344,36.6128 C1657.3156,36.6128 1657.1125,36.6909 1656.925,36.8784 C1656.4719,37.3628 1656.4719,37.3628 1656.2844,37.4565 C1655.8625,37.7222 1655.175,37.8472 1654.4094,37.8472 C1652.3625,37.8472 1651.0656,36.7534 1651.0656,35.0503 L1651.0656,33.9565 C1651.0656,32.1753 1652.3156,30.8628 1654.05,30.8628 C1654.6281,30.8628 1655.2375,31.019 1655.7063,31.269 C1656.1906,31.5503 1656.3625,31.769 1656.4563,32.1753 C1656.5188,32.5815 1656.55,32.7065 1656.6906,32.8315 C1656.8313,32.9722 1657.0656,33.0815 1657.2844,33.0815 C1657.55,33.0815 1657.8156,32.9409 1657.9875,32.7222 C1658.0969,32.5659 1658.1281,32.3784 1658.1281,31.9565 L1658.1281,30.5347 C1658.1281,30.0972 1658.1125,29.9722 1658.0188,29.8159 C1657.8625,29.5503 1657.5813,29.4097 1657.2844,29.4097 C1656.9875,29.4097 1656.7844,29.5034 1656.5656,29.8159 L1656.3938,29.7378 Z " fill="#000000"/><text fill="#000000" font-family="sans-serif" font-size="14" lengthAdjust="spacing" textLength="57" x="1669.95" y="38.9126">Address</text><line style="stroke:#181818;stroke-width:0.5;" x1="1631.5" x2="1737.5" y1="50.0659" y2="50.0659"/><text fill="#000000" font-family="sans-serif" font-size="14" lengthAdjust="spacing" textLength="51" x="1636.5" y="67.061">-street</text><text fill="#000000" font-family="sans-serif" font-size="14" lengthAdjust="spacing" textLength="96" x="1636.5" y="83.3579">-doorNumber</text><text fill="#000000" font-family="sans-serif" font-size="14" lengthAdjust="spacing" textLength="88" x="1636.5" y="99.6548">-postalCode</text><text fill="#000000" font-family="sans-serif" font-size="14" lengthAdjust="spacing" textLength="33" x="1636.5" y="115.9517">-city</text></g><!--MD5=[cdda88bd94d57e06d95e6dd6ce9ee716]
link Arrival to Appointment--><g id="link_Arrival_Appointment"><path codeLine="90" d="M792.578,351.0659 C841.504,363.9199 918.38,384.1169 975.303,399.0729 " fill="none" id="Arrival-Appointment" style="stroke:#181818;stroke-width:1.0;"/><polygon fill="#000000" points="855.8359,359.4028,847.8345,354.262,846.3409,359.9469,855.8359,359.4028" style="stroke:#000000;stroke-width:1.0;"/><text fill="#000000" font-family="sans-serif" font-size="13" lengthAdjust="spacing" textLength="62" x="860" y="362.6328">related to</text><text fill="#000000" font-family="sans-serif" font-size="13" lengthAdjust="spacing" textLength="8" x="800.629" y="366.1828">1</text><text fill="#000000" font-family="sans-serif" font-size="13" lengthAdjust="spacing" textLength="24" x="943.537" y="410.056">0..1</text></g><!--MD5=[3568623adf67b2630dce9e60c05bd02a]
link Vaccine to VaccineType--><g id="link_Vaccine_VaccineType"><path codeLine="92" d="M1388.79,460.7729 C1410.66,477.0479 1443.42,499.4639 1475,513.5659 C1522.57,534.8101 1579.95,549.494 1622.46,558.4787 " fill="none" id="Vaccine-VaccineType" style="stroke:#181818;stroke-width:1.0;"/><polygon fill="#000000" points="1475.387,503.2035,1482.5982,509.4042,1484.8657,503.9814,1475.387,503.2035" style="stroke:#000000;stroke-width:1.0;"/><text fill="#000000" font-family="sans-serif" font-size="13" lengthAdjust="spacing" textLength="23" x="1489" y="509.6328">has</text><text fill="#000000" font-family="sans-serif" font-size="13" lengthAdjust="spacing" textLength="7" x="1388.3403" y="480.6511">*</text><text fill="#000000" font-family="sans-serif" font-size="13" lengthAdjust="spacing" textLength="8" x="1606.4114" y="553.2951">1</text></g><!--MD5=[6716344a46572fc99c27bf4e50ddbd3d]
reverse link Employee to Nurse--><g id="link_Employee_Nurse"><path codeLine="94" d="M349.14,147.6699 C371.656,152.1329 395.557,156.8719 414.384,160.6039 " fill="none" id="Employee-backto-Nurse" style="stroke:#181818;stroke-width:1.0;"/><polygon fill="none" points="347.713,154.5229,329.456,143.7669,350.435,140.7899,347.713,154.5229" style="stroke:#181818;stroke-width:1.0;"/></g><!--MD5=[c156db0cf05f3fec75f26701ab7e4af1]
link Nurse to UserHealthData--><g id="link_Nurse_UserHealthData"><path codeLine="96" d="M486.543,185.6039 C502.797,193.4499 522.562,202.2689 541,208.5659 C583.593,223.1119 632.751,234.6579 671.909,242.6669 " fill="none" id="Nurse-UserHealthData" style="stroke:#181818;stroke-width:1.0;"/><polygon fill="#000000" points="571.7787,201.6034,563.9986,196.1334,562.2693,201.751,571.7787,201.6034" style="stroke:#000000;stroke-width:1.0;"/><text fill="#000000" font-family="sans-serif" font-size="13" lengthAdjust="spacing" textLength="44" x="576" y="204.6328">checks</text><text fill="#000000" font-family="sans-serif" font-size="13" lengthAdjust="spacing" textLength="8" x="494.4265" y="202.7117">1</text><text fill="#000000" font-family="sans-serif" font-size="13" lengthAdjust="spacing" textLength="7" x="657.1137" y="254.1839">*</text></g><!--MD5=[195cd4b2065cc6507c3064f693e1e4c8]
link Nurse to VaccineAdministration--><g id="link_Nurse_VaccineAdministration"><path codeLine="97" d="M486.659,170.8289 C524.924,174.4809 587.886,180.7799 642,187.5659 C767.231,203.2689 798.608,207.2129 923,228.5659 C932.708,230.2319 942.816,232.0649 952.899,233.9559 " fill="none" id="Nurse-VaccineAdministration" style="stroke:#181818;stroke-width:1.0;"/><polygon fill="#000000" points="718.4548,182.8032,709.8858,178.6772,709.0972,184.5019,718.4548,182.8032" style="stroke:#000000;stroke-width:1.0;"/><text fill="#000000" font-family="sans-serif" font-size="13" lengthAdjust="spacing" textLength="56" x="722.5" y="186.6328">registers</text><text fill="#000000" font-family="sans-serif" font-size="13" lengthAdjust="spacing" textLength="8" x="494.5653" y="185.0279">1</text><text fill="#000000" font-family="sans-serif" font-size="13" lengthAdjust="spacing" textLength="7" x="937.8425" y="245.0718">*</text></g><!--MD5=[9c09d1db3efb59cb07492bc4345754ed]
reverse link VaccinationCenter to CommunityMassVaccinationCenter--><g id="link_VaccinationCenter_CommunityMassVaccinationCenter"><path codeLine="99" d="M1464.64,229.7809 C1507.55,219.7409 1556.95,208.1789 1597.96,198.5839 " fill="none" id="VaccinationCenter-backto-CommunityMassVaccinationCenter" style="stroke:#181818;stroke-width:1.0;"/><polygon fill="none" points="1466.19,236.6079,1445.12,234.3489,1463,222.9759,1466.19,236.6079" style="stroke:#181818;stroke-width:1.0;"/></g><!--MD5=[4d7f47162e377c4884c583baac9698b3]
reverse link VaccinationCenter to HealthCareCenter--><g id="link_VaccinationCenter_HealthCareCenter"><path codeLine="100" d="M1465.39,253.5659 C1509.99,253.5659 1561.5,253.5659 1603.26,253.5659 " fill="none" id="VaccinationCenter-backto-HealthCareCenter" style="stroke:#181818;stroke-width:1.0;"/><polygon fill="none" points="1465.12,260.5659,1445.12,253.5659,1465.12,246.5659,1465.12,260.5659" style="stroke:#181818;stroke-width:1.0;"/></g><!--MD5=[b649bef0048cf03271726558ee7073ed]
link VaccinationCenter to Slot--><g id="link_VaccinationCenter_Slot"><path codeLine="102" d="M1445.12,277.1389 C1499.83,292.8439 1570.63,313.1679 1620.82,327.5739 " fill="none" id="VaccinationCenter-Slot" style="stroke:#181818;stroke-width:1.0;"/><polygon fill="#000000" points="1484.8059,278.5119,1476.9228,273.1914,1475.3011,278.8411,1484.8059,278.5119" style="stroke:#000000;stroke-width:1.0;"/><text fill="#000000" font-family="sans-serif" font-size="13" lengthAdjust="spacing" textLength="23" x="1489" y="281.6328">has</text><text fill="#000000" font-family="sans-serif" font-size="13" lengthAdjust="spacing" textLength="8" x="1452.8791" y="291.9757">1</text><text fill="#000000" font-family="sans-serif" font-size="13" lengthAdjust="spacing" textLength="8" x="1604.9945" y="338.4588">1</text></g><!--MD5=[e67749f86d2edce8d072e016ba76df74]
link VaccinationCenter to Time--><g id="link_VaccinationCenter_Time"><path codeLine="103" d="M1445.05,329.2049 C1474.48,353.8069 1508.86,379.8289 1543,399.5659 C1568.9,414.5419 1599.74,426.9239 1625.92,436.0369 " fill="none" id="VaccinationCenter-Time" style="stroke:#181818;stroke-width:1.0;"/><polygon fill="#000000" points="1484.3051,350.6752,1478.0117,343.5446,1475.0224,348.6056,1484.3051,350.6752" style="stroke:#000000;stroke-width:1.0;"/><text fill="#000000" font-family="sans-serif" font-size="13" lengthAdjust="spacing" textLength="23" x="1489" y="352.6328">has</text><text fill="#000000" font-family="sans-serif" font-size="13" lengthAdjust="spacing" textLength="8" x="1453.0749" y="348.9387">1</text><text fill="#000000" font-family="sans-serif" font-size="13" lengthAdjust="spacing" textLength="8" x="1609.9019" y="446.8534">1</text></g><!--MD5=[85f06911c2f4dd592611bbf87a6e3e69]
link HealthCareCenter to AGES--><g id="link_HealthCareCenter_AGES"><path codeLine="105" d="M1765.9,243.9279 C1831.02,236.1219 1919.58,225.5059 1967.77,219.7289 " fill="none" id="HealthCareCenter-AGES" style="stroke:#181818;stroke-width:1.0;"/><polygon fill="#000000" points="1865.9645,214.5372,1856.6339,212.6957,1857.3335,218.5318,1865.9645,214.5372" style="stroke:#000000;stroke-width:1.0;"/><text fill="#000000" font-family="sans-serif" font-size="13" lengthAdjust="spacing" textLength="67" x="1870" y="219.6328">belongs to</text><text fill="#000000" font-family="sans-serif" font-size="13" lengthAdjust="spacing" textLength="7" x="1773.4614" y="255.8103">*</text><text fill="#000000" font-family="sans-serif" font-size="13" lengthAdjust="spacing" textLength="8" x="1951.9482" y="234.105">1</text></g><!--MD5=[5b76ad4aea9bdf9551a08667802db279]
link HealthCareCenter to ARS--><g id="link_HealthCareCenter_ARS"><path codeLine="106" d="M1765.68,264.3529 C1794.17,268.0699 1826.5,272.1529 1856,275.5659 C1896.38,280.2379 1943.12,284.8929 1972.73,287.7499 " fill="none" id="HealthCareCenter-ARS" style="stroke:#181818;stroke-width:1.0;"/><polygon fill="#000000" points="1865.9684,267.6938,1857.3105,263.7578,1856.6505,269.5985,1865.9684,267.6938" style="stroke:#000000;stroke-width:1.0;"/><text fill="#000000" font-family="sans-serif" font-size="13" lengthAdjust="spacing" textLength="67" x="1870" y="271.6328">belongs to</text><text fill="#000000" font-family="sans-serif" font-size="13" lengthAdjust="spacing" textLength="7" x="1773.4864" y="278.1118">*</text><text fill="#000000" font-family="sans-serif" font-size="13" lengthAdjust="spacing" textLength="8" x="1957.1241" y="300.856">1</text></g><!--MD5=[81c76bdfde0f353a6cb885e6d5e733e5]
link Employee to Address--><g id="link_Employee_Address"><path codeLine="108" d="M329.096,115.6639 C362.84,105.4119 408.278,94.5659 449.5,94.5659 C449.5,94.5659 449.5,94.5659 1363,94.5659 C1457.3,94.5659 1566.77,84.1069 1630.28,76.9979 " fill="none" id="Employee-Address" style="stroke:#181818;stroke-width:1.0;"/><polygon fill="#000000" points="875.4978,85.9838,866.3694,83.3148,866.544,89.1901,875.4978,85.9838" style="stroke:#000000;stroke-width:1.0;"/><text fill="#000000" font-family="sans-serif" font-size="13" lengthAdjust="spacing" textLength="23" x="879.5" y="90.6328">has</text><text fill="#000000" font-family="sans-serif" font-size="13" lengthAdjust="spacing" textLength="7" x="336.9142" y="126.2774">*</text><text fill="#000000" font-family="sans-serif" font-size="13" lengthAdjust="spacing" textLength="8" x="1614.4567" y="90.9333">1</text></g><!--MD5=[233a09a91aa8c3856d31bdcfa7c5bcf8]
link VaccinationCenter to Address--><g id="link_VaccinationCenter_Address"><path codeLine="109" d="M1445.42,200.1479 C1475.75,181.0629 1510.6,159.7859 1543,141.5659 C1571.35,125.6249 1603.7,109.1629 1630.21,96.1079 " fill="none" id="VaccinationCenter-Address" style="stroke:#181818;stroke-width:1.0;"/><polygon fill="#000000" points="1484.3569,147.6793,1475.0333,149.5559,1477.917,154.6778,1484.3569,147.6793" style="stroke:#000000;stroke-width:1.0;"/><text fill="#000000" font-family="sans-serif" font-size="13" lengthAdjust="spacing" textLength="23" x="1489" y="154.6328">has</text><text fill="#000000" font-family="sans-serif" font-size="13" lengthAdjust="spacing" textLength="7" x="1452.8897" y="208.2711">*</text><text fill="#000000" font-family="sans-serif" font-size="13" lengthAdjust="spacing" textLength="8" x="1614.3773" y="112.6112">1</text></g><!--MD5=[d139302f00cc62b984b6371d0fde1842]
link Appointment to VaccinationCenter--><g id="link_Appointment_VaccinationCenter"><path codeLine="111" d="M1125.89,417.1989 C1164.73,413.6629 1211.78,404.7559 1249,383.5659 C1272.04,370.4489 1292.6,350.7399 1309.61,330.6079 " fill="none" id="Appointment-VaccinationCenter" style="stroke:#181818;stroke-width:1.0;"/><polygon fill="#000000" points="1187.5228,373.0006,1178.088,374.1985,1180.5939,379.5153,1187.5228,373.0006" style="stroke:#000000;stroke-width:1.0;"/><text fill="#000000" font-family="sans-serif" font-size="13" lengthAdjust="spacing" textLength="56" x="1192" y="379.6328">is held in</text><text fill="#000000" font-family="sans-serif" font-size="13" lengthAdjust="spacing" textLength="7" x="1133.4092" y="429.8336">*</text><text fill="#000000" font-family="sans-serif" font-size="13" lengthAdjust="spacing" textLength="8" x="1296.2353" y="350.7353">1</text></g><!--MD5=[d63168792e55d79de1fe85cd885704ff]
link Appointment to VaccineType--><g id="link_Appointment_VaccineType"><path codeLine="112" d="M1125.55,446.3519 C1169.68,462.2219 1227.04,481.6659 1279,495.5659 C1364.8,518.5185 1387.64,518.5455 1475,534.5659 C1524.46,543.6359 1580.7,553.0219 1622.29,559.7881 " fill="none" id="Appointment-VaccineType" style="stroke:#181818;stroke-width:1.0;"/><polygon fill="#000000" points="1320.8745,488.2455,1312.7107,483.3666,1311.4021,489.0969,1320.8745,488.2455" style="stroke:#000000;stroke-width:1.0;"/><text fill="#000000" font-family="sans-serif" font-size="13" lengthAdjust="spacing" textLength="87" x="1325" y="491.6328">has a specific</text><text fill="#000000" font-family="sans-serif" font-size="13" lengthAdjust="spacing" textLength="8" x="1133.702" y="462.0396">1</text><text fill="#000000" font-family="sans-serif" font-size="13" lengthAdjust="spacing" textLength="8" x="1606.6345" y="571.6056">1</text></g><!--MD5=[3f8bc51bb69ce45c3e3ea0b764df71f1]
link SNSUser to Appointment--><g id="link_SNSUser_Appointment"><path codeLine="114" d="M511.42,349.5539 C555.001,367.8049 615.944,390.5229 672,401.5659 C775.792,422.0139 898.605,423.4469 975.296,421.7069 " fill="none" id="SNSUser-Appointment" style="stroke:#181818;stroke-width:1.0;"/><polygon fill="#000000" points="714.4406,393.9008,705.9547,389.6066,705.0513,395.4146,714.4406,393.9008" style="stroke:#000000;stroke-width:1.0;"/><text fill="#000000" font-family="sans-serif" font-size="13" lengthAdjust="spacing" textLength="64" x="718.5" y="397.6328">schedules</text><text fill="#000000" font-family="sans-serif" font-size="13" lengthAdjust="spacing" textLength="8" x="518.9264" y="365.5945">1</text><text fill="#000000" font-family="sans-serif" font-size="13" lengthAdjust="spacing" textLength="7" x="960.5486" y="434.804">*</text></g><!--MD5=[7237f06c0b74e3dd035481e962d83e87]
link SNSUser to Arrival--><g id="link_SNSUser_Arrival"><path codeLine="115" d="M511.165,328.3139 C521.121,329.1539 531.348,329.9439 541,330.5659 C593.712,333.9639 654.26,336.1309 695.213,337.3409 " fill="none" id="SNSUser-Arrival" style="stroke:#181818;stroke-width:1.0;"/><polygon fill="#000000" points="550.994,322.3773,542.1037,318.9988,541.8158,324.8696,550.994,322.3773" style="stroke:#000000;stroke-width:1.0;"/><text fill="#000000" font-family="sans-serif" font-size="13" lengthAdjust="spacing" textLength="86" x="555" y="326.6328">associated to</text><text fill="#000000" font-family="sans-serif" font-size="13" lengthAdjust="spacing" textLength="8" x="519.046" y="341.9807">1</text><text fill="#000000" font-family="sans-serif" font-size="13" lengthAdjust="spacing" textLength="7" x="680.5333" y="350.3174">*</text></g><!--MD5=[f8a44d8858dd7923d650df3c015ca53f]
link SNSUser to UserHealthData--><g id="link_SNSUser_UserHealthData"><path codeLine="116" d="M511.193,308.8459 C557.748,298.1449 622.554,283.2499 671.811,271.9279 " fill="none" id="SNSUser-UserHealthData" style="stroke:#181818;stroke-width:1.0;"/><polygon fill="#000000" points="582.3729,269.0123,572.8994,268.1742,574.2161,273.9027,582.3729,269.0123" style="stroke:#000000;stroke-width:1.0;"/><text fill="#000000" font-family="sans-serif" font-size="13" lengthAdjust="spacing" textLength="23" x="586.5" y="274.6328">has</text><text fill="#000000" font-family="sans-serif" font-size="13" lengthAdjust="spacing" textLength="8" x="519.0775" y="320.14">1</text><text fill="#000000" font-family="sans-serif" font-size="13" lengthAdjust="spacing" textLength="8" x="655.954" y="286.4624">1</text></g><!--MD5=[09366576ee87d48d594df10cacc83f45]
link Company to Employee--><g id="link_Company_Employee"><path codeLine="118" d="M109.057,133.5659 C143.728,133.5659 189.748,133.5659 224.688,133.5659 " fill="none" id="Company-Employee" style="stroke:#181818;stroke-width:1.0;"/><polygon fill="#000000" points="149,125.1323,139.9549,122.1934,139.9549,128.0713,149,125.1323" style="stroke:#000000;stroke-width:1.0;"/><text fill="#000000" font-family="sans-serif" font-size="13" lengthAdjust="spacing" textLength="41" x="153" y="129.6328">knows</text><text fill="#000000" font-family="sans-serif" font-size="13" lengthAdjust="spacing" textLength="8" x="117.1435" y="146.7223">1</text><text fill="#000000" font-family="sans-serif" font-size="13" lengthAdjust="spacing" textLength="7" x="209.8394" y="146.6968">*</text></g><!--MD5=[eebe9b198877275d05dd12630ed9e401]
link Company to VaccinationCenter--><g id="link_Company_VaccinationCenter"><path codeLine="119" d="M90.6433,105.5239 C130.791,72.9329 203.563,23.5659 276,23.5659 C276,23.5659 276,23.5659 1051.5,23.5659 C1156.27,23.5659 1248.61,109.5219 1304.56,176.3389 " fill="none" id="Company-VaccinationCenter" style="stroke:#181818;stroke-width:1.0;"/><polygon fill="#000000" points="573.4915,15.4235,564.6329,11.9628,564.2906,17.8307,573.4915,15.4235" style="stroke:#000000;stroke-width:1.0;"/><text fill="#000000" font-family="sans-serif" font-size="13" lengthAdjust="spacing" textLength="41" x="577.5" y="19.6328">knows</text><text fill="#000000" font-family="sans-serif" font-size="13" lengthAdjust="spacing" textLength="8" x="89.2671" y="94.3528">1</text><text fill="#000000" font-family="sans-serif" font-size="13" lengthAdjust="spacing" textLength="7" x="1291.9421" y="165.5976">*</text></g><!--MD5=[1a8aa2b864b87f860d28abceaa28b7a5]
link Company to SNSUser--><g id="link_Company_SNSUser"><path codeLine="120" d="M109.252,157.8879 C181.143,192.6819 313.117,256.5569 389.861,293.7009 " fill="none" id="Company-SNSUser" style="stroke:#181818;stroke-width:1.0;"/><polygon fill="#000000" points="258.5006,208.3106,251.6393,201.7247,249.0786,207.0155,258.5006,208.3106" style="stroke:#000000;stroke-width:1.0;"/><text fill="#000000" font-family="sans-serif" font-size="13" lengthAdjust="spacing" textLength="41" x="263" y="210.6328">knows</text><text fill="#000000" font-family="sans-serif" font-size="13" lengthAdjust="spacing" textLength="8" x="117.0218" y="174.4182">1</text><text fill="#000000" font-family="sans-serif" font-size="13" lengthAdjust="spacing" textLength="7" x="375.0441" y="303.1492">*</text></g><!--MD5=[d96ee281cdb1021d3c4ed227c45512e2]
link VaccineAdministration to Vaccine--><g id="link_VaccineAdministration_Vaccine"><path codeLine="122" d="M1148.09,304.2629 C1180.57,321.9979 1216.74,342.5059 1249,362.5659 C1278.78,381.0839 1311.56,404.2609 1333.92,420.5199 " fill="none" id="VaccineAdministration-Vaccine" style="stroke:#181818;stroke-width:1.0;"/><polygon fill="#000000" points="1203.7388,315.7842,1197.6294,308.4954,1194.512,313.4785,1203.7388,315.7842" style="stroke:#000000;stroke-width:1.0;"/><text fill="#000000" font-family="sans-serif" font-size="13" lengthAdjust="spacing" textLength="23" x="1208.5" y="317.6328">has</text><text fill="#000000" font-family="sans-serif" font-size="13" lengthAdjust="spacing" textLength="7" x="1156.1456" y="320.9814">*</text><text fill="#000000" font-family="sans-serif" font-size="13" lengthAdjust="spacing" textLength="8" x="1316.4965" y="409.5147">1</text></g><!--MD5=[6bb3ec5f470f72ee4f54b0838c98c655]
link VaccineAdministration to VaccinationCenter--><g id="link_VaccineAdministration_VaccinationCenter"><path codeLine="123" d="M1148.15,253.5659 C1190.1,253.5659 1238.71,253.5659 1278.88,253.5659 " fill="none" id="VaccineAdministration-VaccinationCenter" style="stroke:#181818;stroke-width:1.0;"/><polygon fill="#000000" points="1188,245.1323,1178.9549,242.1934,1178.9549,248.0713,1188,245.1323" style="stroke:#000000;stroke-width:1.0;"/><text fill="#000000" font-family="sans-serif" font-size="13" lengthAdjust="spacing" textLength="56" x="1192" y="249.6328">is held in</text><text fill="#000000" font-family="sans-serif" font-size="13" lengthAdjust="spacing" textLength="7" x="1155.8943" y="266.2205">*</text><text fill="#000000" font-family="sans-serif" font-size="13" lengthAdjust="spacing" textLength="8" x="1263.1209" y="266.3032">1</text></g><!--MD5=[aa2073a23a3d61f2738cc42d59f10cce]
link UserHealthData to VaccineAdministration--><g id="link_UserHealthData_VaccineAdministration"><path codeLine="125" d="M816.007,255.0999 C856.778,254.8319 908.542,254.4919 952.965,254.1999 " fill="none" id="UserHealthData-VaccineAdministration" style="stroke:#181818;stroke-width:1.0;"/><polygon fill="#000000" points="875.4999,245.0995,866.4357,242.22,866.4743,248.0978,875.4999,245.0995" style="stroke:#000000;stroke-width:1.0;"/><text fill="#000000" font-family="sans-serif" font-size="13" lengthAdjust="spacing" textLength="23" x="879.5" y="249.6328">has</text><text fill="#000000" font-family="sans-serif" font-size="13" lengthAdjust="spacing" textLength="8" x="823.8452" y="267.899">1</text><text fill="#000000" font-family="sans-serif" font-size="13" lengthAdjust="spacing" textLength="7" x="937.9138" y="266.929">*</text></g><!--MD5=[48ad3526c85e5cbb007c853d4370b20d]
@startuml
hide methods
left to right direction
skinparam classAttributeIconSize 0

class Company {
  -designation
}

class CommunityMassVaccinationCenter {}

class HealthCareCenter {}

class VaccinationCenter {
  -name
  -address
  -emailAddress
  -phone
  -email
  -fax
  -website
}

class Vaccine {}

class VaccineType {
  -id
  -designation
  -whoId
}

class SNSUser {
  - citizenCard
  - snsNumber
  - name
  - birthDay
  - gender
  - phoneNumber
  - email
  - address
}

class Slot {
  -slotDuration
  -maxVacPerSlot
}

class Time {
  -openingHours
  -closingHours
}

class UserHealthData {}

class Employee {}

class Nurse {}

class AGES {}

class ARS {}

class Appointment {
  -snsUser
  -date
  -vaccinationCenter
  -vaccineType
  -sms
}

class Arrival {
  - arrivalDate
}

class VaccineAdministration {
  -snsUser
  -vaccine
  -lotNumber
  -doseNumber
  -vaccinationCenter
  -date
}

class Address {
  - street
  - doorNumber
  - postalCode
  - city
}

Arrival "1" - - "0..1" Appointment : related to >

Vaccine "*" - - "1" VaccineType : has <

Employee <|- - Nurse

Nurse "1" - - "*" UserHealthData : checks >
Nurse "1" - - "*" VaccineAdministration : registers >

VaccinationCenter <|- - CommunityMassVaccinationCenter
VaccinationCenter <|- - HealthCareCenter

VaccinationCenter "1" - - "1" Slot : has >
VaccinationCenter "1" - - "1" Time : has >

HealthCareCenter "*" - - "1" AGES : belongs to > 
HealthCareCenter "*" - - "1" ARS : belongs to > 

Employee "*" - - "1" Address : has >
VaccinationCenter "*" - - "1" Address : has >

Appointment "*" - - "1" VaccinationCenter : is held in >
Appointment "1" - - "1" VaccineType : has a specific >

SNSUser "1" - - "*" Appointment : schedules >
SNSUser "1" - - "*" Arrival : associated to >
SNSUser "1" - - "1" UserHealthData : has >

Company "1" - - "*" Employee : knows >
Company "1" - - "*" VaccinationCenter : knows >
Company "1" - - "*" SNSUser : knows >

VaccineAdministration "*" - - "1" Vaccine : has >
VaccineAdministration "*" - - "1" VaccinationCenter : is held in >

UserHealthData "1" - - "*" VaccineAdministration : has >
@enduml

PlantUML version 1.2022.6beta5(Unknown compile time)
(GPL source distribution)
Java Runtime: Java(TM) SE Runtime Environment
JVM: Java HotSpot(TM) 64-Bit Server VM
Default Encoding: UTF-8
Language: en
Country: US
--></g></svg>