<?xml version="1.0" encoding="UTF-8" standalone="no"?><svg xmlns="http://www.w3.org/2000/svg" xmlns:xlink="http://www.w3.org/1999/xlink" contentScriptType="application/ecmascript" contentStyleType="text/css" height="1050px" preserveAspectRatio="none" style="width:1101px;height:1050px;background:#FFFFFF;" version="1.1" viewBox="0 0 1101 1050" width="1101px" zoomAndPan="magnify"><defs><filter height="300%" id="f1jkpnlke8rsva" width="300%" x="-1" y="-1"><feGaussianBlur result="blurOut" stdDeviation="2.0"/><feColorMatrix in="blurOut" result="blurOut2" type="matrix" values="0 0 0 0 0 0 0 0 0 0 0 0 0 0 0 0 0 0 .4 0"/><feOffset dx="4.0" dy="4.0" in="blurOut2" result="blurOut3"/><feBlend in="SourceGraphic" in2="blurOut3" mode="normal"/></filter></defs><g><!--MD5=[a126dd63c8621c017159ae62771fbe54]
class RegisterEmployeeUI--><rect codeLine="3" fill="#FEFECE" filter="url(#f1jkpnlke8rsva)" height="48" id="RegisterEmployeeUI" style="stroke:#A80036;stroke-width:1.5;" width="146" x="710" y="7"/><ellipse cx="725" cy="23" fill="#ADD1B2" rx="11" ry="11" style="stroke:#A80036;stroke-width:1.0;"/><path d="M727.7656,18.875 Q727.9219,18.6563 728.1094,18.5469 Q728.2969,18.4375 728.5156,18.4375 Q728.8906,18.4375 729.125,18.7031 Q729.3594,18.9531 729.3594,19.5625 L729.3594,21.0156 Q729.3594,21.625 729.125,21.8906 Q728.8906,22.1563 728.5156,22.1563 Q728.1719,22.1563 727.9688,21.9531 Q727.7656,21.7656 727.6563,21.25 Q727.6094,20.8906 727.4219,20.7031 Q727.0938,20.3281 726.4844,20.1094 Q725.875,19.8906 725.25,19.8906 Q724.4844,19.8906 723.8438,20.2188 Q723.2188,20.5469 722.7188,21.2969 Q722.2344,22.0469 722.2344,23.0781 L722.2344,24.1719 Q722.2344,25.4063 723.125,26.2344 Q724.0156,27.0469 725.6094,27.0469 Q726.5469,27.0469 727.2031,26.7969 Q727.5938,26.6406 728.0156,26.2031 Q728.2813,25.9375 728.4219,25.8594 Q728.5781,25.7813 728.7813,25.7813 Q729.1094,25.7813 729.3594,26.0469 Q729.625,26.2969 729.625,26.6406 Q729.625,26.9844 729.2813,27.3906 Q728.7813,27.9688 727.9844,28.2969 Q726.9063,28.75 725.6094,28.75 Q724.0938,28.75 722.8906,28.125 Q721.9063,27.625 721.2188,26.5625 Q720.5313,25.4844 720.5313,24.2031 L720.5313,23.0469 Q720.5313,21.7188 721.1406,20.5781 Q721.7656,19.4219 722.8594,18.8125 Q723.9531,18.1875 725.1875,18.1875 Q725.9219,18.1875 726.5625,18.3594 Q727.2188,18.5156 727.7656,18.875 Z " fill="#000000"/><text fill="#000000" font-family="sans-serif" font-size="12" lengthAdjust="spacing" textLength="114" x="739" y="27.9102">RegisterEmployeeUI</text><line style="stroke:#A80036;stroke-width:1.5;" x1="711" x2="855" y1="39" y2="39"/><line style="stroke:#A80036;stroke-width:1.5;" x1="711" x2="855" y1="47" y2="47"/><!--MD5=[6a4e699b59c2ecf8286aba2faa72e4bd]
class RegisterEmployeeController--><rect codeLine="6" fill="#FEFECE" filter="url(#f1jkpnlke8rsva)" height="89.5078" id="RegisterEmployeeController" style="stroke:#A80036;stroke-width:1.5;" width="407" x="579.5" y="116"/><ellipse cx="700.75" cy="132" fill="#ADD1B2" rx="11" ry="11" style="stroke:#A80036;stroke-width:1.0;"/><path d="M703.5156,127.875 Q703.6719,127.6563 703.8594,127.5469 Q704.0469,127.4375 704.2656,127.4375 Q704.6406,127.4375 704.875,127.7031 Q705.1094,127.9531 705.1094,128.5625 L705.1094,130.0156 Q705.1094,130.625 704.875,130.8906 Q704.6406,131.1563 704.2656,131.1563 Q703.9219,131.1563 703.7188,130.9531 Q703.5156,130.7656 703.4063,130.25 Q703.3594,129.8906 703.1719,129.7031 Q702.8438,129.3281 702.2344,129.1094 Q701.625,128.8906 701,128.8906 Q700.2344,128.8906 699.5938,129.2188 Q698.9688,129.5469 698.4688,130.2969 Q697.9844,131.0469 697.9844,132.0781 L697.9844,133.1719 Q697.9844,134.4063 698.875,135.2344 Q699.7656,136.0469 701.3594,136.0469 Q702.2969,136.0469 702.9531,135.7969 Q703.3438,135.6406 703.7656,135.2031 Q704.0313,134.9375 704.1719,134.8594 Q704.3281,134.7813 704.5313,134.7813 Q704.8594,134.7813 705.1094,135.0469 Q705.375,135.2969 705.375,135.6406 Q705.375,135.9844 705.0313,136.3906 Q704.5313,136.9688 703.7344,137.2969 Q702.6563,137.75 701.3594,137.75 Q699.8438,137.75 698.6406,137.125 Q697.6563,136.625 696.9688,135.5625 Q696.2813,134.4844 696.2813,133.2031 L696.2813,132.0469 Q696.2813,130.7188 696.8906,129.5781 Q697.5156,128.4219 698.6094,127.8125 Q699.7031,127.1875 700.9375,127.1875 Q701.6719,127.1875 702.3125,127.3594 Q702.9688,127.5156 703.5156,127.875 Z " fill="#000000"/><text fill="#000000" font-family="sans-serif" font-size="12" lengthAdjust="spacing" textLength="156" x="721.25" y="136.9102">RegisterEmployeeController</text><line style="stroke:#A80036;stroke-width:1.5;" x1="580.5" x2="985.5" y1="148" y2="148"/><line style="stroke:#A80036;stroke-width:1.5;" x1="580.5" x2="985.5" y1="156" y2="156"/><text fill="#000000" font-family="sans-serif" font-size="11" lengthAdjust="spacing" textLength="102" x="585.5" y="171.4189">+getEmployeeRoles()</text><text fill="#000000" font-family="sans-serif" font-size="11" lengthAdjust="spacing" textLength="395" x="585.5" y="185.2549">+createEmployee(name, address, phoneNumber, email, citizenCardNumber, roleId)</text><text fill="#000000" font-family="sans-serif" font-size="11" lengthAdjust="spacing" textLength="84" x="585.5" y="199.0908">+saveEmployee()</text><!--MD5=[02e4b9b7573f1156f41e60aa5b4e25a4]
class Company--><rect codeLine="12" fill="#FEFECE" filter="url(#f1jkpnlke8rsva)" height="131.0156" id="Company" style="stroke:#A80036;stroke-width:1.5;" width="134" x="716" y="267"/><ellipse cx="753.05" cy="283" fill="#ADD1B2" rx="11" ry="11" style="stroke:#A80036;stroke-width:1.0;"/><path d="M755.8156,278.875 Q755.9719,278.6563 756.1594,278.5469 Q756.3469,278.4375 756.5656,278.4375 Q756.9406,278.4375 757.175,278.7031 Q757.4094,278.9531 757.4094,279.5625 L757.4094,281.0156 Q757.4094,281.625 757.175,281.8906 Q756.9406,282.1563 756.5656,282.1563 Q756.2219,282.1563 756.0188,281.9531 Q755.8156,281.7656 755.7063,281.25 Q755.6594,280.8906 755.4719,280.7031 Q755.1438,280.3281 754.5344,280.1094 Q753.925,279.8906 753.3,279.8906 Q752.5344,279.8906 751.8938,280.2188 Q751.2688,280.5469 750.7688,281.2969 Q750.2844,282.0469 750.2844,283.0781 L750.2844,284.1719 Q750.2844,285.4063 751.175,286.2344 Q752.0656,287.0469 753.6594,287.0469 Q754.5969,287.0469 755.2531,286.7969 Q755.6438,286.6406 756.0656,286.2031 Q756.3313,285.9375 756.4719,285.8594 Q756.6281,285.7813 756.8313,285.7813 Q757.1594,285.7813 757.4094,286.0469 Q757.675,286.2969 757.675,286.6406 Q757.675,286.9844 757.3313,287.3906 Q756.8313,287.9688 756.0344,288.2969 Q754.9563,288.75 753.6594,288.75 Q752.1438,288.75 750.9406,288.125 Q749.9563,287.625 749.2688,286.5625 Q748.5813,285.4844 748.5813,284.2031 L748.5813,283.0469 Q748.5813,281.7188 749.1906,280.5781 Q749.8156,279.4219 750.9094,278.8125 Q752.0031,278.1875 753.2375,278.1875 Q753.9719,278.1875 754.6125,278.3594 Q755.2688,278.5156 755.8156,278.875 Z " fill="#000000"/><text fill="#000000" font-family="sans-serif" font-size="12" lengthAdjust="spacing" textLength="53" x="771.95" y="287.9102">Company</text><line style="stroke:#A80036;stroke-width:1.5;" x1="717" x2="849" y1="299" y2="299"/><text fill="#000000" font-family="sans-serif" font-size="11" lengthAdjust="spacing" textLength="93" x="722" y="314.4189">-designation: String</text><line style="stroke:#A80036;stroke-width:1.5;" x1="717" x2="849" y1="320.8359" y2="320.8359"/><text fill="#000000" font-family="sans-serif" font-size="11" lengthAdjust="spacing" textLength="114" x="722" y="336.2549">+Company(designation)</text><text fill="#000000" font-family="sans-serif" font-size="11" lengthAdjust="spacing" textLength="85" x="722" y="350.0908">+getDesignation()</text><text fill="#000000" font-family="sans-serif" font-size="11" lengthAdjust="spacing" textLength="88" x="722" y="363.9268">+getAuthFacade()</text><text fill="#000000" font-family="sans-serif" font-size="11" lengthAdjust="spacing" textLength="101" x="722" y="377.7627">+getEmployeeStore()</text><text fill="#000000" font-family="sans-serif" font-size="11" lengthAdjust="spacing" textLength="122" x="722" y="391.5986">+getEmployeeRoleStore()</text><!--MD5=[829fb52c07ade3ad64ef85b99d1fca10]
class EmployeeStore--><rect codeLine="21" fill="#FEFECE" filter="url(#f1jkpnlke8rsva)" height="89.5078" id="EmployeeStore" style="stroke:#A80036;stroke-width:1.5;" width="394" x="227" y="459"/><ellipse cx="377.75" cy="475" fill="#ADD1B2" rx="11" ry="11" style="stroke:#A80036;stroke-width:1.0;"/><path d="M380.5156,470.875 Q380.6719,470.6563 380.8594,470.5469 Q381.0469,470.4375 381.2656,470.4375 Q381.6406,470.4375 381.875,470.7031 Q382.1094,470.9531 382.1094,471.5625 L382.1094,473.0156 Q382.1094,473.625 381.875,473.8906 Q381.6406,474.1563 381.2656,474.1563 Q380.9219,474.1563 380.7188,473.9531 Q380.5156,473.7656 380.4063,473.25 Q380.3594,472.8906 380.1719,472.7031 Q379.8438,472.3281 379.2344,472.1094 Q378.625,471.8906 378,471.8906 Q377.2344,471.8906 376.5938,472.2188 Q375.9688,472.5469 375.4688,473.2969 Q374.9844,474.0469 374.9844,475.0781 L374.9844,476.1719 Q374.9844,477.4063 375.875,478.2344 Q376.7656,479.0469 378.3594,479.0469 Q379.2969,479.0469 379.9531,478.7969 Q380.3438,478.6406 380.7656,478.2031 Q381.0313,477.9375 381.1719,477.8594 Q381.3281,477.7813 381.5313,477.7813 Q381.8594,477.7813 382.1094,478.0469 Q382.375,478.2969 382.375,478.6406 Q382.375,478.9844 382.0313,479.3906 Q381.5313,479.9688 380.7344,480.2969 Q379.6563,480.75 378.3594,480.75 Q376.8438,480.75 375.6406,480.125 Q374.6563,479.625 373.9688,478.5625 Q373.2813,477.4844 373.2813,476.2031 L373.2813,475.0469 Q373.2813,473.7188 373.8906,472.5781 Q374.5156,471.4219 375.6094,470.8125 Q376.7031,470.1875 377.9375,470.1875 Q378.6719,470.1875 379.3125,470.3594 Q379.9688,470.5156 380.5156,470.875 Z " fill="#000000"/><text fill="#000000" font-family="sans-serif" font-size="12" lengthAdjust="spacing" textLength="84" x="398.25" y="479.9102">EmployeeStore</text><line style="stroke:#A80036;stroke-width:1.5;" x1="228" x2="620" y1="491" y2="491"/><line style="stroke:#A80036;stroke-width:1.5;" x1="228" x2="620" y1="499" y2="499"/><text fill="#000000" font-family="sans-serif" font-size="11" lengthAdjust="spacing" textLength="382" x="233" y="514.4189">+addEmployee(name, address, phoneNumber, email, citizenCardNumber, roleId)</text><text fill="#000000" font-family="sans-serif" font-size="11" lengthAdjust="spacing" textLength="143" x="233" y="528.2549">+validateEmployee(employee)</text><text fill="#000000" font-family="sans-serif" font-size="11" lengthAdjust="spacing" textLength="130" x="233" y="542.0908">+saveEmployee(employee)</text><!--MD5=[7421f545a0d8420c5bec41e74b387d9c]
class Employee--><rect codeLine="27" fill="#FEFECE" filter="url(#f1jkpnlke8rsva)" height="227.8672" id="Employee" style="stroke:#A80036;stroke-width:1.5;" width="390" x="7" y="627"/><ellipse cx="170.25" cy="643" fill="#ADD1B2" rx="11" ry="11" style="stroke:#A80036;stroke-width:1.0;"/><path d="M173.0156,638.875 Q173.1719,638.6563 173.3594,638.5469 Q173.5469,638.4375 173.7656,638.4375 Q174.1406,638.4375 174.375,638.7031 Q174.6094,638.9531 174.6094,639.5625 L174.6094,641.0156 Q174.6094,641.625 174.375,641.8906 Q174.1406,642.1563 173.7656,642.1563 Q173.4219,642.1563 173.2188,641.9531 Q173.0156,641.7656 172.9063,641.25 Q172.8594,640.8906 172.6719,640.7031 Q172.3438,640.3281 171.7344,640.1094 Q171.125,639.8906 170.5,639.8906 Q169.7344,639.8906 169.0938,640.2188 Q168.4688,640.5469 167.9688,641.2969 Q167.4844,642.0469 167.4844,643.0781 L167.4844,644.1719 Q167.4844,645.4063 168.375,646.2344 Q169.2656,647.0469 170.8594,647.0469 Q171.7969,647.0469 172.4531,646.7969 Q172.8438,646.6406 173.2656,646.2031 Q173.5313,645.9375 173.6719,645.8594 Q173.8281,645.7813 174.0313,645.7813 Q174.3594,645.7813 174.6094,646.0469 Q174.875,646.2969 174.875,646.6406 Q174.875,646.9844 174.5313,647.3906 Q174.0313,647.9688 173.2344,648.2969 Q172.1563,648.75 170.8594,648.75 Q169.3438,648.75 168.1406,648.125 Q167.1563,647.625 166.4688,646.5625 Q165.7813,645.4844 165.7813,644.2031 L165.7813,643.0469 Q165.7813,641.7188 166.3906,640.5781 Q167.0156,639.4219 168.1094,638.8125 Q169.2031,638.1875 170.4375,638.1875 Q171.1719,638.1875 171.8125,638.3594 Q172.4688,638.5156 173.0156,638.875 Z " fill="#000000"/><text fill="#000000" font-family="sans-serif" font-size="12" lengthAdjust="spacing" textLength="55" x="190.75" y="647.9102">Employee</text><line style="stroke:#A80036;stroke-width:1.5;" x1="8" x2="396" y1="659" y2="659"/><text fill="#000000" font-family="sans-serif" font-size="11" lengthAdjust="spacing" textLength="46" x="13" y="674.4189">-id: String</text><text fill="#000000" font-family="sans-serif" font-size="11" lengthAdjust="spacing" textLength="78" x="13" y="688.2549">-address: String</text><text fill="#000000" font-family="sans-serif" font-size="11" lengthAdjust="spacing" textLength="105" x="13" y="702.0908">-phoneNumber: String</text><text fill="#000000" font-family="sans-serif" font-size="11" lengthAdjust="spacing" textLength="129" x="13" y="715.9268">-citizenCardNumber: String</text><line style="stroke:#A80036;stroke-width:1.5;" x1="8" x2="396" y1="722.3438" y2="722.3438"/><text fill="#000000" font-family="sans-serif" font-size="11" lengthAdjust="spacing" textLength="378" x="13" y="737.7627">+Employee(id, name, address, phoneNumber, email, citizenCardNumber, roleId)</text><text fill="#000000" font-family="sans-serif" font-size="11" lengthAdjust="spacing" textLength="37" x="13" y="751.5986">+getId()</text><text fill="#000000" font-family="sans-serif" font-size="11" lengthAdjust="spacing" textLength="56" x="13" y="765.4346">+getName()</text><text fill="#000000" font-family="sans-serif" font-size="11" lengthAdjust="spacing" textLength="71" x="13" y="779.2705">+getAddress()</text><text fill="#000000" font-family="sans-serif" font-size="11" lengthAdjust="spacing" textLength="96" x="13" y="793.1064">+getPhoneNumber()</text><text fill="#000000" font-family="sans-serif" font-size="11" lengthAdjust="spacing" textLength="53" x="13" y="806.9424">+getEmail()</text><text fill="#000000" font-family="sans-serif" font-size="11" lengthAdjust="spacing" textLength="121" x="13" y="820.7783">+getCitizenCardNumber()</text><text fill="#000000" font-family="sans-serif" font-size="11" lengthAdjust="spacing" textLength="79" x="13" y="834.6143">+getPassword()</text><text fill="#000000" font-family="sans-serif" font-size="11" lengthAdjust="spacing" textLength="58" x="13" y="848.4502">+getRoleId()</text><!--MD5=[65c16d01042ef55cd47b89011ddf5aca]
class EmployeeRoleStore--><rect codeLine="43" fill="#FEFECE" filter="url(#f1jkpnlke8rsva)" height="61.8359" id="EmployeeRoleStore" style="stroke:#A80036;stroke-width:1.5;" width="142" x="945" y="473"/><ellipse cx="960" cy="489" fill="#ADD1B2" rx="11" ry="11" style="stroke:#A80036;stroke-width:1.0;"/><path d="M962.7656,484.875 Q962.9219,484.6563 963.1094,484.5469 Q963.2969,484.4375 963.5156,484.4375 Q963.8906,484.4375 964.125,484.7031 Q964.3594,484.9531 964.3594,485.5625 L964.3594,487.0156 Q964.3594,487.625 964.125,487.8906 Q963.8906,488.1563 963.5156,488.1563 Q963.1719,488.1563 962.9688,487.9531 Q962.7656,487.7656 962.6563,487.25 Q962.6094,486.8906 962.4219,486.7031 Q962.0938,486.3281 961.4844,486.1094 Q960.875,485.8906 960.25,485.8906 Q959.4844,485.8906 958.8438,486.2188 Q958.2188,486.5469 957.7188,487.2969 Q957.2344,488.0469 957.2344,489.0781 L957.2344,490.1719 Q957.2344,491.4063 958.125,492.2344 Q959.0156,493.0469 960.6094,493.0469 Q961.5469,493.0469 962.2031,492.7969 Q962.5938,492.6406 963.0156,492.2031 Q963.2813,491.9375 963.4219,491.8594 Q963.5781,491.7813 963.7813,491.7813 Q964.1094,491.7813 964.3594,492.0469 Q964.625,492.2969 964.625,492.6406 Q964.625,492.9844 964.2813,493.3906 Q963.7813,493.9688 962.9844,494.2969 Q961.9063,494.75 960.6094,494.75 Q959.0938,494.75 957.8906,494.125 Q956.9063,493.625 956.2188,492.5625 Q955.5313,491.4844 955.5313,490.2031 L955.5313,489.0469 Q955.5313,487.7188 956.1406,486.5781 Q956.7656,485.4219 957.8594,484.8125 Q958.9531,484.1875 960.1875,484.1875 Q960.9219,484.1875 961.5625,484.3594 Q962.2188,484.5156 962.7656,484.875 Z " fill="#000000"/><text fill="#000000" font-family="sans-serif" font-size="12" lengthAdjust="spacing" textLength="110" x="974" y="493.9102">EmployeeRoleStore</text><line style="stroke:#A80036;stroke-width:1.5;" x1="946" x2="1086" y1="505" y2="505"/><line style="stroke:#A80036;stroke-width:1.5;" x1="946" x2="1086" y1="513" y2="513"/><text fill="#000000" font-family="sans-serif" font-size="11" lengthAdjust="spacing" textLength="56" x="951" y="528.4189">+getRoles()</text><!--MD5=[8ae808d068a8995f06b9b3ec51357f0b]
class AuthFacade--><rect codeLine="47" fill="#FEFECE" filter="url(#f1jkpnlke8rsva)" height="75.6719" id="AuthFacade" style="stroke:#A80036;stroke-width:1.5;" width="253" x="656.5" y="466"/><ellipse cx="746.25" cy="482" fill="#ADD1B2" rx="11" ry="11" style="stroke:#A80036;stroke-width:1.0;"/><path d="M749.0156,477.875 Q749.1719,477.6563 749.3594,477.5469 Q749.5469,477.4375 749.7656,477.4375 Q750.1406,477.4375 750.375,477.7031 Q750.6094,477.9531 750.6094,478.5625 L750.6094,480.0156 Q750.6094,480.625 750.375,480.8906 Q750.1406,481.1563 749.7656,481.1563 Q749.4219,481.1563 749.2188,480.9531 Q749.0156,480.7656 748.9063,480.25 Q748.8594,479.8906 748.6719,479.7031 Q748.3438,479.3281 747.7344,479.1094 Q747.125,478.8906 746.5,478.8906 Q745.7344,478.8906 745.0938,479.2188 Q744.4688,479.5469 743.9688,480.2969 Q743.4844,481.0469 743.4844,482.0781 L743.4844,483.1719 Q743.4844,484.4063 744.375,485.2344 Q745.2656,486.0469 746.8594,486.0469 Q747.7969,486.0469 748.4531,485.7969 Q748.8438,485.6406 749.2656,485.2031 Q749.5313,484.9375 749.6719,484.8594 Q749.8281,484.7813 750.0313,484.7813 Q750.3594,484.7813 750.6094,485.0469 Q750.875,485.2969 750.875,485.6406 Q750.875,485.9844 750.5313,486.3906 Q750.0313,486.9688 749.2344,487.2969 Q748.1563,487.75 746.8594,487.75 Q745.3438,487.75 744.1406,487.125 Q743.1563,486.625 742.4688,485.5625 Q741.7813,484.4844 741.7813,483.2031 L741.7813,482.0469 Q741.7813,480.7188 742.3906,479.5781 Q743.0156,478.4219 744.1094,477.8125 Q745.2031,477.1875 746.4375,477.1875 Q747.1719,477.1875 747.8125,477.3594 Q748.4688,477.5156 749.0156,477.875 Z " fill="#000000"/><text fill="#000000" font-family="sans-serif" font-size="12" lengthAdjust="spacing" textLength="65" x="766.75" y="486.9102">AuthFacade</text><line style="stroke:#A80036;stroke-width:1.5;" x1="657.5" x2="908.5" y1="498" y2="498"/><line style="stroke:#A80036;stroke-width:1.5;" x1="657.5" x2="908.5" y1="506" y2="506"/><text fill="#000000" font-family="sans-serif" font-size="11" lengthAdjust="spacing" textLength="90" x="662.5" y="521.4189">+existsUser(email)</text><text fill="#000000" font-family="sans-serif" font-size="11" lengthAdjust="spacing" textLength="241" x="662.5" y="535.2549">+addUserWithRole(name, email, password, roleId)</text><!--MD5=[9a2889027d1a5f59ee05c53124f224f8]
class PasswordGenerator--><rect codeLine="52" fill="#FEFECE" filter="url(#f1jkpnlke8rsva)" height="61.8359" id="PasswordGenerator" style="stroke:#A80036;stroke-width:1.5;" width="143" x="432.5" y="710"/><ellipse cx="447.5" cy="726" fill="#ADD1B2" rx="11" ry="11" style="stroke:#A80036;stroke-width:1.0;"/><path d="M450.2656,721.875 Q450.4219,721.6563 450.6094,721.5469 Q450.7969,721.4375 451.0156,721.4375 Q451.3906,721.4375 451.625,721.7031 Q451.8594,721.9531 451.8594,722.5625 L451.8594,724.0156 Q451.8594,724.625 451.625,724.8906 Q451.3906,725.1563 451.0156,725.1563 Q450.6719,725.1563 450.4688,724.9531 Q450.2656,724.7656 450.1563,724.25 Q450.1094,723.8906 449.9219,723.7031 Q449.5938,723.3281 448.9844,723.1094 Q448.375,722.8906 447.75,722.8906 Q446.9844,722.8906 446.3438,723.2188 Q445.7188,723.5469 445.2188,724.2969 Q444.7344,725.0469 444.7344,726.0781 L444.7344,727.1719 Q444.7344,728.4063 445.625,729.2344 Q446.5156,730.0469 448.1094,730.0469 Q449.0469,730.0469 449.7031,729.7969 Q450.0938,729.6406 450.5156,729.2031 Q450.7813,728.9375 450.9219,728.8594 Q451.0781,728.7813 451.2813,728.7813 Q451.6094,728.7813 451.8594,729.0469 Q452.125,729.2969 452.125,729.6406 Q452.125,729.9844 451.7813,730.3906 Q451.2813,730.9688 450.4844,731.2969 Q449.4063,731.75 448.1094,731.75 Q446.5938,731.75 445.3906,731.125 Q444.4063,730.625 443.7188,729.5625 Q443.0313,728.4844 443.0313,727.2031 L443.0313,726.0469 Q443.0313,724.7188 443.6406,723.5781 Q444.2656,722.4219 445.3594,721.8125 Q446.4531,721.1875 447.6875,721.1875 Q448.4219,721.1875 449.0625,721.3594 Q449.7188,721.5156 450.2656,721.875 Z " fill="#000000"/><text fill="#000000" font-family="sans-serif" font-size="12" lengthAdjust="spacing" textLength="111" x="461.5" y="730.9102">PasswordGenerator</text><line style="stroke:#A80036;stroke-width:1.5;" x1="433.5" x2="574.5" y1="742" y2="742"/><line style="stroke:#A80036;stroke-width:1.5;" x1="433.5" x2="574.5" y1="750" y2="750"/><text fill="#000000" font-family="sans-serif" font-size="11" lengthAdjust="spacing" textLength="107" x="438.5" y="765.4189">+generatePassword()</text><!--MD5=[dbd744789a27dfb7a38205596e031569]
class EmailSender--><rect codeLine="56" fill="#FEFECE" filter="url(#f1jkpnlke8rsva)" height="61.8359" id="EmailSender" style="stroke:#A80036;stroke-width:1.5;" width="204" x="611" y="710"/><ellipse cx="672.75" cy="726" fill="#ADD1B2" rx="11" ry="11" style="stroke:#A80036;stroke-width:1.0;"/><path d="M675.5156,721.875 Q675.6719,721.6563 675.8594,721.5469 Q676.0469,721.4375 676.2656,721.4375 Q676.6406,721.4375 676.875,721.7031 Q677.1094,721.9531 677.1094,722.5625 L677.1094,724.0156 Q677.1094,724.625 676.875,724.8906 Q676.6406,725.1563 676.2656,725.1563 Q675.9219,725.1563 675.7188,724.9531 Q675.5156,724.7656 675.4063,724.25 Q675.3594,723.8906 675.1719,723.7031 Q674.8438,723.3281 674.2344,723.1094 Q673.625,722.8906 673,722.8906 Q672.2344,722.8906 671.5938,723.2188 Q670.9688,723.5469 670.4688,724.2969 Q669.9844,725.0469 669.9844,726.0781 L669.9844,727.1719 Q669.9844,728.4063 670.875,729.2344 Q671.7656,730.0469 673.3594,730.0469 Q674.2969,730.0469 674.9531,729.7969 Q675.3438,729.6406 675.7656,729.2031 Q676.0313,728.9375 676.1719,728.8594 Q676.3281,728.7813 676.5313,728.7813 Q676.8594,728.7813 677.1094,729.0469 Q677.375,729.2969 677.375,729.6406 Q677.375,729.9844 677.0313,730.3906 Q676.5313,730.9688 675.7344,731.2969 Q674.6563,731.75 673.3594,731.75 Q671.8438,731.75 670.6406,731.125 Q669.6563,730.625 668.9688,729.5625 Q668.2813,728.4844 668.2813,727.2031 L668.2813,726.0469 Q668.2813,724.7188 668.8906,723.5781 Q669.5156,722.4219 670.6094,721.8125 Q671.7031,721.1875 672.9375,721.1875 Q673.6719,721.1875 674.3125,721.3594 Q674.9688,721.5156 675.5156,721.875 Z " fill="#000000"/><text fill="#000000" font-family="sans-serif" font-size="12" lengthAdjust="spacing" textLength="72" x="693.25" y="730.9102">EmailSender</text><line style="stroke:#A80036;stroke-width:1.5;" x1="612" x2="814" y1="742" y2="742"/><line style="stroke:#A80036;stroke-width:1.5;" x1="612" x2="814" y1="750" y2="750"/><text fill="#000000" font-family="sans-serif" font-size="11" lengthAdjust="spacing" textLength="192" x="617" y="765.4189">+sendPasswordEmail(email, password)</text><!--MD5=[3fd616f346a44cd59a91eb10b19e157c]
class User--><rect codeLine="60" fill="#FEFECE" filter="url(#f1jkpnlke8rsva)" height="103.3438" id="User" style="stroke:#A80036;stroke-width:1.5;" width="100" x="152" y="933"/><ellipse cx="185.45" cy="949" fill="#ADD1B2" rx="11" ry="11" style="stroke:#A80036;stroke-width:1.0;"/><path d="M188.2156,944.875 Q188.3719,944.6563 188.5594,944.5469 Q188.7469,944.4375 188.9656,944.4375 Q189.3406,944.4375 189.575,944.7031 Q189.8094,944.9531 189.8094,945.5625 L189.8094,947.0156 Q189.8094,947.625 189.575,947.8906 Q189.3406,948.1563 188.9656,948.1563 Q188.6219,948.1563 188.4188,947.9531 Q188.2156,947.7656 188.1063,947.25 Q188.0594,946.8906 187.8719,946.7031 Q187.5438,946.3281 186.9344,946.1094 Q186.325,945.8906 185.7,945.8906 Q184.9344,945.8906 184.2938,946.2188 Q183.6688,946.5469 183.1688,947.2969 Q182.6844,948.0469 182.6844,949.0781 L182.6844,950.1719 Q182.6844,951.4063 183.575,952.2344 Q184.4656,953.0469 186.0594,953.0469 Q186.9969,953.0469 187.6531,952.7969 Q188.0438,952.6406 188.4656,952.2031 Q188.7313,951.9375 188.8719,951.8594 Q189.0281,951.7813 189.2313,951.7813 Q189.5594,951.7813 189.8094,952.0469 Q190.075,952.2969 190.075,952.6406 Q190.075,952.9844 189.7313,953.3906 Q189.2313,953.9688 188.4344,954.2969 Q187.3563,954.75 186.0594,954.75 Q184.5438,954.75 183.3406,954.125 Q182.3563,953.625 181.6688,952.5625 Q180.9813,951.4844 180.9813,950.2031 L180.9813,949.0469 Q180.9813,947.7188 181.5906,946.5781 Q182.2156,945.4219 183.3094,944.8125 Q184.4031,944.1875 185.6375,944.1875 Q186.3719,944.1875 187.0125,944.3594 Q187.6688,944.5156 188.2156,944.875 Z " fill="#000000"/><text fill="#000000" font-family="sans-serif" font-size="12" lengthAdjust="spacing" textLength="27" x="203.55" y="953.9102">User</text><line style="stroke:#A80036;stroke-width:1.5;" x1="153" x2="251" y1="965" y2="965"/><text fill="#000000" font-family="sans-serif" font-size="11" lengthAdjust="spacing" textLength="64" x="158" y="980.4189">-name: String</text><text fill="#000000" font-family="sans-serif" font-size="11" lengthAdjust="spacing" textLength="62" x="158" y="994.2549">-email: String</text><text fill="#000000" font-family="sans-serif" font-size="11" lengthAdjust="spacing" textLength="88" x="158" y="1008.0908">-password: String</text><text fill="#000000" font-family="sans-serif" font-size="11" lengthAdjust="spacing" textLength="64" x="158" y="1021.9268">-roleId: String</text><line style="stroke:#A80036;stroke-width:1.5;" x1="153" x2="251" y1="1028.3438" y2="1028.3438"/><!--MD5=[b5be973b5d3f2d8f249510587bb68e72]
class EmployeeRole--><rect codeLine="67" fill="#FEFECE" filter="url(#f1jkpnlke8rsva)" height="75.6719" id="EmployeeRole" style="stroke:#A80036;stroke-width:1.5;" width="113" x="644.5" y="946.5"/><ellipse cx="659.5" cy="962.5" fill="#ADD1B2" rx="11" ry="11" style="stroke:#A80036;stroke-width:1.0;"/><path d="M662.2656,958.375 Q662.4219,958.1563 662.6094,958.0469 Q662.7969,957.9375 663.0156,957.9375 Q663.3906,957.9375 663.625,958.2031 Q663.8594,958.4531 663.8594,959.0625 L663.8594,960.5156 Q663.8594,961.125 663.625,961.3906 Q663.3906,961.6563 663.0156,961.6563 Q662.6719,961.6563 662.4688,961.4531 Q662.2656,961.2656 662.1563,960.75 Q662.1094,960.3906 661.9219,960.2031 Q661.5938,959.8281 660.9844,959.6094 Q660.375,959.3906 659.75,959.3906 Q658.9844,959.3906 658.3438,959.7188 Q657.7188,960.0469 657.2188,960.7969 Q656.7344,961.5469 656.7344,962.5781 L656.7344,963.6719 Q656.7344,964.9063 657.625,965.7344 Q658.5156,966.5469 660.1094,966.5469 Q661.0469,966.5469 661.7031,966.2969 Q662.0938,966.1406 662.5156,965.7031 Q662.7813,965.4375 662.9219,965.3594 Q663.0781,965.2813 663.2813,965.2813 Q663.6094,965.2813 663.8594,965.5469 Q664.125,965.7969 664.125,966.1406 Q664.125,966.4844 663.7813,966.8906 Q663.2813,967.4688 662.4844,967.7969 Q661.4063,968.25 660.1094,968.25 Q658.5938,968.25 657.3906,967.625 Q656.4063,967.125 655.7188,966.0625 Q655.0313,964.9844 655.0313,963.7031 L655.0313,962.5469 Q655.0313,961.2188 655.6406,960.0781 Q656.2656,958.9219 657.3594,958.3125 Q658.4531,957.6875 659.6875,957.6875 Q660.4219,957.6875 661.0625,957.8594 Q661.7188,958.0156 662.2656,958.375 Z " fill="#000000"/><text fill="#000000" font-family="sans-serif" font-size="12" lengthAdjust="spacing" textLength="81" x="673.5" y="967.4102">EmployeeRole</text><line style="stroke:#A80036;stroke-width:1.5;" x1="645.5" x2="756.5" y1="978.5" y2="978.5"/><text fill="#000000" font-family="sans-serif" font-size="11" lengthAdjust="spacing" textLength="46" x="650.5" y="993.9189">-id: String</text><text fill="#000000" font-family="sans-serif" font-size="11" lengthAdjust="spacing" textLength="91" x="650.5" y="1007.7549">-description: String</text><line style="stroke:#A80036;stroke-width:1.5;" x1="645.5" x2="756.5" y1="1014.1719" y2="1014.1719"/><!--MD5=[3fd241ca11f270f6bde54c00b8a8581a]
link RegisterEmployeeUI to RegisterEmployeeController--><path codeLine="72" d="M783,55.18 C783,70.59 783,91.42 783,110.45 " fill="none" id="RegisterEmployeeUI-to-RegisterEmployeeController" style="stroke:#A80036;stroke-width:1.0;stroke-dasharray:7.0,7.0;"/><polygon fill="#A80036" points="783,115.76,787,106.76,783,110.76,779,106.76,783,115.76" style="stroke:#A80036;stroke-width:1.0;"/><!--MD5=[2d8a53e9624ba54287d0a5c6da82a9db]
link RegisterEmployeeController to EmployeeStore--><path codeLine="74" d="M736.44,206.23 C668.78,270.5 543.79,389.21 474.17,455.35 " fill="none" id="RegisterEmployeeController-to-EmployeeStore" style="stroke:#A80036;stroke-width:1.0;stroke-dasharray:7.0,7.0;"/><polygon fill="#A80036" points="470.48,458.85,479.7555,455.5387,474.1003,455.4014,474.2377,449.7462,470.48,458.85" style="stroke:#A80036;stroke-width:1.0;"/><!--MD5=[969ee03aa52aee79b0e607297418cbd4]
link RegisterEmployeeController to Company--><path codeLine="75" d="M783,206.09 C783,223.04 783,242.83 783,261.61 " fill="none" id="RegisterEmployeeController-to-Company" style="stroke:#A80036;stroke-width:1.0;stroke-dasharray:7.0,7.0;"/><polygon fill="#A80036" points="783,266.88,787,257.88,783,261.88,779,257.88,783,266.88" style="stroke:#A80036;stroke-width:1.0;"/><!--MD5=[cb4b4c951229f0932d6ca40f2429fbe6]
link RegisterEmployeeController to EmployeeRoleStore--><path codeLine="77" d="M820.62,206.04 C835.85,224.48 853.28,246.39 868,267 C917.43,336.19 968.78,421.67 996.09,468.42 " fill="none" id="RegisterEmployeeController-to-EmployeeRoleStore" style="stroke:#A80036;stroke-width:1.0;stroke-dasharray:7.0,7.0;"/><polygon fill="#A80036" points="998.66,472.82,997.5843,463.0301,996.1424,468.5001,990.6724,467.0582,998.66,472.82" style="stroke:#A80036;stroke-width:1.0;"/><!--MD5=[cb04af064b34965b13e3441af3b2cb09]
link EmployeeStore to PasswordGenerator--><path codeLine="80" d="M439.05,549.2 C454.4,594.3 477.92,663.39 492.05,704.89 " fill="none" id="EmployeeStore-to-PasswordGenerator" style="stroke:#A80036;stroke-width:1.0;stroke-dasharray:7.0,7.0;"/><polygon fill="#A80036" points="493.72,709.81,494.6068,700.0011,492.109,705.0767,487.0334,702.5788,493.72,709.81" style="stroke:#A80036;stroke-width:1.0;"/><!--MD5=[d6aae3bd22dab2a7c3615ccc8a88e9d1]
link EmployeeStore to EmailSender--><path codeLine="81" d="M489.28,549.15 C521.27,571.53 559.94,599.69 593,627 C623.37,652.08 655.77,682.86 679.24,705.95 " fill="none" id="EmployeeStore-to-EmailSender" style="stroke:#A80036;stroke-width:1.0;stroke-dasharray:7.0,7.0;"/><polygon fill="#A80036" points="682.93,709.59,679.3205,700.4264,679.3661,706.0831,673.7094,706.1287,682.93,709.59" style="stroke:#A80036;stroke-width:1.0;"/><!--MD5=[2f3bac1bdf76f0b867b8cadb6fadb6bc]
link EmployeeStore to Employee--><path codeLine="82" d="M382.24,549.2 C361.39,571.27 335.12,599.09 309.12,626.6 " fill="none" id="EmployeeStore-Employee" style="stroke:#A80036;stroke-width:1.0;"/><polygon fill="#000000" points="354.5664,591.8104,362.9142,587.2536,358.6415,583.2171,354.5664,591.8104" style="stroke:#000000;stroke-width:1.0;"/><text fill="#000000" font-family="sans-serif" font-size="13" lengthAdjust="spacing" textLength="36" x="367" y="593.4951">stores</text><!--MD5=[717d4b03d3c4372f4eafe5e342a0a7dd]
link Company to AuthFacade--><path codeLine="84" d="M783,398.06 C783,418.93 783,441.53 783,460.39 " fill="none" id="Company-to-AuthFacade" style="stroke:#A80036;stroke-width:1.0;stroke-dasharray:7.0,7.0;"/><polygon fill="#A80036" points="783,465.61,787,456.61,783,460.61,779,456.61,783,465.61" style="stroke:#A80036;stroke-width:1.0;"/><!--MD5=[ce859576cba61219b3cb4d2d23fdcd81]
link Company to EmployeeStore--><path codeLine="85" d="M715.9,365.18 C661.4,390.91 583.79,427.56 522.29,456.59 " fill="none" id="Company-to-EmployeeStore" style="stroke:#A80036;stroke-width:1.0;stroke-dasharray:7.0,7.0;"/><polygon fill="#A80036" points="517.52,458.85,527.3664,458.6296,522.0425,456.7176,523.9545,451.3936,517.52,458.85" style="stroke:#A80036;stroke-width:1.0;"/><!--MD5=[c479b7b88d7c23e22ae76348c25bd117]
link Company to EmployeeRoleStore--><path codeLine="86" d="M850.08,382.3 C888.71,410.4 936.23,444.97 970.5,469.9 " fill="none" id="Company-to-EmployeeRoleStore" style="stroke:#A80036;stroke-width:1.0;stroke-dasharray:7.0,7.0;"/><polygon fill="#A80036" points="974.62,472.89,969.6976,464.3594,970.5776,469.9474,964.9896,470.8274,974.62,472.89" style="stroke:#A80036;stroke-width:1.0;"/><!--MD5=[22fb9506fac029fc1d2ae00f0eb8d606]
link Employee to User--><path codeLine="88" d="M202,855.33 C202,882.53 202,910.24 202,932.9 " fill="none" id="Employee-User" style="stroke:#A80036;stroke-width:1.0;"/><polygon fill="#000000" points="207,899.1758,209.9389,890.1307,204.0611,890.1307,207,899.1758" style="stroke:#000000;stroke-width:1.0;"/><text fill="#000000" font-family="sans-serif" font-size="13" lengthAdjust="spacing" textLength="86" x="216" y="899.4951">corresponds to</text><!--MD5=[1831a7701810a27d6381c866aeaf1707]
link Employee to EmployeeRole--><path codeLine="89" d="M397.03,846.11 C403.08,849.13 409.08,852.1 415,855 C493.6,893.46 586.26,934.28 644.33,959.34 " fill="none" id="Employee-EmployeeRole" style="stroke:#A80036;stroke-width:1.0;"/><polygon fill="#000000" points="526.5461,896.2573,519.5456,889.8197,517.0986,895.1639,526.5461,896.2573" style="stroke:#000000;stroke-width:1.0;"/><text fill="#000000" font-family="sans-serif" font-size="13" lengthAdjust="spacing" textLength="21" x="531" y="899.4951">has</text><text fill="#000000" font-family="sans-serif" font-size="13" lengthAdjust="spacing" textLength="5" x="404.746" y="847.4079">*</text><text fill="#000000" font-family="sans-serif" font-size="13" lengthAdjust="spacing" textLength="7" x="629.6207" y="952.63">1</text><!--MD5=[835b6358f61cd27f622dc321001e64f4]
link EmployeeRoleStore to EmployeeRole--><path codeLine="91" d="M1003.98,535.42 C978.24,598.56 913.5,746.95 833,855 C807.68,888.98 773.21,922.21 745.84,946.36 " fill="none" id="EmployeeRoleStore-EmployeeRole" style="stroke:#A80036;stroke-width:1.0;"/><polygon fill="#000000" points="965.3404,745.4097,972.6403,739.3137,967.663,736.1871,965.3404,745.4097" style="stroke:#000000;stroke-width:1.0;"/><text fill="#000000" font-family="sans-serif" font-size="13" lengthAdjust="spacing" textLength="36" x="977" y="746.4951">stores</text><!--MD5=[eed5d58abf021a6af05f92868eb88c2a]
@startuml US10_CD
skinparam classAttributeIconSize 0

class RegisterEmployeeUI {
}

class RegisterEmployeeController {
  +getEmployeeRoles()
  +createEmployee(name, address, phoneNumber, email, citizenCardNumber, roleId)
  +saveEmployee()
}

class Company {
  -designation: String
  +Company(designation)
  +getDesignation()
  +getAuthFacade()
  +getEmployeeStore()
  +getEmployeeRoleStore()
}

class EmployeeStore {
  +addEmployee(name, address, phoneNumber, email, citizenCardNumber, roleId)
  +validateEmployee(employee)
  +saveEmployee(employee)
}

class Employee {
  -id: String
  -address: String
  -phoneNumber: String
  -citizenCardNumber: String
  +Employee(id, name, address, phoneNumber, email, citizenCardNumber, roleId)
  +getId()
  +getName()
  +getAddress()
  +getPhoneNumber()
  +getEmail()
  +getCitizenCardNumber()
  +getPassword()
  +getRoleId()
}

class EmployeeRoleStore {
  +getRoles()
}

class AuthFacade {
  +existsUser(email)
  +addUserWithRole(name, email, password, roleId)
}

class PasswordGenerator {
  +generatePassword()
}

class EmailSender {
  +sendPasswordEmail(email, password)
}

class User {
  -name: String
  -email: String
  -password: String
  -roleId: String
}

class EmployeeRole {
  -id: String
  -description: String
}

RegisterEmployeeUI ..> RegisterEmployeeController

RegisterEmployeeController ..> EmployeeStore
RegisterEmployeeController ..> Company
' RegisterEmployeeController ..> AuthFacade
RegisterEmployeeController ..> EmployeeRoleStore

' EmployeeStore ..> AuthFacade
EmployeeStore ..> PasswordGenerator
EmployeeStore ..> EmailSender
EmployeeStore - - Employee : stores >

Company ..> AuthFacade
Company ..> EmployeeStore
Company ..> EmployeeRoleStore

Employee - - User : corresponds to >
Employee "*" - - "1" EmployeeRole : has >

EmployeeRoleStore - - EmployeeRole : stores >

@enduml

@startuml US10_CD
skinparam classAttributeIconSize 0

class RegisterEmployeeUI {
}

class RegisterEmployeeController {
  +getEmployeeRoles()
  +createEmployee(name, address, phoneNumber, email, citizenCardNumber, roleId)
  +saveEmployee()
}

class Company {
  -designation: String
  +Company(designation)
  +getDesignation()
  +getAuthFacade()
  +getEmployeeStore()
  +getEmployeeRoleStore()
}

class EmployeeStore {
  +addEmployee(name, address, phoneNumber, email, citizenCardNumber, roleId)
  +validateEmployee(employee)
  +saveEmployee(employee)
}

class Employee {
  -id: String
  -address: String
  -phoneNumber: String
  -citizenCardNumber: String
  +Employee(id, name, address, phoneNumber, email, citizenCardNumber, roleId)
  +getId()
  +getName()
  +getAddress()
  +getPhoneNumber()
  +getEmail()
  +getCitizenCardNumber()
  +getPassword()
  +getRoleId()
}

class EmployeeRoleStore {
  +getRoles()
}

class AuthFacade {
  +existsUser(email)
  +addUserWithRole(name, email, password, roleId)
}

class PasswordGenerator {
  +generatePassword()
}

class EmailSender {
  +sendPasswordEmail(email, password)
}

class User {
  -name: String
  -email: String
  -password: String
  -roleId: String
}

class EmployeeRole {
  -id: String
  -description: String
}

RegisterEmployeeUI ..> RegisterEmployeeController

RegisterEmployeeController ..> EmployeeStore
RegisterEmployeeController ..> Company
RegisterEmployeeController ..> EmployeeRoleStore

EmployeeStore ..> PasswordGenerator
EmployeeStore ..> EmailSender
EmployeeStore - - Employee : stores >

Company ..> AuthFacade
Company ..> EmployeeStore
Company ..> EmployeeRoleStore

Employee - - User : corresponds to >
Employee "*" - - "1" EmployeeRole : has >

EmployeeRoleStore - - EmployeeRole : stores >

@enduml

PlantUML version 1.2022.0(Tue Jan 11 16:16:42 WET 2022)
(GPL source distribution)
Java Runtime: Java(TM) SE Runtime Environment
JVM: Java HotSpot(TM) 64-Bit Server VM
Default Encoding: Cp1252
Language: pt
Country: PT
--></g></svg>