<?xml version="1.0" encoding="UTF-8" standalone="no"?><svg xmlns="http://www.w3.org/2000/svg" xmlns:xlink="http://www.w3.org/1999/xlink" contentScriptType="application/ecmascript" contentStyleType="text/css" height="301px" preserveAspectRatio="none" style="width:1026px;height:301px;background:#FFFFFF;" version="1.1" viewBox="0 0 1026 301" width="1026px" zoomAndPan="magnify"><defs><filter height="300%" id="f11l22fqfoqhp" width="300%" x="-1" y="-1"><feGaussianBlur result="blurOut" stdDeviation="2.0"/><feColorMatrix in="blurOut" result="blurOut2" type="matrix" values="0 0 0 0 0 0 0 0 0 0 0 0 0 0 0 0 0 0 .4 0"/><feOffset dx="4.0" dy="4.0" in="blurOut2" result="blurOut3"/><feBlend in="SourceGraphic" in2="blurOut3" mode="normal"/></filter></defs><g><!--MD5=[02e4b9b7573f1156f41e60aa5b4e25a4]
class Company--><rect codeLine="5" fill="#FEFECE" filter="url(#f11l22fqfoqhp)" height="53.8359" id="Company" style="stroke:#A80036;stroke-width:1.5;" width="85" x="7" y="105.3564"/><ellipse cx="22" cy="121.3564" fill="#ADD1B2" rx="11" ry="11" style="stroke:#A80036;stroke-width:1.0;"/><path d="M24.7656,117.2314 Q24.9219,117.0127 25.1094,116.9033 Q25.2969,116.7939 25.5156,116.7939 Q25.8906,116.7939 26.125,117.0596 Q26.3594,117.3096 26.3594,117.9189 L26.3594,119.3721 Q26.3594,119.9814 26.125,120.2471 Q25.8906,120.5127 25.5156,120.5127 Q25.1719,120.5127 24.9688,120.3096 Q24.7656,120.1221 24.6563,119.6064 Q24.6094,119.2471 24.4219,119.0596 Q24.0938,118.6846 23.4844,118.4658 Q22.875,118.2471 22.25,118.2471 Q21.4844,118.2471 20.8438,118.5752 Q20.2188,118.9033 19.7188,119.6533 Q19.2344,120.4033 19.2344,121.4346 L19.2344,122.5283 Q19.2344,123.7627 20.125,124.5908 Q21.0156,125.4033 22.6094,125.4033 Q23.5469,125.4033 24.2031,125.1533 Q24.5938,124.9971 25.0156,124.5596 Q25.2813,124.2939 25.4219,124.2158 Q25.5781,124.1377 25.7813,124.1377 Q26.1094,124.1377 26.3594,124.4033 Q26.625,124.6533 26.625,124.9971 Q26.625,125.3408 26.2813,125.7471 Q25.7813,126.3252 24.9844,126.6533 Q23.9063,127.1064 22.6094,127.1064 Q21.0938,127.1064 19.8906,126.4814 Q18.9063,125.9814 18.2188,124.9189 Q17.5313,123.8408 17.5313,122.5596 L17.5313,121.4033 Q17.5313,120.0752 18.1406,118.9346 Q18.7656,117.7783 19.8594,117.1689 Q20.9531,116.5439 22.1875,116.5439 Q22.9219,116.5439 23.5625,116.7158 Q24.2188,116.8721 24.7656,117.2314 Z " fill="#000000"/><text fill="#000000" font-family="sans-serif" font-size="12" lengthAdjust="spacing" textLength="53" x="36" y="126.2666">Company</text><line style="stroke:#A80036;stroke-width:1.5;" x1="8" x2="91" y1="137.3564" y2="137.3564"/><text fill="#000000" font-family="sans-serif" font-size="11" lengthAdjust="spacing" textLength="59" x="13" y="152.7754">-designation</text><!--MD5=[19e445fc4d3b48519cbe33da05496394]
class Vaccine--><rect codeLine="9" fill="#FEFECE" filter="url(#f11l22fqfoqhp)" height="53.8359" id="Vaccine" style="stroke:#A80036;stroke-width:1.5;" width="75" x="435" y="51.3564"/><ellipse cx="450" cy="67.3564" fill="#ADD1B2" rx="11" ry="11" style="stroke:#A80036;stroke-width:1.0;"/><path d="M452.7656,63.2314 Q452.9219,63.0127 453.1094,62.9033 Q453.2969,62.7939 453.5156,62.7939 Q453.8906,62.7939 454.125,63.0596 Q454.3594,63.3096 454.3594,63.9189 L454.3594,65.3721 Q454.3594,65.9814 454.125,66.2471 Q453.8906,66.5127 453.5156,66.5127 Q453.1719,66.5127 452.9688,66.3096 Q452.7656,66.1221 452.6563,65.6064 Q452.6094,65.2471 452.4219,65.0596 Q452.0938,64.6846 451.4844,64.4658 Q450.875,64.2471 450.25,64.2471 Q449.4844,64.2471 448.8438,64.5752 Q448.2188,64.9033 447.7188,65.6533 Q447.2344,66.4033 447.2344,67.4346 L447.2344,68.5283 Q447.2344,69.7627 448.125,70.5908 Q449.0156,71.4033 450.6094,71.4033 Q451.5469,71.4033 452.2031,71.1533 Q452.5938,70.9971 453.0156,70.5596 Q453.2813,70.2939 453.4219,70.2158 Q453.5781,70.1377 453.7813,70.1377 Q454.1094,70.1377 454.3594,70.4033 Q454.625,70.6533 454.625,70.9971 Q454.625,71.3408 454.2813,71.7471 Q453.7813,72.3252 452.9844,72.6533 Q451.9063,73.1064 450.6094,73.1064 Q449.0938,73.1064 447.8906,72.4814 Q446.9063,71.9814 446.2188,70.9189 Q445.5313,69.8408 445.5313,68.5596 L445.5313,67.4033 Q445.5313,66.0752 446.1406,64.9346 Q446.7656,63.7783 447.8594,63.1689 Q448.9531,62.5439 450.1875,62.5439 Q450.9219,62.5439 451.5625,62.7158 Q452.2188,62.8721 452.7656,63.2314 Z " fill="#000000"/><text fill="#000000" font-family="sans-serif" font-size="12" lengthAdjust="spacing" textLength="43" x="464" y="72.2666">Vaccine</text><line style="stroke:#A80036;stroke-width:1.5;" x1="436" x2="509" y1="83.3564" y2="83.3564"/><text fill="#000000" font-family="sans-serif" font-size="11" lengthAdjust="spacing" textLength="59" x="441" y="98.7754">-designation</text><!--MD5=[0e501da62322464167c8ec4d233a6b7e]
class VaccineType--><rect codeLine="13" fill="#FEFECE" filter="url(#f11l22fqfoqhp)" height="81.5078" id="VaccineType" style="stroke:#A80036;stroke-width:1.5;" width="101" x="637" y="141.3564"/><ellipse cx="652" cy="157.3564" fill="#ADD1B2" rx="11" ry="11" style="stroke:#A80036;stroke-width:1.0;"/><path d="M654.7656,153.2314 Q654.9219,153.0127 655.1094,152.9033 Q655.2969,152.7939 655.5156,152.7939 Q655.8906,152.7939 656.125,153.0596 Q656.3594,153.3096 656.3594,153.9189 L656.3594,155.3721 Q656.3594,155.9814 656.125,156.2471 Q655.8906,156.5127 655.5156,156.5127 Q655.1719,156.5127 654.9688,156.3096 Q654.7656,156.1221 654.6563,155.6064 Q654.6094,155.2471 654.4219,155.0596 Q654.0938,154.6846 653.4844,154.4658 Q652.875,154.2471 652.25,154.2471 Q651.4844,154.2471 650.8438,154.5752 Q650.2188,154.9033 649.7188,155.6533 Q649.2344,156.4033 649.2344,157.4346 L649.2344,158.5283 Q649.2344,159.7627 650.125,160.5908 Q651.0156,161.4033 652.6094,161.4033 Q653.5469,161.4033 654.2031,161.1533 Q654.5938,160.9971 655.0156,160.5596 Q655.2813,160.2939 655.4219,160.2158 Q655.5781,160.1377 655.7813,160.1377 Q656.1094,160.1377 656.3594,160.4033 Q656.625,160.6533 656.625,160.9971 Q656.625,161.3408 656.2813,161.7471 Q655.7813,162.3252 654.9844,162.6533 Q653.9063,163.1064 652.6094,163.1064 Q651.0938,163.1064 649.8906,162.4814 Q648.9063,161.9814 648.2188,160.9189 Q647.5313,159.8408 647.5313,158.5596 L647.5313,157.4033 Q647.5313,156.0752 648.1406,154.9346 Q648.7656,153.7783 649.8594,153.1689 Q650.9531,152.5439 652.1875,152.5439 Q652.9219,152.5439 653.5625,152.7158 Q654.2188,152.8721 654.7656,153.2314 Z " fill="#000000"/><text fill="#000000" font-family="sans-serif" font-size="12" lengthAdjust="spacing" textLength="69" x="666" y="162.2666">VaccineType</text><line style="stroke:#A80036;stroke-width:1.5;" x1="638" x2="737" y1="173.3564" y2="173.3564"/><text fill="#000000" font-family="sans-serif" font-size="11" lengthAdjust="spacing" textLength="28" x="643" y="188.7754">-code</text><text fill="#000000" font-family="sans-serif" font-size="11" lengthAdjust="spacing" textLength="59" x="643" y="202.6113">-designation</text><text fill="#000000" font-family="sans-serif" font-size="11" lengthAdjust="spacing" textLength="34" x="643" y="216.4473">-whoid</text><!--MD5=[27b15205ea271c1a0133fe11fcedb921]
class AdministrationProccess--><rect codeLine="19" fill="#FEFECE" filter="url(#f11l22fqfoqhp)" height="81.5078" id="AdministrationProccess" style="stroke:#A80036;stroke-width:1.5;" width="163" x="606" y="24.3564"/><ellipse cx="621" cy="40.3564" fill="#ADD1B2" rx="11" ry="11" style="stroke:#A80036;stroke-width:1.0;"/><path d="M623.7656,36.2314 Q623.9219,36.0127 624.1094,35.9033 Q624.2969,35.7939 624.5156,35.7939 Q624.8906,35.7939 625.125,36.0596 Q625.3594,36.3096 625.3594,36.9189 L625.3594,38.3721 Q625.3594,38.9814 625.125,39.2471 Q624.8906,39.5127 624.5156,39.5127 Q624.1719,39.5127 623.9688,39.3096 Q623.7656,39.1221 623.6563,38.6064 Q623.6094,38.2471 623.4219,38.0596 Q623.0938,37.6846 622.4844,37.4658 Q621.875,37.2471 621.25,37.2471 Q620.4844,37.2471 619.8438,37.5752 Q619.2188,37.9033 618.7188,38.6533 Q618.2344,39.4033 618.2344,40.4346 L618.2344,41.5283 Q618.2344,42.7627 619.125,43.5908 Q620.0156,44.4033 621.6094,44.4033 Q622.5469,44.4033 623.2031,44.1533 Q623.5938,43.9971 624.0156,43.5596 Q624.2813,43.2939 624.4219,43.2158 Q624.5781,43.1377 624.7813,43.1377 Q625.1094,43.1377 625.3594,43.4033 Q625.625,43.6533 625.625,43.9971 Q625.625,44.3408 625.2813,44.7471 Q624.7813,45.3252 623.9844,45.6533 Q622.9063,46.1064 621.6094,46.1064 Q620.0938,46.1064 618.8906,45.4814 Q617.9063,44.9814 617.2188,43.9189 Q616.5313,42.8408 616.5313,41.5596 L616.5313,40.4033 Q616.5313,39.0752 617.1406,37.9346 Q617.7656,36.7783 618.8594,36.1689 Q619.9531,35.5439 621.1875,35.5439 Q621.9219,35.5439 622.5625,35.7158 Q623.2188,35.8721 623.7656,36.2314 Z " fill="#000000"/><text fill="#000000" font-family="sans-serif" font-size="12" lengthAdjust="spacing" textLength="131" x="635" y="45.2666">AdministrationProccess</text><line style="stroke:#A80036;stroke-width:1.5;" x1="607" x2="768" y1="56.3564" y2="56.3564"/><text fill="#000000" font-family="sans-serif" font-size="11" lengthAdjust="spacing" textLength="119" x="612" y="71.7754">-AgeGroupMaximumLimit</text><text fill="#000000" font-family="sans-serif" font-size="11" lengthAdjust="spacing" textLength="115" x="612" y="85.6113">-AgeGroupMinimumLimit</text><text fill="#000000" font-family="sans-serif" font-size="11" lengthAdjust="spacing" textLength="84" x="612" y="99.4473">-NumberOfDoses</text><!--MD5=[314049a68369c9017001390edfc299b1]
class DosesInformation--><rect codeLine="25" fill="#FEFECE" filter="url(#f11l22fqfoqhp)" height="81.5078" id="DosesInformation" style="stroke:#A80036;stroke-width:1.5;" width="131" x="881" y="206.3564"/><ellipse cx="896" cy="222.3564" fill="#ADD1B2" rx="11" ry="11" style="stroke:#A80036;stroke-width:1.0;"/><path d="M898.7656,218.2314 Q898.9219,218.0127 899.1094,217.9033 Q899.2969,217.7939 899.5156,217.7939 Q899.8906,217.7939 900.125,218.0596 Q900.3594,218.3096 900.3594,218.9189 L900.3594,220.3721 Q900.3594,220.9814 900.125,221.2471 Q899.8906,221.5127 899.5156,221.5127 Q899.1719,221.5127 898.9688,221.3096 Q898.7656,221.1221 898.6563,220.6064 Q898.6094,220.2471 898.4219,220.0596 Q898.0938,219.6846 897.4844,219.4658 Q896.875,219.2471 896.25,219.2471 Q895.4844,219.2471 894.8438,219.5752 Q894.2188,219.9033 893.7188,220.6533 Q893.2344,221.4033 893.2344,222.4346 L893.2344,223.5283 Q893.2344,224.7627 894.125,225.5908 Q895.0156,226.4033 896.6094,226.4033 Q897.5469,226.4033 898.2031,226.1533 Q898.5938,225.9971 899.0156,225.5596 Q899.2813,225.2939 899.4219,225.2158 Q899.5781,225.1377 899.7813,225.1377 Q900.1094,225.1377 900.3594,225.4033 Q900.625,225.6533 900.625,225.9971 Q900.625,226.3408 900.2813,226.7471 Q899.7813,227.3252 898.9844,227.6533 Q897.9063,228.1064 896.6094,228.1064 Q895.0938,228.1064 893.8906,227.4814 Q892.9063,226.9814 892.2188,225.9189 Q891.5313,224.8408 891.5313,223.5596 L891.5313,222.4033 Q891.5313,221.0752 892.1406,219.9346 Q892.7656,218.7783 893.8594,218.1689 Q894.9531,217.5439 896.1875,217.5439 Q896.9219,217.5439 897.5625,217.7158 Q898.2188,217.8721 898.7656,218.2314 Z " fill="#000000"/><text fill="#000000" font-family="sans-serif" font-size="12" lengthAdjust="spacing" textLength="99" x="910" y="227.2666">DosesInformation</text><line style="stroke:#A80036;stroke-width:1.5;" x1="882" x2="1011" y1="238.3564" y2="238.3564"/><text fill="#000000" font-family="sans-serif" font-size="11" lengthAdjust="spacing" textLength="65" x="887" y="253.7754">-doseNumber</text><text fill="#000000" font-family="sans-serif" font-size="11" lengthAdjust="spacing" textLength="40" x="887" y="267.6113">-dosage</text><text fill="#000000" font-family="sans-serif" font-size="11" lengthAdjust="spacing" textLength="117" x="887" y="281.4473">-timeIntervalToNextDose</text><!--MD5=[da547346deef918ea16944ba046651ef]
class Administrator--><rect codeLine="31" fill="#FEFECE" filter="url(#f11l22fqfoqhp)" height="40" id="Administrator" style="stroke:#A80036;stroke-width:1.5;" width="105" x="204" y="112.3564"/><ellipse cx="219" cy="128.3564" fill="#ADD1B2" rx="11" ry="11" style="stroke:#A80036;stroke-width:1.0;"/><path d="M221.7656,124.2314 Q221.9219,124.0127 222.1094,123.9033 Q222.2969,123.7939 222.5156,123.7939 Q222.8906,123.7939 223.125,124.0596 Q223.3594,124.3096 223.3594,124.9189 L223.3594,126.3721 Q223.3594,126.9814 223.125,127.2471 Q222.8906,127.5127 222.5156,127.5127 Q222.1719,127.5127 221.9688,127.3096 Q221.7656,127.1221 221.6563,126.6064 Q221.6094,126.2471 221.4219,126.0596 Q221.0938,125.6846 220.4844,125.4658 Q219.875,125.2471 219.25,125.2471 Q218.4844,125.2471 217.8438,125.5752 Q217.2188,125.9033 216.7188,126.6533 Q216.2344,127.4033 216.2344,128.4346 L216.2344,129.5283 Q216.2344,130.7627 217.125,131.5908 Q218.0156,132.4033 219.6094,132.4033 Q220.5469,132.4033 221.2031,132.1533 Q221.5938,131.9971 222.0156,131.5596 Q222.2813,131.2939 222.4219,131.2158 Q222.5781,131.1377 222.7813,131.1377 Q223.1094,131.1377 223.3594,131.4033 Q223.625,131.6533 223.625,131.9971 Q223.625,132.3408 223.2813,132.7471 Q222.7813,133.3252 221.9844,133.6533 Q220.9063,134.1064 219.6094,134.1064 Q218.0938,134.1064 216.8906,133.4814 Q215.9063,132.9814 215.2188,131.9189 Q214.5313,130.8408 214.5313,129.5596 L214.5313,128.4033 Q214.5313,127.0752 215.1406,125.9346 Q215.7656,124.7783 216.8594,124.1689 Q217.9531,123.5439 219.1875,123.5439 Q219.9219,123.5439 220.5625,123.7158 Q221.2188,123.8721 221.7656,124.2314 Z " fill="#000000"/><text fill="#000000" font-family="sans-serif" font-size="12" lengthAdjust="spacing" textLength="73" x="233" y="133.2666">Administrator</text><line style="stroke:#A80036;stroke-width:1.5;" x1="205" x2="308" y1="144.3564" y2="144.3564"/><!--MD5=[c29c8d42883934cbaf5793c72a334947]
link Company to Vaccine--><path codeLine="33" d="M92.06,115.7864 C101.77,112.3164 112.16,108.9364 122,106.3564 C244.64,74.1764 278.44,62.7664 405,70.3564 C414.75,70.9364 425.26,72.0064 434.99,73.1664 " fill="none" id="Company-Vaccine" style="stroke:#A80036;stroke-width:1.0;"/><polygon fill="#000000" points="240.4618,59.9156,231.1233,58.1146,231.8483,63.9476,240.4618,59.9156" style="stroke:#000000;stroke-width:1.0;"/><text fill="#000000" font-family="sans-serif" font-size="13" lengthAdjust="spacing" textLength="37" x="244.5" y="65.8516">knows</text><text fill="#000000" font-family="sans-serif" font-size="13" lengthAdjust="spacing" textLength="7" x="99.9766" y="127.8529">1</text><text fill="#000000" font-family="sans-serif" font-size="13" lengthAdjust="spacing" textLength="5" x="422.113" y="68.1155">*</text><!--MD5=[05986564e1c13a00611587b35563d868]
link Company to VaccineType--><path codeLine="34" d="M92.08,144.8864 C122.71,153.4964 165.55,164.2564 204,169.3564 C361.01,190.1564 549.17,187.3364 636.91,184.4264 " fill="none" id="Company-VaccineType" style="stroke:#A80036;stroke-width:1.0;"/><polygon fill="#000000" points="355.9869,173.8941,347.1783,170.3082,346.7528,176.1706,355.9869,173.8941" style="stroke:#000000;stroke-width:1.0;"/><text fill="#000000" font-family="sans-serif" font-size="13" lengthAdjust="spacing" textLength="37" x="360" y="178.8516">knows</text><text fill="#000000" font-family="sans-serif" font-size="13" lengthAdjust="spacing" textLength="7" x="100" y="161.9545">1</text><text fill="#000000" font-family="sans-serif" font-size="13" lengthAdjust="spacing" textLength="5" x="624.1124" y="199.4626">*</text><!--MD5=[5196fd180dc9aee3774396917ef72abf]
link Company to AdministrationProccess--><path codeLine="35" d="M79.55,105.2364 C91.97,94.6264 107.03,82.9564 122,74.3564 C155.78,54.9464 165.83,51.1864 204,43.3564 C337.3,16.0064 374.47,21.1664 510,33.3564 C541.48,36.1864 575.75,41.8064 605.64,47.5564 " fill="none" id="Company-AdministrationProccess" style="stroke:#A80036;stroke-width:1.0;"/><polygon fill="#000000" points="355.9702,14.9873,346.6587,13.0517,347.2993,18.8945,355.9702,14.9873" style="stroke:#000000;stroke-width:1.0;"/><text fill="#000000" font-family="sans-serif" font-size="13" lengthAdjust="spacing" textLength="37" x="360" y="20.8516">knows</text><text fill="#000000" font-family="sans-serif" font-size="13" lengthAdjust="spacing" textLength="7" x="78.6897" y="94.6697">1</text><text fill="#000000" font-family="sans-serif" font-size="13" lengthAdjust="spacing" textLength="5" x="593.1267" y="60.2163">*</text><!--MD5=[0958af5f4a86a00bd53f3a60421f8edc]
link Company to DosesInformation--><path codeLine="36" d="M70.49,159.4464 C103.81,201.1564 175.04,276.3564 255.5,276.3564 C255.5,276.3564 255.5,276.3564 688.5,276.3564 C754.28,276.3564 828.94,266.8564 880.77,258.7364 " fill="none" id="Company-DosesInformation" style="stroke:#A80036;stroke-width:1.0;"/><polygon fill="#000000" points="456.4629,268.1404,447.8424,264.1231,447.1275,269.9573,456.4629,268.1404" style="stroke:#000000;stroke-width:1.0;"/><text fill="#000000" font-family="sans-serif" font-size="13" lengthAdjust="spacing" textLength="37" x="460.5" y="272.8516">knows</text><text fill="#000000" font-family="sans-serif" font-size="13" lengthAdjust="spacing" textLength="7" x="67.3159" y="180.6739">1</text><text fill="#000000" font-family="sans-serif" font-size="13" lengthAdjust="spacing" textLength="5" x="867.8809" y="274.5212">*</text><!--MD5=[eaea43e34e45c5b9d20b595fc78f1f20]
link Company to Administrator--><path codeLine="37" d="M92.48,132.3564 C124.69,132.3564 169.33,132.3564 203.75,132.3564 " fill="none" id="Company-Administrator" style="stroke:#A80036;stroke-width:1.0;"/><polygon fill="#000000" points="132,123.5322,122.9549,120.5933,122.9549,126.4712,132,123.5322" style="stroke:#000000;stroke-width:1.0;"/><text fill="#000000" font-family="sans-serif" font-size="13" lengthAdjust="spacing" textLength="37" x="136" y="128.8516">knows</text><text fill="#000000" font-family="sans-serif" font-size="13" lengthAdjust="spacing" textLength="7" x="99.8878" y="147.1677">1</text><text fill="#000000" font-family="sans-serif" font-size="13" lengthAdjust="spacing" textLength="5" x="190.9805" y="147.0013">*</text><!--MD5=[0e439f75a3d966f965fe5f237a1bacbe]
link Administrator to Vaccine--><path codeLine="38" d="M309.03,119.3564 C347.87,109.5564 400.17,96.3564 434.82,87.6064 " fill="none" id="Administrator-Vaccine" style="stroke:#A80036;stroke-width:1.0;"/><polygon fill="#000000" points="348.848,86.3086,339.3587,85.6726,340.7972,91.3717,348.848,86.3086" style="stroke:#000000;stroke-width:1.0;"/><text fill="#000000" font-family="sans-serif" font-size="13" lengthAdjust="spacing" textLength="51" x="353" y="92.8516">specifies</text><text fill="#000000" font-family="sans-serif" font-size="13" lengthAdjust="spacing" textLength="7" x="316.9092" y="132.1732">1</text><text fill="#000000" font-family="sans-serif" font-size="13" lengthAdjust="spacing" textLength="5" x="421.9096" y="104.5484">*</text><!--MD5=[ecd3d453b1d839a2865736a7db6ad3ae]
link Vaccine to AdministrationProccess--><path codeLine="39" d="M510.12,76.1264 C536.4,74.5164 572.86,72.2964 605.81,70.2764 " fill="none" id="Vaccine-AdministrationProccess" style="stroke:#A80036;stroke-width:1.0;"/><polygon fill="#000000" points="549.9907,63.2271,540.7831,60.8456,541.1418,66.7125,549.9907,63.2271" style="stroke:#000000;stroke-width:1.0;"/><text fill="#000000" font-family="sans-serif" font-size="13" lengthAdjust="spacing" textLength="21" x="554" y="68.8516">has</text><text fill="#000000" font-family="sans-serif" font-size="13" lengthAdjust="spacing" textLength="7" x="517.9585" y="90.7706">1</text><text fill="#000000" font-family="sans-serif" font-size="13" lengthAdjust="spacing" textLength="5" x="593.0487" y="85.0015">*</text><!--MD5=[3568623adf67b2630dce9e60c05bd02a]
link Vaccine to VaccineType--><path codeLine="40" d="M510.12,96.2364 C545.09,113.3064 598.05,139.1664 636.82,158.0964 " fill="none" id="Vaccine-VaccineType" style="stroke:#A80036;stroke-width:1.0;"/><polygon fill="#000000" points="549.4931,105.7259,542.6545,99.1165,540.0756,104.3984,549.4931,105.7259" style="stroke:#000000;stroke-width:1.0;"/><text fill="#000000" font-family="sans-serif" font-size="13" lengthAdjust="spacing" textLength="21" x="554" y="108.8516">has</text><text fill="#000000" font-family="sans-serif" font-size="13" lengthAdjust="spacing" textLength="7" x="517.9585" y="114.7141">1</text><text fill="#000000" font-family="sans-serif" font-size="13" lengthAdjust="spacing" textLength="7" x="621.8623" y="169.2653">1</text><!--MD5=[af22b2bc2e0333e9daae205b0aa51fd4]
link AdministrationProccess to DosesInformation--><path codeLine="41" d="M746.5,106.4264 C788.54,136.2064 845.17,176.3064 887.27,206.1164 " fill="none" id="AdministrationProccess-DosesInformation" style="stroke:#A80036;stroke-width:1.0;"/><polygon fill="#000000" points="808.0804,140.4219,802.3974,132.796,799.0004,137.5929,808.0804,140.4219" style="stroke:#000000;stroke-width:1.0;"/><text fill="#000000" font-family="sans-serif" font-size="13" lengthAdjust="spacing" textLength="37" x="813" y="142.8516">knows</text><text fill="#000000" font-family="sans-serif" font-size="13" lengthAdjust="spacing" textLength="7" x="747.9984" y="127.5">1</text><text fill="#000000" font-family="sans-serif" font-size="13" lengthAdjust="spacing" textLength="5" x="872.046" y="195.5261">*</text><!--MD5=[279f34a560d11386e55d5f8444f749a7]
@startuml
hide methods
left to right direction
skinparam classAttributeIconSize 0

class Company {
  -designation
}

class Vaccine {
  -designation
}

class VaccineType {
  -code
  -designation
  -whoid
}

class AdministrationProccess {
  -AgeGroupMaximumLimit
  -AgeGroupMinimumLimit
  -NumberOfDoses
}

class DosesInformation {
  -doseNumber
  -dosage
  -timeIntervalToNextDose
}

class Administrator {}

Company "1" - - "*" Vaccine : knows >
Company "1" - - "*" VaccineType : knows >
Company "1" - - "*" AdministrationProccess : knows >
Company "1" - - "*" DosesInformation : knows >
Company "1" - - "*" Administrator : knows >
Administrator "1" - - "*" Vaccine : specifies >
Vaccine "1" - - "*" AdministrationProccess : has >
Vaccine "1" - - "1" VaccineType : has >
AdministrationProccess "1" - - "*" DosesInformation : knows >

@enduml

PlantUML version 1.2022.0(Tue Jan 11 16:16:42 WET 2022)
(GPL source distribution)
Java Runtime: OpenJDK Runtime Environment
JVM: OpenJDK 64-Bit Server VM
Default Encoding: Cp1252
Language: pt
Country: PT
--></g></svg>