<?xml version="1.0" encoding="UTF-8" standalone="no"?><svg xmlns="http://www.w3.org/2000/svg" xmlns:xlink="http://www.w3.org/1999/xlink" contentScriptType="application/ecmascript" contentStyleType="text/css" height="242px" preserveAspectRatio="none" style="width:1010px;height:242px;background:#FFFFFF;" version="1.1" viewBox="0 0 1010 242" width="1010px" zoomAndPan="magnify"><defs><filter height="300%" id="fbidqeqenxa43" width="300%" x="-1" y="-1"><feGaussianBlur result="blurOut" stdDeviation="2.0"/><feColorMatrix in="blurOut" result="blurOut2" type="matrix" values="0 0 0 0 0 0 0 0 0 0 0 0 0 0 0 0 0 0 .4 0"/><feOffset dx="4.0" dy="4.0" in="blurOut2" result="blurOut3"/><feBlend in="SourceGraphic" in2="blurOut3" mode="normal"/></filter></defs><g><!--MD5=[02e4b9b7573f1156f41e60aa5b4e25a4]
class Company--><rect codeLine="5" fill="#FEFECE" filter="url(#fbidqeqenxa43)" height="53.8359" id="Company" style="stroke:#A80036;stroke-width:1.5;" width="85" x="7" y="73"/><ellipse cx="22" cy="89" fill="#ADD1B2" rx="11" ry="11" style="stroke:#A80036;stroke-width:1.0;"/><path d="M24.7656,84.875 Q24.9219,84.6563 25.1094,84.5469 Q25.2969,84.4375 25.5156,84.4375 Q25.8906,84.4375 26.125,84.7031 Q26.3594,84.9531 26.3594,85.5625 L26.3594,87.0156 Q26.3594,87.625 26.125,87.8906 Q25.8906,88.1563 25.5156,88.1563 Q25.1719,88.1563 24.9688,87.9531 Q24.7656,87.7656 24.6563,87.25 Q24.6094,86.8906 24.4219,86.7031 Q24.0938,86.3281 23.4844,86.1094 Q22.875,85.8906 22.25,85.8906 Q21.4844,85.8906 20.8438,86.2188 Q20.2188,86.5469 19.7188,87.2969 Q19.2344,88.0469 19.2344,89.0781 L19.2344,90.1719 Q19.2344,91.4063 20.125,92.2344 Q21.0156,93.0469 22.6094,93.0469 Q23.5469,93.0469 24.2031,92.7969 Q24.5938,92.6406 25.0156,92.2031 Q25.2813,91.9375 25.4219,91.8594 Q25.5781,91.7813 25.7813,91.7813 Q26.1094,91.7813 26.3594,92.0469 Q26.625,92.2969 26.625,92.6406 Q26.625,92.9844 26.2813,93.3906 Q25.7813,93.9688 24.9844,94.2969 Q23.9063,94.75 22.6094,94.75 Q21.0938,94.75 19.8906,94.125 Q18.9063,93.625 18.2188,92.5625 Q17.5313,91.4844 17.5313,90.2031 L17.5313,89.0469 Q17.5313,87.7188 18.1406,86.5781 Q18.7656,85.4219 19.8594,84.8125 Q20.9531,84.1875 22.1875,84.1875 Q22.9219,84.1875 23.5625,84.3594 Q24.2188,84.5156 24.7656,84.875 Z " fill="#000000"/><text fill="#000000" font-family="sans-serif" font-size="12" lengthAdjust="spacing" textLength="53" x="36" y="93.9102">Company</text><line style="stroke:#A80036;stroke-width:1.5;" x1="8" x2="91" y1="105" y2="105"/><text fill="#000000" font-family="sans-serif" font-size="11" lengthAdjust="spacing" textLength="59" x="13" y="120.4189">-designation</text><!--MD5=[19e445fc4d3b48519cbe33da05496394]
class Vaccine--><rect codeLine="9" fill="#FEFECE" filter="url(#fbidqeqenxa43)" height="81.5078" id="Vaccine" style="stroke:#A80036;stroke-width:1.5;" width="75" x="435" y="42"/><ellipse cx="450" cy="58" fill="#ADD1B2" rx="11" ry="11" style="stroke:#A80036;stroke-width:1.0;"/><path d="M452.7656,53.875 Q452.9219,53.6563 453.1094,53.5469 Q453.2969,53.4375 453.5156,53.4375 Q453.8906,53.4375 454.125,53.7031 Q454.3594,53.9531 454.3594,54.5625 L454.3594,56.0156 Q454.3594,56.625 454.125,56.8906 Q453.8906,57.1563 453.5156,57.1563 Q453.1719,57.1563 452.9688,56.9531 Q452.7656,56.7656 452.6563,56.25 Q452.6094,55.8906 452.4219,55.7031 Q452.0938,55.3281 451.4844,55.1094 Q450.875,54.8906 450.25,54.8906 Q449.4844,54.8906 448.8438,55.2188 Q448.2188,55.5469 447.7188,56.2969 Q447.2344,57.0469 447.2344,58.0781 L447.2344,59.1719 Q447.2344,60.4063 448.125,61.2344 Q449.0156,62.0469 450.6094,62.0469 Q451.5469,62.0469 452.2031,61.7969 Q452.5938,61.6406 453.0156,61.2031 Q453.2813,60.9375 453.4219,60.8594 Q453.5781,60.7813 453.7813,60.7813 Q454.1094,60.7813 454.3594,61.0469 Q454.625,61.2969 454.625,61.6406 Q454.625,61.9844 454.2813,62.3906 Q453.7813,62.9688 452.9844,63.2969 Q451.9063,63.75 450.6094,63.75 Q449.0938,63.75 447.8906,63.125 Q446.9063,62.625 446.2188,61.5625 Q445.5313,60.4844 445.5313,59.2031 L445.5313,58.0469 Q445.5313,56.7188 446.1406,55.5781 Q446.7656,54.4219 447.8594,53.8125 Q448.9531,53.1875 450.1875,53.1875 Q450.9219,53.1875 451.5625,53.3594 Q452.2188,53.5156 452.7656,53.875 Z " fill="#000000"/><text fill="#000000" font-family="sans-serif" font-size="12" lengthAdjust="spacing" textLength="43" x="464" y="62.9102">Vaccine</text><line style="stroke:#A80036;stroke-width:1.5;" x1="436" x2="509" y1="74" y2="74"/><text fill="#000000" font-family="sans-serif" font-size="11" lengthAdjust="spacing" textLength="59" x="441" y="89.4189">-designation</text><text fill="#000000" font-family="sans-serif" font-size="11" lengthAdjust="spacing" textLength="12" x="441" y="103.2549">-id</text><text fill="#000000" font-family="sans-serif" font-size="11" lengthAdjust="spacing" textLength="32" x="441" y="117.0908">-brand</text><!--MD5=[0e501da62322464167c8ec4d233a6b7e]
class VaccineType--><rect codeLine="15" fill="#FEFECE" filter="url(#fbidqeqenxa43)" height="81.5078" id="VaccineType" style="stroke:#A80036;stroke-width:1.5;" width="101" x="637" y="147"/><ellipse cx="652" cy="163" fill="#ADD1B2" rx="11" ry="11" style="stroke:#A80036;stroke-width:1.0;"/><path d="M654.7656,158.875 Q654.9219,158.6563 655.1094,158.5469 Q655.2969,158.4375 655.5156,158.4375 Q655.8906,158.4375 656.125,158.7031 Q656.3594,158.9531 656.3594,159.5625 L656.3594,161.0156 Q656.3594,161.625 656.125,161.8906 Q655.8906,162.1563 655.5156,162.1563 Q655.1719,162.1563 654.9688,161.9531 Q654.7656,161.7656 654.6563,161.25 Q654.6094,160.8906 654.4219,160.7031 Q654.0938,160.3281 653.4844,160.1094 Q652.875,159.8906 652.25,159.8906 Q651.4844,159.8906 650.8438,160.2188 Q650.2188,160.5469 649.7188,161.2969 Q649.2344,162.0469 649.2344,163.0781 L649.2344,164.1719 Q649.2344,165.4063 650.125,166.2344 Q651.0156,167.0469 652.6094,167.0469 Q653.5469,167.0469 654.2031,166.7969 Q654.5938,166.6406 655.0156,166.2031 Q655.2813,165.9375 655.4219,165.8594 Q655.5781,165.7813 655.7813,165.7813 Q656.1094,165.7813 656.3594,166.0469 Q656.625,166.2969 656.625,166.6406 Q656.625,166.9844 656.2813,167.3906 Q655.7813,167.9688 654.9844,168.2969 Q653.9063,168.75 652.6094,168.75 Q651.0938,168.75 649.8906,168.125 Q648.9063,167.625 648.2188,166.5625 Q647.5313,165.4844 647.5313,164.2031 L647.5313,163.0469 Q647.5313,161.7188 648.1406,160.5781 Q648.7656,159.4219 649.8594,158.8125 Q650.9531,158.1875 652.1875,158.1875 Q652.9219,158.1875 653.5625,158.3594 Q654.2188,158.5156 654.7656,158.875 Z " fill="#000000"/><text fill="#000000" font-family="sans-serif" font-size="12" lengthAdjust="spacing" textLength="69" x="666" y="167.9102">VaccineType</text><line style="stroke:#A80036;stroke-width:1.5;" x1="638" x2="737" y1="179" y2="179"/><text fill="#000000" font-family="sans-serif" font-size="11" lengthAdjust="spacing" textLength="28" x="643" y="194.4189">-code</text><text fill="#000000" font-family="sans-serif" font-size="11" lengthAdjust="spacing" textLength="59" x="643" y="208.2549">-designation</text><text fill="#000000" font-family="sans-serif" font-size="11" lengthAdjust="spacing" textLength="34" x="643" y="222.0908">-whoid</text><!--MD5=[27b15205ea271c1a0133fe11fcedb921]
class AdministrationProccess--><rect codeLine="21" fill="#FEFECE" filter="url(#fbidqeqenxa43)" height="81.5078" id="AdministrationProccess" style="stroke:#A80036;stroke-width:1.5;" width="163" x="606" y="30"/><ellipse cx="621" cy="46" fill="#ADD1B2" rx="11" ry="11" style="stroke:#A80036;stroke-width:1.0;"/><path d="M623.7656,41.875 Q623.9219,41.6563 624.1094,41.5469 Q624.2969,41.4375 624.5156,41.4375 Q624.8906,41.4375 625.125,41.7031 Q625.3594,41.9531 625.3594,42.5625 L625.3594,44.0156 Q625.3594,44.625 625.125,44.8906 Q624.8906,45.1563 624.5156,45.1563 Q624.1719,45.1563 623.9688,44.9531 Q623.7656,44.7656 623.6563,44.25 Q623.6094,43.8906 623.4219,43.7031 Q623.0938,43.3281 622.4844,43.1094 Q621.875,42.8906 621.25,42.8906 Q620.4844,42.8906 619.8438,43.2188 Q619.2188,43.5469 618.7188,44.2969 Q618.2344,45.0469 618.2344,46.0781 L618.2344,47.1719 Q618.2344,48.4063 619.125,49.2344 Q620.0156,50.0469 621.6094,50.0469 Q622.5469,50.0469 623.2031,49.7969 Q623.5938,49.6406 624.0156,49.2031 Q624.2813,48.9375 624.4219,48.8594 Q624.5781,48.7813 624.7813,48.7813 Q625.1094,48.7813 625.3594,49.0469 Q625.625,49.2969 625.625,49.6406 Q625.625,49.9844 625.2813,50.3906 Q624.7813,50.9688 623.9844,51.2969 Q622.9063,51.75 621.6094,51.75 Q620.0938,51.75 618.8906,51.125 Q617.9063,50.625 617.2188,49.5625 Q616.5313,48.4844 616.5313,47.2031 L616.5313,46.0469 Q616.5313,44.7188 617.1406,43.5781 Q617.7656,42.4219 618.8594,41.8125 Q619.9531,41.1875 621.1875,41.1875 Q621.9219,41.1875 622.5625,41.3594 Q623.2188,41.5156 623.7656,41.875 Z " fill="#000000"/><text fill="#000000" font-family="sans-serif" font-size="12" lengthAdjust="spacing" textLength="131" x="635" y="50.9102">AdministrationProccess</text><line style="stroke:#A80036;stroke-width:1.5;" x1="607" x2="768" y1="62" y2="62"/><text fill="#000000" font-family="sans-serif" font-size="11" lengthAdjust="spacing" textLength="119" x="612" y="77.4189">-AgeGroupMaximumLimit</text><text fill="#000000" font-family="sans-serif" font-size="11" lengthAdjust="spacing" textLength="115" x="612" y="91.2549">-AgeGroupMinimumLimit</text><text fill="#000000" font-family="sans-serif" font-size="11" lengthAdjust="spacing" textLength="84" x="612" y="105.0908">-NumberOfDoses</text><!--MD5=[314049a68369c9017001390edfc299b1]
class DosesInformation--><rect codeLine="27" fill="#FEFECE" filter="url(#fbidqeqenxa43)" height="81.5078" id="DosesInformation" style="stroke:#A80036;stroke-width:1.5;" width="131" x="865" y="30"/><ellipse cx="880" cy="46" fill="#ADD1B2" rx="11" ry="11" style="stroke:#A80036;stroke-width:1.0;"/><path d="M882.7656,41.875 Q882.9219,41.6563 883.1094,41.5469 Q883.2969,41.4375 883.5156,41.4375 Q883.8906,41.4375 884.125,41.7031 Q884.3594,41.9531 884.3594,42.5625 L884.3594,44.0156 Q884.3594,44.625 884.125,44.8906 Q883.8906,45.1563 883.5156,45.1563 Q883.1719,45.1563 882.9688,44.9531 Q882.7656,44.7656 882.6563,44.25 Q882.6094,43.8906 882.4219,43.7031 Q882.0938,43.3281 881.4844,43.1094 Q880.875,42.8906 880.25,42.8906 Q879.4844,42.8906 878.8438,43.2188 Q878.2188,43.5469 877.7188,44.2969 Q877.2344,45.0469 877.2344,46.0781 L877.2344,47.1719 Q877.2344,48.4063 878.125,49.2344 Q879.0156,50.0469 880.6094,50.0469 Q881.5469,50.0469 882.2031,49.7969 Q882.5938,49.6406 883.0156,49.2031 Q883.2813,48.9375 883.4219,48.8594 Q883.5781,48.7813 883.7813,48.7813 Q884.1094,48.7813 884.3594,49.0469 Q884.625,49.2969 884.625,49.6406 Q884.625,49.9844 884.2813,50.3906 Q883.7813,50.9688 882.9844,51.2969 Q881.9063,51.75 880.6094,51.75 Q879.0938,51.75 877.8906,51.125 Q876.9063,50.625 876.2188,49.5625 Q875.5313,48.4844 875.5313,47.2031 L875.5313,46.0469 Q875.5313,44.7188 876.1406,43.5781 Q876.7656,42.4219 877.8594,41.8125 Q878.9531,41.1875 880.1875,41.1875 Q880.9219,41.1875 881.5625,41.3594 Q882.2188,41.5156 882.7656,41.875 Z " fill="#000000"/><text fill="#000000" font-family="sans-serif" font-size="12" lengthAdjust="spacing" textLength="99" x="894" y="50.9102">DosesInformation</text><line style="stroke:#A80036;stroke-width:1.5;" x1="866" x2="995" y1="62" y2="62"/><text fill="#000000" font-family="sans-serif" font-size="11" lengthAdjust="spacing" textLength="65" x="871" y="77.4189">-doseNumber</text><text fill="#000000" font-family="sans-serif" font-size="11" lengthAdjust="spacing" textLength="40" x="871" y="91.2549">-dosage</text><text fill="#000000" font-family="sans-serif" font-size="11" lengthAdjust="spacing" textLength="117" x="871" y="105.0908">-timeIntervalToNextDose</text><!--MD5=[da547346deef918ea16944ba046651ef]
class Administrator--><rect codeLine="33" fill="#FEFECE" filter="url(#fbidqeqenxa43)" height="40" id="Administrator" style="stroke:#A80036;stroke-width:1.5;" width="105" x="204" y="7"/><ellipse cx="219" cy="23" fill="#ADD1B2" rx="11" ry="11" style="stroke:#A80036;stroke-width:1.0;"/><path d="M221.7656,18.875 Q221.9219,18.6563 222.1094,18.5469 Q222.2969,18.4375 222.5156,18.4375 Q222.8906,18.4375 223.125,18.7031 Q223.3594,18.9531 223.3594,19.5625 L223.3594,21.0156 Q223.3594,21.625 223.125,21.8906 Q222.8906,22.1563 222.5156,22.1563 Q222.1719,22.1563 221.9688,21.9531 Q221.7656,21.7656 221.6563,21.25 Q221.6094,20.8906 221.4219,20.7031 Q221.0938,20.3281 220.4844,20.1094 Q219.875,19.8906 219.25,19.8906 Q218.4844,19.8906 217.8438,20.2188 Q217.2188,20.5469 216.7188,21.2969 Q216.2344,22.0469 216.2344,23.0781 L216.2344,24.1719 Q216.2344,25.4063 217.125,26.2344 Q218.0156,27.0469 219.6094,27.0469 Q220.5469,27.0469 221.2031,26.7969 Q221.5938,26.6406 222.0156,26.2031 Q222.2813,25.9375 222.4219,25.8594 Q222.5781,25.7813 222.7813,25.7813 Q223.1094,25.7813 223.3594,26.0469 Q223.625,26.2969 223.625,26.6406 Q223.625,26.9844 223.2813,27.3906 Q222.7813,27.9688 221.9844,28.2969 Q220.9063,28.75 219.6094,28.75 Q218.0938,28.75 216.8906,28.125 Q215.9063,27.625 215.2188,26.5625 Q214.5313,25.4844 214.5313,24.2031 L214.5313,23.0469 Q214.5313,21.7188 215.1406,20.5781 Q215.7656,19.4219 216.8594,18.8125 Q217.9531,18.1875 219.1875,18.1875 Q219.9219,18.1875 220.5625,18.3594 Q221.2188,18.5156 221.7656,18.875 Z " fill="#000000"/><text fill="#000000" font-family="sans-serif" font-size="12" lengthAdjust="spacing" textLength="73" x="233" y="27.9102">Administrator</text><line style="stroke:#A80036;stroke-width:1.5;" x1="205" x2="308" y1="39" y2="39"/><!--MD5=[c29c8d42883934cbaf5793c72a334947]
link Company to Vaccine--><path codeLine="35" d="M92.02,98.32 C174.27,95 356.71,87.64 434.84,84.48 " fill="none" id="Company-Vaccine" style="stroke:#A80036;stroke-width:1.0;"/><polygon fill="#000000" points="240.4959,79.9741,231.3397,77.4024,231.5768,83.2755,240.4959,79.9741" style="stroke:#000000;stroke-width:1.0;"/><text fill="#000000" font-family="sans-serif" font-size="13" lengthAdjust="spacing" textLength="37" x="244.5" y="85.4951">knows</text><text fill="#000000" font-family="sans-serif" font-size="13" lengthAdjust="spacing" textLength="7" x="99.9297" y="98.8832">1</text><text fill="#000000" font-family="sans-serif" font-size="13" lengthAdjust="spacing" textLength="5" x="421.9335" y="99.9245">*</text><!--MD5=[05986564e1c13a00611587b35563d868]
link Company to VaccineType--><path codeLine="36" d="M92.23,105.77 C204.98,121.37 515.4,164.33 636.86,181.13 " fill="none" id="Company-VaccineType" style="stroke:#A80036;stroke-width:1.0;"/><polygon fill="#000000" points="355.9528,130.8611,347.3959,126.7102,346.5903,132.5325,355.9528,130.8611" style="stroke:#000000;stroke-width:1.0;"/><text fill="#000000" font-family="sans-serif" font-size="13" lengthAdjust="spacing" textLength="37" x="360" y="135.4951">knows</text><text fill="#000000" font-family="sans-serif" font-size="13" lengthAdjust="spacing" textLength="7" x="99.8868" y="121.5885">1</text><text fill="#000000" font-family="sans-serif" font-size="13" lengthAdjust="spacing" textLength="5" x="624.0551" y="194.853">*</text><!--MD5=[eaea43e34e45c5b9d20b595fc78f1f20]
link Company to Administrator--><path codeLine="37" d="M92.06,84.8 C101.87,81.24 112.3,77.47 122,74 C148.95,64.36 179.02,53.76 203.79,45.07 " fill="none" id="Company-Administrator" style="stroke:#A80036;stroke-width:1.0;"/><polygon fill="#000000" points="131.711,44.5006,122.2041,44.762,124.1734,50.3001,131.711,44.5006" style="stroke:#000000;stroke-width:1.0;"/><text fill="#000000" font-family="sans-serif" font-size="13" lengthAdjust="spacing" textLength="37" x="136" y="51.4951">knows</text><text fill="#000000" font-family="sans-serif" font-size="13" lengthAdjust="spacing" textLength="7" x="99.9766" y="78.3519">1</text><text fill="#000000" font-family="sans-serif" font-size="13" lengthAdjust="spacing" textLength="5" x="191.0261" y="62.2559">*</text><!--MD5=[0e439f75a3d966f965fe5f237a1bacbe]
link Administrator to Vaccine--><path codeLine="38" d="M309.03,40.48 C347.87,50.65 400.17,64.34 434.82,73.4 " fill="none" id="Administrator-Vaccine" style="stroke:#A80036;stroke-width:1.0;"/><polygon fill="#000000" points="348.8371,40.4417,340.8308,35.3085,339.3426,40.9948,348.8371,40.4417" style="stroke:#000000;stroke-width:1.0;"/><text fill="#000000" font-family="sans-serif" font-size="13" lengthAdjust="spacing" textLength="51" x="353" y="44.4951">specifies</text><text fill="#000000" font-family="sans-serif" font-size="13" lengthAdjust="spacing" textLength="7" x="316.9092" y="57.0205">1</text><text fill="#000000" font-family="sans-serif" font-size="13" lengthAdjust="spacing" textLength="5" x="421.9096" y="67.5132">*</text><!--MD5=[ecd3d453b1d839a2865736a7db6ad3ae]
link Vaccine to AdministrationProccess--><path codeLine="39" d="M510.12,80.94 C536.4,79.46 572.86,77.4 605.81,75.55 " fill="none" id="Vaccine-AdministrationProccess" style="stroke:#A80036;stroke-width:1.0;"/><polygon fill="#000000" points="549.9921,67.8946,540.796,65.469,541.1266,71.3375,549.9921,67.8946" style="stroke:#000000;stroke-width:1.0;"/><text fill="#000000" font-family="sans-serif" font-size="13" lengthAdjust="spacing" textLength="21" x="554" y="73.4951">has</text><text fill="#000000" font-family="sans-serif" font-size="13" lengthAdjust="spacing" textLength="7" x="517.9585" y="95.6478">1</text><text fill="#000000" font-family="sans-serif" font-size="13" lengthAdjust="spacing" textLength="5" x="593.0487" y="90.241">*</text><!--MD5=[3568623adf67b2630dce9e60c05bd02a]
link Vaccine to VaccineType--><path codeLine="40" d="M510.12,101.05 C545.09,118.29 598.05,144.4 636.82,163.51 " fill="none" id="Vaccine-VaccineType" style="stroke:#A80036;stroke-width:1.0;"/><polygon fill="#000000" points="549.4847,109.3866,542.6713,102.7512,540.0723,108.0232,549.4847,109.3866" style="stroke:#000000;stroke-width:1.0;"/><text fill="#000000" font-family="sans-serif" font-size="13" lengthAdjust="spacing" textLength="21" x="554" y="112.4951">has</text><text fill="#000000" font-family="sans-serif" font-size="13" lengthAdjust="spacing" textLength="7" x="517.9585" y="119.5913">1</text><text fill="#000000" font-family="sans-serif" font-size="13" lengthAdjust="spacing" textLength="7" x="621.8623" y="174.6451">1</text><!--MD5=[af22b2bc2e0333e9daae205b0aa51fd4]
link AdministrationProccess to DosesInformation--><path codeLine="41" d="M769.08,71 C800.28,71 835.51,71 864.98,71 " fill="none" id="AdministrationProccess-DosesInformation" style="stroke:#A80036;stroke-width:1.0;"/><polygon fill="#000000" points="809,62.1758,799.9549,59.2369,799.9549,65.1147,809,62.1758" style="stroke:#000000;stroke-width:1.0;"/><text fill="#000000" font-family="sans-serif" font-size="13" lengthAdjust="spacing" textLength="21" x="813" y="67.4951">has</text><text fill="#000000" font-family="sans-serif" font-size="13" lengthAdjust="spacing" textLength="7" x="776.9233" y="85.2715">1</text><text fill="#000000" font-family="sans-serif" font-size="13" lengthAdjust="spacing" textLength="5" x="852.1152" y="85.4689">*</text><!--MD5=[2009a884be51174384739e2c09f36585]
@startuml
hide methods
left to right direction
skinparam classAttributeIconSize 0

class Company {
  -designation
}

class Vaccine {
  -designation
  -id
  -brand 
}

class VaccineType {
  -code
  -designation
  -whoid
}

class AdministrationProccess {
  -AgeGroupMaximumLimit
  -AgeGroupMinimumLimit
  -NumberOfDoses
}

class DosesInformation {
  -doseNumber
  -dosage
  -timeIntervalToNextDose
}

class Administrator {}

Company "1" - - "*" Vaccine : knows >
Company "1" - - "*" VaccineType : knows >
Company "1" - - "*" Administrator : knows >
Administrator "1" - - "*" Vaccine : specifies >
Vaccine "1" - - "*" AdministrationProccess : has >
Vaccine "1" - - "1" VaccineType : has >
AdministrationProccess "1" - - "*" DosesInformation : has >

@enduml

PlantUML version 1.2022.0(Tue Jan 11 16:16:42 WET 2022)
(GPL source distribution)
Java Runtime: OpenJDK Runtime Environment
JVM: OpenJDK 64-Bit Server VM
Default Encoding: Cp1252
Language: pt
Country: PT
--></g></svg>