<?xml version="1.0" encoding="UTF-8" standalone="no"?><svg xmlns="http://www.w3.org/2000/svg" xmlns:xlink="http://www.w3.org/1999/xlink" contentScriptType="application/ecmascript" contentStyleType="text/css" height="1670px" preserveAspectRatio="none" style="width:1770px;height:1670px;background:#FFFFFF;" version="1.1" viewBox="0 0 1770 1670" width="1770px" zoomAndPan="magnify"><defs><filter height="300%" id="fqxwwlzddp49a" width="300%" x="-1" y="-1"><feGaussianBlur result="blurOut" stdDeviation="2.0"/><feColorMatrix in="blurOut" result="blurOut2" type="matrix" values="0 0 0 0 0 0 0 0 0 0 0 0 0 0 0 0 0 0 .4 0"/><feOffset dx="4.0" dy="4.0" in="blurOut2" result="blurOut3"/><feBlend in="SourceGraphic" in2="blurOut3" mode="normal"/></filter></defs><g><!--MD5=[c508b5b6bbe276ff5e2700b6641f837f]
class Appointment--><rect codeLine="3" fill="#FEFECE" filter="url(#fqxwwlzddp49a)" height="158.6875" id="Appointment" style="stroke:#A80036;stroke-width:1.5;" width="281" x="872.5" y="1498"/><ellipse cx="974.25" cy="1514" fill="#ADD1B2" rx="11" ry="11" style="stroke:#A80036;stroke-width:1.0;"/><path d="M977.0156,1509.875 Q977.1719,1509.6563 977.3594,1509.5469 Q977.5469,1509.4375 977.7656,1509.4375 Q978.1406,1509.4375 978.375,1509.7031 Q978.6094,1509.9531 978.6094,1510.5625 L978.6094,1512.0156 Q978.6094,1512.625 978.375,1512.8906 Q978.1406,1513.1563 977.7656,1513.1563 Q977.4219,1513.1563 977.2188,1512.9531 Q977.0156,1512.7656 976.9063,1512.25 Q976.8594,1511.8906 976.6719,1511.7031 Q976.3438,1511.3281 975.7344,1511.1094 Q975.125,1510.8906 974.5,1510.8906 Q973.7344,1510.8906 973.0938,1511.2188 Q972.4688,1511.5469 971.9688,1512.2969 Q971.4844,1513.0469 971.4844,1514.0781 L971.4844,1515.1719 Q971.4844,1516.4063 972.375,1517.2344 Q973.2656,1518.0469 974.8594,1518.0469 Q975.7969,1518.0469 976.4531,1517.7969 Q976.8438,1517.6406 977.2656,1517.2031 Q977.5313,1516.9375 977.6719,1516.8594 Q977.8281,1516.7813 978.0313,1516.7813 Q978.3594,1516.7813 978.6094,1517.0469 Q978.875,1517.2969 978.875,1517.6406 Q978.875,1517.9844 978.5313,1518.3906 Q978.0313,1518.9688 977.2344,1519.2969 Q976.1563,1519.75 974.8594,1519.75 Q973.3438,1519.75 972.1406,1519.125 Q971.1563,1518.625 970.4688,1517.5625 Q969.7813,1516.4844 969.7813,1515.2031 L969.7813,1514.0469 Q969.7813,1512.7188 970.3906,1511.5781 Q971.0156,1510.4219 972.1094,1509.8125 Q973.2031,1509.1875 974.4375,1509.1875 Q975.1719,1509.1875 975.8125,1509.3594 Q976.4688,1509.5156 977.0156,1509.875 Z " fill="#000000"/><text fill="#000000" font-family="sans-serif" font-size="12" lengthAdjust="spacing" textLength="69" x="994.75" y="1518.9102">Appointment</text><line style="stroke:#A80036;stroke-width:1.5;" x1="873.5" x2="1152.5" y1="1530" y2="1530"/><text fill="#000000" font-family="sans-serif" font-size="11" lengthAdjust="spacing" textLength="109" x="878.5" y="1545.4189">-Date appointmentTime</text><text fill="#000000" font-family="sans-serif" font-size="11" lengthAdjust="spacing" textLength="92" x="878.5" y="1559.2549">-SNSUser snsUser</text><text fill="#000000" font-family="sans-serif" font-size="11" lengthAdjust="spacing" textLength="133" x="878.5" y="1573.0908">-VaccineType vaccineType</text><line style="stroke:#A80036;stroke-width:1.0;" x1="873.5" x2="1152.5" y1="1579.5078" y2="1579.5078"/><text fill="#000000" font-family="sans-serif" font-size="11" lengthAdjust="spacing" textLength="269" x="878.5" y="1594.9268">+Appointment(appointmentTime, snsUser, vaccineType)</text><text fill="#000000" font-family="sans-serif" font-size="11" lengthAdjust="spacing" textLength="61" x="878.5" y="1608.7627">+getCenter()</text><text fill="#000000" font-family="sans-serif" font-size="11" lengthAdjust="spacing" textLength="51" x="878.5" y="1622.5986">+getDate()</text><text fill="#000000" font-family="sans-serif" font-size="11" lengthAdjust="spacing" textLength="73" x="878.5" y="1636.4346">+getSNSUser()</text><text fill="#000000" font-family="sans-serif" font-size="11" lengthAdjust="spacing" textLength="93" x="878.5" y="1650.2705">+getVaccineType()</text><!--MD5=[e962253c6721a4b87d8c880d8815b08d]
class AppointmentScheduleList--><rect codeLine="15" fill="#FEFECE" filter="url(#fqxwwlzddp49a)" height="48" id="AppointmentScheduleList" style="stroke:#A80036;stroke-width:1.5;" width="173" x="933.5" y="1266"/><ellipse cx="948.5" cy="1282" fill="#ADD1B2" rx="11" ry="11" style="stroke:#A80036;stroke-width:1.0;"/><path d="M951.2656,1277.875 Q951.4219,1277.6563 951.6094,1277.5469 Q951.7969,1277.4375 952.0156,1277.4375 Q952.3906,1277.4375 952.625,1277.7031 Q952.8594,1277.9531 952.8594,1278.5625 L952.8594,1280.0156 Q952.8594,1280.625 952.625,1280.8906 Q952.3906,1281.1563 952.0156,1281.1563 Q951.6719,1281.1563 951.4688,1280.9531 Q951.2656,1280.7656 951.1563,1280.25 Q951.1094,1279.8906 950.9219,1279.7031 Q950.5938,1279.3281 949.9844,1279.1094 Q949.375,1278.8906 948.75,1278.8906 Q947.9844,1278.8906 947.3438,1279.2188 Q946.7188,1279.5469 946.2188,1280.2969 Q945.7344,1281.0469 945.7344,1282.0781 L945.7344,1283.1719 Q945.7344,1284.4063 946.625,1285.2344 Q947.5156,1286.0469 949.1094,1286.0469 Q950.0469,1286.0469 950.7031,1285.7969 Q951.0938,1285.6406 951.5156,1285.2031 Q951.7813,1284.9375 951.9219,1284.8594 Q952.0781,1284.7813 952.2813,1284.7813 Q952.6094,1284.7813 952.8594,1285.0469 Q953.125,1285.2969 953.125,1285.6406 Q953.125,1285.9844 952.7813,1286.3906 Q952.2813,1286.9688 951.4844,1287.2969 Q950.4063,1287.75 949.1094,1287.75 Q947.5938,1287.75 946.3906,1287.125 Q945.4063,1286.625 944.7188,1285.5625 Q944.0313,1284.4844 944.0313,1283.2031 L944.0313,1282.0469 Q944.0313,1280.7188 944.6406,1279.5781 Q945.2656,1278.4219 946.3594,1277.8125 Q947.4531,1277.1875 948.6875,1277.1875 Q949.4219,1277.1875 950.0625,1277.3594 Q950.7188,1277.5156 951.2656,1277.875 Z " fill="#000000"/><text fill="#000000" font-family="sans-serif" font-size="12" lengthAdjust="spacing" textLength="141" x="962.5" y="1286.9102">AppointmentScheduleList</text><line style="stroke:#A80036;stroke-width:1.5;" x1="934.5" x2="1105.5" y1="1298" y2="1298"/><line style="stroke:#A80036;stroke-width:1.5;" x1="934.5" x2="1105.5" y1="1306" y2="1306"/><!--MD5=[d61987a7aa818eb3587ce913f2a7d429]
class Administration--><rect codeLine="17" fill="#FEFECE" filter="url(#fqxwwlzddp49a)" height="144.8516" id="Administration" style="stroke:#A80036;stroke-width:1.5;" width="425" x="1188.5" y="1505"/><ellipse cx="1357.25" cy="1521" fill="#ADD1B2" rx="11" ry="11" style="stroke:#A80036;stroke-width:1.0;"/><path d="M1360.0156,1516.875 Q1360.1719,1516.6563 1360.3594,1516.5469 Q1360.5469,1516.4375 1360.7656,1516.4375 Q1361.1406,1516.4375 1361.375,1516.7031 Q1361.6094,1516.9531 1361.6094,1517.5625 L1361.6094,1519.0156 Q1361.6094,1519.625 1361.375,1519.8906 Q1361.1406,1520.1563 1360.7656,1520.1563 Q1360.4219,1520.1563 1360.2188,1519.9531 Q1360.0156,1519.7656 1359.9063,1519.25 Q1359.8594,1518.8906 1359.6719,1518.7031 Q1359.3438,1518.3281 1358.7344,1518.1094 Q1358.125,1517.8906 1357.5,1517.8906 Q1356.7344,1517.8906 1356.0938,1518.2188 Q1355.4688,1518.5469 1354.9688,1519.2969 Q1354.4844,1520.0469 1354.4844,1521.0781 L1354.4844,1522.1719 Q1354.4844,1523.4063 1355.375,1524.2344 Q1356.2656,1525.0469 1357.8594,1525.0469 Q1358.7969,1525.0469 1359.4531,1524.7969 Q1359.8438,1524.6406 1360.2656,1524.2031 Q1360.5313,1523.9375 1360.6719,1523.8594 Q1360.8281,1523.7813 1361.0313,1523.7813 Q1361.3594,1523.7813 1361.6094,1524.0469 Q1361.875,1524.2969 1361.875,1524.6406 Q1361.875,1524.9844 1361.5313,1525.3906 Q1361.0313,1525.9688 1360.2344,1526.2969 Q1359.1563,1526.75 1357.8594,1526.75 Q1356.3438,1526.75 1355.1406,1526.125 Q1354.1563,1525.625 1353.4688,1524.5625 Q1352.7813,1523.4844 1352.7813,1522.2031 L1352.7813,1521.0469 Q1352.7813,1519.7188 1353.3906,1518.5781 Q1354.0156,1517.4219 1355.1094,1516.8125 Q1356.2031,1516.1875 1357.4375,1516.1875 Q1358.1719,1516.1875 1358.8125,1516.3594 Q1359.4688,1516.5156 1360.0156,1516.875 Z " fill="#000000"/><text fill="#000000" font-family="sans-serif" font-size="12" lengthAdjust="spacing" textLength="79" x="1377.75" y="1525.9102">Administration</text><line style="stroke:#A80036;stroke-width:1.5;" x1="1189.5" x2="1612.5" y1="1537" y2="1537"/><text fill="#000000" font-family="sans-serif" font-size="11" lengthAdjust="spacing" textLength="92" x="1194.5" y="1552.4189">-SNSUser snsUser</text><text fill="#000000" font-family="sans-serif" font-size="11" lengthAdjust="spacing" textLength="85" x="1194.5" y="1566.2549">-Vaccine vaccine</text><text fill="#000000" font-family="sans-serif" font-size="11" lengthAdjust="spacing" textLength="83" x="1194.5" y="1580.0908">-String lotNumber</text><text fill="#000000" font-family="sans-serif" font-size="11" lengthAdjust="spacing" textLength="79" x="1194.5" y="1593.9268">-int doseNumber</text><text fill="#000000" font-family="sans-serif" font-size="11" lengthAdjust="spacing" textLength="127" x="1194.5" y="1607.7627">-VaccinationCenter center</text><text fill="#000000" font-family="sans-serif" font-size="11" lengthAdjust="spacing" textLength="117" x="1194.5" y="1621.5986">-Date administrationDate</text><line style="stroke:#A80036;stroke-width:1.0;" x1="1189.5" x2="1612.5" y1="1628.0156" y2="1628.0156"/><text fill="#000000" font-family="sans-serif" font-size="11" lengthAdjust="spacing" textLength="413" x="1194.5" y="1643.4346">Administration(snsUser, vaccine, lotNumber, doseNumber, center, administrationDate)</text><!--MD5=[6efee53d276e5feca539957c2e51cdfc]
class AdministrationList--><rect codeLine="28" fill="#FEFECE" filter="url(#fqxwwlzddp49a)" height="48" id="AdministrationList" style="stroke:#A80036;stroke-width:1.5;" width="131" x="1328.5" y="1358"/><ellipse cx="1343.5" cy="1374" fill="#ADD1B2" rx="11" ry="11" style="stroke:#A80036;stroke-width:1.0;"/><path d="M1346.2656,1369.875 Q1346.4219,1369.6563 1346.6094,1369.5469 Q1346.7969,1369.4375 1347.0156,1369.4375 Q1347.3906,1369.4375 1347.625,1369.7031 Q1347.8594,1369.9531 1347.8594,1370.5625 L1347.8594,1372.0156 Q1347.8594,1372.625 1347.625,1372.8906 Q1347.3906,1373.1563 1347.0156,1373.1563 Q1346.6719,1373.1563 1346.4688,1372.9531 Q1346.2656,1372.7656 1346.1563,1372.25 Q1346.1094,1371.8906 1345.9219,1371.7031 Q1345.5938,1371.3281 1344.9844,1371.1094 Q1344.375,1370.8906 1343.75,1370.8906 Q1342.9844,1370.8906 1342.3438,1371.2188 Q1341.7188,1371.5469 1341.2188,1372.2969 Q1340.7344,1373.0469 1340.7344,1374.0781 L1340.7344,1375.1719 Q1340.7344,1376.4063 1341.625,1377.2344 Q1342.5156,1378.0469 1344.1094,1378.0469 Q1345.0469,1378.0469 1345.7031,1377.7969 Q1346.0938,1377.6406 1346.5156,1377.2031 Q1346.7813,1376.9375 1346.9219,1376.8594 Q1347.0781,1376.7813 1347.2813,1376.7813 Q1347.6094,1376.7813 1347.8594,1377.0469 Q1348.125,1377.2969 1348.125,1377.6406 Q1348.125,1377.9844 1347.7813,1378.3906 Q1347.2813,1378.9688 1346.4844,1379.2969 Q1345.4063,1379.75 1344.1094,1379.75 Q1342.5938,1379.75 1341.3906,1379.125 Q1340.4063,1378.625 1339.7188,1377.5625 Q1339.0313,1376.4844 1339.0313,1375.2031 L1339.0313,1374.0469 Q1339.0313,1372.7188 1339.6406,1371.5781 Q1340.2656,1370.4219 1341.3594,1369.8125 Q1342.4531,1369.1875 1343.6875,1369.1875 Q1344.4219,1369.1875 1345.0625,1369.3594 Q1345.7188,1369.5156 1346.2656,1369.875 Z " fill="#000000"/><text fill="#000000" font-family="sans-serif" font-size="12" lengthAdjust="spacing" textLength="99" x="1357.5" y="1378.9102">AdministrationList</text><line style="stroke:#A80036;stroke-width:1.5;" x1="1329.5" x2="1458.5" y1="1390" y2="1390"/><line style="stroke:#A80036;stroke-width:1.5;" x1="1329.5" x2="1458.5" y1="1398" y2="1398"/><!--MD5=[950bab46f39ba9ae59885963abb53c18]
class Arrival--><rect codeLine="30" fill="#FEFECE" filter="url(#fqxwwlzddp49a)" height="75.6719" id="Arrival" style="stroke:#A80036;stroke-width:1.5;" width="93" x="856.5" y="1344"/><ellipse cx="884.1" cy="1360" fill="#ADD1B2" rx="11" ry="11" style="stroke:#A80036;stroke-width:1.0;"/><path d="M886.8656,1355.875 Q887.0219,1355.6563 887.2094,1355.5469 Q887.3969,1355.4375 887.6156,1355.4375 Q887.9906,1355.4375 888.225,1355.7031 Q888.4594,1355.9531 888.4594,1356.5625 L888.4594,1358.0156 Q888.4594,1358.625 888.225,1358.8906 Q887.9906,1359.1563 887.6156,1359.1563 Q887.2719,1359.1563 887.0688,1358.9531 Q886.8656,1358.7656 886.7563,1358.25 Q886.7094,1357.8906 886.5219,1357.7031 Q886.1938,1357.3281 885.5844,1357.1094 Q884.975,1356.8906 884.35,1356.8906 Q883.5844,1356.8906 882.9438,1357.2188 Q882.3188,1357.5469 881.8188,1358.2969 Q881.3344,1359.0469 881.3344,1360.0781 L881.3344,1361.1719 Q881.3344,1362.4063 882.225,1363.2344 Q883.1156,1364.0469 884.7094,1364.0469 Q885.6469,1364.0469 886.3031,1363.7969 Q886.6938,1363.6406 887.1156,1363.2031 Q887.3813,1362.9375 887.5219,1362.8594 Q887.6781,1362.7813 887.8813,1362.7813 Q888.2094,1362.7813 888.4594,1363.0469 Q888.725,1363.2969 888.725,1363.6406 Q888.725,1363.9844 888.3813,1364.3906 Q887.8813,1364.9688 887.0844,1365.2969 Q886.0063,1365.75 884.7094,1365.75 Q883.1938,1365.75 881.9906,1365.125 Q881.0063,1364.625 880.3188,1363.5625 Q879.6313,1362.4844 879.6313,1361.2031 L879.6313,1360.0469 Q879.6313,1358.7188 880.2406,1357.5781 Q880.8656,1356.4219 881.9594,1355.8125 Q883.0531,1355.1875 884.2875,1355.1875 Q885.0219,1355.1875 885.6625,1355.3594 Q886.3188,1355.5156 886.8656,1355.875 Z " fill="#000000"/><text fill="#000000" font-family="sans-serif" font-size="12" lengthAdjust="spacing" textLength="33" x="900.9" y="1364.9102">Arrival</text><line style="stroke:#A80036;stroke-width:1.5;" x1="857.5" x2="948.5" y1="1376" y2="1376"/><text fill="#000000" font-family="sans-serif" font-size="11" lengthAdjust="spacing" textLength="81" x="862.5" y="1391.4189">-Date arrivalTime</text><text fill="#000000" font-family="sans-serif" font-size="11" lengthAdjust="spacing" textLength="48" x="862.5" y="1405.2549">-int status</text><line style="stroke:#A80036;stroke-width:1.5;" x1="857.5" x2="948.5" y1="1411.6719" y2="1411.6719"/><!--MD5=[20d765a59dde7f6830bc6bfb5c6ca029]
class CenterEventList--><rect codeLine="35" fill="#FEFECE" filter="url(#fqxwwlzddp49a)" height="75.6719" id="CenterEventList" style="stroke:#A80036;stroke-width:1.5;" width="143" x="648.5" y="1125.5"/><ellipse cx="674.3" cy="1141.5" fill="#ADD1B2" rx="11" ry="11" style="stroke:#A80036;stroke-width:1.0;"/><path d="M677.0656,1137.375 Q677.2219,1137.1563 677.4094,1137.0469 Q677.5969,1136.9375 677.8156,1136.9375 Q678.1906,1136.9375 678.425,1137.2031 Q678.6594,1137.4531 678.6594,1138.0625 L678.6594,1139.5156 Q678.6594,1140.125 678.425,1140.3906 Q678.1906,1140.6563 677.8156,1140.6563 Q677.4719,1140.6563 677.2688,1140.4531 Q677.0656,1140.2656 676.9563,1139.75 Q676.9094,1139.3906 676.7219,1139.2031 Q676.3938,1138.8281 675.7844,1138.6094 Q675.175,1138.3906 674.55,1138.3906 Q673.7844,1138.3906 673.1438,1138.7188 Q672.5188,1139.0469 672.0188,1139.7969 Q671.5344,1140.5469 671.5344,1141.5781 L671.5344,1142.6719 Q671.5344,1143.9063 672.425,1144.7344 Q673.3156,1145.5469 674.9094,1145.5469 Q675.8469,1145.5469 676.5031,1145.2969 Q676.8938,1145.1406 677.3156,1144.7031 Q677.5813,1144.4375 677.7219,1144.3594 Q677.8781,1144.2813 678.0813,1144.2813 Q678.4094,1144.2813 678.6594,1144.5469 Q678.925,1144.7969 678.925,1145.1406 Q678.925,1145.4844 678.5813,1145.8906 Q678.0813,1146.4688 677.2844,1146.7969 Q676.2063,1147.25 674.9094,1147.25 Q673.3938,1147.25 672.1906,1146.625 Q671.2063,1146.125 670.5188,1145.0625 Q669.8313,1143.9844 669.8313,1142.7031 L669.8313,1141.5469 Q669.8313,1140.2188 670.4406,1139.0781 Q671.0656,1137.9219 672.1594,1137.3125 Q673.2531,1136.6875 674.4875,1136.6875 Q675.2219,1136.6875 675.8625,1136.8594 Q676.5188,1137.0156 677.0656,1137.375 Z " fill="#000000"/><text fill="#000000" font-family="sans-serif" font-size="12" lengthAdjust="spacing" textLength="87" x="690.7" y="1146.4102">CenterEventList</text><line style="stroke:#A80036;stroke-width:1.5;" x1="649.5" x2="790.5" y1="1157.5" y2="1157.5"/><text fill="#000000" font-family="sans-serif" font-size="11" lengthAdjust="spacing" textLength="131" x="654.5" y="1172.9189">-events: List&lt;CenterEvent&gt;</text><line style="stroke:#A80036;stroke-width:1.0;" x1="649.5" x2="790.5" y1="1179.3359" y2="1179.3359"/><text fill="#000000" font-family="sans-serif" font-size="11" lengthAdjust="spacing" textLength="90" x="654.5" y="1194.7549">+CenterEventList()</text><!--MD5=[35309a5dc68e1a9749f40371070ca056]
class CenterEvent--><rect codeLine="41" fill="#FEFECE" filter="url(#fqxwwlzddp49a)" height="75.6719" id="CenterEvent" style="stroke:#A80036;stroke-width:1.5;" width="143" x="648.5" y="1344"/><ellipse cx="683.3" cy="1360" fill="#ADD1B2" rx="11" ry="11" style="stroke:#A80036;stroke-width:1.0;"/><path d="M686.0656,1355.875 Q686.2219,1355.6563 686.4094,1355.5469 Q686.5969,1355.4375 686.8156,1355.4375 Q687.1906,1355.4375 687.425,1355.7031 Q687.6594,1355.9531 687.6594,1356.5625 L687.6594,1358.0156 Q687.6594,1358.625 687.425,1358.8906 Q687.1906,1359.1563 686.8156,1359.1563 Q686.4719,1359.1563 686.2688,1358.9531 Q686.0656,1358.7656 685.9563,1358.25 Q685.9094,1357.8906 685.7219,1357.7031 Q685.3938,1357.3281 684.7844,1357.1094 Q684.175,1356.8906 683.55,1356.8906 Q682.7844,1356.8906 682.1438,1357.2188 Q681.5188,1357.5469 681.0188,1358.2969 Q680.5344,1359.0469 680.5344,1360.0781 L680.5344,1361.1719 Q680.5344,1362.4063 681.425,1363.2344 Q682.3156,1364.0469 683.9094,1364.0469 Q684.8469,1364.0469 685.5031,1363.7969 Q685.8938,1363.6406 686.3156,1363.2031 Q686.5813,1362.9375 686.7219,1362.8594 Q686.8781,1362.7813 687.0813,1362.7813 Q687.4094,1362.7813 687.6594,1363.0469 Q687.925,1363.2969 687.925,1363.6406 Q687.925,1363.9844 687.5813,1364.3906 Q687.0813,1364.9688 686.2844,1365.2969 Q685.2063,1365.75 683.9094,1365.75 Q682.3938,1365.75 681.1906,1365.125 Q680.2063,1364.625 679.5188,1363.5625 Q678.8313,1362.4844 678.8313,1361.2031 L678.8313,1360.0469 Q678.8313,1358.7188 679.4406,1357.5781 Q680.0656,1356.4219 681.1594,1355.8125 Q682.2531,1355.1875 683.4875,1355.1875 Q684.2219,1355.1875 684.8625,1355.3594 Q685.5188,1355.5156 686.0656,1355.875 Z " fill="#000000"/><text fill="#000000" font-family="sans-serif" font-size="12" lengthAdjust="spacing" textLength="67" x="701.7" y="1364.9102">CenterEvent</text><line style="stroke:#A80036;stroke-width:1.5;" x1="649.5" x2="790.5" y1="1376" y2="1376"/><text fill="#000000" font-family="sans-serif" font-size="11" lengthAdjust="spacing" textLength="131" x="654.5" y="1391.4189">-events: List&lt;CenterEvent&gt;</text><line style="stroke:#A80036;stroke-width:1.0;" x1="649.5" x2="790.5" y1="1397.8359" y2="1397.8359"/><text fill="#000000" font-family="sans-serif" font-size="11" lengthAdjust="spacing" textLength="73" x="654.5" y="1413.2549">+CenterEvent()</text><!--MD5=[02e4b9b7573f1156f41e60aa5b4e25a4]
class Company--><rect codeLine="47" fill="#FEFECE" filter="url(#fqxwwlzddp49a)" height="89.5078" id="Company" style="stroke:#A80036;stroke-width:1.5;" width="156" x="779" y="284"/><ellipse cx="826.25" cy="300" fill="#ADD1B2" rx="11" ry="11" style="stroke:#A80036;stroke-width:1.0;"/><path d="M829.0156,295.875 Q829.1719,295.6563 829.3594,295.5469 Q829.5469,295.4375 829.7656,295.4375 Q830.1406,295.4375 830.375,295.7031 Q830.6094,295.9531 830.6094,296.5625 L830.6094,298.0156 Q830.6094,298.625 830.375,298.8906 Q830.1406,299.1563 829.7656,299.1563 Q829.4219,299.1563 829.2188,298.9531 Q829.0156,298.7656 828.9063,298.25 Q828.8594,297.8906 828.6719,297.7031 Q828.3438,297.3281 827.7344,297.1094 Q827.125,296.8906 826.5,296.8906 Q825.7344,296.8906 825.0938,297.2188 Q824.4688,297.5469 823.9688,298.2969 Q823.4844,299.0469 823.4844,300.0781 L823.4844,301.1719 Q823.4844,302.4063 824.375,303.2344 Q825.2656,304.0469 826.8594,304.0469 Q827.7969,304.0469 828.4531,303.7969 Q828.8438,303.6406 829.2656,303.2031 Q829.5313,302.9375 829.6719,302.8594 Q829.8281,302.7813 830.0313,302.7813 Q830.3594,302.7813 830.6094,303.0469 Q830.875,303.2969 830.875,303.6406 Q830.875,303.9844 830.5313,304.3906 Q830.0313,304.9688 829.2344,305.2969 Q828.1563,305.75 826.8594,305.75 Q825.3438,305.75 824.1406,305.125 Q823.1563,304.625 822.4688,303.5625 Q821.7813,302.4844 821.7813,301.2031 L821.7813,300.0469 Q821.7813,298.7188 822.3906,297.5781 Q823.0156,296.4219 824.1094,295.8125 Q825.2031,295.1875 826.4375,295.1875 Q827.1719,295.1875 827.8125,295.3594 Q828.4688,295.5156 829.0156,295.875 Z " fill="#000000"/><text fill="#000000" font-family="sans-serif" font-size="12" lengthAdjust="spacing" textLength="53" x="846.75" y="304.9102">Company</text><line style="stroke:#A80036;stroke-width:1.5;" x1="780" x2="934" y1="316" y2="316"/><text fill="#000000" font-family="sans-serif" font-size="11" lengthAdjust="spacing" textLength="90" x="785" y="331.4189">-String designation</text><line style="stroke:#A80036;stroke-width:1.0;" x1="780" x2="934" y1="337.8359" y2="337.8359"/><text fill="#000000" font-family="sans-serif" font-size="11" lengthAdjust="spacing" textLength="114" x="785" y="353.2549">+Company(designation)</text><text fill="#000000" font-family="sans-serif" font-size="11" lengthAdjust="spacing" textLength="144" x="785" y="367.0908">+getVaccinationCenterStore()</text><!--MD5=[5d2bdee92db0d01b75732190da037553]
class Coordinator--><rect codeLine="54" fill="#FEFECE" filter="url(#fqxwwlzddp49a)" height="48" id="Coordinator" style="stroke:#A80036;stroke-width:1.5;" width="97" x="153.5" y="885"/><ellipse cx="168.5" cy="901" fill="#ADD1B2" rx="11" ry="11" style="stroke:#A80036;stroke-width:1.0;"/><path d="M171.2656,896.875 Q171.4219,896.6563 171.6094,896.5469 Q171.7969,896.4375 172.0156,896.4375 Q172.3906,896.4375 172.625,896.7031 Q172.8594,896.9531 172.8594,897.5625 L172.8594,899.0156 Q172.8594,899.625 172.625,899.8906 Q172.3906,900.1563 172.0156,900.1563 Q171.6719,900.1563 171.4688,899.9531 Q171.2656,899.7656 171.1563,899.25 Q171.1094,898.8906 170.9219,898.7031 Q170.5938,898.3281 169.9844,898.1094 Q169.375,897.8906 168.75,897.8906 Q167.9844,897.8906 167.3438,898.2188 Q166.7188,898.5469 166.2188,899.2969 Q165.7344,900.0469 165.7344,901.0781 L165.7344,902.1719 Q165.7344,903.4063 166.625,904.2344 Q167.5156,905.0469 169.1094,905.0469 Q170.0469,905.0469 170.7031,904.7969 Q171.0938,904.6406 171.5156,904.2031 Q171.7813,903.9375 171.9219,903.8594 Q172.0781,903.7813 172.2813,903.7813 Q172.6094,903.7813 172.8594,904.0469 Q173.125,904.2969 173.125,904.6406 Q173.125,904.9844 172.7813,905.3906 Q172.2813,905.9688 171.4844,906.2969 Q170.4063,906.75 169.1094,906.75 Q167.5938,906.75 166.3906,906.125 Q165.4063,905.625 164.7188,904.5625 Q164.0313,903.4844 164.0313,902.2031 L164.0313,901.0469 Q164.0313,899.7188 164.6406,898.5781 Q165.2656,897.4219 166.3594,896.8125 Q167.4531,896.1875 168.6875,896.1875 Q169.4219,896.1875 170.0625,896.3594 Q170.7188,896.5156 171.2656,896.875 Z " fill="#000000"/><text fill="#000000" font-family="sans-serif" font-size="12" lengthAdjust="spacing" textLength="65" x="182.5" y="905.9102">Coordinator</text><line style="stroke:#A80036;stroke-width:1.5;" x1="154.5" x2="249.5" y1="917" y2="917"/><line style="stroke:#A80036;stroke-width:1.5;" x1="154.5" x2="249.5" y1="925" y2="925"/><!--MD5=[60b59e3d7d8b95aff167b5157d975660]
class CSVReader--><rect codeLine="56" fill="#FEFECE" filter="url(#fqxwwlzddp49a)" height="75.6719" id="CSVReader" style="stroke:#A80036;stroke-width:1.5;" width="109" x="1136.5" y="291"/><ellipse cx="1156.9" cy="307" fill="#ADD1B2" rx="11" ry="11" style="stroke:#A80036;stroke-width:1.0;"/><path d="M1159.6656,302.875 Q1159.8219,302.6563 1160.0094,302.5469 Q1160.1969,302.4375 1160.4156,302.4375 Q1160.7906,302.4375 1161.025,302.7031 Q1161.2594,302.9531 1161.2594,303.5625 L1161.2594,305.0156 Q1161.2594,305.625 1161.025,305.8906 Q1160.7906,306.1563 1160.4156,306.1563 Q1160.0719,306.1563 1159.8688,305.9531 Q1159.6656,305.7656 1159.5563,305.25 Q1159.5094,304.8906 1159.3219,304.7031 Q1158.9938,304.3281 1158.3844,304.1094 Q1157.775,303.8906 1157.15,303.8906 Q1156.3844,303.8906 1155.7438,304.2188 Q1155.1188,304.5469 1154.6188,305.2969 Q1154.1344,306.0469 1154.1344,307.0781 L1154.1344,308.1719 Q1154.1344,309.4063 1155.025,310.2344 Q1155.9156,311.0469 1157.5094,311.0469 Q1158.4469,311.0469 1159.1031,310.7969 Q1159.4938,310.6406 1159.9156,310.2031 Q1160.1813,309.9375 1160.3219,309.8594 Q1160.4781,309.7813 1160.6813,309.7813 Q1161.0094,309.7813 1161.2594,310.0469 Q1161.525,310.2969 1161.525,310.6406 Q1161.525,310.9844 1161.1813,311.3906 Q1160.6813,311.9688 1159.8844,312.2969 Q1158.8063,312.75 1157.5094,312.75 Q1155.9938,312.75 1154.7906,312.125 Q1153.8063,311.625 1153.1188,310.5625 Q1152.4313,309.4844 1152.4313,308.2031 L1152.4313,307.0469 Q1152.4313,305.7188 1153.0406,304.5781 Q1153.6656,303.4219 1154.7594,302.8125 Q1155.8531,302.1875 1157.0875,302.1875 Q1157.8219,302.1875 1158.4625,302.3594 Q1159.1188,302.5156 1159.6656,302.875 Z " fill="#000000"/><text fill="#000000" font-family="sans-serif" font-size="12" lengthAdjust="spacing" textLength="65" x="1172.1" y="311.9102">CSVReader</text><line style="stroke:#A80036;stroke-width:1.5;" x1="1137.5" x2="1244.5" y1="323" y2="323"/><text fill="#000000" font-family="sans-serif" font-size="11" lengthAdjust="spacing" textLength="97" x="1142.5" y="338.4189">-String filePathName</text><line style="stroke:#A80036;stroke-width:1.5;" x1="1137.5" x2="1244.5" y1="344.8359" y2="344.8359"/><text fill="#000000" font-family="sans-serif" font-size="11" lengthAdjust="spacing" textLength="94" x="1142.5" y="360.2549">+readLegacyData()</text><!--MD5=[1c83c82c78e97e256fcc5a79b8468c39]
class ICSVReader--><rect codeLine="62" fill="#FEFECE" filter="url(#fqxwwlzddp49a)" height="61.8359" id="ICSVReader" style="stroke:#A80036;stroke-width:1.5;" width="102" x="1420" y="535"/><ellipse cx="1435" cy="551" fill="#B4A7E5" rx="11" ry="11" style="stroke:#A80036;stroke-width:1.0;"/><path d="M1435.9531,547.6406 L1435.9531,554.2969 L1437.6719,554.2969 Q1438.2813,554.2969 1438.5469,554.5313 Q1438.8125,554.7656 1438.8125,555.1563 Q1438.8125,555.5313 1438.5469,555.7656 Q1438.2813,556 1437.6719,556 L1432.5313,556 Q1431.9219,556 1431.6563,555.7656 Q1431.3906,555.5313 1431.3906,555.1406 Q1431.3906,554.7656 1431.6563,554.5313 Q1431.9219,554.2969 1432.5313,554.2969 L1434.25,554.2969 L1434.25,547.6406 L1432.5313,547.6406 Q1431.9219,547.6406 1431.6563,547.4063 Q1431.3906,547.1719 1431.3906,546.7813 Q1431.3906,546.4063 1431.6563,546.1719 Q1431.9219,545.9375 1432.5313,545.9375 L1437.6719,545.9375 Q1438.2813,545.9375 1438.5469,546.1719 Q1438.8125,546.4063 1438.8125,546.7813 Q1438.8125,547.1719 1438.5469,547.4063 Q1438.2813,547.6406 1437.6719,547.6406 L1435.9531,547.6406 Z " fill="#000000"/><text fill="#000000" font-family="sans-serif" font-size="12" font-style="italic" lengthAdjust="spacing" textLength="70" x="1449" y="555.9102">ICSVReader</text><line style="stroke:#A80036;stroke-width:1.5;" x1="1421" x2="1521" y1="567" y2="567"/><line style="stroke:#A80036;stroke-width:1.5;" x1="1421" x2="1521" y1="575" y2="575"/><text fill="#000000" font-family="sans-serif" font-size="11" lengthAdjust="spacing" textLength="65" x="1426" y="590.4189">read(filedata)</text><!--MD5=[0a05b9e3b501b5909d607b6b8cbcb973]
class HeaderCSVReader--><rect codeLine="66" fill="#FEFECE" filter="url(#fqxwwlzddp49a)" height="61.8359" id="HeaderCSVReader" style="stroke:#A80036;stroke-width:1.5;" width="138" x="1402" y="878"/><ellipse cx="1417" cy="894" fill="#ADD1B2" rx="11" ry="11" style="stroke:#A80036;stroke-width:1.0;"/><path d="M1419.7656,889.875 Q1419.9219,889.6563 1420.1094,889.5469 Q1420.2969,889.4375 1420.5156,889.4375 Q1420.8906,889.4375 1421.125,889.7031 Q1421.3594,889.9531 1421.3594,890.5625 L1421.3594,892.0156 Q1421.3594,892.625 1421.125,892.8906 Q1420.8906,893.1563 1420.5156,893.1563 Q1420.1719,893.1563 1419.9688,892.9531 Q1419.7656,892.7656 1419.6563,892.25 Q1419.6094,891.8906 1419.4219,891.7031 Q1419.0938,891.3281 1418.4844,891.1094 Q1417.875,890.8906 1417.25,890.8906 Q1416.4844,890.8906 1415.8438,891.2188 Q1415.2188,891.5469 1414.7188,892.2969 Q1414.2344,893.0469 1414.2344,894.0781 L1414.2344,895.1719 Q1414.2344,896.4063 1415.125,897.2344 Q1416.0156,898.0469 1417.6094,898.0469 Q1418.5469,898.0469 1419.2031,897.7969 Q1419.5938,897.6406 1420.0156,897.2031 Q1420.2813,896.9375 1420.4219,896.8594 Q1420.5781,896.7813 1420.7813,896.7813 Q1421.1094,896.7813 1421.3594,897.0469 Q1421.625,897.2969 1421.625,897.6406 Q1421.625,897.9844 1421.2813,898.3906 Q1420.7813,898.9688 1419.9844,899.2969 Q1418.9063,899.75 1417.6094,899.75 Q1416.0938,899.75 1414.8906,899.125 Q1413.9063,898.625 1413.2188,897.5625 Q1412.5313,896.4844 1412.5313,895.2031 L1412.5313,894.0469 Q1412.5313,892.7188 1413.1406,891.5781 Q1413.7656,890.4219 1414.8594,889.8125 Q1415.9531,889.1875 1417.1875,889.1875 Q1417.9219,889.1875 1418.5625,889.3594 Q1419.2188,889.5156 1419.7656,889.875 Z " fill="#000000"/><text fill="#000000" font-family="sans-serif" font-size="12" lengthAdjust="spacing" textLength="106" x="1431" y="898.9102">HeaderCSVReader</text><line style="stroke:#A80036;stroke-width:1.5;" x1="1403" x2="1539" y1="910" y2="910"/><line style="stroke:#A80036;stroke-width:1.5;" x1="1403" x2="1539" y1="918" y2="918"/><text fill="#000000" font-family="sans-serif" font-size="11" lengthAdjust="spacing" textLength="71" x="1408" y="933.4189">+read(filedata)</text><!--MD5=[1a8354f766442428020cf9fc7f0cd249]
class MissingHeaderCSVReader--><rect codeLine="70" fill="#FEFECE" filter="url(#fqxwwlzddp49a)" height="61.8359" id="MissingHeaderCSVReader" style="stroke:#A80036;stroke-width:1.5;" width="181" x="1575.5" y="878"/><ellipse cx="1590.5" cy="894" fill="#ADD1B2" rx="11" ry="11" style="stroke:#A80036;stroke-width:1.0;"/><path d="M1593.2656,889.875 Q1593.4219,889.6563 1593.6094,889.5469 Q1593.7969,889.4375 1594.0156,889.4375 Q1594.3906,889.4375 1594.625,889.7031 Q1594.8594,889.9531 1594.8594,890.5625 L1594.8594,892.0156 Q1594.8594,892.625 1594.625,892.8906 Q1594.3906,893.1563 1594.0156,893.1563 Q1593.6719,893.1563 1593.4688,892.9531 Q1593.2656,892.7656 1593.1563,892.25 Q1593.1094,891.8906 1592.9219,891.7031 Q1592.5938,891.3281 1591.9844,891.1094 Q1591.375,890.8906 1590.75,890.8906 Q1589.9844,890.8906 1589.3438,891.2188 Q1588.7188,891.5469 1588.2188,892.2969 Q1587.7344,893.0469 1587.7344,894.0781 L1587.7344,895.1719 Q1587.7344,896.4063 1588.625,897.2344 Q1589.5156,898.0469 1591.1094,898.0469 Q1592.0469,898.0469 1592.7031,897.7969 Q1593.0938,897.6406 1593.5156,897.2031 Q1593.7813,896.9375 1593.9219,896.8594 Q1594.0781,896.7813 1594.2813,896.7813 Q1594.6094,896.7813 1594.8594,897.0469 Q1595.125,897.2969 1595.125,897.6406 Q1595.125,897.9844 1594.7813,898.3906 Q1594.2813,898.9688 1593.4844,899.2969 Q1592.4063,899.75 1591.1094,899.75 Q1589.5938,899.75 1588.3906,899.125 Q1587.4063,898.625 1586.7188,897.5625 Q1586.0313,896.4844 1586.0313,895.2031 L1586.0313,894.0469 Q1586.0313,892.7188 1586.6406,891.5781 Q1587.2656,890.4219 1588.3594,889.8125 Q1589.4531,889.1875 1590.6875,889.1875 Q1591.4219,889.1875 1592.0625,889.3594 Q1592.7188,889.5156 1593.2656,889.875 Z " fill="#000000"/><text fill="#000000" font-family="sans-serif" font-size="12" lengthAdjust="spacing" textLength="149" x="1604.5" y="898.9102">MissingHeaderCSVReader</text><line style="stroke:#A80036;stroke-width:1.5;" x1="1576.5" x2="1755.5" y1="910" y2="910"/><line style="stroke:#A80036;stroke-width:1.5;" x1="1576.5" x2="1755.5" y1="918" y2="918"/><text fill="#000000" font-family="sans-serif" font-size="11" lengthAdjust="spacing" textLength="71" x="1581.5" y="933.4189">+read(filedata)</text><!--MD5=[7421f545a0d8420c5bec41e74b387d9c]
class Employee--><rect codeLine="74" fill="#FEFECE" filter="url(#fqxwwlzddp49a)" height="227.8672" id="Employee" style="stroke:#A80036;stroke-width:1.5;" width="390" x="7" y="452"/><ellipse cx="170.25" cy="468" fill="#ADD1B2" rx="11" ry="11" style="stroke:#A80036;stroke-width:1.0;"/><path d="M173.0156,463.875 Q173.1719,463.6563 173.3594,463.5469 Q173.5469,463.4375 173.7656,463.4375 Q174.1406,463.4375 174.375,463.7031 Q174.6094,463.9531 174.6094,464.5625 L174.6094,466.0156 Q174.6094,466.625 174.375,466.8906 Q174.1406,467.1563 173.7656,467.1563 Q173.4219,467.1563 173.2188,466.9531 Q173.0156,466.7656 172.9063,466.25 Q172.8594,465.8906 172.6719,465.7031 Q172.3438,465.3281 171.7344,465.1094 Q171.125,464.8906 170.5,464.8906 Q169.7344,464.8906 169.0938,465.2188 Q168.4688,465.5469 167.9688,466.2969 Q167.4844,467.0469 167.4844,468.0781 L167.4844,469.1719 Q167.4844,470.4063 168.375,471.2344 Q169.2656,472.0469 170.8594,472.0469 Q171.7969,472.0469 172.4531,471.7969 Q172.8438,471.6406 173.2656,471.2031 Q173.5313,470.9375 173.6719,470.8594 Q173.8281,470.7813 174.0313,470.7813 Q174.3594,470.7813 174.6094,471.0469 Q174.875,471.2969 174.875,471.6406 Q174.875,471.9844 174.5313,472.3906 Q174.0313,472.9688 173.2344,473.2969 Q172.1563,473.75 170.8594,473.75 Q169.3438,473.75 168.1406,473.125 Q167.1563,472.625 166.4688,471.5625 Q165.7813,470.4844 165.7813,469.2031 L165.7813,468.0469 Q165.7813,466.7188 166.3906,465.5781 Q167.0156,464.4219 168.1094,463.8125 Q169.2031,463.1875 170.4375,463.1875 Q171.1719,463.1875 171.8125,463.3594 Q172.4688,463.5156 173.0156,463.875 Z " fill="#000000"/><text fill="#000000" font-family="sans-serif" font-size="12" lengthAdjust="spacing" textLength="55" x="190.75" y="472.9102">Employee</text><line style="stroke:#A80036;stroke-width:1.5;" x1="8" x2="396" y1="484" y2="484"/><text fill="#000000" font-family="sans-serif" font-size="11" lengthAdjust="spacing" textLength="46" x="13" y="499.4189">-id: String</text><text fill="#000000" font-family="sans-serif" font-size="11" lengthAdjust="spacing" textLength="78" x="13" y="513.2549">-address: String</text><text fill="#000000" font-family="sans-serif" font-size="11" lengthAdjust="spacing" textLength="105" x="13" y="527.0908">-phoneNumber: String</text><text fill="#000000" font-family="sans-serif" font-size="11" lengthAdjust="spacing" textLength="129" x="13" y="540.9268">-citizenCardNumber: String</text><line style="stroke:#A80036;stroke-width:1.0;" x1="8" x2="396" y1="547.3438" y2="547.3438"/><text fill="#000000" font-family="sans-serif" font-size="11" lengthAdjust="spacing" textLength="378" x="13" y="562.7627">+Employee(id, name, address, phoneNumber, email, citizenCardNumber, roleId)</text><text fill="#000000" font-family="sans-serif" font-size="11" lengthAdjust="spacing" textLength="37" x="13" y="576.5986">+getId()</text><text fill="#000000" font-family="sans-serif" font-size="11" lengthAdjust="spacing" textLength="56" x="13" y="590.4346">+getName()</text><text fill="#000000" font-family="sans-serif" font-size="11" lengthAdjust="spacing" textLength="71" x="13" y="604.2705">+getAddress()</text><text fill="#000000" font-family="sans-serif" font-size="11" lengthAdjust="spacing" textLength="96" x="13" y="618.1064">+getPhoneNumber()</text><text fill="#000000" font-family="sans-serif" font-size="11" lengthAdjust="spacing" textLength="53" x="13" y="631.9424">+getEmail()</text><text fill="#000000" font-family="sans-serif" font-size="11" lengthAdjust="spacing" textLength="121" x="13" y="645.7783">+getCitizenCardNumber()</text><text fill="#000000" font-family="sans-serif" font-size="11" lengthAdjust="spacing" textLength="79" x="13" y="659.6143">+getPassword()</text><text fill="#000000" font-family="sans-serif" font-size="11" lengthAdjust="spacing" textLength="58" x="13" y="673.4502">+getRoleId()</text><!--MD5=[12e26ca6fd00d851110e9a70a48b001e]
class ImportLegacyDataUI--><rect codeLine="91" fill="#FEFECE" filter="url(#fqxwwlzddp49a)" height="48" id="ImportLegacyDataUI" style="stroke:#A80036;stroke-width:1.5;" width="144" x="869" y="7"/><ellipse cx="884" cy="23" fill="#ADD1B2" rx="11" ry="11" style="stroke:#A80036;stroke-width:1.0;"/><path d="M886.7656,18.875 Q886.9219,18.6563 887.1094,18.5469 Q887.2969,18.4375 887.5156,18.4375 Q887.8906,18.4375 888.125,18.7031 Q888.3594,18.9531 888.3594,19.5625 L888.3594,21.0156 Q888.3594,21.625 888.125,21.8906 Q887.8906,22.1563 887.5156,22.1563 Q887.1719,22.1563 886.9688,21.9531 Q886.7656,21.7656 886.6563,21.25 Q886.6094,20.8906 886.4219,20.7031 Q886.0938,20.3281 885.4844,20.1094 Q884.875,19.8906 884.25,19.8906 Q883.4844,19.8906 882.8438,20.2188 Q882.2188,20.5469 881.7188,21.2969 Q881.2344,22.0469 881.2344,23.0781 L881.2344,24.1719 Q881.2344,25.4063 882.125,26.2344 Q883.0156,27.0469 884.6094,27.0469 Q885.5469,27.0469 886.2031,26.7969 Q886.5938,26.6406 887.0156,26.2031 Q887.2813,25.9375 887.4219,25.8594 Q887.5781,25.7813 887.7813,25.7813 Q888.1094,25.7813 888.3594,26.0469 Q888.625,26.2969 888.625,26.6406 Q888.625,26.9844 888.2813,27.3906 Q887.7813,27.9688 886.9844,28.2969 Q885.9063,28.75 884.6094,28.75 Q883.0938,28.75 881.8906,28.125 Q880.9063,27.625 880.2188,26.5625 Q879.5313,25.4844 879.5313,24.2031 L879.5313,23.0469 Q879.5313,21.7188 880.1406,20.5781 Q880.7656,19.4219 881.8594,18.8125 Q882.9531,18.1875 884.1875,18.1875 Q884.9219,18.1875 885.5625,18.3594 Q886.2188,18.5156 886.7656,18.875 Z " fill="#000000"/><text fill="#000000" font-family="sans-serif" font-size="12" lengthAdjust="spacing" textLength="112" x="898" y="27.9102">ImportLegacyDataUI</text><line style="stroke:#A80036;stroke-width:1.5;" x1="870" x2="1012" y1="39" y2="39"/><line style="stroke:#A80036;stroke-width:1.5;" x1="870" x2="1012" y1="47" y2="47"/><!--MD5=[2499e84ecc5ae840e7d9429026a286f0]
class ImportLegacyDataController--><rect codeLine="93" fill="#FEFECE" filter="url(#fqxwwlzddp49a)" height="89.5078" id="ImportLegacyDataController" style="stroke:#A80036;stroke-width:1.5;" width="186" x="848" y="116"/><ellipse cx="863" cy="132" fill="#ADD1B2" rx="11" ry="11" style="stroke:#A80036;stroke-width:1.0;"/><path d="M865.7656,127.875 Q865.9219,127.6563 866.1094,127.5469 Q866.2969,127.4375 866.5156,127.4375 Q866.8906,127.4375 867.125,127.7031 Q867.3594,127.9531 867.3594,128.5625 L867.3594,130.0156 Q867.3594,130.625 867.125,130.8906 Q866.8906,131.1563 866.5156,131.1563 Q866.1719,131.1563 865.9688,130.9531 Q865.7656,130.7656 865.6563,130.25 Q865.6094,129.8906 865.4219,129.7031 Q865.0938,129.3281 864.4844,129.1094 Q863.875,128.8906 863.25,128.8906 Q862.4844,128.8906 861.8438,129.2188 Q861.2188,129.5469 860.7188,130.2969 Q860.2344,131.0469 860.2344,132.0781 L860.2344,133.1719 Q860.2344,134.4063 861.125,135.2344 Q862.0156,136.0469 863.6094,136.0469 Q864.5469,136.0469 865.2031,135.7969 Q865.5938,135.6406 866.0156,135.2031 Q866.2813,134.9375 866.4219,134.8594 Q866.5781,134.7813 866.7813,134.7813 Q867.1094,134.7813 867.3594,135.0469 Q867.625,135.2969 867.625,135.6406 Q867.625,135.9844 867.2813,136.3906 Q866.7813,136.9688 865.9844,137.2969 Q864.9063,137.75 863.6094,137.75 Q862.0938,137.75 860.8906,137.125 Q859.9063,136.625 859.2188,135.5625 Q858.5313,134.4844 858.5313,133.2031 L858.5313,132.0469 Q858.5313,130.7188 859.1406,129.5781 Q859.7656,128.4219 860.8594,127.8125 Q861.9531,127.1875 863.1875,127.1875 Q863.9219,127.1875 864.5625,127.3594 Q865.2188,127.5156 865.7656,127.875 Z " fill="#000000"/><text fill="#000000" font-family="sans-serif" font-size="12" lengthAdjust="spacing" textLength="154" x="877" y="136.9102">ImportLegacyDataController</text><line style="stroke:#A80036;stroke-width:1.5;" x1="849" x2="1033" y1="148" y2="148"/><line style="stroke:#A80036;stroke-width:1.0;" x1="849" x2="1033" y1="156" y2="156"/><text fill="#000000" font-family="sans-serif" font-size="11" lengthAdjust="spacing" textLength="45" x="854" y="171.4189">+create()</text><text fill="#000000" font-family="sans-serif" font-size="11" lengthAdjust="spacing" textLength="38" x="854" y="185.2549">+save()</text><text fill="#000000" font-family="sans-serif" font-size="11" lengthAdjust="spacing" textLength="75" x="854" y="199.0908">+stringifyData()</text><!--MD5=[72be06cc7ae02ccc98efe28a50e62246]
class SNSUser--><rect codeLine="100" fill="#FEFECE" filter="url(#fqxwwlzddp49a)" height="144.8516" id="SNSUser" style="stroke:#A80036;stroke-width:1.5;" width="452" x="1082" y="1091"/><ellipse cx="1277.75" cy="1107" fill="#ADD1B2" rx="11" ry="11" style="stroke:#A80036;stroke-width:1.0;"/><path d="M1280.5156,1102.875 Q1280.6719,1102.6563 1280.8594,1102.5469 Q1281.0469,1102.4375 1281.2656,1102.4375 Q1281.6406,1102.4375 1281.875,1102.7031 Q1282.1094,1102.9531 1282.1094,1103.5625 L1282.1094,1105.0156 Q1282.1094,1105.625 1281.875,1105.8906 Q1281.6406,1106.1563 1281.2656,1106.1563 Q1280.9219,1106.1563 1280.7188,1105.9531 Q1280.5156,1105.7656 1280.4063,1105.25 Q1280.3594,1104.8906 1280.1719,1104.7031 Q1279.8438,1104.3281 1279.2344,1104.1094 Q1278.625,1103.8906 1278,1103.8906 Q1277.2344,1103.8906 1276.5938,1104.2188 Q1275.9688,1104.5469 1275.4688,1105.2969 Q1274.9844,1106.0469 1274.9844,1107.0781 L1274.9844,1108.1719 Q1274.9844,1109.4063 1275.875,1110.2344 Q1276.7656,1111.0469 1278.3594,1111.0469 Q1279.2969,1111.0469 1279.9531,1110.7969 Q1280.3438,1110.6406 1280.7656,1110.2031 Q1281.0313,1109.9375 1281.1719,1109.8594 Q1281.3281,1109.7813 1281.5313,1109.7813 Q1281.8594,1109.7813 1282.1094,1110.0469 Q1282.375,1110.2969 1282.375,1110.6406 Q1282.375,1110.9844 1282.0313,1111.3906 Q1281.5313,1111.9688 1280.7344,1112.2969 Q1279.6563,1112.75 1278.3594,1112.75 Q1276.8438,1112.75 1275.6406,1112.125 Q1274.6563,1111.625 1273.9688,1110.5625 Q1273.2813,1109.4844 1273.2813,1108.2031 L1273.2813,1107.0469 Q1273.2813,1105.7188 1273.8906,1104.5781 Q1274.5156,1103.4219 1275.6094,1102.8125 Q1276.7031,1102.1875 1277.9375,1102.1875 Q1278.6719,1102.1875 1279.3125,1102.3594 Q1279.9688,1102.5156 1280.5156,1102.875 Z " fill="#000000"/><text fill="#000000" font-family="sans-serif" font-size="12" lengthAdjust="spacing" textLength="52" x="1298.25" y="1111.9102">SNSUser</text><line style="stroke:#A80036;stroke-width:1.5;" x1="1083" x2="1533" y1="1123" y2="1123"/><text fill="#000000" font-family="sans-serif" font-size="11" lengthAdjust="spacing" textLength="89" x="1088" y="1138.4189">-String citizenCard</text><text fill="#000000" font-family="sans-serif" font-size="11" lengthAdjust="spacing" textLength="90" x="1088" y="1152.2549">-String snsNumber</text><text fill="#000000" font-family="sans-serif" font-size="11" lengthAdjust="spacing" textLength="69" x="1088" y="1166.0908">-Date birthDay</text><text fill="#000000" font-family="sans-serif" font-size="11" lengthAdjust="spacing" textLength="64" x="1088" y="1179.9268">-Char gender</text><text fill="#000000" font-family="sans-serif" font-size="11" lengthAdjust="spacing" textLength="102" x="1088" y="1193.7627">-String phoneNumber</text><text fill="#000000" font-family="sans-serif" font-size="11" lengthAdjust="spacing" textLength="75" x="1088" y="1207.5986">-String address</text><line style="stroke:#A80036;stroke-width:1.5;" x1="1083" x2="1533" y1="1214.0156" y2="1214.0156"/><text fill="#000000" font-family="sans-serif" font-size="11" lengthAdjust="spacing" textLength="440" x="1088" y="1229.4346">+SNSUser(citizenCard, snsNumber, name, birthDay, gender, phoneNumber, email, address)</text><!--MD5=[a5ad3856b0c65e07b10297b4477b22bb]
class SNSUserStore--><rect codeLine="110" fill="#FEFECE" filter="url(#fqxwwlzddp49a)" height="48" id="SNSUserStore" style="stroke:#A80036;stroke-width:1.5;" width="113" x="1128.5" y="710"/><ellipse cx="1143.5" cy="726" fill="#ADD1B2" rx="11" ry="11" style="stroke:#A80036;stroke-width:1.0;"/><path d="M1146.2656,721.875 Q1146.4219,721.6563 1146.6094,721.5469 Q1146.7969,721.4375 1147.0156,721.4375 Q1147.3906,721.4375 1147.625,721.7031 Q1147.8594,721.9531 1147.8594,722.5625 L1147.8594,724.0156 Q1147.8594,724.625 1147.625,724.8906 Q1147.3906,725.1563 1147.0156,725.1563 Q1146.6719,725.1563 1146.4688,724.9531 Q1146.2656,724.7656 1146.1563,724.25 Q1146.1094,723.8906 1145.9219,723.7031 Q1145.5938,723.3281 1144.9844,723.1094 Q1144.375,722.8906 1143.75,722.8906 Q1142.9844,722.8906 1142.3438,723.2188 Q1141.7188,723.5469 1141.2188,724.2969 Q1140.7344,725.0469 1140.7344,726.0781 L1140.7344,727.1719 Q1140.7344,728.4063 1141.625,729.2344 Q1142.5156,730.0469 1144.1094,730.0469 Q1145.0469,730.0469 1145.7031,729.7969 Q1146.0938,729.6406 1146.5156,729.2031 Q1146.7813,728.9375 1146.9219,728.8594 Q1147.0781,728.7813 1147.2813,728.7813 Q1147.6094,728.7813 1147.8594,729.0469 Q1148.125,729.2969 1148.125,729.6406 Q1148.125,729.9844 1147.7813,730.3906 Q1147.2813,730.9688 1146.4844,731.2969 Q1145.4063,731.75 1144.1094,731.75 Q1142.5938,731.75 1141.3906,731.125 Q1140.4063,730.625 1139.7188,729.5625 Q1139.0313,728.4844 1139.0313,727.2031 L1139.0313,726.0469 Q1139.0313,724.7188 1139.6406,723.5781 Q1140.2656,722.4219 1141.3594,721.8125 Q1142.4531,721.1875 1143.6875,721.1875 Q1144.4219,721.1875 1145.0625,721.3594 Q1145.7188,721.5156 1146.2656,721.875 Z " fill="#000000"/><text fill="#000000" font-family="sans-serif" font-size="12" lengthAdjust="spacing" textLength="81" x="1157.5" y="730.9102">SNSUserStore</text><line style="stroke:#A80036;stroke-width:1.5;" x1="1129.5" x2="1240.5" y1="742" y2="742"/><line style="stroke:#A80036;stroke-width:1.5;" x1="1129.5" x2="1240.5" y1="750" y2="750"/><!--MD5=[de60e6d4f424ae4d0522096f76a59010]
class VaccinationCenter--><rect codeLine="112" fill="#FEFECE" filter="url(#fqxwwlzddp49a)" height="241.7031" id="VaccinationCenter" style="stroke:#A80036;stroke-width:1.5;" width="844" x="415" y="788"/><ellipse cx="782.75" cy="804" fill="#ADD1B2" rx="11" ry="11" style="stroke:#A80036;stroke-width:1.0;"/><path d="M785.5156,799.875 Q785.6719,799.6563 785.8594,799.5469 Q786.0469,799.4375 786.2656,799.4375 Q786.6406,799.4375 786.875,799.7031 Q787.1094,799.9531 787.1094,800.5625 L787.1094,802.0156 Q787.1094,802.625 786.875,802.8906 Q786.6406,803.1563 786.2656,803.1563 Q785.9219,803.1563 785.7188,802.9531 Q785.5156,802.7656 785.4063,802.25 Q785.3594,801.8906 785.1719,801.7031 Q784.8438,801.3281 784.2344,801.1094 Q783.625,800.8906 783,800.8906 Q782.2344,800.8906 781.5938,801.2188 Q780.9688,801.5469 780.4688,802.2969 Q779.9844,803.0469 779.9844,804.0781 L779.9844,805.1719 Q779.9844,806.4063 780.875,807.2344 Q781.7656,808.0469 783.3594,808.0469 Q784.2969,808.0469 784.9531,807.7969 Q785.3438,807.6406 785.7656,807.2031 Q786.0313,806.9375 786.1719,806.8594 Q786.3281,806.7813 786.5313,806.7813 Q786.8594,806.7813 787.1094,807.0469 Q787.375,807.2969 787.375,807.6406 Q787.375,807.9844 787.0313,808.3906 Q786.5313,808.9688 785.7344,809.2969 Q784.6563,809.75 783.3594,809.75 Q781.8438,809.75 780.6406,809.125 Q779.6563,808.625 778.9688,807.5625 Q778.2813,806.4844 778.2813,805.2031 L778.2813,804.0469 Q778.2813,802.7188 778.8906,801.5781 Q779.5156,800.4219 780.6094,799.8125 Q781.7031,799.1875 782.9375,799.1875 Q783.6719,799.1875 784.3125,799.3594 Q784.9688,799.5156 785.5156,799.875 Z " fill="#000000"/><text fill="#000000" font-family="sans-serif" font-size="12" lengthAdjust="spacing" textLength="100" x="803.25" y="808.9102">VaccinationCenter</text><line style="stroke:#A80036;stroke-width:1.5;" x1="416" x2="1258" y1="820" y2="820"/><text fill="#000000" font-family="sans-serif" font-size="11" lengthAdjust="spacing" textLength="64" x="421" y="835.4189">-name: String</text><text fill="#000000" font-family="sans-serif" font-size="11" lengthAdjust="spacing" textLength="78" x="421" y="849.2549">-address: String</text><text fill="#000000" font-family="sans-serif" font-size="11" lengthAdjust="spacing" textLength="104" x="421" y="863.0908">-emailAddress: String</text><text fill="#000000" font-family="sans-serif" font-size="11" lengthAdjust="spacing" textLength="105" x="421" y="876.9268">-phoneNumber: String</text><text fill="#000000" font-family="sans-serif" font-size="11" lengthAdjust="spacing" textLength="91" x="421" y="890.7627">-faxNumber: String</text><text fill="#000000" font-family="sans-serif" font-size="11" lengthAdjust="spacing" textLength="119" x="421" y="904.5986">-websiteAddress: String</text><text fill="#000000" font-family="sans-serif" font-size="11" lengthAdjust="spacing" textLength="105" x="421" y="918.4346">-openingHours: String</text><text fill="#000000" font-family="sans-serif" font-size="11" lengthAdjust="spacing" textLength="101" x="421" y="932.2705">-closingHours: String</text><text fill="#000000" font-family="sans-serif" font-size="11" lengthAdjust="spacing" textLength="78" x="421" y="946.1064">-slotDuration: int</text><text fill="#000000" font-family="sans-serif" font-size="11" lengthAdjust="spacing" textLength="145" x="421" y="959.9424">-maximumVaccinesPerSlot: int</text><text fill="#000000" font-family="sans-serif" font-size="11" lengthAdjust="spacing" textLength="119" x="421" y="973.7783">-coordinator: EMPLOYEE</text><line style="stroke:#A80036;stroke-width:1.0;" x1="416" x2="1258" y1="980.1953" y2="980.1953"/><text fill="#000000" font-family="sans-serif" font-size="11" lengthAdjust="spacing" textLength="832" x="421" y="995.6143">+VaccinationCenter(name,address,emailAddress,phoneNumber,faxNumber,websiteAddress,openingHours,closingHours,slotDuration,maximumVaccinesPerSlot,coordinator)</text><text fill="#000000" font-family="sans-serif" font-size="11" lengthAdjust="spacing" textLength="56" x="421" y="1009.4502">+getName()</text><text fill="#000000" font-family="sans-serif" font-size="11" lengthAdjust="spacing" textLength="85" x="421" y="1023.2861">+getCoordinator()</text><!--MD5=[a29876ea2f21a6ca48ea477740122fd8]
class VaccinationCenterStore--><rect codeLine="130" fill="#FEFECE" filter="url(#fqxwwlzddp49a)" height="117.1797" id="VaccinationCenterStore" style="stroke:#A80036;stroke-width:1.5;" width="260" x="727" y="507.5"/><ellipse cx="788.25" cy="523.5" fill="#ADD1B2" rx="11" ry="11" style="stroke:#A80036;stroke-width:1.0;"/><path d="M791.0156,519.375 Q791.1719,519.1563 791.3594,519.0469 Q791.5469,518.9375 791.7656,518.9375 Q792.1406,518.9375 792.375,519.2031 Q792.6094,519.4531 792.6094,520.0625 L792.6094,521.5156 Q792.6094,522.125 792.375,522.3906 Q792.1406,522.6563 791.7656,522.6563 Q791.4219,522.6563 791.2188,522.4531 Q791.0156,522.2656 790.9063,521.75 Q790.8594,521.3906 790.6719,521.2031 Q790.3438,520.8281 789.7344,520.6094 Q789.125,520.3906 788.5,520.3906 Q787.7344,520.3906 787.0938,520.7188 Q786.4688,521.0469 785.9688,521.7969 Q785.4844,522.5469 785.4844,523.5781 L785.4844,524.6719 Q785.4844,525.9063 786.375,526.7344 Q787.2656,527.5469 788.8594,527.5469 Q789.7969,527.5469 790.4531,527.2969 Q790.8438,527.1406 791.2656,526.7031 Q791.5313,526.4375 791.6719,526.3594 Q791.8281,526.2813 792.0313,526.2813 Q792.3594,526.2813 792.6094,526.5469 Q792.875,526.7969 792.875,527.1406 Q792.875,527.4844 792.5313,527.8906 Q792.0313,528.4688 791.2344,528.7969 Q790.1563,529.25 788.8594,529.25 Q787.3438,529.25 786.1406,528.625 Q785.1563,528.125 784.4688,527.0625 Q783.7813,525.9844 783.7813,524.7031 L783.7813,523.5469 Q783.7813,522.2188 784.3906,521.0781 Q785.0156,519.9219 786.1094,519.3125 Q787.2031,518.6875 788.4375,518.6875 Q789.1719,518.6875 789.8125,518.8594 Q790.4688,519.0156 791.0156,519.375 Z " fill="#000000"/><text fill="#000000" font-family="sans-serif" font-size="12" lengthAdjust="spacing" textLength="129" x="808.75" y="528.4102">VaccinationCenterStore</text><line style="stroke:#A80036;stroke-width:1.5;" x1="728" x2="986" y1="539.5" y2="539.5"/><line style="stroke:#A80036;stroke-width:1.5;" x1="728" x2="986" y1="547.5" y2="547.5"/><text fill="#000000" font-family="sans-serif" font-size="11" lengthAdjust="spacing" textLength="248" x="733" y="562.9189">+createVaccinationCenter(centerData, coordinator)</text><text fill="#000000" font-family="sans-serif" font-size="11" lengthAdjust="spacing" textLength="169" x="733" y="576.7549">+validateVaccinatonCenter(center)</text><text fill="#000000" font-family="sans-serif" font-size="11" lengthAdjust="spacing" textLength="158" x="733" y="590.5908">+saveVaccinationCenter(center)</text><text fill="#000000" font-family="sans-serif" font-size="11" lengthAdjust="spacing" textLength="124" x="733" y="604.4268">+checkDuplicates(center)</text><text fill="#000000" font-family="sans-serif" font-size="11" lengthAdjust="spacing" textLength="152" x="733" y="618.2627">+addVaccinationCenter(center)</text><!--MD5=[16e898dea44373438d7a6991ca77efa0]
class VaccineStore--><rect codeLine="138" fill="#FEFECE" filter="url(#fqxwwlzddp49a)" height="117.1797" id="VaccineStore" style="stroke:#A80036;stroke-width:1.5;" width="260" x="432" y="507.5"/><ellipse cx="521.75" cy="523.5" fill="#ADD1B2" rx="11" ry="11" style="stroke:#A80036;stroke-width:1.0;"/><path d="M524.5156,519.375 Q524.6719,519.1563 524.8594,519.0469 Q525.0469,518.9375 525.2656,518.9375 Q525.6406,518.9375 525.875,519.2031 Q526.1094,519.4531 526.1094,520.0625 L526.1094,521.5156 Q526.1094,522.125 525.875,522.3906 Q525.6406,522.6563 525.2656,522.6563 Q524.9219,522.6563 524.7188,522.4531 Q524.5156,522.2656 524.4063,521.75 Q524.3594,521.3906 524.1719,521.2031 Q523.8438,520.8281 523.2344,520.6094 Q522.625,520.3906 522,520.3906 Q521.2344,520.3906 520.5938,520.7188 Q519.9688,521.0469 519.4688,521.7969 Q518.9844,522.5469 518.9844,523.5781 L518.9844,524.6719 Q518.9844,525.9063 519.875,526.7344 Q520.7656,527.5469 522.3594,527.5469 Q523.2969,527.5469 523.9531,527.2969 Q524.3438,527.1406 524.7656,526.7031 Q525.0313,526.4375 525.1719,526.3594 Q525.3281,526.2813 525.5313,526.2813 Q525.8594,526.2813 526.1094,526.5469 Q526.375,526.7969 526.375,527.1406 Q526.375,527.4844 526.0313,527.8906 Q525.5313,528.4688 524.7344,528.7969 Q523.6563,529.25 522.3594,529.25 Q520.8438,529.25 519.6406,528.625 Q518.6563,528.125 517.9688,527.0625 Q517.2813,525.9844 517.2813,524.7031 L517.2813,523.5469 Q517.2813,522.2188 517.8906,521.0781 Q518.5156,519.9219 519.6094,519.3125 Q520.7031,518.6875 521.9375,518.6875 Q522.6719,518.6875 523.3125,518.8594 Q523.9688,519.0156 524.5156,519.375 Z " fill="#000000"/><text fill="#000000" font-family="sans-serif" font-size="12" lengthAdjust="spacing" textLength="72" x="542.25" y="528.4102">VaccineStore</text><line style="stroke:#A80036;stroke-width:1.5;" x1="433" x2="691" y1="539.5" y2="539.5"/><line style="stroke:#A80036;stroke-width:1.5;" x1="433" x2="691" y1="547.5" y2="547.5"/><text fill="#000000" font-family="sans-serif" font-size="11" lengthAdjust="spacing" textLength="248" x="438" y="562.9189">+createVaccinationCenter(centerData, coordinator)</text><text fill="#000000" font-family="sans-serif" font-size="11" lengthAdjust="spacing" textLength="169" x="438" y="576.7549">+validateVaccinatonCenter(center)</text><text fill="#000000" font-family="sans-serif" font-size="11" lengthAdjust="spacing" textLength="158" x="438" y="590.5908">+saveVaccinationCenter(center)</text><text fill="#000000" font-family="sans-serif" font-size="11" lengthAdjust="spacing" textLength="124" x="438" y="604.4268">+checkDuplicates(center)</text><text fill="#000000" font-family="sans-serif" font-size="11" lengthAdjust="spacing" textLength="152" x="438" y="618.2627">+addVaccinationCenter(center)</text><!--MD5=[19e445fc4d3b48519cbe33da05496394]
class Vaccine--><rect codeLine="146" fill="#FEFECE" filter="url(#fqxwwlzddp49a)" height="48" id="Vaccine" style="stroke:#A80036;stroke-width:1.5;" width="75" x="304.5" y="885"/><ellipse cx="319.5" cy="901" fill="#ADD1B2" rx="11" ry="11" style="stroke:#A80036;stroke-width:1.0;"/><path d="M322.2656,896.875 Q322.4219,896.6563 322.6094,896.5469 Q322.7969,896.4375 323.0156,896.4375 Q323.3906,896.4375 323.625,896.7031 Q323.8594,896.9531 323.8594,897.5625 L323.8594,899.0156 Q323.8594,899.625 323.625,899.8906 Q323.3906,900.1563 323.0156,900.1563 Q322.6719,900.1563 322.4688,899.9531 Q322.2656,899.7656 322.1563,899.25 Q322.1094,898.8906 321.9219,898.7031 Q321.5938,898.3281 320.9844,898.1094 Q320.375,897.8906 319.75,897.8906 Q318.9844,897.8906 318.3438,898.2188 Q317.7188,898.5469 317.2188,899.2969 Q316.7344,900.0469 316.7344,901.0781 L316.7344,902.1719 Q316.7344,903.4063 317.625,904.2344 Q318.5156,905.0469 320.1094,905.0469 Q321.0469,905.0469 321.7031,904.7969 Q322.0938,904.6406 322.5156,904.2031 Q322.7813,903.9375 322.9219,903.8594 Q323.0781,903.7813 323.2813,903.7813 Q323.6094,903.7813 323.8594,904.0469 Q324.125,904.2969 324.125,904.6406 Q324.125,904.9844 323.7813,905.3906 Q323.2813,905.9688 322.4844,906.2969 Q321.4063,906.75 320.1094,906.75 Q318.5938,906.75 317.3906,906.125 Q316.4063,905.625 315.7188,904.5625 Q315.0313,903.4844 315.0313,902.2031 L315.0313,901.0469 Q315.0313,899.7188 315.6406,898.5781 Q316.2656,897.4219 317.3594,896.8125 Q318.4531,896.1875 319.6875,896.1875 Q320.4219,896.1875 321.0625,896.3594 Q321.7188,896.5156 322.2656,896.875 Z " fill="#000000"/><text fill="#000000" font-family="sans-serif" font-size="12" lengthAdjust="spacing" textLength="43" x="333.5" y="905.9102">Vaccine</text><line style="stroke:#A80036;stroke-width:1.5;" x1="305.5" x2="378.5" y1="917" y2="917"/><line style="stroke:#A80036;stroke-width:1.5;" x1="305.5" x2="378.5" y1="925" y2="925"/><!--MD5=[7b3e8f70d80133538393dc99d446cc4d]
class WaitingRoomList--><rect fill="#FEFECE" filter="url(#fqxwwlzddp49a)" height="48" id="WaitingRoomList" style="stroke:#A80036;stroke-width:1.5;" width="127" x="826.5" y="1139.5"/><ellipse cx="841.5" cy="1155.5" fill="#ADD1B2" rx="11" ry="11" style="stroke:#A80036;stroke-width:1.0;"/><path d="M844.2656,1151.375 Q844.4219,1151.1563 844.6094,1151.0469 Q844.7969,1150.9375 845.0156,1150.9375 Q845.3906,1150.9375 845.625,1151.2031 Q845.8594,1151.4531 845.8594,1152.0625 L845.8594,1153.5156 Q845.8594,1154.125 845.625,1154.3906 Q845.3906,1154.6563 845.0156,1154.6563 Q844.6719,1154.6563 844.4688,1154.4531 Q844.2656,1154.2656 844.1563,1153.75 Q844.1094,1153.3906 843.9219,1153.2031 Q843.5938,1152.8281 842.9844,1152.6094 Q842.375,1152.3906 841.75,1152.3906 Q840.9844,1152.3906 840.3438,1152.7188 Q839.7188,1153.0469 839.2188,1153.7969 Q838.7344,1154.5469 838.7344,1155.5781 L838.7344,1156.6719 Q838.7344,1157.9063 839.625,1158.7344 Q840.5156,1159.5469 842.1094,1159.5469 Q843.0469,1159.5469 843.7031,1159.2969 Q844.0938,1159.1406 844.5156,1158.7031 Q844.7813,1158.4375 844.9219,1158.3594 Q845.0781,1158.2813 845.2813,1158.2813 Q845.6094,1158.2813 845.8594,1158.5469 Q846.125,1158.7969 846.125,1159.1406 Q846.125,1159.4844 845.7813,1159.8906 Q845.2813,1160.4688 844.4844,1160.7969 Q843.4063,1161.25 842.1094,1161.25 Q840.5938,1161.25 839.3906,1160.625 Q838.4063,1160.125 837.7188,1159.0625 Q837.0313,1157.9844 837.0313,1156.7031 L837.0313,1155.5469 Q837.0313,1154.2188 837.6406,1153.0781 Q838.2656,1151.9219 839.3594,1151.3125 Q840.4531,1150.6875 841.6875,1150.6875 Q842.4219,1150.6875 843.0625,1150.8594 Q843.7188,1151.0156 844.2656,1151.375 Z " fill="#000000"/><text fill="#000000" font-family="sans-serif" font-size="12" lengthAdjust="spacing" textLength="95" x="855.5" y="1160.4102">WaitingRoomList</text><line style="stroke:#A80036;stroke-width:1.5;" x1="827.5" x2="952.5" y1="1171.5" y2="1171.5"/><line style="stroke:#A80036;stroke-width:1.5;" x1="827.5" x2="952.5" y1="1179.5" y2="1179.5"/><!--MD5=[7c2bd753df4da4ebd7cae9de01ae09c9]
link AdministrationList to Administration--><path codeLine="149" d="M1394.84,1406.34 C1395.68,1429.43 1397,1466.05 1398.21,1499.42 " fill="none" id="AdministrationList-to-Administration" style="stroke:#A80036;stroke-width:1.0;"/><polygon fill="#A80036" points="1398.4,1504.74,1402.0632,1495.5977,1398.2144,1499.7434,1394.0687,1495.8947,1398.4,1504.74" style="stroke:#A80036;stroke-width:1.0;"/><text fill="#000000" font-family="sans-serif" font-size="13" lengthAdjust="spacing" textLength="36" x="1397" y="1464.4951">stores</text><text fill="#000000" font-family="sans-serif" font-size="13" lengthAdjust="spacing" textLength="7" x="1387.2249" y="1427.3544">1</text><text fill="#000000" font-family="sans-serif" font-size="13" lengthAdjust="spacing" textLength="5" x="1392.8741" y="1493.9325">*</text><!--MD5=[cdda88bd94d57e06d95e6dd6ce9ee716]
link Arrival to Appointment--><path codeLine="151" d="M916.32,1420.19 C922.26,1435.36 929.77,1452.86 938,1468 C942.52,1476.32 947.54,1484.78 952.77,1493.12 " fill="none" id="Arrival-to-Appointment" style="stroke:#A80036;stroke-width:1.0;"/><polygon fill="#A80036" points="955.7,1497.74,954.2513,1487.9983,953.0193,1493.5193,947.4982,1492.2874,955.7,1497.74" style="stroke:#A80036;stroke-width:1.0;"/><text fill="#000000" font-family="sans-serif" font-size="13" lengthAdjust="spacing" textLength="54" x="939" y="1464.4951">related to</text><text fill="#000000" font-family="sans-serif" font-size="13" lengthAdjust="spacing" textLength="7" x="910.8851" y="1441.1008">1</text><text fill="#000000" font-family="sans-serif" font-size="13" lengthAdjust="spacing" textLength="5" x="945.1872" y="1487.1754">*</text><!--MD5=[1bd9080c7e199931e49bc5a1616681ac]
link Company to SNSUserStore--><path codeLine="153" d="M918.27,374 C946.19,395.7 978.59,423.33 1004,452 C1078.16,535.68 1143.22,652.58 1170.87,705.29 " fill="none" id="Company-to-SNSUserStore" style="stroke:#A80036;stroke-width:1.0;stroke-dasharray:7.0,7.0;"/><polygon fill="#A80036" points="1173.27,709.89,1172.6349,700.0616,1170.9489,705.4614,1165.5491,703.7754,1173.27,709.89" style="stroke:#A80036;stroke-width:1.0;"/><!--MD5=[bc0d5b4bfe6e1bf0a8fced13bc4bdd47]
link Company to VaccinationCenterStore--><path codeLine="154" d="M857,374.2 C857,410.21 857,461.51 857,501.85 " fill="none" id="Company-to-VaccinationCenterStore" style="stroke:#A80036;stroke-width:1.0;stroke-dasharray:7.0,7.0;"/><polygon fill="#A80036" points="857,507.22,861,498.22,857,502.22,853,498.22,857,507.22" style="stroke:#A80036;stroke-width:1.0;"/><!--MD5=[f2e0045a3c67c0696cf082af1b4c8493]
link Company to VaccineStore--><path codeLine="155" d="M801.51,374.2 C755.4,410.94 689.3,463.59 638.22,504.28 " fill="none" id="Company-to-VaccineStore" style="stroke:#A80036;stroke-width:1.0;stroke-dasharray:7.0,7.0;"/><polygon fill="#A80036" points="634.26,507.44,643.7933,504.9667,638.1727,504.327,638.8124,498.7064,634.26,507.44" style="stroke:#A80036;stroke-width:1.0;"/><!--MD5=[09366576ee87d48d594df10cacc83f45]
link Company to Employee--><path codeLine="156" d="M778.88,346.01 C689.02,365.68 537.94,402.61 414,452 C409.96,453.61 405.9,455.27 401.83,456.99 " fill="none" id="Company-to-Employee" style="stroke:#A80036;stroke-width:1.0;"/><polygon fill="#A80036" points="397.04,459.02,406.8872,459.2031,401.646,457.0746,403.7745,451.8335,397.04,459.02" style="stroke:#A80036;stroke-width:1.0;"/><text fill="#000000" font-family="sans-serif" font-size="13" lengthAdjust="spacing" textLength="37" x="547" y="418.4951">knows</text><text fill="#000000" font-family="sans-serif" font-size="13" lengthAdjust="spacing" textLength="7" x="764.1006" y="344.4041">1</text><text fill="#000000" font-family="sans-serif" font-size="13" lengthAdjust="spacing" textLength="5" x="404.7564" y="452.0332">*</text><!--MD5=[cfe94a0129f1dfa1a5ee6d4335a062cf]
link CSVReader to ICSVReader--><path codeLine="158" d="M1235.37,367.24 C1289.17,412.39 1379.07,487.84 1430.88,531.33 " fill="none" id="CSVReader-to-ICSVReader" style="stroke:#A80036;stroke-width:1.0;"/><polygon fill="#A80036" points="1434.85,534.66,1430.5291,525.8096,1431.0206,531.445,1425.3852,531.9366,1434.85,534.66" style="stroke:#A80036;stroke-width:1.0;"/><text fill="#000000" font-family="sans-serif" font-size="13" lengthAdjust="spacing" textLength="28" x="1298" y="418.4951">uses</text><!--MD5=[3c55f0d83c019092b30ee17420010565]
reverse link Employee to Coordinator--><path codeLine="160" d="M202,700.22 C202,769.26 202,846.88 202,884.72 " fill="none" id="Employee-backto-Coordinator" style="stroke:#A80036;stroke-width:1.0;"/><polygon fill="none" points="195,700.07,202,680.07,209,700.07,195,700.07" style="stroke:#A80036;stroke-width:1.0;"/><!--MD5=[312ac8119da0d46e8384e4bc8e968ed3]
reverse link ICSVReader to MissingHeaderCSVReader--><path codeLine="162" d="M1490.99,601.95 C1529.33,669.01 1612.63,814.67 1648.73,877.81 " fill="none" id="ICSVReader-backto-MissingHeaderCSVReader" style="stroke:#A80036;stroke-width:1.0;stroke-dasharray:7.0,7.0;"/><polygon fill="#A80036" points="1488.3,597.26,1489.2992,607.058,1490.7838,601.5995,1496.2423,603.084,1488.3,597.26" style="stroke:#A80036;stroke-width:1.0;"/><!--MD5=[170c06a30d4cb6d862c2438f36fd347d]
reverse link ICSVReader to HeaderCSVReader--><path codeLine="163" d="M1471,602.36 C1471,669.59 1471,814.8 1471,877.81 " fill="none" id="ICSVReader-backto-HeaderCSVReader" style="stroke:#A80036;stroke-width:1.0;stroke-dasharray:7.0,7.0;"/><polygon fill="#A80036" points="1471,597.26,1467,606.26,1471,602.26,1475,606.26,1471,597.26" style="stroke:#A80036;stroke-width:1.0;"/><!--MD5=[22e2f9b5d058c116ed8939617bc82d4c]
link ImportLegacyDataController to Company--><path codeLine="165" d="M918.71,206.05 C907.32,228.56 893.42,256.02 881.71,279.17 " fill="none" id="ImportLegacyDataController-to-Company" style="stroke:#A80036;stroke-width:1.0;stroke-dasharray:7.0,7.0;"/><polygon fill="#A80036" points="879.39,283.75,887.0246,277.528,881.6489,279.2894,879.8875,273.9137,879.39,283.75" style="stroke:#A80036;stroke-width:1.0;"/><!--MD5=[10e6b969458c9add0699b8c7442c9cd6]
link ImportLegacyDataController to CSVReader--><path codeLine="167" d="M1007.34,206.05 C1045.98,231.71 1094.3,263.79 1131.68,288.61 " fill="none" id="ImportLegacyDataController-to-CSVReader" style="stroke:#A80036;stroke-width:1.0;"/><polygon fill="#A80036" points="1136.18,291.6,1130.8972,283.2878,1132.0154,288.8331,1126.4701,289.9513,1136.18,291.6" style="stroke:#A80036;stroke-width:1.0;"/><text fill="#000000" font-family="sans-serif" font-size="13" lengthAdjust="spacing" textLength="28" x="1075" y="250.4951">uses</text><!--MD5=[0fb58b79bb32c5134b74ac72cc53213c]
link ImportLegacyDataUI to ImportLegacyDataController--><path codeLine="169" d="M941,55.18 C941,70.59 941,91.42 941,110.45 " fill="none" id="ImportLegacyDataUI-to-ImportLegacyDataController" style="stroke:#A80036;stroke-width:1.0;stroke-dasharray:7.0,7.0;"/><polygon fill="#A80036" points="941,115.76,945,106.76,941,110.76,937,106.76,941,115.76" style="stroke:#A80036;stroke-width:1.0;"/><!--MD5=[47fa746bd1a5094f297b39e7f41085a1]
link SNSUser to AdministrationList--><path codeLine="171" d="M1336.52,1236.29 C1352.37,1276.2 1371.2,1323.6 1382.87,1352.99 " fill="none" id="SNSUser-to-AdministrationList" style="stroke:#A80036;stroke-width:1.0;stroke-dasharray:7.0,7.0;"/><polygon fill="#A80036" points="1384.83,1357.91,1385.2275,1348.0692,1382.9854,1353.2627,1377.7918,1351.0206,1384.83,1357.91" style="stroke:#A80036;stroke-width:1.0;"/><!--MD5=[3f8bc51bb69ce45c3e3ea0b764df71f1]
link SNSUser to Appointment--><path codeLine="172" d="M1256.61,1236.26 C1206.74,1305.92 1130.89,1411.85 1077.09,1486.98 " fill="none" id="SNSUser-to-Appointment" style="stroke:#A80036;stroke-width:1.0;"/><polygon fill="#FFFFFF" points="1069.32,1497.84,1076.0656,1495.2912,1076.3073,1488.0841,1069.5617,1490.6329,1069.32,1497.84" style="stroke:#A80036;stroke-width:1.0;"/><!--MD5=[7237f06c0b74e3dd035481e962d83e87]
link SNSUser to Arrival--><path codeLine="173" d="M1236.66,1236.02 C1204.66,1264.32 1164.93,1294.64 1124,1314 C1063.72,1342.51 1040.03,1322.24 977,1344 C971.88,1345.77 966.67,1347.82 961.5,1350.02 " fill="none" id="SNSUser-to-Arrival" style="stroke:#A80036;stroke-width:1.0;"/><polygon fill="#FFFFFF" points="949.57,1355.41,956.6836,1356.5919,960.5106,1350.4801,953.397,1349.2982,949.57,1355.41" style="stroke:#A80036;stroke-width:1.0;"/><!--MD5=[b01d27099955aced792f1ce85db49798]
link SNSUserStore to SNSUser--><path codeLine="175" d="M1241.91,757.05 C1255.16,764.86 1267.79,775.02 1276,788 C1332.86,877.83 1330.31,1005 1320.94,1085.61 " fill="none" id="SNSUserStore-to-SNSUser" style="stroke:#A80036;stroke-width:1.0;"/><polygon fill="#A80036" points="1320.31,1090.85,1325.3596,1082.3941,1320.9091,1085.886,1317.4172,1081.4356,1320.31,1090.85" style="stroke:#A80036;stroke-width:1.0;"/><text fill="#000000" font-family="sans-serif" font-size="13" lengthAdjust="spacing" textLength="36" x="1327" y="914.4951">stores</text><text fill="#000000" font-family="sans-serif" font-size="13" lengthAdjust="spacing" textLength="7" x="1255.1106" y="777.0353">1</text><text fill="#000000" font-family="sans-serif" font-size="13" lengthAdjust="spacing" textLength="5" x="1316.3217" y="1080.0539">*</text><!--MD5=[1b4e040ecc0059fa95a3752a963290c5]
link VaccinationCenter to AppointmentScheduleList--><path codeLine="177" d="M935.81,1030.01 C948.97,1049.62 961.26,1070.31 971,1091 C997.77,1147.88 1010.98,1221.09 1016.56,1260.63 " fill="none" id="VaccinationCenter-to-AppointmentScheduleList" style="stroke:#A80036;stroke-width:1.0;stroke-dasharray:7.0,7.0;"/><polygon fill="#A80036" points="1017.26,1265.74,1019.9853,1256.2757,1016.5729,1260.7874,1012.0612,1257.375,1017.26,1265.74" style="stroke:#A80036;stroke-width:1.0;"/><!--MD5=[dd5d299b3d0c572eed8573aa9a2aa3ea]
link VaccinationCenter to CenterEventList--><path codeLine="178" d="M781.24,1030.33 C766.17,1062.86 750.86,1095.91 739.31,1120.82 " fill="none" id="VaccinationCenter-to-CenterEventList" style="stroke:#A80036;stroke-width:1.0;stroke-dasharray:7.0,7.0;"/><polygon fill="#A80036" points="737.2,1125.38,744.615,1118.8979,739.3035,1120.844,737.3574,1115.5324,737.2,1125.38" style="stroke:#A80036;stroke-width:1.0;"/><!--MD5=[f5c720869033dc22d8f3d12ae1524a9f]
link VaccinationCenter to WaitingRoomList--><path codeLine="179" d="M862.26,1030.33 C870.41,1069.15 878.71,1108.72 884.08,1134.31 " fill="none" id="VaccinationCenter-to-WaitingRoomList" style="stroke:#A80036;stroke-width:1.0;stroke-dasharray:7.0,7.0;"/><polygon fill="#A80036" points="885.12,1139.24,887.1801,1129.609,884.0899,1134.3473,879.3517,1131.2571,885.12,1139.24" style="stroke:#A80036;stroke-width:1.0;"/><!--MD5=[5bffdd6f8ef67cfbc17d6bd4398d763c]
link AppointmentScheduleList to Appointment--><path codeLine="181" d="M1019.43,1314.36 C1018.48,1352.9 1016.55,1431.61 1015.05,1492.77 " fill="none" id="AppointmentScheduleList-to-Appointment" style="stroke:#A80036;stroke-width:1.0;"/><polygon fill="#A80036" points="1014.93,1497.89,1019.16,1488.9958,1015.0585,1492.8917,1011.1627,1488.7902,1014.93,1497.89" style="stroke:#A80036;stroke-width:1.0;"/><text fill="#000000" font-family="sans-serif" font-size="13" lengthAdjust="spacing" textLength="36" x="1020" y="1387.4951">stores</text><text fill="#000000" font-family="sans-serif" font-size="13" lengthAdjust="spacing" textLength="7" x="1011.4888" y="1335.379">1</text><text fill="#000000" font-family="sans-serif" font-size="13" lengthAdjust="spacing" textLength="5" x="1009.8757" y="1487.0664">*</text><!--MD5=[061ad90a7995ac7aaabbf62d41d77536]
link CenterEventList to CenterEvent--><path codeLine="182" d="M720,1201.72 C720,1239.78 720,1298.83 720,1338.66 " fill="none" id="CenterEventList-to-CenterEvent" style="stroke:#A80036;stroke-width:1.0;"/><polygon fill="#A80036" points="720,1343.91,724,1334.91,720,1338.91,716,1334.91,720,1343.91" style="stroke:#A80036;stroke-width:1.0;"/><text fill="#000000" font-family="sans-serif" font-size="13" lengthAdjust="spacing" textLength="36" x="721" y="1295.4951">stores</text><text fill="#000000" font-family="sans-serif" font-size="13" lengthAdjust="spacing" textLength="7" x="712.4422" y="1222.6356">1</text><text fill="#000000" font-family="sans-serif" font-size="13" lengthAdjust="spacing" textLength="5" x="714.5547" y="1333.2559">*</text><!--MD5=[8c304936b446fd8cea914e03fbadd4b7]
link VaccinationCenterStore to VaccinationCenter--><path codeLine="184" d="M853.61,624.85 C851.08,668.01 847.52,728.62 844.35,782.69 " fill="none" id="VaccinationCenterStore-to-VaccinationCenter" style="stroke:#A80036;stroke-width:1.0;"/><polygon fill="#A80036" points="844.04,787.9,848.5733,779.1565,844.3403,782.909,840.5878,778.676,844.04,787.9" style="stroke:#A80036;stroke-width:1.0;"/><text fill="#000000" font-family="sans-serif" font-size="13" lengthAdjust="spacing" textLength="36" x="850" y="739.4951">stores</text><text fill="#000000" font-family="sans-serif" font-size="13" lengthAdjust="spacing" textLength="7" x="845.8133" y="646.0846">1</text><text fill="#000000" font-family="sans-serif" font-size="13" lengthAdjust="spacing" textLength="5" x="839.3308" y="777.1454">*</text><!--MD5=[89791a9cd8c9c78fd39f4b892a053799]
link VaccineStore to Vaccine--><path codeLine="186" d="M513.62,624.66 C478.67,667.93 431.7,729.53 397,788 C379.13,818.12 363,855.04 352.89,879.91 " fill="none" id="VaccineStore-to-Vaccine" style="stroke:#A80036;stroke-width:1.0;"/><polygon fill="#A80036" points="350.95,884.72,358.0246,877.868,352.8192,880.0826,350.6047,874.8772,350.95,884.72" style="stroke:#A80036;stroke-width:1.0;"/><text fill="#000000" font-family="sans-serif" font-size="13" lengthAdjust="spacing" textLength="36" x="448" y="739.4951">stores</text><text fill="#000000" font-family="sans-serif" font-size="13" lengthAdjust="spacing" textLength="7" x="500.2971" y="646.2898">1</text><text fill="#000000" font-family="sans-serif" font-size="13" lengthAdjust="spacing" textLength="5" x="347.6028" y="873.9884">*</text><!--MD5=[4f898a9e1e1ea6486c9b22ccfa204bc8]
link WaitingRoomList to Arrival--><path codeLine="188" d="M884.46,1187.73 C878.24,1217.29 870.02,1269.8 878,1314 C879.48,1322.2 881.9,1330.7 884.67,1338.78 " fill="none" id="WaitingRoomList-to-Arrival" style="stroke:#A80036;stroke-width:1.0;"/><polygon fill="#A80036" points="886.43,1343.75,887.1926,1333.9307,884.7592,1339.0374,879.6525,1336.604,886.43,1343.75" style="stroke:#A80036;stroke-width:1.0;"/><text fill="#000000" font-family="sans-serif" font-size="13" lengthAdjust="spacing" textLength="36" x="879" y="1295.4951">stores</text><text fill="#000000" font-family="sans-serif" font-size="13" lengthAdjust="spacing" textLength="7" x="875.2565" y="1209.124">1</text><text fill="#000000" font-family="sans-serif" font-size="13" lengthAdjust="spacing" textLength="5" x="878.0332" y="1333.0674">*</text><!--MD5=[9770e95814553eeccdbc5e30b3c4ce70]
@startuml US17_CD
skinparam classAttributeIconSize 0

class Appointment {
  - Date appointmentTime
  - SNSUser snsUser
  - VaccineType vaccineType
  - - -
  + Appointment(appointmentTime, snsUser, vaccineType)
  + getCenter()
  + getDate()
  + getSNSUser()
  + getVaccineType()
}

class AppointmentScheduleList {}

class Administration {
  - SNSUser snsUser
  - Vaccine vaccine
  - String lotNumber
  - int doseNumber
  - VaccinationCenter center
  - Date administrationDate
  - - -
  Administration(snsUser, vaccine, lotNumber, doseNumber, center, administrationDate)
}

class AdministrationList {}

class Arrival {
  - Date arrivalTime
  - int status
}

class CenterEventList {
  - events: List<CenterEvent>
  - - -
  + CenterEventList()
}

class CenterEvent {
  - events: List<CenterEvent>
  - - -
  + CenterEvent()
}

class Company {
  - String designation
  - - -
  + Company(designation)
  + getVaccinationCenterStore()
}

class Coordinator {}

class CSVReader {
  - String filePathName

  + readLegacyData()
}

interface ICSVReader{
  read(filedata)
}

class HeaderCSVReader { 
  + read(filedata)
}

class MissingHeaderCSVReader{
  + read(filedata)
}

class Employee {
  - id: String
  - address: String
  - phoneNumber: String
  - citizenCardNumber: String
  - - -
  + Employee(id, name, address, phoneNumber, email, citizenCardNumber, roleId)
  + getId()
  + getName()
  + getAddress()
  + getPhoneNumber()
  + getEmail()
  + getCitizenCardNumber()
  + getPassword()
  + getRoleId()
}

class ImportLegacyDataUI {}

class ImportLegacyDataController {
  - - -
  + create()
  + save()
  + stringifyData()
}

class SNSUser {
  - String citizenCard
  - String snsNumber
  - Date birthDay
  - Char gender
  - String phoneNumber
  - String address
  + SNSUser(citizenCard, snsNumber, name, birthDay, gender, phoneNumber, email, address)
}

class SNSUserStore {}

class VaccinationCenter {
  - name: String
  - address: String
  - emailAddress: String
  - phoneNumber: String
  - faxNumber: String
  - websiteAddress: String
  - openingHours: String
  - closingHours: String
  - slotDuration: int
  - maximumVaccinesPerSlot: int
  - coordinator: EMPLOYEE
  - - -
  + VaccinationCenter(name,address,emailAddress,phoneNumber,faxNumber,websiteAddress,openingHours,closingHours,slotDuration,maximumVaccinesPerSlot,coordinator)
  + getName()
  + getCoordinator()
}

class VaccinationCenterStore {
  + createVaccinationCenter(centerData, coordinator)
  + validateVaccinatonCenter(center)
  + saveVaccinationCenter(center)
  + checkDuplicates(center)
  + addVaccinationCenter(center)
}

class VaccineStore {
  + createVaccinationCenter(centerData, coordinator)
  + validateVaccinatonCenter(center)
  + saveVaccinationCenter(center)
  + checkDuplicates(center)
  + addVaccinationCenter(center)
}

class Vaccine {}


AdministrationList "1" - -> "*" Administration : stores

Arrival "1" - -> "*" Appointment : related to

Company ..> SNSUserStore
Company ..> VaccinationCenterStore
Company ..> VaccineStore
Company "1" - -> "*" Employee : knows

CSVReader - -> ICSVReader : uses

Employee <|- - Coordinator

ICSVReader <.. MissingHeaderCSVReader
ICSVReader <.. HeaderCSVReader

ImportLegacyDataController ..> Company

ImportLegacyDataController - -> CSVReader : uses

ImportLegacyDataUI ..> ImportLegacyDataController

SNSUser ..> AdministrationList
SNSUser - -o Appointment
SNSUser - -o Arrival

SNSUserStore "1" - -> "*" SNSUser : stores

VaccinationCenter ..> AppointmentScheduleList
VaccinationCenter ..> CenterEventList
VaccinationCenter ..> WaitingRoomList

AppointmentScheduleList "1" - -> "*" Appointment : stores
CenterEventList "1" - -> "*" CenterEvent : stores

VaccinationCenterStore "1" - -> "*" VaccinationCenter : stores

VaccineStore "1" - -> "*" Vaccine : stores

WaitingRoomList "1" - -> "*" Arrival : stores

@enduml

PlantUML version 1.2022.0(Tue Jan 11 16:16:42 WET 2022)
(GPL source distribution)
Java Runtime: Java(TM) SE Runtime Environment
JVM: Java HotSpot(TM) 64-Bit Server VM
Default Encoding: Cp1252
Language: pt
Country: PT
--></g></svg>