<?xml version="1.0" encoding="UTF-8" standalone="no"?><svg xmlns="http://www.w3.org/2000/svg" xmlns:xlink="http://www.w3.org/1999/xlink" contentScriptType="application/ecmascript" contentStyleType="text/css" height="1013px" preserveAspectRatio="none" style="width:1956px;height:1013px;background:#FFFFFF;" version="1.1" viewBox="0 0 1956 1013" width="1956px" zoomAndPan="magnify"><defs><filter height="300%" id="fnjulai9ug50a" width="300%" x="-1" y="-1"><feGaussianBlur result="blurOut" stdDeviation="2.0"/><feColorMatrix in="blurOut" result="blurOut2" type="matrix" values="0 0 0 0 0 0 0 0 0 0 0 0 0 0 0 0 0 0 .4 0"/><feOffset dx="4.0" dy="4.0" in="blurOut2" result="blurOut3"/><feBlend in="SourceGraphic" in2="blurOut3" mode="normal"/></filter></defs><g><!--MD5=[02e4b9b7573f1156f41e60aa5b4e25a4]
class Company--><rect codeLine="3" fill="#FEFECE" filter="url(#fnjulai9ug50a)" height="89.5078" id="Company" style="stroke:#A80036;stroke-width:1.5;" width="156" x="668" y="284"/><ellipse cx="715.25" cy="300" fill="#ADD1B2" rx="11" ry="11" style="stroke:#A80036;stroke-width:1.0;"/><path d="M718.0156,295.875 Q718.1719,295.6563 718.3594,295.5469 Q718.5469,295.4375 718.7656,295.4375 Q719.1406,295.4375 719.375,295.7031 Q719.6094,295.9531 719.6094,296.5625 L719.6094,298.0156 Q719.6094,298.625 719.375,298.8906 Q719.1406,299.1563 718.7656,299.1563 Q718.4219,299.1563 718.2188,298.9531 Q718.0156,298.7656 717.9063,298.25 Q717.8594,297.8906 717.6719,297.7031 Q717.3438,297.3281 716.7344,297.1094 Q716.125,296.8906 715.5,296.8906 Q714.7344,296.8906 714.0938,297.2188 Q713.4688,297.5469 712.9688,298.2969 Q712.4844,299.0469 712.4844,300.0781 L712.4844,301.1719 Q712.4844,302.4063 713.375,303.2344 Q714.2656,304.0469 715.8594,304.0469 Q716.7969,304.0469 717.4531,303.7969 Q717.8438,303.6406 718.2656,303.2031 Q718.5313,302.9375 718.6719,302.8594 Q718.8281,302.7813 719.0313,302.7813 Q719.3594,302.7813 719.6094,303.0469 Q719.875,303.2969 719.875,303.6406 Q719.875,303.9844 719.5313,304.3906 Q719.0313,304.9688 718.2344,305.2969 Q717.1563,305.75 715.8594,305.75 Q714.3438,305.75 713.1406,305.125 Q712.1563,304.625 711.4688,303.5625 Q710.7813,302.4844 710.7813,301.2031 L710.7813,300.0469 Q710.7813,298.7188 711.3906,297.5781 Q712.0156,296.4219 713.1094,295.8125 Q714.2031,295.1875 715.4375,295.1875 Q716.1719,295.1875 716.8125,295.3594 Q717.4688,295.5156 718.0156,295.875 Z " fill="#000000"/><text fill="#000000" font-family="sans-serif" font-size="12" lengthAdjust="spacing" textLength="53" x="735.75" y="304.9102">Company</text><line style="stroke:#A80036;stroke-width:1.5;" x1="669" x2="823" y1="316" y2="316"/><text fill="#000000" font-family="sans-serif" font-size="11" lengthAdjust="spacing" textLength="90" x="674" y="331.4189">-String designation</text><line style="stroke:#A80036;stroke-width:1.0;" x1="669" x2="823" y1="337.8359" y2="337.8359"/><text fill="#000000" font-family="sans-serif" font-size="11" lengthAdjust="spacing" textLength="114" x="674" y="353.2549">+Company(designation)</text><text fill="#000000" font-family="sans-serif" font-size="11" lengthAdjust="spacing" textLength="144" x="674" y="367.0908">+getVaccinationCenterStore()</text><!--MD5=[5d2bdee92db0d01b75732190da037553]
class Coordinator--><rect codeLine="10" fill="#FEFECE" filter="url(#fnjulai9ug50a)" height="48" id="Coordinator" style="stroke:#A80036;stroke-width:1.5;" width="97" x="89.5" y="855"/><ellipse cx="104.5" cy="871" fill="#ADD1B2" rx="11" ry="11" style="stroke:#A80036;stroke-width:1.0;"/><path d="M107.2656,866.875 Q107.4219,866.6563 107.6094,866.5469 Q107.7969,866.4375 108.0156,866.4375 Q108.3906,866.4375 108.625,866.7031 Q108.8594,866.9531 108.8594,867.5625 L108.8594,869.0156 Q108.8594,869.625 108.625,869.8906 Q108.3906,870.1563 108.0156,870.1563 Q107.6719,870.1563 107.4688,869.9531 Q107.2656,869.7656 107.1563,869.25 Q107.1094,868.8906 106.9219,868.7031 Q106.5938,868.3281 105.9844,868.1094 Q105.375,867.8906 104.75,867.8906 Q103.9844,867.8906 103.3438,868.2188 Q102.7188,868.5469 102.2188,869.2969 Q101.7344,870.0469 101.7344,871.0781 L101.7344,872.1719 Q101.7344,873.4063 102.625,874.2344 Q103.5156,875.0469 105.1094,875.0469 Q106.0469,875.0469 106.7031,874.7969 Q107.0938,874.6406 107.5156,874.2031 Q107.7813,873.9375 107.9219,873.8594 Q108.0781,873.7813 108.2813,873.7813 Q108.6094,873.7813 108.8594,874.0469 Q109.125,874.2969 109.125,874.6406 Q109.125,874.9844 108.7813,875.3906 Q108.2813,875.9688 107.4844,876.2969 Q106.4063,876.75 105.1094,876.75 Q103.5938,876.75 102.3906,876.125 Q101.4063,875.625 100.7188,874.5625 Q100.0313,873.4844 100.0313,872.2031 L100.0313,871.0469 Q100.0313,869.7188 100.6406,868.5781 Q101.2656,867.4219 102.3594,866.8125 Q103.4531,866.1875 104.6875,866.1875 Q105.4219,866.1875 106.0625,866.3594 Q106.7188,866.5156 107.2656,866.875 Z " fill="#000000"/><text fill="#000000" font-family="sans-serif" font-size="12" lengthAdjust="spacing" textLength="65" x="118.5" y="875.9102">Coordinator</text><line style="stroke:#A80036;stroke-width:1.5;" x1="90.5" x2="185.5" y1="887" y2="887"/><line style="stroke:#A80036;stroke-width:1.5;" x1="90.5" x2="185.5" y1="895" y2="895"/><!--MD5=[60b59e3d7d8b95aff167b5157d975660]
class CSVReader--><rect codeLine="12" fill="#FEFECE" filter="url(#fnjulai9ug50a)" height="75.6719" id="CSVReader" style="stroke:#A80036;stroke-width:1.5;" width="109" x="911.5" y="291"/><ellipse cx="931.9" cy="307" fill="#ADD1B2" rx="11" ry="11" style="stroke:#A80036;stroke-width:1.0;"/><path d="M934.6656,302.875 Q934.8219,302.6563 935.0094,302.5469 Q935.1969,302.4375 935.4156,302.4375 Q935.7906,302.4375 936.025,302.7031 Q936.2594,302.9531 936.2594,303.5625 L936.2594,305.0156 Q936.2594,305.625 936.025,305.8906 Q935.7906,306.1563 935.4156,306.1563 Q935.0719,306.1563 934.8688,305.9531 Q934.6656,305.7656 934.5563,305.25 Q934.5094,304.8906 934.3219,304.7031 Q933.9938,304.3281 933.3844,304.1094 Q932.775,303.8906 932.15,303.8906 Q931.3844,303.8906 930.7438,304.2188 Q930.1188,304.5469 929.6188,305.2969 Q929.1344,306.0469 929.1344,307.0781 L929.1344,308.1719 Q929.1344,309.4063 930.025,310.2344 Q930.9156,311.0469 932.5094,311.0469 Q933.4469,311.0469 934.1031,310.7969 Q934.4938,310.6406 934.9156,310.2031 Q935.1813,309.9375 935.3219,309.8594 Q935.4781,309.7813 935.6813,309.7813 Q936.0094,309.7813 936.2594,310.0469 Q936.525,310.2969 936.525,310.6406 Q936.525,310.9844 936.1813,311.3906 Q935.6813,311.9688 934.8844,312.2969 Q933.8063,312.75 932.5094,312.75 Q930.9938,312.75 929.7906,312.125 Q928.8063,311.625 928.1188,310.5625 Q927.4313,309.4844 927.4313,308.2031 L927.4313,307.0469 Q927.4313,305.7188 928.0406,304.5781 Q928.6656,303.4219 929.7594,302.8125 Q930.8531,302.1875 932.0875,302.1875 Q932.8219,302.1875 933.4625,302.3594 Q934.1188,302.5156 934.6656,302.875 Z " fill="#000000"/><text fill="#000000" font-family="sans-serif" font-size="12" lengthAdjust="spacing" textLength="65" x="947.1" y="311.9102">CSVReader</text><line style="stroke:#A80036;stroke-width:1.5;" x1="912.5" x2="1019.5" y1="323" y2="323"/><text fill="#000000" font-family="sans-serif" font-size="11" lengthAdjust="spacing" textLength="97" x="917.5" y="338.4189">-String filePathName</text><line style="stroke:#A80036;stroke-width:1.5;" x1="912.5" x2="1019.5" y1="344.8359" y2="344.8359"/><text fill="#000000" font-family="sans-serif" font-size="11" lengthAdjust="spacing" textLength="94" x="917.5" y="360.2549">+readLegacyData()</text><!--MD5=[1c83c82c78e97e256fcc5a79b8468c39]
class ICSVReader--><rect codeLine="18" fill="#FEFECE" filter="url(#fnjulai9ug50a)" height="61.8359" id="ICSVReader" style="stroke:#A80036;stroke-width:1.5;" width="102" x="1606" y="535"/><ellipse cx="1621" cy="551" fill="#B4A7E5" rx="11" ry="11" style="stroke:#A80036;stroke-width:1.0;"/><path d="M1621.9531,547.6406 L1621.9531,554.2969 L1623.6719,554.2969 Q1624.2813,554.2969 1624.5469,554.5313 Q1624.8125,554.7656 1624.8125,555.1563 Q1624.8125,555.5313 1624.5469,555.7656 Q1624.2813,556 1623.6719,556 L1618.5313,556 Q1617.9219,556 1617.6563,555.7656 Q1617.3906,555.5313 1617.3906,555.1406 Q1617.3906,554.7656 1617.6563,554.5313 Q1617.9219,554.2969 1618.5313,554.2969 L1620.25,554.2969 L1620.25,547.6406 L1618.5313,547.6406 Q1617.9219,547.6406 1617.6563,547.4063 Q1617.3906,547.1719 1617.3906,546.7813 Q1617.3906,546.4063 1617.6563,546.1719 Q1617.9219,545.9375 1618.5313,545.9375 L1623.6719,545.9375 Q1624.2813,545.9375 1624.5469,546.1719 Q1624.8125,546.4063 1624.8125,546.7813 Q1624.8125,547.1719 1624.5469,547.4063 Q1624.2813,547.6406 1623.6719,547.6406 L1621.9531,547.6406 Z " fill="#000000"/><text fill="#000000" font-family="sans-serif" font-size="12" font-style="italic" lengthAdjust="spacing" textLength="70" x="1635" y="555.9102">ICSVReader</text><line style="stroke:#A80036;stroke-width:1.5;" x1="1607" x2="1707" y1="567" y2="567"/><line style="stroke:#A80036;stroke-width:1.5;" x1="1607" x2="1707" y1="575" y2="575"/><text fill="#000000" font-family="sans-serif" font-size="11" lengthAdjust="spacing" textLength="65" x="1612" y="590.4189">read(filedata)</text><!--MD5=[0a05b9e3b501b5909d607b6b8cbcb973]
class HeaderCSVReader--><rect codeLine="22" fill="#FEFECE" filter="url(#fnjulai9ug50a)" height="61.8359" id="HeaderCSVReader" style="stroke:#A80036;stroke-width:1.5;" width="138" x="1588" y="848"/><ellipse cx="1603" cy="864" fill="#ADD1B2" rx="11" ry="11" style="stroke:#A80036;stroke-width:1.0;"/><path d="M1605.7656,859.875 Q1605.9219,859.6563 1606.1094,859.5469 Q1606.2969,859.4375 1606.5156,859.4375 Q1606.8906,859.4375 1607.125,859.7031 Q1607.3594,859.9531 1607.3594,860.5625 L1607.3594,862.0156 Q1607.3594,862.625 1607.125,862.8906 Q1606.8906,863.1563 1606.5156,863.1563 Q1606.1719,863.1563 1605.9688,862.9531 Q1605.7656,862.7656 1605.6563,862.25 Q1605.6094,861.8906 1605.4219,861.7031 Q1605.0938,861.3281 1604.4844,861.1094 Q1603.875,860.8906 1603.25,860.8906 Q1602.4844,860.8906 1601.8438,861.2188 Q1601.2188,861.5469 1600.7188,862.2969 Q1600.2344,863.0469 1600.2344,864.0781 L1600.2344,865.1719 Q1600.2344,866.4063 1601.125,867.2344 Q1602.0156,868.0469 1603.6094,868.0469 Q1604.5469,868.0469 1605.2031,867.7969 Q1605.5938,867.6406 1606.0156,867.2031 Q1606.2813,866.9375 1606.4219,866.8594 Q1606.5781,866.7813 1606.7813,866.7813 Q1607.1094,866.7813 1607.3594,867.0469 Q1607.625,867.2969 1607.625,867.6406 Q1607.625,867.9844 1607.2813,868.3906 Q1606.7813,868.9688 1605.9844,869.2969 Q1604.9063,869.75 1603.6094,869.75 Q1602.0938,869.75 1600.8906,869.125 Q1599.9063,868.625 1599.2188,867.5625 Q1598.5313,866.4844 1598.5313,865.2031 L1598.5313,864.0469 Q1598.5313,862.7188 1599.1406,861.5781 Q1599.7656,860.4219 1600.8594,859.8125 Q1601.9531,859.1875 1603.1875,859.1875 Q1603.9219,859.1875 1604.5625,859.3594 Q1605.2188,859.5156 1605.7656,859.875 Z " fill="#000000"/><text fill="#000000" font-family="sans-serif" font-size="12" lengthAdjust="spacing" textLength="106" x="1617" y="868.9102">HeaderCSVReader</text><line style="stroke:#A80036;stroke-width:1.5;" x1="1589" x2="1725" y1="880" y2="880"/><line style="stroke:#A80036;stroke-width:1.5;" x1="1589" x2="1725" y1="888" y2="888"/><text fill="#000000" font-family="sans-serif" font-size="11" lengthAdjust="spacing" textLength="71" x="1594" y="903.4189">+read(filedata)</text><!--MD5=[1a8354f766442428020cf9fc7f0cd249]
class MissingHeaderCSVReader--><rect codeLine="26" fill="#FEFECE" filter="url(#fnjulai9ug50a)" height="61.8359" id="MissingHeaderCSVReader" style="stroke:#A80036;stroke-width:1.5;" width="181" x="1761.5" y="848"/><ellipse cx="1776.5" cy="864" fill="#ADD1B2" rx="11" ry="11" style="stroke:#A80036;stroke-width:1.0;"/><path d="M1779.2656,859.875 Q1779.4219,859.6563 1779.6094,859.5469 Q1779.7969,859.4375 1780.0156,859.4375 Q1780.3906,859.4375 1780.625,859.7031 Q1780.8594,859.9531 1780.8594,860.5625 L1780.8594,862.0156 Q1780.8594,862.625 1780.625,862.8906 Q1780.3906,863.1563 1780.0156,863.1563 Q1779.6719,863.1563 1779.4688,862.9531 Q1779.2656,862.7656 1779.1563,862.25 Q1779.1094,861.8906 1778.9219,861.7031 Q1778.5938,861.3281 1777.9844,861.1094 Q1777.375,860.8906 1776.75,860.8906 Q1775.9844,860.8906 1775.3438,861.2188 Q1774.7188,861.5469 1774.2188,862.2969 Q1773.7344,863.0469 1773.7344,864.0781 L1773.7344,865.1719 Q1773.7344,866.4063 1774.625,867.2344 Q1775.5156,868.0469 1777.1094,868.0469 Q1778.0469,868.0469 1778.7031,867.7969 Q1779.0938,867.6406 1779.5156,867.2031 Q1779.7813,866.9375 1779.9219,866.8594 Q1780.0781,866.7813 1780.2813,866.7813 Q1780.6094,866.7813 1780.8594,867.0469 Q1781.125,867.2969 1781.125,867.6406 Q1781.125,867.9844 1780.7813,868.3906 Q1780.2813,868.9688 1779.4844,869.2969 Q1778.4063,869.75 1777.1094,869.75 Q1775.5938,869.75 1774.3906,869.125 Q1773.4063,868.625 1772.7188,867.5625 Q1772.0313,866.4844 1772.0313,865.2031 L1772.0313,864.0469 Q1772.0313,862.7188 1772.6406,861.5781 Q1773.2656,860.4219 1774.3594,859.8125 Q1775.4531,859.1875 1776.6875,859.1875 Q1777.4219,859.1875 1778.0625,859.3594 Q1778.7188,859.5156 1779.2656,859.875 Z " fill="#000000"/><text fill="#000000" font-family="sans-serif" font-size="12" lengthAdjust="spacing" textLength="149" x="1790.5" y="868.9102">MissingHeaderCSVReader</text><line style="stroke:#A80036;stroke-width:1.5;" x1="1762.5" x2="1941.5" y1="880" y2="880"/><line style="stroke:#A80036;stroke-width:1.5;" x1="1762.5" x2="1941.5" y1="888" y2="888"/><text fill="#000000" font-family="sans-serif" font-size="11" lengthAdjust="spacing" textLength="71" x="1767.5" y="903.4189">+read(filedata)</text><!--MD5=[7421f545a0d8420c5bec41e74b387d9c]
class Employee--><rect codeLine="30" fill="#FEFECE" filter="url(#fnjulai9ug50a)" height="227.8672" id="Employee" style="stroke:#A80036;stroke-width:1.5;" width="390" x="7" y="452"/><ellipse cx="170.25" cy="468" fill="#ADD1B2" rx="11" ry="11" style="stroke:#A80036;stroke-width:1.0;"/><path d="M173.0156,463.875 Q173.1719,463.6563 173.3594,463.5469 Q173.5469,463.4375 173.7656,463.4375 Q174.1406,463.4375 174.375,463.7031 Q174.6094,463.9531 174.6094,464.5625 L174.6094,466.0156 Q174.6094,466.625 174.375,466.8906 Q174.1406,467.1563 173.7656,467.1563 Q173.4219,467.1563 173.2188,466.9531 Q173.0156,466.7656 172.9063,466.25 Q172.8594,465.8906 172.6719,465.7031 Q172.3438,465.3281 171.7344,465.1094 Q171.125,464.8906 170.5,464.8906 Q169.7344,464.8906 169.0938,465.2188 Q168.4688,465.5469 167.9688,466.2969 Q167.4844,467.0469 167.4844,468.0781 L167.4844,469.1719 Q167.4844,470.4063 168.375,471.2344 Q169.2656,472.0469 170.8594,472.0469 Q171.7969,472.0469 172.4531,471.7969 Q172.8438,471.6406 173.2656,471.2031 Q173.5313,470.9375 173.6719,470.8594 Q173.8281,470.7813 174.0313,470.7813 Q174.3594,470.7813 174.6094,471.0469 Q174.875,471.2969 174.875,471.6406 Q174.875,471.9844 174.5313,472.3906 Q174.0313,472.9688 173.2344,473.2969 Q172.1563,473.75 170.8594,473.75 Q169.3438,473.75 168.1406,473.125 Q167.1563,472.625 166.4688,471.5625 Q165.7813,470.4844 165.7813,469.2031 L165.7813,468.0469 Q165.7813,466.7188 166.3906,465.5781 Q167.0156,464.4219 168.1094,463.8125 Q169.2031,463.1875 170.4375,463.1875 Q171.1719,463.1875 171.8125,463.3594 Q172.4688,463.5156 173.0156,463.875 Z " fill="#000000"/><text fill="#000000" font-family="sans-serif" font-size="12" lengthAdjust="spacing" textLength="55" x="190.75" y="472.9102">Employee</text><line style="stroke:#A80036;stroke-width:1.5;" x1="8" x2="396" y1="484" y2="484"/><text fill="#000000" font-family="sans-serif" font-size="11" lengthAdjust="spacing" textLength="46" x="13" y="499.4189">-id: String</text><text fill="#000000" font-family="sans-serif" font-size="11" lengthAdjust="spacing" textLength="78" x="13" y="513.2549">-address: String</text><text fill="#000000" font-family="sans-serif" font-size="11" lengthAdjust="spacing" textLength="105" x="13" y="527.0908">-phoneNumber: String</text><text fill="#000000" font-family="sans-serif" font-size="11" lengthAdjust="spacing" textLength="129" x="13" y="540.9268">-citizenCardNumber: String</text><line style="stroke:#A80036;stroke-width:1.0;" x1="8" x2="396" y1="547.3438" y2="547.3438"/><text fill="#000000" font-family="sans-serif" font-size="11" lengthAdjust="spacing" textLength="378" x="13" y="562.7627">+Employee(id, name, address, phoneNumber, email, citizenCardNumber, roleId)</text><text fill="#000000" font-family="sans-serif" font-size="11" lengthAdjust="spacing" textLength="37" x="13" y="576.5986">+getId()</text><text fill="#000000" font-family="sans-serif" font-size="11" lengthAdjust="spacing" textLength="56" x="13" y="590.4346">+getName()</text><text fill="#000000" font-family="sans-serif" font-size="11" lengthAdjust="spacing" textLength="71" x="13" y="604.2705">+getAddress()</text><text fill="#000000" font-family="sans-serif" font-size="11" lengthAdjust="spacing" textLength="96" x="13" y="618.1064">+getPhoneNumber()</text><text fill="#000000" font-family="sans-serif" font-size="11" lengthAdjust="spacing" textLength="53" x="13" y="631.9424">+getEmail()</text><text fill="#000000" font-family="sans-serif" font-size="11" lengthAdjust="spacing" textLength="121" x="13" y="645.7783">+getCitizenCardNumber()</text><text fill="#000000" font-family="sans-serif" font-size="11" lengthAdjust="spacing" textLength="79" x="13" y="659.6143">+getPassword()</text><text fill="#000000" font-family="sans-serif" font-size="11" lengthAdjust="spacing" textLength="58" x="13" y="673.4502">+getRoleId()</text><!--MD5=[12e26ca6fd00d851110e9a70a48b001e]
class ImportLegacyDataUI--><rect codeLine="47" fill="#FEFECE" filter="url(#fnjulai9ug50a)" height="48" id="ImportLegacyDataUI" style="stroke:#A80036;stroke-width:1.5;" width="144" x="758" y="7"/><ellipse cx="773" cy="23" fill="#ADD1B2" rx="11" ry="11" style="stroke:#A80036;stroke-width:1.0;"/><path d="M775.7656,18.875 Q775.9219,18.6563 776.1094,18.5469 Q776.2969,18.4375 776.5156,18.4375 Q776.8906,18.4375 777.125,18.7031 Q777.3594,18.9531 777.3594,19.5625 L777.3594,21.0156 Q777.3594,21.625 777.125,21.8906 Q776.8906,22.1563 776.5156,22.1563 Q776.1719,22.1563 775.9688,21.9531 Q775.7656,21.7656 775.6563,21.25 Q775.6094,20.8906 775.4219,20.7031 Q775.0938,20.3281 774.4844,20.1094 Q773.875,19.8906 773.25,19.8906 Q772.4844,19.8906 771.8438,20.2188 Q771.2188,20.5469 770.7188,21.2969 Q770.2344,22.0469 770.2344,23.0781 L770.2344,24.1719 Q770.2344,25.4063 771.125,26.2344 Q772.0156,27.0469 773.6094,27.0469 Q774.5469,27.0469 775.2031,26.7969 Q775.5938,26.6406 776.0156,26.2031 Q776.2813,25.9375 776.4219,25.8594 Q776.5781,25.7813 776.7813,25.7813 Q777.1094,25.7813 777.3594,26.0469 Q777.625,26.2969 777.625,26.6406 Q777.625,26.9844 777.2813,27.3906 Q776.7813,27.9688 775.9844,28.2969 Q774.9063,28.75 773.6094,28.75 Q772.0938,28.75 770.8906,28.125 Q769.9063,27.625 769.2188,26.5625 Q768.5313,25.4844 768.5313,24.2031 L768.5313,23.0469 Q768.5313,21.7188 769.1406,20.5781 Q769.7656,19.4219 770.8594,18.8125 Q771.9531,18.1875 773.1875,18.1875 Q773.9219,18.1875 774.5625,18.3594 Q775.2188,18.5156 775.7656,18.875 Z " fill="#000000"/><text fill="#000000" font-family="sans-serif" font-size="12" lengthAdjust="spacing" textLength="112" x="787" y="27.9102">ImportLegacyDataUI</text><line style="stroke:#A80036;stroke-width:1.5;" x1="759" x2="901" y1="39" y2="39"/><line style="stroke:#A80036;stroke-width:1.5;" x1="759" x2="901" y1="47" y2="47"/><!--MD5=[2499e84ecc5ae840e7d9429026a286f0]
class ImportLegacyDataController--><rect codeLine="49" fill="#FEFECE" filter="url(#fnjulai9ug50a)" height="89.5078" id="ImportLegacyDataController" style="stroke:#A80036;stroke-width:1.5;" width="186" x="737" y="116"/><ellipse cx="752" cy="132" fill="#ADD1B2" rx="11" ry="11" style="stroke:#A80036;stroke-width:1.0;"/><path d="M754.7656,127.875 Q754.9219,127.6563 755.1094,127.5469 Q755.2969,127.4375 755.5156,127.4375 Q755.8906,127.4375 756.125,127.7031 Q756.3594,127.9531 756.3594,128.5625 L756.3594,130.0156 Q756.3594,130.625 756.125,130.8906 Q755.8906,131.1563 755.5156,131.1563 Q755.1719,131.1563 754.9688,130.9531 Q754.7656,130.7656 754.6563,130.25 Q754.6094,129.8906 754.4219,129.7031 Q754.0938,129.3281 753.4844,129.1094 Q752.875,128.8906 752.25,128.8906 Q751.4844,128.8906 750.8438,129.2188 Q750.2188,129.5469 749.7188,130.2969 Q749.2344,131.0469 749.2344,132.0781 L749.2344,133.1719 Q749.2344,134.4063 750.125,135.2344 Q751.0156,136.0469 752.6094,136.0469 Q753.5469,136.0469 754.2031,135.7969 Q754.5938,135.6406 755.0156,135.2031 Q755.2813,134.9375 755.4219,134.8594 Q755.5781,134.7813 755.7813,134.7813 Q756.1094,134.7813 756.3594,135.0469 Q756.625,135.2969 756.625,135.6406 Q756.625,135.9844 756.2813,136.3906 Q755.7813,136.9688 754.9844,137.2969 Q753.9063,137.75 752.6094,137.75 Q751.0938,137.75 749.8906,137.125 Q748.9063,136.625 748.2188,135.5625 Q747.5313,134.4844 747.5313,133.2031 L747.5313,132.0469 Q747.5313,130.7188 748.1406,129.5781 Q748.7656,128.4219 749.8594,127.8125 Q750.9531,127.1875 752.1875,127.1875 Q752.9219,127.1875 753.5625,127.3594 Q754.2188,127.5156 754.7656,127.875 Z " fill="#000000"/><text fill="#000000" font-family="sans-serif" font-size="12" lengthAdjust="spacing" textLength="154" x="766" y="136.9102">ImportLegacyDataController</text><line style="stroke:#A80036;stroke-width:1.5;" x1="738" x2="922" y1="148" y2="148"/><line style="stroke:#A80036;stroke-width:1.0;" x1="738" x2="922" y1="156" y2="156"/><text fill="#000000" font-family="sans-serif" font-size="11" lengthAdjust="spacing" textLength="45" x="743" y="171.4189">+create()</text><text fill="#000000" font-family="sans-serif" font-size="11" lengthAdjust="spacing" textLength="38" x="743" y="185.2549">+save()</text><text fill="#000000" font-family="sans-serif" font-size="11" lengthAdjust="spacing" textLength="75" x="743" y="199.0908">+stringifyData()</text><!--MD5=[72be06cc7ae02ccc98efe28a50e62246]
class SNSUser--><rect codeLine="56" fill="#FEFECE" filter="url(#fnjulai9ug50a)" height="144.8516" id="SNSUser" style="stroke:#A80036;stroke-width:1.5;" width="452" x="222" y="806.5"/><ellipse cx="417.75" cy="822.5" fill="#ADD1B2" rx="11" ry="11" style="stroke:#A80036;stroke-width:1.0;"/><path d="M420.5156,818.375 Q420.6719,818.1563 420.8594,818.0469 Q421.0469,817.9375 421.2656,817.9375 Q421.6406,817.9375 421.875,818.2031 Q422.1094,818.4531 422.1094,819.0625 L422.1094,820.5156 Q422.1094,821.125 421.875,821.3906 Q421.6406,821.6563 421.2656,821.6563 Q420.9219,821.6563 420.7188,821.4531 Q420.5156,821.2656 420.4063,820.75 Q420.3594,820.3906 420.1719,820.2031 Q419.8438,819.8281 419.2344,819.6094 Q418.625,819.3906 418,819.3906 Q417.2344,819.3906 416.5938,819.7188 Q415.9688,820.0469 415.4688,820.7969 Q414.9844,821.5469 414.9844,822.5781 L414.9844,823.6719 Q414.9844,824.9063 415.875,825.7344 Q416.7656,826.5469 418.3594,826.5469 Q419.2969,826.5469 419.9531,826.2969 Q420.3438,826.1406 420.7656,825.7031 Q421.0313,825.4375 421.1719,825.3594 Q421.3281,825.2813 421.5313,825.2813 Q421.8594,825.2813 422.1094,825.5469 Q422.375,825.7969 422.375,826.1406 Q422.375,826.4844 422.0313,826.8906 Q421.5313,827.4688 420.7344,827.7969 Q419.6563,828.25 418.3594,828.25 Q416.8438,828.25 415.6406,827.625 Q414.6563,827.125 413.9688,826.0625 Q413.2813,824.9844 413.2813,823.7031 L413.2813,822.5469 Q413.2813,821.2188 413.8906,820.0781 Q414.5156,818.9219 415.6094,818.3125 Q416.7031,817.6875 417.9375,817.6875 Q418.6719,817.6875 419.3125,817.8594 Q419.9688,818.0156 420.5156,818.375 Z " fill="#000000"/><text fill="#000000" font-family="sans-serif" font-size="12" lengthAdjust="spacing" textLength="52" x="438.25" y="827.4102">SNSUser</text><line style="stroke:#A80036;stroke-width:1.5;" x1="223" x2="673" y1="838.5" y2="838.5"/><text fill="#000000" font-family="sans-serif" font-size="11" lengthAdjust="spacing" textLength="89" x="228" y="853.9189">-String citizenCard</text><text fill="#000000" font-family="sans-serif" font-size="11" lengthAdjust="spacing" textLength="90" x="228" y="867.7549">-String snsNumber</text><text fill="#000000" font-family="sans-serif" font-size="11" lengthAdjust="spacing" textLength="69" x="228" y="881.5908">-Date birthDay</text><text fill="#000000" font-family="sans-serif" font-size="11" lengthAdjust="spacing" textLength="64" x="228" y="895.4268">-Char gender</text><text fill="#000000" font-family="sans-serif" font-size="11" lengthAdjust="spacing" textLength="102" x="228" y="909.2627">-String phoneNumber</text><text fill="#000000" font-family="sans-serif" font-size="11" lengthAdjust="spacing" textLength="75" x="228" y="923.0986">-String address</text><line style="stroke:#A80036;stroke-width:1.5;" x1="223" x2="673" y1="929.5156" y2="929.5156"/><text fill="#000000" font-family="sans-serif" font-size="11" lengthAdjust="spacing" textLength="440" x="228" y="944.9346">+SNSUser(citizenCard, snsNumber, name, birthDay, gender, phoneNumber, email, address)</text><!--MD5=[a5ad3856b0c65e07b10297b4477b22bb]
class SNSUserStore--><rect codeLine="66" fill="#FEFECE" filter="url(#fnjulai9ug50a)" height="48" id="SNSUserStore" style="stroke:#A80036;stroke-width:1.5;" width="113" x="559.5" y="542"/><ellipse cx="574.5" cy="558" fill="#ADD1B2" rx="11" ry="11" style="stroke:#A80036;stroke-width:1.0;"/><path d="M577.2656,553.875 Q577.4219,553.6563 577.6094,553.5469 Q577.7969,553.4375 578.0156,553.4375 Q578.3906,553.4375 578.625,553.7031 Q578.8594,553.9531 578.8594,554.5625 L578.8594,556.0156 Q578.8594,556.625 578.625,556.8906 Q578.3906,557.1563 578.0156,557.1563 Q577.6719,557.1563 577.4688,556.9531 Q577.2656,556.7656 577.1563,556.25 Q577.1094,555.8906 576.9219,555.7031 Q576.5938,555.3281 575.9844,555.1094 Q575.375,554.8906 574.75,554.8906 Q573.9844,554.8906 573.3438,555.2188 Q572.7188,555.5469 572.2188,556.2969 Q571.7344,557.0469 571.7344,558.0781 L571.7344,559.1719 Q571.7344,560.4063 572.625,561.2344 Q573.5156,562.0469 575.1094,562.0469 Q576.0469,562.0469 576.7031,561.7969 Q577.0938,561.6406 577.5156,561.2031 Q577.7813,560.9375 577.9219,560.8594 Q578.0781,560.7813 578.2813,560.7813 Q578.6094,560.7813 578.8594,561.0469 Q579.125,561.2969 579.125,561.6406 Q579.125,561.9844 578.7813,562.3906 Q578.2813,562.9688 577.4844,563.2969 Q576.4063,563.75 575.1094,563.75 Q573.5938,563.75 572.3906,563.125 Q571.4063,562.625 570.7188,561.5625 Q570.0313,560.4844 570.0313,559.2031 L570.0313,558.0469 Q570.0313,556.7188 570.6406,555.5781 Q571.2656,554.4219 572.3594,553.8125 Q573.4531,553.1875 574.6875,553.1875 Q575.4219,553.1875 576.0625,553.3594 Q576.7188,553.5156 577.2656,553.875 Z " fill="#000000"/><text fill="#000000" font-family="sans-serif" font-size="12" lengthAdjust="spacing" textLength="81" x="588.5" y="562.9102">SNSUserStore</text><line style="stroke:#A80036;stroke-width:1.5;" x1="560.5" x2="671.5" y1="574" y2="574"/><line style="stroke:#A80036;stroke-width:1.5;" x1="560.5" x2="671.5" y1="582" y2="582"/><!--MD5=[de60e6d4f424ae4d0522096f76a59010]
class VaccinationCenter--><rect codeLine="68" fill="#FEFECE" filter="url(#fnjulai9ug50a)" height="241.7031" id="VaccinationCenter" style="stroke:#A80036;stroke-width:1.5;" width="844" x="709" y="758"/><ellipse cx="1076.75" cy="774" fill="#ADD1B2" rx="11" ry="11" style="stroke:#A80036;stroke-width:1.0;"/><path d="M1079.5156,769.875 Q1079.6719,769.6563 1079.8594,769.5469 Q1080.0469,769.4375 1080.2656,769.4375 Q1080.6406,769.4375 1080.875,769.7031 Q1081.1094,769.9531 1081.1094,770.5625 L1081.1094,772.0156 Q1081.1094,772.625 1080.875,772.8906 Q1080.6406,773.1563 1080.2656,773.1563 Q1079.9219,773.1563 1079.7188,772.9531 Q1079.5156,772.7656 1079.4063,772.25 Q1079.3594,771.8906 1079.1719,771.7031 Q1078.8438,771.3281 1078.2344,771.1094 Q1077.625,770.8906 1077,770.8906 Q1076.2344,770.8906 1075.5938,771.2188 Q1074.9688,771.5469 1074.4688,772.2969 Q1073.9844,773.0469 1073.9844,774.0781 L1073.9844,775.1719 Q1073.9844,776.4063 1074.875,777.2344 Q1075.7656,778.0469 1077.3594,778.0469 Q1078.2969,778.0469 1078.9531,777.7969 Q1079.3438,777.6406 1079.7656,777.2031 Q1080.0313,776.9375 1080.1719,776.8594 Q1080.3281,776.7813 1080.5313,776.7813 Q1080.8594,776.7813 1081.1094,777.0469 Q1081.375,777.2969 1081.375,777.6406 Q1081.375,777.9844 1081.0313,778.3906 Q1080.5313,778.9688 1079.7344,779.2969 Q1078.6563,779.75 1077.3594,779.75 Q1075.8438,779.75 1074.6406,779.125 Q1073.6563,778.625 1072.9688,777.5625 Q1072.2813,776.4844 1072.2813,775.2031 L1072.2813,774.0469 Q1072.2813,772.7188 1072.8906,771.5781 Q1073.5156,770.4219 1074.6094,769.8125 Q1075.7031,769.1875 1076.9375,769.1875 Q1077.6719,769.1875 1078.3125,769.3594 Q1078.9688,769.5156 1079.5156,769.875 Z " fill="#000000"/><text fill="#000000" font-family="sans-serif" font-size="12" lengthAdjust="spacing" textLength="100" x="1097.25" y="778.9102">VaccinationCenter</text><line style="stroke:#A80036;stroke-width:1.5;" x1="710" x2="1552" y1="790" y2="790"/><text fill="#000000" font-family="sans-serif" font-size="11" lengthAdjust="spacing" textLength="64" x="715" y="805.4189">-name: String</text><text fill="#000000" font-family="sans-serif" font-size="11" lengthAdjust="spacing" textLength="78" x="715" y="819.2549">-address: String</text><text fill="#000000" font-family="sans-serif" font-size="11" lengthAdjust="spacing" textLength="104" x="715" y="833.0908">-emailAddress: String</text><text fill="#000000" font-family="sans-serif" font-size="11" lengthAdjust="spacing" textLength="105" x="715" y="846.9268">-phoneNumber: String</text><text fill="#000000" font-family="sans-serif" font-size="11" lengthAdjust="spacing" textLength="91" x="715" y="860.7627">-faxNumber: String</text><text fill="#000000" font-family="sans-serif" font-size="11" lengthAdjust="spacing" textLength="119" x="715" y="874.5986">-websiteAddress: String</text><text fill="#000000" font-family="sans-serif" font-size="11" lengthAdjust="spacing" textLength="105" x="715" y="888.4346">-openingHours: String</text><text fill="#000000" font-family="sans-serif" font-size="11" lengthAdjust="spacing" textLength="101" x="715" y="902.2705">-closingHours: String</text><text fill="#000000" font-family="sans-serif" font-size="11" lengthAdjust="spacing" textLength="78" x="715" y="916.1064">-slotDuration: int</text><text fill="#000000" font-family="sans-serif" font-size="11" lengthAdjust="spacing" textLength="145" x="715" y="929.9424">-maximumVaccinesPerSlot: int</text><text fill="#000000" font-family="sans-serif" font-size="11" lengthAdjust="spacing" textLength="119" x="715" y="943.7783">-coordinator: EMPLOYEE</text><line style="stroke:#A80036;stroke-width:1.0;" x1="710" x2="1552" y1="950.1953" y2="950.1953"/><text fill="#000000" font-family="sans-serif" font-size="11" lengthAdjust="spacing" textLength="832" x="715" y="965.6143">+VaccinationCenter(name,address,emailAddress,phoneNumber,faxNumber,websiteAddress,openingHours,closingHours,slotDuration,maximumVaccinesPerSlot,coordinator)</text><text fill="#000000" font-family="sans-serif" font-size="11" lengthAdjust="spacing" textLength="56" x="715" y="979.4502">+getName()</text><text fill="#000000" font-family="sans-serif" font-size="11" lengthAdjust="spacing" textLength="85" x="715" y="993.2861">+getCoordinator()</text><!--MD5=[a29876ea2f21a6ca48ea477740122fd8]
class VaccinationCenterStore--><rect codeLine="86" fill="#FEFECE" filter="url(#fnjulai9ug50a)" height="117.1797" id="VaccinationCenterStore" style="stroke:#A80036;stroke-width:1.5;" width="260" x="771" y="507.5"/><ellipse cx="832.25" cy="523.5" fill="#ADD1B2" rx="11" ry="11" style="stroke:#A80036;stroke-width:1.0;"/><path d="M835.0156,519.375 Q835.1719,519.1563 835.3594,519.0469 Q835.5469,518.9375 835.7656,518.9375 Q836.1406,518.9375 836.375,519.2031 Q836.6094,519.4531 836.6094,520.0625 L836.6094,521.5156 Q836.6094,522.125 836.375,522.3906 Q836.1406,522.6563 835.7656,522.6563 Q835.4219,522.6563 835.2188,522.4531 Q835.0156,522.2656 834.9063,521.75 Q834.8594,521.3906 834.6719,521.2031 Q834.3438,520.8281 833.7344,520.6094 Q833.125,520.3906 832.5,520.3906 Q831.7344,520.3906 831.0938,520.7188 Q830.4688,521.0469 829.9688,521.7969 Q829.4844,522.5469 829.4844,523.5781 L829.4844,524.6719 Q829.4844,525.9063 830.375,526.7344 Q831.2656,527.5469 832.8594,527.5469 Q833.7969,527.5469 834.4531,527.2969 Q834.8438,527.1406 835.2656,526.7031 Q835.5313,526.4375 835.6719,526.3594 Q835.8281,526.2813 836.0313,526.2813 Q836.3594,526.2813 836.6094,526.5469 Q836.875,526.7969 836.875,527.1406 Q836.875,527.4844 836.5313,527.8906 Q836.0313,528.4688 835.2344,528.7969 Q834.1563,529.25 832.8594,529.25 Q831.3438,529.25 830.1406,528.625 Q829.1563,528.125 828.4688,527.0625 Q827.7813,525.9844 827.7813,524.7031 L827.7813,523.5469 Q827.7813,522.2188 828.3906,521.0781 Q829.0156,519.9219 830.1094,519.3125 Q831.2031,518.6875 832.4375,518.6875 Q833.1719,518.6875 833.8125,518.8594 Q834.4688,519.0156 835.0156,519.375 Z " fill="#000000"/><text fill="#000000" font-family="sans-serif" font-size="12" lengthAdjust="spacing" textLength="129" x="852.75" y="528.4102">VaccinationCenterStore</text><line style="stroke:#A80036;stroke-width:1.5;" x1="772" x2="1030" y1="539.5" y2="539.5"/><line style="stroke:#A80036;stroke-width:1.5;" x1="772" x2="1030" y1="547.5" y2="547.5"/><text fill="#000000" font-family="sans-serif" font-size="11" lengthAdjust="spacing" textLength="248" x="777" y="562.9189">+createVaccinationCenter(centerData, coordinator)</text><text fill="#000000" font-family="sans-serif" font-size="11" lengthAdjust="spacing" textLength="169" x="777" y="576.7549">+validateVaccinatonCenter(center)</text><text fill="#000000" font-family="sans-serif" font-size="11" lengthAdjust="spacing" textLength="158" x="777" y="590.5908">+saveVaccinationCenter(center)</text><text fill="#000000" font-family="sans-serif" font-size="11" lengthAdjust="spacing" textLength="124" x="777" y="604.4268">+checkDuplicates(center)</text><text fill="#000000" font-family="sans-serif" font-size="11" lengthAdjust="spacing" textLength="152" x="777" y="618.2627">+addVaccinationCenter(center)</text><!--MD5=[1bd9080c7e199931e49bc5a1616681ac]
link Company to SNSUserStore--><path codeLine="95" d="M721.55,374.2 C695.11,421.99 653.79,496.7 631.5,536.99 " fill="none" id="Company-to-SNSUserStore" style="stroke:#A80036;stroke-width:1.0;stroke-dasharray:7.0,7.0;"/><polygon fill="#A80036" points="628.87,541.73,636.7292,535.7943,631.2922,537.3559,629.7306,531.9188,628.87,541.73" style="stroke:#A80036;stroke-width:1.0;"/><!--MD5=[bc0d5b4bfe6e1bf0a8fced13bc4bdd47]
link Company to VaccinationCenterStore--><path codeLine="96" d="M775.15,374.2 C799.1,410.51 833.3,462.35 860,502.84 " fill="none" id="Company-to-VaccinationCenterStore" style="stroke:#A80036;stroke-width:1.0;stroke-dasharray:7.0,7.0;"/><polygon fill="#A80036" points="862.89,507.22,861.2796,497.5037,860.1396,503.0445,854.5988,501.9044,862.89,507.22" style="stroke:#A80036;stroke-width:1.0;"/><!--MD5=[09366576ee87d48d594df10cacc83f45]
link Company to Employee--><path codeLine="97" d="M667.77,363.79 C598.45,393.74 494.2,438.77 401.9,478.65 " fill="none" id="Company-to-Employee" style="stroke:#A80036;stroke-width:1.0;"/><polygon fill="#A80036" points="397.24,480.66,407.0884,480.7543,401.8283,478.6732,403.9095,473.4131,397.24,480.66" style="stroke:#A80036;stroke-width:1.0;"/><text fill="#000000" font-family="sans-serif" font-size="13" lengthAdjust="spacing" textLength="37" x="572" y="418.4951">knows</text><text fill="#000000" font-family="sans-serif" font-size="13" lengthAdjust="spacing" textLength="7" x="652.9801" y="363.8787">1</text><text fill="#000000" font-family="sans-serif" font-size="13" lengthAdjust="spacing" textLength="5" x="404.9642" y="474.5185">*</text><!--MD5=[cfe94a0129f1dfa1a5ee6d4335a062cf]
link CSVReader to ICSVReader--><path codeLine="99" d="M1020.51,348.54 C1149.2,392.3 1470.81,501.68 1600.99,545.95 " fill="none" id="CSVReader-to-ICSVReader" style="stroke:#A80036;stroke-width:1.0;"/><polygon fill="#A80036" points="1605.91,547.63,1598.6669,540.9564,1601.1738,546.0274,1596.1027,548.5343,1605.91,547.63" style="stroke:#A80036;stroke-width:1.0;"/><text fill="#000000" font-family="sans-serif" font-size="13" lengthAdjust="spacing" textLength="28" x="1230" y="418.4951">uses</text><!--MD5=[3c55f0d83c019092b30ee17420010565]
reverse link Employee to Coordinator--><path codeLine="101" d="M174.66,699.85 C162.58,758.55 149.6,821.65 142.79,854.72 " fill="none" id="Employee-backto-Coordinator" style="stroke:#A80036;stroke-width:1.0;"/><polygon fill="none" points="167.83,698.34,178.71,680.16,181.54,701.16,167.83,698.34" style="stroke:#A80036;stroke-width:1.0;"/><!--MD5=[312ac8119da0d46e8384e4bc8e968ed3]
reverse link ICSVReader to MissingHeaderCSVReader--><path codeLine="103" d="M1678.57,601.4 C1717,662.7 1796.7,789.81 1833.11,847.88 " fill="none" id="ICSVReader-backto-MissingHeaderCSVReader" style="stroke:#A80036;stroke-width:1.0;stroke-dasharray:7.0,7.0;"/><polygon fill="#A80036" points="1675.87,597.1,1677.2716,606.8486,1678.5303,601.3336,1684.0453,602.5922,1675.87,597.1" style="stroke:#A80036;stroke-width:1.0;"/><!--MD5=[170c06a30d4cb6d862c2438f36fd347d]
reverse link ICSVReader to HeaderCSVReader--><path codeLine="104" d="M1657,602.14 C1657,663.71 1657,790.04 1657,847.88 " fill="none" id="ICSVReader-backto-HeaderCSVReader" style="stroke:#A80036;stroke-width:1.0;stroke-dasharray:7.0,7.0;"/><polygon fill="#A80036" points="1657,597.1,1653,606.1,1657,602.1,1661,606.1,1657,597.1" style="stroke:#A80036;stroke-width:1.0;"/><!--MD5=[22e2f9b5d058c116ed8939617bc82d4c]
link ImportLegacyDataController to Company--><path codeLine="106" d="M807.71,206.05 C796.32,228.56 782.42,256.02 770.71,279.17 " fill="none" id="ImportLegacyDataController-to-Company" style="stroke:#A80036;stroke-width:1.0;stroke-dasharray:7.0,7.0;"/><polygon fill="#A80036" points="768.39,283.75,776.0246,277.528,770.6489,279.2894,768.8875,273.9137,768.39,283.75" style="stroke:#A80036;stroke-width:1.0;"/><!--MD5=[10e6b969458c9add0699b8c7442c9cd6]
link ImportLegacyDataController to CSVReader--><path codeLine="108" d="M866.09,206.05 C886.63,231.12 912.2,262.33 932.32,286.9 " fill="none" id="ImportLegacyDataController-to-CSVReader" style="stroke:#A80036;stroke-width:1.0;"/><polygon fill="#A80036" points="935.51,290.78,932.901,281.283,932.3415,286.9121,926.7124,286.3526,935.51,290.78" style="stroke:#A80036;stroke-width:1.0;"/><text fill="#000000" font-family="sans-serif" font-size="13" lengthAdjust="spacing" textLength="28" x="904" y="250.4951">uses</text><!--MD5=[0fb58b79bb32c5134b74ac72cc53213c]
link ImportLegacyDataUI to ImportLegacyDataController--><path codeLine="110" d="M830,55.18 C830,70.59 830,91.42 830,110.45 " fill="none" id="ImportLegacyDataUI-to-ImportLegacyDataController" style="stroke:#A80036;stroke-width:1.0;stroke-dasharray:7.0,7.0;"/><polygon fill="#A80036" points="830,115.76,834,106.76,830,110.76,826,106.76,830,115.76" style="stroke:#A80036;stroke-width:1.0;"/><!--MD5=[b01d27099955aced792f1ce85db49798]
link SNSUserStore to SNSUser--><path codeLine="112" d="M603.51,590.12 C579.66,634.27 526.68,732.34 489.21,801.72 " fill="none" id="SNSUserStore-to-SNSUser" style="stroke:#A80036;stroke-width:1.0;"/><polygon fill="#A80036" points="486.76,806.24,494.5662,800.2348,489.1433,801.8445,487.5335,796.4216,486.76,806.24" style="stroke:#A80036;stroke-width:1.0;"/><text fill="#000000" font-family="sans-serif" font-size="13" lengthAdjust="spacing" textLength="36" x="539" y="724.4951">stores</text><text fill="#000000" font-family="sans-serif" font-size="13" lengthAdjust="spacing" textLength="7" x="592.6124" y="611.4872">1</text><text fill="#000000" font-family="sans-serif" font-size="13" lengthAdjust="spacing" textLength="5" x="485.4993" y="795.4325">*</text><!--MD5=[8c304936b446fd8cea914e03fbadd4b7]
link VaccinationCenterStore to VaccinationCenter--><path codeLine="114" d="M943.72,624.77 C970.52,661 1006.12,709.14 1039.09,753.72 " fill="none" id="VaccinationCenterStore-to-VaccinationCenter" style="stroke:#A80036;stroke-width:1.0;"/><polygon fill="#A80036" points="1042.06,757.74,1039.9368,748.1227,1039.0921,753.7162,1033.4986,752.8714,1042.06,757.74" style="stroke:#A80036;stroke-width:1.0;"/><text fill="#000000" font-family="sans-serif" font-size="13" lengthAdjust="spacing" textLength="36" x="1017" y="724.4951">stores</text><text fill="#000000" font-family="sans-serif" font-size="13" lengthAdjust="spacing" textLength="7" x="941.2548" y="645.9953">1</text><text fill="#000000" font-family="sans-serif" font-size="13" lengthAdjust="spacing" textLength="5" x="1031.2021" y="746.9752">*</text><!--MD5=[67378c9b8571a5620409a6aceb4210e5]
@startuml US17_CD
skinparam classAttributeIconSize 0

class Company {
  - String designation
  - - -
  + Company(designation)
  + getVaccinationCenterStore()
}

class Coordinator {}

class CSVReader {
  - String filePathName

  + readLegacyData()
}

interface ICSVReader{
  read(filedata)
}

class HeaderCSVReader { 
  + read(filedata)
}

class MissingHeaderCSVReader{
  + read(filedata)
}

class Employee {
  - id: String
  - address: String
  - phoneNumber: String
  - citizenCardNumber: String
  - - -
  + Employee(id, name, address, phoneNumber, email, citizenCardNumber, roleId)
  + getId()
  + getName()
  + getAddress()
  + getPhoneNumber()
  + getEmail()
  + getCitizenCardNumber()
  + getPassword()
  + getRoleId()
}

class ImportLegacyDataUI {}

class ImportLegacyDataController {
  - - -
  + create()
  + save()
  + stringifyData()
}

class SNSUser {
  - String citizenCard
  - String snsNumber
  - Date birthDay
  - Char gender
  - String phoneNumber
  - String address
  + SNSUser(citizenCard, snsNumber, name, birthDay, gender, phoneNumber, email, address)
}

class SNSUserStore {}

class VaccinationCenter {
  - name: String
  - address: String
  - emailAddress: String
  - phoneNumber: String
  - faxNumber: String
  - websiteAddress: String
  - openingHours: String
  - closingHours: String
  - slotDuration: int
  - maximumVaccinesPerSlot: int
  - coordinator: EMPLOYEE
  - - -
  + VaccinationCenter(name,address,emailAddress,phoneNumber,faxNumber,websiteAddress,openingHours,closingHours,slotDuration,maximumVaccinesPerSlot,coordinator)
  + getName()
  + getCoordinator()
}

class VaccinationCenterStore {
  + createVaccinationCenter(centerData, coordinator)
  + validateVaccinatonCenter(center)
  + saveVaccinationCenter(center)
  + checkDuplicates(center)
  + addVaccinationCenter(center)
}


Company ..> SNSUserStore
Company ..> VaccinationCenterStore
Company "1" - -> "*" Employee : knows

CSVReader - -> ICSVReader : uses

Employee <|- - Coordinator

ICSVReader <.. MissingHeaderCSVReader
ICSVReader <.. HeaderCSVReader

ImportLegacyDataController ..> Company

ImportLegacyDataController - -> CSVReader : uses

ImportLegacyDataUI ..> ImportLegacyDataController

SNSUserStore "1" - -> "*" SNSUser : stores

VaccinationCenterStore "1" - -> "*" VaccinationCenter : stores

@enduml

PlantUML version 1.2022.0(Tue Jan 11 16:16:42 WET 2022)
(GPL source distribution)
Java Runtime: Java(TM) SE Runtime Environment
JVM: Java HotSpot(TM) 64-Bit Server VM
Default Encoding: Cp1252
Language: pt
Country: PT
--></g></svg>