<?xml version="1.0" encoding="UTF-8" standalone="no"?><svg xmlns="http://www.w3.org/2000/svg" xmlns:xlink="http://www.w3.org/1999/xlink" contentScriptType="application/ecmascript" contentStyleType="text/css" height="250px" preserveAspectRatio="none" style="width:1457px;height:250px;background:#FFFFFF;" version="1.1" viewBox="0 0 1457 250" width="1457px" zoomAndPan="magnify"><defs><filter height="300%" id="f18soeeq05663s" width="300%" x="-1" y="-1"><feGaussianBlur result="blurOut" stdDeviation="2.0"/><feColorMatrix in="blurOut" result="blurOut2" type="matrix" values="0 0 0 0 0 0 0 0 0 0 0 0 0 0 0 0 0 0 .4 0"/><feOffset dx="4.0" dy="4.0" in="blurOut2" result="blurOut3"/><feBlend in="SourceGraphic" in2="blurOut3" mode="normal"/></filter></defs><g><!--MD5=[7421f545a0d8420c5bec41e74b387d9c]
class Employee--><rect codeLine="5" fill="#FEFECE" filter="url(#f18soeeq05663s)" height="40" id="Employee" style="stroke:#A80036;stroke-width:1.5;" width="92" x="210" y="113.5659"/><ellipse cx="225" cy="129.5659" fill="#ADD1B2" rx="11" ry="11" style="stroke:#A80036;stroke-width:1.0;"/><path d="M227.9688,135.2065 Q227.3906,135.5034 226.75,135.644 Q226.1094,135.8003 225.4063,135.8003 Q222.9063,135.8003 221.5781,134.1597 Q220.2656,132.5034 220.2656,129.3784 Q220.2656,126.2534 221.5781,124.5972 Q222.9063,122.9409 225.4063,122.9409 Q226.1094,122.9409 226.75,123.0972 Q227.4063,123.2534 227.9688,123.5503 L227.9688,126.269 Q227.3438,125.6909 226.75,125.4253 Q226.1563,125.144 225.5313,125.144 Q224.1875,125.144 223.5,126.2222 Q222.8125,127.2847 222.8125,129.3784 Q222.8125,131.4722 223.5,132.5503 Q224.1875,133.6128 225.5313,133.6128 Q226.1563,133.6128 226.75,133.3472 Q227.3438,133.0659 227.9688,132.4878 L227.9688,135.2065 Z " fill="#000000"/><text fill="#000000" font-family="sans-serif" font-size="12" lengthAdjust="spacing" textLength="60" x="239" y="133.7202">Employee</text><line style="stroke:#A80036;stroke-width:1.5;" x1="211" x2="301" y1="145.5659" y2="145.5659"/><!--MD5=[a059576e163b46f56762f12600c49258]
class Nurse--><rect codeLine="7" fill="#FEFECE" filter="url(#f18soeeq05663s)" height="40" id="Nurse" style="stroke:#A80036;stroke-width:1.5;" width="69" x="383.5" y="151.5659"/><ellipse cx="398.5" cy="167.5659" fill="#ADD1B2" rx="11" ry="11" style="stroke:#A80036;stroke-width:1.0;"/><path d="M401.4688,173.2065 Q400.8906,173.5034 400.25,173.644 Q399.6094,173.8003 398.9063,173.8003 Q396.4063,173.8003 395.0781,172.1597 Q393.7656,170.5034 393.7656,167.3784 Q393.7656,164.2534 395.0781,162.5972 Q396.4063,160.9409 398.9063,160.9409 Q399.6094,160.9409 400.25,161.0972 Q400.9063,161.2534 401.4688,161.5503 L401.4688,164.269 Q400.8438,163.6909 400.25,163.4253 Q399.6563,163.144 399.0313,163.144 Q397.6875,163.144 397,164.2222 Q396.3125,165.2847 396.3125,167.3784 Q396.3125,169.4722 397,170.5503 Q397.6875,171.6128 399.0313,171.6128 Q399.6563,171.6128 400.25,171.3472 Q400.8438,171.0659 401.4688,170.4878 L401.4688,173.2065 Z " fill="#000000"/><text fill="#000000" font-family="sans-serif" font-size="12" lengthAdjust="spacing" textLength="37" x="412.5" y="171.7202">Nurse</text><line style="stroke:#A80036;stroke-width:1.5;" x1="384.5" x2="451.5" y1="183.5659" y2="183.5659"/><!--MD5=[03960189e81aa2c066c762ffabbee709]
class Receptionist--><rect codeLine="9" fill="#FEFECE" filter="url(#f18soeeq05663s)" height="40" id="Receptionist" style="stroke:#A80036;stroke-width:1.5;" width="110" x="363" y="76.5659"/><ellipse cx="378" cy="92.5659" fill="#ADD1B2" rx="11" ry="11" style="stroke:#A80036;stroke-width:1.0;"/><path d="M380.9688,98.2065 Q380.3906,98.5034 379.75,98.644 Q379.1094,98.8003 378.4063,98.8003 Q375.9063,98.8003 374.5781,97.1597 Q373.2656,95.5034 373.2656,92.3784 Q373.2656,89.2534 374.5781,87.5972 Q375.9063,85.9409 378.4063,85.9409 Q379.1094,85.9409 379.75,86.0972 Q380.4063,86.2534 380.9688,86.5503 L380.9688,89.269 Q380.3438,88.6909 379.75,88.4253 Q379.1563,88.144 378.5313,88.144 Q377.1875,88.144 376.5,89.2222 Q375.8125,90.2847 375.8125,92.3784 Q375.8125,94.4722 376.5,95.5503 Q377.1875,96.6128 378.5313,96.6128 Q379.1563,96.6128 379.75,96.3472 Q380.3438,96.0659 380.9688,95.4878 L380.9688,98.2065 Z " fill="#000000"/><text fill="#000000" font-family="sans-serif" font-size="12" lengthAdjust="spacing" textLength="78" x="392" y="96.7202">Receptionist</text><line style="stroke:#A80036;stroke-width:1.5;" x1="364" x2="472" y1="108.5659" y2="108.5659"/><!--MD5=[de60e6d4f424ae4d0522096f76a59010]
class VaccinationCenter--><rect codeLine="11" fill="#FEFECE" filter="url(#f18soeeq05663s)" height="40" id="VaccinationCenter" style="stroke:#A80036;stroke-width:1.5;" width="147" x="1296" y="88.5659"/><ellipse cx="1311" cy="104.5659" fill="#ADD1B2" rx="11" ry="11" style="stroke:#A80036;stroke-width:1.0;"/><path d="M1313.9688,110.2065 Q1313.3906,110.5034 1312.75,110.644 Q1312.1094,110.8003 1311.4063,110.8003 Q1308.9063,110.8003 1307.5781,109.1597 Q1306.2656,107.5034 1306.2656,104.3784 Q1306.2656,101.2534 1307.5781,99.5972 Q1308.9063,97.9409 1311.4063,97.9409 Q1312.1094,97.9409 1312.75,98.0972 Q1313.4063,98.2534 1313.9688,98.5503 L1313.9688,101.269 Q1313.3438,100.6909 1312.75,100.4253 Q1312.1563,100.144 1311.5313,100.144 Q1310.1875,100.144 1309.5,101.2222 Q1308.8125,102.2847 1308.8125,104.3784 Q1308.8125,106.4722 1309.5,107.5503 Q1310.1875,108.6128 1311.5313,108.6128 Q1312.1563,108.6128 1312.75,108.3472 Q1313.3438,108.0659 1313.9688,107.4878 L1313.9688,110.2065 Z " fill="#000000"/><text fill="#000000" font-family="sans-serif" font-size="12" lengthAdjust="spacing" textLength="115" x="1325" y="108.7202">VaccinationCenter</text><line style="stroke:#A80036;stroke-width:1.5;" x1="1297" x2="1442" y1="120.5659" y2="120.5659"/><!--MD5=[aaa7e27c4ec43917c82a021675d2c87a]
class WaitingRoom--><rect codeLine="13" fill="#FEFECE" filter="url(#f18soeeq05663s)" height="40" id="WaitingRoom" style="stroke:#A80036;stroke-width:1.5;" width="113" x="623" y="101.5659"/><ellipse cx="638" cy="117.5659" fill="#ADD1B2" rx="11" ry="11" style="stroke:#A80036;stroke-width:1.0;"/><path d="M640.9688,123.2065 Q640.3906,123.5034 639.75,123.644 Q639.1094,123.8003 638.4063,123.8003 Q635.9063,123.8003 634.5781,122.1597 Q633.2656,120.5034 633.2656,117.3784 Q633.2656,114.2534 634.5781,112.5972 Q635.9063,110.9409 638.4063,110.9409 Q639.1094,110.9409 639.75,111.0972 Q640.4063,111.2534 640.9688,111.5503 L640.9688,114.269 Q640.3438,113.6909 639.75,113.4253 Q639.1563,113.144 638.5313,113.144 Q637.1875,113.144 636.5,114.2222 Q635.8125,115.2847 635.8125,117.3784 Q635.8125,119.4722 636.5,120.5503 Q637.1875,121.6128 638.5313,121.6128 Q639.1563,121.6128 639.75,121.3472 Q640.3438,121.0659 640.9688,120.4878 L640.9688,123.2065 Z " fill="#000000"/><text fill="#000000" font-family="sans-serif" font-size="12" lengthAdjust="spacing" textLength="81" x="652" y="121.7202">WaitingRoom</text><line style="stroke:#A80036;stroke-width:1.5;" x1="624" x2="735" y1="133.5659" y2="133.5659"/><!--MD5=[72be06cc7ae02ccc98efe28a50e62246]
class SNSUser--><rect codeLine="15" fill="#FEFECE" filter="url(#f18soeeq05663s)" height="40" id="SNSUser" style="stroke:#A80036;stroke-width:1.5;" width="86" x="843" y="161.5659"/><ellipse cx="858" cy="177.5659" fill="#ADD1B2" rx="11" ry="11" style="stroke:#A80036;stroke-width:1.0;"/><path d="M860.9688,183.2065 Q860.3906,183.5034 859.75,183.644 Q859.1094,183.8003 858.4063,183.8003 Q855.9063,183.8003 854.5781,182.1597 Q853.2656,180.5034 853.2656,177.3784 Q853.2656,174.2534 854.5781,172.5972 Q855.9063,170.9409 858.4063,170.9409 Q859.1094,170.9409 859.75,171.0972 Q860.4063,171.2534 860.9688,171.5503 L860.9688,174.269 Q860.3438,173.6909 859.75,173.4253 Q859.1563,173.144 858.5313,173.144 Q857.1875,173.144 856.5,174.2222 Q855.8125,175.2847 855.8125,177.3784 Q855.8125,179.4722 856.5,180.5503 Q857.1875,181.6128 858.5313,181.6128 Q859.1563,181.6128 859.75,181.3472 Q860.3438,181.0659 860.9688,180.4878 L860.9688,183.2065 Z " fill="#000000"/><text fill="#000000" font-family="sans-serif" font-size="12" lengthAdjust="spacing" textLength="54" x="872" y="181.7202">SNSUser</text><line style="stroke:#A80036;stroke-width:1.5;" x1="844" x2="928" y1="193.5659" y2="193.5659"/><!--MD5=[02e4b9b7573f1156f41e60aa5b4e25a4]
class Company--><rect codeLine="17" fill="#FEFECE" filter="url(#f18soeeq05663s)" height="40" id="Company" style="stroke:#A80036;stroke-width:1.5;" width="89" x="7" y="113.5659"/><ellipse cx="22" cy="129.5659" fill="#ADD1B2" rx="11" ry="11" style="stroke:#A80036;stroke-width:1.0;"/><path d="M24.9688,135.2065 Q24.3906,135.5034 23.75,135.644 Q23.1094,135.8003 22.4063,135.8003 Q19.9063,135.8003 18.5781,134.1597 Q17.2656,132.5034 17.2656,129.3784 Q17.2656,126.2534 18.5781,124.5972 Q19.9063,122.9409 22.4063,122.9409 Q23.1094,122.9409 23.75,123.0972 Q24.4063,123.2534 24.9688,123.5503 L24.9688,126.269 Q24.3438,125.6909 23.75,125.4253 Q23.1563,125.144 22.5313,125.144 Q21.1875,125.144 20.5,126.2222 Q19.8125,127.2847 19.8125,129.3784 Q19.8125,131.4722 20.5,132.5503 Q21.1875,133.6128 22.5313,133.6128 Q23.1563,133.6128 23.75,133.3472 Q24.3438,133.0659 24.9688,132.4878 L24.9688,135.2065 Z " fill="#000000"/><text fill="#000000" font-family="sans-serif" font-size="12" lengthAdjust="spacing" textLength="57" x="36" y="133.7202">Company</text><line style="stroke:#A80036;stroke-width:1.5;" x1="8" x2="95" y1="145.5659" y2="145.5659"/><!--MD5=[c508b5b6bbe276ff5e2700b6641f837f]
class Appointment--><rect codeLine="19" fill="#FEFECE" filter="url(#f18soeeq05663s)" height="40" id="Appointment" style="stroke:#A80036;stroke-width:1.5;" width="112" x="1068" y="161.5659"/><ellipse cx="1083" cy="177.5659" fill="#ADD1B2" rx="11" ry="11" style="stroke:#A80036;stroke-width:1.0;"/><path d="M1085.9688,183.2065 Q1085.3906,183.5034 1084.75,183.644 Q1084.1094,183.8003 1083.4063,183.8003 Q1080.9063,183.8003 1079.5781,182.1597 Q1078.2656,180.5034 1078.2656,177.3784 Q1078.2656,174.2534 1079.5781,172.5972 Q1080.9063,170.9409 1083.4063,170.9409 Q1084.1094,170.9409 1084.75,171.0972 Q1085.4063,171.2534 1085.9688,171.5503 L1085.9688,174.269 Q1085.3438,173.6909 1084.75,173.4253 Q1084.1563,173.144 1083.5313,173.144 Q1082.1875,173.144 1081.5,174.2222 Q1080.8125,175.2847 1080.8125,177.3784 Q1080.8125,179.4722 1081.5,180.5503 Q1082.1875,181.6128 1083.5313,181.6128 Q1084.1563,181.6128 1084.75,181.3472 Q1085.3438,181.0659 1085.9688,180.4878 L1085.9688,183.2065 Z " fill="#000000"/><text fill="#000000" font-family="sans-serif" font-size="12" lengthAdjust="spacing" textLength="80" x="1097" y="181.7202">Appointment</text><line style="stroke:#A80036;stroke-width:1.5;" x1="1069" x2="1179" y1="193.5659" y2="193.5659"/><!--MD5=[6716344a46572fc99c27bf4e50ddbd3d]
reverse link Employee to Nurse--><path codeLine="21" d="M321.99,149.0059 C343.08,154.0059 365.6,159.3559 383.43,163.5959 " fill="none" id="Employee-backto-Nurse" style="stroke:#A80036;stroke-width:1.0;"/><polygon fill="none" points="320.26,155.7859,302.42,144.3559,323.5,142.1659,320.26,155.7859" style="stroke:#A80036;stroke-width:1.0;"/><!--MD5=[bfff716514ca687b645fe473c6e098a4]
reverse link Employee to Receptionist--><path codeLine="22" d="M322.28,118.4659 C335.8,115.3459 349.89,112.0859 362.96,109.0659 " fill="none" id="Employee-backto-Receptionist" style="stroke:#A80036;stroke-width:1.0;"/><polygon fill="none" points="323.48,125.3759,302.42,123.0659,320.33,111.7359,323.48,125.3759" style="stroke:#A80036;stroke-width:1.0;"/><!--MD5=[de78e1efbcb885042a1719c3cec87a53]
link VaccinationCenter to WaitingRoom--><path codeLine="24" d="M1295.98,109.9359 C1157.91,112.5459 860.02,118.1759 736.22,120.5159 " fill="none" id="VaccinationCenter-WaitingRoom" style="stroke:#A80036;stroke-width:1.0;"/><polygon fill="#000000" points="979.5009,107.2268,988.5999,109.9943,988.4888,104.1175,979.5009,107.2268" style="stroke:#000000;stroke-width:1.0;"/><text fill="#000000" font-family="sans-serif" font-size="13" lengthAdjust="spacing" textLength="23" x="993.5" y="111.6328">has</text><text fill="#000000" font-family="sans-serif" font-size="13" lengthAdjust="spacing" textLength="8" x="1279.9858" y="122.9244">1</text><text fill="#000000" font-family="sans-serif" font-size="13" lengthAdjust="spacing" textLength="8" x="743.9998" y="133.4177">1</text><!--MD5=[1dfd2b8cef5257ed6efd914f274c3279]
link WaitingRoom to SNSUser--><path codeLine="25" d="M735.45,141.6659 C745.56,145.1359 756.06,148.5759 766,151.5659 C791.3,159.1759 820.01,166.4559 842.89,171.9359 " fill="none" id="WaitingRoom-SNSUser" style="stroke:#A80036;stroke-width:1.0;"/><polygon fill="#000000" points="766.1874,141.7764,774.0965,147.0581,775.6905,141.4005,766.1874,141.7764" style="stroke:#000000;stroke-width:1.0;"/><text fill="#000000" font-family="sans-serif" font-size="13" lengthAdjust="spacing" textLength="32" x="780" y="147.6328">waits</text><text fill="#000000" font-family="sans-serif" font-size="13" lengthAdjust="spacing" textLength="8" x="742.0609" y="161.514">1</text><text fill="#000000" font-family="sans-serif" font-size="13" lengthAdjust="spacing" textLength="7" x="827.8789" y="183.6481">*</text><!--MD5=[aa988044c6ccb0a3eab3a4065e30c3e5]
link Nurse to WaitingRoom--><path codeLine="27" d="M452.7,165.2659 C487.76,158.6859 544.25,148.0359 593,138.5659 C602.66,136.6859 612.92,134.6759 622.86,132.7059 " fill="none" id="Nurse-WaitingRoom" style="stroke:#A80036;stroke-width:1.0;"/><polygon fill="#000000" points="512.9109,129.1926,503.4747,128.006,504.5793,133.7791,512.9109,129.1926" style="stroke:#000000;stroke-width:1.0;"/><text fill="#000000" font-family="sans-serif" font-size="13" lengthAdjust="spacing" textLength="75" x="517" y="134.6328">consults list</text><text fill="#000000" font-family="sans-serif" font-size="13" lengthAdjust="spacing" textLength="8" x="460.6819" y="177.594">1</text><text fill="#000000" font-family="sans-serif" font-size="13" lengthAdjust="spacing" textLength="7" x="608.1546" y="147.1696">*</text><!--MD5=[120e6d7c8a557e6251338e72fb523695]
link Receptionist to WaitingRoom--><path codeLine="28" d="M473.08,101.7759 C516.9,105.9959 578.42,111.9259 622.69,116.1859 " fill="none" id="Receptionist-WaitingRoom" style="stroke:#A80036;stroke-width:1.0;"/><polygon fill="#000000" points="522.977,97.6117,514.2553,93.8191,513.6918,99.6699,522.977,97.6117" style="stroke:#000000;stroke-width:1.0;"/><text fill="#000000" font-family="sans-serif" font-size="13" lengthAdjust="spacing" textLength="55" x="527" y="101.6328">sends to</text><text fill="#000000" font-family="sans-serif" font-size="13" lengthAdjust="spacing" textLength="8" x="481.0189" y="115.5596">1</text><text fill="#000000" font-family="sans-serif" font-size="13" lengthAdjust="spacing" textLength="7" x="607.9628" y="128.5329">*</text><!--MD5=[eebe9b198877275d05dd12630ed9e401]
link Company to VaccinationCenter--><path codeLine="30" d="M72.95,113.3859 C107.41,81.6359 180.58,23.5659 255,23.5659 C255,23.5659 255,23.5659 1125,23.5659 C1203.36,23.5659 1288.37,63.2859 1334.33,88.4259 " fill="none" id="Company-VaccinationCenter" style="stroke:#A80036;stroke-width:1.0;"/><polygon fill="#000000" points="662.499,15.0334,653.3976,12.274,653.5139,18.1507,662.499,15.0334" style="stroke:#000000;stroke-width:1.0;"/><text fill="#000000" font-family="sans-serif" font-size="13" lengthAdjust="spacing" textLength="39" x="666.5" y="19.6328">knows</text><text fill="#000000" font-family="sans-serif" font-size="13" lengthAdjust="spacing" textLength="8" x="70.0759" y="102.3413">1</text><text fill="#000000" font-family="sans-serif" font-size="13" lengthAdjust="spacing" textLength="7" x="1315.9707" y="77.3931">*</text><!--MD5=[1a8aa2b864b87f860d28abceaa28b7a5]
link Company to SNSUser--><path codeLine="31" d="M72.95,153.7459 C107.41,185.4959 180.58,243.5659 255,243.5659 C255,243.5659 255,243.5659 680.5,243.5659 C739.3,243.5659 803.68,219.7959 844.19,201.6959 " fill="none" id="Company-SNSUser" style="stroke:#A80036;stroke-width:1.0;"/><polygon fill="#000000" points="400.9904,235.4426,392.1451,231.9481,391.7803,237.8146,400.9904,235.4426" style="stroke:#000000;stroke-width:1.0;"/><text fill="#000000" font-family="sans-serif" font-size="13" lengthAdjust="spacing" textLength="39" x="405" y="239.6328">knows</text><text fill="#000000" font-family="sans-serif" font-size="13" lengthAdjust="spacing" textLength="8" x="69.8578" y="173.6165">1</text><text fill="#000000" font-family="sans-serif" font-size="13" lengthAdjust="spacing" textLength="7" x="827.8448" y="219.4752">*</text><!--MD5=[09366576ee87d48d594df10cacc83f45]
link Company to Employee--><path codeLine="32" d="M96.44,133.5659 C129.94,133.5659 175.92,133.5659 209.74,133.5659 " fill="none" id="Company-Employee" style="stroke:#A80036;stroke-width:1.0;"/><polygon fill="#000000" points="136,125.1323,126.9549,122.1934,126.9549,128.0713,136,125.1323" style="stroke:#000000;stroke-width:1.0;"/><text fill="#000000" font-family="sans-serif" font-size="13" lengthAdjust="spacing" textLength="39" x="140" y="129.6328">knows</text><text fill="#000000" font-family="sans-serif" font-size="13" lengthAdjust="spacing" textLength="8" x="103.9339" y="146.7914">1</text><text fill="#000000" font-family="sans-serif" font-size="13" lengthAdjust="spacing" textLength="7" x="195.1205" y="146.7914">*</text><!--MD5=[3f8bc51bb69ce45c3e3ea0b764df71f1]
link SNSUser to Appointment--><path codeLine="34" d="M929.19,181.5659 C967.91,181.5659 1025.5,181.5659 1067.85,181.5659 " fill="none" id="SNSUser-Appointment" style="stroke:#A80036;stroke-width:1.0;"/><polygon fill="#000000" points="969,173.1323,959.9549,170.1934,959.9549,176.0713,969,173.1323" style="stroke:#000000;stroke-width:1.0;"/><text fill="#000000" font-family="sans-serif" font-size="13" lengthAdjust="spacing" textLength="64" x="973" y="177.6328">schedules</text><text fill="#000000" font-family="sans-serif" font-size="13" lengthAdjust="spacing" textLength="8" x="937.0058" y="194.886">1</text><text fill="#000000" font-family="sans-serif" font-size="13" lengthAdjust="spacing" textLength="7" x="1052.8345" y="194.6495">*</text><!--MD5=[d139302f00cc62b984b6371d0fde1842]
link Appointment to VaccinationCenter--><path codeLine="35" d="M1180.19,172.3059 C1206.47,167.2759 1238.18,160.2759 1266,151.5659 C1286.07,145.2859 1307.64,136.5559 1325.78,128.6059 " fill="none" id="Appointment-VaccinationCenter" style="stroke:#A80036;stroke-width:1.0;"/><polygon fill="#000000" points="1219.7889,141.6949,1210.2808,141.4804,1211.9706,147.1101,1219.7889,141.6949" style="stroke:#000000;stroke-width:1.0;"/><text fill="#000000" font-family="sans-serif" font-size="13" lengthAdjust="spacing" textLength="41" x="1224" y="147.6328">is held</text><text fill="#000000" font-family="sans-serif" font-size="13" lengthAdjust="spacing" textLength="7" x="1187.8378" y="184.1558">*</text><text fill="#000000" font-family="sans-serif" font-size="13" lengthAdjust="spacing" textLength="8" x="1303.7623" y="148.7822">1</text><!--MD5=[4150e905505631c4c206bd5a7b241c65]
@startuml
hide methods
left to right direction
skinparam classAttributeIconSize 0

class Employee {}

class Nurse {}

class Receptionist {}

class VaccinationCenter {}

class WaitingRoom {}

class SNSUser {}

class Company {}

class Appointment {}

Employee <|- - Nurse
Employee <|- - Receptionist

VaccinationCenter "1" - - "1" WaitingRoom : has >
WaitingRoom "1" - - "*" SNSUser : waits <

Nurse "1" - - "*" WaitingRoom : consults list >
Receptionist "1" - - "*" WaitingRoom : sends to >

Company "1" - - "*" VaccinationCenter : knows > 
Company "1" - - "*" SNSUser : knows > 
Company "1" - - "*" Employee : knows > 

SNSUser "1" - - "*" Appointment : schedules >
Appointment "*" - - "1" VaccinationCenter : is held >

@enduml

PlantUML version 1.2022.0(Tue Jan 11 16:16:42 WET 2022)
(GPL source distribution)
Java Runtime: OpenJDK Runtime Environment
JVM: OpenJDK 64-Bit Server VM
Default Encoding: UTF-8
Language: en
Country: US
--></g></svg>