<?xml version="1.0" encoding="UTF-8" standalone="no"?><svg xmlns="http://www.w3.org/2000/svg" xmlns:xlink="http://www.w3.org/1999/xlink" contentScriptType="application/ecmascript" contentStyleType="text/css" height="211px" preserveAspectRatio="none" style="width:777px;height:211px;background:#FFFFFF;" version="1.1" viewBox="0 0 777 211" width="777px" zoomAndPan="magnify"><defs><filter height="300%" id="f8p4kc5iy0oqm" width="300%" x="-1" y="-1"><feGaussianBlur result="blurOut" stdDeviation="2.0"/><feColorMatrix in="blurOut" result="blurOut2" type="matrix" values="0 0 0 0 0 0 0 0 0 0 0 0 0 0 0 0 0 0 .4 0"/><feOffset dx="4.0" dy="4.0" in="blurOut2" result="blurOut3"/><feBlend in="SourceGraphic" in2="blurOut3" mode="normal"/></filter></defs><g><!--MD5=[7421f545a0d8420c5bec41e74b387d9c]
class Employee--><rect codeLine="5" fill="#FEFECE" filter="url(#f8p4kc5iy0oqm)" height="40" id="Employee" style="stroke:#A80036;stroke-width:1.5;" width="92" x="7" y="45"/><ellipse cx="22" cy="61" fill="#ADD1B2" rx="11" ry="11" style="stroke:#A80036;stroke-width:1.0;"/><path d="M24.9688,66.6406 Q24.3906,66.9375 23.75,67.0781 Q23.1094,67.2344 22.4063,67.2344 Q19.9063,67.2344 18.5781,65.5938 Q17.2656,63.9375 17.2656,60.8125 Q17.2656,57.6875 18.5781,56.0313 Q19.9063,54.375 22.4063,54.375 Q23.1094,54.375 23.75,54.5313 Q24.4063,54.6875 24.9688,54.9844 L24.9688,57.7031 Q24.3438,57.125 23.75,56.8594 Q23.1563,56.5781 22.5313,56.5781 Q21.1875,56.5781 20.5,57.6563 Q19.8125,58.7188 19.8125,60.8125 Q19.8125,62.9063 20.5,63.9844 Q21.1875,65.0469 22.5313,65.0469 Q23.1563,65.0469 23.75,64.7813 Q24.3438,64.5 24.9688,63.9219 L24.9688,66.6406 Z " fill="#000000"/><text fill="#000000" font-family="sans-serif" font-size="12" lengthAdjust="spacing" textLength="60" x="36" y="65.1543">Employee</text><line style="stroke:#A80036;stroke-width:1.5;" x1="8" x2="98" y1="77" y2="77"/><!--MD5=[a059576e163b46f56762f12600c49258]
class Nurse--><rect codeLine="7" fill="#FEFECE" filter="url(#f8p4kc5iy0oqm)" height="40" id="Nurse" style="stroke:#A80036;stroke-width:1.5;" width="69" x="199" y="7"/><ellipse cx="214" cy="23" fill="#ADD1B2" rx="11" ry="11" style="stroke:#A80036;stroke-width:1.0;"/><path d="M216.9688,28.6406 Q216.3906,28.9375 215.75,29.0781 Q215.1094,29.2344 214.4063,29.2344 Q211.9063,29.2344 210.5781,27.5938 Q209.2656,25.9375 209.2656,22.8125 Q209.2656,19.6875 210.5781,18.0313 Q211.9063,16.375 214.4063,16.375 Q215.1094,16.375 215.75,16.5313 Q216.4063,16.6875 216.9688,16.9844 L216.9688,19.7031 Q216.3438,19.125 215.75,18.8594 Q215.1563,18.5781 214.5313,18.5781 Q213.1875,18.5781 212.5,19.6563 Q211.8125,20.7188 211.8125,22.8125 Q211.8125,24.9063 212.5,25.9844 Q213.1875,27.0469 214.5313,27.0469 Q215.1563,27.0469 215.75,26.7813 Q216.3438,26.5 216.9688,25.9219 L216.9688,28.6406 Z " fill="#000000"/><text fill="#000000" font-family="sans-serif" font-size="12" lengthAdjust="spacing" textLength="37" x="228" y="27.1543">Nurse</text><line style="stroke:#A80036;stroke-width:1.5;" x1="200" x2="267" y1="39" y2="39"/><!--MD5=[03960189e81aa2c066c762ffabbee709]
class Receptionist--><rect codeLine="9" fill="#FEFECE" filter="url(#f8p4kc5iy0oqm)" height="40" id="Receptionist" style="stroke:#A80036;stroke-width:1.5;" width="110" x="178.5" y="82"/><ellipse cx="193.5" cy="98" fill="#ADD1B2" rx="11" ry="11" style="stroke:#A80036;stroke-width:1.0;"/><path d="M196.4688,103.6406 Q195.8906,103.9375 195.25,104.0781 Q194.6094,104.2344 193.9063,104.2344 Q191.4063,104.2344 190.0781,102.5938 Q188.7656,100.9375 188.7656,97.8125 Q188.7656,94.6875 190.0781,93.0313 Q191.4063,91.375 193.9063,91.375 Q194.6094,91.375 195.25,91.5313 Q195.9063,91.6875 196.4688,91.9844 L196.4688,94.7031 Q195.8438,94.125 195.25,93.8594 Q194.6563,93.5781 194.0313,93.5781 Q192.6875,93.5781 192,94.6563 Q191.3125,95.7188 191.3125,97.8125 Q191.3125,99.9063 192,100.9844 Q192.6875,102.0469 194.0313,102.0469 Q194.6563,102.0469 195.25,101.7813 Q195.8438,101.5 196.4688,100.9219 L196.4688,103.6406 Z " fill="#000000"/><text fill="#000000" font-family="sans-serif" font-size="12" lengthAdjust="spacing" textLength="78" x="207.5" y="102.1543">Receptionist</text><line style="stroke:#A80036;stroke-width:1.5;" x1="179.5" x2="287.5" y1="114" y2="114"/><!--MD5=[de60e6d4f424ae4d0522096f76a59010]
class VaccinationCenter--><rect codeLine="11" fill="#FEFECE" filter="url(#f8p4kc5iy0oqm)" height="40" id="VaccinationCenter" style="stroke:#A80036;stroke-width:1.5;" width="147" x="160" y="157"/><ellipse cx="175" cy="173" fill="#ADD1B2" rx="11" ry="11" style="stroke:#A80036;stroke-width:1.0;"/><path d="M177.9688,178.6406 Q177.3906,178.9375 176.75,179.0781 Q176.1094,179.2344 175.4063,179.2344 Q172.9063,179.2344 171.5781,177.5938 Q170.2656,175.9375 170.2656,172.8125 Q170.2656,169.6875 171.5781,168.0313 Q172.9063,166.375 175.4063,166.375 Q176.1094,166.375 176.75,166.5313 Q177.4063,166.6875 177.9688,166.9844 L177.9688,169.7031 Q177.3438,169.125 176.75,168.8594 Q176.1563,168.5781 175.5313,168.5781 Q174.1875,168.5781 173.5,169.6563 Q172.8125,170.7188 172.8125,172.8125 Q172.8125,174.9063 173.5,175.9844 Q174.1875,177.0469 175.5313,177.0469 Q176.1563,177.0469 176.75,176.7813 Q177.3438,176.5 177.9688,175.9219 L177.9688,178.6406 Z " fill="#000000"/><text fill="#000000" font-family="sans-serif" font-size="12" lengthAdjust="spacing" textLength="115" x="189" y="177.1543">VaccinationCenter</text><line style="stroke:#A80036;stroke-width:1.5;" x1="161" x2="306" y1="189" y2="189"/><!--MD5=[aaa7e27c4ec43917c82a021675d2c87a]
class WaitingRoom--><rect codeLine="13" fill="#FEFECE" filter="url(#f8p4kc5iy0oqm)" height="40" id="WaitingRoom" style="stroke:#A80036;stroke-width:1.5;" width="113" x="457" y="82"/><ellipse cx="472" cy="98" fill="#ADD1B2" rx="11" ry="11" style="stroke:#A80036;stroke-width:1.0;"/><path d="M474.9688,103.6406 Q474.3906,103.9375 473.75,104.0781 Q473.1094,104.2344 472.4063,104.2344 Q469.9063,104.2344 468.5781,102.5938 Q467.2656,100.9375 467.2656,97.8125 Q467.2656,94.6875 468.5781,93.0313 Q469.9063,91.375 472.4063,91.375 Q473.1094,91.375 473.75,91.5313 Q474.4063,91.6875 474.9688,91.9844 L474.9688,94.7031 Q474.3438,94.125 473.75,93.8594 Q473.1563,93.5781 472.5313,93.5781 Q471.1875,93.5781 470.5,94.6563 Q469.8125,95.7188 469.8125,97.8125 Q469.8125,99.9063 470.5,100.9844 Q471.1875,102.0469 472.5313,102.0469 Q473.1563,102.0469 473.75,101.7813 Q474.3438,101.5 474.9688,100.9219 L474.9688,103.6406 Z " fill="#000000"/><text fill="#000000" font-family="sans-serif" font-size="12" lengthAdjust="spacing" textLength="81" x="486" y="102.1543">WaitingRoom</text><line style="stroke:#A80036;stroke-width:1.5;" x1="458" x2="569" y1="114" y2="114"/><!--MD5=[72be06cc7ae02ccc98efe28a50e62246]
class SNSUser--><rect codeLine="15" fill="#FEFECE" filter="url(#f8p4kc5iy0oqm)" height="40" id="SNSUser" style="stroke:#A80036;stroke-width:1.5;" width="86" x="677" y="82"/><ellipse cx="692" cy="98" fill="#ADD1B2" rx="11" ry="11" style="stroke:#A80036;stroke-width:1.0;"/><path d="M694.9688,103.6406 Q694.3906,103.9375 693.75,104.0781 Q693.1094,104.2344 692.4063,104.2344 Q689.9063,104.2344 688.5781,102.5938 Q687.2656,100.9375 687.2656,97.8125 Q687.2656,94.6875 688.5781,93.0313 Q689.9063,91.375 692.4063,91.375 Q693.1094,91.375 693.75,91.5313 Q694.4063,91.6875 694.9688,91.9844 L694.9688,94.7031 Q694.3438,94.125 693.75,93.8594 Q693.1563,93.5781 692.5313,93.5781 Q691.1875,93.5781 690.5,94.6563 Q689.8125,95.7188 689.8125,97.8125 Q689.8125,99.9063 690.5,100.9844 Q691.1875,102.0469 692.5313,102.0469 Q693.1563,102.0469 693.75,101.7813 Q694.3438,101.5 694.9688,100.9219 L694.9688,103.6406 Z " fill="#000000"/><text fill="#000000" font-family="sans-serif" font-size="12" lengthAdjust="spacing" textLength="54" x="706" y="102.1543">SNSUser</text><line style="stroke:#A80036;stroke-width:1.5;" x1="678" x2="762" y1="114" y2="114"/><!--MD5=[6716344a46572fc99c27bf4e50ddbd3d]
reverse link Employee to Nurse--><path codeLine="17" d="M118.92,51.18 C145.97,45.42 176.25,38.97 198.74,34.19 " fill="none" id="Employee-backto-Nurse" style="stroke:#A80036;stroke-width:1.0;"/><polygon fill="none" points="120.06,58.09,99.04,55.41,117.15,44.4,120.06,58.09" style="stroke:#A80036;stroke-width:1.0;"/><!--MD5=[bfff716514ca687b645fe473c6e098a4]
reverse link Employee to Receptionist--><path codeLine="18" d="M118.93,78.46 C138.4,82.49 159.54,86.88 178.24,90.75 " fill="none" id="Employee-backto-Receptionist" style="stroke:#A80036;stroke-width:1.0;"/><polygon fill="none" points="117.21,85.25,99.04,74.34,120.05,71.54,117.21,85.25" style="stroke:#A80036;stroke-width:1.0;"/><!--MD5=[de78e1efbcb885042a1719c3cec87a53]
link VaccinationCenter to WaitingRoom--><path codeLine="20" d="M307.31,158.64 C343.38,149.41 387.56,137.89 427,127 C436.69,124.33 446.97,121.4 456.92,118.52 " fill="none" id="VaccinationCenter-WaitingRoom" style="stroke:#A80036;stroke-width:1.0;"/><polygon fill="#000000" points="372.8294,117.2713,363.3317,116.7755,364.8542,122.4528,372.8294,117.2713" style="stroke:#000000;stroke-width:1.0;"/><text fill="#000000" font-family="sans-serif" font-size="13" lengthAdjust="spacing" textLength="23" x="377" y="123.0669">has</text><text fill="#000000" font-family="sans-serif" font-size="13" lengthAdjust="spacing" textLength="8" x="314.9694" y="169.6444">1</text><text fill="#000000" font-family="sans-serif" font-size="13" lengthAdjust="spacing" textLength="8" x="441.1582" y="133.673">1</text><!--MD5=[1dfd2b8cef5257ed6efd914f274c3279]
link WaitingRoom to SNSUser--><path codeLine="21" d="M570.11,102 C603.7,102 645.84,102 676.7,102 " fill="none" id="WaitingRoom-SNSUser" style="stroke:#A80036;stroke-width:1.0;"/><polygon fill="#000000" points="600,93.5664,609.0451,96.5053,609.0451,90.6275,600,93.5664" style="stroke:#000000;stroke-width:1.0;"/><text fill="#000000" font-family="sans-serif" font-size="13" lengthAdjust="spacing" textLength="32" x="614" y="98.0669">waits</text><text fill="#000000" font-family="sans-serif" font-size="13" lengthAdjust="spacing" textLength="8" x="577.8757" y="115.0363">1</text><text fill="#000000" font-family="sans-serif" font-size="13" lengthAdjust="spacing" textLength="7" x="661.9488" y="115.3201">*</text><!--MD5=[aa988044c6ccb0a3eab3a4065e30c3e5]
link Nurse to WaitingRoom--><path codeLine="23" d="M268.31,35.45 C306.82,45.15 371.58,61.7 427,77 C436.69,79.67 446.97,82.6 456.92,85.48 " fill="none" id="Nurse-WaitingRoom" style="stroke:#A80036;stroke-width:1.0;"/><polygon fill="#000000" points="346.8329,46.8484,338.8436,41.6886,337.3366,47.37,346.8329,46.8484" style="stroke:#000000;stroke-width:1.0;"/><text fill="#000000" font-family="sans-serif" font-size="13" lengthAdjust="spacing" textLength="75" x="351" y="50.0669">consults list</text><text fill="#000000" font-family="sans-serif" font-size="13" lengthAdjust="spacing" textLength="8" x="275.9507" y="50.6701">1</text><text fill="#000000" font-family="sans-serif" font-size="13" lengthAdjust="spacing" textLength="7" x="441.8468" y="96.3438">*</text><!--MD5=[120e6d7c8a557e6251338e72fb523695]
link Receptionist to WaitingRoom--><path codeLine="24" d="M288.76,102 C337.27,102 408.05,102 456.95,102 " fill="none" id="Receptionist-WaitingRoom" style="stroke:#A80036;stroke-width:1.0;"/><polygon fill="#000000" points="357,93.5664,347.9549,90.6275,347.9549,96.5053,357,93.5664" style="stroke:#000000;stroke-width:1.0;"/><text fill="#000000" font-family="sans-serif" font-size="13" lengthAdjust="spacing" textLength="55" x="361" y="98.0669">sends to</text><text fill="#000000" font-family="sans-serif" font-size="13" lengthAdjust="spacing" textLength="8" x="296.3527" y="115.0363">1</text><text fill="#000000" font-family="sans-serif" font-size="13" lengthAdjust="spacing" textLength="7" x="441.8808" y="115.0836">*</text><!--MD5=[36032132e7c5505802457c9b6249874f]
@startuml
hide methods
left to right direction
skinparam classAttributeIconSize 0

class Employee {}

class Nurse {}

class Receptionist {}

class VaccinationCenter {}

class WaitingRoom {}

class SNSUser {}

Employee <|- - Nurse
Employee <|- - Receptionist

VaccinationCenter "1" - - "1" WaitingRoom : has >
WaitingRoom "1" - - "*" SNSUser : waits <

Nurse "1" - - "*" WaitingRoom : consults list >
Receptionist "1" - - "*" WaitingRoom : sends to >

@enduml

PlantUML version 1.2022.0(Tue Jan 11 16:16:42 WET 2022)
(GPL source distribution)
Java Runtime: OpenJDK Runtime Environment
JVM: OpenJDK 64-Bit Server VM
Default Encoding: UTF-8
Language: en
Country: US
--></g></svg>