<?xml version="1.0" encoding="UTF-8" standalone="no"?><svg xmlns="http://www.w3.org/2000/svg" xmlns:xlink="http://www.w3.org/1999/xlink" contentScriptType="application/ecmascript" contentStyleType="text/css" height="268px" preserveAspectRatio="none" style="width:1089px;height:268px;background:#FFFFFF;" version="1.1" viewBox="0 0 1089 268" width="1089px" zoomAndPan="magnify"><defs><filter height="300%" id="fz05nbijp0z54" width="300%" x="-1" y="-1"><feGaussianBlur result="blurOut" stdDeviation="2.0"/><feColorMatrix in="blurOut" result="blurOut2" type="matrix" values="0 0 0 0 0 0 0 0 0 0 0 0 0 0 0 0 0 0 .4 0"/><feOffset dx="4.0" dy="4.0" in="blurOut2" result="blurOut3"/><feBlend in="SourceGraphic" in2="blurOut3" mode="normal"/></filter></defs><g><!--MD5=[7421f545a0d8420c5bec41e74b387d9c]
class Employee--><rect codeLine="5" fill="#FEFECE" filter="url(#fz05nbijp0z54)" height="40" id="Employee" style="stroke:#A80036;stroke-width:1.5;" width="92" x="210" y="82"/><ellipse cx="225" cy="98" fill="#ADD1B2" rx="11" ry="11" style="stroke:#A80036;stroke-width:1.0;"/><path d="M227.9688,103.6406 Q227.3906,103.9375 226.75,104.0781 Q226.1094,104.2344 225.4063,104.2344 Q222.9063,104.2344 221.5781,102.5938 Q220.2656,100.9375 220.2656,97.8125 Q220.2656,94.6875 221.5781,93.0313 Q222.9063,91.375 225.4063,91.375 Q226.1094,91.375 226.75,91.5313 Q227.4063,91.6875 227.9688,91.9844 L227.9688,94.7031 Q227.3438,94.125 226.75,93.8594 Q226.1563,93.5781 225.5313,93.5781 Q224.1875,93.5781 223.5,94.6563 Q222.8125,95.7188 222.8125,97.8125 Q222.8125,99.9063 223.5,100.9844 Q224.1875,102.0469 225.5313,102.0469 Q226.1563,102.0469 226.75,101.7813 Q227.3438,101.5 227.9688,100.9219 L227.9688,103.6406 Z " fill="#000000"/><text fill="#000000" font-family="sans-serif" font-size="12" lengthAdjust="spacing" textLength="60" x="239" y="102.1543">Employee</text><line style="stroke:#A80036;stroke-width:1.5;" x1="211" x2="301" y1="114" y2="114"/><!--MD5=[a059576e163b46f56762f12600c49258]
class Nurse--><rect codeLine="7" fill="#FEFECE" filter="url(#fz05nbijp0z54)" height="40" id="Nurse" style="stroke:#A80036;stroke-width:1.5;" width="69" x="529.5" y="7"/><ellipse cx="544.5" cy="23" fill="#ADD1B2" rx="11" ry="11" style="stroke:#A80036;stroke-width:1.0;"/><path d="M547.4688,28.6406 Q546.8906,28.9375 546.25,29.0781 Q545.6094,29.2344 544.9063,29.2344 Q542.4063,29.2344 541.0781,27.5938 Q539.7656,25.9375 539.7656,22.8125 Q539.7656,19.6875 541.0781,18.0313 Q542.4063,16.375 544.9063,16.375 Q545.6094,16.375 546.25,16.5313 Q546.9063,16.6875 547.4688,16.9844 L547.4688,19.7031 Q546.8438,19.125 546.25,18.8594 Q545.6563,18.5781 545.0313,18.5781 Q543.6875,18.5781 543,19.6563 Q542.3125,20.7188 542.3125,22.8125 Q542.3125,24.9063 543,25.9844 Q543.6875,27.0469 545.0313,27.0469 Q545.6563,27.0469 546.25,26.7813 Q546.8438,26.5 547.4688,25.9219 L547.4688,28.6406 Z " fill="#000000"/><text fill="#000000" font-family="sans-serif" font-size="12" lengthAdjust="spacing" textLength="37" x="558.5" y="27.1543">Nurse</text><line style="stroke:#A80036;stroke-width:1.5;" x1="530.5" x2="597.5" y1="39" y2="39"/><!--MD5=[03960189e81aa2c066c762ffabbee709]
class Receptionist--><rect codeLine="9" fill="#FEFECE" filter="url(#fz05nbijp0z54)" height="40" id="Receptionist" style="stroke:#A80036;stroke-width:1.5;" width="110" x="509" y="82"/><ellipse cx="524" cy="98" fill="#ADD1B2" rx="11" ry="11" style="stroke:#A80036;stroke-width:1.0;"/><path d="M526.9688,103.6406 Q526.3906,103.9375 525.75,104.0781 Q525.1094,104.2344 524.4063,104.2344 Q521.9063,104.2344 520.5781,102.5938 Q519.2656,100.9375 519.2656,97.8125 Q519.2656,94.6875 520.5781,93.0313 Q521.9063,91.375 524.4063,91.375 Q525.1094,91.375 525.75,91.5313 Q526.4063,91.6875 526.9688,91.9844 L526.9688,94.7031 Q526.3438,94.125 525.75,93.8594 Q525.1563,93.5781 524.5313,93.5781 Q523.1875,93.5781 522.5,94.6563 Q521.8125,95.7188 521.8125,97.8125 Q521.8125,99.9063 522.5,100.9844 Q523.1875,102.0469 524.5313,102.0469 Q525.1563,102.0469 525.75,101.7813 Q526.3438,101.5 526.9688,100.9219 L526.9688,103.6406 Z " fill="#000000"/><text fill="#000000" font-family="sans-serif" font-size="12" lengthAdjust="spacing" textLength="78" x="538" y="102.1543">Receptionist</text><line style="stroke:#A80036;stroke-width:1.5;" x1="510" x2="618" y1="114" y2="114"/><!--MD5=[de60e6d4f424ae4d0522096f76a59010]
class VaccinationCenter--><rect codeLine="11" fill="#FEFECE" filter="url(#fz05nbijp0z54)" height="40" id="VaccinationCenter" style="stroke:#A80036;stroke-width:1.5;" width="147" x="332" y="155"/><ellipse cx="347" cy="171" fill="#ADD1B2" rx="11" ry="11" style="stroke:#A80036;stroke-width:1.0;"/><path d="M349.9688,176.6406 Q349.3906,176.9375 348.75,177.0781 Q348.1094,177.2344 347.4063,177.2344 Q344.9063,177.2344 343.5781,175.5938 Q342.2656,173.9375 342.2656,170.8125 Q342.2656,167.6875 343.5781,166.0313 Q344.9063,164.375 347.4063,164.375 Q348.1094,164.375 348.75,164.5313 Q349.4063,164.6875 349.9688,164.9844 L349.9688,167.7031 Q349.3438,167.125 348.75,166.8594 Q348.1563,166.5781 347.5313,166.5781 Q346.1875,166.5781 345.5,167.6563 Q344.8125,168.7188 344.8125,170.8125 Q344.8125,172.9063 345.5,173.9844 Q346.1875,175.0469 347.5313,175.0469 Q348.1563,175.0469 348.75,174.7813 Q349.3438,174.5 349.9688,173.9219 L349.9688,176.6406 Z " fill="#000000"/><text fill="#000000" font-family="sans-serif" font-size="12" lengthAdjust="spacing" textLength="115" x="361" y="175.1543">VaccinationCenter</text><line style="stroke:#A80036;stroke-width:1.5;" x1="333" x2="478" y1="187" y2="187"/><!--MD5=[aaa7e27c4ec43917c82a021675d2c87a]
class WaitingRoom--><rect codeLine="13" fill="#FEFECE" filter="url(#fz05nbijp0z54)" height="40" id="WaitingRoom" style="stroke:#A80036;stroke-width:1.5;" width="113" x="769" y="125"/><ellipse cx="784" cy="141" fill="#ADD1B2" rx="11" ry="11" style="stroke:#A80036;stroke-width:1.0;"/><path d="M786.9688,146.6406 Q786.3906,146.9375 785.75,147.0781 Q785.1094,147.2344 784.4063,147.2344 Q781.9063,147.2344 780.5781,145.5938 Q779.2656,143.9375 779.2656,140.8125 Q779.2656,137.6875 780.5781,136.0313 Q781.9063,134.375 784.4063,134.375 Q785.1094,134.375 785.75,134.5313 Q786.4063,134.6875 786.9688,134.9844 L786.9688,137.7031 Q786.3438,137.125 785.75,136.8594 Q785.1563,136.5781 784.5313,136.5781 Q783.1875,136.5781 782.5,137.6563 Q781.8125,138.7188 781.8125,140.8125 Q781.8125,142.9063 782.5,143.9844 Q783.1875,145.0469 784.5313,145.0469 Q785.1563,145.0469 785.75,144.7813 Q786.3438,144.5 786.9688,143.9219 L786.9688,146.6406 Z " fill="#000000"/><text fill="#000000" font-family="sans-serif" font-size="12" lengthAdjust="spacing" textLength="81" x="798" y="145.1543">WaitingRoom</text><line style="stroke:#A80036;stroke-width:1.5;" x1="770" x2="881" y1="157" y2="157"/><!--MD5=[72be06cc7ae02ccc98efe28a50e62246]
class SNSUser--><rect codeLine="15" fill="#FEFECE" filter="url(#fz05nbijp0z54)" height="40" id="SNSUser" style="stroke:#A80036;stroke-width:1.5;" width="86" x="989" y="212"/><ellipse cx="1004" cy="228" fill="#ADD1B2" rx="11" ry="11" style="stroke:#A80036;stroke-width:1.0;"/><path d="M1006.9688,233.6406 Q1006.3906,233.9375 1005.75,234.0781 Q1005.1094,234.2344 1004.4063,234.2344 Q1001.9063,234.2344 1000.5781,232.5938 Q999.2656,230.9375 999.2656,227.8125 Q999.2656,224.6875 1000.5781,223.0313 Q1001.9063,221.375 1004.4063,221.375 Q1005.1094,221.375 1005.75,221.5313 Q1006.4063,221.6875 1006.9688,221.9844 L1006.9688,224.7031 Q1006.3438,224.125 1005.75,223.8594 Q1005.1563,223.5781 1004.5313,223.5781 Q1003.1875,223.5781 1002.5,224.6563 Q1001.8125,225.7188 1001.8125,227.8125 Q1001.8125,229.9063 1002.5,230.9844 Q1003.1875,232.0469 1004.5313,232.0469 Q1005.1563,232.0469 1005.75,231.7813 Q1006.3438,231.5 1006.9688,230.9219 L1006.9688,233.6406 Z " fill="#000000"/><text fill="#000000" font-family="sans-serif" font-size="12" lengthAdjust="spacing" textLength="54" x="1018" y="232.1543">SNSUser</text><line style="stroke:#A80036;stroke-width:1.5;" x1="990" x2="1074" y1="244" y2="244"/><!--MD5=[02e4b9b7573f1156f41e60aa5b4e25a4]
class Company--><rect codeLine="17" fill="#FEFECE" filter="url(#fz05nbijp0z54)" height="40" id="Company" style="stroke:#A80036;stroke-width:1.5;" width="89" x="7" y="155"/><ellipse cx="22" cy="171" fill="#ADD1B2" rx="11" ry="11" style="stroke:#A80036;stroke-width:1.0;"/><path d="M24.9688,176.6406 Q24.3906,176.9375 23.75,177.0781 Q23.1094,177.2344 22.4063,177.2344 Q19.9063,177.2344 18.5781,175.5938 Q17.2656,173.9375 17.2656,170.8125 Q17.2656,167.6875 18.5781,166.0313 Q19.9063,164.375 22.4063,164.375 Q23.1094,164.375 23.75,164.5313 Q24.4063,164.6875 24.9688,164.9844 L24.9688,167.7031 Q24.3438,167.125 23.75,166.8594 Q23.1563,166.5781 22.5313,166.5781 Q21.1875,166.5781 20.5,167.6563 Q19.8125,168.7188 19.8125,170.8125 Q19.8125,172.9063 20.5,173.9844 Q21.1875,175.0469 22.5313,175.0469 Q23.1563,175.0469 23.75,174.7813 Q24.3438,174.5 24.9688,173.9219 L24.9688,176.6406 Z " fill="#000000"/><text fill="#000000" font-family="sans-serif" font-size="12" lengthAdjust="spacing" textLength="57" x="36" y="175.1543">Company</text><line style="stroke:#A80036;stroke-width:1.5;" x1="8" x2="95" y1="187" y2="187"/><!--MD5=[6716344a46572fc99c27bf4e50ddbd3d]
reverse link Employee to Nurse--><path codeLine="19" d="M321.38,79.11 C324.96,78.01 328.52,76.97 332,76 C401.32,56.71 484.16,40.84 529.4,32.77 " fill="none" id="Employee-backto-Nurse" style="stroke:#A80036;stroke-width:1.0;"/><polygon fill="none" points="323.51,85.77,302.32,85.27,319.2,72.45,323.51,85.77" style="stroke:#A80036;stroke-width:1.0;"/><!--MD5=[bfff716514ca687b645fe473c6e098a4]
reverse link Employee to Receptionist--><path codeLine="20" d="M322.21,102 C377.79,102 456.74,102 508.88,102 " fill="none" id="Employee-backto-Receptionist" style="stroke:#A80036;stroke-width:1.0;"/><polygon fill="none" points="322.15,109,302.15,102,322.15,95,322.15,109" style="stroke:#A80036;stroke-width:1.0;"/><!--MD5=[de78e1efbcb885042a1719c3cec87a53]
link VaccinationCenter to WaitingRoom--><path codeLine="22" d="M479.31,169.77 C561.76,163.86 694.3,154.34 768.88,148.99 " fill="none" id="VaccinationCenter-WaitingRoom" style="stroke:#A80036;stroke-width:1.0;"/><polygon fill="#000000" points="554.9872,151.2085,545.7549,148.9246,546.1757,154.7873,554.9872,151.2085" style="stroke:#000000;stroke-width:1.0;"/><text fill="#000000" font-family="sans-serif" font-size="13" lengthAdjust="spacing" textLength="23" x="559" y="156.0669">has</text><text fill="#000000" font-family="sans-serif" font-size="13" lengthAdjust="spacing" textLength="8" x="486.9694" y="182.0669">1</text><text fill="#000000" font-family="sans-serif" font-size="13" lengthAdjust="spacing" textLength="8" x="753.1131" y="162.5376">1</text><!--MD5=[1dfd2b8cef5257ed6efd914f274c3279]
link WaitingRoom to SNSUser--><path codeLine="23" d="M873.67,165.07 C908.47,179.87 955.4,199.84 988.93,214.1 " fill="none" id="WaitingRoom-SNSUser" style="stroke:#A80036;stroke-width:1.0;"/><polygon fill="#000000" points="912.399,173.6092,919.5719,179.8542,921.8727,174.4454,912.399,173.6092" style="stroke:#000000;stroke-width:1.0;"/><text fill="#000000" font-family="sans-serif" font-size="13" lengthAdjust="spacing" textLength="32" x="926" y="180.0669">waits</text><text fill="#000000" font-family="sans-serif" font-size="13" lengthAdjust="spacing" textLength="8" x="878.0928" y="184.9096">1</text><text fill="#000000" font-family="sans-serif" font-size="13" lengthAdjust="spacing" textLength="7" x="973.9258" y="224.3908">*</text><!--MD5=[aa988044c6ccb0a3eab3a4065e30c3e5]
link Nurse to WaitingRoom--><path codeLine="25" d="M598.8,37.76 C634.43,49.57 691.83,69.95 739,93 C758.04,102.3 778.35,114.55 794.4,124.82 " fill="none" id="Nurse-WaitingRoom" style="stroke:#A80036;stroke-width:1.0;"/><polygon fill="#000000" points="658.568,49.5996,651.4995,43.2366,649.1094,48.6065,658.568,49.5996" style="stroke:#000000;stroke-width:1.0;"/><text fill="#000000" font-family="sans-serif" font-size="13" lengthAdjust="spacing" textLength="75" x="663" y="52.0669">consults list</text><text fill="#000000" font-family="sans-serif" font-size="13" lengthAdjust="spacing" textLength="8" x="606.4387" y="53.4349">1</text><text fill="#000000" font-family="sans-serif" font-size="13" lengthAdjust="spacing" textLength="7" x="777.2362" y="113.7754">*</text><!--MD5=[120e6d7c8a557e6251338e72fb523695]
link Receptionist to WaitingRoom--><path codeLine="26" d="M619.08,110.96 C662.9,118.22 724.42,128.42 768.69,135.75 " fill="none" id="Receptionist-WaitingRoom" style="stroke:#A80036;stroke-width:1.0;"/><polygon fill="#000000" points="668.9327,110.3837,660.4897,106.0058,659.5289,111.8046,668.9327,110.3837" style="stroke:#000000;stroke-width:1.0;"/><text fill="#000000" font-family="sans-serif" font-size="13" lengthAdjust="spacing" textLength="55" x="673" y="114.0669">sends to</text><text fill="#000000" font-family="sans-serif" font-size="13" lengthAdjust="spacing" textLength="8" x="627.0189" y="125.2476">1</text><text fill="#000000" font-family="sans-serif" font-size="13" lengthAdjust="spacing" textLength="7" x="753.9628" y="147.6012">*</text><!--MD5=[eebe9b198877275d05dd12630ed9e401]
link Company to VaccinationCenter--><path codeLine="28" d="M96.02,175 C154.88,175 260.66,175 331.73,175 " fill="none" id="Company-VaccinationCenter" style="stroke:#A80036;stroke-width:1.0;"/><polygon fill="#000000" points="136,166.5664,126.9549,163.6275,126.9549,169.5053,136,166.5664" style="stroke:#000000;stroke-width:1.0;"/><text fill="#000000" font-family="sans-serif" font-size="13" lengthAdjust="spacing" textLength="39" x="140" y="171.0669">knows</text><text fill="#000000" font-family="sans-serif" font-size="13" lengthAdjust="spacing" textLength="8" x="104.0561" y="188.3201">1</text><text fill="#000000" font-family="sans-serif" font-size="13" lengthAdjust="spacing" textLength="7" x="316.7615" y="187.8472">*</text><!--MD5=[1a8aa2b864b87f860d28abceaa28b7a5]
link Company to SNSUser--><path codeLine="29" d="M80.09,195.16 C117.67,220.58 187.97,261 255,261 C255,261 255,261 826.5,261 C883.16,261 947.78,249.95 988.95,241.5 " fill="none" id="Company-SNSUser" style="stroke:#A80036;stroke-width:1.0;"/><polygon fill="#000000" points="546.9935,252.821,538.1098,249.4253,537.8105,255.2955,546.9935,252.821" style="stroke:#000000;stroke-width:1.0;"/><text fill="#000000" font-family="sans-serif" font-size="13" lengthAdjust="spacing" textLength="39" x="551" y="257.0669">knows</text><text fill="#000000" font-family="sans-serif" font-size="13" lengthAdjust="spacing" textLength="8" x="79.0059" y="215.0249">1</text><text fill="#000000" font-family="sans-serif" font-size="13" lengthAdjust="spacing" textLength="7" x="973.9492" y="256.5002">*</text><!--MD5=[09366576ee87d48d594df10cacc83f45]
link Company to Employee--><path codeLine="30" d="M96.44,159.16 C129.94,147.08 175.92,130.51 209.74,118.31 " fill="none" id="Company-Employee" style="stroke:#A80036;stroke-width:1.0;"/><polygon fill="#000000" points="135.7036,119.8705,126.1979,120.1737,128.1915,125.7031,135.7036,119.8705" style="stroke:#000000;stroke-width:1.0;"/><text fill="#000000" font-family="sans-serif" font-size="13" lengthAdjust="spacing" textLength="39" x="140" y="126.0669">knows</text><text fill="#000000" font-family="sans-serif" font-size="13" lengthAdjust="spacing" textLength="8" x="103.9339" y="169.96">1</text><text fill="#000000" font-family="sans-serif" font-size="13" lengthAdjust="spacing" textLength="7" x="195.1205" y="134.033">*</text><!--MD5=[26b7fd0a0bda10fcb7c10996bea3fb18]
@startuml
hide methods
left to right direction
skinparam classAttributeIconSize 0

class Employee {}

class Nurse {}

class Receptionist {}

class VaccinationCenter {}

class WaitingRoom {}

class SNSUser {}

class Company {}

Employee <|- - Nurse
Employee <|- - Receptionist

VaccinationCenter "1" - - "1" WaitingRoom : has >
WaitingRoom "1" - - "*" SNSUser : waits <

Nurse "1" - - "*" WaitingRoom : consults list >
Receptionist "1" - - "*" WaitingRoom : sends to >

Company "1" - - "*" VaccinationCenter : knows > 
Company "1" - - "*" SNSUser : knows > 
Company "1" - - "*" Employee : knows > 

@enduml

PlantUML version 1.2022.0(Tue Jan 11 16:16:42 WET 2022)
(GPL source distribution)
Java Runtime: OpenJDK Runtime Environment
JVM: OpenJDK 64-Bit Server VM
Default Encoding: UTF-8
Language: en
Country: US
--></g></svg>