<?xml version="1.0" encoding="UTF-8" standalone="no"?><svg xmlns="http://www.w3.org/2000/svg" xmlns:xlink="http://www.w3.org/1999/xlink" contentScriptType="application/ecmascript" contentStyleType="text/css" height="827px" preserveAspectRatio="none" style="width:1438px;height:827px;background:#FFFFFF;" version="1.1" viewBox="0 0 1438 827" width="1438px" zoomAndPan="magnify"><defs><filter height="300%" id="f158elnpi4rngv" width="300%" x="-1" y="-1"><feGaussianBlur result="blurOut" stdDeviation="2.0"/><feColorMatrix in="blurOut" result="blurOut2" type="matrix" values="0 0 0 0 0 0 0 0 0 0 0 0 0 0 0 0 0 0 .4 0"/><feOffset dx="4.0" dy="4.0" in="blurOut2" result="blurOut3"/><feBlend in="SourceGraphic" in2="blurOut3" mode="normal"/></filter></defs><g><!--MD5=[de60e6d4f424ae4d0522096f76a59010]
class VaccinationCenter--><rect codeLine="3" fill="#FEFECE" filter="url(#f158elnpi4rngv)" height="201.6563" id="VaccinationCenter" style="stroke:#A80036;stroke-width:1.5;" width="995" x="429.5" y="612"/><ellipse cx="865.25" cy="628" fill="#ADD1B2" rx="11" ry="11" style="stroke:#A80036;stroke-width:1.0;"/><path d="M868.2188,633.6406 Q867.6406,633.9375 867,634.0781 Q866.3594,634.2344 865.6563,634.2344 Q863.1563,634.2344 861.8281,632.5938 Q860.5156,630.9375 860.5156,627.8125 Q860.5156,624.6875 861.8281,623.0313 Q863.1563,621.375 865.6563,621.375 Q866.3594,621.375 867,621.5313 Q867.6563,621.6875 868.2188,621.9844 L868.2188,624.7031 Q867.5938,624.125 867,623.8594 Q866.4063,623.5781 865.7813,623.5781 Q864.4375,623.5781 863.75,624.6563 Q863.0625,625.7188 863.0625,627.8125 Q863.0625,629.9063 863.75,630.9844 Q864.4375,632.0469 865.7813,632.0469 Q866.4063,632.0469 867,631.7813 Q867.5938,631.5 868.2188,630.9219 L868.2188,633.6406 Z " fill="#000000"/><text fill="#000000" font-family="sans-serif" font-size="12" lengthAdjust="spacing" textLength="115" x="885.75" y="632.1543">VaccinationCenter</text><line style="stroke:#A80036;stroke-width:1.5;" x1="430.5" x2="1423.5" y1="644" y2="644"/><text fill="#000000" font-family="sans-serif" font-size="11" lengthAdjust="spacing" textLength="78" x="435.5" y="658.2104">-name: String</text><text fill="#000000" font-family="sans-serif" font-size="11" lengthAdjust="spacing" textLength="93" x="435.5" y="671.0151">-address: String</text><text fill="#000000" font-family="sans-serif" font-size="11" lengthAdjust="spacing" textLength="124" x="435.5" y="683.8198">-emailAddress: String</text><text fill="#000000" font-family="sans-serif" font-size="11" lengthAdjust="spacing" textLength="126" x="435.5" y="696.6245">-phoneNumber: String</text><text fill="#000000" font-family="sans-serif" font-size="11" lengthAdjust="spacing" textLength="108" x="435.5" y="709.4292">-faxNumber: String</text><text fill="#000000" font-family="sans-serif" font-size="11" lengthAdjust="spacing" textLength="137" x="435.5" y="722.2339">-websiteAddress: String</text><text fill="#000000" font-family="sans-serif" font-size="11" lengthAdjust="spacing" textLength="125" x="435.5" y="735.0386">-openingHours: String</text><text fill="#000000" font-family="sans-serif" font-size="11" lengthAdjust="spacing" textLength="120" x="435.5" y="747.8433">-closingHours: String</text><text fill="#000000" font-family="sans-serif" font-size="11" lengthAdjust="spacing" textLength="95" x="435.5" y="760.6479">-slotDuration: int</text><text fill="#000000" font-family="sans-serif" font-size="11" lengthAdjust="spacing" textLength="173" x="435.5" y="773.4526">-maximumVaccinesPerSlot: int</text><text fill="#000000" font-family="sans-serif" font-size="11" lengthAdjust="spacing" textLength="136" x="435.5" y="786.2573">-coordinator: EMPLOYEE</text><line style="stroke:#A80036;stroke-width:1.0;" x1="430.5" x2="1423.5" y1="792.8516" y2="792.8516"/><text fill="#000000" font-family="sans-serif" font-size="11" lengthAdjust="spacing" textLength="983" x="435.5" y="807.062">+VaccinationCenter(name,address,emailAddress,phoneNumber,faxNumber,websiteAddress,openingHours,closingHours,slotDuration,maximumVaccinesPerSlot,coordinator)</text><!--MD5=[02e4b9b7573f1156f41e60aa5b4e25a4]
class Company--><rect codeLine="20" fill="#FEFECE" filter="url(#f158elnpi4rngv)" height="99.2188" id="Company" style="stroke:#A80036;stroke-width:1.5;" width="180" x="471" y="263"/><ellipse cx="528.25" cy="279" fill="#ADD1B2" rx="11" ry="11" style="stroke:#A80036;stroke-width:1.0;"/><path d="M531.2188,284.6406 Q530.6406,284.9375 530,285.0781 Q529.3594,285.2344 528.6563,285.2344 Q526.1563,285.2344 524.8281,283.5938 Q523.5156,281.9375 523.5156,278.8125 Q523.5156,275.6875 524.8281,274.0313 Q526.1563,272.375 528.6563,272.375 Q529.3594,272.375 530,272.5313 Q530.6563,272.6875 531.2188,272.9844 L531.2188,275.7031 Q530.5938,275.125 530,274.8594 Q529.4063,274.5781 528.7813,274.5781 Q527.4375,274.5781 526.75,275.6563 Q526.0625,276.7188 526.0625,278.8125 Q526.0625,280.9063 526.75,281.9844 Q527.4375,283.0469 528.7813,283.0469 Q529.4063,283.0469 530,282.7813 Q530.5938,282.5 531.2188,281.9219 L531.2188,284.6406 Z " fill="#000000"/><text fill="#000000" font-family="sans-serif" font-size="12" lengthAdjust="spacing" textLength="57" x="548.75" y="283.1543">Company</text><line style="stroke:#A80036;stroke-width:1.5;" x1="472" x2="650" y1="295" y2="295"/><text fill="#000000" font-family="sans-serif" font-size="11" lengthAdjust="spacing" textLength="112" x="477" y="309.2104">-designation: String</text><line style="stroke:#A80036;stroke-width:1.0;" x1="472" x2="650" y1="315.8047" y2="315.8047"/><text fill="#000000" font-family="sans-serif" font-size="11" lengthAdjust="spacing" textLength="102" x="477" y="330.0151">+getDesignation()</text><text fill="#000000" font-family="sans-serif" font-size="11" lengthAdjust="spacing" textLength="121" x="477" y="342.8198">+getEmployeeStore()</text><text fill="#000000" font-family="sans-serif" font-size="11" lengthAdjust="spacing" textLength="168" x="477" y="355.6245">+getVaccinationCenterStore()</text><!--MD5=[a29876ea2f21a6ca48ea477740122fd8]
class VaccinationCenterStore--><rect codeLine="28" fill="#FEFECE" filter="url(#f158elnpi4rngv)" height="112.0234" id="VaccinationCenterStore" style="stroke:#A80036;stroke-width:1.5;" width="298" x="732" y="423"/><ellipse cx="802.25" cy="439" fill="#ADD1B2" rx="11" ry="11" style="stroke:#A80036;stroke-width:1.0;"/><path d="M805.2188,444.6406 Q804.6406,444.9375 804,445.0781 Q803.3594,445.2344 802.6563,445.2344 Q800.1563,445.2344 798.8281,443.5938 Q797.5156,441.9375 797.5156,438.8125 Q797.5156,435.6875 798.8281,434.0313 Q800.1563,432.375 802.6563,432.375 Q803.3594,432.375 804,432.5313 Q804.6563,432.6875 805.2188,432.9844 L805.2188,435.7031 Q804.5938,435.125 804,434.8594 Q803.4063,434.5781 802.7813,434.5781 Q801.4375,434.5781 800.75,435.6563 Q800.0625,436.7188 800.0625,438.8125 Q800.0625,440.9063 800.75,441.9844 Q801.4375,443.0469 802.7813,443.0469 Q803.4063,443.0469 804,442.7813 Q804.5938,442.5 805.2188,441.9219 L805.2188,444.6406 Z " fill="#000000"/><text fill="#000000" font-family="sans-serif" font-size="12" lengthAdjust="spacing" textLength="149" x="822.75" y="443.1543">VaccinationCenterStore</text><line style="stroke:#A80036;stroke-width:1.5;" x1="733" x2="1029" y1="455" y2="455"/><line style="stroke:#A80036;stroke-width:1.0;" x1="733" x2="1029" y1="463" y2="463"/><text fill="#000000" font-family="sans-serif" font-size="11" lengthAdjust="spacing" textLength="286" x="738" y="477.2104">+createVaccinationCenter(centerData,coordinator)</text><text fill="#000000" font-family="sans-serif" font-size="11" lengthAdjust="spacing" textLength="196" x="738" y="490.0151">+validateVaccinatonCenter(center)</text><text fill="#000000" font-family="sans-serif" font-size="11" lengthAdjust="spacing" textLength="182" x="738" y="502.8198">+saveVaccinationCenter(center)</text><text fill="#000000" font-family="sans-serif" font-size="11" lengthAdjust="spacing" textLength="144" x="738" y="515.6245">+checkDuplicates(center)</text><text fill="#000000" font-family="sans-serif" font-size="11" lengthAdjust="spacing" textLength="171" x="738" y="528.4292">-addVaccinationCenter(center)</text><!--MD5=[7421f545a0d8420c5bec41e74b387d9c]
class Employee--><rect codeLine="37" fill="#FEFECE" filter="url(#f158elnpi4rngv)" height="150.4375" id="Employee" style="stroke:#A80036;stroke-width:1.5;" width="388" x="7" y="638"/><ellipse cx="166.75" cy="654" fill="#ADD1B2" rx="11" ry="11" style="stroke:#A80036;stroke-width:1.0;"/><path d="M169.7188,659.6406 Q169.1406,659.9375 168.5,660.0781 Q167.8594,660.2344 167.1563,660.2344 Q164.6563,660.2344 163.3281,658.5938 Q162.0156,656.9375 162.0156,653.8125 Q162.0156,650.6875 163.3281,649.0313 Q164.6563,647.375 167.1563,647.375 Q167.8594,647.375 168.5,647.5313 Q169.1563,647.6875 169.7188,647.9844 L169.7188,650.7031 Q169.0938,650.125 168.5,649.8594 Q167.9063,649.5781 167.2813,649.5781 Q165.9375,649.5781 165.25,650.6563 Q164.5625,651.7188 164.5625,653.8125 Q164.5625,655.9063 165.25,656.9844 Q165.9375,658.0469 167.2813,658.0469 Q167.9063,658.0469 168.5,657.7813 Q169.0938,657.5 169.7188,656.9219 L169.7188,659.6406 Z " fill="#000000"/><text fill="#000000" font-family="sans-serif" font-size="12" lengthAdjust="spacing" textLength="60" x="187.25" y="658.1543">Employee</text><line style="stroke:#A80036;stroke-width:1.5;" x1="8" x2="394" y1="670" y2="670"/><text fill="#000000" font-family="sans-serif" font-size="11" lengthAdjust="spacing" textLength="56" x="13" y="684.2104">-id: String</text><text fill="#000000" font-family="sans-serif" font-size="11" lengthAdjust="spacing" textLength="78" x="13" y="697.0151">-name: String</text><text fill="#000000" font-family="sans-serif" font-size="11" lengthAdjust="spacing" textLength="77" x="13" y="709.8198">-email: String</text><text fill="#000000" font-family="sans-serif" font-size="11" lengthAdjust="spacing" textLength="81" x="13" y="722.6245">-phone: String</text><text fill="#000000" font-family="sans-serif" font-size="11" lengthAdjust="spacing" textLength="93" x="13" y="735.4292">-address: String</text><text fill="#000000" font-family="sans-serif" font-size="11" lengthAdjust="spacing" textLength="133" x="13" y="748.2339">-citizenCardNumber: int</text><text fill="#000000" font-family="sans-serif" font-size="11" lengthAdjust="spacing" textLength="78" x="13" y="761.0386">-roleId: String</text><line style="stroke:#A80036;stroke-width:1.0;" x1="8" x2="394" y1="767.6328" y2="767.6328"/><text fill="#000000" font-family="sans-serif" font-size="11" lengthAdjust="spacing" textLength="376" x="13" y="781.8433">+Employee(name,email,phone,address,citizenCardNumber,roleId)</text><!--MD5=[829fb52c07ade3ad64ef85b99d1fca10]
class EmployeeStore--><rect codeLine="49" fill="#FEFECE" filter="url(#f158elnpi4rngv)" height="60.8047" id="EmployeeStore" style="stroke:#A80036;stroke-width:1.5;" width="166" x="255" y="448.5"/><ellipse cx="288" cy="464.5" fill="#ADD1B2" rx="11" ry="11" style="stroke:#A80036;stroke-width:1.0;"/><path d="M290.9688,470.1406 Q290.3906,470.4375 289.75,470.5781 Q289.1094,470.7344 288.4063,470.7344 Q285.9063,470.7344 284.5781,469.0938 Q283.2656,467.4375 283.2656,464.3125 Q283.2656,461.1875 284.5781,459.5313 Q285.9063,457.875 288.4063,457.875 Q289.1094,457.875 289.75,458.0313 Q290.4063,458.1875 290.9688,458.4844 L290.9688,461.2031 Q290.3438,460.625 289.75,460.3594 Q289.1563,460.0781 288.5313,460.0781 Q287.1875,460.0781 286.5,461.1563 Q285.8125,462.2188 285.8125,464.3125 Q285.8125,466.4063 286.5,467.4844 Q287.1875,468.5469 288.5313,468.5469 Q289.1563,468.5469 289.75,468.2813 Q290.3438,468 290.9688,467.4219 L290.9688,470.1406 Z " fill="#000000"/><text fill="#000000" font-family="sans-serif" font-size="12" lengthAdjust="spacing" textLength="94" x="306" y="468.6543">EmployeeStore</text><line style="stroke:#A80036;stroke-width:1.5;" x1="256" x2="420" y1="480.5" y2="480.5"/><line style="stroke:#A80036;stroke-width:1.5;" x1="256" x2="420" y1="488.5" y2="488.5"/><text fill="#000000" font-family="sans-serif" font-size="11" lengthAdjust="spacing" textLength="154" x="261" y="502.7104">+getEmployeesWithRole(id)</text><!--MD5=[30f5d80da7eaef66e26152e87f16c093]
class VaccinationCenterController--><rect codeLine="53" fill="#FEFECE" filter="url(#f158elnpi4rngv)" height="86.4141" id="VaccinationCenterController" style="stroke:#A80036;stroke-width:1.5;" width="1031" x="45.5" y="116"/><ellipse cx="468.75" cy="132" fill="#ADD1B2" rx="11" ry="11" style="stroke:#A80036;stroke-width:1.0;"/><path d="M471.7188,137.6406 Q471.1406,137.9375 470.5,138.0781 Q469.8594,138.2344 469.1563,138.2344 Q466.6563,138.2344 465.3281,136.5938 Q464.0156,134.9375 464.0156,131.8125 Q464.0156,128.6875 465.3281,127.0313 Q466.6563,125.375 469.1563,125.375 Q469.8594,125.375 470.5,125.5313 Q471.1563,125.6875 471.7188,125.9844 L471.7188,128.7031 Q471.0938,128.125 470.5,127.8594 Q469.9063,127.5781 469.2813,127.5781 Q467.9375,127.5781 467.25,128.6563 Q466.5625,129.7188 466.5625,131.8125 Q466.5625,133.9063 467.25,134.9844 Q467.9375,136.0469 469.2813,136.0469 Q469.9063,136.0469 470.5,135.7813 Q471.0938,135.5 471.7188,134.9219 L471.7188,137.6406 Z " fill="#000000"/><text fill="#000000" font-family="sans-serif" font-size="12" lengthAdjust="spacing" textLength="176" x="489.25" y="136.1543">VaccinationCenterController</text><line style="stroke:#A80036;stroke-width:1.5;" x1="46.5" x2="1075.5" y1="148" y2="148"/><line style="stroke:#A80036;stroke-width:1.0;" x1="46.5" x2="1075.5" y1="156" y2="156"/><text fill="#000000" font-family="sans-serif" font-size="11" lengthAdjust="spacing" textLength="109" x="51.5" y="170.2104">+getCoordinators()</text><text fill="#000000" font-family="sans-serif" font-size="11" lengthAdjust="spacing" textLength="1019" x="51.5" y="183.0151">+createVaccinationCenter(name,address,emailAddress,phoneNumber,faxNumber,websiteAddress,openingHours,closingHours,slotDuration,maximumVaccinesPerSlot,coordinator)</text><text fill="#000000" font-family="sans-serif" font-size="11" lengthAdjust="spacing" textLength="182" x="51.5" y="195.8198">+saveVaccinationCenter(center)</text><!--MD5=[0949c93bb2ceac2c9377da7237d80f71]
class VaccinationCenterUI--><rect codeLine="60" fill="#FEFECE" filter="url(#f158elnpi4rngv)" height="48" id="VaccinationCenterUI" style="stroke:#A80036;stroke-width:1.5;" width="159" x="481.5" y="7"/><ellipse cx="496.5" cy="23" fill="#ADD1B2" rx="11" ry="11" style="stroke:#A80036;stroke-width:1.0;"/><path d="M499.4688,28.6406 Q498.8906,28.9375 498.25,29.0781 Q497.6094,29.2344 496.9063,29.2344 Q494.4063,29.2344 493.0781,27.5938 Q491.7656,25.9375 491.7656,22.8125 Q491.7656,19.6875 493.0781,18.0313 Q494.4063,16.375 496.9063,16.375 Q497.6094,16.375 498.25,16.5313 Q498.9063,16.6875 499.4688,16.9844 L499.4688,19.7031 Q498.8438,19.125 498.25,18.8594 Q497.6563,18.5781 497.0313,18.5781 Q495.6875,18.5781 495,19.6563 Q494.3125,20.7188 494.3125,22.8125 Q494.3125,24.9063 495,25.9844 Q495.6875,27.0469 497.0313,27.0469 Q497.6563,27.0469 498.25,26.7813 Q498.8438,26.5 499.4688,25.9219 L499.4688,28.6406 Z " fill="#000000"/><text fill="#000000" font-family="sans-serif" font-size="12" lengthAdjust="spacing" textLength="127" x="510.5" y="27.1543">VaccinationCenterUI</text><line style="stroke:#A80036;stroke-width:1.5;" x1="482.5" x2="639.5" y1="39" y2="39"/><line style="stroke:#A80036;stroke-width:1.5;" x1="482.5" x2="639.5" y1="47" y2="47"/><!--MD5=[2bb26c741d8a8989873ebb0fda8a5667]
link VaccinationCenterUI to VaccinationCenterController--><path codeLine="62" d="M561,55.11 C561,70.63 561,91.64 561,110.63 " fill="none" id="VaccinationCenterUI-to-VaccinationCenterController" style="stroke:#A80036;stroke-width:1.0;stroke-dasharray:7.0,7.0;"/><polygon fill="#A80036" points="561,115.92,565,106.92,561,110.92,557,106.92,561,115.92" style="stroke:#A80036;stroke-width:1.0;"/><!--MD5=[f1b0b71cb0e083e22e413376c9309a8e]
link VaccinationCenterController to Company--><path codeLine="63" d="M561,202.2 C561,219.41 561,239.51 561,257.75 " fill="none" id="VaccinationCenterController-to-Company" style="stroke:#A80036;stroke-width:1.0;stroke-dasharray:7.0,7.0;"/><polygon fill="#A80036" points="561,262.84,565,253.84,561,257.84,557,253.84,561,262.84" style="stroke:#A80036;stroke-width:1.0;"/><!--MD5=[eebe9b198877275d05dd12630ed9e401]
link Company to VaccinationCenter--><path codeLine="64" d="M566.8,362.22 C574.68,410.49 592.74,484.35 633,535 C655.26,563.01 683.25,587.61 713.06,608.87 " fill="none" id="Company-to-VaccinationCenter" style="stroke:#A80036;stroke-width:1.0;"/><polygon fill="#A80036" points="717.47,611.98,712.4263,603.5206,713.386,609.0955,707.8111,610.0551,717.47,611.98" style="stroke:#A80036;stroke-width:1.0;"/><polygon fill="#000000" points="635.4497,474.7657,637.5353,484.0448,642.5911,481.0468,635.4497,474.7657" style="stroke:#000000;stroke-width:1.0;"/><text fill="#000000" font-family="sans-serif" font-size="13" lengthAdjust="spacing" textLength="67" x="647" y="483.5669">belongs to</text><text fill="#000000" font-family="sans-serif" font-size="13" lengthAdjust="spacing" textLength="8" x="559.0531" y="382.3274">1</text><text fill="#000000" font-family="sans-serif" font-size="13" lengthAdjust="spacing" textLength="7" x="694.8256" y="601.095">*</text><!--MD5=[bc0d5b4bfe6e1bf0a8fced13bc4bdd47]
link Company to VaccinationCenterStore--><path codeLine="65" d="M651.42,359.98 C688,378.79 730.62,400.69 769.13,420.49 " fill="none" id="Company-to-VaccinationCenterStore" style="stroke:#A80036;stroke-width:1.0;stroke-dasharray:7.0,7.0;"/><polygon fill="#A80036" points="773.8,422.89,767.6269,415.2158,769.3539,420.6026,763.9671,422.3296,773.8,422.89" style="stroke:#A80036;stroke-width:1.0;"/><!--MD5=[ce859576cba61219b3cb4d2d23fdcd81]
link Company to EmployeeStore--><path codeLine="66" d="M495,362.19 C458.74,388.94 414.73,421.4 382.54,445.14 " fill="none" id="Company-to-EmployeeStore" style="stroke:#A80036;stroke-width:1.0;stroke-dasharray:7.0,7.0;"/><polygon fill="#A80036" points="378.28,448.29,387.9021,446.1889,382.3107,445.3313,383.1682,439.7399,378.28,448.29" style="stroke:#A80036;stroke-width:1.0;"/><!--MD5=[2f3bac1bdf76f0b867b8cadb6fadb6bc]
link EmployeeStore to Employee--><path codeLine="67" d="M320.37,509.85 C301.99,540.97 272.43,591.04 247.32,633.56 " fill="none" id="EmployeeStore-to-Employee" style="stroke:#A80036;stroke-width:1.0;"/><polygon fill="#A80036" points="244.75,637.91,252.7742,632.1993,247.2951,633.6062,245.8881,628.1271,244.75,637.91" style="stroke:#A80036;stroke-width:1.0;"/><polygon fill="#000000" points="288.4577,577.8718,295.5874,571.5776,290.5261,568.5889,288.4577,577.8718" style="stroke:#000000;stroke-width:1.0;"/><text fill="#000000" font-family="sans-serif" font-size="13" lengthAdjust="spacing" textLength="40" x="300" y="578.0669">stores</text><text fill="#000000" font-family="sans-serif" font-size="13" lengthAdjust="spacing" textLength="8" x="308.2468" y="529.2586">1</text><text fill="#000000" font-family="sans-serif" font-size="13" lengthAdjust="spacing" textLength="7" x="241.7121" y="626.8319">*</text><!--MD5=[09366576ee87d48d594df10cacc83f45]
link Company to Employee--><path codeLine="68" d="M541.22,362.12 C520.32,409.64 484.02,482.33 438,535 C405.48,572.22 363.91,606.47 324.7,634.72 " fill="none" id="Company-to-Employee" style="stroke:#A80036;stroke-width:1.0;"/><polygon fill="#A80036" points="320.42,637.79,330.0666,635.8042,324.4858,634.8798,325.4102,629.299,320.42,637.79" style="stroke:#A80036;stroke-width:1.0;"/><polygon fill="#000000" points="513.8902,482.9817,521.8172,477.7268,517.2146,474.071,513.8902,482.9817" style="stroke:#000000;stroke-width:1.0;"/><text fill="#000000" font-family="sans-serif" font-size="13" lengthAdjust="spacing" textLength="39" x="526" y="483.5669">knows</text><text fill="#000000" font-family="sans-serif" font-size="13" lengthAdjust="spacing" textLength="8" x="529.8759" y="382.2134">1</text><text fill="#000000" font-family="sans-serif" font-size="13" lengthAdjust="spacing" textLength="7" x="324.4686" y="626.9591">*</text><!--MD5=[623f444085ea3d7eec5cbc74a2b0faf8]
link VaccinationCenterController to VaccinationCenterStore--><path codeLine="69" d="M605.7,202.04 C625.26,220.59 648.4,242.74 669,263 C722.07,315.2 781.5,375.64 823.9,419.12 " fill="none" id="VaccinationCenterController-to-VaccinationCenterStore" style="stroke:#A80036;stroke-width:1.0;stroke-dasharray:7.0,7.0;"/><polygon fill="#A80036" points="827.44,422.75,824.0348,413.5085,823.9548,419.1648,818.2985,419.0848,827.44,422.75" style="stroke:#A80036;stroke-width:1.0;"/><!--MD5=[e0c1cbfab36129e287d00d39216079af]
link VaccinationCenterController to EmployeeStore--><path codeLine="70" d="M510.34,202.13 C491,219.72 469.62,241.14 453,263 C408.5,321.52 371.45,399.59 352.22,443.75 " fill="none" id="VaccinationCenterController-to-EmployeeStore" style="stroke:#A80036;stroke-width:1.0;stroke-dasharray:7.0,7.0;"/><polygon fill="#A80036" points="350.19,448.44,357.4294,441.7623,352.1716,443.8495,350.0845,438.5917,350.19,448.44" style="stroke:#A80036;stroke-width:1.0;"/><!--MD5=[8c304936b446fd8cea914e03fbadd4b7]
link VaccinationCenterStore to VaccinationCenter--><path codeLine="71" d="M891.96,535.28 C896.22,556.76 901.25,582.12 906.14,606.81 " fill="none" id="VaccinationCenterStore-to-VaccinationCenter" style="stroke:#A80036;stroke-width:1.0;"/><polygon fill="#A80036" points="907.12,611.74,909.2988,602.1352,906.1504,606.8349,901.4506,603.6865,907.12,611.74" style="stroke:#A80036;stroke-width:1.0;"/><polygon fill="#000000" points="904.9723,578.471,906.0962,569.027,900.3306,570.17,904.9723,578.471" style="stroke:#000000;stroke-width:1.0;"/><text fill="#000000" font-family="sans-serif" font-size="13" lengthAdjust="spacing" textLength="40" x="913" y="578.0669">stores</text><text fill="#000000" font-family="sans-serif" font-size="13" lengthAdjust="spacing" textLength="8" x="884.8083" y="555.1267">1</text><text fill="#000000" font-family="sans-serif" font-size="13" lengthAdjust="spacing" textLength="7" x="898.403" y="600.8373">*</text><!--MD5=[6ba003b0ae2760b414cb4d601036c5ff]
@startuml US09_CD
skinparam classAttributeIconSize 0

class VaccinationCenter {
  - name: String
  - address: String
  - emailAddress: String
  - phoneNumber: String
  - faxNumber: String
  - websiteAddress: String
  - openingHours: String
  - closingHours: String
  - slotDuration: int
  - maximumVaccinesPerSlot: int
  - coordinator: EMPLOYEE
  - - -
 +VaccinationCenter(name,address,emailAddress,phoneNumber,faxNumber,websiteAddress,openingHours,closingHours,slotDuration,maximumVaccinesPerSlot,coordinator)
}


class Company {
  -designation: String
  - - -
  +getDesignation()
  +getEmployeeStore()
  +getVaccinationCenterStore()
}

class VaccinationCenterStore {
- - -
+createVaccinationCenter(centerData,coordinator)
+validateVaccinatonCenter(center)
+saveVaccinationCenter(center)
+checkDuplicates(center)
-addVaccinationCenter(center)
}

class Employee {
  -id: String 
  -name: String 
  -email: String 
  -phone: String 
  -address: String 
  -citizenCardNumber: int 
  -roleId: String 
  - - -
  +Employee(name,email,phone,address,citizenCardNumber,roleId)
}

class EmployeeStore {
  +getEmployeesWithRole(id)
}

class VaccinationCenterController {
  - - -
  +getCoordinators()
  +createVaccinationCenter(name,address,emailAddress,phoneNumber,faxNumber,websiteAddress,openingHours,closingHours,slotDuration,maximumVaccinesPerSlot,coordinator)
  +saveVaccinationCenter(center)
}

class VaccinationCenterUI {}

VaccinationCenterUI ..> VaccinationCenterController
VaccinationCenterController ..> Company
Company "1" - -> "*" VaccinationCenter : belongs to <
Company ..> VaccinationCenterStore
Company ..> EmployeeStore
EmployeeStore "1" - -> "*" Employee : stores >
Company "1" - -> "*" Employee : knows >
VaccinationCenterController ..> VaccinationCenterStore
VaccinationCenterController ..> EmployeeStore
VaccinationCenterStore "1" - -> "*" VaccinationCenter : stores >

@enduml

PlantUML version 1.2022.0(Tue Jan 11 16:16:42 WET 2022)
(GPL source distribution)
Java Runtime: OpenJDK Runtime Environment
JVM: OpenJDK 64-Bit Server VM
Default Encoding: UTF-8
Language: en
Country: US
--></g></svg>