<?xml version="1.0" encoding="UTF-8" standalone="no"?><svg xmlns="http://www.w3.org/2000/svg" xmlns:xlink="http://www.w3.org/1999/xlink" contentScriptType="application/ecmascript" contentStyleType="text/css" height="690px" preserveAspectRatio="none" style="width:402px;height:690px;background:#FFFFFF;" version="1.1" viewBox="0 0 402 690" width="402px" zoomAndPan="magnify"><defs><filter height="300%" id="fggbflypeljos" width="300%" x="-1" y="-1"><feGaussianBlur result="blurOut" stdDeviation="2.0"/><feColorMatrix in="blurOut" result="blurOut2" type="matrix" values="0 0 0 0 0 0 0 0 0 0 0 0 0 0 0 0 0 0 .4 0"/><feOffset dx="4.0" dy="4.0" in="blurOut2" result="blurOut3"/><feBlend in="SourceGraphic" in2="blurOut3" mode="normal"/></filter></defs><g><!--MD5=[3fd616f346a44cd59a91eb10b19e157c]
class User--><rect codeLine="3" fill="#FEFECE" filter="url(#fggbflypeljos)" height="86.4141" id="User" style="stroke:#A80036;stroke-width:1.5;" width="86" x="7" y="257.5"/><ellipse cx="33.25" cy="273.5" fill="#ADD1B2" rx="11" ry="11" style="stroke:#A80036;stroke-width:1.0;"/><path d="M36.2188,279.1406 Q35.6406,279.4375 35,279.5781 Q34.3594,279.7344 33.6563,279.7344 Q31.1563,279.7344 29.8281,278.0938 Q28.5156,276.4375 28.5156,273.3125 Q28.5156,270.1875 29.8281,268.5313 Q31.1563,266.875 33.6563,266.875 Q34.3594,266.875 35,267.0313 Q35.6563,267.1875 36.2188,267.4844 L36.2188,270.2031 Q35.5938,269.625 35,269.3594 Q34.4063,269.0781 33.7813,269.0781 Q32.4375,269.0781 31.75,270.1563 Q31.0625,271.2188 31.0625,273.3125 Q31.0625,275.4063 31.75,276.4844 Q32.4375,277.5469 33.7813,277.5469 Q34.4063,277.5469 35,277.2813 Q35.5938,277 36.2188,276.4219 L36.2188,279.1406 Z " fill="#000000"/><text fill="#000000" font-family="sans-serif" font-size="12" lengthAdjust="spacing" textLength="29" x="49.75" y="277.6543">User</text><line style="stroke:#A80036;stroke-width:1.5;" x1="8" x2="92" y1="289.5" y2="289.5"/><text fill="#000000" font-family="sans-serif" font-size="11" lengthAdjust="spacing" textLength="74" x="13" y="303.7104">-String name</text><text fill="#000000" font-family="sans-serif" font-size="11" lengthAdjust="spacing" textLength="73" x="13" y="316.5151">-String email</text><text fill="#000000" font-family="sans-serif" font-size="11" lengthAdjust="spacing" textLength="65" x="13" y="329.3198">-String pwd</text><line style="stroke:#A80036;stroke-width:1.5;" x1="8" x2="92" y1="335.9141" y2="335.9141"/><!--MD5=[7421f545a0d8420c5bec41e74b387d9c]
class Employee--><rect codeLine="9" fill="#FEFECE" filter="url(#fggbflypeljos)" height="86.4141" id="Employee" style="stroke:#A80036;stroke-width:1.5;" width="204" x="44" y="427"/><ellipse cx="111.75" cy="443" fill="#ADD1B2" rx="11" ry="11" style="stroke:#A80036;stroke-width:1.0;"/><path d="M114.7188,448.6406 Q114.1406,448.9375 113.5,449.0781 Q112.8594,449.2344 112.1563,449.2344 Q109.6563,449.2344 108.3281,447.5938 Q107.0156,445.9375 107.0156,442.8125 Q107.0156,439.6875 108.3281,438.0313 Q109.6563,436.375 112.1563,436.375 Q112.8594,436.375 113.5,436.5313 Q114.1563,436.6875 114.7188,436.9844 L114.7188,439.7031 Q114.0938,439.125 113.5,438.8594 Q112.9063,438.5781 112.2813,438.5781 Q110.9375,438.5781 110.25,439.6563 Q109.5625,440.7188 109.5625,442.8125 Q109.5625,444.9063 110.25,445.9844 Q110.9375,447.0469 112.2813,447.0469 Q112.9063,447.0469 113.5,446.7813 Q114.0938,446.5 114.7188,445.9219 L114.7188,448.6406 Z " fill="#000000"/><text fill="#000000" font-family="sans-serif" font-size="12" lengthAdjust="spacing" textLength="60" x="132.25" y="447.1543">Employee</text><line style="stroke:#A80036;stroke-width:1.5;" x1="45" x2="247" y1="459" y2="459"/><line style="stroke:#A80036;stroke-width:1.5;" x1="45" x2="247" y1="467" y2="467"/><text fill="#000000" font-family="sans-serif" font-size="11" lengthAdjust="spacing" textLength="192" x="50" y="481.2104">+Employee(name,email,pwd,role)</text><text fill="#000000" font-family="sans-serif" font-size="11" lengthAdjust="spacing" textLength="0" x="54" y="494.0151"/><text fill="#000000" font-family="sans-serif" font-size="11" lengthAdjust="spacing" textLength="83" x="50" y="506.8198">+isRole(roleId)</text><!--MD5=[a3638c1e5b65d287ecad7f06f5c0f212]
class Role--><rect codeLine="15" fill="#FEFECE" filter="url(#fggbflypeljos)" height="86.4141" id="Role" style="stroke:#A80036;stroke-width:1.5;" width="130" x="81" y="590"/><ellipse cx="128.25" cy="606" fill="#ADD1B2" rx="11" ry="11" style="stroke:#A80036;stroke-width:1.0;"/><path d="M131.2188,611.6406 Q130.6406,611.9375 130,612.0781 Q129.3594,612.2344 128.6563,612.2344 Q126.1563,612.2344 124.8281,610.5938 Q123.5156,608.9375 123.5156,605.8125 Q123.5156,602.6875 124.8281,601.0313 Q126.1563,599.375 128.6563,599.375 Q129.3594,599.375 130,599.5313 Q130.6563,599.6875 131.2188,599.9844 L131.2188,602.7031 Q130.5938,602.125 130,601.8594 Q129.4063,601.5781 128.7813,601.5781 Q127.4375,601.5781 126.75,602.6563 Q126.0625,603.7188 126.0625,605.8125 Q126.0625,607.9063 126.75,608.9844 Q127.4375,610.0469 128.7813,610.0469 Q129.4063,610.0469 130,609.7813 Q130.5938,609.5 131.2188,608.9219 L131.2188,611.6406 Z " fill="#000000"/><text fill="#000000" font-family="sans-serif" font-size="12" lengthAdjust="spacing" textLength="27" x="148.75" y="610.1543">Role</text><line style="stroke:#A80036;stroke-width:1.5;" x1="82" x2="210" y1="622" y2="622"/><text fill="#000000" font-family="sans-serif" font-size="11" lengthAdjust="spacing" textLength="52" x="87" y="636.2104">-String id</text><text fill="#000000" font-family="sans-serif" font-size="11" lengthAdjust="spacing" textLength="105" x="87" y="649.0151">-String description</text><line style="stroke:#A80036;stroke-width:1.5;" x1="82" x2="210" y1="655.6094" y2="655.6094"/><text fill="#000000" font-family="sans-serif" font-size="11" lengthAdjust="spacing" textLength="118" x="87" y="669.8198">+Role(id,description)</text><!--MD5=[02e4b9b7573f1156f41e60aa5b4e25a4]
class Company--><rect codeLine="22" fill="#FEFECE" filter="url(#fggbflypeljos)" height="99.2188" id="Company" style="stroke:#A80036;stroke-width:1.5;" width="189" x="199.5" y="251"/><ellipse cx="261.25" cy="267" fill="#ADD1B2" rx="11" ry="11" style="stroke:#A80036;stroke-width:1.0;"/><path d="M264.2188,272.6406 Q263.6406,272.9375 263,273.0781 Q262.3594,273.2344 261.6563,273.2344 Q259.1563,273.2344 257.8281,271.5938 Q256.5156,269.9375 256.5156,266.8125 Q256.5156,263.6875 257.8281,262.0313 Q259.1563,260.375 261.6563,260.375 Q262.3594,260.375 263,260.5313 Q263.6563,260.6875 264.2188,260.9844 L264.2188,263.7031 Q263.5938,263.125 263,262.8594 Q262.4063,262.5781 261.7813,262.5781 Q260.4375,262.5781 259.75,263.6563 Q259.0625,264.7188 259.0625,266.8125 Q259.0625,268.9063 259.75,269.9844 Q260.4375,271.0469 261.7813,271.0469 Q262.4063,271.0469 263,270.7813 Q263.5938,270.5 264.2188,269.9219 L264.2188,272.6406 Z " fill="#000000"/><text fill="#000000" font-family="sans-serif" font-size="12" lengthAdjust="spacing" textLength="57" x="281.75" y="271.1543">Company</text><line style="stroke:#A80036;stroke-width:1.5;" x1="200.5" x2="387.5" y1="283" y2="283"/><text fill="#000000" font-family="sans-serif" font-size="11" lengthAdjust="spacing" textLength="108" x="205.5" y="297.2104">-String designation</text><line style="stroke:#A80036;stroke-width:1.5;" x1="200.5" x2="387.5" y1="303.8047" y2="303.8047"/><text fill="#000000" font-family="sans-serif" font-size="11" lengthAdjust="spacing" textLength="136" x="205.5" y="318.0151">+Company(designation)</text><text fill="#000000" font-family="sans-serif" font-size="11" lengthAdjust="spacing" textLength="0" x="209.5" y="330.8198"/><text fill="#000000" font-family="sans-serif" font-size="11" lengthAdjust="spacing" textLength="177" x="205.5" y="343.6245">+getEmployeesByRoleId(roleId)</text><!--MD5=[cedd4967a54d65e273403224efb15753]
class ListEmployeeController--><rect codeLine="29" fill="#FEFECE" filter="url(#fggbflypeljos)" height="73.6094" id="ListEmployeeController" style="stroke:#A80036;stroke-width:1.5;" width="189" x="71.5" y="116"/><ellipse cx="93.25" cy="132" fill="#ADD1B2" rx="11" ry="11" style="stroke:#A80036;stroke-width:1.0;"/><path d="M96.2188,137.6406 Q95.6406,137.9375 95,138.0781 Q94.3594,138.2344 93.6563,138.2344 Q91.1563,138.2344 89.8281,136.5938 Q88.5156,134.9375 88.5156,131.8125 Q88.5156,128.6875 89.8281,127.0313 Q91.1563,125.375 93.6563,125.375 Q94.3594,125.375 95,125.5313 Q95.6563,125.6875 96.2188,125.9844 L96.2188,128.7031 Q95.5938,128.125 95,127.8594 Q94.4063,127.5781 93.7813,127.5781 Q92.4375,127.5781 91.75,128.6563 Q91.0625,129.7188 91.0625,131.8125 Q91.0625,133.9063 91.75,134.9844 Q92.4375,136.0469 93.7813,136.0469 Q94.4063,136.0469 95,135.7813 Q95.5938,135.5 96.2188,134.9219 L96.2188,137.6406 Z " fill="#000000"/><text fill="#000000" font-family="sans-serif" font-size="12" lengthAdjust="spacing" textLength="142" x="108.75" y="136.1543">ListEmployeeController</text><line style="stroke:#A80036;stroke-width:1.5;" x1="72.5" x2="259.5" y1="148" y2="148"/><line style="stroke:#A80036;stroke-width:1.5;" x1="72.5" x2="259.5" y1="156" y2="156"/><text fill="#000000" font-family="sans-serif" font-size="11" lengthAdjust="spacing" textLength="66" x="77.5" y="170.2104">+getRoles()</text><text fill="#000000" font-family="sans-serif" font-size="11" lengthAdjust="spacing" textLength="177" x="77.5" y="183.0151">+getEmployeesByRoleId(roleId)</text><!--MD5=[1648e653497aaae0b857fb5a1aa684e5]
class ListEmployeeUI--><rect codeLine="34" fill="#FEFECE" filter="url(#fggbflypeljos)" height="48" id="ListEmployeeUI" style="stroke:#A80036;stroke-width:1.5;" width="125" x="103.5" y="7"/><ellipse cx="118.5" cy="23" fill="#ADD1B2" rx="11" ry="11" style="stroke:#A80036;stroke-width:1.0;"/><path d="M121.4688,28.6406 Q120.8906,28.9375 120.25,29.0781 Q119.6094,29.2344 118.9063,29.2344 Q116.4063,29.2344 115.0781,27.5938 Q113.7656,25.9375 113.7656,22.8125 Q113.7656,19.6875 115.0781,18.0313 Q116.4063,16.375 118.9063,16.375 Q119.6094,16.375 120.25,16.5313 Q120.9063,16.6875 121.4688,16.9844 L121.4688,19.7031 Q120.8438,19.125 120.25,18.8594 Q119.6563,18.5781 119.0313,18.5781 Q117.6875,18.5781 117,19.6563 Q116.3125,20.7188 116.3125,22.8125 Q116.3125,24.9063 117,25.9844 Q117.6875,27.0469 119.0313,27.0469 Q119.6563,27.0469 120.25,26.7813 Q120.8438,26.5 121.4688,25.9219 L121.4688,28.6406 Z " fill="#000000"/><text fill="#000000" font-family="sans-serif" font-size="12" lengthAdjust="spacing" textLength="93" x="132.5" y="27.1543">ListEmployeeUI</text><line style="stroke:#A80036;stroke-width:1.5;" x1="104.5" x2="227.5" y1="39" y2="39"/><line style="stroke:#A80036;stroke-width:1.5;" x1="104.5" x2="227.5" y1="47" y2="47"/><!--MD5=[1a586c3a4709423d02ac896cff2c39b6]
link ListEmployeeUI to ListEmployeeController--><path codeLine="36" d="M166,55.14 C166,70.83 166,92 166,110.55 " fill="none" id="ListEmployeeUI-to-ListEmployeeController" style="stroke:#A80036;stroke-width:1.0;stroke-dasharray:7.0,7.0;"/><polygon fill="#A80036" points="166,115.71,170,106.71,166,110.71,162,106.71,166,115.71" style="stroke:#A80036;stroke-width:1.0;"/><!--MD5=[3445064b1b77df7829934ecddd3250cd]
link ListEmployeeController to Employee--><path codeLine="37" d="M163.71,190.13 C160.08,247.19 153.04,358.17 149.01,421.57 " fill="none" id="ListEmployeeController-to-Employee" style="stroke:#A80036;stroke-width:1.0;stroke-dasharray:7.0,7.0;"/><polygon fill="#A80036" points="148.68,426.8,153.2383,418.0695,148.9946,421.8099,145.2541,417.5662,148.68,426.8" style="stroke:#A80036;stroke-width:1.0;"/><!--MD5=[fdf3f1dae370c95101789c1677ee20c5]
link ListEmployeeController to Company--><path codeLine="38" d="M197.97,190.34 C212.91,207.32 230.98,227.87 247.41,246.53 " fill="none" id="ListEmployeeController-to-Company" style="stroke:#A80036;stroke-width:1.0;stroke-dasharray:7.0,7.0;"/><polygon fill="#A80036" points="251.1,250.74,248.1661,241.3383,247.8004,246.9833,242.1554,246.6176,251.1,250.74" style="stroke:#A80036;stroke-width:1.0;"/><!--MD5=[ffab42d7305e6830f0674a21f59219d7]
link Employee to Role--><path codeLine="39" d="M146,513.3 C146,535.3 146,562.26 146,584.92 " fill="none" id="Employee-to-Role" style="stroke:#A80036;stroke-width:1.0;"/><polygon fill="#A80036" points="146,589.98,150,580.98,146,584.98,142,580.98,146,589.98" style="stroke:#A80036;stroke-width:1.0;"/><text fill="#000000" font-family="sans-serif" font-size="13" lengthAdjust="spacing" textLength="23" x="147" y="556.0669">has</text><text fill="#000000" font-family="sans-serif" font-size="13" lengthAdjust="spacing" textLength="7" x="138.4422" y="533.4407">*</text><text fill="#000000" font-family="sans-serif" font-size="13" lengthAdjust="spacing" textLength="8" x="137.3625" y="578.9729">1</text><!--MD5=[09366576ee87d48d594df10cacc83f45]
link Company to Employee--><path codeLine="40" d="M250.79,350.4 C230.55,373.31 206.56,400.46 186.65,422.99 " fill="none" id="Company-to-Employee" style="stroke:#A80036;stroke-width:1.0;"/><polygon fill="#A80036" points="183.24,426.86,192.2012,422.7738,186.5547,423.1167,186.2118,417.4702,183.24,426.86" style="stroke:#A80036;stroke-width:1.0;"/><text fill="#000000" font-family="sans-serif" font-size="13" lengthAdjust="spacing" textLength="70" x="225" y="393.0669">employees</text><text fill="#000000" font-family="sans-serif" font-size="13" lengthAdjust="spacing" textLength="8" x="236.4462" y="370.1742">1</text><text fill="#000000" font-family="sans-serif" font-size="13" lengthAdjust="spacing" textLength="7" x="181.6173" y="415.8337">*</text><!--MD5=[1e9705534ea2f5f3045e58998aa20e5a]
reverse link User to Employee--><path codeLine="42" d="M84.25,361.27 C96.66,382.92 110.41,406.91 121.78,426.75 " fill="none" id="User-backto-Employee" style="stroke:#A80036;stroke-width:1.0;"/><polygon fill="none" points="78.1,364.6,74.22,343.77,90.24,357.64,78.1,364.6" style="stroke:#A80036;stroke-width:1.0;"/><!--MD5=[b74a88044fe4c620c8629591b3c3d3f3]
@startuml
skinparam classAttributeIconSize 0

class User {
  - String name
  - String email
  - String pwd
}

class Employee {
  +Employee(name,email,pwd,role)

  +isRole(roleId)
}

class Role {
  -String id
  -String description

  +Role(id,description)
}

class Company {
  -String designation
  +Company(designation)

  +getEmployeesByRoleId(roleId)
}

class ListEmployeeController {
  +getRoles()
  +getEmployeesByRoleId(roleId)
}

class ListEmployeeUI {}

ListEmployeeUI ..> ListEmployeeController
ListEmployeeController ..> Employee
ListEmployeeController ..> Company
Employee "*" - -> "1" Role : has
Company "1" - -> "*" Employee : employees

User <|- - Employee 

@enduml

PlantUML version 1.2022.0(Tue Jan 11 16:16:42 WET 2022)
(GPL source distribution)
Java Runtime: Java(TM) SE Runtime Environment
JVM: Java HotSpot(TM) 64-Bit Server VM
Default Encoding: UTF-8
Language: en
Country: US
--></g></svg>