<?xml version="1.0" encoding="UTF-8" standalone="no"?><svg xmlns="http://www.w3.org/2000/svg" xmlns:xlink="http://www.w3.org/1999/xlink" contentScriptType="application/ecmascript" contentStyleType="text/css" height="1013px" preserveAspectRatio="none" style="width:657px;height:1013px;background:#FFFFFF;" version="1.1" viewBox="0 0 657 1013" width="657px" zoomAndPan="magnify"><defs><filter height="300%" id="f11hc03vhmqkgu" width="300%" x="-1" y="-1"><feGaussianBlur result="blurOut" stdDeviation="2.0"/><feColorMatrix in="blurOut" result="blurOut2" type="matrix" values="0 0 0 0 0 0 0 0 0 0 0 0 0 0 0 0 0 0 .4 0"/><feOffset dx="4.0" dy="4.0" in="blurOut2" result="blurOut3"/><feBlend in="SourceGraphic" in2="blurOut3" mode="normal"/></filter></defs><g><!--MD5=[3fd616f346a44cd59a91eb10b19e157c]
class User--><rect codeLine="3" fill="#FEFECE" filter="url(#f11hc03vhmqkgu)" height="99.2188" id="User" style="stroke:#A80036;stroke-width:1.5;" width="86" x="95.5" y="251"/><ellipse cx="121.75" cy="267" fill="#ADD1B2" rx="11" ry="11" style="stroke:#A80036;stroke-width:1.0;"/><path d="M124.7188,272.6406 Q124.1406,272.9375 123.5,273.0781 Q122.8594,273.2344 122.1563,273.2344 Q119.6563,273.2344 118.3281,271.5938 Q117.0156,269.9375 117.0156,266.8125 Q117.0156,263.6875 118.3281,262.0313 Q119.6563,260.375 122.1563,260.375 Q122.8594,260.375 123.5,260.5313 Q124.1563,260.6875 124.7188,260.9844 L124.7188,263.7031 Q124.0938,263.125 123.5,262.8594 Q122.9063,262.5781 122.2813,262.5781 Q120.9375,262.5781 120.25,263.6563 Q119.5625,264.7188 119.5625,266.8125 Q119.5625,268.9063 120.25,269.9844 Q120.9375,271.0469 122.2813,271.0469 Q122.9063,271.0469 123.5,270.7813 Q124.0938,270.5 124.7188,269.9219 L124.7188,272.6406 Z " fill="#000000"/><text fill="#000000" font-family="sans-serif" font-size="12" lengthAdjust="spacing" textLength="29" x="138.25" y="271.1543">User</text><line style="stroke:#A80036;stroke-width:1.5;" x1="96.5" x2="180.5" y1="283" y2="283"/><text fill="#000000" font-family="sans-serif" font-size="11" lengthAdjust="spacing" textLength="74" x="101.5" y="297.2104">-String name</text><text fill="#000000" font-family="sans-serif" font-size="11" lengthAdjust="spacing" textLength="73" x="101.5" y="310.0151">-String email</text><text fill="#000000" font-family="sans-serif" font-size="11" lengthAdjust="spacing" textLength="65" x="101.5" y="322.8198">-String pwd</text><text fill="#000000" font-family="sans-serif" font-size="11" lengthAdjust="spacing" textLength="74" x="101.5" y="335.6245">-String roleId</text><line style="stroke:#A80036;stroke-width:1.5;" x1="96.5" x2="180.5" y1="342.2188" y2="342.2188"/><!--MD5=[7421f545a0d8420c5bec41e74b387d9c]
class Employee--><rect codeLine="10" fill="#FEFECE" filter="url(#f11hc03vhmqkgu)" height="150.4375" id="Employee" style="stroke:#A80036;stroke-width:1.5;" width="388" x="89.5" y="427"/><ellipse cx="249.25" cy="443" fill="#ADD1B2" rx="11" ry="11" style="stroke:#A80036;stroke-width:1.0;"/><path d="M252.2188,448.6406 Q251.6406,448.9375 251,449.0781 Q250.3594,449.2344 249.6563,449.2344 Q247.1563,449.2344 245.8281,447.5938 Q244.5156,445.9375 244.5156,442.8125 Q244.5156,439.6875 245.8281,438.0313 Q247.1563,436.375 249.6563,436.375 Q250.3594,436.375 251,436.5313 Q251.6563,436.6875 252.2188,436.9844 L252.2188,439.7031 Q251.5938,439.125 251,438.8594 Q250.4063,438.5781 249.7813,438.5781 Q248.4375,438.5781 247.75,439.6563 Q247.0625,440.7188 247.0625,442.8125 Q247.0625,444.9063 247.75,445.9844 Q248.4375,447.0469 249.7813,447.0469 Q250.4063,447.0469 251,446.7813 Q251.5938,446.5 252.2188,445.9219 L252.2188,448.6406 Z " fill="#000000"/><text fill="#000000" font-family="sans-serif" font-size="12" lengthAdjust="spacing" textLength="60" x="269.75" y="447.1543">Employee</text><line style="stroke:#A80036;stroke-width:1.5;" x1="90.5" x2="476.5" y1="459" y2="459"/><text fill="#000000" font-family="sans-serif" font-size="11" lengthAdjust="spacing" textLength="52" x="95.5" y="473.2104">-String id</text><text fill="#000000" font-family="sans-serif" font-size="11" lengthAdjust="spacing" textLength="74" x="95.5" y="486.0151">-String name</text><text fill="#000000" font-family="sans-serif" font-size="11" lengthAdjust="spacing" textLength="73" x="95.5" y="498.8198">-String email</text><text fill="#000000" font-family="sans-serif" font-size="11" lengthAdjust="spacing" textLength="77" x="95.5" y="511.6245">-String phone</text><text fill="#000000" font-family="sans-serif" font-size="11" lengthAdjust="spacing" textLength="89" x="95.5" y="524.4292">-String address</text><text fill="#000000" font-family="sans-serif" font-size="11" lengthAdjust="spacing" textLength="129" x="95.5" y="537.2339">-int citizenCardNumber</text><text fill="#000000" font-family="sans-serif" font-size="11" lengthAdjust="spacing" textLength="74" x="95.5" y="550.0386">-String roleId</text><line style="stroke:#A80036;stroke-width:1.5;" x1="90.5" x2="476.5" y1="556.6328" y2="556.6328"/><text fill="#000000" font-family="sans-serif" font-size="11" lengthAdjust="spacing" textLength="376" x="95.5" y="570.8433">+Employee(name,email,phone,address,citizenCardNumber,roleId)</text><!--MD5=[02e4b9b7573f1156f41e60aa5b4e25a4]
class Company--><rect codeLine="22" fill="#FEFECE" filter="url(#f11hc03vhmqkgu)" height="99.2188" id="Company" style="stroke:#A80036;stroke-width:1.5;" width="148" x="405.5" y="251"/><ellipse cx="447.05" cy="267" fill="#ADD1B2" rx="11" ry="11" style="stroke:#A80036;stroke-width:1.0;"/><path d="M450.0188,272.6406 Q449.4406,272.9375 448.8,273.0781 Q448.1594,273.2344 447.4563,273.2344 Q444.9563,273.2344 443.6281,271.5938 Q442.3156,269.9375 442.3156,266.8125 Q442.3156,263.6875 443.6281,262.0313 Q444.9563,260.375 447.4563,260.375 Q448.1594,260.375 448.8,260.5313 Q449.4563,260.6875 450.0188,260.9844 L450.0188,263.7031 Q449.3938,263.125 448.8,262.8594 Q448.2063,262.5781 447.5813,262.5781 Q446.2375,262.5781 445.55,263.6563 Q444.8625,264.7188 444.8625,266.8125 Q444.8625,268.9063 445.55,269.9844 Q446.2375,271.0469 447.5813,271.0469 Q448.2063,271.0469 448.8,270.7813 Q449.3938,270.5 450.0188,269.9219 L450.0188,272.6406 Z " fill="#000000"/><text fill="#000000" font-family="sans-serif" font-size="12" lengthAdjust="spacing" textLength="57" x="466.95" y="271.1543">Company</text><line style="stroke:#A80036;stroke-width:1.5;" x1="406.5" x2="552.5" y1="283" y2="283"/><text fill="#000000" font-family="sans-serif" font-size="11" lengthAdjust="spacing" textLength="108" x="411.5" y="297.2104">-String designation</text><line style="stroke:#A80036;stroke-width:1.5;" x1="406.5" x2="552.5" y1="303.8047" y2="303.8047"/><text fill="#000000" font-family="sans-serif" font-size="11" lengthAdjust="spacing" textLength="136" x="411.5" y="318.0151">+Company(designation)</text><text fill="#000000" font-family="sans-serif" font-size="11" lengthAdjust="spacing" textLength="0" x="415.5" y="330.8198"/><text fill="#000000" font-family="sans-serif" font-size="11" lengthAdjust="spacing" textLength="100" x="411.5" y="343.6245">+getAuthFacade()</text><!--MD5=[8ae808d068a8995f06b9b3ec51357f0b]
class AuthFacade--><rect codeLine="29" fill="#FEFECE" filter="url(#f11hc03vhmqkgu)" height="86.4141" id="AuthFacade" style="stroke:#A80036;stroke-width:1.5;" width="160" x="483.5" y="654"/><ellipse cx="522.35" cy="670" fill="#ADD1B2" rx="11" ry="11" style="stroke:#A80036;stroke-width:1.0;"/><path d="M525.3188,675.6406 Q524.7406,675.9375 524.1,676.0781 Q523.4594,676.2344 522.7563,676.2344 Q520.2563,676.2344 518.9281,674.5938 Q517.6156,672.9375 517.6156,669.8125 Q517.6156,666.6875 518.9281,665.0313 Q520.2563,663.375 522.7563,663.375 Q523.4594,663.375 524.1,663.5313 Q524.7563,663.6875 525.3188,663.9844 L525.3188,666.7031 Q524.6938,666.125 524.1,665.8594 Q523.5063,665.5781 522.8813,665.5781 Q521.5375,665.5781 520.85,666.6563 Q520.1625,667.7188 520.1625,669.8125 Q520.1625,671.9063 520.85,672.9844 Q521.5375,674.0469 522.8813,674.0469 Q523.5063,674.0469 524.1,673.7813 Q524.6938,673.5 525.3188,672.9219 L525.3188,675.6406 Z " fill="#000000"/><text fill="#000000" font-family="sans-serif" font-size="12" lengthAdjust="spacing" textLength="75" x="541.65" y="674.1543">AuthFacade</text><line style="stroke:#A80036;stroke-width:1.5;" x1="484.5" x2="642.5" y1="686" y2="686"/><line style="stroke:#A80036;stroke-width:1.5;" x1="484.5" x2="642.5" y1="694" y2="694"/><text fill="#000000" font-family="sans-serif" font-size="11" lengthAdjust="spacing" textLength="97" x="489.5" y="708.2104">+existsRole(role)</text><text fill="#000000" font-family="sans-serif" font-size="11" lengthAdjust="spacing" textLength="93" x="489.5" y="721.0151">+getUserRoles()</text><text fill="#000000" font-family="sans-serif" font-size="11" lengthAdjust="spacing" textLength="148" x="489.5" y="733.8198">+getUsersWithRole(roleId)</text><!--MD5=[829fb52c07ade3ad64ef85b99d1fca10]
class EmployeeStore--><rect codeLine="35" fill="#FEFECE" filter="url(#f11hc03vhmqkgu)" height="60.8047" id="EmployeeStore" style="stroke:#A80036;stroke-width:1.5;" width="188" x="228.5" y="666.5"/><ellipse cx="271.4" cy="682.5" fill="#ADD1B2" rx="11" ry="11" style="stroke:#A80036;stroke-width:1.0;"/><path d="M274.3688,688.1406 Q273.7906,688.4375 273.15,688.5781 Q272.5094,688.7344 271.8063,688.7344 Q269.3063,688.7344 267.9781,687.0938 Q266.6656,685.4375 266.6656,682.3125 Q266.6656,679.1875 267.9781,677.5313 Q269.3063,675.875 271.8063,675.875 Q272.5094,675.875 273.15,676.0313 Q273.8063,676.1875 274.3688,676.4844 L274.3688,679.2031 Q273.7438,678.625 273.15,678.3594 Q272.5563,678.0781 271.9313,678.0781 Q270.5875,678.0781 269.9,679.1563 Q269.2125,680.2188 269.2125,682.3125 Q269.2125,684.4063 269.9,685.4844 Q270.5875,686.5469 271.9313,686.5469 Q272.5563,686.5469 273.15,686.2813 Q273.7438,686 274.3688,685.4219 L274.3688,688.1406 Z " fill="#000000"/><text fill="#000000" font-family="sans-serif" font-size="12" lengthAdjust="spacing" textLength="94" x="291.6" y="686.6543">EmployeeStore</text><line style="stroke:#A80036;stroke-width:1.5;" x1="229.5" x2="415.5" y1="698.5" y2="698.5"/><line style="stroke:#A80036;stroke-width:1.5;" x1="229.5" x2="415.5" y1="706.5" y2="706.5"/><text fill="#000000" font-family="sans-serif" font-size="11" lengthAdjust="spacing" textLength="176" x="234.5" y="720.7104">+getEmployeesWithRole(roleId)</text><!--MD5=[cedd4967a54d65e273403224efb15753]
class ListEmployeeController--><rect codeLine="39" fill="#FEFECE" filter="url(#f11hc03vhmqkgu)" height="73.6094" id="ListEmployeeController" style="stroke:#A80036;stroke-width:1.5;" width="179" x="240" y="116"/><ellipse cx="257.25" cy="132" fill="#ADD1B2" rx="11" ry="11" style="stroke:#A80036;stroke-width:1.0;"/><path d="M260.2188,137.6406 Q259.6406,137.9375 259,138.0781 Q258.3594,138.2344 257.6563,138.2344 Q255.1563,138.2344 253.8281,136.5938 Q252.5156,134.9375 252.5156,131.8125 Q252.5156,128.6875 253.8281,127.0313 Q255.1563,125.375 257.6563,125.375 Q258.3594,125.375 259,125.5313 Q259.6563,125.6875 260.2188,125.9844 L260.2188,128.7031 Q259.5938,128.125 259,127.8594 Q258.4063,127.5781 257.7813,127.5781 Q256.4375,127.5781 255.75,128.6563 Q255.0625,129.7188 255.0625,131.8125 Q255.0625,133.9063 255.75,134.9844 Q256.4375,136.0469 257.7813,136.0469 Q258.4063,136.0469 259,135.7813 Q259.5938,135.5 260.2188,134.9219 L260.2188,137.6406 Z " fill="#000000"/><text fill="#000000" font-family="sans-serif" font-size="12" lengthAdjust="spacing" textLength="142" x="271.75" y="136.1543">ListEmployeeController</text><line style="stroke:#A80036;stroke-width:1.5;" x1="241" x2="418" y1="148" y2="148"/><line style="stroke:#A80036;stroke-width:1.5;" x1="241" x2="418" y1="156" y2="156"/><text fill="#000000" font-family="sans-serif" font-size="11" lengthAdjust="spacing" textLength="66" x="246" y="170.2104">+getRoles()</text><text fill="#000000" font-family="sans-serif" font-size="11" lengthAdjust="spacing" textLength="167" x="246" y="183.0151">+getEmployeesByRoleId(role)</text><!--MD5=[45d42ff7800d812d5f83c7d3273eb427]
class UserRole--><rect codeLine="44" fill="#FEFECE" filter="url(#f11hc03vhmqkgu)" height="73.6094" id="UserRole" style="stroke:#A80036;stroke-width:1.5;" width="117" x="7" y="926"/><ellipse cx="35.05" cy="942" fill="#ADD1B2" rx="11" ry="11" style="stroke:#A80036;stroke-width:1.0;"/><path d="M38.0188,947.6406 Q37.4406,947.9375 36.8,948.0781 Q36.1594,948.2344 35.4563,948.2344 Q32.9563,948.2344 31.6281,946.5938 Q30.3156,944.9375 30.3156,941.8125 Q30.3156,938.6875 31.6281,937.0313 Q32.9563,935.375 35.4563,935.375 Q36.1594,935.375 36.8,935.5313 Q37.4563,935.6875 38.0188,935.9844 L38.0188,938.7031 Q37.3938,938.125 36.8,937.8594 Q36.2063,937.5781 35.5813,937.5781 Q34.2375,937.5781 33.55,938.6563 Q32.8625,939.7188 32.8625,941.8125 Q32.8625,943.9063 33.55,944.9844 Q34.2375,946.0469 35.5813,946.0469 Q36.2063,946.0469 36.8,945.7813 Q37.3938,945.5 38.0188,944.9219 L38.0188,947.6406 Z " fill="#000000"/><text fill="#000000" font-family="sans-serif" font-size="12" lengthAdjust="spacing" textLength="56" x="51.95" y="946.1543">UserRole</text><line style="stroke:#A80036;stroke-width:1.5;" x1="8" x2="123" y1="958" y2="958"/><text fill="#000000" font-family="sans-serif" font-size="11" lengthAdjust="spacing" textLength="52" x="13" y="972.2104">-String id</text><text fill="#000000" font-family="sans-serif" font-size="11" lengthAdjust="spacing" textLength="105" x="13" y="985.0151">-String description</text><line style="stroke:#A80036;stroke-width:1.5;" x1="8" x2="123" y1="991.6094" y2="991.6094"/><!--MD5=[40dd02f864c4f59f0579702d47e0d37b]
class UserRolesStore--><rect codeLine="49" fill="#FEFECE" filter="url(#f11hc03vhmqkgu)" height="48" id="UserRolesStore" style="stroke:#A80036;stroke-width:1.5;" width="129" x="313" y="801"/><ellipse cx="328" cy="817" fill="#ADD1B2" rx="11" ry="11" style="stroke:#A80036;stroke-width:1.0;"/><path d="M330.9688,822.6406 Q330.3906,822.9375 329.75,823.0781 Q329.1094,823.2344 328.4063,823.2344 Q325.9063,823.2344 324.5781,821.5938 Q323.2656,819.9375 323.2656,816.8125 Q323.2656,813.6875 324.5781,812.0313 Q325.9063,810.375 328.4063,810.375 Q329.1094,810.375 329.75,810.5313 Q330.4063,810.6875 330.9688,810.9844 L330.9688,813.7031 Q330.3438,813.125 329.75,812.8594 Q329.1563,812.5781 328.5313,812.5781 Q327.1875,812.5781 326.5,813.6563 Q325.8125,814.7188 325.8125,816.8125 Q325.8125,818.9063 326.5,819.9844 Q327.1875,821.0469 328.5313,821.0469 Q329.1563,821.0469 329.75,820.7813 Q330.3438,820.5 330.9688,819.9219 L330.9688,822.6406 Z " fill="#000000"/><text fill="#000000" font-family="sans-serif" font-size="12" lengthAdjust="spacing" textLength="97" x="342" y="821.1543">UserRolesStore</text><line style="stroke:#A80036;stroke-width:1.5;" x1="314" x2="441" y1="833" y2="833"/><line style="stroke:#A80036;stroke-width:1.5;" x1="314" x2="441" y1="841" y2="841"/><!--MD5=[1648e653497aaae0b857fb5a1aa684e5]
class ListEmployeeUI--><rect codeLine="53" fill="#FEFECE" filter="url(#f11hc03vhmqkgu)" height="48" id="ListEmployeeUI" style="stroke:#A80036;stroke-width:1.5;" width="125" x="267" y="7"/><ellipse cx="282" cy="23" fill="#ADD1B2" rx="11" ry="11" style="stroke:#A80036;stroke-width:1.0;"/><path d="M284.9688,28.6406 Q284.3906,28.9375 283.75,29.0781 Q283.1094,29.2344 282.4063,29.2344 Q279.9063,29.2344 278.5781,27.5938 Q277.2656,25.9375 277.2656,22.8125 Q277.2656,19.6875 278.5781,18.0313 Q279.9063,16.375 282.4063,16.375 Q283.1094,16.375 283.75,16.5313 Q284.4063,16.6875 284.9688,16.9844 L284.9688,19.7031 Q284.3438,19.125 283.75,18.8594 Q283.1563,18.5781 282.5313,18.5781 Q281.1875,18.5781 280.5,19.6563 Q279.8125,20.7188 279.8125,22.8125 Q279.8125,24.9063 280.5,25.9844 Q281.1875,27.0469 282.5313,27.0469 Q283.1563,27.0469 283.75,26.7813 Q284.3438,26.5 284.9688,25.9219 L284.9688,28.6406 Z " fill="#000000"/><text fill="#000000" font-family="sans-serif" font-size="12" lengthAdjust="spacing" textLength="93" x="296" y="27.1543">ListEmployeeUI</text><line style="stroke:#A80036;stroke-width:1.5;" x1="268" x2="391" y1="39" y2="39"/><line style="stroke:#A80036;stroke-width:1.5;" x1="268" x2="391" y1="47" y2="47"/><!--MD5=[1a586c3a4709423d02ac896cff2c39b6]
link ListEmployeeUI to ListEmployeeController--><path codeLine="55" d="M329.5,55.14 C329.5,70.83 329.5,92 329.5,110.55 " fill="none" id="ListEmployeeUI-to-ListEmployeeController" style="stroke:#A80036;stroke-width:1.0;stroke-dasharray:7.0,7.0;"/><polygon fill="#A80036" points="329.5,115.71,333.5,106.71,329.5,110.71,325.5,106.71,329.5,115.71" style="stroke:#A80036;stroke-width:1.0;"/><!--MD5=[3445064b1b77df7829934ecddd3250cd]
link ListEmployeeController to Employee--><path codeLine="56" d="M324.71,190.15 C317.49,244.57 303.67,348.88 294.03,421.58 " fill="none" id="ListEmployeeController-to-Employee" style="stroke:#A80036;stroke-width:1.0;stroke-dasharray:7.0,7.0;"/><polygon fill="#A80036" points="293.34,426.76,298.488,418.3637,293.9971,421.8034,290.5574,417.3124,293.34,426.76" style="stroke:#A80036;stroke-width:1.0;"/><!--MD5=[fdf3f1dae370c95101789c1677ee20c5]
link ListEmployeeController to Company--><path codeLine="57" d="M366.96,190.34 C384.62,207.46 406.01,228.21 425.38,247 " fill="none" id="ListEmployeeController-to-Company" style="stroke:#A80036;stroke-width:1.0;stroke-dasharray:7.0,7.0;"/><polygon fill="#A80036" points="429.23,250.74,425.5648,241.5985,425.6448,247.2548,419.9885,247.3348,429.23,250.74" style="stroke:#A80036;stroke-width:1.0;"/><!--MD5=[717d4b03d3c4372f4eafe5e342a0a7dd]
link Company to AuthFacade--><path codeLine="59" d="M537.59,350.07 C545.24,359.2 551.98,369.27 556.5,380 C593.98,468.9 583.28,584.73 572.9,648.57 " fill="none" id="Company-to-AuthFacade" style="stroke:#A80036;stroke-width:1.0;stroke-dasharray:7.0,7.0;"/><polygon fill="#A80036" points="572.03,653.83,577.4667,645.6177,572.8589,648.8992,569.5775,644.2914,572.03,653.83" style="stroke:#A80036;stroke-width:1.0;"/><!--MD5=[ce859576cba61219b3cb4d2d23fdcd81]
link Company to EmployeeStore--><path codeLine="60" d="M496.77,350.24 C514.09,407.94 533.24,505.23 495.5,577 C475.12,615.75 435.78,644.34 399.76,663.76 " fill="none" id="Company-to-EmployeeStore" style="stroke:#A80036;stroke-width:1.0;stroke-dasharray:7.0,7.0;"/><polygon fill="#A80036" points="394.93,666.32,404.7549,665.6339,399.3465,663.976,401.0045,658.5675,394.93,666.32" style="stroke:#A80036;stroke-width:1.0;"/><!--MD5=[27d36d3e9da4627279500943321b912e]
link EmployeeStore to AuthFacade--><path codeLine="61" d="M416.71,697 C437.04,697 458.41,697 478.36,697 " fill="none" id="EmployeeStore-to-AuthFacade" style="stroke:#A80036;stroke-width:1.0;"/><polygon fill="#A80036" points="483.41,697,474.41,693,478.41,697,474.41,701,483.41,697" style="stroke:#A80036;stroke-width:1.0;"/><text fill="#000000" font-family="sans-serif" font-size="13" lengthAdjust="spacing" textLength="30" x="435" y="690.0669">uses</text><!--MD5=[eed32de0063c056c269410cb00f5a5fb]
link Employee to EmployeeStore--><path codeLine="62" d="M298.47,577.07 C304.74,608.11 311.67,642.43 316.48,666.19 " fill="none" id="Employee-EmployeeStore" style="stroke:#A80036;stroke-width:1.0;"/><polygon fill="#000000" points="312.5096,610.6655,311.4206,620.1135,317.182,618.9492,312.5096,610.6655" style="stroke:#000000;stroke-width:1.0;"/><text fill="#000000" font-family="sans-serif" font-size="13" lengthAdjust="spacing" textLength="40" x="322.5" y="620.0669">stores</text><text fill="#000000" font-family="sans-serif" font-size="13" lengthAdjust="spacing" textLength="7" x="292.6528" y="597.6362">*</text><text fill="#000000" font-family="sans-serif" font-size="13" lengthAdjust="spacing" textLength="8" x="306.4134" y="655.3893">1</text><!--MD5=[09366576ee87d48d594df10cacc83f45]
link Company to Employee--><path codeLine="63" d="M431.8,350.05 C410.2,372.03 384.13,398.57 359.91,423.23 " fill="none" id="Company-to-Employee" style="stroke:#A80036;stroke-width:1.0;"/><polygon fill="#A80036" points="356.35,426.85,365.5062,423.2218,359.8496,423.2789,359.7925,417.6224,356.35,426.85" style="stroke:#A80036;stroke-width:1.0;"/><polygon fill="#000000" points="399.996,392.1332,408.4313,387.7404,404.2382,383.6212,399.996,392.1332" style="stroke:#000000;stroke-width:1.0;"/><text fill="#000000" font-family="sans-serif" font-size="13" lengthAdjust="spacing" textLength="39" x="412.5" y="393.0669">knows</text><text fill="#000000" font-family="sans-serif" font-size="13" lengthAdjust="spacing" textLength="8" x="416.5297" y="370.1335">1</text><text fill="#000000" font-family="sans-serif" font-size="13" lengthAdjust="spacing" textLength="7" x="355.9599" y="416.0248">*</text><!--MD5=[80759023006a42560d65306fecdb3e6e]
link UserRolesStore to UserRole--><path codeLine="65" d="M324.57,849.07 C268.94,873.32 181.65,911.37 124,936.5 " fill="none" id="UserRolesStore-UserRole" style="stroke:#A80036;stroke-width:1.0;"/><polygon fill="#000000" points="249.9165,889.5644,259.3825,888.6441,257.0337,883.2559,249.9165,889.5644" style="stroke:#000000;stroke-width:1.0;"/><text fill="#000000" font-family="sans-serif" font-size="13" lengthAdjust="spacing" textLength="40" x="263.5" y="892.0669">stores</text><text fill="#000000" font-family="sans-serif" font-size="13" lengthAdjust="spacing" textLength="8" x="301.9817" y="869.2437">1</text><text fill="#000000" font-family="sans-serif" font-size="13" lengthAdjust="spacing" textLength="7" x="131.9438" y="929.2442">*</text><!--MD5=[ddac47faed1feecabe817de7ecad21f7]
link AuthFacade to UserRolesStore--><path codeLine="66" d="M501.31,740.13 C473.05,759.27 440.52,781.31 415.9,797.99 " fill="none" id="AuthFacade-to-UserRolesStore" style="stroke:#A80036;stroke-width:1.0;stroke-dasharray:7.0,7.0;"/><polygon fill="#A80036" points="411.71,800.83,421.4065,799.1044,415.8526,798.0302,416.9268,792.4763,411.71,800.83" style="stroke:#A80036;stroke-width:1.0;"/><!--MD5=[1f12d177c84922ed4f166f09ee62ceaa]
link User to UserRole--><path codeLine="67" d="M97.31,350.08 C69,388.47 36.5,444.79 36.5,501 C36.5,501 36.5,501 36.5,826 C36.5,860.4 45.49,898.64 53.45,925.79 " fill="none" id="User-UserRole" style="stroke:#A80036;stroke-width:1.0;"/><polygon fill="#000000" points="41.1202,702.052,44.7377,693.2563,38.8768,692.8098,41.1202,702.052" style="stroke:#000000;stroke-width:1.0;"/><text fill="#000000" font-family="sans-serif" font-size="13" lengthAdjust="spacing" textLength="23" x="50.5" y="701.5669">has</text><text fill="#000000" font-family="sans-serif" font-size="13" lengthAdjust="spacing" textLength="8" x="82.9552" y="370.1677">1</text><text fill="#000000" font-family="sans-serif" font-size="13" lengthAdjust="spacing" textLength="7" x="43.6802" y="914.9395">*</text><!--MD5=[1e9705534ea2f5f3045e58998aa20e5a]
reverse link User to Employee--><path codeLine="69" d="M185.68,366.41 C199.71,385.71 215.18,407.01 229.61,426.85 " fill="none" id="User-backto-Employee" style="stroke:#A80036;stroke-width:1.0;"/><polygon fill="none" points="179.88,370.34,173.79,350.05,191.21,362.11,179.88,370.34" style="stroke:#A80036;stroke-width:1.0;"/><!--MD5=[ce19d4f29b13161992e622d73380cf40]
@startuml
skinparam classAttributeIconSize 0

class User {
  - String name
  - String email
  - String pwd
  - String roleId
}

class Employee {
  -String id
  -String name
  -String email
  -String phone
  -String address
  -int citizenCardNumber
  -String roleId
  
  +Employee(name,email,phone,address,citizenCardNumber,roleId)
}

class Company {
  -String designation
  +Company(designation)

  +getAuthFacade()
}

class AuthFacade {
  +existsRole(role)
  +getUserRoles()
  +getUsersWithRole(roleId)
}

class EmployeeStore {
  +getEmployeesWithRole(roleId)
}

class ListEmployeeController {
  +getRoles()
  +getEmployeesByRoleId(role)
}

class UserRole {
  -String id
  -String description
}

class UserRolesStore {

}

class ListEmployeeUI {}

ListEmployeeUI ..> ListEmployeeController
ListEmployeeController ..> Employee
ListEmployeeController ..> Company

Company ..> AuthFacade
Company ..> EmployeeStore
EmployeeStore -> AuthFacade : uses
Employee "*" - - "1" EmployeeStore : stores <
Company "1" - -> "*" Employee : knows >

UserRolesStore "1" - - "*" UserRole : stores >
AuthFacade ..> UserRolesStore
User "1" - - "*" UserRole : has >

User <|- - Employee 

@enduml

PlantUML version 1.2022.0(Tue Jan 11 16:16:42 WET 2022)
(GPL source distribution)
Java Runtime: Java(TM) SE Runtime Environment
JVM: Java HotSpot(TM) 64-Bit Server VM
Default Encoding: UTF-8
Language: en
Country: US
--></g></svg>