<?xml version="1.0" encoding="UTF-8" standalone="no"?><svg xmlns="http://www.w3.org/2000/svg" xmlns:xlink="http://www.w3.org/1999/xlink" contentScriptType="application/ecmascript" contentStyleType="text/css" height="806px" preserveAspectRatio="none" style="width:954px;height:806px;background:#FFFFFF;" version="1.1" viewBox="0 0 954 806" width="954px" zoomAndPan="magnify"><defs><filter height="300%" id="fh5o7s45me4r2" width="300%" x="-1" y="-1"><feGaussianBlur result="blurOut" stdDeviation="2.0"/><feColorMatrix in="blurOut" result="blurOut2" type="matrix" values="0 0 0 0 0 0 0 0 0 0 0 0 0 0 0 0 0 0 .4 0"/><feOffset dx="4.0" dy="4.0" in="blurOut2" result="blurOut3"/><feBlend in="SourceGraphic" in2="blurOut3" mode="normal"/></filter></defs><g><!--MD5=[3fd616f346a44cd59a91eb10b19e157c]
class User--><rect codeLine="3" fill="#FEFECE" filter="url(#fh5o7s45me4r2)" height="99.2188" id="User" style="stroke:#A80036;stroke-width:1.5;" width="90" x="460" y="283"/><ellipse cx="488.05" cy="299" fill="#ADD1B2" rx="11" ry="11" style="stroke:#A80036;stroke-width:1.0;"/><path d="M491.0188,304.6406 Q490.4406,304.9375 489.8,305.0781 Q489.1594,305.2344 488.4563,305.2344 Q485.9563,305.2344 484.6281,303.5938 Q483.3156,301.9375 483.3156,298.8125 Q483.3156,295.6875 484.6281,294.0313 Q485.9563,292.375 488.4563,292.375 Q489.1594,292.375 489.8,292.5313 Q490.4563,292.6875 491.0188,292.9844 L491.0188,295.7031 Q490.3938,295.125 489.8,294.8594 Q489.2063,294.5781 488.5813,294.5781 Q487.2375,294.5781 486.55,295.6563 Q485.8625,296.7188 485.8625,298.8125 Q485.8625,300.9063 486.55,301.9844 Q487.2375,303.0469 488.5813,303.0469 Q489.2063,303.0469 489.8,302.7813 Q490.3938,302.5 491.0188,301.9219 L491.0188,304.6406 Z " fill="#000000"/><text fill="#000000" font-family="sans-serif" font-size="12" lengthAdjust="spacing" textLength="29" x="504.95" y="303.1543">User</text><line style="stroke:#A80036;stroke-width:1.5;" x1="461" x2="549" y1="315" y2="315"/><text fill="#000000" font-family="sans-serif" font-size="11" lengthAdjust="spacing" textLength="78" x="466" y="329.2104">-name: String</text><text fill="#000000" font-family="sans-serif" font-size="11" lengthAdjust="spacing" textLength="77" x="466" y="342.0151">-email: String</text><text fill="#000000" font-family="sans-serif" font-size="11" lengthAdjust="spacing" textLength="69" x="466" y="354.8198">-pwd: String</text><text fill="#000000" font-family="sans-serif" font-size="11" lengthAdjust="spacing" textLength="78" x="466" y="367.6245">-roleId: String</text><line style="stroke:#A80036;stroke-width:1.5;" x1="461" x2="549" y1="374.2188" y2="374.2188"/><!--MD5=[7421f545a0d8420c5bec41e74b387d9c]
class Employee--><rect codeLine="10" fill="#FEFECE" filter="url(#fh5o7s45me4r2)" height="137.6328" id="Employee" style="stroke:#A80036;stroke-width:1.5;" width="388" x="311" y="491"/><ellipse cx="470.75" cy="507" fill="#ADD1B2" rx="11" ry="11" style="stroke:#A80036;stroke-width:1.0;"/><path d="M473.7188,512.6406 Q473.1406,512.9375 472.5,513.0781 Q471.8594,513.2344 471.1563,513.2344 Q468.6563,513.2344 467.3281,511.5938 Q466.0156,509.9375 466.0156,506.8125 Q466.0156,503.6875 467.3281,502.0313 Q468.6563,500.375 471.1563,500.375 Q471.8594,500.375 472.5,500.5313 Q473.1563,500.6875 473.7188,500.9844 L473.7188,503.7031 Q473.0938,503.125 472.5,502.8594 Q471.9063,502.5781 471.2813,502.5781 Q469.9375,502.5781 469.25,503.6563 Q468.5625,504.7188 468.5625,506.8125 Q468.5625,508.9063 469.25,509.9844 Q469.9375,511.0469 471.2813,511.0469 Q471.9063,511.0469 472.5,510.7813 Q473.0938,510.5 473.7188,509.9219 L473.7188,512.6406 Z " fill="#000000"/><text fill="#000000" font-family="sans-serif" font-size="12" lengthAdjust="spacing" textLength="60" x="491.25" y="511.1543">Employee</text><line style="stroke:#A80036;stroke-width:1.5;" x1="312" x2="698" y1="523" y2="523"/><text fill="#000000" font-family="sans-serif" font-size="11" lengthAdjust="spacing" textLength="56" x="317" y="537.2104">-id: String</text><text fill="#000000" font-family="sans-serif" font-size="11" lengthAdjust="spacing" textLength="81" x="317" y="550.0151">-phone: String</text><text fill="#000000" font-family="sans-serif" font-size="11" lengthAdjust="spacing" textLength="93" x="317" y="562.8198">-address: String</text><text fill="#000000" font-family="sans-serif" font-size="11" lengthAdjust="spacing" textLength="129" x="317" y="575.6245">-int citizenCardNumber</text><line style="stroke:#A80036;stroke-width:1.5;" x1="312" x2="698" y1="582.2188" y2="582.2188"/><text fill="#000000" font-family="sans-serif" font-size="11" lengthAdjust="spacing" textLength="376" x="317" y="596.4292">+Employee(name,email,phone,address,citizenCardNumber,roleId)</text><text fill="#000000" font-family="sans-serif" font-size="11" lengthAdjust="spacing" textLength="0" x="321" y="609.2339"/><text fill="#000000" font-family="sans-serif" font-size="11" lengthAdjust="spacing" textLength="104" x="317" y="622.0386">+hasRoleId(roleId)</text><!--MD5=[02e4b9b7573f1156f41e60aa5b4e25a4]
class Company--><rect codeLine="21" fill="#FEFECE" filter="url(#fh5o7s45me4r2)" height="163.2422" id="Company" style="stroke:#A80036;stroke-width:1.5;" width="244" x="159" y="251"/><ellipse cx="248.25" cy="267" fill="#ADD1B2" rx="11" ry="11" style="stroke:#A80036;stroke-width:1.0;"/><path d="M251.2188,272.6406 Q250.6406,272.9375 250,273.0781 Q249.3594,273.2344 248.6563,273.2344 Q246.1563,273.2344 244.8281,271.5938 Q243.5156,269.9375 243.5156,266.8125 Q243.5156,263.6875 244.8281,262.0313 Q246.1563,260.375 248.6563,260.375 Q249.3594,260.375 250,260.5313 Q250.6563,260.6875 251.2188,260.9844 L251.2188,263.7031 Q250.5938,263.125 250,262.8594 Q249.4063,262.5781 248.7813,262.5781 Q247.4375,262.5781 246.75,263.6563 Q246.0625,264.7188 246.0625,266.8125 Q246.0625,268.9063 246.75,269.9844 Q247.4375,271.0469 248.7813,271.0469 Q249.4063,271.0469 250,270.7813 Q250.5938,270.5 251.2188,269.9219 L251.2188,272.6406 Z " fill="#000000"/><text fill="#000000" font-family="sans-serif" font-size="12" lengthAdjust="spacing" textLength="57" x="268.75" y="271.1543">Company</text><line style="stroke:#A80036;stroke-width:1.5;" x1="160" x2="402" y1="283" y2="283"/><text fill="#000000" font-family="sans-serif" font-size="11" lengthAdjust="spacing" textLength="112" x="165" y="297.2104">-designation: String</text><text fill="#000000" font-family="sans-serif" font-size="11" lengthAdjust="spacing" textLength="142" x="165" y="310.0151">-authFacade: AuthFacade</text><text fill="#000000" font-family="sans-serif" font-size="11" lengthAdjust="spacing" textLength="184" x="165" y="322.8198">-employeeStore: EmployeeStore</text><text fill="#000000" font-family="sans-serif" font-size="11" lengthAdjust="spacing" textLength="232" x="165" y="335.6245">-employeeRoleStore: EmployeeRoleStore</text><line style="stroke:#A80036;stroke-width:1.5;" x1="160" x2="402" y1="342.2188" y2="342.2188"/><text fill="#000000" font-family="sans-serif" font-size="11" lengthAdjust="spacing" textLength="136" x="165" y="356.4292">+Company(designation)</text><text fill="#000000" font-family="sans-serif" font-size="11" lengthAdjust="spacing" textLength="0" x="169" y="369.2339"/><text fill="#000000" font-family="sans-serif" font-size="11" lengthAdjust="spacing" textLength="100" x="165" y="382.0386">+getAuthFacade()</text><text fill="#000000" font-family="sans-serif" font-size="11" lengthAdjust="spacing" textLength="121" x="165" y="394.8433">+getEmployeeStore()</text><text fill="#000000" font-family="sans-serif" font-size="11" lengthAdjust="spacing" textLength="145" x="165" y="407.6479">+getEmployeeRoleStore()</text><!--MD5=[8ae808d068a8995f06b9b3ec51357f0b]
class AuthFacade--><rect codeLine="34" fill="#FEFECE" filter="url(#fh5o7s45me4r2)" height="86.4141" id="AuthFacade" style="stroke:#A80036;stroke-width:1.5;" width="198" x="7" y="517"/><ellipse cx="64.25" cy="533" fill="#ADD1B2" rx="11" ry="11" style="stroke:#A80036;stroke-width:1.0;"/><path d="M67.2188,538.6406 Q66.6406,538.9375 66,539.0781 Q65.3594,539.2344 64.6563,539.2344 Q62.1563,539.2344 60.8281,537.5938 Q59.5156,535.9375 59.5156,532.8125 Q59.5156,529.6875 60.8281,528.0313 Q62.1563,526.375 64.6563,526.375 Q65.3594,526.375 66,526.5313 Q66.6563,526.6875 67.2188,526.9844 L67.2188,529.7031 Q66.5938,529.125 66,528.8594 Q65.4063,528.5781 64.7813,528.5781 Q63.4375,528.5781 62.75,529.6563 Q62.0625,530.7188 62.0625,532.8125 Q62.0625,534.9063 62.75,535.9844 Q63.4375,537.0469 64.7813,537.0469 Q65.4063,537.0469 66,536.7813 Q66.5938,536.5 67.2188,535.9219 L67.2188,538.6406 Z " fill="#000000"/><text fill="#000000" font-family="sans-serif" font-size="12" lengthAdjust="spacing" textLength="75" x="84.75" y="537.1543">AuthFacade</text><line style="stroke:#A80036;stroke-width:1.5;" x1="8" x2="204" y1="549" y2="549"/><line style="stroke:#A80036;stroke-width:1.5;" x1="8" x2="204" y1="557" y2="557"/><text fill="#000000" font-family="sans-serif" font-size="11" lengthAdjust="spacing" textLength="145" x="13" y="571.2104">+existsRole(String roleId)</text><text fill="#000000" font-family="sans-serif" font-size="11" lengthAdjust="spacing" textLength="93" x="13" y="584.0151">+getUserRoles()</text><text fill="#000000" font-family="sans-serif" font-size="11" lengthAdjust="spacing" textLength="186" x="13" y="596.8198">+getUsersWithRole(String roleId)</text><!--MD5=[829fb52c07ade3ad64ef85b99d1fca10]
class EmployeeStore--><rect codeLine="40" fill="#FEFECE" filter="url(#fh5o7s45me4r2)" height="86.4141" id="EmployeeStore" style="stroke:#A80036;stroke-width:1.5;" width="424" x="111" y="706"/><ellipse cx="271.75" cy="722" fill="#ADD1B2" rx="11" ry="11" style="stroke:#A80036;stroke-width:1.0;"/><path d="M274.7188,727.6406 Q274.1406,727.9375 273.5,728.0781 Q272.8594,728.2344 272.1563,728.2344 Q269.6563,728.2344 268.3281,726.5938 Q267.0156,724.9375 267.0156,721.8125 Q267.0156,718.6875 268.3281,717.0313 Q269.6563,715.375 272.1563,715.375 Q272.8594,715.375 273.5,715.5313 Q274.1563,715.6875 274.7188,715.9844 L274.7188,718.7031 Q274.0938,718.125 273.5,717.8594 Q272.9063,717.5781 272.2813,717.5781 Q270.9375,717.5781 270.25,718.6563 Q269.5625,719.7188 269.5625,721.8125 Q269.5625,723.9063 270.25,724.9844 Q270.9375,726.0469 272.2813,726.0469 Q272.9063,726.0469 273.5,725.7813 Q274.0938,725.5 274.7188,724.9219 L274.7188,727.6406 Z " fill="#000000"/><text fill="#000000" font-family="sans-serif" font-size="12" lengthAdjust="spacing" textLength="94" x="292.25" y="726.1543">EmployeeStore</text><line style="stroke:#A80036;stroke-width:1.5;" x1="112" x2="534" y1="738" y2="738"/><line style="stroke:#A80036;stroke-width:1.5;" x1="112" x2="534" y1="746" y2="746"/><text fill="#000000" font-family="sans-serif" font-size="11" lengthAdjust="spacing" textLength="412" x="117" y="760.2104">+createEmployee(name,phoneNumber,email,address,citizenCard,roleId)</text><text fill="#000000" font-family="sans-serif" font-size="11" lengthAdjust="spacing" textLength="154" x="117" y="773.0151">+saveEmployee(employee)</text><text fill="#000000" font-family="sans-serif" font-size="11" lengthAdjust="spacing" textLength="176" x="117" y="785.8198">+getEmployeesWithRole(roleId)</text><!--MD5=[cedd4967a54d65e273403224efb15753]
class ListEmployeeController--><rect codeLine="46" fill="#FEFECE" filter="url(#fh5o7s45me4r2)" height="73.6094" id="ListEmployeeController" style="stroke:#A80036;stroke-width:1.5;" width="179" x="191.5" y="116"/><ellipse cx="208.75" cy="132" fill="#ADD1B2" rx="11" ry="11" style="stroke:#A80036;stroke-width:1.0;"/><path d="M211.7188,137.6406 Q211.1406,137.9375 210.5,138.0781 Q209.8594,138.2344 209.1563,138.2344 Q206.6563,138.2344 205.3281,136.5938 Q204.0156,134.9375 204.0156,131.8125 Q204.0156,128.6875 205.3281,127.0313 Q206.6563,125.375 209.1563,125.375 Q209.8594,125.375 210.5,125.5313 Q211.1563,125.6875 211.7188,125.9844 L211.7188,128.7031 Q211.0938,128.125 210.5,127.8594 Q209.9063,127.5781 209.2813,127.5781 Q207.9375,127.5781 207.25,128.6563 Q206.5625,129.7188 206.5625,131.8125 Q206.5625,133.9063 207.25,134.9844 Q207.9375,136.0469 209.2813,136.0469 Q209.9063,136.0469 210.5,135.7813 Q211.0938,135.5 211.7188,134.9219 L211.7188,137.6406 Z " fill="#000000"/><text fill="#000000" font-family="sans-serif" font-size="12" lengthAdjust="spacing" textLength="142" x="223.25" y="136.1543">ListEmployeeController</text><line style="stroke:#A80036;stroke-width:1.5;" x1="192.5" x2="369.5" y1="148" y2="148"/><line style="stroke:#A80036;stroke-width:1.5;" x1="192.5" x2="369.5" y1="156" y2="156"/><text fill="#000000" font-family="sans-serif" font-size="11" lengthAdjust="spacing" textLength="66" x="197.5" y="170.2104">+getRoles()</text><text fill="#000000" font-family="sans-serif" font-size="11" lengthAdjust="spacing" textLength="167" x="197.5" y="183.0151">+getEmployeesByRoleId(role)</text><!--MD5=[b5be973b5d3f2d8f249510587bb68e72]
class EmployeeRole--><rect codeLine="51" fill="#FEFECE" filter="url(#fh5o7s45me4r2)" height="73.6094" id="EmployeeRole" style="stroke:#A80036;stroke-width:1.5;" width="121" x="578.5" y="712"/><ellipse cx="594.4" cy="728" fill="#ADD1B2" rx="11" ry="11" style="stroke:#A80036;stroke-width:1.0;"/><path d="M597.3688,733.6406 Q596.7906,733.9375 596.15,734.0781 Q595.5094,734.2344 594.8063,734.2344 Q592.3063,734.2344 590.9781,732.5938 Q589.6656,730.9375 589.6656,727.8125 Q589.6656,724.6875 590.9781,723.0313 Q592.3063,721.375 594.8063,721.375 Q595.5094,721.375 596.15,721.5313 Q596.8063,721.6875 597.3688,721.9844 L597.3688,724.7031 Q596.7438,724.125 596.15,723.8594 Q595.5563,723.5781 594.9313,723.5781 Q593.5875,723.5781 592.9,724.6563 Q592.2125,725.7188 592.2125,727.8125 Q592.2125,729.9063 592.9,730.9844 Q593.5875,732.0469 594.9313,732.0469 Q595.5563,732.0469 596.15,731.7813 Q596.7438,731.5 597.3688,730.9219 L597.3688,733.6406 Z " fill="#000000"/><text fill="#000000" font-family="sans-serif" font-size="12" lengthAdjust="spacing" textLength="87" x="608.6" y="732.1543">EmployeeRole</text><line style="stroke:#A80036;stroke-width:1.5;" x1="579.5" x2="698.5" y1="744" y2="744"/><text fill="#000000" font-family="sans-serif" font-size="11" lengthAdjust="spacing" textLength="56" x="584.5" y="758.2104">-id: String</text><text fill="#000000" font-family="sans-serif" font-size="11" lengthAdjust="spacing" textLength="109" x="584.5" y="771.0151">-description: String</text><line style="stroke:#A80036;stroke-width:1.5;" x1="579.5" x2="698.5" y1="777.6094" y2="777.6094"/><!--MD5=[1648e653497aaae0b857fb5a1aa684e5]
class ListEmployeeUI--><rect codeLine="56" fill="#FEFECE" filter="url(#fh5o7s45me4r2)" height="48" id="ListEmployeeUI" style="stroke:#A80036;stroke-width:1.5;" width="125" x="218.5" y="7"/><ellipse cx="233.5" cy="23" fill="#ADD1B2" rx="11" ry="11" style="stroke:#A80036;stroke-width:1.0;"/><path d="M236.4688,28.6406 Q235.8906,28.9375 235.25,29.0781 Q234.6094,29.2344 233.9063,29.2344 Q231.4063,29.2344 230.0781,27.5938 Q228.7656,25.9375 228.7656,22.8125 Q228.7656,19.6875 230.0781,18.0313 Q231.4063,16.375 233.9063,16.375 Q234.6094,16.375 235.25,16.5313 Q235.9063,16.6875 236.4688,16.9844 L236.4688,19.7031 Q235.8438,19.125 235.25,18.8594 Q234.6563,18.5781 234.0313,18.5781 Q232.6875,18.5781 232,19.6563 Q231.3125,20.7188 231.3125,22.8125 Q231.3125,24.9063 232,25.9844 Q232.6875,27.0469 234.0313,27.0469 Q234.6563,27.0469 235.25,26.7813 Q235.8438,26.5 236.4688,25.9219 L236.4688,28.6406 Z " fill="#000000"/><text fill="#000000" font-family="sans-serif" font-size="12" lengthAdjust="spacing" textLength="93" x="247.5" y="27.1543">ListEmployeeUI</text><line style="stroke:#A80036;stroke-width:1.5;" x1="219.5" x2="342.5" y1="39" y2="39"/><line style="stroke:#A80036;stroke-width:1.5;" x1="219.5" x2="342.5" y1="47" y2="47"/><!--MD5=[40ed7a25b95491635849acdfef2b0459]
class EmployeeRolesStore--><rect codeLine="58" fill="#FEFECE" filter="url(#fh5o7s45me4r2)" height="86.4141" id="EmployeeRolesStore" style="stroke:#A80036;stroke-width:1.5;" width="206" x="734" y="517"/><ellipse cx="769.7" cy="533" fill="#ADD1B2" rx="11" ry="11" style="stroke:#A80036;stroke-width:1.0;"/><path d="M772.6688,538.6406 Q772.0906,538.9375 771.45,539.0781 Q770.8094,539.2344 770.1063,539.2344 Q767.6063,539.2344 766.2781,537.5938 Q764.9656,535.9375 764.9656,532.8125 Q764.9656,529.6875 766.2781,528.0313 Q767.6063,526.375 770.1063,526.375 Q770.8094,526.375 771.45,526.5313 Q772.1063,526.6875 772.6688,526.9844 L772.6688,529.7031 Q772.0438,529.125 771.45,528.8594 Q770.8563,528.5781 770.2313,528.5781 Q768.8875,528.5781 768.2,529.6563 Q767.5125,530.7188 767.5125,532.8125 Q767.5125,534.9063 768.2,535.9844 Q768.8875,537.0469 770.2313,537.0469 Q770.8563,537.0469 771.45,536.7813 Q772.0438,536.5 772.6688,535.9219 L772.6688,538.6406 Z " fill="#000000"/><text fill="#000000" font-family="sans-serif" font-size="12" lengthAdjust="spacing" textLength="128" x="788.3" y="537.1543">EmployeeRolesStore</text><line style="stroke:#A80036;stroke-width:1.5;" x1="735" x2="939" y1="549" y2="549"/><line style="stroke:#A80036;stroke-width:1.5;" x1="735" x2="939" y1="557" y2="557"/><text fill="#000000" font-family="sans-serif" font-size="11" lengthAdjust="spacing" textLength="194" x="740" y="571.2104">+addEmployeeRole(id,description)</text><text fill="#000000" font-family="sans-serif" font-size="11" lengthAdjust="spacing" textLength="66" x="740" y="584.0151">+getRoles()</text><text fill="#000000" font-family="sans-serif" font-size="11" lengthAdjust="spacing" textLength="85" x="740" y="596.8198">+existsRole(id)</text><!--MD5=[1a586c3a4709423d02ac896cff2c39b6]
link ListEmployeeUI to ListEmployeeController--><path codeLine="64" d="M281,55.14 C281,70.83 281,92 281,110.55 " fill="none" id="ListEmployeeUI-to-ListEmployeeController" style="stroke:#A80036;stroke-width:1.0;stroke-dasharray:7.0,7.0;"/><polygon fill="#A80036" points="281,115.71,285,106.71,281,110.71,277,106.71,281,115.71" style="stroke:#A80036;stroke-width:1.0;"/><!--MD5=[fdf3f1dae370c95101789c1677ee20c5]
link ListEmployeeController to Company--><path codeLine="65" d="M281,190.35 C281,206.39 281,225.98 281,245.41 " fill="none" id="ListEmployeeController-to-Company" style="stroke:#A80036;stroke-width:1.0;stroke-dasharray:7.0,7.0;"/><polygon fill="#A80036" points="281,250.88,285,241.88,281,245.88,277,241.88,281,250.88" style="stroke:#A80036;stroke-width:1.0;"/><!--MD5=[717d4b03d3c4372f4eafe5e342a0a7dd]
link Company to AuthFacade--><path codeLine="67" d="M218.32,414.27 C192.7,447.28 164,484.27 142.02,512.59 " fill="none" id="Company-to-AuthFacade" style="stroke:#A80036;stroke-width:1.0;stroke-dasharray:7.0,7.0;"/><polygon fill="#A80036" points="138.82,516.7,147.5064,512.0581,141.8927,512.7555,141.1952,507.1419,138.82,516.7" style="stroke:#A80036;stroke-width:1.0;"/><!--MD5=[ce859576cba61219b3cb4d2d23fdcd81]
link Company to EmployeeStore--><path codeLine="68" d="M279.81,414.18 C280,473.82 282.55,556.84 293,629 C296.48,653.01 302.8,679.21 308.74,700.9 " fill="none" id="Company-to-EmployeeStore" style="stroke:#A80036;stroke-width:1.0;stroke-dasharray:7.0,7.0;"/><polygon fill="#A80036" points="310.08,705.74,311.5491,696.0013,308.7536,700.9192,303.8357,698.1236,310.08,705.74" style="stroke:#A80036;stroke-width:1.0;"/><!--MD5=[eed32de0063c056c269410cb00f5a5fb]
link Employee to EmployeeStore--><path codeLine="69" d="M438.78,629.04 C413.78,654.73 386.07,683.2 364.03,705.84 " fill="none" id="Employee-EmployeeStore" style="stroke:#A80036;stroke-width:1.0;"/><polygon fill="#000000" points="417.4874,663.9834,409.0726,668.4153,413.2847,672.515,417.4874,663.9834" style="stroke:#000000;stroke-width:1.0;"/><text fill="#000000" font-family="sans-serif" font-size="13" lengthAdjust="spacing" textLength="40" x="423" y="672.0669">stores</text><text fill="#000000" font-family="sans-serif" font-size="13" lengthAdjust="spacing" textLength="7" x="424.9169" y="648.6659">*</text><text fill="#000000" font-family="sans-serif" font-size="13" lengthAdjust="spacing" textLength="8" x="361.9317" y="694.8105">1</text><!--MD5=[09366576ee87d48d594df10cacc83f45]
link Company to Employee--><path codeLine="70" d="M319.36,414.07 C329.3,430.63 340.94,447.19 354,461 C362.82,470.32 372.69,479.17 383.05,487.47 " fill="none" id="Company-to-Employee" style="stroke:#A80036;stroke-width:1.0;"/><polygon fill="#A80036" points="387.2,490.74,382.6126,482.0248,383.2749,487.6427,377.6569,488.305,387.2,490.74" style="stroke:#A80036;stroke-width:1.0;"/><polygon fill="#000000" points="362.2769,456.3429,358.5687,447.585,354.1292,451.4373,362.2769,456.3429" style="stroke:#000000;stroke-width:1.0;"/><text fill="#000000" font-family="sans-serif" font-size="13" lengthAdjust="spacing" textLength="39" x="368" y="457.0669">knows</text><text fill="#000000" font-family="sans-serif" font-size="13" lengthAdjust="spacing" textLength="8" x="314.5276" y="434.343">1</text><text fill="#000000" font-family="sans-serif" font-size="13" lengthAdjust="spacing" textLength="7" x="367.6909" y="479.9168">*</text><!--MD5=[ab8b6bcf2b160f8e5ddbe85b185c2b25]
link EmployeeRolesStore to EmployeeRole--><path codeLine="72" d="M792.07,603.43 C757.5,636.08 710.24,680.72 677.41,711.72 " fill="none" id="EmployeeRolesStore-EmployeeRole" style="stroke:#A80036;stroke-width:1.0;"/><polygon fill="#000000" points="733.3649,670.9995,741.9588,666.9256,737.9229,662.6523,733.3649,670.9995" style="stroke:#000000;stroke-width:1.0;"/><text fill="#000000" font-family="sans-serif" font-size="13" lengthAdjust="spacing" textLength="40" x="746" y="672.0669">stores</text><text fill="#000000" font-family="sans-serif" font-size="13" lengthAdjust="spacing" textLength="8" x="776.2718" y="623.5915">1</text><text fill="#000000" font-family="sans-serif" font-size="13" lengthAdjust="spacing" textLength="7" x="676.6283" y="700.8571">*</text><!--MD5=[3b970883116b5f582200a271937577ff]
link Company to EmployeeRolesStore--><path codeLine="73" d="M398.25,414.06 C429.2,432.09 463.37,449.32 497,461 C590.22,493.39 623.5,459.44 717,491 C734.42,496.88 752.19,505.35 768.52,514.33 " fill="none" id="Company-to-EmployeeRolesStore" style="stroke:#A80036;stroke-width:1.0;stroke-dasharray:7.0,7.0;"/><polygon fill="#A80036" points="773.09,516.87,767.1652,509.0026,768.7192,514.4418,763.28,515.9958,773.09,516.87" style="stroke:#A80036;stroke-width:1.0;"/><!--MD5=[1831a7701810a27d6381c866aeaf1707]
link Employee to EmployeeRole--><path codeLine="74" d="M553.76,629.04 C573.81,657.03 596.23,688.31 613.04,711.77 " fill="none" id="Employee-EmployeeRole" style="stroke:#A80036;stroke-width:1.0;"/><polygon fill="#000000" points="592.9123,671.6307,590.0329,662.5665,585.255,665.9901,592.9123,671.6307" style="stroke:#000000;stroke-width:1.0;"/><text fill="#000000" font-family="sans-serif" font-size="13" lengthAdjust="spacing" textLength="23" x="599" y="672.0669">has</text><text fill="#000000" font-family="sans-serif" font-size="13" lengthAdjust="spacing" textLength="8" x="550.1661" y="648.6659">1</text><text fill="#000000" font-family="sans-serif" font-size="13" lengthAdjust="spacing" textLength="7" x="600.7924" y="700.916">*</text><!--MD5=[48afc90033d240f0c7566c2ff402e39b]
link User to Employee--><path codeLine="76" d="M505,382.15 C505,413.87 505,455.73 505,490.76 " fill="none" id="User-Employee" style="stroke:#A80036;stroke-width:1.0;"/><polygon fill="#000000" points="510,447.5664,507.0611,456.6115,512.9389,456.6115,510,447.5664" style="stroke:#000000;stroke-width:1.0;"/><text fill="#000000" font-family="sans-serif" font-size="13" lengthAdjust="spacing" textLength="96" x="519" y="457.0669">corresponds to</text><!--MD5=[2ae704248d4ef3459eb43ed99ce91214]
@startuml
skinparam classAttributeIconSize 0

class User {
  -name: String
  -email: String
  -pwd: String
  -roleId: String
}

class Employee {
  -id: String
  -phone: String
  -address: String
  -int citizenCardNumber
  
  +Employee(name,email,phone,address,citizenCardNumber,roleId)

  +hasRoleId(roleId)
}

class Company {
  -designation: String
  -authFacade: AuthFacade
  -employeeStore: EmployeeStore
  -employeeRoleStore: EmployeeRoleStore
  
  +Company(designation)

  +getAuthFacade()
  +getEmployeeStore()
  +getEmployeeRoleStore()
}

class AuthFacade {
  +existsRole(String roleId)
  +getUserRoles()
  +getUsersWithRole(String roleId)
}

class EmployeeStore {
  +createEmployee(name,phoneNumber,email,address,citizenCard,roleId)
  +saveEmployee(employee)
  +getEmployeesWithRole(roleId)
}

class ListEmployeeController {
  +getRoles()
  +getEmployeesByRoleId(role)
}

class EmployeeRole {
  -id: String
  -description: String
}

class ListEmployeeUI {}

class EmployeeRolesStore {
  +addEmployeeRole(id,description)
  +getRoles()
  +existsRole(id)
}

ListEmployeeUI ..> ListEmployeeController
ListEmployeeController ..> Company

Company ..> AuthFacade
Company ..> EmployeeStore
Employee "*" - - "1" EmployeeStore : stores <
Company "1" - -> "*" Employee : knows >

EmployeeRolesStore "1" - - "*" EmployeeRole : stores >
Company ..> EmployeeRolesStore
Employee "1" - - "*" EmployeeRole : has >

User - - Employee : corresponds to <

@enduml

PlantUML version 1.2022.0(Tue Jan 11 16:16:42 WET 2022)
(GPL source distribution)
Java Runtime: OpenJDK Runtime Environment
JVM: OpenJDK 64-Bit Server VM
Default Encoding: UTF-8
Language: en
Country: US
--></g></svg>