<?xml version="1.0" encoding="UTF-8" standalone="no"?><svg xmlns="http://www.w3.org/2000/svg" xmlns:xlink="http://www.w3.org/1999/xlink" contentScriptType="application/ecmascript" contentStyleType="text/css" height="806px" preserveAspectRatio="none" style="width:1004px;height:806px;background:#FFFFFF;" version="1.1" viewBox="0 0 1004 806" width="1004px" zoomAndPan="magnify"><defs><filter height="300%" id="fdsv7713ddrds" width="300%" x="-1" y="-1"><feGaussianBlur result="blurOut" stdDeviation="2.0"/><feColorMatrix in="blurOut" result="blurOut2" type="matrix" values="0 0 0 0 0 0 0 0 0 0 0 0 0 0 0 0 0 0 .4 0"/><feOffset dx="4.0" dy="4.0" in="blurOut2" result="blurOut3"/><feBlend in="SourceGraphic" in2="blurOut3" mode="normal"/></filter></defs><g><!--MD5=[3fd616f346a44cd59a91eb10b19e157c]
class User--><rect codeLine="3" fill="#FEFECE" filter="url(#fdsv7713ddrds)" height="99.2188" id="User" style="stroke:#A80036;stroke-width:1.5;" width="90" x="549.47" y="283"/><ellipse cx="577.52" cy="299" fill="#ADD1B2" rx="11" ry="11" style="stroke:#A80036;stroke-width:1.0;"/><path d="M580.4888,304.6406 Q579.9106,304.9375 579.27,305.0781 Q578.6294,305.2344 577.9263,305.2344 Q575.4263,305.2344 574.0981,303.5938 Q572.7856,301.9375 572.7856,298.8125 Q572.7856,295.6875 574.0981,294.0313 Q575.4263,292.375 577.9263,292.375 Q578.6294,292.375 579.27,292.5313 Q579.9263,292.6875 580.4888,292.9844 L580.4888,295.7031 Q579.8638,295.125 579.27,294.8594 Q578.6763,294.5781 578.0513,294.5781 Q576.7075,294.5781 576.02,295.6563 Q575.3325,296.7188 575.3325,298.8125 Q575.3325,300.9063 576.02,301.9844 Q576.7075,303.0469 578.0513,303.0469 Q578.6763,303.0469 579.27,302.7813 Q579.8638,302.5 580.4888,301.9219 L580.4888,304.6406 Z " fill="#000000"/><text fill="#000000" font-family="sans-serif" font-size="12" lengthAdjust="spacing" textLength="29" x="594.42" y="303.1543">User</text><line style="stroke:#A80036;stroke-width:1.5;" x1="550.47" x2="638.47" y1="315" y2="315"/><text fill="#000000" font-family="sans-serif" font-size="11" lengthAdjust="spacing" textLength="78" x="555.47" y="329.2104">-name: String</text><text fill="#000000" font-family="sans-serif" font-size="11" lengthAdjust="spacing" textLength="77" x="555.47" y="342.0151">-email: String</text><text fill="#000000" font-family="sans-serif" font-size="11" lengthAdjust="spacing" textLength="69" x="555.47" y="354.8198">-pwd: String</text><text fill="#000000" font-family="sans-serif" font-size="11" lengthAdjust="spacing" textLength="78" x="555.47" y="367.6245">-roleId: String</text><line style="stroke:#A80036;stroke-width:1.5;" x1="550.47" x2="638.47" y1="374.2188" y2="374.2188"/><!--MD5=[7421f545a0d8420c5bec41e74b387d9c]
class Employee--><rect codeLine="10" fill="#FEFECE" filter="url(#fdsv7713ddrds)" height="137.6328" id="Employee" style="stroke:#A80036;stroke-width:1.5;" width="388" x="602.47" y="491"/><ellipse cx="762.22" cy="507" fill="#ADD1B2" rx="11" ry="11" style="stroke:#A80036;stroke-width:1.0;"/><path d="M765.1888,512.6406 Q764.6106,512.9375 763.97,513.0781 Q763.3294,513.2344 762.6263,513.2344 Q760.1263,513.2344 758.7981,511.5938 Q757.4856,509.9375 757.4856,506.8125 Q757.4856,503.6875 758.7981,502.0313 Q760.1263,500.375 762.6263,500.375 Q763.3294,500.375 763.97,500.5313 Q764.6263,500.6875 765.1888,500.9844 L765.1888,503.7031 Q764.5638,503.125 763.97,502.8594 Q763.3763,502.5781 762.7513,502.5781 Q761.4075,502.5781 760.72,503.6563 Q760.0325,504.7188 760.0325,506.8125 Q760.0325,508.9063 760.72,509.9844 Q761.4075,511.0469 762.7513,511.0469 Q763.3763,511.0469 763.97,510.7813 Q764.5638,510.5 765.1888,509.9219 L765.1888,512.6406 Z " fill="#000000"/><text fill="#000000" font-family="sans-serif" font-size="12" lengthAdjust="spacing" textLength="60" x="782.72" y="511.1543">Employee</text><line style="stroke:#A80036;stroke-width:1.5;" x1="603.47" x2="989.47" y1="523" y2="523"/><text fill="#000000" font-family="sans-serif" font-size="11" lengthAdjust="spacing" textLength="56" x="608.47" y="537.2104">-id: String</text><text fill="#000000" font-family="sans-serif" font-size="11" lengthAdjust="spacing" textLength="81" x="608.47" y="550.0151">-phone: String</text><text fill="#000000" font-family="sans-serif" font-size="11" lengthAdjust="spacing" textLength="93" x="608.47" y="562.8198">-address: String</text><text fill="#000000" font-family="sans-serif" font-size="11" lengthAdjust="spacing" textLength="153" x="608.47" y="575.6245">-citizenCardNumber: String</text><line style="stroke:#A80036;stroke-width:1.5;" x1="603.47" x2="989.47" y1="582.2188" y2="582.2188"/><text fill="#000000" font-family="sans-serif" font-size="11" lengthAdjust="spacing" textLength="376" x="608.47" y="596.4292">+Employee(name,email,phone,address,citizenCardNumber,roleId)</text><text fill="#000000" font-family="sans-serif" font-size="11" lengthAdjust="spacing" textLength="0" x="612.47" y="609.2339"/><text fill="#000000" font-family="sans-serif" font-size="11" lengthAdjust="spacing" textLength="104" x="608.47" y="622.0386">+hasRoleId(roleId)</text><!--MD5=[02e4b9b7573f1156f41e60aa5b4e25a4]
class Company--><rect codeLine="21" fill="#FEFECE" filter="url(#fdsv7713ddrds)" height="163.2422" id="Company" style="stroke:#A80036;stroke-width:1.5;" width="244" x="214.47" y="251"/><ellipse cx="303.72" cy="267" fill="#ADD1B2" rx="11" ry="11" style="stroke:#A80036;stroke-width:1.0;"/><path d="M306.6888,272.6406 Q306.1106,272.9375 305.47,273.0781 Q304.8294,273.2344 304.1263,273.2344 Q301.6263,273.2344 300.2981,271.5938 Q298.9856,269.9375 298.9856,266.8125 Q298.9856,263.6875 300.2981,262.0313 Q301.6263,260.375 304.1263,260.375 Q304.8294,260.375 305.47,260.5313 Q306.1263,260.6875 306.6888,260.9844 L306.6888,263.7031 Q306.0638,263.125 305.47,262.8594 Q304.8763,262.5781 304.2513,262.5781 Q302.9075,262.5781 302.22,263.6563 Q301.5325,264.7188 301.5325,266.8125 Q301.5325,268.9063 302.22,269.9844 Q302.9075,271.0469 304.2513,271.0469 Q304.8763,271.0469 305.47,270.7813 Q306.0638,270.5 306.6888,269.9219 L306.6888,272.6406 Z " fill="#000000"/><text fill="#000000" font-family="sans-serif" font-size="12" lengthAdjust="spacing" textLength="57" x="324.22" y="271.1543">Company</text><line style="stroke:#A80036;stroke-width:1.5;" x1="215.47" x2="457.47" y1="283" y2="283"/><text fill="#000000" font-family="sans-serif" font-size="11" lengthAdjust="spacing" textLength="112" x="220.47" y="297.2104">-designation: String</text><text fill="#000000" font-family="sans-serif" font-size="11" lengthAdjust="spacing" textLength="142" x="220.47" y="310.0151">-authFacade: AuthFacade</text><text fill="#000000" font-family="sans-serif" font-size="11" lengthAdjust="spacing" textLength="184" x="220.47" y="322.8198">-employeeStore: EmployeeStore</text><text fill="#000000" font-family="sans-serif" font-size="11" lengthAdjust="spacing" textLength="232" x="220.47" y="335.6245">-employeeRoleStore: EmployeeRoleStore</text><line style="stroke:#A80036;stroke-width:1.5;" x1="215.47" x2="457.47" y1="342.2188" y2="342.2188"/><text fill="#000000" font-family="sans-serif" font-size="11" lengthAdjust="spacing" textLength="136" x="220.47" y="356.4292">+Company(designation)</text><text fill="#000000" font-family="sans-serif" font-size="11" lengthAdjust="spacing" textLength="0" x="224.47" y="369.2339"/><text fill="#000000" font-family="sans-serif" font-size="11" lengthAdjust="spacing" textLength="100" x="220.47" y="382.0386">+getAuthFacade()</text><text fill="#000000" font-family="sans-serif" font-size="11" lengthAdjust="spacing" textLength="121" x="220.47" y="394.8433">+getEmployeeStore()</text><text fill="#000000" font-family="sans-serif" font-size="11" lengthAdjust="spacing" textLength="145" x="220.47" y="407.6479">+getEmployeeRoleStore()</text><!--MD5=[8ae808d068a8995f06b9b3ec51357f0b]
class AuthFacade--><rect codeLine="34" fill="#FEFECE" filter="url(#fdsv7713ddrds)" height="86.4141" id="AuthFacade" style="stroke:#A80036;stroke-width:1.5;" width="198" x="57.47" y="517"/><ellipse cx="114.72" cy="533" fill="#ADD1B2" rx="11" ry="11" style="stroke:#A80036;stroke-width:1.0;"/><path d="M117.6888,538.6406 Q117.1106,538.9375 116.47,539.0781 Q115.8294,539.2344 115.1263,539.2344 Q112.6263,539.2344 111.2981,537.5938 Q109.9856,535.9375 109.9856,532.8125 Q109.9856,529.6875 111.2981,528.0313 Q112.6263,526.375 115.1263,526.375 Q115.8294,526.375 116.47,526.5313 Q117.1263,526.6875 117.6888,526.9844 L117.6888,529.7031 Q117.0638,529.125 116.47,528.8594 Q115.8763,528.5781 115.2513,528.5781 Q113.9075,528.5781 113.22,529.6563 Q112.5325,530.7188 112.5325,532.8125 Q112.5325,534.9063 113.22,535.9844 Q113.9075,537.0469 115.2513,537.0469 Q115.8763,537.0469 116.47,536.7813 Q117.0638,536.5 117.6888,535.9219 L117.6888,538.6406 Z " fill="#000000"/><text fill="#000000" font-family="sans-serif" font-size="12" lengthAdjust="spacing" textLength="75" x="135.22" y="537.1543">AuthFacade</text><line style="stroke:#A80036;stroke-width:1.5;" x1="58.47" x2="254.47" y1="549" y2="549"/><line style="stroke:#A80036;stroke-width:1.5;" x1="58.47" x2="254.47" y1="557" y2="557"/><text fill="#000000" font-family="sans-serif" font-size="11" lengthAdjust="spacing" textLength="145" x="63.47" y="571.2104">+existsRole(String roleId)</text><text fill="#000000" font-family="sans-serif" font-size="11" lengthAdjust="spacing" textLength="93" x="63.47" y="584.0151">+getUserRoles()</text><text fill="#000000" font-family="sans-serif" font-size="11" lengthAdjust="spacing" textLength="186" x="63.47" y="596.8198">+getUsersWithRole(String roleId)</text><!--MD5=[829fb52c07ade3ad64ef85b99d1fca10]
class EmployeeStore--><rect codeLine="40" fill="#FEFECE" filter="url(#fdsv7713ddrds)" height="86.4141" id="EmployeeStore" style="stroke:#A80036;stroke-width:1.5;" width="409" x="103.97" y="706"/><ellipse cx="257.22" cy="722" fill="#ADD1B2" rx="11" ry="11" style="stroke:#A80036;stroke-width:1.0;"/><path d="M260.1888,727.6406 Q259.6106,727.9375 258.97,728.0781 Q258.3294,728.2344 257.6263,728.2344 Q255.1263,728.2344 253.7981,726.5938 Q252.4856,724.9375 252.4856,721.8125 Q252.4856,718.6875 253.7981,717.0313 Q255.1263,715.375 257.6263,715.375 Q258.3294,715.375 258.97,715.5313 Q259.6263,715.6875 260.1888,715.9844 L260.1888,718.7031 Q259.5638,718.125 258.97,717.8594 Q258.3763,717.5781 257.7513,717.5781 Q256.4075,717.5781 255.72,718.6563 Q255.0325,719.7188 255.0325,721.8125 Q255.0325,723.9063 255.72,724.9844 Q256.4075,726.0469 257.7513,726.0469 Q258.3763,726.0469 258.97,725.7813 Q259.5638,725.5 260.1888,724.9219 L260.1888,727.6406 Z " fill="#000000"/><text fill="#000000" font-family="sans-serif" font-size="12" lengthAdjust="spacing" textLength="94" x="277.72" y="726.1543">EmployeeStore</text><line style="stroke:#A80036;stroke-width:1.5;" x1="104.97" x2="511.97" y1="738" y2="738"/><line style="stroke:#A80036;stroke-width:1.5;" x1="104.97" x2="511.97" y1="746" y2="746"/><text fill="#000000" font-family="sans-serif" font-size="11" lengthAdjust="spacing" textLength="397" x="109.97" y="760.2104">+addEmployee(name,phoneNumber,email,address,citizenCard,roleId)</text><text fill="#000000" font-family="sans-serif" font-size="11" lengthAdjust="spacing" textLength="154" x="109.97" y="773.0151">+saveEmployee(employee)</text><text fill="#000000" font-family="sans-serif" font-size="11" lengthAdjust="spacing" textLength="176" x="109.97" y="785.8198">+getEmployeesWithRole(roleId)</text><!--MD5=[cedd4967a54d65e273403224efb15753]
class ListEmployeeController--><rect codeLine="46" fill="#FEFECE" filter="url(#fdsv7713ddrds)" height="73.6094" id="ListEmployeeController" style="stroke:#A80036;stroke-width:1.5;" width="179" x="246.97" y="116"/><ellipse cx="264.22" cy="132" fill="#ADD1B2" rx="11" ry="11" style="stroke:#A80036;stroke-width:1.0;"/><path d="M267.1888,137.6406 Q266.6106,137.9375 265.97,138.0781 Q265.3294,138.2344 264.6263,138.2344 Q262.1263,138.2344 260.7981,136.5938 Q259.4856,134.9375 259.4856,131.8125 Q259.4856,128.6875 260.7981,127.0313 Q262.1263,125.375 264.6263,125.375 Q265.3294,125.375 265.97,125.5313 Q266.6263,125.6875 267.1888,125.9844 L267.1888,128.7031 Q266.5638,128.125 265.97,127.8594 Q265.3763,127.5781 264.7513,127.5781 Q263.4075,127.5781 262.72,128.6563 Q262.0325,129.7188 262.0325,131.8125 Q262.0325,133.9063 262.72,134.9844 Q263.4075,136.0469 264.7513,136.0469 Q265.3763,136.0469 265.97,135.7813 Q266.5638,135.5 267.1888,134.9219 L267.1888,137.6406 Z " fill="#000000"/><text fill="#000000" font-family="sans-serif" font-size="12" lengthAdjust="spacing" textLength="142" x="278.72" y="136.1543">ListEmployeeController</text><line style="stroke:#A80036;stroke-width:1.5;" x1="247.97" x2="424.97" y1="148" y2="148"/><line style="stroke:#A80036;stroke-width:1.5;" x1="247.97" x2="424.97" y1="156" y2="156"/><text fill="#000000" font-family="sans-serif" font-size="11" lengthAdjust="spacing" textLength="66" x="252.97" y="170.2104">+getRoles()</text><text fill="#000000" font-family="sans-serif" font-size="11" lengthAdjust="spacing" textLength="167" x="252.97" y="183.0151">+getEmployeesByRoleId(role)</text><!--MD5=[b5be973b5d3f2d8f249510587bb68e72]
class EmployeeRole--><rect codeLine="51" fill="#FEFECE" filter="url(#fdsv7713ddrds)" height="73.6094" id="EmployeeRole" style="stroke:#A80036;stroke-width:1.5;" width="121" x="632.97" y="712"/><ellipse cx="648.87" cy="728" fill="#ADD1B2" rx="11" ry="11" style="stroke:#A80036;stroke-width:1.0;"/><path d="M651.8388,733.6406 Q651.2606,733.9375 650.62,734.0781 Q649.9794,734.2344 649.2763,734.2344 Q646.7763,734.2344 645.4481,732.5938 Q644.1356,730.9375 644.1356,727.8125 Q644.1356,724.6875 645.4481,723.0313 Q646.7763,721.375 649.2763,721.375 Q649.9794,721.375 650.62,721.5313 Q651.2763,721.6875 651.8388,721.9844 L651.8388,724.7031 Q651.2138,724.125 650.62,723.8594 Q650.0263,723.5781 649.4013,723.5781 Q648.0575,723.5781 647.37,724.6563 Q646.6825,725.7188 646.6825,727.8125 Q646.6825,729.9063 647.37,730.9844 Q648.0575,732.0469 649.4013,732.0469 Q650.0263,732.0469 650.62,731.7813 Q651.2138,731.5 651.8388,730.9219 L651.8388,733.6406 Z " fill="#000000"/><text fill="#000000" font-family="sans-serif" font-size="12" lengthAdjust="spacing" textLength="87" x="663.07" y="732.1543">EmployeeRole</text><line style="stroke:#A80036;stroke-width:1.5;" x1="633.97" x2="752.97" y1="744" y2="744"/><text fill="#000000" font-family="sans-serif" font-size="11" lengthAdjust="spacing" textLength="56" x="638.97" y="758.2104">-id: String</text><text fill="#000000" font-family="sans-serif" font-size="11" lengthAdjust="spacing" textLength="109" x="638.97" y="771.0151">-description: String</text><line style="stroke:#A80036;stroke-width:1.5;" x1="633.97" x2="752.97" y1="777.6094" y2="777.6094"/><!--MD5=[1648e653497aaae0b857fb5a1aa684e5]
class ListEmployeeUI--><rect codeLine="56" fill="#FEFECE" filter="url(#fdsv7713ddrds)" height="48" id="ListEmployeeUI" style="stroke:#A80036;stroke-width:1.5;" width="125" x="273.97" y="7"/><ellipse cx="288.97" cy="23" fill="#ADD1B2" rx="11" ry="11" style="stroke:#A80036;stroke-width:1.0;"/><path d="M291.9388,28.6406 Q291.3606,28.9375 290.72,29.0781 Q290.0794,29.2344 289.3763,29.2344 Q286.8763,29.2344 285.5481,27.5938 Q284.2356,25.9375 284.2356,22.8125 Q284.2356,19.6875 285.5481,18.0313 Q286.8763,16.375 289.3763,16.375 Q290.0794,16.375 290.72,16.5313 Q291.3763,16.6875 291.9388,16.9844 L291.9388,19.7031 Q291.3138,19.125 290.72,18.8594 Q290.1263,18.5781 289.5013,18.5781 Q288.1575,18.5781 287.47,19.6563 Q286.7825,20.7188 286.7825,22.8125 Q286.7825,24.9063 287.47,25.9844 Q288.1575,27.0469 289.5013,27.0469 Q290.1263,27.0469 290.72,26.7813 Q291.3138,26.5 291.9388,25.9219 L291.9388,28.6406 Z " fill="#000000"/><text fill="#000000" font-family="sans-serif" font-size="12" lengthAdjust="spacing" textLength="93" x="302.97" y="27.1543">ListEmployeeUI</text><line style="stroke:#A80036;stroke-width:1.5;" x1="274.97" x2="397.97" y1="39" y2="39"/><line style="stroke:#A80036;stroke-width:1.5;" x1="274.97" x2="397.97" y1="47" y2="47"/><!--MD5=[40ed7a25b95491635849acdfef2b0459]
class EmployeeRolesStore--><rect codeLine="58" fill="#FEFECE" filter="url(#fdsv7713ddrds)" height="86.4141" id="EmployeeRolesStore" style="stroke:#A80036;stroke-width:1.5;" width="206" x="361.47" y="517"/><ellipse cx="397.17" cy="533" fill="#ADD1B2" rx="11" ry="11" style="stroke:#A80036;stroke-width:1.0;"/><path d="M400.1388,538.6406 Q399.5606,538.9375 398.92,539.0781 Q398.2794,539.2344 397.5763,539.2344 Q395.0763,539.2344 393.7481,537.5938 Q392.4356,535.9375 392.4356,532.8125 Q392.4356,529.6875 393.7481,528.0313 Q395.0763,526.375 397.5763,526.375 Q398.2794,526.375 398.92,526.5313 Q399.5763,526.6875 400.1388,526.9844 L400.1388,529.7031 Q399.5138,529.125 398.92,528.8594 Q398.3263,528.5781 397.7013,528.5781 Q396.3575,528.5781 395.67,529.6563 Q394.9825,530.7188 394.9825,532.8125 Q394.9825,534.9063 395.67,535.9844 Q396.3575,537.0469 397.7013,537.0469 Q398.3263,537.0469 398.92,536.7813 Q399.5138,536.5 400.1388,535.9219 L400.1388,538.6406 Z " fill="#000000"/><text fill="#000000" font-family="sans-serif" font-size="12" lengthAdjust="spacing" textLength="128" x="415.77" y="537.1543">EmployeeRolesStore</text><line style="stroke:#A80036;stroke-width:1.5;" x1="362.47" x2="566.47" y1="549" y2="549"/><line style="stroke:#A80036;stroke-width:1.5;" x1="362.47" x2="566.47" y1="557" y2="557"/><text fill="#000000" font-family="sans-serif" font-size="11" lengthAdjust="spacing" textLength="194" x="367.47" y="571.2104">+addEmployeeRole(id,description)</text><text fill="#000000" font-family="sans-serif" font-size="11" lengthAdjust="spacing" textLength="66" x="367.47" y="584.0151">+getRoles()</text><text fill="#000000" font-family="sans-serif" font-size="11" lengthAdjust="spacing" textLength="85" x="367.47" y="596.8198">+existsRole(id)</text><!--MD5=[65c16d01042ef55cd47b89011ddf5aca]
class EmployeeRoleStore--><rect fill="#FEFECE" filter="url(#fdsv7713ddrds)" height="48" id="EmployeeRoleStore" style="stroke:#A80036;stroke-width:1.5;" width="153" x="674.97" y="308.5"/><ellipse cx="689.97" cy="324.5" fill="#ADD1B2" rx="11" ry="11" style="stroke:#A80036;stroke-width:1.0;"/><path d="M692.9388,330.1406 Q692.3606,330.4375 691.72,330.5781 Q691.0794,330.7344 690.3763,330.7344 Q687.8763,330.7344 686.5481,329.0938 Q685.2356,327.4375 685.2356,324.3125 Q685.2356,321.1875 686.5481,319.5313 Q687.8763,317.875 690.3763,317.875 Q691.0794,317.875 691.72,318.0313 Q692.3763,318.1875 692.9388,318.4844 L692.9388,321.2031 Q692.3138,320.625 691.72,320.3594 Q691.1263,320.0781 690.5013,320.0781 Q689.1575,320.0781 688.47,321.1563 Q687.7825,322.2188 687.7825,324.3125 Q687.7825,326.4063 688.47,327.4844 Q689.1575,328.5469 690.5013,328.5469 Q691.1263,328.5469 691.72,328.2813 Q692.3138,328 692.9388,327.4219 L692.9388,330.1406 Z " fill="#000000"/><text fill="#000000" font-family="sans-serif" font-size="12" lengthAdjust="spacing" textLength="121" x="703.97" y="328.6543">EmployeeRoleStore</text><line style="stroke:#A80036;stroke-width:1.5;" x1="675.97" x2="826.97" y1="340.5" y2="340.5"/><line style="stroke:#A80036;stroke-width:1.5;" x1="675.97" x2="826.97" y1="348.5" y2="348.5"/><!--MD5=[1a586c3a4709423d02ac896cff2c39b6]
link ListEmployeeUI to ListEmployeeController--><path codeLine="64" d="M336.47,55.14 C336.47,70.83 336.47,92 336.47,110.55 " fill="none" id="ListEmployeeUI-to-ListEmployeeController" style="stroke:#A80036;stroke-width:1.0;stroke-dasharray:7.0,7.0;"/><polygon fill="#A80036" points="336.47,115.71,340.47,106.71,336.47,110.71,332.47,106.71,336.47,115.71" style="stroke:#A80036;stroke-width:1.0;"/><!--MD5=[fdf3f1dae370c95101789c1677ee20c5]
link ListEmployeeController to Company--><path codeLine="65" d="M336.47,190.35 C336.47,206.39 336.47,225.98 336.47,245.41 " fill="none" id="ListEmployeeController-to-Company" style="stroke:#A80036;stroke-width:1.0;stroke-dasharray:7.0,7.0;"/><polygon fill="#A80036" points="336.47,250.88,340.47,241.88,336.47,245.88,332.47,241.88,336.47,250.88" style="stroke:#A80036;stroke-width:1.0;"/><!--MD5=[717d4b03d3c4372f4eafe5e342a0a7dd]
link Company to AuthFacade--><path codeLine="67" d="M271.99,414.27 C245.65,447.28 216.12,484.27 193.51,512.59 " fill="none" id="Company-to-AuthFacade" style="stroke:#A80036;stroke-width:1.0;stroke-dasharray:7.0,7.0;"/><polygon fill="#A80036" points="190.23,516.7,198.9737,512.1671,193.3517,512.7943,192.7245,507.1723,190.23,516.7" style="stroke:#A80036;stroke-width:1.0;"/><!--MD5=[ce859576cba61219b3cb4d2d23fdcd81]
link Company to EmployeeStore--><path codeLine="68" d="M331,414.4 C325.25,499.59 316.38,630.83 311.67,700.6 " fill="none" id="Company-to-EmployeeStore" style="stroke:#A80036;stroke-width:1.0;stroke-dasharray:7.0,7.0;"/><polygon fill="#A80036" points="311.31,705.92,315.8932,697.2025,311.6388,700.9308,307.9105,696.6764,311.31,705.92" style="stroke:#A80036;stroke-width:1.0;"/><!--MD5=[eed32de0063c056c269410cb00f5a5fb]
link Employee to EmployeeStore--><path codeLine="69" d="M698.65,629.18 C670.78,646.35 639.74,663.45 609.47,676 C579.07,688.61 545.98,699.3 513.24,708.28 " fill="none" id="Employee-EmployeeStore" style="stroke:#A80036;stroke-width:1.0;"/><polygon fill="#000000" points="651.069,665.6044,641.5961,666.4505,643.9026,671.8569,651.069,665.6044" style="stroke:#000000;stroke-width:1.0;"/><text fill="#000000" font-family="sans-serif" font-size="13" lengthAdjust="spacing" textLength="40" x="655.47" y="672.0669">stores</text><text fill="#000000" font-family="sans-serif" font-size="13" lengthAdjust="spacing" textLength="7" x="681.6763" y="648.8197">*</text><text fill="#000000" font-family="sans-serif" font-size="13" lengthAdjust="spacing" textLength="8" x="520.7427" y="703.6089">1</text><!--MD5=[09366576ee87d48d594df10cacc83f45]
link Company to Employee--><path codeLine="70" d="M458.53,393.34 C518.2,422.59 590.39,457.98 652.71,488.53 " fill="none" id="Company-to-Employee" style="stroke:#A80036;stroke-width:1.0;"/><polygon fill="#A80036" points="657.56,490.91,651.2314,483.3636,653.0681,488.7139,647.7177,490.5506,657.56,490.91" style="stroke:#A80036;stroke-width:1.0;"/><polygon fill="#000000" points="602.9596,454.7673,596.1315,448.147,593.5442,453.4248,602.9596,454.7673" style="stroke:#000000;stroke-width:1.0;"/><text fill="#000000" font-family="sans-serif" font-size="13" lengthAdjust="spacing" textLength="39" x="607.47" y="457.0669">knows</text><text fill="#000000" font-family="sans-serif" font-size="13" lengthAdjust="spacing" textLength="8" x="466.6057" y="393.8205">1</text><text fill="#000000" font-family="sans-serif" font-size="13" lengthAdjust="spacing" textLength="7" x="635.874" y="480.1043">*</text><!--MD5=[ab8b6bcf2b160f8e5ddbe85b185c2b25]
link EmployeeRolesStore to EmployeeRole--><path codeLine="72" d="M489.12,603.13 C504.51,626.75 526.01,655.5 550.47,676 C574.75,696.35 605.77,712.86 632.7,724.91 " fill="none" id="EmployeeRolesStore-EmployeeRole" style="stroke:#A80036;stroke-width:1.0;"/><polygon fill="#000000" points="559.2831,670.8006,554.2861,662.7086,550.4841,667.1912,559.2831,670.8006" style="stroke:#000000;stroke-width:1.0;"/><text fill="#000000" font-family="sans-serif" font-size="13" lengthAdjust="spacing" textLength="40" x="564.47" y="672.0669">stores</text><text fill="#000000" font-family="sans-serif" font-size="13" lengthAdjust="spacing" textLength="8" x="484.5402" y="623.5592">1</text><text fill="#000000" font-family="sans-serif" font-size="13" lengthAdjust="spacing" textLength="7" x="617.8671" y="718.1588">*</text><!--MD5=[3b970883116b5f582200a271937577ff]
link Company to EmployeeRolesStore--><path codeLine="73" d="M382.32,414.27 C400.97,447.14 421.87,483.96 437.93,512.24 " fill="none" id="Company-to-EmployeeRolesStore" style="stroke:#A80036;stroke-width:1.0;stroke-dasharray:7.0,7.0;"/><polygon fill="#A80036" points="440.46,516.7,439.4851,506.8995,437.987,512.3544,432.5321,510.8563,440.46,516.7" style="stroke:#A80036;stroke-width:1.0;"/><!--MD5=[1831a7701810a27d6381c866aeaf1707]
link Employee to EmployeeRole--><path codeLine="74" d="M758.99,629.04 C743.58,657.03 726.35,688.31 713.42,711.77 " fill="none" id="Employee-EmployeeRole" style="stroke:#A80036;stroke-width:1.0;"/><polygon fill="#000000" points="744.0576,671.946,750.9959,665.4412,745.8474,662.6053,744.0576,671.946" style="stroke:#000000;stroke-width:1.0;"/><text fill="#000000" font-family="sans-serif" font-size="13" lengthAdjust="spacing" textLength="23" x="755.47" y="672.0669">has</text><text fill="#000000" font-family="sans-serif" font-size="13" lengthAdjust="spacing" textLength="8" x="746.9068" y="648.6659">1</text><text fill="#000000" font-family="sans-serif" font-size="13" lengthAdjust="spacing" textLength="7" x="709.3502" y="700.916">*</text><!--MD5=[696eb08729878f194587b3c9d74a7dc4]
link ListEmployeeController to EmployeeStore--><path codeLine="76" d="M273.59,190.15 C247.93,206.7 219.06,227.8 196.47,251 C107.55,342.32 75.87,368.85 39.47,491 C21.95,549.78 6,577.6 39.47,629 C61.13,662.28 94.46,686.32 130.36,703.66 " fill="none" id="ListEmployeeController-to-EmployeeStore" style="stroke:#A80036;stroke-width:1.0;stroke-dasharray:7.0,7.0;"/><polygon fill="#A80036" points="135.21,705.96,128.7948,698.487,130.6931,703.8159,125.3642,705.7141,135.21,705.96" style="stroke:#A80036;stroke-width:1.0;"/><!--MD5=[cc9b31974d12db75b114f2b628bbff92]
link ListEmployeeController to EmployeeRoleStore--><path codeLine="77" d="M426.2,170.65 C492.84,185.44 584.44,211.03 657.47,251 C683.22,265.1 708.27,287.09 726.02,304.52 " fill="none" id="ListEmployeeController-to-EmployeeRoleStore" style="stroke:#A80036;stroke-width:1.0;stroke-dasharray:7.0,7.0;"/><polygon fill="#A80036" points="729.92,308.39,726.3659,299.2048,726.3773,304.8616,720.7205,304.873,729.92,308.39" style="stroke:#A80036;stroke-width:1.0;"/><!--MD5=[48afc90033d240f0c7566c2ff402e39b]
link User to Employee--><path codeLine="79" d="M631.34,382.24 C639.73,392.87 648.75,403.94 657.47,414 C679.85,439.82 705.47,467.13 728.56,490.99 " fill="none" id="User-Employee" style="stroke:#A80036;stroke-width:1.0;"/><polygon fill="#000000" points="699.1376,448.8388,702.9749,457.5408,707.357,453.6234,699.1376,448.8388" style="stroke:#000000;stroke-width:1.0;"/><text fill="#000000" font-family="sans-serif" font-size="13" lengthAdjust="spacing" textLength="96" x="711.47" y="457.0669">corresponds to</text><!--MD5=[1983ee7fb328cc5ece256679aba25852]
@startuml
skinparam classAttributeIconSize 0

class User {
  -name: String
  -email: String
  -pwd: String
  -roleId: String
}

class Employee {
  -id: String
  -phone: String
  -address: String
  -citizenCardNumber: String
  
  +Employee(name,email,phone,address,citizenCardNumber,roleId)

  +hasRoleId(roleId)
}

class Company {
  -designation: String
  -authFacade: AuthFacade
  -employeeStore: EmployeeStore
  -employeeRoleStore: EmployeeRoleStore
  
  +Company(designation)

  +getAuthFacade()
  +getEmployeeStore()
  +getEmployeeRoleStore()
}

class AuthFacade {
  +existsRole(String roleId)
  +getUserRoles()
  +getUsersWithRole(String roleId)
}

class EmployeeStore {
  +addEmployee(name,phoneNumber,email,address,citizenCard,roleId)
  +saveEmployee(employee)
  +getEmployeesWithRole(roleId)
}

class ListEmployeeController {
  +getRoles()
  +getEmployeesByRoleId(role)
}

class EmployeeRole {
  -id: String
  -description: String
}

class ListEmployeeUI {}

class EmployeeRolesStore {
  +addEmployeeRole(id,description)
  +getRoles()
  +existsRole(id)
}

ListEmployeeUI ..> ListEmployeeController
ListEmployeeController ..> Company

Company ..> AuthFacade
Company ..> EmployeeStore
Employee "*" - - "1" EmployeeStore : stores <
Company "1" - -> "*" Employee : knows >

EmployeeRolesStore "1" - - "*" EmployeeRole : stores >
Company ..> EmployeeRolesStore
Employee "1" - - "*" EmployeeRole : has >

ListEmployeeController ..> EmployeeStore
ListEmployeeController ..> EmployeeRoleStore

User - - Employee : corresponds to <

@enduml

PlantUML version 1.2022.0(Tue Jan 11 16:16:42 WET 2022)
(GPL source distribution)
Java Runtime: Java(TM) SE Runtime Environment
JVM: Java HotSpot(TM) 64-Bit Server VM
Default Encoding: UTF-8
Language: en
Country: US
--></g></svg>