<?xml version="1.0" encoding="UTF-8" standalone="no"?><svg xmlns="http://www.w3.org/2000/svg" xmlns:xlink="http://www.w3.org/1999/xlink" contentScriptType="application/ecmascript" contentStyleType="text/css" height="636px" preserveAspectRatio="none" style="width:361px;height:636px;background:#FFFFFF;" version="1.1" viewBox="0 0 361 636" width="361px" zoomAndPan="magnify"><defs><filter height="300%" id="flnc7pkz3gt32" width="300%" x="-1" y="-1"><feGaussianBlur result="blurOut" stdDeviation="2.0"/><feColorMatrix in="blurOut" result="blurOut2" type="matrix" values="0 0 0 0 0 0 0 0 0 0 0 0 0 0 0 0 0 0 .4 0"/><feOffset dx="4.0" dy="4.0" in="blurOut2" result="blurOut3"/><feBlend in="SourceGraphic" in2="blurOut3" mode="normal"/></filter></defs><g><!--MD5=[3fd616f346a44cd59a91eb10b19e157c]
class User--><rect codeLine="3" fill="#FEFECE" filter="url(#flnc7pkz3gt32)" height="86.4141" id="User" style="stroke:#A80036;stroke-width:1.5;" width="86" x="7" y="251"/><ellipse cx="33.25" cy="267" fill="#ADD1B2" rx="11" ry="11" style="stroke:#A80036;stroke-width:1.0;"/><path d="M36.2188,272.6406 Q35.6406,272.9375 35,273.0781 Q34.3594,273.2344 33.6563,273.2344 Q31.1563,273.2344 29.8281,271.5938 Q28.5156,269.9375 28.5156,266.8125 Q28.5156,263.6875 29.8281,262.0313 Q31.1563,260.375 33.6563,260.375 Q34.3594,260.375 35,260.5313 Q35.6563,260.6875 36.2188,260.9844 L36.2188,263.7031 Q35.5938,263.125 35,262.8594 Q34.4063,262.5781 33.7813,262.5781 Q32.4375,262.5781 31.75,263.6563 Q31.0625,264.7188 31.0625,266.8125 Q31.0625,268.9063 31.75,269.9844 Q32.4375,271.0469 33.7813,271.0469 Q34.4063,271.0469 35,270.7813 Q35.5938,270.5 36.2188,269.9219 L36.2188,272.6406 Z " fill="#000000"/><text fill="#000000" font-family="sans-serif" font-size="12" lengthAdjust="spacing" textLength="29" x="49.75" y="271.1543">User</text><line style="stroke:#A80036;stroke-width:1.5;" x1="8" x2="92" y1="283" y2="283"/><text fill="#000000" font-family="sans-serif" font-size="11" lengthAdjust="spacing" textLength="74" x="13" y="297.2104">-String name</text><text fill="#000000" font-family="sans-serif" font-size="11" lengthAdjust="spacing" textLength="73" x="13" y="310.0151">-String email</text><text fill="#000000" font-family="sans-serif" font-size="11" lengthAdjust="spacing" textLength="65" x="13" y="322.8198">-String pwd</text><line style="stroke:#A80036;stroke-width:1.5;" x1="8" x2="92" y1="329.4141" y2="329.4141"/><!--MD5=[7421f545a0d8420c5bec41e74b387d9c]
class Employee--><rect codeLine="9" fill="#FEFECE" filter="url(#flnc7pkz3gt32)" height="60.8047" id="Employee" style="stroke:#A80036;stroke-width:1.5;" width="204" x="44" y="414"/><ellipse cx="111.75" cy="430" fill="#ADD1B2" rx="11" ry="11" style="stroke:#A80036;stroke-width:1.0;"/><path d="M114.7188,435.6406 Q114.1406,435.9375 113.5,436.0781 Q112.8594,436.2344 112.1563,436.2344 Q109.6563,436.2344 108.3281,434.5938 Q107.0156,432.9375 107.0156,429.8125 Q107.0156,426.6875 108.3281,425.0313 Q109.6563,423.375 112.1563,423.375 Q112.8594,423.375 113.5,423.5313 Q114.1563,423.6875 114.7188,423.9844 L114.7188,426.7031 Q114.0938,426.125 113.5,425.8594 Q112.9063,425.5781 112.2813,425.5781 Q110.9375,425.5781 110.25,426.6563 Q109.5625,427.7188 109.5625,429.8125 Q109.5625,431.9063 110.25,432.9844 Q110.9375,434.0469 112.2813,434.0469 Q112.9063,434.0469 113.5,433.7813 Q114.0938,433.5 114.7188,432.9219 L114.7188,435.6406 Z " fill="#000000"/><text fill="#000000" font-family="sans-serif" font-size="12" lengthAdjust="spacing" textLength="60" x="132.25" y="434.1543">Employee</text><line style="stroke:#A80036;stroke-width:1.5;" x1="45" x2="247" y1="446" y2="446"/><line style="stroke:#A80036;stroke-width:1.5;" x1="45" x2="247" y1="454" y2="454"/><text fill="#000000" font-family="sans-serif" font-size="11" lengthAdjust="spacing" textLength="192" x="50" y="468.2104">+Employee(name,email,pwd,role)</text><!--MD5=[a3638c1e5b65d287ecad7f06f5c0f212]
class Role--><rect codeLine="13" fill="#FEFECE" filter="url(#flnc7pkz3gt32)" height="86.4141" id="Role" style="stroke:#A80036;stroke-width:1.5;" width="130" x="81" y="536"/><ellipse cx="128.25" cy="552" fill="#ADD1B2" rx="11" ry="11" style="stroke:#A80036;stroke-width:1.0;"/><path d="M131.2188,557.6406 Q130.6406,557.9375 130,558.0781 Q129.3594,558.2344 128.6563,558.2344 Q126.1563,558.2344 124.8281,556.5938 Q123.5156,554.9375 123.5156,551.8125 Q123.5156,548.6875 124.8281,547.0313 Q126.1563,545.375 128.6563,545.375 Q129.3594,545.375 130,545.5313 Q130.6563,545.6875 131.2188,545.9844 L131.2188,548.7031 Q130.5938,548.125 130,547.8594 Q129.4063,547.5781 128.7813,547.5781 Q127.4375,547.5781 126.75,548.6563 Q126.0625,549.7188 126.0625,551.8125 Q126.0625,553.9063 126.75,554.9844 Q127.4375,556.0469 128.7813,556.0469 Q129.4063,556.0469 130,555.7813 Q130.5938,555.5 131.2188,554.9219 L131.2188,557.6406 Z " fill="#000000"/><text fill="#000000" font-family="sans-serif" font-size="12" lengthAdjust="spacing" textLength="27" x="148.75" y="556.1543">Role</text><line style="stroke:#A80036;stroke-width:1.5;" x1="82" x2="210" y1="568" y2="568"/><text fill="#000000" font-family="sans-serif" font-size="11" lengthAdjust="spacing" textLength="52" x="87" y="582.2104">-String id</text><text fill="#000000" font-family="sans-serif" font-size="11" lengthAdjust="spacing" textLength="105" x="87" y="595.0151">-String description</text><line style="stroke:#A80036;stroke-width:1.5;" x1="82" x2="210" y1="601.6094" y2="601.6094"/><text fill="#000000" font-family="sans-serif" font-size="11" lengthAdjust="spacing" textLength="118" x="87" y="615.8198">+Role(id,description)</text><!--MD5=[02e4b9b7573f1156f41e60aa5b4e25a4]
class Company--><rect codeLine="20" fill="#FEFECE" filter="url(#flnc7pkz3gt32)" height="86.4141" id="Company" style="stroke:#A80036;stroke-width:1.5;" width="148" x="199" y="251"/><ellipse cx="240.55" cy="267" fill="#ADD1B2" rx="11" ry="11" style="stroke:#A80036;stroke-width:1.0;"/><path d="M243.5188,272.6406 Q242.9406,272.9375 242.3,273.0781 Q241.6594,273.2344 240.9563,273.2344 Q238.4563,273.2344 237.1281,271.5938 Q235.8156,269.9375 235.8156,266.8125 Q235.8156,263.6875 237.1281,262.0313 Q238.4563,260.375 240.9563,260.375 Q241.6594,260.375 242.3,260.5313 Q242.9563,260.6875 243.5188,260.9844 L243.5188,263.7031 Q242.8938,263.125 242.3,262.8594 Q241.7063,262.5781 241.0813,262.5781 Q239.7375,262.5781 239.05,263.6563 Q238.3625,264.7188 238.3625,266.8125 Q238.3625,268.9063 239.05,269.9844 Q239.7375,271.0469 241.0813,271.0469 Q241.7063,271.0469 242.3,270.7813 Q242.8938,270.5 243.5188,269.9219 L243.5188,272.6406 Z " fill="#000000"/><text fill="#000000" font-family="sans-serif" font-size="12" lengthAdjust="spacing" textLength="57" x="260.45" y="271.1543">Company</text><line style="stroke:#A80036;stroke-width:1.5;" x1="200" x2="346" y1="283" y2="283"/><text fill="#000000" font-family="sans-serif" font-size="11" lengthAdjust="spacing" textLength="108" x="205" y="297.2104">-String designation</text><line style="stroke:#A80036;stroke-width:1.5;" x1="200" x2="346" y1="303.8047" y2="303.8047"/><text fill="#000000" font-family="sans-serif" font-size="11" lengthAdjust="spacing" textLength="136" x="205" y="318.0151">+Company(designation)</text><text fill="#000000" font-family="sans-serif" font-size="11" lengthAdjust="spacing" textLength="102" x="205" y="330.8198">-validateRole(role)</text><!--MD5=[cedd4967a54d65e273403224efb15753]
class ListEmployeeController--><rect codeLine="26" fill="#FEFECE" filter="url(#flnc7pkz3gt32)" height="73.6094" id="ListEmployeeController" style="stroke:#A80036;stroke-width:1.5;" width="188" x="72" y="116"/><ellipse cx="93.3" cy="132" fill="#ADD1B2" rx="11" ry="11" style="stroke:#A80036;stroke-width:1.0;"/><path d="M96.2688,137.6406 Q95.6906,137.9375 95.05,138.0781 Q94.4094,138.2344 93.7063,138.2344 Q91.2063,138.2344 89.8781,136.5938 Q88.5656,134.9375 88.5656,131.8125 Q88.5656,128.6875 89.8781,127.0313 Q91.2063,125.375 93.7063,125.375 Q94.4094,125.375 95.05,125.5313 Q95.7063,125.6875 96.2688,125.9844 L96.2688,128.7031 Q95.6438,128.125 95.05,127.8594 Q94.4563,127.5781 93.8313,127.5781 Q92.4875,127.5781 91.8,128.6563 Q91.1125,129.7188 91.1125,131.8125 Q91.1125,133.9063 91.8,134.9844 Q92.4875,136.0469 93.8313,136.0469 Q94.4563,136.0469 95.05,135.7813 Q95.6438,135.5 96.2688,134.9219 L96.2688,137.6406 Z " fill="#000000"/><text fill="#000000" font-family="sans-serif" font-size="12" lengthAdjust="spacing" textLength="142" x="108.7" y="136.1543">ListEmployeeController</text><line style="stroke:#A80036;stroke-width:1.5;" x1="73" x2="259" y1="148" y2="148"/><line style="stroke:#A80036;stroke-width:1.5;" x1="73" x2="259" y1="156" y2="156"/><text fill="#000000" font-family="sans-serif" font-size="11" lengthAdjust="spacing" textLength="66" x="78" y="170.2104">+getRoles()</text><text fill="#000000" font-family="sans-serif" font-size="11" lengthAdjust="spacing" textLength="176" x="78" y="183.0151">+listEmployeesByRoleId(roleId)</text><!--MD5=[1648e653497aaae0b857fb5a1aa684e5]
class ListEmployeeUI--><rect codeLine="31" fill="#FEFECE" filter="url(#flnc7pkz3gt32)" height="48" id="ListEmployeeUI" style="stroke:#A80036;stroke-width:1.5;" width="125" x="103.5" y="7"/><ellipse cx="118.5" cy="23" fill="#ADD1B2" rx="11" ry="11" style="stroke:#A80036;stroke-width:1.0;"/><path d="M121.4688,28.6406 Q120.8906,28.9375 120.25,29.0781 Q119.6094,29.2344 118.9063,29.2344 Q116.4063,29.2344 115.0781,27.5938 Q113.7656,25.9375 113.7656,22.8125 Q113.7656,19.6875 115.0781,18.0313 Q116.4063,16.375 118.9063,16.375 Q119.6094,16.375 120.25,16.5313 Q120.9063,16.6875 121.4688,16.9844 L121.4688,19.7031 Q120.8438,19.125 120.25,18.8594 Q119.6563,18.5781 119.0313,18.5781 Q117.6875,18.5781 117,19.6563 Q116.3125,20.7188 116.3125,22.8125 Q116.3125,24.9063 117,25.9844 Q117.6875,27.0469 119.0313,27.0469 Q119.6563,27.0469 120.25,26.7813 Q120.8438,26.5 121.4688,25.9219 L121.4688,28.6406 Z " fill="#000000"/><text fill="#000000" font-family="sans-serif" font-size="12" lengthAdjust="spacing" textLength="93" x="132.5" y="27.1543">ListEmployeeUI</text><line style="stroke:#A80036;stroke-width:1.5;" x1="104.5" x2="227.5" y1="39" y2="39"/><line style="stroke:#A80036;stroke-width:1.5;" x1="104.5" x2="227.5" y1="47" y2="47"/><!--MD5=[1a586c3a4709423d02ac896cff2c39b6]
link ListEmployeeUI to ListEmployeeController--><path codeLine="33" d="M166,55.14 C166,70.83 166,92 166,110.55 " fill="none" id="ListEmployeeUI-to-ListEmployeeController" style="stroke:#A80036;stroke-width:1.0;stroke-dasharray:7.0,7.0;"/><polygon fill="#A80036" points="166,115.71,170,106.71,166,110.71,162,106.71,166,115.71" style="stroke:#A80036;stroke-width:1.0;"/><!--MD5=[3445064b1b77df7829934ecddd3250cd]
link ListEmployeeController to Employee--><path codeLine="34" d="M163.51,190.08 C159.63,246.17 152.21,353.57 148.4,408.8 " fill="none" id="ListEmployeeController-to-Employee" style="stroke:#A80036;stroke-width:1.0;stroke-dasharray:7.0,7.0;"/><polygon fill="#A80036" points="148.04,413.98,152.648,405.2756,148.383,408.9918,144.6669,404.7268,148.04,413.98" style="stroke:#A80036;stroke-width:1.0;"/><!--MD5=[fdf3f1dae370c95101789c1677ee20c5]
link ListEmployeeController to Company--><path codeLine="35" d="M193.83,190.16 C207.13,207.43 223.2,228.31 237.38,246.73 " fill="none" id="ListEmployeeController-to-Company" style="stroke:#A80036;stroke-width:1.0;stroke-dasharray:7.0,7.0;"/><polygon fill="#A80036" points="240.56,250.86,238.2231,241.2924,237.5032,246.9033,231.8923,246.1833,240.56,250.86" style="stroke:#A80036;stroke-width:1.0;"/><!--MD5=[ffab42d7305e6830f0674a21f59219d7]
link Employee to Role--><path codeLine="36" d="M146,475.24 C146,489.18 146,506.27 146,522.48 " fill="none" id="Employee-to-Role" style="stroke:#A80036;stroke-width:1.0;"/><polygon fill="#A80036" points="146,535.8,150,529.8,146,523.8,142,529.8,146,535.8" style="stroke:#A80036;stroke-width:1.0;"/><text fill="#000000" font-family="sans-serif" font-size="13" lengthAdjust="spacing" textLength="7" x="138.3109" y="494.8677">*</text><text fill="#000000" font-family="sans-serif" font-size="13" lengthAdjust="spacing" textLength="8" x="137.3875" y="525.0819">1</text><!--MD5=[09366576ee87d48d594df10cacc83f45]
link Company to Employee--><path codeLine="37" d="M236.95,337.16 C217.2,360.24 193.07,388.46 174.63,410.02 " fill="none" id="Company-to-Employee" style="stroke:#A80036;stroke-width:1.0;"/><polygon fill="#A80036" points="171.26,413.97,180.1449,409.7206,174.5057,410.1667,174.0596,404.5274,171.26,413.97" style="stroke:#A80036;stroke-width:1.0;"/><text fill="#000000" font-family="sans-serif" font-size="13" lengthAdjust="spacing" textLength="70" x="210" y="380.0669">employees</text><text fill="#000000" font-family="sans-serif" font-size="13" lengthAdjust="spacing" textLength="8" x="222.3167" y="357.5942">1</text><text fill="#000000" font-family="sans-serif" font-size="13" lengthAdjust="spacing" textLength="7" x="169.02" y="402.7537">*</text><!--MD5=[1e9705534ea2f5f3045e58998aa20e5a]
reverse link User to Employee--><path codeLine="39" d="M88.3,354.24 C101.56,374.76 115.86,396.88 126.91,413.97 " fill="none" id="User-backto-Employee" style="stroke:#A80036;stroke-width:1.0;"/><polygon fill="none" points="82.23,357.75,77.25,337.16,93.99,350.15,82.23,357.75" style="stroke:#A80036;stroke-width:1.0;"/><!--MD5=[e7ec53cacebefbb98d19619a11751dc4]
@startuml
skinparam classAttributeIconSize 0

class User {
  - String name
  - String email
  - String pwd
}

class Employee {
  +Employee(name,email,pwd,role)
}

class Role {
  -String id
  -String description

  +Role(id,description)
}

class Company {
  -String designation
  +Company(designation)
  -validateRole(role)
}

class ListEmployeeController {
  +getRoles()
  +listEmployeesByRoleId(roleId)
}

class ListEmployeeUI {}

ListEmployeeUI ..> ListEmployeeController
ListEmployeeController ..> Employee
ListEmployeeController ..> Company
Employee "*" - -* "1" Role
Company "1" - -> "*" Employee : employees

User <|- - Employee 

@enduml

PlantUML version 1.2022.0(Tue Jan 11 16:16:42 WET 2022)
(GPL source distribution)
Java Runtime: Java(TM) SE Runtime Environment
JVM: Java HotSpot(TM) 64-Bit Server VM
Default Encoding: UTF-8
Language: en
Country: US
--></g></svg>