<?xml version="1.0" encoding="UTF-8" standalone="no"?><svg xmlns="http://www.w3.org/2000/svg" xmlns:xlink="http://www.w3.org/1999/xlink" contentScriptType="application/ecmascript" contentStyleType="text/css" height="741px" preserveAspectRatio="none" style="width:885px;height:741px;background:#FFFFFF;" version="1.1" viewBox="0 0 885 741" width="885px" zoomAndPan="magnify"><defs><filter height="300%" id="f1ijrbx5csjl1q" width="300%" x="-1" y="-1"><feGaussianBlur result="blurOut" stdDeviation="2.0"/><feColorMatrix in="blurOut" result="blurOut2" type="matrix" values="0 0 0 0 0 0 0 0 0 0 0 0 0 0 0 0 0 0 .4 0"/><feOffset dx="4.0" dy="4.0" in="blurOut2" result="blurOut3"/><feBlend in="SourceGraphic" in2="blurOut3" mode="normal"/></filter></defs><g><!--MD5=[3fd616f346a44cd59a91eb10b19e157c]
class User--><rect codeLine="3" fill="#FEFECE" filter="url(#f1ijrbx5csjl1q)" height="99.2188" id="User" style="stroke:#A80036;stroke-width:1.5;" width="90" x="156" y="251"/><ellipse cx="184.05" cy="267" fill="#ADD1B2" rx="11" ry="11" style="stroke:#A80036;stroke-width:1.0;"/><path d="M187.0188,272.6406 Q186.4406,272.9375 185.8,273.0781 Q185.1594,273.2344 184.4563,273.2344 Q181.9563,273.2344 180.6281,271.5938 Q179.3156,269.9375 179.3156,266.8125 Q179.3156,263.6875 180.6281,262.0313 Q181.9563,260.375 184.4563,260.375 Q185.1594,260.375 185.8,260.5313 Q186.4563,260.6875 187.0188,260.9844 L187.0188,263.7031 Q186.3938,263.125 185.8,262.8594 Q185.2063,262.5781 184.5813,262.5781 Q183.2375,262.5781 182.55,263.6563 Q181.8625,264.7188 181.8625,266.8125 Q181.8625,268.9063 182.55,269.9844 Q183.2375,271.0469 184.5813,271.0469 Q185.2063,271.0469 185.8,270.7813 Q186.3938,270.5 187.0188,269.9219 L187.0188,272.6406 Z " fill="#000000"/><text fill="#000000" font-family="sans-serif" font-size="12" lengthAdjust="spacing" textLength="29" x="200.95" y="271.1543">User</text><line style="stroke:#A80036;stroke-width:1.5;" x1="157" x2="245" y1="283" y2="283"/><text fill="#000000" font-family="sans-serif" font-size="11" lengthAdjust="spacing" textLength="78" x="162" y="297.2104">-name: String</text><text fill="#000000" font-family="sans-serif" font-size="11" lengthAdjust="spacing" textLength="77" x="162" y="310.0151">-email: String</text><text fill="#000000" font-family="sans-serif" font-size="11" lengthAdjust="spacing" textLength="69" x="162" y="322.8198">-pwd: String</text><text fill="#000000" font-family="sans-serif" font-size="11" lengthAdjust="spacing" textLength="78" x="162" y="335.6245">-roleId: String</text><line style="stroke:#A80036;stroke-width:1.5;" x1="157" x2="245" y1="342.2188" y2="342.2188"/><!--MD5=[7421f545a0d8420c5bec41e74b387d9c]
class Employee--><rect codeLine="10" fill="#FEFECE" filter="url(#f1ijrbx5csjl1q)" height="150.4375" id="Employee" style="stroke:#A80036;stroke-width:1.5;" width="388" x="7" y="427"/><ellipse cx="166.75" cy="443" fill="#ADD1B2" rx="11" ry="11" style="stroke:#A80036;stroke-width:1.0;"/><path d="M169.7188,448.6406 Q169.1406,448.9375 168.5,449.0781 Q167.8594,449.2344 167.1563,449.2344 Q164.6563,449.2344 163.3281,447.5938 Q162.0156,445.9375 162.0156,442.8125 Q162.0156,439.6875 163.3281,438.0313 Q164.6563,436.375 167.1563,436.375 Q167.8594,436.375 168.5,436.5313 Q169.1563,436.6875 169.7188,436.9844 L169.7188,439.7031 Q169.0938,439.125 168.5,438.8594 Q167.9063,438.5781 167.2813,438.5781 Q165.9375,438.5781 165.25,439.6563 Q164.5625,440.7188 164.5625,442.8125 Q164.5625,444.9063 165.25,445.9844 Q165.9375,447.0469 167.2813,447.0469 Q167.9063,447.0469 168.5,446.7813 Q169.0938,446.5 169.7188,445.9219 L169.7188,448.6406 Z " fill="#000000"/><text fill="#000000" font-family="sans-serif" font-size="12" lengthAdjust="spacing" textLength="60" x="187.25" y="447.1543">Employee</text><line style="stroke:#A80036;stroke-width:1.5;" x1="8" x2="394" y1="459" y2="459"/><text fill="#000000" font-family="sans-serif" font-size="11" lengthAdjust="spacing" textLength="56" x="13" y="473.2104">-id: String</text><text fill="#000000" font-family="sans-serif" font-size="11" lengthAdjust="spacing" textLength="78" x="13" y="486.0151">-name: String</text><text fill="#000000" font-family="sans-serif" font-size="11" lengthAdjust="spacing" textLength="77" x="13" y="498.8198">-email: String</text><text fill="#000000" font-family="sans-serif" font-size="11" lengthAdjust="spacing" textLength="81" x="13" y="511.6245">-phone: String</text><text fill="#000000" font-family="sans-serif" font-size="11" lengthAdjust="spacing" textLength="93" x="13" y="524.4292">-address: String</text><text fill="#000000" font-family="sans-serif" font-size="11" lengthAdjust="spacing" textLength="129" x="13" y="537.2339">-int citizenCardNumber</text><text fill="#000000" font-family="sans-serif" font-size="11" lengthAdjust="spacing" textLength="78" x="13" y="550.0386">-roleId: String</text><line style="stroke:#A80036;stroke-width:1.5;" x1="8" x2="394" y1="556.6328" y2="556.6328"/><text fill="#000000" font-family="sans-serif" font-size="11" lengthAdjust="spacing" textLength="376" x="13" y="570.8433">+Employee(name,email,phone,address,citizenCardNumber,roleId)</text><!--MD5=[02e4b9b7573f1156f41e60aa5b4e25a4]
class Company--><rect codeLine="22" fill="#FEFECE" filter="url(#f1ijrbx5csjl1q)" height="99.2188" id="Company" style="stroke:#A80036;stroke-width:1.5;" width="181" x="419.5" y="251"/><ellipse cx="477.25" cy="267" fill="#ADD1B2" rx="11" ry="11" style="stroke:#A80036;stroke-width:1.0;"/><path d="M480.2188,272.6406 Q479.6406,272.9375 479,273.0781 Q478.3594,273.2344 477.6563,273.2344 Q475.1563,273.2344 473.8281,271.5938 Q472.5156,269.9375 472.5156,266.8125 Q472.5156,263.6875 473.8281,262.0313 Q475.1563,260.375 477.6563,260.375 Q478.3594,260.375 479,260.5313 Q479.6563,260.6875 480.2188,260.9844 L480.2188,263.7031 Q479.5938,263.125 479,262.8594 Q478.4063,262.5781 477.7813,262.5781 Q476.4375,262.5781 475.75,263.6563 Q475.0625,264.7188 475.0625,266.8125 Q475.0625,268.9063 475.75,269.9844 Q476.4375,271.0469 477.7813,271.0469 Q478.4063,271.0469 479,270.7813 Q479.5938,270.5 480.2188,269.9219 L480.2188,272.6406 Z " fill="#000000"/><text fill="#000000" font-family="sans-serif" font-size="12" lengthAdjust="spacing" textLength="57" x="497.75" y="271.1543">Company</text><line style="stroke:#A80036;stroke-width:1.5;" x1="420.5" x2="599.5" y1="283" y2="283"/><text fill="#000000" font-family="sans-serif" font-size="11" lengthAdjust="spacing" textLength="112" x="425.5" y="297.2104">-designation: String</text><line style="stroke:#A80036;stroke-width:1.5;" x1="420.5" x2="599.5" y1="303.8047" y2="303.8047"/><text fill="#000000" font-family="sans-serif" font-size="11" lengthAdjust="spacing" textLength="136" x="425.5" y="318.0151">+Company(designation)</text><text fill="#000000" font-family="sans-serif" font-size="11" lengthAdjust="spacing" textLength="0" x="429.5" y="330.8198"/><text fill="#000000" font-family="sans-serif" font-size="11" lengthAdjust="spacing" textLength="169" x="425.5" y="343.6245">+AuthFacade getAuthFacade()</text><!--MD5=[8ae808d068a8995f06b9b3ec51357f0b]
class AuthFacade--><rect codeLine="29" fill="#FEFECE" filter="url(#f1ijrbx5csjl1q)" height="86.4141" id="AuthFacade" style="stroke:#A80036;stroke-width:1.5;" width="198" x="625" y="459"/><ellipse cx="682.25" cy="475" fill="#ADD1B2" rx="11" ry="11" style="stroke:#A80036;stroke-width:1.0;"/><path d="M685.2188,480.6406 Q684.6406,480.9375 684,481.0781 Q683.3594,481.2344 682.6563,481.2344 Q680.1563,481.2344 678.8281,479.5938 Q677.5156,477.9375 677.5156,474.8125 Q677.5156,471.6875 678.8281,470.0313 Q680.1563,468.375 682.6563,468.375 Q683.3594,468.375 684,468.5313 Q684.6563,468.6875 685.2188,468.9844 L685.2188,471.7031 Q684.5938,471.125 684,470.8594 Q683.4063,470.5781 682.7813,470.5781 Q681.4375,470.5781 680.75,471.6563 Q680.0625,472.7188 680.0625,474.8125 Q680.0625,476.9063 680.75,477.9844 Q681.4375,479.0469 682.7813,479.0469 Q683.4063,479.0469 684,478.7813 Q684.5938,478.5 685.2188,477.9219 L685.2188,480.6406 Z " fill="#000000"/><text fill="#000000" font-family="sans-serif" font-size="12" lengthAdjust="spacing" textLength="75" x="702.75" y="479.1543">AuthFacade</text><line style="stroke:#A80036;stroke-width:1.5;" x1="626" x2="822" y1="491" y2="491"/><line style="stroke:#A80036;stroke-width:1.5;" x1="626" x2="822" y1="499" y2="499"/><text fill="#000000" font-family="sans-serif" font-size="11" lengthAdjust="spacing" textLength="145" x="631" y="513.2104">+existsRole(String roleId)</text><text fill="#000000" font-family="sans-serif" font-size="11" lengthAdjust="spacing" textLength="93" x="631" y="526.0151">+getUserRoles()</text><text fill="#000000" font-family="sans-serif" font-size="11" lengthAdjust="spacing" textLength="186" x="631" y="538.8198">+getUsersWithRole(String roleId)</text><!--MD5=[829fb52c07ade3ad64ef85b99d1fca10]
class EmployeeStore--><rect codeLine="35" fill="#FEFECE" filter="url(#f1ijrbx5csjl1q)" height="60.8047" id="EmployeeStore" style="stroke:#A80036;stroke-width:1.5;" width="188" x="565" y="660.5"/><ellipse cx="607.9" cy="676.5" fill="#ADD1B2" rx="11" ry="11" style="stroke:#A80036;stroke-width:1.0;"/><path d="M610.8688,682.1406 Q610.2906,682.4375 609.65,682.5781 Q609.0094,682.7344 608.3063,682.7344 Q605.8063,682.7344 604.4781,681.0938 Q603.1656,679.4375 603.1656,676.3125 Q603.1656,673.1875 604.4781,671.5313 Q605.8063,669.875 608.3063,669.875 Q609.0094,669.875 609.65,670.0313 Q610.3063,670.1875 610.8688,670.4844 L610.8688,673.2031 Q610.2438,672.625 609.65,672.3594 Q609.0563,672.0781 608.4313,672.0781 Q607.0875,672.0781 606.4,673.1563 Q605.7125,674.2188 605.7125,676.3125 Q605.7125,678.4063 606.4,679.4844 Q607.0875,680.5469 608.4313,680.5469 Q609.0563,680.5469 609.65,680.2813 Q610.2438,680 610.8688,679.4219 L610.8688,682.1406 Z " fill="#000000"/><text fill="#000000" font-family="sans-serif" font-size="12" lengthAdjust="spacing" textLength="94" x="628.1" y="680.6543">EmployeeStore</text><line style="stroke:#A80036;stroke-width:1.5;" x1="566" x2="752" y1="692.5" y2="692.5"/><line style="stroke:#A80036;stroke-width:1.5;" x1="566" x2="752" y1="700.5" y2="700.5"/><text fill="#000000" font-family="sans-serif" font-size="11" lengthAdjust="spacing" textLength="176" x="571" y="714.7104">+getEmployeesWithRole(roleId)</text><!--MD5=[cedd4967a54d65e273403224efb15753]
class ListEmployeeController--><rect codeLine="39" fill="#FEFECE" filter="url(#f1ijrbx5csjl1q)" height="73.6094" id="ListEmployeeController" style="stroke:#A80036;stroke-width:1.5;" width="179" x="263.5" y="116"/><ellipse cx="280.75" cy="132" fill="#ADD1B2" rx="11" ry="11" style="stroke:#A80036;stroke-width:1.0;"/><path d="M283.7188,137.6406 Q283.1406,137.9375 282.5,138.0781 Q281.8594,138.2344 281.1563,138.2344 Q278.6563,138.2344 277.3281,136.5938 Q276.0156,134.9375 276.0156,131.8125 Q276.0156,128.6875 277.3281,127.0313 Q278.6563,125.375 281.1563,125.375 Q281.8594,125.375 282.5,125.5313 Q283.1563,125.6875 283.7188,125.9844 L283.7188,128.7031 Q283.0938,128.125 282.5,127.8594 Q281.9063,127.5781 281.2813,127.5781 Q279.9375,127.5781 279.25,128.6563 Q278.5625,129.7188 278.5625,131.8125 Q278.5625,133.9063 279.25,134.9844 Q279.9375,136.0469 281.2813,136.0469 Q281.9063,136.0469 282.5,135.7813 Q283.0938,135.5 283.7188,134.9219 L283.7188,137.6406 Z " fill="#000000"/><text fill="#000000" font-family="sans-serif" font-size="12" lengthAdjust="spacing" textLength="142" x="295.25" y="136.1543">ListEmployeeController</text><line style="stroke:#A80036;stroke-width:1.5;" x1="264.5" x2="441.5" y1="148" y2="148"/><line style="stroke:#A80036;stroke-width:1.5;" x1="264.5" x2="441.5" y1="156" y2="156"/><text fill="#000000" font-family="sans-serif" font-size="11" lengthAdjust="spacing" textLength="66" x="269.5" y="170.2104">+getRoles()</text><text fill="#000000" font-family="sans-serif" font-size="11" lengthAdjust="spacing" textLength="167" x="269.5" y="183.0151">+getEmployeesByRoleId(role)</text><!--MD5=[b5be973b5d3f2d8f249510587bb68e72]
class EmployeeRole--><rect codeLine="44" fill="#FEFECE" filter="url(#f1ijrbx5csjl1q)" height="73.6094" id="EmployeeRole" style="stroke:#A80036;stroke-width:1.5;" width="121" x="243.5" y="654"/><ellipse cx="259.4" cy="670" fill="#ADD1B2" rx="11" ry="11" style="stroke:#A80036;stroke-width:1.0;"/><path d="M262.3688,675.6406 Q261.7906,675.9375 261.15,676.0781 Q260.5094,676.2344 259.8063,676.2344 Q257.3063,676.2344 255.9781,674.5938 Q254.6656,672.9375 254.6656,669.8125 Q254.6656,666.6875 255.9781,665.0313 Q257.3063,663.375 259.8063,663.375 Q260.5094,663.375 261.15,663.5313 Q261.8063,663.6875 262.3688,663.9844 L262.3688,666.7031 Q261.7438,666.125 261.15,665.8594 Q260.5563,665.5781 259.9313,665.5781 Q258.5875,665.5781 257.9,666.6563 Q257.2125,667.7188 257.2125,669.8125 Q257.2125,671.9063 257.9,672.9844 Q258.5875,674.0469 259.9313,674.0469 Q260.5563,674.0469 261.15,673.7813 Q261.7438,673.5 262.3688,672.9219 L262.3688,675.6406 Z " fill="#000000"/><text fill="#000000" font-family="sans-serif" font-size="12" lengthAdjust="spacing" textLength="87" x="273.6" y="674.1543">EmployeeRole</text><line style="stroke:#A80036;stroke-width:1.5;" x1="244.5" x2="363.5" y1="686" y2="686"/><text fill="#000000" font-family="sans-serif" font-size="11" lengthAdjust="spacing" textLength="56" x="249.5" y="700.2104">-id: String</text><text fill="#000000" font-family="sans-serif" font-size="11" lengthAdjust="spacing" textLength="109" x="249.5" y="713.0151">-description: String</text><line style="stroke:#A80036;stroke-width:1.5;" x1="244.5" x2="363.5" y1="719.6094" y2="719.6094"/><!--MD5=[1648e653497aaae0b857fb5a1aa684e5]
class ListEmployeeUI--><rect codeLine="49" fill="#FEFECE" filter="url(#f1ijrbx5csjl1q)" height="48" id="ListEmployeeUI" style="stroke:#A80036;stroke-width:1.5;" width="125" x="290.5" y="7"/><ellipse cx="305.5" cy="23" fill="#ADD1B2" rx="11" ry="11" style="stroke:#A80036;stroke-width:1.0;"/><path d="M308.4688,28.6406 Q307.8906,28.9375 307.25,29.0781 Q306.6094,29.2344 305.9063,29.2344 Q303.4063,29.2344 302.0781,27.5938 Q300.7656,25.9375 300.7656,22.8125 Q300.7656,19.6875 302.0781,18.0313 Q303.4063,16.375 305.9063,16.375 Q306.6094,16.375 307.25,16.5313 Q307.9063,16.6875 308.4688,16.9844 L308.4688,19.7031 Q307.8438,19.125 307.25,18.8594 Q306.6563,18.5781 306.0313,18.5781 Q304.6875,18.5781 304,19.6563 Q303.3125,20.7188 303.3125,22.8125 Q303.3125,24.9063 304,25.9844 Q304.6875,27.0469 306.0313,27.0469 Q306.6563,27.0469 307.25,26.7813 Q307.8438,26.5 308.4688,25.9219 L308.4688,28.6406 Z " fill="#000000"/><text fill="#000000" font-family="sans-serif" font-size="12" lengthAdjust="spacing" textLength="93" x="319.5" y="27.1543">ListEmployeeUI</text><line style="stroke:#A80036;stroke-width:1.5;" x1="291.5" x2="414.5" y1="39" y2="39"/><line style="stroke:#A80036;stroke-width:1.5;" x1="291.5" x2="414.5" y1="47" y2="47"/><!--MD5=[40ed7a25b95491635849acdfef2b0459]
class EmployeeRolesStore--><rect fill="#FEFECE" filter="url(#f1ijrbx5csjl1q)" height="48" id="EmployeeRolesStore" style="stroke:#A80036;stroke-width:1.5;" width="160" x="430" y="478"/><ellipse cx="445" cy="494" fill="#ADD1B2" rx="11" ry="11" style="stroke:#A80036;stroke-width:1.0;"/><path d="M447.9688,499.6406 Q447.3906,499.9375 446.75,500.0781 Q446.1094,500.2344 445.4063,500.2344 Q442.9063,500.2344 441.5781,498.5938 Q440.2656,496.9375 440.2656,493.8125 Q440.2656,490.6875 441.5781,489.0313 Q442.9063,487.375 445.4063,487.375 Q446.1094,487.375 446.75,487.5313 Q447.4063,487.6875 447.9688,487.9844 L447.9688,490.7031 Q447.3438,490.125 446.75,489.8594 Q446.1563,489.5781 445.5313,489.5781 Q444.1875,489.5781 443.5,490.6563 Q442.8125,491.7188 442.8125,493.8125 Q442.8125,495.9063 443.5,496.9844 Q444.1875,498.0469 445.5313,498.0469 Q446.1563,498.0469 446.75,497.7813 Q447.3438,497.5 447.9688,496.9219 L447.9688,499.6406 Z " fill="#000000"/><text fill="#000000" font-family="sans-serif" font-size="12" lengthAdjust="spacing" textLength="128" x="459" y="498.1543">EmployeeRolesStore</text><line style="stroke:#A80036;stroke-width:1.5;" x1="431" x2="589" y1="510" y2="510"/><line style="stroke:#A80036;stroke-width:1.5;" x1="431" x2="589" y1="518" y2="518"/><!--MD5=[1a586c3a4709423d02ac896cff2c39b6]
link ListEmployeeUI to ListEmployeeController--><path codeLine="51" d="M353,55.14 C353,70.83 353,92 353,110.55 " fill="none" id="ListEmployeeUI-to-ListEmployeeController" style="stroke:#A80036;stroke-width:1.0;stroke-dasharray:7.0,7.0;"/><polygon fill="#A80036" points="353,115.71,357,106.71,353,110.71,349,106.71,353,115.71" style="stroke:#A80036;stroke-width:1.0;"/><!--MD5=[3445064b1b77df7829934ecddd3250cd]
link ListEmployeeController to Employee--><path codeLine="52" d="M337.16,190.15 C313.28,244.68 267.45,349.29 235.6,422.02 " fill="none" id="ListEmployeeController-to-Employee" style="stroke:#A80036;stroke-width:1.0;stroke-dasharray:7.0,7.0;"/><polygon fill="#A80036" points="233.52,426.76,240.7844,420.1095,235.5188,422.1769,233.4515,416.9114,233.52,426.76" style="stroke:#A80036;stroke-width:1.0;"/><!--MD5=[fdf3f1dae370c95101789c1677ee20c5]
link ListEmployeeController to Company--><path codeLine="53" d="M392.21,190.34 C410.77,207.54 433.27,228.39 453.61,247.24 " fill="none" id="ListEmployeeController-to-Company" style="stroke:#A80036;stroke-width:1.0;stroke-dasharray:7.0,7.0;"/><polygon fill="#A80036" points="457.38,250.74,453.4945,241.69,453.7115,247.3427,448.0588,247.5596,457.38,250.74" style="stroke:#A80036;stroke-width:1.0;"/><!--MD5=[717d4b03d3c4372f4eafe5e342a0a7dd]
link Company to AuthFacade--><path codeLine="55" d="M562.08,350.05 C596.32,381.97 640.85,423.48 674.55,454.9 " fill="none" id="Company-to-AuthFacade" style="stroke:#A80036;stroke-width:1.0;stroke-dasharray:7.0,7.0;"/><polygon fill="#A80036" points="678.6,458.68,674.751,449.6144,674.9452,455.2679,669.2917,455.4621,678.6,458.68" style="stroke:#A80036;stroke-width:1.0;"/><!--MD5=[ce859576cba61219b3cb4d2d23fdcd81]
link Company to EmployeeStore--><path codeLine="56" d="M600.54,308.35 C678.73,319.61 787.32,349.24 841,427 C878.87,481.86 873.4,518.74 841,577 C820.58,613.71 782.76,640.02 746.87,657.96 " fill="none" id="Company-to-EmployeeStore" style="stroke:#A80036;stroke-width:1.0;stroke-dasharray:7.0,7.0;"/><polygon fill="#A80036" points="742.05,660.33,751.8913,659.9455,746.5363,658.1225,748.3593,652.7674,742.05,660.33" style="stroke:#A80036;stroke-width:1.0;"/><!--MD5=[eed32de0063c056c269410cb00f5a5fb]
link Employee to EmployeeStore--><path codeLine="57" d="M266.06,577.16 C285.04,594.9 306.93,612.12 330,624 C403.41,661.82 496.39,677.99 564.77,684.89 " fill="none" id="Employee-EmployeeStore" style="stroke:#A80036;stroke-width:1.0;"/><polygon fill="#000000" points="330.2965,613.8701,337.8081,619.7034,339.8022,614.1741,330.2965,613.8701" style="stroke:#000000;stroke-width:1.0;"/><text fill="#000000" font-family="sans-serif" font-size="13" lengthAdjust="spacing" textLength="40" x="344" y="620.0669">stores</text><text fill="#000000" font-family="sans-serif" font-size="13" lengthAdjust="spacing" textLength="7" x="265.4084" y="597.7355">*</text><text fill="#000000" font-family="sans-serif" font-size="13" lengthAdjust="spacing" textLength="8" x="548.9423" y="680.8854">1</text><!--MD5=[09366576ee87d48d594df10cacc83f45]
link Company to Employee--><path codeLine="58" d="M434.81,350.05 C400.33,372.3 358.63,399.23 320.05,424.14 " fill="none" id="Company-to-Employee" style="stroke:#A80036;stroke-width:1.0;"/><polygon fill="#A80036" points="315.85,426.85,325.58,425.3245,320.0494,424.1361,321.2378,418.6055,315.85,426.85" style="stroke:#A80036;stroke-width:1.0;"/><polygon fill="#000000" points="383.7994,391.2784,392.9924,388.8415,389.8043,383.9033,383.7994,391.2784" style="stroke:#000000;stroke-width:1.0;"/><text fill="#000000" font-family="sans-serif" font-size="13" lengthAdjust="spacing" textLength="39" x="397" y="393.0669">knows</text><text fill="#000000" font-family="sans-serif" font-size="13" lengthAdjust="spacing" textLength="8" x="415.6739" y="370.1335">1</text><text fill="#000000" font-family="sans-serif" font-size="13" lengthAdjust="spacing" textLength="7" x="319.463" y="416.0248">*</text><!--MD5=[ab8b6bcf2b160f8e5ddbe85b185c2b25]
link EmployeeRolesStore to EmployeeRole--><path codeLine="60" d="M489.49,526.4 C466.91,551.63 429.02,592.4 393,624 C381.43,634.15 368.4,644.4 355.95,653.7 " fill="none" id="EmployeeRolesStore-EmployeeRole" style="stroke:#A80036;stroke-width:1.0;"/><polygon fill="#000000" points="410.3809,619.0164,418.9557,614.9026,414.9001,610.6481,410.3809,619.0164" style="stroke:#000000;stroke-width:1.0;"/><text fill="#000000" font-family="sans-serif" font-size="13" lengthAdjust="spacing" textLength="40" x="423" y="620.0669">stores</text><text fill="#000000" font-family="sans-serif" font-size="13" lengthAdjust="spacing" textLength="8" x="475.5157" y="546.2587">1</text><text fill="#000000" font-family="sans-serif" font-size="13" lengthAdjust="spacing" textLength="7" x="357.5802" y="642.8335">*</text><!--MD5=[3b970883116b5f582200a271937577ff]
link Company to EmployeeRolesStore--><path codeLine="61" d="M510,350.05 C510,388.43 510,440.68 510,472.56 " fill="none" id="Company-to-EmployeeRolesStore" style="stroke:#A80036;stroke-width:1.0;stroke-dasharray:7.0,7.0;"/><polygon fill="#A80036" points="510,477.88,514,468.88,510,472.88,506,468.88,510,477.88" style="stroke:#A80036;stroke-width:1.0;"/><!--MD5=[1831a7701810a27d6381c866aeaf1707]
link Employee to EmployeeRole--><path codeLine="62" d="M226.07,577.08 C232.64,593.01 240.34,609.43 249,624 C255.1,634.26 262.75,644.55 270.4,653.85 " fill="none" id="Employee-EmployeeRole" style="stroke:#A80036;stroke-width:1.0;"/><polygon fill="#000000" points="256.5003,619.8964,254.5223,610.5938,249.4321,613.533,256.5003,619.8964" style="stroke:#000000;stroke-width:1.0;"/><text fill="#000000" font-family="sans-serif" font-size="13" lengthAdjust="spacing" textLength="23" x="263" y="620.0669">has</text><text fill="#000000" font-family="sans-serif" font-size="13" lengthAdjust="spacing" textLength="8" x="220.2428" y="597.6472">1</text><text fill="#000000" font-family="sans-serif" font-size="13" lengthAdjust="spacing" textLength="7" x="256.7916" y="643.0102">*</text><!--MD5=[1e9705534ea2f5f3045e58998aa20e5a]
reverse link User to Employee--><path codeLine="64" d="M201,370.24 C201,388.5 201,408.31 201,426.85 " fill="none" id="User-backto-Employee" style="stroke:#A80036;stroke-width:1.0;"/><polygon fill="none" points="194,370.05,201,350.05,208,370.05,194,370.05" style="stroke:#A80036;stroke-width:1.0;"/><!--MD5=[c511c799291e89a8f49b49a29753f44d]
@startuml
skinparam classAttributeIconSize 0

class User {
  -name: String
  -email: String
  -pwd: String
  -roleId: String
}

class Employee {
  -id: String
  -name: String
  -email: String
  -phone: String
  -address: String
  -int citizenCardNumber
  -roleId: String
  
  +Employee(name,email,phone,address,citizenCardNumber,roleId)
}

class Company {
  -designation: String
  +Company(designation)

  + AuthFacade getAuthFacade()
}

class AuthFacade {
  +existsRole(String roleId)
  +getUserRoles()
  +getUsersWithRole(String roleId)
}

class EmployeeStore {
  +getEmployeesWithRole(roleId)
}

class ListEmployeeController {
  +getRoles()
  +getEmployeesByRoleId(role)
}

class EmployeeRole {
  -id: String
  -description: String
}

class ListEmployeeUI {}

ListEmployeeUI ..> ListEmployeeController
ListEmployeeController ..> Employee
ListEmployeeController ..> Company

Company ..> AuthFacade
Company ..> EmployeeStore
Employee "*" - - "1" EmployeeStore : stores <
Company "1" - -> "*" Employee : knows >

EmployeeRolesStore "1" - - "*" EmployeeRole : stores >
Company ..> EmployeeRolesStore
Employee "1" - - "*" EmployeeRole : has >

User <|- - Employee 

@enduml

PlantUML version 1.2022.0(Tue Jan 11 16:16:42 WET 2022)
(GPL source distribution)
Java Runtime: Java(TM) SE Runtime Environment
JVM: Java HotSpot(TM) 64-Bit Server VM
Default Encoding: UTF-8
Language: en
Country: US
--></g></svg>