<?xml version="1.0" encoding="UTF-8" standalone="no"?><svg xmlns="http://www.w3.org/2000/svg" xmlns:xlink="http://www.w3.org/1999/xlink" contentScriptType="application/ecmascript" contentStyleType="text/css" height="768px" preserveAspectRatio="none" style="width:954px;height:768px;background:#FFFFFF;" version="1.1" viewBox="0 0 954 768" width="954px" zoomAndPan="magnify"><defs><filter height="300%" id="f1flljq15eowf6" width="300%" x="-1" y="-1"><feGaussianBlur result="blurOut" stdDeviation="2.0"/><feColorMatrix in="blurOut" result="blurOut2" type="matrix" values="0 0 0 0 0 0 0 0 0 0 0 0 0 0 0 0 0 0 .4 0"/><feOffset dx="4.0" dy="4.0" in="blurOut2" result="blurOut3"/><feBlend in="SourceGraphic" in2="blurOut3" mode="normal"/></filter></defs><g><!--MD5=[3fd616f346a44cd59a91eb10b19e157c]
class User--><rect codeLine="3" fill="#FEFECE" filter="url(#f1flljq15eowf6)" height="99.2188" id="User" style="stroke:#A80036;stroke-width:1.5;" width="90" x="460" y="264"/><ellipse cx="488.05" cy="280" fill="#ADD1B2" rx="11" ry="11" style="stroke:#A80036;stroke-width:1.0;"/><path d="M491.0188,285.6406 Q490.4406,285.9375 489.8,286.0781 Q489.1594,286.2344 488.4563,286.2344 Q485.9563,286.2344 484.6281,284.5938 Q483.3156,282.9375 483.3156,279.8125 Q483.3156,276.6875 484.6281,275.0313 Q485.9563,273.375 488.4563,273.375 Q489.1594,273.375 489.8,273.5313 Q490.4563,273.6875 491.0188,273.9844 L491.0188,276.7031 Q490.3938,276.125 489.8,275.8594 Q489.2063,275.5781 488.5813,275.5781 Q487.2375,275.5781 486.55,276.6563 Q485.8625,277.7188 485.8625,279.8125 Q485.8625,281.9063 486.55,282.9844 Q487.2375,284.0469 488.5813,284.0469 Q489.2063,284.0469 489.8,283.7813 Q490.3938,283.5 491.0188,282.9219 L491.0188,285.6406 Z " fill="#000000"/><text fill="#000000" font-family="sans-serif" font-size="12" lengthAdjust="spacing" textLength="29" x="504.95" y="284.1543">User</text><line style="stroke:#A80036;stroke-width:1.5;" x1="461" x2="549" y1="296" y2="296"/><text fill="#000000" font-family="sans-serif" font-size="11" lengthAdjust="spacing" textLength="78" x="466" y="310.2104">-name: String</text><text fill="#000000" font-family="sans-serif" font-size="11" lengthAdjust="spacing" textLength="77" x="466" y="323.0151">-email: String</text><text fill="#000000" font-family="sans-serif" font-size="11" lengthAdjust="spacing" textLength="69" x="466" y="335.8198">-pwd: String</text><text fill="#000000" font-family="sans-serif" font-size="11" lengthAdjust="spacing" textLength="78" x="466" y="348.6245">-roleId: String</text><line style="stroke:#A80036;stroke-width:1.5;" x1="461" x2="549" y1="355.2188" y2="355.2188"/><!--MD5=[7421f545a0d8420c5bec41e74b387d9c]
class Employee--><rect codeLine="10" fill="#FEFECE" filter="url(#f1flljq15eowf6)" height="137.6328" id="Employee" style="stroke:#A80036;stroke-width:1.5;" width="388" x="311" y="453"/><ellipse cx="470.75" cy="469" fill="#ADD1B2" rx="11" ry="11" style="stroke:#A80036;stroke-width:1.0;"/><path d="M473.7188,474.6406 Q473.1406,474.9375 472.5,475.0781 Q471.8594,475.2344 471.1563,475.2344 Q468.6563,475.2344 467.3281,473.5938 Q466.0156,471.9375 466.0156,468.8125 Q466.0156,465.6875 467.3281,464.0313 Q468.6563,462.375 471.1563,462.375 Q471.8594,462.375 472.5,462.5313 Q473.1563,462.6875 473.7188,462.9844 L473.7188,465.7031 Q473.0938,465.125 472.5,464.8594 Q471.9063,464.5781 471.2813,464.5781 Q469.9375,464.5781 469.25,465.6563 Q468.5625,466.7188 468.5625,468.8125 Q468.5625,470.9063 469.25,471.9844 Q469.9375,473.0469 471.2813,473.0469 Q471.9063,473.0469 472.5,472.7813 Q473.0938,472.5 473.7188,471.9219 L473.7188,474.6406 Z " fill="#000000"/><text fill="#000000" font-family="sans-serif" font-size="12" lengthAdjust="spacing" textLength="60" x="491.25" y="473.1543">Employee</text><line style="stroke:#A80036;stroke-width:1.5;" x1="312" x2="698" y1="485" y2="485"/><text fill="#000000" font-family="sans-serif" font-size="11" lengthAdjust="spacing" textLength="56" x="317" y="499.2104">-id: String</text><text fill="#000000" font-family="sans-serif" font-size="11" lengthAdjust="spacing" textLength="81" x="317" y="512.0151">-phone: String</text><text fill="#000000" font-family="sans-serif" font-size="11" lengthAdjust="spacing" textLength="93" x="317" y="524.8198">-address: String</text><text fill="#000000" font-family="sans-serif" font-size="11" lengthAdjust="spacing" textLength="129" x="317" y="537.6245">-int citizenCardNumber</text><line style="stroke:#A80036;stroke-width:1.5;" x1="312" x2="698" y1="544.2188" y2="544.2188"/><text fill="#000000" font-family="sans-serif" font-size="11" lengthAdjust="spacing" textLength="376" x="317" y="558.4292">+Employee(name,email,phone,address,citizenCardNumber,roleId)</text><text fill="#000000" font-family="sans-serif" font-size="11" lengthAdjust="spacing" textLength="0" x="321" y="571.2339"/><text fill="#000000" font-family="sans-serif" font-size="11" lengthAdjust="spacing" textLength="104" x="317" y="584.0386">+hasRoleId(roleId)</text><!--MD5=[02e4b9b7573f1156f41e60aa5b4e25a4]
class Company--><rect codeLine="21" fill="#FEFECE" filter="url(#f1flljq15eowf6)" height="124.8281" id="Company" style="stroke:#A80036;stroke-width:1.5;" width="157" x="223.5" y="251"/><ellipse cx="269.25" cy="267" fill="#ADD1B2" rx="11" ry="11" style="stroke:#A80036;stroke-width:1.0;"/><path d="M272.2188,272.6406 Q271.6406,272.9375 271,273.0781 Q270.3594,273.2344 269.6563,273.2344 Q267.1563,273.2344 265.8281,271.5938 Q264.5156,269.9375 264.5156,266.8125 Q264.5156,263.6875 265.8281,262.0313 Q267.1563,260.375 269.6563,260.375 Q270.3594,260.375 271,260.5313 Q271.6563,260.6875 272.2188,260.9844 L272.2188,263.7031 Q271.5938,263.125 271,262.8594 Q270.4063,262.5781 269.7813,262.5781 Q268.4375,262.5781 267.75,263.6563 Q267.0625,264.7188 267.0625,266.8125 Q267.0625,268.9063 267.75,269.9844 Q268.4375,271.0469 269.7813,271.0469 Q270.4063,271.0469 271,270.7813 Q271.5938,270.5 272.2188,269.9219 L272.2188,272.6406 Z " fill="#000000"/><text fill="#000000" font-family="sans-serif" font-size="12" lengthAdjust="spacing" textLength="57" x="289.75" y="271.1543">Company</text><line style="stroke:#A80036;stroke-width:1.5;" x1="224.5" x2="379.5" y1="283" y2="283"/><text fill="#000000" font-family="sans-serif" font-size="11" lengthAdjust="spacing" textLength="112" x="229.5" y="297.2104">-designation: String</text><line style="stroke:#A80036;stroke-width:1.5;" x1="224.5" x2="379.5" y1="303.8047" y2="303.8047"/><text fill="#000000" font-family="sans-serif" font-size="11" lengthAdjust="spacing" textLength="136" x="229.5" y="318.0151">+Company(designation)</text><text fill="#000000" font-family="sans-serif" font-size="11" lengthAdjust="spacing" textLength="0" x="233.5" y="330.8198"/><text fill="#000000" font-family="sans-serif" font-size="11" lengthAdjust="spacing" textLength="100" x="229.5" y="343.6245">+getAuthFacade()</text><text fill="#000000" font-family="sans-serif" font-size="11" lengthAdjust="spacing" textLength="121" x="229.5" y="356.4292">+getEmployeeStore()</text><text fill="#000000" font-family="sans-serif" font-size="11" lengthAdjust="spacing" textLength="145" x="229.5" y="369.2339">+getEmployeeRoleStore()</text><!--MD5=[8ae808d068a8995f06b9b3ec51357f0b]
class AuthFacade--><rect codeLine="31" fill="#FEFECE" filter="url(#f1flljq15eowf6)" height="86.4141" id="AuthFacade" style="stroke:#A80036;stroke-width:1.5;" width="198" x="7" y="479"/><ellipse cx="64.25" cy="495" fill="#ADD1B2" rx="11" ry="11" style="stroke:#A80036;stroke-width:1.0;"/><path d="M67.2188,500.6406 Q66.6406,500.9375 66,501.0781 Q65.3594,501.2344 64.6563,501.2344 Q62.1563,501.2344 60.8281,499.5938 Q59.5156,497.9375 59.5156,494.8125 Q59.5156,491.6875 60.8281,490.0313 Q62.1563,488.375 64.6563,488.375 Q65.3594,488.375 66,488.5313 Q66.6563,488.6875 67.2188,488.9844 L67.2188,491.7031 Q66.5938,491.125 66,490.8594 Q65.4063,490.5781 64.7813,490.5781 Q63.4375,490.5781 62.75,491.6563 Q62.0625,492.7188 62.0625,494.8125 Q62.0625,496.9063 62.75,497.9844 Q63.4375,499.0469 64.7813,499.0469 Q65.4063,499.0469 66,498.7813 Q66.5938,498.5 67.2188,497.9219 L67.2188,500.6406 Z " fill="#000000"/><text fill="#000000" font-family="sans-serif" font-size="12" lengthAdjust="spacing" textLength="75" x="84.75" y="499.1543">AuthFacade</text><line style="stroke:#A80036;stroke-width:1.5;" x1="8" x2="204" y1="511" y2="511"/><line style="stroke:#A80036;stroke-width:1.5;" x1="8" x2="204" y1="519" y2="519"/><text fill="#000000" font-family="sans-serif" font-size="11" lengthAdjust="spacing" textLength="145" x="13" y="533.2104">+existsRole(String roleId)</text><text fill="#000000" font-family="sans-serif" font-size="11" lengthAdjust="spacing" textLength="93" x="13" y="546.0151">+getUserRoles()</text><text fill="#000000" font-family="sans-serif" font-size="11" lengthAdjust="spacing" textLength="186" x="13" y="558.8198">+getUsersWithRole(String roleId)</text><!--MD5=[829fb52c07ade3ad64ef85b99d1fca10]
class EmployeeStore--><rect codeLine="37" fill="#FEFECE" filter="url(#f1flljq15eowf6)" height="86.4141" id="EmployeeStore" style="stroke:#A80036;stroke-width:1.5;" width="424" x="111" y="668"/><ellipse cx="271.75" cy="684" fill="#ADD1B2" rx="11" ry="11" style="stroke:#A80036;stroke-width:1.0;"/><path d="M274.7188,689.6406 Q274.1406,689.9375 273.5,690.0781 Q272.8594,690.2344 272.1563,690.2344 Q269.6563,690.2344 268.3281,688.5938 Q267.0156,686.9375 267.0156,683.8125 Q267.0156,680.6875 268.3281,679.0313 Q269.6563,677.375 272.1563,677.375 Q272.8594,677.375 273.5,677.5313 Q274.1563,677.6875 274.7188,677.9844 L274.7188,680.7031 Q274.0938,680.125 273.5,679.8594 Q272.9063,679.5781 272.2813,679.5781 Q270.9375,679.5781 270.25,680.6563 Q269.5625,681.7188 269.5625,683.8125 Q269.5625,685.9063 270.25,686.9844 Q270.9375,688.0469 272.2813,688.0469 Q272.9063,688.0469 273.5,687.7813 Q274.0938,687.5 274.7188,686.9219 L274.7188,689.6406 Z " fill="#000000"/><text fill="#000000" font-family="sans-serif" font-size="12" lengthAdjust="spacing" textLength="94" x="292.25" y="688.1543">EmployeeStore</text><line style="stroke:#A80036;stroke-width:1.5;" x1="112" x2="534" y1="700" y2="700"/><line style="stroke:#A80036;stroke-width:1.5;" x1="112" x2="534" y1="708" y2="708"/><text fill="#000000" font-family="sans-serif" font-size="11" lengthAdjust="spacing" textLength="412" x="117" y="722.2104">+createEmployee(name,phoneNumber,email,address,citizenCard,roleId)</text><text fill="#000000" font-family="sans-serif" font-size="11" lengthAdjust="spacing" textLength="154" x="117" y="735.0151">+saveEmployee(employee)</text><text fill="#000000" font-family="sans-serif" font-size="11" lengthAdjust="spacing" textLength="176" x="117" y="747.8198">+getEmployeesWithRole(roleId)</text><!--MD5=[cedd4967a54d65e273403224efb15753]
class ListEmployeeController--><rect codeLine="43" fill="#FEFECE" filter="url(#f1flljq15eowf6)" height="73.6094" id="ListEmployeeController" style="stroke:#A80036;stroke-width:1.5;" width="179" x="212.5" y="116"/><ellipse cx="229.75" cy="132" fill="#ADD1B2" rx="11" ry="11" style="stroke:#A80036;stroke-width:1.0;"/><path d="M232.7188,137.6406 Q232.1406,137.9375 231.5,138.0781 Q230.8594,138.2344 230.1563,138.2344 Q227.6563,138.2344 226.3281,136.5938 Q225.0156,134.9375 225.0156,131.8125 Q225.0156,128.6875 226.3281,127.0313 Q227.6563,125.375 230.1563,125.375 Q230.8594,125.375 231.5,125.5313 Q232.1563,125.6875 232.7188,125.9844 L232.7188,128.7031 Q232.0938,128.125 231.5,127.8594 Q230.9063,127.5781 230.2813,127.5781 Q228.9375,127.5781 228.25,128.6563 Q227.5625,129.7188 227.5625,131.8125 Q227.5625,133.9063 228.25,134.9844 Q228.9375,136.0469 230.2813,136.0469 Q230.9063,136.0469 231.5,135.7813 Q232.0938,135.5 232.7188,134.9219 L232.7188,137.6406 Z " fill="#000000"/><text fill="#000000" font-family="sans-serif" font-size="12" lengthAdjust="spacing" textLength="142" x="244.25" y="136.1543">ListEmployeeController</text><line style="stroke:#A80036;stroke-width:1.5;" x1="213.5" x2="390.5" y1="148" y2="148"/><line style="stroke:#A80036;stroke-width:1.5;" x1="213.5" x2="390.5" y1="156" y2="156"/><text fill="#000000" font-family="sans-serif" font-size="11" lengthAdjust="spacing" textLength="66" x="218.5" y="170.2104">+getRoles()</text><text fill="#000000" font-family="sans-serif" font-size="11" lengthAdjust="spacing" textLength="167" x="218.5" y="183.0151">+getEmployeesByRoleId(role)</text><!--MD5=[b5be973b5d3f2d8f249510587bb68e72]
class EmployeeRole--><rect codeLine="48" fill="#FEFECE" filter="url(#f1flljq15eowf6)" height="73.6094" id="EmployeeRole" style="stroke:#A80036;stroke-width:1.5;" width="121" x="578.5" y="674"/><ellipse cx="594.4" cy="690" fill="#ADD1B2" rx="11" ry="11" style="stroke:#A80036;stroke-width:1.0;"/><path d="M597.3688,695.6406 Q596.7906,695.9375 596.15,696.0781 Q595.5094,696.2344 594.8063,696.2344 Q592.3063,696.2344 590.9781,694.5938 Q589.6656,692.9375 589.6656,689.8125 Q589.6656,686.6875 590.9781,685.0313 Q592.3063,683.375 594.8063,683.375 Q595.5094,683.375 596.15,683.5313 Q596.8063,683.6875 597.3688,683.9844 L597.3688,686.7031 Q596.7438,686.125 596.15,685.8594 Q595.5563,685.5781 594.9313,685.5781 Q593.5875,685.5781 592.9,686.6563 Q592.2125,687.7188 592.2125,689.8125 Q592.2125,691.9063 592.9,692.9844 Q593.5875,694.0469 594.9313,694.0469 Q595.5563,694.0469 596.15,693.7813 Q596.7438,693.5 597.3688,692.9219 L597.3688,695.6406 Z " fill="#000000"/><text fill="#000000" font-family="sans-serif" font-size="12" lengthAdjust="spacing" textLength="87" x="608.6" y="694.1543">EmployeeRole</text><line style="stroke:#A80036;stroke-width:1.5;" x1="579.5" x2="698.5" y1="706" y2="706"/><text fill="#000000" font-family="sans-serif" font-size="11" lengthAdjust="spacing" textLength="56" x="584.5" y="720.2104">-id: String</text><text fill="#000000" font-family="sans-serif" font-size="11" lengthAdjust="spacing" textLength="109" x="584.5" y="733.0151">-description: String</text><line style="stroke:#A80036;stroke-width:1.5;" x1="579.5" x2="698.5" y1="739.6094" y2="739.6094"/><!--MD5=[1648e653497aaae0b857fb5a1aa684e5]
class ListEmployeeUI--><rect codeLine="53" fill="#FEFECE" filter="url(#f1flljq15eowf6)" height="48" id="ListEmployeeUI" style="stroke:#A80036;stroke-width:1.5;" width="125" x="239.5" y="7"/><ellipse cx="254.5" cy="23" fill="#ADD1B2" rx="11" ry="11" style="stroke:#A80036;stroke-width:1.0;"/><path d="M257.4688,28.6406 Q256.8906,28.9375 256.25,29.0781 Q255.6094,29.2344 254.9063,29.2344 Q252.4063,29.2344 251.0781,27.5938 Q249.7656,25.9375 249.7656,22.8125 Q249.7656,19.6875 251.0781,18.0313 Q252.4063,16.375 254.9063,16.375 Q255.6094,16.375 256.25,16.5313 Q256.9063,16.6875 257.4688,16.9844 L257.4688,19.7031 Q256.8438,19.125 256.25,18.8594 Q255.6563,18.5781 255.0313,18.5781 Q253.6875,18.5781 253,19.6563 Q252.3125,20.7188 252.3125,22.8125 Q252.3125,24.9063 253,25.9844 Q253.6875,27.0469 255.0313,27.0469 Q255.6563,27.0469 256.25,26.7813 Q256.8438,26.5 257.4688,25.9219 L257.4688,28.6406 Z " fill="#000000"/><text fill="#000000" font-family="sans-serif" font-size="12" lengthAdjust="spacing" textLength="93" x="268.5" y="27.1543">ListEmployeeUI</text><line style="stroke:#A80036;stroke-width:1.5;" x1="240.5" x2="363.5" y1="39" y2="39"/><line style="stroke:#A80036;stroke-width:1.5;" x1="240.5" x2="363.5" y1="47" y2="47"/><!--MD5=[40ed7a25b95491635849acdfef2b0459]
class EmployeeRolesStore--><rect codeLine="55" fill="#FEFECE" filter="url(#f1flljq15eowf6)" height="86.4141" id="EmployeeRolesStore" style="stroke:#A80036;stroke-width:1.5;" width="206" x="734" y="479"/><ellipse cx="769.7" cy="495" fill="#ADD1B2" rx="11" ry="11" style="stroke:#A80036;stroke-width:1.0;"/><path d="M772.6688,500.6406 Q772.0906,500.9375 771.45,501.0781 Q770.8094,501.2344 770.1063,501.2344 Q767.6063,501.2344 766.2781,499.5938 Q764.9656,497.9375 764.9656,494.8125 Q764.9656,491.6875 766.2781,490.0313 Q767.6063,488.375 770.1063,488.375 Q770.8094,488.375 771.45,488.5313 Q772.1063,488.6875 772.6688,488.9844 L772.6688,491.7031 Q772.0438,491.125 771.45,490.8594 Q770.8563,490.5781 770.2313,490.5781 Q768.8875,490.5781 768.2,491.6563 Q767.5125,492.7188 767.5125,494.8125 Q767.5125,496.9063 768.2,497.9844 Q768.8875,499.0469 770.2313,499.0469 Q770.8563,499.0469 771.45,498.7813 Q772.0438,498.5 772.6688,497.9219 L772.6688,500.6406 Z " fill="#000000"/><text fill="#000000" font-family="sans-serif" font-size="12" lengthAdjust="spacing" textLength="128" x="788.3" y="499.1543">EmployeeRolesStore</text><line style="stroke:#A80036;stroke-width:1.5;" x1="735" x2="939" y1="511" y2="511"/><line style="stroke:#A80036;stroke-width:1.5;" x1="735" x2="939" y1="519" y2="519"/><text fill="#000000" font-family="sans-serif" font-size="11" lengthAdjust="spacing" textLength="194" x="740" y="533.2104">+addEmployeeRole(id,description)</text><text fill="#000000" font-family="sans-serif" font-size="11" lengthAdjust="spacing" textLength="66" x="740" y="546.0151">+getRoles()</text><text fill="#000000" font-family="sans-serif" font-size="11" lengthAdjust="spacing" textLength="85" x="740" y="558.8198">+existsRole(id)</text><!--MD5=[1a586c3a4709423d02ac896cff2c39b6]
link ListEmployeeUI to ListEmployeeController--><path codeLine="61" d="M302,55.14 C302,70.83 302,92 302,110.55 " fill="none" id="ListEmployeeUI-to-ListEmployeeController" style="stroke:#A80036;stroke-width:1.0;stroke-dasharray:7.0,7.0;"/><polygon fill="#A80036" points="302,115.71,306,106.71,302,110.71,298,106.71,302,115.71" style="stroke:#A80036;stroke-width:1.0;"/><!--MD5=[fdf3f1dae370c95101789c1677ee20c5]
link ListEmployeeController to Company--><path codeLine="62" d="M302,190.36 C302,206.74 302,226.61 302,245.52 " fill="none" id="ListEmployeeController-to-Company" style="stroke:#A80036;stroke-width:1.0;stroke-dasharray:7.0,7.0;"/><polygon fill="#A80036" points="302,250.83,306,241.83,302,245.83,298,241.83,302,250.83" style="stroke:#A80036;stroke-width:1.0;"/><!--MD5=[717d4b03d3c4372f4eafe5e342a0a7dd]
link Company to AuthFacade--><path codeLine="64" d="M243.46,376.18 C213.34,407.91 177.25,445.93 149.61,475.05 " fill="none" id="Company-to-AuthFacade" style="stroke:#A80036;stroke-width:1.0;stroke-dasharray:7.0,7.0;"/><polygon fill="#A80036" points="145.94,478.92,155.0364,475.1444,149.3815,475.2929,149.233,469.638,145.94,478.92" style="stroke:#A80036;stroke-width:1.0;"/><!--MD5=[ce859576cba61219b3cb4d2d23fdcd81]
link Company to EmployeeStore--><path codeLine="65" d="M294.51,376.25 C289,432.45 283.89,517.6 293,591 C295.99,615.08 302.26,641.29 308.29,662.96 " fill="none" id="Company-to-EmployeeStore" style="stroke:#A80036;stroke-width:1.0;stroke-dasharray:7.0,7.0;"/><polygon fill="#A80036" points="309.66,667.8,311.068,658.0523,308.3034,662.9876,303.3681,660.2229,309.66,667.8" style="stroke:#A80036;stroke-width:1.0;"/><!--MD5=[eed32de0063c056c269410cb00f5a5fb]
link Employee to EmployeeStore--><path codeLine="66" d="M438.78,591.04 C413.78,616.73 386.07,645.2 364.03,667.84 " fill="none" id="Employee-EmployeeStore" style="stroke:#A80036;stroke-width:1.0;"/><polygon fill="#000000" points="417.4874,625.9834,409.0726,630.4153,413.2847,634.515,417.4874,625.9834" style="stroke:#000000;stroke-width:1.0;"/><text fill="#000000" font-family="sans-serif" font-size="13" lengthAdjust="spacing" textLength="40" x="423" y="634.0669">stores</text><text fill="#000000" font-family="sans-serif" font-size="13" lengthAdjust="spacing" textLength="7" x="424.9169" y="610.6659">*</text><text fill="#000000" font-family="sans-serif" font-size="13" lengthAdjust="spacing" textLength="8" x="361.9317" y="656.8105">1</text><!--MD5=[09366576ee87d48d594df10cacc83f45]
link Company to Employee--><path codeLine="67" d="M328.98,376.12 C337.78,392.4 348.55,409.25 361,423 C369.42,432.3 378.89,441.16 388.86,449.48 " fill="none" id="Company-to-Employee" style="stroke:#A80036;stroke-width:1.0;"/><polygon fill="#A80036" points="392.85,452.77,388.4386,443.9643,388.9879,449.5945,383.3577,450.1438,392.85,452.77" style="stroke:#A80036;stroke-width:1.0;"/><polygon fill="#000000" points="369.1617,418.4399,365.7189,409.5743,361.1654,413.2911,369.1617,418.4399" style="stroke:#000000;stroke-width:1.0;"/><text fill="#000000" font-family="sans-serif" font-size="13" lengthAdjust="spacing" textLength="39" x="375" y="419.0669">knows</text><text fill="#000000" font-family="sans-serif" font-size="13" lengthAdjust="spacing" textLength="8" x="323.4934" y="395.8729">1</text><text fill="#000000" font-family="sans-serif" font-size="13" lengthAdjust="spacing" textLength="7" x="373.9236" y="441.9499">*</text><!--MD5=[ab8b6bcf2b160f8e5ddbe85b185c2b25]
link EmployeeRolesStore to EmployeeRole--><path codeLine="69" d="M792.07,565.43 C757.5,598.08 710.24,642.72 677.41,673.72 " fill="none" id="EmployeeRolesStore-EmployeeRole" style="stroke:#A80036;stroke-width:1.0;"/><polygon fill="#000000" points="733.3649,632.9995,741.9588,628.9256,737.9229,624.6523,733.3649,632.9995" style="stroke:#000000;stroke-width:1.0;"/><text fill="#000000" font-family="sans-serif" font-size="13" lengthAdjust="spacing" textLength="40" x="746" y="634.0669">stores</text><text fill="#000000" font-family="sans-serif" font-size="13" lengthAdjust="spacing" textLength="8" x="776.2718" y="585.5915">1</text><text fill="#000000" font-family="sans-serif" font-size="13" lengthAdjust="spacing" textLength="7" x="676.6283" y="662.8571">*</text><!--MD5=[3b970883116b5f582200a271937577ff]
link Company to EmployeeRolesStore--><path codeLine="70" d="M380.95,367.25 C415.26,387.8 456.75,409.59 497,423 C590.62,454.2 623.5,421.44 717,453 C734.42,458.88 752.19,467.35 768.52,476.33 " fill="none" id="Company-to-EmployeeRolesStore" style="stroke:#A80036;stroke-width:1.0;stroke-dasharray:7.0,7.0;"/><polygon fill="#A80036" points="773.09,478.87,767.1652,471.0026,768.7192,476.4418,763.28,477.9958,773.09,478.87" style="stroke:#A80036;stroke-width:1.0;"/><!--MD5=[1831a7701810a27d6381c866aeaf1707]
link Employee to EmployeeRole--><path codeLine="71" d="M553.76,591.04 C573.81,619.03 596.23,650.31 613.04,673.77 " fill="none" id="Employee-EmployeeRole" style="stroke:#A80036;stroke-width:1.0;"/><polygon fill="#000000" points="592.9123,633.6307,590.0329,624.5665,585.255,627.9901,592.9123,633.6307" style="stroke:#000000;stroke-width:1.0;"/><text fill="#000000" font-family="sans-serif" font-size="13" lengthAdjust="spacing" textLength="23" x="599" y="634.0669">has</text><text fill="#000000" font-family="sans-serif" font-size="13" lengthAdjust="spacing" textLength="8" x="550.1661" y="610.6659">1</text><text fill="#000000" font-family="sans-serif" font-size="13" lengthAdjust="spacing" textLength="7" x="600.7924" y="662.916">*</text><!--MD5=[48afc90033d240f0c7566c2ff402e39b]
link User to Employee--><path codeLine="73" d="M505,363.18 C505,389.89 505,423.43 505,452.72 " fill="none" id="User-Employee" style="stroke:#A80036;stroke-width:1.0;"/><polygon fill="#000000" points="510,409.5664,507.0611,418.6115,512.9389,418.6115,510,409.5664" style="stroke:#000000;stroke-width:1.0;"/><text fill="#000000" font-family="sans-serif" font-size="13" lengthAdjust="spacing" textLength="96" x="519" y="419.0669">corresponds to</text><!--MD5=[7343b67dec527a75e62d6c30e0599463]
@startuml
skinparam classAttributeIconSize 0

class User {
  -name: String
  -email: String
  -pwd: String
  -roleId: String
}

class Employee {
  -id: String
  -phone: String
  -address: String
  -int citizenCardNumber
  
  +Employee(name,email,phone,address,citizenCardNumber,roleId)

  +hasRoleId(roleId)
}

class Company {
  -designation: String
  
  +Company(designation)

  +getAuthFacade()
  +getEmployeeStore()
  +getEmployeeRoleStore()
}

class AuthFacade {
  +existsRole(String roleId)
  +getUserRoles()
  +getUsersWithRole(String roleId)
}

class EmployeeStore {
  +createEmployee(name,phoneNumber,email,address,citizenCard,roleId)
  +saveEmployee(employee)
  +getEmployeesWithRole(roleId)
}

class ListEmployeeController {
  +getRoles()
  +getEmployeesByRoleId(role)
}

class EmployeeRole {
  -id: String
  -description: String
}

class ListEmployeeUI {}

class EmployeeRolesStore {
  +addEmployeeRole(id,description)
  +getRoles()
  +existsRole(id)
}

ListEmployeeUI ..> ListEmployeeController
ListEmployeeController ..> Company

Company ..> AuthFacade
Company ..> EmployeeStore
Employee "*" - - "1" EmployeeStore : stores <
Company "1" - -> "*" Employee : knows >

EmployeeRolesStore "1" - - "*" EmployeeRole : stores >
Company ..> EmployeeRolesStore
Employee "1" - - "*" EmployeeRole : has >

User - - Employee : corresponds to <

@enduml

PlantUML version 1.2022.0(Tue Jan 11 16:16:42 WET 2022)
(GPL source distribution)
Java Runtime: OpenJDK Runtime Environment
JVM: OpenJDK 64-Bit Server VM
Default Encoding: UTF-8
Language: en
Country: US
--></g></svg>