<?xml version="1.0" encoding="UTF-8" standalone="no"?><svg xmlns="http://www.w3.org/2000/svg" xmlns:xlink="http://www.w3.org/1999/xlink" contentScriptType="application/ecmascript" contentStyleType="text/css" height="501px" preserveAspectRatio="none" style="width:402px;height:501px;background:#FFFFFF;" version="1.1" viewBox="0 0 402 501" width="402px" zoomAndPan="magnify"><defs><filter height="300%" id="f1ot332yrqcaj4" width="300%" x="-1" y="-1"><feGaussianBlur result="blurOut" stdDeviation="2.0"/><feColorMatrix in="blurOut" result="blurOut2" type="matrix" values="0 0 0 0 0 0 0 0 0 0 0 0 0 0 0 0 0 0 .4 0"/><feOffset dx="4.0" dy="4.0" in="blurOut2" result="blurOut3"/><feBlend in="SourceGraphic" in2="blurOut3" mode="normal"/></filter></defs><g><!--MD5=[3fd616f346a44cd59a91eb10b19e157c]
class User--><rect codeLine="3" fill="#FEFECE" filter="url(#f1ot332yrqcaj4)" height="99.2188" id="User" style="stroke:#A80036;stroke-width:1.5;" width="86" x="7" y="251"/><ellipse cx="33.25" cy="267" fill="#ADD1B2" rx="11" ry="11" style="stroke:#A80036;stroke-width:1.0;"/><path d="M36.2188,272.6406 Q35.6406,272.9375 35,273.0781 Q34.3594,273.2344 33.6563,273.2344 Q31.1563,273.2344 29.8281,271.5938 Q28.5156,269.9375 28.5156,266.8125 Q28.5156,263.6875 29.8281,262.0313 Q31.1563,260.375 33.6563,260.375 Q34.3594,260.375 35,260.5313 Q35.6563,260.6875 36.2188,260.9844 L36.2188,263.7031 Q35.5938,263.125 35,262.8594 Q34.4063,262.5781 33.7813,262.5781 Q32.4375,262.5781 31.75,263.6563 Q31.0625,264.7188 31.0625,266.8125 Q31.0625,268.9063 31.75,269.9844 Q32.4375,271.0469 33.7813,271.0469 Q34.4063,271.0469 35,270.7813 Q35.5938,270.5 36.2188,269.9219 L36.2188,272.6406 Z " fill="#000000"/><text fill="#000000" font-family="sans-serif" font-size="12" lengthAdjust="spacing" textLength="29" x="49.75" y="271.1543">User</text><line style="stroke:#A80036;stroke-width:1.5;" x1="8" x2="92" y1="283" y2="283"/><text fill="#000000" font-family="sans-serif" font-size="11" lengthAdjust="spacing" textLength="74" x="13" y="297.2104">-String name</text><text fill="#000000" font-family="sans-serif" font-size="11" lengthAdjust="spacing" textLength="73" x="13" y="310.0151">-String email</text><text fill="#000000" font-family="sans-serif" font-size="11" lengthAdjust="spacing" textLength="65" x="13" y="322.8198">-String pwd</text><text fill="#000000" font-family="sans-serif" font-size="11" lengthAdjust="spacing" textLength="74" x="13" y="335.6245">-String roleId</text><line style="stroke:#A80036;stroke-width:1.5;" x1="8" x2="92" y1="342.2188" y2="342.2188"/><!--MD5=[7421f545a0d8420c5bec41e74b387d9c]
class Employee--><rect codeLine="10" fill="#FEFECE" filter="url(#f1ot332yrqcaj4)" height="60.8047" id="Employee" style="stroke:#A80036;stroke-width:1.5;" width="214" x="39" y="427"/><ellipse cx="111.75" cy="443" fill="#ADD1B2" rx="11" ry="11" style="stroke:#A80036;stroke-width:1.0;"/><path d="M114.7188,448.6406 Q114.1406,448.9375 113.5,449.0781 Q112.8594,449.2344 112.1563,449.2344 Q109.6563,449.2344 108.3281,447.5938 Q107.0156,445.9375 107.0156,442.8125 Q107.0156,439.6875 108.3281,438.0313 Q109.6563,436.375 112.1563,436.375 Q112.8594,436.375 113.5,436.5313 Q114.1563,436.6875 114.7188,436.9844 L114.7188,439.7031 Q114.0938,439.125 113.5,438.8594 Q112.9063,438.5781 112.2813,438.5781 Q110.9375,438.5781 110.25,439.6563 Q109.5625,440.7188 109.5625,442.8125 Q109.5625,444.9063 110.25,445.9844 Q110.9375,447.0469 112.2813,447.0469 Q112.9063,447.0469 113.5,446.7813 Q114.0938,446.5 114.7188,445.9219 L114.7188,448.6406 Z " fill="#000000"/><text fill="#000000" font-family="sans-serif" font-size="12" lengthAdjust="spacing" textLength="60" x="132.25" y="447.1543">Employee</text><line style="stroke:#A80036;stroke-width:1.5;" x1="40" x2="252" y1="459" y2="459"/><line style="stroke:#A80036;stroke-width:1.5;" x1="40" x2="252" y1="467" y2="467"/><text fill="#000000" font-family="sans-serif" font-size="11" lengthAdjust="spacing" textLength="202" x="45" y="481.2104">+Employee(name,email,pwd,roleId)</text><!--MD5=[02e4b9b7573f1156f41e60aa5b4e25a4]
class Company--><rect codeLine="14" fill="#FEFECE" filter="url(#f1ot332yrqcaj4)" height="99.2188" id="Company" style="stroke:#A80036;stroke-width:1.5;" width="189" x="199.5" y="251"/><ellipse cx="261.25" cy="267" fill="#ADD1B2" rx="11" ry="11" style="stroke:#A80036;stroke-width:1.0;"/><path d="M264.2188,272.6406 Q263.6406,272.9375 263,273.0781 Q262.3594,273.2344 261.6563,273.2344 Q259.1563,273.2344 257.8281,271.5938 Q256.5156,269.9375 256.5156,266.8125 Q256.5156,263.6875 257.8281,262.0313 Q259.1563,260.375 261.6563,260.375 Q262.3594,260.375 263,260.5313 Q263.6563,260.6875 264.2188,260.9844 L264.2188,263.7031 Q263.5938,263.125 263,262.8594 Q262.4063,262.5781 261.7813,262.5781 Q260.4375,262.5781 259.75,263.6563 Q259.0625,264.7188 259.0625,266.8125 Q259.0625,268.9063 259.75,269.9844 Q260.4375,271.0469 261.7813,271.0469 Q262.4063,271.0469 263,270.7813 Q263.5938,270.5 264.2188,269.9219 L264.2188,272.6406 Z " fill="#000000"/><text fill="#000000" font-family="sans-serif" font-size="12" lengthAdjust="spacing" textLength="57" x="281.75" y="271.1543">Company</text><line style="stroke:#A80036;stroke-width:1.5;" x1="200.5" x2="387.5" y1="283" y2="283"/><text fill="#000000" font-family="sans-serif" font-size="11" lengthAdjust="spacing" textLength="108" x="205.5" y="297.2104">-String designation</text><line style="stroke:#A80036;stroke-width:1.5;" x1="200.5" x2="387.5" y1="303.8047" y2="303.8047"/><text fill="#000000" font-family="sans-serif" font-size="11" lengthAdjust="spacing" textLength="136" x="205.5" y="318.0151">+Company(designation)</text><text fill="#000000" font-family="sans-serif" font-size="11" lengthAdjust="spacing" textLength="0" x="209.5" y="330.8198"/><text fill="#000000" font-family="sans-serif" font-size="11" lengthAdjust="spacing" textLength="177" x="205.5" y="343.6245">+getEmployeesByRoleId(roleId)</text><!--MD5=[cedd4967a54d65e273403224efb15753]
class ListEmployeeController--><rect codeLine="21" fill="#FEFECE" filter="url(#f1ot332yrqcaj4)" height="73.6094" id="ListEmployeeController" style="stroke:#A80036;stroke-width:1.5;" width="179" x="76.5" y="116"/><ellipse cx="93.75" cy="132" fill="#ADD1B2" rx="11" ry="11" style="stroke:#A80036;stroke-width:1.0;"/><path d="M96.7188,137.6406 Q96.1406,137.9375 95.5,138.0781 Q94.8594,138.2344 94.1563,138.2344 Q91.6563,138.2344 90.3281,136.5938 Q89.0156,134.9375 89.0156,131.8125 Q89.0156,128.6875 90.3281,127.0313 Q91.6563,125.375 94.1563,125.375 Q94.8594,125.375 95.5,125.5313 Q96.1563,125.6875 96.7188,125.9844 L96.7188,128.7031 Q96.0938,128.125 95.5,127.8594 Q94.9063,127.5781 94.2813,127.5781 Q92.9375,127.5781 92.25,128.6563 Q91.5625,129.7188 91.5625,131.8125 Q91.5625,133.9063 92.25,134.9844 Q92.9375,136.0469 94.2813,136.0469 Q94.9063,136.0469 95.5,135.7813 Q96.0938,135.5 96.7188,134.9219 L96.7188,137.6406 Z " fill="#000000"/><text fill="#000000" font-family="sans-serif" font-size="12" lengthAdjust="spacing" textLength="142" x="108.25" y="136.1543">ListEmployeeController</text><line style="stroke:#A80036;stroke-width:1.5;" x1="77.5" x2="254.5" y1="148" y2="148"/><line style="stroke:#A80036;stroke-width:1.5;" x1="77.5" x2="254.5" y1="156" y2="156"/><text fill="#000000" font-family="sans-serif" font-size="11" lengthAdjust="spacing" textLength="66" x="82.5" y="170.2104">+getRoles()</text><text fill="#000000" font-family="sans-serif" font-size="11" lengthAdjust="spacing" textLength="167" x="82.5" y="183.0151">+getEmployeesByRoleId(role)</text><!--MD5=[1648e653497aaae0b857fb5a1aa684e5]
class ListEmployeeUI--><rect codeLine="26" fill="#FEFECE" filter="url(#f1ot332yrqcaj4)" height="48" id="ListEmployeeUI" style="stroke:#A80036;stroke-width:1.5;" width="125" x="103.5" y="7"/><ellipse cx="118.5" cy="23" fill="#ADD1B2" rx="11" ry="11" style="stroke:#A80036;stroke-width:1.0;"/><path d="M121.4688,28.6406 Q120.8906,28.9375 120.25,29.0781 Q119.6094,29.2344 118.9063,29.2344 Q116.4063,29.2344 115.0781,27.5938 Q113.7656,25.9375 113.7656,22.8125 Q113.7656,19.6875 115.0781,18.0313 Q116.4063,16.375 118.9063,16.375 Q119.6094,16.375 120.25,16.5313 Q120.9063,16.6875 121.4688,16.9844 L121.4688,19.7031 Q120.8438,19.125 120.25,18.8594 Q119.6563,18.5781 119.0313,18.5781 Q117.6875,18.5781 117,19.6563 Q116.3125,20.7188 116.3125,22.8125 Q116.3125,24.9063 117,25.9844 Q117.6875,27.0469 119.0313,27.0469 Q119.6563,27.0469 120.25,26.7813 Q120.8438,26.5 121.4688,25.9219 L121.4688,28.6406 Z " fill="#000000"/><text fill="#000000" font-family="sans-serif" font-size="12" lengthAdjust="spacing" textLength="93" x="132.5" y="27.1543">ListEmployeeUI</text><line style="stroke:#A80036;stroke-width:1.5;" x1="104.5" x2="227.5" y1="39" y2="39"/><line style="stroke:#A80036;stroke-width:1.5;" x1="104.5" x2="227.5" y1="47" y2="47"/><!--MD5=[1a586c3a4709423d02ac896cff2c39b6]
link ListEmployeeUI to ListEmployeeController--><path codeLine="28" d="M166,55.14 C166,70.83 166,92 166,110.55 " fill="none" id="ListEmployeeUI-to-ListEmployeeController" style="stroke:#A80036;stroke-width:1.0;stroke-dasharray:7.0,7.0;"/><polygon fill="#A80036" points="166,115.71,170,106.71,166,110.71,162,106.71,166,115.71" style="stroke:#A80036;stroke-width:1.0;"/><!--MD5=[3445064b1b77df7829934ecddd3250cd]
link ListEmployeeController to Employee--><path codeLine="29" d="M163.61,190.19 C159.73,248.8 152.13,363.73 148.31,421.54 " fill="none" id="ListEmployeeController-to-Employee" style="stroke:#A80036;stroke-width:1.0;stroke-dasharray:7.0,7.0;"/><polygon fill="#A80036" points="147.98,426.62,152.5632,417.9025,148.3088,421.6308,144.5805,417.3764,147.98,426.62" style="stroke:#A80036;stroke-width:1.0;"/><!--MD5=[fdf3f1dae370c95101789c1677ee20c5]
link ListEmployeeController to Company--><path codeLine="30" d="M197.97,190.34 C212.91,207.32 230.98,227.87 247.41,246.53 " fill="none" id="ListEmployeeController-to-Company" style="stroke:#A80036;stroke-width:1.0;stroke-dasharray:7.0,7.0;"/><polygon fill="#A80036" points="251.1,250.74,248.1661,241.3383,247.8004,246.9833,242.1554,246.6176,251.1,250.74" style="stroke:#A80036;stroke-width:1.0;"/><!--MD5=[09366576ee87d48d594df10cacc83f45]
link Company to Employee--><path codeLine="31" d="M247.58,350.12 C224.98,373.79 198.38,401.65 178.07,422.92 " fill="none" id="Company-to-Employee" style="stroke:#A80036;stroke-width:1.0;"/><polygon fill="#A80036" points="174.61,426.54,183.7138,422.7823,178.0586,422.9197,177.9213,417.2645,174.61,426.54" style="stroke:#A80036;stroke-width:1.0;"/><text fill="#000000" font-family="sans-serif" font-size="13" lengthAdjust="spacing" textLength="70" x="216" y="393.0669">employees</text><text fill="#000000" font-family="sans-serif" font-size="13" lengthAdjust="spacing" textLength="8" x="232.4897" y="370.2134">1</text><text fill="#000000" font-family="sans-serif" font-size="13" lengthAdjust="spacing" textLength="7" x="172.7889" y="415.7084">*</text><!--MD5=[1e9705534ea2f5f3045e58998aa20e5a]
reverse link User to Employee--><path codeLine="33" d="M90.81,367.4 C103.57,387.99 117.02,409.71 127.44,426.54 " fill="none" id="User-backto-Employee" style="stroke:#A80036;stroke-width:1.0;stroke-dasharray:7.0,7.0;"/><polygon fill="none" points="84.69,370.81,80.11,350.12,96.59,363.43,84.69,370.81" style="stroke:#A80036;stroke-width:1.0;"/><!--MD5=[ffe101fa0d79dc0be16f873ab73876f7]
@startuml
skinparam classAttributeIconSize 0

class User {
  - String name
  - String email
  - String pwd
  - String roleId
}

class Employee {
  +Employee(name,email,pwd,roleId)
}

class Company {
  -String designation
  +Company(designation)

  +getEmployeesByRoleId(roleId)
}

class ListEmployeeController {
  +getRoles()
  +getEmployeesByRoleId(role)
}

class ListEmployeeUI {}

ListEmployeeUI ..> ListEmployeeController
ListEmployeeController ..> Employee
ListEmployeeController ..> Company
Company "1" - -> "*" Employee : employees

User <|.. Employee 

@enduml

PlantUML version 1.2022.0(Tue Jan 11 16:16:42 WET 2022)
(GPL source distribution)
Java Runtime: OpenJDK Runtime Environment
JVM: OpenJDK 64-Bit Server VM
Default Encoding: UTF-8
Language: en
Country: US
--></g></svg>