<?xml version="1.0" encoding="UTF-8" standalone="no"?><svg xmlns="http://www.w3.org/2000/svg" xmlns:xlink="http://www.w3.org/1999/xlink" contentScriptType="application/ecmascript" contentStyleType="text/css" height="838px" preserveAspectRatio="none" style="width:298px;height:838px;background:#FFFFFF;" version="1.1" viewBox="0 0 298 838" width="298px" zoomAndPan="magnify"><defs><filter height="300%" id="f1p3k4llsdisw2" width="300%" x="-1" y="-1"><feGaussianBlur result="blurOut" stdDeviation="2.0"/><feColorMatrix in="blurOut" result="blurOut2" type="matrix" values="0 0 0 0 0 0 0 0 0 0 0 0 0 0 0 0 0 0 .4 0"/><feOffset dx="4.0" dy="4.0" in="blurOut2" result="blurOut3"/><feBlend in="SourceGraphic" in2="blurOut3" mode="normal"/></filter></defs><g><!--MD5=[02e4b9b7573f1156f41e60aa5b4e25a4]
class Company--><rect codeLine="4" fill="#FEFECE" filter="url(#f1p3k4llsdisw2)" height="53.8359" id="Company" style="stroke:#A80036;stroke-width:1.5;" width="85" x="95.2" y="7"/><ellipse cx="110.2" cy="23" fill="#ADD1B2" rx="11" ry="11" style="stroke:#A80036;stroke-width:1.0;"/><path d="M112.9656,18.875 Q113.1219,18.6563 113.3094,18.5469 Q113.4969,18.4375 113.7156,18.4375 Q114.0906,18.4375 114.325,18.7031 Q114.5594,18.9531 114.5594,19.5625 L114.5594,21.0156 Q114.5594,21.625 114.325,21.8906 Q114.0906,22.1563 113.7156,22.1563 Q113.3719,22.1563 113.1687,21.9531 Q112.9656,21.7656 112.8562,21.25 Q112.8094,20.8906 112.6219,20.7031 Q112.2937,20.3281 111.6844,20.1094 Q111.075,19.8906 110.45,19.8906 Q109.6844,19.8906 109.0437,20.2188 Q108.4187,20.5469 107.9187,21.2969 Q107.4344,22.0469 107.4344,23.0781 L107.4344,24.1719 Q107.4344,25.4063 108.325,26.2344 Q109.2156,27.0469 110.8094,27.0469 Q111.7469,27.0469 112.4031,26.7969 Q112.7937,26.6406 113.2156,26.2031 Q113.4812,25.9375 113.6219,25.8594 Q113.7781,25.7813 113.9812,25.7813 Q114.3094,25.7813 114.5594,26.0469 Q114.825,26.2969 114.825,26.6406 Q114.825,26.9844 114.4812,27.3906 Q113.9812,27.9688 113.1844,28.2969 Q112.1062,28.75 110.8094,28.75 Q109.2937,28.75 108.0906,28.125 Q107.1062,27.625 106.4187,26.5625 Q105.7312,25.4844 105.7312,24.2031 L105.7312,23.0469 Q105.7312,21.7188 106.3406,20.5781 Q106.9656,19.4219 108.0594,18.8125 Q109.1531,18.1875 110.3875,18.1875 Q111.1219,18.1875 111.7625,18.3594 Q112.4187,18.5156 112.9656,18.875 Z " fill="#000000"/><text fill="#000000" font-family="sans-serif" font-size="12" lengthAdjust="spacing" textLength="53" x="124.2" y="27.9102">Company</text><line style="stroke:#A80036;stroke-width:1.5;" x1="96.2" x2="179.2" y1="39" y2="39"/><text fill="#000000" font-family="sans-serif" font-size="11" lengthAdjust="spacing" textLength="59" x="101.2" y="54.4189">-designation</text><!--MD5=[de60e6d4f424ae4d0522096f76a59010]
class VaccinationCenter--><rect codeLine="8" fill="#FEFECE" filter="url(#f1p3k4llsdisw2)" height="136.8516" id="VaccinationCenter" style="stroke:#A80036;stroke-width:1.5;" width="132" x="71.7" y="139"/><ellipse cx="86.7" cy="155" fill="#ADD1B2" rx="11" ry="11" style="stroke:#A80036;stroke-width:1.0;"/><path d="M89.4656,150.875 Q89.6219,150.6563 89.8094,150.5469 Q89.9969,150.4375 90.2156,150.4375 Q90.5906,150.4375 90.825,150.7031 Q91.0594,150.9531 91.0594,151.5625 L91.0594,153.0156 Q91.0594,153.625 90.825,153.8906 Q90.5906,154.1563 90.2156,154.1563 Q89.8719,154.1563 89.6688,153.9531 Q89.4656,153.7656 89.3563,153.25 Q89.3094,152.8906 89.1219,152.7031 Q88.7938,152.3281 88.1844,152.1094 Q87.575,151.8906 86.95,151.8906 Q86.1844,151.8906 85.5438,152.2188 Q84.9188,152.5469 84.4188,153.2969 Q83.9344,154.0469 83.9344,155.0781 L83.9344,156.1719 Q83.9344,157.4063 84.825,158.2344 Q85.7156,159.0469 87.3094,159.0469 Q88.2469,159.0469 88.9031,158.7969 Q89.2938,158.6406 89.7156,158.2031 Q89.9813,157.9375 90.1219,157.8594 Q90.2781,157.7813 90.4813,157.7813 Q90.8094,157.7813 91.0594,158.0469 Q91.325,158.2969 91.325,158.6406 Q91.325,158.9844 90.9813,159.3906 Q90.4813,159.9688 89.6844,160.2969 Q88.6063,160.75 87.3094,160.75 Q85.7938,160.75 84.5906,160.125 Q83.6063,159.625 82.9188,158.5625 Q82.2313,157.4844 82.2313,156.2031 L82.2313,155.0469 Q82.2313,153.7188 82.8406,152.5781 Q83.4656,151.4219 84.5594,150.8125 Q85.6531,150.1875 86.8875,150.1875 Q87.6219,150.1875 88.2625,150.3594 Q88.9188,150.5156 89.4656,150.875 Z " fill="#000000"/><text fill="#000000" font-family="sans-serif" font-size="12" lengthAdjust="spacing" textLength="100" x="100.7" y="159.9102">VaccinationCenter</text><line style="stroke:#A80036;stroke-width:1.5;" x1="72.7" x2="202.7" y1="171" y2="171"/><text fill="#000000" font-family="sans-serif" font-size="11" lengthAdjust="spacing" textLength="30" x="77.7" y="186.4189">-name</text><text fill="#000000" font-family="sans-serif" font-size="11" lengthAdjust="spacing" textLength="44" x="77.7" y="200.2549">-address</text><text fill="#000000" font-family="sans-serif" font-size="11" lengthAdjust="spacing" textLength="70" x="77.7" y="214.0908">-emailAddress</text><text fill="#000000" font-family="sans-serif" font-size="11" lengthAdjust="spacing" textLength="71" x="77.7" y="227.9268">-phoneNumber</text><text fill="#000000" font-family="sans-serif" font-size="11" lengthAdjust="spacing" textLength="57" x="77.7" y="241.7627">-faxNumber</text><text fill="#000000" font-family="sans-serif" font-size="11" lengthAdjust="spacing" textLength="85" x="77.7" y="255.5986">-websiteAddress</text><text fill="#000000" font-family="sans-serif" font-size="11" lengthAdjust="spacing" textLength="23" x="77.7" y="269.4346">-time</text><!--MD5=[107cfa23aa516ff83d0cf17a6f9fe7ba]
class VaccineAdministration--><rect codeLine="18" fill="#FEFECE" filter="url(#f1p3k4llsdisw2)" height="81.5078" id="VaccineAdministration" style="stroke:#A80036;stroke-width:1.5;" width="154" x="60.7" y="354"/><ellipse cx="75.7" cy="370" fill="#ADD1B2" rx="11" ry="11" style="stroke:#A80036;stroke-width:1.0;"/><path d="M78.4656,365.875 Q78.6219,365.6563 78.8094,365.5469 Q78.9969,365.4375 79.2156,365.4375 Q79.5906,365.4375 79.825,365.7031 Q80.0594,365.9531 80.0594,366.5625 L80.0594,368.0156 Q80.0594,368.625 79.825,368.8906 Q79.5906,369.1563 79.2156,369.1563 Q78.8719,369.1563 78.6688,368.9531 Q78.4656,368.7656 78.3563,368.25 Q78.3094,367.8906 78.1219,367.7031 Q77.7938,367.3281 77.1844,367.1094 Q76.575,366.8906 75.95,366.8906 Q75.1844,366.8906 74.5438,367.2188 Q73.9188,367.5469 73.4188,368.2969 Q72.9344,369.0469 72.9344,370.0781 L72.9344,371.1719 Q72.9344,372.4063 73.825,373.2344 Q74.7156,374.0469 76.3094,374.0469 Q77.2469,374.0469 77.9031,373.7969 Q78.2938,373.6406 78.7156,373.2031 Q78.9813,372.9375 79.1219,372.8594 Q79.2781,372.7813 79.4813,372.7813 Q79.8094,372.7813 80.0594,373.0469 Q80.325,373.2969 80.325,373.6406 Q80.325,373.9844 79.9813,374.3906 Q79.4813,374.9688 78.6844,375.2969 Q77.6063,375.75 76.3094,375.75 Q74.7938,375.75 73.5906,375.125 Q72.6063,374.625 71.9188,373.5625 Q71.2313,372.4844 71.2313,371.2031 L71.2313,370.0469 Q71.2313,368.7188 71.8406,367.5781 Q72.4656,366.4219 73.5594,365.8125 Q74.6531,365.1875 75.8875,365.1875 Q76.6219,365.1875 77.2625,365.3594 Q77.9188,365.5156 78.4656,365.875 Z " fill="#000000"/><text fill="#000000" font-family="sans-serif" font-size="12" lengthAdjust="spacing" textLength="122" x="89.7" y="374.9102">VaccineAdministration</text><line style="stroke:#A80036;stroke-width:1.5;" x1="61.7" x2="213.7" y1="386" y2="386"/><text fill="#000000" font-family="sans-serif" font-size="11" lengthAdjust="spacing" textLength="28" x="66.7" y="401.4189">-dose</text><text fill="#000000" font-family="sans-serif" font-size="11" lengthAdjust="spacing" textLength="52" x="66.7" y="415.2549">-lotNumber</text><text fill="#000000" font-family="sans-serif" font-size="11" lengthAdjust="spacing" textLength="25" x="66.7" y="429.0908">-date</text><!--MD5=[72be06cc7ae02ccc98efe28a50e62246]
class SNSUser--><rect codeLine="24" fill="#FEFECE" filter="url(#f1p3k4llsdisw2)" height="150.6875" id="SNSUser" style="stroke:#A80036;stroke-width:1.5;" width="84" x="40.7" y="514"/><ellipse cx="55.7" cy="530" fill="#ADD1B2" rx="11" ry="11" style="stroke:#A80036;stroke-width:1.0;"/><path d="M58.4656,525.875 Q58.6219,525.6563 58.8094,525.5469 Q58.9969,525.4375 59.2156,525.4375 Q59.5906,525.4375 59.825,525.7031 Q60.0594,525.9531 60.0594,526.5625 L60.0594,528.0156 Q60.0594,528.625 59.825,528.8906 Q59.5906,529.1563 59.2156,529.1563 Q58.8719,529.1563 58.6688,528.9531 Q58.4656,528.7656 58.3563,528.25 Q58.3094,527.8906 58.1219,527.7031 Q57.7938,527.3281 57.1844,527.1094 Q56.575,526.8906 55.95,526.8906 Q55.1844,526.8906 54.5438,527.2188 Q53.9188,527.5469 53.4188,528.2969 Q52.9344,529.0469 52.9344,530.0781 L52.9344,531.1719 Q52.9344,532.4063 53.825,533.2344 Q54.7156,534.0469 56.3094,534.0469 Q57.2469,534.0469 57.9031,533.7969 Q58.2938,533.6406 58.7156,533.2031 Q58.9813,532.9375 59.1219,532.8594 Q59.2781,532.7813 59.4813,532.7813 Q59.8094,532.7813 60.0594,533.0469 Q60.325,533.2969 60.325,533.6406 Q60.325,533.9844 59.9813,534.3906 Q59.4813,534.9688 58.6844,535.2969 Q57.6063,535.75 56.3094,535.75 Q54.7938,535.75 53.5906,535.125 Q52.6063,534.625 51.9188,533.5625 Q51.2313,532.4844 51.2313,531.2031 L51.2313,530.0469 Q51.2313,528.7188 51.8406,527.5781 Q52.4656,526.4219 53.5594,525.8125 Q54.6531,525.1875 55.8875,525.1875 Q56.6219,525.1875 57.2625,525.3594 Q57.9188,525.5156 58.4656,525.875 Z " fill="#000000"/><text fill="#000000" font-family="sans-serif" font-size="12" lengthAdjust="spacing" textLength="52" x="69.7" y="534.9102">SNSUser</text><line style="stroke:#A80036;stroke-width:1.5;" x1="41.7" x2="123.7" y1="546" y2="546"/><text fill="#000000" font-family="sans-serif" font-size="11" lengthAdjust="spacing" textLength="58" x="46.7" y="561.4189">-citizenCard</text><text fill="#000000" font-family="sans-serif" font-size="11" lengthAdjust="spacing" textLength="59" x="46.7" y="575.2549">-snsNumber</text><text fill="#000000" font-family="sans-serif" font-size="11" lengthAdjust="spacing" textLength="30" x="46.7" y="589.0908">-name</text><text fill="#000000" font-family="sans-serif" font-size="11" lengthAdjust="spacing" textLength="44" x="46.7" y="602.9268">-birthDay</text><text fill="#000000" font-family="sans-serif" font-size="11" lengthAdjust="spacing" textLength="38" x="46.7" y="616.7627">-gender</text><text fill="#000000" font-family="sans-serif" font-size="11" lengthAdjust="spacing" textLength="71" x="46.7" y="630.5986">-phoneNumber</text><text fill="#000000" font-family="sans-serif" font-size="11" lengthAdjust="spacing" textLength="28" x="46.7" y="644.4346">-email</text><text fill="#000000" font-family="sans-serif" font-size="11" lengthAdjust="spacing" textLength="44" x="46.7" y="658.2705">-address</text><!--MD5=[19e445fc4d3b48519cbe33da05496394]
class Vaccine--><rect codeLine="35" fill="#FEFECE" filter="url(#f1p3k4llsdisw2)" height="81.5078" id="Vaccine" style="stroke:#A80036;stroke-width:1.5;" width="75" x="169.2" y="548.5"/><ellipse cx="184.2" cy="564.5" fill="#ADD1B2" rx="11" ry="11" style="stroke:#A80036;stroke-width:1.0;"/><path d="M186.9656,560.375 Q187.1219,560.1563 187.3094,560.0469 Q187.4969,559.9375 187.7156,559.9375 Q188.0906,559.9375 188.325,560.2031 Q188.5594,560.4531 188.5594,561.0625 L188.5594,562.5156 Q188.5594,563.125 188.325,563.3906 Q188.0906,563.6563 187.7156,563.6563 Q187.3719,563.6563 187.1688,563.4531 Q186.9656,563.2656 186.8563,562.75 Q186.8094,562.3906 186.6219,562.2031 Q186.2938,561.8281 185.6844,561.6094 Q185.075,561.3906 184.45,561.3906 Q183.6844,561.3906 183.0438,561.7188 Q182.4188,562.0469 181.9188,562.7969 Q181.4344,563.5469 181.4344,564.5781 L181.4344,565.6719 Q181.4344,566.9063 182.325,567.7344 Q183.2156,568.5469 184.8094,568.5469 Q185.7469,568.5469 186.4031,568.2969 Q186.7938,568.1406 187.2156,567.7031 Q187.4813,567.4375 187.6219,567.3594 Q187.7781,567.2813 187.9813,567.2813 Q188.3094,567.2813 188.5594,567.5469 Q188.825,567.7969 188.825,568.1406 Q188.825,568.4844 188.4813,568.8906 Q187.9813,569.4688 187.1844,569.7969 Q186.1063,570.25 184.8094,570.25 Q183.2938,570.25 182.0906,569.625 Q181.1063,569.125 180.4188,568.0625 Q179.7313,566.9844 179.7313,565.7031 L179.7313,564.5469 Q179.7313,563.2188 180.3406,562.0781 Q180.9656,560.9219 182.0594,560.3125 Q183.1531,559.6875 184.3875,559.6875 Q185.1219,559.6875 185.7625,559.8594 Q186.4188,560.0156 186.9656,560.375 Z " fill="#000000"/><text fill="#000000" font-family="sans-serif" font-size="12" lengthAdjust="spacing" textLength="43" x="198.2" y="569.4102">Vaccine</text><line style="stroke:#A80036;stroke-width:1.5;" x1="170.2" x2="243.2" y1="580.5" y2="580.5"/><text fill="#000000" font-family="sans-serif" font-size="11" lengthAdjust="spacing" textLength="59" x="175.2" y="595.9189">-designation</text><text fill="#000000" font-family="sans-serif" font-size="11" lengthAdjust="spacing" textLength="12" x="175.2" y="609.7549">-id</text><text fill="#000000" font-family="sans-serif" font-size="11" lengthAdjust="spacing" textLength="32" x="175.2" y="623.5908">-brand</text><!--MD5=[0e501da62322464167c8ec4d233a6b7e]
class VaccineType--><rect codeLine="41" fill="#FEFECE" filter="url(#f1p3k4llsdisw2)" height="81.5078" id="VaccineType" style="stroke:#A80036;stroke-width:1.5;" width="101" x="156.2" y="743"/><ellipse cx="171.2" cy="759" fill="#ADD1B2" rx="11" ry="11" style="stroke:#A80036;stroke-width:1.0;"/><path d="M173.9656,754.875 Q174.1219,754.6563 174.3094,754.5469 Q174.4969,754.4375 174.7156,754.4375 Q175.0906,754.4375 175.325,754.7031 Q175.5594,754.9531 175.5594,755.5625 L175.5594,757.0156 Q175.5594,757.625 175.325,757.8906 Q175.0906,758.1563 174.7156,758.1563 Q174.3719,758.1563 174.1688,757.9531 Q173.9656,757.7656 173.8563,757.25 Q173.8094,756.8906 173.6219,756.7031 Q173.2938,756.3281 172.6844,756.1094 Q172.075,755.8906 171.45,755.8906 Q170.6844,755.8906 170.0438,756.2188 Q169.4188,756.5469 168.9188,757.2969 Q168.4344,758.0469 168.4344,759.0781 L168.4344,760.1719 Q168.4344,761.4063 169.325,762.2344 Q170.2156,763.0469 171.8094,763.0469 Q172.7469,763.0469 173.4031,762.7969 Q173.7938,762.6406 174.2156,762.2031 Q174.4813,761.9375 174.6219,761.8594 Q174.7781,761.7813 174.9813,761.7813 Q175.3094,761.7813 175.5594,762.0469 Q175.825,762.2969 175.825,762.6406 Q175.825,762.9844 175.4813,763.3906 Q174.9813,763.9688 174.1844,764.2969 Q173.1063,764.75 171.8094,764.75 Q170.2938,764.75 169.0906,764.125 Q168.1063,763.625 167.4188,762.5625 Q166.7313,761.4844 166.7313,760.2031 L166.7313,759.0469 Q166.7313,757.7188 167.3406,756.5781 Q167.9656,755.4219 169.0594,754.8125 Q170.1531,754.1875 171.3875,754.1875 Q172.1219,754.1875 172.7625,754.3594 Q173.4188,754.5156 173.9656,754.875 Z " fill="#000000"/><text fill="#000000" font-family="sans-serif" font-size="12" lengthAdjust="spacing" textLength="69" x="185.2" y="763.9102">VaccineType</text><line style="stroke:#A80036;stroke-width:1.5;" x1="157.2" x2="256.2" y1="775" y2="775"/><text fill="#000000" font-family="sans-serif" font-size="11" lengthAdjust="spacing" textLength="28" x="162.2" y="790.4189">-code</text><text fill="#000000" font-family="sans-serif" font-size="11" lengthAdjust="spacing" textLength="57" x="162.2" y="804.2549">-description</text><text fill="#000000" font-family="sans-serif" font-size="11" lengthAdjust="spacing" textLength="57" x="162.2" y="818.0908">-technology</text><!--MD5=[951a07871a6512bd4f8e62baa1d062ce]
link VaccineAdministration to SNSUser--><path codeLine="48" d="M122.57,436.11 C119.13,445.83 115.63,456.24 112.7,466 C108.07,481.41 103.63,498.07 99.64,514 " fill="none" id="VaccineAdministration-SNSUser" style="stroke:#A80036;stroke-width:1.0;"/><polygon fill="#000000" points="116.288,479.9723,121.6617,472.1253,116.0231,470.4654,116.288,479.9723" style="stroke:#000000;stroke-width:1.0;"/><text fill="#000000" font-family="sans-serif" font-size="13" lengthAdjust="spacing" textLength="21" x="126.7" y="480.4951">has</text><text fill="#000000" font-family="sans-serif" font-size="13" lengthAdjust="spacing" textLength="7" x="112.8337" y="456.8801">1</text><text fill="#000000" font-family="sans-serif" font-size="13" lengthAdjust="spacing" textLength="5" x="96.1291" y="502.9184">*</text><!--MD5=[d96ee281cdb1021d3c4ed227c45512e2]
link VaccineAdministration to Vaccine--><path codeLine="49" d="M152.16,436.35 C163.94,469.21 180.48,515.36 192.25,548.2 " fill="none" id="VaccineAdministration-Vaccine" style="stroke:#A80036;stroke-width:1.0;"/><polygon fill="#000000" points="175.387,479.8826,175.1017,470.3763,169.5686,472.3595,175.387,479.8826" style="stroke:#000000;stroke-width:1.0;"/><text fill="#000000" font-family="sans-serif" font-size="13" lengthAdjust="spacing" textLength="21" x="182.7" y="480.4951">has</text><text fill="#000000" font-family="sans-serif" font-size="13" lengthAdjust="spacing" textLength="7" x="146.7698" y="457.1554">1</text><text fill="#000000" font-family="sans-serif" font-size="13" lengthAdjust="spacing" textLength="7" x="182.277" y="537.5997">1</text><!--MD5=[58a7f89859e4960c06ec5aa43a0116b6]
link VaccinationCenter to VaccineAdministration--><path codeLine="50" d="M137.7,276.26 C137.7,302.34 137.7,331.27 137.7,353.93 " fill="none" id="VaccinationCenter-VaccineAdministration" style="stroke:#A80036;stroke-width:1.0;"/><polygon fill="#000000" points="142.7,320.1758,145.6389,311.1307,139.7611,311.1307,142.7,320.1758" style="stroke:#000000;stroke-width:1.0;"/><text fill="#000000" font-family="sans-serif" font-size="13" lengthAdjust="spacing" textLength="21" x="151.7" y="320.4951">has</text><text fill="#000000" font-family="sans-serif" font-size="13" lengthAdjust="spacing" textLength="7" x="130.3555" y="297.3358">1</text><text fill="#000000" font-family="sans-serif" font-size="13" lengthAdjust="spacing" textLength="5" x="132.2703" y="343.0637">*</text><!--MD5=[3568623adf67b2630dce9e60c05bd02a]
link Vaccine to VaccineType--><path codeLine="51" d="M206.7,630.85 C206.7,663.71 206.7,709.86 206.7,742.7 " fill="none" id="Vaccine-VaccineType" style="stroke:#A80036;stroke-width:1.0;"/><polygon fill="#000000" points="211.7,699.1758,208.7611,708.2209,214.6389,708.2209,211.7,699.1758" style="stroke:#000000;stroke-width:1.0;"/><text fill="#000000" font-family="sans-serif" font-size="13" lengthAdjust="spacing" textLength="21" x="220.7" y="709.4951">has</text><text fill="#000000" font-family="sans-serif" font-size="13" lengthAdjust="spacing" textLength="5" x="201.3328" y="651.6554">*</text><text fill="#000000" font-family="sans-serif" font-size="13" lengthAdjust="spacing" textLength="7" x="199.1203" y="732.0997">1</text><!--MD5=[eebe9b198877275d05dd12630ed9e401]
link Company to VaccinationCenter--><path codeLine="53" d="M137.7,61.05 C137.7,81.66 137.7,111.42 137.7,138.65 " fill="none" id="Company-VaccinationCenter" style="stroke:#A80036;stroke-width:1.0;"/><polygon fill="#000000" points="142.7,105.1758,145.6389,96.1307,139.7611,96.1307,142.7,105.1758" style="stroke:#000000;stroke-width:1.0;"/><text fill="#000000" font-family="sans-serif" font-size="13" lengthAdjust="spacing" textLength="37" x="151.7" y="105.4951">knows</text><text fill="#000000" font-family="sans-serif" font-size="13" lengthAdjust="spacing" textLength="7" x="129.9344" y="82.2687">1</text><text fill="#000000" font-family="sans-serif" font-size="13" lengthAdjust="spacing" textLength="5" x="132.4422" y="128.2457">*</text><!--MD5=[1a8aa2b864b87f860d28abceaa28b7a5]
link Company to SNSUser--><path codeLine="54" d="M108.73,61.01 C89.34,80.39 65.3,108.65 53.7,139 C6,263.72 34.83,422.04 59.32,513.65 " fill="none" id="Company-SNSUser" style="stroke:#A80036;stroke-width:1.0;"/><polygon fill="#000000" points="33.1574,320.1463,37.0605,311.4735,31.2174,310.8357,33.1574,320.1463" style="stroke:#000000;stroke-width:1.0;"/><text fill="#000000" font-family="sans-serif" font-size="13" lengthAdjust="spacing" textLength="37" x="42.7" y="320.4951">knows</text><text fill="#000000" font-family="sans-serif" font-size="13" lengthAdjust="spacing" textLength="7" x="94.6272" y="82.22">1</text><text fill="#000000" font-family="sans-serif" font-size="13" lengthAdjust="spacing" textLength="5" x="51.8533" y="503.1848">*</text><!--MD5=[c29c8d42883934cbaf5793c72a334947]
link Company to Vaccine--><path codeLine="55" d="M170.16,61.21 C179.79,70.01 189.85,80.32 197.7,91 C211.7,110.07 214.87,116.07 220.7,139 C258.07,285.99 230.66,468.71 215.27,548.31 " fill="none" id="Company-Vaccine" style="stroke:#A80036;stroke-width:1.0;"/><polygon fill="#000000" points="245.1611,320.1545,247.2534,310.8769,241.4006,311.4189,245.1611,320.1545" style="stroke:#000000;stroke-width:1.0;"/><text fill="#000000" font-family="sans-serif" font-size="13" lengthAdjust="spacing" textLength="37" x="253.7" y="320.4951">knows</text><text fill="#000000" font-family="sans-serif" font-size="13" lengthAdjust="spacing" textLength="7" x="169.495" y="82.4637">1</text><text fill="#000000" font-family="sans-serif" font-size="13" lengthAdjust="spacing" textLength="5" x="211.2753" y="537.7279">*</text><!--MD5=[1955fb4a4df49ff2bcac9c2cbab4a26d]
@startuml US15_DM
hide methods
skinparam classAttributeIconSize 0

class Company {
  -designation
}

class VaccinationCenter{
  -name
  -address
  -emailAddress
  -phoneNumber
  -faxNumber
  -websiteAddress
  -time
}

class VaccineAdministration {
  -dose
  -lotNumber
  -date
}

class SNSUser {
  - citizenCard
  - snsNumber
  - name
  - birthDay
  - gender
  - phoneNumber
  - email
  - address
}

class Vaccine {
  -designation
  -id
  -brand
}

class VaccineType {
  -code 
  -description
  -technology
}


VaccineAdministration "1" - - "*" SNSUser : has >
VaccineAdministration "1" - - "1" Vaccine : has >
VaccinationCenter "1" - - "*" VaccineAdministration : has >
Vaccine "*" - - "1" VaccineType : has <

Company "1" - - "*" VaccinationCenter : knows >
Company "1" - - "*" SNSUser : knows >
Company "1" - - "*" Vaccine : knows >


@enduml

PlantUML version 1.2022.0(Tue Jan 11 16:16:42 WET 2022)
(GPL source distribution)
Java Runtime: Java(TM) SE Runtime Environment
JVM: Java HotSpot(TM) 64-Bit Server VM
Default Encoding: Cp1252
Language: pt
Country: PT
--></g></svg>