<?xml version="1.0" encoding="UTF-8" standalone="no"?><svg xmlns="http://www.w3.org/2000/svg" xmlns:xlink="http://www.w3.org/1999/xlink" contentScriptType="application/ecmascript" contentStyleType="text/css" height="1029px" preserveAspectRatio="none" style="width:1847px;height:1029px;background:#FFFFFF;" version="1.1" viewBox="0 0 1847 1029" width="1847px" zoomAndPan="magnify"><defs><filter height="300%" id="fvi1x2mpcedai" width="300%" x="-1" y="-1"><feGaussianBlur result="blurOut" stdDeviation="2.0"/><feColorMatrix in="blurOut" result="blurOut2" type="matrix" values="0 0 0 0 0 0 0 0 0 0 0 0 0 0 0 0 0 0 .4 0"/><feOffset dx="4.0" dy="4.0" in="blurOut2" result="blurOut3"/><feBlend in="SourceGraphic" in2="blurOut3" mode="normal"/></filter></defs><g><!--MD5=[8ae808d068a8995f06b9b3ec51357f0b]
class AuthFacade--><rect codeLine="3" fill="#FEFECE" filter="url(#fvi1x2mpcedai)" height="75.6719" id="AuthFacade" style="stroke:#A80036;stroke-width:1.5;" width="225" x="156.5" y="688.5"/><ellipse cx="232.25" cy="704.5" fill="#ADD1B2" rx="11" ry="11" style="stroke:#A80036;stroke-width:1.0;"/><path d="M235.0156,700.375 Q235.1719,700.1563 235.3594,700.0469 Q235.5469,699.9375 235.7656,699.9375 Q236.1406,699.9375 236.375,700.2031 Q236.6094,700.4531 236.6094,701.0625 L236.6094,702.5156 Q236.6094,703.125 236.375,703.3906 Q236.1406,703.6563 235.7656,703.6563 Q235.4219,703.6563 235.2188,703.4531 Q235.0156,703.2656 234.9063,702.75 Q234.8594,702.3906 234.6719,702.2031 Q234.3438,701.8281 233.7344,701.6094 Q233.125,701.3906 232.5,701.3906 Q231.7344,701.3906 231.0938,701.7188 Q230.4688,702.0469 229.9688,702.7969 Q229.4844,703.5469 229.4844,704.5781 L229.4844,705.6719 Q229.4844,706.9063 230.375,707.7344 Q231.2656,708.5469 232.8594,708.5469 Q233.7969,708.5469 234.4531,708.2969 Q234.8438,708.1406 235.2656,707.7031 Q235.5313,707.4375 235.6719,707.3594 Q235.8281,707.2813 236.0313,707.2813 Q236.3594,707.2813 236.6094,707.5469 Q236.875,707.7969 236.875,708.1406 Q236.875,708.4844 236.5313,708.8906 Q236.0313,709.4688 235.2344,709.7969 Q234.1563,710.25 232.8594,710.25 Q231.3438,710.25 230.1406,709.625 Q229.1563,709.125 228.4688,708.0625 Q227.7813,706.9844 227.7813,705.7031 L227.7813,704.5469 Q227.7813,703.2188 228.3906,702.0781 Q229.0156,700.9219 230.1094,700.3125 Q231.2031,699.6875 232.4375,699.6875 Q233.1719,699.6875 233.8125,699.8594 Q234.4688,700.0156 235.0156,700.375 Z " fill="#000000"/><text fill="#000000" font-family="sans-serif" font-size="12" lengthAdjust="spacing" textLength="65" x="252.75" y="709.4102">AuthFacade</text><line style="stroke:#A80036;stroke-width:1.5;" x1="157.5" x2="380.5" y1="720.5" y2="720.5"/><line style="stroke:#A80036;stroke-width:1.5;" x1="157.5" x2="380.5" y1="728.5" y2="728.5"/><text fill="#000000" font-family="sans-serif" font-size="11" lengthAdjust="spacing" textLength="90" x="162.5" y="743.9189">+existsUser(email)</text><text fill="#000000" font-family="sans-serif" font-size="11" lengthAdjust="spacing" textLength="213" x="162.5" y="757.7549">+addUserWithRole(name, email, pwd, roleId)</text><!--MD5=[02e4b9b7573f1156f41e60aa5b4e25a4]
class Company--><rect codeLine="8" fill="#FEFECE" filter="url(#fvi1x2mpcedai)" height="75.6719" id="Company" style="stroke:#A80036;stroke-width:1.5;" width="111" x="242.5" y="270"/><ellipse cx="269.2" cy="286" fill="#ADD1B2" rx="11" ry="11" style="stroke:#A80036;stroke-width:1.0;"/><path d="M271.9656,281.875 Q272.1219,281.6563 272.3094,281.5469 Q272.4969,281.4375 272.7156,281.4375 Q273.0906,281.4375 273.325,281.7031 Q273.5594,281.9531 273.5594,282.5625 L273.5594,284.0156 Q273.5594,284.625 273.325,284.8906 Q273.0906,285.1563 272.7156,285.1563 Q272.3719,285.1563 272.1688,284.9531 Q271.9656,284.7656 271.8563,284.25 Q271.8094,283.8906 271.6219,283.7031 Q271.2938,283.3281 270.6844,283.1094 Q270.075,282.8906 269.45,282.8906 Q268.6844,282.8906 268.0438,283.2188 Q267.4188,283.5469 266.9188,284.2969 Q266.4344,285.0469 266.4344,286.0781 L266.4344,287.1719 Q266.4344,288.4063 267.325,289.2344 Q268.2156,290.0469 269.8094,290.0469 Q270.7469,290.0469 271.4031,289.7969 Q271.7938,289.6406 272.2156,289.2031 Q272.4813,288.9375 272.6219,288.8594 Q272.7781,288.7813 272.9813,288.7813 Q273.3094,288.7813 273.5594,289.0469 Q273.825,289.2969 273.825,289.6406 Q273.825,289.9844 273.4813,290.3906 Q272.9813,290.9688 272.1844,291.2969 Q271.1063,291.75 269.8094,291.75 Q268.2938,291.75 267.0906,291.125 Q266.1063,290.625 265.4188,289.5625 Q264.7313,288.4844 264.7313,287.2031 L264.7313,286.0469 Q264.7313,284.7188 265.3406,283.5781 Q265.9656,282.4219 267.0594,281.8125 Q268.1531,281.1875 269.3875,281.1875 Q270.1219,281.1875 270.7625,281.3594 Q271.4188,281.5156 271.9656,281.875 Z " fill="#000000"/><text fill="#000000" font-family="sans-serif" font-size="12" lengthAdjust="spacing" textLength="53" x="285.8" y="290.9102">Company</text><line style="stroke:#A80036;stroke-width:1.5;" x1="243.5" x2="352.5" y1="302" y2="302"/><text fill="#000000" font-family="sans-serif" font-size="11" lengthAdjust="spacing" textLength="90" x="248.5" y="317.4189">-String designation</text><line style="stroke:#A80036;stroke-width:1.5;" x1="243.5" x2="352.5" y1="323.8359" y2="323.8359"/><text fill="#000000" font-family="sans-serif" font-size="11" lengthAdjust="spacing" textLength="99" x="248.5" y="339.2549">+getSNSUserStore()</text><!--MD5=[4a86008c03fe6bb538dc761ceaff7a46]
class UploadUsersFromFileController--><rect codeLine="13" fill="#FEFECE" filter="url(#fvi1x2mpcedai)" height="75.6719" id="UploadUsersFromFileController" style="stroke:#A80036;stroke-width:1.5;" width="209" x="627.5" y="116"/><ellipse cx="642.5" cy="132" fill="#ADD1B2" rx="11" ry="11" style="stroke:#A80036;stroke-width:1.0;"/><path d="M645.2656,127.875 Q645.4219,127.6563 645.6094,127.5469 Q645.7969,127.4375 646.0156,127.4375 Q646.3906,127.4375 646.625,127.7031 Q646.8594,127.9531 646.8594,128.5625 L646.8594,130.0156 Q646.8594,130.625 646.625,130.8906 Q646.3906,131.1563 646.0156,131.1563 Q645.6719,131.1563 645.4688,130.9531 Q645.2656,130.7656 645.1563,130.25 Q645.1094,129.8906 644.9219,129.7031 Q644.5938,129.3281 643.9844,129.1094 Q643.375,128.8906 642.75,128.8906 Q641.9844,128.8906 641.3438,129.2188 Q640.7188,129.5469 640.2188,130.2969 Q639.7344,131.0469 639.7344,132.0781 L639.7344,133.1719 Q639.7344,134.4063 640.625,135.2344 Q641.5156,136.0469 643.1094,136.0469 Q644.0469,136.0469 644.7031,135.7969 Q645.0938,135.6406 645.5156,135.2031 Q645.7813,134.9375 645.9219,134.8594 Q646.0781,134.7813 646.2813,134.7813 Q646.6094,134.7813 646.8594,135.0469 Q647.125,135.2969 647.125,135.6406 Q647.125,135.9844 646.7813,136.3906 Q646.2813,136.9688 645.4844,137.2969 Q644.4063,137.75 643.1094,137.75 Q641.5938,137.75 640.3906,137.125 Q639.4063,136.625 638.7188,135.5625 Q638.0313,134.4844 638.0313,133.2031 L638.0313,132.0469 Q638.0313,130.7188 638.6406,129.5781 Q639.2656,128.4219 640.3594,127.8125 Q641.4531,127.1875 642.6875,127.1875 Q643.4219,127.1875 644.0625,127.3594 Q644.7188,127.5156 645.2656,127.875 Z " fill="#000000"/><text fill="#000000" font-family="sans-serif" font-size="12" lengthAdjust="spacing" textLength="177" x="656.5" y="136.9102">UploadUsersFromFileController</text><line style="stroke:#A80036;stroke-width:1.5;" x1="628.5" x2="835.5" y1="148" y2="148"/><line style="stroke:#A80036;stroke-width:1.5;" x1="628.5" x2="835.5" y1="156" y2="156"/><text fill="#000000" font-family="sans-serif" font-size="11" lengthAdjust="spacing" textLength="99" x="633.5" y="171.4189">+createCsvReader()</text><text fill="#000000" font-family="sans-serif" font-size="11" lengthAdjust="spacing" textLength="89" x="633.5" y="185.2549">+readAndUpload()</text><!--MD5=[de66f5ad5686dd2ca83cf70a87f91dbc]
class UploadUsersFromFileUI--><rect codeLine="18" fill="#FEFECE" filter="url(#fvi1x2mpcedai)" height="48" id="UploadUsersFromFileUI" style="stroke:#A80036;stroke-width:1.5;" width="167" x="648.5" y="7"/><ellipse cx="663.5" cy="23" fill="#ADD1B2" rx="11" ry="11" style="stroke:#A80036;stroke-width:1.0;"/><path d="M666.2656,18.875 Q666.4219,18.6563 666.6094,18.5469 Q666.7969,18.4375 667.0156,18.4375 Q667.3906,18.4375 667.625,18.7031 Q667.8594,18.9531 667.8594,19.5625 L667.8594,21.0156 Q667.8594,21.625 667.625,21.8906 Q667.3906,22.1563 667.0156,22.1563 Q666.6719,22.1563 666.4688,21.9531 Q666.2656,21.7656 666.1563,21.25 Q666.1094,20.8906 665.9219,20.7031 Q665.5938,20.3281 664.9844,20.1094 Q664.375,19.8906 663.75,19.8906 Q662.9844,19.8906 662.3438,20.2188 Q661.7188,20.5469 661.2188,21.2969 Q660.7344,22.0469 660.7344,23.0781 L660.7344,24.1719 Q660.7344,25.4063 661.625,26.2344 Q662.5156,27.0469 664.1094,27.0469 Q665.0469,27.0469 665.7031,26.7969 Q666.0938,26.6406 666.5156,26.2031 Q666.7813,25.9375 666.9219,25.8594 Q667.0781,25.7813 667.2813,25.7813 Q667.6094,25.7813 667.8594,26.0469 Q668.125,26.2969 668.125,26.6406 Q668.125,26.9844 667.7813,27.3906 Q667.2813,27.9688 666.4844,28.2969 Q665.4063,28.75 664.1094,28.75 Q662.5938,28.75 661.3906,28.125 Q660.4063,27.625 659.7188,26.5625 Q659.0313,25.4844 659.0313,24.2031 L659.0313,23.0469 Q659.0313,21.7188 659.6406,20.5781 Q660.2656,19.4219 661.3594,18.8125 Q662.4531,18.1875 663.6875,18.1875 Q664.4219,18.1875 665.0625,18.3594 Q665.7188,18.5156 666.2656,18.875 Z " fill="#000000"/><text fill="#000000" font-family="sans-serif" font-size="12" lengthAdjust="spacing" textLength="135" x="677.5" y="27.9102">UploadUsersFromFileUI</text><line style="stroke:#A80036;stroke-width:1.5;" x1="649.5" x2="814.5" y1="39" y2="39"/><line style="stroke:#A80036;stroke-width:1.5;" x1="649.5" x2="814.5" y1="47" y2="47"/><!--MD5=[72be06cc7ae02ccc98efe28a50e62246]
class SNSUser--><rect codeLine="20" fill="#FEFECE" filter="url(#fvi1x2mpcedai)" height="158.6875" id="SNSUser" style="stroke:#A80036;stroke-width:1.5;" width="114" x="7" y="647"/><ellipse cx="35.5" cy="663" fill="#ADD1B2" rx="11" ry="11" style="stroke:#A80036;stroke-width:1.0;"/><path d="M38.2656,658.875 Q38.4219,658.6563 38.6094,658.5469 Q38.7969,658.4375 39.0156,658.4375 Q39.3906,658.4375 39.625,658.7031 Q39.8594,658.9531 39.8594,659.5625 L39.8594,661.0156 Q39.8594,661.625 39.625,661.8906 Q39.3906,662.1563 39.0156,662.1563 Q38.6719,662.1563 38.4688,661.9531 Q38.2656,661.7656 38.1563,661.25 Q38.1094,660.8906 37.9219,660.7031 Q37.5938,660.3281 36.9844,660.1094 Q36.375,659.8906 35.75,659.8906 Q34.9844,659.8906 34.3438,660.2188 Q33.7188,660.5469 33.2188,661.2969 Q32.7344,662.0469 32.7344,663.0781 L32.7344,664.1719 Q32.7344,665.4063 33.625,666.2344 Q34.5156,667.0469 36.1094,667.0469 Q37.0469,667.0469 37.7031,666.7969 Q38.0938,666.6406 38.5156,666.2031 Q38.7813,665.9375 38.9219,665.8594 Q39.0781,665.7813 39.2813,665.7813 Q39.6094,665.7813 39.8594,666.0469 Q40.125,666.2969 40.125,666.6406 Q40.125,666.9844 39.7813,667.3906 Q39.2813,667.9688 38.4844,668.2969 Q37.4063,668.75 36.1094,668.75 Q34.5938,668.75 33.3906,668.125 Q32.4063,667.625 31.7188,666.5625 Q31.0313,665.4844 31.0313,664.2031 L31.0313,663.0469 Q31.0313,661.7188 31.6406,660.5781 Q32.2656,659.4219 33.3594,658.8125 Q34.4531,658.1875 35.6875,658.1875 Q36.4219,658.1875 37.0625,658.3594 Q37.7188,658.5156 38.2656,658.875 Z " fill="#000000"/><text fill="#000000" font-family="sans-serif" font-size="12" lengthAdjust="spacing" textLength="52" x="52.5" y="667.9102">SNSUser</text><line style="stroke:#A80036;stroke-width:1.5;" x1="8" x2="120" y1="679" y2="679"/><text fill="#000000" font-family="sans-serif" font-size="11" lengthAdjust="spacing" textLength="89" x="13" y="694.4189">-String citizenCard</text><text fill="#000000" font-family="sans-serif" font-size="11" lengthAdjust="spacing" textLength="90" x="13" y="708.2549">-String snsNumber</text><text fill="#000000" font-family="sans-serif" font-size="11" lengthAdjust="spacing" textLength="69" x="13" y="722.0908">-Date birthDay</text><text fill="#000000" font-family="sans-serif" font-size="11" lengthAdjust="spacing" textLength="64" x="13" y="735.9268">-Char gender</text><text fill="#000000" font-family="sans-serif" font-size="11" lengthAdjust="spacing" textLength="102" x="13" y="749.7627">-String phoneNumber</text><text fill="#000000" font-family="sans-serif" font-size="11" lengthAdjust="spacing" textLength="75" x="13" y="763.5986">-String address</text><line style="stroke:#A80036;stroke-width:1.5;" x1="8" x2="120" y1="770.0156" y2="770.0156"/><text fill="#000000" font-family="sans-serif" font-size="11" lengthAdjust="spacing" textLength="53" x="13" y="785.4346">+getEmail()</text><text fill="#000000" font-family="sans-serif" font-size="11" lengthAdjust="spacing" textLength="90" x="13" y="799.2705">+getPhoneNumer()</text><!--MD5=[a5ad3856b0c65e07b10297b4477b22bb]
class SNSUserStore--><rect codeLine="32" fill="#FEFECE" filter="url(#fvi1x2mpcedai)" height="144.8516" id="SNSUserStore" style="stroke:#A80036;stroke-width:1.5;" width="217" x="310.5" y="424"/><ellipse cx="374.25" cy="440" fill="#ADD1B2" rx="11" ry="11" style="stroke:#A80036;stroke-width:1.0;"/><path d="M377.0156,435.875 Q377.1719,435.6563 377.3594,435.5469 Q377.5469,435.4375 377.7656,435.4375 Q378.1406,435.4375 378.375,435.7031 Q378.6094,435.9531 378.6094,436.5625 L378.6094,438.0156 Q378.6094,438.625 378.375,438.8906 Q378.1406,439.1563 377.7656,439.1563 Q377.4219,439.1563 377.2188,438.9531 Q377.0156,438.7656 376.9063,438.25 Q376.8594,437.8906 376.6719,437.7031 Q376.3438,437.3281 375.7344,437.1094 Q375.125,436.8906 374.5,436.8906 Q373.7344,436.8906 373.0938,437.2188 Q372.4688,437.5469 371.9688,438.2969 Q371.4844,439.0469 371.4844,440.0781 L371.4844,441.1719 Q371.4844,442.4063 372.375,443.2344 Q373.2656,444.0469 374.8594,444.0469 Q375.7969,444.0469 376.4531,443.7969 Q376.8438,443.6406 377.2656,443.2031 Q377.5313,442.9375 377.6719,442.8594 Q377.8281,442.7813 378.0313,442.7813 Q378.3594,442.7813 378.6094,443.0469 Q378.875,443.2969 378.875,443.6406 Q378.875,443.9844 378.5313,444.3906 Q378.0313,444.9688 377.2344,445.2969 Q376.1563,445.75 374.8594,445.75 Q373.3438,445.75 372.1406,445.125 Q371.1563,444.625 370.4688,443.5625 Q369.7813,442.4844 369.7813,441.2031 L369.7813,440.0469 Q369.7813,438.7188 370.3906,437.5781 Q371.0156,436.4219 372.1094,435.8125 Q373.2031,435.1875 374.4375,435.1875 Q375.1719,435.1875 375.8125,435.3594 Q376.4688,435.5156 377.0156,435.875 Z " fill="#000000"/><text fill="#000000" font-family="sans-serif" font-size="12" lengthAdjust="spacing" textLength="81" x="394.75" y="444.9102">SNSUserStore</text><line style="stroke:#A80036;stroke-width:1.5;" x1="311.5" x2="526.5" y1="456" y2="456"/><line style="stroke:#A80036;stroke-width:1.5;" x1="311.5" x2="526.5" y1="464" y2="464"/><text fill="#000000" font-family="sans-serif" font-size="11" lengthAdjust="spacing" textLength="205" x="316.5" y="479.4189">+createSNSUser(name, email, pwd, roleId)</text><text fill="#000000" font-family="sans-serif" font-size="11" lengthAdjust="spacing" textLength="136" x="316.5" y="493.2549">+validateSNSUser(snsUser)</text><text fill="#000000" font-family="sans-serif" font-size="11" lengthAdjust="spacing" textLength="123" x="316.5" y="507.0908">+saveSNSUser(snsUser)</text><text fill="#000000" font-family="sans-serif" font-size="11" lengthAdjust="spacing" textLength="134" x="316.5" y="520.9268">+checkDuplicates(snsUser)</text><text fill="#000000" font-family="sans-serif" font-size="11" lengthAdjust="spacing" textLength="160" x="316.5" y="534.7627">+registListOfUsers(userDataList)</text><text fill="#000000" font-family="sans-serif" font-size="11" lengthAdjust="spacing" textLength="117" x="316.5" y="548.5986">+addSNSUser(snsUser)</text><text fill="#000000" font-family="sans-serif" font-size="11" lengthAdjust="spacing" textLength="164" x="316.5" y="562.4346">+sendNotification(notificationDTO)</text><!--MD5=[f006373cb4c6c58447a7a19c6564a007]
class IPasswordGenerator--><rect codeLine="42" fill="#FEFECE" filter="url(#fvi1x2mpcedai)" height="61.8359" id="IPasswordGenerator" style="stroke:#A80036;stroke-width:1.5;" width="144" x="796" y="695.5"/><ellipse cx="811" cy="711.5" fill="#B4A7E5" rx="11" ry="11" style="stroke:#A80036;stroke-width:1.0;"/><path d="M811.9531,708.1406 L811.9531,714.7969 L813.6719,714.7969 Q814.2813,714.7969 814.5469,715.0313 Q814.8125,715.2656 814.8125,715.6563 Q814.8125,716.0313 814.5469,716.2656 Q814.2813,716.5 813.6719,716.5 L808.5313,716.5 Q807.9219,716.5 807.6563,716.2656 Q807.3906,716.0313 807.3906,715.6406 Q807.3906,715.2656 807.6563,715.0313 Q807.9219,714.7969 808.5313,714.7969 L810.25,714.7969 L810.25,708.1406 L808.5313,708.1406 Q807.9219,708.1406 807.6563,707.9063 Q807.3906,707.6719 807.3906,707.2813 Q807.3906,706.9063 807.6563,706.6719 Q807.9219,706.4375 808.5313,706.4375 L813.6719,706.4375 Q814.2813,706.4375 814.5469,706.6719 Q814.8125,706.9063 814.8125,707.2813 Q814.8125,707.6719 814.5469,707.9063 Q814.2813,708.1406 813.6719,708.1406 L811.9531,708.1406 Z " fill="#000000"/><text fill="#000000" font-family="sans-serif" font-size="12" font-style="italic" lengthAdjust="spacing" textLength="112" x="825" y="716.4102">IPasswordGenerator</text><line style="stroke:#A80036;stroke-width:1.5;" x1="797" x2="939" y1="727.5" y2="727.5"/><line style="stroke:#A80036;stroke-width:1.5;" x1="797" x2="939" y1="735.5" y2="735.5"/><text fill="#000000" font-family="sans-serif" font-size="11" lengthAdjust="spacing" textLength="79" x="802" y="750.9189">+generatePwd()</text><!--MD5=[9a2889027d1a5f59ee05c53124f224f8]
class PasswordGenerator--><rect codeLine="46" fill="#FEFECE" filter="url(#fvi1x2mpcedai)" height="61.8359" id="PasswordGenerator" style="stroke:#A80036;stroke-width:1.5;" width="143" x="796.5" y="465.5"/><ellipse cx="811.5" cy="481.5" fill="#ADD1B2" rx="11" ry="11" style="stroke:#A80036;stroke-width:1.0;"/><path d="M814.2656,477.375 Q814.4219,477.1563 814.6094,477.0469 Q814.7969,476.9375 815.0156,476.9375 Q815.3906,476.9375 815.625,477.2031 Q815.8594,477.4531 815.8594,478.0625 L815.8594,479.5156 Q815.8594,480.125 815.625,480.3906 Q815.3906,480.6563 815.0156,480.6563 Q814.6719,480.6563 814.4688,480.4531 Q814.2656,480.2656 814.1563,479.75 Q814.1094,479.3906 813.9219,479.2031 Q813.5938,478.8281 812.9844,478.6094 Q812.375,478.3906 811.75,478.3906 Q810.9844,478.3906 810.3438,478.7188 Q809.7188,479.0469 809.2188,479.7969 Q808.7344,480.5469 808.7344,481.5781 L808.7344,482.6719 Q808.7344,483.9063 809.625,484.7344 Q810.5156,485.5469 812.1094,485.5469 Q813.0469,485.5469 813.7031,485.2969 Q814.0938,485.1406 814.5156,484.7031 Q814.7813,484.4375 814.9219,484.3594 Q815.0781,484.2813 815.2813,484.2813 Q815.6094,484.2813 815.8594,484.5469 Q816.125,484.7969 816.125,485.1406 Q816.125,485.4844 815.7813,485.8906 Q815.2813,486.4688 814.4844,486.7969 Q813.4063,487.25 812.1094,487.25 Q810.5938,487.25 809.3906,486.625 Q808.4063,486.125 807.7188,485.0625 Q807.0313,483.9844 807.0313,482.7031 L807.0313,481.5469 Q807.0313,480.2188 807.6406,479.0781 Q808.2656,477.9219 809.3594,477.3125 Q810.4531,476.6875 811.6875,476.6875 Q812.4219,476.6875 813.0625,476.8594 Q813.7188,477.0156 814.2656,477.375 Z " fill="#000000"/><text fill="#000000" font-family="sans-serif" font-size="12" lengthAdjust="spacing" textLength="111" x="825.5" y="486.4102">PasswordGenerator</text><line style="stroke:#A80036;stroke-width:1.5;" x1="797.5" x2="938.5" y1="497.5" y2="497.5"/><line style="stroke:#A80036;stroke-width:1.5;" x1="797.5" x2="938.5" y1="505.5" y2="505.5"/><text fill="#000000" font-family="sans-serif" font-size="11" lengthAdjust="spacing" textLength="79" x="802.5" y="520.9189">+generatePwd()</text><!--MD5=[7bda84961b846c82be0ce1d88120dfc9]
class TestGenerator--><rect codeLine="49" fill="#FEFECE" filter="url(#fvi1x2mpcedai)" height="61.8359" id="TestGenerator" style="stroke:#A80036;stroke-width:1.5;" width="111" x="974.5" y="465.5"/><ellipse cx="989.5" cy="481.5" fill="#ADD1B2" rx="11" ry="11" style="stroke:#A80036;stroke-width:1.0;"/><path d="M992.2656,477.375 Q992.4219,477.1563 992.6094,477.0469 Q992.7969,476.9375 993.0156,476.9375 Q993.3906,476.9375 993.625,477.2031 Q993.8594,477.4531 993.8594,478.0625 L993.8594,479.5156 Q993.8594,480.125 993.625,480.3906 Q993.3906,480.6563 993.0156,480.6563 Q992.6719,480.6563 992.4688,480.4531 Q992.2656,480.2656 992.1563,479.75 Q992.1094,479.3906 991.9219,479.2031 Q991.5938,478.8281 990.9844,478.6094 Q990.375,478.3906 989.75,478.3906 Q988.9844,478.3906 988.3438,478.7188 Q987.7188,479.0469 987.2188,479.7969 Q986.7344,480.5469 986.7344,481.5781 L986.7344,482.6719 Q986.7344,483.9063 987.625,484.7344 Q988.5156,485.5469 990.1094,485.5469 Q991.0469,485.5469 991.7031,485.2969 Q992.0938,485.1406 992.5156,484.7031 Q992.7813,484.4375 992.9219,484.3594 Q993.0781,484.2813 993.2813,484.2813 Q993.6094,484.2813 993.8594,484.5469 Q994.125,484.7969 994.125,485.1406 Q994.125,485.4844 993.7813,485.8906 Q993.2813,486.4688 992.4844,486.7969 Q991.4063,487.25 990.1094,487.25 Q988.5938,487.25 987.3906,486.625 Q986.4063,486.125 985.7188,485.0625 Q985.0313,483.9844 985.0313,482.7031 L985.0313,481.5469 Q985.0313,480.2188 985.6406,479.0781 Q986.2656,477.9219 987.3594,477.3125 Q988.4531,476.6875 989.6875,476.6875 Q990.4219,476.6875 991.0625,476.8594 Q991.7188,477.0156 992.2656,477.375 Z " fill="#000000"/><text fill="#000000" font-family="sans-serif" font-size="12" lengthAdjust="spacing" textLength="79" x="1003.5" y="486.4102">TestGenerator</text><line style="stroke:#A80036;stroke-width:1.5;" x1="975.5" x2="1084.5" y1="497.5" y2="497.5"/><line style="stroke:#A80036;stroke-width:1.5;" x1="975.5" x2="1084.5" y1="505.5" y2="505.5"/><text fill="#000000" font-family="sans-serif" font-size="11" lengthAdjust="spacing" textLength="79" x="980.5" y="520.9189">+generatePwd()</text><!--MD5=[2c31e467f6107cbbfed2c8431731f539]
class PasswordGeneratorFactory--><rect codeLine="53" fill="#FEFECE" filter="url(#fvi1x2mpcedai)" height="61.8359" id="PasswordGeneratorFactory" style="stroke:#A80036;stroke-width:1.5;" width="182" x="777" y="918.5"/><ellipse cx="792" cy="934.5" fill="#ADD1B2" rx="11" ry="11" style="stroke:#A80036;stroke-width:1.0;"/><path d="M794.7656,930.375 Q794.9219,930.1563 795.1094,930.0469 Q795.2969,929.9375 795.5156,929.9375 Q795.8906,929.9375 796.125,930.2031 Q796.3594,930.4531 796.3594,931.0625 L796.3594,932.5156 Q796.3594,933.125 796.125,933.3906 Q795.8906,933.6563 795.5156,933.6563 Q795.1719,933.6563 794.9688,933.4531 Q794.7656,933.2656 794.6563,932.75 Q794.6094,932.3906 794.4219,932.2031 Q794.0938,931.8281 793.4844,931.6094 Q792.875,931.3906 792.25,931.3906 Q791.4844,931.3906 790.8438,931.7188 Q790.2188,932.0469 789.7188,932.7969 Q789.2344,933.5469 789.2344,934.5781 L789.2344,935.6719 Q789.2344,936.9063 790.125,937.7344 Q791.0156,938.5469 792.6094,938.5469 Q793.5469,938.5469 794.2031,938.2969 Q794.5938,938.1406 795.0156,937.7031 Q795.2813,937.4375 795.4219,937.3594 Q795.5781,937.2813 795.7813,937.2813 Q796.1094,937.2813 796.3594,937.5469 Q796.625,937.7969 796.625,938.1406 Q796.625,938.4844 796.2813,938.8906 Q795.7813,939.4688 794.9844,939.7969 Q793.9063,940.25 792.6094,940.25 Q791.0938,940.25 789.8906,939.625 Q788.9063,939.125 788.2188,938.0625 Q787.5313,936.9844 787.5313,935.7031 L787.5313,934.5469 Q787.5313,933.2188 788.1406,932.0781 Q788.7656,930.9219 789.8594,930.3125 Q790.9531,929.6875 792.1875,929.6875 Q792.9219,929.6875 793.5625,929.8594 Q794.2188,930.0156 794.7656,930.375 Z " fill="#000000"/><text fill="#000000" font-family="sans-serif" font-size="12" lengthAdjust="spacing" textLength="150" x="806" y="939.4102">PasswordGeneratorFactory</text><line style="stroke:#A80036;stroke-width:1.5;" x1="778" x2="958" y1="950.5" y2="950.5"/><line style="stroke:#A80036;stroke-width:1.5;" x1="778" x2="958" y1="958.5" y2="958.5"/><text fill="#000000" font-family="sans-serif" font-size="11" lengthAdjust="spacing" textLength="128" x="783" y="973.9189">+getPasswordGenerator()</text><!--MD5=[e108c694096fabfd01a9ae86427d8e48]
class ISender--><rect codeLine="57" fill="#FEFECE" filter="url(#fvi1x2mpcedai)" height="61.8359" id="ISender" style="stroke:#A80036;stroke-width:1.5;" width="117" x="1202.5" y="695.5"/><ellipse cx="1235.95" cy="711.5" fill="#B4A7E5" rx="11" ry="11" style="stroke:#A80036;stroke-width:1.0;"/><path d="M1236.9031,708.1406 L1236.9031,714.7969 L1238.6219,714.7969 Q1239.2313,714.7969 1239.4969,715.0313 Q1239.7625,715.2656 1239.7625,715.6563 Q1239.7625,716.0313 1239.4969,716.2656 Q1239.2313,716.5 1238.6219,716.5 L1233.4813,716.5 Q1232.8719,716.5 1232.6063,716.2656 Q1232.3406,716.0313 1232.3406,715.6406 Q1232.3406,715.2656 1232.6063,715.0313 Q1232.8719,714.7969 1233.4813,714.7969 L1235.2,714.7969 L1235.2,708.1406 L1233.4813,708.1406 Q1232.8719,708.1406 1232.6063,707.9063 Q1232.3406,707.6719 1232.3406,707.2813 Q1232.3406,706.9063 1232.6063,706.6719 Q1232.8719,706.4375 1233.4813,706.4375 L1238.6219,706.4375 Q1239.2313,706.4375 1239.4969,706.6719 Q1239.7625,706.9063 1239.7625,707.2813 Q1239.7625,707.6719 1239.4969,707.9063 Q1239.2313,708.1406 1238.6219,708.1406 L1236.9031,708.1406 Z " fill="#000000"/><text fill="#000000" font-family="sans-serif" font-size="12" font-style="italic" lengthAdjust="spacing" textLength="44" x="1254.05" y="716.4102">ISender</text><line style="stroke:#A80036;stroke-width:1.5;" x1="1203.5" x2="1318.5" y1="727.5" y2="727.5"/><line style="stroke:#A80036;stroke-width:1.5;" x1="1203.5" x2="1318.5" y1="735.5" y2="735.5"/><text fill="#000000" font-family="sans-serif" font-size="11" lengthAdjust="spacing" textLength="105" x="1208.5" y="750.9189">send(notificationDTO)</text><!--MD5=[467f7e0fe9ca2a47c651f8dc89503c22]
class ConsoleSender--><rect codeLine="61" fill="#FEFECE" filter="url(#fvi1x2mpcedai)" height="61.8359" id="ConsoleSender" style="stroke:#A80036;stroke-width:1.5;" width="123" x="1278.5" y="465.5"/><ellipse cx="1295.3" cy="481.5" fill="#ADD1B2" rx="11" ry="11" style="stroke:#A80036;stroke-width:1.0;"/><path d="M1298.0656,477.375 Q1298.2219,477.1563 1298.4094,477.0469 Q1298.5969,476.9375 1298.8156,476.9375 Q1299.1906,476.9375 1299.425,477.2031 Q1299.6594,477.4531 1299.6594,478.0625 L1299.6594,479.5156 Q1299.6594,480.125 1299.425,480.3906 Q1299.1906,480.6563 1298.8156,480.6563 Q1298.4719,480.6563 1298.2688,480.4531 Q1298.0656,480.2656 1297.9563,479.75 Q1297.9094,479.3906 1297.7219,479.2031 Q1297.3938,478.8281 1296.7844,478.6094 Q1296.175,478.3906 1295.55,478.3906 Q1294.7844,478.3906 1294.1438,478.7188 Q1293.5188,479.0469 1293.0188,479.7969 Q1292.5344,480.5469 1292.5344,481.5781 L1292.5344,482.6719 Q1292.5344,483.9063 1293.425,484.7344 Q1294.3156,485.5469 1295.9094,485.5469 Q1296.8469,485.5469 1297.5031,485.2969 Q1297.8938,485.1406 1298.3156,484.7031 Q1298.5813,484.4375 1298.7219,484.3594 Q1298.8781,484.2813 1299.0813,484.2813 Q1299.4094,484.2813 1299.6594,484.5469 Q1299.925,484.7969 1299.925,485.1406 Q1299.925,485.4844 1299.5813,485.8906 Q1299.0813,486.4688 1298.2844,486.7969 Q1297.2063,487.25 1295.9094,487.25 Q1294.3938,487.25 1293.1906,486.625 Q1292.2063,486.125 1291.5188,485.0625 Q1290.8313,483.9844 1290.8313,482.7031 L1290.8313,481.5469 Q1290.8313,480.2188 1291.4406,479.0781 Q1292.0656,477.9219 1293.1594,477.3125 Q1294.2531,476.6875 1295.4875,476.6875 Q1296.2219,476.6875 1296.8625,476.8594 Q1297.5188,477.0156 1298.0656,477.375 Z " fill="#000000"/><text fill="#000000" font-family="sans-serif" font-size="12" lengthAdjust="spacing" textLength="87" x="1309.7" y="486.4102">ConsoleSender</text><line style="stroke:#A80036;stroke-width:1.5;" x1="1279.5" x2="1400.5" y1="497.5" y2="497.5"/><line style="stroke:#A80036;stroke-width:1.5;" x1="1279.5" x2="1400.5" y1="505.5" y2="505.5"/><text fill="#000000" font-family="sans-serif" font-size="11" lengthAdjust="spacing" textLength="111" x="1284.5" y="520.9189">+send(notificationDTO)</text><!--MD5=[dbd744789a27dfb7a38205596e031569]
class EmailSender--><rect codeLine="64" fill="#FEFECE" filter="url(#fvi1x2mpcedai)" height="61.8359" id="EmailSender" style="stroke:#A80036;stroke-width:1.5;" width="123" x="1436.5" y="465.5"/><ellipse cx="1460.05" cy="481.5" fill="#ADD1B2" rx="11" ry="11" style="stroke:#A80036;stroke-width:1.0;"/><path d="M1462.8156,477.375 Q1462.9719,477.1563 1463.1594,477.0469 Q1463.3469,476.9375 1463.5656,476.9375 Q1463.9406,476.9375 1464.175,477.2031 Q1464.4094,477.4531 1464.4094,478.0625 L1464.4094,479.5156 Q1464.4094,480.125 1464.175,480.3906 Q1463.9406,480.6563 1463.5656,480.6563 Q1463.2219,480.6563 1463.0188,480.4531 Q1462.8156,480.2656 1462.7063,479.75 Q1462.6594,479.3906 1462.4719,479.2031 Q1462.1438,478.8281 1461.5344,478.6094 Q1460.925,478.3906 1460.3,478.3906 Q1459.5344,478.3906 1458.8938,478.7188 Q1458.2688,479.0469 1457.7688,479.7969 Q1457.2844,480.5469 1457.2844,481.5781 L1457.2844,482.6719 Q1457.2844,483.9063 1458.175,484.7344 Q1459.0656,485.5469 1460.6594,485.5469 Q1461.5969,485.5469 1462.2531,485.2969 Q1462.6438,485.1406 1463.0656,484.7031 Q1463.3313,484.4375 1463.4719,484.3594 Q1463.6281,484.2813 1463.8313,484.2813 Q1464.1594,484.2813 1464.4094,484.5469 Q1464.675,484.7969 1464.675,485.1406 Q1464.675,485.4844 1464.3313,485.8906 Q1463.8313,486.4688 1463.0344,486.7969 Q1461.9563,487.25 1460.6594,487.25 Q1459.1438,487.25 1457.9406,486.625 Q1456.9563,486.125 1456.2688,485.0625 Q1455.5813,483.9844 1455.5813,482.7031 L1455.5813,481.5469 Q1455.5813,480.2188 1456.1906,479.0781 Q1456.8156,477.9219 1457.9094,477.3125 Q1459.0031,476.6875 1460.2375,476.6875 Q1460.9719,476.6875 1461.6125,476.8594 Q1462.2688,477.0156 1462.8156,477.375 Z " fill="#000000"/><text fill="#000000" font-family="sans-serif" font-size="12" lengthAdjust="spacing" textLength="72" x="1475.95" y="486.4102">EmailSender</text><line style="stroke:#A80036;stroke-width:1.5;" x1="1437.5" x2="1558.5" y1="497.5" y2="497.5"/><line style="stroke:#A80036;stroke-width:1.5;" x1="1437.5" x2="1558.5" y1="505.5" y2="505.5"/><text fill="#000000" font-family="sans-serif" font-size="11" lengthAdjust="spacing" textLength="111" x="1442.5" y="520.9189">+send(notificationDTO)</text><!--MD5=[a88c56e1dc44d9d0e1fcd2eec4fd7e58]
class SMSSender--><rect codeLine="67" fill="#FEFECE" filter="url(#fvi1x2mpcedai)" height="61.8359" id="SMSSender" style="stroke:#A80036;stroke-width:1.5;" width="123" x="1120.5" y="465.5"/><ellipse cx="1147.2" cy="481.5" fill="#ADD1B2" rx="11" ry="11" style="stroke:#A80036;stroke-width:1.0;"/><path d="M1149.9656,477.375 Q1150.1219,477.1563 1150.3094,477.0469 Q1150.4969,476.9375 1150.7156,476.9375 Q1151.0906,476.9375 1151.325,477.2031 Q1151.5594,477.4531 1151.5594,478.0625 L1151.5594,479.5156 Q1151.5594,480.125 1151.325,480.3906 Q1151.0906,480.6563 1150.7156,480.6563 Q1150.3719,480.6563 1150.1688,480.4531 Q1149.9656,480.2656 1149.8563,479.75 Q1149.8094,479.3906 1149.6219,479.2031 Q1149.2938,478.8281 1148.6844,478.6094 Q1148.075,478.3906 1147.45,478.3906 Q1146.6844,478.3906 1146.0438,478.7188 Q1145.4188,479.0469 1144.9188,479.7969 Q1144.4344,480.5469 1144.4344,481.5781 L1144.4344,482.6719 Q1144.4344,483.9063 1145.325,484.7344 Q1146.2156,485.5469 1147.8094,485.5469 Q1148.7469,485.5469 1149.4031,485.2969 Q1149.7938,485.1406 1150.2156,484.7031 Q1150.4813,484.4375 1150.6219,484.3594 Q1150.7781,484.2813 1150.9813,484.2813 Q1151.3094,484.2813 1151.5594,484.5469 Q1151.825,484.7969 1151.825,485.1406 Q1151.825,485.4844 1151.4813,485.8906 Q1150.9813,486.4688 1150.1844,486.7969 Q1149.1063,487.25 1147.8094,487.25 Q1146.2938,487.25 1145.0906,486.625 Q1144.1063,486.125 1143.4188,485.0625 Q1142.7313,483.9844 1142.7313,482.7031 L1142.7313,481.5469 Q1142.7313,480.2188 1143.3406,479.0781 Q1143.9656,477.9219 1145.0594,477.3125 Q1146.1531,476.6875 1147.3875,476.6875 Q1148.1219,476.6875 1148.7625,476.8594 Q1149.4188,477.0156 1149.9656,477.375 Z " fill="#000000"/><text fill="#000000" font-family="sans-serif" font-size="12" lengthAdjust="spacing" textLength="65" x="1163.8" y="486.4102">SMSSender</text><line style="stroke:#A80036;stroke-width:1.5;" x1="1121.5" x2="1242.5" y1="497.5" y2="497.5"/><line style="stroke:#A80036;stroke-width:1.5;" x1="1121.5" x2="1242.5" y1="505.5" y2="505.5"/><text fill="#000000" font-family="sans-serif" font-size="11" lengthAdjust="spacing" textLength="111" x="1126.5" y="520.9189">+send(notificationDTO)</text><!--MD5=[309e42d4eafe9420dfa12985f72d4531]
class SenderFactory--><rect codeLine="73" fill="#FEFECE" filter="url(#fvi1x2mpcedai)" height="61.8359" id="SenderFactory" style="stroke:#A80036;stroke-width:1.5;" width="111" x="1205.5" y="918.5"/><ellipse cx="1220.5" cy="934.5" fill="#ADD1B2" rx="11" ry="11" style="stroke:#A80036;stroke-width:1.0;"/><path d="M1223.2656,930.375 Q1223.4219,930.1563 1223.6094,930.0469 Q1223.7969,929.9375 1224.0156,929.9375 Q1224.3906,929.9375 1224.625,930.2031 Q1224.8594,930.4531 1224.8594,931.0625 L1224.8594,932.5156 Q1224.8594,933.125 1224.625,933.3906 Q1224.3906,933.6563 1224.0156,933.6563 Q1223.6719,933.6563 1223.4688,933.4531 Q1223.2656,933.2656 1223.1563,932.75 Q1223.1094,932.3906 1222.9219,932.2031 Q1222.5938,931.8281 1221.9844,931.6094 Q1221.375,931.3906 1220.75,931.3906 Q1219.9844,931.3906 1219.3438,931.7188 Q1218.7188,932.0469 1218.2188,932.7969 Q1217.7344,933.5469 1217.7344,934.5781 L1217.7344,935.6719 Q1217.7344,936.9063 1218.625,937.7344 Q1219.5156,938.5469 1221.1094,938.5469 Q1222.0469,938.5469 1222.7031,938.2969 Q1223.0938,938.1406 1223.5156,937.7031 Q1223.7813,937.4375 1223.9219,937.3594 Q1224.0781,937.2813 1224.2813,937.2813 Q1224.6094,937.2813 1224.8594,937.5469 Q1225.125,937.7969 1225.125,938.1406 Q1225.125,938.4844 1224.7813,938.8906 Q1224.2813,939.4688 1223.4844,939.7969 Q1222.4063,940.25 1221.1094,940.25 Q1219.5938,940.25 1218.3906,939.625 Q1217.4063,939.125 1216.7188,938.0625 Q1216.0313,936.9844 1216.0313,935.7031 L1216.0313,934.5469 Q1216.0313,933.2188 1216.6406,932.0781 Q1217.2656,930.9219 1218.3594,930.3125 Q1219.4531,929.6875 1220.6875,929.6875 Q1221.4219,929.6875 1222.0625,929.8594 Q1222.7188,930.0156 1223.2656,930.375 Z " fill="#000000"/><text fill="#000000" font-family="sans-serif" font-size="12" lengthAdjust="spacing" textLength="79" x="1234.5" y="939.4102">SenderFactory</text><line style="stroke:#A80036;stroke-width:1.5;" x1="1206.5" x2="1315.5" y1="950.5" y2="950.5"/><line style="stroke:#A80036;stroke-width:1.5;" x1="1206.5" x2="1315.5" y1="958.5" y2="958.5"/><text fill="#000000" font-family="sans-serif" font-size="11" lengthAdjust="spacing" textLength="64" x="1211.5" y="973.9189">+getSender()</text><!--MD5=[60b59e3d7d8b95aff167b5157d975660]
class CSVReader--><rect codeLine="77" fill="#FEFECE" filter="url(#fvi1x2mpcedai)" height="75.6719" id="CSVReader" style="stroke:#A80036;stroke-width:1.5;" width="120" x="1061" y="270"/><ellipse cx="1086.35" cy="286" fill="#ADD1B2" rx="11" ry="11" style="stroke:#A80036;stroke-width:1.0;"/><path d="M1089.1156,281.875 Q1089.2719,281.6563 1089.4594,281.5469 Q1089.6469,281.4375 1089.8656,281.4375 Q1090.2406,281.4375 1090.475,281.7031 Q1090.7094,281.9531 1090.7094,282.5625 L1090.7094,284.0156 Q1090.7094,284.625 1090.475,284.8906 Q1090.2406,285.1563 1089.8656,285.1563 Q1089.5219,285.1563 1089.3188,284.9531 Q1089.1156,284.7656 1089.0063,284.25 Q1088.9594,283.8906 1088.7719,283.7031 Q1088.4438,283.3281 1087.8344,283.1094 Q1087.225,282.8906 1086.6,282.8906 Q1085.8344,282.8906 1085.1938,283.2188 Q1084.5688,283.5469 1084.0688,284.2969 Q1083.5844,285.0469 1083.5844,286.0781 L1083.5844,287.1719 Q1083.5844,288.4063 1084.475,289.2344 Q1085.3656,290.0469 1086.9594,290.0469 Q1087.8969,290.0469 1088.5531,289.7969 Q1088.9438,289.6406 1089.3656,289.2031 Q1089.6313,288.9375 1089.7719,288.8594 Q1089.9281,288.7813 1090.1313,288.7813 Q1090.4594,288.7813 1090.7094,289.0469 Q1090.975,289.2969 1090.975,289.6406 Q1090.975,289.9844 1090.6313,290.3906 Q1090.1313,290.9688 1089.3344,291.2969 Q1088.2563,291.75 1086.9594,291.75 Q1085.4438,291.75 1084.2406,291.125 Q1083.2563,290.625 1082.5688,289.5625 Q1081.8813,288.4844 1081.8813,287.2031 L1081.8813,286.0469 Q1081.8813,284.7188 1082.4906,283.5781 Q1083.1156,282.4219 1084.2094,281.8125 Q1085.3031,281.1875 1086.5375,281.1875 Q1087.2719,281.1875 1087.9125,281.3594 Q1088.5688,281.5156 1089.1156,281.875 Z " fill="#000000"/><text fill="#000000" font-family="sans-serif" font-size="12" lengthAdjust="spacing" textLength="65" x="1102.65" y="290.9102">CSVReader</text><line style="stroke:#A80036;stroke-width:1.5;" x1="1062" x2="1180" y1="302" y2="302"/><text fill="#000000" font-family="sans-serif" font-size="11" lengthAdjust="spacing" textLength="97" x="1067" y="317.4189">-String filePathName</text><line style="stroke:#A80036;stroke-width:1.5;" x1="1062" x2="1180" y1="323.8359" y2="323.8359"/><text fill="#000000" font-family="sans-serif" font-size="11" lengthAdjust="spacing" textLength="108" x="1067" y="339.2549">+readSNSUsersData()</text><!--MD5=[1c83c82c78e97e256fcc5a79b8468c39]
class ICSVReader--><rect codeLine="83" fill="#FEFECE" filter="url(#fvi1x2mpcedai)" height="61.8359" id="ICSVReader" style="stroke:#A80036;stroke-width:1.5;" width="102" x="1595" y="465.5"/><ellipse cx="1610" cy="481.5" fill="#B4A7E5" rx="11" ry="11" style="stroke:#A80036;stroke-width:1.0;"/><path d="M1610.9531,478.1406 L1610.9531,484.7969 L1612.6719,484.7969 Q1613.2813,484.7969 1613.5469,485.0313 Q1613.8125,485.2656 1613.8125,485.6563 Q1613.8125,486.0313 1613.5469,486.2656 Q1613.2813,486.5 1612.6719,486.5 L1607.5313,486.5 Q1606.9219,486.5 1606.6563,486.2656 Q1606.3906,486.0313 1606.3906,485.6406 Q1606.3906,485.2656 1606.6563,485.0313 Q1606.9219,484.7969 1607.5313,484.7969 L1609.25,484.7969 L1609.25,478.1406 L1607.5313,478.1406 Q1606.9219,478.1406 1606.6563,477.9063 Q1606.3906,477.6719 1606.3906,477.2813 Q1606.3906,476.9063 1606.6563,476.6719 Q1606.9219,476.4375 1607.5313,476.4375 L1612.6719,476.4375 Q1613.2813,476.4375 1613.5469,476.6719 Q1613.8125,476.9063 1613.8125,477.2813 Q1613.8125,477.6719 1613.5469,477.9063 Q1613.2813,478.1406 1612.6719,478.1406 L1610.9531,478.1406 Z " fill="#000000"/><text fill="#000000" font-family="sans-serif" font-size="12" font-style="italic" lengthAdjust="spacing" textLength="70" x="1624" y="486.4102">ICSVReader</text><line style="stroke:#A80036;stroke-width:1.5;" x1="1596" x2="1696" y1="497.5" y2="497.5"/><line style="stroke:#A80036;stroke-width:1.5;" x1="1596" x2="1696" y1="505.5" y2="505.5"/><text fill="#000000" font-family="sans-serif" font-size="11" lengthAdjust="spacing" textLength="65" x="1601" y="520.9189">read(filedata)</text><!--MD5=[0a05b9e3b501b5909d607b6b8cbcb973]
class HeaderCSVReader--><rect codeLine="87" fill="#FEFECE" filter="url(#fvi1x2mpcedai)" height="61.8359" id="HeaderCSVReader" style="stroke:#A80036;stroke-width:1.5;" width="138" x="1479" y="277"/><ellipse cx="1494" cy="293" fill="#ADD1B2" rx="11" ry="11" style="stroke:#A80036;stroke-width:1.0;"/><path d="M1496.7656,288.875 Q1496.9219,288.6563 1497.1094,288.5469 Q1497.2969,288.4375 1497.5156,288.4375 Q1497.8906,288.4375 1498.125,288.7031 Q1498.3594,288.9531 1498.3594,289.5625 L1498.3594,291.0156 Q1498.3594,291.625 1498.125,291.8906 Q1497.8906,292.1563 1497.5156,292.1563 Q1497.1719,292.1563 1496.9688,291.9531 Q1496.7656,291.7656 1496.6563,291.25 Q1496.6094,290.8906 1496.4219,290.7031 Q1496.0938,290.3281 1495.4844,290.1094 Q1494.875,289.8906 1494.25,289.8906 Q1493.4844,289.8906 1492.8438,290.2188 Q1492.2188,290.5469 1491.7188,291.2969 Q1491.2344,292.0469 1491.2344,293.0781 L1491.2344,294.1719 Q1491.2344,295.4063 1492.125,296.2344 Q1493.0156,297.0469 1494.6094,297.0469 Q1495.5469,297.0469 1496.2031,296.7969 Q1496.5938,296.6406 1497.0156,296.2031 Q1497.2813,295.9375 1497.4219,295.8594 Q1497.5781,295.7813 1497.7813,295.7813 Q1498.1094,295.7813 1498.3594,296.0469 Q1498.625,296.2969 1498.625,296.6406 Q1498.625,296.9844 1498.2813,297.3906 Q1497.7813,297.9688 1496.9844,298.2969 Q1495.9063,298.75 1494.6094,298.75 Q1493.0938,298.75 1491.8906,298.125 Q1490.9063,297.625 1490.2188,296.5625 Q1489.5313,295.4844 1489.5313,294.2031 L1489.5313,293.0469 Q1489.5313,291.7188 1490.1406,290.5781 Q1490.7656,289.4219 1491.8594,288.8125 Q1492.9531,288.1875 1494.1875,288.1875 Q1494.9219,288.1875 1495.5625,288.3594 Q1496.2188,288.5156 1496.7656,288.875 Z " fill="#000000"/><text fill="#000000" font-family="sans-serif" font-size="12" lengthAdjust="spacing" textLength="106" x="1508" y="297.9102">HeaderCSVReader</text><line style="stroke:#A80036;stroke-width:1.5;" x1="1480" x2="1616" y1="309" y2="309"/><line style="stroke:#A80036;stroke-width:1.5;" x1="1480" x2="1616" y1="317" y2="317"/><text fill="#000000" font-family="sans-serif" font-size="11" lengthAdjust="spacing" textLength="71" x="1485" y="332.4189">+read(filedata)</text><!--MD5=[1a8354f766442428020cf9fc7f0cd249]
class MissingHeaderCSVReader--><rect codeLine="90" fill="#FEFECE" filter="url(#fvi1x2mpcedai)" height="61.8359" id="MissingHeaderCSVReader" style="stroke:#A80036;stroke-width:1.5;" width="181" x="1652.5" y="277"/><ellipse cx="1667.5" cy="293" fill="#ADD1B2" rx="11" ry="11" style="stroke:#A80036;stroke-width:1.0;"/><path d="M1670.2656,288.875 Q1670.4219,288.6563 1670.6094,288.5469 Q1670.7969,288.4375 1671.0156,288.4375 Q1671.3906,288.4375 1671.625,288.7031 Q1671.8594,288.9531 1671.8594,289.5625 L1671.8594,291.0156 Q1671.8594,291.625 1671.625,291.8906 Q1671.3906,292.1563 1671.0156,292.1563 Q1670.6719,292.1563 1670.4688,291.9531 Q1670.2656,291.7656 1670.1563,291.25 Q1670.1094,290.8906 1669.9219,290.7031 Q1669.5938,290.3281 1668.9844,290.1094 Q1668.375,289.8906 1667.75,289.8906 Q1666.9844,289.8906 1666.3438,290.2188 Q1665.7188,290.5469 1665.2188,291.2969 Q1664.7344,292.0469 1664.7344,293.0781 L1664.7344,294.1719 Q1664.7344,295.4063 1665.625,296.2344 Q1666.5156,297.0469 1668.1094,297.0469 Q1669.0469,297.0469 1669.7031,296.7969 Q1670.0938,296.6406 1670.5156,296.2031 Q1670.7813,295.9375 1670.9219,295.8594 Q1671.0781,295.7813 1671.2813,295.7813 Q1671.6094,295.7813 1671.8594,296.0469 Q1672.125,296.2969 1672.125,296.6406 Q1672.125,296.9844 1671.7813,297.3906 Q1671.2813,297.9688 1670.4844,298.2969 Q1669.4063,298.75 1668.1094,298.75 Q1666.5938,298.75 1665.3906,298.125 Q1664.4063,297.625 1663.7188,296.5625 Q1663.0313,295.4844 1663.0313,294.2031 L1663.0313,293.0469 Q1663.0313,291.7188 1663.6406,290.5781 Q1664.2656,289.4219 1665.3594,288.8125 Q1666.4531,288.1875 1667.6875,288.1875 Q1668.4219,288.1875 1669.0625,288.3594 Q1669.7188,288.5156 1670.2656,288.875 Z " fill="#000000"/><text fill="#000000" font-family="sans-serif" font-size="12" lengthAdjust="spacing" textLength="149" x="1681.5" y="297.9102">MissingHeaderCSVReader</text><line style="stroke:#A80036;stroke-width:1.5;" x1="1653.5" x2="1832.5" y1="309" y2="309"/><line style="stroke:#A80036;stroke-width:1.5;" x1="1653.5" x2="1832.5" y1="317" y2="317"/><text fill="#000000" font-family="sans-serif" font-size="11" lengthAdjust="spacing" textLength="71" x="1658.5" y="332.4189">+read(filedata)</text><!--MD5=[ca97d4c77a459a6783a95679b9821773]
class SNSUserMapper--><rect codeLine="94" fill="#FEFECE" filter="url(#fvi1x2mpcedai)" height="61.8359" id="SNSUserMapper" style="stroke:#A80036;stroke-width:1.5;" width="125" x="416.5" y="695.5"/><ellipse cx="431.5" cy="711.5" fill="#ADD1B2" rx="11" ry="11" style="stroke:#A80036;stroke-width:1.0;"/><path d="M434.2656,707.375 Q434.4219,707.1563 434.6094,707.0469 Q434.7969,706.9375 435.0156,706.9375 Q435.3906,706.9375 435.625,707.2031 Q435.8594,707.4531 435.8594,708.0625 L435.8594,709.5156 Q435.8594,710.125 435.625,710.3906 Q435.3906,710.6563 435.0156,710.6563 Q434.6719,710.6563 434.4688,710.4531 Q434.2656,710.2656 434.1563,709.75 Q434.1094,709.3906 433.9219,709.2031 Q433.5938,708.8281 432.9844,708.6094 Q432.375,708.3906 431.75,708.3906 Q430.9844,708.3906 430.3438,708.7188 Q429.7188,709.0469 429.2188,709.7969 Q428.7344,710.5469 428.7344,711.5781 L428.7344,712.6719 Q428.7344,713.9063 429.625,714.7344 Q430.5156,715.5469 432.1094,715.5469 Q433.0469,715.5469 433.7031,715.2969 Q434.0938,715.1406 434.5156,714.7031 Q434.7813,714.4375 434.9219,714.3594 Q435.0781,714.2813 435.2813,714.2813 Q435.6094,714.2813 435.8594,714.5469 Q436.125,714.7969 436.125,715.1406 Q436.125,715.4844 435.7813,715.8906 Q435.2813,716.4688 434.4844,716.7969 Q433.4063,717.25 432.1094,717.25 Q430.5938,717.25 429.3906,716.625 Q428.4063,716.125 427.7188,715.0625 Q427.0313,713.9844 427.0313,712.7031 L427.0313,711.5469 Q427.0313,710.2188 427.6406,709.0781 Q428.2656,707.9219 429.3594,707.3125 Q430.4531,706.6875 431.6875,706.6875 Q432.4219,706.6875 433.0625,706.8594 Q433.7188,707.0156 434.2656,707.375 Z " fill="#000000"/><text fill="#000000" font-family="sans-serif" font-size="12" lengthAdjust="spacing" textLength="93" x="445.5" y="716.4102">SNSUserMapper</text><line style="stroke:#A80036;stroke-width:1.5;" x1="417.5" x2="540.5" y1="727.5" y2="727.5"/><line style="stroke:#A80036;stroke-width:1.5;" x1="417.5" x2="540.5" y1="735.5" y2="735.5"/><text fill="#000000" font-family="sans-serif" font-size="11" lengthAdjust="spacing" textLength="102" x="422.5" y="750.9189">+toDto(snsUserData)</text><!--MD5=[435e87b77665633b06f18413f59de7e8]
class SNSUserDto--><rect codeLine="98" fill="#FEFECE" filter="url(#fvi1x2mpcedai)" height="131.0156" id="SNSUserDto" style="stroke:#A80036;stroke-width:1.5;" width="114" x="422" y="884"/><ellipse cx="441.95" cy="900" fill="#ADD1B2" rx="11" ry="11" style="stroke:#A80036;stroke-width:1.0;"/><path d="M444.7156,895.875 Q444.8719,895.6563 445.0594,895.5469 Q445.2469,895.4375 445.4656,895.4375 Q445.8406,895.4375 446.075,895.7031 Q446.3094,895.9531 446.3094,896.5625 L446.3094,898.0156 Q446.3094,898.625 446.075,898.8906 Q445.8406,899.1563 445.4656,899.1563 Q445.1219,899.1563 444.9188,898.9531 Q444.7156,898.7656 444.6063,898.25 Q444.5594,897.8906 444.3719,897.7031 Q444.0438,897.3281 443.4344,897.1094 Q442.825,896.8906 442.2,896.8906 Q441.4344,896.8906 440.7938,897.2188 Q440.1688,897.5469 439.6688,898.2969 Q439.1844,899.0469 439.1844,900.0781 L439.1844,901.1719 Q439.1844,902.4063 440.075,903.2344 Q440.9656,904.0469 442.5594,904.0469 Q443.4969,904.0469 444.1531,903.7969 Q444.5438,903.6406 444.9656,903.2031 Q445.2313,902.9375 445.3719,902.8594 Q445.5281,902.7813 445.7313,902.7813 Q446.0594,902.7813 446.3094,903.0469 Q446.575,903.2969 446.575,903.6406 Q446.575,903.9844 446.2313,904.3906 Q445.7313,904.9688 444.9344,905.2969 Q443.8563,905.75 442.5594,905.75 Q441.0438,905.75 439.8406,905.125 Q438.8563,904.625 438.1688,903.5625 Q437.4813,902.4844 437.4813,901.2031 L437.4813,900.0469 Q437.4813,898.7188 438.0906,897.5781 Q438.7156,896.4219 439.8094,895.8125 Q440.9031,895.1875 442.1375,895.1875 Q442.8719,895.1875 443.5125,895.3594 Q444.1688,895.5156 444.7156,895.875 Z " fill="#000000"/><text fill="#000000" font-family="sans-serif" font-size="12" lengthAdjust="spacing" textLength="71" x="457.05" y="904.9102">SNSUserDto</text><line style="stroke:#A80036;stroke-width:1.5;" x1="423" x2="535" y1="916" y2="916"/><text fill="#000000" font-family="sans-serif" font-size="11" lengthAdjust="spacing" textLength="89" x="428" y="931.4189">-String citizenCard</text><text fill="#000000" font-family="sans-serif" font-size="11" lengthAdjust="spacing" textLength="90" x="428" y="945.2549">-String snsNumber</text><text fill="#000000" font-family="sans-serif" font-size="11" lengthAdjust="spacing" textLength="69" x="428" y="959.0908">-Date birthDay</text><text fill="#000000" font-family="sans-serif" font-size="11" lengthAdjust="spacing" textLength="64" x="428" y="972.9268">-Char gender</text><text fill="#000000" font-family="sans-serif" font-size="11" lengthAdjust="spacing" textLength="102" x="428" y="986.7627">-String phoneNumber</text><text fill="#000000" font-family="sans-serif" font-size="11" lengthAdjust="spacing" textLength="75" x="428" y="1000.5986">-String address</text><line style="stroke:#A80036;stroke-width:1.5;" x1="423" x2="535" y1="1007.0156" y2="1007.0156"/><!--MD5=[c864991ece2e6c82577ae1ddc318c99f]
class SNSUserNotificationMapper--><rect codeLine="107" fill="#FEFECE" filter="url(#fvi1x2mpcedai)" height="61.8359" id="SNSUserNotificationMapper" style="stroke:#A80036;stroke-width:1.5;" width="198" x="563" y="465.5"/><ellipse cx="583.4" cy="481.5" fill="#ADD1B2" rx="11" ry="11" style="stroke:#A80036;stroke-width:1.0;"/><path d="M586.1656,477.375 Q586.3219,477.1563 586.5094,477.0469 Q586.6969,476.9375 586.9156,476.9375 Q587.2906,476.9375 587.525,477.2031 Q587.7594,477.4531 587.7594,478.0625 L587.7594,479.5156 Q587.7594,480.125 587.525,480.3906 Q587.2906,480.6563 586.9156,480.6563 Q586.5719,480.6563 586.3688,480.4531 Q586.1656,480.2656 586.0563,479.75 Q586.0094,479.3906 585.8219,479.2031 Q585.4938,478.8281 584.8844,478.6094 Q584.275,478.3906 583.65,478.3906 Q582.8844,478.3906 582.2438,478.7188 Q581.6188,479.0469 581.1188,479.7969 Q580.6344,480.5469 580.6344,481.5781 L580.6344,482.6719 Q580.6344,483.9063 581.525,484.7344 Q582.4156,485.5469 584.0094,485.5469 Q584.9469,485.5469 585.6031,485.2969 Q585.9938,485.1406 586.4156,484.7031 Q586.6813,484.4375 586.8219,484.3594 Q586.9781,484.2813 587.1813,484.2813 Q587.5094,484.2813 587.7594,484.5469 Q588.025,484.7969 588.025,485.1406 Q588.025,485.4844 587.6813,485.8906 Q587.1813,486.4688 586.3844,486.7969 Q585.3063,487.25 584.0094,487.25 Q582.4938,487.25 581.2906,486.625 Q580.3063,486.125 579.6188,485.0625 Q578.9313,483.9844 578.9313,482.7031 L578.9313,481.5469 Q578.9313,480.2188 579.5406,479.0781 Q580.1656,477.9219 581.2594,477.3125 Q582.3531,476.6875 583.5875,476.6875 Q584.3219,476.6875 584.9625,476.8594 Q585.6188,477.0156 586.1656,477.375 Z " fill="#000000"/><text fill="#000000" font-family="sans-serif" font-size="12" lengthAdjust="spacing" textLength="154" x="598.6" y="486.4102">SNSUserNotificationMapper</text><line style="stroke:#A80036;stroke-width:1.5;" x1="564" x2="760" y1="497.5" y2="497.5"/><line style="stroke:#A80036;stroke-width:1.5;" x1="564" x2="760" y1="505.5" y2="505.5"/><text fill="#000000" font-family="sans-serif" font-size="11" lengthAdjust="spacing" textLength="186" x="569" y="520.9189">+toDto(email, phoneNumber, message)</text><!--MD5=[e815c164b4f842dda7898181fb9aa199]
class SNSUserNotificationDTO--><rect codeLine="111" fill="#FEFECE" filter="url(#fvi1x2mpcedai)" height="89.5078" id="SNSUserNotificationDTO" style="stroke:#A80036;stroke-width:1.5;" width="170" x="577" y="681.5"/><ellipse cx="592" cy="697.5" fill="#ADD1B2" rx="11" ry="11" style="stroke:#A80036;stroke-width:1.0;"/><path d="M594.7656,693.375 Q594.9219,693.1563 595.1094,693.0469 Q595.2969,692.9375 595.5156,692.9375 Q595.8906,692.9375 596.125,693.2031 Q596.3594,693.4531 596.3594,694.0625 L596.3594,695.5156 Q596.3594,696.125 596.125,696.3906 Q595.8906,696.6563 595.5156,696.6563 Q595.1719,696.6563 594.9688,696.4531 Q594.7656,696.2656 594.6563,695.75 Q594.6094,695.3906 594.4219,695.2031 Q594.0938,694.8281 593.4844,694.6094 Q592.875,694.3906 592.25,694.3906 Q591.4844,694.3906 590.8438,694.7188 Q590.2188,695.0469 589.7188,695.7969 Q589.2344,696.5469 589.2344,697.5781 L589.2344,698.6719 Q589.2344,699.9063 590.125,700.7344 Q591.0156,701.5469 592.6094,701.5469 Q593.5469,701.5469 594.2031,701.2969 Q594.5938,701.1406 595.0156,700.7031 Q595.2813,700.4375 595.4219,700.3594 Q595.5781,700.2813 595.7813,700.2813 Q596.1094,700.2813 596.3594,700.5469 Q596.625,700.7969 596.625,701.1406 Q596.625,701.4844 596.2813,701.8906 Q595.7813,702.4688 594.9844,702.7969 Q593.9063,703.25 592.6094,703.25 Q591.0938,703.25 589.8906,702.625 Q588.9063,702.125 588.2188,701.0625 Q587.5313,699.9844 587.5313,698.7031 L587.5313,697.5469 Q587.5313,696.2188 588.1406,695.0781 Q588.7656,693.9219 589.8594,693.3125 Q590.9531,692.6875 592.1875,692.6875 Q592.9219,692.6875 593.5625,692.8594 Q594.2188,693.0156 594.7656,693.375 Z " fill="#000000"/><text fill="#000000" font-family="sans-serif" font-size="12" lengthAdjust="spacing" textLength="138" x="606" y="702.4102">SNSUserNotificationDTO</text><line style="stroke:#A80036;stroke-width:1.5;" x1="578" x2="746" y1="713.5" y2="713.5"/><text fill="#000000" font-family="sans-serif" font-size="11" lengthAdjust="spacing" textLength="28" x="583" y="728.9189">-email</text><text fill="#000000" font-family="sans-serif" font-size="11" lengthAdjust="spacing" textLength="71" x="583" y="742.7549">-phoneNumber</text><text fill="#000000" font-family="sans-serif" font-size="11" lengthAdjust="spacing" textLength="48" x="583" y="756.5908">-message</text><line style="stroke:#A80036;stroke-width:1.5;" x1="578" x2="746" y1="763.0078" y2="763.0078"/><!--MD5=[1bd9080c7e199931e49bc5a1616681ac]
link Company to SNSUserStore--><path codeLine="117" d="M322.2,346.29 C335.82,367.29 353.35,394.31 369.73,419.56 " fill="none" id="Company-to-SNSUserStore" style="stroke:#A80036;stroke-width:1.0;stroke-dasharray:7.0,7.0;"/><polygon fill="#A80036" points="372.56,423.92,371.0345,414.19,369.8461,419.7206,364.3155,418.5322,372.56,423.92" style="stroke:#A80036;stroke-width:1.0;"/><!--MD5=[717d4b03d3c4372f4eafe5e342a0a7dd]
link Company to AuthFacade--><path codeLine="118" d="M295.4,346.33 C290.01,423.8 277.63,601.59 271.95,683.17 " fill="none" id="Company-to-AuthFacade" style="stroke:#A80036;stroke-width:1.0;stroke-dasharray:7.0,7.0;"/><polygon fill="#A80036" points="271.58,688.41,276.1863,679.7047,271.9221,683.4217,268.2051,679.1574,271.58,688.41" style="stroke:#A80036;stroke-width:1.0;"/><!--MD5=[1a8aa2b864b87f860d28abceaa28b7a5]
link Company to SNSUser--><path codeLine="119" d="M277.03,346.33 C239.8,412.6 161.32,552.28 110.71,642.35 " fill="none" id="Company-to-SNSUser" style="stroke:#A80036;stroke-width:1.0;"/><polygon fill="#A80036" points="108.17,646.87,116.0604,640.9758,110.6152,642.5087,109.0823,637.0635,108.17,646.87" style="stroke:#A80036;stroke-width:1.0;"/><text fill="#000000" font-family="sans-serif" font-size="13" lengthAdjust="spacing" textLength="37" x="232" y="501.9951">knows</text><text fill="#000000" font-family="sans-serif" font-size="13" lengthAdjust="spacing" textLength="7" x="266.1301" y="367.2631">1</text><text fill="#000000" font-family="sans-serif" font-size="13" lengthAdjust="spacing" textLength="5" x="107.1417" y="636.0445">*</text><!--MD5=[ef4cfad0791643571f818f0538547fbd]
link UploadUsersFromFileController to Company--><path codeLine="120" d="M627.49,191.6 C543.36,221.07 428.03,261.46 358.5,285.81 " fill="none" id="UploadUsersFromFileController-to-Company" style="stroke:#A80036;stroke-width:1.0;stroke-dasharray:7.0,7.0;"/><polygon fill="#A80036" points="353.58,287.54,363.395,288.3555,358.3015,285.8946,360.7624,280.8011,353.58,287.54" style="stroke:#A80036;stroke-width:1.0;"/><!--MD5=[de00728d0767d478f3de564a12020505]
link UploadUsersFromFileUI to UploadUsersFromFileController--><path codeLine="121" d="M732,55.04 C732,70.71 732,91.91 732,110.58 " fill="none" id="UploadUsersFromFileUI-to-UploadUsersFromFileController" style="stroke:#A80036;stroke-width:1.0;stroke-dasharray:7.0,7.0;"/><polygon fill="#A80036" points="732,115.77,736,106.77,732,110.77,728,106.77,732,115.77" style="stroke:#A80036;stroke-width:1.0;"/><!--MD5=[9df01b2e8ed4c5996c0ca3bc39568c7d]
link UploadUsersFromFileController to CSVReader--><path codeLine="122" d="M827.16,192.18 C898.19,219.94 993.37,257.13 1055.9,281.56 " fill="none" id="UploadUsersFromFileController-to-CSVReader" style="stroke:#A80036;stroke-width:1.0;"/><polygon fill="#A80036" points="1060.72,283.45,1053.8045,276.4374,1056.0659,281.6226,1050.8807,283.884,1060.72,283.45" style="stroke:#A80036;stroke-width:1.0;"/><text fill="#000000" font-family="sans-serif" font-size="13" lengthAdjust="spacing" textLength="28" x="940" y="236.4951">uses</text><!--MD5=[cfe94a0129f1dfa1a5ee6d4335a062cf]
link CSVReader to ICSVReader--><path codeLine="123" d="M1181.05,313.6 C1272.19,322.81 1448.43,349.51 1577,424 C1593.23,433.4 1608.13,447.72 1619.89,461.08 " fill="none" id="CSVReader-to-ICSVReader" style="stroke:#A80036;stroke-width:1.0;"/><polygon fill="#A80036" points="1623.44,465.19,1620.5819,455.765,1620.1708,461.4068,1614.5289,460.9957,1623.44,465.19" style="stroke:#A80036;stroke-width:1.0;"/><text fill="#000000" font-family="sans-serif" font-size="13" lengthAdjust="spacing" textLength="28" x="1509" y="390.4951">uses</text><!--MD5=[bc3349464b4fa8eddccb337858e655b4]
link SNSUserStore to AuthFacade--><path codeLine="124" d="M371.95,569.02 C347.04,606.89 317.32,652.05 296.23,684.11 " fill="none" id="SNSUserStore-to-AuthFacade" style="stroke:#A80036;stroke-width:1.0;"/><polygon fill="#A80036" points="293.45,688.34,301.7412,683.0244,296.2004,684.1645,295.0604,678.6237,293.45,688.34" style="stroke:#A80036;stroke-width:1.0;"/><text fill="#000000" font-family="sans-serif" font-size="13" lengthAdjust="spacing" textLength="28" x="350" y="613.4951">uses</text><!--MD5=[43b85c79ab3eb96c4a4f453acf4fc9fa]
link SNSUserStore to IPasswordGenerator--><path codeLine="125" d="M527.85,562.32 C533.56,564.76 539.3,567.01 545,569 C625.7,597.22 658.34,561.16 735,599 C778.89,620.66 818,661.87 842.25,691.37 " fill="none" id="SNSUserStore-to-IPasswordGenerator" style="stroke:#A80036;stroke-width:1.0;"/><polygon fill="#A80036" points="845.43,695.27,842.842,685.7673,842.27,691.3951,836.6422,690.8232,845.43,695.27" style="stroke:#A80036;stroke-width:1.0;"/><text fill="#000000" font-family="sans-serif" font-size="13" lengthAdjust="spacing" textLength="28" x="766" y="613.4951">uses</text><!--MD5=[908c43d0d461b4e9bf94dcb7f69d5179]
reverse link IPasswordGenerator to PasswordGeneratorFactory--><path codeLine="126" d="M868,762.86 C868,805.86 868,877.7 868,918.25 " fill="none" id="IPasswordGenerator-backto-PasswordGeneratorFactory" style="stroke:#A80036;stroke-width:1.0;"/><polygon fill="#A80036" points="868,757.77,864,766.77,868,762.77,872,766.77,868,757.77" style="stroke:#A80036;stroke-width:1.0;"/><text fill="#000000" font-family="sans-serif" font-size="13" lengthAdjust="spacing" textLength="43" x="869" y="850.4951">creates</text><!--MD5=[37bd013e63e20161f6779230b24ed902]
link SNSUserStore to ISender--><path codeLine="127" d="M527.75,562.61 C533.49,564.97 539.26,567.12 545,569 C654.73,604.87 689.7,576.9 803,599 C946.03,626.9 1109.76,676.53 1197.51,704.62 " fill="none" id="SNSUserStore-to-ISender" style="stroke:#A80036;stroke-width:1.0;"/><polygon fill="#A80036" points="1202.4,706.19,1195.0494,699.6349,1197.6384,704.6646,1192.6087,707.2535,1202.4,706.19" style="stroke:#A80036;stroke-width:1.0;"/><text fill="#000000" font-family="sans-serif" font-size="13" lengthAdjust="spacing" textLength="28" x="880" y="613.4951">uses</text><!--MD5=[5b97a7bc9d9084aedc4c1a62b2b0f306]
reverse link ISender to SenderFactory--><path codeLine="128" d="M1261,762.86 C1261,805.86 1261,877.7 1261,918.25 " fill="none" id="ISender-backto-SenderFactory" style="stroke:#A80036;stroke-width:1.0;"/><polygon fill="#A80036" points="1261,757.77,1257,766.77,1261,762.77,1265,766.77,1261,757.77" style="stroke:#A80036;stroke-width:1.0;"/><text fill="#000000" font-family="sans-serif" font-size="13" lengthAdjust="spacing" textLength="43" x="1262" y="850.4951">creates</text><!--MD5=[b01d27099955aced792f1ce85db49798]
link SNSUserStore to SNSUser--><path codeLine="129" d="M310.49,545.4 C256.49,571.67 191.67,607.02 139,647 C134.31,650.56 129.64,654.42 125.07,658.46 " fill="none" id="SNSUserStore-to-SNSUser" style="stroke:#A80036;stroke-width:1.0;"/><polygon fill="#A80036" points="121.25,661.89,130.6213,658.8604,124.9728,658.5523,125.2809,652.9038,121.25,661.89" style="stroke:#A80036;stroke-width:1.0;"/><!--MD5=[57c614e917782dc37ffdb3405c86ae0e]
link SNSUserStore to SNSUserMapper--><path codeLine="130" d="M437.82,569.02 C448.45,609.43 461.28,658.15 469.76,690.38 " fill="none" id="SNSUserStore-to-SNSUserMapper" style="stroke:#A80036;stroke-width:1.0;"/><polygon fill="#A80036" points="471.08,695.41,472.6296,685.6838,469.7935,690.5784,464.8989,687.7423,471.08,695.41" style="stroke:#A80036;stroke-width:1.0;"/><text fill="#000000" font-family="sans-serif" font-size="13" lengthAdjust="spacing" textLength="28" x="450" y="613.4951">uses</text><!--MD5=[ab115f0b377cc87b3ee670e892a87cbf]
link SNSUserMapper to SNSUserDto--><path codeLine="131" d="M479,757.77 C479,788.65 479,837.68 479,878.3 " fill="none" id="SNSUserMapper-to-SNSUserDto" style="stroke:#A80036;stroke-width:1.0;"/><polygon fill="#A80036" points="479,883.72,483,874.72,479,878.72,475,874.72,479,883.72" style="stroke:#A80036;stroke-width:1.0;"/><text fill="#000000" font-family="sans-serif" font-size="13" lengthAdjust="spacing" textLength="63" x="480" y="850.4951">converts to</text><!--MD5=[a786d0ddfb62de475be782a0dc4048ff]
link SNSUserStore to SNSUserNotificationDTO--><path codeLine="132" d="M495.22,569.02 C532.94,604.4 577.45,646.17 611,677.65 " fill="none" id="SNSUserStore-to-SNSUserNotificationDTO" style="stroke:#A80036;stroke-width:1.0;"/><polygon fill="#A80036" points="615.03,681.43,611.181,672.3644,611.3752,678.0179,605.7217,678.2121,615.03,681.43" style="stroke:#A80036;stroke-width:1.0;"/><text fill="#000000" font-family="sans-serif" font-size="13" lengthAdjust="spacing" textLength="28" x="542" y="613.4951">uses</text><!--MD5=[50b6bdc8e05fbc88dece8790a9e02c07]
link SNSUserNotificationMapper to SNSUserNotificationDTO--><path codeLine="133" d="M662,527.78 C662,565.68 662,631.12 662,676.27 " fill="none" id="SNSUserNotificationMapper-to-SNSUserNotificationDTO" style="stroke:#A80036;stroke-width:1.0;"/><polygon fill="#A80036" points="662,681.39,666,672.39,662,676.39,658,672.39,662,681.39" style="stroke:#A80036;stroke-width:1.0;"/><text fill="#000000" font-family="sans-serif" font-size="13" lengthAdjust="spacing" textLength="63" x="663" y="613.4951">converts to</text><!--MD5=[3ab663116e9b33ca28b21a5a44321130]
link HeaderCSVReader to ICSVReader--><path codeLine="134" d="M1563.96,339.38 C1579.31,368.59 1602.76,413.21 1620.66,447.28 " fill="none" id="HeaderCSVReader-to-ICSVReader" style="stroke:#A80036;stroke-width:1.0;"/><polygon fill="none" points="1627.1,444.48,1630.21,465.44,1614.71,450.99,1627.1,444.48" style="stroke:#A80036;stroke-width:1.0;"/><!--MD5=[9e34dc969177c98cf016eb3102eedec5]
link MissingHeaderCSVReader to ICSVReader--><path codeLine="135" d="M1727.2,339.38 C1712.01,368.59 1688.8,413.21 1671.08,447.28 " fill="none" id="MissingHeaderCSVReader-to-ICSVReader" style="stroke:#A80036;stroke-width:1.0;"/><polygon fill="none" points="1677.07,450.93,1661.63,465.44,1664.65,444.47,1677.07,450.93" style="stroke:#A80036;stroke-width:1.0;"/><!--MD5=[90dd06c7d690017e639597c333929945]
link SMSSender to ISender--><path codeLine="136" d="M1192.49,527.78 C1205.63,565.7 1228.31,631.17 1243.96,676.32 " fill="none" id="SMSSender-to-ISender" style="stroke:#A80036;stroke-width:1.0;"/><polygon fill="none" points="1250.66,674.27,1250.59,695.46,1237.43,678.86,1250.66,674.27" style="stroke:#A80036;stroke-width:1.0;"/><!--MD5=[40e94e8ccb4318584708bc211f5c2e83]
link EmailSender to ISender--><path codeLine="137" d="M1466.53,527.78 C1425.6,567.15 1353.8,636.22 1306.83,681.41 " fill="none" id="EmailSender-to-ISender" style="stroke:#A80036;stroke-width:1.0;"/><polygon fill="none" points="1311.49,686.64,1292.22,695.46,1301.78,676.55,1311.49,686.64" style="stroke:#A80036;stroke-width:1.0;"/><!--MD5=[21f9615b3ae36746b22b50f753cbb2e0]
link ConsoleSender to ISender--><path codeLine="138" d="M1329.51,527.78 C1316.37,565.7 1293.69,631.17 1278.04,676.32 " fill="none" id="ConsoleSender-to-ISender" style="stroke:#A80036;stroke-width:1.0;"/><polygon fill="none" points="1284.57,678.86,1271.41,695.46,1271.34,674.27,1284.57,678.86" style="stroke:#A80036;stroke-width:1.0;"/><!--MD5=[1fe3b90086d946a6940e655d41b5e192]
link PasswordGenerator to IPasswordGenerator--><path codeLine="139" d="M868,527.78 C868,565.44 868,630.28 868,675.4 " fill="none" id="PasswordGenerator-to-IPasswordGenerator" style="stroke:#A80036;stroke-width:1.0;"/><polygon fill="none" points="875,675.46,868,695.46,861,675.46,875,675.46" style="stroke:#A80036;stroke-width:1.0;"/><!--MD5=[39d103d70838f03f515b11178ccab23b]
link TestGenerator to IPasswordGenerator--><path codeLine="140" d="M1008.49,527.78 C981,566.47 933.13,633.83 901.01,679.04 " fill="none" id="TestGenerator-to-IPasswordGenerator" style="stroke:#A80036;stroke-width:1.0;"/><polygon fill="none" points="906.63,683.21,889.34,695.46,895.22,675.1,906.63,683.21" style="stroke:#A80036;stroke-width:1.0;"/><!--MD5=[602fe468277360d5dee105b9d9f1f914]
@startuml
skinparam classAttributeIconSize 0

class AuthFacade {
  + existsUser(email)
  + addUserWithRole(name, email, pwd, roleId)
}

class Company {
  - String designation
  + getSNSUserStore()
}

class UploadUsersFromFileController {
  + createCsvReader()
  + readAndUpload()
}

class UploadUsersFromFileUI { }

class SNSUser {
  - String citizenCard
  - String snsNumber
  - Date birthDay
  - Char gender
  - String phoneNumber
  - String address

  +getEmail()
  +getPhoneNumer()
}

class SNSUserStore {
  + createSNSUser(name, email, pwd, roleId)
  + validateSNSUser(snsUser)
  + saveSNSUser(snsUser)
  + checkDuplicates(snsUser)
  + registListOfUsers(userDataList)
  + addSNSUser(snsUser)
  + sendNotification(notificationDTO)
}

interface IPasswordGenerator {
  + generatePwd()
}

class PasswordGenerator {
  + generatePwd()
}
class TestGenerator {
  + generatePwd()
}

class PasswordGeneratorFactory {
  + getPasswordGenerator()
}

interface ISender {
  send(notificationDTO)
}

class ConsoleSender {
  + send(notificationDTO)
}
class EmailSender {
  + send(notificationDTO)
}
class SMSSender {
  + send(notificationDTO)
}



class SenderFactory {
  + getSender()
}

class CSVReader {
  - String filePathName

  + readSNSUsersData()
}

interface ICSVReader{
  read(filedata)
}

class HeaderCSVReader { 
  + read(filedata)
}
class MissingHeaderCSVReader{
  + read(filedata)
}

class SNSUserMapper{
  + toDto(snsUserData)
}

class SNSUserDto{
  - String citizenCard
  - String snsNumber
  - Date birthDay
  - Char gender
  - String phoneNumber
  - String address
}

class SNSUserNotificationMapper{
  + toDto(email, phoneNumber, message)
}

class SNSUserNotificationDTO{
  -email
  -phoneNumber
  -message
}

Company ..> SNSUserStore
Company ..> AuthFacade
Company "1" - -> "*" SNSUser : knows
UploadUsersFromFileController ..> Company
UploadUsersFromFileUI ..> UploadUsersFromFileController
UploadUsersFromFileController - -> CSVReader : uses
CSVReader - -> ICSVReader : uses
SNSUserStore - -> AuthFacade : uses
SNSUserStore - -> IPasswordGenerator : uses
IPasswordGenerator <- - PasswordGeneratorFactory : creates
SNSUserStore - -> ISender : uses
ISender <- - SenderFactory : creates
SNSUserStore - -> SNSUser
SNSUserStore - -> SNSUserMapper : uses
SNSUserMapper - -> SNSUserDto : converts to
SNSUserStore - -> SNSUserNotificationDTO : uses
SNSUserNotificationMapper - -> SNSUserNotificationDTO : converts to
HeaderCSVReader - -|> ICSVReader
MissingHeaderCSVReader - -|> ICSVReader
SMSSender - -|> ISender
EmailSender - -|> ISender
ConsoleSender - -|> ISender
PasswordGenerator - -|> IPasswordGenerator 
TestGenerator - -|> IPasswordGenerator 

@enduml

PlantUML version 1.2022.0(Tue Jan 11 16:16:42 WET 2022)
(GPL source distribution)
Java Runtime: Java(TM) SE Runtime Environment
JVM: Java HotSpot(TM) 64-Bit Server VM
Default Encoding: Cp1252
Language: pt
Country: PT
--></g></svg>