<?xml version="1.0" encoding="UTF-8" standalone="no"?><svg xmlns="http://www.w3.org/2000/svg" xmlns:xlink="http://www.w3.org/1999/xlink" contentScriptType="application/ecmascript" contentStyleType="text/css" height="956px" preserveAspectRatio="none" style="width:856px;height:956px;background:#FFFFFF;" version="1.1" viewBox="0 0 856 956" width="856px" zoomAndPan="magnify"><defs><filter height="300%" id="f1eqtr7uunbuej" width="300%" x="-1" y="-1"><feGaussianBlur result="blurOut" stdDeviation="2.0"/><feColorMatrix in="blurOut" result="blurOut2" type="matrix" values="0 0 0 0 0 0 0 0 0 0 0 0 0 0 0 0 0 0 .4 0"/><feOffset dx="4.0" dy="4.0" in="blurOut2" result="blurOut3"/><feBlend in="SourceGraphic" in2="blurOut3" mode="normal"/></filter></defs><g><!--MD5=[8ae808d068a8995f06b9b3ec51357f0b]
class AuthFacade--><rect codeLine="3" fill="#FEFECE" filter="url(#f1eqtr7uunbuej)" height="75.6719" id="AuthFacade" style="stroke:#A80036;stroke-width:1.5;" width="225" x="7" y="657.5"/><ellipse cx="82.75" cy="673.5" fill="#ADD1B2" rx="11" ry="11" style="stroke:#A80036;stroke-width:1.0;"/><path d="M85.5156,669.375 Q85.6719,669.1563 85.8594,669.0469 Q86.0469,668.9375 86.2656,668.9375 Q86.6406,668.9375 86.875,669.2031 Q87.1094,669.4531 87.1094,670.0625 L87.1094,671.5156 Q87.1094,672.125 86.875,672.3906 Q86.6406,672.6563 86.2656,672.6563 Q85.9219,672.6563 85.7188,672.4531 Q85.5156,672.2656 85.4063,671.75 Q85.3594,671.3906 85.1719,671.2031 Q84.8438,670.8281 84.2344,670.6094 Q83.625,670.3906 83,670.3906 Q82.2344,670.3906 81.5938,670.7188 Q80.9688,671.0469 80.4688,671.7969 Q79.9844,672.5469 79.9844,673.5781 L79.9844,674.6719 Q79.9844,675.9063 80.875,676.7344 Q81.7656,677.5469 83.3594,677.5469 Q84.2969,677.5469 84.9531,677.2969 Q85.3438,677.1406 85.7656,676.7031 Q86.0313,676.4375 86.1719,676.3594 Q86.3281,676.2813 86.5313,676.2813 Q86.8594,676.2813 87.1094,676.5469 Q87.375,676.7969 87.375,677.1406 Q87.375,677.4844 87.0313,677.8906 Q86.5313,678.4688 85.7344,678.7969 Q84.6563,679.25 83.3594,679.25 Q81.8438,679.25 80.6406,678.625 Q79.6563,678.125 78.9688,677.0625 Q78.2813,675.9844 78.2813,674.7031 L78.2813,673.5469 Q78.2813,672.2188 78.8906,671.0781 Q79.5156,669.9219 80.6094,669.3125 Q81.7031,668.6875 82.9375,668.6875 Q83.6719,668.6875 84.3125,668.8594 Q84.9688,669.0156 85.5156,669.375 Z " fill="#000000"/><text fill="#000000" font-family="sans-serif" font-size="12" lengthAdjust="spacing" textLength="65" x="103.25" y="678.4102">AuthFacade</text><line style="stroke:#A80036;stroke-width:1.5;" x1="8" x2="231" y1="689.5" y2="689.5"/><line style="stroke:#A80036;stroke-width:1.5;" x1="8" x2="231" y1="697.5" y2="697.5"/><text fill="#000000" font-family="sans-serif" font-size="11" lengthAdjust="spacing" textLength="90" x="13" y="712.9189">+existsUser(email)</text><text fill="#000000" font-family="sans-serif" font-size="11" lengthAdjust="spacing" textLength="213" x="13" y="726.7549">+addUserWithRole(name, email, pwd, roleId)</text><!--MD5=[02e4b9b7573f1156f41e60aa5b4e25a4]
class Company--><rect codeLine="8" fill="#FEFECE" filter="url(#f1eqtr7uunbuej)" height="89.5078" id="Company" style="stroke:#A80036;stroke-width:1.5;" width="111" x="250" y="270"/><ellipse cx="276.7" cy="286" fill="#ADD1B2" rx="11" ry="11" style="stroke:#A80036;stroke-width:1.0;"/><path d="M279.4656,281.875 Q279.6219,281.6563 279.8094,281.5469 Q279.9969,281.4375 280.2156,281.4375 Q280.5906,281.4375 280.825,281.7031 Q281.0594,281.9531 281.0594,282.5625 L281.0594,284.0156 Q281.0594,284.625 280.825,284.8906 Q280.5906,285.1563 280.2156,285.1563 Q279.8719,285.1563 279.6688,284.9531 Q279.4656,284.7656 279.3563,284.25 Q279.3094,283.8906 279.1219,283.7031 Q278.7938,283.3281 278.1844,283.1094 Q277.575,282.8906 276.95,282.8906 Q276.1844,282.8906 275.5438,283.2188 Q274.9188,283.5469 274.4188,284.2969 Q273.9344,285.0469 273.9344,286.0781 L273.9344,287.1719 Q273.9344,288.4063 274.825,289.2344 Q275.7156,290.0469 277.3094,290.0469 Q278.2469,290.0469 278.9031,289.7969 Q279.2938,289.6406 279.7156,289.2031 Q279.9813,288.9375 280.1219,288.8594 Q280.2781,288.7813 280.4813,288.7813 Q280.8094,288.7813 281.0594,289.0469 Q281.325,289.2969 281.325,289.6406 Q281.325,289.9844 280.9813,290.3906 Q280.4813,290.9688 279.6844,291.2969 Q278.6063,291.75 277.3094,291.75 Q275.7938,291.75 274.5906,291.125 Q273.6063,290.625 272.9188,289.5625 Q272.2313,288.4844 272.2313,287.2031 L272.2313,286.0469 Q272.2313,284.7188 272.8406,283.5781 Q273.4656,282.4219 274.5594,281.8125 Q275.6531,281.1875 276.8875,281.1875 Q277.6219,281.1875 278.2625,281.3594 Q278.9188,281.5156 279.4656,281.875 Z " fill="#000000"/><text fill="#000000" font-family="sans-serif" font-size="12" lengthAdjust="spacing" textLength="53" x="293.3" y="290.9102">Company</text><line style="stroke:#A80036;stroke-width:1.5;" x1="251" x2="360" y1="302" y2="302"/><text fill="#000000" font-family="sans-serif" font-size="11" lengthAdjust="spacing" textLength="90" x="256" y="317.4189">-String designation</text><line style="stroke:#A80036;stroke-width:1.5;" x1="251" x2="360" y1="323.8359" y2="323.8359"/><text fill="#000000" font-family="sans-serif" font-size="11" lengthAdjust="spacing" textLength="99" x="256" y="339.2549">+getSNSUserStore()</text><text fill="#000000" font-family="sans-serif" font-size="11" lengthAdjust="spacing" textLength="88" x="256" y="353.0908">+getAuthFacade()</text><!--MD5=[4a86008c03fe6bb538dc761ceaff7a46]
class UploadUsersFromFileController--><rect codeLine="14" fill="#FEFECE" filter="url(#f1eqtr7uunbuej)" height="75.6719" id="UploadUsersFromFileController" style="stroke:#A80036;stroke-width:1.5;" width="209" x="277" y="116"/><ellipse cx="292" cy="132" fill="#ADD1B2" rx="11" ry="11" style="stroke:#A80036;stroke-width:1.0;"/><path d="M294.7656,127.875 Q294.9219,127.6563 295.1094,127.5469 Q295.2969,127.4375 295.5156,127.4375 Q295.8906,127.4375 296.125,127.7031 Q296.3594,127.9531 296.3594,128.5625 L296.3594,130.0156 Q296.3594,130.625 296.125,130.8906 Q295.8906,131.1563 295.5156,131.1563 Q295.1719,131.1563 294.9688,130.9531 Q294.7656,130.7656 294.6563,130.25 Q294.6094,129.8906 294.4219,129.7031 Q294.0938,129.3281 293.4844,129.1094 Q292.875,128.8906 292.25,128.8906 Q291.4844,128.8906 290.8438,129.2188 Q290.2188,129.5469 289.7188,130.2969 Q289.2344,131.0469 289.2344,132.0781 L289.2344,133.1719 Q289.2344,134.4063 290.125,135.2344 Q291.0156,136.0469 292.6094,136.0469 Q293.5469,136.0469 294.2031,135.7969 Q294.5938,135.6406 295.0156,135.2031 Q295.2813,134.9375 295.4219,134.8594 Q295.5781,134.7813 295.7813,134.7813 Q296.1094,134.7813 296.3594,135.0469 Q296.625,135.2969 296.625,135.6406 Q296.625,135.9844 296.2813,136.3906 Q295.7813,136.9688 294.9844,137.2969 Q293.9063,137.75 292.6094,137.75 Q291.0938,137.75 289.8906,137.125 Q288.9063,136.625 288.2188,135.5625 Q287.5313,134.4844 287.5313,133.2031 L287.5313,132.0469 Q287.5313,130.7188 288.1406,129.5781 Q288.7656,128.4219 289.8594,127.8125 Q290.9531,127.1875 292.1875,127.1875 Q292.9219,127.1875 293.5625,127.3594 Q294.2188,127.5156 294.7656,127.875 Z " fill="#000000"/><text fill="#000000" font-family="sans-serif" font-size="12" lengthAdjust="spacing" textLength="177" x="306" y="136.9102">UploadUsersFromFileController</text><line style="stroke:#A80036;stroke-width:1.5;" x1="278" x2="485" y1="148" y2="148"/><line style="stroke:#A80036;stroke-width:1.5;" x1="278" x2="485" y1="156" y2="156"/><text fill="#000000" font-family="sans-serif" font-size="11" lengthAdjust="spacing" textLength="99" x="283" y="171.4189">+createCsvReader()</text><text fill="#000000" font-family="sans-serif" font-size="11" lengthAdjust="spacing" textLength="89" x="283" y="185.2549">+readAndUpload()</text><!--MD5=[de66f5ad5686dd2ca83cf70a87f91dbc]
class UploadUsersFromFileUI--><rect codeLine="19" fill="#FEFECE" filter="url(#f1eqtr7uunbuej)" height="48" id="UploadUsersFromFileUI" style="stroke:#A80036;stroke-width:1.5;" width="167" x="298" y="7"/><ellipse cx="313" cy="23" fill="#ADD1B2" rx="11" ry="11" style="stroke:#A80036;stroke-width:1.0;"/><path d="M315.7656,18.875 Q315.9219,18.6563 316.1094,18.5469 Q316.2969,18.4375 316.5156,18.4375 Q316.8906,18.4375 317.125,18.7031 Q317.3594,18.9531 317.3594,19.5625 L317.3594,21.0156 Q317.3594,21.625 317.125,21.8906 Q316.8906,22.1563 316.5156,22.1563 Q316.1719,22.1563 315.9688,21.9531 Q315.7656,21.7656 315.6563,21.25 Q315.6094,20.8906 315.4219,20.7031 Q315.0938,20.3281 314.4844,20.1094 Q313.875,19.8906 313.25,19.8906 Q312.4844,19.8906 311.8438,20.2188 Q311.2188,20.5469 310.7188,21.2969 Q310.2344,22.0469 310.2344,23.0781 L310.2344,24.1719 Q310.2344,25.4063 311.125,26.2344 Q312.0156,27.0469 313.6094,27.0469 Q314.5469,27.0469 315.2031,26.7969 Q315.5938,26.6406 316.0156,26.2031 Q316.2813,25.9375 316.4219,25.8594 Q316.5781,25.7813 316.7813,25.7813 Q317.1094,25.7813 317.3594,26.0469 Q317.625,26.2969 317.625,26.6406 Q317.625,26.9844 317.2813,27.3906 Q316.7813,27.9688 315.9844,28.2969 Q314.9063,28.75 313.6094,28.75 Q312.0938,28.75 310.8906,28.125 Q309.9063,27.625 309.2188,26.5625 Q308.5313,25.4844 308.5313,24.2031 L308.5313,23.0469 Q308.5313,21.7188 309.1406,20.5781 Q309.7656,19.4219 310.8594,18.8125 Q311.9531,18.1875 313.1875,18.1875 Q313.9219,18.1875 314.5625,18.3594 Q315.2188,18.5156 315.7656,18.875 Z " fill="#000000"/><text fill="#000000" font-family="sans-serif" font-size="12" lengthAdjust="spacing" textLength="135" x="327" y="27.9102">UploadUsersFromFileUI</text><line style="stroke:#A80036;stroke-width:1.5;" x1="299" x2="464" y1="39" y2="39"/><line style="stroke:#A80036;stroke-width:1.5;" x1="299" x2="464" y1="47" y2="47"/><!--MD5=[72be06cc7ae02ccc98efe28a50e62246]
class SNSUser--><rect codeLine="21" fill="#FEFECE" filter="url(#f1eqtr7uunbuej)" height="131.0156" id="SNSUser" style="stroke:#A80036;stroke-width:1.5;" width="114" x="267.5" y="630"/><ellipse cx="296" cy="646" fill="#ADD1B2" rx="11" ry="11" style="stroke:#A80036;stroke-width:1.0;"/><path d="M298.7656,641.875 Q298.9219,641.6563 299.1094,641.5469 Q299.2969,641.4375 299.5156,641.4375 Q299.8906,641.4375 300.125,641.7031 Q300.3594,641.9531 300.3594,642.5625 L300.3594,644.0156 Q300.3594,644.625 300.125,644.8906 Q299.8906,645.1563 299.5156,645.1563 Q299.1719,645.1563 298.9688,644.9531 Q298.7656,644.7656 298.6563,644.25 Q298.6094,643.8906 298.4219,643.7031 Q298.0938,643.3281 297.4844,643.1094 Q296.875,642.8906 296.25,642.8906 Q295.4844,642.8906 294.8438,643.2188 Q294.2188,643.5469 293.7188,644.2969 Q293.2344,645.0469 293.2344,646.0781 L293.2344,647.1719 Q293.2344,648.4063 294.125,649.2344 Q295.0156,650.0469 296.6094,650.0469 Q297.5469,650.0469 298.2031,649.7969 Q298.5938,649.6406 299.0156,649.2031 Q299.2813,648.9375 299.4219,648.8594 Q299.5781,648.7813 299.7813,648.7813 Q300.1094,648.7813 300.3594,649.0469 Q300.625,649.2969 300.625,649.6406 Q300.625,649.9844 300.2813,650.3906 Q299.7813,650.9688 298.9844,651.2969 Q297.9063,651.75 296.6094,651.75 Q295.0938,651.75 293.8906,651.125 Q292.9063,650.625 292.2188,649.5625 Q291.5313,648.4844 291.5313,647.2031 L291.5313,646.0469 Q291.5313,644.7188 292.1406,643.5781 Q292.7656,642.4219 293.8594,641.8125 Q294.9531,641.1875 296.1875,641.1875 Q296.9219,641.1875 297.5625,641.3594 Q298.2188,641.5156 298.7656,641.875 Z " fill="#000000"/><text fill="#000000" font-family="sans-serif" font-size="12" lengthAdjust="spacing" textLength="52" x="313" y="650.9102">SNSUser</text><line style="stroke:#A80036;stroke-width:1.5;" x1="268.5" x2="380.5" y1="662" y2="662"/><text fill="#000000" font-family="sans-serif" font-size="11" lengthAdjust="spacing" textLength="89" x="273.5" y="677.4189">-String citizenCard</text><text fill="#000000" font-family="sans-serif" font-size="11" lengthAdjust="spacing" textLength="90" x="273.5" y="691.2549">-String snsNumber</text><text fill="#000000" font-family="sans-serif" font-size="11" lengthAdjust="spacing" textLength="69" x="273.5" y="705.0908">-Date birthDay</text><text fill="#000000" font-family="sans-serif" font-size="11" lengthAdjust="spacing" textLength="64" x="273.5" y="718.9268">-Char gender</text><text fill="#000000" font-family="sans-serif" font-size="11" lengthAdjust="spacing" textLength="102" x="273.5" y="732.7627">-String phoneNumber</text><text fill="#000000" font-family="sans-serif" font-size="11" lengthAdjust="spacing" textLength="75" x="273.5" y="746.5986">-String address</text><line style="stroke:#A80036;stroke-width:1.5;" x1="268.5" x2="380.5" y1="753.0156" y2="753.0156"/><!--MD5=[a5ad3856b0c65e07b10297b4477b22bb]
class SNSUserStore--><rect codeLine="30" fill="#FEFECE" filter="url(#f1eqtr7uunbuej)" height="131.0156" id="SNSUserStore" style="stroke:#A80036;stroke-width:1.5;" width="217" x="380" y="421"/><ellipse cx="443.75" cy="437" fill="#ADD1B2" rx="11" ry="11" style="stroke:#A80036;stroke-width:1.0;"/><path d="M446.5156,432.875 Q446.6719,432.6563 446.8594,432.5469 Q447.0469,432.4375 447.2656,432.4375 Q447.6406,432.4375 447.875,432.7031 Q448.1094,432.9531 448.1094,433.5625 L448.1094,435.0156 Q448.1094,435.625 447.875,435.8906 Q447.6406,436.1563 447.2656,436.1563 Q446.9219,436.1563 446.7188,435.9531 Q446.5156,435.7656 446.4063,435.25 Q446.3594,434.8906 446.1719,434.7031 Q445.8438,434.3281 445.2344,434.1094 Q444.625,433.8906 444,433.8906 Q443.2344,433.8906 442.5938,434.2188 Q441.9688,434.5469 441.4688,435.2969 Q440.9844,436.0469 440.9844,437.0781 L440.9844,438.1719 Q440.9844,439.4063 441.875,440.2344 Q442.7656,441.0469 444.3594,441.0469 Q445.2969,441.0469 445.9531,440.7969 Q446.3438,440.6406 446.7656,440.2031 Q447.0313,439.9375 447.1719,439.8594 Q447.3281,439.7813 447.5313,439.7813 Q447.8594,439.7813 448.1094,440.0469 Q448.375,440.2969 448.375,440.6406 Q448.375,440.9844 448.0313,441.3906 Q447.5313,441.9688 446.7344,442.2969 Q445.6563,442.75 444.3594,442.75 Q442.8438,442.75 441.6406,442.125 Q440.6563,441.625 439.9688,440.5625 Q439.2813,439.4844 439.2813,438.2031 L439.2813,437.0469 Q439.2813,435.7188 439.8906,434.5781 Q440.5156,433.4219 441.6094,432.8125 Q442.7031,432.1875 443.9375,432.1875 Q444.6719,432.1875 445.3125,432.3594 Q445.9688,432.5156 446.5156,432.875 Z " fill="#000000"/><text fill="#000000" font-family="sans-serif" font-size="12" lengthAdjust="spacing" textLength="81" x="464.25" y="441.9102">SNSUserStore</text><line style="stroke:#A80036;stroke-width:1.5;" x1="381" x2="596" y1="453" y2="453"/><line style="stroke:#A80036;stroke-width:1.5;" x1="381" x2="596" y1="461" y2="461"/><text fill="#000000" font-family="sans-serif" font-size="11" lengthAdjust="spacing" textLength="205" x="386" y="476.4189">+createSNSUser(name, email, pwd, roleId)</text><text fill="#000000" font-family="sans-serif" font-size="11" lengthAdjust="spacing" textLength="136" x="386" y="490.2549">+validateSNSUser(snsUser)</text><text fill="#000000" font-family="sans-serif" font-size="11" lengthAdjust="spacing" textLength="123" x="386" y="504.0908">+saveSNSUser(snsUser)</text><text fill="#000000" font-family="sans-serif" font-size="11" lengthAdjust="spacing" textLength="134" x="386" y="517.9268">+checkDuplicates(snsUser)</text><text fill="#000000" font-family="sans-serif" font-size="11" lengthAdjust="spacing" textLength="160" x="386" y="531.7627">+registListOfUsers(userDataList)</text><text fill="#000000" font-family="sans-serif" font-size="11" lengthAdjust="spacing" textLength="117" x="386" y="545.5986">+addSNSUser(snsUser)</text><!--MD5=[9a2889027d1a5f59ee05c53124f224f8]
class PasswordGenerator--><rect codeLine="39" fill="#FEFECE" filter="url(#f1eqtr7uunbuej)" height="61.8359" id="PasswordGenerator" style="stroke:#A80036;stroke-width:1.5;" width="143" x="417" y="664.5"/><ellipse cx="432" cy="680.5" fill="#ADD1B2" rx="11" ry="11" style="stroke:#A80036;stroke-width:1.0;"/><path d="M434.7656,676.375 Q434.9219,676.1563 435.1094,676.0469 Q435.2969,675.9375 435.5156,675.9375 Q435.8906,675.9375 436.125,676.2031 Q436.3594,676.4531 436.3594,677.0625 L436.3594,678.5156 Q436.3594,679.125 436.125,679.3906 Q435.8906,679.6563 435.5156,679.6563 Q435.1719,679.6563 434.9688,679.4531 Q434.7656,679.2656 434.6563,678.75 Q434.6094,678.3906 434.4219,678.2031 Q434.0938,677.8281 433.4844,677.6094 Q432.875,677.3906 432.25,677.3906 Q431.4844,677.3906 430.8438,677.7188 Q430.2188,678.0469 429.7188,678.7969 Q429.2344,679.5469 429.2344,680.5781 L429.2344,681.6719 Q429.2344,682.9063 430.125,683.7344 Q431.0156,684.5469 432.6094,684.5469 Q433.5469,684.5469 434.2031,684.2969 Q434.5938,684.1406 435.0156,683.7031 Q435.2813,683.4375 435.4219,683.3594 Q435.5781,683.2813 435.7813,683.2813 Q436.1094,683.2813 436.3594,683.5469 Q436.625,683.7969 436.625,684.1406 Q436.625,684.4844 436.2813,684.8906 Q435.7813,685.4688 434.9844,685.7969 Q433.9063,686.25 432.6094,686.25 Q431.0938,686.25 429.8906,685.625 Q428.9063,685.125 428.2188,684.0625 Q427.5313,682.9844 427.5313,681.7031 L427.5313,680.5469 Q427.5313,679.2188 428.1406,678.0781 Q428.7656,676.9219 429.8594,676.3125 Q430.9531,675.6875 432.1875,675.6875 Q432.9219,675.6875 433.5625,675.8594 Q434.2188,676.0156 434.7656,676.375 Z " fill="#000000"/><text fill="#000000" font-family="sans-serif" font-size="12" lengthAdjust="spacing" textLength="111" x="446" y="685.4102">PasswordGenerator</text><line style="stroke:#A80036;stroke-width:1.5;" x1="418" x2="559" y1="696.5" y2="696.5"/><line style="stroke:#A80036;stroke-width:1.5;" x1="418" x2="559" y1="704.5" y2="704.5"/><text fill="#000000" font-family="sans-serif" font-size="11" lengthAdjust="spacing" textLength="107" x="423" y="719.9189">+generatePassword()</text><!--MD5=[dbd744789a27dfb7a38205596e031569]
class EmailSender--><rect codeLine="43" fill="#FEFECE" filter="url(#f1eqtr7uunbuej)" height="61.8359" id="EmailSender" style="stroke:#A80036;stroke-width:1.5;" width="104" x="595.5" y="664.5"/><ellipse cx="610.5" cy="680.5" fill="#ADD1B2" rx="11" ry="11" style="stroke:#A80036;stroke-width:1.0;"/><path d="M613.2656,676.375 Q613.4219,676.1563 613.6094,676.0469 Q613.7969,675.9375 614.0156,675.9375 Q614.3906,675.9375 614.625,676.2031 Q614.8594,676.4531 614.8594,677.0625 L614.8594,678.5156 Q614.8594,679.125 614.625,679.3906 Q614.3906,679.6563 614.0156,679.6563 Q613.6719,679.6563 613.4688,679.4531 Q613.2656,679.2656 613.1563,678.75 Q613.1094,678.3906 612.9219,678.2031 Q612.5938,677.8281 611.9844,677.6094 Q611.375,677.3906 610.75,677.3906 Q609.9844,677.3906 609.3438,677.7188 Q608.7188,678.0469 608.2188,678.7969 Q607.7344,679.5469 607.7344,680.5781 L607.7344,681.6719 Q607.7344,682.9063 608.625,683.7344 Q609.5156,684.5469 611.1094,684.5469 Q612.0469,684.5469 612.7031,684.2969 Q613.0938,684.1406 613.5156,683.7031 Q613.7813,683.4375 613.9219,683.3594 Q614.0781,683.2813 614.2813,683.2813 Q614.6094,683.2813 614.8594,683.5469 Q615.125,683.7969 615.125,684.1406 Q615.125,684.4844 614.7813,684.8906 Q614.2813,685.4688 613.4844,685.7969 Q612.4063,686.25 611.1094,686.25 Q609.5938,686.25 608.3906,685.625 Q607.4063,685.125 606.7188,684.0625 Q606.0313,682.9844 606.0313,681.7031 L606.0313,680.5469 Q606.0313,679.2188 606.6406,678.0781 Q607.2656,676.9219 608.3594,676.3125 Q609.4531,675.6875 610.6875,675.6875 Q611.4219,675.6875 612.0625,675.8594 Q612.7188,676.0156 613.2656,676.375 Z " fill="#000000"/><text fill="#000000" font-family="sans-serif" font-size="12" lengthAdjust="spacing" textLength="72" x="624.5" y="685.4102">EmailSender</text><line style="stroke:#A80036;stroke-width:1.5;" x1="596.5" x2="698.5" y1="696.5" y2="696.5"/><line style="stroke:#A80036;stroke-width:1.5;" x1="596.5" x2="698.5" y1="704.5" y2="704.5"/><text fill="#000000" font-family="sans-serif" font-size="11" lengthAdjust="spacing" textLength="86" x="601.5" y="719.9189">+sendEmail(email)</text><!--MD5=[60b59e3d7d8b95aff167b5157d975660]
class CSVReader--><rect codeLine="47" fill="#FEFECE" filter="url(#f1eqtr7uunbuej)" height="75.6719" id="CSVReader" style="stroke:#A80036;stroke-width:1.5;" width="120" x="396.5" y="277"/><ellipse cx="421.85" cy="293" fill="#ADD1B2" rx="11" ry="11" style="stroke:#A80036;stroke-width:1.0;"/><path d="M424.6156,288.875 Q424.7719,288.6563 424.9594,288.5469 Q425.1469,288.4375 425.3656,288.4375 Q425.7406,288.4375 425.975,288.7031 Q426.2094,288.9531 426.2094,289.5625 L426.2094,291.0156 Q426.2094,291.625 425.975,291.8906 Q425.7406,292.1563 425.3656,292.1563 Q425.0219,292.1563 424.8188,291.9531 Q424.6156,291.7656 424.5063,291.25 Q424.4594,290.8906 424.2719,290.7031 Q423.9438,290.3281 423.3344,290.1094 Q422.725,289.8906 422.1,289.8906 Q421.3344,289.8906 420.6938,290.2188 Q420.0688,290.5469 419.5688,291.2969 Q419.0844,292.0469 419.0844,293.0781 L419.0844,294.1719 Q419.0844,295.4063 419.975,296.2344 Q420.8656,297.0469 422.4594,297.0469 Q423.3969,297.0469 424.0531,296.7969 Q424.4438,296.6406 424.8656,296.2031 Q425.1313,295.9375 425.2719,295.8594 Q425.4281,295.7813 425.6313,295.7813 Q425.9594,295.7813 426.2094,296.0469 Q426.475,296.2969 426.475,296.6406 Q426.475,296.9844 426.1313,297.3906 Q425.6313,297.9688 424.8344,298.2969 Q423.7563,298.75 422.4594,298.75 Q420.9438,298.75 419.7406,298.125 Q418.7563,297.625 418.0688,296.5625 Q417.3813,295.4844 417.3813,294.2031 L417.3813,293.0469 Q417.3813,291.7188 417.9906,290.5781 Q418.6156,289.4219 419.7094,288.8125 Q420.8031,288.1875 422.0375,288.1875 Q422.7719,288.1875 423.4125,288.3594 Q424.0688,288.5156 424.6156,288.875 Z " fill="#000000"/><text fill="#000000" font-family="sans-serif" font-size="12" lengthAdjust="spacing" textLength="65" x="438.15" y="297.9102">CSVReader</text><line style="stroke:#A80036;stroke-width:1.5;" x1="397.5" x2="515.5" y1="309" y2="309"/><text fill="#000000" font-family="sans-serif" font-size="11" lengthAdjust="spacing" textLength="97" x="402.5" y="324.4189">-String filePathName</text><line style="stroke:#A80036;stroke-width:1.5;" x1="397.5" x2="515.5" y1="330.8359" y2="330.8359"/><text fill="#000000" font-family="sans-serif" font-size="11" lengthAdjust="spacing" textLength="108" x="402.5" y="346.2549">+readSNSUsersData()</text><!--MD5=[e4bb558c92260c47cedb3f39feb63908]
class UserMapper--><rect codeLine="53" fill="#FEFECE" filter="url(#f1eqtr7uunbuej)" height="61.8359" id="UserMapper" style="stroke:#A80036;stroke-width:1.5;" width="100" x="734.5" y="664.5"/><ellipse cx="749.5" cy="680.5" fill="#ADD1B2" rx="11" ry="11" style="stroke:#A80036;stroke-width:1.0;"/><path d="M752.2656,676.375 Q752.4219,676.1563 752.6094,676.0469 Q752.7969,675.9375 753.0156,675.9375 Q753.3906,675.9375 753.625,676.2031 Q753.8594,676.4531 753.8594,677.0625 L753.8594,678.5156 Q753.8594,679.125 753.625,679.3906 Q753.3906,679.6563 753.0156,679.6563 Q752.6719,679.6563 752.4688,679.4531 Q752.2656,679.2656 752.1563,678.75 Q752.1094,678.3906 751.9219,678.2031 Q751.5938,677.8281 750.9844,677.6094 Q750.375,677.3906 749.75,677.3906 Q748.9844,677.3906 748.3438,677.7188 Q747.7188,678.0469 747.2188,678.7969 Q746.7344,679.5469 746.7344,680.5781 L746.7344,681.6719 Q746.7344,682.9063 747.625,683.7344 Q748.5156,684.5469 750.1094,684.5469 Q751.0469,684.5469 751.7031,684.2969 Q752.0938,684.1406 752.5156,683.7031 Q752.7813,683.4375 752.9219,683.3594 Q753.0781,683.2813 753.2813,683.2813 Q753.6094,683.2813 753.8594,683.5469 Q754.125,683.7969 754.125,684.1406 Q754.125,684.4844 753.7813,684.8906 Q753.2813,685.4688 752.4844,685.7969 Q751.4063,686.25 750.1094,686.25 Q748.5938,686.25 747.3906,685.625 Q746.4063,685.125 745.7188,684.0625 Q745.0313,682.9844 745.0313,681.7031 L745.0313,680.5469 Q745.0313,679.2188 745.6406,678.0781 Q746.2656,676.9219 747.3594,676.3125 Q748.4531,675.6875 749.6875,675.6875 Q750.4219,675.6875 751.0625,675.8594 Q751.7188,676.0156 752.2656,676.375 Z " fill="#000000"/><text fill="#000000" font-family="sans-serif" font-size="12" lengthAdjust="spacing" textLength="68" x="763.5" y="685.4102">UserMapper</text><line style="stroke:#A80036;stroke-width:1.5;" x1="735.5" x2="833.5" y1="696.5" y2="696.5"/><line style="stroke:#A80036;stroke-width:1.5;" x1="735.5" x2="833.5" y1="704.5" y2="704.5"/><text fill="#000000" font-family="sans-serif" font-size="11" lengthAdjust="spacing" textLength="80" x="740.5" y="719.9189">+toDto(snsUser)</text><!--MD5=[d52bb4e0af23ce21220aa3b18c0ca397]
class UserDto--><rect codeLine="57" fill="#FEFECE" filter="url(#f1eqtr7uunbuej)" height="103.3438" id="UserDto" style="stroke:#A80036;stroke-width:1.5;" width="78" x="745.5" y="839"/><ellipse cx="760.5" cy="855" fill="#ADD1B2" rx="11" ry="11" style="stroke:#A80036;stroke-width:1.0;"/><path d="M763.2656,850.875 Q763.4219,850.6563 763.6094,850.5469 Q763.7969,850.4375 764.0156,850.4375 Q764.3906,850.4375 764.625,850.7031 Q764.8594,850.9531 764.8594,851.5625 L764.8594,853.0156 Q764.8594,853.625 764.625,853.8906 Q764.3906,854.1563 764.0156,854.1563 Q763.6719,854.1563 763.4688,853.9531 Q763.2656,853.7656 763.1563,853.25 Q763.1094,852.8906 762.9219,852.7031 Q762.5938,852.3281 761.9844,852.1094 Q761.375,851.8906 760.75,851.8906 Q759.9844,851.8906 759.3438,852.2188 Q758.7188,852.5469 758.2188,853.2969 Q757.7344,854.0469 757.7344,855.0781 L757.7344,856.1719 Q757.7344,857.4063 758.625,858.2344 Q759.5156,859.0469 761.1094,859.0469 Q762.0469,859.0469 762.7031,858.7969 Q763.0938,858.6406 763.5156,858.2031 Q763.7813,857.9375 763.9219,857.8594 Q764.0781,857.7813 764.2813,857.7813 Q764.6094,857.7813 764.8594,858.0469 Q765.125,858.2969 765.125,858.6406 Q765.125,858.9844 764.7813,859.3906 Q764.2813,859.9688 763.4844,860.2969 Q762.4063,860.75 761.1094,860.75 Q759.5938,860.75 758.3906,860.125 Q757.4063,859.625 756.7188,858.5625 Q756.0313,857.4844 756.0313,856.2031 L756.0313,855.0469 Q756.0313,853.7188 756.6406,852.5781 Q757.2656,851.4219 758.3594,850.8125 Q759.4531,850.1875 760.6875,850.1875 Q761.4219,850.1875 762.0625,850.3594 Q762.7188,850.5156 763.2656,850.875 Z " fill="#000000"/><text fill="#000000" font-family="sans-serif" font-size="12" lengthAdjust="spacing" textLength="46" x="774.5" y="859.9102">UserDto</text><line style="stroke:#A80036;stroke-width:1.5;" x1="746.5" x2="822.5" y1="871" y2="871"/><text fill="#000000" font-family="sans-serif" font-size="11" lengthAdjust="spacing" textLength="32" x="751.5" y="886.4189">+name</text><text fill="#000000" font-family="sans-serif" font-size="11" lengthAdjust="spacing" textLength="30" x="751.5" y="900.2549">+email</text><text fill="#000000" font-family="sans-serif" font-size="11" lengthAdjust="spacing" textLength="56" x="751.5" y="914.0908">+password</text><text fill="#000000" font-family="sans-serif" font-size="11" lengthAdjust="spacing" textLength="32" x="751.5" y="927.9268">+roleId</text><line style="stroke:#A80036;stroke-width:1.5;" x1="746.5" x2="822.5" y1="934.3438" y2="934.3438"/><!--MD5=[1bd9080c7e199931e49bc5a1616681ac]
link Company to SNSUserStore--><path codeLine="64" d="M353.1,360.09 C371.95,377.54 394.04,398.01 414.86,417.29 " fill="none" id="Company-to-SNSUserStore" style="stroke:#A80036;stroke-width:1.0;stroke-dasharray:7.0,7.0;"/><polygon fill="#A80036" points="418.73,420.88,414.8445,411.83,415.0615,417.4827,409.4088,417.6996,418.73,420.88" style="stroke:#A80036;stroke-width:1.0;"/><!--MD5=[717d4b03d3c4372f4eafe5e342a0a7dd]
link Company to AuthFacade--><path codeLine="65" d="M283.8,360.16 C247.6,433.82 175.4,580.75 140.01,652.76 " fill="none" id="Company-to-AuthFacade" style="stroke:#A80036;stroke-width:1.0;stroke-dasharray:7.0,7.0;"/><polygon fill="#A80036" points="137.73,657.4,145.2844,651.0809,139.9317,652.9108,138.1017,647.5582,137.73,657.4" style="stroke:#A80036;stroke-width:1.0;"/><!--MD5=[1a8aa2b864b87f860d28abceaa28b7a5]
link Company to SNSUser--><path codeLine="66" d="M307.72,360.16 C310.98,425.23 317.12,547.49 321,624.76 " fill="none" id="Company-to-SNSUser" style="stroke:#A80036;stroke-width:1.0;"/><polygon fill="#A80036" points="321.25,629.78,324.7825,620.5864,320.9932,624.7866,316.793,620.9973,321.25,629.78" style="stroke:#A80036;stroke-width:1.0;"/><text fill="#000000" font-family="sans-serif" font-size="13" lengthAdjust="spacing" textLength="37" x="318.5" y="491.9951">knows</text><text fill="#000000" font-family="sans-serif" font-size="13" lengthAdjust="spacing" textLength="7" x="300.548" y="380.8552">1</text><text fill="#000000" font-family="sans-serif" font-size="13" lengthAdjust="spacing" textLength="5" x="315.6211" y="619.2304">*</text><!--MD5=[ef4cfad0791643571f818f0538547fbd]
link UploadUsersFromFileController to Company--><path codeLine="67" d="M363.68,192.28 C353.28,214.05 340.02,241.77 328.8,265.26 " fill="none" id="UploadUsersFromFileController-to-Company" style="stroke:#A80036;stroke-width:1.0;stroke-dasharray:7.0,7.0;"/><polygon fill="#A80036" points="326.58,269.9,334.0695,263.5041,328.7358,265.3886,326.8513,260.0549,326.58,269.9" style="stroke:#A80036;stroke-width:1.0;"/><!--MD5=[de00728d0767d478f3de564a12020505]
link UploadUsersFromFileUI to UploadUsersFromFileController--><path codeLine="68" d="M381.5,55.04 C381.5,70.71 381.5,91.91 381.5,110.58 " fill="none" id="UploadUsersFromFileUI-to-UploadUsersFromFileController" style="stroke:#A80036;stroke-width:1.0;stroke-dasharray:7.0,7.0;"/><polygon fill="#A80036" points="381.5,115.77,385.5,106.77,381.5,110.77,377.5,106.77,381.5,115.77" style="stroke:#A80036;stroke-width:1.0;"/><!--MD5=[9df01b2e8ed4c5996c0ca3bc39568c7d]
link UploadUsersFromFileController to CSVReader--><path codeLine="69" d="M399.08,192.28 C410.42,216.3 425.16,247.57 436.88,272.4 " fill="none" id="UploadUsersFromFileController-to-CSVReader" style="stroke:#A80036;stroke-width:1.0;"/><polygon fill="#A80036" points="439.03,276.96,438.8216,267.1133,436.9031,272.4349,431.5815,270.5164,439.03,276.96" style="stroke:#A80036;stroke-width:1.0;"/><text fill="#000000" font-family="sans-serif" font-size="13" lengthAdjust="spacing" textLength="28" x="422.5" y="236.4951">uses</text><!--MD5=[bc3349464b4fa8eddccb337858e655b4]
link SNSUserStore to AuthFacade--><path codeLine="70" d="M379.78,548.49 C318.47,582.88 243.65,624.85 189.99,654.96 " fill="none" id="SNSUserStore-to-AuthFacade" style="stroke:#A80036;stroke-width:1.0;"/><polygon fill="#A80036" points="185.52,657.47,195.3278,656.5714,189.8847,655.0309,191.4252,649.5878,185.52,657.47" style="stroke:#A80036;stroke-width:1.0;"/><text fill="#000000" font-family="sans-serif" font-size="13" lengthAdjust="spacing" textLength="28" x="316.5" y="596.4951">uses</text><!--MD5=[b6e2ea40e00707054540f9b1c5529f61]
link SNSUserStore to PasswordGenerator--><path codeLine="71" d="M488.5,552.14 C488.5,587.43 488.5,629.77 488.5,659.06 " fill="none" id="SNSUserStore-to-PasswordGenerator" style="stroke:#A80036;stroke-width:1.0;"/><polygon fill="#A80036" points="488.5,664.37,492.5,655.37,488.5,659.37,484.5,655.37,488.5,664.37" style="stroke:#A80036;stroke-width:1.0;"/><text fill="#000000" font-family="sans-serif" font-size="13" lengthAdjust="spacing" textLength="28" x="489.5" y="596.4951">uses</text><!--MD5=[960de6b44c73ba19b3fff307658cbb8f]
link SNSUserStore to EmailSender--><path codeLine="72" d="M538.15,552.14 C565.6,587.87 598.59,630.83 621.11,660.14 " fill="none" id="SNSUserStore-to-EmailSender" style="stroke:#A80036;stroke-width:1.0;"/><polygon fill="#A80036" points="624.35,664.37,622.0514,654.7931,621.309,660.401,615.7011,659.6587,624.35,664.37" style="stroke:#A80036;stroke-width:1.0;"/><text fill="#000000" font-family="sans-serif" font-size="13" lengthAdjust="spacing" textLength="28" x="574.5" y="596.4951">uses</text><!--MD5=[b01d27099955aced792f1ce85db49798]
link SNSUserStore to SNSUser--><path codeLine="73" d="M437.28,552.14 C418.72,575.58 397.68,602.13 378.85,625.89 " fill="none" id="SNSUserStore-to-SNSUser" style="stroke:#A80036;stroke-width:1.0;stroke-dasharray:7.0,7.0;"/><polygon fill="#A80036" points="375.61,629.99,384.3355,625.4221,378.7161,626.0718,378.0664,620.4524,375.61,629.99" style="stroke:#A80036;stroke-width:1.0;"/><!--MD5=[1c4796ee49f4de647181a5b27c9b92fe]
link SNSUserStore to UserMapper--><path codeLine="74" d="M597.04,549.22 C635.87,572.87 679.22,601.14 716.5,630 C728.52,639.31 740.83,650.41 751.61,660.76 " fill="none" id="SNSUserStore-to-UserMapper" style="stroke:#A80036;stroke-width:1.0;"/><polygon fill="#A80036" points="755.2,664.24,751.5348,655.0985,751.6148,660.7548,745.9585,660.8348,755.2,664.24" style="stroke:#A80036;stroke-width:1.0;"/><text fill="#000000" font-family="sans-serif" font-size="13" lengthAdjust="spacing" textLength="25" x="676.5" y="596.4951">user</text><!--MD5=[331da4c26fa55fce82183236b6c7ff4d]
link UserMapper to UserDto--><path codeLine="75" d="M784.5,726.66 C784.5,755.25 784.5,798.92 784.5,833.83 " fill="none" id="UserMapper-to-UserDto" style="stroke:#A80036;stroke-width:1.0;"/><polygon fill="#A80036" points="784.5,838.92,788.5,829.92,784.5,833.92,780.5,829.92,784.5,838.92" style="stroke:#A80036;stroke-width:1.0;"/><text fill="#000000" font-family="sans-serif" font-size="13" lengthAdjust="spacing" textLength="63" x="785.5" y="805.4951">converts to</text><!--MD5=[6cde5af156b3ed9cbcb1e25c4582a42a]
@startuml
skinparam classAttributeIconSize 0

class AuthFacade {
  + existsUser(email)
  + addUserWithRole(name, email, pwd, roleId)
}

class Company {
  - String designation
  + getSNSUserStore()
  + getAuthFacade()
}

class UploadUsersFromFileController {
  + createCsvReader()
  + readAndUpload()
}

class UploadUsersFromFileUI { }

class SNSUser {
  - String citizenCard
  - String snsNumber
  - Date birthDay
  - Char gender
  - String phoneNumber
  - String address
}

class SNSUserStore {
  + createSNSUser(name, email, pwd, roleId)
  + validateSNSUser(snsUser)
  + saveSNSUser(snsUser)
  + checkDuplicates(snsUser)
  + registListOfUsers(userDataList)
  + addSNSUser(snsUser)
}

class PasswordGenerator {
  + generatePassword()
}

class EmailSender {
  + sendEmail(email)
}

class CSVReader {
  - String filePathName

  + readSNSUsersData()
}

class UserMapper{
  + toDto(snsUser)
}

class UserDto{
  + name
  + email
  + password 
  + roleId
}

Company ..> SNSUserStore
Company ..> AuthFacade
Company "1" - -> "*" SNSUser : knows
UploadUsersFromFileController ..> Company
UploadUsersFromFileUI ..> UploadUsersFromFileController
UploadUsersFromFileController - -> CSVReader : uses
SNSUserStore - -> AuthFacade : uses
SNSUserStore - -> PasswordGenerator : uses
SNSUserStore - -> EmailSender : uses
SNSUserStore ..> SNSUser
SNSUserStore - -> UserMapper : user
UserMapper - -> UserDto : converts to


@enduml

PlantUML version 1.2022.0(Tue Jan 11 16:16:42 WET 2022)
(GPL source distribution)
Java Runtime: Java(TM) SE Runtime Environment
JVM: Java HotSpot(TM) 64-Bit Server VM
Default Encoding: Cp1252
Language: pt
Country: PT
--></g></svg>