<?xml version="1.0" encoding="UTF-8" standalone="no"?><svg xmlns="http://www.w3.org/2000/svg" xmlns:xlink="http://www.w3.org/1999/xlink" contentScriptType="application/ecmascript" contentStyleType="text/css" height="1473px" preserveAspectRatio="none" style="width:3106px;height:1473px;background:#FFFFFF;" version="1.1" viewBox="0 0 3106 1473" width="3106px" zoomAndPan="magnify"><defs><filter height="300%" id="f1wqzev71wznmd" width="300%" x="-1" y="-1"><feGaussianBlur result="blurOut" stdDeviation="2.0"/><feColorMatrix in="blurOut" result="blurOut2" type="matrix" values="0 0 0 0 0 0 0 0 0 0 0 0 0 0 0 0 0 0 .4 0"/><feOffset dx="4.0" dy="4.0" in="blurOut2" result="blurOut3"/><feBlend in="SourceGraphic" in2="blurOut3" mode="normal"/></filter></defs><g><rect fill="#FFFFFF" filter="url(#f1wqzev71wznmd)" height="1270.3203" style="stroke:#A80036;stroke-width:1.0;" width="10" x="64" y="99.6094"/><rect fill="#FFFFFF" filter="url(#f1wqzev71wznmd)" height="141.0156" style="stroke:#A80036;stroke-width:1.0;" width="10" x="348" y="121.9609"/><rect fill="#FFFFFF" filter="url(#f1wqzev71wznmd)" height="1085.6016" style="stroke:#A80036;stroke-width:1.0;" width="10" x="348" y="293.3281"/><rect fill="#FFFFFF" filter="url(#f1wqzev71wznmd)" height="90.7031" style="stroke:#A80036;stroke-width:1.0;" width="10" x="700.5" y="323.6797"/><rect fill="#FFFFFF" filter="url(#f1wqzev71wznmd)" height="830.625" style="stroke:#A80036;stroke-width:1.0;" width="10" x="700.5" y="478.6016"/><rect fill="#FFFFFF" filter="url(#f1wqzev71wznmd)" height="747.9219" style="stroke:#A80036;stroke-width:1.0;" width="10" x="1048.5" y="508.9531"/><rect fill="#FFFFFF" filter="url(#f1wqzev71wznmd)" height="410.4609" style="stroke:#A80036;stroke-width:1.0;" width="10" x="1053.5" y="658.3594"/><rect fill="#FFFFFF" filter="url(#f1wqzev71wznmd)" height="28" style="stroke:#A80036;stroke-width:1.0;" width="10" x="1053.5" y="1132.5234"/><rect fill="#FFFFFF" filter="url(#f1wqzev71wznmd)" height="30" style="stroke:#A80036;stroke-width:1.0;" width="10" x="1521.5" y="693.7109"/><rect fill="#FFFFFF" filter="url(#f1wqzev71wznmd)" height="30" style="stroke:#A80036;stroke-width:1.0;" width="10" x="1521.5" y="754.0625"/><rect fill="#FFFFFF" filter="url(#f1wqzev71wznmd)" height="30" style="stroke:#A80036;stroke-width:1.0;" width="10" x="1521.5" y="814.4141"/><rect fill="#FFFFFF" filter="url(#f1wqzev71wznmd)" height="30" style="stroke:#A80036;stroke-width:1.0;" width="10" x="1679" y="354.0313"/><rect fill="#FFFFFF" filter="url(#f1wqzev71wznmd)" height="30" style="stroke:#A80036;stroke-width:1.0;" width="10" x="1825" y="564.6563"/><rect fill="#FFFFFF" filter="url(#f1wqzev71wznmd)" height="194.0547" style="stroke:#A80036;stroke-width:1.0;" width="10" x="2358" y="874.7656"/><rect fill="#FFFFFF" filter="url(#f1wqzev71wznmd)" height="28" style="stroke:#A80036;stroke-width:1.0;" width="10" x="2363" y="913.1172"/><rect fill="#FFFFFF" filter="url(#f1wqzev71wznmd)" height="30" style="stroke:#A80036;stroke-width:1.0;" width="10" x="2660" y="978.4688"/><rect fill="#FFFFFF" filter="url(#f1wqzev71wznmd)" height="30" style="stroke:#A80036;stroke-width:1.0;" width="10" x="2783" y="1038.8203"/><rect fill="#FFFFFF" filter="url(#f1wqzev71wznmd)" height="30" style="stroke:#A80036;stroke-width:1.0;" width="10" x="2928.5" y="1211.875"/><rect fill="#FFFFFF" filter="url(#f1wqzev71wznmd)" height="30" style="stroke:#A80036;stroke-width:1.0;" width="10" x="3057.5" y="1279.2266"/><rect fill="#FFFFFF" filter="url(#f1wqzev71wznmd)" height="725.9219" style="stroke:#000000;stroke-width:2.0;" width="2081.5" x="947.5" y="523.9531"/><rect fill="#FFFFFF" filter="url(#f1wqzev71wznmd)" height="572.8672" style="stroke:#000000;stroke-width:2.0;" width="1890.5" x="957.5" y="609.6563"/><rect fill="#FFFFFF" filter="url(#f1wqzev71wznmd)" height="91.7031" style="stroke:#000000;stroke-width:2.0;" width="259" x="967.5" y="1083.8203"/><line style="stroke:#A80036;stroke-width:1.0;stroke-dasharray:5.0,5.0;" x1="69" x2="69" y1="89.6094" y2="1387.9297"/><line style="stroke:#A80036;stroke-width:1.0;stroke-dasharray:5.0,5.0;" x1="352.5" x2="352.5" y1="89.6094" y2="1387.9297"/><line style="stroke:#A80036;stroke-width:1.0;stroke-dasharray:5.0,5.0;" x1="705" x2="705" y1="227.3203" y2="1387.9297"/><line style="stroke:#A80036;stroke-width:1.0;stroke-dasharray:5.0,5.0;" x1="1053.5" x2="1053.5" y1="434.1406" y2="1387.9297"/><line style="stroke:#A80036;stroke-width:1.0;stroke-dasharray:5.0,5.0;" x1="1526" x2="1526" y1="89.6094" y2="1387.9297"/><line style="stroke:#A80036;stroke-width:1.0;stroke-dasharray:5.0,5.0;" x1="1684" x2="1684" y1="89.6094" y2="1387.9297"/><line style="stroke:#A80036;stroke-width:1.0;stroke-dasharray:5.0,5.0;" x1="1830" x2="1830" y1="89.6094" y2="1387.9297"/><line style="stroke:#A80036;stroke-width:1.0;stroke-dasharray:5.0,5.0;" x1="2008" x2="2008" y1="89.6094" y2="1387.9297"/><line style="stroke:#A80036;stroke-width:1.0;stroke-dasharray:5.0,5.0;" x1="2217" x2="2217" y1="89.6094" y2="1387.9297"/><line style="stroke:#A80036;stroke-width:1.0;stroke-dasharray:5.0,5.0;" x1="2363" x2="2363" y1="89.6094" y2="1387.9297"/><line style="stroke:#A80036;stroke-width:1.0;stroke-dasharray:5.0,5.0;" x1="2665" x2="2665" y1="89.6094" y2="1387.9297"/><line style="stroke:#A80036;stroke-width:1.0;stroke-dasharray:5.0,5.0;" x1="2788" x2="2788" y1="89.6094" y2="1387.9297"/><line style="stroke:#A80036;stroke-width:1.0;stroke-dasharray:5.0,5.0;" x1="2933" x2="2933" y1="89.6094" y2="1387.9297"/><line style="stroke:#A80036;stroke-width:1.0;stroke-dasharray:5.0,5.0;" x1="3062" x2="3062" y1="89.6094" y2="1387.9297"/><text fill="#000000" font-family="sans-serif" font-size="14" lengthAdjust="spacing" textLength="122" x="5" y="86.5332">Center Coordinator</text><ellipse cx="69" cy="15" fill="#FEFECE" filter="url(#f1wqzev71wznmd)" rx="8" ry="8" style="stroke:#A80036;stroke-width:2.0;"/><path d="M69,23 L69,50 M56,31 L82,31 M69,50 L56,65 M69,50 L82,65 " fill="none" filter="url(#f1wqzev71wznmd)" style="stroke:#A80036;stroke-width:2.0;"/><text fill="#000000" font-family="sans-serif" font-size="14" lengthAdjust="spacing" textLength="122" x="5" y="1401.4629">Center Coordinator</text><ellipse cx="69" cy="1414.5391" fill="#FEFECE" filter="url(#f1wqzev71wznmd)" rx="8" ry="8" style="stroke:#A80036;stroke-width:2.0;"/><path d="M69,1422.5391 L69,1449.5391 M56,1430.5391 L82,1430.5391 M69,1449.5391 L56,1464.5391 M69,1449.5391 L82,1464.5391 " fill="none" filter="url(#f1wqzev71wznmd)" style="stroke:#A80036;stroke-width:2.0;"/><rect fill="#FEFECE" filter="url(#f1wqzev71wznmd)" height="31.6094" style="stroke:#A80036;stroke-width:1.5;" width="169" x="266.5" y="53"/><text fill="#000000" font-family="sans-serif" font-size="14" lengthAdjust="spacing" textLength="155" x="273.5" y="74.5332">:ExportCenterStatisticsUI</text><rect fill="#FEFECE" filter="url(#f1wqzev71wznmd)" height="31.6094" style="stroke:#A80036;stroke-width:1.5;" width="169" x="266.5" y="1386.9297"/><text fill="#000000" font-family="sans-serif" font-size="14" lengthAdjust="spacing" textLength="155" x="273.5" y="1408.4629">:ExportCenterStatisticsUI</text><rect fill="#FEFECE" filter="url(#f1wqzev71wznmd)" height="31.6094" style="stroke:#A80036;stroke-width:1.5;" width="219" x="594" y="1386.9297"/><text fill="#000000" font-family="sans-serif" font-size="14" lengthAdjust="spacing" textLength="205" x="601" y="1408.4629">:ExportCenterStatisticsController</text><rect fill="#FEFECE" filter="url(#f1wqzev71wznmd)" height="49.2188" style="stroke:#A80036;stroke-width:1.5;" width="148" x="977.5" y="1386.9297"/><text fill="#000000" font-family="sans-serif" font-size="14" lengthAdjust="spacing" textLength="125" x="989" y="1408.4629">fullyVaccinatedData</text><text fill="#000000" font-family="sans-serif" font-size="14" lengthAdjust="spacing" textLength="134" x="984.5" y="1426.0723">:FullyVaccinatedData</text><rect fill="#FEFECE" filter="url(#f1wqzev71wznmd)" height="49.2188" style="stroke:#A80036;stroke-width:1.5;" width="157" x="1446" y="35.3906"/><text fill="#000000" font-family="sans-serif" font-size="14" lengthAdjust="spacing" textLength="137" x="1456" y="56.9238">vaccineAdministration</text><text fill="#000000" font-family="sans-serif" font-size="14" lengthAdjust="spacing" textLength="143" x="1453" y="74.5332">:VaccineAdministration</text><rect fill="#FEFECE" filter="url(#f1wqzev71wznmd)" height="49.2188" style="stroke:#A80036;stroke-width:1.5;" width="157" x="1446" y="1386.9297"/><text fill="#000000" font-family="sans-serif" font-size="14" lengthAdjust="spacing" textLength="137" x="1456" y="1408.4629">vaccineAdministration</text><text fill="#000000" font-family="sans-serif" font-size="14" lengthAdjust="spacing" textLength="143" x="1453" y="1426.0723">:VaccineAdministration</text><rect fill="#FEFECE" filter="url(#f1wqzev71wznmd)" height="49.2188" style="stroke:#A80036;stroke-width:1.5;" width="130" x="1617" y="35.3906"/><text fill="#000000" font-family="sans-serif" font-size="14" lengthAdjust="spacing" textLength="111" x="1626.5" y="56.9238">employeeSession</text><text fill="#000000" font-family="sans-serif" font-size="14" lengthAdjust="spacing" textLength="116" x="1624" y="74.5332">:EmployeeSession</text><rect fill="#FEFECE" filter="url(#f1wqzev71wznmd)" height="49.2188" style="stroke:#A80036;stroke-width:1.5;" width="130" x="1617" y="1386.9297"/><text fill="#000000" font-family="sans-serif" font-size="14" lengthAdjust="spacing" textLength="111" x="1626.5" y="1408.4629">employeeSession</text><text fill="#000000" font-family="sans-serif" font-size="14" lengthAdjust="spacing" textLength="116" x="1624" y="1426.0723">:EmployeeSession</text><rect fill="#FEFECE" filter="url(#f1wqzev71wznmd)" height="49.2188" style="stroke:#A80036;stroke-width:1.5;" width="134" x="1761" y="35.3906"/><text fill="#000000" font-family="sans-serif" font-size="14" lengthAdjust="spacing" textLength="114" x="1771" y="56.9238">vaccinationCenter</text><text fill="#000000" font-family="sans-serif" font-size="14" lengthAdjust="spacing" textLength="120" x="1768" y="74.5332">:VaccinationCenter</text><rect fill="#FEFECE" filter="url(#f1wqzev71wznmd)" height="49.2188" style="stroke:#A80036;stroke-width:1.5;" width="134" x="1761" y="1386.9297"/><text fill="#000000" font-family="sans-serif" font-size="14" lengthAdjust="spacing" textLength="114" x="1771" y="1408.4629">vaccinationCenter</text><text fill="#000000" font-family="sans-serif" font-size="14" lengthAdjust="spacing" textLength="120" x="1768" y="1426.0723">:VaccinationCenter</text><rect fill="#FEFECE" filter="url(#f1wqzev71wznmd)" height="49.2188" style="stroke:#A80036;stroke-width:1.5;" width="195" x="1909" y="35.3906"/><text fill="#000000" font-family="sans-serif" font-size="14" lengthAdjust="spacing" textLength="159" x="1927" y="56.9238">vaccineAdministrationList</text><text fill="#000000" font-family="sans-serif" font-size="14" lengthAdjust="spacing" textLength="181" x="1916" y="74.5332">:List&lt;VaccineAdministration&gt;</text><rect fill="#FEFECE" filter="url(#f1wqzev71wznmd)" height="49.2188" style="stroke:#A80036;stroke-width:1.5;" width="195" x="1909" y="1386.9297"/><text fill="#000000" font-family="sans-serif" font-size="14" lengthAdjust="spacing" textLength="159" x="1927" y="1408.4629">vaccineAdministrationList</text><text fill="#000000" font-family="sans-serif" font-size="14" lengthAdjust="spacing" textLength="181" x="1916" y="1426.0723">:List&lt;VaccineAdministration&gt;</text><rect fill="#FEFECE" filter="url(#f1wqzev71wznmd)" height="49.2188" style="stroke:#A80036;stroke-width:1.5;" width="195" x="2118" y="35.3906"/><text fill="#000000" font-family="sans-serif" font-size="14" lengthAdjust="spacing" textLength="83" x="2174" y="56.9238">vacAdminList</text><text fill="#000000" font-family="sans-serif" font-size="14" lengthAdjust="spacing" textLength="181" x="2125" y="74.5332">:List&lt;VaccineAdministration&gt;</text><rect fill="#FEFECE" filter="url(#f1wqzev71wznmd)" height="49.2188" style="stroke:#A80036;stroke-width:1.5;" width="195" x="2118" y="1386.9297"/><text fill="#000000" font-family="sans-serif" font-size="14" lengthAdjust="spacing" textLength="83" x="2174" y="1408.4629">vacAdminList</text><text fill="#000000" font-family="sans-serif" font-size="14" lengthAdjust="spacing" textLength="181" x="2125" y="1426.0723">:List&lt;VaccineAdministration&gt;</text><rect fill="#FEFECE" filter="url(#f1wqzev71wznmd)" height="49.2188" style="stroke:#A80036;stroke-width:1.5;" width="68" x="2327" y="35.3906"/><text fill="#000000" font-family="sans-serif" font-size="14" lengthAdjust="spacing" textLength="48" x="2337" y="56.9238">vaccine</text><text fill="#000000" font-family="sans-serif" font-size="14" lengthAdjust="spacing" textLength="54" x="2334" y="74.5332">:Vaccine</text><rect fill="#FEFECE" filter="url(#f1wqzev71wznmd)" height="49.2188" style="stroke:#A80036;stroke-width:1.5;" width="68" x="2327" y="1386.9297"/><text fill="#000000" font-family="sans-serif" font-size="14" lengthAdjust="spacing" textLength="48" x="2337" y="1408.4629">vaccine</text><text fill="#000000" font-family="sans-serif" font-size="14" lengthAdjust="spacing" textLength="54" x="2334" y="1426.0723">:Vaccine</text><rect fill="#FEFECE" filter="url(#f1wqzev71wznmd)" height="49.2188" style="stroke:#A80036;stroke-width:1.5;" width="122" x="2602" y="35.3906"/><text fill="#000000" font-family="sans-serif" font-size="14" lengthAdjust="spacing" textLength="108" x="2609" y="56.9238">adminProcByAge</text><text fill="#000000" font-family="sans-serif" font-size="14" lengthAdjust="spacing" textLength="94" x="2616" y="74.5332">:AdminProcess</text><rect fill="#FEFECE" filter="url(#f1wqzev71wznmd)" height="49.2188" style="stroke:#A80036;stroke-width:1.5;" width="122" x="2602" y="1386.9297"/><text fill="#000000" font-family="sans-serif" font-size="14" lengthAdjust="spacing" textLength="108" x="2609" y="1408.4629">adminProcByAge</text><text fill="#000000" font-family="sans-serif" font-size="14" lengthAdjust="spacing" textLength="94" x="2616" y="1426.0723">:AdminProcess</text><rect fill="#FEFECE" filter="url(#f1wqzev71wznmd)" height="49.2188" style="stroke:#A80036;stroke-width:1.5;" width="96" x="2738" y="35.3906"/><text fill="#000000" font-family="sans-serif" font-size="14" lengthAdjust="spacing" textLength="73" x="2749.5" y="56.9238">doseInfoLst</text><text fill="#000000" font-family="sans-serif" font-size="14" lengthAdjust="spacing" textLength="82" x="2745" y="74.5332">:DoseInfoList</text><rect fill="#FEFECE" filter="url(#f1wqzev71wznmd)" height="49.2188" style="stroke:#A80036;stroke-width:1.5;" width="96" x="2738" y="1386.9297"/><text fill="#000000" font-family="sans-serif" font-size="14" lengthAdjust="spacing" textLength="73" x="2749.5" y="1408.4629">doseInfoLst</text><text fill="#000000" font-family="sans-serif" font-size="14" lengthAdjust="spacing" textLength="82" x="2745" y="1426.0723">:DoseInfoList</text><rect fill="#FEFECE" filter="url(#f1wqzev71wznmd)" height="49.2188" style="stroke:#A80036;stroke-width:1.5;" width="167" x="2848" y="35.3906"/><text fill="#000000" font-family="sans-serif" font-size="14" lengthAdjust="spacing" textLength="55" x="2904" y="56.9238">dataMap</text><text fill="#000000" font-family="sans-serif" font-size="14" lengthAdjust="spacing" textLength="153" x="2855" y="74.5332">:Map&lt;Calendar,Integer&gt;</text><rect fill="#FEFECE" filter="url(#f1wqzev71wznmd)" height="49.2188" style="stroke:#A80036;stroke-width:1.5;" width="167" x="2848" y="1386.9297"/><text fill="#000000" font-family="sans-serif" font-size="14" lengthAdjust="spacing" textLength="55" x="2904" y="1408.4629">dataMap</text><text fill="#000000" font-family="sans-serif" font-size="14" lengthAdjust="spacing" textLength="153" x="2855" y="1426.0723">:Map&lt;Calendar,Integer&gt;</text><rect fill="#FEFECE" filter="url(#f1wqzev71wznmd)" height="31.6094" style="stroke:#A80036;stroke-width:1.5;" width="63" x="3029" y="53"/><text fill="#000000" font-family="sans-serif" font-size="14" lengthAdjust="spacing" textLength="49" x="3036" y="74.5332">FileUtils</text><rect fill="#FEFECE" filter="url(#f1wqzev71wznmd)" height="31.6094" style="stroke:#A80036;stroke-width:1.5;" width="63" x="3029" y="1386.9297"/><text fill="#000000" font-family="sans-serif" font-size="14" lengthAdjust="spacing" textLength="49" x="3036" y="1408.4629">FileUtils</text><rect fill="#FFFFFF" filter="url(#f1wqzev71wznmd)" height="1270.3203" style="stroke:#A80036;stroke-width:1.0;" width="10" x="64" y="99.6094"/><rect fill="#FFFFFF" filter="url(#f1wqzev71wznmd)" height="141.0156" style="stroke:#A80036;stroke-width:1.0;" width="10" x="348" y="121.9609"/><rect fill="#FFFFFF" filter="url(#f1wqzev71wznmd)" height="1085.6016" style="stroke:#A80036;stroke-width:1.0;" width="10" x="348" y="293.3281"/><rect fill="#FFFFFF" filter="url(#f1wqzev71wznmd)" height="90.7031" style="stroke:#A80036;stroke-width:1.0;" width="10" x="700.5" y="323.6797"/><rect fill="#FFFFFF" filter="url(#f1wqzev71wznmd)" height="830.625" style="stroke:#A80036;stroke-width:1.0;" width="10" x="700.5" y="478.6016"/><rect fill="#FFFFFF" filter="url(#f1wqzev71wznmd)" height="747.9219" style="stroke:#A80036;stroke-width:1.0;" width="10" x="1048.5" y="508.9531"/><rect fill="#FFFFFF" filter="url(#f1wqzev71wznmd)" height="410.4609" style="stroke:#A80036;stroke-width:1.0;" width="10" x="1053.5" y="658.3594"/><rect fill="#FFFFFF" filter="url(#f1wqzev71wznmd)" height="28" style="stroke:#A80036;stroke-width:1.0;" width="10" x="1053.5" y="1132.5234"/><rect fill="#FFFFFF" filter="url(#f1wqzev71wznmd)" height="30" style="stroke:#A80036;stroke-width:1.0;" width="10" x="1521.5" y="693.7109"/><rect fill="#FFFFFF" filter="url(#f1wqzev71wznmd)" height="30" style="stroke:#A80036;stroke-width:1.0;" width="10" x="1521.5" y="754.0625"/><rect fill="#FFFFFF" filter="url(#f1wqzev71wznmd)" height="30" style="stroke:#A80036;stroke-width:1.0;" width="10" x="1521.5" y="814.4141"/><rect fill="#FFFFFF" filter="url(#f1wqzev71wznmd)" height="30" style="stroke:#A80036;stroke-width:1.0;" width="10" x="1679" y="354.0313"/><rect fill="#FFFFFF" filter="url(#f1wqzev71wznmd)" height="30" style="stroke:#A80036;stroke-width:1.0;" width="10" x="1825" y="564.6563"/><rect fill="#FFFFFF" filter="url(#f1wqzev71wznmd)" height="194.0547" style="stroke:#A80036;stroke-width:1.0;" width="10" x="2358" y="874.7656"/><rect fill="#FFFFFF" filter="url(#f1wqzev71wznmd)" height="28" style="stroke:#A80036;stroke-width:1.0;" width="10" x="2363" y="913.1172"/><rect fill="#FFFFFF" filter="url(#f1wqzev71wznmd)" height="30" style="stroke:#A80036;stroke-width:1.0;" width="10" x="2660" y="978.4688"/><rect fill="#FFFFFF" filter="url(#f1wqzev71wznmd)" height="30" style="stroke:#A80036;stroke-width:1.0;" width="10" x="2783" y="1038.8203"/><rect fill="#FFFFFF" filter="url(#f1wqzev71wznmd)" height="30" style="stroke:#A80036;stroke-width:1.0;" width="10" x="2928.5" y="1211.875"/><rect fill="#FFFFFF" filter="url(#f1wqzev71wznmd)" height="30" style="stroke:#A80036;stroke-width:1.0;" width="10" x="3057.5" y="1279.2266"/><polygon fill="#A80036" points="336,117.9609,346,121.9609,336,125.9609,340,121.9609" style="stroke:#A80036;stroke-width:1.0;"/><line style="stroke:#A80036;stroke-width:1.0;" x1="74" x2="342" y1="121.9609" y2="121.9609"/><text fill="#000000" font-family="sans-serif" font-size="13" lengthAdjust="spacing" textLength="244" x="81" y="117.1045">asks to export and check center statistics</text><rect fill="#FFFFFF" filter="url(#f1wqzev71wznmd)" height="59.0547" style="stroke:#000000;stroke-width:2.0;" width="381" x="263.5" y="129.9609"/><path d="M263.5,129.9609 L325.5,129.9609 L325.5,137.9609 L315.5,147.9609 L263.5,147.9609 L263.5,129.9609 " fill="#EEEEEE" style="stroke:#000000;stroke-width:2.0;"/><text fill="#000000" font-family="sans-serif" font-size="13" font-weight="bold" lengthAdjust="spacing" textLength="17" x="276.5" y="145.4561">ref</text><text fill="#000000" font-family="sans-serif" font-size="13" font-weight="bold" lengthAdjust="spacing" textLength="122" x="269.5" y="165.4561">coordinatorSession</text><text fill="#000000" font-family="sans-serif" font-size="13" lengthAdjust="spacing" textLength="247" x="395.5" y="165.4561">is obtained through the coordinatorSession</text><text fill="#000000" font-family="sans-serif" font-size="13" lengthAdjust="spacing" textLength="205" x="269.5" y="181.8076">See here: CoordinatorLogin_SD.svg</text><polygon fill="#A80036" points="582,212.3672,592,216.3672,582,220.3672,586,216.3672" style="stroke:#A80036;stroke-width:1.0;"/><line style="stroke:#A80036;stroke-width:1.0;stroke-dasharray:2.0,2.0;" x1="358" x2="588" y1="216.3672" y2="216.3672"/><text fill="#000000" font-family="sans-serif" font-size="13" lengthAdjust="spacing" textLength="212" x="365" y="211.5107">create(company,coordinatorSession)</text><rect fill="#FEFECE" filter="url(#f1wqzev71wznmd)" height="31.6094" style="stroke:#A80036;stroke-width:1.5;" width="219" x="594" y="194.0156"/><text fill="#000000" font-family="sans-serif" font-size="14" lengthAdjust="spacing" textLength="205" x="601" y="215.5488">:ExportCenterStatisticsController</text><polygon fill="#A80036" points="85,258.9766,75,262.9766,85,266.9766,81,262.9766" style="stroke:#A80036;stroke-width:1.0;"/><line style="stroke:#A80036;stroke-width:1.0;stroke-dasharray:2.0,2.0;" x1="79" x2="352" y1="262.9766" y2="262.9766"/><text fill="#000000" font-family="sans-serif" font-size="13" lengthAdjust="spacing" textLength="250" x="91" y="258.1201">requests data (fileName,startDate,endDate)</text><polygon fill="#A80036" points="336,289.3281,346,293.3281,336,297.3281,340,293.3281" style="stroke:#A80036;stroke-width:1.0;"/><line style="stroke:#A80036;stroke-width:1.0;" x1="74" x2="342" y1="293.3281" y2="293.3281"/><text fill="#000000" font-family="sans-serif" font-size="13" lengthAdjust="spacing" textLength="122" x="81" y="288.4717">types requested data</text><polygon fill="#A80036" points="688.5,319.6797,698.5,323.6797,688.5,327.6797,692.5,323.6797" style="stroke:#A80036;stroke-width:1.0;"/><line style="stroke:#A80036;stroke-width:1.0;" x1="358" x2="694.5" y1="323.6797" y2="323.6797"/><text fill="#000000" font-family="sans-serif" font-size="13" lengthAdjust="spacing" textLength="323" x="365" y="318.8232">createFullyVaccinatedData(fileName,startDate,endDate)</text><polygon fill="#A80036" points="1667,350.0313,1677,354.0313,1667,358.0313,1671,354.0313" style="stroke:#A80036;stroke-width:1.0;"/><line style="stroke:#A80036;stroke-width:1.0;" x1="710.5" x2="1673" y1="354.0313" y2="354.0313"/><text fill="#000000" font-family="sans-serif" font-size="13" lengthAdjust="spacing" textLength="184" x="717.5" y="349.1748">center = getVaccinationCenter()</text><polygon fill="#A80036" points="965.5,410.3828,975.5,414.3828,965.5,418.3828,969.5,414.3828" style="stroke:#A80036;stroke-width:1.0;"/><line style="stroke:#A80036;stroke-width:1.0;stroke-dasharray:2.0,2.0;" x1="705.5" x2="971.5" y1="414.3828" y2="414.3828"/><text fill="#000000" font-family="sans-serif" font-size="13" lengthAdjust="spacing" textLength="243" x="712.5" y="409.5264">create(fileName,startDate,endDate,center)</text><rect fill="#FEFECE" filter="url(#f1wqzev71wznmd)" height="49.2188" style="stroke:#A80036;stroke-width:1.5;" width="148" x="977.5" y="392.0313"/><text fill="#000000" font-family="sans-serif" font-size="14" lengthAdjust="spacing" textLength="125" x="989" y="413.5645">fullyVaccinatedData</text><text fill="#000000" font-family="sans-serif" font-size="14" lengthAdjust="spacing" textLength="134" x="984.5" y="431.1738">:FullyVaccinatedData</text><polygon fill="#A80036" points="688.5,474.6016,698.5,478.6016,688.5,482.6016,692.5,478.6016" style="stroke:#A80036;stroke-width:1.0;"/><line style="stroke:#A80036;stroke-width:1.0;" x1="358" x2="694.5" y1="478.6016" y2="478.6016"/><text fill="#000000" font-family="sans-serif" font-size="13" lengthAdjust="spacing" textLength="212" x="365" y="473.7451">generateFullyVaccinatedUsersData()</text><polygon fill="#A80036" points="1036.5,504.9531,1046.5,508.9531,1036.5,512.9531,1040.5,508.9531" style="stroke:#A80036;stroke-width:1.0;"/><line style="stroke:#A80036;stroke-width:1.0;" x1="710.5" x2="1042.5" y1="508.9531" y2="508.9531"/><text fill="#000000" font-family="sans-serif" font-size="13" lengthAdjust="spacing" textLength="221" x="717.5" y="504.0967">getFullyVaccinatedUsersPerDayMap()</text><path d="M947.5,523.9531 L1020.5,523.9531 L1020.5,531.9531 L1010.5,541.9531 L947.5,541.9531 L947.5,523.9531 " fill="#EEEEEE" style="stroke:#000000;stroke-width:1.0;"/><rect fill="none" height="725.9219" style="stroke:#000000;stroke-width:2.0;" width="2081.5" x="947.5" y="523.9531"/><text fill="#000000" font-family="sans-serif" font-size="13" font-weight="bold" lengthAdjust="spacing" textLength="28" x="962.5" y="538.4482">loop</text><text fill="#000000" font-family="sans-serif" font-size="11" font-weight="bold" lengthAdjust="spacing" textLength="302" x="1035.5" y="537.3721">[for each day between startDate and endDate selected]</text><polygon fill="#A80036" points="1813,560.6563,1823,564.6563,1813,568.6563,1817,564.6563" style="stroke:#A80036;stroke-width:1.0;"/><line style="stroke:#A80036;stroke-width:1.0;" x1="1058.5" x2="1819" y1="564.6563" y2="564.6563"/><text fill="#000000" font-family="sans-serif" font-size="13" lengthAdjust="spacing" textLength="244" x="1065.5" y="559.7998">vacAdminList = getVacAdminDayList(day)</text><path d="M957.5,609.6563 L1030.5,609.6563 L1030.5,617.6563 L1020.5,627.6563 L957.5,627.6563 L957.5,609.6563 " fill="#EEEEEE" style="stroke:#000000;stroke-width:1.0;"/><rect fill="none" height="572.8672" style="stroke:#000000;stroke-width:2.0;" width="1890.5" x="957.5" y="609.6563"/><text fill="#000000" font-family="sans-serif" font-size="13" font-weight="bold" lengthAdjust="spacing" textLength="28" x="972.5" y="624.1514">loop</text><text fill="#000000" font-family="sans-serif" font-size="11" font-weight="bold" lengthAdjust="spacing" textLength="339" x="1045.5" y="623.0752">[for each vaccineAdministration in vaccineAdministrationList]</text><line style="stroke:#A80036;stroke-width:1.0;" x1="1058.5" x2="1105.5" y1="645.3594" y2="645.3594"/><line style="stroke:#A80036;stroke-width:1.0;" x1="1105.5" x2="1105.5" y1="645.3594" y2="658.3594"/><line style="stroke:#A80036;stroke-width:1.0;" x1="1064.5" x2="1105.5" y1="658.3594" y2="658.3594"/><polygon fill="#A80036" points="1074.5,654.3594,1064.5,658.3594,1074.5,662.3594,1070.5,658.3594" style="stroke:#A80036;stroke-width:1.0;"/><text fill="#000000" font-family="sans-serif" font-size="13" lengthAdjust="spacing" textLength="449" x="1070.5" y="640.5029">fullyVaccinated = checkUserFullyVaccinated(vacAdminList,vacAdminNumber)</text><polygon fill="#A80036" points="1509.5,689.7109,1519.5,693.7109,1509.5,697.7109,1513.5,693.7109" style="stroke:#A80036;stroke-width:1.0;"/><line style="stroke:#A80036;stroke-width:1.0;" x1="1063.5" x2="1515.5" y1="693.7109" y2="693.7109"/><text fill="#000000" font-family="sans-serif" font-size="13" lengthAdjust="spacing" textLength="190" x="1070.5" y="688.8545">snsUserAge = getSNSUserAge()</text><polygon fill="#A80036" points="1509.5,750.0625,1519.5,754.0625,1509.5,758.0625,1513.5,754.0625" style="stroke:#A80036;stroke-width:1.0;"/><line style="stroke:#A80036;stroke-width:1.0;" x1="1063.5" x2="1515.5" y1="754.0625" y2="754.0625"/><text fill="#000000" font-family="sans-serif" font-size="13" lengthAdjust="spacing" textLength="132" x="1070.5" y="749.2061">vaccine = getVaccine()</text><polygon fill="#A80036" points="1509.5,810.4141,1519.5,814.4141,1509.5,818.4141,1513.5,814.4141" style="stroke:#A80036;stroke-width:1.0;"/><line style="stroke:#A80036;stroke-width:1.0;" x1="1063.5" x2="1515.5" y1="814.4141" y2="814.4141"/><text fill="#000000" font-family="sans-serif" font-size="13" lengthAdjust="spacing" textLength="100" x="1070.5" y="809.5576">dose = getDose()</text><polygon fill="#A80036" points="2346,870.7656,2356,874.7656,2346,878.7656,2350,874.7656" style="stroke:#A80036;stroke-width:1.0;"/><line style="stroke:#A80036;stroke-width:1.0;" x1="1063.5" x2="2352" y1="874.7656" y2="874.7656"/><text fill="#000000" font-family="sans-serif" font-size="13" lengthAdjust="spacing" textLength="374" x="1070.5" y="869.9092">fullyVaccinated =  checkUserFullyVaccinated(snsUserAge,dose)</text><line style="stroke:#A80036;stroke-width:1.0;" x1="2373" x2="2415" y1="905.1172" y2="905.1172"/><line style="stroke:#A80036;stroke-width:1.0;" x1="2415" x2="2415" y1="905.1172" y2="918.1172"/><line style="stroke:#A80036;stroke-width:1.0;" x1="2374" x2="2415" y1="918.1172" y2="918.1172"/><polygon fill="#A80036" points="2384,914.1172,2374,918.1172,2384,922.1172,2380,918.1172" style="stroke:#A80036;stroke-width:1.0;"/><text fill="#000000" font-family="sans-serif" font-size="13" lengthAdjust="spacing" textLength="278" x="2380" y="900.2607">adminProcByAge = getAdminProc(snsUserAge)</text><polygon fill="#A80036" points="2648,974.4688,2658,978.4688,2648,982.4688,2652,978.4688" style="stroke:#A80036;stroke-width:1.0;"/><line style="stroke:#A80036;stroke-width:1.0;" x1="2368" x2="2654" y1="978.4688" y2="978.4688"/><text fill="#000000" font-family="sans-serif" font-size="13" lengthAdjust="spacing" textLength="179" x="2375" y="973.6123">doseInfoLst = getDoseInfoList()</text><polygon fill="#A80036" points="2771,1034.8203,2781,1038.8203,2771,1042.8203,2775,1038.8203" style="stroke:#A80036;stroke-width:1.0;"/><line style="stroke:#A80036;stroke-width:1.0;" x1="2368" x2="2777" y1="1038.8203" y2="1038.8203"/><text fill="#000000" font-family="sans-serif" font-size="13" lengthAdjust="spacing" textLength="92" x="2375" y="1033.9639">size = getSize()</text><path d="M967.5,1083.8203 L1032.5,1083.8203 L1032.5,1091.8203 L1022.5,1101.8203 L967.5,1101.8203 L967.5,1083.8203 " fill="#EEEEEE" style="stroke:#000000;stroke-width:1.0;"/><rect fill="none" height="91.7031" style="stroke:#000000;stroke-width:2.0;" width="259" x="967.5" y="1083.8203"/><text fill="#000000" font-family="sans-serif" font-size="13" font-weight="bold" lengthAdjust="spacing" textLength="20" x="982.5" y="1098.3154">opt</text><text fill="#000000" font-family="sans-serif" font-size="11" font-weight="bold" lengthAdjust="spacing" textLength="132" x="1047.5" y="1097.2393">[fullyVaccinated == true]</text><line style="stroke:#A80036;stroke-width:1.0;" x1="1063.5" x2="1105.5" y1="1124.5234" y2="1124.5234"/><line style="stroke:#A80036;stroke-width:1.0;" x1="1105.5" x2="1105.5" y1="1124.5234" y2="1137.5234"/><line style="stroke:#A80036;stroke-width:1.0;" x1="1064.5" x2="1105.5" y1="1137.5234" y2="1137.5234"/><polygon fill="#A80036" points="1074.5,1133.5234,1064.5,1137.5234,1074.5,1141.5234,1070.5,1137.5234" style="stroke:#A80036;stroke-width:1.0;"/><text fill="#000000" font-family="sans-serif" font-size="13" lengthAdjust="spacing" textLength="144" x="1070.5" y="1119.667">nOfFullyVaccinated += 1</text><polygon fill="#A80036" points="2916.5,1207.875,2926.5,1211.875,2916.5,1215.875,2920.5,1211.875" style="stroke:#A80036;stroke-width:1.0;"/><line style="stroke:#A80036;stroke-width:1.0;" x1="1058.5" x2="2922.5" y1="1211.875" y2="1211.875"/><text fill="#000000" font-family="sans-serif" font-size="13" lengthAdjust="spacing" textLength="168" x="1065.5" y="1207.0186">put(day, nOfFullyVaccinated)</text><polygon fill="#A80036" points="3045.5,1275.2266,3055.5,1279.2266,3045.5,1283.2266,3049.5,1279.2266" style="stroke:#A80036;stroke-width:1.0;"/><line style="stroke:#A80036;stroke-width:1.0;" x1="710.5" x2="3051.5" y1="1279.2266" y2="1279.2266"/><text fill="#000000" font-family="sans-serif" font-size="13" lengthAdjust="spacing" textLength="111" x="717.5" y="1274.3701">saveData(fileName)</text><polygon fill="#A80036" points="85,1335.5781,75,1339.5781,85,1343.5781,81,1339.5781" style="stroke:#A80036;stroke-width:1.0;"/><line style="stroke:#A80036;stroke-width:1.0;stroke-dasharray:2.0,2.0;" x1="79" x2="347" y1="1339.5781" y2="1339.5781"/><text fill="#000000" font-family="sans-serif" font-size="13" lengthAdjust="spacing" textLength="152" x="91" y="1334.7217">informs operation success</text><polygon fill="#A80036" points="80,1365.9297,70,1369.9297,80,1373.9297,76,1369.9297" style="stroke:#A80036;stroke-width:1.0;"/><line style="stroke:#A80036;stroke-width:1.0;stroke-dasharray:2.0,2.0;" x1="74" x2="347" y1="1369.9297" y2="1369.9297"/><text fill="#000000" font-family="sans-serif" font-size="13" lengthAdjust="spacing" textLength="134" x="86" y="1365.0732">shows center statistics</text><!--MD5=[b3ce453ac01a3e397b9453575d10256d]
@startuml US15_SD

actor "Center Coordinator" as COORDINATOR

participant ":ExportCenterStatisticsUI" as UI
participant ":ExportCenterStatisticsController" as CTRL
participant "fullyVaccinatedData\n:FullyVaccinatedData" as FULLYDATA
participant "vaccineAdministration\n:VaccineAdministration" as VACADMIN
participant "employeeSession\n:EmployeeSession" as EMPLOYEESESSION
participant "vaccinationCenter\n:VaccinationCenter" as CENTER
participant "vaccineAdministrationList\n:List<VaccineAdministration>" as VACADMINLIST
participant "vacAdminList\n:List<VaccineAdministration>" as VACDAYLIST
participant "vaccine\n:Vaccine" as VACCINE
participant "adminProcByAge\n:AdminProcess" as ADMINPROC
participant "doseInfoLst\n:DoseInfoList" as DI_LIST
participant "dataMap\n:Map<Calendar,Integer>" as MAP
participant "FileUtils" as FILEUTILS


activate COORDINATOR
COORDINATOR -> UI : asks to export and check center statistics
activate UI

ref over UI 
**coordinatorSession** is obtained through the coordinatorSession
See here: CoordinatorLogin_SD.svg
end ref

UI - -> CTRL** : create(company,coordinatorSession)

UI - -> COORDINATOR : requests data (fileName,startDate,endDate)
deactivate UI

COORDINATOR -> UI : types requested data
activate UI

UI -> CTRL : createFullyVaccinatedData(fileName,startDate,endDate)
activate CTRL

CTRL -> EMPLOYEESESSION : center = getVaccinationCenter()
activate EMPLOYEESESSION
deactivate EMPLOYEESESSION

CTRL - -> FULLYDATA** : create(fileName,startDate,endDate,center)
deactivate CTRL

UI -> CTRL : generateFullyVaccinatedUsersData()
activate CTRL

CTRL -> FULLYDATA : getFullyVaccinatedUsersPerDayMap()
loop for each day between startDate and endDate selected
activate FULLYDATA

FULLYDATA -> CENTER : vacAdminList = getVacAdminDayList(day)
activate CENTER
deactivate CENTER

loop for each vaccineAdministration in vaccineAdministrationList

FULLYDATA -> FULLYDATA : fullyVaccinated = checkUserFullyVaccinated(vacAdminList,vacAdminNumber)
activate FULLYDATA

FULLYDATA -> VACADMIN :  snsUserAge = getSNSUserAge()
activate VACADMIN
deactivate VACADMIN

FULLYDATA -> VACADMIN : vaccine = getVaccine()
activate VACADMIN
deactivate VACADMIN

FULLYDATA -> VACADMIN : dose = getDose()
activate VACADMIN
deactivate VACADMIN

FULLYDATA -> VACCINE : fullyVaccinated =  checkUserFullyVaccinated(snsUserAge,dose)
activate VACCINE

VACCINE -> VACCINE : adminProcByAge = getAdminProc(snsUserAge)
activate VACCINE
deactivate VACCINE

VACCINE -> ADMINPROC : doseInfoLst = getDoseInfoList()
activate ADMINPROC
deactivate ADMINPROC

VACCINE -> DI_LIST : size = getSize()
activate DI_LIST
deactivate DI_LIST
deactivate VACCINE
deactivate FULLYDATA

opt fullyVaccinated == true
FULLYDATA -> FULLYDATA : nOfFullyVaccinated += 1
activate FULLYDATA
deactivate FULLYDATA
end
end

FULLYDATA -> MAP : put(day, nOfFullyVaccinated)
activate MAP
deactivate MAP

end

deactivate FULLYDATA

CTRL -> FILEUTILS : saveData(fileName)
activate FILEUTILS
deactivate FILEUTILS
deactivate CTRL

UI - -> COORDINATOR : informs operation success
UI - -> COORDINATOR : shows center statistics

deactivate COORDINATOR 

@enduml

PlantUML version 1.2022.0(Tue Jan 11 16:16:42 WET 2022)
(GPL source distribution)
Java Runtime: Java(TM) SE Runtime Environment
JVM: Java HotSpot(TM) 64-Bit Server VM
Default Encoding: Cp1252
Language: pt
Country: PT
--></g></svg>