<?xml version="1.0" encoding="UTF-8" standalone="no"?><svg xmlns="http://www.w3.org/2000/svg" xmlns:xlink="http://www.w3.org/1999/xlink" contentScriptType="application/ecmascript" contentStyleType="text/css" height="1722px" preserveAspectRatio="none" style="width:2863px;height:1722px;background:#FFFFFF;" version="1.1" viewBox="0 0 2863 1722" width="2863px" zoomAndPan="magnify"><defs><filter height="300%" id="fz8pbqf6uh25q" width="300%" x="-1" y="-1"><feGaussianBlur result="blurOut" stdDeviation="2.0"/><feColorMatrix in="blurOut" result="blurOut2" type="matrix" values="0 0 0 0 0 0 0 0 0 0 0 0 0 0 0 0 0 0 .4 0"/><feOffset dx="4.0" dy="4.0" in="blurOut2" result="blurOut3"/><feBlend in="SourceGraphic" in2="blurOut3" mode="normal"/></filter></defs><g><rect fill="#FFFFFF" filter="url(#fz8pbqf6uh25q)" height="1519.2969" style="stroke:#A80036;stroke-width:1.0;" width="10" x="64" y="99.6094"/><rect fill="#FFFFFF" filter="url(#fz8pbqf6uh25q)" height="201.3672" style="stroke:#A80036;stroke-width:1.0;" width="10" x="341" y="121.9609"/><rect fill="#FFFFFF" filter="url(#fz8pbqf6uh25q)" height="1274.2266" style="stroke:#A80036;stroke-width:1.0;" width="10" x="341" y="353.6797"/><rect fill="#FFFFFF" filter="url(#fz8pbqf6uh25q)" height="30" style="stroke:#A80036;stroke-width:1.0;" width="10" x="557" y="152.3125"/><rect fill="#FFFFFF" filter="url(#fz8pbqf6uh25q)" height="755.1406" style="stroke:#A80036;stroke-width:1.0;" width="10" x="702" y="384.0313"/><rect fill="#FFFFFF" filter="url(#fz8pbqf6uh25q)" height="1096.8203" style="stroke:#A80036;stroke-width:1.0;" width="10" x="1115.5" y="484.7344"/><rect fill="#FFFFFF" filter="url(#fz8pbqf6uh25q)" height="30" style="stroke:#A80036;stroke-width:1.0;" width="10" x="1334.5" y="706.7109"/><rect fill="#FFFFFF" filter="url(#fz8pbqf6uh25q)" height="30" style="stroke:#A80036;stroke-width:1.0;" width="10" x="1334.5" y="767.0625"/><rect fill="#FFFFFF" filter="url(#fz8pbqf6uh25q)" height="30" style="stroke:#A80036;stroke-width:1.0;" width="10" x="1334.5" y="887.7656"/><rect fill="#FFFFFF" filter="url(#fz8pbqf6uh25q)" height="30" style="stroke:#A80036;stroke-width:1.0;" width="10" x="1614" y="414.3828"/><rect fill="#FFFFFF" filter="url(#fz8pbqf6uh25q)" height="30" style="stroke:#A80036;stroke-width:1.0;" width="10" x="1760" y="621.0078"/><rect fill="#FFFFFF" filter="url(#fz8pbqf6uh25q)" height="30" style="stroke:#A80036;stroke-width:1.0;" width="10" x="2296" y="827.4141"/><rect fill="#FFFFFF" filter="url(#fz8pbqf6uh25q)" height="30" style="stroke:#A80036;stroke-width:1.0;" width="10" x="2296" y="948.1172"/><rect fill="#FFFFFF" filter="url(#fz8pbqf6uh25q)" height="30" style="stroke:#A80036;stroke-width:1.0;" width="10" x="2296" y="1008.4688"/><rect fill="#FFFFFF" filter="url(#fz8pbqf6uh25q)" height="30" style="stroke:#A80036;stroke-width:1.0;" width="10" x="2417" y="1094.1719"/><rect fill="#FFFFFF" filter="url(#fz8pbqf6uh25q)" height="433.3828" style="stroke:#A80036;stroke-width:1.0;" width="10" x="2551.5" y="1185.5234"/><rect fill="#FFFFFF" filter="url(#fz8pbqf6uh25q)" height="28" style="stroke:#A80036;stroke-width:1.0;" width="10" x="2556.5" y="1459.8516"/><rect fill="#FFFFFF" filter="url(#fz8pbqf6uh25q)" height="622.5703" style="stroke:#000000;stroke-width:2.0;" width="1636" x="891" y="523.6016"/><rect fill="#FFFFFF" filter="url(#fz8pbqf6uh25q)" height="473.1641" style="stroke:#000000;stroke-width:2.0;" width="1481" x="1036" y="666.0078"/><rect fill="#FFFFFF" filter="url(#fz8pbqf6uh25q)" height="78.7031" style="stroke:#000000;stroke-width:2.0;" width="1461" x="1046" y="1053.4688"/><rect fill="#FFFFFF" filter="url(#fz8pbqf6uh25q)" height="135.0547" style="stroke:#000000;stroke-width:2.0;" width="352.5" x="2497" y="1367.7969"/><line style="stroke:#A80036;stroke-width:1.0;stroke-dasharray:5.0,5.0;" x1="69" x2="69" y1="89.6094" y2="1636.9063"/><line style="stroke:#A80036;stroke-width:1.0;stroke-dasharray:5.0,5.0;" x1="345.5" x2="345.5" y1="89.6094" y2="1636.9063"/><line style="stroke:#A80036;stroke-width:1.0;stroke-dasharray:5.0,5.0;" x1="561.5" x2="561.5" y1="89.6094" y2="1636.9063"/><line style="stroke:#A80036;stroke-width:1.0;stroke-dasharray:5.0,5.0;" x1="706.5" x2="706.5" y1="287.6719" y2="1636.9063"/><line style="stroke:#A80036;stroke-width:1.0;stroke-dasharray:5.0,5.0;" x1="869.5" x2="869.5" y1="89.6094" y2="1636.9063"/><line style="stroke:#A80036;stroke-width:1.0;stroke-dasharray:5.0,5.0;" x1="1120" x2="1120" y1="494.4922" y2="1636.9063"/><line style="stroke:#A80036;stroke-width:1.0;stroke-dasharray:5.0,5.0;" x1="1339" x2="1339" y1="89.6094" y2="1636.9063"/><line style="stroke:#A80036;stroke-width:1.0;stroke-dasharray:5.0,5.0;" x1="1486" x2="1486" y1="89.6094" y2="1636.9063"/><line style="stroke:#A80036;stroke-width:1.0;stroke-dasharray:5.0,5.0;" x1="1619" x2="1619" y1="89.6094" y2="1636.9063"/><line style="stroke:#A80036;stroke-width:1.0;stroke-dasharray:5.0,5.0;" x1="1765" x2="1765" y1="89.6094" y2="1636.9063"/><line style="stroke:#A80036;stroke-width:1.0;stroke-dasharray:5.0,5.0;" x1="1943" x2="1943" y1="89.6094" y2="1636.9063"/><line style="stroke:#A80036;stroke-width:1.0;stroke-dasharray:5.0,5.0;" x1="2154" x2="2154" y1="89.6094" y2="1636.9063"/><line style="stroke:#A80036;stroke-width:1.0;stroke-dasharray:5.0,5.0;" x1="2301" x2="2301" y1="89.6094" y2="1636.9063"/><line style="stroke:#A80036;stroke-width:1.0;stroke-dasharray:5.0,5.0;" x1="2422" x2="2422" y1="89.6094" y2="1636.9063"/><line style="stroke:#A80036;stroke-width:1.0;stroke-dasharray:5.0,5.0;" x1="2556" x2="2556" y1="1195.2813" y2="1636.9063"/><text fill="#000000" font-family="sans-serif" font-size="14" lengthAdjust="spacing" textLength="122" x="5" y="86.5332">Center Coordinator</text><ellipse cx="69" cy="15" fill="#FEFECE" filter="url(#fz8pbqf6uh25q)" rx="8" ry="8" style="stroke:#A80036;stroke-width:2.0;"/><path d="M69,23 L69,50 M56,31 L82,31 M69,50 L56,65 M69,50 L82,65 " fill="none" filter="url(#fz8pbqf6uh25q)" style="stroke:#A80036;stroke-width:2.0;"/><text fill="#000000" font-family="sans-serif" font-size="14" lengthAdjust="spacing" textLength="122" x="5" y="1650.4395">Center Coordinator</text><ellipse cx="69" cy="1663.5156" fill="#FEFECE" filter="url(#fz8pbqf6uh25q)" rx="8" ry="8" style="stroke:#A80036;stroke-width:2.0;"/><path d="M69,1671.5156 L69,1698.5156 M56,1679.5156 L82,1679.5156 M69,1698.5156 L56,1713.5156 M69,1698.5156 L82,1713.5156 " fill="none" filter="url(#fz8pbqf6uh25q)" style="stroke:#A80036;stroke-width:2.0;"/><rect fill="#FEFECE" filter="url(#fz8pbqf6uh25q)" height="31.6094" style="stroke:#A80036;stroke-width:1.5;" width="169" x="259.5" y="53"/><text fill="#000000" font-family="sans-serif" font-size="14" lengthAdjust="spacing" textLength="155" x="266.5" y="74.5332">:ExportCenterStatisticsUI</text><rect fill="#FEFECE" filter="url(#fz8pbqf6uh25q)" height="31.6094" style="stroke:#A80036;stroke-width:1.5;" width="169" x="259.5" y="1635.9063"/><text fill="#000000" font-family="sans-serif" font-size="14" lengthAdjust="spacing" textLength="155" x="266.5" y="1657.4395">:ExportCenterStatisticsUI</text><rect fill="#FEFECE" filter="url(#fz8pbqf6uh25q)" height="31.6094" style="stroke:#A80036;stroke-width:1.5;" width="43" x="538.5" y="53"/><text fill="#000000" font-family="sans-serif" font-size="14" lengthAdjust="spacing" textLength="29" x="545.5" y="74.5332">:App</text><rect fill="#FEFECE" filter="url(#fz8pbqf6uh25q)" height="31.6094" style="stroke:#A80036;stroke-width:1.5;" width="43" x="538.5" y="1635.9063"/><text fill="#000000" font-family="sans-serif" font-size="14" lengthAdjust="spacing" textLength="29" x="545.5" y="1657.4395">:App</text><rect fill="#FEFECE" filter="url(#fz8pbqf6uh25q)" height="31.6094" style="stroke:#A80036;stroke-width:1.5;" width="219" x="595.5" y="1635.9063"/><text fill="#000000" font-family="sans-serif" font-size="14" lengthAdjust="spacing" textLength="205" x="602.5" y="1657.4395">:ExportCenterStatisticsController</text><rect fill="#FEFECE" filter="url(#fz8pbqf6uh25q)" height="31.6094" style="stroke:#A80036;stroke-width:1.5;" width="78" x="828.5" y="53"/><text fill="#000000" font-family="sans-serif" font-size="14" lengthAdjust="spacing" textLength="64" x="835.5" y="74.5332">:Company</text><rect fill="#FEFECE" filter="url(#fz8pbqf6uh25q)" height="31.6094" style="stroke:#A80036;stroke-width:1.5;" width="78" x="828.5" y="1635.9063"/><text fill="#000000" font-family="sans-serif" font-size="14" lengthAdjust="spacing" textLength="64" x="835.5" y="1657.4395">:Company</text><rect fill="#FEFECE" filter="url(#fz8pbqf6uh25q)" height="49.2188" style="stroke:#A80036;stroke-width:1.5;" width="125" x="1056" y="1635.9063"/><text fill="#000000" font-family="sans-serif" font-size="14" lengthAdjust="spacing" textLength="73" x="1082" y="1657.4395">csvexporter</text><text fill="#000000" font-family="sans-serif" font-size="14" lengthAdjust="spacing" textLength="111" x="1063" y="1675.0488">:CsvExporterData</text><rect fill="#FEFECE" filter="url(#fz8pbqf6uh25q)" height="49.2188" style="stroke:#A80036;stroke-width:1.5;" width="157" x="1259" y="35.3906"/><text fill="#000000" font-family="sans-serif" font-size="14" lengthAdjust="spacing" textLength="137" x="1269" y="56.9238">vaccineAdministration</text><text fill="#000000" font-family="sans-serif" font-size="14" lengthAdjust="spacing" textLength="143" x="1266" y="74.5332">:VaccineAdministration</text><rect fill="#FEFECE" filter="url(#fz8pbqf6uh25q)" height="49.2188" style="stroke:#A80036;stroke-width:1.5;" width="157" x="1259" y="1635.9063"/><text fill="#000000" font-family="sans-serif" font-size="14" lengthAdjust="spacing" textLength="137" x="1269" y="1657.4395">vaccineAdministration</text><text fill="#000000" font-family="sans-serif" font-size="14" lengthAdjust="spacing" textLength="143" x="1266" y="1675.0488">:VaccineAdministration</text><rect fill="#FEFECE" filter="url(#fz8pbqf6uh25q)" height="49.2188" style="stroke:#A80036;stroke-width:1.5;" width="108" x="1430" y="35.3906"/><text fill="#000000" font-family="sans-serif" font-size="14" lengthAdjust="spacing" textLength="89" x="1439.5" y="56.9238">adminProcess</text><text fill="#000000" font-family="sans-serif" font-size="14" lengthAdjust="spacing" textLength="94" x="1437" y="74.5332">:AdminProcess</text><rect fill="#FEFECE" filter="url(#fz8pbqf6uh25q)" height="49.2188" style="stroke:#A80036;stroke-width:1.5;" width="108" x="1430" y="1635.9063"/><text fill="#000000" font-family="sans-serif" font-size="14" lengthAdjust="spacing" textLength="89" x="1439.5" y="1657.4395">adminProcess</text><text fill="#000000" font-family="sans-serif" font-size="14" lengthAdjust="spacing" textLength="94" x="1437" y="1675.0488">:AdminProcess</text><rect fill="#FEFECE" filter="url(#fz8pbqf6uh25q)" height="49.2188" style="stroke:#A80036;stroke-width:1.5;" width="130" x="1552" y="35.3906"/><text fill="#000000" font-family="sans-serif" font-size="14" lengthAdjust="spacing" textLength="111" x="1561.5" y="56.9238">employeeSession</text><text fill="#000000" font-family="sans-serif" font-size="14" lengthAdjust="spacing" textLength="116" x="1559" y="74.5332">:EmployeeSession</text><rect fill="#FEFECE" filter="url(#fz8pbqf6uh25q)" height="49.2188" style="stroke:#A80036;stroke-width:1.5;" width="130" x="1552" y="1635.9063"/><text fill="#000000" font-family="sans-serif" font-size="14" lengthAdjust="spacing" textLength="111" x="1561.5" y="1657.4395">employeeSession</text><text fill="#000000" font-family="sans-serif" font-size="14" lengthAdjust="spacing" textLength="116" x="1559" y="1675.0488">:EmployeeSession</text><rect fill="#FEFECE" filter="url(#fz8pbqf6uh25q)" height="49.2188" style="stroke:#A80036;stroke-width:1.5;" width="134" x="1696" y="35.3906"/><text fill="#000000" font-family="sans-serif" font-size="14" lengthAdjust="spacing" textLength="114" x="1706" y="56.9238">vaccinationCenter</text><text fill="#000000" font-family="sans-serif" font-size="14" lengthAdjust="spacing" textLength="120" x="1703" y="74.5332">:VaccinationCenter</text><rect fill="#FEFECE" filter="url(#fz8pbqf6uh25q)" height="49.2188" style="stroke:#A80036;stroke-width:1.5;" width="134" x="1696" y="1635.9063"/><text fill="#000000" font-family="sans-serif" font-size="14" lengthAdjust="spacing" textLength="114" x="1706" y="1657.4395">vaccinationCenter</text><text fill="#000000" font-family="sans-serif" font-size="14" lengthAdjust="spacing" textLength="120" x="1703" y="1675.0488">:VaccinationCenter</text><rect fill="#FEFECE" filter="url(#fz8pbqf6uh25q)" height="49.2188" style="stroke:#A80036;stroke-width:1.5;" width="195" x="1844" y="35.3906"/><text fill="#000000" font-family="sans-serif" font-size="14" lengthAdjust="spacing" textLength="159" x="1862" y="56.9238">vaccineAdministrationList</text><text fill="#000000" font-family="sans-serif" font-size="14" lengthAdjust="spacing" textLength="181" x="1851" y="74.5332">:List&lt;VaccineAdministration&gt;</text><rect fill="#FEFECE" filter="url(#fz8pbqf6uh25q)" height="49.2188" style="stroke:#A80036;stroke-width:1.5;" width="195" x="1844" y="1635.9063"/><text fill="#000000" font-family="sans-serif" font-size="14" lengthAdjust="spacing" textLength="159" x="1862" y="1657.4395">vaccineAdministrationList</text><text fill="#000000" font-family="sans-serif" font-size="14" lengthAdjust="spacing" textLength="181" x="1851" y="1675.0488">:List&lt;VaccineAdministration&gt;</text><rect fill="#FEFECE" filter="url(#fz8pbqf6uh25q)" height="49.2188" style="stroke:#A80036;stroke-width:1.5;" width="198" x="2053" y="35.3906"/><text fill="#000000" font-family="sans-serif" font-size="14" lengthAdjust="spacing" textLength="184" x="2060" y="56.9238">vaccineAdministrationDayList</text><text fill="#000000" font-family="sans-serif" font-size="14" lengthAdjust="spacing" textLength="181" x="2061.5" y="74.5332">:List&lt;VaccineAdministration&gt;</text><rect fill="#FEFECE" filter="url(#fz8pbqf6uh25q)" height="49.2188" style="stroke:#A80036;stroke-width:1.5;" width="198" x="2053" y="1635.9063"/><text fill="#000000" font-family="sans-serif" font-size="14" lengthAdjust="spacing" textLength="184" x="2060" y="1657.4395">vaccineAdministrationDayList</text><text fill="#000000" font-family="sans-serif" font-size="14" lengthAdjust="spacing" textLength="181" x="2061.5" y="1675.0488">:List&lt;VaccineAdministration&gt;</text><rect fill="#FEFECE" filter="url(#fz8pbqf6uh25q)" height="49.2188" style="stroke:#A80036;stroke-width:1.5;" width="68" x="2265" y="35.3906"/><text fill="#000000" font-family="sans-serif" font-size="14" lengthAdjust="spacing" textLength="48" x="2275" y="56.9238">vaccine</text><text fill="#000000" font-family="sans-serif" font-size="14" lengthAdjust="spacing" textLength="54" x="2272" y="74.5332">:Vaccine</text><rect fill="#FEFECE" filter="url(#fz8pbqf6uh25q)" height="49.2188" style="stroke:#A80036;stroke-width:1.5;" width="68" x="2265" y="1635.9063"/><text fill="#000000" font-family="sans-serif" font-size="14" lengthAdjust="spacing" textLength="48" x="2275" y="1657.4395">vaccine</text><text fill="#000000" font-family="sans-serif" font-size="14" lengthAdjust="spacing" textLength="54" x="2272" y="1675.0488">:Vaccine</text><rect fill="#FEFECE" filter="url(#fz8pbqf6uh25q)" height="49.2188" style="stroke:#A80036;stroke-width:1.5;" width="146" x="2347" y="35.3906"/><text fill="#000000" font-family="sans-serif" font-size="14" lengthAdjust="spacing" textLength="27" x="2406.5" y="56.9238">map</text><text fill="#000000" font-family="sans-serif" font-size="14" lengthAdjust="spacing" textLength="132" x="2354" y="74.5332">:Map&lt;String,Integer&gt;</text><rect fill="#FEFECE" filter="url(#fz8pbqf6uh25q)" height="49.2188" style="stroke:#A80036;stroke-width:1.5;" width="146" x="2347" y="1635.9063"/><text fill="#000000" font-family="sans-serif" font-size="14" lengthAdjust="spacing" textLength="27" x="2406.5" y="1657.4395">map</text><text fill="#000000" font-family="sans-serif" font-size="14" lengthAdjust="spacing" textLength="132" x="2354" y="1675.0488">:Map&lt;String,Integer&gt;</text><rect fill="#FEFECE" filter="url(#fz8pbqf6uh25q)" height="49.2188" style="stroke:#A80036;stroke-width:1.5;" width="95" x="2507" y="1635.9063"/><text fill="#000000" font-family="sans-serif" font-size="14" lengthAdjust="spacing" textLength="73" x="2518" y="1657.4395">csvexporter</text><text fill="#000000" font-family="sans-serif" font-size="14" lengthAdjust="spacing" textLength="81" x="2514" y="1675.0488">:CsvExporter</text><rect fill="#FFFFFF" filter="url(#fz8pbqf6uh25q)" height="1519.2969" style="stroke:#A80036;stroke-width:1.0;" width="10" x="64" y="99.6094"/><rect fill="#FFFFFF" filter="url(#fz8pbqf6uh25q)" height="201.3672" style="stroke:#A80036;stroke-width:1.0;" width="10" x="341" y="121.9609"/><rect fill="#FFFFFF" filter="url(#fz8pbqf6uh25q)" height="1274.2266" style="stroke:#A80036;stroke-width:1.0;" width="10" x="341" y="353.6797"/><rect fill="#FFFFFF" filter="url(#fz8pbqf6uh25q)" height="30" style="stroke:#A80036;stroke-width:1.0;" width="10" x="557" y="152.3125"/><rect fill="#FFFFFF" filter="url(#fz8pbqf6uh25q)" height="755.1406" style="stroke:#A80036;stroke-width:1.0;" width="10" x="702" y="384.0313"/><rect fill="#FFFFFF" filter="url(#fz8pbqf6uh25q)" height="1096.8203" style="stroke:#A80036;stroke-width:1.0;" width="10" x="1115.5" y="484.7344"/><rect fill="#FFFFFF" filter="url(#fz8pbqf6uh25q)" height="30" style="stroke:#A80036;stroke-width:1.0;" width="10" x="1334.5" y="706.7109"/><rect fill="#FFFFFF" filter="url(#fz8pbqf6uh25q)" height="30" style="stroke:#A80036;stroke-width:1.0;" width="10" x="1334.5" y="767.0625"/><rect fill="#FFFFFF" filter="url(#fz8pbqf6uh25q)" height="30" style="stroke:#A80036;stroke-width:1.0;" width="10" x="1334.5" y="887.7656"/><rect fill="#FFFFFF" filter="url(#fz8pbqf6uh25q)" height="30" style="stroke:#A80036;stroke-width:1.0;" width="10" x="1614" y="414.3828"/><rect fill="#FFFFFF" filter="url(#fz8pbqf6uh25q)" height="30" style="stroke:#A80036;stroke-width:1.0;" width="10" x="1760" y="621.0078"/><rect fill="#FFFFFF" filter="url(#fz8pbqf6uh25q)" height="30" style="stroke:#A80036;stroke-width:1.0;" width="10" x="2296" y="827.4141"/><rect fill="#FFFFFF" filter="url(#fz8pbqf6uh25q)" height="30" style="stroke:#A80036;stroke-width:1.0;" width="10" x="2296" y="948.1172"/><rect fill="#FFFFFF" filter="url(#fz8pbqf6uh25q)" height="30" style="stroke:#A80036;stroke-width:1.0;" width="10" x="2296" y="1008.4688"/><rect fill="#FFFFFF" filter="url(#fz8pbqf6uh25q)" height="30" style="stroke:#A80036;stroke-width:1.0;" width="10" x="2417" y="1094.1719"/><rect fill="#FFFFFF" filter="url(#fz8pbqf6uh25q)" height="433.3828" style="stroke:#A80036;stroke-width:1.0;" width="10" x="2551.5" y="1185.5234"/><rect fill="#FFFFFF" filter="url(#fz8pbqf6uh25q)" height="28" style="stroke:#A80036;stroke-width:1.0;" width="10" x="2556.5" y="1459.8516"/><polygon fill="#A80036" points="329,117.9609,339,121.9609,329,125.9609,333,121.9609" style="stroke:#A80036;stroke-width:1.0;"/><line style="stroke:#A80036;stroke-width:1.0;" x1="74" x2="335" y1="121.9609" y2="121.9609"/><text fill="#000000" font-family="sans-serif" font-size="13" lengthAdjust="spacing" textLength="180" x="81" y="117.1045">asks to export center statistics</text><polygon fill="#A80036" points="545,148.3125,555,152.3125,545,156.3125,549,152.3125" style="stroke:#A80036;stroke-width:1.0;"/><line style="stroke:#A80036;stroke-width:1.0;" x1="351" x2="551" y1="152.3125" y2="152.3125"/><text fill="#000000" font-family="sans-serif" font-size="13" lengthAdjust="spacing" textLength="154" x="358" y="147.4561">comp = app.getCompany()</text><rect fill="#FFFFFF" filter="url(#fz8pbqf6uh25q)" height="59.0547" style="stroke:#000000;stroke-width:2.0;" width="381" x="256.5" y="190.3125"/><path d="M256.5,190.3125 L318.5,190.3125 L318.5,198.3125 L308.5,208.3125 L256.5,208.3125 L256.5,190.3125 " fill="#EEEEEE" style="stroke:#000000;stroke-width:2.0;"/><text fill="#000000" font-family="sans-serif" font-size="13" font-weight="bold" lengthAdjust="spacing" textLength="17" x="269.5" y="205.8076">ref</text><text fill="#000000" font-family="sans-serif" font-size="13" font-weight="bold" lengthAdjust="spacing" textLength="122" x="262.5" y="225.8076">coordinatorSession</text><text fill="#000000" font-family="sans-serif" font-size="13" lengthAdjust="spacing" textLength="247" x="388.5" y="225.8076">is obtained through the coordinatorSession</text><text fill="#000000" font-family="sans-serif" font-size="13" lengthAdjust="spacing" textLength="205" x="262.5" y="242.1592">See here: CoordinatorLogin_SD.svg</text><polygon fill="#A80036" points="583.5,272.7188,593.5,276.7188,583.5,280.7188,587.5,276.7188" style="stroke:#A80036;stroke-width:1.0;"/><line style="stroke:#A80036;stroke-width:1.0;stroke-dasharray:2.0,2.0;" x1="351" x2="589.5" y1="276.7188" y2="276.7188"/><text fill="#000000" font-family="sans-serif" font-size="13" lengthAdjust="spacing" textLength="212" x="358" y="271.8623">create(company,coordinatorSession)</text><rect fill="#FEFECE" filter="url(#fz8pbqf6uh25q)" height="31.6094" style="stroke:#A80036;stroke-width:1.5;" width="219" x="595.5" y="254.3672"/><text fill="#000000" font-family="sans-serif" font-size="14" lengthAdjust="spacing" textLength="205" x="602.5" y="275.9004">:ExportCenterStatisticsController</text><polygon fill="#A80036" points="85,319.3281,75,323.3281,85,327.3281,81,323.3281" style="stroke:#A80036;stroke-width:1.0;"/><line style="stroke:#A80036;stroke-width:1.0;stroke-dasharray:2.0,2.0;" x1="79" x2="345" y1="323.3281" y2="323.3281"/><text fill="#000000" font-family="sans-serif" font-size="13" lengthAdjust="spacing" textLength="243" x="91" y="318.4717">requests data (filePath,startDate,endDate)</text><polygon fill="#A80036" points="329,349.6797,339,353.6797,329,357.6797,333,353.6797" style="stroke:#A80036;stroke-width:1.0;"/><line style="stroke:#A80036;stroke-width:1.0;" x1="74" x2="335" y1="353.6797" y2="353.6797"/><text fill="#000000" font-family="sans-serif" font-size="13" lengthAdjust="spacing" textLength="122" x="81" y="348.8232">types requested data</text><polygon fill="#A80036" points="690,380.0313,700,384.0313,690,388.0313,694,384.0313" style="stroke:#A80036;stroke-width:1.0;"/><line style="stroke:#A80036;stroke-width:1.0;" x1="351" x2="696" y1="384.0313" y2="384.0313"/><text fill="#000000" font-family="sans-serif" font-size="13" lengthAdjust="spacing" textLength="266" x="358" y="379.1748">createCsvExporter(filePath,startDate,endDate)</text><polygon fill="#A80036" points="1602,410.3828,1612,414.3828,1602,418.3828,1606,414.3828" style="stroke:#A80036;stroke-width:1.0;"/><line style="stroke:#A80036;stroke-width:1.0;" x1="712" x2="1608" y1="414.3828" y2="414.3828"/><text fill="#000000" font-family="sans-serif" font-size="13" lengthAdjust="spacing" textLength="184" x="719" y="409.5264">center = getVaccinationCenter()</text><polygon fill="#A80036" points="1044,470.7344,1054,474.7344,1044,478.7344,1048,474.7344" style="stroke:#A80036;stroke-width:1.0;"/><line style="stroke:#A80036;stroke-width:1.0;stroke-dasharray:2.0,2.0;" x1="712" x2="1050" y1="474.7344" y2="474.7344"/><text fill="#000000" font-family="sans-serif" font-size="13" lengthAdjust="spacing" textLength="320" x="719" y="469.8779">exporterCsv = create(filePath,startDate,endDate,center)</text><rect fill="#FEFECE" filter="url(#fz8pbqf6uh25q)" height="49.2188" style="stroke:#A80036;stroke-width:1.5;" width="125" x="1056" y="452.3828"/><text fill="#000000" font-family="sans-serif" font-size="14" lengthAdjust="spacing" textLength="73" x="1082" y="473.916">csvexporter</text><text fill="#000000" font-family="sans-serif" font-size="14" lengthAdjust="spacing" textLength="111" x="1063" y="491.5254">:CsvExporterData</text><path d="M891,523.6016 L964,523.6016 L964,531.6016 L954,541.6016 L891,541.6016 L891,523.6016 " fill="#EEEEEE" style="stroke:#000000;stroke-width:1.0;"/><rect fill="none" height="622.5703" style="stroke:#000000;stroke-width:2.0;" width="1636" x="891" y="523.6016"/><text fill="#000000" font-family="sans-serif" font-size="13" font-weight="bold" lengthAdjust="spacing" textLength="28" x="906" y="538.0967">loop</text><text fill="#000000" font-family="sans-serif" font-size="11" font-weight="bold" lengthAdjust="spacing" textLength="247" x="979" y="537.0205">[for each day between timeInterval selected]</text><path d="M901,546.9531 L901,588.9531 L1335,588.9531 L1335,556.9531 L1325,546.9531 L901,546.9531 " fill="#FBFB77" filter="url(#fz8pbqf6uh25q)" style="stroke:#A80036;stroke-width:1.0;"/><path d="M1325,546.9531 L1325,556.9531 L1335,556.9531 L1325,546.9531 " fill="#FBFB77" style="stroke:#A80036;stroke-width:1.0;"/><text fill="#000000" font-family="sans-serif" font-size="13" lengthAdjust="spacing" textLength="413" x="907" y="565.4482">inicialy day refers to the startDate, after iterations this increases by one</text><text fill="#000000" font-family="sans-serif" font-size="13" lengthAdjust="spacing" textLength="159" x="907" y="581.7998">until it reaches the endDate</text><polygon fill="#A80036" points="1748,617.0078,1758,621.0078,1748,625.0078,1752,621.0078" style="stroke:#A80036;stroke-width:1.0;"/><line style="stroke:#A80036;stroke-width:1.0;" x1="1125.5" x2="1754" y1="621.0078" y2="621.0078"/><text fill="#000000" font-family="sans-serif" font-size="13" lengthAdjust="spacing" textLength="244" x="1132.5" y="616.1514">vacAdminList = getVacAdminDayList(day)</text><path d="M1036,666.0078 L1109,666.0078 L1109,674.0078 L1099,684.0078 L1036,684.0078 L1036,666.0078 " fill="#EEEEEE" style="stroke:#000000;stroke-width:1.0;"/><rect fill="none" height="473.1641" style="stroke:#000000;stroke-width:2.0;" width="1481" x="1036" y="666.0078"/><text fill="#000000" font-family="sans-serif" font-size="13" font-weight="bold" lengthAdjust="spacing" textLength="28" x="1051" y="680.5029">loop</text><text fill="#000000" font-family="sans-serif" font-size="11" font-weight="bold" lengthAdjust="spacing" textLength="339" x="1124" y="679.4268">[for each vaccineAdministration in vaccineAdministrationList]</text><polygon fill="#A80036" points="1322.5,702.7109,1332.5,706.7109,1322.5,710.7109,1326.5,706.7109" style="stroke:#A80036;stroke-width:1.0;"/><line style="stroke:#A80036;stroke-width:1.0;" x1="1125.5" x2="1328.5" y1="706.7109" y2="706.7109"/><text fill="#000000" font-family="sans-serif" font-size="13" lengthAdjust="spacing" textLength="190" x="1132.5" y="701.8545">snsUserAge = getSNSUserAge()</text><polygon fill="#A80036" points="1322.5,763.0625,1332.5,767.0625,1322.5,771.0625,1326.5,767.0625" style="stroke:#A80036;stroke-width:1.0;"/><line style="stroke:#A80036;stroke-width:1.0;" x1="1125.5" x2="1328.5" y1="767.0625" y2="767.0625"/><text fill="#000000" font-family="sans-serif" font-size="13" lengthAdjust="spacing" textLength="132" x="1132.5" y="762.2061">vaccine = getVaccine()</text><polygon fill="#A80036" points="2284,823.4141,2294,827.4141,2284,831.4141,2288,827.4141" style="stroke:#A80036;stroke-width:1.0;"/><line style="stroke:#A80036;stroke-width:1.0;" x1="1125.5" x2="2290" y1="827.4141" y2="827.4141"/><text fill="#000000" font-family="sans-serif" font-size="13" lengthAdjust="spacing" textLength="140" x="1132.5" y="822.5576">vacType = getVacType()</text><polygon fill="#A80036" points="1322.5,883.7656,1332.5,887.7656,1322.5,891.7656,1326.5,887.7656" style="stroke:#A80036;stroke-width:1.0;"/><line style="stroke:#A80036;stroke-width:1.0;" x1="1125.5" x2="1328.5" y1="887.7656" y2="887.7656"/><text fill="#000000" font-family="sans-serif" font-size="13" lengthAdjust="spacing" textLength="100" x="1132.5" y="882.9092">dose = getDose()</text><polygon fill="#A80036" points="2284,944.1172,2294,948.1172,2284,952.1172,2288,948.1172" style="stroke:#A80036;stroke-width:1.0;"/><line style="stroke:#A80036;stroke-width:1.0;" x1="1125.5" x2="2290" y1="948.1172" y2="948.1172"/><text fill="#000000" font-family="sans-serif" font-size="13" lengthAdjust="spacing" textLength="325" x="1132.5" y="943.2607">adminProcByAge = vaccine.getAdminProc(snsUserAge)</text><polygon fill="#A80036" points="2284,1004.4688,2294,1008.4688,2284,1012.4688,2288,1008.4688" style="stroke:#A80036;stroke-width:1.0;"/><line style="stroke:#A80036;stroke-width:1.0;" x1="1125.5" x2="2290" y1="1008.4688" y2="1008.4688"/><text fill="#000000" font-family="sans-serif" font-size="13" lengthAdjust="spacing" textLength="370" x="1132.5" y="1003.6123">fullyVaccinated = checkUserFullyVaccinated(snsUserAge,dose)</text><path d="M1046,1053.4688 L1111,1053.4688 L1111,1061.4688 L1101,1071.4688 L1046,1071.4688 L1046,1053.4688 " fill="#EEEEEE" style="stroke:#000000;stroke-width:1.0;"/><rect fill="none" height="78.7031" style="stroke:#000000;stroke-width:2.0;" width="1461" x="1046" y="1053.4688"/><text fill="#000000" font-family="sans-serif" font-size="13" font-weight="bold" lengthAdjust="spacing" textLength="20" x="1061" y="1067.9639">opt</text><text fill="#000000" font-family="sans-serif" font-size="11" font-weight="bold" lengthAdjust="spacing" textLength="140" x="1126" y="1066.8877">[(fullyVaccinated == true)]</text><polygon fill="#A80036" points="2405,1090.1719,2415,1094.1719,2405,1098.1719,2409,1094.1719" style="stroke:#A80036;stroke-width:1.0;"/><line style="stroke:#A80036;stroke-width:1.0;" x1="1125.5" x2="2411" y1="1094.1719" y2="1094.1719"/><text fill="#000000" font-family="sans-serif" font-size="13" lengthAdjust="spacing" textLength="113" x="1132.5" y="1089.3154">data.put(vacType,1)</text><polygon fill="#A80036" points="2495,1171.5234,2505,1175.5234,2495,1179.5234,2499,1175.5234" style="stroke:#A80036;stroke-width:1.0;"/><line style="stroke:#A80036;stroke-width:1.0;" x1="1125.5" x2="2501" y1="1175.5234" y2="1175.5234"/><text fill="#000000" font-family="sans-serif" font-size="13" lengthAdjust="spacing" textLength="133" x="1132.5" y="1170.667">saveData(filePath,map)</text><rect fill="#FEFECE" filter="url(#fz8pbqf6uh25q)" height="49.2188" style="stroke:#A80036;stroke-width:1.5;" width="95" x="2507" y="1153.1719"/><text fill="#000000" font-family="sans-serif" font-size="14" lengthAdjust="spacing" textLength="73" x="2518" y="1174.7051">csvexporter</text><text fill="#000000" font-family="sans-serif" font-size="14" lengthAdjust="spacing" textLength="81" x="2514" y="1192.3145">:CsvExporter</text><path d="M2445,1222.3906 L2445,1264.3906 L2663,1264.3906 L2663,1232.3906 L2653,1222.3906 L2445,1222.3906 " fill="#FBFB77" filter="url(#fz8pbqf6uh25q)" style="stroke:#A80036;stroke-width:1.0;"/><path d="M2653,1222.3906 L2653,1232.3906 L2663,1232.3906 L2653,1222.3906 " fill="#FBFB77" style="stroke:#A80036;stroke-width:1.0;"/><text fill="#000000" font-family="sans-serif" font-size="13" lengthAdjust="spacing" textLength="142" x="2451" y="1240.8857">file refers to a object File</text><text fill="#000000" font-family="sans-serif" font-size="13" lengthAdjust="spacing" textLength="197" x="2451" y="1257.2373">bf refers to a object BufferedWriter</text><line style="stroke:#A80036;stroke-width:1.0;" x1="2561.5" x2="2603.5" y1="1296.4453" y2="1296.4453"/><line style="stroke:#A80036;stroke-width:1.0;" x1="2603.5" x2="2603.5" y1="1296.4453" y2="1309.4453"/><line style="stroke:#A80036;stroke-width:1.0;" x1="2562.5" x2="2603.5" y1="1309.4453" y2="1309.4453"/><polygon fill="#A80036" points="2572.5,1305.4453,2562.5,1309.4453,2572.5,1313.4453,2568.5,1309.4453" style="stroke:#A80036;stroke-width:1.0;"/><text fill="#000000" font-family="sans-serif" font-size="13" lengthAdjust="spacing" textLength="131" x="2568.5" y="1291.5889">file = new File(filePath)</text><line style="stroke:#A80036;stroke-width:1.0;" x1="2561.5" x2="2603.5" y1="1339.7969" y2="1339.7969"/><line style="stroke:#A80036;stroke-width:1.0;" x1="2603.5" x2="2603.5" y1="1339.7969" y2="1352.7969"/><line style="stroke:#A80036;stroke-width:1.0;" x1="2562.5" x2="2603.5" y1="1352.7969" y2="1352.7969"/><polygon fill="#A80036" points="2572.5,1348.7969,2562.5,1352.7969,2572.5,1356.7969,2568.5,1352.7969" style="stroke:#A80036;stroke-width:1.0;"/><text fill="#000000" font-family="sans-serif" font-size="13" lengthAdjust="spacing" textLength="261" x="2568.5" y="1334.9404">bf =  new BufferedWriteer(new FileWriter(file))</text><path d="M2497,1367.7969 L2570,1367.7969 L2570,1375.7969 L2560,1385.7969 L2497,1385.7969 L2497,1367.7969 " fill="#EEEEEE" style="stroke:#000000;stroke-width:1.0;"/><rect fill="none" height="135.0547" style="stroke:#000000;stroke-width:2.0;" width="352.5" x="2497" y="1367.7969"/><text fill="#000000" font-family="sans-serif" font-size="13" font-weight="bold" lengthAdjust="spacing" textLength="28" x="2512" y="1382.292">loop</text><text fill="#000000" font-family="sans-serif" font-size="11" font-weight="bold" lengthAdjust="spacing" textLength="160" x="2585" y="1381.2158">[for each content of the map]</text><line style="stroke:#A80036;stroke-width:1.0;" x1="2561.5" x2="2603.5" y1="1408.5" y2="1408.5"/><line style="stroke:#A80036;stroke-width:1.0;" x1="2603.5" x2="2603.5" y1="1408.5" y2="1421.5"/><line style="stroke:#A80036;stroke-width:1.0;" x1="2562.5" x2="2603.5" y1="1421.5" y2="1421.5"/><polygon fill="#A80036" points="2572.5,1417.5,2562.5,1421.5,2572.5,1425.5,2568.5,1421.5" style="stroke:#A80036;stroke-width:1.0;"/><text fill="#000000" font-family="sans-serif" font-size="13" lengthAdjust="spacing" textLength="269" x="2568.5" y="1403.6436">bf.write(entry.getKey() + ":" + entry.getValue())</text><line style="stroke:#A80036;stroke-width:1.0;" x1="2566.5" x2="2608.5" y1="1451.8516" y2="1451.8516"/><line style="stroke:#A80036;stroke-width:1.0;" x1="2608.5" x2="2608.5" y1="1451.8516" y2="1464.8516"/><line style="stroke:#A80036;stroke-width:1.0;" x1="2567.5" x2="2608.5" y1="1464.8516" y2="1464.8516"/><polygon fill="#A80036" points="2577.5,1460.8516,2567.5,1464.8516,2577.5,1468.8516,2573.5,1464.8516" style="stroke:#A80036;stroke-width:1.0;"/><text fill="#000000" font-family="sans-serif" font-size="13" lengthAdjust="spacing" textLength="69" x="2573.5" y="1446.9951">bf.newLine()</text><line style="stroke:#A80036;stroke-width:1.0;" x1="2561.5" x2="2603.5" y1="1532.2031" y2="1532.2031"/><line style="stroke:#A80036;stroke-width:1.0;" x1="2603.5" x2="2603.5" y1="1532.2031" y2="1545.2031"/><line style="stroke:#A80036;stroke-width:1.0;" x1="2562.5" x2="2603.5" y1="1545.2031" y2="1545.2031"/><polygon fill="#A80036" points="2572.5,1541.2031,2562.5,1545.2031,2572.5,1549.2031,2568.5,1545.2031" style="stroke:#A80036;stroke-width:1.0;"/><text fill="#000000" font-family="sans-serif" font-size="13" lengthAdjust="spacing" textLength="49" x="2568.5" y="1527.3467">bf.flush()</text><line style="stroke:#A80036;stroke-width:1.0;" x1="2561.5" x2="2603.5" y1="1580.5547" y2="1580.5547"/><line style="stroke:#A80036;stroke-width:1.0;" x1="2603.5" x2="2603.5" y1="1580.5547" y2="1593.5547"/><line style="stroke:#A80036;stroke-width:1.0;" x1="2556.5" x2="2603.5" y1="1593.5547" y2="1593.5547"/><polygon fill="#A80036" points="2566.5,1589.5547,2556.5,1593.5547,2566.5,1597.5547,2562.5,1593.5547" style="stroke:#A80036;stroke-width:1.0;"/><text fill="#000000" font-family="sans-serif" font-size="13" lengthAdjust="spacing" textLength="53" x="2568.5" y="1575.6982">bf.close()</text><polygon fill="#A80036" points="80,1614.9063,70,1618.9063,80,1622.9063,76,1618.9063" style="stroke:#A80036;stroke-width:1.0;"/><line style="stroke:#A80036;stroke-width:1.0;stroke-dasharray:2.0,2.0;" x1="74" x2="340" y1="1618.9063" y2="1618.9063"/><text fill="#000000" font-family="sans-serif" font-size="13" lengthAdjust="spacing" textLength="152" x="86" y="1614.0498">informs operation success</text><!--MD5=[36285638e6adc5a677bdc4c5d22236af]
@startuml US15_SD

actor "Center Coordinator" as COORDINATOR

participant ":ExportCenterStatisticsUI" as UI
participant ":App" as APP
participant ":ExportCenterStatisticsController" as CTRL
participant ":Company" as COMP
participant "csvexporter\n:CsvExporterData" as EXPORTERDATA
participant "vaccineAdministration\n:VaccineAdministration" as VACADMIN
participant "adminProcess\n:AdminProcess" as ADMINPROC
participant "employeeSession\n:EmployeeSession" as EMPLOYEESESSION
participant "vaccinationCenter\n:VaccinationCenter" as CENTER
participant "vaccineAdministrationList\n:List<VaccineAdministration>" as VACADMINLIST
participant "vaccineAdministrationDayList\n:List<VaccineAdministration>" as VACDAYLIST
participant "vaccine\n:Vaccine" as VACCINE
participant "map\n:Map<String,Integer>" as MAP
participant "csvexporter\n:CsvExporter" as CSVEXPORTER

activate COORDINATOR
COORDINATOR -> UI : asks to export center statistics
activate UI

UI -> APP : comp = app.getCompany()
activate APP
deactivate APP

ref over UI 
**coordinatorSession** is obtained through the coordinatorSession
See here: CoordinatorLogin_SD.svg
end ref

UI - -> CTRL** : create(company,coordinatorSession)

UI - -> COORDINATOR : requests data (filePath,startDate,endDate)
deactivate UI

COORDINATOR -> UI : types requested data
activate UI

UI -> CTRL : createCsvExporter(filePath,startDate,endDate)
activate CTRL

CTRL -> EMPLOYEESESSION : center = getVaccinationCenter()
activate EMPLOYEESESSION
deactivate EMPLOYEESESSION

CTRL - -> EXPORTERDATA** : exporterCsv = create(filePath,startDate,endDate,center)

loop for each day between timeInterval selected
note over EXPORTERDATA
inicialy day refers to the startDate, after iterations this increases by one
until it reaches the endDate
end note

activate EXPORTERDATA

EXPORTERDATA -> CENTER : vacAdminList = getVacAdminDayList(day)
activate CENTER
deactivate CENTER

loop for each vaccineAdministration in vaccineAdministrationList

EXPORTERDATA -> VACADMIN :  snsUserAge = getSNSUserAge()
activate VACADMIN
deactivate VACADMIN

EXPORTERDATA -> VACADMIN : vaccine = getVaccine()
activate VACADMIN
deactivate VACADMIN

EXPORTERDATA -> VACCINE : vacType = getVacType()
activate VACCINE
deactivate VACCINE

EXPORTERDATA -> VACADMIN : dose = getDose()
activate VACADMIN
deactivate VACADMIN

EXPORTERDATA -> VACCINE : adminProcByAge = vaccine.getAdminProc(snsUserAge)
activate VACCINE
deactivate VACCINE

EXPORTERDATA -> VACCINE : fullyVaccinated = checkUserFullyVaccinated(snsUserAge,dose)
activate VACCINE
deactivate VACCINE

opt (fullyVaccinated == true) 
EXPORTERDATA -> MAP : data.put(vacType,1)
activate MAP
deactivate MAP
end

deactivate CTRL
end
end

EXPORTERDATA -> CSVEXPORTER** : saveData(filePath,map)
activate CSVEXPORTER

note over CSVEXPORTER
file refers to a object File
bf refers to a object BufferedWriter
end note
CSVEXPORTER -> CSVEXPORTER : file = new File(filePath)
CSVEXPORTER -> CSVEXPORTER : bf =  new BufferedWriteer(new FileWriter(file))
loop for each content of the map 
CSVEXPORTER -> CSVEXPORTER : bf.write(entry.getKey() + ":" + entry.getValue())
CSVEXPORTER -> CSVEXPORTER : bf.newLine()
activate CSVEXPORTER
deactivate CSVEXPORTER
end
CSVEXPORTER -> CSVEXPORTER : bf.flush()

CSVEXPORTER -> CSVEXPORTER : bf.close()
deactivate EXPORTERDATA

UI - -> COORDINATOR : informs operation success
deactivate CSVEXPORTER

deactivate COORDINATOR 

@enduml

PlantUML version 1.2022.0(Tue Jan 11 16:16:42 WET 2022)
(GPL source distribution)
Java Runtime: Java(TM) SE Runtime Environment
JVM: Java HotSpot(TM) 64-Bit Server VM
Default Encoding: Cp1252
Language: pt
Country: PT
--></g></svg>