<?xml version="1.0" encoding="UTF-8" standalone="no"?><svg xmlns="http://www.w3.org/2000/svg" xmlns:xlink="http://www.w3.org/1999/xlink" contentScriptType="application/ecmascript" contentStyleType="text/css" height="173px" preserveAspectRatio="none" style="width:513px;height:173px;background:#FFFFFF;" version="1.1" viewBox="0 0 513 173" width="513px" zoomAndPan="magnify"><defs><filter height="300%" id="f1wxmdgs4ww0ag" width="300%" x="-1" y="-1"><feGaussianBlur result="blurOut" stdDeviation="2.0"/><feColorMatrix in="blurOut" result="blurOut2" type="matrix" values="0 0 0 0 0 0 0 0 0 0 0 0 0 0 0 0 0 0 .4 0"/><feOffset dx="4.0" dy="4.0" in="blurOut2" result="blurOut3"/><feBlend in="SourceGraphic" in2="blurOut3" mode="normal"/></filter></defs><g><!--MD5=[72be06cc7ae02ccc98efe28a50e62246]
class SNSUser--><rect codeLine="5" fill="#FEFECE" filter="url(#f1wxmdgs4ww0ag)" height="150.6875" id="SNSUser" style="stroke:#A80036;stroke-width:1.5;" width="84" x="415" y="7"/><ellipse cx="430" cy="23" fill="#ADD1B2" rx="11" ry="11" style="stroke:#A80036;stroke-width:1.0;"/><path d="M432.7656,18.875 Q432.9219,18.6563 433.1094,18.5469 Q433.2969,18.4375 433.5156,18.4375 Q433.8906,18.4375 434.125,18.7031 Q434.3594,18.9531 434.3594,19.5625 L434.3594,21.0156 Q434.3594,21.625 434.125,21.8906 Q433.8906,22.1563 433.5156,22.1563 Q433.1719,22.1563 432.9688,21.9531 Q432.7656,21.7656 432.6563,21.25 Q432.6094,20.8906 432.4219,20.7031 Q432.0938,20.3281 431.4844,20.1094 Q430.875,19.8906 430.25,19.8906 Q429.4844,19.8906 428.8438,20.2188 Q428.2188,20.5469 427.7188,21.2969 Q427.2344,22.0469 427.2344,23.0781 L427.2344,24.1719 Q427.2344,25.4063 428.125,26.2344 Q429.0156,27.0469 430.6094,27.0469 Q431.5469,27.0469 432.2031,26.7969 Q432.5938,26.6406 433.0156,26.2031 Q433.2813,25.9375 433.4219,25.8594 Q433.5781,25.7813 433.7813,25.7813 Q434.1094,25.7813 434.3594,26.0469 Q434.625,26.2969 434.625,26.6406 Q434.625,26.9844 434.2813,27.3906 Q433.7813,27.9688 432.9844,28.2969 Q431.9063,28.75 430.6094,28.75 Q429.0938,28.75 427.8906,28.125 Q426.9063,27.625 426.2188,26.5625 Q425.5313,25.4844 425.5313,24.2031 L425.5313,23.0469 Q425.5313,21.7188 426.1406,20.5781 Q426.7656,19.4219 427.8594,18.8125 Q428.9531,18.1875 430.1875,18.1875 Q430.9219,18.1875 431.5625,18.3594 Q432.2188,18.5156 432.7656,18.875 Z " fill="#000000"/><text fill="#000000" font-family="sans-serif" font-size="12" lengthAdjust="spacing" textLength="52" x="444" y="27.9102">SNSUser</text><line style="stroke:#A80036;stroke-width:1.5;" x1="416" x2="498" y1="39" y2="39"/><text fill="#000000" font-family="sans-serif" font-size="11" lengthAdjust="spacing" textLength="58" x="421" y="54.4189">-citizenCard</text><text fill="#000000" font-family="sans-serif" font-size="11" lengthAdjust="spacing" textLength="59" x="421" y="68.2549">-snsNumber</text><text fill="#000000" font-family="sans-serif" font-size="11" lengthAdjust="spacing" textLength="30" x="421" y="82.0908">-name</text><text fill="#000000" font-family="sans-serif" font-size="11" lengthAdjust="spacing" textLength="44" x="421" y="95.9268">-birthDay</text><text fill="#000000" font-family="sans-serif" font-size="11" lengthAdjust="spacing" textLength="38" x="421" y="109.7627">-gender</text><text fill="#000000" font-family="sans-serif" font-size="11" lengthAdjust="spacing" textLength="71" x="421" y="123.5986">-phoneNumber</text><text fill="#000000" font-family="sans-serif" font-size="11" lengthAdjust="spacing" textLength="28" x="421" y="137.4346">-email</text><text fill="#000000" font-family="sans-serif" font-size="11" lengthAdjust="spacing" textLength="44" x="421" y="151.2705">-address</text><!--MD5=[02e4b9b7573f1156f41e60aa5b4e25a4]
class Company--><rect codeLine="16" fill="#FEFECE" filter="url(#f1wxmdgs4ww0ag)" height="53.8359" id="Company" style="stroke:#A80036;stroke-width:1.5;" width="85" x="7" y="67.5"/><ellipse cx="22" cy="83.5" fill="#ADD1B2" rx="11" ry="11" style="stroke:#A80036;stroke-width:1.0;"/><path d="M24.7656,79.375 Q24.9219,79.1563 25.1094,79.0469 Q25.2969,78.9375 25.5156,78.9375 Q25.8906,78.9375 26.125,79.2031 Q26.3594,79.4531 26.3594,80.0625 L26.3594,81.5156 Q26.3594,82.125 26.125,82.3906 Q25.8906,82.6563 25.5156,82.6563 Q25.1719,82.6563 24.9688,82.4531 Q24.7656,82.2656 24.6563,81.75 Q24.6094,81.3906 24.4219,81.2031 Q24.0938,80.8281 23.4844,80.6094 Q22.875,80.3906 22.25,80.3906 Q21.4844,80.3906 20.8438,80.7188 Q20.2188,81.0469 19.7188,81.7969 Q19.2344,82.5469 19.2344,83.5781 L19.2344,84.6719 Q19.2344,85.9063 20.125,86.7344 Q21.0156,87.5469 22.6094,87.5469 Q23.5469,87.5469 24.2031,87.2969 Q24.5938,87.1406 25.0156,86.7031 Q25.2813,86.4375 25.4219,86.3594 Q25.5781,86.2813 25.7813,86.2813 Q26.1094,86.2813 26.3594,86.5469 Q26.625,86.7969 26.625,87.1406 Q26.625,87.4844 26.2813,87.8906 Q25.7813,88.4688 24.9844,88.7969 Q23.9063,89.25 22.6094,89.25 Q21.0938,89.25 19.8906,88.625 Q18.9063,88.125 18.2188,87.0625 Q17.5313,85.9844 17.5313,84.7031 L17.5313,83.5469 Q17.5313,82.2188 18.1406,81.0781 Q18.7656,79.9219 19.8594,79.3125 Q20.9531,78.6875 22.1875,78.6875 Q22.9219,78.6875 23.5625,78.8594 Q24.2188,79.0156 24.7656,79.375 Z " fill="#000000"/><text fill="#000000" font-family="sans-serif" font-size="12" lengthAdjust="spacing" textLength="53" x="36" y="88.4102">Company</text><line style="stroke:#A80036;stroke-width:1.5;" x1="8" x2="91" y1="99.5" y2="99.5"/><text fill="#000000" font-family="sans-serif" font-size="11" lengthAdjust="spacing" textLength="59" x="13" y="114.9189">-designation</text><!--MD5=[da547346deef918ea16944ba046651ef]
class Administrator--><rect codeLine="20" fill="#FEFECE" filter="url(#f1wxmdgs4ww0ag)" height="40" id="Administrator" style="stroke:#A80036;stroke-width:1.5;" width="105" x="204" y="119.5"/><ellipse cx="219" cy="135.5" fill="#ADD1B2" rx="11" ry="11" style="stroke:#A80036;stroke-width:1.0;"/><path d="M221.7656,131.375 Q221.9219,131.1563 222.1094,131.0469 Q222.2969,130.9375 222.5156,130.9375 Q222.8906,130.9375 223.125,131.2031 Q223.3594,131.4531 223.3594,132.0625 L223.3594,133.5156 Q223.3594,134.125 223.125,134.3906 Q222.8906,134.6563 222.5156,134.6563 Q222.1719,134.6563 221.9688,134.4531 Q221.7656,134.2656 221.6563,133.75 Q221.6094,133.3906 221.4219,133.2031 Q221.0938,132.8281 220.4844,132.6094 Q219.875,132.3906 219.25,132.3906 Q218.4844,132.3906 217.8438,132.7188 Q217.2188,133.0469 216.7188,133.7969 Q216.2344,134.5469 216.2344,135.5781 L216.2344,136.6719 Q216.2344,137.9063 217.125,138.7344 Q218.0156,139.5469 219.6094,139.5469 Q220.5469,139.5469 221.2031,139.2969 Q221.5938,139.1406 222.0156,138.7031 Q222.2813,138.4375 222.4219,138.3594 Q222.5781,138.2813 222.7813,138.2813 Q223.1094,138.2813 223.3594,138.5469 Q223.625,138.7969 223.625,139.1406 Q223.625,139.4844 223.2813,139.8906 Q222.7813,140.4688 221.9844,140.7969 Q220.9063,141.25 219.6094,141.25 Q218.0938,141.25 216.8906,140.625 Q215.9063,140.125 215.2188,139.0625 Q214.5313,137.9844 214.5313,136.7031 L214.5313,135.5469 Q214.5313,134.2188 215.1406,133.0781 Q215.7656,131.9219 216.8594,131.3125 Q217.9531,130.6875 219.1875,130.6875 Q219.9219,130.6875 220.5625,130.8594 Q221.2188,131.0156 221.7656,131.375 Z " fill="#000000"/><text fill="#000000" font-family="sans-serif" font-size="12" lengthAdjust="spacing" textLength="73" x="233" y="140.4102">Administrator</text><line style="stroke:#A80036;stroke-width:1.5;" x1="205" x2="308" y1="151.5" y2="151.5"/><!--MD5=[eaea43e34e45c5b9d20b595fc78f1f20]
link Company to Administrator--><path codeLine="24" d="M92.48,103.72 C124.69,110.79 169.33,120.58 203.75,128.14 " fill="none" id="Company-Administrator" style="stroke:#A80036;stroke-width:1.0;"/><polygon fill="#000000" points="131.8838,102.7476,123.6789,97.9381,122.4189,103.6793,131.8838,102.7476" style="stroke:#000000;stroke-width:1.0;"/><text fill="#000000" font-family="sans-serif" font-size="13" lengthAdjust="spacing" textLength="37" x="136" y="106.9951">knows</text><text fill="#000000" font-family="sans-serif" font-size="13" lengthAdjust="spacing" textLength="7" x="99.8878" y="120.0006">1</text><text fill="#000000" font-family="sans-serif" font-size="13" lengthAdjust="spacing" textLength="5" x="190.9805" y="141.1873">*</text><!--MD5=[2b5fc2dce8eec1aafb1a3721aa50d3a4]
link Administrator to SNSUser--><path codeLine="25" d="M309.14,124.67 C342.1,115.21 384.26,103.1 414.94,94.29 " fill="none" id="Administrator-SNSUser" style="stroke:#A80036;stroke-width:1.0;"/><polygon fill="#000000" points="348.8058,94.2958,339.3009,93.9674,340.9231,99.617,348.8058,94.2958" style="stroke:#000000;stroke-width:1.0;"/><text fill="#000000" font-family="sans-serif" font-size="13" lengthAdjust="spacing" textLength="31" x="353" y="100.9951">loads</text><text fill="#000000" font-family="sans-serif" font-size="13" lengthAdjust="spacing" textLength="7" x="317.0347" y="137.2294">1</text><text fill="#000000" font-family="sans-serif" font-size="13" lengthAdjust="spacing" textLength="5" x="402.0028" y="111.3694">*</text><!--MD5=[1a8aa2b864b87f860d28abceaa28b7a5]
link Company to SNSUser--><path codeLine="26" d="M92,87.9 C101.81,86.56 112.26,85.31 122,84.5 C238.51,74.77 268.13,75.21 385,78.5 C394.63,78.77 404.98,79.25 414.72,79.78 " fill="none" id="Company-SNSUser" style="stroke:#A80036;stroke-width:1.0;"/><polygon fill="#000000" points="240.4984,67.55,231.3823,64.8395,231.5301,70.7155,240.4984,67.55" style="stroke:#000000;stroke-width:1.0;"/><text fill="#000000" font-family="sans-serif" font-size="13" lengthAdjust="spacing" textLength="37" x="244.5" y="72.9951">knows</text><text fill="#000000" font-family="sans-serif" font-size="13" lengthAdjust="spacing" textLength="7" x="99.9063" y="82.9301">1</text><text fill="#000000" font-family="sans-serif" font-size="13" lengthAdjust="spacing" textLength="5" x="402.0234" y="94.2397">*</text><!--MD5=[faafc0fd9f9f92e21b7b669d835b4bd4]
@startuml
hide methods
left to right direction
skinparam classAttributeIconSize 0

class SNSUser {
  - citizenCard
  - snsNumber
  - name
  - birthDay
  - gender
  - phoneNumber
  - email
  - address
}

class Company {
  - designation
}

class Administrator {}



Company "1" - - "*" Administrator : knows >
Administrator "1" - - "*" SNSUser : loads >
Company "1" - - "*" SNSUser : knows >



@enduml

PlantUML version 1.2022.0(Tue Jan 11 16:16:42 WET 2022)
(GPL source distribution)
Java Runtime: Java(TM) SE Runtime Environment
JVM: Java HotSpot(TM) 64-Bit Server VM
Default Encoding: Cp1252
Language: pt
Country: PT
--></g></svg>