<?xml version="1.0" encoding="UTF-8" standalone="no"?><svg xmlns="http://www.w3.org/2000/svg" xmlns:xlink="http://www.w3.org/1999/xlink" contentScriptType="application/ecmascript" contentStyleType="text/css" height="718px" preserveAspectRatio="none" style="width:1444px;height:718px;background:#FFFFFF;" version="1.1" viewBox="0 0 1444 718" width="1444px" zoomAndPan="magnify"><defs><filter height="300%" id="f1shlapd5dm4nd" width="300%" x="-1" y="-1"><feGaussianBlur result="blurOut" stdDeviation="2.0"/><feColorMatrix in="blurOut" result="blurOut2" type="matrix" values="0 0 0 0 0 0 0 0 0 0 0 0 0 0 0 0 0 0 .4 0"/><feOffset dx="4.0" dy="4.0" in="blurOut2" result="blurOut3"/><feBlend in="SourceGraphic" in2="blurOut3" mode="normal"/></filter></defs><g><!--MD5=[eaecac35bfcc867594b40553749164d3]
class CreateVaccineUI--><rect codeLine="3" fill="#FEFECE" filter="url(#f1shlapd5dm4nd)" height="48" id="CreateVaccineUI" style="stroke:#A80036;stroke-width:1.5;" width="124" x="187.5" y="48.5"/><ellipse cx="202.5" cy="64.5" fill="#ADD1B2" rx="11" ry="11" style="stroke:#A80036;stroke-width:1.0;"/><path d="M205.2656,60.375 Q205.4219,60.1563 205.6094,60.0469 Q205.7969,59.9375 206.0156,59.9375 Q206.3906,59.9375 206.625,60.2031 Q206.8594,60.4531 206.8594,61.0625 L206.8594,62.5156 Q206.8594,63.125 206.625,63.3906 Q206.3906,63.6563 206.0156,63.6563 Q205.6719,63.6563 205.4688,63.4531 Q205.2656,63.2656 205.1563,62.75 Q205.1094,62.3906 204.9219,62.2031 Q204.5938,61.8281 203.9844,61.6094 Q203.375,61.3906 202.75,61.3906 Q201.9844,61.3906 201.3438,61.7188 Q200.7188,62.0469 200.2188,62.7969 Q199.7344,63.5469 199.7344,64.5781 L199.7344,65.6719 Q199.7344,66.9063 200.625,67.7344 Q201.5156,68.5469 203.1094,68.5469 Q204.0469,68.5469 204.7031,68.2969 Q205.0938,68.1406 205.5156,67.7031 Q205.7813,67.4375 205.9219,67.3594 Q206.0781,67.2813 206.2813,67.2813 Q206.6094,67.2813 206.8594,67.5469 Q207.125,67.7969 207.125,68.1406 Q207.125,68.4844 206.7813,68.8906 Q206.2813,69.4688 205.4844,69.7969 Q204.4063,70.25 203.1094,70.25 Q201.5938,70.25 200.3906,69.625 Q199.4063,69.125 198.7188,68.0625 Q198.0313,66.9844 198.0313,65.7031 L198.0313,64.5469 Q198.0313,63.2188 198.6406,62.0781 Q199.2656,60.9219 200.3594,60.3125 Q201.4531,59.6875 202.6875,59.6875 Q203.4219,59.6875 204.0625,59.8594 Q204.7188,60.0156 205.2656,60.375 Z " fill="#000000"/><text fill="#000000" font-family="sans-serif" font-size="12" lengthAdjust="spacing" textLength="92" x="216.5" y="69.4102">CreateVaccineUI</text><line style="stroke:#A80036;stroke-width:1.5;" x1="188.5" x2="310.5" y1="80.5" y2="80.5"/><line style="stroke:#A80036;stroke-width:1.5;" x1="188.5" x2="310.5" y1="88.5" y2="88.5"/><!--MD5=[e3fe9ca45d675002756d7970c4653999]
class CreateVaccineController--><rect codeLine="7" fill="#FEFECE" filter="url(#f1shlapd5dm4nd)" height="158.6875" id="CreateVaccineController" style="stroke:#A80036;stroke-width:1.5;" width="276" x="111.5" y="199"/><ellipse cx="178.25" cy="215" fill="#ADD1B2" rx="11" ry="11" style="stroke:#A80036;stroke-width:1.0;"/><path d="M181.0156,210.875 Q181.1719,210.6563 181.3594,210.5469 Q181.5469,210.4375 181.7656,210.4375 Q182.1406,210.4375 182.375,210.7031 Q182.6094,210.9531 182.6094,211.5625 L182.6094,213.0156 Q182.6094,213.625 182.375,213.8906 Q182.1406,214.1563 181.7656,214.1563 Q181.4219,214.1563 181.2188,213.9531 Q181.0156,213.7656 180.9063,213.25 Q180.8594,212.8906 180.6719,212.7031 Q180.3438,212.3281 179.7344,212.1094 Q179.125,211.8906 178.5,211.8906 Q177.7344,211.8906 177.0938,212.2188 Q176.4688,212.5469 175.9688,213.2969 Q175.4844,214.0469 175.4844,215.0781 L175.4844,216.1719 Q175.4844,217.4063 176.375,218.2344 Q177.2656,219.0469 178.8594,219.0469 Q179.7969,219.0469 180.4531,218.7969 Q180.8438,218.6406 181.2656,218.2031 Q181.5313,217.9375 181.6719,217.8594 Q181.8281,217.7813 182.0313,217.7813 Q182.3594,217.7813 182.6094,218.0469 Q182.875,218.2969 182.875,218.6406 Q182.875,218.9844 182.5313,219.3906 Q182.0313,219.9688 181.2344,220.2969 Q180.1563,220.75 178.8594,220.75 Q177.3438,220.75 176.1406,220.125 Q175.1563,219.625 174.4688,218.5625 Q173.7813,217.4844 173.7813,216.2031 L173.7813,215.0469 Q173.7813,213.7188 174.3906,212.5781 Q175.0156,211.4219 176.1094,210.8125 Q177.2031,210.1875 178.4375,210.1875 Q179.1719,210.1875 179.8125,210.3594 Q180.4688,210.5156 181.0156,210.875 Z " fill="#000000"/><text fill="#000000" font-family="sans-serif" font-size="12" lengthAdjust="spacing" textLength="134" x="198.75" y="219.9102">CreateVaccineController</text><line style="stroke:#A80036;stroke-width:1.5;" x1="112.5" x2="386.5" y1="231" y2="231"/><line style="stroke:#A80036;stroke-width:1.5;" x1="112.5" x2="386.5" y1="239" y2="239"/><text fill="#000000" font-family="sans-serif" font-size="11" lengthAdjust="spacing" textLength="79" x="117.5" y="254.4189">+getVacTypes()</text><text fill="#000000" font-family="sans-serif" font-size="11" lengthAdjust="spacing" textLength="75" x="117.5" y="268.2549">+getVaccines()</text><text fill="#000000" font-family="sans-serif" font-size="11" lengthAdjust="spacing" textLength="244" x="117.5" y="282.0908">+createVaccine(designation, id, brand, vacTypeId)</text><text fill="#000000" font-family="sans-serif" font-size="11" lengthAdjust="spacing" textLength="264" x="117.5" y="295.9268">+createAdminProc(minAge, maxAge, numberOfDoses)</text><text fill="#000000" font-family="sans-serif" font-size="11" lengthAdjust="spacing" textLength="90" x="117.5" y="309.7627">+saveAdminProc()</text><text fill="#000000" font-family="sans-serif" font-size="11" lengthAdjust="spacing" textLength="208" x="117.5" y="323.5986">+createDoseInfo(dosage, timaToNextDose)</text><text fill="#000000" font-family="sans-serif" font-size="11" lengthAdjust="spacing" textLength="81" x="117.5" y="337.4346">+saveDoseInfo()</text><text fill="#000000" font-family="sans-serif" font-size="11" lengthAdjust="spacing" textLength="78" x="117.5" y="351.2705">+saveVaccine()</text><!--MD5=[02e4b9b7573f1156f41e60aa5b4e25a4]
class Company--><rect codeLine="18" fill="#FEFECE" filter="url(#f1shlapd5dm4nd)" height="89.5078" id="Company" style="stroke:#A80036;stroke-width:1.5;" width="131" x="7" y="593.5"/><ellipse cx="42.7" cy="609.5" fill="#ADD1B2" rx="11" ry="11" style="stroke:#A80036;stroke-width:1.0;"/><path d="M45.4656,605.375 Q45.6219,605.1563 45.8094,605.0469 Q45.9969,604.9375 46.2156,604.9375 Q46.5906,604.9375 46.825,605.2031 Q47.0594,605.4531 47.0594,606.0625 L47.0594,607.5156 Q47.0594,608.125 46.825,608.3906 Q46.5906,608.6563 46.2156,608.6563 Q45.8719,608.6563 45.6688,608.4531 Q45.4656,608.2656 45.3563,607.75 Q45.3094,607.3906 45.1219,607.2031 Q44.7938,606.8281 44.1844,606.6094 Q43.575,606.3906 42.95,606.3906 Q42.1844,606.3906 41.5438,606.7188 Q40.9188,607.0469 40.4188,607.7969 Q39.9344,608.5469 39.9344,609.5781 L39.9344,610.6719 Q39.9344,611.9063 40.825,612.7344 Q41.7156,613.5469 43.3094,613.5469 Q44.2469,613.5469 44.9031,613.2969 Q45.2938,613.1406 45.7156,612.7031 Q45.9813,612.4375 46.1219,612.3594 Q46.2781,612.2813 46.4813,612.2813 Q46.8094,612.2813 47.0594,612.5469 Q47.325,612.7969 47.325,613.1406 Q47.325,613.4844 46.9813,613.8906 Q46.4813,614.4688 45.6844,614.7969 Q44.6063,615.25 43.3094,615.25 Q41.7938,615.25 40.5906,614.625 Q39.6063,614.125 38.9188,613.0625 Q38.2313,611.9844 38.2313,610.7031 L38.2313,609.5469 Q38.2313,608.2188 38.8406,607.0781 Q39.4656,605.9219 40.5594,605.3125 Q41.6531,604.6875 42.8875,604.6875 Q43.6219,604.6875 44.2625,604.8594 Q44.9188,605.0156 45.4656,605.375 Z " fill="#000000"/><text fill="#000000" font-family="sans-serif" font-size="12" lengthAdjust="spacing" textLength="53" x="61.3" y="614.4102">Company</text><line style="stroke:#A80036;stroke-width:1.5;" x1="8" x2="137" y1="625.5" y2="625.5"/><text fill="#000000" font-family="sans-serif" font-size="11" lengthAdjust="spacing" textLength="96" x="13" y="640.9189">-designation : String</text><line style="stroke:#A80036;stroke-width:1.5;" x1="8" x2="137" y1="647.3359" y2="647.3359"/><text fill="#000000" font-family="sans-serif" font-size="11" lengthAdjust="spacing" textLength="119" x="13" y="662.7549">+getVaccineTypeStore()</text><text fill="#000000" font-family="sans-serif" font-size="11" lengthAdjust="spacing" textLength="95" x="13" y="676.5908">+getVaccineStore()</text><!--MD5=[9532c95099058dfe385d7270fd32fc0d]
class VaccineTypeStore--><rect codeLine="25" fill="#FEFECE" filter="url(#f1shlapd5dm4nd)" height="61.8359" id="VaccineTypeStore" style="stroke:#A80036;stroke-width:1.5;" width="156" x="408.5" y="426"/><ellipse cx="435.2" cy="442" fill="#ADD1B2" rx="11" ry="11" style="stroke:#A80036;stroke-width:1.0;"/><path d="M437.9656,437.875 Q438.1219,437.6563 438.3094,437.5469 Q438.4969,437.4375 438.7156,437.4375 Q439.0906,437.4375 439.325,437.7031 Q439.5594,437.9531 439.5594,438.5625 L439.5594,440.0156 Q439.5594,440.625 439.325,440.8906 Q439.0906,441.1563 438.7156,441.1563 Q438.3719,441.1563 438.1688,440.9531 Q437.9656,440.7656 437.8563,440.25 Q437.8094,439.8906 437.6219,439.7031 Q437.2938,439.3281 436.6844,439.1094 Q436.075,438.8906 435.45,438.8906 Q434.6844,438.8906 434.0438,439.2188 Q433.4188,439.5469 432.9188,440.2969 Q432.4344,441.0469 432.4344,442.0781 L432.4344,443.1719 Q432.4344,444.4063 433.325,445.2344 Q434.2156,446.0469 435.8094,446.0469 Q436.7469,446.0469 437.4031,445.7969 Q437.7938,445.6406 438.2156,445.2031 Q438.4813,444.9375 438.6219,444.8594 Q438.7781,444.7813 438.9813,444.7813 Q439.3094,444.7813 439.5594,445.0469 Q439.825,445.2969 439.825,445.6406 Q439.825,445.9844 439.4813,446.3906 Q438.9813,446.9688 438.1844,447.2969 Q437.1063,447.75 435.8094,447.75 Q434.2938,447.75 433.0906,447.125 Q432.1063,446.625 431.4188,445.5625 Q430.7313,444.4844 430.7313,443.2031 L430.7313,442.0469 Q430.7313,440.7188 431.3406,439.5781 Q431.9656,438.4219 433.0594,437.8125 Q434.1531,437.1875 435.3875,437.1875 Q436.1219,437.1875 436.7625,437.3594 Q437.4188,437.5156 437.9656,437.875 Z " fill="#000000"/><text fill="#000000" font-family="sans-serif" font-size="12" lengthAdjust="spacing" textLength="98" x="451.8" y="446.9102">VaccineTypeStore</text><line style="stroke:#A80036;stroke-width:1.5;" x1="409.5" x2="563.5" y1="458" y2="458"/><line style="stroke:#A80036;stroke-width:1.5;" x1="409.5" x2="563.5" y1="466" y2="466"/><text fill="#000000" font-family="sans-serif" font-size="11" lengthAdjust="spacing" textLength="144" x="414.5" y="481.4189">+getVacTypeById(vacTypeId)</text><!--MD5=[16e898dea44373438d7a6991ca77efa0]
class VaccineStore--><rect codeLine="29" fill="#FEFECE" filter="url(#f1shlapd5dm4nd)" height="75.6719" id="VaccineStore" style="stroke:#A80036;stroke-width:1.5;" width="248" x="125.5" y="419"/><ellipse cx="209.25" cy="435" fill="#ADD1B2" rx="11" ry="11" style="stroke:#A80036;stroke-width:1.0;"/><path d="M212.0156,430.875 Q212.1719,430.6563 212.3594,430.5469 Q212.5469,430.4375 212.7656,430.4375 Q213.1406,430.4375 213.375,430.7031 Q213.6094,430.9531 213.6094,431.5625 L213.6094,433.0156 Q213.6094,433.625 213.375,433.8906 Q213.1406,434.1563 212.7656,434.1563 Q212.4219,434.1563 212.2188,433.9531 Q212.0156,433.7656 211.9063,433.25 Q211.8594,432.8906 211.6719,432.7031 Q211.3438,432.3281 210.7344,432.1094 Q210.125,431.8906 209.5,431.8906 Q208.7344,431.8906 208.0938,432.2188 Q207.4688,432.5469 206.9688,433.2969 Q206.4844,434.0469 206.4844,435.0781 L206.4844,436.1719 Q206.4844,437.4063 207.375,438.2344 Q208.2656,439.0469 209.8594,439.0469 Q210.7969,439.0469 211.4531,438.7969 Q211.8438,438.6406 212.2656,438.2031 Q212.5313,437.9375 212.6719,437.8594 Q212.8281,437.7813 213.0313,437.7813 Q213.3594,437.7813 213.6094,438.0469 Q213.875,438.2969 213.875,438.6406 Q213.875,438.9844 213.5313,439.3906 Q213.0313,439.9688 212.2344,440.2969 Q211.1563,440.75 209.8594,440.75 Q208.3438,440.75 207.1406,440.125 Q206.1563,439.625 205.4688,438.5625 Q204.7813,437.4844 204.7813,436.2031 L204.7813,435.0469 Q204.7813,433.7188 205.3906,432.5781 Q206.0156,431.4219 207.1094,430.8125 Q208.2031,430.1875 209.4375,430.1875 Q210.1719,430.1875 210.8125,430.3594 Q211.4688,430.5156 212.0156,430.875 Z " fill="#000000"/><text fill="#000000" font-family="sans-serif" font-size="12" lengthAdjust="spacing" textLength="72" x="229.75" y="439.9102">VaccineStore</text><line style="stroke:#A80036;stroke-width:1.5;" x1="126.5" x2="372.5" y1="451" y2="451"/><line style="stroke:#A80036;stroke-width:1.5;" x1="126.5" x2="372.5" y1="459" y2="459"/><text fill="#000000" font-family="sans-serif" font-size="11" lengthAdjust="spacing" textLength="236" x="131.5" y="474.4189">+createVaccine(designation, id, brand, vacType)</text><text fill="#000000" font-family="sans-serif" font-size="11" lengthAdjust="spacing" textLength="109" x="131.5" y="488.2549">+validateVaccine(vac)</text><!--MD5=[19e445fc4d3b48519cbe33da05496394]
class Vaccine--><rect codeLine="34" fill="#FEFECE" filter="url(#f1shlapd5dm4nd)" height="131.0156" id="Vaccine" style="stroke:#A80036;stroke-width:1.5;" width="276" x="211.5" y="573"/><ellipse cx="323.75" cy="589" fill="#ADD1B2" rx="11" ry="11" style="stroke:#A80036;stroke-width:1.0;"/><path d="M326.5156,584.875 Q326.6719,584.6563 326.8594,584.5469 Q327.0469,584.4375 327.2656,584.4375 Q327.6406,584.4375 327.875,584.7031 Q328.1094,584.9531 328.1094,585.5625 L328.1094,587.0156 Q328.1094,587.625 327.875,587.8906 Q327.6406,588.1563 327.2656,588.1563 Q326.9219,588.1563 326.7188,587.9531 Q326.5156,587.7656 326.4063,587.25 Q326.3594,586.8906 326.1719,586.7031 Q325.8438,586.3281 325.2344,586.1094 Q324.625,585.8906 324,585.8906 Q323.2344,585.8906 322.5938,586.2188 Q321.9688,586.5469 321.4688,587.2969 Q320.9844,588.0469 320.9844,589.0781 L320.9844,590.1719 Q320.9844,591.4063 321.875,592.2344 Q322.7656,593.0469 324.3594,593.0469 Q325.2969,593.0469 325.9531,592.7969 Q326.3438,592.6406 326.7656,592.2031 Q327.0313,591.9375 327.1719,591.8594 Q327.3281,591.7813 327.5313,591.7813 Q327.8594,591.7813 328.1094,592.0469 Q328.375,592.2969 328.375,592.6406 Q328.375,592.9844 328.0313,593.3906 Q327.5313,593.9688 326.7344,594.2969 Q325.6563,594.75 324.3594,594.75 Q322.8438,594.75 321.6406,594.125 Q320.6563,593.625 319.9688,592.5625 Q319.2813,591.4844 319.2813,590.2031 L319.2813,589.0469 Q319.2813,587.7188 319.8906,586.5781 Q320.5156,585.4219 321.6094,584.8125 Q322.7031,584.1875 323.9375,584.1875 Q324.6719,584.1875 325.3125,584.3594 Q325.9688,584.5156 326.5156,584.875 Z " fill="#000000"/><text fill="#000000" font-family="sans-serif" font-size="12" lengthAdjust="spacing" textLength="43" x="344.25" y="593.9102">Vaccine</text><line style="stroke:#A80036;stroke-width:1.5;" x1="212.5" x2="486.5" y1="605" y2="605"/><text fill="#000000" font-family="sans-serif" font-size="11" lengthAdjust="spacing" textLength="96" x="217.5" y="620.4189">-designation : String</text><text fill="#000000" font-family="sans-serif" font-size="11" lengthAdjust="spacing" textLength="69" x="217.5" y="634.2549">-brand : String</text><text fill="#000000" font-family="sans-serif" font-size="11" lengthAdjust="spacing" textLength="49" x="217.5" y="648.0908">-id : String</text><text fill="#000000" font-family="sans-serif" font-size="11" lengthAdjust="spacing" textLength="119" x="217.5" y="661.9268">-vacType : VaccineType</text><line style="stroke:#A80036;stroke-width:1.5;" x1="212.5" x2="486.5" y1="668.3438" y2="668.3438"/><text fill="#000000" font-family="sans-serif" font-size="11" lengthAdjust="spacing" textLength="213" x="217.5" y="683.7627">+Vaccine(designation, id, brand, vacTypeId)</text><text fill="#000000" font-family="sans-serif" font-size="11" lengthAdjust="spacing" textLength="264" x="217.5" y="697.5986">+createAdminProc(minAge, maxAge, numberOfDoses)</text><!--MD5=[0e501da62322464167c8ec4d233a6b7e]
class VaccineType--><rect codeLine="44" fill="#FEFECE" filter="url(#f1shlapd5dm4nd)" height="89.5078" id="VaccineType" style="stroke:#A80036;stroke-width:1.5;" width="106" x="545.5" y="593.5"/><ellipse cx="562.75" cy="609.5" fill="#ADD1B2" rx="11" ry="11" style="stroke:#A80036;stroke-width:1.0;"/><path d="M565.5156,605.375 Q565.6719,605.1563 565.8594,605.0469 Q566.0469,604.9375 566.2656,604.9375 Q566.6406,604.9375 566.875,605.2031 Q567.1094,605.4531 567.1094,606.0625 L567.1094,607.5156 Q567.1094,608.125 566.875,608.3906 Q566.6406,608.6563 566.2656,608.6563 Q565.9219,608.6563 565.7188,608.4531 Q565.5156,608.2656 565.4063,607.75 Q565.3594,607.3906 565.1719,607.2031 Q564.8438,606.8281 564.2344,606.6094 Q563.625,606.3906 563,606.3906 Q562.2344,606.3906 561.5938,606.7188 Q560.9688,607.0469 560.4688,607.7969 Q559.9844,608.5469 559.9844,609.5781 L559.9844,610.6719 Q559.9844,611.9063 560.875,612.7344 Q561.7656,613.5469 563.3594,613.5469 Q564.2969,613.5469 564.9531,613.2969 Q565.3438,613.1406 565.7656,612.7031 Q566.0313,612.4375 566.1719,612.3594 Q566.3281,612.2813 566.5313,612.2813 Q566.8594,612.2813 567.1094,612.5469 Q567.375,612.7969 567.375,613.1406 Q567.375,613.4844 567.0313,613.8906 Q566.5313,614.4688 565.7344,614.7969 Q564.6563,615.25 563.3594,615.25 Q561.8438,615.25 560.6406,614.625 Q559.6563,614.125 558.9688,613.0625 Q558.2813,611.9844 558.2813,610.7031 L558.2813,609.5469 Q558.2813,608.2188 558.8906,607.0781 Q559.5156,605.9219 560.6094,605.3125 Q561.7031,604.6875 562.9375,604.6875 Q563.6719,604.6875 564.3125,604.8594 Q564.9688,605.0156 565.5156,605.375 Z " fill="#000000"/><text fill="#000000" font-family="sans-serif" font-size="12" lengthAdjust="spacing" textLength="69" x="577.25" y="614.4102">VaccineType</text><line style="stroke:#A80036;stroke-width:1.5;" x1="546.5" x2="650.5" y1="625.5" y2="625.5"/><text fill="#000000" font-family="sans-serif" font-size="11" lengthAdjust="spacing" textLength="65" x="551.5" y="640.9189">-code : String</text><text fill="#000000" font-family="sans-serif" font-size="11" lengthAdjust="spacing" textLength="94" x="551.5" y="654.7549">-description : String</text><text fill="#000000" font-family="sans-serif" font-size="11" lengthAdjust="spacing" textLength="94" x="551.5" y="668.5908">-tecnhology : String</text><line style="stroke:#A80036;stroke-width:1.5;" x1="546.5" x2="650.5" y1="675.0078" y2="675.0078"/><!--MD5=[3756ed3b69316025ed76a83433ceed08]
class AdminProccess--><rect codeLine="50" fill="#FEFECE" filter="url(#f1shlapd5dm4nd)" height="131.0156" id="AdminProccess" style="stroke:#A80036;stroke-width:1.5;" width="263" x="347" y="7"/><ellipse cx="430.75" cy="23" fill="#ADD1B2" rx="11" ry="11" style="stroke:#A80036;stroke-width:1.0;"/><path d="M433.5156,18.875 Q433.6719,18.6563 433.8594,18.5469 Q434.0469,18.4375 434.2656,18.4375 Q434.6406,18.4375 434.875,18.7031 Q435.1094,18.9531 435.1094,19.5625 L435.1094,21.0156 Q435.1094,21.625 434.875,21.8906 Q434.6406,22.1563 434.2656,22.1563 Q433.9219,22.1563 433.7188,21.9531 Q433.5156,21.7656 433.4063,21.25 Q433.3594,20.8906 433.1719,20.7031 Q432.8438,20.3281 432.2344,20.1094 Q431.625,19.8906 431,19.8906 Q430.2344,19.8906 429.5938,20.2188 Q428.9688,20.5469 428.4688,21.2969 Q427.9844,22.0469 427.9844,23.0781 L427.9844,24.1719 Q427.9844,25.4063 428.875,26.2344 Q429.7656,27.0469 431.3594,27.0469 Q432.2969,27.0469 432.9531,26.7969 Q433.3438,26.6406 433.7656,26.2031 Q434.0313,25.9375 434.1719,25.8594 Q434.3281,25.7813 434.5313,25.7813 Q434.8594,25.7813 435.1094,26.0469 Q435.375,26.2969 435.375,26.6406 Q435.375,26.9844 435.0313,27.3906 Q434.5313,27.9688 433.7344,28.2969 Q432.6563,28.75 431.3594,28.75 Q429.8438,28.75 428.6406,28.125 Q427.6563,27.625 426.9688,26.5625 Q426.2813,25.4844 426.2813,24.2031 L426.2813,23.0469 Q426.2813,21.7188 426.8906,20.5781 Q427.5156,19.4219 428.6094,18.8125 Q429.7031,18.1875 430.9375,18.1875 Q431.6719,18.1875 432.3125,18.3594 Q432.9688,18.5156 433.5156,18.875 Z " fill="#000000"/><text fill="#000000" font-family="sans-serif" font-size="12" lengthAdjust="spacing" textLength="87" x="451.25" y="27.9102">AdminProccess</text><line style="stroke:#A80036;stroke-width:1.5;" x1="348" x2="609" y1="39" y2="39"/><text fill="#000000" font-family="sans-serif" font-size="11" lengthAdjust="spacing" textLength="103" x="353" y="54.4189">-numberOfDoses : int</text><text fill="#000000" font-family="sans-serif" font-size="11" lengthAdjust="spacing" textLength="60" x="353" y="68.2549">-minAge : int</text><text fill="#000000" font-family="sans-serif" font-size="11" lengthAdjust="spacing" textLength="64" x="353" y="82.0908">-maxAge : int</text><line style="stroke:#A80036;stroke-width:1.5;" x1="348" x2="609" y1="88.5078" y2="88.5078"/><text fill="#000000" font-family="sans-serif" font-size="11" lengthAdjust="spacing" textLength="251" x="353" y="103.9268">+AdminProcess(minAge, maxAge, numberOfDoses)</text><text fill="#000000" font-family="sans-serif" font-size="11" lengthAdjust="spacing" textLength="222" x="353" y="117.7627">+createDoseInfo(dosage, timeSinceLastDose)</text><text fill="#000000" font-family="sans-serif" font-size="11" lengthAdjust="spacing" textLength="153" x="353" y="131.5986">+validateAdminProc(adminProc)</text><!--MD5=[f177b56963e282037ff390baffee633e]
class AdminProcList--><rect codeLine="60" fill="#FEFECE" filter="url(#f1shlapd5dm4nd)" height="61.8359" id="AdminProcList" style="stroke:#A80036;stroke-width:1.5;" width="146" x="686.5" y="607.5"/><ellipse cx="716.8" cy="623.5" fill="#ADD1B2" rx="11" ry="11" style="stroke:#A80036;stroke-width:1.0;"/><path d="M719.5656,619.375 Q719.7219,619.1563 719.9094,619.0469 Q720.0969,618.9375 720.3156,618.9375 Q720.6906,618.9375 720.925,619.2031 Q721.1594,619.4531 721.1594,620.0625 L721.1594,621.5156 Q721.1594,622.125 720.925,622.3906 Q720.6906,622.6563 720.3156,622.6563 Q719.9719,622.6563 719.7688,622.4531 Q719.5656,622.2656 719.4563,621.75 Q719.4094,621.3906 719.2219,621.2031 Q718.8938,620.8281 718.2844,620.6094 Q717.675,620.3906 717.05,620.3906 Q716.2844,620.3906 715.6438,620.7188 Q715.0188,621.0469 714.5188,621.7969 Q714.0344,622.5469 714.0344,623.5781 L714.0344,624.6719 Q714.0344,625.9063 714.925,626.7344 Q715.8156,627.5469 717.4094,627.5469 Q718.3469,627.5469 719.0031,627.2969 Q719.3938,627.1406 719.8156,626.7031 Q720.0813,626.4375 720.2219,626.3594 Q720.3781,626.2813 720.5813,626.2813 Q720.9094,626.2813 721.1594,626.5469 Q721.425,626.7969 721.425,627.1406 Q721.425,627.4844 721.0813,627.8906 Q720.5813,628.4688 719.7844,628.7969 Q718.7063,629.25 717.4094,629.25 Q715.8938,629.25 714.6906,628.625 Q713.7063,628.125 713.0188,627.0625 Q712.3313,625.9844 712.3313,624.7031 L712.3313,623.5469 Q712.3313,622.2188 712.9406,621.0781 Q713.5656,619.9219 714.6594,619.3125 Q715.7531,618.6875 716.9875,618.6875 Q717.7219,618.6875 718.3625,618.8594 Q719.0188,619.0156 719.5656,619.375 Z " fill="#000000"/><text fill="#000000" font-family="sans-serif" font-size="12" lengthAdjust="spacing" textLength="80" x="734.2" y="628.4102">AdminProcList</text><line style="stroke:#A80036;stroke-width:1.5;" x1="687.5" x2="831.5" y1="639.5" y2="639.5"/><line style="stroke:#A80036;stroke-width:1.5;" x1="687.5" x2="831.5" y1="647.5" y2="647.5"/><text fill="#000000" font-family="sans-serif" font-size="11" lengthAdjust="spacing" textLength="134" x="692.5" y="662.9189">+addAdminProc(adminProc)</text><!--MD5=[62bd593c579e801ebafec35b8d46a56f]
class DoseInfo--><rect codeLine="64" fill="#FEFECE" filter="url(#f1shlapd5dm4nd)" height="103.3438" id="DoseInfo" style="stroke:#A80036;stroke-width:1.5;" width="203" x="1227" y="587"/><ellipse cx="1299.25" cy="603" fill="#ADD1B2" rx="11" ry="11" style="stroke:#A80036;stroke-width:1.0;"/><path d="M1302.0156,598.875 Q1302.1719,598.6563 1302.3594,598.5469 Q1302.5469,598.4375 1302.7656,598.4375 Q1303.1406,598.4375 1303.375,598.7031 Q1303.6094,598.9531 1303.6094,599.5625 L1303.6094,601.0156 Q1303.6094,601.625 1303.375,601.8906 Q1303.1406,602.1563 1302.7656,602.1563 Q1302.4219,602.1563 1302.2188,601.9531 Q1302.0156,601.7656 1301.9063,601.25 Q1301.8594,600.8906 1301.6719,600.7031 Q1301.3438,600.3281 1300.7344,600.1094 Q1300.125,599.8906 1299.5,599.8906 Q1298.7344,599.8906 1298.0938,600.2188 Q1297.4688,600.5469 1296.9688,601.2969 Q1296.4844,602.0469 1296.4844,603.0781 L1296.4844,604.1719 Q1296.4844,605.4063 1297.375,606.2344 Q1298.2656,607.0469 1299.8594,607.0469 Q1300.7969,607.0469 1301.4531,606.7969 Q1301.8438,606.6406 1302.2656,606.2031 Q1302.5313,605.9375 1302.6719,605.8594 Q1302.8281,605.7813 1303.0313,605.7813 Q1303.3594,605.7813 1303.6094,606.0469 Q1303.875,606.2969 1303.875,606.6406 Q1303.875,606.9844 1303.5313,607.3906 Q1303.0313,607.9688 1302.2344,608.2969 Q1301.1563,608.75 1299.8594,608.75 Q1298.3438,608.75 1297.1406,608.125 Q1296.1563,607.625 1295.4688,606.5625 Q1294.7813,605.4844 1294.7813,604.2031 L1294.7813,603.0469 Q1294.7813,601.7188 1295.3906,600.5781 Q1296.0156,599.4219 1297.1094,598.8125 Q1298.2031,598.1875 1299.4375,598.1875 Q1300.1719,598.1875 1300.8125,598.3594 Q1301.4688,598.5156 1302.0156,598.875 Z " fill="#000000"/><text fill="#000000" font-family="sans-serif" font-size="12" lengthAdjust="spacing" textLength="50" x="1319.75" y="607.9102">DoseInfo</text><line style="stroke:#A80036;stroke-width:1.5;" x1="1228" x2="1429" y1="619" y2="619"/><text fill="#000000" font-family="sans-serif" font-size="11" lengthAdjust="spacing" textLength="60" x="1233" y="634.4189">-dosage : int</text><text fill="#000000" font-family="sans-serif" font-size="11" lengthAdjust="spacing" textLength="116" x="1233" y="648.2549">-timeSinceLastDose : int</text><line style="stroke:#A80036;stroke-width:1.5;" x1="1228" x2="1429" y1="654.6719" y2="654.6719"/><text fill="#000000" font-family="sans-serif" font-size="11" lengthAdjust="spacing" textLength="191" x="1233" y="670.0908">+DoseInfo(dosage, timeSinceLastDose)</text><text fill="#000000" font-family="sans-serif" font-size="11" lengthAdjust="spacing" textLength="136" x="1233" y="683.9268">+validateDoseInfo(doseInfo)</text><!--MD5=[339456cf89e0ad891edf44401ad6e7c8]
class DoseInfoList--><rect codeLine="72" fill="#FEFECE" filter="url(#f1shlapd5dm4nd)" height="61.8359" id="DoseInfoList" style="stroke:#A80036;stroke-width:1.5;" width="129" x="1040" y="607.5"/><ellipse cx="1067.15" cy="623.5" fill="#ADD1B2" rx="11" ry="11" style="stroke:#A80036;stroke-width:1.0;"/><path d="M1069.9156,619.375 Q1070.0719,619.1563 1070.2594,619.0469 Q1070.4469,618.9375 1070.6656,618.9375 Q1071.0406,618.9375 1071.275,619.2031 Q1071.5094,619.4531 1071.5094,620.0625 L1071.5094,621.5156 Q1071.5094,622.125 1071.275,622.3906 Q1071.0406,622.6563 1070.6656,622.6563 Q1070.3219,622.6563 1070.1188,622.4531 Q1069.9156,622.2656 1069.8063,621.75 Q1069.7594,621.3906 1069.5719,621.2031 Q1069.2438,620.8281 1068.6344,620.6094 Q1068.025,620.3906 1067.4,620.3906 Q1066.6344,620.3906 1065.9938,620.7188 Q1065.3688,621.0469 1064.8688,621.7969 Q1064.3844,622.5469 1064.3844,623.5781 L1064.3844,624.6719 Q1064.3844,625.9063 1065.275,626.7344 Q1066.1656,627.5469 1067.7594,627.5469 Q1068.6969,627.5469 1069.3531,627.2969 Q1069.7438,627.1406 1070.1656,626.7031 Q1070.4313,626.4375 1070.5719,626.3594 Q1070.7281,626.2813 1070.9313,626.2813 Q1071.2594,626.2813 1071.5094,626.5469 Q1071.775,626.7969 1071.775,627.1406 Q1071.775,627.4844 1071.4313,627.8906 Q1070.9313,628.4688 1070.1344,628.7969 Q1069.0563,629.25 1067.7594,629.25 Q1066.2438,629.25 1065.0406,628.625 Q1064.0563,628.125 1063.3688,627.0625 Q1062.6813,625.9844 1062.6813,624.7031 L1062.6813,623.5469 Q1062.6813,622.2188 1063.2906,621.0781 Q1063.9156,619.9219 1065.0094,619.3125 Q1066.1031,618.6875 1067.3375,618.6875 Q1068.0719,618.6875 1068.7125,618.8594 Q1069.3688,619.0156 1069.9156,619.375 Z " fill="#000000"/><text fill="#000000" font-family="sans-serif" font-size="12" lengthAdjust="spacing" textLength="70" x="1083.85" y="628.4102">DoseInfoList</text><line style="stroke:#A80036;stroke-width:1.5;" x1="1041" x2="1168" y1="639.5" y2="639.5"/><line style="stroke:#A80036;stroke-width:1.5;" x1="1041" x2="1168" y1="647.5" y2="647.5"/><text fill="#000000" font-family="sans-serif" font-size="11" lengthAdjust="spacing" textLength="117" x="1046" y="662.9189">+addDoseInfo(doseInfo)</text><!--MD5=[14f3eaeb1b0ebc1656fc61686a3c4b1f]
class AdminProc--><rect fill="#FEFECE" filter="url(#f1shlapd5dm4nd)" height="48" id="AdminProc" style="stroke:#A80036;stroke-width:1.5;" width="92" x="890.5" y="614.5"/><ellipse cx="905.5" cy="630.5" fill="#ADD1B2" rx="11" ry="11" style="stroke:#A80036;stroke-width:1.0;"/><path d="M908.2656,626.375 Q908.4219,626.1563 908.6094,626.0469 Q908.7969,625.9375 909.0156,625.9375 Q909.3906,625.9375 909.625,626.2031 Q909.8594,626.4531 909.8594,627.0625 L909.8594,628.5156 Q909.8594,629.125 909.625,629.3906 Q909.3906,629.6563 909.0156,629.6563 Q908.6719,629.6563 908.4688,629.4531 Q908.2656,629.2656 908.1563,628.75 Q908.1094,628.3906 907.9219,628.2031 Q907.5938,627.8281 906.9844,627.6094 Q906.375,627.3906 905.75,627.3906 Q904.9844,627.3906 904.3438,627.7188 Q903.7188,628.0469 903.2188,628.7969 Q902.7344,629.5469 902.7344,630.5781 L902.7344,631.6719 Q902.7344,632.9063 903.625,633.7344 Q904.5156,634.5469 906.1094,634.5469 Q907.0469,634.5469 907.7031,634.2969 Q908.0938,634.1406 908.5156,633.7031 Q908.7813,633.4375 908.9219,633.3594 Q909.0781,633.2813 909.2813,633.2813 Q909.6094,633.2813 909.8594,633.5469 Q910.125,633.7969 910.125,634.1406 Q910.125,634.4844 909.7813,634.8906 Q909.2813,635.4688 908.4844,635.7969 Q907.4063,636.25 906.1094,636.25 Q904.5938,636.25 903.3906,635.625 Q902.4063,635.125 901.7188,634.0625 Q901.0313,632.9844 901.0313,631.7031 L901.0313,630.5469 Q901.0313,629.2188 901.6406,628.0781 Q902.2656,626.9219 903.3594,626.3125 Q904.4531,625.6875 905.6875,625.6875 Q906.4219,625.6875 907.0625,625.8594 Q907.7188,626.0156 908.2656,626.375 Z " fill="#000000"/><text fill="#000000" font-family="sans-serif" font-size="12" lengthAdjust="spacing" textLength="60" x="919.5" y="635.4102">AdminProc</text><line style="stroke:#A80036;stroke-width:1.5;" x1="891.5" x2="981.5" y1="646.5" y2="646.5"/><line style="stroke:#A80036;stroke-width:1.5;" x1="891.5" x2="981.5" y1="654.5" y2="654.5"/><!--MD5=[02600b383214ea09f6f5438791a5eae7]
link CreateVaccineUI to CreateVaccineController--><path codeLine="76" d="M249.5,96.5 C249.5,120.14 249.5,158.36 249.5,193.61 " fill="none" id="CreateVaccineUI-to-CreateVaccineController" style="stroke:#A80036;stroke-width:1.0;stroke-dasharray:7.0,7.0;"/><polygon fill="#A80036" points="249.5,198.78,253.5,189.78,249.5,193.78,245.5,189.78,249.5,198.78" style="stroke:#A80036;stroke-width:1.0;"/><!--MD5=[8d6413134506afd35ddfa2286e768630]
link CreateVaccineController to VaccineStore--><path codeLine="77" d="M249.5,358.2 C249.5,377.36 249.5,397.13 249.5,413.84 " fill="none" id="CreateVaccineController-to-VaccineStore" style="stroke:#A80036;stroke-width:1.0;stroke-dasharray:7.0,7.0;"/><polygon fill="#A80036" points="249.5,418.92,253.5,409.92,249.5,413.92,245.5,409.92,249.5,418.92" style="stroke:#A80036;stroke-width:1.0;"/><!--MD5=[af843e749ac4b58c51f05d94dd0db764]
link CreateVaccineController to VaccineTypeStore--><path codeLine="78" d="M355.18,358.2 C385.63,380.88 417.23,404.41 441.8,422.71 " fill="none" id="CreateVaccineController-to-VaccineTypeStore" style="stroke:#A80036;stroke-width:1.0;stroke-dasharray:7.0,7.0;"/><polygon fill="#A80036" points="445.99,425.83,441.1753,417.2382,441.9849,422.8368,436.3863,423.6464,445.99,425.83" style="stroke:#A80036;stroke-width:1.0;"/><!--MD5=[42307e333d6c68ea7829be91a170847b]
link CreateVaccineController to Company--><path codeLine="79" d="M152.21,358.22 C134.91,376.47 118.83,397.04 107.5,419 C80.01,472.25 73.03,541.73 71.76,587.89 " fill="none" id="CreateVaccineController-to-Company" style="stroke:#A80036;stroke-width:1.0;stroke-dasharray:7.0,7.0;"/><polygon fill="#A80036" points="71.64,593.12,75.87,584.2258,71.7685,588.1217,67.8727,584.0202,71.64,593.12" style="stroke:#A80036;stroke-width:1.0;"/><!--MD5=[092b7d00bf68b85aaa7460954b505b10]
link VaccineStore to Company--><path codeLine="80" d="M212.83,495.19 C185.78,522.62 148.75,560.17 119.53,589.81 " fill="none" id="VaccineStore-to-Company" style="stroke:#A80036;stroke-width:1.0;stroke-dasharray:7.0,7.0;"/><polygon fill="#A80036" points="116,593.38,125.1635,589.7702,119.5068,589.816,119.461,584.1593,116,593.38" style="stroke:#A80036;stroke-width:1.0;"/><!--MD5=[89791a9cd8c9c78fd39f4b892a053799]
link VaccineStore to Vaccine--><path codeLine="81" d="M270.22,495.19 C281.96,516.27 297.03,543.31 310.87,568.15 " fill="none" id="VaccineStore-to-Vaccine" style="stroke:#A80036;stroke-width:1.0;"/><polygon fill="#A80036" points="313.44,572.76,312.5414,562.9522,311.0009,568.3953,305.5578,566.8548,313.44,572.76" style="stroke:#A80036;stroke-width:1.0;"/><text fill="#000000" font-family="sans-serif" font-size="13" lengthAdjust="spacing" textLength="36" x="298.5" y="539.4951">stores</text><text fill="#000000" font-family="sans-serif" font-size="13" lengthAdjust="spacing" textLength="7" x="265.9644" y="516.1008">1</text><text fill="#000000" font-family="sans-serif" font-size="13" lengthAdjust="spacing" textLength="5" x="304.2225" y="562.2082">*</text><!--MD5=[7034737bc317f411392370dde4c019f1]
link VaccineTypeStore to Company--><path codeLine="82" d="M411.58,488.04 C404.82,490.49 398.06,492.84 391.5,495 C342.95,510.96 327.96,506.05 280.5,525 C232.87,544.02 182.2,571.26 142.79,594.18 " fill="none" id="VaccineTypeStore-to-Company" style="stroke:#A80036;stroke-width:1.0;stroke-dasharray:7.0,7.0;"/><polygon fill="#A80036" points="138.04,596.95,147.8299,595.8743,142.3599,594.4324,143.8018,588.9624,138.04,596.95" style="stroke:#A80036;stroke-width:1.0;"/><!--MD5=[d008df8d9f8e445f2ab98a1ffd9c1902]
link VaccineTypeStore to VaccineType--><path codeLine="83" d="M505.25,488.04 C522.41,515.55 548.12,556.76 568.2,588.94 " fill="none" id="VaccineTypeStore-to-VaccineType" style="stroke:#A80036;stroke-width:1.0;"/><polygon fill="#A80036" points="570.87,593.22,569.5068,583.4659,568.2264,588.976,562.7164,587.6957,570.87,593.22" style="stroke:#A80036;stroke-width:1.0;"/><text fill="#000000" font-family="sans-serif" font-size="13" lengthAdjust="spacing" textLength="36" x="539.5" y="539.4951">stores</text><text fill="#000000" font-family="sans-serif" font-size="13" lengthAdjust="spacing" textLength="7" x="501.2523" y="509.2719">1</text><text fill="#000000" font-family="sans-serif" font-size="13" lengthAdjust="spacing" textLength="5" x="561.2563" y="582.6212">*</text><!--MD5=[c29c8d42883934cbaf5793c72a334947]
link Company to Vaccine--><path codeLine="84" d="M138.15,638.5 C158.76,638.5 182.38,638.5 206.19,638.5 " fill="none" id="Company-to-Vaccine" style="stroke:#A80036;stroke-width:1.0;"/><polygon fill="#A80036" points="211.27,638.5,202.27,634.5,206.27,638.5,202.27,642.5,211.27,638.5" style="stroke:#A80036;stroke-width:1.0;"/><text fill="#000000" font-family="sans-serif" font-size="13" lengthAdjust="spacing" textLength="37" x="156.25" y="631.9951">knows</text><text fill="#000000" font-family="sans-serif" font-size="13" lengthAdjust="spacing" textLength="7" x="146.1455" y="635.1189">1</text><text fill="#000000" font-family="sans-serif" font-size="13" lengthAdjust="spacing" textLength="5" x="198.5738" y="635.5668">*</text><!--MD5=[8522b4121e4c2f8f851759c4722eb889]
link Vaccine to AdminProcList--><path codeLine="85" d="M448.27,572.94 C508.13,541.62 585.68,516.04 653,542 C684.91,554.31 713.18,581.1 732.56,603.34 " fill="none" id="Vaccine-to-AdminProcList" style="stroke:#A80036;stroke-width:1.0;"/><polygon fill="#A80036" points="735.83,607.15,732.9923,597.7188,732.569,603.3598,726.928,602.9364,735.83,607.15" style="stroke:#A80036;stroke-width:1.0;"/><text fill="#000000" font-family="sans-serif" font-size="13" lengthAdjust="spacing" textLength="21" x="631" y="539.4951">has</text><text fill="#000000" font-family="sans-serif" font-size="13" lengthAdjust="spacing" textLength="7" x="452.2856" y="561.9492">1</text><text fill="#000000" font-family="sans-serif" font-size="13" lengthAdjust="spacing" textLength="7" x="723.2262" y="596.5824">1</text><!--MD5=[3568623adf67b2630dce9e60c05bd02a]
link Vaccine to VaccineType--><path codeLine="86" d="M487.83,638.5 C506.14,638.5 524.04,638.5 539.93,638.5 " fill="none" id="Vaccine-to-VaccineType" style="stroke:#A80036;stroke-width:1.0;"/><polygon fill="#A80036" points="545.23,638.5,536.23,634.5,540.23,638.5,536.23,642.5,545.23,638.5" style="stroke:#A80036;stroke-width:1.0;"/><text fill="#000000" font-family="sans-serif" font-size="13" lengthAdjust="spacing" textLength="21" x="506" y="631.9951">has</text><text fill="#000000" font-family="sans-serif" font-size="13" lengthAdjust="spacing" textLength="7" x="495.5863" y="635.5668">1</text><text fill="#000000" font-family="sans-serif" font-size="13" lengthAdjust="spacing" textLength="7" x="530.6015" y="634.9768">1</text><!--MD5=[51d577136b45d340f35b5d61990ec227]
link AdminProcList to AdminProc--><path codeLine="87" d="M832.51,638.5 C850.29,638.5 868.93,638.5 885.44,638.5 " fill="none" id="AdminProcList-to-AdminProc" style="stroke:#A80036;stroke-width:1.0;"/><polygon fill="#A80036" points="890.49,638.5,881.49,634.5,885.49,638.5,881.49,642.5,890.49,638.5" style="stroke:#A80036;stroke-width:1.0;"/><text fill="#000000" font-family="sans-serif" font-size="13" lengthAdjust="spacing" textLength="21" x="851" y="631.9951">has</text><text fill="#000000" font-family="sans-serif" font-size="13" lengthAdjust="spacing" textLength="7" x="840.4001" y="635.1967">1</text><text fill="#000000" font-family="sans-serif" font-size="13" lengthAdjust="spacing" textLength="5" x="877.4555" y="634.6992">*</text><!--MD5=[2c10158463d5fcc56c20e6f14ae55ddb]
link AdminProc to DoseInfoList--><path codeLine="88" d="M982.85,638.5 C998.78,638.5 1016.99,638.5 1034.38,638.5 " fill="none" id="AdminProc-to-DoseInfoList" style="stroke:#A80036;stroke-width:1.0;"/><polygon fill="#A80036" points="1039.75,638.5,1030.75,634.5,1034.75,638.5,1030.75,642.5,1039.75,638.5" style="stroke:#A80036;stroke-width:1.0;"/><text fill="#000000" font-family="sans-serif" font-size="13" lengthAdjust="spacing" textLength="21" x="1000.75" y="631.9951">has</text><text fill="#000000" font-family="sans-serif" font-size="13" lengthAdjust="spacing" textLength="7" x="990.4833" y="634.797">1</text><text fill="#000000" font-family="sans-serif" font-size="13" lengthAdjust="spacing" textLength="7" x="1024.8586" y="635.0999">1</text><!--MD5=[2f6fd6d93a921ef975bb0bdd83d0bbcc]
link DoseInfoList to DoseInfo--><path codeLine="89" d="M1169.29,638.5 C1185.71,638.5 1203.78,638.5 1221.68,638.5 " fill="none" id="DoseInfoList-to-DoseInfo" style="stroke:#A80036;stroke-width:1.0;"/><polygon fill="#A80036" points="1226.72,638.5,1217.72,634.5,1221.72,638.5,1217.72,642.5,1226.72,638.5" style="stroke:#A80036;stroke-width:1.0;"/><text fill="#000000" font-family="sans-serif" font-size="13" lengthAdjust="spacing" textLength="21" x="1187.5" y="631.9951">has</text><text fill="#000000" font-family="sans-serif" font-size="13" lengthAdjust="spacing" textLength="7" x="1177.186" y="635.0999">1</text><text fill="#000000" font-family="sans-serif" font-size="13" lengthAdjust="spacing" textLength="5" x="1214.0619" y="635.4079">*</text><!--MD5=[4a814fc3f242c23273e14d87ec877b2a]
@startuml
skinparam classAttributeIconSize 0

class CreateVaccineUI{

}

class CreateVaccineController{
    +getVacTypes()
    +getVaccines()
    +createVaccine(designation, id, brand, vacTypeId)
    +createAdminProc(minAge, maxAge, numberOfDoses)
    +saveAdminProc()
    +createDoseInfo(dosage, timaToNextDose)
    +saveDoseInfo()
    +saveVaccine()
}

class Company{
    -designation : String

    +getVaccineTypeStore()
    +getVaccineStore()
}

class VaccineTypeStore{
    +getVacTypeById(vacTypeId)
}

class VaccineStore{
    +createVaccine(designation, id, brand, vacType)
    +validateVaccine(vac)
}

class Vaccine{
    -designation : String
    -brand : String
    -id : String
    -vacType : VaccineType

    +Vaccine(designation, id, brand, vacTypeId)
    +createAdminProc(minAge, maxAge, numberOfDoses)
}

class VaccineType{
    -code : String
    -description : String
    -tecnhology : String
}

class AdminProccess{
    -numberOfDoses : int
    -minAge : int
    -maxAge : int

    +AdminProcess(minAge, maxAge, numberOfDoses)
    +createDoseInfo(dosage, timeSinceLastDose)
    +validateAdminProc(adminProc)
}

class AdminProcList{
    +addAdminProc(adminProc)
}

class DoseInfo{
    -dosage : int
    -timeSinceLastDose : int

    +DoseInfo(dosage, timeSinceLastDose)
    +validateDoseInfo(doseInfo)
}

class DoseInfoList{
    +addDoseInfo(doseInfo)
}

CreateVaccineUI ..> CreateVaccineController
CreateVaccineController ..> VaccineStore
CreateVaccineController ..> VaccineTypeStore
CreateVaccineController ..> Company
VaccineStore ..> Company
VaccineStore "1" -> "*" Vaccine : stores
VaccineTypeStore ..> Company
VaccineTypeStore "1" -> "*" VaccineType : stores
Company "1" -> "*" Vaccine : knows
Vaccine "1" -> "1" AdminProcList : has
Vaccine "1" -> "1" VaccineType : has
AdminProcList "1" -> "*" AdminProc : has
AdminProc "1" -> "1" DoseInfoList : has
DoseInfoList "1" -> "*" DoseInfo : has

@enduml

PlantUML version 1.2022.0(Tue Jan 11 16:16:42 WET 2022)
(GPL source distribution)
Java Runtime: OpenJDK Runtime Environment
JVM: OpenJDK 64-Bit Server VM
Default Encoding: Cp1252
Language: pt
Country: PT
--></g></svg>