<?xml version="1.0" encoding="UTF-8" standalone="no"?><svg xmlns="http://www.w3.org/2000/svg" xmlns:xlink="http://www.w3.org/1999/xlink" contentScriptType="application/ecmascript" contentStyleType="text/css" height="648px" preserveAspectRatio="none" style="width:1554px;height:648px;background:#FFFFFF;" version="1.1" viewBox="0 0 1554 648" width="1554px" zoomAndPan="magnify"><defs><filter height="300%" id="f1lutv07okxb1u" width="300%" x="-1" y="-1"><feGaussianBlur result="blurOut" stdDeviation="2.0"/><feColorMatrix in="blurOut" result="blurOut2" type="matrix" values="0 0 0 0 0 0 0 0 0 0 0 0 0 0 0 0 0 0 .4 0"/><feOffset dx="4.0" dy="4.0" in="blurOut2" result="blurOut3"/><feBlend in="SourceGraphic" in2="blurOut3" mode="normal"/></filter></defs><g><!--MD5=[eaecac35bfcc867594b40553749164d3]
class CreateVaccineUI--><rect codeLine="3" fill="#FEFECE" filter="url(#f1lutv07okxb1u)" height="48" id="CreateVaccineUI" style="stroke:#A80036;stroke-width:1.5;" width="124" x="187.5" y="7"/><ellipse cx="202.5" cy="23" fill="#ADD1B2" rx="11" ry="11" style="stroke:#A80036;stroke-width:1.0;"/><path d="M205.2656,18.875 Q205.4219,18.6563 205.6094,18.5469 Q205.7969,18.4375 206.0156,18.4375 Q206.3906,18.4375 206.625,18.7031 Q206.8594,18.9531 206.8594,19.5625 L206.8594,21.0156 Q206.8594,21.625 206.625,21.8906 Q206.3906,22.1563 206.0156,22.1563 Q205.6719,22.1563 205.4688,21.9531 Q205.2656,21.7656 205.1563,21.25 Q205.1094,20.8906 204.9219,20.7031 Q204.5938,20.3281 203.9844,20.1094 Q203.375,19.8906 202.75,19.8906 Q201.9844,19.8906 201.3438,20.2188 Q200.7188,20.5469 200.2188,21.2969 Q199.7344,22.0469 199.7344,23.0781 L199.7344,24.1719 Q199.7344,25.4063 200.625,26.2344 Q201.5156,27.0469 203.1094,27.0469 Q204.0469,27.0469 204.7031,26.7969 Q205.0938,26.6406 205.5156,26.2031 Q205.7813,25.9375 205.9219,25.8594 Q206.0781,25.7813 206.2813,25.7813 Q206.6094,25.7813 206.8594,26.0469 Q207.125,26.2969 207.125,26.6406 Q207.125,26.9844 206.7813,27.3906 Q206.2813,27.9688 205.4844,28.2969 Q204.4063,28.75 203.1094,28.75 Q201.5938,28.75 200.3906,28.125 Q199.4063,27.625 198.7188,26.5625 Q198.0313,25.4844 198.0313,24.2031 L198.0313,23.0469 Q198.0313,21.7188 198.6406,20.5781 Q199.2656,19.4219 200.3594,18.8125 Q201.4531,18.1875 202.6875,18.1875 Q203.4219,18.1875 204.0625,18.3594 Q204.7188,18.5156 205.2656,18.875 Z " fill="#000000"/><text fill="#000000" font-family="sans-serif" font-size="12" lengthAdjust="spacing" textLength="92" x="216.5" y="27.9102">CreateVaccineUI</text><line style="stroke:#A80036;stroke-width:1.5;" x1="188.5" x2="310.5" y1="39" y2="39"/><line style="stroke:#A80036;stroke-width:1.5;" x1="188.5" x2="310.5" y1="47" y2="47"/><!--MD5=[e3fe9ca45d675002756d7970c4653999]
class CreateVaccineController--><rect codeLine="7" fill="#FEFECE" filter="url(#f1lutv07okxb1u)" height="158.6875" id="CreateVaccineController" style="stroke:#A80036;stroke-width:1.5;" width="276" x="111.5" y="116"/><ellipse cx="178.25" cy="132" fill="#ADD1B2" rx="11" ry="11" style="stroke:#A80036;stroke-width:1.0;"/><path d="M181.0156,127.875 Q181.1719,127.6563 181.3594,127.5469 Q181.5469,127.4375 181.7656,127.4375 Q182.1406,127.4375 182.375,127.7031 Q182.6094,127.9531 182.6094,128.5625 L182.6094,130.0156 Q182.6094,130.625 182.375,130.8906 Q182.1406,131.1563 181.7656,131.1563 Q181.4219,131.1563 181.2188,130.9531 Q181.0156,130.7656 180.9063,130.25 Q180.8594,129.8906 180.6719,129.7031 Q180.3438,129.3281 179.7344,129.1094 Q179.125,128.8906 178.5,128.8906 Q177.7344,128.8906 177.0938,129.2188 Q176.4688,129.5469 175.9688,130.2969 Q175.4844,131.0469 175.4844,132.0781 L175.4844,133.1719 Q175.4844,134.4063 176.375,135.2344 Q177.2656,136.0469 178.8594,136.0469 Q179.7969,136.0469 180.4531,135.7969 Q180.8438,135.6406 181.2656,135.2031 Q181.5313,134.9375 181.6719,134.8594 Q181.8281,134.7813 182.0313,134.7813 Q182.3594,134.7813 182.6094,135.0469 Q182.875,135.2969 182.875,135.6406 Q182.875,135.9844 182.5313,136.3906 Q182.0313,136.9688 181.2344,137.2969 Q180.1563,137.75 178.8594,137.75 Q177.3438,137.75 176.1406,137.125 Q175.1563,136.625 174.4688,135.5625 Q173.7813,134.4844 173.7813,133.2031 L173.7813,132.0469 Q173.7813,130.7188 174.3906,129.5781 Q175.0156,128.4219 176.1094,127.8125 Q177.2031,127.1875 178.4375,127.1875 Q179.1719,127.1875 179.8125,127.3594 Q180.4688,127.5156 181.0156,127.875 Z " fill="#000000"/><text fill="#000000" font-family="sans-serif" font-size="12" lengthAdjust="spacing" textLength="134" x="198.75" y="136.9102">CreateVaccineController</text><line style="stroke:#A80036;stroke-width:1.5;" x1="112.5" x2="386.5" y1="148" y2="148"/><line style="stroke:#A80036;stroke-width:1.5;" x1="112.5" x2="386.5" y1="156" y2="156"/><text fill="#000000" font-family="sans-serif" font-size="11" lengthAdjust="spacing" textLength="79" x="117.5" y="171.4189">+getVacTypes()</text><text fill="#000000" font-family="sans-serif" font-size="11" lengthAdjust="spacing" textLength="75" x="117.5" y="185.2549">+getVaccines()</text><text fill="#000000" font-family="sans-serif" font-size="11" lengthAdjust="spacing" textLength="244" x="117.5" y="199.0908">+createVaccine(designation, id, brand, vacTypeId)</text><text fill="#000000" font-family="sans-serif" font-size="11" lengthAdjust="spacing" textLength="264" x="117.5" y="212.9268">+createAdminProc(minAge, maxAge, numberOfDoses)</text><text fill="#000000" font-family="sans-serif" font-size="11" lengthAdjust="spacing" textLength="90" x="117.5" y="226.7627">+saveAdminProc()</text><text fill="#000000" font-family="sans-serif" font-size="11" lengthAdjust="spacing" textLength="208" x="117.5" y="240.5986">+createDoseInfo(dosage, timaToNextDose)</text><text fill="#000000" font-family="sans-serif" font-size="11" lengthAdjust="spacing" textLength="81" x="117.5" y="254.4346">+saveDoseInfo()</text><text fill="#000000" font-family="sans-serif" font-size="11" lengthAdjust="spacing" textLength="78" x="117.5" y="268.2705">+saveVaccine()</text><!--MD5=[02e4b9b7573f1156f41e60aa5b4e25a4]
class Company--><rect codeLine="18" fill="#FEFECE" filter="url(#f1lutv07okxb1u)" height="89.5078" id="Company" style="stroke:#A80036;stroke-width:1.5;" width="131" x="7" y="517.5"/><ellipse cx="42.7" cy="533.5" fill="#ADD1B2" rx="11" ry="11" style="stroke:#A80036;stroke-width:1.0;"/><path d="M45.4656,529.375 Q45.6219,529.1563 45.8094,529.0469 Q45.9969,528.9375 46.2156,528.9375 Q46.5906,528.9375 46.825,529.2031 Q47.0594,529.4531 47.0594,530.0625 L47.0594,531.5156 Q47.0594,532.125 46.825,532.3906 Q46.5906,532.6563 46.2156,532.6563 Q45.8719,532.6563 45.6688,532.4531 Q45.4656,532.2656 45.3563,531.75 Q45.3094,531.3906 45.1219,531.2031 Q44.7938,530.8281 44.1844,530.6094 Q43.575,530.3906 42.95,530.3906 Q42.1844,530.3906 41.5438,530.7188 Q40.9188,531.0469 40.4188,531.7969 Q39.9344,532.5469 39.9344,533.5781 L39.9344,534.6719 Q39.9344,535.9063 40.825,536.7344 Q41.7156,537.5469 43.3094,537.5469 Q44.2469,537.5469 44.9031,537.2969 Q45.2938,537.1406 45.7156,536.7031 Q45.9813,536.4375 46.1219,536.3594 Q46.2781,536.2813 46.4813,536.2813 Q46.8094,536.2813 47.0594,536.5469 Q47.325,536.7969 47.325,537.1406 Q47.325,537.4844 46.9813,537.8906 Q46.4813,538.4688 45.6844,538.7969 Q44.6063,539.25 43.3094,539.25 Q41.7938,539.25 40.5906,538.625 Q39.6063,538.125 38.9188,537.0625 Q38.2313,535.9844 38.2313,534.7031 L38.2313,533.5469 Q38.2313,532.2188 38.8406,531.0781 Q39.4656,529.9219 40.5594,529.3125 Q41.6531,528.6875 42.8875,528.6875 Q43.6219,528.6875 44.2625,528.8594 Q44.9188,529.0156 45.4656,529.375 Z " fill="#000000"/><text fill="#000000" font-family="sans-serif" font-size="12" lengthAdjust="spacing" textLength="53" x="61.3" y="538.4102">Company</text><line style="stroke:#A80036;stroke-width:1.5;" x1="8" x2="137" y1="549.5" y2="549.5"/><text fill="#000000" font-family="sans-serif" font-size="11" lengthAdjust="spacing" textLength="96" x="13" y="564.9189">-designation : String</text><line style="stroke:#A80036;stroke-width:1.5;" x1="8" x2="137" y1="571.3359" y2="571.3359"/><text fill="#000000" font-family="sans-serif" font-size="11" lengthAdjust="spacing" textLength="119" x="13" y="586.7549">+getVaccineTypeStore()</text><text fill="#000000" font-family="sans-serif" font-size="11" lengthAdjust="spacing" textLength="95" x="13" y="600.5908">+getVaccineStore()</text><!--MD5=[9532c95099058dfe385d7270fd32fc0d]
class VaccineTypeStore--><rect codeLine="25" fill="#FEFECE" filter="url(#f1lutv07okxb1u)" height="61.8359" id="VaccineTypeStore" style="stroke:#A80036;stroke-width:1.5;" width="156" x="408.5" y="343"/><ellipse cx="435.2" cy="359" fill="#ADD1B2" rx="11" ry="11" style="stroke:#A80036;stroke-width:1.0;"/><path d="M437.9656,354.875 Q438.1219,354.6563 438.3094,354.5469 Q438.4969,354.4375 438.7156,354.4375 Q439.0906,354.4375 439.325,354.7031 Q439.5594,354.9531 439.5594,355.5625 L439.5594,357.0156 Q439.5594,357.625 439.325,357.8906 Q439.0906,358.1563 438.7156,358.1563 Q438.3719,358.1563 438.1688,357.9531 Q437.9656,357.7656 437.8563,357.25 Q437.8094,356.8906 437.6219,356.7031 Q437.2938,356.3281 436.6844,356.1094 Q436.075,355.8906 435.45,355.8906 Q434.6844,355.8906 434.0438,356.2188 Q433.4188,356.5469 432.9188,357.2969 Q432.4344,358.0469 432.4344,359.0781 L432.4344,360.1719 Q432.4344,361.4063 433.325,362.2344 Q434.2156,363.0469 435.8094,363.0469 Q436.7469,363.0469 437.4031,362.7969 Q437.7938,362.6406 438.2156,362.2031 Q438.4813,361.9375 438.6219,361.8594 Q438.7781,361.7813 438.9813,361.7813 Q439.3094,361.7813 439.5594,362.0469 Q439.825,362.2969 439.825,362.6406 Q439.825,362.9844 439.4813,363.3906 Q438.9813,363.9688 438.1844,364.2969 Q437.1063,364.75 435.8094,364.75 Q434.2938,364.75 433.0906,364.125 Q432.1063,363.625 431.4188,362.5625 Q430.7313,361.4844 430.7313,360.2031 L430.7313,359.0469 Q430.7313,357.7188 431.3406,356.5781 Q431.9656,355.4219 433.0594,354.8125 Q434.1531,354.1875 435.3875,354.1875 Q436.1219,354.1875 436.7625,354.3594 Q437.4188,354.5156 437.9656,354.875 Z " fill="#000000"/><text fill="#000000" font-family="sans-serif" font-size="12" lengthAdjust="spacing" textLength="98" x="451.8" y="363.9102">VaccineTypeStore</text><line style="stroke:#A80036;stroke-width:1.5;" x1="409.5" x2="563.5" y1="375" y2="375"/><line style="stroke:#A80036;stroke-width:1.5;" x1="409.5" x2="563.5" y1="383" y2="383"/><text fill="#000000" font-family="sans-serif" font-size="11" lengthAdjust="spacing" textLength="144" x="414.5" y="398.4189">+getVacTypeById(vacTypeId)</text><!--MD5=[16e898dea44373438d7a6991ca77efa0]
class VaccineStore--><rect codeLine="29" fill="#FEFECE" filter="url(#f1lutv07okxb1u)" height="75.6719" id="VaccineStore" style="stroke:#A80036;stroke-width:1.5;" width="248" x="125.5" y="336"/><ellipse cx="209.25" cy="352" fill="#ADD1B2" rx="11" ry="11" style="stroke:#A80036;stroke-width:1.0;"/><path d="M212.0156,347.875 Q212.1719,347.6563 212.3594,347.5469 Q212.5469,347.4375 212.7656,347.4375 Q213.1406,347.4375 213.375,347.7031 Q213.6094,347.9531 213.6094,348.5625 L213.6094,350.0156 Q213.6094,350.625 213.375,350.8906 Q213.1406,351.1563 212.7656,351.1563 Q212.4219,351.1563 212.2188,350.9531 Q212.0156,350.7656 211.9063,350.25 Q211.8594,349.8906 211.6719,349.7031 Q211.3438,349.3281 210.7344,349.1094 Q210.125,348.8906 209.5,348.8906 Q208.7344,348.8906 208.0938,349.2188 Q207.4688,349.5469 206.9688,350.2969 Q206.4844,351.0469 206.4844,352.0781 L206.4844,353.1719 Q206.4844,354.4063 207.375,355.2344 Q208.2656,356.0469 209.8594,356.0469 Q210.7969,356.0469 211.4531,355.7969 Q211.8438,355.6406 212.2656,355.2031 Q212.5313,354.9375 212.6719,354.8594 Q212.8281,354.7813 213.0313,354.7813 Q213.3594,354.7813 213.6094,355.0469 Q213.875,355.2969 213.875,355.6406 Q213.875,355.9844 213.5313,356.3906 Q213.0313,356.9688 212.2344,357.2969 Q211.1563,357.75 209.8594,357.75 Q208.3438,357.75 207.1406,357.125 Q206.1563,356.625 205.4688,355.5625 Q204.7813,354.4844 204.7813,353.2031 L204.7813,352.0469 Q204.7813,350.7188 205.3906,349.5781 Q206.0156,348.4219 207.1094,347.8125 Q208.2031,347.1875 209.4375,347.1875 Q210.1719,347.1875 210.8125,347.3594 Q211.4688,347.5156 212.0156,347.875 Z " fill="#000000"/><text fill="#000000" font-family="sans-serif" font-size="12" lengthAdjust="spacing" textLength="72" x="229.75" y="356.9102">VaccineStore</text><line style="stroke:#A80036;stroke-width:1.5;" x1="126.5" x2="372.5" y1="368" y2="368"/><line style="stroke:#A80036;stroke-width:1.5;" x1="126.5" x2="372.5" y1="376" y2="376"/><text fill="#000000" font-family="sans-serif" font-size="11" lengthAdjust="spacing" textLength="236" x="131.5" y="391.4189">+createVaccine(designation, id, brand, vacType)</text><text fill="#000000" font-family="sans-serif" font-size="11" lengthAdjust="spacing" textLength="109" x="131.5" y="405.2549">+validateVaccine(vac)</text><!--MD5=[19e445fc4d3b48519cbe33da05496394]
class Vaccine--><rect codeLine="34" fill="#FEFECE" filter="url(#f1lutv07okxb1u)" height="144.8516" id="Vaccine" style="stroke:#A80036;stroke-width:1.5;" width="276" x="211.5" y="490"/><ellipse cx="323.75" cy="506" fill="#ADD1B2" rx="11" ry="11" style="stroke:#A80036;stroke-width:1.0;"/><path d="M326.5156,501.875 Q326.6719,501.6563 326.8594,501.5469 Q327.0469,501.4375 327.2656,501.4375 Q327.6406,501.4375 327.875,501.7031 Q328.1094,501.9531 328.1094,502.5625 L328.1094,504.0156 Q328.1094,504.625 327.875,504.8906 Q327.6406,505.1563 327.2656,505.1563 Q326.9219,505.1563 326.7188,504.9531 Q326.5156,504.7656 326.4063,504.25 Q326.3594,503.8906 326.1719,503.7031 Q325.8438,503.3281 325.2344,503.1094 Q324.625,502.8906 324,502.8906 Q323.2344,502.8906 322.5938,503.2188 Q321.9688,503.5469 321.4688,504.2969 Q320.9844,505.0469 320.9844,506.0781 L320.9844,507.1719 Q320.9844,508.4063 321.875,509.2344 Q322.7656,510.0469 324.3594,510.0469 Q325.2969,510.0469 325.9531,509.7969 Q326.3438,509.6406 326.7656,509.2031 Q327.0313,508.9375 327.1719,508.8594 Q327.3281,508.7813 327.5313,508.7813 Q327.8594,508.7813 328.1094,509.0469 Q328.375,509.2969 328.375,509.6406 Q328.375,509.9844 328.0313,510.3906 Q327.5313,510.9688 326.7344,511.2969 Q325.6563,511.75 324.3594,511.75 Q322.8438,511.75 321.6406,511.125 Q320.6563,510.625 319.9688,509.5625 Q319.2813,508.4844 319.2813,507.2031 L319.2813,506.0469 Q319.2813,504.7188 319.8906,503.5781 Q320.5156,502.4219 321.6094,501.8125 Q322.7031,501.1875 323.9375,501.1875 Q324.6719,501.1875 325.3125,501.3594 Q325.9688,501.5156 326.5156,501.875 Z " fill="#000000"/><text fill="#000000" font-family="sans-serif" font-size="12" lengthAdjust="spacing" textLength="43" x="344.25" y="510.9102">Vaccine</text><line style="stroke:#A80036;stroke-width:1.5;" x1="212.5" x2="486.5" y1="522" y2="522"/><text fill="#000000" font-family="sans-serif" font-size="11" lengthAdjust="spacing" textLength="96" x="217.5" y="537.4189">-designation : String</text><text fill="#000000" font-family="sans-serif" font-size="11" lengthAdjust="spacing" textLength="69" x="217.5" y="551.2549">-brand : String</text><text fill="#000000" font-family="sans-serif" font-size="11" lengthAdjust="spacing" textLength="49" x="217.5" y="565.0908">-id : String</text><text fill="#000000" font-family="sans-serif" font-size="11" lengthAdjust="spacing" textLength="91" x="217.5" y="578.9268">-vacTypeId : String</text><line style="stroke:#A80036;stroke-width:1.5;" x1="212.5" x2="486.5" y1="585.3438" y2="585.3438"/><text fill="#000000" font-family="sans-serif" font-size="11" lengthAdjust="spacing" textLength="196" x="217.5" y="600.7627">+create(designation, id, brand, vacType)</text><text fill="#000000" font-family="sans-serif" font-size="11" lengthAdjust="spacing" textLength="264" x="217.5" y="614.5986">+createAdminProc(minAge, maxAge, numberOfDoses)</text><text fill="#000000" font-family="sans-serif" font-size="11" lengthAdjust="spacing" textLength="153" x="217.5" y="628.4346">+validateAdminProc(adminProc)</text><!--MD5=[0e501da62322464167c8ec4d233a6b7e]
class VaccineType--><rect codeLine="45" fill="#FEFECE" filter="url(#f1lutv07okxb1u)" height="89.5078" id="VaccineType" style="stroke:#A80036;stroke-width:1.5;" width="106" x="545.5" y="517.5"/><ellipse cx="562.75" cy="533.5" fill="#ADD1B2" rx="11" ry="11" style="stroke:#A80036;stroke-width:1.0;"/><path d="M565.5156,529.375 Q565.6719,529.1563 565.8594,529.0469 Q566.0469,528.9375 566.2656,528.9375 Q566.6406,528.9375 566.875,529.2031 Q567.1094,529.4531 567.1094,530.0625 L567.1094,531.5156 Q567.1094,532.125 566.875,532.3906 Q566.6406,532.6563 566.2656,532.6563 Q565.9219,532.6563 565.7188,532.4531 Q565.5156,532.2656 565.4063,531.75 Q565.3594,531.3906 565.1719,531.2031 Q564.8438,530.8281 564.2344,530.6094 Q563.625,530.3906 563,530.3906 Q562.2344,530.3906 561.5938,530.7188 Q560.9688,531.0469 560.4688,531.7969 Q559.9844,532.5469 559.9844,533.5781 L559.9844,534.6719 Q559.9844,535.9063 560.875,536.7344 Q561.7656,537.5469 563.3594,537.5469 Q564.2969,537.5469 564.9531,537.2969 Q565.3438,537.1406 565.7656,536.7031 Q566.0313,536.4375 566.1719,536.3594 Q566.3281,536.2813 566.5313,536.2813 Q566.8594,536.2813 567.1094,536.5469 Q567.375,536.7969 567.375,537.1406 Q567.375,537.4844 567.0313,537.8906 Q566.5313,538.4688 565.7344,538.7969 Q564.6563,539.25 563.3594,539.25 Q561.8438,539.25 560.6406,538.625 Q559.6563,538.125 558.9688,537.0625 Q558.2813,535.9844 558.2813,534.7031 L558.2813,533.5469 Q558.2813,532.2188 558.8906,531.0781 Q559.5156,529.9219 560.6094,529.3125 Q561.7031,528.6875 562.9375,528.6875 Q563.6719,528.6875 564.3125,528.8594 Q564.9688,529.0156 565.5156,529.375 Z " fill="#000000"/><text fill="#000000" font-family="sans-serif" font-size="12" lengthAdjust="spacing" textLength="69" x="577.25" y="538.4102">VaccineType</text><line style="stroke:#A80036;stroke-width:1.5;" x1="546.5" x2="650.5" y1="549.5" y2="549.5"/><text fill="#000000" font-family="sans-serif" font-size="11" lengthAdjust="spacing" textLength="65" x="551.5" y="564.9189">-code : String</text><text fill="#000000" font-family="sans-serif" font-size="11" lengthAdjust="spacing" textLength="94" x="551.5" y="578.7549">-description : String</text><text fill="#000000" font-family="sans-serif" font-size="11" lengthAdjust="spacing" textLength="94" x="551.5" y="592.5908">-tecnhology : String</text><line style="stroke:#A80036;stroke-width:1.5;" x1="546.5" x2="650.5" y1="599.0078" y2="599.0078"/><!--MD5=[14f3eaeb1b0ebc1656fc61686a3c4b1f]
class AdminProc--><rect codeLine="51" fill="#FEFECE" filter="url(#f1lutv07okxb1u)" height="131.0156" id="AdminProc" style="stroke:#A80036;stroke-width:1.5;" width="234" x="890.5" y="497"/><ellipse cx="973.25" cy="513" fill="#ADD1B2" rx="11" ry="11" style="stroke:#A80036;stroke-width:1.0;"/><path d="M976.0156,508.875 Q976.1719,508.6563 976.3594,508.5469 Q976.5469,508.4375 976.7656,508.4375 Q977.1406,508.4375 977.375,508.7031 Q977.6094,508.9531 977.6094,509.5625 L977.6094,511.0156 Q977.6094,511.625 977.375,511.8906 Q977.1406,512.1563 976.7656,512.1563 Q976.4219,512.1563 976.2188,511.9531 Q976.0156,511.7656 975.9063,511.25 Q975.8594,510.8906 975.6719,510.7031 Q975.3438,510.3281 974.7344,510.1094 Q974.125,509.8906 973.5,509.8906 Q972.7344,509.8906 972.0938,510.2188 Q971.4688,510.5469 970.9688,511.2969 Q970.4844,512.0469 970.4844,513.0781 L970.4844,514.1719 Q970.4844,515.4063 971.375,516.2344 Q972.2656,517.0469 973.8594,517.0469 Q974.7969,517.0469 975.4531,516.7969 Q975.8438,516.6406 976.2656,516.2031 Q976.5313,515.9375 976.6719,515.8594 Q976.8281,515.7813 977.0313,515.7813 Q977.3594,515.7813 977.6094,516.0469 Q977.875,516.2969 977.875,516.6406 Q977.875,516.9844 977.5313,517.3906 Q977.0313,517.9688 976.2344,518.2969 Q975.1563,518.75 973.8594,518.75 Q972.3438,518.75 971.1406,518.125 Q970.1563,517.625 969.4688,516.5625 Q968.7813,515.4844 968.7813,514.2031 L968.7813,513.0469 Q968.7813,511.7188 969.3906,510.5781 Q970.0156,509.4219 971.1094,508.8125 Q972.2031,508.1875 973.4375,508.1875 Q974.1719,508.1875 974.8125,508.3594 Q975.4688,508.5156 976.0156,508.875 Z " fill="#000000"/><text fill="#000000" font-family="sans-serif" font-size="12" lengthAdjust="spacing" textLength="60" x="993.75" y="517.9102">AdminProc</text><line style="stroke:#A80036;stroke-width:1.5;" x1="891.5" x2="1123.5" y1="529" y2="529"/><text fill="#000000" font-family="sans-serif" font-size="11" lengthAdjust="spacing" textLength="103" x="896.5" y="544.4189">-numberOfDoses : int</text><text fill="#000000" font-family="sans-serif" font-size="11" lengthAdjust="spacing" textLength="60" x="896.5" y="558.2549">-minAge : int</text><text fill="#000000" font-family="sans-serif" font-size="11" lengthAdjust="spacing" textLength="64" x="896.5" y="572.0908">-maxAge : int</text><line style="stroke:#A80036;stroke-width:1.5;" x1="891.5" x2="1123.5" y1="578.5078" y2="578.5078"/><text fill="#000000" font-family="sans-serif" font-size="11" lengthAdjust="spacing" textLength="212" x="896.5" y="593.9268">+create(minAge, maxAge, numberOfDoses)</text><text fill="#000000" font-family="sans-serif" font-size="11" lengthAdjust="spacing" textLength="222" x="896.5" y="607.7627">+createDoseInfo(dosage, timeSinceLastDose)</text><text fill="#000000" font-family="sans-serif" font-size="11" lengthAdjust="spacing" textLength="136" x="896.5" y="621.5986">+validateDoseInfo(doseInfo)</text><!--MD5=[f177b56963e282037ff390baffee633e]
class AdminProcList--><rect codeLine="61" fill="#FEFECE" filter="url(#f1lutv07okxb1u)" height="61.8359" id="AdminProcList" style="stroke:#A80036;stroke-width:1.5;" width="146" x="686.5" y="531.5"/><ellipse cx="716.8" cy="547.5" fill="#ADD1B2" rx="11" ry="11" style="stroke:#A80036;stroke-width:1.0;"/><path d="M719.5656,543.375 Q719.7219,543.1563 719.9094,543.0469 Q720.0969,542.9375 720.3156,542.9375 Q720.6906,542.9375 720.925,543.2031 Q721.1594,543.4531 721.1594,544.0625 L721.1594,545.5156 Q721.1594,546.125 720.925,546.3906 Q720.6906,546.6563 720.3156,546.6563 Q719.9719,546.6563 719.7688,546.4531 Q719.5656,546.2656 719.4563,545.75 Q719.4094,545.3906 719.2219,545.2031 Q718.8938,544.8281 718.2844,544.6094 Q717.675,544.3906 717.05,544.3906 Q716.2844,544.3906 715.6438,544.7188 Q715.0188,545.0469 714.5188,545.7969 Q714.0344,546.5469 714.0344,547.5781 L714.0344,548.6719 Q714.0344,549.9063 714.925,550.7344 Q715.8156,551.5469 717.4094,551.5469 Q718.3469,551.5469 719.0031,551.2969 Q719.3938,551.1406 719.8156,550.7031 Q720.0813,550.4375 720.2219,550.3594 Q720.3781,550.2813 720.5813,550.2813 Q720.9094,550.2813 721.1594,550.5469 Q721.425,550.7969 721.425,551.1406 Q721.425,551.4844 721.0813,551.8906 Q720.5813,552.4688 719.7844,552.7969 Q718.7063,553.25 717.4094,553.25 Q715.8938,553.25 714.6906,552.625 Q713.7063,552.125 713.0188,551.0625 Q712.3313,549.9844 712.3313,548.7031 L712.3313,547.5469 Q712.3313,546.2188 712.9406,545.0781 Q713.5656,543.9219 714.6594,543.3125 Q715.7531,542.6875 716.9875,542.6875 Q717.7219,542.6875 718.3625,542.8594 Q719.0188,543.0156 719.5656,543.375 Z " fill="#000000"/><text fill="#000000" font-family="sans-serif" font-size="12" lengthAdjust="spacing" textLength="80" x="734.2" y="552.4102">AdminProcList</text><line style="stroke:#A80036;stroke-width:1.5;" x1="687.5" x2="831.5" y1="563.5" y2="563.5"/><line style="stroke:#A80036;stroke-width:1.5;" x1="687.5" x2="831.5" y1="571.5" y2="571.5"/><text fill="#000000" font-family="sans-serif" font-size="11" lengthAdjust="spacing" textLength="134" x="692.5" y="586.9189">+addAdminProc(adminProc)</text><!--MD5=[62bd593c579e801ebafec35b8d46a56f]
class DoseInfo--><rect codeLine="65" fill="#FEFECE" filter="url(#f1lutv07okxb1u)" height="89.5078" id="DoseInfo" style="stroke:#A80036;stroke-width:1.5;" width="171" x="1369" y="517.5"/><ellipse cx="1425.25" cy="533.5" fill="#ADD1B2" rx="11" ry="11" style="stroke:#A80036;stroke-width:1.0;"/><path d="M1428.0156,529.375 Q1428.1719,529.1563 1428.3594,529.0469 Q1428.5469,528.9375 1428.7656,528.9375 Q1429.1406,528.9375 1429.375,529.2031 Q1429.6094,529.4531 1429.6094,530.0625 L1429.6094,531.5156 Q1429.6094,532.125 1429.375,532.3906 Q1429.1406,532.6563 1428.7656,532.6563 Q1428.4219,532.6563 1428.2188,532.4531 Q1428.0156,532.2656 1427.9063,531.75 Q1427.8594,531.3906 1427.6719,531.2031 Q1427.3438,530.8281 1426.7344,530.6094 Q1426.125,530.3906 1425.5,530.3906 Q1424.7344,530.3906 1424.0938,530.7188 Q1423.4688,531.0469 1422.9688,531.7969 Q1422.4844,532.5469 1422.4844,533.5781 L1422.4844,534.6719 Q1422.4844,535.9063 1423.375,536.7344 Q1424.2656,537.5469 1425.8594,537.5469 Q1426.7969,537.5469 1427.4531,537.2969 Q1427.8438,537.1406 1428.2656,536.7031 Q1428.5313,536.4375 1428.6719,536.3594 Q1428.8281,536.2813 1429.0313,536.2813 Q1429.3594,536.2813 1429.6094,536.5469 Q1429.875,536.7969 1429.875,537.1406 Q1429.875,537.4844 1429.5313,537.8906 Q1429.0313,538.4688 1428.2344,538.7969 Q1427.1563,539.25 1425.8594,539.25 Q1424.3438,539.25 1423.1406,538.625 Q1422.1563,538.125 1421.4688,537.0625 Q1420.7813,535.9844 1420.7813,534.7031 L1420.7813,533.5469 Q1420.7813,532.2188 1421.3906,531.0781 Q1422.0156,529.9219 1423.1094,529.3125 Q1424.2031,528.6875 1425.4375,528.6875 Q1426.1719,528.6875 1426.8125,528.8594 Q1427.4688,529.0156 1428.0156,529.375 Z " fill="#000000"/><text fill="#000000" font-family="sans-serif" font-size="12" lengthAdjust="spacing" textLength="50" x="1445.75" y="538.4102">DoseInfo</text><line style="stroke:#A80036;stroke-width:1.5;" x1="1370" x2="1539" y1="549.5" y2="549.5"/><text fill="#000000" font-family="sans-serif" font-size="11" lengthAdjust="spacing" textLength="60" x="1375" y="564.9189">-dosage : int</text><text fill="#000000" font-family="sans-serif" font-size="11" lengthAdjust="spacing" textLength="102" x="1375" y="578.7549">-timeToNextDose : int</text><line style="stroke:#A80036;stroke-width:1.5;" x1="1370" x2="1539" y1="585.1719" y2="585.1719"/><text fill="#000000" font-family="sans-serif" font-size="11" lengthAdjust="spacing" textLength="159" x="1375" y="600.5908">+creat(dosage, timeToNextDose)</text><!--MD5=[339456cf89e0ad891edf44401ad6e7c8]
class DoseInfoList--><rect codeLine="72" fill="#FEFECE" filter="url(#f1lutv07okxb1u)" height="61.8359" id="DoseInfoList" style="stroke:#A80036;stroke-width:1.5;" width="129" x="1182" y="531.5"/><ellipse cx="1209.15" cy="547.5" fill="#ADD1B2" rx="11" ry="11" style="stroke:#A80036;stroke-width:1.0;"/><path d="M1211.9156,543.375 Q1212.0719,543.1563 1212.2594,543.0469 Q1212.4469,542.9375 1212.6656,542.9375 Q1213.0406,542.9375 1213.275,543.2031 Q1213.5094,543.4531 1213.5094,544.0625 L1213.5094,545.5156 Q1213.5094,546.125 1213.275,546.3906 Q1213.0406,546.6563 1212.6656,546.6563 Q1212.3219,546.6563 1212.1188,546.4531 Q1211.9156,546.2656 1211.8063,545.75 Q1211.7594,545.3906 1211.5719,545.2031 Q1211.2438,544.8281 1210.6344,544.6094 Q1210.025,544.3906 1209.4,544.3906 Q1208.6344,544.3906 1207.9938,544.7188 Q1207.3688,545.0469 1206.8688,545.7969 Q1206.3844,546.5469 1206.3844,547.5781 L1206.3844,548.6719 Q1206.3844,549.9063 1207.275,550.7344 Q1208.1656,551.5469 1209.7594,551.5469 Q1210.6969,551.5469 1211.3531,551.2969 Q1211.7438,551.1406 1212.1656,550.7031 Q1212.4313,550.4375 1212.5719,550.3594 Q1212.7281,550.2813 1212.9313,550.2813 Q1213.2594,550.2813 1213.5094,550.5469 Q1213.775,550.7969 1213.775,551.1406 Q1213.775,551.4844 1213.4313,551.8906 Q1212.9313,552.4688 1212.1344,552.7969 Q1211.0563,553.25 1209.7594,553.25 Q1208.2438,553.25 1207.0406,552.625 Q1206.0563,552.125 1205.3688,551.0625 Q1204.6813,549.9844 1204.6813,548.7031 L1204.6813,547.5469 Q1204.6813,546.2188 1205.2906,545.0781 Q1205.9156,543.9219 1207.0094,543.3125 Q1208.1031,542.6875 1209.3375,542.6875 Q1210.0719,542.6875 1210.7125,542.8594 Q1211.3688,543.0156 1211.9156,543.375 Z " fill="#000000"/><text fill="#000000" font-family="sans-serif" font-size="12" lengthAdjust="spacing" textLength="70" x="1225.85" y="552.4102">DoseInfoList</text><line style="stroke:#A80036;stroke-width:1.5;" x1="1183" x2="1310" y1="563.5" y2="563.5"/><line style="stroke:#A80036;stroke-width:1.5;" x1="1183" x2="1310" y1="571.5" y2="571.5"/><text fill="#000000" font-family="sans-serif" font-size="11" lengthAdjust="spacing" textLength="117" x="1188" y="586.9189">+addDoseInfo(doseInfo)</text><!--MD5=[02600b383214ea09f6f5438791a5eae7]
link CreateVaccineUI to CreateVaccineController--><path codeLine="76" d="M249.5,55.28 C249.5,70.09 249.5,90.25 249.5,110.63 " fill="none" id="CreateVaccineUI-to-CreateVaccineController" style="stroke:#A80036;stroke-width:1.0;stroke-dasharray:7.0,7.0;"/><polygon fill="#A80036" points="249.5,115.82,253.5,106.82,249.5,110.82,245.5,106.82,249.5,115.82" style="stroke:#A80036;stroke-width:1.0;"/><!--MD5=[8d6413134506afd35ddfa2286e768630]
link CreateVaccineController to VaccineStore--><path codeLine="77" d="M249.5,275.2 C249.5,294.36 249.5,314.13 249.5,330.84 " fill="none" id="CreateVaccineController-to-VaccineStore" style="stroke:#A80036;stroke-width:1.0;stroke-dasharray:7.0,7.0;"/><polygon fill="#A80036" points="249.5,335.92,253.5,326.92,249.5,330.92,245.5,326.92,249.5,335.92" style="stroke:#A80036;stroke-width:1.0;"/><!--MD5=[af843e749ac4b58c51f05d94dd0db764]
link CreateVaccineController to VaccineTypeStore--><path codeLine="78" d="M355.18,275.2 C385.63,297.88 417.23,321.41 441.8,339.71 " fill="none" id="CreateVaccineController-to-VaccineTypeStore" style="stroke:#A80036;stroke-width:1.0;stroke-dasharray:7.0,7.0;"/><polygon fill="#A80036" points="445.99,342.83,441.1753,334.2382,441.9849,339.8368,436.3863,340.6464,445.99,342.83" style="stroke:#A80036;stroke-width:1.0;"/><!--MD5=[42307e333d6c68ea7829be91a170847b]
link CreateVaccineController to Company--><path codeLine="79" d="M152.12,275.18 C134.84,293.43 118.78,314.02 107.5,336 C78.88,391.77 72.27,464.75 71.39,512.36 " fill="none" id="CreateVaccineController-to-Company" style="stroke:#A80036;stroke-width:1.0;stroke-dasharray:7.0,7.0;"/><polygon fill="#A80036" points="71.32,517.46,75.4737,508.5299,71.4057,512.4607,67.4749,508.3928,71.32,517.46" style="stroke:#A80036;stroke-width:1.0;"/><!--MD5=[092b7d00bf68b85aaa7460954b505b10]
link VaccineStore to Company--><path codeLine="80" d="M214.11,412.29 C186.48,441.4 147.89,482.06 117.97,513.59 " fill="none" id="VaccineStore-to-Company" style="stroke:#A80036;stroke-width:1.0;stroke-dasharray:7.0,7.0;"/><polygon fill="#A80036" points="114.37,517.38,123.4664,513.6044,117.8115,513.7529,117.663,508.098,114.37,517.38" style="stroke:#A80036;stroke-width:1.0;"/><!--MD5=[89791a9cd8c9c78fd39f4b892a053799]
link VaccineStore to Vaccine--><path codeLine="81" d="M269.5,412.29 C280.71,433.21 295.12,460.08 308.61,485.25 " fill="none" id="VaccineStore-to-Vaccine" style="stroke:#A80036;stroke-width:1.0;"/><polygon fill="#A80036" points="311.12,489.92,310.3959,480.0978,308.7589,485.5126,303.3441,483.8756,311.12,489.92" style="stroke:#A80036;stroke-width:1.0;"/><text fill="#000000" font-family="sans-serif" font-size="13" lengthAdjust="spacing" textLength="36" x="295.5" y="456.4951">stores</text><text fill="#000000" font-family="sans-serif" font-size="13" lengthAdjust="spacing" textLength="7" x="265.1297" y="433.2167">1</text><text fill="#000000" font-family="sans-serif" font-size="13" lengthAdjust="spacing" textLength="5" x="301.9043" y="479.1311">*</text><!--MD5=[7034737bc317f411392370dde4c019f1]
link VaccineTypeStore to Company--><path codeLine="82" d="M411.58,405.04 C404.82,407.49 398.06,409.84 391.5,412 C342.95,427.96 327.88,422.85 280.5,442 C239.56,458.55 231.85,468.1 193.5,490 C177.04,499.4 159.42,509.68 142.87,519.44 " fill="none" id="VaccineTypeStore-to-Company" style="stroke:#A80036;stroke-width:1.0;stroke-dasharray:7.0,7.0;"/><polygon fill="#A80036" points="138.23,522.18,148.0145,521.0561,142.5375,519.6412,143.9524,514.1641,138.23,522.18" style="stroke:#A80036;stroke-width:1.0;"/><!--MD5=[d008df8d9f8e445f2ab98a1ffd9c1902]
link VaccineTypeStore to VaccineType--><path codeLine="83" d="M504.74,405.38 C522.18,434.42 548.77,478.69 569.18,512.68 " fill="none" id="VaccineTypeStore-to-VaccineType" style="stroke:#A80036;stroke-width:1.0;"/><polygon fill="#A80036" points="571.89,517.2,570.6895,507.4246,569.3175,512.9125,563.8296,511.5405,571.89,517.2" style="stroke:#A80036;stroke-width:1.0;"/><text fill="#000000" font-family="sans-serif" font-size="13" lengthAdjust="spacing" textLength="36" x="536.5" y="456.4951">stores</text><text fill="#000000" font-family="sans-serif" font-size="13" lengthAdjust="spacing" textLength="7" x="500.5498" y="426.4311">1</text><text fill="#000000" font-family="sans-serif" font-size="13" lengthAdjust="spacing" textLength="5" x="562.4325" y="506.5982">*</text><!--MD5=[c29c8d42883934cbaf5793c72a334947]
link Company to Vaccine--><path codeLine="84" d="M138.15,562.5 C158.76,562.5 182.38,562.5 206.19,562.5 " fill="none" id="Company-to-Vaccine" style="stroke:#A80036;stroke-width:1.0;"/><polygon fill="#A80036" points="211.27,562.5,202.27,558.5,206.27,562.5,202.27,566.5,211.27,562.5" style="stroke:#A80036;stroke-width:1.0;"/><text fill="#000000" font-family="sans-serif" font-size="13" lengthAdjust="spacing" textLength="37" x="156.25" y="555.9951">knows</text><text fill="#000000" font-family="sans-serif" font-size="13" lengthAdjust="spacing" textLength="7" x="146.1455" y="559.1189">1</text><text fill="#000000" font-family="sans-serif" font-size="13" lengthAdjust="spacing" textLength="5" x="198.5738" y="559.5713">*</text><!--MD5=[8522b4121e4c2f8f851759c4722eb889]
link Vaccine to AdminProcList--><path codeLine="85" d="M454.17,489.97 C513.17,458.32 587.88,433.75 653,460 C686.52,473.51 715.4,503.18 734.59,527.14 " fill="none" id="Vaccine-to-AdminProcList" style="stroke:#A80036;stroke-width:1.0;"/><polygon fill="#A80036" points="737.82,531.24,735.385,521.6969,734.7227,527.3149,729.1048,526.6526,737.82,531.24" style="stroke:#A80036;stroke-width:1.0;"/><text fill="#000000" font-family="sans-serif" font-size="13" lengthAdjust="spacing" textLength="21" x="631" y="456.4951">has</text><text fill="#000000" font-family="sans-serif" font-size="13" lengthAdjust="spacing" textLength="7" x="457.6032" y="479.1862">1</text><text fill="#000000" font-family="sans-serif" font-size="13" lengthAdjust="spacing" textLength="7" x="725.6266" y="520.6909">1</text><!--MD5=[3568623adf67b2630dce9e60c05bd02a]
link Vaccine to VaccineType--><path codeLine="86" d="M487.83,562.5 C506.14,562.5 524.04,562.5 539.93,562.5 " fill="none" id="Vaccine-to-VaccineType" style="stroke:#A80036;stroke-width:1.0;"/><polygon fill="#A80036" points="545.23,562.5,536.23,558.5,540.23,562.5,536.23,566.5,545.23,562.5" style="stroke:#A80036;stroke-width:1.0;"/><text fill="#000000" font-family="sans-serif" font-size="13" lengthAdjust="spacing" textLength="21" x="506" y="555.9951">has</text><text fill="#000000" font-family="sans-serif" font-size="13" lengthAdjust="spacing" textLength="7" x="495.5863" y="559.5713">1</text><text fill="#000000" font-family="sans-serif" font-size="13" lengthAdjust="spacing" textLength="7" x="530.6015" y="558.9768">1</text><!--MD5=[51d577136b45d340f35b5d61990ec227]
link AdminProcList to AdminProc--><path codeLine="87" d="M832.57,562.5 C849.15,562.5 867.21,562.5 885.22,562.5 " fill="none" id="AdminProcList-to-AdminProc" style="stroke:#A80036;stroke-width:1.0;"/><polygon fill="#A80036" points="890.3,562.5,881.3,558.5,885.3,562.5,881.3,566.5,890.3,562.5" style="stroke:#A80036;stroke-width:1.0;"/><text fill="#000000" font-family="sans-serif" font-size="13" lengthAdjust="spacing" textLength="21" x="851" y="555.9951">has</text><text fill="#000000" font-family="sans-serif" font-size="13" lengthAdjust="spacing" textLength="7" x="840.4663" y="559.1967">1</text><text fill="#000000" font-family="sans-serif" font-size="13" lengthAdjust="spacing" textLength="5" x="877.6317" y="559.4934">*</text><!--MD5=[2c10158463d5fcc56c20e6f14ae55ddb]
link AdminProc to DoseInfoList--><path codeLine="88" d="M1124.55,562.5 C1142.45,562.5 1160.42,562.5 1176.86,562.5 " fill="none" id="AdminProc-to-DoseInfoList" style="stroke:#A80036;stroke-width:1.0;"/><polygon fill="#A80036" points="1181.91,562.5,1172.91,558.5,1176.91,562.5,1172.91,566.5,1181.91,562.5" style="stroke:#A80036;stroke-width:1.0;"/><text fill="#000000" font-family="sans-serif" font-size="13" lengthAdjust="spacing" textLength="21" x="1142.75" y="555.9951">has</text><text fill="#000000" font-family="sans-serif" font-size="13" lengthAdjust="spacing" textLength="7" x="1132.6495" y="559.4689">1</text><text fill="#000000" font-family="sans-serif" font-size="13" lengthAdjust="spacing" textLength="7" x="1167.0371" y="559.0999">1</text><!--MD5=[2f6fd6d93a921ef975bb0bdd83d0bbcc]
link DoseInfoList to DoseInfo--><path codeLine="89" d="M1311.17,562.5 C1327.71,562.5 1345.8,562.5 1363.39,562.5 " fill="none" id="DoseInfoList-to-DoseInfo" style="stroke:#A80036;stroke-width:1.0;"/><polygon fill="#A80036" points="1368.83,562.5,1359.83,558.5,1363.83,562.5,1359.83,566.5,1368.83,562.5" style="stroke:#A80036;stroke-width:1.0;"/><text fill="#000000" font-family="sans-serif" font-size="13" lengthAdjust="spacing" textLength="21" x="1329.5" y="555.9951">has</text><text fill="#000000" font-family="sans-serif" font-size="13" lengthAdjust="spacing" textLength="7" x="1319.0522" y="559.0999">1</text><text fill="#000000" font-family="sans-serif" font-size="13" lengthAdjust="spacing" textLength="5" x="1355.9774" y="559.3202">*</text><!--MD5=[635a89f74180c4ca26cc56de4e74baf7]
@startuml
skinparam classAttributeIconSize 0

class CreateVaccineUI{

}

class CreateVaccineController{
    +getVacTypes()
    +getVaccines()
    +createVaccine(designation, id, brand, vacTypeId)
    +createAdminProc(minAge, maxAge, numberOfDoses)
    +saveAdminProc()
    +createDoseInfo(dosage, timaToNextDose)
    +saveDoseInfo()
    +saveVaccine()
}

class Company{
    -designation : String

    +getVaccineTypeStore()
    +getVaccineStore()
}

class VaccineTypeStore{
    +getVacTypeById(vacTypeId)
}

class VaccineStore{
    +createVaccine(designation, id, brand, vacType)
    +validateVaccine(vac)
}

class Vaccine{
    -designation : String
    -brand : String
    -id : String
    -vacTypeId : String

    +create(designation, id, brand, vacType)
    +createAdminProc(minAge, maxAge, numberOfDoses)
    +validateAdminProc(adminProc)
}

class VaccineType{
    -code : String
    -description : String
    -tecnhology : String
}

class AdminProc{
    -numberOfDoses : int
    -minAge : int
    -maxAge : int

    +create(minAge, maxAge, numberOfDoses)
    +createDoseInfo(dosage, timeSinceLastDose)
    +validateDoseInfo(doseInfo)
}

class AdminProcList{
    +addAdminProc(adminProc)
}

class DoseInfo{
    -dosage : int
    -timeToNextDose : int

    +creat(dosage, timeToNextDose)
}

class DoseInfoList{
    +addDoseInfo(doseInfo)
}

CreateVaccineUI ..> CreateVaccineController
CreateVaccineController ..> VaccineStore
CreateVaccineController ..> VaccineTypeStore
CreateVaccineController ..> Company
VaccineStore ..> Company
VaccineStore "1" -> "*" Vaccine : stores
VaccineTypeStore ..> Company
VaccineTypeStore "1" -> "*" VaccineType : stores
Company "1" -> "*" Vaccine : knows
Vaccine "1" -> "1" AdminProcList : has
Vaccine "1" -> "1" VaccineType : has
AdminProcList "1" -> "*" AdminProc : has
AdminProc "1" -> "1" DoseInfoList : has
DoseInfoList "1" -> "*" DoseInfo : has

@enduml

PlantUML version 1.2022.0(Tue Jan 11 16:16:42 WET 2022)
(GPL source distribution)
Java Runtime: OpenJDK Runtime Environment
JVM: OpenJDK 64-Bit Server VM
Default Encoding: Cp1252
Language: pt
Country: PT
--></g></svg>