<?xml version="1.0" encoding="UTF-8" standalone="no"?><svg xmlns="http://www.w3.org/2000/svg" xmlns:xlink="http://www.w3.org/1999/xlink" contentScriptType="application/ecmascript" contentStyleType="text/css" height="689px" preserveAspectRatio="none" style="width:1086px;height:689px;background:#FFFFFF;" version="1.1" viewBox="0 0 1086 689" width="1086px" zoomAndPan="magnify"><defs><filter height="300%" id="f1fvbacftr5tq4" width="300%" x="-1" y="-1"><feGaussianBlur result="blurOut" stdDeviation="2.0"/><feColorMatrix in="blurOut" result="blurOut2" type="matrix" values="0 0 0 0 0 0 0 0 0 0 0 0 0 0 0 0 0 0 .4 0"/><feOffset dx="4.0" dy="4.0" in="blurOut2" result="blurOut3"/><feBlend in="SourceGraphic" in2="blurOut3" mode="normal"/></filter></defs><g><!--MD5=[e45a4727c47b726c25e081782e8bc183]
class ApplicationPOT--><rect codeLine="3" fill="#FEFECE" filter="url(#f1fvbacftr5tq4)" height="75.6719" id="ApplicationPOT" style="stroke:#A80036;stroke-width:1.5;" width="116" x="523" y="322"/><ellipse cx="538" cy="338" fill="#ADD1B2" rx="11" ry="11" style="stroke:#A80036;stroke-width:1.0;"/><path d="M540.7656,333.875 Q540.9219,333.6563 541.1094,333.5469 Q541.2969,333.4375 541.5156,333.4375 Q541.8906,333.4375 542.125,333.7031 Q542.3594,333.9531 542.3594,334.5625 L542.3594,336.0156 Q542.3594,336.625 542.125,336.8906 Q541.8906,337.1563 541.5156,337.1563 Q541.1719,337.1563 540.9688,336.9531 Q540.7656,336.7656 540.6563,336.25 Q540.6094,335.8906 540.4219,335.7031 Q540.0938,335.3281 539.4844,335.1094 Q538.875,334.8906 538.25,334.8906 Q537.4844,334.8906 536.8438,335.2188 Q536.2188,335.5469 535.7188,336.2969 Q535.2344,337.0469 535.2344,338.0781 L535.2344,339.1719 Q535.2344,340.4063 536.125,341.2344 Q537.0156,342.0469 538.6094,342.0469 Q539.5469,342.0469 540.2031,341.7969 Q540.5938,341.6406 541.0156,341.2031 Q541.2813,340.9375 541.4219,340.8594 Q541.5781,340.7813 541.7813,340.7813 Q542.1094,340.7813 542.3594,341.0469 Q542.625,341.2969 542.625,341.6406 Q542.625,341.9844 542.2813,342.3906 Q541.7813,342.9688 540.9844,343.2969 Q539.9063,343.75 538.6094,343.75 Q537.0938,343.75 535.8906,343.125 Q534.9063,342.625 534.2188,341.5625 Q533.5313,340.4844 533.5313,339.2031 L533.5313,338.0469 Q533.5313,336.7188 534.1406,335.5781 Q534.7656,334.4219 535.8594,333.8125 Q536.9531,333.1875 538.1875,333.1875 Q538.9219,333.1875 539.5625,333.3594 Q540.2188,333.5156 540.7656,333.875 Z " fill="#000000"/><text fill="#000000" font-family="sans-serif" font-size="12" lengthAdjust="spacing" textLength="84" x="552" y="342.9102">ApplicationPOT</text><line style="stroke:#A80036;stroke-width:1.5;" x1="524" x2="638" y1="354" y2="354"/><line style="stroke:#A80036;stroke-width:1.5;" x1="524" x2="638" y1="362" y2="362"/><text fill="#000000" font-family="sans-serif" font-size="11" lengthAdjust="spacing" textLength="99" x="529" y="377.4189">+static getInstance()</text><text fill="#000000" font-family="sans-serif" font-size="11" lengthAdjust="spacing" textLength="104" x="529" y="391.2549">+getCurrentSession()</text><!--MD5=[c5b08e60048ef1bcd788d24cf324082e]
class UserSession--><rect codeLine="9" fill="#FEFECE" filter="url(#f1fvbacftr5tq4)" height="61.8359" id="UserSession" style="stroke:#A80036;stroke-width:1.5;" width="105" x="674.5" y="329"/><ellipse cx="689.5" cy="345" fill="#ADD1B2" rx="11" ry="11" style="stroke:#A80036;stroke-width:1.0;"/><path d="M692.2656,340.875 Q692.4219,340.6563 692.6094,340.5469 Q692.7969,340.4375 693.0156,340.4375 Q693.3906,340.4375 693.625,340.7031 Q693.8594,340.9531 693.8594,341.5625 L693.8594,343.0156 Q693.8594,343.625 693.625,343.8906 Q693.3906,344.1563 693.0156,344.1563 Q692.6719,344.1563 692.4688,343.9531 Q692.2656,343.7656 692.1563,343.25 Q692.1094,342.8906 691.9219,342.7031 Q691.5938,342.3281 690.9844,342.1094 Q690.375,341.8906 689.75,341.8906 Q688.9844,341.8906 688.3438,342.2188 Q687.7188,342.5469 687.2188,343.2969 Q686.7344,344.0469 686.7344,345.0781 L686.7344,346.1719 Q686.7344,347.4063 687.625,348.2344 Q688.5156,349.0469 690.1094,349.0469 Q691.0469,349.0469 691.7031,348.7969 Q692.0938,348.6406 692.5156,348.2031 Q692.7813,347.9375 692.9219,347.8594 Q693.0781,347.7813 693.2813,347.7813 Q693.6094,347.7813 693.8594,348.0469 Q694.125,348.2969 694.125,348.6406 Q694.125,348.9844 693.7813,349.3906 Q693.2813,349.9688 692.4844,350.2969 Q691.4063,350.75 690.1094,350.75 Q688.5938,350.75 687.3906,350.125 Q686.4063,349.625 685.7188,348.5625 Q685.0313,347.4844 685.0313,346.2031 L685.0313,345.0469 Q685.0313,343.7188 685.6406,342.5781 Q686.2656,341.4219 687.3594,340.8125 Q688.4531,340.1875 689.6875,340.1875 Q690.4219,340.1875 691.0625,340.3594 Q691.7188,340.5156 692.2656,340.875 Z " fill="#000000"/><text fill="#000000" font-family="sans-serif" font-size="12" lengthAdjust="spacing" textLength="73" x="703.5" y="349.9102">UserSession</text><line style="stroke:#A80036;stroke-width:1.5;" x1="675.5" x2="778.5" y1="361" y2="361"/><line style="stroke:#A80036;stroke-width:1.5;" x1="675.5" x2="778.5" y1="369" y2="369"/><text fill="#000000" font-family="sans-serif" font-size="11" lengthAdjust="spacing" textLength="76" x="680.5" y="384.4189">+getUserEmail()</text><!--MD5=[b34797a66dc35cbf1d65f7e3ca75530e]
class Task--><rect codeLine="14" fill="#FEFECE" filter="url(#f1fvbacftr5tq4)" height="144.8516" id="Task" style="stroke:#A80036;stroke-width:1.5;" width="342" x="299" y="531"/><ellipse cx="452.25" cy="547" fill="#ADD1B2" rx="11" ry="11" style="stroke:#A80036;stroke-width:1.0;"/><path d="M455.0156,542.875 Q455.1719,542.6563 455.3594,542.5469 Q455.5469,542.4375 455.7656,542.4375 Q456.1406,542.4375 456.375,542.7031 Q456.6094,542.9531 456.6094,543.5625 L456.6094,545.0156 Q456.6094,545.625 456.375,545.8906 Q456.1406,546.1563 455.7656,546.1563 Q455.4219,546.1563 455.2188,545.9531 Q455.0156,545.7656 454.9063,545.25 Q454.8594,544.8906 454.6719,544.7031 Q454.3438,544.3281 453.7344,544.1094 Q453.125,543.8906 452.5,543.8906 Q451.7344,543.8906 451.0938,544.2188 Q450.4688,544.5469 449.9688,545.2969 Q449.4844,546.0469 449.4844,547.0781 L449.4844,548.1719 Q449.4844,549.4063 450.375,550.2344 Q451.2656,551.0469 452.8594,551.0469 Q453.7969,551.0469 454.4531,550.7969 Q454.8438,550.6406 455.2656,550.2031 Q455.5313,549.9375 455.6719,549.8594 Q455.8281,549.7813 456.0313,549.7813 Q456.3594,549.7813 456.6094,550.0469 Q456.875,550.2969 456.875,550.6406 Q456.875,550.9844 456.5313,551.3906 Q456.0313,551.9688 455.2344,552.2969 Q454.1563,552.75 452.8594,552.75 Q451.3438,552.75 450.1406,552.125 Q449.1563,551.625 448.4688,550.5625 Q447.7813,549.4844 447.7813,548.2031 L447.7813,547.0469 Q447.7813,545.7188 448.3906,544.5781 Q449.0156,543.4219 450.1094,542.8125 Q451.2031,542.1875 452.4375,542.1875 Q453.1719,542.1875 453.8125,542.3594 Q454.4688,542.5156 455.0156,542.875 Z " fill="#000000"/><text fill="#000000" font-family="sans-serif" font-size="12" lengthAdjust="spacing" textLength="27" x="472.75" y="551.9102">Task</text><line style="stroke:#A80036;stroke-width:1.5;" x1="300" x2="640" y1="563" y2="563"/><text fill="#000000" font-family="sans-serif" font-size="11" lengthAdjust="spacing" textLength="83" x="305" y="578.4189">-String reference</text><text fill="#000000" font-family="sans-serif" font-size="11" lengthAdjust="spacing" textLength="90" x="305" y="592.2549">-String designation</text><text fill="#000000" font-family="sans-serif" font-size="11" lengthAdjust="spacing" textLength="127" x="305" y="606.0908">-String informalDescription</text><text fill="#000000" font-family="sans-serif" font-size="11" lengthAdjust="spacing" textLength="132" x="305" y="619.9268">-String technicalDescription</text><text fill="#000000" font-family="sans-serif" font-size="11" lengthAdjust="spacing" textLength="79" x="305" y="633.7627">-Integer duration</text><text fill="#000000" font-family="sans-serif" font-size="11" lengthAdjust="spacing" textLength="61" x="305" y="647.5986">-Double cost</text><line style="stroke:#A80036;stroke-width:1.5;" x1="300" x2="640" y1="654.0156" y2="654.0156"/><text fill="#000000" font-family="sans-serif" font-size="11" lengthAdjust="spacing" textLength="330" x="305" y="669.4346">+Task(ref,designation,informalDesc,technicalDesc,duration,cost,cat)</text><!--MD5=[a96594a83e2ecdc78cbf17c2ddf01934]
class Category--><rect codeLine="24" fill="#FEFECE" filter="url(#f1fvbacftr5tq4)" height="75.6719" id="Category" style="stroke:#A80036;stroke-width:1.5;" width="100" x="783" y="565.5"/><ellipse cx="806.55" cy="581.5" fill="#ADD1B2" rx="11" ry="11" style="stroke:#A80036;stroke-width:1.0;"/><path d="M809.3156,577.375 Q809.4719,577.1563 809.6594,577.0469 Q809.8469,576.9375 810.0656,576.9375 Q810.4406,576.9375 810.675,577.2031 Q810.9094,577.4531 810.9094,578.0625 L810.9094,579.5156 Q810.9094,580.125 810.675,580.3906 Q810.4406,580.6563 810.0656,580.6563 Q809.7219,580.6563 809.5188,580.4531 Q809.3156,580.2656 809.2063,579.75 Q809.1594,579.3906 808.9719,579.2031 Q808.6438,578.8281 808.0344,578.6094 Q807.425,578.3906 806.8,578.3906 Q806.0344,578.3906 805.3938,578.7188 Q804.7688,579.0469 804.2688,579.7969 Q803.7844,580.5469 803.7844,581.5781 L803.7844,582.6719 Q803.7844,583.9063 804.675,584.7344 Q805.5656,585.5469 807.1594,585.5469 Q808.0969,585.5469 808.7531,585.2969 Q809.1438,585.1406 809.5656,584.7031 Q809.8313,584.4375 809.9719,584.3594 Q810.1281,584.2813 810.3313,584.2813 Q810.6594,584.2813 810.9094,584.5469 Q811.175,584.7969 811.175,585.1406 Q811.175,585.4844 810.8313,585.8906 Q810.3313,586.4688 809.5344,586.7969 Q808.4563,587.25 807.1594,587.25 Q805.6438,587.25 804.4406,586.625 Q803.4563,586.125 802.7688,585.0625 Q802.0813,583.9844 802.0813,582.7031 L802.0813,581.5469 Q802.0813,580.2188 802.6906,579.0781 Q803.3156,577.9219 804.4094,577.3125 Q805.5031,576.6875 806.7375,576.6875 Q807.4719,576.6875 808.1125,576.8594 Q808.7688,577.0156 809.3156,577.375 Z " fill="#000000"/><text fill="#000000" font-family="sans-serif" font-size="12" lengthAdjust="spacing" textLength="49" x="822.45" y="586.4102">Category</text><line style="stroke:#A80036;stroke-width:1.5;" x1="784" x2="882" y1="597.5" y2="597.5"/><text fill="#000000" font-family="sans-serif" font-size="11" lengthAdjust="spacing" textLength="43" x="789" y="612.9189">-String id</text><text fill="#000000" font-family="sans-serif" font-size="11" lengthAdjust="spacing" textLength="88" x="789" y="626.7549">-String description</text><line style="stroke:#A80036;stroke-width:1.5;" x1="784" x2="882" y1="633.1719" y2="633.1719"/><!--MD5=[86c7c362de55a38b660185a1328fe18d]
class Organization--><rect codeLine="29" fill="#FEFECE" filter="url(#f1fvbacftr5tq4)" height="186.3594" id="Organization" style="stroke:#A80036;stroke-width:1.5;" width="410" x="7" y="267"/><ellipse cx="173.25" cy="283" fill="#ADD1B2" rx="11" ry="11" style="stroke:#A80036;stroke-width:1.0;"/><path d="M176.0156,278.875 Q176.1719,278.6563 176.3594,278.5469 Q176.5469,278.4375 176.7656,278.4375 Q177.1406,278.4375 177.375,278.7031 Q177.6094,278.9531 177.6094,279.5625 L177.6094,281.0156 Q177.6094,281.625 177.375,281.8906 Q177.1406,282.1563 176.7656,282.1563 Q176.4219,282.1563 176.2188,281.9531 Q176.0156,281.7656 175.9063,281.25 Q175.8594,280.8906 175.6719,280.7031 Q175.3438,280.3281 174.7344,280.1094 Q174.125,279.8906 173.5,279.8906 Q172.7344,279.8906 172.0938,280.2188 Q171.4688,280.5469 170.9688,281.2969 Q170.4844,282.0469 170.4844,283.0781 L170.4844,284.1719 Q170.4844,285.4063 171.375,286.2344 Q172.2656,287.0469 173.8594,287.0469 Q174.7969,287.0469 175.4531,286.7969 Q175.8438,286.6406 176.2656,286.2031 Q176.5313,285.9375 176.6719,285.8594 Q176.8281,285.7813 177.0313,285.7813 Q177.3594,285.7813 177.6094,286.0469 Q177.875,286.2969 177.875,286.6406 Q177.875,286.9844 177.5313,287.3906 Q177.0313,287.9688 176.2344,288.2969 Q175.1563,288.75 173.8594,288.75 Q172.3438,288.75 171.1406,288.125 Q170.1563,287.625 169.4688,286.5625 Q168.7813,285.4844 168.7813,284.2031 L168.7813,283.0469 Q168.7813,281.7188 169.3906,280.5781 Q170.0156,279.4219 171.1094,278.8125 Q172.2031,278.1875 173.4375,278.1875 Q174.1719,278.1875 174.8125,278.3594 Q175.4688,278.5156 176.0156,278.875 Z " fill="#000000"/><text fill="#000000" font-family="sans-serif" font-size="12" lengthAdjust="spacing" textLength="69" x="193.75" y="287.9102">Organization</text><line style="stroke:#A80036;stroke-width:1.5;" x1="8" x2="416" y1="299" y2="299"/><text fill="#000000" font-family="sans-serif" font-size="11" lengthAdjust="spacing" textLength="61" x="13" y="314.4189">-String name</text><text fill="#000000" font-family="sans-serif" font-size="11" lengthAdjust="spacing" textLength="89" x="13" y="328.2549">-String VatNumber</text><text fill="#000000" font-family="sans-serif" font-size="11" lengthAdjust="spacing" textLength="74" x="13" y="342.0908">-String website</text><text fill="#000000" font-family="sans-serif" font-size="11" lengthAdjust="spacing" textLength="65" x="13" y="355.9268">-String phone</text><text fill="#000000" font-family="sans-serif" font-size="11" lengthAdjust="spacing" textLength="59" x="13" y="369.7627">-String email</text><line style="stroke:#A80036;stroke-width:1.5;" x1="8" x2="416" y1="376.1797" y2="376.1797"/><text fill="#000000" font-family="sans-serif" font-size="11" lengthAdjust="spacing" textLength="398" x="13" y="391.5986">+Organization(name, VatNumber, webSite, phone, email, postalAddress, manager)</text><text fill="#000000" font-family="sans-serif" font-size="11" lengthAdjust="spacing" textLength="361" x="13" y="405.4346">+createTask(ref,designation,informalDesc,technicalDesc,duration,cost,cat)</text><text fill="#000000" font-family="sans-serif" font-size="11" lengthAdjust="spacing" textLength="81" x="13" y="419.2705">+saveTask(task)</text><text fill="#000000" font-family="sans-serif" font-size="11" lengthAdjust="spacing" textLength="73" x="13" y="433.1064">-addTask(task)</text><text fill="#000000" font-family="sans-serif" font-size="11" lengthAdjust="spacing" textLength="92" x="13" y="446.9424">-validateTask(task)</text><!--MD5=[99b8db98afdc2c8404e39242ef4c1e65]
class Platform--><rect codeLine="42" fill="#FEFECE" filter="url(#f1fvbacftr5tq4)" height="103.3438" id="Platform" style="stroke:#A80036;stroke-width:1.5;" width="186" x="886" y="308.5"/><ellipse cx="951.75" cy="324.5" fill="#ADD1B2" rx="11" ry="11" style="stroke:#A80036;stroke-width:1.0;"/><path d="M954.5156,320.375 Q954.6719,320.1563 954.8594,320.0469 Q955.0469,319.9375 955.2656,319.9375 Q955.6406,319.9375 955.875,320.2031 Q956.1094,320.4531 956.1094,321.0625 L956.1094,322.5156 Q956.1094,323.125 955.875,323.3906 Q955.6406,323.6563 955.2656,323.6563 Q954.9219,323.6563 954.7188,323.4531 Q954.5156,323.2656 954.4063,322.75 Q954.3594,322.3906 954.1719,322.2031 Q953.8438,321.8281 953.2344,321.6094 Q952.625,321.3906 952,321.3906 Q951.2344,321.3906 950.5938,321.7188 Q949.9688,322.0469 949.4688,322.7969 Q948.9844,323.5469 948.9844,324.5781 L948.9844,325.6719 Q948.9844,326.9063 949.875,327.7344 Q950.7656,328.5469 952.3594,328.5469 Q953.2969,328.5469 953.9531,328.2969 Q954.3438,328.1406 954.7656,327.7031 Q955.0313,327.4375 955.1719,327.3594 Q955.3281,327.2813 955.5313,327.2813 Q955.8594,327.2813 956.1094,327.5469 Q956.375,327.7969 956.375,328.1406 Q956.375,328.4844 956.0313,328.8906 Q955.5313,329.4688 954.7344,329.7969 Q953.6563,330.25 952.3594,330.25 Q950.8438,330.25 949.6406,329.625 Q948.6563,329.125 947.9688,328.0625 Q947.2813,326.9844 947.2813,325.7031 L947.2813,324.5469 Q947.2813,323.2188 947.8906,322.0781 Q948.5156,320.9219 949.6094,320.3125 Q950.7031,319.6875 951.9375,319.6875 Q952.6719,319.6875 953.3125,319.8594 Q953.9688,320.0156 954.5156,320.375 Z " fill="#000000"/><text fill="#000000" font-family="sans-serif" font-size="12" lengthAdjust="spacing" textLength="46" x="972.25" y="329.4102">Platform</text><line style="stroke:#A80036;stroke-width:1.5;" x1="887" x2="1071" y1="340.5" y2="340.5"/><text fill="#000000" font-family="sans-serif" font-size="11" lengthAdjust="spacing" textLength="90" x="892" y="355.9189">-String designation</text><line style="stroke:#A80036;stroke-width:1.5;" x1="887" x2="1071" y1="362.3359" y2="362.3359"/><text fill="#000000" font-family="sans-serif" font-size="11" lengthAdjust="spacing" textLength="81" x="892" y="377.7549">+getCategories()</text><text fill="#000000" font-family="sans-serif" font-size="11" lengthAdjust="spacing" textLength="117" x="892" y="391.5908">+getCategoryById(catId)</text><text fill="#000000" font-family="sans-serif" font-size="11" lengthAdjust="spacing" textLength="174" x="892" y="405.4268">+getOrganizationByUserEmail(email)</text><!--MD5=[51de5e7b448e98e1f71289edad994864]
class CreateTaskController--><rect codeLine="49" fill="#FEFECE" filter="url(#f1fvbacftr5tq4)" height="89.5078" id="CreateTaskController" style="stroke:#A80036;stroke-width:1.5;" width="409" x="449.5" y="116"/><ellipse cx="590.75" cy="132" fill="#ADD1B2" rx="11" ry="11" style="stroke:#A80036;stroke-width:1.0;"/><path d="M593.5156,127.875 Q593.6719,127.6563 593.8594,127.5469 Q594.0469,127.4375 594.2656,127.4375 Q594.6406,127.4375 594.875,127.7031 Q595.1094,127.9531 595.1094,128.5625 L595.1094,130.0156 Q595.1094,130.625 594.875,130.8906 Q594.6406,131.1563 594.2656,131.1563 Q593.9219,131.1563 593.7188,130.9531 Q593.5156,130.7656 593.4063,130.25 Q593.3594,129.8906 593.1719,129.7031 Q592.8438,129.3281 592.2344,129.1094 Q591.625,128.8906 591,128.8906 Q590.2344,128.8906 589.5938,129.2188 Q588.9688,129.5469 588.4688,130.2969 Q587.9844,131.0469 587.9844,132.0781 L587.9844,133.1719 Q587.9844,134.4063 588.875,135.2344 Q589.7656,136.0469 591.3594,136.0469 Q592.2969,136.0469 592.9531,135.7969 Q593.3438,135.6406 593.7656,135.2031 Q594.0313,134.9375 594.1719,134.8594 Q594.3281,134.7813 594.5313,134.7813 Q594.8594,134.7813 595.1094,135.0469 Q595.375,135.2969 595.375,135.6406 Q595.375,135.9844 595.0313,136.3906 Q594.5313,136.9688 593.7344,137.2969 Q592.6563,137.75 591.3594,137.75 Q589.8438,137.75 588.6406,137.125 Q587.6563,136.625 586.9688,135.5625 Q586.2813,134.4844 586.2813,133.2031 L586.2813,132.0469 Q586.2813,130.7188 586.8906,129.5781 Q587.5156,128.4219 588.6094,127.8125 Q589.7031,127.1875 590.9375,127.1875 Q591.6719,127.1875 592.3125,127.3594 Q592.9688,127.5156 593.5156,127.875 Z " fill="#000000"/><text fill="#000000" font-family="sans-serif" font-size="12" lengthAdjust="spacing" textLength="118" x="611.25" y="136.9102">CreateTaskController</text><line style="stroke:#A80036;stroke-width:1.5;" x1="450.5" x2="857.5" y1="148" y2="148"/><line style="stroke:#A80036;stroke-width:1.5;" x1="450.5" x2="857.5" y1="156" y2="156"/><text fill="#000000" font-family="sans-serif" font-size="11" lengthAdjust="spacing" textLength="81" x="455.5" y="171.4189">+getCategories()</text><text fill="#000000" font-family="sans-serif" font-size="11" lengthAdjust="spacing" textLength="397" x="455.5" y="185.2549">+createTask(ref,designation,informalDesc,technicalDesc,duration,cost,categoryId)</text><text fill="#000000" font-family="sans-serif" font-size="11" lengthAdjust="spacing" textLength="61" x="455.5" y="199.0908">+saveTask()</text><!--MD5=[788566af22260aef45bcb38e0a2dd266]
class CreateTaskUI--><rect codeLine="55" fill="#FEFECE" filter="url(#f1fvbacftr5tq4)" height="48" id="CreateTaskUI" style="stroke:#A80036;stroke-width:1.5;" width="108" x="600" y="7"/><ellipse cx="615" cy="23" fill="#ADD1B2" rx="11" ry="11" style="stroke:#A80036;stroke-width:1.0;"/><path d="M617.7656,18.875 Q617.9219,18.6563 618.1094,18.5469 Q618.2969,18.4375 618.5156,18.4375 Q618.8906,18.4375 619.125,18.7031 Q619.3594,18.9531 619.3594,19.5625 L619.3594,21.0156 Q619.3594,21.625 619.125,21.8906 Q618.8906,22.1563 618.5156,22.1563 Q618.1719,22.1563 617.9688,21.9531 Q617.7656,21.7656 617.6563,21.25 Q617.6094,20.8906 617.4219,20.7031 Q617.0938,20.3281 616.4844,20.1094 Q615.875,19.8906 615.25,19.8906 Q614.4844,19.8906 613.8438,20.2188 Q613.2188,20.5469 612.7188,21.2969 Q612.2344,22.0469 612.2344,23.0781 L612.2344,24.1719 Q612.2344,25.4063 613.125,26.2344 Q614.0156,27.0469 615.6094,27.0469 Q616.5469,27.0469 617.2031,26.7969 Q617.5938,26.6406 618.0156,26.2031 Q618.2813,25.9375 618.4219,25.8594 Q618.5781,25.7813 618.7813,25.7813 Q619.1094,25.7813 619.3594,26.0469 Q619.625,26.2969 619.625,26.6406 Q619.625,26.9844 619.2813,27.3906 Q618.7813,27.9688 617.9844,28.2969 Q616.9063,28.75 615.6094,28.75 Q614.0938,28.75 612.8906,28.125 Q611.9063,27.625 611.2188,26.5625 Q610.5313,25.4844 610.5313,24.2031 L610.5313,23.0469 Q610.5313,21.7188 611.1406,20.5781 Q611.7656,19.4219 612.8594,18.8125 Q613.9531,18.1875 615.1875,18.1875 Q615.9219,18.1875 616.5625,18.3594 Q617.2188,18.5156 617.7656,18.875 Z " fill="#000000"/><text fill="#000000" font-family="sans-serif" font-size="12" lengthAdjust="spacing" textLength="76" x="629" y="27.9102">CreateTaskUI</text><line style="stroke:#A80036;stroke-width:1.5;" x1="601" x2="707" y1="39" y2="39"/><line style="stroke:#A80036;stroke-width:1.5;" x1="601" x2="707" y1="47" y2="47"/><!--MD5=[3c2021faa4730756a46abeb810188647]
link CreateTaskUI to CreateTaskController--><path codeLine="59" d="M654,55.18 C654,70.59 654,91.42 654,110.45 " fill="none" id="CreateTaskUI-to-CreateTaskController" style="stroke:#A80036;stroke-width:1.0;stroke-dasharray:7.0,7.0;"/><polygon fill="#A80036" points="654,115.76,658,106.76,654,110.76,650,106.76,654,115.76" style="stroke:#A80036;stroke-width:1.0;"/><!--MD5=[a4ec584e3b37d2304c777b6ab65750ce]
link CreateTaskController to Platform--><path codeLine="60" d="M801.51,206.04 C821.53,214.62 841.26,224.58 859,236 C887.69,254.47 914.7,280.99 935.8,304.68 " fill="none" id="CreateTaskController-to-Platform" style="stroke:#A80036;stroke-width:1.0;stroke-dasharray:7.0,7.0;"/><polygon fill="#A80036" points="939.14,308.46,936.1859,299.0646,935.8324,304.7104,930.1866,304.3568,939.14,308.46" style="stroke:#A80036;stroke-width:1.0;"/><!--MD5=[31449856cc093f06f4035ee47ec0212f]
link CreateTaskController to Category--><path codeLine="61" d="M737.84,206.09 C760.67,222.19 782.94,242.57 797,267 C850.82,360.53 845.83,493.16 838.79,560.2 " fill="none" id="CreateTaskController-to-Category" style="stroke:#A80036;stroke-width:1.0;stroke-dasharray:7.0,7.0;"/><polygon fill="#A80036" points="838.24,565.31,843.1691,556.7833,838.7686,560.338,835.214,555.9375,838.24,565.31" style="stroke:#A80036;stroke-width:1.0;"/><!--MD5=[20b3b25e5af19bf6c808e25d197bf54a]
link CreateTaskController to Task--><path codeLine="62" d="M565.47,206.2 C542.1,222.16 519.41,242.43 505,267 C458.63,346.05 455.88,453.83 460.74,525.67 " fill="none" id="CreateTaskController-to-Task" style="stroke:#A80036;stroke-width:1.0;stroke-dasharray:7.0,7.0;"/><polygon fill="#A80036" points="461.1,530.78,464.4467,521.5172,460.7427,525.7928,456.4672,522.0888,461.1,530.78" style="stroke:#A80036;stroke-width:1.0;"/><!--MD5=[7aee0bd92f6f97dbf4948ad9a4aaba5c]
link CreateTaskController to Organization--><path codeLine="63" d="M519.53,206.04 C494.18,215.28 468.07,225.45 444,236 C424.01,244.76 403.38,254.55 383.05,264.67 " fill="none" id="CreateTaskController-to-Organization" style="stroke:#A80036;stroke-width:1.0;stroke-dasharray:7.0,7.0;"/><polygon fill="#A80036" points="378.45,266.98,388.2893,266.5454,382.925,264.7497,384.7207,259.3854,378.45,266.98" style="stroke:#A80036;stroke-width:1.0;"/><!--MD5=[9b9d7a7f0bb222cdf729bdcb120f1330]
link CreateTaskController to ApplicationPOT--><path codeLine="64" d="M637.62,206.21 C625.32,239.4 608.58,284.56 596.5,317.17 " fill="none" id="CreateTaskController-to-ApplicationPOT" style="stroke:#A80036;stroke-width:1.0;stroke-dasharray:7.0,7.0;"/><polygon fill="#A80036" points="594.75,321.88,601.6177,314.8206,596.4805,317.189,594.1121,312.0518,594.75,321.88" style="stroke:#A80036;stroke-width:1.0;"/><!--MD5=[d36bb5b89fee6244034c385565d7ff7b]
link CreateTaskController to UserSession--><path codeLine="65" d="M670.38,206.21 C683.6,241.89 701.95,291.39 714.13,324.27 " fill="none" id="CreateTaskController-to-UserSession" style="stroke:#A80036;stroke-width:1.0;stroke-dasharray:7.0,7.0;"/><polygon fill="#A80036" points="715.88,329,716.5013,319.1708,714.1416,324.3119,709.0004,321.9522,715.88,329" style="stroke:#A80036;stroke-width:1.0;"/><!--MD5=[85b93ec21fe3232efb6e895d06aa0361]
link Task to Category--><path codeLine="66" d="M641.14,603.5 C690.52,603.5 740.93,603.5 777.68,603.5 " fill="none" id="Task-to-Category" style="stroke:#A80036;stroke-width:1.0;"/><polygon fill="#A80036" points="783,603.5,774,599.5,778,603.5,774,607.5,783,603.5" style="stroke:#A80036;stroke-width:1.0;"/><text fill="#000000" font-family="sans-serif" font-size="13" lengthAdjust="spacing" textLength="68" x="678" y="596.9951">classified in</text><text fill="#000000" font-family="sans-serif" font-size="13" lengthAdjust="spacing" textLength="5" x="649.0081" y="600.6439">*</text><text fill="#000000" font-family="sans-serif" font-size="13" lengthAdjust="spacing" textLength="7" x="768.1422" y="599.87">1</text><!--MD5=[703fa85125a481a8c2c7961b0558245b]
link Platform to Category--><path codeLine="67" d="M948.39,411.63 C921.61,455.93 883.17,519.51 858.15,560.91 " fill="none" id="Platform-to-Category" style="stroke:#A80036;stroke-width:1.0;"/><polygon fill="#A80036" points="855.47,565.34,863.5443,559.7003,858.053,561.0588,856.6944,555.5675,855.47,565.34" style="stroke:#A80036;stroke-width:1.0;"/><text fill="#000000" font-family="sans-serif" font-size="13" lengthAdjust="spacing" textLength="41" x="902" y="497.4951">defines</text><text fill="#000000" font-family="sans-serif" font-size="13" lengthAdjust="spacing" textLength="7" x="936.5933" y="433.5111">1</text><text fill="#000000" font-family="sans-serif" font-size="13" lengthAdjust="spacing" textLength="5" x="854.0272" y="554.6734">*</text><!--MD5=[4078351e3988aa35b1504a42837f2ab1]
link Organization to Task--><path codeLine="68" d="M310.64,453.33 C336.81,477.83 364.75,503.98 389.8,527.43 " fill="none" id="Organization-to-Task" style="stroke:#A80036;stroke-width:1.0;"/><polygon fill="#A80036" points="393.48,530.87,389.6487,521.7969,389.8319,527.4508,384.178,527.6339,393.48,530.87" style="stroke:#A80036;stroke-width:1.0;"/><text fill="#000000" font-family="sans-serif" font-size="13" lengthAdjust="spacing" textLength="30" x="358" y="497.4951">owns</text><text fill="#000000" font-family="sans-serif" font-size="13" lengthAdjust="spacing" textLength="7" x="311.2215" y="474.8995">1</text><text fill="#000000" font-family="sans-serif" font-size="13" lengthAdjust="spacing" textLength="5" x="380.3311" y="520.0759">*</text><!--MD5=[58733f223500d1d118766d5aea7da832]
@startuml
skinparam classAttributeIconSize 0

class ApplicationPOT
{
  +static getInstance()
  +getCurrentSession()
}

class UserSession
{
  +getUserEmail()
}

class Task {
  -String reference
  -String designation
  -String informalDescription
  -String technicalDescription
  -Integer duration
  -Double cost
  +Task(ref,designation,informalDesc,technicalDesc,duration,cost,cat)
}

class Category {
  -String id
  -String description
}

class Organization {
  -String name
  -String VatNumber
  -String website
  -String phone
  -String email
  +Organization(name, VatNumber, webSite, phone, email, postalAddress, manager)
  +createTask(ref,designation,informalDesc,technicalDesc,duration,cost,cat)
  +saveTask(task)
  -addTask(task)
  -validateTask(task)
}

class Platform {
  -String designation
  +getCategories()
  +getCategoryById(catId)
  +getOrganizationByUserEmail(email)
}

class CreateTaskController {
  +getCategories()
  +createTask(ref,designation,informalDesc,technicalDesc,duration,cost,categoryId)
  +saveTask()
}

class CreateTaskUI {

}

CreateTaskUI ..> CreateTaskController
CreateTaskController ..> Platform
CreateTaskController ..> Category
CreateTaskController ..> Task
CreateTaskController ..> Organization
CreateTaskController ..> ApplicationPOT
CreateTaskController ..> UserSession
Task "*" -> "1" Category : classified in
Platform "1" - -> "*" Category : defines
Organization "1" - -> "*" Task : owns


@enduml

PlantUML version 1.2022.0(Tue Jan 11 16:16:42 WET 2022)
(GPL source distribution)
Java Runtime: Java(TM) SE Runtime Environment
JVM: Java HotSpot(TM) 64-Bit Server VM
Default Encoding: Cp1252
Language: pt
Country: PT
--></g></svg>