<?xml version="1.0" encoding="UTF-8" standalone="no"?><svg xmlns="http://www.w3.org/2000/svg" xmlns:xlink="http://www.w3.org/1999/xlink" contentScriptType="application/ecmascript" contentStyleType="text/css" height="316px" preserveAspectRatio="none" style="width:401px;height:316px;background:#FFFFFF;" version="1.1" viewBox="0 0 401 316" width="401px" zoomAndPan="magnify"><defs><filter height="300%" id="fdqsed9ewvjw6" width="300%" x="-1" y="-1"><feGaussianBlur result="blurOut" stdDeviation="2.0"/><feColorMatrix in="blurOut" result="blurOut2" type="matrix" values="0 0 0 0 0 0 0 0 0 0 0 0 0 0 0 0 0 0 .4 0"/><feOffset dx="4.0" dy="4.0" in="blurOut2" result="blurOut3"/><feBlend in="SourceGraphic" in2="blurOut3" mode="normal"/></filter></defs><g><rect fill="#FFFFFF" filter="url(#fdqsed9ewvjw6)" height="113.4063" style="stroke:#A80036;stroke-width:1.0;" width="10" x="64" y="99.6094"/><rect fill="#FFFFFF" filter="url(#fdqsed9ewvjw6)" height="30.3516" style="stroke:#A80036;stroke-width:1.0;" width="10" x="352" y="121.9609"/><rect fill="#FFFFFF" filter="url(#fdqsed9ewvjw6)" height="30.3516" style="stroke:#A80036;stroke-width:1.0;" width="10" x="352" y="182.6641"/><line style="stroke:#A80036;stroke-width:1.0;stroke-dasharray:5.0,5.0;" x1="69" x2="69" y1="89.6094" y2="231.0156"/><line style="stroke:#A80036;stroke-width:1.0;stroke-dasharray:5.0,5.0;" x1="357" x2="357" y1="89.6094" y2="231.0156"/><text fill="#000000" font-family="sans-serif" font-size="14" lengthAdjust="spacing" textLength="122" x="5" y="86.5332">Center Coordinator</text><ellipse cx="69" cy="15" fill="#FEFECE" filter="url(#fdqsed9ewvjw6)" rx="8" ry="8" style="stroke:#A80036;stroke-width:2.0;"/><path d="M69,23 L69,50 M56,31 L82,31 M69,50 L56,65 M69,50 L82,65 " fill="none" filter="url(#fdqsed9ewvjw6)" style="stroke:#A80036;stroke-width:2.0;"/><text fill="#000000" font-family="sans-serif" font-size="14" lengthAdjust="spacing" textLength="122" x="5" y="244.5488">Center Coordinator</text><ellipse cx="69" cy="257.625" fill="#FEFECE" filter="url(#fdqsed9ewvjw6)" rx="8" ry="8" style="stroke:#A80036;stroke-width:2.0;"/><path d="M69,265.625 L69,292.625 M56,273.625 L82,273.625 M69,292.625 L56,307.625 M69,292.625 L82,307.625 " fill="none" filter="url(#fdqsed9ewvjw6)" style="stroke:#A80036;stroke-width:2.0;"/><rect fill="#FEFECE" filter="url(#fdqsed9ewvjw6)" height="31.6094" style="stroke:#A80036;stroke-width:1.5;" width="64" x="323" y="53"/><text fill="#000000" font-family="sans-serif" font-size="14" lengthAdjust="spacing" textLength="50" x="330" y="74.5332">:System</text><rect fill="#FEFECE" filter="url(#fdqsed9ewvjw6)" height="31.6094" style="stroke:#A80036;stroke-width:1.5;" width="64" x="323" y="230.0156"/><text fill="#000000" font-family="sans-serif" font-size="14" lengthAdjust="spacing" textLength="50" x="330" y="251.5488">:System</text><rect fill="#FFFFFF" filter="url(#fdqsed9ewvjw6)" height="113.4063" style="stroke:#A80036;stroke-width:1.0;" width="10" x="64" y="99.6094"/><rect fill="#FFFFFF" filter="url(#fdqsed9ewvjw6)" height="30.3516" style="stroke:#A80036;stroke-width:1.0;" width="10" x="352" y="121.9609"/><rect fill="#FFFFFF" filter="url(#fdqsed9ewvjw6)" height="30.3516" style="stroke:#A80036;stroke-width:1.0;" width="10" x="352" y="182.6641"/><polygon fill="#A80036" points="340,117.9609,350,121.9609,340,125.9609,344,121.9609" style="stroke:#A80036;stroke-width:1.0;"/><line style="stroke:#A80036;stroke-width:1.0;" x1="74" x2="346" y1="121.9609" y2="121.9609"/><text fill="#000000" font-family="sans-serif" font-size="13" font-weight="bold" lengthAdjust="spacing" textLength="7" x="81" y="117.1045">1</text><text fill="#000000" font-family="sans-serif" font-size="13" lengthAdjust="spacing" textLength="201" x="92" y="117.1045">asks to export his center statistics</text><polygon fill="#A80036" points="85,148.3125,75,152.3125,85,156.3125,81,152.3125" style="stroke:#A80036;stroke-width:1.0;"/><line style="stroke:#A80036;stroke-width:1.0;stroke-dasharray:2.0,2.0;" x1="79" x2="356" y1="152.3125" y2="152.3125"/><text fill="#000000" font-family="sans-serif" font-size="13" font-weight="bold" lengthAdjust="spacing" textLength="7" x="91" y="147.4561">2</text><text fill="#000000" font-family="sans-serif" font-size="13" lengthAdjust="spacing" textLength="243" x="102" y="147.4561">requests data (filePath,startDate,endDate)</text><polygon fill="#A80036" points="340,178.6641,350,182.6641,340,186.6641,344,182.6641" style="stroke:#A80036;stroke-width:1.0;"/><line style="stroke:#A80036;stroke-width:1.0;" x1="74" x2="346" y1="182.6641" y2="182.6641"/><text fill="#000000" font-family="sans-serif" font-size="13" font-weight="bold" lengthAdjust="spacing" textLength="7" x="81" y="177.8076">3</text><text fill="#000000" font-family="sans-serif" font-size="13" lengthAdjust="spacing" textLength="93" x="92" y="177.8076">types requested</text><polygon fill="#A80036" points="80,209.0156,70,213.0156,80,217.0156,76,213.0156" style="stroke:#A80036;stroke-width:1.0;"/><line style="stroke:#A80036;stroke-width:1.0;stroke-dasharray:2.0,2.0;" x1="74" x2="356" y1="213.0156" y2="213.0156"/><text fill="#000000" font-family="sans-serif" font-size="13" font-weight="bold" lengthAdjust="spacing" textLength="7" x="86" y="208.1592">4</text><text fill="#000000" font-family="sans-serif" font-size="13" lengthAdjust="spacing" textLength="152" x="97" y="208.1592">informs operation success</text><!--MD5=[89d3f26fc7b276c73f1f80b883a2a5f9]
@startuml US15_SSD
autonumber
actor "Center Coordinator" as COOR

activate COOR
COOR -> ":System" : asks to export his center statistics
activate ":System"
":System" - -> COOR : requests data (filePath,startDate,endDate)
deactivate ":System"

COOR -> ":System" : types requested
activate ":System"

":System" - -> COOR : informs operation success
deactivate ":System"
deactivate COOR

@enduml

PlantUML version 1.2022.0(Tue Jan 11 16:16:42 WET 2022)
(GPL source distribution)
Java Runtime: Java(TM) SE Runtime Environment
JVM: Java HotSpot(TM) 64-Bit Server VM
Default Encoding: Cp1252
Language: pt
Country: PT
--></g></svg>