<?xml version="1.0" encoding="UTF-8" standalone="no"?><svg xmlns="http://www.w3.org/2000/svg" xmlns:xlink="http://www.w3.org/1999/xlink" contentScriptType="application/ecmascript" contentStyleType="text/css" height="1626px" preserveAspectRatio="none" style="width:1292px;height:1626px;background:#FFFFFF;" version="1.1" viewBox="0 0 1292 1626" width="1292px" zoomAndPan="magnify"><defs><filter height="300%" id="fn1smnl6so06r" width="300%" x="-1" y="-1"><feGaussianBlur result="blurOut" stdDeviation="2.0"/><feColorMatrix in="blurOut" result="blurOut2" type="matrix" values="0 0 0 0 0 0 0 0 0 0 0 0 0 0 0 0 0 0 .4 0"/><feOffset dx="4.0" dy="4.0" in="blurOut2" result="blurOut3"/><feBlend in="SourceGraphic" in2="blurOut3" mode="normal"/></filter></defs><g><!--MD5=[8824b6aaccc15e34c58b514197f6f874]
class RegisterSNSUserArrivalUI--><rect codeLine="3" fill="#FEFECE" filter="url(#fn1smnl6so06r)" height="48" id="RegisterSNSUserArrivalUI" style="stroke:#A80036;stroke-width:1.5;" width="176" x="158" y="7"/><ellipse cx="173" cy="23" fill="#ADD1B2" rx="11" ry="11" style="stroke:#A80036;stroke-width:1.0;"/><path d="M175.7656,18.875 Q175.9219,18.6563 176.1094,18.5469 Q176.2969,18.4375 176.5156,18.4375 Q176.8906,18.4375 177.125,18.7031 Q177.3594,18.9531 177.3594,19.5625 L177.3594,21.0156 Q177.3594,21.625 177.125,21.8906 Q176.8906,22.1563 176.5156,22.1563 Q176.1719,22.1563 175.9688,21.9531 Q175.7656,21.7656 175.6563,21.25 Q175.6094,20.8906 175.4219,20.7031 Q175.0938,20.3281 174.4844,20.1094 Q173.875,19.8906 173.25,19.8906 Q172.4844,19.8906 171.8438,20.2188 Q171.2188,20.5469 170.7188,21.2969 Q170.2344,22.0469 170.2344,23.0781 L170.2344,24.1719 Q170.2344,25.4063 171.125,26.2344 Q172.0156,27.0469 173.6094,27.0469 Q174.5469,27.0469 175.2031,26.7969 Q175.5938,26.6406 176.0156,26.2031 Q176.2813,25.9375 176.4219,25.8594 Q176.5781,25.7813 176.7813,25.7813 Q177.1094,25.7813 177.3594,26.0469 Q177.625,26.2969 177.625,26.6406 Q177.625,26.9844 177.2813,27.3906 Q176.7813,27.9688 175.9844,28.2969 Q174.9063,28.75 173.6094,28.75 Q172.0938,28.75 170.8906,28.125 Q169.9063,27.625 169.2188,26.5625 Q168.5313,25.4844 168.5313,24.2031 L168.5313,23.0469 Q168.5313,21.7188 169.1406,20.5781 Q169.7656,19.4219 170.8594,18.8125 Q171.9531,18.1875 173.1875,18.1875 Q173.9219,18.1875 174.5625,18.3594 Q175.2188,18.5156 175.7656,18.875 Z " fill="#000000"/><text fill="#000000" font-family="sans-serif" font-size="12" lengthAdjust="spacing" textLength="144" x="187" y="27.9102">RegisterSNSUserArrivalUI</text><line style="stroke:#A80036;stroke-width:1.5;" x1="159" x2="333" y1="39" y2="39"/><line style="stroke:#A80036;stroke-width:1.5;" x1="159" x2="333" y1="47" y2="47"/><!--MD5=[40e02fac8cc8accf59031f5c8e3a0fb4]
class RegisterSNSUserArrivalController--><rect codeLine="5" fill="#FEFECE" filter="url(#fn1smnl6so06r)" height="48" id="RegisterSNSUserArrivalController" style="stroke:#A80036;stroke-width:1.5;" width="218" x="137" y="116"/><ellipse cx="152" cy="132" fill="#ADD1B2" rx="11" ry="11" style="stroke:#A80036;stroke-width:1.0;"/><path d="M154.7656,127.875 Q154.9219,127.6563 155.1094,127.5469 Q155.2969,127.4375 155.5156,127.4375 Q155.8906,127.4375 156.125,127.7031 Q156.3594,127.9531 156.3594,128.5625 L156.3594,130.0156 Q156.3594,130.625 156.125,130.8906 Q155.8906,131.1563 155.5156,131.1563 Q155.1719,131.1563 154.9688,130.9531 Q154.7656,130.7656 154.6563,130.25 Q154.6094,129.8906 154.4219,129.7031 Q154.0938,129.3281 153.4844,129.1094 Q152.875,128.8906 152.25,128.8906 Q151.4844,128.8906 150.8438,129.2188 Q150.2188,129.5469 149.7188,130.2969 Q149.2344,131.0469 149.2344,132.0781 L149.2344,133.1719 Q149.2344,134.4063 150.125,135.2344 Q151.0156,136.0469 152.6094,136.0469 Q153.5469,136.0469 154.2031,135.7969 Q154.5938,135.6406 155.0156,135.2031 Q155.2813,134.9375 155.4219,134.8594 Q155.5781,134.7813 155.7813,134.7813 Q156.1094,134.7813 156.3594,135.0469 Q156.625,135.2969 156.625,135.6406 Q156.625,135.9844 156.2813,136.3906 Q155.7813,136.9688 154.9844,137.2969 Q153.9063,137.75 152.6094,137.75 Q151.0938,137.75 149.8906,137.125 Q148.9063,136.625 148.2188,135.5625 Q147.5313,134.4844 147.5313,133.2031 L147.5313,132.0469 Q147.5313,130.7188 148.1406,129.5781 Q148.7656,128.4219 149.8594,127.8125 Q150.9531,127.1875 152.1875,127.1875 Q152.9219,127.1875 153.5625,127.3594 Q154.2188,127.5156 154.7656,127.875 Z " fill="#000000"/><text fill="#000000" font-family="sans-serif" font-size="12" lengthAdjust="spacing" textLength="186" x="166" y="136.9102">RegisterSNSUserArrivalController</text><line style="stroke:#A80036;stroke-width:1.5;" x1="138" x2="354" y1="148" y2="148"/><line style="stroke:#A80036;stroke-width:1.5;" x1="138" x2="354" y1="156" y2="156"/><!--MD5=[02e4b9b7573f1156f41e60aa5b4e25a4]
class Company--><rect codeLine="7" fill="#FEFECE" filter="url(#fn1smnl6so06r)" height="75.6719" id="Company" style="stroke:#A80036;stroke-width:1.5;" width="102" x="195" y="225"/><ellipse cx="217.65" cy="241" fill="#ADD1B2" rx="11" ry="11" style="stroke:#A80036;stroke-width:1.0;"/><path d="M220.4156,236.875 Q220.5719,236.6563 220.7594,236.5469 Q220.9469,236.4375 221.1656,236.4375 Q221.5406,236.4375 221.775,236.7031 Q222.0094,236.9531 222.0094,237.5625 L222.0094,239.0156 Q222.0094,239.625 221.775,239.8906 Q221.5406,240.1563 221.1656,240.1563 Q220.8219,240.1563 220.6188,239.9531 Q220.4156,239.7656 220.3063,239.25 Q220.2594,238.8906 220.0719,238.7031 Q219.7438,238.3281 219.1344,238.1094 Q218.525,237.8906 217.9,237.8906 Q217.1344,237.8906 216.4938,238.2188 Q215.8688,238.5469 215.3688,239.2969 Q214.8844,240.0469 214.8844,241.0781 L214.8844,242.1719 Q214.8844,243.4063 215.775,244.2344 Q216.6656,245.0469 218.2594,245.0469 Q219.1969,245.0469 219.8531,244.7969 Q220.2438,244.6406 220.6656,244.2031 Q220.9313,243.9375 221.0719,243.8594 Q221.2281,243.7813 221.4313,243.7813 Q221.7594,243.7813 222.0094,244.0469 Q222.275,244.2969 222.275,244.6406 Q222.275,244.9844 221.9313,245.3906 Q221.4313,245.9688 220.6344,246.2969 Q219.5563,246.75 218.2594,246.75 Q216.7438,246.75 215.5406,246.125 Q214.5563,245.625 213.8688,244.5625 Q213.1813,243.4844 213.1813,242.2031 L213.1813,241.0469 Q213.1813,239.7188 213.7906,238.5781 Q214.4156,237.4219 215.5094,236.8125 Q216.6031,236.1875 217.8375,236.1875 Q218.5719,236.1875 219.2125,236.3594 Q219.8688,236.5156 220.4156,236.875 Z " fill="#000000"/><text fill="#000000" font-family="sans-serif" font-size="12" lengthAdjust="spacing" textLength="53" x="233.35" y="245.9102">Company</text><line style="stroke:#A80036;stroke-width:1.5;" x1="196" x2="296" y1="257" y2="257"/><text fill="#000000" font-family="sans-serif" font-size="11" lengthAdjust="spacing" textLength="90" x="201" y="272.4189">-String designation</text><line style="stroke:#A80036;stroke-width:1.5;" x1="196" x2="296" y1="278.8359" y2="278.8359"/><text fill="#000000" font-family="sans-serif" font-size="11" lengthAdjust="spacing" textLength="85" x="201" y="294.2549">+getDesignation()</text><!--MD5=[72be06cc7ae02ccc98efe28a50e62246]
class SNSUser--><rect codeLine="12" fill="#FEFECE" filter="url(#fn1smnl6so06r)" height="144.8516" id="SNSUser" style="stroke:#A80036;stroke-width:1.5;" width="452" x="167" y="1218"/><ellipse cx="362.75" cy="1234" fill="#ADD1B2" rx="11" ry="11" style="stroke:#A80036;stroke-width:1.0;"/><path d="M365.5156,1229.875 Q365.6719,1229.6563 365.8594,1229.5469 Q366.0469,1229.4375 366.2656,1229.4375 Q366.6406,1229.4375 366.875,1229.7031 Q367.1094,1229.9531 367.1094,1230.5625 L367.1094,1232.0156 Q367.1094,1232.625 366.875,1232.8906 Q366.6406,1233.1563 366.2656,1233.1563 Q365.9219,1233.1563 365.7188,1232.9531 Q365.5156,1232.7656 365.4063,1232.25 Q365.3594,1231.8906 365.1719,1231.7031 Q364.8438,1231.3281 364.2344,1231.1094 Q363.625,1230.8906 363,1230.8906 Q362.2344,1230.8906 361.5938,1231.2188 Q360.9688,1231.5469 360.4688,1232.2969 Q359.9844,1233.0469 359.9844,1234.0781 L359.9844,1235.1719 Q359.9844,1236.4063 360.875,1237.2344 Q361.7656,1238.0469 363.3594,1238.0469 Q364.2969,1238.0469 364.9531,1237.7969 Q365.3438,1237.6406 365.7656,1237.2031 Q366.0313,1236.9375 366.1719,1236.8594 Q366.3281,1236.7813 366.5313,1236.7813 Q366.8594,1236.7813 367.1094,1237.0469 Q367.375,1237.2969 367.375,1237.6406 Q367.375,1237.9844 367.0313,1238.3906 Q366.5313,1238.9688 365.7344,1239.2969 Q364.6563,1239.75 363.3594,1239.75 Q361.8438,1239.75 360.6406,1239.125 Q359.6563,1238.625 358.9688,1237.5625 Q358.2813,1236.4844 358.2813,1235.2031 L358.2813,1234.0469 Q358.2813,1232.7188 358.8906,1231.5781 Q359.5156,1230.4219 360.6094,1229.8125 Q361.7031,1229.1875 362.9375,1229.1875 Q363.6719,1229.1875 364.3125,1229.3594 Q364.9688,1229.5156 365.5156,1229.875 Z " fill="#000000"/><text fill="#000000" font-family="sans-serif" font-size="12" lengthAdjust="spacing" textLength="52" x="383.25" y="1238.9102">SNSUser</text><line style="stroke:#A80036;stroke-width:1.5;" x1="168" x2="618" y1="1250" y2="1250"/><text fill="#000000" font-family="sans-serif" font-size="11" lengthAdjust="spacing" textLength="89" x="173" y="1265.4189">-String citizenCard</text><text fill="#000000" font-family="sans-serif" font-size="11" lengthAdjust="spacing" textLength="90" x="173" y="1279.2549">-String snsNumber</text><text fill="#000000" font-family="sans-serif" font-size="11" lengthAdjust="spacing" textLength="69" x="173" y="1293.0908">-Date birthDay</text><text fill="#000000" font-family="sans-serif" font-size="11" lengthAdjust="spacing" textLength="64" x="173" y="1306.9268">-Char gender</text><text fill="#000000" font-family="sans-serif" font-size="11" lengthAdjust="spacing" textLength="102" x="173" y="1320.7627">-String phoneNumber</text><text fill="#000000" font-family="sans-serif" font-size="11" lengthAdjust="spacing" textLength="75" x="173" y="1334.5986">-String address</text><line style="stroke:#A80036;stroke-width:1.5;" x1="168" x2="618" y1="1341.0156" y2="1341.0156"/><text fill="#000000" font-family="sans-serif" font-size="11" lengthAdjust="spacing" textLength="440" x="173" y="1356.4346">+SNSUser(citizenCard, snsNumber, name, birthDay, gender, phoneNumber, email, address)</text><!--MD5=[a5ad3856b0c65e07b10297b4477b22bb]
class SNSUserStore--><rect codeLine="22" fill="#FEFECE" filter="url(#fn1smnl6so06r)" height="103.3438" id="SNSUserStore" style="stroke:#A80036;stroke-width:1.5;" width="196" x="7" y="637"/><ellipse cx="60.25" cy="653" fill="#ADD1B2" rx="11" ry="11" style="stroke:#A80036;stroke-width:1.0;"/><path d="M63.0156,648.875 Q63.1719,648.6563 63.3594,648.5469 Q63.5469,648.4375 63.7656,648.4375 Q64.1406,648.4375 64.375,648.7031 Q64.6094,648.9531 64.6094,649.5625 L64.6094,651.0156 Q64.6094,651.625 64.375,651.8906 Q64.1406,652.1563 63.7656,652.1563 Q63.4219,652.1563 63.2188,651.9531 Q63.0156,651.7656 62.9063,651.25 Q62.8594,650.8906 62.6719,650.7031 Q62.3438,650.3281 61.7344,650.1094 Q61.125,649.8906 60.5,649.8906 Q59.7344,649.8906 59.0938,650.2188 Q58.4688,650.5469 57.9688,651.2969 Q57.4844,652.0469 57.4844,653.0781 L57.4844,654.1719 Q57.4844,655.4063 58.375,656.2344 Q59.2656,657.0469 60.8594,657.0469 Q61.7969,657.0469 62.4531,656.7969 Q62.8438,656.6406 63.2656,656.2031 Q63.5313,655.9375 63.6719,655.8594 Q63.8281,655.7813 64.0313,655.7813 Q64.3594,655.7813 64.6094,656.0469 Q64.875,656.2969 64.875,656.6406 Q64.875,656.9844 64.5313,657.3906 Q64.0313,657.9688 63.2344,658.2969 Q62.1563,658.75 60.8594,658.75 Q59.3438,658.75 58.1406,658.125 Q57.1563,657.625 56.4688,656.5625 Q55.7813,655.4844 55.7813,654.2031 L55.7813,653.0469 Q55.7813,651.7188 56.3906,650.5781 Q57.0156,649.4219 58.1094,648.8125 Q59.2031,648.1875 60.4375,648.1875 Q61.1719,648.1875 61.8125,648.3594 Q62.4688,648.5156 63.0156,648.875 Z " fill="#000000"/><text fill="#000000" font-family="sans-serif" font-size="12" lengthAdjust="spacing" textLength="81" x="80.75" y="657.9102">SNSUserStore</text><line style="stroke:#A80036;stroke-width:1.5;" x1="8" x2="202" y1="669" y2="669"/><line style="stroke:#A80036;stroke-width:1.5;" x1="8" x2="202" y1="677" y2="677"/><text fill="#000000" font-family="sans-serif" font-size="11" lengthAdjust="spacing" textLength="184" x="13" y="692.4189">+createUser(name, email, pwd, roleId)</text><text fill="#000000" font-family="sans-serif" font-size="11" lengthAdjust="spacing" textLength="96" x="13" y="706.2549">+validateUser(user)</text><text fill="#000000" font-family="sans-serif" font-size="11" lengthAdjust="spacing" textLength="83" x="13" y="720.0908">+saveUser(user)</text><text fill="#000000" font-family="sans-serif" font-size="11" lengthAdjust="spacing" textLength="115" x="13" y="733.9268">+checkDuplicates(user)</text><!--MD5=[7421f545a0d8420c5bec41e74b387d9c]
class Employee--><rect codeLine="29" fill="#FEFECE" filter="url(#fn1smnl6so06r)" height="227.8672" id="Employee" style="stroke:#A80036;stroke-width:1.5;" width="390" x="888" y="379"/><ellipse cx="1051.25" cy="395" fill="#ADD1B2" rx="11" ry="11" style="stroke:#A80036;stroke-width:1.0;"/><path d="M1054.0156,390.875 Q1054.1719,390.6563 1054.3594,390.5469 Q1054.5469,390.4375 1054.7656,390.4375 Q1055.1406,390.4375 1055.375,390.7031 Q1055.6094,390.9531 1055.6094,391.5625 L1055.6094,393.0156 Q1055.6094,393.625 1055.375,393.8906 Q1055.1406,394.1563 1054.7656,394.1563 Q1054.4219,394.1563 1054.2188,393.9531 Q1054.0156,393.7656 1053.9063,393.25 Q1053.8594,392.8906 1053.6719,392.7031 Q1053.3438,392.3281 1052.7344,392.1094 Q1052.125,391.8906 1051.5,391.8906 Q1050.7344,391.8906 1050.0938,392.2188 Q1049.4688,392.5469 1048.9688,393.2969 Q1048.4844,394.0469 1048.4844,395.0781 L1048.4844,396.1719 Q1048.4844,397.4063 1049.375,398.2344 Q1050.2656,399.0469 1051.8594,399.0469 Q1052.7969,399.0469 1053.4531,398.7969 Q1053.8438,398.6406 1054.2656,398.2031 Q1054.5313,397.9375 1054.6719,397.8594 Q1054.8281,397.7813 1055.0313,397.7813 Q1055.3594,397.7813 1055.6094,398.0469 Q1055.875,398.2969 1055.875,398.6406 Q1055.875,398.9844 1055.5313,399.3906 Q1055.0313,399.9688 1054.2344,400.2969 Q1053.1563,400.75 1051.8594,400.75 Q1050.3438,400.75 1049.1406,400.125 Q1048.1563,399.625 1047.4688,398.5625 Q1046.7813,397.4844 1046.7813,396.2031 L1046.7813,395.0469 Q1046.7813,393.7188 1047.3906,392.5781 Q1048.0156,391.4219 1049.1094,390.8125 Q1050.2031,390.1875 1051.4375,390.1875 Q1052.1719,390.1875 1052.8125,390.3594 Q1053.4688,390.5156 1054.0156,390.875 Z " fill="#000000"/><text fill="#000000" font-family="sans-serif" font-size="12" lengthAdjust="spacing" textLength="55" x="1071.75" y="399.9102">Employee</text><line style="stroke:#A80036;stroke-width:1.5;" x1="889" x2="1277" y1="411" y2="411"/><text fill="#000000" font-family="sans-serif" font-size="11" lengthAdjust="spacing" textLength="46" x="894" y="426.4189">-id: String</text><text fill="#000000" font-family="sans-serif" font-size="11" lengthAdjust="spacing" textLength="78" x="894" y="440.2549">-address: String</text><text fill="#000000" font-family="sans-serif" font-size="11" lengthAdjust="spacing" textLength="105" x="894" y="454.0908">-phoneNumber: String</text><text fill="#000000" font-family="sans-serif" font-size="11" lengthAdjust="spacing" textLength="129" x="894" y="467.9268">-citizenCardNumber: String</text><line style="stroke:#A80036;stroke-width:1.5;" x1="889" x2="1277" y1="474.3438" y2="474.3438"/><text fill="#000000" font-family="sans-serif" font-size="11" lengthAdjust="spacing" textLength="378" x="894" y="489.7627">+Employee(id, name, address, phoneNumber, email, citizenCardNumber, roleId)</text><text fill="#000000" font-family="sans-serif" font-size="11" lengthAdjust="spacing" textLength="37" x="894" y="503.5986">+getId()</text><text fill="#000000" font-family="sans-serif" font-size="11" lengthAdjust="spacing" textLength="56" x="894" y="517.4346">+getName()</text><text fill="#000000" font-family="sans-serif" font-size="11" lengthAdjust="spacing" textLength="71" x="894" y="531.2705">+getAddress()</text><text fill="#000000" font-family="sans-serif" font-size="11" lengthAdjust="spacing" textLength="96" x="894" y="545.1064">+getPhoneNumber()</text><text fill="#000000" font-family="sans-serif" font-size="11" lengthAdjust="spacing" textLength="53" x="894" y="558.9424">+getEmail()</text><text fill="#000000" font-family="sans-serif" font-size="11" lengthAdjust="spacing" textLength="121" x="894" y="572.7783">+getCitizenCardNumber()</text><text fill="#000000" font-family="sans-serif" font-size="11" lengthAdjust="spacing" textLength="79" x="894" y="586.6143">+getPassword()</text><text fill="#000000" font-family="sans-serif" font-size="11" lengthAdjust="spacing" textLength="58" x="894" y="600.4502">+getRoleId()</text><!--MD5=[03960189e81aa2c066c762ffabbee709]
class Receptionist--><rect codeLine="45" fill="#FEFECE" filter="url(#fn1smnl6so06r)" height="48" id="Receptionist" style="stroke:#A80036;stroke-width:1.5;" width="101" x="945.5" y="1014"/><ellipse cx="960.5" cy="1030" fill="#ADD1B2" rx="11" ry="11" style="stroke:#A80036;stroke-width:1.0;"/><path d="M963.2656,1025.875 Q963.4219,1025.6563 963.6094,1025.5469 Q963.7969,1025.4375 964.0156,1025.4375 Q964.3906,1025.4375 964.625,1025.7031 Q964.8594,1025.9531 964.8594,1026.5625 L964.8594,1028.0156 Q964.8594,1028.625 964.625,1028.8906 Q964.3906,1029.1563 964.0156,1029.1563 Q963.6719,1029.1563 963.4688,1028.9531 Q963.2656,1028.7656 963.1563,1028.25 Q963.1094,1027.8906 962.9219,1027.7031 Q962.5938,1027.3281 961.9844,1027.1094 Q961.375,1026.8906 960.75,1026.8906 Q959.9844,1026.8906 959.3438,1027.2188 Q958.7188,1027.5469 958.2188,1028.2969 Q957.7344,1029.0469 957.7344,1030.0781 L957.7344,1031.1719 Q957.7344,1032.4063 958.625,1033.2344 Q959.5156,1034.0469 961.1094,1034.0469 Q962.0469,1034.0469 962.7031,1033.7969 Q963.0938,1033.6406 963.5156,1033.2031 Q963.7813,1032.9375 963.9219,1032.8594 Q964.0781,1032.7813 964.2813,1032.7813 Q964.6094,1032.7813 964.8594,1033.0469 Q965.125,1033.2969 965.125,1033.6406 Q965.125,1033.9844 964.7813,1034.3906 Q964.2813,1034.9688 963.4844,1035.2969 Q962.4063,1035.75 961.1094,1035.75 Q959.5938,1035.75 958.3906,1035.125 Q957.4063,1034.625 956.7188,1033.5625 Q956.0313,1032.4844 956.0313,1031.2031 L956.0313,1030.0469 Q956.0313,1028.7188 956.6406,1027.5781 Q957.2656,1026.4219 958.3594,1025.8125 Q959.4531,1025.1875 960.6875,1025.1875 Q961.4219,1025.1875 962.0625,1025.3594 Q962.7188,1025.5156 963.2656,1025.875 Z " fill="#000000"/><text fill="#000000" font-family="sans-serif" font-size="12" lengthAdjust="spacing" textLength="69" x="974.5" y="1034.9102">Receptionist</text><line style="stroke:#A80036;stroke-width:1.5;" x1="946.5" x2="1045.5" y1="1046" y2="1046"/><line style="stroke:#A80036;stroke-width:1.5;" x1="946.5" x2="1045.5" y1="1054" y2="1054"/><!--MD5=[950bab46f39ba9ae59885963abb53c18]
class Arrival--><rect codeLine="47" fill="#FEFECE" filter="url(#fn1smnl6so06r)" height="61.8359" id="Arrival" style="stroke:#A80036;stroke-width:1.5;" width="93" x="446.5" y="1424"/><ellipse cx="474.1" cy="1440" fill="#ADD1B2" rx="11" ry="11" style="stroke:#A80036;stroke-width:1.0;"/><path d="M476.8656,1435.875 Q477.0219,1435.6563 477.2094,1435.5469 Q477.3969,1435.4375 477.6156,1435.4375 Q477.9906,1435.4375 478.225,1435.7031 Q478.4594,1435.9531 478.4594,1436.5625 L478.4594,1438.0156 Q478.4594,1438.625 478.225,1438.8906 Q477.9906,1439.1563 477.6156,1439.1563 Q477.2719,1439.1563 477.0688,1438.9531 Q476.8656,1438.7656 476.7563,1438.25 Q476.7094,1437.8906 476.5219,1437.7031 Q476.1938,1437.3281 475.5844,1437.1094 Q474.975,1436.8906 474.35,1436.8906 Q473.5844,1436.8906 472.9438,1437.2188 Q472.3188,1437.5469 471.8188,1438.2969 Q471.3344,1439.0469 471.3344,1440.0781 L471.3344,1441.1719 Q471.3344,1442.4063 472.225,1443.2344 Q473.1156,1444.0469 474.7094,1444.0469 Q475.6469,1444.0469 476.3031,1443.7969 Q476.6938,1443.6406 477.1156,1443.2031 Q477.3813,1442.9375 477.5219,1442.8594 Q477.6781,1442.7813 477.8813,1442.7813 Q478.2094,1442.7813 478.4594,1443.0469 Q478.725,1443.2969 478.725,1443.6406 Q478.725,1443.9844 478.3813,1444.3906 Q477.8813,1444.9688 477.0844,1445.2969 Q476.0063,1445.75 474.7094,1445.75 Q473.1938,1445.75 471.9906,1445.125 Q471.0063,1444.625 470.3188,1443.5625 Q469.6313,1442.4844 469.6313,1441.2031 L469.6313,1440.0469 Q469.6313,1438.7188 470.2406,1437.5781 Q470.8656,1436.4219 471.9594,1435.8125 Q473.0531,1435.1875 474.2875,1435.1875 Q475.0219,1435.1875 475.6625,1435.3594 Q476.3188,1435.5156 476.8656,1435.875 Z " fill="#000000"/><text fill="#000000" font-family="sans-serif" font-size="12" lengthAdjust="spacing" textLength="33" x="490.9" y="1444.9102">Arrival</text><line style="stroke:#A80036;stroke-width:1.5;" x1="447.5" x2="538.5" y1="1456" y2="1456"/><text fill="#000000" font-family="sans-serif" font-size="11" lengthAdjust="spacing" textLength="81" x="452.5" y="1471.4189">-Date arrivalDate</text><line style="stroke:#A80036;stroke-width:1.5;" x1="447.5" x2="538.5" y1="1477.8359" y2="1477.8359"/><!--MD5=[c508b5b6bbe276ff5e2700b6641f837f]
class Appointment--><rect codeLine="51" fill="#FEFECE" filter="url(#fn1smnl6so06r)" height="48" id="Appointment" style="stroke:#A80036;stroke-width:1.5;" width="101" x="371.5" y="1564"/><ellipse cx="386.5" cy="1580" fill="#ADD1B2" rx="11" ry="11" style="stroke:#A80036;stroke-width:1.0;"/><path d="M389.2656,1575.875 Q389.4219,1575.6563 389.6094,1575.5469 Q389.7969,1575.4375 390.0156,1575.4375 Q390.3906,1575.4375 390.625,1575.7031 Q390.8594,1575.9531 390.8594,1576.5625 L390.8594,1578.0156 Q390.8594,1578.625 390.625,1578.8906 Q390.3906,1579.1563 390.0156,1579.1563 Q389.6719,1579.1563 389.4688,1578.9531 Q389.2656,1578.7656 389.1563,1578.25 Q389.1094,1577.8906 388.9219,1577.7031 Q388.5938,1577.3281 387.9844,1577.1094 Q387.375,1576.8906 386.75,1576.8906 Q385.9844,1576.8906 385.3438,1577.2188 Q384.7188,1577.5469 384.2188,1578.2969 Q383.7344,1579.0469 383.7344,1580.0781 L383.7344,1581.1719 Q383.7344,1582.4063 384.625,1583.2344 Q385.5156,1584.0469 387.1094,1584.0469 Q388.0469,1584.0469 388.7031,1583.7969 Q389.0938,1583.6406 389.5156,1583.2031 Q389.7813,1582.9375 389.9219,1582.8594 Q390.0781,1582.7813 390.2813,1582.7813 Q390.6094,1582.7813 390.8594,1583.0469 Q391.125,1583.2969 391.125,1583.6406 Q391.125,1583.9844 390.7813,1584.3906 Q390.2813,1584.9688 389.4844,1585.2969 Q388.4063,1585.75 387.1094,1585.75 Q385.5938,1585.75 384.3906,1585.125 Q383.4063,1584.625 382.7188,1583.5625 Q382.0313,1582.4844 382.0313,1581.2031 L382.0313,1580.0469 Q382.0313,1578.7188 382.6406,1577.5781 Q383.2656,1576.4219 384.3594,1575.8125 Q385.4531,1575.1875 386.6875,1575.1875 Q387.4219,1575.1875 388.0625,1575.3594 Q388.7188,1575.5156 389.2656,1575.875 Z " fill="#000000"/><text fill="#000000" font-family="sans-serif" font-size="12" lengthAdjust="spacing" textLength="69" x="400.5" y="1584.9102">Appointment</text><line style="stroke:#A80036;stroke-width:1.5;" x1="372.5" x2="471.5" y1="1596" y2="1596"/><line style="stroke:#A80036;stroke-width:1.5;" x1="372.5" x2="471.5" y1="1604" y2="1604"/><!--MD5=[7b3e8f70d80133538393dc99d446cc4d]
class WaitingRoomList--><rect codeLine="53" fill="#FEFECE" filter="url(#fn1smnl6so06r)" height="48" id="WaitingRoomList" style="stroke:#A80036;stroke-width:1.5;" width="127" x="534.5" y="1092"/><ellipse cx="549.5" cy="1108" fill="#ADD1B2" rx="11" ry="11" style="stroke:#A80036;stroke-width:1.0;"/><path d="M552.2656,1103.875 Q552.4219,1103.6563 552.6094,1103.5469 Q552.7969,1103.4375 553.0156,1103.4375 Q553.3906,1103.4375 553.625,1103.7031 Q553.8594,1103.9531 553.8594,1104.5625 L553.8594,1106.0156 Q553.8594,1106.625 553.625,1106.8906 Q553.3906,1107.1563 553.0156,1107.1563 Q552.6719,1107.1563 552.4688,1106.9531 Q552.2656,1106.7656 552.1563,1106.25 Q552.1094,1105.8906 551.9219,1105.7031 Q551.5938,1105.3281 550.9844,1105.1094 Q550.375,1104.8906 549.75,1104.8906 Q548.9844,1104.8906 548.3438,1105.2188 Q547.7188,1105.5469 547.2188,1106.2969 Q546.7344,1107.0469 546.7344,1108.0781 L546.7344,1109.1719 Q546.7344,1110.4063 547.625,1111.2344 Q548.5156,1112.0469 550.1094,1112.0469 Q551.0469,1112.0469 551.7031,1111.7969 Q552.0938,1111.6406 552.5156,1111.2031 Q552.7813,1110.9375 552.9219,1110.8594 Q553.0781,1110.7813 553.2813,1110.7813 Q553.6094,1110.7813 553.8594,1111.0469 Q554.125,1111.2969 554.125,1111.6406 Q554.125,1111.9844 553.7813,1112.3906 Q553.2813,1112.9688 552.4844,1113.2969 Q551.4063,1113.75 550.1094,1113.75 Q548.5938,1113.75 547.3906,1113.125 Q546.4063,1112.625 545.7188,1111.5625 Q545.0313,1110.4844 545.0313,1109.2031 L545.0313,1108.0469 Q545.0313,1106.7188 545.6406,1105.5781 Q546.2656,1104.4219 547.3594,1103.8125 Q548.4531,1103.1875 549.6875,1103.1875 Q550.4219,1103.1875 551.0625,1103.3594 Q551.7188,1103.5156 552.2656,1103.875 Z " fill="#000000"/><text fill="#000000" font-family="sans-serif" font-size="12" lengthAdjust="spacing" textLength="95" x="563.5" y="1112.9102">WaitingRoomList</text><line style="stroke:#A80036;stroke-width:1.5;" x1="535.5" x2="660.5" y1="1124" y2="1124"/><line style="stroke:#A80036;stroke-width:1.5;" x1="535.5" x2="660.5" y1="1132" y2="1132"/><!--MD5=[a29876ea2f21a6ca48ea477740122fd8]
class VaccinationCenterStore--><rect codeLine="55" fill="#FEFECE" filter="url(#fn1smnl6so06r)" height="117.1797" id="VaccinationCenterStore" style="stroke:#A80036;stroke-width:1.5;" width="260" x="421" y="434.5"/><ellipse cx="482.25" cy="450.5" fill="#ADD1B2" rx="11" ry="11" style="stroke:#A80036;stroke-width:1.0;"/><path d="M485.0156,446.375 Q485.1719,446.1563 485.3594,446.0469 Q485.5469,445.9375 485.7656,445.9375 Q486.1406,445.9375 486.375,446.2031 Q486.6094,446.4531 486.6094,447.0625 L486.6094,448.5156 Q486.6094,449.125 486.375,449.3906 Q486.1406,449.6563 485.7656,449.6563 Q485.4219,449.6563 485.2188,449.4531 Q485.0156,449.2656 484.9063,448.75 Q484.8594,448.3906 484.6719,448.2031 Q484.3438,447.8281 483.7344,447.6094 Q483.125,447.3906 482.5,447.3906 Q481.7344,447.3906 481.0938,447.7188 Q480.4688,448.0469 479.9688,448.7969 Q479.4844,449.5469 479.4844,450.5781 L479.4844,451.6719 Q479.4844,452.9063 480.375,453.7344 Q481.2656,454.5469 482.8594,454.5469 Q483.7969,454.5469 484.4531,454.2969 Q484.8438,454.1406 485.2656,453.7031 Q485.5313,453.4375 485.6719,453.3594 Q485.8281,453.2813 486.0313,453.2813 Q486.3594,453.2813 486.6094,453.5469 Q486.875,453.7969 486.875,454.1406 Q486.875,454.4844 486.5313,454.8906 Q486.0313,455.4688 485.2344,455.7969 Q484.1563,456.25 482.8594,456.25 Q481.3438,456.25 480.1406,455.625 Q479.1563,455.125 478.4688,454.0625 Q477.7813,452.9844 477.7813,451.7031 L477.7813,450.5469 Q477.7813,449.2188 478.3906,448.0781 Q479.0156,446.9219 480.1094,446.3125 Q481.2031,445.6875 482.4375,445.6875 Q483.1719,445.6875 483.8125,445.8594 Q484.4688,446.0156 485.0156,446.375 Z " fill="#000000"/><text fill="#000000" font-family="sans-serif" font-size="12" lengthAdjust="spacing" textLength="129" x="502.75" y="455.4102">VaccinationCenterStore</text><line style="stroke:#A80036;stroke-width:1.5;" x1="422" x2="680" y1="466.5" y2="466.5"/><line style="stroke:#A80036;stroke-width:1.0;" x1="422" x2="680" y1="474.5" y2="474.5"/><text fill="#000000" font-family="sans-serif" font-size="11" lengthAdjust="spacing" textLength="248" x="427" y="489.9189">+createVaccinationCenter(centerData, coordinator)</text><text fill="#000000" font-family="sans-serif" font-size="11" lengthAdjust="spacing" textLength="169" x="427" y="503.7549">+validateVaccinatonCenter(center)</text><text fill="#000000" font-family="sans-serif" font-size="11" lengthAdjust="spacing" textLength="158" x="427" y="517.5908">+saveVaccinationCenter(center)</text><text fill="#000000" font-family="sans-serif" font-size="11" lengthAdjust="spacing" textLength="124" x="427" y="531.4268">+checkDuplicates(center)</text><text fill="#000000" font-family="sans-serif" font-size="11" lengthAdjust="spacing" textLength="152" x="427" y="545.2627">+addVaccinationCenter(center)</text><!--MD5=[de60e6d4f424ae4d0522096f76a59010]
class VaccinationCenter--><rect codeLine="64" fill="#FEFECE" filter="url(#fn1smnl6so06r)" height="214.0313" id="VaccinationCenter" style="stroke:#A80036;stroke-width:1.5;" width="844" x="300" y="770"/><ellipse cx="667.75" cy="786" fill="#ADD1B2" rx="11" ry="11" style="stroke:#A80036;stroke-width:1.0;"/><path d="M670.5156,781.875 Q670.6719,781.6563 670.8594,781.5469 Q671.0469,781.4375 671.2656,781.4375 Q671.6406,781.4375 671.875,781.7031 Q672.1094,781.9531 672.1094,782.5625 L672.1094,784.0156 Q672.1094,784.625 671.875,784.8906 Q671.6406,785.1563 671.2656,785.1563 Q670.9219,785.1563 670.7188,784.9531 Q670.5156,784.7656 670.4063,784.25 Q670.3594,783.8906 670.1719,783.7031 Q669.8438,783.3281 669.2344,783.1094 Q668.625,782.8906 668,782.8906 Q667.2344,782.8906 666.5938,783.2188 Q665.9688,783.5469 665.4688,784.2969 Q664.9844,785.0469 664.9844,786.0781 L664.9844,787.1719 Q664.9844,788.4063 665.875,789.2344 Q666.7656,790.0469 668.3594,790.0469 Q669.2969,790.0469 669.9531,789.7969 Q670.3438,789.6406 670.7656,789.2031 Q671.0313,788.9375 671.1719,788.8594 Q671.3281,788.7813 671.5313,788.7813 Q671.8594,788.7813 672.1094,789.0469 Q672.375,789.2969 672.375,789.6406 Q672.375,789.9844 672.0313,790.3906 Q671.5313,790.9688 670.7344,791.2969 Q669.6563,791.75 668.3594,791.75 Q666.8438,791.75 665.6406,791.125 Q664.6563,790.625 663.9688,789.5625 Q663.2813,788.4844 663.2813,787.2031 L663.2813,786.0469 Q663.2813,784.7188 663.8906,783.5781 Q664.5156,782.4219 665.6094,781.8125 Q666.7031,781.1875 667.9375,781.1875 Q668.6719,781.1875 669.3125,781.3594 Q669.9688,781.5156 670.5156,781.875 Z " fill="#000000"/><text fill="#000000" font-family="sans-serif" font-size="12" lengthAdjust="spacing" textLength="100" x="688.25" y="790.9102">VaccinationCenter</text><line style="stroke:#A80036;stroke-width:1.5;" x1="301" x2="1143" y1="802" y2="802"/><text fill="#000000" font-family="sans-serif" font-size="11" lengthAdjust="spacing" textLength="64" x="306" y="817.4189">-name: String</text><text fill="#000000" font-family="sans-serif" font-size="11" lengthAdjust="spacing" textLength="78" x="306" y="831.2549">-address: String</text><text fill="#000000" font-family="sans-serif" font-size="11" lengthAdjust="spacing" textLength="104" x="306" y="845.0908">-emailAddress: String</text><text fill="#000000" font-family="sans-serif" font-size="11" lengthAdjust="spacing" textLength="105" x="306" y="858.9268">-phoneNumber: String</text><text fill="#000000" font-family="sans-serif" font-size="11" lengthAdjust="spacing" textLength="91" x="306" y="872.7627">-faxNumber: String</text><text fill="#000000" font-family="sans-serif" font-size="11" lengthAdjust="spacing" textLength="119" x="306" y="886.5986">-websiteAddress: String</text><text fill="#000000" font-family="sans-serif" font-size="11" lengthAdjust="spacing" textLength="105" x="306" y="900.4346">-openingHours: String</text><text fill="#000000" font-family="sans-serif" font-size="11" lengthAdjust="spacing" textLength="101" x="306" y="914.2705">-closingHours: String</text><text fill="#000000" font-family="sans-serif" font-size="11" lengthAdjust="spacing" textLength="78" x="306" y="928.1064">-slotDuration: int</text><text fill="#000000" font-family="sans-serif" font-size="11" lengthAdjust="spacing" textLength="145" x="306" y="941.9424">-maximumVaccinesPerSlot: int</text><text fill="#000000" font-family="sans-serif" font-size="11" lengthAdjust="spacing" textLength="119" x="306" y="955.7783">-coordinator: EMPLOYEE</text><line style="stroke:#A80036;stroke-width:1.0;" x1="301" x2="1143" y1="962.1953" y2="962.1953"/><text fill="#000000" font-family="sans-serif" font-size="11" lengthAdjust="spacing" textLength="832" x="306" y="977.6143">+VaccinationCenter(name,address,emailAddress,phoneNumber,faxNumber,websiteAddress,openingHours,closingHours,slotDuration,maximumVaccinesPerSlot,coordinator)</text><!--MD5=[cdda88bd94d57e06d95e6dd6ce9ee716]
link Arrival to Appointment--><path codeLine="80" d="M476.71,1486.05 C464.79,1508.06 448.72,1537.7 437.09,1559.16 " fill="none" id="Arrival-to-Appointment" style="stroke:#A80036;stroke-width:1.0;"/><polygon fill="#A80036" points="434.68,1563.61,442.4862,1557.6048,437.0633,1559.2145,435.4535,1553.7916,434.68,1563.61" style="stroke:#A80036;stroke-width:1.0;"/><text fill="#000000" font-family="sans-serif" font-size="13" lengthAdjust="spacing" textLength="21" x="461" y="1530.4951">has</text><text fill="#000000" font-family="sans-serif" font-size="13" lengthAdjust="spacing" textLength="7" x="465.8138" y="1507.2838">1</text><text fill="#000000" font-family="sans-serif" font-size="13" lengthAdjust="spacing" textLength="22" x="413.0895" y="1553.2529">0..1</text><!--MD5=[1bd9080c7e199931e49bc5a1616681ac]
link Company to SNSUserStore--><path codeLine="82" d="M217.12,301.27 C210.82,310.62 204.66,320.87 200,331 C153.55,432.01 126.41,559.95 113.75,631.85 " fill="none" id="Company-to-SNSUserStore" style="stroke:#A80036;stroke-width:1.0;stroke-dasharray:7.0,7.0;"/><polygon fill="#A80036" points="112.87,636.93,118.3759,628.7639,113.7406,632.0064,110.4981,627.371,112.87,636.93" style="stroke:#A80036;stroke-width:1.0;"/><!--MD5=[bc0d5b4bfe6e1bf0a8fced13bc4bdd47]
link Company to VaccinationCenterStore--><path codeLine="83" d="M295.68,301.14 C342.73,336.31 414.23,389.76 469.6,431.15 " fill="none" id="Company-to-VaccinationCenterStore" style="stroke:#A80036;stroke-width:1.0;stroke-dasharray:7.0,7.0;"/><polygon fill="#A80036" points="473.9,434.36,469.1,425.76,469.9,431.36,464.3,432.16,473.9,434.36" style="stroke:#A80036;stroke-width:1.0;"/><!--MD5=[1a8aa2b864b87f860d28abceaa28b7a5]
link Company to SNSUser--><path codeLine="84" d="M240.75,301.03 C234.82,346.07 226,424.45 226,492 C226,492 226,492 226,1117 C226,1154.9 247.06,1187.63 274.23,1214.1 " fill="none" id="Company-to-SNSUser" style="stroke:#A80036;stroke-width:1.0;"/><polygon fill="#A80036" points="277.92,1217.62,274.1632,1208.5158,274.3,1214.171,268.6448,1214.3078,277.92,1217.62" style="stroke:#A80036;stroke-width:1.0;"/><text fill="#000000" font-family="sans-serif" font-size="13" lengthAdjust="spacing" textLength="37" x="227" y="882.4951">knows</text><text fill="#000000" font-family="sans-serif" font-size="13" lengthAdjust="spacing" textLength="7" x="232.3008" y="322.2051">1</text><text fill="#000000" font-family="sans-serif" font-size="13" lengthAdjust="spacing" textLength="5" x="261.3457" y="1207.1781">*</text><!--MD5=[09366576ee87d48d594df10cacc83f45]
link Company to Employee--><path codeLine="85" d="M297.12,276.31 C381.19,296.71 553.83,339.23 699,379 C758.81,395.39 823.59,414.08 882.6,431.48 " fill="none" id="Company-to-Employee" style="stroke:#A80036;stroke-width:1.0;"/><polygon fill="#A80036" points="887.56,432.95,880.0575,426.5694,882.7639,431.5369,877.7964,434.2432,887.56,432.95" style="stroke:#A80036;stroke-width:1.0;"/><text fill="#000000" font-family="sans-serif" font-size="13" lengthAdjust="spacing" textLength="37" x="576" y="345.4951">knows</text><text fill="#000000" font-family="sans-serif" font-size="13" lengthAdjust="spacing" textLength="7" x="305.1423" y="274.6349">1</text><text fill="#000000" font-family="sans-serif" font-size="13" lengthAdjust="spacing" textLength="5" x="874.828" y="427.7964">*</text><!--MD5=[1da12df22706e73e1def33b218b7f412]
link Employee to Receptionist--><path codeLine="87" d="M1144.64,607.13 C1193.7,714.19 1242.05,874.41 1162,984 C1136.98,1018.25 1089.58,1030.88 1051.81,1035.3 " fill="none" id="Employee-to-Receptionist" style="stroke:#A80036;stroke-width:1.0;"/><polygon fill="#A80036" points="1046.78,1035.85,1056.161,1038.8494,1051.7505,1035.3072,1055.2926,1030.8967,1046.78,1035.85" style="stroke:#A80036;stroke-width:1.0;"/><text fill="#000000" font-family="sans-serif" font-size="13" lengthAdjust="spacing" textLength="49" x="1191" y="693.9951">plays as</text><text fill="#000000" font-family="sans-serif" font-size="13" lengthAdjust="spacing" textLength="7" x="1141.3646" y="628.4646">1</text><text fill="#000000" font-family="sans-serif" font-size="13" lengthAdjust="spacing" textLength="7" x="1054.4131" y="1031.9425">1</text><!--MD5=[24f82a13fe82ee63074bc80db6bef9fb]
link Receptionist to Arrival--><path codeLine="89" d="M973.26,1062.08 C918.25,1117.33 772.46,1260.26 637,1363 C607.48,1385.39 572.36,1407.66 544.19,1424.57 " fill="none" id="Receptionist-to-Arrival" style="stroke:#A80036;stroke-width:1.0;stroke-dasharray:7.0,7.0;"/><polygon fill="#A80036" points="539.73,1427.24,549.5083,1426.0635,544.0238,1424.6781,545.4092,1419.1935,539.73,1427.24" style="stroke:#A80036;stroke-width:1.0;"/><!--MD5=[73b4379c7f692e73188840e6b6f2b1ce]
link RegisterSNSUserArrivalController to Company--><path codeLine="91" d="M246,164.04 C246,179.71 246,200.91 246,219.58 " fill="none" id="RegisterSNSUserArrivalController-to-Company" style="stroke:#A80036;stroke-width:1.0;stroke-dasharray:7.0,7.0;"/><polygon fill="#A80036" points="246,224.77,250,215.77,246,219.77,242,215.77,246,224.77" style="stroke:#A80036;stroke-width:1.0;"/><!--MD5=[27947440cc9afdf8522ce84f95d7987e]
link RegisterSNSUserArrivalUI to RegisterSNSUserArrivalController--><path codeLine="93" d="M246,55.22 C246,71.48 246,93.32 246,110.62 " fill="none" id="RegisterSNSUserArrivalUI-to-RegisterSNSUserArrivalController" style="stroke:#A80036;stroke-width:1.0;stroke-dasharray:7.0,7.0;"/><polygon fill="#A80036" points="246,115.83,250,106.83,246,110.83,242,106.83,246,115.83" style="stroke:#A80036;stroke-width:1.0;"/><!--MD5=[b01d27099955aced792f1ce85db49798]
link SNSUserStore to SNSUser--><path codeLine="95" d="M99.85,740.23 C92.76,838.42 91.37,1056.32 200,1188 C207.98,1197.67 217.12,1206.53 226.99,1214.64 " fill="none" id="SNSUserStore-to-SNSUser" style="stroke:#A80036;stroke-width:1.0;"/><polygon fill="#A80036" points="230.95,1217.83,226.4327,1209.0782,227.0498,1214.7013,221.4268,1215.3185,230.95,1217.83" style="stroke:#A80036;stroke-width:1.0;"/><text fill="#000000" font-family="sans-serif" font-size="13" lengthAdjust="spacing" textLength="36" x="132" y="1043.4951">stores</text><text fill="#000000" font-family="sans-serif" font-size="13" lengthAdjust="spacing" textLength="7" x="91.6877" y="761.7519">1</text><text fill="#000000" font-family="sans-serif" font-size="13" lengthAdjust="spacing" textLength="5" x="208.9808" y="1207.0318">*</text><!--MD5=[8c304936b446fd8cea914e03fbadd4b7]
link VaccinationCenterStore to VaccinationCenter--><path codeLine="96" d="M576.79,551.6 C602.03,608 641.14,695.37 672.42,765.24 " fill="none" id="VaccinationCenterStore-to-VaccinationCenter" style="stroke:#A80036;stroke-width:1.0;"/><polygon fill="#A80036" points="674.47,769.82,674.4385,759.9712,672.4247,765.2575,667.1385,763.2436,674.47,769.82" style="stroke:#A80036;stroke-width:1.0;"/><text fill="#000000" font-family="sans-serif" font-size="13" lengthAdjust="spacing" textLength="36" x="657" y="693.9951">stores</text><text fill="#000000" font-family="sans-serif" font-size="13" lengthAdjust="spacing" textLength="7" x="572.5066" y="573.2225">1</text><text fill="#000000" font-family="sans-serif" font-size="13" lengthAdjust="spacing" textLength="5" x="665.9523" y="759.2278">*</text><!--MD5=[f5c720869033dc22d8f3d12ae1524a9f]
link VaccinationCenter to WaitingRoomList--><path codeLine="98" d="M666.53,984.02 C646.74,1021.85 626.05,1061.39 612.65,1086.99 " fill="none" id="VaccinationCenter-to-WaitingRoomList" style="stroke:#A80036;stroke-width:1.0;"/><polygon fill="#A80036" points="610.24,1091.61,617.9535,1085.4861,612.5558,1087.1786,610.8633,1081.7809,610.24,1091.61" style="stroke:#A80036;stroke-width:1.0;"/><text fill="#000000" font-family="sans-serif" font-size="13" lengthAdjust="spacing" textLength="21" x="649" y="1043.4951">has</text><text fill="#000000" font-family="sans-serif" font-size="13" lengthAdjust="spacing" textLength="7" x="655.3837" y="1005.6137">1</text><text fill="#000000" font-family="sans-serif" font-size="13" lengthAdjust="spacing" textLength="7" x="605.3704" y="1081.2529">1</text><!--MD5=[7237f06c0b74e3dd035481e962d83e87]
link SNSUser to Arrival--><path codeLine="100" d="M437.15,1363.25 C449.11,1382.68 461.52,1402.84 471.59,1419.21 " fill="none" id="SNSUser-to-Arrival" style="stroke:#A80036;stroke-width:1.0;stroke-dasharray:7.0,7.0;"/><polygon fill="#A80036" points="474.37,1423.73,473.0452,1413.9707,471.7431,1419.4756,466.2382,1418.1736,474.37,1423.73" style="stroke:#A80036;stroke-width:1.0;"/><!--MD5=[3f8bc51bb69ce45c3e3ea0b764df71f1]
link SNSUser to Appointment--><path codeLine="101" d="M400.02,1363.03 C406.19,1425.9 414.85,1514.11 419.23,1558.75 " fill="none" id="SNSUser-to-Appointment" style="stroke:#A80036;stroke-width:1.0;stroke-dasharray:7.0,7.0;"/><polygon fill="#A80036" points="419.74,1563.97,422.8193,1554.6149,419.2397,1558.9951,414.8594,1555.4155,419.74,1563.97" style="stroke:#A80036;stroke-width:1.0;"/><!--MD5=[317cc27f1f2f5516f59850c6145add81]
link WaitingRoomList to SNSUser--><path codeLine="103" d="M570.35,1140.26 C547.56,1159.44 513.92,1187.75 482.04,1214.57 " fill="none" id="WaitingRoomList-to-SNSUser" style="stroke:#A80036;stroke-width:1.0;"/><polygon fill="#A80036" points="478.16,1217.84,487.6189,1215.0959,481.9823,1214.6167,482.4616,1208.9802,478.16,1217.84" style="stroke:#A80036;stroke-width:1.0;"/><text fill="#000000" font-family="sans-serif" font-size="13" lengthAdjust="spacing" textLength="21" x="533" y="1184.4951">has</text><text fill="#000000" font-family="sans-serif" font-size="13" lengthAdjust="spacing" textLength="7" x="555.7572" y="1161.6613">1</text><text fill="#000000" font-family="sans-serif" font-size="13" lengthAdjust="spacing" textLength="5" x="481.6843" y="1207.0428">*</text><!--MD5=[bac51be4ee8f3cb96bc4ae28e0bf8cab]
@startuml US04_CD
skinparam classAttributeIconSize 0

class RegisterSNSUserArrivalUI {}

class RegisterSNSUserArrivalController {}

class Company {
  - String designation
  + getDesignation()
}

class SNSUser {
  - String citizenCard
  - String snsNumber
  - Date birthDay
  - Char gender
  - String phoneNumber
  - String address
  + SNSUser(citizenCard, snsNumber, name, birthDay, gender, phoneNumber, email, address)
}

class SNSUserStore {
  + createUser(name, email, pwd, roleId)
  + validateUser(user)
  + saveUser(user)
  + checkDuplicates(user)
}

class Employee {
  - id: String
  - address: String
  - phoneNumber: String
  - citizenCardNumber: String
  + Employee(id, name, address, phoneNumber, email, citizenCardNumber, roleId)
  + getId()
  + getName()
  + getAddress()
  + getPhoneNumber()
  + getEmail()
  + getCitizenCardNumber()
  + getPassword()
  + getRoleId()
}

class Receptionist {}

class Arrival {
  - Date arrivalDate
}

class Appointment {}

class WaitingRoomList {}

class VaccinationCenterStore {
  - - -
  + createVaccinationCenter(centerData, coordinator)
  + validateVaccinatonCenter(center)
  + saveVaccinationCenter(center)
  + checkDuplicates(center)
  + addVaccinationCenter(center)
}

class VaccinationCenter {
  - name: String
  - address: String
  - emailAddress: String
  - phoneNumber: String
  - faxNumber: String
  - websiteAddress: String
  - openingHours: String
  - closingHours: String
  - slotDuration: int
  - maximumVaccinesPerSlot: int
  - coordinator: EMPLOYEE
  - - -
  + VaccinationCenter(name,address,emailAddress,phoneNumber,faxNumber,websiteAddress,openingHours,closingHours,slotDuration,maximumVaccinesPerSlot,coordinator)
}

Arrival "1" - -> "0..1" Appointment : has

Company ..> SNSUserStore
Company ..> VaccinationCenterStore
Company "1" - -> "*" SNSUser : knows
Company "1" - -> "*" Employee : knows

Employee "1" - -> "1" Receptionist : plays as

Receptionist ..> Arrival

RegisterSNSUserArrivalController ..> Company

RegisterSNSUserArrivalUI ..> RegisterSNSUserArrivalController

SNSUserStore "1" - -> "*" SNSUser : stores
VaccinationCenterStore "1" - -> "*" VaccinationCenter : stores

VaccinationCenter "1" - -> "1" WaitingRoomList : has

SNSUser ..> Arrival
SNSUser ..> Appointment

WaitingRoomList "1" - -> "*" SNSUser : has

@enduml

PlantUML version 1.2022.0(Tue Jan 11 16:16:42 WET 2022)
(GPL source distribution)
Java Runtime: Java(TM) SE Runtime Environment
JVM: Java HotSpot(TM) 64-Bit Server VM
Default Encoding: Cp1252
Language: pt
Country: PT
--></g></svg>