<?xml version="1.0" encoding="UTF-8" standalone="no"?><svg xmlns="http://www.w3.org/2000/svg" xmlns:xlink="http://www.w3.org/1999/xlink" contentScriptType="application/ecmascript" contentStyleType="text/css" height="1728px" preserveAspectRatio="none" style="width:1290px;height:1728px;background:#FFFFFF;" version="1.1" viewBox="0 0 1290 1728" width="1290px" zoomAndPan="magnify"><defs><filter height="300%" id="f1w1ii857lusel" width="300%" x="-1" y="-1"><feGaussianBlur result="blurOut" stdDeviation="2.0"/><feColorMatrix in="blurOut" result="blurOut2" type="matrix" values="0 0 0 0 0 0 0 0 0 0 0 0 0 0 0 0 0 0 .4 0"/><feOffset dx="4.0" dy="4.0" in="blurOut2" result="blurOut3"/><feBlend in="SourceGraphic" in2="blurOut3" mode="normal"/></filter></defs><g><!--MD5=[c508b5b6bbe276ff5e2700b6641f837f]
class Appointment--><rect codeLine="3" fill="#FEFECE" filter="url(#f1w1ii857lusel)" height="48" id="Appointment" style="stroke:#A80036;stroke-width:1.5;" width="101" x="645.5" y="1540"/><ellipse cx="660.5" cy="1556" fill="#ADD1B2" rx="11" ry="11" style="stroke:#A80036;stroke-width:1.0;"/><path d="M663.2656,1551.875 Q663.4219,1551.6563 663.6094,1551.5469 Q663.7969,1551.4375 664.0156,1551.4375 Q664.3906,1551.4375 664.625,1551.7031 Q664.8594,1551.9531 664.8594,1552.5625 L664.8594,1554.0156 Q664.8594,1554.625 664.625,1554.8906 Q664.3906,1555.1563 664.0156,1555.1563 Q663.6719,1555.1563 663.4688,1554.9531 Q663.2656,1554.7656 663.1563,1554.25 Q663.1094,1553.8906 662.9219,1553.7031 Q662.5938,1553.3281 661.9844,1553.1094 Q661.375,1552.8906 660.75,1552.8906 Q659.9844,1552.8906 659.3438,1553.2188 Q658.7188,1553.5469 658.2188,1554.2969 Q657.7344,1555.0469 657.7344,1556.0781 L657.7344,1557.1719 Q657.7344,1558.4063 658.625,1559.2344 Q659.5156,1560.0469 661.1094,1560.0469 Q662.0469,1560.0469 662.7031,1559.7969 Q663.0938,1559.6406 663.5156,1559.2031 Q663.7813,1558.9375 663.9219,1558.8594 Q664.0781,1558.7813 664.2813,1558.7813 Q664.6094,1558.7813 664.8594,1559.0469 Q665.125,1559.2969 665.125,1559.6406 Q665.125,1559.9844 664.7813,1560.3906 Q664.2813,1560.9688 663.4844,1561.2969 Q662.4063,1561.75 661.1094,1561.75 Q659.5938,1561.75 658.3906,1561.125 Q657.4063,1560.625 656.7188,1559.5625 Q656.0313,1558.4844 656.0313,1557.2031 L656.0313,1556.0469 Q656.0313,1554.7188 656.6406,1553.5781 Q657.2656,1552.4219 658.3594,1551.8125 Q659.4531,1551.1875 660.6875,1551.1875 Q661.4219,1551.1875 662.0625,1551.3594 Q662.7188,1551.5156 663.2656,1551.875 Z " fill="#000000"/><text fill="#000000" font-family="sans-serif" font-size="12" lengthAdjust="spacing" textLength="69" x="674.5" y="1560.9102">Appointment</text><line style="stroke:#A80036;stroke-width:1.5;" x1="646.5" x2="745.5" y1="1572" y2="1572"/><line style="stroke:#A80036;stroke-width:1.5;" x1="646.5" x2="745.5" y1="1580" y2="1580"/><!--MD5=[3b05b00339990c8bac96769c0a2fc94b]
class AppointmentStore--><rect codeLine="5" fill="#FEFECE" filter="url(#f1w1ii857lusel)" height="48" id="AppointmentStore" style="stroke:#A80036;stroke-width:1.5;" width="130" x="819" y="1322"/><ellipse cx="834" cy="1338" fill="#ADD1B2" rx="11" ry="11" style="stroke:#A80036;stroke-width:1.0;"/><path d="M836.7656,1333.875 Q836.9219,1333.6563 837.1094,1333.5469 Q837.2969,1333.4375 837.5156,1333.4375 Q837.8906,1333.4375 838.125,1333.7031 Q838.3594,1333.9531 838.3594,1334.5625 L838.3594,1336.0156 Q838.3594,1336.625 838.125,1336.8906 Q837.8906,1337.1563 837.5156,1337.1563 Q837.1719,1337.1563 836.9688,1336.9531 Q836.7656,1336.7656 836.6563,1336.25 Q836.6094,1335.8906 836.4219,1335.7031 Q836.0938,1335.3281 835.4844,1335.1094 Q834.875,1334.8906 834.25,1334.8906 Q833.4844,1334.8906 832.8438,1335.2188 Q832.2188,1335.5469 831.7188,1336.2969 Q831.2344,1337.0469 831.2344,1338.0781 L831.2344,1339.1719 Q831.2344,1340.4063 832.125,1341.2344 Q833.0156,1342.0469 834.6094,1342.0469 Q835.5469,1342.0469 836.2031,1341.7969 Q836.5938,1341.6406 837.0156,1341.2031 Q837.2813,1340.9375 837.4219,1340.8594 Q837.5781,1340.7813 837.7813,1340.7813 Q838.1094,1340.7813 838.3594,1341.0469 Q838.625,1341.2969 838.625,1341.6406 Q838.625,1341.9844 838.2813,1342.3906 Q837.7813,1342.9688 836.9844,1343.2969 Q835.9063,1343.75 834.6094,1343.75 Q833.0938,1343.75 831.8906,1343.125 Q830.9063,1342.625 830.2188,1341.5625 Q829.5313,1340.4844 829.5313,1339.2031 L829.5313,1338.0469 Q829.5313,1336.7188 830.1406,1335.5781 Q830.7656,1334.4219 831.8594,1333.8125 Q832.9531,1333.1875 834.1875,1333.1875 Q834.9219,1333.1875 835.5625,1333.3594 Q836.2188,1333.5156 836.7656,1333.875 Z " fill="#000000"/><text fill="#000000" font-family="sans-serif" font-size="12" lengthAdjust="spacing" textLength="98" x="848" y="1342.9102">AppointmentStore</text><line style="stroke:#A80036;stroke-width:1.5;" x1="820" x2="948" y1="1354" y2="1354"/><line style="stroke:#A80036;stroke-width:1.5;" x1="820" x2="948" y1="1362" y2="1362"/><!--MD5=[950bab46f39ba9ae59885963abb53c18]
class Arrival--><rect codeLine="7" fill="#FEFECE" filter="url(#f1w1ii857lusel)" height="61.8359" id="Arrival" style="stroke:#A80036;stroke-width:1.5;" width="93" x="649.5" y="1400"/><ellipse cx="677.1" cy="1416" fill="#ADD1B2" rx="11" ry="11" style="stroke:#A80036;stroke-width:1.0;"/><path d="M679.8656,1411.875 Q680.0219,1411.6563 680.2094,1411.5469 Q680.3969,1411.4375 680.6156,1411.4375 Q680.9906,1411.4375 681.225,1411.7031 Q681.4594,1411.9531 681.4594,1412.5625 L681.4594,1414.0156 Q681.4594,1414.625 681.225,1414.8906 Q680.9906,1415.1563 680.6156,1415.1563 Q680.2719,1415.1563 680.0688,1414.9531 Q679.8656,1414.7656 679.7563,1414.25 Q679.7094,1413.8906 679.5219,1413.7031 Q679.1938,1413.3281 678.5844,1413.1094 Q677.975,1412.8906 677.35,1412.8906 Q676.5844,1412.8906 675.9438,1413.2188 Q675.3188,1413.5469 674.8188,1414.2969 Q674.3344,1415.0469 674.3344,1416.0781 L674.3344,1417.1719 Q674.3344,1418.4063 675.225,1419.2344 Q676.1156,1420.0469 677.7094,1420.0469 Q678.6469,1420.0469 679.3031,1419.7969 Q679.6938,1419.6406 680.1156,1419.2031 Q680.3813,1418.9375 680.5219,1418.8594 Q680.6781,1418.7813 680.8813,1418.7813 Q681.2094,1418.7813 681.4594,1419.0469 Q681.725,1419.2969 681.725,1419.6406 Q681.725,1419.9844 681.3813,1420.3906 Q680.8813,1420.9688 680.0844,1421.2969 Q679.0063,1421.75 677.7094,1421.75 Q676.1938,1421.75 674.9906,1421.125 Q674.0063,1420.625 673.3188,1419.5625 Q672.6313,1418.4844 672.6313,1417.2031 L672.6313,1416.0469 Q672.6313,1414.7188 673.2406,1413.5781 Q673.8656,1412.4219 674.9594,1411.8125 Q676.0531,1411.1875 677.2875,1411.1875 Q678.0219,1411.1875 678.6625,1411.3594 Q679.3188,1411.5156 679.8656,1411.875 Z " fill="#000000"/><text fill="#000000" font-family="sans-serif" font-size="12" lengthAdjust="spacing" textLength="33" x="693.9" y="1420.9102">Arrival</text><line style="stroke:#A80036;stroke-width:1.5;" x1="650.5" x2="741.5" y1="1432" y2="1432"/><text fill="#000000" font-family="sans-serif" font-size="11" lengthAdjust="spacing" textLength="81" x="655.5" y="1447.4189">-Date arrivalDate</text><line style="stroke:#A80036;stroke-width:1.5;" x1="650.5" x2="741.5" y1="1453.8359" y2="1453.8359"/><!--MD5=[02e4b9b7573f1156f41e60aa5b4e25a4]
class Company--><rect codeLine="11" fill="#FEFECE" filter="url(#f1w1ii857lusel)" height="75.6719" id="Company" style="stroke:#A80036;stroke-width:1.5;" width="102" x="503" y="225"/><ellipse cx="525.65" cy="241" fill="#ADD1B2" rx="11" ry="11" style="stroke:#A80036;stroke-width:1.0;"/><path d="M528.4156,236.875 Q528.5719,236.6563 528.7594,236.5469 Q528.9469,236.4375 529.1656,236.4375 Q529.5406,236.4375 529.775,236.7031 Q530.0094,236.9531 530.0094,237.5625 L530.0094,239.0156 Q530.0094,239.625 529.775,239.8906 Q529.5406,240.1563 529.1656,240.1563 Q528.8219,240.1563 528.6188,239.9531 Q528.4156,239.7656 528.3063,239.25 Q528.2594,238.8906 528.0719,238.7031 Q527.7438,238.3281 527.1344,238.1094 Q526.525,237.8906 525.9,237.8906 Q525.1344,237.8906 524.4938,238.2188 Q523.8688,238.5469 523.3688,239.2969 Q522.8844,240.0469 522.8844,241.0781 L522.8844,242.1719 Q522.8844,243.4063 523.775,244.2344 Q524.6656,245.0469 526.2594,245.0469 Q527.1969,245.0469 527.8531,244.7969 Q528.2438,244.6406 528.6656,244.2031 Q528.9313,243.9375 529.0719,243.8594 Q529.2281,243.7813 529.4313,243.7813 Q529.7594,243.7813 530.0094,244.0469 Q530.275,244.2969 530.275,244.6406 Q530.275,244.9844 529.9313,245.3906 Q529.4313,245.9688 528.6344,246.2969 Q527.5563,246.75 526.2594,246.75 Q524.7438,246.75 523.5406,246.125 Q522.5563,245.625 521.8688,244.5625 Q521.1813,243.4844 521.1813,242.2031 L521.1813,241.0469 Q521.1813,239.7188 521.7906,238.5781 Q522.4156,237.4219 523.5094,236.8125 Q524.6031,236.1875 525.8375,236.1875 Q526.5719,236.1875 527.2125,236.3594 Q527.8688,236.5156 528.4156,236.875 Z " fill="#000000"/><text fill="#000000" font-family="sans-serif" font-size="12" lengthAdjust="spacing" textLength="53" x="541.35" y="245.9102">Company</text><line style="stroke:#A80036;stroke-width:1.5;" x1="504" x2="604" y1="257" y2="257"/><text fill="#000000" font-family="sans-serif" font-size="11" lengthAdjust="spacing" textLength="90" x="509" y="272.4189">-String designation</text><line style="stroke:#A80036;stroke-width:1.5;" x1="504" x2="604" y1="278.8359" y2="278.8359"/><text fill="#000000" font-family="sans-serif" font-size="11" lengthAdjust="spacing" textLength="85" x="509" y="294.2549">+getDesignation()</text><!--MD5=[7421f545a0d8420c5bec41e74b387d9c]
class Employee--><rect codeLine="16" fill="#FEFECE" filter="url(#f1w1ii857lusel)" height="227.8672" id="Employee" style="stroke:#A80036;stroke-width:1.5;" width="390" x="7" y="379"/><ellipse cx="170.25" cy="395" fill="#ADD1B2" rx="11" ry="11" style="stroke:#A80036;stroke-width:1.0;"/><path d="M173.0156,390.875 Q173.1719,390.6563 173.3594,390.5469 Q173.5469,390.4375 173.7656,390.4375 Q174.1406,390.4375 174.375,390.7031 Q174.6094,390.9531 174.6094,391.5625 L174.6094,393.0156 Q174.6094,393.625 174.375,393.8906 Q174.1406,394.1563 173.7656,394.1563 Q173.4219,394.1563 173.2188,393.9531 Q173.0156,393.7656 172.9063,393.25 Q172.8594,392.8906 172.6719,392.7031 Q172.3438,392.3281 171.7344,392.1094 Q171.125,391.8906 170.5,391.8906 Q169.7344,391.8906 169.0938,392.2188 Q168.4688,392.5469 167.9688,393.2969 Q167.4844,394.0469 167.4844,395.0781 L167.4844,396.1719 Q167.4844,397.4063 168.375,398.2344 Q169.2656,399.0469 170.8594,399.0469 Q171.7969,399.0469 172.4531,398.7969 Q172.8438,398.6406 173.2656,398.2031 Q173.5313,397.9375 173.6719,397.8594 Q173.8281,397.7813 174.0313,397.7813 Q174.3594,397.7813 174.6094,398.0469 Q174.875,398.2969 174.875,398.6406 Q174.875,398.9844 174.5313,399.3906 Q174.0313,399.9688 173.2344,400.2969 Q172.1563,400.75 170.8594,400.75 Q169.3438,400.75 168.1406,400.125 Q167.1563,399.625 166.4688,398.5625 Q165.7813,397.4844 165.7813,396.2031 L165.7813,395.0469 Q165.7813,393.7188 166.3906,392.5781 Q167.0156,391.4219 168.1094,390.8125 Q169.2031,390.1875 170.4375,390.1875 Q171.1719,390.1875 171.8125,390.3594 Q172.4688,390.5156 173.0156,390.875 Z " fill="#000000"/><text fill="#000000" font-family="sans-serif" font-size="12" lengthAdjust="spacing" textLength="55" x="190.75" y="399.9102">Employee</text><line style="stroke:#A80036;stroke-width:1.5;" x1="8" x2="396" y1="411" y2="411"/><text fill="#000000" font-family="sans-serif" font-size="11" lengthAdjust="spacing" textLength="46" x="13" y="426.4189">-id: String</text><text fill="#000000" font-family="sans-serif" font-size="11" lengthAdjust="spacing" textLength="78" x="13" y="440.2549">-address: String</text><text fill="#000000" font-family="sans-serif" font-size="11" lengthAdjust="spacing" textLength="105" x="13" y="454.0908">-phoneNumber: String</text><text fill="#000000" font-family="sans-serif" font-size="11" lengthAdjust="spacing" textLength="129" x="13" y="467.9268">-citizenCardNumber: String</text><line style="stroke:#A80036;stroke-width:1.5;" x1="8" x2="396" y1="474.3438" y2="474.3438"/><text fill="#000000" font-family="sans-serif" font-size="11" lengthAdjust="spacing" textLength="378" x="13" y="489.7627">+Employee(id, name, address, phoneNumber, email, citizenCardNumber, roleId)</text><text fill="#000000" font-family="sans-serif" font-size="11" lengthAdjust="spacing" textLength="37" x="13" y="503.5986">+getId()</text><text fill="#000000" font-family="sans-serif" font-size="11" lengthAdjust="spacing" textLength="56" x="13" y="517.4346">+getName()</text><text fill="#000000" font-family="sans-serif" font-size="11" lengthAdjust="spacing" textLength="71" x="13" y="531.2705">+getAddress()</text><text fill="#000000" font-family="sans-serif" font-size="11" lengthAdjust="spacing" textLength="96" x="13" y="545.1064">+getPhoneNumber()</text><text fill="#000000" font-family="sans-serif" font-size="11" lengthAdjust="spacing" textLength="53" x="13" y="558.9424">+getEmail()</text><text fill="#000000" font-family="sans-serif" font-size="11" lengthAdjust="spacing" textLength="121" x="13" y="572.7783">+getCitizenCardNumber()</text><text fill="#000000" font-family="sans-serif" font-size="11" lengthAdjust="spacing" textLength="79" x="13" y="586.6143">+getPassword()</text><text fill="#000000" font-family="sans-serif" font-size="11" lengthAdjust="spacing" textLength="58" x="13" y="600.4502">+getRoleId()</text><!--MD5=[8824b6aaccc15e34c58b514197f6f874]
class RegisterSNSUserArrivalUI--><rect codeLine="32" fill="#FEFECE" filter="url(#f1w1ii857lusel)" height="48" id="RegisterSNSUserArrivalUI" style="stroke:#A80036;stroke-width:1.5;" width="176" x="466" y="7"/><ellipse cx="481" cy="23" fill="#ADD1B2" rx="11" ry="11" style="stroke:#A80036;stroke-width:1.0;"/><path d="M483.7656,18.875 Q483.9219,18.6563 484.1094,18.5469 Q484.2969,18.4375 484.5156,18.4375 Q484.8906,18.4375 485.125,18.7031 Q485.3594,18.9531 485.3594,19.5625 L485.3594,21.0156 Q485.3594,21.625 485.125,21.8906 Q484.8906,22.1563 484.5156,22.1563 Q484.1719,22.1563 483.9688,21.9531 Q483.7656,21.7656 483.6563,21.25 Q483.6094,20.8906 483.4219,20.7031 Q483.0938,20.3281 482.4844,20.1094 Q481.875,19.8906 481.25,19.8906 Q480.4844,19.8906 479.8438,20.2188 Q479.2188,20.5469 478.7188,21.2969 Q478.2344,22.0469 478.2344,23.0781 L478.2344,24.1719 Q478.2344,25.4063 479.125,26.2344 Q480.0156,27.0469 481.6094,27.0469 Q482.5469,27.0469 483.2031,26.7969 Q483.5938,26.6406 484.0156,26.2031 Q484.2813,25.9375 484.4219,25.8594 Q484.5781,25.7813 484.7813,25.7813 Q485.1094,25.7813 485.3594,26.0469 Q485.625,26.2969 485.625,26.6406 Q485.625,26.9844 485.2813,27.3906 Q484.7813,27.9688 483.9844,28.2969 Q482.9063,28.75 481.6094,28.75 Q480.0938,28.75 478.8906,28.125 Q477.9063,27.625 477.2188,26.5625 Q476.5313,25.4844 476.5313,24.2031 L476.5313,23.0469 Q476.5313,21.7188 477.1406,20.5781 Q477.7656,19.4219 478.8594,18.8125 Q479.9531,18.1875 481.1875,18.1875 Q481.9219,18.1875 482.5625,18.3594 Q483.2188,18.5156 483.7656,18.875 Z " fill="#000000"/><text fill="#000000" font-family="sans-serif" font-size="12" lengthAdjust="spacing" textLength="144" x="495" y="27.9102">RegisterSNSUserArrivalUI</text><line style="stroke:#A80036;stroke-width:1.5;" x1="467" x2="641" y1="39" y2="39"/><line style="stroke:#A80036;stroke-width:1.5;" x1="467" x2="641" y1="47" y2="47"/><!--MD5=[40e02fac8cc8accf59031f5c8e3a0fb4]
class RegisterSNSUserArrivalController--><rect codeLine="34" fill="#FEFECE" filter="url(#f1w1ii857lusel)" height="48" id="RegisterSNSUserArrivalController" style="stroke:#A80036;stroke-width:1.5;" width="218" x="445" y="116"/><ellipse cx="460" cy="132" fill="#ADD1B2" rx="11" ry="11" style="stroke:#A80036;stroke-width:1.0;"/><path d="M462.7656,127.875 Q462.9219,127.6563 463.1094,127.5469 Q463.2969,127.4375 463.5156,127.4375 Q463.8906,127.4375 464.125,127.7031 Q464.3594,127.9531 464.3594,128.5625 L464.3594,130.0156 Q464.3594,130.625 464.125,130.8906 Q463.8906,131.1563 463.5156,131.1563 Q463.1719,131.1563 462.9688,130.9531 Q462.7656,130.7656 462.6563,130.25 Q462.6094,129.8906 462.4219,129.7031 Q462.0938,129.3281 461.4844,129.1094 Q460.875,128.8906 460.25,128.8906 Q459.4844,128.8906 458.8438,129.2188 Q458.2188,129.5469 457.7188,130.2969 Q457.2344,131.0469 457.2344,132.0781 L457.2344,133.1719 Q457.2344,134.4063 458.125,135.2344 Q459.0156,136.0469 460.6094,136.0469 Q461.5469,136.0469 462.2031,135.7969 Q462.5938,135.6406 463.0156,135.2031 Q463.2813,134.9375 463.4219,134.8594 Q463.5781,134.7813 463.7813,134.7813 Q464.1094,134.7813 464.3594,135.0469 Q464.625,135.2969 464.625,135.6406 Q464.625,135.9844 464.2813,136.3906 Q463.7813,136.9688 462.9844,137.2969 Q461.9063,137.75 460.6094,137.75 Q459.0938,137.75 457.8906,137.125 Q456.9063,136.625 456.2188,135.5625 Q455.5313,134.4844 455.5313,133.2031 L455.5313,132.0469 Q455.5313,130.7188 456.1406,129.5781 Q456.7656,128.4219 457.8594,127.8125 Q458.9531,127.1875 460.1875,127.1875 Q460.9219,127.1875 461.5625,127.3594 Q462.2188,127.5156 462.7656,127.875 Z " fill="#000000"/><text fill="#000000" font-family="sans-serif" font-size="12" lengthAdjust="spacing" textLength="186" x="474" y="136.9102">RegisterSNSUserArrivalController</text><line style="stroke:#A80036;stroke-width:1.5;" x1="446" x2="662" y1="148" y2="148"/><line style="stroke:#A80036;stroke-width:1.5;" x1="446" x2="662" y1="156" y2="156"/><!--MD5=[72be06cc7ae02ccc98efe28a50e62246]
class SNSUser--><rect codeLine="36" fill="#FEFECE" filter="url(#f1w1ii857lusel)" height="144.8516" id="SNSUser" style="stroke:#A80036;stroke-width:1.5;" width="452" x="244" y="1147"/><ellipse cx="439.75" cy="1163" fill="#ADD1B2" rx="11" ry="11" style="stroke:#A80036;stroke-width:1.0;"/><path d="M442.5156,1158.875 Q442.6719,1158.6563 442.8594,1158.5469 Q443.0469,1158.4375 443.2656,1158.4375 Q443.6406,1158.4375 443.875,1158.7031 Q444.1094,1158.9531 444.1094,1159.5625 L444.1094,1161.0156 Q444.1094,1161.625 443.875,1161.8906 Q443.6406,1162.1563 443.2656,1162.1563 Q442.9219,1162.1563 442.7188,1161.9531 Q442.5156,1161.7656 442.4063,1161.25 Q442.3594,1160.8906 442.1719,1160.7031 Q441.8438,1160.3281 441.2344,1160.1094 Q440.625,1159.8906 440,1159.8906 Q439.2344,1159.8906 438.5938,1160.2188 Q437.9688,1160.5469 437.4688,1161.2969 Q436.9844,1162.0469 436.9844,1163.0781 L436.9844,1164.1719 Q436.9844,1165.4063 437.875,1166.2344 Q438.7656,1167.0469 440.3594,1167.0469 Q441.2969,1167.0469 441.9531,1166.7969 Q442.3438,1166.6406 442.7656,1166.2031 Q443.0313,1165.9375 443.1719,1165.8594 Q443.3281,1165.7813 443.5313,1165.7813 Q443.8594,1165.7813 444.1094,1166.0469 Q444.375,1166.2969 444.375,1166.6406 Q444.375,1166.9844 444.0313,1167.3906 Q443.5313,1167.9688 442.7344,1168.2969 Q441.6563,1168.75 440.3594,1168.75 Q438.8438,1168.75 437.6406,1168.125 Q436.6563,1167.625 435.9688,1166.5625 Q435.2813,1165.4844 435.2813,1164.2031 L435.2813,1163.0469 Q435.2813,1161.7188 435.8906,1160.5781 Q436.5156,1159.4219 437.6094,1158.8125 Q438.7031,1158.1875 439.9375,1158.1875 Q440.6719,1158.1875 441.3125,1158.3594 Q441.9688,1158.5156 442.5156,1158.875 Z " fill="#000000"/><text fill="#000000" font-family="sans-serif" font-size="12" lengthAdjust="spacing" textLength="52" x="460.25" y="1167.9102">SNSUser</text><line style="stroke:#A80036;stroke-width:1.5;" x1="245" x2="695" y1="1179" y2="1179"/><text fill="#000000" font-family="sans-serif" font-size="11" lengthAdjust="spacing" textLength="89" x="250" y="1194.4189">-String citizenCard</text><text fill="#000000" font-family="sans-serif" font-size="11" lengthAdjust="spacing" textLength="90" x="250" y="1208.2549">-String snsNumber</text><text fill="#000000" font-family="sans-serif" font-size="11" lengthAdjust="spacing" textLength="69" x="250" y="1222.0908">-Date birthDay</text><text fill="#000000" font-family="sans-serif" font-size="11" lengthAdjust="spacing" textLength="64" x="250" y="1235.9268">-Char gender</text><text fill="#000000" font-family="sans-serif" font-size="11" lengthAdjust="spacing" textLength="102" x="250" y="1249.7627">-String phoneNumber</text><text fill="#000000" font-family="sans-serif" font-size="11" lengthAdjust="spacing" textLength="75" x="250" y="1263.5986">-String address</text><line style="stroke:#A80036;stroke-width:1.5;" x1="245" x2="695" y1="1270.0156" y2="1270.0156"/><text fill="#000000" font-family="sans-serif" font-size="11" lengthAdjust="spacing" textLength="440" x="250" y="1285.4346">+SNSUser(citizenCard, snsNumber, name, birthDay, gender, phoneNumber, email, address)</text><!--MD5=[a5ad3856b0c65e07b10297b4477b22bb]
class SNSUserStore--><rect codeLine="46" fill="#FEFECE" filter="url(#f1w1ii857lusel)" height="103.3438" id="SNSUserStore" style="stroke:#A80036;stroke-width:1.5;" width="196" x="288" y="637"/><ellipse cx="341.25" cy="653" fill="#ADD1B2" rx="11" ry="11" style="stroke:#A80036;stroke-width:1.0;"/><path d="M344.0156,648.875 Q344.1719,648.6563 344.3594,648.5469 Q344.5469,648.4375 344.7656,648.4375 Q345.1406,648.4375 345.375,648.7031 Q345.6094,648.9531 345.6094,649.5625 L345.6094,651.0156 Q345.6094,651.625 345.375,651.8906 Q345.1406,652.1563 344.7656,652.1563 Q344.4219,652.1563 344.2188,651.9531 Q344.0156,651.7656 343.9063,651.25 Q343.8594,650.8906 343.6719,650.7031 Q343.3438,650.3281 342.7344,650.1094 Q342.125,649.8906 341.5,649.8906 Q340.7344,649.8906 340.0938,650.2188 Q339.4688,650.5469 338.9688,651.2969 Q338.4844,652.0469 338.4844,653.0781 L338.4844,654.1719 Q338.4844,655.4063 339.375,656.2344 Q340.2656,657.0469 341.8594,657.0469 Q342.7969,657.0469 343.4531,656.7969 Q343.8438,656.6406 344.2656,656.2031 Q344.5313,655.9375 344.6719,655.8594 Q344.8281,655.7813 345.0313,655.7813 Q345.3594,655.7813 345.6094,656.0469 Q345.875,656.2969 345.875,656.6406 Q345.875,656.9844 345.5313,657.3906 Q345.0313,657.9688 344.2344,658.2969 Q343.1563,658.75 341.8594,658.75 Q340.3438,658.75 339.1406,658.125 Q338.1563,657.625 337.4688,656.5625 Q336.7813,655.4844 336.7813,654.2031 L336.7813,653.0469 Q336.7813,651.7188 337.3906,650.5781 Q338.0156,649.4219 339.1094,648.8125 Q340.2031,648.1875 341.4375,648.1875 Q342.1719,648.1875 342.8125,648.3594 Q343.4688,648.5156 344.0156,648.875 Z " fill="#000000"/><text fill="#000000" font-family="sans-serif" font-size="12" lengthAdjust="spacing" textLength="81" x="361.75" y="657.9102">SNSUserStore</text><line style="stroke:#A80036;stroke-width:1.5;" x1="289" x2="483" y1="669" y2="669"/><line style="stroke:#A80036;stroke-width:1.5;" x1="289" x2="483" y1="677" y2="677"/><text fill="#000000" font-family="sans-serif" font-size="11" lengthAdjust="spacing" textLength="184" x="294" y="692.4189">+createUser(name, email, pwd, roleId)</text><text fill="#000000" font-family="sans-serif" font-size="11" lengthAdjust="spacing" textLength="96" x="294" y="706.2549">+validateUser(user)</text><text fill="#000000" font-family="sans-serif" font-size="11" lengthAdjust="spacing" textLength="83" x="294" y="720.0908">+saveUser(user)</text><text fill="#000000" font-family="sans-serif" font-size="11" lengthAdjust="spacing" textLength="115" x="294" y="733.9268">+checkDuplicates(user)</text><!--MD5=[03960189e81aa2c066c762ffabbee709]
class Receptionist--><rect codeLine="54" fill="#FEFECE" filter="url(#f1w1ii857lusel)" height="48" id="Receptionist" style="stroke:#A80036;stroke-width:1.5;" width="101" x="197.5" y="1322"/><ellipse cx="212.5" cy="1338" fill="#ADD1B2" rx="11" ry="11" style="stroke:#A80036;stroke-width:1.0;"/><path d="M215.2656,1333.875 Q215.4219,1333.6563 215.6094,1333.5469 Q215.7969,1333.4375 216.0156,1333.4375 Q216.3906,1333.4375 216.625,1333.7031 Q216.8594,1333.9531 216.8594,1334.5625 L216.8594,1336.0156 Q216.8594,1336.625 216.625,1336.8906 Q216.3906,1337.1563 216.0156,1337.1563 Q215.6719,1337.1563 215.4688,1336.9531 Q215.2656,1336.7656 215.1563,1336.25 Q215.1094,1335.8906 214.9219,1335.7031 Q214.5938,1335.3281 213.9844,1335.1094 Q213.375,1334.8906 212.75,1334.8906 Q211.9844,1334.8906 211.3438,1335.2188 Q210.7188,1335.5469 210.2188,1336.2969 Q209.7344,1337.0469 209.7344,1338.0781 L209.7344,1339.1719 Q209.7344,1340.4063 210.625,1341.2344 Q211.5156,1342.0469 213.1094,1342.0469 Q214.0469,1342.0469 214.7031,1341.7969 Q215.0938,1341.6406 215.5156,1341.2031 Q215.7813,1340.9375 215.9219,1340.8594 Q216.0781,1340.7813 216.2813,1340.7813 Q216.6094,1340.7813 216.8594,1341.0469 Q217.125,1341.2969 217.125,1341.6406 Q217.125,1341.9844 216.7813,1342.3906 Q216.2813,1342.9688 215.4844,1343.2969 Q214.4063,1343.75 213.1094,1343.75 Q211.5938,1343.75 210.3906,1343.125 Q209.4063,1342.625 208.7188,1341.5625 Q208.0313,1340.4844 208.0313,1339.2031 L208.0313,1338.0469 Q208.0313,1336.7188 208.6406,1335.5781 Q209.2656,1334.4219 210.3594,1333.8125 Q211.4531,1333.1875 212.6875,1333.1875 Q213.4219,1333.1875 214.0625,1333.3594 Q214.7188,1333.5156 215.2656,1333.875 Z " fill="#000000"/><text fill="#000000" font-family="sans-serif" font-size="12" lengthAdjust="spacing" textLength="69" x="226.5" y="1342.9102">Receptionist</text><line style="stroke:#A80036;stroke-width:1.5;" x1="198.5" x2="297.5" y1="1354" y2="1354"/><line style="stroke:#A80036;stroke-width:1.5;" x1="198.5" x2="297.5" y1="1362" y2="1362"/><!--MD5=[a88c56e1dc44d9d0e1fcd2eec4fd7e58]
class SMSSender--><rect codeLine="57" fill="#FEFECE" filter="url(#f1w1ii857lusel)" height="48" id="SMSSender" style="stroke:#A80036;stroke-width:1.5;" width="97" x="647.5" y="1666"/><ellipse cx="662.5" cy="1682" fill="#ADD1B2" rx="11" ry="11" style="stroke:#A80036;stroke-width:1.0;"/><path d="M665.2656,1677.875 Q665.4219,1677.6563 665.6094,1677.5469 Q665.7969,1677.4375 666.0156,1677.4375 Q666.3906,1677.4375 666.625,1677.7031 Q666.8594,1677.9531 666.8594,1678.5625 L666.8594,1680.0156 Q666.8594,1680.625 666.625,1680.8906 Q666.3906,1681.1563 666.0156,1681.1563 Q665.6719,1681.1563 665.4688,1680.9531 Q665.2656,1680.7656 665.1563,1680.25 Q665.1094,1679.8906 664.9219,1679.7031 Q664.5938,1679.3281 663.9844,1679.1094 Q663.375,1678.8906 662.75,1678.8906 Q661.9844,1678.8906 661.3438,1679.2188 Q660.7188,1679.5469 660.2188,1680.2969 Q659.7344,1681.0469 659.7344,1682.0781 L659.7344,1683.1719 Q659.7344,1684.4063 660.625,1685.2344 Q661.5156,1686.0469 663.1094,1686.0469 Q664.0469,1686.0469 664.7031,1685.7969 Q665.0938,1685.6406 665.5156,1685.2031 Q665.7813,1684.9375 665.9219,1684.8594 Q666.0781,1684.7813 666.2813,1684.7813 Q666.6094,1684.7813 666.8594,1685.0469 Q667.125,1685.2969 667.125,1685.6406 Q667.125,1685.9844 666.7813,1686.3906 Q666.2813,1686.9688 665.4844,1687.2969 Q664.4063,1687.75 663.1094,1687.75 Q661.5938,1687.75 660.3906,1687.125 Q659.4063,1686.625 658.7188,1685.5625 Q658.0313,1684.4844 658.0313,1683.2031 L658.0313,1682.0469 Q658.0313,1680.7188 658.6406,1679.5781 Q659.2656,1678.4219 660.3594,1677.8125 Q661.4531,1677.1875 662.6875,1677.1875 Q663.4219,1677.1875 664.0625,1677.3594 Q664.7188,1677.5156 665.2656,1677.875 Z " fill="#000000"/><text fill="#000000" font-family="sans-serif" font-size="12" lengthAdjust="spacing" textLength="65" x="676.5" y="1686.9102">SMSSender</text><line style="stroke:#A80036;stroke-width:1.5;" x1="648.5" x2="743.5" y1="1698" y2="1698"/><line style="stroke:#A80036;stroke-width:1.5;" x1="648.5" x2="743.5" y1="1706" y2="1706"/><!--MD5=[de60e6d4f424ae4d0522096f76a59010]
class VaccinationCenter--><rect codeLine="59" fill="#FEFECE" filter="url(#f1w1ii857lusel)" height="214.0313" id="VaccinationCenter" style="stroke:#A80036;stroke-width:1.5;" width="844" x="373" y="770"/><ellipse cx="740.75" cy="786" fill="#ADD1B2" rx="11" ry="11" style="stroke:#A80036;stroke-width:1.0;"/><path d="M743.5156,781.875 Q743.6719,781.6563 743.8594,781.5469 Q744.0469,781.4375 744.2656,781.4375 Q744.6406,781.4375 744.875,781.7031 Q745.1094,781.9531 745.1094,782.5625 L745.1094,784.0156 Q745.1094,784.625 744.875,784.8906 Q744.6406,785.1563 744.2656,785.1563 Q743.9219,785.1563 743.7188,784.9531 Q743.5156,784.7656 743.4063,784.25 Q743.3594,783.8906 743.1719,783.7031 Q742.8438,783.3281 742.2344,783.1094 Q741.625,782.8906 741,782.8906 Q740.2344,782.8906 739.5938,783.2188 Q738.9688,783.5469 738.4688,784.2969 Q737.9844,785.0469 737.9844,786.0781 L737.9844,787.1719 Q737.9844,788.4063 738.875,789.2344 Q739.7656,790.0469 741.3594,790.0469 Q742.2969,790.0469 742.9531,789.7969 Q743.3438,789.6406 743.7656,789.2031 Q744.0313,788.9375 744.1719,788.8594 Q744.3281,788.7813 744.5313,788.7813 Q744.8594,788.7813 745.1094,789.0469 Q745.375,789.2969 745.375,789.6406 Q745.375,789.9844 745.0313,790.3906 Q744.5313,790.9688 743.7344,791.2969 Q742.6563,791.75 741.3594,791.75 Q739.8438,791.75 738.6406,791.125 Q737.6563,790.625 736.9688,789.5625 Q736.2813,788.4844 736.2813,787.2031 L736.2813,786.0469 Q736.2813,784.7188 736.8906,783.5781 Q737.5156,782.4219 738.6094,781.8125 Q739.7031,781.1875 740.9375,781.1875 Q741.6719,781.1875 742.3125,781.3594 Q742.9688,781.5156 743.5156,781.875 Z " fill="#000000"/><text fill="#000000" font-family="sans-serif" font-size="12" lengthAdjust="spacing" textLength="100" x="761.25" y="790.9102">VaccinationCenter</text><line style="stroke:#A80036;stroke-width:1.5;" x1="374" x2="1216" y1="802" y2="802"/><text fill="#000000" font-family="sans-serif" font-size="11" lengthAdjust="spacing" textLength="64" x="379" y="817.4189">-name: String</text><text fill="#000000" font-family="sans-serif" font-size="11" lengthAdjust="spacing" textLength="78" x="379" y="831.2549">-address: String</text><text fill="#000000" font-family="sans-serif" font-size="11" lengthAdjust="spacing" textLength="104" x="379" y="845.0908">-emailAddress: String</text><text fill="#000000" font-family="sans-serif" font-size="11" lengthAdjust="spacing" textLength="105" x="379" y="858.9268">-phoneNumber: String</text><text fill="#000000" font-family="sans-serif" font-size="11" lengthAdjust="spacing" textLength="91" x="379" y="872.7627">-faxNumber: String</text><text fill="#000000" font-family="sans-serif" font-size="11" lengthAdjust="spacing" textLength="119" x="379" y="886.5986">-websiteAddress: String</text><text fill="#000000" font-family="sans-serif" font-size="11" lengthAdjust="spacing" textLength="105" x="379" y="900.4346">-openingHours: String</text><text fill="#000000" font-family="sans-serif" font-size="11" lengthAdjust="spacing" textLength="101" x="379" y="914.2705">-closingHours: String</text><text fill="#000000" font-family="sans-serif" font-size="11" lengthAdjust="spacing" textLength="78" x="379" y="928.1064">-slotDuration: int</text><text fill="#000000" font-family="sans-serif" font-size="11" lengthAdjust="spacing" textLength="145" x="379" y="941.9424">-maximumVaccinesPerSlot: int</text><text fill="#000000" font-family="sans-serif" font-size="11" lengthAdjust="spacing" textLength="119" x="379" y="955.7783">-coordinator: EMPLOYEE</text><line style="stroke:#A80036;stroke-width:1.0;" x1="374" x2="1216" y1="962.1953" y2="962.1953"/><text fill="#000000" font-family="sans-serif" font-size="11" lengthAdjust="spacing" textLength="832" x="379" y="977.6143">+VaccinationCenter(name,address,emailAddress,phoneNumber,faxNumber,websiteAddress,openingHours,closingHours,slotDuration,maximumVaccinesPerSlot,coordinator)</text><!--MD5=[a29876ea2f21a6ca48ea477740122fd8]
class VaccinationCenterStore--><rect codeLine="75" fill="#FEFECE" filter="url(#f1w1ii857lusel)" height="117.1797" id="VaccinationCenterStore" style="stroke:#A80036;stroke-width:1.5;" width="260" x="568" y="434.5"/><ellipse cx="629.25" cy="450.5" fill="#ADD1B2" rx="11" ry="11" style="stroke:#A80036;stroke-width:1.0;"/><path d="M632.0156,446.375 Q632.1719,446.1563 632.3594,446.0469 Q632.5469,445.9375 632.7656,445.9375 Q633.1406,445.9375 633.375,446.2031 Q633.6094,446.4531 633.6094,447.0625 L633.6094,448.5156 Q633.6094,449.125 633.375,449.3906 Q633.1406,449.6563 632.7656,449.6563 Q632.4219,449.6563 632.2188,449.4531 Q632.0156,449.2656 631.9063,448.75 Q631.8594,448.3906 631.6719,448.2031 Q631.3438,447.8281 630.7344,447.6094 Q630.125,447.3906 629.5,447.3906 Q628.7344,447.3906 628.0938,447.7188 Q627.4688,448.0469 626.9688,448.7969 Q626.4844,449.5469 626.4844,450.5781 L626.4844,451.6719 Q626.4844,452.9063 627.375,453.7344 Q628.2656,454.5469 629.8594,454.5469 Q630.7969,454.5469 631.4531,454.2969 Q631.8438,454.1406 632.2656,453.7031 Q632.5313,453.4375 632.6719,453.3594 Q632.8281,453.2813 633.0313,453.2813 Q633.3594,453.2813 633.6094,453.5469 Q633.875,453.7969 633.875,454.1406 Q633.875,454.4844 633.5313,454.8906 Q633.0313,455.4688 632.2344,455.7969 Q631.1563,456.25 629.8594,456.25 Q628.3438,456.25 627.1406,455.625 Q626.1563,455.125 625.4688,454.0625 Q624.7813,452.9844 624.7813,451.7031 L624.7813,450.5469 Q624.7813,449.2188 625.3906,448.0781 Q626.0156,446.9219 627.1094,446.3125 Q628.2031,445.6875 629.4375,445.6875 Q630.1719,445.6875 630.8125,445.8594 Q631.4688,446.0156 632.0156,446.375 Z " fill="#000000"/><text fill="#000000" font-family="sans-serif" font-size="12" lengthAdjust="spacing" textLength="129" x="649.75" y="455.4102">VaccinationCenterStore</text><line style="stroke:#A80036;stroke-width:1.5;" x1="569" x2="827" y1="466.5" y2="466.5"/><line style="stroke:#A80036;stroke-width:1.0;" x1="569" x2="827" y1="474.5" y2="474.5"/><text fill="#000000" font-family="sans-serif" font-size="11" lengthAdjust="spacing" textLength="248" x="574" y="489.9189">+createVaccinationCenter(centerData, coordinator)</text><text fill="#000000" font-family="sans-serif" font-size="11" lengthAdjust="spacing" textLength="169" x="574" y="503.7549">+validateVaccinatonCenter(center)</text><text fill="#000000" font-family="sans-serif" font-size="11" lengthAdjust="spacing" textLength="158" x="574" y="517.5908">+saveVaccinationCenter(center)</text><text fill="#000000" font-family="sans-serif" font-size="11" lengthAdjust="spacing" textLength="124" x="574" y="531.4268">+checkDuplicates(center)</text><text fill="#000000" font-family="sans-serif" font-size="11" lengthAdjust="spacing" textLength="152" x="574" y="545.2627">+addVaccinationCenter(center)</text><!--MD5=[0e501da62322464167c8ec4d233a6b7e]
class VaccineType--><rect codeLine="84" fill="#FEFECE" filter="url(#f1w1ii857lusel)" height="103.3438" id="VaccineType" style="stroke:#A80036;stroke-width:1.5;" width="232" x="1044" y="1014"/><ellipse cx="1121.25" cy="1030" fill="#ADD1B2" rx="11" ry="11" style="stroke:#A80036;stroke-width:1.0;"/><path d="M1124.0156,1025.875 Q1124.1719,1025.6563 1124.3594,1025.5469 Q1124.5469,1025.4375 1124.7656,1025.4375 Q1125.1406,1025.4375 1125.375,1025.7031 Q1125.6094,1025.9531 1125.6094,1026.5625 L1125.6094,1028.0156 Q1125.6094,1028.625 1125.375,1028.8906 Q1125.1406,1029.1563 1124.7656,1029.1563 Q1124.4219,1029.1563 1124.2188,1028.9531 Q1124.0156,1028.7656 1123.9063,1028.25 Q1123.8594,1027.8906 1123.6719,1027.7031 Q1123.3438,1027.3281 1122.7344,1027.1094 Q1122.125,1026.8906 1121.5,1026.8906 Q1120.7344,1026.8906 1120.0938,1027.2188 Q1119.4688,1027.5469 1118.9688,1028.2969 Q1118.4844,1029.0469 1118.4844,1030.0781 L1118.4844,1031.1719 Q1118.4844,1032.4063 1119.375,1033.2344 Q1120.2656,1034.0469 1121.8594,1034.0469 Q1122.7969,1034.0469 1123.4531,1033.7969 Q1123.8438,1033.6406 1124.2656,1033.2031 Q1124.5313,1032.9375 1124.6719,1032.8594 Q1124.8281,1032.7813 1125.0313,1032.7813 Q1125.3594,1032.7813 1125.6094,1033.0469 Q1125.875,1033.2969 1125.875,1033.6406 Q1125.875,1033.9844 1125.5313,1034.3906 Q1125.0313,1034.9688 1124.2344,1035.2969 Q1123.1563,1035.75 1121.8594,1035.75 Q1120.3438,1035.75 1119.1406,1035.125 Q1118.1563,1034.625 1117.4688,1033.5625 Q1116.7813,1032.4844 1116.7813,1031.2031 L1116.7813,1030.0469 Q1116.7813,1028.7188 1117.3906,1027.5781 Q1118.0156,1026.4219 1119.1094,1025.8125 Q1120.2031,1025.1875 1121.4375,1025.1875 Q1122.1719,1025.1875 1122.8125,1025.3594 Q1123.4688,1025.5156 1124.0156,1025.875 Z " fill="#000000"/><text fill="#000000" font-family="sans-serif" font-size="12" lengthAdjust="spacing" textLength="69" x="1141.75" y="1034.9102">VaccineType</text><line style="stroke:#A80036;stroke-width:1.5;" x1="1045" x2="1275" y1="1046" y2="1046"/><text fill="#000000" font-family="sans-serif" font-size="11" lengthAdjust="spacing" textLength="62" x="1050" y="1061.4189">-code: String</text><text fill="#000000" font-family="sans-serif" font-size="11" lengthAdjust="spacing" textLength="94" x="1050" y="1075.2549">-description : String</text><text fill="#000000" font-family="sans-serif" font-size="11" lengthAdjust="spacing" textLength="94" x="1050" y="1089.0908">-technology : String</text><line style="stroke:#A80036;stroke-width:1.0;" x1="1045" x2="1275" y1="1095.5078" y2="1095.5078"/><text fill="#000000" font-family="sans-serif" font-size="11" lengthAdjust="spacing" textLength="220" x="1050" y="1110.9268">+VaccineType(code, description, technology)</text><!--MD5=[9532c95099058dfe385d7270fd32fc0d]
class VaccineTypeStore--><rect codeLine="92" fill="#FEFECE" filter="url(#f1w1ii857lusel)" height="89.5078" id="VaccineTypeStore" style="stroke:#A80036;stroke-width:1.5;" width="141" x="1043.5" y="448"/><ellipse cx="1063.45" cy="464" fill="#ADD1B2" rx="11" ry="11" style="stroke:#A80036;stroke-width:1.0;"/><path d="M1066.2156,459.875 Q1066.3719,459.6563 1066.5594,459.5469 Q1066.7469,459.4375 1066.9656,459.4375 Q1067.3406,459.4375 1067.575,459.7031 Q1067.8094,459.9531 1067.8094,460.5625 L1067.8094,462.0156 Q1067.8094,462.625 1067.575,462.8906 Q1067.3406,463.1563 1066.9656,463.1563 Q1066.6219,463.1563 1066.4188,462.9531 Q1066.2156,462.7656 1066.1063,462.25 Q1066.0594,461.8906 1065.8719,461.7031 Q1065.5438,461.3281 1064.9344,461.1094 Q1064.325,460.8906 1063.7,460.8906 Q1062.9344,460.8906 1062.2938,461.2188 Q1061.6688,461.5469 1061.1688,462.2969 Q1060.6844,463.0469 1060.6844,464.0781 L1060.6844,465.1719 Q1060.6844,466.4063 1061.575,467.2344 Q1062.4656,468.0469 1064.0594,468.0469 Q1064.9969,468.0469 1065.6531,467.7969 Q1066.0438,467.6406 1066.4656,467.2031 Q1066.7313,466.9375 1066.8719,466.8594 Q1067.0281,466.7813 1067.2313,466.7813 Q1067.5594,466.7813 1067.8094,467.0469 Q1068.075,467.2969 1068.075,467.6406 Q1068.075,467.9844 1067.7313,468.3906 Q1067.2313,468.9688 1066.4344,469.2969 Q1065.3563,469.75 1064.0594,469.75 Q1062.5438,469.75 1061.3406,469.125 Q1060.3563,468.625 1059.6688,467.5625 Q1058.9813,466.4844 1058.9813,465.2031 L1058.9813,464.0469 Q1058.9813,462.7188 1059.5906,461.5781 Q1060.2156,460.4219 1061.3094,459.8125 Q1062.4031,459.1875 1063.6375,459.1875 Q1064.3719,459.1875 1065.0125,459.3594 Q1065.6688,459.5156 1066.2156,459.875 Z " fill="#000000"/><text fill="#000000" font-family="sans-serif" font-size="12" lengthAdjust="spacing" textLength="98" x="1078.55" y="468.9102">VaccineTypeStore</text><line style="stroke:#A80036;stroke-width:1.5;" x1="1044.5" x2="1183.5" y1="480" y2="480"/><line style="stroke:#A80036;stroke-width:1.5;" x1="1044.5" x2="1183.5" y1="488" y2="488"/><text fill="#000000" font-family="sans-serif" font-size="11" lengthAdjust="spacing" textLength="129" x="1049.5" y="503.4189">-getVaccineTypeByCode()</text><text fill="#000000" font-family="sans-serif" font-size="11" lengthAdjust="spacing" textLength="94" x="1049.5" y="517.2549">-addVaccineType()</text><text fill="#000000" font-family="sans-serif" font-size="11" lengthAdjust="spacing" textLength="100" x="1049.5" y="531.0908">-saveVaccineType()</text><!--MD5=[7b3e8f70d80133538393dc99d446cc4d]
class WaitingRoomList--><rect codeLine="98" fill="#FEFECE" filter="url(#f1w1ii857lusel)" height="48" id="WaitingRoomList" style="stroke:#A80036;stroke-width:1.5;" width="127" x="731.5" y="1195.5"/><ellipse cx="746.5" cy="1211.5" fill="#ADD1B2" rx="11" ry="11" style="stroke:#A80036;stroke-width:1.0;"/><path d="M749.2656,1207.375 Q749.4219,1207.1563 749.6094,1207.0469 Q749.7969,1206.9375 750.0156,1206.9375 Q750.3906,1206.9375 750.625,1207.2031 Q750.8594,1207.4531 750.8594,1208.0625 L750.8594,1209.5156 Q750.8594,1210.125 750.625,1210.3906 Q750.3906,1210.6563 750.0156,1210.6563 Q749.6719,1210.6563 749.4688,1210.4531 Q749.2656,1210.2656 749.1563,1209.75 Q749.1094,1209.3906 748.9219,1209.2031 Q748.5938,1208.8281 747.9844,1208.6094 Q747.375,1208.3906 746.75,1208.3906 Q745.9844,1208.3906 745.3438,1208.7188 Q744.7188,1209.0469 744.2188,1209.7969 Q743.7344,1210.5469 743.7344,1211.5781 L743.7344,1212.6719 Q743.7344,1213.9063 744.625,1214.7344 Q745.5156,1215.5469 747.1094,1215.5469 Q748.0469,1215.5469 748.7031,1215.2969 Q749.0938,1215.1406 749.5156,1214.7031 Q749.7813,1214.4375 749.9219,1214.3594 Q750.0781,1214.2813 750.2813,1214.2813 Q750.6094,1214.2813 750.8594,1214.5469 Q751.125,1214.7969 751.125,1215.1406 Q751.125,1215.4844 750.7813,1215.8906 Q750.2813,1216.4688 749.4844,1216.7969 Q748.4063,1217.25 747.1094,1217.25 Q745.5938,1217.25 744.3906,1216.625 Q743.4063,1216.125 742.7188,1215.0625 Q742.0313,1213.9844 742.0313,1212.7031 L742.0313,1211.5469 Q742.0313,1210.2188 742.6406,1209.0781 Q743.2656,1207.9219 744.3594,1207.3125 Q745.4531,1206.6875 746.6875,1206.6875 Q747.4219,1206.6875 748.0625,1206.8594 Q748.7188,1207.0156 749.2656,1207.375 Z " fill="#000000"/><text fill="#000000" font-family="sans-serif" font-size="12" lengthAdjust="spacing" textLength="95" x="760.5" y="1216.4102">WaitingRoomList</text><line style="stroke:#A80036;stroke-width:1.5;" x1="732.5" x2="857.5" y1="1227.5" y2="1227.5"/><line style="stroke:#A80036;stroke-width:1.5;" x1="732.5" x2="857.5" y1="1235.5" y2="1235.5"/><!--MD5=[8f7d5f20baa4a3ca4f3a05061f7ec7bc]
link Appointment to SMSSender--><path codeLine="101" d="M696,1588.03 C696,1608.52 696,1638.56 696,1660.55 " fill="none" id="Appointment-to-SMSSender" style="stroke:#A80036;stroke-width:1.0;"/><polygon fill="#A80036" points="696,1665.67,700,1656.67,696,1660.67,692,1656.67,696,1665.67" style="stroke:#A80036;stroke-width:1.0;"/><text fill="#000000" font-family="sans-serif" font-size="13" lengthAdjust="spacing" textLength="43" x="697" y="1632.4951">triggers</text><text fill="#000000" font-family="sans-serif" font-size="13" lengthAdjust="spacing" textLength="7" x="688.1469" y="1609.3753">1</text><text fill="#000000" font-family="sans-serif" font-size="13" lengthAdjust="spacing" textLength="22" x="671.3188" y="1655.3275">0..1</text><!--MD5=[7e4d1c1f89ef7b23edc77e66714a226e]
link AppointmentStore to Appointment--><path codeLine="103" d="M863.88,1370.12 C828.92,1410.29 757.12,1492.78 719.76,1535.7 " fill="none" id="AppointmentStore-to-Appointment" style="stroke:#A80036;stroke-width:1.0;"/><polygon fill="#A80036" points="716.26,1539.72,725.1879,1535.5616,719.5444,1535.95,719.156,1530.3065,716.26,1539.72" style="stroke:#A80036;stroke-width:1.0;"/><text fill="#000000" font-family="sans-serif" font-size="13" lengthAdjust="spacing" textLength="36" x="837" y="1436.4951">stores</text><text fill="#000000" font-family="sans-serif" font-size="13" lengthAdjust="spacing" textLength="7" x="851.1226" y="1391.4872">1</text><text fill="#000000" font-family="sans-serif" font-size="13" lengthAdjust="spacing" textLength="5" x="715.811" y="1528.9884">*</text><!--MD5=[cdda88bd94d57e06d95e6dd6ce9ee716]
link Arrival to Appointment--><path codeLine="105" d="M696,1462.05 C696,1483.78 696,1512.95 696,1534.35 " fill="none" id="Arrival-to-Appointment" style="stroke:#A80036;stroke-width:1.0;"/><polygon fill="#A80036" points="696,1539.61,700,1530.61,696,1534.61,692,1530.61,696,1539.61" style="stroke:#A80036;stroke-width:1.0;"/><text fill="#000000" font-family="sans-serif" font-size="13" lengthAdjust="spacing" textLength="21" x="697" y="1506.4951">has</text><text fill="#000000" font-family="sans-serif" font-size="13" lengthAdjust="spacing" textLength="7" x="688.3109" y="1483.2838">1</text><text fill="#000000" font-family="sans-serif" font-size="13" lengthAdjust="spacing" textLength="7" x="688.1469" y="1529.2529">1</text><!--MD5=[1bd9080c7e199931e49bc5a1616681ac]
link Company to SNSUserStore--><path codeLine="107" d="M539.24,301.21 C509.61,375.89 442.78,544.37 407.99,632.08 " fill="none" id="Company-to-SNSUserStore" style="stroke:#A80036;stroke-width:1.0;stroke-dasharray:7.0,7.0;"/><polygon fill="#A80036" points="406.05,636.97,413.0809,630.0732,407.8897,632.3208,405.6421,627.1296,406.05,636.97" style="stroke:#A80036;stroke-width:1.0;"/><!--MD5=[bc0d5b4bfe6e1bf0a8fced13bc4bdd47]
link Company to VaccinationCenterStore--><path codeLine="108" d="M577.46,301.14 C599.45,335.96 632.75,388.69 658.78,429.9 " fill="none" id="Company-to-VaccinationCenterStore" style="stroke:#A80036;stroke-width:1.0;stroke-dasharray:7.0,7.0;"/><polygon fill="#A80036" points="661.6,434.36,660.1748,424.6148,658.9295,430.1329,653.4114,428.8876,661.6,434.36" style="stroke:#A80036;stroke-width:1.0;"/><!--MD5=[26b80dd60d3305f854b992ec0b603e2d]
link Company to VaccineTypeStore--><path codeLine="109" d="M605.05,283.68 C663.45,306.29 761.87,344.7 846,379 C911.25,405.6 984.99,436.77 1038.58,459.63 " fill="none" id="Company-to-VaccineTypeStore" style="stroke:#A80036;stroke-width:1.0;stroke-dasharray:7.0,7.0;"/><polygon fill="#A80036" points="1043.38,461.68,1036.6644,454.4758,1038.7791,459.7225,1033.5324,461.8372,1043.38,461.68" style="stroke:#A80036;stroke-width:1.0;"/><!--MD5=[09366576ee87d48d594df10cacc83f45]
link Company to Employee--><path codeLine="110" d="M502.88,289.26 C479.64,301.23 452.02,316.14 428,331 C405.44,344.95 382.12,360.36 359.42,375.94 " fill="none" id="Company-to-Employee" style="stroke:#A80036;stroke-width:1.0;"/><polygon fill="#A80036" points="355.19,378.85,364.8725,377.0474,359.3102,376.0174,360.3403,370.4551,355.19,378.85" style="stroke:#A80036;stroke-width:1.0;"/><text fill="#000000" font-family="sans-serif" font-size="13" lengthAdjust="spacing" textLength="37" x="429" y="345.4951">knows</text><text fill="#000000" font-family="sans-serif" font-size="13" lengthAdjust="spacing" textLength="7" x="487.8577" y="289.487">1</text><text fill="#000000" font-family="sans-serif" font-size="13" lengthAdjust="spacing" textLength="5" x="360.3145" y="368.1544">*</text><!--MD5=[bfff716514ca687b645fe473c6e098a4]
reverse link Employee to Receptionist--><path codeLine="112" d="M191.43,627.57 C182.1,787.51 176.67,1062.55 226,1292 C228.18,1302.13 232.22,1312.78 236.25,1321.85 " fill="none" id="Employee-backto-Receptionist" style="stroke:#A80036;stroke-width:1.0;"/><polygon fill="none" points="184.46,626.75,192.67,607.22,198.44,627.61,184.46,626.75" style="stroke:#A80036;stroke-width:1.0;"/><!--MD5=[d205afa640eb10e9aa5da67d61820494]
link Receptionist to Appointment--><path codeLine="114" d="M270.55,1370.14 C306.69,1405.84 381.36,1473.96 458,1510 C516.7,1537.61 590.4,1551.15 640.11,1557.58 " fill="none" id="Receptionist-to-Appointment" style="stroke:#A80036;stroke-width:1.0;"/><polygon fill="#A80036" points="645.15,1558.22,636.7228,1553.1227,640.1895,1557.5928,635.7193,1561.0595,645.15,1558.22" style="stroke:#A80036;stroke-width:1.0;"/><text fill="#000000" font-family="sans-serif" font-size="13" lengthAdjust="spacing" textLength="54" x="379" y="1436.4951">related to</text><text fill="#000000" font-family="sans-serif" font-size="13" lengthAdjust="spacing" textLength="7" x="268.1934" y="1391.5121">1</text><text fill="#000000" font-family="sans-serif" font-size="13" lengthAdjust="spacing" textLength="5" x="632.6477" y="1553.802">*</text><!--MD5=[73b4379c7f692e73188840e6b6f2b1ce]
link RegisterSNSUserArrivalController to Company--><path codeLine="116" d="M554,164.04 C554,179.71 554,200.91 554,219.58 " fill="none" id="RegisterSNSUserArrivalController-to-Company" style="stroke:#A80036;stroke-width:1.0;stroke-dasharray:7.0,7.0;"/><polygon fill="#A80036" points="554,224.77,558,215.77,554,219.77,550,215.77,554,224.77" style="stroke:#A80036;stroke-width:1.0;"/><!--MD5=[27947440cc9afdf8522ce84f95d7987e]
link RegisterSNSUserArrivalUI to RegisterSNSUserArrivalController--><path codeLine="118" d="M554,55.22 C554,71.48 554,93.32 554,110.62 " fill="none" id="RegisterSNSUserArrivalUI-to-RegisterSNSUserArrivalController" style="stroke:#A80036;stroke-width:1.0;stroke-dasharray:7.0,7.0;"/><polygon fill="#A80036" points="554,115.83,558,106.83,554,110.83,550,106.83,554,115.83" style="stroke:#A80036;stroke-width:1.0;"/><!--MD5=[7237f06c0b74e3dd035481e962d83e87]
link SNSUser to Arrival--><path codeLine="120" d="M547.14,1292.01 C582.87,1325.13 623.94,1363.2 653.87,1390.95 " fill="none" id="SNSUser-to-Arrival" style="stroke:#A80036;stroke-width:1.0;"/><polygon fill="#FFFFFF" points="663.58,1399.94,661.8974,1392.928,654.7776,1391.7842,656.4602,1398.7963,663.58,1399.94" style="stroke:#A80036;stroke-width:1.0;"/><!--MD5=[3f8bc51bb69ce45c3e3ea0b764df71f1]
link SNSUser to Appointment--><path codeLine="121" d="M517.38,1292.3 C565.25,1364.85 637.17,1473.84 673.41,1528.77 " fill="none" id="SNSUser-to-Appointment" style="stroke:#A80036;stroke-width:1.0;"/><polygon fill="#FFFFFF" points="680.79,1539.95,680.8207,1532.739,674.1762,1529.9371,674.1455,1537.1481,680.79,1539.95" style="stroke:#A80036;stroke-width:1.0;"/><!--MD5=[b01d27099955aced792f1ce85db49798]
link SNSUserStore to SNSUser--><path codeLine="123" d="M333.67,740.14 C326.85,749.39 320.9,759.47 317,770 C284,859.2 289.89,892.83 317,984 C334.28,1042.12 371.04,1099.27 404.2,1142.6 " fill="none" id="SNSUserStore-to-SNSUser" style="stroke:#A80036;stroke-width:1.0;"/><polygon fill="#A80036" points="407.4,1146.75,405.0848,1137.1771,404.3521,1142.7863,398.7429,1142.0537,407.4,1146.75" style="stroke:#A80036;stroke-width:1.0;"/><text fill="#000000" font-family="sans-serif" font-size="13" lengthAdjust="spacing" textLength="36" x="318" y="882.4951">stores</text><text fill="#000000" font-family="sans-serif" font-size="13" lengthAdjust="spacing" textLength="7" x="318.8189" y="762.0225">1</text><text fill="#000000" font-family="sans-serif" font-size="13" lengthAdjust="spacing" textLength="5" x="395.6866" y="1135.9436">*</text><!--MD5=[f5c720869033dc22d8f3d12ae1524a9f]
link VaccinationCenter to WaitingRoomList--><path codeLine="125" d="M795,984.34 C795,1055.96 795,1145.25 795,1190.05 " fill="none" id="VaccinationCenter-to-WaitingRoomList" style="stroke:#A80036;stroke-width:1.0;stroke-dasharray:7.0,7.0;"/><polygon fill="#A80036" points="795,1195.29,799,1186.29,795,1190.29,791,1186.29,795,1195.29" style="stroke:#A80036;stroke-width:1.0;"/><!--MD5=[dcb9d0d4d922990057568a1038e0a0af]
link VaccinationCenter to AppointmentStore--><path codeLine="126" d="M833.72,984.19 C849.79,1033.09 866.81,1092.29 876,1147 C886.02,1206.66 886.05,1277.79 885.09,1316.47 " fill="none" id="VaccinationCenter-to-AppointmentStore" style="stroke:#A80036;stroke-width:1.0;stroke-dasharray:7.0,7.0;"/><polygon fill="#A80036" points="884.94,1321.94,889.1954,1313.0579,885.0828,1316.942,881.1987,1312.8294,884.94,1321.94" style="stroke:#A80036;stroke-width:1.0;"/><!--MD5=[8c304936b446fd8cea914e03fbadd4b7]
link VaccinationCenterStore to VaccinationCenter--><path codeLine="128" d="M712.63,551.6 C726.92,607.88 749.05,695.03 766.77,764.83 " fill="none" id="VaccinationCenterStore-to-VaccinationCenter" style="stroke:#A80036;stroke-width:1.0;"/><polygon fill="#A80036" points="768.04,769.82,769.7041,760.1127,766.8105,764.9735,761.9497,762.0799,768.04,769.82" style="stroke:#A80036;stroke-width:1.0;"/><text fill="#000000" font-family="sans-serif" font-size="13" lengthAdjust="spacing" textLength="36" x="759" y="693.9951">stores</text><text fill="#000000" font-family="sans-serif" font-size="13" lengthAdjust="spacing" textLength="7" x="706.9865" y="573.2225">1</text><text fill="#000000" font-family="sans-serif" font-size="13" lengthAdjust="spacing" textLength="5" x="760.9686" y="759.2278">*</text><!--MD5=[dcfb289409acccd9ab6e282e910f81b1]
link VaccineType to Appointment--><path codeLine="130" d="M1136.81,1117.2 C1096.38,1200.35 1005.37,1366.01 882,1462 C844.05,1491.52 796.31,1517.25 758.7,1535.35 " fill="none" id="VaccineType-to-Appointment" style="stroke:#A80036;stroke-width:1.0;"/><polygon fill="#FFFFFF" points="746.86,1540.95,753.9954,1541.992,757.7016,1535.8062,750.5662,1534.7642,746.86,1540.95" style="stroke:#A80036;stroke-width:1.0;"/><!--MD5=[d008df8d9f8e445f2ab98a1ffd9c1902]
link VaccineTypeStore to VaccineType--><path codeLine="132" d="M1140.41,538.45 C1170.22,591.45 1216.92,683.72 1235,770 C1254.51,863.09 1269.84,895.5 1235,984 C1231.46,993 1226.38,1001.59 1220.52,1009.57 " fill="none" id="VaccineTypeStore-to-VaccineType" style="stroke:#A80036;stroke-width:1.0;"/><polygon fill="#A80036" points="1217.19,1013.95,1225.8282,1009.219,1220.2219,1009.9742,1219.4668,1004.3679,1217.19,1013.95" style="stroke:#A80036;stroke-width:1.0;"/><text fill="#000000" font-family="sans-serif" font-size="13" lengthAdjust="spacing" textLength="36" x="1227" y="693.9951">stores</text><text fill="#000000" font-family="sans-serif" font-size="13" lengthAdjust="spacing" textLength="7" x="1136.3453" y="558.8475">1</text><text fill="#000000" font-family="sans-serif" font-size="13" lengthAdjust="spacing" textLength="5" x="1219.8808" y="1003.0714">*</text><!--MD5=[4f898a9e1e1ea6486c9b22ccfa204bc8]
link WaitingRoomList to Arrival--><path codeLine="134" d="M784.03,1243.72 C766.64,1280.52 732.65,1352.45 712.37,1395.36 " fill="none" id="WaitingRoomList-to-Arrival" style="stroke:#A80036;stroke-width:1.0;"/><polygon fill="#A80036" points="710.21,1399.93,717.6751,1393.5057,712.3486,1395.4104,710.4438,1390.0839,710.21,1399.93" style="stroke:#A80036;stroke-width:1.0;"/><text fill="#000000" font-family="sans-serif" font-size="13" lengthAdjust="spacing" textLength="21" x="746" y="1351.4951">has</text><text fill="#000000" font-family="sans-serif" font-size="13" lengthAdjust="spacing" textLength="7" x="773.5029" y="1265.1116">1</text><text fill="#000000" font-family="sans-serif" font-size="13" lengthAdjust="spacing" textLength="5" x="707.7716" y="1388.935">*</text><!--MD5=[0c2c3af676f5bca46d148ba175a9dfb4]
@startuml US04_CD
skinparam classAttributeIconSize 0

class Appointment {}

class AppointmentStore {}

class Arrival {
  - Date arrivalDate
}

class Company {
  - String designation
  + getDesignation()
}

class Employee {
  - id: String
  - address: String
  - phoneNumber: String
  - citizenCardNumber: String
  + Employee(id, name, address, phoneNumber, email, citizenCardNumber, roleId)
  + getId()
  + getName()
  + getAddress()
  + getPhoneNumber()
  + getEmail()
  + getCitizenCardNumber()
  + getPassword()
  + getRoleId()
}

class RegisterSNSUserArrivalUI {}

class RegisterSNSUserArrivalController {}

class SNSUser {
  - String citizenCard
  - String snsNumber
  - Date birthDay
  - Char gender
  - String phoneNumber
  - String address
  + SNSUser(citizenCard, snsNumber, name, birthDay, gender, phoneNumber, email, address)
}

class SNSUserStore {
  + createUser(name, email, pwd, roleId)
  + validateUser(user)
  + saveUser(user)
  + checkDuplicates(user)
}


class Receptionist {}


class SMSSender {}

class VaccinationCenter {
  - name: String
  - address: String
  - emailAddress: String
  - phoneNumber: String
  - faxNumber: String
  - websiteAddress: String
  - openingHours: String
  - closingHours: String
  - slotDuration: int
  - maximumVaccinesPerSlot: int
  - coordinator: EMPLOYEE
  - - -
  + VaccinationCenter(name,address,emailAddress,phoneNumber,faxNumber,websiteAddress,openingHours,closingHours,slotDuration,maximumVaccinesPerSlot,coordinator)
}

class VaccinationCenterStore {
  - - -
  + createVaccinationCenter(centerData, coordinator)
  + validateVaccinatonCenter(center)
  + saveVaccinationCenter(center)
  + checkDuplicates(center)
  + addVaccinationCenter(center)
}

class VaccineType {
  - code: String
  - description : String
  - technology : String
  - - -
  + VaccineType(code, description, technology)
}

class VaccineTypeStore {
  - getVaccineTypeByCode()
  - addVaccineType()
  - saveVaccineType()
}

class WaitingRoomList {}


Appointment "1" - -> "0..1" SMSSender : triggers

AppointmentStore "1" - -> "*" Appointment : stores

Arrival "1" - -> "1" Appointment : has

Company ..> SNSUserStore
Company ..> VaccinationCenterStore
Company ..> VaccineTypeStore
Company "1" - -> "*" Employee : knows

Employee <|- - Receptionist

Receptionist "1" - -> "*" Appointment : related to

RegisterSNSUserArrivalController ..> Company

RegisterSNSUserArrivalUI ..> RegisterSNSUserArrivalController

SNSUser - -o Arrival
SNSUser - -o Appointment

SNSUserStore "1" - -> "*" SNSUser : stores

VaccinationCenter ..> WaitingRoomList
VaccinationCenter ..> AppointmentStore

VaccinationCenterStore "1" - -> "*" VaccinationCenter : stores

VaccineType - -o Appointment

VaccineTypeStore "1" - -> "*" VaccineType : stores

WaitingRoomList "1" - -> "*" Arrival : has

@enduml

PlantUML version 1.2022.0(Tue Jan 11 16:16:42 WET 2022)
(GPL source distribution)
Java Runtime: Java(TM) SE Runtime Environment
JVM: Java HotSpot(TM) 64-Bit Server VM
Default Encoding: Cp1252
Language: pt
Country: PT
--></g></svg>