<?xml version="1.0" encoding="UTF-8" standalone="no"?><svg xmlns="http://www.w3.org/2000/svg" xmlns:xlink="http://www.w3.org/1999/xlink" contentScriptType="application/ecmascript" contentStyleType="text/css" height="1732px" preserveAspectRatio="none" style="width:1594px;height:1732px;background:#FFFFFF;" version="1.1" viewBox="0 0 1594 1732" width="1594px" zoomAndPan="magnify"><defs><filter height="300%" id="f6oq4w231vfvo" width="300%" x="-1" y="-1"><feGaussianBlur result="blurOut" stdDeviation="2.0"/><feColorMatrix in="blurOut" result="blurOut2" type="matrix" values="0 0 0 0 0 0 0 0 0 0 0 0 0 0 0 0 0 0 .4 0"/><feOffset dx="4.0" dy="4.0" in="blurOut2" result="blurOut3"/><feBlend in="SourceGraphic" in2="blurOut3" mode="normal"/></filter></defs><g><!--MD5=[c508b5b6bbe276ff5e2700b6641f837f]
class Appointment--><rect codeLine="3" fill="#FEFECE" filter="url(#f6oq4w231vfvo)" height="99.2188" id="Appointment" style="stroke:#A80036;stroke-width:1.5;" width="332" x="520.5" y="1494"/><ellipse cx="642.25" cy="1510" fill="#ADD1B2" rx="11" ry="11" style="stroke:#A80036;stroke-width:1.0;"/><path d="M645.2188,1515.6406 Q644.6406,1515.9375 644,1516.0781 Q643.3594,1516.2344 642.6563,1516.2344 Q640.1563,1516.2344 638.8281,1514.5938 Q637.5156,1512.9375 637.5156,1509.8125 Q637.5156,1506.6875 638.8281,1505.0313 Q640.1563,1503.375 642.6563,1503.375 Q643.3594,1503.375 644,1503.5313 Q644.6563,1503.6875 645.2188,1503.9844 L645.2188,1506.7031 Q644.5938,1506.125 644,1505.8594 Q643.4063,1505.5781 642.7813,1505.5781 Q641.4375,1505.5781 640.75,1506.6563 Q640.0625,1507.7188 640.0625,1509.8125 Q640.0625,1511.9063 640.75,1512.9844 Q641.4375,1514.0469 642.7813,1514.0469 Q643.4063,1514.0469 644,1513.7813 Q644.5938,1513.5 645.2188,1512.9219 L645.2188,1515.6406 Z " fill="#000000"/><text fill="#000000" font-family="sans-serif" font-size="12" lengthAdjust="spacing" textLength="80" x="662.75" y="1514.1543">Appointment</text><line style="stroke:#A80036;stroke-width:1.5;" x1="521.5" x2="851.5" y1="1526" y2="1526"/><text fill="#000000" font-family="sans-serif" font-size="11" lengthAdjust="spacing" textLength="133" x="526.5" y="1540.2104">-Date appointmentTime</text><text fill="#000000" font-family="sans-serif" font-size="11" lengthAdjust="spacing" textLength="107" x="526.5" y="1553.0151">-SNSUser snsUser</text><text fill="#000000" font-family="sans-serif" font-size="11" lengthAdjust="spacing" textLength="147" x="526.5" y="1565.8198">-VaccineType vaccineType</text><line style="stroke:#A80036;stroke-width:1.0;" x1="521.5" x2="851.5" y1="1572.4141" y2="1572.4141"/><text fill="#000000" font-family="sans-serif" font-size="11" lengthAdjust="spacing" textLength="320" x="526.5" y="1586.6245">+Appointment(appointmentTime, snsUser, vaccineType)</text><!--MD5=[e962253c6721a4b87d8c880d8815b08d]
class AppointmentScheduleList--><rect codeLine="11" fill="#FEFECE" filter="url(#f6oq4w231vfvo)" height="60.8047" id="AppointmentScheduleList" style="stroke:#A80036;stroke-width:1.5;" width="295" x="947" y="1233"/><ellipse cx="1010.75" cy="1249" fill="#ADD1B2" rx="11" ry="11" style="stroke:#A80036;stroke-width:1.0;"/><path d="M1013.7188,1254.6406 Q1013.1406,1254.9375 1012.5,1255.0781 Q1011.8594,1255.2344 1011.1563,1255.2344 Q1008.6563,1255.2344 1007.3281,1253.5938 Q1006.0156,1251.9375 1006.0156,1248.8125 Q1006.0156,1245.6875 1007.3281,1244.0313 Q1008.6563,1242.375 1011.1563,1242.375 Q1011.8594,1242.375 1012.5,1242.5313 Q1013.1563,1242.6875 1013.7188,1242.9844 L1013.7188,1245.7031 Q1013.0938,1245.125 1012.5,1244.8594 Q1011.9063,1244.5781 1011.2813,1244.5781 Q1009.9375,1244.5781 1009.25,1245.6563 Q1008.5625,1246.7188 1008.5625,1248.8125 Q1008.5625,1250.9063 1009.25,1251.9844 Q1009.9375,1253.0469 1011.2813,1253.0469 Q1011.9063,1253.0469 1012.5,1252.7813 Q1013.0938,1252.5 1013.7188,1251.9219 L1013.7188,1254.6406 Z " fill="#000000"/><text fill="#000000" font-family="sans-serif" font-size="12" lengthAdjust="spacing" textLength="159" x="1031.25" y="1253.1543">AppointmentScheduleList</text><line style="stroke:#A80036;stroke-width:1.5;" x1="948" x2="1241" y1="1265" y2="1265"/><line style="stroke:#A80036;stroke-width:1.5;" x1="948" x2="1241" y1="1273" y2="1273"/><text fill="#000000" font-family="sans-serif" font-size="11" lengthAdjust="spacing" textLength="283" x="953" y="1287.2104">+Appointment findSNSUserAppointment(snsUser)</text><!--MD5=[950bab46f39ba9ae59885963abb53c18]
class Arrival--><rect codeLine="15" fill="#FEFECE" filter="url(#f6oq4w231vfvo)" height="73.6094" id="Arrival" style="stroke:#A80036;stroke-width:1.5;" width="110" x="631.5" y="1343"/><ellipse cx="664.5" cy="1359" fill="#ADD1B2" rx="11" ry="11" style="stroke:#A80036;stroke-width:1.0;"/><path d="M667.4688,1364.6406 Q666.8906,1364.9375 666.25,1365.0781 Q665.6094,1365.2344 664.9063,1365.2344 Q662.4063,1365.2344 661.0781,1363.5938 Q659.7656,1361.9375 659.7656,1358.8125 Q659.7656,1355.6875 661.0781,1354.0313 Q662.4063,1352.375 664.9063,1352.375 Q665.6094,1352.375 666.25,1352.5313 Q666.9063,1352.6875 667.4688,1352.9844 L667.4688,1355.7031 Q666.8438,1355.125 666.25,1354.8594 Q665.6563,1354.5781 665.0313,1354.5781 Q663.6875,1354.5781 663,1355.6563 Q662.3125,1356.7188 662.3125,1358.8125 Q662.3125,1360.9063 663,1361.9844 Q663.6875,1363.0469 665.0313,1363.0469 Q665.6563,1363.0469 666.25,1362.7813 Q666.8438,1362.5 667.4688,1361.9219 L667.4688,1364.6406 Z " fill="#000000"/><text fill="#000000" font-family="sans-serif" font-size="12" lengthAdjust="spacing" textLength="38" x="682.5" y="1363.1543">Arrival</text><line style="stroke:#A80036;stroke-width:1.5;" x1="632.5" x2="740.5" y1="1375" y2="1375"/><text fill="#000000" font-family="sans-serif" font-size="11" lengthAdjust="spacing" textLength="98" x="637.5" y="1389.2104">-Date arrivalTime</text><text fill="#000000" font-family="sans-serif" font-size="11" lengthAdjust="spacing" textLength="58" x="637.5" y="1402.0151">-int status</text><line style="stroke:#A80036;stroke-width:1.5;" x1="632.5" x2="740.5" y1="1408.6094" y2="1408.6094"/><!--MD5=[02e4b9b7573f1156f41e60aa5b4e25a4]
class Company--><rect codeLine="20" fill="#FEFECE" filter="url(#f6oq4w231vfvo)" height="73.6094" id="Company" style="stroke:#A80036;stroke-width:1.5;" width="152" x="580.5" y="237.5"/><ellipse cx="623.85" cy="253.5" fill="#ADD1B2" rx="11" ry="11" style="stroke:#A80036;stroke-width:1.0;"/><path d="M626.8188,259.1406 Q626.2406,259.4375 625.6,259.5781 Q624.9594,259.7344 624.2563,259.7344 Q621.7563,259.7344 620.4281,258.0938 Q619.1156,256.4375 619.1156,253.3125 Q619.1156,250.1875 620.4281,248.5313 Q621.7563,246.875 624.2563,246.875 Q624.9594,246.875 625.6,247.0313 Q626.2563,247.1875 626.8188,247.4844 L626.8188,250.2031 Q626.1938,249.625 625.6,249.3594 Q625.0063,249.0781 624.3813,249.0781 Q623.0375,249.0781 622.35,250.1563 Q621.6625,251.2188 621.6625,253.3125 Q621.6625,255.4063 622.35,256.4844 Q623.0375,257.5469 624.3813,257.5469 Q625.0063,257.5469 625.6,257.2813 Q626.1938,257 626.8188,256.4219 L626.8188,259.1406 Z " fill="#000000"/><text fill="#000000" font-family="sans-serif" font-size="12" lengthAdjust="spacing" textLength="57" x="644.15" y="257.6543">Company</text><line style="stroke:#A80036;stroke-width:1.5;" x1="581.5" x2="731.5" y1="269.5" y2="269.5"/><text fill="#000000" font-family="sans-serif" font-size="11" lengthAdjust="spacing" textLength="108" x="586.5" y="283.7104">-String designation</text><line style="stroke:#A80036;stroke-width:1.0;" x1="581.5" x2="731.5" y1="290.3047" y2="290.3047"/><text fill="#000000" font-family="sans-serif" font-size="11" lengthAdjust="spacing" textLength="140" x="586.5" y="304.5151">+String getDesignation()</text><!--MD5=[7421f545a0d8420c5bec41e74b387d9c]
class Employee--><rect codeLine="26" fill="#FEFECE" filter="url(#f6oq4w231vfvo)" height="214.4609" id="Employee" style="stroke:#A80036;stroke-width:1.5;" width="471" x="7" y="401"/><ellipse cx="208.25" cy="417" fill="#ADD1B2" rx="11" ry="11" style="stroke:#A80036;stroke-width:1.0;"/><path d="M211.2188,422.6406 Q210.6406,422.9375 210,423.0781 Q209.3594,423.2344 208.6563,423.2344 Q206.1563,423.2344 204.8281,421.5938 Q203.5156,419.9375 203.5156,416.8125 Q203.5156,413.6875 204.8281,412.0313 Q206.1563,410.375 208.6563,410.375 Q209.3594,410.375 210,410.5313 Q210.6563,410.6875 211.2188,410.9844 L211.2188,413.7031 Q210.5938,413.125 210,412.8594 Q209.4063,412.5781 208.7813,412.5781 Q207.4375,412.5781 206.75,413.6563 Q206.0625,414.7188 206.0625,416.8125 Q206.0625,418.9063 206.75,419.9844 Q207.4375,421.0469 208.7813,421.0469 Q209.4063,421.0469 210,420.7813 Q210.5938,420.5 211.2188,419.9219 L211.2188,422.6406 Z " fill="#000000"/><text fill="#000000" font-family="sans-serif" font-size="12" lengthAdjust="spacing" textLength="60" x="228.75" y="421.1543">Employee</text><line style="stroke:#A80036;stroke-width:1.5;" x1="8" x2="477" y1="433" y2="433"/><text fill="#000000" font-family="sans-serif" font-size="11" lengthAdjust="spacing" textLength="56" x="13" y="447.2104">-id: String</text><text fill="#000000" font-family="sans-serif" font-size="11" lengthAdjust="spacing" textLength="93" x="13" y="460.0151">-address: String</text><text fill="#000000" font-family="sans-serif" font-size="11" lengthAdjust="spacing" textLength="126" x="13" y="472.8198">-phoneNumber: String</text><text fill="#000000" font-family="sans-serif" font-size="11" lengthAdjust="spacing" textLength="153" x="13" y="485.6245">-citizenCardNumber: String</text><line style="stroke:#A80036;stroke-width:1.0;" x1="8" x2="477" y1="492.2188" y2="492.2188"/><text fill="#000000" font-family="sans-serif" font-size="11" lengthAdjust="spacing" textLength="459" x="13" y="506.4292">+Employee(id, name, address, phoneNumber, email, citizenCardNumber, roleId)</text><text fill="#000000" font-family="sans-serif" font-size="11" lengthAdjust="spacing" textLength="45" x="13" y="519.2339">+getId()</text><text fill="#000000" font-family="sans-serif" font-size="11" lengthAdjust="spacing" textLength="68" x="13" y="532.0386">+getName()</text><text fill="#000000" font-family="sans-serif" font-size="11" lengthAdjust="spacing" textLength="82" x="13" y="544.8433">+getAddress()</text><text fill="#000000" font-family="sans-serif" font-size="11" lengthAdjust="spacing" textLength="115" x="13" y="557.6479">+getPhoneNumber()</text><text fill="#000000" font-family="sans-serif" font-size="11" lengthAdjust="spacing" textLength="66" x="13" y="570.4526">+getEmail()</text><text fill="#000000" font-family="sans-serif" font-size="11" lengthAdjust="spacing" textLength="144" x="13" y="583.2573">+getCitizenCardNumber()</text><text fill="#000000" font-family="sans-serif" font-size="11" lengthAdjust="spacing" textLength="91" x="13" y="596.062">+getPassword()</text><text fill="#000000" font-family="sans-serif" font-size="11" lengthAdjust="spacing" textLength="69" x="13" y="608.8667">+getRoleId()</text><!--MD5=[62666f81a650c384a5eaf876a01ad7d1]
class EmployeeSession--><rect codeLine="43" fill="#FEFECE" filter="url(#f6oq4w231vfvo)" height="99.2188" id="EmployeeSession" style="stroke:#A80036;stroke-width:1.5;" width="337" x="768" y="225"/><ellipse cx="877.75" cy="241" fill="#ADD1B2" rx="11" ry="11" style="stroke:#A80036;stroke-width:1.0;"/><path d="M880.7188,246.6406 Q880.1406,246.9375 879.5,247.0781 Q878.8594,247.2344 878.1563,247.2344 Q875.6563,247.2344 874.3281,245.5938 Q873.0156,243.9375 873.0156,240.8125 Q873.0156,237.6875 874.3281,236.0313 Q875.6563,234.375 878.1563,234.375 Q878.8594,234.375 879.5,234.5313 Q880.1563,234.6875 880.7188,234.9844 L880.7188,237.7031 Q880.0938,237.125 879.5,236.8594 Q878.9063,236.5781 878.2813,236.5781 Q876.9375,236.5781 876.25,237.6563 Q875.5625,238.7188 875.5625,240.8125 Q875.5625,242.9063 876.25,243.9844 Q876.9375,245.0469 878.2813,245.0469 Q878.9063,245.0469 879.5,244.7813 Q880.0938,244.5 880.7188,243.9219 L880.7188,246.6406 Z " fill="#000000"/><text fill="#000000" font-family="sans-serif" font-size="12" lengthAdjust="spacing" textLength="109" x="898.25" y="245.1543">EmployeeSession</text><line style="stroke:#A80036;stroke-width:1.5;" x1="769" x2="1104" y1="257" y2="257"/><text fill="#000000" font-family="sans-serif" font-size="11" lengthAdjust="spacing" textLength="130" x="774" y="271.2104">-String employeeName</text><text fill="#000000" font-family="sans-serif" font-size="11" lengthAdjust="spacing" textLength="153" x="774" y="284.0151">-String vaccinationCenterId</text><line style="stroke:#A80036;stroke-width:1.0;" x1="769" x2="1104" y1="290.6094" y2="290.6094"/><text fill="#000000" font-family="sans-serif" font-size="11" lengthAdjust="spacing" textLength="325" x="774" y="304.8198">+EmployeeSession(employeeName, vaccinationCenterId)</text><text fill="#000000" font-family="sans-serif" font-size="11" lengthAdjust="spacing" textLength="185" x="774" y="317.6245">+String getVaccinationCenterId()</text><!--MD5=[8824b6aaccc15e34c58b514197f6f874]
class RegisterSNSUserArrivalUI--><rect codeLine="51" fill="#FEFECE" filter="url(#f6oq4w231vfvo)" height="48" id="RegisterSNSUserArrivalUI" style="stroke:#A80036;stroke-width:1.5;" width="188" x="702.5" y="7"/><ellipse cx="717.5" cy="23" fill="#ADD1B2" rx="11" ry="11" style="stroke:#A80036;stroke-width:1.0;"/><path d="M720.4688,28.6406 Q719.8906,28.9375 719.25,29.0781 Q718.6094,29.2344 717.9063,29.2344 Q715.4063,29.2344 714.0781,27.5938 Q712.7656,25.9375 712.7656,22.8125 Q712.7656,19.6875 714.0781,18.0313 Q715.4063,16.375 717.9063,16.375 Q718.6094,16.375 719.25,16.5313 Q719.9063,16.6875 720.4688,16.9844 L720.4688,19.7031 Q719.8438,19.125 719.25,18.8594 Q718.6563,18.5781 718.0313,18.5781 Q716.6875,18.5781 716,19.6563 Q715.3125,20.7188 715.3125,22.8125 Q715.3125,24.9063 716,25.9844 Q716.6875,27.0469 718.0313,27.0469 Q718.6563,27.0469 719.25,26.7813 Q719.8438,26.5 720.4688,25.9219 L720.4688,28.6406 Z " fill="#000000"/><text fill="#000000" font-family="sans-serif" font-size="12" lengthAdjust="spacing" textLength="156" x="731.5" y="27.1543">RegisterSNSUserArrivalUI</text><line style="stroke:#A80036;stroke-width:1.5;" x1="703.5" x2="889.5" y1="39" y2="39"/><line style="stroke:#A80036;stroke-width:1.5;" x1="703.5" x2="889.5" y1="47" y2="47"/><!--MD5=[40e02fac8cc8accf59031f5c8e3a0fb4]
class RegisterSNSUserArrivalController--><rect codeLine="53" fill="#FEFECE" filter="url(#f6oq4w231vfvo)" height="48" id="RegisterSNSUserArrivalController" style="stroke:#A80036;stroke-width:1.5;" width="237" x="678" y="116"/><ellipse cx="693" cy="132" fill="#ADD1B2" rx="11" ry="11" style="stroke:#A80036;stroke-width:1.0;"/><path d="M695.9688,137.6406 Q695.3906,137.9375 694.75,138.0781 Q694.1094,138.2344 693.4063,138.2344 Q690.9063,138.2344 689.5781,136.5938 Q688.2656,134.9375 688.2656,131.8125 Q688.2656,128.6875 689.5781,127.0313 Q690.9063,125.375 693.4063,125.375 Q694.1094,125.375 694.75,125.5313 Q695.4063,125.6875 695.9688,125.9844 L695.9688,128.7031 Q695.3438,128.125 694.75,127.8594 Q694.1563,127.5781 693.5313,127.5781 Q692.1875,127.5781 691.5,128.6563 Q690.8125,129.7188 690.8125,131.8125 Q690.8125,133.9063 691.5,134.9844 Q692.1875,136.0469 693.5313,136.0469 Q694.1563,136.0469 694.75,135.7813 Q695.3438,135.5 695.9688,134.9219 L695.9688,137.6406 Z " fill="#000000"/><text fill="#000000" font-family="sans-serif" font-size="12" lengthAdjust="spacing" textLength="205" x="707" y="136.1543">RegisterSNSUserArrivalController</text><line style="stroke:#A80036;stroke-width:1.5;" x1="679" x2="914" y1="148" y2="148"/><line style="stroke:#A80036;stroke-width:1.5;" x1="679" x2="914" y1="156" y2="156"/><!--MD5=[72be06cc7ae02ccc98efe28a50e62246]
class SNSUser--><rect codeLine="55" fill="#FEFECE" filter="url(#f6oq4w231vfvo)" height="137.6328" id="SNSUser" style="stroke:#A80036;stroke-width:1.5;" width="541" x="193" y="1046"/><ellipse cx="432.25" cy="1062" fill="#ADD1B2" rx="11" ry="11" style="stroke:#A80036;stroke-width:1.0;"/><path d="M435.2188,1067.6406 Q434.6406,1067.9375 434,1068.0781 Q433.3594,1068.2344 432.6563,1068.2344 Q430.1563,1068.2344 428.8281,1066.5938 Q427.5156,1064.9375 427.5156,1061.8125 Q427.5156,1058.6875 428.8281,1057.0313 Q430.1563,1055.375 432.6563,1055.375 Q433.3594,1055.375 434,1055.5313 Q434.6563,1055.6875 435.2188,1055.9844 L435.2188,1058.7031 Q434.5938,1058.125 434,1057.8594 Q433.4063,1057.5781 432.7813,1057.5781 Q431.4375,1057.5781 430.75,1058.6563 Q430.0625,1059.7188 430.0625,1061.8125 Q430.0625,1063.9063 430.75,1064.9844 Q431.4375,1066.0469 432.7813,1066.0469 Q433.4063,1066.0469 434,1065.7813 Q434.5938,1065.5 435.2188,1064.9219 L435.2188,1067.6406 Z " fill="#000000"/><text fill="#000000" font-family="sans-serif" font-size="12" lengthAdjust="spacing" textLength="54" x="452.75" y="1066.1543">SNSUser</text><line style="stroke:#A80036;stroke-width:1.5;" x1="194" x2="733" y1="1078" y2="1078"/><text fill="#000000" font-family="sans-serif" font-size="11" lengthAdjust="spacing" textLength="104" x="199" y="1092.2104">-String citizenCard</text><text fill="#000000" font-family="sans-serif" font-size="11" lengthAdjust="spacing" textLength="108" x="199" y="1105.0151">-String snsNumber</text><text fill="#000000" font-family="sans-serif" font-size="11" lengthAdjust="spacing" textLength="81" x="199" y="1117.8198">-Date birthDay</text><text fill="#000000" font-family="sans-serif" font-size="11" lengthAdjust="spacing" textLength="75" x="199" y="1130.6245">-Char gender</text><text fill="#000000" font-family="sans-serif" font-size="11" lengthAdjust="spacing" textLength="122" x="199" y="1143.4292">-String phoneNumber</text><text fill="#000000" font-family="sans-serif" font-size="11" lengthAdjust="spacing" textLength="89" x="199" y="1156.2339">-String address</text><line style="stroke:#A80036;stroke-width:1.0;" x1="194" x2="733" y1="1162.8281" y2="1162.8281"/><text fill="#000000" font-family="sans-serif" font-size="11" lengthAdjust="spacing" textLength="529" x="199" y="1177.0386">+SNSUser(citizenCard, snsNumber, name, birthDay, gender, phoneNumber, email, address)</text><!--MD5=[a5ad3856b0c65e07b10297b4477b22bb]
class SNSUserStore--><rect codeLine="66" fill="#FEFECE" filter="url(#f6oq4w231vfvo)" height="60.8047" id="SNSUserStore" style="stroke:#A80036;stroke-width:1.5;" width="281" x="329" y="645"/><ellipse cx="421.25" cy="661" fill="#ADD1B2" rx="11" ry="11" style="stroke:#A80036;stroke-width:1.0;"/><path d="M424.2188,666.6406 Q423.6406,666.9375 423,667.0781 Q422.3594,667.2344 421.6563,667.2344 Q419.1563,667.2344 417.8281,665.5938 Q416.5156,663.9375 416.5156,660.8125 Q416.5156,657.6875 417.8281,656.0313 Q419.1563,654.375 421.6563,654.375 Q422.3594,654.375 423,654.5313 Q423.6563,654.6875 424.2188,654.9844 L424.2188,657.7031 Q423.5938,657.125 423,656.8594 Q422.4063,656.5781 421.7813,656.5781 Q420.4375,656.5781 419.75,657.6563 Q419.0625,658.7188 419.0625,660.8125 Q419.0625,662.9063 419.75,663.9844 Q420.4375,665.0469 421.7813,665.0469 Q422.4063,665.0469 423,664.7813 Q423.5938,664.5 424.2188,663.9219 L424.2188,666.6406 Z " fill="#000000"/><text fill="#000000" font-family="sans-serif" font-size="12" lengthAdjust="spacing" textLength="88" x="441.75" y="665.1543">SNSUserStore</text><line style="stroke:#A80036;stroke-width:1.5;" x1="330" x2="609" y1="677" y2="677"/><line style="stroke:#A80036;stroke-width:1.5;" x1="330" x2="609" y1="685" y2="685"/><text fill="#000000" font-family="sans-serif" font-size="11" lengthAdjust="spacing" textLength="269" x="335" y="699.2104">+SNSUser findSNSUserByNumber(snsNumber)</text><!--MD5=[03960189e81aa2c066c762ffabbee709]
class Receptionist--><rect codeLine="70" fill="#FEFECE" filter="url(#f6oq4w231vfvo)" height="48" id="Receptionist" style="stroke:#A80036;stroke-width:1.5;" width="110" x="142.5" y="968"/><ellipse cx="157.5" cy="984" fill="#ADD1B2" rx="11" ry="11" style="stroke:#A80036;stroke-width:1.0;"/><path d="M160.4688,989.6406 Q159.8906,989.9375 159.25,990.0781 Q158.6094,990.2344 157.9063,990.2344 Q155.4063,990.2344 154.0781,988.5938 Q152.7656,986.9375 152.7656,983.8125 Q152.7656,980.6875 154.0781,979.0313 Q155.4063,977.375 157.9063,977.375 Q158.6094,977.375 159.25,977.5313 Q159.9063,977.6875 160.4688,977.9844 L160.4688,980.7031 Q159.8438,980.125 159.25,979.8594 Q158.6563,979.5781 158.0313,979.5781 Q156.6875,979.5781 156,980.6563 Q155.3125,981.7188 155.3125,983.8125 Q155.3125,985.9063 156,986.9844 Q156.6875,988.0469 158.0313,988.0469 Q158.6563,988.0469 159.25,987.7813 Q159.8438,987.5 160.4688,986.9219 L160.4688,989.6406 Z " fill="#000000"/><text fill="#000000" font-family="sans-serif" font-size="12" lengthAdjust="spacing" textLength="78" x="171.5" y="988.1543">Receptionist</text><line style="stroke:#A80036;stroke-width:1.5;" x1="143.5" x2="251.5" y1="1000" y2="1000"/><line style="stroke:#A80036;stroke-width:1.5;" x1="143.5" x2="251.5" y1="1008" y2="1008"/><!--MD5=[a88c56e1dc44d9d0e1fcd2eec4fd7e58]
class SMSSender--><rect codeLine="72" fill="#FEFECE" filter="url(#f6oq4w231vfvo)" height="48" id="SMSSender" style="stroke:#A80036;stroke-width:1.5;" width="103" x="635" y="1670"/><ellipse cx="650" cy="1686" fill="#ADD1B2" rx="11" ry="11" style="stroke:#A80036;stroke-width:1.0;"/><path d="M652.9688,1691.6406 Q652.3906,1691.9375 651.75,1692.0781 Q651.1094,1692.2344 650.4063,1692.2344 Q647.9063,1692.2344 646.5781,1690.5938 Q645.2656,1688.9375 645.2656,1685.8125 Q645.2656,1682.6875 646.5781,1681.0313 Q647.9063,1679.375 650.4063,1679.375 Q651.1094,1679.375 651.75,1679.5313 Q652.4063,1679.6875 652.9688,1679.9844 L652.9688,1682.7031 Q652.3438,1682.125 651.75,1681.8594 Q651.1563,1681.5781 650.5313,1681.5781 Q649.1875,1681.5781 648.5,1682.6563 Q647.8125,1683.7188 647.8125,1685.8125 Q647.8125,1687.9063 648.5,1688.9844 Q649.1875,1690.0469 650.5313,1690.0469 Q651.1563,1690.0469 651.75,1689.7813 Q652.3438,1689.5 652.9688,1688.9219 L652.9688,1691.6406 Z " fill="#000000"/><text fill="#000000" font-family="sans-serif" font-size="12" lengthAdjust="spacing" textLength="71" x="664" y="1690.1543">SMSSender</text><line style="stroke:#A80036;stroke-width:1.5;" x1="636" x2="737" y1="1702" y2="1702"/><line style="stroke:#A80036;stroke-width:1.5;" x1="636" x2="737" y1="1710" y2="1710"/><!--MD5=[de60e6d4f424ae4d0522096f76a59010]
class VaccinationCenter--><rect codeLine="74" fill="#FEFECE" filter="url(#f6oq4w231vfvo)" height="201.6563" id="VaccinationCenter" style="stroke:#A80036;stroke-width:1.5;" width="995" x="422" y="736"/><ellipse cx="857.75" cy="752" fill="#ADD1B2" rx="11" ry="11" style="stroke:#A80036;stroke-width:1.0;"/><path d="M860.7188,757.6406 Q860.1406,757.9375 859.5,758.0781 Q858.8594,758.2344 858.1563,758.2344 Q855.6563,758.2344 854.3281,756.5938 Q853.0156,754.9375 853.0156,751.8125 Q853.0156,748.6875 854.3281,747.0313 Q855.6563,745.375 858.1563,745.375 Q858.8594,745.375 859.5,745.5313 Q860.1563,745.6875 860.7188,745.9844 L860.7188,748.7031 Q860.0938,748.125 859.5,747.8594 Q858.9063,747.5781 858.2813,747.5781 Q856.9375,747.5781 856.25,748.6563 Q855.5625,749.7188 855.5625,751.8125 Q855.5625,753.9063 856.25,754.9844 Q856.9375,756.0469 858.2813,756.0469 Q858.9063,756.0469 859.5,755.7813 Q860.0938,755.5 860.7188,754.9219 L860.7188,757.6406 Z " fill="#000000"/><text fill="#000000" font-family="sans-serif" font-size="12" lengthAdjust="spacing" textLength="115" x="878.25" y="756.1543">VaccinationCenter</text><line style="stroke:#A80036;stroke-width:1.5;" x1="423" x2="1416" y1="768" y2="768"/><text fill="#000000" font-family="sans-serif" font-size="11" lengthAdjust="spacing" textLength="78" x="428" y="782.2104">-name: String</text><text fill="#000000" font-family="sans-serif" font-size="11" lengthAdjust="spacing" textLength="93" x="428" y="795.0151">-address: String</text><text fill="#000000" font-family="sans-serif" font-size="11" lengthAdjust="spacing" textLength="124" x="428" y="807.8198">-emailAddress: String</text><text fill="#000000" font-family="sans-serif" font-size="11" lengthAdjust="spacing" textLength="126" x="428" y="820.6245">-phoneNumber: String</text><text fill="#000000" font-family="sans-serif" font-size="11" lengthAdjust="spacing" textLength="108" x="428" y="833.4292">-faxNumber: String</text><text fill="#000000" font-family="sans-serif" font-size="11" lengthAdjust="spacing" textLength="137" x="428" y="846.2339">-websiteAddress: String</text><text fill="#000000" font-family="sans-serif" font-size="11" lengthAdjust="spacing" textLength="125" x="428" y="859.0386">-openingHours: String</text><text fill="#000000" font-family="sans-serif" font-size="11" lengthAdjust="spacing" textLength="120" x="428" y="871.8433">-closingHours: String</text><text fill="#000000" font-family="sans-serif" font-size="11" lengthAdjust="spacing" textLength="95" x="428" y="884.6479">-slotDuration: int</text><text fill="#000000" font-family="sans-serif" font-size="11" lengthAdjust="spacing" textLength="173" x="428" y="897.4526">-maximumVaccinesPerSlot: int</text><text fill="#000000" font-family="sans-serif" font-size="11" lengthAdjust="spacing" textLength="136" x="428" y="910.2573">-coordinator: EMPLOYEE</text><line style="stroke:#A80036;stroke-width:1.0;" x1="423" x2="1416" y1="916.8516" y2="916.8516"/><text fill="#000000" font-family="sans-serif" font-size="11" lengthAdjust="spacing" textLength="983" x="428" y="931.062">+VaccinationCenter(name,address,emailAddress,phoneNumber,faxNumber,websiteAddress,openingHours,closingHours,slotDuration,maximumVaccinesPerSlot,coordinator)</text><!--MD5=[a29876ea2f21a6ca48ea477740122fd8]
class VaccinationCenterStore--><rect codeLine="90" fill="#FEFECE" filter="url(#f6oq4w231vfvo)" height="112.0234" id="VaccinationCenterStore" style="stroke:#A80036;stroke-width:1.5;" width="302" x="669.5" y="452"/><ellipse cx="741.75" cy="468" fill="#ADD1B2" rx="11" ry="11" style="stroke:#A80036;stroke-width:1.0;"/><path d="M744.7188,473.6406 Q744.1406,473.9375 743.5,474.0781 Q742.8594,474.2344 742.1563,474.2344 Q739.6563,474.2344 738.3281,472.5938 Q737.0156,470.9375 737.0156,467.8125 Q737.0156,464.6875 738.3281,463.0313 Q739.6563,461.375 742.1563,461.375 Q742.8594,461.375 743.5,461.5313 Q744.1563,461.6875 744.7188,461.9844 L744.7188,464.7031 Q744.0938,464.125 743.5,463.8594 Q742.9063,463.5781 742.2813,463.5781 Q740.9375,463.5781 740.25,464.6563 Q739.5625,465.7188 739.5625,467.8125 Q739.5625,469.9063 740.25,470.9844 Q740.9375,472.0469 742.2813,472.0469 Q742.9063,472.0469 743.5,471.7813 Q744.0938,471.5 744.7188,470.9219 L744.7188,473.6406 Z " fill="#000000"/><text fill="#000000" font-family="sans-serif" font-size="12" lengthAdjust="spacing" textLength="149" x="762.25" y="472.1543">VaccinationCenterStore</text><line style="stroke:#A80036;stroke-width:1.5;" x1="670.5" x2="970.5" y1="484" y2="484"/><line style="stroke:#A80036;stroke-width:1.5;" x1="670.5" x2="970.5" y1="492" y2="492"/><text fill="#000000" font-family="sans-serif" font-size="11" lengthAdjust="spacing" textLength="290" x="675.5" y="506.2104">+createVaccinationCenter(centerData, coordinator)</text><text fill="#000000" font-family="sans-serif" font-size="11" lengthAdjust="spacing" textLength="196" x="675.5" y="519.0151">+validateVaccinatonCenter(center)</text><text fill="#000000" font-family="sans-serif" font-size="11" lengthAdjust="spacing" textLength="182" x="675.5" y="531.8198">+saveVaccinationCenter(center)</text><text fill="#000000" font-family="sans-serif" font-size="11" lengthAdjust="spacing" textLength="144" x="675.5" y="544.6245">+checkDuplicates(center)</text><text fill="#000000" font-family="sans-serif" font-size="11" lengthAdjust="spacing" textLength="176" x="675.5" y="557.4292">+addVaccinationCenter(center)</text><!--MD5=[0e501da62322464167c8ec4d233a6b7e]
class VaccineType--><rect codeLine="98" fill="#FEFECE" filter="url(#f6oq4w231vfvo)" height="99.2188" id="VaccineType" style="stroke:#A80036;stroke-width:1.5;" width="266" x="1314.5" y="1214"/><ellipse cx="1404.25" cy="1230" fill="#ADD1B2" rx="11" ry="11" style="stroke:#A80036;stroke-width:1.0;"/><path d="M1407.2188,1235.6406 Q1406.6406,1235.9375 1406,1236.0781 Q1405.3594,1236.2344 1404.6563,1236.2344 Q1402.1563,1236.2344 1400.8281,1234.5938 Q1399.5156,1232.9375 1399.5156,1229.8125 Q1399.5156,1226.6875 1400.8281,1225.0313 Q1402.1563,1223.375 1404.6563,1223.375 Q1405.3594,1223.375 1406,1223.5313 Q1406.6563,1223.6875 1407.2188,1223.9844 L1407.2188,1226.7031 Q1406.5938,1226.125 1406,1225.8594 Q1405.4063,1225.5781 1404.7813,1225.5781 Q1403.4375,1225.5781 1402.75,1226.6563 Q1402.0625,1227.7188 1402.0625,1229.8125 Q1402.0625,1231.9063 1402.75,1232.9844 Q1403.4375,1234.0469 1404.7813,1234.0469 Q1405.4063,1234.0469 1406,1233.7813 Q1406.5938,1233.5 1407.2188,1232.9219 L1407.2188,1235.6406 Z " fill="#000000"/><text fill="#000000" font-family="sans-serif" font-size="12" lengthAdjust="spacing" textLength="78" x="1424.75" y="1234.1543">VaccineType</text><line style="stroke:#A80036;stroke-width:1.5;" x1="1315.5" x2="1579.5" y1="1246" y2="1246"/><text fill="#000000" font-family="sans-serif" font-size="11" lengthAdjust="spacing" textLength="73" x="1320.5" y="1260.2104">-code: String</text><text fill="#000000" font-family="sans-serif" font-size="11" lengthAdjust="spacing" textLength="113" x="1320.5" y="1273.0151">-description : String</text><text fill="#000000" font-family="sans-serif" font-size="11" lengthAdjust="spacing" textLength="111" x="1320.5" y="1285.8198">-technology : String</text><line style="stroke:#A80036;stroke-width:1.0;" x1="1315.5" x2="1579.5" y1="1292.4141" y2="1292.4141"/><text fill="#000000" font-family="sans-serif" font-size="11" lengthAdjust="spacing" textLength="254" x="1320.5" y="1306.6245">+VaccineType(code, description, technology)</text><!--MD5=[9532c95099058dfe385d7270fd32fc0d]
class VaccineTypeStore--><rect codeLine="106" fill="#FEFECE" filter="url(#f6oq4w231vfvo)" height="86.4141" id="VaccineTypeStore" style="stroke:#A80036;stroke-width:1.5;" width="160" x="1223.5" y="465"/><ellipse cx="1245.7" cy="481" fill="#ADD1B2" rx="11" ry="11" style="stroke:#A80036;stroke-width:1.0;"/><path d="M1248.6688,486.6406 Q1248.0906,486.9375 1247.45,487.0781 Q1246.8094,487.2344 1246.1063,487.2344 Q1243.6063,487.2344 1242.2781,485.5938 Q1240.9656,483.9375 1240.9656,480.8125 Q1240.9656,477.6875 1242.2781,476.0313 Q1243.6063,474.375 1246.1063,474.375 Q1246.8094,474.375 1247.45,474.5313 Q1248.1063,474.6875 1248.6688,474.9844 L1248.6688,477.7031 Q1248.0438,477.125 1247.45,476.8594 Q1246.8563,476.5781 1246.2313,476.5781 Q1244.8875,476.5781 1244.2,477.6563 Q1243.5125,478.7188 1243.5125,480.8125 Q1243.5125,482.9063 1244.2,483.9844 Q1244.8875,485.0469 1246.2313,485.0469 Q1246.8563,485.0469 1247.45,484.7813 Q1248.0438,484.5 1248.6688,483.9219 L1248.6688,486.6406 Z " fill="#000000"/><text fill="#000000" font-family="sans-serif" font-size="12" lengthAdjust="spacing" textLength="112" x="1261.3" y="485.1543">VaccineTypeStore</text><line style="stroke:#A80036;stroke-width:1.5;" x1="1224.5" x2="1382.5" y1="497" y2="497"/><line style="stroke:#A80036;stroke-width:1.5;" x1="1224.5" x2="1382.5" y1="505" y2="505"/><text fill="#000000" font-family="sans-serif" font-size="11" lengthAdjust="spacing" textLength="148" x="1229.5" y="519.2104">+getVaccineTypeByCode()</text><text fill="#000000" font-family="sans-serif" font-size="11" lengthAdjust="spacing" textLength="108" x="1229.5" y="532.0151">+addVaccineType()</text><text fill="#000000" font-family="sans-serif" font-size="11" lengthAdjust="spacing" textLength="114" x="1229.5" y="544.8198">+saveVaccineType()</text><!--MD5=[7b3e8f70d80133538393dc99d446cc4d]
class WaitingRoomList--><rect codeLine="112" fill="#FEFECE" filter="url(#f6oq4w231vfvo)" height="99.2188" id="WaitingRoomList" style="stroke:#A80036;stroke-width:1.5;" width="300" x="769.5" y="1065.5"/><ellipse cx="864.25" cy="1081.5" fill="#ADD1B2" rx="11" ry="11" style="stroke:#A80036;stroke-width:1.0;"/><path d="M867.2188,1087.1406 Q866.6406,1087.4375 866,1087.5781 Q865.3594,1087.7344 864.6563,1087.7344 Q862.1563,1087.7344 860.8281,1086.0938 Q859.5156,1084.4375 859.5156,1081.3125 Q859.5156,1078.1875 860.8281,1076.5313 Q862.1563,1074.875 864.6563,1074.875 Q865.3594,1074.875 866,1075.0313 Q866.6563,1075.1875 867.2188,1075.4844 L867.2188,1078.2031 Q866.5938,1077.625 866,1077.3594 Q865.4063,1077.0781 864.7813,1077.0781 Q863.4375,1077.0781 862.75,1078.1563 Q862.0625,1079.2188 862.0625,1081.3125 Q862.0625,1083.4063 862.75,1084.4844 Q863.4375,1085.5469 864.7813,1085.5469 Q865.4063,1085.5469 866,1085.2813 Q866.5938,1085 867.2188,1084.4219 L867.2188,1087.1406 Z " fill="#000000"/><text fill="#000000" font-family="sans-serif" font-size="12" lengthAdjust="spacing" textLength="102" x="884.75" y="1085.6543">WaitingRoomList</text><line style="stroke:#A80036;stroke-width:1.5;" x1="770.5" x2="1068.5" y1="1097.5" y2="1097.5"/><line style="stroke:#A80036;stroke-width:1.5;" x1="770.5" x2="1068.5" y1="1105.5" y2="1105.5"/><text fill="#000000" font-family="sans-serif" font-size="11" lengthAdjust="spacing" textLength="288" x="775.5" y="1119.7104">+createArrival(arrivalTime, snsUser, appointment)</text><text fill="#000000" font-family="sans-serif" font-size="11" lengthAdjust="spacing" textLength="116" x="775.5" y="1132.5151">+saveArrival(arrival)</text><text fill="#000000" font-family="sans-serif" font-size="11" lengthAdjust="spacing" textLength="132" x="775.5" y="1145.3198">+removeArrival(arrival)</text><text fill="#000000" font-family="sans-serif" font-size="11" lengthAdjust="spacing" textLength="144" x="775.5" y="1158.1245">+checkDuplicates(arrival)</text><!--MD5=[8f7d5f20baa4a3ca4f3a05061f7ec7bc]
link Appointment to SMSSender--><path codeLine="120" d="M686.5,1593.12 C686.5,1616.73 686.5,1644.27 686.5,1664.45 " fill="none" id="Appointment-to-SMSSender" style="stroke:#A80036;stroke-width:1.0;"/><polygon fill="#A80036" points="686.5,1669.67,690.5,1660.67,686.5,1664.67,682.5,1660.67,686.5,1669.67" style="stroke:#A80036;stroke-width:1.0;"/><text fill="#000000" font-family="sans-serif" font-size="13" lengthAdjust="spacing" textLength="49" x="687.5" y="1636.0669">triggers</text><text fill="#000000" font-family="sans-serif" font-size="13" lengthAdjust="spacing" textLength="8" x="677.9375" y="1613.2134">1</text><text fill="#000000" font-family="sans-serif" font-size="13" lengthAdjust="spacing" textLength="24" x="659.575" y="1658.9945">0..1</text><!--MD5=[5bffdd6f8ef67cfbc17d6bd4398d763c]
link AppointmentScheduleList to Appointment--><path codeLine="122" d="M1050.84,1294.25 C981.9,1341.22 846.98,1433.16 762.07,1491.01 " fill="none" id="AppointmentScheduleList-to-Appointment" style="stroke:#A80036;stroke-width:1.0;"/><polygon fill="#A80036" points="757.82,1493.91,767.5096,1492.1459,761.9514,1491.0938,763.0036,1485.5356,757.82,1493.91" style="stroke:#A80036;stroke-width:1.0;"/><text fill="#000000" font-family="sans-serif" font-size="13" lengthAdjust="spacing" textLength="40" x="976.5" y="1384.5669">stores</text><text fill="#000000" font-family="sans-serif" font-size="13" lengthAdjust="spacing" textLength="8" x="1033.4569" y="1313.8797">1</text><text fill="#000000" font-family="sans-serif" font-size="13" lengthAdjust="spacing" textLength="7" x="760.3572" y="1482.9426">*</text><!--MD5=[cdda88bd94d57e06d95e6dd6ce9ee716]
link Arrival to Appointment--><path codeLine="124" d="M686.5,1417.24 C686.5,1438.25 686.5,1465.11 686.5,1488.56 " fill="none" id="Arrival-to-Appointment" style="stroke:#A80036;stroke-width:1.0;"/><polygon fill="#A80036" points="686.5,1493.82,690.5,1484.82,686.5,1488.82,682.5,1484.82,686.5,1493.82" style="stroke:#A80036;stroke-width:1.0;"/><text fill="#000000" font-family="sans-serif" font-size="13" lengthAdjust="spacing" textLength="23" x="687.5" y="1460.0669">has</text><text fill="#000000" font-family="sans-serif" font-size="13" lengthAdjust="spacing" textLength="8" x="677.8375" y="1436.7603">1</text><text fill="#000000" font-family="sans-serif" font-size="13" lengthAdjust="spacing" textLength="8" x="677.9375" y="1482.8399">1</text><!--MD5=[1bd9080c7e199931e49bc5a1616681ac]
link Company to SNSUserStore--><path codeLine="126" d="M639.58,311.61 C603.77,388.01 520.76,565.12 485.65,640.04 " fill="none" id="Company-to-SNSUserStore" style="stroke:#A80036;stroke-width:1.0;stroke-dasharray:7.0,7.0;"/><polygon fill="#A80036" points="483.41,644.82,490.8664,638.3855,485.5424,640.2975,483.6304,634.9736,483.41,644.82" style="stroke:#A80036;stroke-width:1.0;"/><!--MD5=[bc0d5b4bfe6e1bf0a8fced13bc4bdd47]
link Company to VaccinationCenterStore--><path codeLine="127" d="M682.12,311.67 C707.87,348.01 747.99,404.64 778.41,447.59 " fill="none" id="Company-to-VaccinationCenterStore" style="stroke:#A80036;stroke-width:1.0;stroke-dasharray:7.0,7.0;"/><polygon fill="#A80036" points="781.32,451.7,779.3951,442.0411,778.4355,447.616,772.8606,446.6563,781.32,451.7" style="stroke:#A80036;stroke-width:1.0;"/><!--MD5=[26b80dd60d3305f854b992ec0b603e2d]
link Company to VaccineTypeStore--><path codeLine="128" d="M723.13,311.58 C732.22,316 741.51,320.26 750.5,324 C853.55,366.84 883.52,366.04 989.5,401 C1067.12,426.6 1155.28,456.43 1218.38,477.91 " fill="none" id="Company-to-VaccineTypeStore" style="stroke:#A80036;stroke-width:1.0;stroke-dasharray:7.0,7.0;"/><polygon fill="#A80036" points="1223.26,479.57,1216.0288,472.8834,1218.5267,477.959,1213.4511,480.4568,1223.26,479.57" style="stroke:#A80036;stroke-width:1.0;"/><!--MD5=[09366576ee87d48d594df10cacc83f45]
link Company to Employee--><path codeLine="129" d="M591.81,311.67 C549.81,335.16 492.66,367.12 436.75,398.38 " fill="none" id="Company-to-Employee" style="stroke:#A80036;stroke-width:1.0;"/><polygon fill="#A80036" points="432.39,400.82,442.2,399.9458,436.7608,398.3918,438.3148,392.9526,432.39,400.82" style="stroke:#A80036;stroke-width:1.0;"/><text fill="#000000" font-family="sans-serif" font-size="13" lengthAdjust="spacing" textLength="39" x="512.5" y="367.0669">knows</text><text fill="#000000" font-family="sans-serif" font-size="13" lengthAdjust="spacing" textLength="8" x="572.4332" y="331.1787">1</text><text fill="#000000" font-family="sans-serif" font-size="13" lengthAdjust="spacing" textLength="7" x="438.4955" y="389.8119">*</text><!--MD5=[bfff716514ca687b645fe473c6e098a4]
reverse link Employee to Receptionist--><path codeLine="131" d="M230.73,635.12 C220.07,749.29 205.22,908.35 199.69,967.57 " fill="none" id="Employee-backto-Receptionist" style="stroke:#A80036;stroke-width:1.0;"/><polygon fill="none" points="223.77,634.34,232.6,615.08,237.71,635.64,223.77,634.34" style="stroke:#A80036;stroke-width:1.0;"/><!--MD5=[d205afa640eb10e9aa5da67d61820494]
link Receptionist to Appointment--><path codeLine="133" d="M185.58,1016.12 C181.54,1025.19 177.53,1035.84 175.5,1046 C163.51,1106.15 147.2,1129.58 175.5,1184 C254.48,1335.88 430.56,1436.83 553.83,1491.87 " fill="none" id="Receptionist-to-Appointment" style="stroke:#A80036;stroke-width:1.0;"/><polygon fill="#A80036" points="558.56,1493.97,551.956,1486.6633,553.9898,1491.942,548.7111,1493.9757,558.56,1493.97" style="stroke:#A80036;stroke-width:1.0;"/><text fill="#000000" font-family="sans-serif" font-size="13" lengthAdjust="spacing" textLength="62" x="273.5" y="1268.0669">related to</text><text fill="#000000" font-family="sans-serif" font-size="13" lengthAdjust="spacing" textLength="8" x="173.6995" y="1035.9105">1</text><text fill="#000000" font-family="sans-serif" font-size="13" lengthAdjust="spacing" textLength="7" x="533.0763" y="1483.011">*</text><!--MD5=[73b4379c7f692e73188840e6b6f2b1ce]
link RegisterSNSUserArrivalController to Company--><path codeLine="135" d="M772.11,164.08 C751.81,183.29 722.45,211.09 698.39,233.85 " fill="none" id="RegisterSNSUserArrivalController-to-Company" style="stroke:#A80036;stroke-width:1.0;stroke-dasharray:7.0,7.0;"/><polygon fill="#A80036" points="694.58,237.46,703.8689,234.1863,698.2143,234.026,698.3745,228.3715,694.58,237.46" style="stroke:#A80036;stroke-width:1.0;"/><!--MD5=[69cada8e0c7a5a6494ace865247ae966]
link RegisterSNSUserArrivalController to EmployeeSession--><path codeLine="136" d="M820.89,164.08 C837.55,179.85 860.33,201.41 881.27,221.23 " fill="none" id="RegisterSNSUserArrivalController-to-EmployeeSession" style="stroke:#A80036;stroke-width:1.0;stroke-dasharray:7.0,7.0;"/><polygon fill="#A80036" points="885.15,224.9,881.3377,215.8189,881.509,221.4732,875.8547,221.6445,885.15,224.9" style="stroke:#A80036;stroke-width:1.0;"/><!--MD5=[27947440cc9afdf8522ce84f95d7987e]
link RegisterSNSUserArrivalUI to RegisterSNSUserArrivalController--><path codeLine="138" d="M796.5,55.22 C796.5,71.48 796.5,93.32 796.5,110.62 " fill="none" id="RegisterSNSUserArrivalUI-to-RegisterSNSUserArrivalController" style="stroke:#A80036;stroke-width:1.0;stroke-dasharray:7.0,7.0;"/><polygon fill="#A80036" points="796.5,115.83,800.5,106.83,796.5,110.83,792.5,106.83,796.5,115.83" style="stroke:#A80036;stroke-width:1.0;"/><!--MD5=[7237f06c0b74e3dd035481e962d83e87]
link SNSUser to Arrival--><path codeLine="140" d="M521.22,1184.07 C560.83,1230.79 612.36,1291.56 647.28,1332.74 " fill="none" id="SNSUser-to-Arrival" style="stroke:#A80036;stroke-width:1.0;"/><polygon fill="#FFFFFF" points="655.78,1342.77,654.9533,1335.6064,648.0228,1333.6144,648.8495,1340.7779,655.78,1342.77" style="stroke:#A80036;stroke-width:1.0;"/><!--MD5=[3f8bc51bb69ce45c3e3ea0b764df71f1]
link SNSUser to Appointment--><path codeLine="141" d="M486.54,1184.43 C500.43,1222.99 519.48,1271.58 540.5,1313 C571.1,1373.3 613.15,1437.95 644.26,1483.21 " fill="none" id="SNSUser-to-Appointment" style="stroke:#A80036;stroke-width:1.0;"/><polygon fill="#FFFFFF" points="651.72,1494,651.5925,1486.79,644.8881,1484.1346,645.0156,1491.3446,651.72,1494" style="stroke:#A80036;stroke-width:1.0;"/><!--MD5=[b01d27099955aced792f1ce85db49798]
link SNSUserStore to SNSUser--><path codeLine="143" d="M392.19,706.01 C380.33,713.95 369.67,723.82 362.5,736 C316.99,813.39 339.38,851.25 362.5,938 C372.19,974.34 391.36,1010.97 410.42,1041.34 " fill="none" id="SNSUserStore-to-SNSUser" style="stroke:#A80036;stroke-width:1.0;"/><polygon fill="#A80036" points="413.23,1045.78,411.8048,1036.0348,410.5595,1041.5529,405.0414,1040.3076,413.23,1045.78" style="stroke:#A80036;stroke-width:1.0;"/><text fill="#000000" font-family="sans-serif" font-size="13" lengthAdjust="spacing" textLength="40" x="363.5" y="841.5669">stores</text><text fill="#000000" font-family="sans-serif" font-size="13" lengthAdjust="spacing" textLength="8" x="367.4198" y="725.9503">1</text><text fill="#000000" font-family="sans-serif" font-size="13" lengthAdjust="spacing" textLength="7" x="400.685" y="1034.9609">*</text><!--MD5=[f5c720869033dc22d8f3d12ae1524a9f]
link VaccinationCenter to WaitingRoomList--><path codeLine="145" d="M919.5,938.03 C919.5,979.35 919.5,1025.59 919.5,1060.3 " fill="none" id="VaccinationCenter-to-WaitingRoomList" style="stroke:#A80036;stroke-width:1.0;stroke-dasharray:7.0,7.0;"/><polygon fill="#A80036" points="919.5,1065.34,923.5,1056.34,919.5,1060.34,915.5,1056.34,919.5,1065.34" style="stroke:#A80036;stroke-width:1.0;"/><!--MD5=[1b4e040ecc0059fa95a3752a963290c5]
link VaccinationCenter to AppointmentScheduleList--><path codeLine="146" d="M1021.17,938.22 C1047.26,970.06 1072.03,1007.16 1086.5,1046 C1109.09,1106.62 1104.94,1183.52 1099.78,1227.45 " fill="none" id="VaccinationCenter-to-AppointmentScheduleList" style="stroke:#A80036;stroke-width:1.0;stroke-dasharray:7.0,7.0;"/><polygon fill="#A80036" points="1099.14,1232.65,1104.1896,1224.1941,1099.7391,1227.686,1096.2472,1223.2356,1099.14,1232.65" style="stroke:#A80036;stroke-width:1.0;"/><!--MD5=[8c304936b446fd8cea914e03fbadd4b7]
link VaccinationCenterStore to VaccinationCenter--><path codeLine="148" d="M837.18,564.1 C850.96,609.6 870.9,675.47 887.71,730.99 " fill="none" id="VaccinationCenterStore-to-VaccinationCenter" style="stroke:#A80036;stroke-width:1.0;"/><polygon fill="#A80036" points="889.22,735.99,890.4251,726.2151,887.7636,731.2068,882.772,728.5453,889.22,735.99" style="stroke:#A80036;stroke-width:1.0;"/><text fill="#000000" font-family="sans-serif" font-size="13" lengthAdjust="spacing" textLength="40" x="879.5" y="680.0669">stores</text><text fill="#000000" font-family="sans-serif" font-size="13" lengthAdjust="spacing" textLength="8" x="830.7254" y="583.9248">1</text><text fill="#000000" font-family="sans-serif" font-size="13" lengthAdjust="spacing" textLength="7" x="879.6337" y="724.7673">*</text><!--MD5=[dcfb289409acccd9ab6e282e910f81b1]
link VaccineType to Appointment--><path codeLine="150" d="M1314.51,1313.08 C1179.48,1362.41 970.98,1438.58 831.71,1489.45 " fill="none" id="VaccineType-to-Appointment" style="stroke:#A80036;stroke-width:1.0;"/><polygon fill="#FFFFFF" points="819.29,1493.99,826.2983,1495.6882,830.5613,1489.8721,823.553,1488.174,819.29,1493.99" style="stroke:#A80036;stroke-width:1.0;"/><!--MD5=[d008df8d9f8e445f2ab98a1ffd9c1902]
link VaccineTypeStore to VaccineType--><path codeLine="152" d="M1336.64,551.26 C1368.55,594.76 1414.8,665.91 1434.5,736 C1481.48,903.11 1465.93,1111.93 1454.75,1208.68 " fill="none" id="VaccineTypeStore-to-VaccineType" style="stroke:#A80036;stroke-width:1.0;"/><polygon fill="#A80036" points="1454.16,1213.77,1459.1856,1205.2998,1454.745,1208.8043,1451.2405,1204.3638,1454.16,1213.77" style="stroke:#A80036;stroke-width:1.0;"/><text fill="#000000" font-family="sans-serif" font-size="13" lengthAdjust="spacing" textLength="40" x="1465.5" y="841.5669">stores</text><text fill="#000000" font-family="sans-serif" font-size="13" lengthAdjust="spacing" textLength="8" x="1333.2842" y="571.3944">1</text><text fill="#000000" font-family="sans-serif" font-size="13" lengthAdjust="spacing" textLength="7" x="1447.6044" y="1202.7829">*</text><!--MD5=[4f898a9e1e1ea6486c9b22ccfa204bc8]
link WaitingRoomList to Arrival--><path codeLine="154" d="M876.49,1164.54 C831.98,1214.78 763.29,1292.33 721.84,1339.11 " fill="none" id="WaitingRoomList-to-Arrival" style="stroke:#A80036;stroke-width:1.0;"/><polygon fill="#A80036" points="718.41,1342.98,727.3712,1338.8938,721.7247,1339.2367,721.3818,1333.5902,718.41,1342.98" style="stroke:#A80036;stroke-width:1.0;"/><text fill="#000000" font-family="sans-serif" font-size="13" lengthAdjust="spacing" textLength="23" x="832.5" y="1268.0669">has</text><text fill="#000000" font-family="sans-serif" font-size="13" lengthAdjust="spacing" textLength="8" x="861.8792" y="1184.6221">1</text><text fill="#000000" font-family="sans-serif" font-size="13" lengthAdjust="spacing" textLength="7" x="716.6481" y="1331.8868">*</text><!--MD5=[1e175b9c3f95e96f00e2d2de4e9a9bc5]
@startuml US04_CD
skinparam classAttributeIconSize 0

class Appointment {
  - Date appointmentTime
  - SNSUser snsUser
  - VaccineType vaccineType
  - - -
  + Appointment(appointmentTime, snsUser, vaccineType)
}

class AppointmentScheduleList {
  + Appointment findSNSUserAppointment(snsUser)
}

class Arrival {
  - Date arrivalTime
  - int status
}

class Company {
  - String designation
  - - -
  + String getDesignation()
}

class Employee {
  - id: String
  - address: String
  - phoneNumber: String
  - citizenCardNumber: String
  - - -
  + Employee(id, name, address, phoneNumber, email, citizenCardNumber, roleId)
  + getId()
  + getName()
  + getAddress()
  + getPhoneNumber()
  + getEmail()
  + getCitizenCardNumber()
  + getPassword()
  + getRoleId()
}

class EmployeeSession {
  - String employeeName
  - String vaccinationCenterId
  - - -
  + EmployeeSession(employeeName, vaccinationCenterId)
  + String getVaccinationCenterId()  
}

class RegisterSNSUserArrivalUI {}

class RegisterSNSUserArrivalController {}

class SNSUser {
  - String citizenCard
  - String snsNumber
  - Date birthDay
  - Char gender
  - String phoneNumber
  - String address
  - - -
  + SNSUser(citizenCard, snsNumber, name, birthDay, gender, phoneNumber, email, address)
}

class SNSUserStore {
  + SNSUser findSNSUserByNumber(snsNumber)
}

class Receptionist {}

class SMSSender {}

class VaccinationCenter {
  - name: String
  - address: String
  - emailAddress: String
  - phoneNumber: String
  - faxNumber: String
  - websiteAddress: String
  - openingHours: String
  - closingHours: String
  - slotDuration: int
  - maximumVaccinesPerSlot: int
  - coordinator: EMPLOYEE
  - - -
  + VaccinationCenter(name,address,emailAddress,phoneNumber,faxNumber,websiteAddress,openingHours,closingHours,slotDuration,maximumVaccinesPerSlot,coordinator)
}

class VaccinationCenterStore {
  + createVaccinationCenter(centerData, coordinator)
  + validateVaccinatonCenter(center)
  + saveVaccinationCenter(center)
  + checkDuplicates(center)
  + addVaccinationCenter(center)
}

class VaccineType {
  - code: String
  - description : String
  - technology : String
  - - -
  + VaccineType(code, description, technology)
}

class VaccineTypeStore {
  + getVaccineTypeByCode()
  + addVaccineType()
  + saveVaccineType()
}

class WaitingRoomList {
  + createArrival(arrivalTime, snsUser, appointment)
  + saveArrival(arrival)
  + removeArrival(arrival)
  + checkDuplicates(arrival)
}


Appointment "1" - -> "0..1" SMSSender : triggers

AppointmentScheduleList "1" - -> "*" Appointment : stores

Arrival "1" - -> "1" Appointment : has

Company ..> SNSUserStore
Company ..> VaccinationCenterStore
Company ..> VaccineTypeStore
Company "1" - -> "*" Employee : knows

Employee <|- - Receptionist

Receptionist "1" - -> "*" Appointment : related to

RegisterSNSUserArrivalController ..> Company
RegisterSNSUserArrivalController ..> EmployeeSession

RegisterSNSUserArrivalUI ..> RegisterSNSUserArrivalController

SNSUser - -o Arrival
SNSUser - -o Appointment

SNSUserStore "1" - -> "*" SNSUser : stores

VaccinationCenter ..> WaitingRoomList
VaccinationCenter ..> AppointmentScheduleList

VaccinationCenterStore "1" - -> "*" VaccinationCenter : stores

VaccineType - -o Appointment

VaccineTypeStore "1" - -> "*" VaccineType : stores

WaitingRoomList "1" - -> "*" Arrival : has

@enduml

PlantUML version 1.2022.0(Tue Jan 11 16:16:42 WET 2022)
(GPL source distribution)
Java Runtime: OpenJDK Runtime Environment
JVM: OpenJDK 64-Bit Server VM
Default Encoding: UTF-8
Language: en
Country: US
--></g></svg>