<?xml version="1.0" encoding="UTF-8" standalone="no"?><svg xmlns="http://www.w3.org/2000/svg" xmlns:xlink="http://www.w3.org/1999/xlink" contentScriptType="application/ecmascript" contentStyleType="text/css" height="1715px" preserveAspectRatio="none" style="width:1290px;height:1715px;background:#FFFFFF;" version="1.1" viewBox="0 0 1290 1715" width="1290px" zoomAndPan="magnify"><defs><filter height="300%" id="f7qawz0008q0a" width="300%" x="-1" y="-1"><feGaussianBlur result="blurOut" stdDeviation="2.0"/><feColorMatrix in="blurOut" result="blurOut2" type="matrix" values="0 0 0 0 0 0 0 0 0 0 0 0 0 0 0 0 0 0 .4 0"/><feOffset dx="4.0" dy="4.0" in="blurOut2" result="blurOut3"/><feBlend in="SourceGraphic" in2="blurOut3" mode="normal"/></filter></defs><g><!--MD5=[c508b5b6bbe276ff5e2700b6641f837f]
class Appointment--><rect codeLine="3" fill="#FEFECE" filter="url(#f7qawz0008q0a)" height="61.8359" id="Appointment" style="stroke:#A80036;stroke-width:1.5;" width="101" x="642.5" y="1513"/><ellipse cx="657.5" cy="1529" fill="#ADD1B2" rx="11" ry="11" style="stroke:#A80036;stroke-width:1.0;"/><path d="M660.2656,1524.875 Q660.4219,1524.6563 660.6094,1524.5469 Q660.7969,1524.4375 661.0156,1524.4375 Q661.3906,1524.4375 661.625,1524.7031 Q661.8594,1524.9531 661.8594,1525.5625 L661.8594,1527.0156 Q661.8594,1527.625 661.625,1527.8906 Q661.3906,1528.1563 661.0156,1528.1563 Q660.6719,1528.1563 660.4688,1527.9531 Q660.2656,1527.7656 660.1563,1527.25 Q660.1094,1526.8906 659.9219,1526.7031 Q659.5938,1526.3281 658.9844,1526.1094 Q658.375,1525.8906 657.75,1525.8906 Q656.9844,1525.8906 656.3438,1526.2188 Q655.7188,1526.5469 655.2188,1527.2969 Q654.7344,1528.0469 654.7344,1529.0781 L654.7344,1530.1719 Q654.7344,1531.4063 655.625,1532.2344 Q656.5156,1533.0469 658.1094,1533.0469 Q659.0469,1533.0469 659.7031,1532.7969 Q660.0938,1532.6406 660.5156,1532.2031 Q660.7813,1531.9375 660.9219,1531.8594 Q661.0781,1531.7813 661.2813,1531.7813 Q661.6094,1531.7813 661.8594,1532.0469 Q662.125,1532.2969 662.125,1532.6406 Q662.125,1532.9844 661.7813,1533.3906 Q661.2813,1533.9688 660.4844,1534.2969 Q659.4063,1534.75 658.1094,1534.75 Q656.5938,1534.75 655.3906,1534.125 Q654.4063,1533.625 653.7188,1532.5625 Q653.0313,1531.4844 653.0313,1530.2031 L653.0313,1529.0469 Q653.0313,1527.7188 653.6406,1526.5781 Q654.2656,1525.4219 655.3594,1524.8125 Q656.4531,1524.1875 657.6875,1524.1875 Q658.4219,1524.1875 659.0625,1524.3594 Q659.7188,1524.5156 660.2656,1524.875 Z " fill="#000000"/><text fill="#000000" font-family="sans-serif" font-size="12" lengthAdjust="spacing" textLength="69" x="671.5" y="1533.9102">Appointment</text><line style="stroke:#A80036;stroke-width:1.5;" x1="643.5" x2="742.5" y1="1545" y2="1545"/><text fill="#000000" font-family="sans-serif" font-size="11" lengthAdjust="spacing" textLength="48" x="648.5" y="1560.4189">-Date time</text><line style="stroke:#A80036;stroke-width:1.5;" x1="643.5" x2="742.5" y1="1566.8359" y2="1566.8359"/><!--MD5=[3b05b00339990c8bac96769c0a2fc94b]
class AppointmentStore--><rect codeLine="7" fill="#FEFECE" filter="url(#f7qawz0008q0a)" height="61.8359" id="AppointmentStore" style="stroke:#A80036;stroke-width:1.5;" width="189" x="788.5" y="1281"/><ellipse cx="830.05" cy="1297" fill="#ADD1B2" rx="11" ry="11" style="stroke:#A80036;stroke-width:1.0;"/><path d="M832.8156,1292.875 Q832.9719,1292.6563 833.1594,1292.5469 Q833.3469,1292.4375 833.5656,1292.4375 Q833.9406,1292.4375 834.175,1292.7031 Q834.4094,1292.9531 834.4094,1293.5625 L834.4094,1295.0156 Q834.4094,1295.625 834.175,1295.8906 Q833.9406,1296.1563 833.5656,1296.1563 Q833.2219,1296.1563 833.0188,1295.9531 Q832.8156,1295.7656 832.7063,1295.25 Q832.6594,1294.8906 832.4719,1294.7031 Q832.1438,1294.3281 831.5344,1294.1094 Q830.925,1293.8906 830.3,1293.8906 Q829.5344,1293.8906 828.8938,1294.2188 Q828.2688,1294.5469 827.7688,1295.2969 Q827.2844,1296.0469 827.2844,1297.0781 L827.2844,1298.1719 Q827.2844,1299.4063 828.175,1300.2344 Q829.0656,1301.0469 830.6594,1301.0469 Q831.5969,1301.0469 832.2531,1300.7969 Q832.6438,1300.6406 833.0656,1300.2031 Q833.3313,1299.9375 833.4719,1299.8594 Q833.6281,1299.7813 833.8313,1299.7813 Q834.1594,1299.7813 834.4094,1300.0469 Q834.675,1300.2969 834.675,1300.6406 Q834.675,1300.9844 834.3313,1301.3906 Q833.8313,1301.9688 833.0344,1302.2969 Q831.9563,1302.75 830.6594,1302.75 Q829.1438,1302.75 827.9406,1302.125 Q826.9563,1301.625 826.2688,1300.5625 Q825.5813,1299.4844 825.5813,1298.2031 L825.5813,1297.0469 Q825.5813,1295.7188 826.1906,1294.5781 Q826.8156,1293.4219 827.9094,1292.8125 Q829.0031,1292.1875 830.2375,1292.1875 Q830.9719,1292.1875 831.6125,1292.3594 Q832.2688,1292.5156 832.8156,1292.875 Z " fill="#000000"/><text fill="#000000" font-family="sans-serif" font-size="12" lengthAdjust="spacing" textLength="98" x="849.95" y="1301.9102">AppointmentStore</text><line style="stroke:#A80036;stroke-width:1.5;" x1="789.5" x2="976.5" y1="1313" y2="1313"/><line style="stroke:#A80036;stroke-width:1.5;" x1="789.5" x2="976.5" y1="1321" y2="1321"/><text fill="#000000" font-family="sans-serif" font-size="11" lengthAdjust="spacing" textLength="177" x="794.5" y="1336.4189">+findSNSUserAppointment(snsUser)</text><!--MD5=[950bab46f39ba9ae59885963abb53c18]
class Arrival--><rect codeLine="11" fill="#FEFECE" filter="url(#f7qawz0008q0a)" height="61.8359" id="Arrival" style="stroke:#A80036;stroke-width:1.5;" width="93" x="646.5" y="1373"/><ellipse cx="674.1" cy="1389" fill="#ADD1B2" rx="11" ry="11" style="stroke:#A80036;stroke-width:1.0;"/><path d="M676.8656,1384.875 Q677.0219,1384.6563 677.2094,1384.5469 Q677.3969,1384.4375 677.6156,1384.4375 Q677.9906,1384.4375 678.225,1384.7031 Q678.4594,1384.9531 678.4594,1385.5625 L678.4594,1387.0156 Q678.4594,1387.625 678.225,1387.8906 Q677.9906,1388.1563 677.6156,1388.1563 Q677.2719,1388.1563 677.0688,1387.9531 Q676.8656,1387.7656 676.7563,1387.25 Q676.7094,1386.8906 676.5219,1386.7031 Q676.1938,1386.3281 675.5844,1386.1094 Q674.975,1385.8906 674.35,1385.8906 Q673.5844,1385.8906 672.9438,1386.2188 Q672.3188,1386.5469 671.8188,1387.2969 Q671.3344,1388.0469 671.3344,1389.0781 L671.3344,1390.1719 Q671.3344,1391.4063 672.225,1392.2344 Q673.1156,1393.0469 674.7094,1393.0469 Q675.6469,1393.0469 676.3031,1392.7969 Q676.6938,1392.6406 677.1156,1392.2031 Q677.3813,1391.9375 677.5219,1391.8594 Q677.6781,1391.7813 677.8813,1391.7813 Q678.2094,1391.7813 678.4594,1392.0469 Q678.725,1392.2969 678.725,1392.6406 Q678.725,1392.9844 678.3813,1393.3906 Q677.8813,1393.9688 677.0844,1394.2969 Q676.0063,1394.75 674.7094,1394.75 Q673.1938,1394.75 671.9906,1394.125 Q671.0063,1393.625 670.3188,1392.5625 Q669.6313,1391.4844 669.6313,1390.2031 L669.6313,1389.0469 Q669.6313,1387.7188 670.2406,1386.5781 Q670.8656,1385.4219 671.9594,1384.8125 Q673.0531,1384.1875 674.2875,1384.1875 Q675.0219,1384.1875 675.6625,1384.3594 Q676.3188,1384.5156 676.8656,1384.875 Z " fill="#000000"/><text fill="#000000" font-family="sans-serif" font-size="12" lengthAdjust="spacing" textLength="33" x="690.9" y="1393.9102">Arrival</text><line style="stroke:#A80036;stroke-width:1.5;" x1="647.5" x2="738.5" y1="1405" y2="1405"/><text fill="#000000" font-family="sans-serif" font-size="11" lengthAdjust="spacing" textLength="81" x="652.5" y="1420.4189">-Date arrivalTime</text><line style="stroke:#A80036;stroke-width:1.5;" x1="647.5" x2="738.5" y1="1426.8359" y2="1426.8359"/><!--MD5=[02e4b9b7573f1156f41e60aa5b4e25a4]
class Company--><rect codeLine="15" fill="#FEFECE" filter="url(#f7qawz0008q0a)" height="75.6719" id="Company" style="stroke:#A80036;stroke-width:1.5;" width="102" x="503" y="225"/><ellipse cx="525.65" cy="241" fill="#ADD1B2" rx="11" ry="11" style="stroke:#A80036;stroke-width:1.0;"/><path d="M528.4156,236.875 Q528.5719,236.6563 528.7594,236.5469 Q528.9469,236.4375 529.1656,236.4375 Q529.5406,236.4375 529.775,236.7031 Q530.0094,236.9531 530.0094,237.5625 L530.0094,239.0156 Q530.0094,239.625 529.775,239.8906 Q529.5406,240.1563 529.1656,240.1563 Q528.8219,240.1563 528.6188,239.9531 Q528.4156,239.7656 528.3063,239.25 Q528.2594,238.8906 528.0719,238.7031 Q527.7438,238.3281 527.1344,238.1094 Q526.525,237.8906 525.9,237.8906 Q525.1344,237.8906 524.4938,238.2188 Q523.8688,238.5469 523.3688,239.2969 Q522.8844,240.0469 522.8844,241.0781 L522.8844,242.1719 Q522.8844,243.4063 523.775,244.2344 Q524.6656,245.0469 526.2594,245.0469 Q527.1969,245.0469 527.8531,244.7969 Q528.2438,244.6406 528.6656,244.2031 Q528.9313,243.9375 529.0719,243.8594 Q529.2281,243.7813 529.4313,243.7813 Q529.7594,243.7813 530.0094,244.0469 Q530.275,244.2969 530.275,244.6406 Q530.275,244.9844 529.9313,245.3906 Q529.4313,245.9688 528.6344,246.2969 Q527.5563,246.75 526.2594,246.75 Q524.7438,246.75 523.5406,246.125 Q522.5563,245.625 521.8688,244.5625 Q521.1813,243.4844 521.1813,242.2031 L521.1813,241.0469 Q521.1813,239.7188 521.7906,238.5781 Q522.4156,237.4219 523.5094,236.8125 Q524.6031,236.1875 525.8375,236.1875 Q526.5719,236.1875 527.2125,236.3594 Q527.8688,236.5156 528.4156,236.875 Z " fill="#000000"/><text fill="#000000" font-family="sans-serif" font-size="12" lengthAdjust="spacing" textLength="53" x="541.35" y="245.9102">Company</text><line style="stroke:#A80036;stroke-width:1.5;" x1="504" x2="604" y1="257" y2="257"/><text fill="#000000" font-family="sans-serif" font-size="11" lengthAdjust="spacing" textLength="90" x="509" y="272.4189">-String designation</text><line style="stroke:#A80036;stroke-width:1.5;" x1="504" x2="604" y1="278.8359" y2="278.8359"/><text fill="#000000" font-family="sans-serif" font-size="11" lengthAdjust="spacing" textLength="85" x="509" y="294.2549">+getDesignation()</text><!--MD5=[7421f545a0d8420c5bec41e74b387d9c]
class Employee--><rect codeLine="20" fill="#FEFECE" filter="url(#f7qawz0008q0a)" height="227.8672" id="Employee" style="stroke:#A80036;stroke-width:1.5;" width="390" x="7" y="379"/><ellipse cx="170.25" cy="395" fill="#ADD1B2" rx="11" ry="11" style="stroke:#A80036;stroke-width:1.0;"/><path d="M173.0156,390.875 Q173.1719,390.6563 173.3594,390.5469 Q173.5469,390.4375 173.7656,390.4375 Q174.1406,390.4375 174.375,390.7031 Q174.6094,390.9531 174.6094,391.5625 L174.6094,393.0156 Q174.6094,393.625 174.375,393.8906 Q174.1406,394.1563 173.7656,394.1563 Q173.4219,394.1563 173.2188,393.9531 Q173.0156,393.7656 172.9063,393.25 Q172.8594,392.8906 172.6719,392.7031 Q172.3438,392.3281 171.7344,392.1094 Q171.125,391.8906 170.5,391.8906 Q169.7344,391.8906 169.0938,392.2188 Q168.4688,392.5469 167.9688,393.2969 Q167.4844,394.0469 167.4844,395.0781 L167.4844,396.1719 Q167.4844,397.4063 168.375,398.2344 Q169.2656,399.0469 170.8594,399.0469 Q171.7969,399.0469 172.4531,398.7969 Q172.8438,398.6406 173.2656,398.2031 Q173.5313,397.9375 173.6719,397.8594 Q173.8281,397.7813 174.0313,397.7813 Q174.3594,397.7813 174.6094,398.0469 Q174.875,398.2969 174.875,398.6406 Q174.875,398.9844 174.5313,399.3906 Q174.0313,399.9688 173.2344,400.2969 Q172.1563,400.75 170.8594,400.75 Q169.3438,400.75 168.1406,400.125 Q167.1563,399.625 166.4688,398.5625 Q165.7813,397.4844 165.7813,396.2031 L165.7813,395.0469 Q165.7813,393.7188 166.3906,392.5781 Q167.0156,391.4219 168.1094,390.8125 Q169.2031,390.1875 170.4375,390.1875 Q171.1719,390.1875 171.8125,390.3594 Q172.4688,390.5156 173.0156,390.875 Z " fill="#000000"/><text fill="#000000" font-family="sans-serif" font-size="12" lengthAdjust="spacing" textLength="55" x="190.75" y="399.9102">Employee</text><line style="stroke:#A80036;stroke-width:1.5;" x1="8" x2="396" y1="411" y2="411"/><text fill="#000000" font-family="sans-serif" font-size="11" lengthAdjust="spacing" textLength="46" x="13" y="426.4189">-id: String</text><text fill="#000000" font-family="sans-serif" font-size="11" lengthAdjust="spacing" textLength="78" x="13" y="440.2549">-address: String</text><text fill="#000000" font-family="sans-serif" font-size="11" lengthAdjust="spacing" textLength="105" x="13" y="454.0908">-phoneNumber: String</text><text fill="#000000" font-family="sans-serif" font-size="11" lengthAdjust="spacing" textLength="129" x="13" y="467.9268">-citizenCardNumber: String</text><line style="stroke:#A80036;stroke-width:1.5;" x1="8" x2="396" y1="474.3438" y2="474.3438"/><text fill="#000000" font-family="sans-serif" font-size="11" lengthAdjust="spacing" textLength="378" x="13" y="489.7627">+Employee(id, name, address, phoneNumber, email, citizenCardNumber, roleId)</text><text fill="#000000" font-family="sans-serif" font-size="11" lengthAdjust="spacing" textLength="37" x="13" y="503.5986">+getId()</text><text fill="#000000" font-family="sans-serif" font-size="11" lengthAdjust="spacing" textLength="56" x="13" y="517.4346">+getName()</text><text fill="#000000" font-family="sans-serif" font-size="11" lengthAdjust="spacing" textLength="71" x="13" y="531.2705">+getAddress()</text><text fill="#000000" font-family="sans-serif" font-size="11" lengthAdjust="spacing" textLength="96" x="13" y="545.1064">+getPhoneNumber()</text><text fill="#000000" font-family="sans-serif" font-size="11" lengthAdjust="spacing" textLength="53" x="13" y="558.9424">+getEmail()</text><text fill="#000000" font-family="sans-serif" font-size="11" lengthAdjust="spacing" textLength="121" x="13" y="572.7783">+getCitizenCardNumber()</text><text fill="#000000" font-family="sans-serif" font-size="11" lengthAdjust="spacing" textLength="79" x="13" y="586.6143">+getPassword()</text><text fill="#000000" font-family="sans-serif" font-size="11" lengthAdjust="spacing" textLength="58" x="13" y="600.4502">+getRoleId()</text><!--MD5=[8824b6aaccc15e34c58b514197f6f874]
class RegisterSNSUserArrivalUI--><rect codeLine="36" fill="#FEFECE" filter="url(#f7qawz0008q0a)" height="48" id="RegisterSNSUserArrivalUI" style="stroke:#A80036;stroke-width:1.5;" width="176" x="466" y="7"/><ellipse cx="481" cy="23" fill="#ADD1B2" rx="11" ry="11" style="stroke:#A80036;stroke-width:1.0;"/><path d="M483.7656,18.875 Q483.9219,18.6563 484.1094,18.5469 Q484.2969,18.4375 484.5156,18.4375 Q484.8906,18.4375 485.125,18.7031 Q485.3594,18.9531 485.3594,19.5625 L485.3594,21.0156 Q485.3594,21.625 485.125,21.8906 Q484.8906,22.1563 484.5156,22.1563 Q484.1719,22.1563 483.9688,21.9531 Q483.7656,21.7656 483.6563,21.25 Q483.6094,20.8906 483.4219,20.7031 Q483.0938,20.3281 482.4844,20.1094 Q481.875,19.8906 481.25,19.8906 Q480.4844,19.8906 479.8438,20.2188 Q479.2188,20.5469 478.7188,21.2969 Q478.2344,22.0469 478.2344,23.0781 L478.2344,24.1719 Q478.2344,25.4063 479.125,26.2344 Q480.0156,27.0469 481.6094,27.0469 Q482.5469,27.0469 483.2031,26.7969 Q483.5938,26.6406 484.0156,26.2031 Q484.2813,25.9375 484.4219,25.8594 Q484.5781,25.7813 484.7813,25.7813 Q485.1094,25.7813 485.3594,26.0469 Q485.625,26.2969 485.625,26.6406 Q485.625,26.9844 485.2813,27.3906 Q484.7813,27.9688 483.9844,28.2969 Q482.9063,28.75 481.6094,28.75 Q480.0938,28.75 478.8906,28.125 Q477.9063,27.625 477.2188,26.5625 Q476.5313,25.4844 476.5313,24.2031 L476.5313,23.0469 Q476.5313,21.7188 477.1406,20.5781 Q477.7656,19.4219 478.8594,18.8125 Q479.9531,18.1875 481.1875,18.1875 Q481.9219,18.1875 482.5625,18.3594 Q483.2188,18.5156 483.7656,18.875 Z " fill="#000000"/><text fill="#000000" font-family="sans-serif" font-size="12" lengthAdjust="spacing" textLength="144" x="495" y="27.9102">RegisterSNSUserArrivalUI</text><line style="stroke:#A80036;stroke-width:1.5;" x1="467" x2="641" y1="39" y2="39"/><line style="stroke:#A80036;stroke-width:1.5;" x1="467" x2="641" y1="47" y2="47"/><!--MD5=[40e02fac8cc8accf59031f5c8e3a0fb4]
class RegisterSNSUserArrivalController--><rect codeLine="38" fill="#FEFECE" filter="url(#f7qawz0008q0a)" height="48" id="RegisterSNSUserArrivalController" style="stroke:#A80036;stroke-width:1.5;" width="218" x="445" y="116"/><ellipse cx="460" cy="132" fill="#ADD1B2" rx="11" ry="11" style="stroke:#A80036;stroke-width:1.0;"/><path d="M462.7656,127.875 Q462.9219,127.6563 463.1094,127.5469 Q463.2969,127.4375 463.5156,127.4375 Q463.8906,127.4375 464.125,127.7031 Q464.3594,127.9531 464.3594,128.5625 L464.3594,130.0156 Q464.3594,130.625 464.125,130.8906 Q463.8906,131.1563 463.5156,131.1563 Q463.1719,131.1563 462.9688,130.9531 Q462.7656,130.7656 462.6563,130.25 Q462.6094,129.8906 462.4219,129.7031 Q462.0938,129.3281 461.4844,129.1094 Q460.875,128.8906 460.25,128.8906 Q459.4844,128.8906 458.8438,129.2188 Q458.2188,129.5469 457.7188,130.2969 Q457.2344,131.0469 457.2344,132.0781 L457.2344,133.1719 Q457.2344,134.4063 458.125,135.2344 Q459.0156,136.0469 460.6094,136.0469 Q461.5469,136.0469 462.2031,135.7969 Q462.5938,135.6406 463.0156,135.2031 Q463.2813,134.9375 463.4219,134.8594 Q463.5781,134.7813 463.7813,134.7813 Q464.1094,134.7813 464.3594,135.0469 Q464.625,135.2969 464.625,135.6406 Q464.625,135.9844 464.2813,136.3906 Q463.7813,136.9688 462.9844,137.2969 Q461.9063,137.75 460.6094,137.75 Q459.0938,137.75 457.8906,137.125 Q456.9063,136.625 456.2188,135.5625 Q455.5313,134.4844 455.5313,133.2031 L455.5313,132.0469 Q455.5313,130.7188 456.1406,129.5781 Q456.7656,128.4219 457.8594,127.8125 Q458.9531,127.1875 460.1875,127.1875 Q460.9219,127.1875 461.5625,127.3594 Q462.2188,127.5156 462.7656,127.875 Z " fill="#000000"/><text fill="#000000" font-family="sans-serif" font-size="12" lengthAdjust="spacing" textLength="186" x="474" y="136.9102">RegisterSNSUserArrivalController</text><line style="stroke:#A80036;stroke-width:1.5;" x1="446" x2="662" y1="148" y2="148"/><line style="stroke:#A80036;stroke-width:1.5;" x1="446" x2="662" y1="156" y2="156"/><!--MD5=[72be06cc7ae02ccc98efe28a50e62246]
class SNSUser--><rect codeLine="40" fill="#FEFECE" filter="url(#f7qawz0008q0a)" height="144.8516" id="SNSUser" style="stroke:#A80036;stroke-width:1.5;" width="452" x="244" y="1106"/><ellipse cx="439.75" cy="1122" fill="#ADD1B2" rx="11" ry="11" style="stroke:#A80036;stroke-width:1.0;"/><path d="M442.5156,1117.875 Q442.6719,1117.6563 442.8594,1117.5469 Q443.0469,1117.4375 443.2656,1117.4375 Q443.6406,1117.4375 443.875,1117.7031 Q444.1094,1117.9531 444.1094,1118.5625 L444.1094,1120.0156 Q444.1094,1120.625 443.875,1120.8906 Q443.6406,1121.1563 443.2656,1121.1563 Q442.9219,1121.1563 442.7188,1120.9531 Q442.5156,1120.7656 442.4063,1120.25 Q442.3594,1119.8906 442.1719,1119.7031 Q441.8438,1119.3281 441.2344,1119.1094 Q440.625,1118.8906 440,1118.8906 Q439.2344,1118.8906 438.5938,1119.2188 Q437.9688,1119.5469 437.4688,1120.2969 Q436.9844,1121.0469 436.9844,1122.0781 L436.9844,1123.1719 Q436.9844,1124.4063 437.875,1125.2344 Q438.7656,1126.0469 440.3594,1126.0469 Q441.2969,1126.0469 441.9531,1125.7969 Q442.3438,1125.6406 442.7656,1125.2031 Q443.0313,1124.9375 443.1719,1124.8594 Q443.3281,1124.7813 443.5313,1124.7813 Q443.8594,1124.7813 444.1094,1125.0469 Q444.375,1125.2969 444.375,1125.6406 Q444.375,1125.9844 444.0313,1126.3906 Q443.5313,1126.9688 442.7344,1127.2969 Q441.6563,1127.75 440.3594,1127.75 Q438.8438,1127.75 437.6406,1127.125 Q436.6563,1126.625 435.9688,1125.5625 Q435.2813,1124.4844 435.2813,1123.2031 L435.2813,1122.0469 Q435.2813,1120.7188 435.8906,1119.5781 Q436.5156,1118.4219 437.6094,1117.8125 Q438.7031,1117.1875 439.9375,1117.1875 Q440.6719,1117.1875 441.3125,1117.3594 Q441.9688,1117.5156 442.5156,1117.875 Z " fill="#000000"/><text fill="#000000" font-family="sans-serif" font-size="12" lengthAdjust="spacing" textLength="52" x="460.25" y="1126.9102">SNSUser</text><line style="stroke:#A80036;stroke-width:1.5;" x1="245" x2="695" y1="1138" y2="1138"/><text fill="#000000" font-family="sans-serif" font-size="11" lengthAdjust="spacing" textLength="89" x="250" y="1153.4189">-String citizenCard</text><text fill="#000000" font-family="sans-serif" font-size="11" lengthAdjust="spacing" textLength="90" x="250" y="1167.2549">-String snsNumber</text><text fill="#000000" font-family="sans-serif" font-size="11" lengthAdjust="spacing" textLength="69" x="250" y="1181.0908">-Date birthDay</text><text fill="#000000" font-family="sans-serif" font-size="11" lengthAdjust="spacing" textLength="64" x="250" y="1194.9268">-Char gender</text><text fill="#000000" font-family="sans-serif" font-size="11" lengthAdjust="spacing" textLength="102" x="250" y="1208.7627">-String phoneNumber</text><text fill="#000000" font-family="sans-serif" font-size="11" lengthAdjust="spacing" textLength="75" x="250" y="1222.5986">-String address</text><line style="stroke:#A80036;stroke-width:1.5;" x1="245" x2="695" y1="1229.0156" y2="1229.0156"/><text fill="#000000" font-family="sans-serif" font-size="11" lengthAdjust="spacing" textLength="440" x="250" y="1244.4346">+SNSUser(citizenCard, snsNumber, name, birthDay, gender, phoneNumber, email, address)</text><!--MD5=[a5ad3856b0c65e07b10297b4477b22bb]
class SNSUserStore--><rect codeLine="50" fill="#FEFECE" filter="url(#f7qawz0008q0a)" height="61.8359" id="SNSUserStore" style="stroke:#A80036;stroke-width:1.5;" width="193" x="289.5" y="637"/><ellipse cx="341.25" cy="653" fill="#ADD1B2" rx="11" ry="11" style="stroke:#A80036;stroke-width:1.0;"/><path d="M344.0156,648.875 Q344.1719,648.6563 344.3594,648.5469 Q344.5469,648.4375 344.7656,648.4375 Q345.1406,648.4375 345.375,648.7031 Q345.6094,648.9531 345.6094,649.5625 L345.6094,651.0156 Q345.6094,651.625 345.375,651.8906 Q345.1406,652.1563 344.7656,652.1563 Q344.4219,652.1563 344.2188,651.9531 Q344.0156,651.7656 343.9063,651.25 Q343.8594,650.8906 343.6719,650.7031 Q343.3438,650.3281 342.7344,650.1094 Q342.125,649.8906 341.5,649.8906 Q340.7344,649.8906 340.0938,650.2188 Q339.4688,650.5469 338.9688,651.2969 Q338.4844,652.0469 338.4844,653.0781 L338.4844,654.1719 Q338.4844,655.4063 339.375,656.2344 Q340.2656,657.0469 341.8594,657.0469 Q342.7969,657.0469 343.4531,656.7969 Q343.8438,656.6406 344.2656,656.2031 Q344.5313,655.9375 344.6719,655.8594 Q344.8281,655.7813 345.0313,655.7813 Q345.3594,655.7813 345.6094,656.0469 Q345.875,656.2969 345.875,656.6406 Q345.875,656.9844 345.5313,657.3906 Q345.0313,657.9688 344.2344,658.2969 Q343.1563,658.75 341.8594,658.75 Q340.3438,658.75 339.1406,658.125 Q338.1563,657.625 337.4688,656.5625 Q336.7813,655.4844 336.7813,654.2031 L336.7813,653.0469 Q336.7813,651.7188 337.3906,650.5781 Q338.0156,649.4219 339.1094,648.8125 Q340.2031,648.1875 341.4375,648.1875 Q342.1719,648.1875 342.8125,648.3594 Q343.4688,648.5156 344.0156,648.875 Z " fill="#000000"/><text fill="#000000" font-family="sans-serif" font-size="12" lengthAdjust="spacing" textLength="81" x="361.75" y="657.9102">SNSUserStore</text><line style="stroke:#A80036;stroke-width:1.5;" x1="290.5" x2="481.5" y1="669" y2="669"/><line style="stroke:#A80036;stroke-width:1.5;" x1="290.5" x2="481.5" y1="677" y2="677"/><text fill="#000000" font-family="sans-serif" font-size="11" lengthAdjust="spacing" textLength="181" x="295.5" y="692.4189">+findSNSUserByNumber(snsNumber)</text><!--MD5=[03960189e81aa2c066c762ffabbee709]
class Receptionist--><rect codeLine="55" fill="#FEFECE" filter="url(#f7qawz0008q0a)" height="48" id="Receptionist" style="stroke:#A80036;stroke-width:1.5;" width="101" x="197.5" y="1288"/><ellipse cx="212.5" cy="1304" fill="#ADD1B2" rx="11" ry="11" style="stroke:#A80036;stroke-width:1.0;"/><path d="M215.2656,1299.875 Q215.4219,1299.6563 215.6094,1299.5469 Q215.7969,1299.4375 216.0156,1299.4375 Q216.3906,1299.4375 216.625,1299.7031 Q216.8594,1299.9531 216.8594,1300.5625 L216.8594,1302.0156 Q216.8594,1302.625 216.625,1302.8906 Q216.3906,1303.1563 216.0156,1303.1563 Q215.6719,1303.1563 215.4688,1302.9531 Q215.2656,1302.7656 215.1563,1302.25 Q215.1094,1301.8906 214.9219,1301.7031 Q214.5938,1301.3281 213.9844,1301.1094 Q213.375,1300.8906 212.75,1300.8906 Q211.9844,1300.8906 211.3438,1301.2188 Q210.7188,1301.5469 210.2188,1302.2969 Q209.7344,1303.0469 209.7344,1304.0781 L209.7344,1305.1719 Q209.7344,1306.4063 210.625,1307.2344 Q211.5156,1308.0469 213.1094,1308.0469 Q214.0469,1308.0469 214.7031,1307.7969 Q215.0938,1307.6406 215.5156,1307.2031 Q215.7813,1306.9375 215.9219,1306.8594 Q216.0781,1306.7813 216.2813,1306.7813 Q216.6094,1306.7813 216.8594,1307.0469 Q217.125,1307.2969 217.125,1307.6406 Q217.125,1307.9844 216.7813,1308.3906 Q216.2813,1308.9688 215.4844,1309.2969 Q214.4063,1309.75 213.1094,1309.75 Q211.5938,1309.75 210.3906,1309.125 Q209.4063,1308.625 208.7188,1307.5625 Q208.0313,1306.4844 208.0313,1305.2031 L208.0313,1304.0469 Q208.0313,1302.7188 208.6406,1301.5781 Q209.2656,1300.4219 210.3594,1299.8125 Q211.4531,1299.1875 212.6875,1299.1875 Q213.4219,1299.1875 214.0625,1299.3594 Q214.7188,1299.5156 215.2656,1299.875 Z " fill="#000000"/><text fill="#000000" font-family="sans-serif" font-size="12" lengthAdjust="spacing" textLength="69" x="226.5" y="1308.9102">Receptionist</text><line style="stroke:#A80036;stroke-width:1.5;" x1="198.5" x2="297.5" y1="1320" y2="1320"/><line style="stroke:#A80036;stroke-width:1.5;" x1="198.5" x2="297.5" y1="1328" y2="1328"/><!--MD5=[a88c56e1dc44d9d0e1fcd2eec4fd7e58]
class SMSSender--><rect codeLine="58" fill="#FEFECE" filter="url(#f7qawz0008q0a)" height="48" id="SMSSender" style="stroke:#A80036;stroke-width:1.5;" width="97" x="644.5" y="1653"/><ellipse cx="659.5" cy="1669" fill="#ADD1B2" rx="11" ry="11" style="stroke:#A80036;stroke-width:1.0;"/><path d="M662.2656,1664.875 Q662.4219,1664.6563 662.6094,1664.5469 Q662.7969,1664.4375 663.0156,1664.4375 Q663.3906,1664.4375 663.625,1664.7031 Q663.8594,1664.9531 663.8594,1665.5625 L663.8594,1667.0156 Q663.8594,1667.625 663.625,1667.8906 Q663.3906,1668.1563 663.0156,1668.1563 Q662.6719,1668.1563 662.4688,1667.9531 Q662.2656,1667.7656 662.1563,1667.25 Q662.1094,1666.8906 661.9219,1666.7031 Q661.5938,1666.3281 660.9844,1666.1094 Q660.375,1665.8906 659.75,1665.8906 Q658.9844,1665.8906 658.3438,1666.2188 Q657.7188,1666.5469 657.2188,1667.2969 Q656.7344,1668.0469 656.7344,1669.0781 L656.7344,1670.1719 Q656.7344,1671.4063 657.625,1672.2344 Q658.5156,1673.0469 660.1094,1673.0469 Q661.0469,1673.0469 661.7031,1672.7969 Q662.0938,1672.6406 662.5156,1672.2031 Q662.7813,1671.9375 662.9219,1671.8594 Q663.0781,1671.7813 663.2813,1671.7813 Q663.6094,1671.7813 663.8594,1672.0469 Q664.125,1672.2969 664.125,1672.6406 Q664.125,1672.9844 663.7813,1673.3906 Q663.2813,1673.9688 662.4844,1674.2969 Q661.4063,1674.75 660.1094,1674.75 Q658.5938,1674.75 657.3906,1674.125 Q656.4063,1673.625 655.7188,1672.5625 Q655.0313,1671.4844 655.0313,1670.2031 L655.0313,1669.0469 Q655.0313,1667.7188 655.6406,1666.5781 Q656.2656,1665.4219 657.3594,1664.8125 Q658.4531,1664.1875 659.6875,1664.1875 Q660.4219,1664.1875 661.0625,1664.3594 Q661.7188,1664.5156 662.2656,1664.875 Z " fill="#000000"/><text fill="#000000" font-family="sans-serif" font-size="12" lengthAdjust="spacing" textLength="65" x="673.5" y="1673.9102">SMSSender</text><line style="stroke:#A80036;stroke-width:1.5;" x1="645.5" x2="740.5" y1="1685" y2="1685"/><line style="stroke:#A80036;stroke-width:1.5;" x1="645.5" x2="740.5" y1="1693" y2="1693"/><!--MD5=[de60e6d4f424ae4d0522096f76a59010]
class VaccinationCenter--><rect codeLine="60" fill="#FEFECE" filter="url(#f7qawz0008q0a)" height="214.0313" id="VaccinationCenter" style="stroke:#A80036;stroke-width:1.5;" width="844" x="373" y="729"/><ellipse cx="740.75" cy="745" fill="#ADD1B2" rx="11" ry="11" style="stroke:#A80036;stroke-width:1.0;"/><path d="M743.5156,740.875 Q743.6719,740.6563 743.8594,740.5469 Q744.0469,740.4375 744.2656,740.4375 Q744.6406,740.4375 744.875,740.7031 Q745.1094,740.9531 745.1094,741.5625 L745.1094,743.0156 Q745.1094,743.625 744.875,743.8906 Q744.6406,744.1563 744.2656,744.1563 Q743.9219,744.1563 743.7188,743.9531 Q743.5156,743.7656 743.4063,743.25 Q743.3594,742.8906 743.1719,742.7031 Q742.8438,742.3281 742.2344,742.1094 Q741.625,741.8906 741,741.8906 Q740.2344,741.8906 739.5938,742.2188 Q738.9688,742.5469 738.4688,743.2969 Q737.9844,744.0469 737.9844,745.0781 L737.9844,746.1719 Q737.9844,747.4063 738.875,748.2344 Q739.7656,749.0469 741.3594,749.0469 Q742.2969,749.0469 742.9531,748.7969 Q743.3438,748.6406 743.7656,748.2031 Q744.0313,747.9375 744.1719,747.8594 Q744.3281,747.7813 744.5313,747.7813 Q744.8594,747.7813 745.1094,748.0469 Q745.375,748.2969 745.375,748.6406 Q745.375,748.9844 745.0313,749.3906 Q744.5313,749.9688 743.7344,750.2969 Q742.6563,750.75 741.3594,750.75 Q739.8438,750.75 738.6406,750.125 Q737.6563,749.625 736.9688,748.5625 Q736.2813,747.4844 736.2813,746.2031 L736.2813,745.0469 Q736.2813,743.7188 736.8906,742.5781 Q737.5156,741.4219 738.6094,740.8125 Q739.7031,740.1875 740.9375,740.1875 Q741.6719,740.1875 742.3125,740.3594 Q742.9688,740.5156 743.5156,740.875 Z " fill="#000000"/><text fill="#000000" font-family="sans-serif" font-size="12" lengthAdjust="spacing" textLength="100" x="761.25" y="749.9102">VaccinationCenter</text><line style="stroke:#A80036;stroke-width:1.5;" x1="374" x2="1216" y1="761" y2="761"/><text fill="#000000" font-family="sans-serif" font-size="11" lengthAdjust="spacing" textLength="64" x="379" y="776.4189">-name: String</text><text fill="#000000" font-family="sans-serif" font-size="11" lengthAdjust="spacing" textLength="78" x="379" y="790.2549">-address: String</text><text fill="#000000" font-family="sans-serif" font-size="11" lengthAdjust="spacing" textLength="104" x="379" y="804.0908">-emailAddress: String</text><text fill="#000000" font-family="sans-serif" font-size="11" lengthAdjust="spacing" textLength="105" x="379" y="817.9268">-phoneNumber: String</text><text fill="#000000" font-family="sans-serif" font-size="11" lengthAdjust="spacing" textLength="91" x="379" y="831.7627">-faxNumber: String</text><text fill="#000000" font-family="sans-serif" font-size="11" lengthAdjust="spacing" textLength="119" x="379" y="845.5986">-websiteAddress: String</text><text fill="#000000" font-family="sans-serif" font-size="11" lengthAdjust="spacing" textLength="105" x="379" y="859.4346">-openingHours: String</text><text fill="#000000" font-family="sans-serif" font-size="11" lengthAdjust="spacing" textLength="101" x="379" y="873.2705">-closingHours: String</text><text fill="#000000" font-family="sans-serif" font-size="11" lengthAdjust="spacing" textLength="78" x="379" y="887.1064">-slotDuration: int</text><text fill="#000000" font-family="sans-serif" font-size="11" lengthAdjust="spacing" textLength="145" x="379" y="900.9424">-maximumVaccinesPerSlot: int</text><text fill="#000000" font-family="sans-serif" font-size="11" lengthAdjust="spacing" textLength="119" x="379" y="914.7783">-coordinator: EMPLOYEE</text><line style="stroke:#A80036;stroke-width:1.0;" x1="374" x2="1216" y1="921.1953" y2="921.1953"/><text fill="#000000" font-family="sans-serif" font-size="11" lengthAdjust="spacing" textLength="832" x="379" y="936.6143">+VaccinationCenter(name,address,emailAddress,phoneNumber,faxNumber,websiteAddress,openingHours,closingHours,slotDuration,maximumVaccinesPerSlot,coordinator)</text><!--MD5=[a29876ea2f21a6ca48ea477740122fd8]
class VaccinationCenterStore--><rect codeLine="76" fill="#FEFECE" filter="url(#f7qawz0008q0a)" height="117.1797" id="VaccinationCenterStore" style="stroke:#A80036;stroke-width:1.5;" width="260" x="568" y="434.5"/><ellipse cx="629.25" cy="450.5" fill="#ADD1B2" rx="11" ry="11" style="stroke:#A80036;stroke-width:1.0;"/><path d="M632.0156,446.375 Q632.1719,446.1563 632.3594,446.0469 Q632.5469,445.9375 632.7656,445.9375 Q633.1406,445.9375 633.375,446.2031 Q633.6094,446.4531 633.6094,447.0625 L633.6094,448.5156 Q633.6094,449.125 633.375,449.3906 Q633.1406,449.6563 632.7656,449.6563 Q632.4219,449.6563 632.2188,449.4531 Q632.0156,449.2656 631.9063,448.75 Q631.8594,448.3906 631.6719,448.2031 Q631.3438,447.8281 630.7344,447.6094 Q630.125,447.3906 629.5,447.3906 Q628.7344,447.3906 628.0938,447.7188 Q627.4688,448.0469 626.9688,448.7969 Q626.4844,449.5469 626.4844,450.5781 L626.4844,451.6719 Q626.4844,452.9063 627.375,453.7344 Q628.2656,454.5469 629.8594,454.5469 Q630.7969,454.5469 631.4531,454.2969 Q631.8438,454.1406 632.2656,453.7031 Q632.5313,453.4375 632.6719,453.3594 Q632.8281,453.2813 633.0313,453.2813 Q633.3594,453.2813 633.6094,453.5469 Q633.875,453.7969 633.875,454.1406 Q633.875,454.4844 633.5313,454.8906 Q633.0313,455.4688 632.2344,455.7969 Q631.1563,456.25 629.8594,456.25 Q628.3438,456.25 627.1406,455.625 Q626.1563,455.125 625.4688,454.0625 Q624.7813,452.9844 624.7813,451.7031 L624.7813,450.5469 Q624.7813,449.2188 625.3906,448.0781 Q626.0156,446.9219 627.1094,446.3125 Q628.2031,445.6875 629.4375,445.6875 Q630.1719,445.6875 630.8125,445.8594 Q631.4688,446.0156 632.0156,446.375 Z " fill="#000000"/><text fill="#000000" font-family="sans-serif" font-size="12" lengthAdjust="spacing" textLength="129" x="649.75" y="455.4102">VaccinationCenterStore</text><line style="stroke:#A80036;stroke-width:1.5;" x1="569" x2="827" y1="466.5" y2="466.5"/><line style="stroke:#A80036;stroke-width:1.0;" x1="569" x2="827" y1="474.5" y2="474.5"/><text fill="#000000" font-family="sans-serif" font-size="11" lengthAdjust="spacing" textLength="248" x="574" y="489.9189">+createVaccinationCenter(centerData, coordinator)</text><text fill="#000000" font-family="sans-serif" font-size="11" lengthAdjust="spacing" textLength="169" x="574" y="503.7549">+validateVaccinatonCenter(center)</text><text fill="#000000" font-family="sans-serif" font-size="11" lengthAdjust="spacing" textLength="158" x="574" y="517.5908">+saveVaccinationCenter(center)</text><text fill="#000000" font-family="sans-serif" font-size="11" lengthAdjust="spacing" textLength="124" x="574" y="531.4268">+checkDuplicates(center)</text><text fill="#000000" font-family="sans-serif" font-size="11" lengthAdjust="spacing" textLength="152" x="574" y="545.2627">+addVaccinationCenter(center)</text><!--MD5=[0e501da62322464167c8ec4d233a6b7e]
class VaccineType--><rect codeLine="85" fill="#FEFECE" filter="url(#f7qawz0008q0a)" height="103.3438" id="VaccineType" style="stroke:#A80036;stroke-width:1.5;" width="232" x="1044" y="973"/><ellipse cx="1121.25" cy="989" fill="#ADD1B2" rx="11" ry="11" style="stroke:#A80036;stroke-width:1.0;"/><path d="M1124.0156,984.875 Q1124.1719,984.6563 1124.3594,984.5469 Q1124.5469,984.4375 1124.7656,984.4375 Q1125.1406,984.4375 1125.375,984.7031 Q1125.6094,984.9531 1125.6094,985.5625 L1125.6094,987.0156 Q1125.6094,987.625 1125.375,987.8906 Q1125.1406,988.1563 1124.7656,988.1563 Q1124.4219,988.1563 1124.2188,987.9531 Q1124.0156,987.7656 1123.9063,987.25 Q1123.8594,986.8906 1123.6719,986.7031 Q1123.3438,986.3281 1122.7344,986.1094 Q1122.125,985.8906 1121.5,985.8906 Q1120.7344,985.8906 1120.0938,986.2188 Q1119.4688,986.5469 1118.9688,987.2969 Q1118.4844,988.0469 1118.4844,989.0781 L1118.4844,990.1719 Q1118.4844,991.4063 1119.375,992.2344 Q1120.2656,993.0469 1121.8594,993.0469 Q1122.7969,993.0469 1123.4531,992.7969 Q1123.8438,992.6406 1124.2656,992.2031 Q1124.5313,991.9375 1124.6719,991.8594 Q1124.8281,991.7813 1125.0313,991.7813 Q1125.3594,991.7813 1125.6094,992.0469 Q1125.875,992.2969 1125.875,992.6406 Q1125.875,992.9844 1125.5313,993.3906 Q1125.0313,993.9688 1124.2344,994.2969 Q1123.1563,994.75 1121.8594,994.75 Q1120.3438,994.75 1119.1406,994.125 Q1118.1563,993.625 1117.4688,992.5625 Q1116.7813,991.4844 1116.7813,990.2031 L1116.7813,989.0469 Q1116.7813,987.7188 1117.3906,986.5781 Q1118.0156,985.4219 1119.1094,984.8125 Q1120.2031,984.1875 1121.4375,984.1875 Q1122.1719,984.1875 1122.8125,984.3594 Q1123.4688,984.5156 1124.0156,984.875 Z " fill="#000000"/><text fill="#000000" font-family="sans-serif" font-size="12" lengthAdjust="spacing" textLength="69" x="1141.75" y="993.9102">VaccineType</text><line style="stroke:#A80036;stroke-width:1.5;" x1="1045" x2="1275" y1="1005" y2="1005"/><text fill="#000000" font-family="sans-serif" font-size="11" lengthAdjust="spacing" textLength="62" x="1050" y="1020.4189">-code: String</text><text fill="#000000" font-family="sans-serif" font-size="11" lengthAdjust="spacing" textLength="94" x="1050" y="1034.2549">-description : String</text><text fill="#000000" font-family="sans-serif" font-size="11" lengthAdjust="spacing" textLength="94" x="1050" y="1048.0908">-technology : String</text><line style="stroke:#A80036;stroke-width:1.0;" x1="1045" x2="1275" y1="1054.5078" y2="1054.5078"/><text fill="#000000" font-family="sans-serif" font-size="11" lengthAdjust="spacing" textLength="220" x="1050" y="1069.9268">+VaccineType(code, description, technology)</text><!--MD5=[9532c95099058dfe385d7270fd32fc0d]
class VaccineTypeStore--><rect codeLine="93" fill="#FEFECE" filter="url(#f7qawz0008q0a)" height="89.5078" id="VaccineTypeStore" style="stroke:#A80036;stroke-width:1.5;" width="141" x="1043.5" y="448"/><ellipse cx="1063.45" cy="464" fill="#ADD1B2" rx="11" ry="11" style="stroke:#A80036;stroke-width:1.0;"/><path d="M1066.2156,459.875 Q1066.3719,459.6563 1066.5594,459.5469 Q1066.7469,459.4375 1066.9656,459.4375 Q1067.3406,459.4375 1067.575,459.7031 Q1067.8094,459.9531 1067.8094,460.5625 L1067.8094,462.0156 Q1067.8094,462.625 1067.575,462.8906 Q1067.3406,463.1563 1066.9656,463.1563 Q1066.6219,463.1563 1066.4188,462.9531 Q1066.2156,462.7656 1066.1063,462.25 Q1066.0594,461.8906 1065.8719,461.7031 Q1065.5438,461.3281 1064.9344,461.1094 Q1064.325,460.8906 1063.7,460.8906 Q1062.9344,460.8906 1062.2938,461.2188 Q1061.6688,461.5469 1061.1688,462.2969 Q1060.6844,463.0469 1060.6844,464.0781 L1060.6844,465.1719 Q1060.6844,466.4063 1061.575,467.2344 Q1062.4656,468.0469 1064.0594,468.0469 Q1064.9969,468.0469 1065.6531,467.7969 Q1066.0438,467.6406 1066.4656,467.2031 Q1066.7313,466.9375 1066.8719,466.8594 Q1067.0281,466.7813 1067.2313,466.7813 Q1067.5594,466.7813 1067.8094,467.0469 Q1068.075,467.2969 1068.075,467.6406 Q1068.075,467.9844 1067.7313,468.3906 Q1067.2313,468.9688 1066.4344,469.2969 Q1065.3563,469.75 1064.0594,469.75 Q1062.5438,469.75 1061.3406,469.125 Q1060.3563,468.625 1059.6688,467.5625 Q1058.9813,466.4844 1058.9813,465.2031 L1058.9813,464.0469 Q1058.9813,462.7188 1059.5906,461.5781 Q1060.2156,460.4219 1061.3094,459.8125 Q1062.4031,459.1875 1063.6375,459.1875 Q1064.3719,459.1875 1065.0125,459.3594 Q1065.6688,459.5156 1066.2156,459.875 Z " fill="#000000"/><text fill="#000000" font-family="sans-serif" font-size="12" lengthAdjust="spacing" textLength="98" x="1078.55" y="468.9102">VaccineTypeStore</text><line style="stroke:#A80036;stroke-width:1.5;" x1="1044.5" x2="1183.5" y1="480" y2="480"/><line style="stroke:#A80036;stroke-width:1.5;" x1="1044.5" x2="1183.5" y1="488" y2="488"/><text fill="#000000" font-family="sans-serif" font-size="11" lengthAdjust="spacing" textLength="129" x="1049.5" y="503.4189">-getVaccineTypeByCode()</text><text fill="#000000" font-family="sans-serif" font-size="11" lengthAdjust="spacing" textLength="94" x="1049.5" y="517.2549">-addVaccineType()</text><text fill="#000000" font-family="sans-serif" font-size="11" lengthAdjust="spacing" textLength="100" x="1049.5" y="531.0908">-saveVaccineType()</text><!--MD5=[7b3e8f70d80133538393dc99d446cc4d]
class WaitingRoomList--><rect codeLine="99" fill="#FEFECE" filter="url(#f7qawz0008q0a)" height="48" id="WaitingRoomList" style="stroke:#A80036;stroke-width:1.5;" width="127" x="731.5" y="1154.5"/><ellipse cx="746.5" cy="1170.5" fill="#ADD1B2" rx="11" ry="11" style="stroke:#A80036;stroke-width:1.0;"/><path d="M749.2656,1166.375 Q749.4219,1166.1563 749.6094,1166.0469 Q749.7969,1165.9375 750.0156,1165.9375 Q750.3906,1165.9375 750.625,1166.2031 Q750.8594,1166.4531 750.8594,1167.0625 L750.8594,1168.5156 Q750.8594,1169.125 750.625,1169.3906 Q750.3906,1169.6563 750.0156,1169.6563 Q749.6719,1169.6563 749.4688,1169.4531 Q749.2656,1169.2656 749.1563,1168.75 Q749.1094,1168.3906 748.9219,1168.2031 Q748.5938,1167.8281 747.9844,1167.6094 Q747.375,1167.3906 746.75,1167.3906 Q745.9844,1167.3906 745.3438,1167.7188 Q744.7188,1168.0469 744.2188,1168.7969 Q743.7344,1169.5469 743.7344,1170.5781 L743.7344,1171.6719 Q743.7344,1172.9063 744.625,1173.7344 Q745.5156,1174.5469 747.1094,1174.5469 Q748.0469,1174.5469 748.7031,1174.2969 Q749.0938,1174.1406 749.5156,1173.7031 Q749.7813,1173.4375 749.9219,1173.3594 Q750.0781,1173.2813 750.2813,1173.2813 Q750.6094,1173.2813 750.8594,1173.5469 Q751.125,1173.7969 751.125,1174.1406 Q751.125,1174.4844 750.7813,1174.8906 Q750.2813,1175.4688 749.4844,1175.7969 Q748.4063,1176.25 747.1094,1176.25 Q745.5938,1176.25 744.3906,1175.625 Q743.4063,1175.125 742.7188,1174.0625 Q742.0313,1172.9844 742.0313,1171.7031 L742.0313,1170.5469 Q742.0313,1169.2188 742.6406,1168.0781 Q743.2656,1166.9219 744.3594,1166.3125 Q745.4531,1165.6875 746.6875,1165.6875 Q747.4219,1165.6875 748.0625,1165.8594 Q748.7188,1166.0156 749.2656,1166.375 Z " fill="#000000"/><text fill="#000000" font-family="sans-serif" font-size="12" lengthAdjust="spacing" textLength="95" x="760.5" y="1175.4102">WaitingRoomList</text><line style="stroke:#A80036;stroke-width:1.5;" x1="732.5" x2="857.5" y1="1186.5" y2="1186.5"/><line style="stroke:#A80036;stroke-width:1.5;" x1="732.5" x2="857.5" y1="1194.5" y2="1194.5"/><!--MD5=[8f7d5f20baa4a3ca4f3a05061f7ec7bc]
link Appointment to SMSSender--><path codeLine="102" d="M693,1575.05 C693,1596.78 693,1625.95 693,1647.35 " fill="none" id="Appointment-to-SMSSender" style="stroke:#A80036;stroke-width:1.0;"/><polygon fill="#A80036" points="693,1652.61,697,1643.61,693,1647.61,689,1643.61,693,1652.61" style="stroke:#A80036;stroke-width:1.0;"/><text fill="#000000" font-family="sans-serif" font-size="13" lengthAdjust="spacing" textLength="43" x="694" y="1619.4951">triggers</text><text fill="#000000" font-family="sans-serif" font-size="13" lengthAdjust="spacing" textLength="7" x="685.3109" y="1596.2838">1</text><text fill="#000000" font-family="sans-serif" font-size="13" lengthAdjust="spacing" textLength="22" x="668.3188" y="1642.2529">0..1</text><!--MD5=[7e4d1c1f89ef7b23edc77e66714a226e]
link AppointmentStore to Appointment--><path codeLine="104" d="M858.16,1343.07 C822.81,1385.86 758.19,1464.09 721.12,1508.95 " fill="none" id="AppointmentStore-to-Appointment" style="stroke:#A80036;stroke-width:1.0;"/><polygon fill="#A80036" points="717.85,1512.92,726.6654,1508.528,721.034,1509.0649,720.4972,1503.4336,717.85,1512.92" style="stroke:#A80036;stroke-width:1.0;"/><text fill="#000000" font-family="sans-serif" font-size="13" lengthAdjust="spacing" textLength="36" x="832" y="1409.4951">stores</text><text fill="#000000" font-family="sans-serif" font-size="13" lengthAdjust="spacing" textLength="7" x="845.5806" y="1364.3078">1</text><text fill="#000000" font-family="sans-serif" font-size="13" lengthAdjust="spacing" textLength="5" x="717.7391" y="1501.9228">*</text><!--MD5=[cdda88bd94d57e06d95e6dd6ce9ee716]
link Arrival to Appointment--><path codeLine="106" d="M693,1435.28 C693,1456.59 693,1485.17 693,1507.53 " fill="none" id="Arrival-to-Appointment" style="stroke:#A80036;stroke-width:1.0;"/><polygon fill="#A80036" points="693,1512.79,697,1503.79,693,1507.79,689,1503.79,693,1512.79" style="stroke:#A80036;stroke-width:1.0;"/><text fill="#000000" font-family="sans-serif" font-size="13" lengthAdjust="spacing" textLength="21" x="694" y="1479.4951">has</text><text fill="#000000" font-family="sans-serif" font-size="13" lengthAdjust="spacing" textLength="7" x="685.3328" y="1456.312">1</text><text fill="#000000" font-family="sans-serif" font-size="13" lengthAdjust="spacing" textLength="7" x="685.2781" y="1502.2512">1</text><!--MD5=[1bd9080c7e199931e49bc5a1616681ac]
link Company to SNSUserStore--><path codeLine="108" d="M539.57,301.05 C514.81,364.22 462.24,496.65 414,607 C410.39,615.27 406.36,624.1 402.51,632.38 " fill="none" id="Company-to-SNSUserStore" style="stroke:#A80036;stroke-width:1.0;stroke-dasharray:7.0,7.0;"/><polygon fill="#A80036" points="400.39,636.92,407.8385,630.4764,402.5169,632.3949,400.5984,627.0733,400.39,636.92" style="stroke:#A80036;stroke-width:1.0;"/><!--MD5=[bc0d5b4bfe6e1bf0a8fced13bc4bdd47]
link Company to VaccinationCenterStore--><path codeLine="109" d="M577.46,301.14 C599.45,335.96 632.75,388.69 658.78,429.9 " fill="none" id="Company-to-VaccinationCenterStore" style="stroke:#A80036;stroke-width:1.0;stroke-dasharray:7.0,7.0;"/><polygon fill="#A80036" points="661.6,434.36,660.1748,424.6148,658.9295,430.1329,653.4114,428.8876,661.6,434.36" style="stroke:#A80036;stroke-width:1.0;"/><!--MD5=[26b80dd60d3305f854b992ec0b603e2d]
link Company to VaccineTypeStore--><path codeLine="110" d="M605.05,283.68 C663.45,306.29 761.87,344.7 846,379 C911.25,405.6 984.99,436.77 1038.58,459.63 " fill="none" id="Company-to-VaccineTypeStore" style="stroke:#A80036;stroke-width:1.0;stroke-dasharray:7.0,7.0;"/><polygon fill="#A80036" points="1043.38,461.68,1036.6644,454.4758,1038.7791,459.7225,1033.5324,461.8372,1043.38,461.68" style="stroke:#A80036;stroke-width:1.0;"/><!--MD5=[09366576ee87d48d594df10cacc83f45]
link Company to Employee--><path codeLine="111" d="M502.88,289.26 C479.64,301.23 452.02,316.14 428,331 C405.44,344.95 382.12,360.36 359.42,375.94 " fill="none" id="Company-to-Employee" style="stroke:#A80036;stroke-width:1.0;"/><polygon fill="#A80036" points="355.19,378.85,364.8725,377.0474,359.3102,376.0174,360.3403,370.4551,355.19,378.85" style="stroke:#A80036;stroke-width:1.0;"/><text fill="#000000" font-family="sans-serif" font-size="13" lengthAdjust="spacing" textLength="37" x="429" y="345.4951">knows</text><text fill="#000000" font-family="sans-serif" font-size="13" lengthAdjust="spacing" textLength="7" x="487.8577" y="289.487">1</text><text fill="#000000" font-family="sans-serif" font-size="13" lengthAdjust="spacing" textLength="5" x="360.3145" y="368.1544">*</text><!--MD5=[bfff716514ca687b645fe473c6e098a4]
reverse link Employee to Receptionist--><path codeLine="113" d="M193.49,627.49 C186.71,779.85 184.26,1035.8 226,1251 C228.43,1263.53 233.12,1276.91 237.54,1287.84 " fill="none" id="Employee-backto-Receptionist" style="stroke:#A80036;stroke-width:1.0;"/><polygon fill="none" points="186.52,626.8,194.45,607.15,200.5,627.46,186.52,626.8" style="stroke:#A80036;stroke-width:1.0;"/><!--MD5=[d205afa640eb10e9aa5da67d61820494]
link Receptionist to Appointment--><path codeLine="115" d="M269.89,1336.29 C305.72,1373.01 380.66,1444.17 458,1483 C515.48,1511.86 588.04,1527.64 637.21,1535.68 " fill="none" id="Receptionist-to-Appointment" style="stroke:#A80036;stroke-width:1.0;"/><polygon fill="#A80036" points="642.19,1536.48,633.9296,1531.1167,637.252,1535.6951,632.6736,1539.0175,642.19,1536.48" style="stroke:#A80036;stroke-width:1.0;"/><text fill="#000000" font-family="sans-serif" font-size="13" lengthAdjust="spacing" textLength="54" x="379" y="1409.4951">related to</text><text fill="#000000" font-family="sans-serif" font-size="13" lengthAdjust="spacing" textLength="7" x="267.1427" y="1357.2928">1</text><text fill="#000000" font-family="sans-serif" font-size="13" lengthAdjust="spacing" textLength="5" x="629.3601" y="1531.7335">*</text><!--MD5=[73b4379c7f692e73188840e6b6f2b1ce]
link RegisterSNSUserArrivalController to Company--><path codeLine="117" d="M554,164.04 C554,179.71 554,200.91 554,219.58 " fill="none" id="RegisterSNSUserArrivalController-to-Company" style="stroke:#A80036;stroke-width:1.0;stroke-dasharray:7.0,7.0;"/><polygon fill="#A80036" points="554,224.77,558,215.77,554,219.77,550,215.77,554,224.77" style="stroke:#A80036;stroke-width:1.0;"/><!--MD5=[27947440cc9afdf8522ce84f95d7987e]
link RegisterSNSUserArrivalUI to RegisterSNSUserArrivalController--><path codeLine="119" d="M554,55.22 C554,71.48 554,93.32 554,110.62 " fill="none" id="RegisterSNSUserArrivalUI-to-RegisterSNSUserArrivalController" style="stroke:#A80036;stroke-width:1.0;stroke-dasharray:7.0,7.0;"/><polygon fill="#A80036" points="554,115.83,558,106.83,554,110.83,550,106.83,554,115.83" style="stroke:#A80036;stroke-width:1.0;"/><!--MD5=[7237f06c0b74e3dd035481e962d83e87]
link SNSUser to Arrival--><path codeLine="121" d="M541.48,1251.14 C578.49,1288.24 622.29,1332.14 653.26,1363.17 " fill="none" id="SNSUser-to-Arrival" style="stroke:#A80036;stroke-width:1.0;"/><polygon fill="#FFFFFF" points="662.84,1372.77,661.4313,1365.6978,654.3613,1364.2781,655.77,1371.3503,662.84,1372.77" style="stroke:#A80036;stroke-width:1.0;"/><!--MD5=[3f8bc51bb69ce45c3e3ea0b764df71f1]
link SNSUser to Appointment--><path codeLine="122" d="M512.08,1251.38 C528.98,1279.99 548.75,1313.15 567,1343 C600.78,1398.25 640.79,1461.37 666.51,1501.68 " fill="none" id="SNSUser-to-Appointment" style="stroke:#A80036;stroke-width:1.0;"/><polygon fill="#FFFFFF" points="673.53,1512.66,673.6706,1505.4503,667.0696,1502.5475,666.929,1509.7572,673.53,1512.66" style="stroke:#A80036;stroke-width:1.0;"/><!--MD5=[b01d27099955aced792f1ce85db49798]
link SNSUserStore to SNSUser--><path codeLine="124" d="M340.11,699.02 C330.76,707.51 322.2,717.59 317,729 C277.56,815.55 289.89,851.83 317,943 C334.28,1001.12 371.04,1058.27 404.2,1101.6 " fill="none" id="SNSUserStore-to-SNSUser" style="stroke:#A80036;stroke-width:1.0;"/><polygon fill="#A80036" points="407.4,1105.75,405.0848,1096.1771,404.3521,1101.7863,398.7429,1101.0537,407.4,1105.75" style="stroke:#A80036;stroke-width:1.0;"/><text fill="#000000" font-family="sans-serif" font-size="13" lengthAdjust="spacing" textLength="36" x="318" y="841.4951">stores</text><text fill="#000000" font-family="sans-serif" font-size="13" lengthAdjust="spacing" textLength="7" x="323.3863" y="720.2479">1</text><text fill="#000000" font-family="sans-serif" font-size="13" lengthAdjust="spacing" textLength="5" x="395.6866" y="1094.9436">*</text><!--MD5=[f5c720869033dc22d8f3d12ae1524a9f]
link VaccinationCenter to WaitingRoomList--><path codeLine="126" d="M795,943.34 C795,1014.96 795,1104.25 795,1149.05 " fill="none" id="VaccinationCenter-to-WaitingRoomList" style="stroke:#A80036;stroke-width:1.0;stroke-dasharray:7.0,7.0;"/><polygon fill="#A80036" points="795,1154.29,799,1145.29,795,1149.29,791,1145.29,795,1154.29" style="stroke:#A80036;stroke-width:1.0;"/><!--MD5=[dcb9d0d4d922990057568a1038e0a0af]
link VaccinationCenter to AppointmentStore--><path codeLine="127" d="M833.88,943.16 C849.98,992.06 866.98,1051.26 876,1106 C885.72,1164.97 885.7,1234.72 884.54,1275.78 " fill="none" id="VaccinationCenter-to-AppointmentStore" style="stroke:#A80036;stroke-width:1.0;stroke-dasharray:7.0,7.0;"/><polygon fill="#A80036" points="884.38,1280.89,888.6615,1272.0205,884.5375,1275.8925,880.6655,1271.7685,884.38,1280.89" style="stroke:#A80036;stroke-width:1.0;"/><!--MD5=[8c304936b446fd8cea914e03fbadd4b7]
link VaccinationCenterStore to VaccinationCenter--><path codeLine="129" d="M714.45,551.85 C727.83,598.88 747.1,666.62 763.44,724.06 " fill="none" id="VaccinationCenterStore-to-VaccinationCenter" style="stroke:#A80036;stroke-width:1.0;"/><polygon fill="#A80036" points="764.81,728.87,766.218,719.1223,763.4534,724.0576,758.5181,721.2929,764.81,728.87" style="stroke:#A80036;stroke-width:1.0;"/><text fill="#000000" font-family="sans-serif" font-size="13" lengthAdjust="spacing" textLength="36" x="756" y="673.4951">stores</text><text fill="#000000" font-family="sans-serif" font-size="13" lengthAdjust="spacing" textLength="7" x="708.9473" y="573.0846">1</text><text fill="#000000" font-family="sans-serif" font-size="13" lengthAdjust="spacing" textLength="5" x="757.5115" y="718.2813">*</text><!--MD5=[dcfb289409acccd9ab6e282e910f81b1]
link VaccineType to Appointment--><path codeLine="131" d="M1141.56,1076.21 C1115.81,1142.42 1064.33,1259.67 995,1343 C928.84,1422.53 822.99,1482.44 755.79,1515.1 " fill="none" id="VaccineType-to-Appointment" style="stroke:#A80036;stroke-width:1.0;"/><polygon fill="#FFFFFF" points="743.71,1520.88,750.848,1521.9044,754.539,1515.7095,747.401,1514.6851,743.71,1520.88" style="stroke:#A80036;stroke-width:1.0;"/><!--MD5=[d008df8d9f8e445f2ab98a1ffd9c1902]
link VaccineTypeStore to VaccineType--><path codeLine="133" d="M1144.99,538.25 C1174.77,583.69 1217.71,657.64 1235,729 C1257.4,821.44 1269.84,854.5 1235,943 C1231.46,952 1226.38,960.59 1220.52,968.57 " fill="none" id="VaccineTypeStore-to-VaccineType" style="stroke:#A80036;stroke-width:1.0;"/><polygon fill="#A80036" points="1217.19,972.95,1225.8282,968.219,1220.2219,968.9742,1219.4668,963.3679,1217.19,972.95" style="stroke:#A80036;stroke-width:1.0;"/><text fill="#000000" font-family="sans-serif" font-size="13" lengthAdjust="spacing" textLength="36" x="1225" y="673.4951">stores</text><text fill="#000000" font-family="sans-serif" font-size="13" lengthAdjust="spacing" textLength="7" x="1141.684" y="558.9573">1</text><text fill="#000000" font-family="sans-serif" font-size="13" lengthAdjust="spacing" textLength="5" x="1219.8808" y="962.0714">*</text><!--MD5=[4f898a9e1e1ea6486c9b22ccfa204bc8]
link WaitingRoomList to Arrival--><path codeLine="135" d="M784.11,1202.85 C774.54,1223.4 760.27,1254.15 748,1281 C734.6,1310.32 719.57,1343.7 708.61,1368.12 " fill="none" id="WaitingRoomList-to-Arrival" style="stroke:#A80036;stroke-width:1.0;"/><polygon fill="#A80036" points="706.48,1372.88,713.8115,1366.3036,708.5253,1368.3175,706.5115,1363.0312,706.48,1372.88" style="stroke:#A80036;stroke-width:1.0;"/><text fill="#000000" font-family="sans-serif" font-size="13" lengthAdjust="spacing" textLength="21" x="749" y="1317.4951">has</text><text fill="#000000" font-family="sans-serif" font-size="13" lengthAdjust="spacing" textLength="7" x="773.7823" y="1223.8667">1</text><text fill="#000000" font-family="sans-serif" font-size="13" lengthAdjust="spacing" textLength="5" x="703.7446" y="1362.3598">*</text><!--MD5=[38f93b52d0da8459428ee5edd16255e2]
@startuml US04_CD
skinparam classAttributeIconSize 0

class Appointment {
  - Date time
}

class AppointmentStore {
  + findSNSUserAppointment(snsUser)
}

class Arrival {
  - Date arrivalTime
}

class Company {
  - String designation
  + getDesignation()
}

class Employee {
  - id: String
  - address: String
  - phoneNumber: String
  - citizenCardNumber: String
  + Employee(id, name, address, phoneNumber, email, citizenCardNumber, roleId)
  + getId()
  + getName()
  + getAddress()
  + getPhoneNumber()
  + getEmail()
  + getCitizenCardNumber()
  + getPassword()
  + getRoleId()
}

class RegisterSNSUserArrivalUI {}

class RegisterSNSUserArrivalController {}

class SNSUser {
  - String citizenCard
  - String snsNumber
  - Date birthDay
  - Char gender
  - String phoneNumber
  - String address
  + SNSUser(citizenCard, snsNumber, name, birthDay, gender, phoneNumber, email, address)
}

class SNSUserStore {
  + findSNSUserByNumber(snsNumber)
}


class Receptionist {}


class SMSSender {}

class VaccinationCenter {
  - name: String
  - address: String
  - emailAddress: String
  - phoneNumber: String
  - faxNumber: String
  - websiteAddress: String
  - openingHours: String
  - closingHours: String
  - slotDuration: int
  - maximumVaccinesPerSlot: int
  - coordinator: EMPLOYEE
  - - -
  + VaccinationCenter(name,address,emailAddress,phoneNumber,faxNumber,websiteAddress,openingHours,closingHours,slotDuration,maximumVaccinesPerSlot,coordinator)
}

class VaccinationCenterStore {
  - - -
  + createVaccinationCenter(centerData, coordinator)
  + validateVaccinatonCenter(center)
  + saveVaccinationCenter(center)
  + checkDuplicates(center)
  + addVaccinationCenter(center)
}

class VaccineType {
  - code: String
  - description : String
  - technology : String
  - - -
  + VaccineType(code, description, technology)
}

class VaccineTypeStore {
  - getVaccineTypeByCode()
  - addVaccineType()
  - saveVaccineType()
}

class WaitingRoomList {}


Appointment "1" - -> "0..1" SMSSender : triggers

AppointmentStore "1" - -> "*" Appointment : stores

Arrival "1" - -> "1" Appointment : has

Company ..> SNSUserStore
Company ..> VaccinationCenterStore
Company ..> VaccineTypeStore
Company "1" - -> "*" Employee : knows

Employee <|- - Receptionist

Receptionist "1" - -> "*" Appointment : related to

RegisterSNSUserArrivalController ..> Company

RegisterSNSUserArrivalUI ..> RegisterSNSUserArrivalController

SNSUser - -o Arrival
SNSUser - -o Appointment

SNSUserStore "1" - -> "*" SNSUser : stores

VaccinationCenter ..> WaitingRoomList
VaccinationCenter ..> AppointmentStore

VaccinationCenterStore "1" - -> "*" VaccinationCenter : stores

VaccineType - -o Appointment

VaccineTypeStore "1" - -> "*" VaccineType : stores

WaitingRoomList "1" - -> "*" Arrival : has

@enduml

PlantUML version 1.2022.0(Tue Jan 11 16:16:42 WET 2022)
(GPL source distribution)
Java Runtime: Java(TM) SE Runtime Environment
JVM: Java HotSpot(TM) 64-Bit Server VM
Default Encoding: Cp1252
Language: pt
Country: PT
--></g></svg>