<?xml version="1.0" encoding="UTF-8" standalone="no"?><svg xmlns="http://www.w3.org/2000/svg" xmlns:xlink="http://www.w3.org/1999/xlink" contentScriptType="application/ecmascript" contentStyleType="text/css" height="637px" preserveAspectRatio="none" style="width:1121px;height:637px;background:#FFFFFF;" version="1.1" viewBox="0 0 1121 637" width="1121px" zoomAndPan="magnify"><defs><filter height="300%" id="fc0udw3dnf55t" width="300%" x="-1" y="-1"><feGaussianBlur result="blurOut" stdDeviation="2.0"/><feColorMatrix in="blurOut" result="blurOut2" type="matrix" values="0 0 0 0 0 0 0 0 0 0 0 0 0 0 0 0 0 0 .4 0"/><feOffset dx="4.0" dy="4.0" in="blurOut2" result="blurOut3"/><feBlend in="SourceGraphic" in2="blurOut3" mode="normal"/></filter></defs><g><!--MD5=[c508b5b6bbe276ff5e2700b6641f837f]
class Appointment--><rect codeLine="4" fill="#FEFECE" filter="url(#fc0udw3dnf55t)" height="40" id="Appointment" style="stroke:#A80036;stroke-width:1.5;" width="101" x="571" y="243"/><ellipse cx="586" cy="259" fill="#ADD1B2" rx="11" ry="11" style="stroke:#A80036;stroke-width:1.0;"/><path d="M588.7656,254.875 Q588.9219,254.6563 589.1094,254.5469 Q589.2969,254.4375 589.5156,254.4375 Q589.8906,254.4375 590.125,254.7031 Q590.3594,254.9531 590.3594,255.5625 L590.3594,257.0156 Q590.3594,257.625 590.125,257.8906 Q589.8906,258.1563 589.5156,258.1563 Q589.1719,258.1563 588.9688,257.9531 Q588.7656,257.7656 588.6563,257.25 Q588.6094,256.8906 588.4219,256.7031 Q588.0938,256.3281 587.4844,256.1094 Q586.875,255.8906 586.25,255.8906 Q585.4844,255.8906 584.8438,256.2188 Q584.2188,256.5469 583.7188,257.2969 Q583.2344,258.0469 583.2344,259.0781 L583.2344,260.1719 Q583.2344,261.4063 584.125,262.2344 Q585.0156,263.0469 586.6094,263.0469 Q587.5469,263.0469 588.2031,262.7969 Q588.5938,262.6406 589.0156,262.2031 Q589.2813,261.9375 589.4219,261.8594 Q589.5781,261.7813 589.7813,261.7813 Q590.1094,261.7813 590.3594,262.0469 Q590.625,262.2969 590.625,262.6406 Q590.625,262.9844 590.2813,263.3906 Q589.7813,263.9688 588.9844,264.2969 Q587.9063,264.75 586.6094,264.75 Q585.0938,264.75 583.8906,264.125 Q582.9063,263.625 582.2188,262.5625 Q581.5313,261.4844 581.5313,260.2031 L581.5313,259.0469 Q581.5313,257.7188 582.1406,256.5781 Q582.7656,255.4219 583.8594,254.8125 Q584.9531,254.1875 586.1875,254.1875 Q586.9219,254.1875 587.5625,254.3594 Q588.2188,254.5156 588.7656,254.875 Z " fill="#000000"/><text fill="#000000" font-family="sans-serif" font-size="12" lengthAdjust="spacing" textLength="69" x="600" y="263.9102">Appointment</text><line style="stroke:#A80036;stroke-width:1.5;" x1="572" x2="671" y1="275" y2="275"/><!--MD5=[0e501da62322464167c8ec4d233a6b7e]
class VaccineType--><rect codeLine="6" fill="#FEFECE" filter="url(#fc0udw3dnf55t)" height="81.5078" id="VaccineType" style="stroke:#A80036;stroke-width:1.5;" width="101" x="375" y="395.5"/><ellipse cx="390" cy="411.5" fill="#ADD1B2" rx="11" ry="11" style="stroke:#A80036;stroke-width:1.0;"/><path d="M392.7656,407.375 Q392.9219,407.1563 393.1094,407.0469 Q393.2969,406.9375 393.5156,406.9375 Q393.8906,406.9375 394.125,407.2031 Q394.3594,407.4531 394.3594,408.0625 L394.3594,409.5156 Q394.3594,410.125 394.125,410.3906 Q393.8906,410.6563 393.5156,410.6563 Q393.1719,410.6563 392.9688,410.4531 Q392.7656,410.2656 392.6563,409.75 Q392.6094,409.3906 392.4219,409.2031 Q392.0938,408.8281 391.4844,408.6094 Q390.875,408.3906 390.25,408.3906 Q389.4844,408.3906 388.8438,408.7188 Q388.2188,409.0469 387.7188,409.7969 Q387.2344,410.5469 387.2344,411.5781 L387.2344,412.6719 Q387.2344,413.9063 388.125,414.7344 Q389.0156,415.5469 390.6094,415.5469 Q391.5469,415.5469 392.2031,415.2969 Q392.5938,415.1406 393.0156,414.7031 Q393.2813,414.4375 393.4219,414.3594 Q393.5781,414.2813 393.7813,414.2813 Q394.1094,414.2813 394.3594,414.5469 Q394.625,414.7969 394.625,415.1406 Q394.625,415.4844 394.2813,415.8906 Q393.7813,416.4688 392.9844,416.7969 Q391.9063,417.25 390.6094,417.25 Q389.0938,417.25 387.8906,416.625 Q386.9063,416.125 386.2188,415.0625 Q385.5313,413.9844 385.5313,412.7031 L385.5313,411.5469 Q385.5313,410.2188 386.1406,409.0781 Q386.7656,407.9219 387.8594,407.3125 Q388.9531,406.6875 390.1875,406.6875 Q390.9219,406.6875 391.5625,406.8594 Q392.2188,407.0156 392.7656,407.375 Z " fill="#000000"/><text fill="#000000" font-family="sans-serif" font-size="12" lengthAdjust="spacing" textLength="69" x="404" y="416.4102">VaccineType</text><line style="stroke:#A80036;stroke-width:1.5;" x1="376" x2="475" y1="427.5" y2="427.5"/><text fill="#000000" font-family="sans-serif" font-size="11" lengthAdjust="spacing" textLength="28" x="381" y="442.9189">-code</text><text fill="#000000" font-family="sans-serif" font-size="11" lengthAdjust="spacing" textLength="57" x="381" y="456.7549">-description</text><text fill="#000000" font-family="sans-serif" font-size="11" lengthAdjust="spacing" textLength="57" x="381" y="470.5908">-technology</text><!--MD5=[72be06cc7ae02ccc98efe28a50e62246]
class SNSUser--><rect codeLine="12" fill="#FEFECE" filter="url(#fc0udw3dnf55t)" height="150.6875" id="SNSUser" style="stroke:#A80036;stroke-width:1.5;" width="84" x="579.5" y="7"/><ellipse cx="594.5" cy="23" fill="#ADD1B2" rx="11" ry="11" style="stroke:#A80036;stroke-width:1.0;"/><path d="M597.2656,18.875 Q597.4219,18.6563 597.6094,18.5469 Q597.7969,18.4375 598.0156,18.4375 Q598.3906,18.4375 598.625,18.7031 Q598.8594,18.9531 598.8594,19.5625 L598.8594,21.0156 Q598.8594,21.625 598.625,21.8906 Q598.3906,22.1563 598.0156,22.1563 Q597.6719,22.1563 597.4688,21.9531 Q597.2656,21.7656 597.1563,21.25 Q597.1094,20.8906 596.9219,20.7031 Q596.5938,20.3281 595.9844,20.1094 Q595.375,19.8906 594.75,19.8906 Q593.9844,19.8906 593.3438,20.2188 Q592.7188,20.5469 592.2188,21.2969 Q591.7344,22.0469 591.7344,23.0781 L591.7344,24.1719 Q591.7344,25.4063 592.625,26.2344 Q593.5156,27.0469 595.1094,27.0469 Q596.0469,27.0469 596.7031,26.7969 Q597.0938,26.6406 597.5156,26.2031 Q597.7813,25.9375 597.9219,25.8594 Q598.0781,25.7813 598.2813,25.7813 Q598.6094,25.7813 598.8594,26.0469 Q599.125,26.2969 599.125,26.6406 Q599.125,26.9844 598.7813,27.3906 Q598.2813,27.9688 597.4844,28.2969 Q596.4063,28.75 595.1094,28.75 Q593.5938,28.75 592.3906,28.125 Q591.4063,27.625 590.7188,26.5625 Q590.0313,25.4844 590.0313,24.2031 L590.0313,23.0469 Q590.0313,21.7188 590.6406,20.5781 Q591.2656,19.4219 592.3594,18.8125 Q593.4531,18.1875 594.6875,18.1875 Q595.4219,18.1875 596.0625,18.3594 Q596.7188,18.5156 597.2656,18.875 Z " fill="#000000"/><text fill="#000000" font-family="sans-serif" font-size="12" lengthAdjust="spacing" textLength="52" x="608.5" y="27.9102">SNSUser</text><line style="stroke:#A80036;stroke-width:1.5;" x1="580.5" x2="662.5" y1="39" y2="39"/><text fill="#000000" font-family="sans-serif" font-size="11" lengthAdjust="spacing" textLength="58" x="585.5" y="54.4189">-citizenCard</text><text fill="#000000" font-family="sans-serif" font-size="11" lengthAdjust="spacing" textLength="59" x="585.5" y="68.2549">-snsNumber</text><text fill="#000000" font-family="sans-serif" font-size="11" lengthAdjust="spacing" textLength="30" x="585.5" y="82.0908">-name</text><text fill="#000000" font-family="sans-serif" font-size="11" lengthAdjust="spacing" textLength="44" x="585.5" y="95.9268">-birthDay</text><text fill="#000000" font-family="sans-serif" font-size="11" lengthAdjust="spacing" textLength="38" x="585.5" y="109.7627">-gender</text><text fill="#000000" font-family="sans-serif" font-size="11" lengthAdjust="spacing" textLength="71" x="585.5" y="123.5986">-phoneNumber</text><text fill="#000000" font-family="sans-serif" font-size="11" lengthAdjust="spacing" textLength="28" x="585.5" y="137.4346">-email</text><text fill="#000000" font-family="sans-serif" font-size="11" lengthAdjust="spacing" textLength="44" x="585.5" y="151.2705">-address</text><!--MD5=[de60e6d4f424ae4d0522096f76a59010]
class VaccinationCenter--><rect codeLine="23" fill="#FEFECE" filter="url(#fc0udw3dnf55t)" height="136.8516" id="VaccinationCenter" style="stroke:#A80036;stroke-width:1.5;" width="132" x="184.5" y="368"/><ellipse cx="199.5" cy="384" fill="#ADD1B2" rx="11" ry="11" style="stroke:#A80036;stroke-width:1.0;"/><path d="M202.2656,379.875 Q202.4219,379.6563 202.6094,379.5469 Q202.7969,379.4375 203.0156,379.4375 Q203.3906,379.4375 203.625,379.7031 Q203.8594,379.9531 203.8594,380.5625 L203.8594,382.0156 Q203.8594,382.625 203.625,382.8906 Q203.3906,383.1563 203.0156,383.1563 Q202.6719,383.1563 202.4688,382.9531 Q202.2656,382.7656 202.1563,382.25 Q202.1094,381.8906 201.9219,381.7031 Q201.5938,381.3281 200.9844,381.1094 Q200.375,380.8906 199.75,380.8906 Q198.9844,380.8906 198.3438,381.2188 Q197.7188,381.5469 197.2188,382.2969 Q196.7344,383.0469 196.7344,384.0781 L196.7344,385.1719 Q196.7344,386.4063 197.625,387.2344 Q198.5156,388.0469 200.1094,388.0469 Q201.0469,388.0469 201.7031,387.7969 Q202.0938,387.6406 202.5156,387.2031 Q202.7813,386.9375 202.9219,386.8594 Q203.0781,386.7813 203.2813,386.7813 Q203.6094,386.7813 203.8594,387.0469 Q204.125,387.2969 204.125,387.6406 Q204.125,387.9844 203.7813,388.3906 Q203.2813,388.9688 202.4844,389.2969 Q201.4063,389.75 200.1094,389.75 Q198.5938,389.75 197.3906,389.125 Q196.4063,388.625 195.7188,387.5625 Q195.0313,386.4844 195.0313,385.2031 L195.0313,384.0469 Q195.0313,382.7188 195.6406,381.5781 Q196.2656,380.4219 197.3594,379.8125 Q198.4531,379.1875 199.6875,379.1875 Q200.4219,379.1875 201.0625,379.3594 Q201.7188,379.5156 202.2656,379.875 Z " fill="#000000"/><text fill="#000000" font-family="sans-serif" font-size="12" lengthAdjust="spacing" textLength="100" x="213.5" y="388.9102">VaccinationCenter</text><line style="stroke:#A80036;stroke-width:1.5;" x1="185.5" x2="315.5" y1="400" y2="400"/><text fill="#000000" font-family="sans-serif" font-size="11" lengthAdjust="spacing" textLength="30" x="190.5" y="415.4189">-name</text><text fill="#000000" font-family="sans-serif" font-size="11" lengthAdjust="spacing" textLength="44" x="190.5" y="429.2549">-address</text><text fill="#000000" font-family="sans-serif" font-size="11" lengthAdjust="spacing" textLength="70" x="190.5" y="443.0908">-emailAddress</text><text fill="#000000" font-family="sans-serif" font-size="11" lengthAdjust="spacing" textLength="71" x="190.5" y="456.9268">-phoneNumber</text><text fill="#000000" font-family="sans-serif" font-size="11" lengthAdjust="spacing" textLength="57" x="190.5" y="470.7627">-faxNumber</text><text fill="#000000" font-family="sans-serif" font-size="11" lengthAdjust="spacing" textLength="85" x="190.5" y="484.5986">-websiteAddress</text><text fill="#000000" font-family="sans-serif" font-size="11" lengthAdjust="spacing" textLength="59" x="190.5" y="498.4346">-coordinator</text><!--MD5=[2e42295458bb0bec21c9622a623eb29e]
class Time--><rect codeLine="33" fill="#FEFECE" filter="url(#fc0udw3dnf55t)" height="40" id="Time" style="stroke:#A80036;stroke-width:1.5;" width="60" x="174.5" y="583"/><ellipse cx="189.5" cy="599" fill="#ADD1B2" rx="11" ry="11" style="stroke:#A80036;stroke-width:1.0;"/><path d="M192.2656,594.875 Q192.4219,594.6563 192.6094,594.5469 Q192.7969,594.4375 193.0156,594.4375 Q193.3906,594.4375 193.625,594.7031 Q193.8594,594.9531 193.8594,595.5625 L193.8594,597.0156 Q193.8594,597.625 193.625,597.8906 Q193.3906,598.1563 193.0156,598.1563 Q192.6719,598.1563 192.4688,597.9531 Q192.2656,597.7656 192.1563,597.25 Q192.1094,596.8906 191.9219,596.7031 Q191.5938,596.3281 190.9844,596.1094 Q190.375,595.8906 189.75,595.8906 Q188.9844,595.8906 188.3438,596.2188 Q187.7188,596.5469 187.2188,597.2969 Q186.7344,598.0469 186.7344,599.0781 L186.7344,600.1719 Q186.7344,601.4063 187.625,602.2344 Q188.5156,603.0469 190.1094,603.0469 Q191.0469,603.0469 191.7031,602.7969 Q192.0938,602.6406 192.5156,602.2031 Q192.7813,601.9375 192.9219,601.8594 Q193.0781,601.7813 193.2813,601.7813 Q193.6094,601.7813 193.8594,602.0469 Q194.125,602.2969 194.125,602.6406 Q194.125,602.9844 193.7813,603.3906 Q193.2813,603.9688 192.4844,604.2969 Q191.4063,604.75 190.1094,604.75 Q188.5938,604.75 187.3906,604.125 Q186.4063,603.625 185.7188,602.5625 Q185.0313,601.4844 185.0313,600.2031 L185.0313,599.0469 Q185.0313,597.7188 185.6406,596.5781 Q186.2656,595.4219 187.3594,594.8125 Q188.4531,594.1875 189.6875,594.1875 Q190.4219,594.1875 191.0625,594.3594 Q191.7188,594.5156 192.2656,594.875 Z " fill="#000000"/><text fill="#000000" font-family="sans-serif" font-size="12" lengthAdjust="spacing" textLength="28" x="203.5" y="603.9102">Time</text><line style="stroke:#A80036;stroke-width:1.5;" x1="175.5" x2="233.5" y1="615" y2="615"/><!--MD5=[45c6380d22fb72521f5065026b277fb9]
class Slot--><rect codeLine="35" fill="#FEFECE" filter="url(#fc0udw3dnf55t)" height="40" id="Slot" style="stroke:#A80036;stroke-width:1.5;" width="53" x="270" y="583"/><ellipse cx="285" cy="599" fill="#ADD1B2" rx="11" ry="11" style="stroke:#A80036;stroke-width:1.0;"/><path d="M287.7656,594.875 Q287.9219,594.6563 288.1094,594.5469 Q288.2969,594.4375 288.5156,594.4375 Q288.8906,594.4375 289.125,594.7031 Q289.3594,594.9531 289.3594,595.5625 L289.3594,597.0156 Q289.3594,597.625 289.125,597.8906 Q288.8906,598.1563 288.5156,598.1563 Q288.1719,598.1563 287.9688,597.9531 Q287.7656,597.7656 287.6563,597.25 Q287.6094,596.8906 287.4219,596.7031 Q287.0938,596.3281 286.4844,596.1094 Q285.875,595.8906 285.25,595.8906 Q284.4844,595.8906 283.8438,596.2188 Q283.2188,596.5469 282.7188,597.2969 Q282.2344,598.0469 282.2344,599.0781 L282.2344,600.1719 Q282.2344,601.4063 283.125,602.2344 Q284.0156,603.0469 285.6094,603.0469 Q286.5469,603.0469 287.2031,602.7969 Q287.5938,602.6406 288.0156,602.2031 Q288.2813,601.9375 288.4219,601.8594 Q288.5781,601.7813 288.7813,601.7813 Q289.1094,601.7813 289.3594,602.0469 Q289.625,602.2969 289.625,602.6406 Q289.625,602.9844 289.2813,603.3906 Q288.7813,603.9688 287.9844,604.2969 Q286.9063,604.75 285.6094,604.75 Q284.0938,604.75 282.8906,604.125 Q281.9063,603.625 281.2188,602.5625 Q280.5313,601.4844 280.5313,600.2031 L280.5313,599.0469 Q280.5313,597.7188 281.1406,596.5781 Q281.7656,595.4219 282.8594,594.8125 Q283.9531,594.1875 285.1875,594.1875 Q285.9219,594.1875 286.5625,594.3594 Q287.2188,594.5156 287.7656,594.875 Z " fill="#000000"/><text fill="#000000" font-family="sans-serif" font-size="12" lengthAdjust="spacing" textLength="21" x="299" y="603.9102">Slot</text><line style="stroke:#A80036;stroke-width:1.5;" x1="271" x2="322" y1="615" y2="615"/><!--MD5=[56872536300a053cf9fd13853ad6ab1e]
class CommunityMassVaccinationCenter--><rect codeLine="37" fill="#FEFECE" filter="url(#fc0udw3dnf55t)" height="40" id="CommunityMassVaccinationCenter" style="stroke:#A80036;stroke-width:1.5;" width="225" x="295" y="243"/><ellipse cx="310" cy="259" fill="#ADD1B2" rx="11" ry="11" style="stroke:#A80036;stroke-width:1.0;"/><path d="M312.7656,254.875 Q312.9219,254.6563 313.1094,254.5469 Q313.2969,254.4375 313.5156,254.4375 Q313.8906,254.4375 314.125,254.7031 Q314.3594,254.9531 314.3594,255.5625 L314.3594,257.0156 Q314.3594,257.625 314.125,257.8906 Q313.8906,258.1563 313.5156,258.1563 Q313.1719,258.1563 312.9688,257.9531 Q312.7656,257.7656 312.6563,257.25 Q312.6094,256.8906 312.4219,256.7031 Q312.0938,256.3281 311.4844,256.1094 Q310.875,255.8906 310.25,255.8906 Q309.4844,255.8906 308.8438,256.2188 Q308.2188,256.5469 307.7188,257.2969 Q307.2344,258.0469 307.2344,259.0781 L307.2344,260.1719 Q307.2344,261.4063 308.125,262.2344 Q309.0156,263.0469 310.6094,263.0469 Q311.5469,263.0469 312.2031,262.7969 Q312.5938,262.6406 313.0156,262.2031 Q313.2813,261.9375 313.4219,261.8594 Q313.5781,261.7813 313.7813,261.7813 Q314.1094,261.7813 314.3594,262.0469 Q314.625,262.2969 314.625,262.6406 Q314.625,262.9844 314.2813,263.3906 Q313.7813,263.9688 312.9844,264.2969 Q311.9063,264.75 310.6094,264.75 Q309.0938,264.75 307.8906,264.125 Q306.9063,263.625 306.2188,262.5625 Q305.5313,261.4844 305.5313,260.2031 L305.5313,259.0469 Q305.5313,257.7188 306.1406,256.5781 Q306.7656,255.4219 307.8594,254.8125 Q308.9531,254.1875 310.1875,254.1875 Q310.9219,254.1875 311.5625,254.3594 Q312.2188,254.5156 312.7656,254.875 Z " fill="#000000"/><text fill="#000000" font-family="sans-serif" font-size="12" lengthAdjust="spacing" textLength="193" x="324" y="263.9102">CommunityMassVaccinationCenter</text><line style="stroke:#A80036;stroke-width:1.5;" x1="296" x2="519" y1="275" y2="275"/><!--MD5=[1db03e903fe0a044a2ca0dcbef10799a]
class HealthCareCenter--><rect codeLine="39" fill="#FEFECE" filter="url(#fc0udw3dnf55t)" height="40" id="HealthCareCenter" style="stroke:#A80036;stroke-width:1.5;" width="132" x="127.5" y="243"/><ellipse cx="142.5" cy="259" fill="#ADD1B2" rx="11" ry="11" style="stroke:#A80036;stroke-width:1.0;"/><path d="M145.2656,254.875 Q145.4219,254.6563 145.6094,254.5469 Q145.7969,254.4375 146.0156,254.4375 Q146.3906,254.4375 146.625,254.7031 Q146.8594,254.9531 146.8594,255.5625 L146.8594,257.0156 Q146.8594,257.625 146.625,257.8906 Q146.3906,258.1563 146.0156,258.1563 Q145.6719,258.1563 145.4688,257.9531 Q145.2656,257.7656 145.1563,257.25 Q145.1094,256.8906 144.9219,256.7031 Q144.5938,256.3281 143.9844,256.1094 Q143.375,255.8906 142.75,255.8906 Q141.9844,255.8906 141.3438,256.2188 Q140.7188,256.5469 140.2188,257.2969 Q139.7344,258.0469 139.7344,259.0781 L139.7344,260.1719 Q139.7344,261.4063 140.625,262.2344 Q141.5156,263.0469 143.1094,263.0469 Q144.0469,263.0469 144.7031,262.7969 Q145.0938,262.6406 145.5156,262.2031 Q145.7813,261.9375 145.9219,261.8594 Q146.0781,261.7813 146.2813,261.7813 Q146.6094,261.7813 146.8594,262.0469 Q147.125,262.2969 147.125,262.6406 Q147.125,262.9844 146.7813,263.3906 Q146.2813,263.9688 145.4844,264.2969 Q144.4063,264.75 143.1094,264.75 Q141.5938,264.75 140.3906,264.125 Q139.4063,263.625 138.7188,262.5625 Q138.0313,261.4844 138.0313,260.2031 L138.0313,259.0469 Q138.0313,257.7188 138.6406,256.5781 Q139.2656,255.4219 140.3594,254.8125 Q141.4531,254.1875 142.6875,254.1875 Q143.4219,254.1875 144.0625,254.3594 Q144.7188,254.5156 145.2656,254.875 Z " fill="#000000"/><text fill="#000000" font-family="sans-serif" font-size="12" lengthAdjust="spacing" textLength="100" x="156.5" y="263.9102">HealthCareCenter</text><line style="stroke:#A80036;stroke-width:1.5;" x1="128.5" x2="258.5" y1="275" y2="275"/><!--MD5=[02e4b9b7573f1156f41e60aa5b4e25a4]
class Company--><rect codeLine="41" fill="#FEFECE" filter="url(#fc0udw3dnf55t)" height="53.8359" id="Company" style="stroke:#A80036;stroke-width:1.5;" width="85" x="7" y="236"/><ellipse cx="22" cy="252" fill="#ADD1B2" rx="11" ry="11" style="stroke:#A80036;stroke-width:1.0;"/><path d="M24.7656,247.875 Q24.9219,247.6563 25.1094,247.5469 Q25.2969,247.4375 25.5156,247.4375 Q25.8906,247.4375 26.125,247.7031 Q26.3594,247.9531 26.3594,248.5625 L26.3594,250.0156 Q26.3594,250.625 26.125,250.8906 Q25.8906,251.1563 25.5156,251.1563 Q25.1719,251.1563 24.9688,250.9531 Q24.7656,250.7656 24.6563,250.25 Q24.6094,249.8906 24.4219,249.7031 Q24.0938,249.3281 23.4844,249.1094 Q22.875,248.8906 22.25,248.8906 Q21.4844,248.8906 20.8438,249.2188 Q20.2188,249.5469 19.7188,250.2969 Q19.2344,251.0469 19.2344,252.0781 L19.2344,253.1719 Q19.2344,254.4063 20.125,255.2344 Q21.0156,256.0469 22.6094,256.0469 Q23.5469,256.0469 24.2031,255.7969 Q24.5938,255.6406 25.0156,255.2031 Q25.2813,254.9375 25.4219,254.8594 Q25.5781,254.7813 25.7813,254.7813 Q26.1094,254.7813 26.3594,255.0469 Q26.625,255.2969 26.625,255.6406 Q26.625,255.9844 26.2813,256.3906 Q25.7813,256.9688 24.9844,257.2969 Q23.9063,257.75 22.6094,257.75 Q21.0938,257.75 19.8906,257.125 Q18.9063,256.625 18.2188,255.5625 Q17.5313,254.4844 17.5313,253.2031 L17.5313,252.0469 Q17.5313,250.7188 18.1406,249.5781 Q18.7656,248.4219 19.8594,247.8125 Q20.9531,247.1875 22.1875,247.1875 Q22.9219,247.1875 23.5625,247.3594 Q24.2188,247.5156 24.7656,247.875 Z " fill="#000000"/><text fill="#000000" font-family="sans-serif" font-size="12" lengthAdjust="spacing" textLength="53" x="36" y="256.9102">Company</text><line style="stroke:#A80036;stroke-width:1.5;" x1="8" x2="91" y1="268" y2="268"/><text fill="#000000" font-family="sans-serif" font-size="11" lengthAdjust="spacing" textLength="59" x="13" y="283.4189">-designation</text><!--MD5=[76b5e19c9337179d2d7ae334371d68c8]
class Notification--><rect codeLine="45" fill="#FEFECE" filter="url(#fc0udw3dnf55t)" height="40" id="Notification" style="stroke:#A80036;stroke-width:1.5;" width="93" x="795" y="416.5"/><ellipse cx="810" cy="432.5" fill="#ADD1B2" rx="11" ry="11" style="stroke:#A80036;stroke-width:1.0;"/><path d="M812.7656,428.375 Q812.9219,428.1563 813.1094,428.0469 Q813.2969,427.9375 813.5156,427.9375 Q813.8906,427.9375 814.125,428.2031 Q814.3594,428.4531 814.3594,429.0625 L814.3594,430.5156 Q814.3594,431.125 814.125,431.3906 Q813.8906,431.6563 813.5156,431.6563 Q813.1719,431.6563 812.9688,431.4531 Q812.7656,431.2656 812.6563,430.75 Q812.6094,430.3906 812.4219,430.2031 Q812.0938,429.8281 811.4844,429.6094 Q810.875,429.3906 810.25,429.3906 Q809.4844,429.3906 808.8438,429.7188 Q808.2188,430.0469 807.7188,430.7969 Q807.2344,431.5469 807.2344,432.5781 L807.2344,433.6719 Q807.2344,434.9063 808.125,435.7344 Q809.0156,436.5469 810.6094,436.5469 Q811.5469,436.5469 812.2031,436.2969 Q812.5938,436.1406 813.0156,435.7031 Q813.2813,435.4375 813.4219,435.3594 Q813.5781,435.2813 813.7813,435.2813 Q814.1094,435.2813 814.3594,435.5469 Q814.625,435.7969 814.625,436.1406 Q814.625,436.4844 814.2813,436.8906 Q813.7813,437.4688 812.9844,437.7969 Q811.9063,438.25 810.6094,438.25 Q809.0938,438.25 807.8906,437.625 Q806.9063,437.125 806.2188,436.0625 Q805.5313,434.9844 805.5313,433.7031 L805.5313,432.5469 Q805.5313,431.2188 806.1406,430.0781 Q806.7656,428.9219 807.8594,428.3125 Q808.9531,427.6875 810.1875,427.6875 Q810.9219,427.6875 811.5625,427.8594 Q812.2188,428.0156 812.7656,428.375 Z " fill="#000000"/><text fill="#000000" font-family="sans-serif" font-size="12" lengthAdjust="spacing" textLength="61" x="824" y="437.4102">Notification</text><line style="stroke:#A80036;stroke-width:1.5;" x1="796" x2="887" y1="448.5" y2="448.5"/><!--MD5=[467f7e0fe9ca2a47c651f8dc89503c22]
class ConsoleSender--><rect codeLine="47" fill="#FEFECE" filter="url(#fc0udw3dnf55t)" height="40" id="ConsoleSender" style="stroke:#A80036;stroke-width:1.5;" width="119" x="988" y="243"/><ellipse cx="1003" cy="259" fill="#ADD1B2" rx="11" ry="11" style="stroke:#A80036;stroke-width:1.0;"/><path d="M1005.7656,254.875 Q1005.9219,254.6563 1006.1094,254.5469 Q1006.2969,254.4375 1006.5156,254.4375 Q1006.8906,254.4375 1007.125,254.7031 Q1007.3594,254.9531 1007.3594,255.5625 L1007.3594,257.0156 Q1007.3594,257.625 1007.125,257.8906 Q1006.8906,258.1563 1006.5156,258.1563 Q1006.1719,258.1563 1005.9688,257.9531 Q1005.7656,257.7656 1005.6563,257.25 Q1005.6094,256.8906 1005.4219,256.7031 Q1005.0938,256.3281 1004.4844,256.1094 Q1003.875,255.8906 1003.25,255.8906 Q1002.4844,255.8906 1001.8438,256.2188 Q1001.2188,256.5469 1000.7188,257.2969 Q1000.2344,258.0469 1000.2344,259.0781 L1000.2344,260.1719 Q1000.2344,261.4063 1001.125,262.2344 Q1002.0156,263.0469 1003.6094,263.0469 Q1004.5469,263.0469 1005.2031,262.7969 Q1005.5938,262.6406 1006.0156,262.2031 Q1006.2813,261.9375 1006.4219,261.8594 Q1006.5781,261.7813 1006.7813,261.7813 Q1007.1094,261.7813 1007.3594,262.0469 Q1007.625,262.2969 1007.625,262.6406 Q1007.625,262.9844 1007.2813,263.3906 Q1006.7813,263.9688 1005.9844,264.2969 Q1004.9063,264.75 1003.6094,264.75 Q1002.0938,264.75 1000.8906,264.125 Q999.9063,263.625 999.2188,262.5625 Q998.5313,261.4844 998.5313,260.2031 L998.5313,259.0469 Q998.5313,257.7188 999.1406,256.5781 Q999.7656,255.4219 1000.8594,254.8125 Q1001.9531,254.1875 1003.1875,254.1875 Q1003.9219,254.1875 1004.5625,254.3594 Q1005.2188,254.5156 1005.7656,254.875 Z " fill="#000000"/><text fill="#000000" font-family="sans-serif" font-size="12" lengthAdjust="spacing" textLength="87" x="1017" y="263.9102">ConsoleSender</text><line style="stroke:#A80036;stroke-width:1.5;" x1="989" x2="1106" y1="275" y2="275"/><!--MD5=[dbd744789a27dfb7a38205596e031569]
class EmailSender--><rect codeLine="49" fill="#FEFECE" filter="url(#fc0udw3dnf55t)" height="40" id="EmailSender" style="stroke:#A80036;stroke-width:1.5;" width="104" x="716.5" y="243"/><ellipse cx="731.5" cy="259" fill="#ADD1B2" rx="11" ry="11" style="stroke:#A80036;stroke-width:1.0;"/><path d="M734.2656,254.875 Q734.4219,254.6563 734.6094,254.5469 Q734.7969,254.4375 735.0156,254.4375 Q735.3906,254.4375 735.625,254.7031 Q735.8594,254.9531 735.8594,255.5625 L735.8594,257.0156 Q735.8594,257.625 735.625,257.8906 Q735.3906,258.1563 735.0156,258.1563 Q734.6719,258.1563 734.4688,257.9531 Q734.2656,257.7656 734.1563,257.25 Q734.1094,256.8906 733.9219,256.7031 Q733.5938,256.3281 732.9844,256.1094 Q732.375,255.8906 731.75,255.8906 Q730.9844,255.8906 730.3438,256.2188 Q729.7188,256.5469 729.2188,257.2969 Q728.7344,258.0469 728.7344,259.0781 L728.7344,260.1719 Q728.7344,261.4063 729.625,262.2344 Q730.5156,263.0469 732.1094,263.0469 Q733.0469,263.0469 733.7031,262.7969 Q734.0938,262.6406 734.5156,262.2031 Q734.7813,261.9375 734.9219,261.8594 Q735.0781,261.7813 735.2813,261.7813 Q735.6094,261.7813 735.8594,262.0469 Q736.125,262.2969 736.125,262.6406 Q736.125,262.9844 735.7813,263.3906 Q735.2813,263.9688 734.4844,264.2969 Q733.4063,264.75 732.1094,264.75 Q730.5938,264.75 729.3906,264.125 Q728.4063,263.625 727.7188,262.5625 Q727.0313,261.4844 727.0313,260.2031 L727.0313,259.0469 Q727.0313,257.7188 727.6406,256.5781 Q728.2656,255.4219 729.3594,254.8125 Q730.4531,254.1875 731.6875,254.1875 Q732.4219,254.1875 733.0625,254.3594 Q733.7188,254.5156 734.2656,254.875 Z " fill="#000000"/><text fill="#000000" font-family="sans-serif" font-size="12" lengthAdjust="spacing" textLength="72" x="745.5" y="263.9102">EmailSender</text><line style="stroke:#A80036;stroke-width:1.5;" x1="717.5" x2="819.5" y1="275" y2="275"/><!--MD5=[a88c56e1dc44d9d0e1fcd2eec4fd7e58]
class SMSSender--><rect codeLine="51" fill="#FEFECE" filter="url(#fc0udw3dnf55t)" height="40" id="SMSSender" style="stroke:#A80036;stroke-width:1.5;" width="97" x="856" y="243"/><ellipse cx="871" cy="259" fill="#ADD1B2" rx="11" ry="11" style="stroke:#A80036;stroke-width:1.0;"/><path d="M873.7656,254.875 Q873.9219,254.6563 874.1094,254.5469 Q874.2969,254.4375 874.5156,254.4375 Q874.8906,254.4375 875.125,254.7031 Q875.3594,254.9531 875.3594,255.5625 L875.3594,257.0156 Q875.3594,257.625 875.125,257.8906 Q874.8906,258.1563 874.5156,258.1563 Q874.1719,258.1563 873.9688,257.9531 Q873.7656,257.7656 873.6563,257.25 Q873.6094,256.8906 873.4219,256.7031 Q873.0938,256.3281 872.4844,256.1094 Q871.875,255.8906 871.25,255.8906 Q870.4844,255.8906 869.8438,256.2188 Q869.2188,256.5469 868.7188,257.2969 Q868.2344,258.0469 868.2344,259.0781 L868.2344,260.1719 Q868.2344,261.4063 869.125,262.2344 Q870.0156,263.0469 871.6094,263.0469 Q872.5469,263.0469 873.2031,262.7969 Q873.5938,262.6406 874.0156,262.2031 Q874.2813,261.9375 874.4219,261.8594 Q874.5781,261.7813 874.7813,261.7813 Q875.1094,261.7813 875.3594,262.0469 Q875.625,262.2969 875.625,262.6406 Q875.625,262.9844 875.2813,263.3906 Q874.7813,263.9688 873.9844,264.2969 Q872.9063,264.75 871.6094,264.75 Q870.0938,264.75 868.8906,264.125 Q867.9063,263.625 867.2188,262.5625 Q866.5313,261.4844 866.5313,260.2031 L866.5313,259.0469 Q866.5313,257.7188 867.1406,256.5781 Q867.7656,255.4219 868.8594,254.8125 Q869.9531,254.1875 871.1875,254.1875 Q871.9219,254.1875 872.5625,254.3594 Q873.2188,254.5156 873.7656,254.875 Z " fill="#000000"/><text fill="#000000" font-family="sans-serif" font-size="12" lengthAdjust="spacing" textLength="65" x="885" y="263.9102">SMSSender</text><line style="stroke:#A80036;stroke-width:1.5;" x1="857" x2="952" y1="275" y2="275"/><!--MD5=[d63168792e55d79de1fe85cd885704ff]
link Appointment to VaccineType--><path codeLine="53" d="M614.74,283.04 C608.33,299.09 597.45,321.96 582.5,338 C552.54,370.16 509.68,395.82 476.31,412.73 " fill="none" id="Appointment-VaccineType" style="stroke:#A80036;stroke-width:1.0;"/><polygon fill="#000000" points="596.8512,332.5943,605.4613,328.5549,601.4427,324.2654,596.8512,332.5943" style="stroke:#000000;stroke-width:1.0;"/><text fill="#000000" font-family="sans-serif" font-size="13" lengthAdjust="spacing" textLength="21" x="609.5" y="334.4951">has</text><text fill="#000000" font-family="sans-serif" font-size="13" lengthAdjust="spacing" textLength="7" x="604.8544" y="304.4708">1</text><text fill="#000000" font-family="sans-serif" font-size="13" lengthAdjust="spacing" textLength="7" x="483.9473" y="405.8168">1</text><!--MD5=[d139302f00cc62b984b6371d0fde1842]
link Appointment to VaccinationCenter--><path codeLine="54" d="M580.76,283.12 C558.63,293.68 530.89,307.22 506.5,320 C492.05,327.58 489.64,331.92 474.5,338 C424.68,358 406.8,346.75 357.5,368 C343.78,373.91 329.81,381.44 316.67,389.32 " fill="none" id="Appointment-VaccinationCenter" style="stroke:#A80036;stroke-width:1.0;"/><polygon fill="#000000" points="506.861,331.0413,516.3495,330.3933,514.1565,324.9399,506.861,331.0413" style="stroke:#000000;stroke-width:1.0;"/><text fill="#000000" font-family="sans-serif" font-size="13" lengthAdjust="spacing" textLength="53" x="520.5" y="334.4951">is held at</text><text fill="#000000" font-family="sans-serif" font-size="13" lengthAdjust="spacing" textLength="5" x="563.5988" y="304.5733">*</text><text fill="#000000" font-family="sans-serif" font-size="13" lengthAdjust="spacing" textLength="7" x="324.2902" y="380.8071">1</text><!--MD5=[2b5b74edf452990c5a9179627c3aa149]
link Appointment to Notification--><path codeLine="55" d="M645.88,283.01 C688.17,315.97 774.64,383.38 817.01,416.41 " fill="none" id="Appointment-Notification" style="stroke:#A80036;stroke-width:1.0;"/><polygon fill="#000000" points="720.4434,332.2498,715.1166,324.371,711.5029,329.0068,720.4434,332.2498" style="stroke:#000000;stroke-width:1.0;"/><text fill="#000000" font-family="sans-serif" font-size="13" lengthAdjust="spacing" textLength="43" x="725.5" y="334.4951">triggers</text><text fill="#000000" font-family="sans-serif" font-size="13" lengthAdjust="spacing" textLength="7" x="644.7525" y="304.4324">1</text><text fill="#000000" font-family="sans-serif" font-size="13" lengthAdjust="spacing" textLength="22" x="784.5848" y="405.7053">0..1</text><!--MD5=[eebe9b198877275d05dd12630ed9e401]
link Company to VaccinationCenter--><path codeLine="57" d="M80.03,290.05 C107.59,313.57 149.1,348.98 184.26,378.98 " fill="none" id="Company-VaccinationCenter" style="stroke:#A80036;stroke-width:1.0;"/><polygon fill="#000000" points="141.3037,332.4211,136.3303,324.3145,132.5152,328.786,141.3037,332.4211" style="stroke:#000000;stroke-width:1.0;"/><text fill="#000000" font-family="sans-serif" font-size="13" lengthAdjust="spacing" textLength="37" x="146.5" y="334.4951">knows</text><text fill="#000000" font-family="sans-serif" font-size="13" lengthAdjust="spacing" textLength="7" x="78.9428" y="311.2687">1</text><text fill="#000000" font-family="sans-serif" font-size="13" lengthAdjust="spacing" textLength="5" x="171.3119" y="368.9283">*</text><!--MD5=[3f8bc51bb69ce45c3e3ea0b764df71f1]
link SNSUser to Appointment--><path codeLine="59" d="M621.5,158.17 C621.5,189.12 621.5,222.48 621.5,242.8 " fill="none" id="SNSUser-Appointment" style="stroke:#A80036;stroke-width:1.0;"/><polygon fill="#000000" points="626.5,202.1758,629.4389,193.1307,623.5611,193.1307,626.5,202.1758" style="stroke:#000000;stroke-width:1.0;"/><text fill="#000000" font-family="sans-serif" font-size="13" lengthAdjust="spacing" textLength="59" x="635.5" y="202.4951">schedules</text><text fill="#000000" font-family="sans-serif" font-size="13" lengthAdjust="spacing" textLength="7" x="614.1883" y="179.1465">1</text><text fill="#000000" font-family="sans-serif" font-size="13" lengthAdjust="spacing" textLength="5" x="615.7656" y="232.063">*</text><!--MD5=[8333063a69905134c8a7f249aa9d629e]
link CommunityMassVaccinationCenter to VaccinationCenter--><path codeLine="61" d="M390.1,283.01 C374.34,300.22 349.99,326.82 326.01,353.02 " fill="none" id="CommunityMassVaccinationCenter-to-VaccinationCenter" style="stroke:#A80036;stroke-width:1.0;"/><polygon fill="none" points="331.06,357.86,312.39,367.89,320.74,348.41,331.06,357.86" style="stroke:#A80036;stroke-width:1.0;"/><!--MD5=[90e124b0135b8b3ad8d008c657d2e9df]
link CommunityMassVaccinationCenter to VaccineType--><path codeLine="62" d="M397.93,283 C391.59,297.85 385.03,319.08 388.5,338 C392.06,357.41 399.3,377.97 406.43,395.18 " fill="none" id="CommunityMassVaccinationCenter-VaccineType" style="stroke:#A80036;stroke-width:1.0;"/><polygon fill="#000000" points="393.8778,334.1615,396.1249,324.9202,390.2638,325.3643,393.8778,334.1615" style="stroke:#000000;stroke-width:1.0;"/><text fill="#000000" font-family="sans-serif" font-size="13" lengthAdjust="spacing" textLength="67" x="402.5" y="334.4951">administers</text><text fill="#000000" font-family="sans-serif" font-size="13" lengthAdjust="spacing" textLength="7" x="387.2541" y="304.4196">1</text><text fill="#000000" font-family="sans-serif" font-size="13" lengthAdjust="spacing" textLength="7" x="395.6918" y="384.5764">1</text><!--MD5=[e67749f86d2edce8d072e016ba76df74]
link VaccinationCenter to Time--><path codeLine="64" d="M226.32,505.07 C223.14,515.04 220.09,525.24 217.5,535 C213.28,550.92 209.81,569.31 207.52,582.78 " fill="none" id="VaccinationCenter-Time" style="stroke:#A80036;stroke-width:1.0;"/><polygon fill="#000000" points="221.3243,549.0356,226.3077,540.9352,220.5946,539.5531,221.3243,549.0356" style="stroke:#000000;stroke-width:1.0;"/><text fill="#000000" font-family="sans-serif" font-size="13" lengthAdjust="spacing" textLength="21" x="231.5" y="549.4951">has</text><text fill="#000000" font-family="sans-serif" font-size="13" lengthAdjust="spacing" textLength="7" x="216.4655" y="526.4872">1</text><text fill="#000000" font-family="sans-serif" font-size="13" lengthAdjust="spacing" textLength="7" x="200.379" y="572.0371">1</text><!--MD5=[b649bef0048cf03271726558ee7073ed]
link VaccinationCenter to Slot--><path codeLine="65" d="M269.48,505.36 C277.3,533.33 285.76,563.58 291.09,582.65 " fill="none" id="VaccinationCenter-Slot" style="stroke:#A80036;stroke-width:1.0;"/><polygon fill="#000000" points="288.8463,548.9911,289.2412,539.4887,283.5804,541.0715,288.8463,548.9911" style="stroke:#000000;stroke-width:1.0;"/><text fill="#000000" font-family="sans-serif" font-size="13" lengthAdjust="spacing" textLength="21" x="296.5" y="549.4951">has</text><text fill="#000000" font-family="sans-serif" font-size="13" lengthAdjust="spacing" textLength="7" x="264.0038" y="526.4456">1</text><text fill="#000000" font-family="sans-serif" font-size="13" lengthAdjust="spacing" textLength="7" x="281.5841" y="572.2211">1</text><!--MD5=[98987725eaf233391716763c4133cca1]
link HealthCareCenter to VaccinationCenter--><path codeLine="67" d="M199.82,283.01 C205.22,299.26 213.4,323.88 221.63,348.63 " fill="none" id="HealthCareCenter-to-VaccinationCenter" style="stroke:#A80036;stroke-width:1.0;"/><polygon fill="none" points="228.36,346.7,228.03,367.89,215.08,351.12,228.36,346.7" style="stroke:#A80036;stroke-width:1.0;"/><!--MD5=[d5285152722507c1fbb28fd2de6a1f13]
link ConsoleSender to Notification--><path codeLine="69" d="M1024.67,283.01 C989.71,312.11 922.51,368.06 879.95,403.49 " fill="none" id="ConsoleSender-to-Notification" style="stroke:#A80036;stroke-width:1.0;"/><polygon fill="none" points="884.28,408.99,864.43,416.41,875.33,398.23,884.28,408.99" style="stroke:#A80036;stroke-width:1.0;"/><!--MD5=[54701e1efff4a79ecbca4e585fdeee47]
link SMSSender to Notification--><path codeLine="71" d="M897.52,283.01 C887.44,310.44 868.61,361.71 855.58,397.18 " fill="none" id="SMSSender-to-Notification" style="stroke:#A80036;stroke-width:1.0;"/><polygon fill="none" points="861.98,400.05,848.51,416.41,848.84,395.22,861.98,400.05" style="stroke:#A80036;stroke-width:1.0;"/><!--MD5=[a974268a15d146cc492a72b1e077f5c1]
link EmailSender to Notification--><path codeLine="73" d="M776.59,283.01 C788.32,310.57 810.3,362.19 825.4,397.68 " fill="none" id="EmailSender-to-Notification" style="stroke:#A80036;stroke-width:1.0;"/><polygon fill="none" points="831.98,395.26,833.37,416.41,819.1,400.75,831.98,395.26" style="stroke:#A80036;stroke-width:1.0;"/><!--MD5=[4668906a1219c196cbb5c7a31e692dea]
@startuml US01_DM
hide methods
skinparam classAttributeIconSize 0

class Appointment {}

class VaccineType {
  -code
  -description
  -technology
}

class SNSUser {
  -citizenCard
  -snsNumber
  -name
  -birthDay
  -gender
  -phoneNumber
  -email
  -address
}

class VaccinationCenter {
  -name
  -address
  -emailAddress
  -phoneNumber
  -faxNumber
  -websiteAddress
  -coordinator
}

class Time {}

class Slot {}

class CommunityMassVaccinationCenter {}

class HealthCareCenter {}

class Company {
  -designation
}

class Notification {}

class ConsoleSender {}

class EmailSender {}

class SMSSender {}

Appointment "1"  - - "1" VaccineType : has >
Appointment "*" - - "1" VaccinationCenter : is held at >
Appointment "1" - - "0..1" Notification : triggers >

Company "1" - - "*" VaccinationCenter : knows >

SNSUser "1" - - "*" Appointment : schedules >

CommunityMassVaccinationCenter - -|> VaccinationCenter
CommunityMassVaccinationCenter "1" - - "1" VaccineType : administers >

VaccinationCenter "1" - - "1" Time : has >
VaccinationCenter "1" - - "1" Slot : has >

HealthCareCenter - -|> VaccinationCenter

ConsoleSender - -|> Notification

SMSSender - -|> Notification

EmailSender - -|> Notification

@enduml

PlantUML version 1.2022.0(Tue Jan 11 16:16:42 WET 2022)
(GPL source distribution)
Java Runtime: Java(TM) SE Runtime Environment
JVM: Java HotSpot(TM) 64-Bit Server VM
Default Encoding: Cp1252
Language: pt
Country: PT
--></g></svg>