<?xml version="1.0" encoding="UTF-8" standalone="no"?><svg xmlns="http://www.w3.org/2000/svg" xmlns:xlink="http://www.w3.org/1999/xlink" contentScriptType="application/ecmascript" contentStyleType="text/css" height="746px" preserveAspectRatio="none" style="width:1793px;height:746px;background:#FFFFFF;" version="1.1" viewBox="0 0 1793 746" width="1793px" zoomAndPan="magnify"><defs><filter height="300%" id="f1t8pxvavz321f" width="300%" x="-1" y="-1"><feGaussianBlur result="blurOut" stdDeviation="2.0"/><feColorMatrix in="blurOut" result="blurOut2" type="matrix" values="0 0 0 0 0 0 0 0 0 0 0 0 0 0 0 0 0 0 .4 0"/><feOffset dx="4.0" dy="4.0" in="blurOut2" result="blurOut3"/><feBlend in="SourceGraphic" in2="blurOut3" mode="normal"/></filter></defs><g><rect fill="#FFFFFF" filter="url(#f1t8pxvavz321f)" height="439.9531" style="stroke:#A80036;stroke-width:1.0;" width="10" x="100.5" y="203.8594"/><rect fill="#FFFFFF" filter="url(#f1t8pxvavz321f)" height="554.5156" style="stroke:#A80036;stroke-width:1.0;" width="10" x="218" y="98.2969"/><rect fill="#FFFFFF" filter="url(#f1t8pxvavz321f)" height="278.4219" style="stroke:#A80036;stroke-width:1.0;" width="10" x="398.5" y="203.8594"/><rect fill="#FFFFFF" filter="url(#f1t8pxvavz321f)" height="64.2656" style="stroke:#A80036;stroke-width:1.0;" width="10" x="398.5" y="511.4141"/><rect fill="#FFFFFF" filter="url(#f1t8pxvavz321f)" height="30" style="stroke:#A80036;stroke-width:1.0;" width="10" x="589.5" y="232.9922"/><rect fill="#FFFFFF" filter="url(#f1t8pxvavz321f)" height="30" style="stroke:#A80036;stroke-width:1.0;" width="10" x="818" y="399.0156"/><rect fill="#FFFFFF" filter="url(#f1t8pxvavz321f)" height="103.2656" style="stroke:#A80036;stroke-width:1.0;" width="10" x="818" y="540.5469"/><rect fill="#FFFFFF" filter="url(#f1t8pxvavz321f)" height="75.1328" style="stroke:#A80036;stroke-width:1.0;" width="10" x="1134" y="577.6797"/><rect fill="#FFFFFF" filter="url(#f1t8pxvavz321f)" height="146.6641" style="stroke:#000000;stroke-width:2.0;" width="1122" x="22" y="444.0156"/><line style="stroke:#A80036;stroke-width:1.0;stroke-dasharray:5.0,5.0;" x1="105" x2="105" y1="88.2969" y2="661.8125"/><line style="stroke:#A80036;stroke-width:1.0;stroke-dasharray:5.0,5.0;" x1="223" x2="223" y1="88.2969" y2="661.8125"/><line style="stroke:#A80036;stroke-width:1.0;stroke-dasharray:5.0,5.0;" x1="403" x2="403" y1="170.0781" y2="661.8125"/><line style="stroke:#A80036;stroke-width:1.0;stroke-dasharray:5.0,5.0;" x1="594.5" x2="594.5" y1="88.2969" y2="661.8125"/><line style="stroke:#A80036;stroke-width:1.0;stroke-dasharray:5.0,5.0;" x1="822.5" x2="822.5" y1="365.2344" y2="661.8125"/><line style="stroke:#A80036;stroke-width:1.0;stroke-dasharray:5.0,5.0;" x1="1139" x2="1139" y1="311.7891" y2="661.8125"/><line style="stroke:#A80036;stroke-width:1.0;stroke-dasharray:5.0,5.0;" x1="1266" x2="1266" y1="88.2969" y2="661.8125"/><line style="stroke:#A80036;stroke-width:1.0;stroke-dasharray:5.0,5.0;" x1="1445" x2="1445" y1="88.2969" y2="661.8125"/><line style="stroke:#A80036;stroke-width:1.0;stroke-dasharray:5.0,5.0;" x1="1681" x2="1681" y1="88.2969" y2="661.8125"/><text fill="#000000" font-family="sans-serif" font-size="14" lengthAdjust="spacing" textLength="141" x="32" y="84.9951">Receptionist / Nurse</text><ellipse cx="105.5" cy="15" fill="#FEFECE" filter="url(#f1t8pxvavz321f)" rx="8" ry="8" style="stroke:#A80036;stroke-width:2.0;"/><path d="M105.5,23 L105.5,50 M92.5,31 L118.5,31 M105.5,50 L92.5,65 M105.5,50 L118.5,65 " fill="none" filter="url(#f1t8pxvavz321f)" style="stroke:#A80036;stroke-width:2.0;"/><text fill="#000000" font-family="sans-serif" font-size="14" lengthAdjust="spacing" textLength="141" x="32" y="673.8076">Receptionist / Nurse</text><ellipse cx="105.5" cy="687.1094" fill="#FEFECE" filter="url(#f1t8pxvavz321f)" rx="8" ry="8" style="stroke:#A80036;stroke-width:2.0;"/><path d="M105.5,695.1094 L105.5,722.1094 M92.5,703.1094 L118.5,703.1094 M105.5,722.1094 L92.5,737.1094 M105.5,722.1094 L118.5,737.1094 " fill="none" filter="url(#f1t8pxvavz321f)" style="stroke:#A80036;stroke-width:2.0;"/><rect fill="#FEFECE" filter="url(#f1t8pxvavz321f)" height="30.2969" style="stroke:#A80036;stroke-width:1.5;" width="64" x="189" y="53"/><text fill="#000000" font-family="sans-serif" font-size="14" lengthAdjust="spacing" textLength="50" x="196" y="72.9951">:AuthUI</text><rect fill="#FEFECE" filter="url(#f1t8pxvavz321f)" height="30.2969" style="stroke:#A80036;stroke-width:1.5;" width="64" x="189" y="660.8125"/><text fill="#000000" font-family="sans-serif" font-size="14" lengthAdjust="spacing" textLength="50" x="196" y="680.8076">:AuthUI</text><rect fill="#FEFECE" filter="url(#f1t8pxvavz321f)" height="30.2969" style="stroke:#A80036;stroke-width:1.5;" width="269" x="267" y="660.8125"/><text fill="#000000" font-family="sans-serif" font-size="14" lengthAdjust="spacing" textLength="255" x="274" y="680.8076">:SelectEmployeeVaccinationCenterUI</text><rect fill="#FEFECE" filter="url(#f1t8pxvavz321f)" height="30.2969" style="stroke:#A80036;stroke-width:1.5;" width="46" x="569.5" y="53"/><text fill="#000000" font-family="sans-serif" font-size="14" lengthAdjust="spacing" textLength="32" x="576.5" y="72.9951">:App</text><rect fill="#FEFECE" filter="url(#f1t8pxvavz321f)" height="30.2969" style="stroke:#A80036;stroke-width:1.5;" width="46" x="569.5" y="660.8125"/><text fill="#000000" font-family="sans-serif" font-size="14" lengthAdjust="spacing" textLength="32" x="576.5" y="680.8076">:App</text><rect fill="#FEFECE" filter="url(#f1t8pxvavz321f)" height="30.2969" style="stroke:#A80036;stroke-width:1.5;" width="323" x="659.5" y="660.8125"/><text fill="#000000" font-family="sans-serif" font-size="14" lengthAdjust="spacing" textLength="309" x="666.5" y="680.8076">:SelectEmployeeVaccinationCenterController</text><rect fill="#FEFECE" filter="url(#f1t8pxvavz321f)" height="46.5938" style="stroke:#A80036;stroke-width:1.5;" width="142" x="1066" y="660.8125"/><text fill="#000000" font-family="sans-serif" font-size="14" lengthAdjust="spacing" textLength="123" x="1075.5" y="680.8076">employeeSession</text><text fill="#000000" font-family="sans-serif" font-size="14" lengthAdjust="spacing" textLength="128" x="1073" y="697.1045">:EmployeeSession</text><rect fill="#FEFECE" filter="url(#f1t8pxvavz321f)" height="46.5938" style="stroke:#A80036;stroke-width:1.5;" width="84" x="1222" y="36.7031"/><text fill="#000000" font-family="sans-serif" font-size="14" lengthAdjust="spacing" textLength="63" x="1232.5" y="56.6982">company</text><text fill="#000000" font-family="sans-serif" font-size="14" lengthAdjust="spacing" textLength="70" x="1229" y="72.9951">:Company</text><rect fill="#FEFECE" filter="url(#f1t8pxvavz321f)" height="46.5938" style="stroke:#A80036;stroke-width:1.5;" width="84" x="1222" y="660.8125"/><text fill="#000000" font-family="sans-serif" font-size="14" lengthAdjust="spacing" textLength="63" x="1232.5" y="680.8076">company</text><text fill="#000000" font-family="sans-serif" font-size="14" lengthAdjust="spacing" textLength="70" x="1229" y="697.1045">:Company</text><rect fill="#FEFECE" filter="url(#f1t8pxvavz321f)" height="46.5938" style="stroke:#A80036;stroke-width:1.5;" width="246" x="1320" y="36.7031"/><text fill="#000000" font-family="sans-serif" font-size="14" lengthAdjust="spacing" textLength="132" x="1377" y="56.6982">vaccinationCenters</text><text fill="#000000" font-family="sans-serif" font-size="14" lengthAdjust="spacing" textLength="232" x="1327" y="72.9951">:List&lt;VaccinationCenterListDTO&gt;</text><rect fill="#FEFECE" filter="url(#f1t8pxvavz321f)" height="46.5938" style="stroke:#A80036;stroke-width:1.5;" width="246" x="1320" y="660.8125"/><text fill="#000000" font-family="sans-serif" font-size="14" lengthAdjust="spacing" textLength="132" x="1377" y="680.8076">vaccinationCenters</text><text fill="#000000" font-family="sans-serif" font-size="14" lengthAdjust="spacing" textLength="232" x="1327" y="697.1045">:List&lt;VaccinationCenterListDTO&gt;</text><rect fill="#FEFECE" filter="url(#f1t8pxvavz321f)" height="46.5938" style="stroke:#A80036;stroke-width:1.5;" width="199" x="1580" y="36.7031"/><text fill="#000000" font-family="sans-serif" font-size="14" lengthAdjust="spacing" textLength="76" x="1641.5" y="56.6982">centerDTO</text><text fill="#000000" font-family="sans-serif" font-size="14" lengthAdjust="spacing" textLength="185" x="1587" y="72.9951">:VaccinationCenterListDTO</text><rect fill="#FEFECE" filter="url(#f1t8pxvavz321f)" height="46.5938" style="stroke:#A80036;stroke-width:1.5;" width="199" x="1580" y="660.8125"/><text fill="#000000" font-family="sans-serif" font-size="14" lengthAdjust="spacing" textLength="76" x="1641.5" y="680.8076">centerDTO</text><text fill="#000000" font-family="sans-serif" font-size="14" lengthAdjust="spacing" textLength="185" x="1587" y="697.1045">:VaccinationCenterListDTO</text><rect fill="#FFFFFF" filter="url(#f1t8pxvavz321f)" height="439.9531" style="stroke:#A80036;stroke-width:1.0;" width="10" x="100.5" y="203.8594"/><rect fill="#FFFFFF" filter="url(#f1t8pxvavz321f)" height="554.5156" style="stroke:#A80036;stroke-width:1.0;" width="10" x="218" y="98.2969"/><rect fill="#FFFFFF" filter="url(#f1t8pxvavz321f)" height="278.4219" style="stroke:#A80036;stroke-width:1.0;" width="10" x="398.5" y="203.8594"/><rect fill="#FFFFFF" filter="url(#f1t8pxvavz321f)" height="64.2656" style="stroke:#A80036;stroke-width:1.0;" width="10" x="398.5" y="511.4141"/><rect fill="#FFFFFF" filter="url(#f1t8pxvavz321f)" height="30" style="stroke:#A80036;stroke-width:1.0;" width="10" x="589.5" y="232.9922"/><rect fill="#FFFFFF" filter="url(#f1t8pxvavz321f)" height="30" style="stroke:#A80036;stroke-width:1.0;" width="10" x="818" y="399.0156"/><rect fill="#FFFFFF" filter="url(#f1t8pxvavz321f)" height="103.2656" style="stroke:#A80036;stroke-width:1.0;" width="10" x="818" y="540.5469"/><rect fill="#FFFFFF" filter="url(#f1t8pxvavz321f)" height="75.1328" style="stroke:#A80036;stroke-width:1.0;" width="10" x="1134" y="577.6797"/><path d="M5,103.2969 L5,128.2969 L202,128.2969 L202,113.2969 L192,103.2969 L5,103.2969 " fill="#FBFB77" filter="url(#f1t8pxvavz321f)" style="stroke:#A80036;stroke-width:1.0;"/><path d="M192,103.2969 L192,113.2969 L202,113.2969 L192,103.2969 " fill="#FBFB77" style="stroke:#A80036;stroke-width:1.0;"/><text fill="#000000" font-family="sans-serif" font-size="13" lengthAdjust="spacing" textLength="176" x="11" y="120.3638">After logging in successfully</text><polygon fill="#A80036" points="255,139.4297,265,143.4297,255,147.4297,259,143.4297" style="stroke:#A80036;stroke-width:1.0;"/><line style="stroke:#A80036;stroke-width:1.0;" x1="228" x2="261" y1="143.4297" y2="143.4297"/><rect fill="#FEFECE" filter="url(#f1t8pxvavz321f)" height="30.2969" style="stroke:#A80036;stroke-width:1.5;" width="269" x="267" y="137.4297"/><text fill="#000000" font-family="sans-serif" font-size="14" lengthAdjust="spacing" textLength="255" x="274" y="157.4248">:SelectEmployeeVaccinationCenterUI</text><polygon fill="#A80036" points="386.5,199.8594,396.5,203.8594,386.5,207.8594,390.5,203.8594" style="stroke:#A80036;stroke-width:1.0;"/><line style="stroke:#A80036;stroke-width:1.0;" x1="228" x2="392.5" y1="203.8594" y2="203.8594"/><text fill="#000000" font-family="sans-serif" font-size="13" lengthAdjust="spacing" textLength="21" x="235" y="198.7935">run</text><polygon fill="#A80036" points="577.5,228.9922,587.5,232.9922,577.5,236.9922,581.5,232.9922" style="stroke:#A80036;stroke-width:1.0;"/><line style="stroke:#A80036;stroke-width:1.0;" x1="408.5" x2="583.5" y1="232.9922" y2="232.9922"/><text fill="#000000" font-family="sans-serif" font-size="13" lengthAdjust="spacing" textLength="162" x="415.5" y="227.9263">company=getCompany()</text><polygon fill="#A80036" points="1054,272.9922,1064,276.9922,1054,280.9922,1058,276.9922" style="stroke:#A80036;stroke-width:1.0;"/><line style="stroke:#A80036;stroke-width:1.0;" x1="408.5" x2="1060" y1="276.9922" y2="276.9922"/><rect fill="#FEFECE" filter="url(#f1t8pxvavz321f)" height="46.5938" style="stroke:#A80036;stroke-width:1.5;" width="142" x="1066" y="270.9922"/><text fill="#000000" font-family="sans-serif" font-size="14" lengthAdjust="spacing" textLength="123" x="1075.5" y="290.9873">employeeSession</text><text fill="#000000" font-family="sans-serif" font-size="14" lengthAdjust="spacing" textLength="128" x="1073" y="307.2842">:EmployeeSession</text><polygon fill="#A80036" points="647.5,349.7188,657.5,353.7188,647.5,357.7188,651.5,353.7188" style="stroke:#A80036;stroke-width:1.0;"/><line style="stroke:#A80036;stroke-width:1.0;" x1="408.5" x2="653.5" y1="353.7188" y2="353.7188"/><text fill="#000000" font-family="sans-serif" font-size="13" lengthAdjust="spacing" textLength="227" x="415.5" y="348.6528">create(company,employeeSession)</text><rect fill="#FEFECE" filter="url(#f1t8pxvavz321f)" height="30.2969" style="stroke:#A80036;stroke-width:1.5;" width="323" x="659.5" y="332.5859"/><text fill="#000000" font-family="sans-serif" font-size="14" lengthAdjust="spacing" textLength="309" x="666.5" y="352.5811">:SelectEmployeeVaccinationCenterController</text><polygon fill="#A80036" points="806,395.0156,816,399.0156,806,403.0156,810,399.0156" style="stroke:#A80036;stroke-width:1.0;"/><line style="stroke:#A80036;stroke-width:1.0;" x1="408.5" x2="812" y1="399.0156" y2="399.0156"/><text fill="#000000" font-family="sans-serif" font-size="13" lengthAdjust="spacing" textLength="310" x="415.5" y="393.9497">vaccinationCenters=getVaccinationCentersList()</text><path d="M22,444.0156 L99,444.0156 L99,451.0156 L89,461.0156 L22,461.0156 L22,444.0156 " fill="#EEEEEE" style="stroke:#000000;stroke-width:1.0;"/><rect fill="none" height="146.6641" style="stroke:#000000;stroke-width:2.0;" width="1122" x="22" y="444.0156"/><text fill="#000000" font-family="sans-serif" font-size="13" font-weight="bold" lengthAdjust="spacing" textLength="32" x="37" y="457.0825">loop</text><text fill="#000000" font-family="sans-serif" font-size="11" font-weight="bold" lengthAdjust="spacing" textLength="236" x="114" y="456.2261">[while a valid center is not selected]</text><polygon fill="#A80036" points="121.5,478.2813,111.5,482.2813,121.5,486.2813,117.5,482.2813" style="stroke:#A80036;stroke-width:1.0;"/><line style="stroke:#A80036;stroke-width:1.0;stroke-dasharray:2.0,2.0;" x1="115.5" x2="402.5" y1="482.2813" y2="482.2813"/><text fill="#000000" font-family="sans-serif" font-size="13" lengthAdjust="spacing" textLength="256" x="127.5" y="477.2153">lists all the available vaccination centers</text><polygon fill="#A80036" points="386.5,507.4141,396.5,511.4141,386.5,515.4141,390.5,511.4141" style="stroke:#A80036;stroke-width:1.0;"/><line style="stroke:#A80036;stroke-width:1.0;" x1="110.5" x2="392.5" y1="511.4141" y2="511.4141"/><text fill="#000000" font-family="sans-serif" font-size="13" lengthAdjust="spacing" textLength="178" x="117.5" y="506.3481">selects a vaccination center</text><polygon fill="#A80036" points="806,536.5469,816,540.5469,806,544.5469,810,540.5469" style="stroke:#A80036;stroke-width:1.0;"/><line style="stroke:#A80036;stroke-width:1.0;" x1="408.5" x2="812" y1="540.5469" y2="540.5469"/><text fill="#000000" font-family="sans-serif" font-size="13" lengthAdjust="spacing" textLength="354" x="415.5" y="535.481">selectVaccinationCenter(centerDTO, employeeSession)</text><line style="stroke:#A80036;stroke-width:1.0;" x1="833" x2="875" y1="569.6797" y2="569.6797"/><line style="stroke:#A80036;stroke-width:1.0;" x1="875" x2="875" y1="569.6797" y2="582.6797"/><line style="stroke:#A80036;stroke-width:1.0;" x1="834" x2="875" y1="582.6797" y2="582.6797"/><polygon fill="#A80036" points="844,578.6797,834,582.6797,844,586.6797,840,582.6797" style="stroke:#A80036;stroke-width:1.0;"/><text fill="#000000" font-family="sans-serif" font-size="13" lengthAdjust="spacing" textLength="292" x="840" y="564.6138">validateVaccinationCenter(vaccinationCenter)</text><polygon fill="#A80036" points="1122,639.8125,1132,643.8125,1122,647.8125,1126,643.8125" style="stroke:#A80036;stroke-width:1.0;"/><line style="stroke:#A80036;stroke-width:1.0;" x1="823" x2="1128" y1="643.8125" y2="643.8125"/><text fill="#000000" font-family="sans-serif" font-size="13" lengthAdjust="spacing" textLength="262" x="830" y="638.7466">setVaccinationCenter(vaccinationCenter)</text><!--MD5=[148eb3eaf6acba20d3f33525d2cedf35]
@startuml


actor "Receptionist / Nurse" as NUR

note over NUR
 After logging in successfully
end note

participant ":AuthUI" as AUTHUI

activate AUTHUI
create ":SelectEmployeeVaccinationCenterUI" as UI
AUTHUI -> UI
AUTHUI -> UI : run
activate UI
participant ":App" as APP
activate NUR



UI -> APP : company=getCompany()
activate APP
deactivate APP

participant ":SelectEmployeeVaccinationCenterController" as CTRL
participant "employeeSession\n:EmployeeSession" as SESSION
UI -> SESSION **
UI -> CTRL ** : create(company,employeeSession)

UI -> CTRL : vaccinationCenters=getVaccinationCentersList()
activate CTRL
deactivate CTRL

loop while a valid center is not selected
UI - -> NUR : lists all the available vaccination centers
deactivate UI

participant "company\n:Company" as COMP

NUR -> UI : selects a vaccination center
activate UI
UI -> CTRL : selectVaccinationCenter(centerDTO, employeeSession)
activate CTRL
CTRL -> CTRL : validateVaccinationCenter(vaccinationCenter)
deactivate UI
activate SESSION
deactivate SESSION

end loop

|||

CTRL -> SESSION : setVaccinationCenter(vaccinationCenter)
deactivate CTRL

deactivate UI

deactivate NUR

participant "vaccinationCenters\n:List<VaccinationCenterListDTO>" 
participant "centerDTO\n:VaccinationCenterListDTO" 
@enduml

PlantUML version 1.2022.0(Tue Jan 11 16:16:42 WET 2022)
(GPL source distribution)
Java Runtime: OpenJDK Runtime Environment
JVM: OpenJDK 64-Bit Server VM
Default Encoding: UTF-8
Language: en
Country: US
--></g></svg>