<?xml version="1.0" encoding="UTF-8" standalone="no"?><svg xmlns="http://www.w3.org/2000/svg" xmlns:xlink="http://www.w3.org/1999/xlink" contentScriptType="application/ecmascript" contentStyleType="text/css" height="837px" preserveAspectRatio="none" style="width:1893px;height:837px;background:#FFFFFF;" version="1.1" viewBox="0 0 1893 837" width="1893px" zoomAndPan="magnify"><defs><filter height="300%" id="f1t7z4n6i54nzs" width="300%" x="-1" y="-1"><feGaussianBlur result="blurOut" stdDeviation="2.0"/><feColorMatrix in="blurOut" result="blurOut2" type="matrix" values="0 0 0 0 0 0 0 0 0 0 0 0 0 0 0 0 0 0 .4 0"/><feOffset dx="4.0" dy="4.0" in="blurOut2" result="blurOut3"/><feBlend in="SourceGraphic" in2="blurOut3" mode="normal"/></filter></defs><g><rect fill="#FFFFFF" filter="url(#f1t7z4n6i54nzs)" height="499.9531" style="stroke:#A80036;stroke-width:1.0;" width="10" x="225.5" y="203.8594"/><rect fill="#FFFFFF" filter="url(#f1t7z4n6i54nzs)" height="645.6484" style="stroke:#A80036;stroke-width:1.0;" width="10" x="343" y="98.2969"/><rect fill="#FFFFFF" filter="url(#f1t7z4n6i54nzs)" height="337.5547" style="stroke:#A80036;stroke-width:1.0;" width="10" x="523.5" y="203.8594"/><rect fill="#FFFFFF" filter="url(#f1t7z4n6i54nzs)" height="59.1328" style="stroke:#A80036;stroke-width:1.0;" width="10" x="523.5" y="570.5469"/><rect fill="#FFFFFF" filter="url(#f1t7z4n6i54nzs)" height="30" style="stroke:#A80036;stroke-width:1.0;" width="10" x="714.5" y="232.9922"/><rect fill="#FFFFFF" filter="url(#f1t7z4n6i54nzs)" height="30" style="stroke:#A80036;stroke-width:1.0;" width="10" x="943" y="399.0156"/><rect fill="#FFFFFF" filter="url(#f1t7z4n6i54nzs)" height="104.1328" style="stroke:#A80036;stroke-width:1.0;" width="10" x="943" y="599.6797"/><rect fill="#FFFFFF" filter="url(#f1t7z4n6i54nzs)" height="30" style="stroke:#A80036;stroke-width:1.0;" width="10" x="1234" y="482.2813"/><rect fill="#FFFFFF" filter="url(#f1t7z4n6i54nzs)" height="30" style="stroke:#A80036;stroke-width:1.0;" width="10" x="1234" y="658.8125"/><rect fill="#FFFFFF" filter="url(#f1t7z4n6i54nzs)" height="252.7969" style="stroke:#000000;stroke-width:2.0;" width="1175" x="147" y="444.0156"/><line style="stroke:#A80036;stroke-width:1.0;stroke-dasharray:5.0,5.0;" x1="230" x2="230" y1="88.2969" y2="752.9453"/><line style="stroke:#A80036;stroke-width:1.0;stroke-dasharray:5.0,5.0;" x1="348" x2="348" y1="88.2969" y2="752.9453"/><line style="stroke:#A80036;stroke-width:1.0;stroke-dasharray:5.0,5.0;" x1="528" x2="528" y1="170.0781" y2="752.9453"/><line style="stroke:#A80036;stroke-width:1.0;stroke-dasharray:5.0,5.0;" x1="719.5" x2="719.5" y1="88.2969" y2="752.9453"/><line style="stroke:#A80036;stroke-width:1.0;stroke-dasharray:5.0,5.0;" x1="947.5" x2="947.5" y1="365.2344" y2="752.9453"/><line style="stroke:#A80036;stroke-width:1.0;stroke-dasharray:5.0,5.0;" x1="1239" x2="1239" y1="311.7891" y2="752.9453"/><line style="stroke:#A80036;stroke-width:1.0;stroke-dasharray:5.0,5.0;" x1="1366" x2="1366" y1="88.2969" y2="752.9453"/><line style="stroke:#A80036;stroke-width:1.0;stroke-dasharray:5.0,5.0;" x1="1545" x2="1545" y1="88.2969" y2="752.9453"/><line style="stroke:#A80036;stroke-width:1.0;stroke-dasharray:5.0,5.0;" x1="1781" x2="1781" y1="88.2969" y2="752.9453"/><text fill="#000000" font-family="sans-serif" font-size="14" lengthAdjust="spacing" textLength="141" x="157" y="84.9951">Receptionist / Nurse</text><ellipse cx="230.5" cy="15" fill="#FEFECE" filter="url(#f1t7z4n6i54nzs)" rx="8" ry="8" style="stroke:#A80036;stroke-width:2.0;"/><path d="M230.5,23 L230.5,50 M217.5,31 L243.5,31 M230.5,50 L217.5,65 M230.5,50 L243.5,65 " fill="none" filter="url(#f1t7z4n6i54nzs)" style="stroke:#A80036;stroke-width:2.0;"/><text fill="#000000" font-family="sans-serif" font-size="14" lengthAdjust="spacing" textLength="141" x="157" y="764.9404">Receptionist / Nurse</text><ellipse cx="230.5" cy="778.2422" fill="#FEFECE" filter="url(#f1t7z4n6i54nzs)" rx="8" ry="8" style="stroke:#A80036;stroke-width:2.0;"/><path d="M230.5,786.2422 L230.5,813.2422 M217.5,794.2422 L243.5,794.2422 M230.5,813.2422 L217.5,828.2422 M230.5,813.2422 L243.5,828.2422 " fill="none" filter="url(#f1t7z4n6i54nzs)" style="stroke:#A80036;stroke-width:2.0;"/><rect fill="#FEFECE" filter="url(#f1t7z4n6i54nzs)" height="30.2969" style="stroke:#A80036;stroke-width:1.5;" width="64" x="314" y="53"/><text fill="#000000" font-family="sans-serif" font-size="14" lengthAdjust="spacing" textLength="50" x="321" y="72.9951">:AuthUI</text><rect fill="#FEFECE" filter="url(#f1t7z4n6i54nzs)" height="30.2969" style="stroke:#A80036;stroke-width:1.5;" width="64" x="314" y="751.9453"/><text fill="#000000" font-family="sans-serif" font-size="14" lengthAdjust="spacing" textLength="50" x="321" y="771.9404">:AuthUI</text><rect fill="#FEFECE" filter="url(#f1t7z4n6i54nzs)" height="30.2969" style="stroke:#A80036;stroke-width:1.5;" width="269" x="392" y="751.9453"/><text fill="#000000" font-family="sans-serif" font-size="14" lengthAdjust="spacing" textLength="255" x="399" y="771.9404">:SelectEmployeeVaccinationCenterUI</text><rect fill="#FEFECE" filter="url(#f1t7z4n6i54nzs)" height="30.2969" style="stroke:#A80036;stroke-width:1.5;" width="46" x="694.5" y="53"/><text fill="#000000" font-family="sans-serif" font-size="14" lengthAdjust="spacing" textLength="32" x="701.5" y="72.9951">:App</text><rect fill="#FEFECE" filter="url(#f1t7z4n6i54nzs)" height="30.2969" style="stroke:#A80036;stroke-width:1.5;" width="46" x="694.5" y="751.9453"/><text fill="#000000" font-family="sans-serif" font-size="14" lengthAdjust="spacing" textLength="32" x="701.5" y="771.9404">:App</text><rect fill="#FEFECE" filter="url(#f1t7z4n6i54nzs)" height="30.2969" style="stroke:#A80036;stroke-width:1.5;" width="323" x="784.5" y="751.9453"/><text fill="#000000" font-family="sans-serif" font-size="14" lengthAdjust="spacing" textLength="309" x="791.5" y="771.9404">:SelectEmployeeVaccinationCenterController</text><rect fill="#FEFECE" filter="url(#f1t7z4n6i54nzs)" height="46.5938" style="stroke:#A80036;stroke-width:1.5;" width="142" x="1166" y="751.9453"/><text fill="#000000" font-family="sans-serif" font-size="14" lengthAdjust="spacing" textLength="123" x="1175.5" y="771.9404">employeeSession</text><text fill="#000000" font-family="sans-serif" font-size="14" lengthAdjust="spacing" textLength="128" x="1173" y="788.2373">:EmployeeSession</text><rect fill="#FEFECE" filter="url(#f1t7z4n6i54nzs)" height="46.5938" style="stroke:#A80036;stroke-width:1.5;" width="84" x="1322" y="36.7031"/><text fill="#000000" font-family="sans-serif" font-size="14" lengthAdjust="spacing" textLength="63" x="1332.5" y="56.6982">company</text><text fill="#000000" font-family="sans-serif" font-size="14" lengthAdjust="spacing" textLength="70" x="1329" y="72.9951">:Company</text><rect fill="#FEFECE" filter="url(#f1t7z4n6i54nzs)" height="46.5938" style="stroke:#A80036;stroke-width:1.5;" width="84" x="1322" y="751.9453"/><text fill="#000000" font-family="sans-serif" font-size="14" lengthAdjust="spacing" textLength="63" x="1332.5" y="771.9404">company</text><text fill="#000000" font-family="sans-serif" font-size="14" lengthAdjust="spacing" textLength="70" x="1329" y="788.2373">:Company</text><rect fill="#FEFECE" filter="url(#f1t7z4n6i54nzs)" height="46.5938" style="stroke:#A80036;stroke-width:1.5;" width="246" x="1420" y="36.7031"/><text fill="#000000" font-family="sans-serif" font-size="14" lengthAdjust="spacing" textLength="132" x="1477" y="56.6982">vaccinationCenters</text><text fill="#000000" font-family="sans-serif" font-size="14" lengthAdjust="spacing" textLength="232" x="1427" y="72.9951">:List&lt;VaccinationCenterListDTO&gt;</text><rect fill="#FEFECE" filter="url(#f1t7z4n6i54nzs)" height="46.5938" style="stroke:#A80036;stroke-width:1.5;" width="246" x="1420" y="751.9453"/><text fill="#000000" font-family="sans-serif" font-size="14" lengthAdjust="spacing" textLength="132" x="1477" y="771.9404">vaccinationCenters</text><text fill="#000000" font-family="sans-serif" font-size="14" lengthAdjust="spacing" textLength="232" x="1427" y="788.2373">:List&lt;VaccinationCenterListDTO&gt;</text><rect fill="#FEFECE" filter="url(#f1t7z4n6i54nzs)" height="46.5938" style="stroke:#A80036;stroke-width:1.5;" width="199" x="1680" y="36.7031"/><text fill="#000000" font-family="sans-serif" font-size="14" lengthAdjust="spacing" textLength="76" x="1741.5" y="56.6982">centerDTO</text><text fill="#000000" font-family="sans-serif" font-size="14" lengthAdjust="spacing" textLength="185" x="1687" y="72.9951">:VaccinationCenterListDTO</text><rect fill="#FEFECE" filter="url(#f1t7z4n6i54nzs)" height="46.5938" style="stroke:#A80036;stroke-width:1.5;" width="199" x="1680" y="751.9453"/><text fill="#000000" font-family="sans-serif" font-size="14" lengthAdjust="spacing" textLength="76" x="1741.5" y="771.9404">centerDTO</text><text fill="#000000" font-family="sans-serif" font-size="14" lengthAdjust="spacing" textLength="185" x="1687" y="788.2373">:VaccinationCenterListDTO</text><rect fill="#FFFFFF" filter="url(#f1t7z4n6i54nzs)" height="499.9531" style="stroke:#A80036;stroke-width:1.0;" width="10" x="225.5" y="203.8594"/><rect fill="#FFFFFF" filter="url(#f1t7z4n6i54nzs)" height="645.6484" style="stroke:#A80036;stroke-width:1.0;" width="10" x="343" y="98.2969"/><rect fill="#FFFFFF" filter="url(#f1t7z4n6i54nzs)" height="337.5547" style="stroke:#A80036;stroke-width:1.0;" width="10" x="523.5" y="203.8594"/><rect fill="#FFFFFF" filter="url(#f1t7z4n6i54nzs)" height="59.1328" style="stroke:#A80036;stroke-width:1.0;" width="10" x="523.5" y="570.5469"/><rect fill="#FFFFFF" filter="url(#f1t7z4n6i54nzs)" height="30" style="stroke:#A80036;stroke-width:1.0;" width="10" x="714.5" y="232.9922"/><rect fill="#FFFFFF" filter="url(#f1t7z4n6i54nzs)" height="30" style="stroke:#A80036;stroke-width:1.0;" width="10" x="943" y="399.0156"/><rect fill="#FFFFFF" filter="url(#f1t7z4n6i54nzs)" height="104.1328" style="stroke:#A80036;stroke-width:1.0;" width="10" x="943" y="599.6797"/><rect fill="#FFFFFF" filter="url(#f1t7z4n6i54nzs)" height="30" style="stroke:#A80036;stroke-width:1.0;" width="10" x="1234" y="482.2813"/><rect fill="#FFFFFF" filter="url(#f1t7z4n6i54nzs)" height="30" style="stroke:#A80036;stroke-width:1.0;" width="10" x="1234" y="658.8125"/><path d="M130,103.2969 L130,128.2969 L327,128.2969 L327,113.2969 L317,103.2969 L130,103.2969 " fill="#FBFB77" filter="url(#f1t7z4n6i54nzs)" style="stroke:#A80036;stroke-width:1.0;"/><path d="M317,103.2969 L317,113.2969 L327,113.2969 L317,103.2969 " fill="#FBFB77" style="stroke:#A80036;stroke-width:1.0;"/><text fill="#000000" font-family="sans-serif" font-size="13" lengthAdjust="spacing" textLength="176" x="136" y="120.3638">After logging in successfully</text><polygon fill="#A80036" points="380,139.4297,390,143.4297,380,147.4297,384,143.4297" style="stroke:#A80036;stroke-width:1.0;"/><line style="stroke:#A80036;stroke-width:1.0;" x1="353" x2="386" y1="143.4297" y2="143.4297"/><rect fill="#FEFECE" filter="url(#f1t7z4n6i54nzs)" height="30.2969" style="stroke:#A80036;stroke-width:1.5;" width="269" x="392" y="137.4297"/><text fill="#000000" font-family="sans-serif" font-size="14" lengthAdjust="spacing" textLength="255" x="399" y="157.4248">:SelectEmployeeVaccinationCenterUI</text><polygon fill="#A80036" points="511.5,199.8594,521.5,203.8594,511.5,207.8594,515.5,203.8594" style="stroke:#A80036;stroke-width:1.0;"/><line style="stroke:#A80036;stroke-width:1.0;" x1="353" x2="517.5" y1="203.8594" y2="203.8594"/><text fill="#000000" font-family="sans-serif" font-size="13" lengthAdjust="spacing" textLength="21" x="360" y="198.7935">run</text><polygon fill="#A80036" points="702.5,228.9922,712.5,232.9922,702.5,236.9922,706.5,232.9922" style="stroke:#A80036;stroke-width:1.0;"/><line style="stroke:#A80036;stroke-width:1.0;" x1="533.5" x2="708.5" y1="232.9922" y2="232.9922"/><text fill="#000000" font-family="sans-serif" font-size="13" lengthAdjust="spacing" textLength="162" x="540.5" y="227.9263">company=getCompany()</text><polygon fill="#A80036" points="1154,272.9922,1164,276.9922,1154,280.9922,1158,276.9922" style="stroke:#A80036;stroke-width:1.0;"/><line style="stroke:#A80036;stroke-width:1.0;" x1="533.5" x2="1160" y1="276.9922" y2="276.9922"/><rect fill="#FEFECE" filter="url(#f1t7z4n6i54nzs)" height="46.5938" style="stroke:#A80036;stroke-width:1.5;" width="142" x="1166" y="270.9922"/><text fill="#000000" font-family="sans-serif" font-size="14" lengthAdjust="spacing" textLength="123" x="1175.5" y="290.9873">employeeSession</text><text fill="#000000" font-family="sans-serif" font-size="14" lengthAdjust="spacing" textLength="128" x="1173" y="307.2842">:EmployeeSession</text><polygon fill="#A80036" points="772.5,349.7188,782.5,353.7188,772.5,357.7188,776.5,353.7188" style="stroke:#A80036;stroke-width:1.0;"/><line style="stroke:#A80036;stroke-width:1.0;" x1="533.5" x2="778.5" y1="353.7188" y2="353.7188"/><text fill="#000000" font-family="sans-serif" font-size="13" lengthAdjust="spacing" textLength="227" x="540.5" y="348.6528">create(company,employeeSession)</text><rect fill="#FEFECE" filter="url(#f1t7z4n6i54nzs)" height="30.2969" style="stroke:#A80036;stroke-width:1.5;" width="323" x="784.5" y="332.5859"/><text fill="#000000" font-family="sans-serif" font-size="14" lengthAdjust="spacing" textLength="309" x="791.5" y="352.5811">:SelectEmployeeVaccinationCenterController</text><polygon fill="#A80036" points="931,395.0156,941,399.0156,931,403.0156,935,399.0156" style="stroke:#A80036;stroke-width:1.0;"/><line style="stroke:#A80036;stroke-width:1.0;" x1="533.5" x2="937" y1="399.0156" y2="399.0156"/><text fill="#000000" font-family="sans-serif" font-size="13" lengthAdjust="spacing" textLength="310" x="540.5" y="393.9497">vaccinationCenters=getVaccinationCentersList()</text><path d="M147,444.0156 L224,444.0156 L224,451.0156 L214,461.0156 L147,461.0156 L147,444.0156 " fill="#EEEEEE" style="stroke:#000000;stroke-width:1.0;"/><rect fill="none" height="252.7969" style="stroke:#000000;stroke-width:2.0;" width="1175" x="147" y="444.0156"/><text fill="#000000" font-family="sans-serif" font-size="13" font-weight="bold" lengthAdjust="spacing" textLength="32" x="162" y="457.0825">loop</text><text fill="#000000" font-family="sans-serif" font-size="11" font-weight="bold" lengthAdjust="spacing" textLength="131" x="239" y="456.2261">[while valid is false]</text><polygon fill="#A80036" points="1222,478.2813,1232,482.2813,1222,486.2813,1226,482.2813" style="stroke:#A80036;stroke-width:1.0;"/><line style="stroke:#A80036;stroke-width:1.0;" x1="533.5" x2="1228" y1="482.2813" y2="482.2813"/><text fill="#000000" font-family="sans-serif" font-size="13" lengthAdjust="spacing" textLength="116" x="540.5" y="477.2153">valid=hasCenter()</text><polygon fill="#A80036" points="246.5,537.4141,236.5,541.4141,246.5,545.4141,242.5,541.4141" style="stroke:#A80036;stroke-width:1.0;"/><line style="stroke:#A80036;stroke-width:1.0;stroke-dasharray:2.0,2.0;" x1="240.5" x2="527.5" y1="541.4141" y2="541.4141"/><text fill="#000000" font-family="sans-serif" font-size="13" lengthAdjust="spacing" textLength="256" x="252.5" y="536.3481">lists all the available vaccination centers</text><polygon fill="#A80036" points="511.5,566.5469,521.5,570.5469,511.5,574.5469,515.5,570.5469" style="stroke:#A80036;stroke-width:1.0;"/><line style="stroke:#A80036;stroke-width:1.0;" x1="235.5" x2="517.5" y1="570.5469" y2="570.5469"/><text fill="#000000" font-family="sans-serif" font-size="13" lengthAdjust="spacing" textLength="178" x="242.5" y="565.481">selects a vaccination center</text><polygon fill="#A80036" points="931,595.6797,941,599.6797,931,603.6797,935,599.6797" style="stroke:#A80036;stroke-width:1.0;"/><line style="stroke:#A80036;stroke-width:1.0;" x1="533.5" x2="937" y1="599.6797" y2="599.6797"/><text fill="#000000" font-family="sans-serif" font-size="13" lengthAdjust="spacing" textLength="354" x="540.5" y="594.6138">selectVaccinationCenter(centerDTO, employeeSession)</text><polygon fill="#A80036" points="1222,654.8125,1232,658.8125,1222,662.8125,1226,658.8125" style="stroke:#A80036;stroke-width:1.0;"/><line style="stroke:#A80036;stroke-width:1.0;" x1="953" x2="1228" y1="658.8125" y2="658.8125"/><text fill="#000000" font-family="sans-serif" font-size="13" lengthAdjust="spacing" textLength="262" x="960" y="653.7466">setVaccinationCenter(vaccinationCenter)</text><path d="M5,708.8125 L5,733.8125 L453,733.8125 L453,718.8125 L443,708.8125 L5,708.8125 " fill="#FBFB77" filter="url(#f1t7z4n6i54nzs)" style="stroke:#A80036;stroke-width:1.0;"/><path d="M443,708.8125 L443,718.8125 L453,718.8125 L443,708.8125 " fill="#FBFB77" style="stroke:#A80036;stroke-width:1.0;"/><text fill="#000000" font-family="sans-serif" font-size="13" lengthAdjust="spacing" textLength="427" x="11" y="725.8794">The employee vaccination center is stored in the EmployeeSession</text><!--MD5=[1741bea4a2a8a048b4a781eff77dd4f5]
@startuml
actor "Receptionist / Nurse" as NUR

note over NUR
 After logging in successfully
end note

participant ":AuthUI" as AUTHUI

activate AUTHUI
create ":SelectEmployeeVaccinationCenterUI" as UI
AUTHUI -> UI
AUTHUI -> UI : run
activate UI
participant ":App" as APP
activate NUR

UI -> APP : company=getCompany()
activate APP
deactivate APP

participant ":SelectEmployeeVaccinationCenterController" as CTRL
participant "employeeSession\n:EmployeeSession" as SESSION
UI -> SESSION **
UI -> CTRL ** : create(company,employeeSession)

UI -> CTRL : vaccinationCenters=getVaccinationCentersList()
activate CTRL
deactivate CTRL

loop while valid is false
UI -> SESSION : valid=hasCenter()
activate SESSION
deactivate SESSION

UI - -> NUR : lists all the available vaccination centers
deactivate UI

participant "company\n:Company" as COMP

NUR -> UI : selects a vaccination center
activate UI
UI -> CTRL : selectVaccinationCenter(centerDTO, employeeSession)
activate CTRL
deactivate UI
CTRL -> SESSION : setVaccinationCenter(vaccinationCenter)
activate SESSION
deactivate SESSION

end loop

deactivate CTRL

deactivate UI

deactivate NUR

participant "vaccinationCenters\n:List<VaccinationCenterListDTO>" 
participant "centerDTO\n:VaccinationCenterListDTO" 

note over NUR
  The employee vaccination center is stored in the EmployeeSession
end note
@enduml

PlantUML version 1.2022.0(Tue Jan 11 16:16:42 WET 2022)
(GPL source distribution)
Java Runtime: OpenJDK Runtime Environment
JVM: OpenJDK 64-Bit Server VM
Default Encoding: UTF-8
Language: en
Country: US
--></g></svg>