<?xml version="1.0" encoding="UTF-8" standalone="no"?><svg xmlns="http://www.w3.org/2000/svg" xmlns:xlink="http://www.w3.org/1999/xlink" contentScriptType="application/ecmascript" contentStyleType="text/css" height="907px" preserveAspectRatio="none" style="width:2067px;height:907px;background:#FFFFFF;" version="1.1" viewBox="0 0 2067 907" width="2067px" zoomAndPan="magnify"><defs><filter height="300%" id="f5s7oh0zsnnyx" width="300%" x="-1" y="-1"><feGaussianBlur result="blurOut" stdDeviation="2.0"/><feColorMatrix in="blurOut" result="blurOut2" type="matrix" values="0 0 0 0 0 0 0 0 0 0 0 0 0 0 0 0 0 0 .4 0"/><feOffset dx="4.0" dy="4.0" in="blurOut2" result="blurOut3"/><feBlend in="SourceGraphic" in2="blurOut3" mode="normal"/></filter></defs><g><rect fill="#FFFFFF" filter="url(#f5s7oh0zsnnyx)" height="438.3594" style="stroke:#A80036;stroke-width:1.0;" width="10" x="225.5" y="310.75"/><rect fill="#FFFFFF" filter="url(#f5s7oh0zsnnyx)" height="715.9453" style="stroke:#A80036;stroke-width:1.0;" width="10" x="343" y="98.2969"/><rect fill="#FFFFFF" filter="url(#f5s7oh0zsnnyx)" height="580.6797" style="stroke:#A80036;stroke-width:1.0;" width="10" x="439" y="153.4297"/><rect fill="#FFFFFF" filter="url(#f5s7oh0zsnnyx)" height="275.9609" style="stroke:#A80036;stroke-width:1.0;" width="10" x="637.5" y="310.75"/><rect fill="#FFFFFF" filter="url(#f5s7oh0zsnnyx)" height="59.1328" style="stroke:#A80036;stroke-width:1.0;" width="10" x="637.5" y="615.8438"/><rect fill="#FFFFFF" filter="url(#f5s7oh0zsnnyx)" height="30" style="stroke:#A80036;stroke-width:1.0;" width="10" x="1057" y="444.3125"/><rect fill="#FFFFFF" filter="url(#f5s7oh0zsnnyx)" height="104.1328" style="stroke:#A80036;stroke-width:1.0;" width="10" x="1057" y="644.9766"/><rect fill="#FFFFFF" filter="url(#f5s7oh0zsnnyx)" height="30" style="stroke:#A80036;stroke-width:1.0;" width="10" x="1348" y="527.5781"/><rect fill="#FFFFFF" filter="url(#f5s7oh0zsnnyx)" height="30" style="stroke:#A80036;stroke-width:1.0;" width="10" x="1348" y="704.1094"/><rect fill="#FFFFFF" filter="url(#f5s7oh0zsnnyx)" height="30" style="stroke:#A80036;stroke-width:1.0;" width="10" x="1456" y="339.8828"/><rect fill="#FFFFFF" filter="url(#f5s7oh0zsnnyx)" height="252.7969" style="stroke:#000000;stroke-width:2.0;" width="1289" x="147" y="489.3125"/><line style="stroke:#A80036;stroke-width:1.0;stroke-dasharray:5.0,5.0;" x1="230" x2="230" y1="88.2969" y2="823.2422"/><line style="stroke:#A80036;stroke-width:1.0;stroke-dasharray:5.0,5.0;" x1="348" x2="348" y1="88.2969" y2="823.2422"/><line style="stroke:#A80036;stroke-width:1.0;stroke-dasharray:5.0,5.0;" x1="444" x2="444" y1="170.0781" y2="823.2422"/><line style="stroke:#A80036;stroke-width:1.0;stroke-dasharray:5.0,5.0;" x1="642" x2="642" y1="276.9688" y2="823.2422"/><line style="stroke:#A80036;stroke-width:1.0;stroke-dasharray:5.0,5.0;" x1="1061.5" x2="1061.5" y1="410.5313" y2="823.2422"/><line style="stroke:#A80036;stroke-width:1.0;stroke-dasharray:5.0,5.0;" x1="1353" x2="1353" y1="223.5234" y2="823.2422"/><line style="stroke:#A80036;stroke-width:1.0;stroke-dasharray:5.0,5.0;" x1="1461" x2="1461" y1="88.2969" y2="823.2422"/><line style="stroke:#A80036;stroke-width:1.0;stroke-dasharray:5.0,5.0;" x1="1540" x2="1540" y1="88.2969" y2="823.2422"/><line style="stroke:#A80036;stroke-width:1.0;stroke-dasharray:5.0,5.0;" x1="1719" x2="1719" y1="88.2969" y2="823.2422"/><line style="stroke:#A80036;stroke-width:1.0;stroke-dasharray:5.0,5.0;" x1="1955" x2="1955" y1="88.2969" y2="823.2422"/><text fill="#000000" font-family="sans-serif" font-size="14" lengthAdjust="spacing" textLength="141" x="157" y="84.9951">Receptionist / Nurse</text><ellipse cx="230.5" cy="15" fill="#FEFECE" filter="url(#f5s7oh0zsnnyx)" rx="8" ry="8" style="stroke:#A80036;stroke-width:2.0;"/><path d="M230.5,23 L230.5,50 M217.5,31 L243.5,31 M230.5,50 L217.5,65 M230.5,50 L243.5,65 " fill="none" filter="url(#f5s7oh0zsnnyx)" style="stroke:#A80036;stroke-width:2.0;"/><text fill="#000000" font-family="sans-serif" font-size="14" lengthAdjust="spacing" textLength="141" x="157" y="835.2373">Receptionist / Nurse</text><ellipse cx="230.5" cy="848.5391" fill="#FEFECE" filter="url(#f5s7oh0zsnnyx)" rx="8" ry="8" style="stroke:#A80036;stroke-width:2.0;"/><path d="M230.5,856.5391 L230.5,883.5391 M217.5,864.5391 L243.5,864.5391 M230.5,883.5391 L217.5,898.5391 M230.5,883.5391 L243.5,898.5391 " fill="none" filter="url(#f5s7oh0zsnnyx)" style="stroke:#A80036;stroke-width:2.0;"/><rect fill="#FEFECE" filter="url(#f5s7oh0zsnnyx)" height="30.2969" style="stroke:#A80036;stroke-width:1.5;" width="64" x="314" y="53"/><text fill="#000000" font-family="sans-serif" font-size="14" lengthAdjust="spacing" textLength="50" x="321" y="72.9951">:AuthUI</text><rect fill="#FEFECE" filter="url(#f5s7oh0zsnnyx)" height="30.2969" style="stroke:#A80036;stroke-width:1.5;" width="64" x="314" y="822.2422"/><text fill="#000000" font-family="sans-serif" font-size="14" lengthAdjust="spacing" textLength="50" x="321" y="842.2373">:AuthUI</text><rect fill="#FEFECE" filter="url(#f5s7oh0zsnnyx)" height="30.2969" style="stroke:#A80036;stroke-width:1.5;" width="100" x="392" y="822.2422"/><text fill="#000000" font-family="sans-serif" font-size="14" lengthAdjust="spacing" textLength="86" x="399" y="842.2373">:EmployeeUI</text><rect fill="#FEFECE" filter="url(#f5s7oh0zsnnyx)" height="30.2969" style="stroke:#A80036;stroke-width:1.5;" width="269" x="506" y="822.2422"/><text fill="#000000" font-family="sans-serif" font-size="14" lengthAdjust="spacing" textLength="255" x="513" y="842.2373">:SelectEmployeeVaccinationCenterUI</text><rect fill="#FEFECE" filter="url(#f5s7oh0zsnnyx)" height="30.2969" style="stroke:#A80036;stroke-width:1.5;" width="323" x="898.5" y="822.2422"/><text fill="#000000" font-family="sans-serif" font-size="14" lengthAdjust="spacing" textLength="309" x="905.5" y="842.2373">:SelectEmployeeVaccinationCenterController</text><rect fill="#FEFECE" filter="url(#f5s7oh0zsnnyx)" height="46.5938" style="stroke:#A80036;stroke-width:1.5;" width="142" x="1280" y="822.2422"/><text fill="#000000" font-family="sans-serif" font-size="14" lengthAdjust="spacing" textLength="123" x="1289.5" y="842.2373">employeeSession</text><text fill="#000000" font-family="sans-serif" font-size="14" lengthAdjust="spacing" textLength="128" x="1287" y="858.5342">:EmployeeSession</text><rect fill="#FEFECE" filter="url(#f5s7oh0zsnnyx)" height="30.2969" style="stroke:#A80036;stroke-width:1.5;" width="46" x="1436" y="53"/><text fill="#000000" font-family="sans-serif" font-size="14" lengthAdjust="spacing" textLength="32" x="1443" y="72.9951">:App</text><rect fill="#FEFECE" filter="url(#f5s7oh0zsnnyx)" height="30.2969" style="stroke:#A80036;stroke-width:1.5;" width="46" x="1436" y="822.2422"/><text fill="#000000" font-family="sans-serif" font-size="14" lengthAdjust="spacing" textLength="32" x="1443" y="842.2373">:App</text><rect fill="#FEFECE" filter="url(#f5s7oh0zsnnyx)" height="46.5938" style="stroke:#A80036;stroke-width:1.5;" width="84" x="1496" y="36.7031"/><text fill="#000000" font-family="sans-serif" font-size="14" lengthAdjust="spacing" textLength="63" x="1506.5" y="56.6982">company</text><text fill="#000000" font-family="sans-serif" font-size="14" lengthAdjust="spacing" textLength="70" x="1503" y="72.9951">:Company</text><rect fill="#FEFECE" filter="url(#f5s7oh0zsnnyx)" height="46.5938" style="stroke:#A80036;stroke-width:1.5;" width="84" x="1496" y="822.2422"/><text fill="#000000" font-family="sans-serif" font-size="14" lengthAdjust="spacing" textLength="63" x="1506.5" y="842.2373">company</text><text fill="#000000" font-family="sans-serif" font-size="14" lengthAdjust="spacing" textLength="70" x="1503" y="858.5342">:Company</text><rect fill="#FEFECE" filter="url(#f5s7oh0zsnnyx)" height="46.5938" style="stroke:#A80036;stroke-width:1.5;" width="246" x="1594" y="36.7031"/><text fill="#000000" font-family="sans-serif" font-size="14" lengthAdjust="spacing" textLength="132" x="1651" y="56.6982">vaccinationCenters</text><text fill="#000000" font-family="sans-serif" font-size="14" lengthAdjust="spacing" textLength="232" x="1601" y="72.9951">:List&lt;VaccinationCenterListDTO&gt;</text><rect fill="#FEFECE" filter="url(#f5s7oh0zsnnyx)" height="46.5938" style="stroke:#A80036;stroke-width:1.5;" width="246" x="1594" y="822.2422"/><text fill="#000000" font-family="sans-serif" font-size="14" lengthAdjust="spacing" textLength="132" x="1651" y="842.2373">vaccinationCenters</text><text fill="#000000" font-family="sans-serif" font-size="14" lengthAdjust="spacing" textLength="232" x="1601" y="858.5342">:List&lt;VaccinationCenterListDTO&gt;</text><rect fill="#FEFECE" filter="url(#f5s7oh0zsnnyx)" height="46.5938" style="stroke:#A80036;stroke-width:1.5;" width="199" x="1854" y="36.7031"/><text fill="#000000" font-family="sans-serif" font-size="14" lengthAdjust="spacing" textLength="76" x="1915.5" y="56.6982">centerDTO</text><text fill="#000000" font-family="sans-serif" font-size="14" lengthAdjust="spacing" textLength="185" x="1861" y="72.9951">:VaccinationCenterListDTO</text><rect fill="#FEFECE" filter="url(#f5s7oh0zsnnyx)" height="46.5938" style="stroke:#A80036;stroke-width:1.5;" width="199" x="1854" y="822.2422"/><text fill="#000000" font-family="sans-serif" font-size="14" lengthAdjust="spacing" textLength="76" x="1915.5" y="842.2373">centerDTO</text><text fill="#000000" font-family="sans-serif" font-size="14" lengthAdjust="spacing" textLength="185" x="1861" y="858.5342">:VaccinationCenterListDTO</text><rect fill="#FFFFFF" filter="url(#f5s7oh0zsnnyx)" height="438.3594" style="stroke:#A80036;stroke-width:1.0;" width="10" x="225.5" y="310.75"/><rect fill="#FFFFFF" filter="url(#f5s7oh0zsnnyx)" height="715.9453" style="stroke:#A80036;stroke-width:1.0;" width="10" x="343" y="98.2969"/><rect fill="#FFFFFF" filter="url(#f5s7oh0zsnnyx)" height="580.6797" style="stroke:#A80036;stroke-width:1.0;" width="10" x="439" y="153.4297"/><rect fill="#FFFFFF" filter="url(#f5s7oh0zsnnyx)" height="275.9609" style="stroke:#A80036;stroke-width:1.0;" width="10" x="637.5" y="310.75"/><rect fill="#FFFFFF" filter="url(#f5s7oh0zsnnyx)" height="59.1328" style="stroke:#A80036;stroke-width:1.0;" width="10" x="637.5" y="615.8438"/><rect fill="#FFFFFF" filter="url(#f5s7oh0zsnnyx)" height="30" style="stroke:#A80036;stroke-width:1.0;" width="10" x="1057" y="444.3125"/><rect fill="#FFFFFF" filter="url(#f5s7oh0zsnnyx)" height="104.1328" style="stroke:#A80036;stroke-width:1.0;" width="10" x="1057" y="644.9766"/><rect fill="#FFFFFF" filter="url(#f5s7oh0zsnnyx)" height="30" style="stroke:#A80036;stroke-width:1.0;" width="10" x="1348" y="527.5781"/><rect fill="#FFFFFF" filter="url(#f5s7oh0zsnnyx)" height="30" style="stroke:#A80036;stroke-width:1.0;" width="10" x="1348" y="704.1094"/><rect fill="#FFFFFF" filter="url(#f5s7oh0zsnnyx)" height="30" style="stroke:#A80036;stroke-width:1.0;" width="10" x="1456" y="339.8828"/><path d="M130,103.2969 L130,128.2969 L327,128.2969 L327,113.2969 L317,103.2969 L130,103.2969 " fill="#FBFB77" filter="url(#f5s7oh0zsnnyx)" style="stroke:#A80036;stroke-width:1.0;"/><path d="M317,103.2969 L317,113.2969 L327,113.2969 L317,103.2969 " fill="#FBFB77" style="stroke:#A80036;stroke-width:1.0;"/><text fill="#000000" font-family="sans-serif" font-size="13" lengthAdjust="spacing" textLength="176" x="136" y="120.3638">After logging in successfully</text><polygon fill="#A80036" points="380,139.4297,390,143.4297,380,147.4297,384,143.4297" style="stroke:#A80036;stroke-width:1.0;"/><line style="stroke:#A80036;stroke-width:1.0;" x1="353" x2="386" y1="143.4297" y2="143.4297"/><rect fill="#FEFECE" filter="url(#f5s7oh0zsnnyx)" height="30.2969" style="stroke:#A80036;stroke-width:1.5;" width="100" x="392" y="137.4297"/><text fill="#000000" font-family="sans-serif" font-size="14" lengthAdjust="spacing" textLength="86" x="399" y="157.4248">:EmployeeUI</text><polygon fill="#A80036" points="1268,184.7266,1278,188.7266,1268,192.7266,1272,188.7266" style="stroke:#A80036;stroke-width:1.0;"/><line style="stroke:#A80036;stroke-width:1.0;" x1="449" x2="1274" y1="188.7266" y2="188.7266"/><rect fill="#FEFECE" filter="url(#f5s7oh0zsnnyx)" height="46.5938" style="stroke:#A80036;stroke-width:1.5;" width="142" x="1280" y="182.7266"/><text fill="#000000" font-family="sans-serif" font-size="14" lengthAdjust="spacing" textLength="123" x="1289.5" y="202.7217">employeeSession</text><text fill="#000000" font-family="sans-serif" font-size="14" lengthAdjust="spacing" textLength="128" x="1287" y="219.0186">:EmployeeSession</text><polygon fill="#A80036" points="494,246.3203,504,250.3203,494,254.3203,498,250.3203" style="stroke:#A80036;stroke-width:1.0;"/><line style="stroke:#A80036;stroke-width:1.0;" x1="449" x2="500" y1="250.3203" y2="250.3203"/><rect fill="#FEFECE" filter="url(#f5s7oh0zsnnyx)" height="30.2969" style="stroke:#A80036;stroke-width:1.5;" width="269" x="506" y="244.3203"/><text fill="#000000" font-family="sans-serif" font-size="14" lengthAdjust="spacing" textLength="255" x="513" y="264.3154">:SelectEmployeeVaccinationCenterUI</text><polygon fill="#A80036" points="625.5,306.75,635.5,310.75,625.5,314.75,629.5,310.75" style="stroke:#A80036;stroke-width:1.0;"/><line style="stroke:#A80036;stroke-width:1.0;" x1="353" x2="631.5" y1="310.75" y2="310.75"/><text fill="#000000" font-family="sans-serif" font-size="13" lengthAdjust="spacing" textLength="31" x="360" y="305.6841">run()</text><polygon fill="#A80036" points="1444,335.8828,1454,339.8828,1444,343.8828,1448,339.8828" style="stroke:#A80036;stroke-width:1.0;"/><line style="stroke:#A80036;stroke-width:1.0;" x1="647.5" x2="1450" y1="339.8828" y2="339.8828"/><text fill="#000000" font-family="sans-serif" font-size="13" lengthAdjust="spacing" textLength="162" x="654.5" y="334.8169">company=getCompany()</text><polygon fill="#A80036" points="886.5,395.0156,896.5,399.0156,886.5,403.0156,890.5,399.0156" style="stroke:#A80036;stroke-width:1.0;"/><line style="stroke:#A80036;stroke-width:1.0;" x1="647.5" x2="892.5" y1="399.0156" y2="399.0156"/><text fill="#000000" font-family="sans-serif" font-size="13" lengthAdjust="spacing" textLength="227" x="654.5" y="393.9497">create(company,employeeSession)</text><rect fill="#FEFECE" filter="url(#f5s7oh0zsnnyx)" height="30.2969" style="stroke:#A80036;stroke-width:1.5;" width="323" x="898.5" y="377.8828"/><text fill="#000000" font-family="sans-serif" font-size="14" lengthAdjust="spacing" textLength="309" x="905.5" y="397.8779">:SelectEmployeeVaccinationCenterController</text><polygon fill="#A80036" points="1045,440.3125,1055,444.3125,1045,448.3125,1049,444.3125" style="stroke:#A80036;stroke-width:1.0;"/><line style="stroke:#A80036;stroke-width:1.0;" x1="647.5" x2="1051" y1="444.3125" y2="444.3125"/><text fill="#000000" font-family="sans-serif" font-size="13" lengthAdjust="spacing" textLength="310" x="654.5" y="439.2466">vaccinationCenters=getVaccinationCentersList()</text><path d="M147,489.3125 L224,489.3125 L224,496.3125 L214,506.3125 L147,506.3125 L147,489.3125 " fill="#EEEEEE" style="stroke:#000000;stroke-width:1.0;"/><rect fill="none" height="252.7969" style="stroke:#000000;stroke-width:2.0;" width="1289" x="147" y="489.3125"/><text fill="#000000" font-family="sans-serif" font-size="13" font-weight="bold" lengthAdjust="spacing" textLength="32" x="162" y="502.3794">loop</text><text fill="#000000" font-family="sans-serif" font-size="11" font-weight="bold" lengthAdjust="spacing" textLength="131" x="239" y="501.5229">[while valid is false]</text><polygon fill="#A80036" points="1336,523.5781,1346,527.5781,1336,531.5781,1340,527.5781" style="stroke:#A80036;stroke-width:1.0;"/><line style="stroke:#A80036;stroke-width:1.0;" x1="647.5" x2="1342" y1="527.5781" y2="527.5781"/><text fill="#000000" font-family="sans-serif" font-size="13" lengthAdjust="spacing" textLength="116" x="654.5" y="522.5122">valid=hasCenter()</text><polygon fill="#A80036" points="246.5,582.7109,236.5,586.7109,246.5,590.7109,242.5,586.7109" style="stroke:#A80036;stroke-width:1.0;"/><line style="stroke:#A80036;stroke-width:1.0;stroke-dasharray:2.0,2.0;" x1="240.5" x2="641.5" y1="586.7109" y2="586.7109"/><text fill="#000000" font-family="sans-serif" font-size="13" lengthAdjust="spacing" textLength="256" x="252.5" y="581.645">lists all the available vaccination centers</text><polygon fill="#A80036" points="625.5,611.8438,635.5,615.8438,625.5,619.8438,629.5,615.8438" style="stroke:#A80036;stroke-width:1.0;"/><line style="stroke:#A80036;stroke-width:1.0;" x1="235.5" x2="631.5" y1="615.8438" y2="615.8438"/><text fill="#000000" font-family="sans-serif" font-size="13" lengthAdjust="spacing" textLength="178" x="242.5" y="610.7778">selects a vaccination center</text><polygon fill="#A80036" points="1045,640.9766,1055,644.9766,1045,648.9766,1049,644.9766" style="stroke:#A80036;stroke-width:1.0;"/><line style="stroke:#A80036;stroke-width:1.0;" x1="647.5" x2="1051" y1="644.9766" y2="644.9766"/><text fill="#000000" font-family="sans-serif" font-size="13" lengthAdjust="spacing" textLength="354" x="654.5" y="639.9106">selectVaccinationCenter(centerDTO, employeeSession)</text><polygon fill="#A80036" points="1336,700.1094,1346,704.1094,1336,708.1094,1340,704.1094" style="stroke:#A80036;stroke-width:1.0;"/><line style="stroke:#A80036;stroke-width:1.0;" x1="1067" x2="1342" y1="704.1094" y2="704.1094"/><text fill="#000000" font-family="sans-serif" font-size="13" lengthAdjust="spacing" textLength="262" x="1074" y="699.0435">setVaccinationCenter(vaccinationCenter)</text><path d="M5,779.1094 L5,804.1094 L453,804.1094 L453,789.1094 L443,779.1094 L5,779.1094 " fill="#FBFB77" filter="url(#f5s7oh0zsnnyx)" style="stroke:#A80036;stroke-width:1.0;"/><path d="M443,779.1094 L443,789.1094 L453,789.1094 L443,779.1094 " fill="#FBFB77" style="stroke:#A80036;stroke-width:1.0;"/><text fill="#000000" font-family="sans-serif" font-size="13" lengthAdjust="spacing" textLength="427" x="11" y="796.1763">The employee vaccination center is stored in the EmployeeSession</text><!--MD5=[c050c6b65e9c4461a74495d6bc93a919]
@startuml
actor "Receptionist / Nurse" as NUR

note over NUR
 After logging in successfully
end note

participant ":AuthUI" as AUTHUI

activate AUTHUI
create ":EmployeeUI" as EUI
AUTHUI -> EUI **
create ":SelectEmployeeVaccinationCenterUI" as UI
participant ":SelectEmployeeVaccinationCenterController" as CTRL
participant "employeeSession\n:EmployeeSession" as SESSION
activate EUI
EUI -> SESSION **
EUI -> UI **
AUTHUI -> UI : run()
activate UI
participant ":App" as APP
activate NUR

UI -> APP : company=getCompany()
activate APP
deactivate APP


UI -> CTRL ** : create(company,employeeSession)

UI -> CTRL : vaccinationCenters=getVaccinationCentersList()
activate CTRL
deactivate CTRL

loop while valid is false
UI -> SESSION : valid=hasCenter()
activate SESSION
deactivate SESSION

UI - -> NUR : lists all the available vaccination centers
deactivate UI

participant "company\n:Company" as COMP

NUR -> UI : selects a vaccination center
activate UI
UI -> CTRL : selectVaccinationCenter(centerDTO, employeeSession)
activate CTRL
deactivate UI
CTRL -> SESSION : setVaccinationCenter(vaccinationCenter)
activate SESSION
deactivate SESSION
deactivate EUI


end loop

deactivate CTRL

deactivate UI

deactivate NUR

participant "vaccinationCenters\n:List<VaccinationCenterListDTO>" 
participant "centerDTO\n:VaccinationCenterListDTO" 

|||

note over NUR
  The employee vaccination center is stored in the EmployeeSession
end note
@enduml

PlantUML version 1.2022.0(Tue Jan 11 16:16:42 WET 2022)
(GPL source distribution)
Java Runtime: OpenJDK Runtime Environment
JVM: OpenJDK 64-Bit Server VM
Default Encoding: UTF-8
Language: en
Country: US
--></g></svg>