<?xml version="1.0" encoding="UTF-8" standalone="no"?><svg xmlns="http://www.w3.org/2000/svg" xmlns:xlink="http://www.w3.org/1999/xlink" contentScriptType="application/ecmascript" contentStyleType="text/css" height="836px" preserveAspectRatio="none" style="width:634px;height:836px;background:#FFFFFF;" version="1.1" viewBox="0 0 634 836" width="634px" zoomAndPan="magnify"><defs><filter height="300%" id="f1b93qg91hfo2q" width="300%" x="-1" y="-1"><feGaussianBlur result="blurOut" stdDeviation="2.0"/><feColorMatrix in="blurOut" result="blurOut2" type="matrix" values="0 0 0 0 0 0 0 0 0 0 0 0 0 0 0 0 0 0 .4 0"/><feOffset dx="4.0" dy="4.0" in="blurOut2" result="blurOut3"/><feBlend in="SourceGraphic" in2="blurOut3" mode="normal"/></filter></defs><g><rect fill="#FFFFFF" filter="url(#f1b93qg91hfo2q)" height="633.3828" style="stroke:#A80036;stroke-width:1.0;" width="10" x="69.5" y="99.6094"/><rect fill="#FFFFFF" filter="url(#f1b93qg91hfo2q)" height="30.3516" style="stroke:#A80036;stroke-width:1.0;" width="10" x="561.5" y="121.9609"/><rect fill="#FFFFFF" filter="url(#f1b93qg91hfo2q)" height="30.3516" style="stroke:#A80036;stroke-width:1.0;" width="10" x="561.5" y="182.6641"/><rect fill="#FFFFFF" filter="url(#f1b93qg91hfo2q)" height="30.3516" style="stroke:#A80036;stroke-width:1.0;" width="10" x="561.5" y="243.3672"/><rect fill="#FFFFFF" filter="url(#f1b93qg91hfo2q)" height="30.3516" style="stroke:#A80036;stroke-width:1.0;" width="10" x="561.5" y="304.0703"/><rect fill="#FFFFFF" filter="url(#f1b93qg91hfo2q)" height="30.3516" style="stroke:#A80036;stroke-width:1.0;" width="10" x="561.5" y="390.125"/><rect fill="#FFFFFF" filter="url(#f1b93qg91hfo2q)" height="30.3516" style="stroke:#A80036;stroke-width:1.0;" width="10" x="561.5" y="450.8281"/><rect fill="#FFFFFF" filter="url(#f1b93qg91hfo2q)" height="30.3516" style="stroke:#A80036;stroke-width:1.0;" width="10" x="561.5" y="536.8828"/><rect fill="#FFFFFF" filter="url(#f1b93qg91hfo2q)" height="30.3516" style="stroke:#A80036;stroke-width:1.0;" width="10" x="561.5" y="597.5859"/><rect fill="#FFFFFF" filter="url(#f1b93qg91hfo2q)" height="30.3516" style="stroke:#A80036;stroke-width:1.0;" width="10" x="561.5" y="702.6406"/><rect fill="#FFFFFF" filter="url(#f1b93qg91hfo2q)" height="293.5156" style="stroke:#000000;stroke-width:2.0;" width="610.5" x="10" y="349.4219"/><rect fill="#FFFFFF" filter="url(#f1b93qg91hfo2q)" height="139.7578" style="stroke:#000000;stroke-width:2.0;" width="590.5" x="20" y="496.1797"/><line style="stroke:#A80036;stroke-width:1.0;stroke-dasharray:5.0,5.0;" x1="74" x2="74" y1="89.6094" y2="750.9922"/><line style="stroke:#A80036;stroke-width:1.0;stroke-dasharray:5.0,5.0;" x1="566.5" x2="566.5" y1="89.6094" y2="750.9922"/><text fill="#000000" font-family="sans-serif" font-size="14" lengthAdjust="spacing" textLength="83" x="30" y="86.5332">Administrator</text><ellipse cx="74.5" cy="15" fill="#FEFECE" filter="url(#f1b93qg91hfo2q)" rx="8" ry="8" style="stroke:#A80036;stroke-width:2.0;"/><path d="M74.5,23 L74.5,50 M61.5,31 L87.5,31 M74.5,50 L61.5,65 M74.5,50 L87.5,65 " fill="none" filter="url(#f1b93qg91hfo2q)" style="stroke:#A80036;stroke-width:2.0;"/><text fill="#000000" font-family="sans-serif" font-size="14" lengthAdjust="spacing" textLength="83" x="30" y="764.5254">Administrator</text><ellipse cx="74.5" cy="777.6016" fill="#FEFECE" filter="url(#f1b93qg91hfo2q)" rx="8" ry="8" style="stroke:#A80036;stroke-width:2.0;"/><path d="M74.5,785.6016 L74.5,812.6016 M61.5,793.6016 L87.5,793.6016 M74.5,812.6016 L61.5,827.6016 M74.5,812.6016 L87.5,827.6016 " fill="none" filter="url(#f1b93qg91hfo2q)" style="stroke:#A80036;stroke-width:2.0;"/><rect fill="#FEFECE" filter="url(#f1b93qg91hfo2q)" height="31.6094" style="stroke:#A80036;stroke-width:1.5;" width="64" x="532.5" y="53"/><text fill="#000000" font-family="sans-serif" font-size="14" lengthAdjust="spacing" textLength="50" x="539.5" y="74.5332">:System</text><rect fill="#FEFECE" filter="url(#f1b93qg91hfo2q)" height="31.6094" style="stroke:#A80036;stroke-width:1.5;" width="64" x="532.5" y="749.9922"/><text fill="#000000" font-family="sans-serif" font-size="14" lengthAdjust="spacing" textLength="50" x="539.5" y="771.5254">:System</text><rect fill="#FFFFFF" filter="url(#f1b93qg91hfo2q)" height="633.3828" style="stroke:#A80036;stroke-width:1.0;" width="10" x="69.5" y="99.6094"/><rect fill="#FFFFFF" filter="url(#f1b93qg91hfo2q)" height="30.3516" style="stroke:#A80036;stroke-width:1.0;" width="10" x="561.5" y="121.9609"/><rect fill="#FFFFFF" filter="url(#f1b93qg91hfo2q)" height="30.3516" style="stroke:#A80036;stroke-width:1.0;" width="10" x="561.5" y="182.6641"/><rect fill="#FFFFFF" filter="url(#f1b93qg91hfo2q)" height="30.3516" style="stroke:#A80036;stroke-width:1.0;" width="10" x="561.5" y="243.3672"/><rect fill="#FFFFFF" filter="url(#f1b93qg91hfo2q)" height="30.3516" style="stroke:#A80036;stroke-width:1.0;" width="10" x="561.5" y="304.0703"/><rect fill="#FFFFFF" filter="url(#f1b93qg91hfo2q)" height="30.3516" style="stroke:#A80036;stroke-width:1.0;" width="10" x="561.5" y="390.125"/><rect fill="#FFFFFF" filter="url(#f1b93qg91hfo2q)" height="30.3516" style="stroke:#A80036;stroke-width:1.0;" width="10" x="561.5" y="450.8281"/><rect fill="#FFFFFF" filter="url(#f1b93qg91hfo2q)" height="30.3516" style="stroke:#A80036;stroke-width:1.0;" width="10" x="561.5" y="536.8828"/><rect fill="#FFFFFF" filter="url(#f1b93qg91hfo2q)" height="30.3516" style="stroke:#A80036;stroke-width:1.0;" width="10" x="561.5" y="597.5859"/><rect fill="#FFFFFF" filter="url(#f1b93qg91hfo2q)" height="30.3516" style="stroke:#A80036;stroke-width:1.0;" width="10" x="561.5" y="702.6406"/><polygon fill="#A80036" points="549.5,117.9609,559.5,121.9609,549.5,125.9609,553.5,121.9609" style="stroke:#A80036;stroke-width:1.0;"/><line style="stroke:#A80036;stroke-width:1.0;" x1="79.5" x2="555.5" y1="121.9609" y2="121.9609"/><text fill="#000000" font-family="sans-serif" font-size="13" font-weight="bold" lengthAdjust="spacing" textLength="7" x="86.5" y="117.1045">1</text><text fill="#000000" font-family="sans-serif" font-size="13" lengthAdjust="spacing" textLength="168" x="97.5" y="117.1045">asks to create a new vaccine</text><polygon fill="#A80036" points="90.5,148.3125,80.5,152.3125,90.5,156.3125,86.5,152.3125" style="stroke:#A80036;stroke-width:1.0;"/><line style="stroke:#A80036;stroke-width:1.0;stroke-dasharray:2.0,2.0;" x1="84.5" x2="565.5" y1="152.3125" y2="152.3125"/><text fill="#000000" font-family="sans-serif" font-size="13" font-weight="bold" lengthAdjust="spacing" textLength="7" x="96.5" y="147.4561">2</text><text fill="#000000" font-family="sans-serif" font-size="13" lengthAdjust="spacing" textLength="371" x="107.5" y="147.4561">requests data (designation, number of administration processes)</text><polygon fill="#A80036" points="549.5,178.6641,559.5,182.6641,549.5,186.6641,553.5,182.6641" style="stroke:#A80036;stroke-width:1.0;"/><line style="stroke:#A80036;stroke-width:1.0;" x1="79.5" x2="555.5" y1="182.6641" y2="182.6641"/><text fill="#000000" font-family="sans-serif" font-size="13" font-weight="bold" lengthAdjust="spacing" textLength="7" x="86.5" y="177.8076">3</text><text fill="#000000" font-family="sans-serif" font-size="13" lengthAdjust="spacing" textLength="122" x="97.5" y="177.8076">types requested data</text><polygon fill="#A80036" points="90.5,209.0156,80.5,213.0156,90.5,217.0156,86.5,213.0156" style="stroke:#A80036;stroke-width:1.0;"/><line style="stroke:#A80036;stroke-width:1.0;stroke-dasharray:2.0,2.0;" x1="84.5" x2="565.5" y1="213.0156" y2="213.0156"/><text fill="#000000" font-family="sans-serif" font-size="13" font-weight="bold" lengthAdjust="spacing" textLength="7" x="96.5" y="208.1592">4</text><text fill="#000000" font-family="sans-serif" font-size="13" lengthAdjust="spacing" textLength="270" x="107.5" y="208.1592">shows vaccine types list and ask to select one</text><polygon fill="#A80036" points="549.5,239.3672,559.5,243.3672,549.5,247.3672,553.5,243.3672" style="stroke:#A80036;stroke-width:1.0;"/><line style="stroke:#A80036;stroke-width:1.0;" x1="79.5" x2="555.5" y1="243.3672" y2="243.3672"/><text fill="#000000" font-family="sans-serif" font-size="13" font-weight="bold" lengthAdjust="spacing" textLength="7" x="86.5" y="238.5107">5</text><text fill="#000000" font-family="sans-serif" font-size="13" lengthAdjust="spacing" textLength="129" x="97.5" y="238.5107">selects a vaccine type</text><polygon fill="#A80036" points="90.5,269.7188,80.5,273.7188,90.5,277.7188,86.5,273.7188" style="stroke:#A80036;stroke-width:1.0;"/><line style="stroke:#A80036;stroke-width:1.0;stroke-dasharray:2.0,2.0;" x1="84.5" x2="565.5" y1="273.7188" y2="273.7188"/><text fill="#000000" font-family="sans-serif" font-size="13" font-weight="bold" lengthAdjust="spacing" textLength="7" x="96.5" y="268.8623">6</text><text fill="#000000" font-family="sans-serif" font-size="13" lengthAdjust="spacing" textLength="261" x="107.5" y="268.8623">requests data(number of different age groups)</text><polygon fill="#A80036" points="549.5,300.0703,559.5,304.0703,549.5,308.0703,553.5,304.0703" style="stroke:#A80036;stroke-width:1.0;"/><line style="stroke:#A80036;stroke-width:1.0;" x1="79.5" x2="555.5" y1="304.0703" y2="304.0703"/><text fill="#000000" font-family="sans-serif" font-size="13" font-weight="bold" lengthAdjust="spacing" textLength="7" x="86.5" y="299.2139">7</text><text fill="#000000" font-family="sans-serif" font-size="13" lengthAdjust="spacing" textLength="122" x="97.5" y="299.2139">types requested data</text><polygon fill="#A80036" points="90.5,330.4219,80.5,334.4219,90.5,338.4219,86.5,334.4219" style="stroke:#A80036;stroke-width:1.0;"/><line style="stroke:#A80036;stroke-width:1.0;stroke-dasharray:2.0,2.0;" x1="84.5" x2="565.5" y1="334.4219" y2="334.4219"/><text fill="#000000" font-family="sans-serif" font-size="13" font-weight="bold" lengthAdjust="spacing" textLength="7" x="96.5" y="329.5654">8</text><text fill="#000000" font-family="sans-serif" font-size="13" lengthAdjust="spacing" textLength="447" x="107.5" y="329.5654">informs that is ready to move on to the administration processes specification</text><path d="M10,349.4219 L83,349.4219 L83,357.4219 L73,367.4219 L10,367.4219 L10,349.4219 " fill="#EEEEEE" style="stroke:#000000;stroke-width:1.0;"/><rect fill="none" height="293.5156" style="stroke:#000000;stroke-width:2.0;" width="610.5" x="10" y="349.4219"/><text fill="#000000" font-family="sans-serif" font-size="13" font-weight="bold" lengthAdjust="spacing" textLength="28" x="25" y="363.917">loop</text><text fill="#000000" font-family="sans-serif" font-size="11" font-weight="bold" lengthAdjust="spacing" textLength="185" x="98" y="362.8408">[for each administration process]</text><polygon fill="#A80036" points="549.5,386.125,559.5,390.125,549.5,394.125,553.5,390.125" style="stroke:#A80036;stroke-width:1.0;"/><line style="stroke:#A80036;stroke-width:1.0;" x1="79.5" x2="555.5" y1="390.125" y2="390.125"/><text fill="#000000" font-family="sans-serif" font-size="13" font-weight="bold" lengthAdjust="spacing" textLength="7" x="86.5" y="385.2686">9</text><text fill="#000000" font-family="sans-serif" font-size="13" lengthAdjust="spacing" textLength="343" x="97.5" y="385.2686">asks to create a new administration process for the vaccine</text><polygon fill="#A80036" points="90.5,416.4766,80.5,420.4766,90.5,424.4766,86.5,420.4766" style="stroke:#A80036;stroke-width:1.0;"/><line style="stroke:#A80036;stroke-width:1.0;stroke-dasharray:2.0,2.0;" x1="84.5" x2="565.5" y1="420.4766" y2="420.4766"/><text fill="#000000" font-family="sans-serif" font-size="13" font-weight="bold" lengthAdjust="spacing" textLength="14" x="96.5" y="415.6201">10</text><text fill="#000000" font-family="sans-serif" font-size="13" lengthAdjust="spacing" textLength="299" x="114.5" y="415.6201">requests data (min age, max age, number of doses)</text><polygon fill="#A80036" points="549.5,446.8281,559.5,450.8281,549.5,454.8281,553.5,450.8281" style="stroke:#A80036;stroke-width:1.0;"/><line style="stroke:#A80036;stroke-width:1.0;" x1="79.5" x2="555.5" y1="450.8281" y2="450.8281"/><text fill="#000000" font-family="sans-serif" font-size="13" font-weight="bold" lengthAdjust="spacing" textLength="14" x="86.5" y="445.9717">11</text><text fill="#000000" font-family="sans-serif" font-size="13" lengthAdjust="spacing" textLength="122" x="104.5" y="445.9717">types requested data</text><polygon fill="#A80036" points="90.5,477.1797,80.5,481.1797,90.5,485.1797,86.5,481.1797" style="stroke:#A80036;stroke-width:1.0;"/><line style="stroke:#A80036;stroke-width:1.0;stroke-dasharray:2.0,2.0;" x1="84.5" x2="565.5" y1="481.1797" y2="481.1797"/><text fill="#000000" font-family="sans-serif" font-size="13" font-weight="bold" lengthAdjust="spacing" textLength="14" x="96.5" y="476.3232">12</text><text fill="#000000" font-family="sans-serif" font-size="13" lengthAdjust="spacing" textLength="321" x="114.5" y="476.3232">informs that is ready to move on to the dose information</text><path d="M20,496.1797 L93,496.1797 L93,504.1797 L83,514.1797 L20,514.1797 L20,496.1797 " fill="#EEEEEE" style="stroke:#000000;stroke-width:1.0;"/><rect fill="none" height="139.7578" style="stroke:#000000;stroke-width:2.0;" width="590.5" x="20" y="496.1797"/><text fill="#000000" font-family="sans-serif" font-size="13" font-weight="bold" lengthAdjust="spacing" textLength="28" x="35" y="510.6748">loop</text><text fill="#000000" font-family="sans-serif" font-size="11" font-weight="bold" lengthAdjust="spacing" textLength="84" x="108" y="509.5986">[for each dose]</text><polygon fill="#A80036" points="549.5,532.8828,559.5,536.8828,549.5,540.8828,553.5,536.8828" style="stroke:#A80036;stroke-width:1.0;"/><line style="stroke:#A80036;stroke-width:1.0;" x1="79.5" x2="555.5" y1="536.8828" y2="536.8828"/><text fill="#000000" font-family="sans-serif" font-size="13" font-weight="bold" lengthAdjust="spacing" textLength="14" x="86.5" y="532.0264">13</text><text fill="#000000" font-family="sans-serif" font-size="13" lengthAdjust="spacing" textLength="339" x="104.5" y="532.0264">asks to add dose information to the administration process</text><polygon fill="#A80036" points="90.5,563.2344,80.5,567.2344,90.5,571.2344,86.5,567.2344" style="stroke:#A80036;stroke-width:1.0;"/><line style="stroke:#A80036;stroke-width:1.0;stroke-dasharray:2.0,2.0;" x1="84.5" x2="565.5" y1="567.2344" y2="567.2344"/><text fill="#000000" font-family="sans-serif" font-size="13" font-weight="bold" lengthAdjust="spacing" textLength="14" x="96.5" y="562.3779">14</text><text fill="#000000" font-family="sans-serif" font-size="13" lengthAdjust="spacing" textLength="242" x="114.5" y="562.3779">requests data (dosage, time to next dose)</text><polygon fill="#A80036" points="549.5,593.5859,559.5,597.5859,549.5,601.5859,553.5,597.5859" style="stroke:#A80036;stroke-width:1.0;"/><line style="stroke:#A80036;stroke-width:1.0;" x1="79.5" x2="555.5" y1="597.5859" y2="597.5859"/><text fill="#000000" font-family="sans-serif" font-size="13" font-weight="bold" lengthAdjust="spacing" textLength="14" x="86.5" y="592.7295">15</text><text fill="#000000" font-family="sans-serif" font-size="13" lengthAdjust="spacing" textLength="122" x="104.5" y="592.7295">types requested data</text><polygon fill="#A80036" points="90.5,623.9375,80.5,627.9375,90.5,631.9375,86.5,627.9375" style="stroke:#A80036;stroke-width:1.0;"/><line style="stroke:#A80036;stroke-width:1.0;stroke-dasharray:2.0,2.0;" x1="84.5" x2="565.5" y1="627.9375" y2="627.9375"/><text fill="#000000" font-family="sans-serif" font-size="13" font-weight="bold" lengthAdjust="spacing" textLength="14" x="96.5" y="623.0811">16</text><text fill="#000000" font-family="sans-serif" font-size="13" lengthAdjust="spacing" textLength="263" x="114.5" y="623.0811">informs dose information specification sucess</text><polygon fill="#A80036" points="90.5,668.2891,80.5,672.2891,90.5,676.2891,86.5,672.2891" style="stroke:#A80036;stroke-width:1.0;"/><line style="stroke:#A80036;stroke-width:1.0;stroke-dasharray:2.0,2.0;" x1="84.5" x2="565.5" y1="672.2891" y2="672.2891"/><text fill="#000000" font-family="sans-serif" font-size="13" font-weight="bold" lengthAdjust="spacing" textLength="14" x="96.5" y="667.4326">17</text><text fill="#000000" font-family="sans-serif" font-size="13" lengthAdjust="spacing" textLength="236" x="114.5" y="667.4326">shows all data and requests confirmation</text><polygon fill="#A80036" points="549.5,698.6406,559.5,702.6406,549.5,706.6406,553.5,702.6406" style="stroke:#A80036;stroke-width:1.0;"/><line style="stroke:#A80036;stroke-width:1.0;" x1="79.5" x2="555.5" y1="702.6406" y2="702.6406"/><text fill="#000000" font-family="sans-serif" font-size="13" font-weight="bold" lengthAdjust="spacing" textLength="14" x="86.5" y="697.7842">18</text><text fill="#000000" font-family="sans-serif" font-size="13" lengthAdjust="spacing" textLength="100" x="104.5" y="697.7842">confirms the data</text><polygon fill="#A80036" points="85.5,728.9922,75.5,732.9922,85.5,736.9922,81.5,732.9922" style="stroke:#A80036;stroke-width:1.0;"/><line style="stroke:#A80036;stroke-width:1.0;stroke-dasharray:2.0,2.0;" x1="79.5" x2="565.5" y1="732.9922" y2="732.9922"/><text fill="#000000" font-family="sans-serif" font-size="13" font-weight="bold" lengthAdjust="spacing" textLength="14" x="91.5" y="728.1357">19</text><text fill="#000000" font-family="sans-serif" font-size="13" lengthAdjust="spacing" textLength="152" x="109.5" y="728.1357">informs operation success</text><!--MD5=[03353fe982cbb840c66fcb8316531451]
@startuml
autonumber
actor "Administrator" as OE

activate OE
OE -> ":System" : asks to create a new vaccine
activate ":System"
":System" - -> OE : requests data (designation, number of administration processes)
deactivate ":System"

OE -> ":System" : types requested data
activate ":System"
":System" - -> OE : shows vaccine types list and ask to select one
deactivate ":System"

OE -> ":System" : selects a vaccine type
activate ":System"
":System" - -> OE : requests data(number of different age groups)
deactivate ":System"

OE -> ":System" : types requested data
activate ":System"
":System" - -> OE : informs that is ready to move on to the administration processes specification
deactivate ":System"


loop for each administration process
    OE -> ":System" : asks to create a new administration process for the vaccine
    activate ":System"
    ":System" - -> OE : requests data (min age, max age, number of doses)
    deactivate ":System"
    OE -> ":System" : types requested data
    activate ":System"
    ":System" - -> OE : informs that is ready to move on to the dose information
    deactivate ":System"
    
    loop for each dose
        OE -> ":System" : asks to add dose information to the administration process
        activate ":System"
        ":System" - -> OE : requests data (dosage, time to next dose)
        deactivate ":System"
        OE -> ":System" : types requested data
        activate ":System"
        ":System" - -> OE : informs dose information specification sucess
        deactivate ":System"
    end

end

":System" - -> OE : shows all data and requests confirmation
deactivate ":System"
OE -> ":System" : confirms the data
activate ":System"
":System" - -> OE : informs operation success
deactivate ":System"

deactivate OE

@enduml

PlantUML version 1.2022.0(Tue Jan 11 16:16:42 WET 2022)
(GPL source distribution)
Java Runtime: OpenJDK Runtime Environment
JVM: OpenJDK 64-Bit Server VM
Default Encoding: Cp1252
Language: pt
Country: PT
--></g></svg>