<?xml version="1.0" encoding="UTF-8" standalone="no"?><svg xmlns="http://www.w3.org/2000/svg" xmlns:xlink="http://www.w3.org/1999/xlink" contentScriptType="application/ecmascript" contentStyleType="text/css" height="866px" preserveAspectRatio="none" style="width:780px;height:866px;background:#FFFFFF;" version="1.1" viewBox="0 0 780 866" width="780px" zoomAndPan="magnify"><defs><filter height="300%" id="fre8bfm239zzl" width="300%" x="-1" y="-1"><feGaussianBlur result="blurOut" stdDeviation="2.0"/><feColorMatrix in="blurOut" result="blurOut2" type="matrix" values="0 0 0 0 0 0 0 0 0 0 0 0 0 0 0 0 0 0 .4 0"/><feOffset dx="4.0" dy="4.0" in="blurOut2" result="blurOut3"/><feBlend in="SourceGraphic" in2="blurOut3" mode="normal"/></filter></defs><g><rect fill="#FFFFFF" filter="url(#fre8bfm239zzl)" height="663.7344" style="stroke:#A80036;stroke-width:1.0;" width="10" x="69.5" y="99.6094"/><rect fill="#FFFFFF" filter="url(#fre8bfm239zzl)" height="30.3516" style="stroke:#A80036;stroke-width:1.0;" width="10" x="707.5" y="121.9609"/><rect fill="#FFFFFF" filter="url(#fre8bfm239zzl)" height="30.3516" style="stroke:#A80036;stroke-width:1.0;" width="10" x="707.5" y="182.6641"/><rect fill="#FFFFFF" filter="url(#fre8bfm239zzl)" height="30.3516" style="stroke:#A80036;stroke-width:1.0;" width="10" x="707.5" y="268.7188"/><rect fill="#FFFFFF" filter="url(#fre8bfm239zzl)" height="30.3516" style="stroke:#A80036;stroke-width:1.0;" width="10" x="707.5" y="329.4219"/><rect fill="#FFFFFF" filter="url(#fre8bfm239zzl)" height="30.3516" style="stroke:#A80036;stroke-width:1.0;" width="10" x="707.5" y="390.125"/><rect fill="#FFFFFF" filter="url(#fre8bfm239zzl)" height="30.3516" style="stroke:#A80036;stroke-width:1.0;" width="10" x="707.5" y="476.1797"/><rect fill="#FFFFFF" filter="url(#fre8bfm239zzl)" height="30.3516" style="stroke:#A80036;stroke-width:1.0;" width="10" x="707.5" y="536.8828"/><rect fill="#FFFFFF" filter="url(#fre8bfm239zzl)" height="30.3516" style="stroke:#A80036;stroke-width:1.0;" width="10" x="707.5" y="597.5859"/><rect fill="#FFFFFF" filter="url(#fre8bfm239zzl)" height="30.3516" style="stroke:#A80036;stroke-width:1.0;" width="10" x="707.5" y="672.2891"/><rect fill="#FFFFFF" filter="url(#fre8bfm239zzl)" height="30.3516" style="stroke:#A80036;stroke-width:1.0;" width="10" x="707.5" y="732.9922"/><rect fill="#FFFFFF" filter="url(#fre8bfm239zzl)" height="414.9219" style="stroke:#000000;stroke-width:2.0;" width="756.5" x="10" y="228.0156"/><rect fill="#FFFFFF" filter="url(#fre8bfm239zzl)" height="200.4609" style="stroke:#000000;stroke-width:2.0;" width="736.5" x="20" y="435.4766"/><line style="stroke:#A80036;stroke-width:1.0;stroke-dasharray:5.0,5.0;" x1="74" x2="74" y1="89.6094" y2="781.3438"/><line style="stroke:#A80036;stroke-width:1.0;stroke-dasharray:5.0,5.0;" x1="712.5" x2="712.5" y1="89.6094" y2="781.3438"/><text fill="#000000" font-family="sans-serif" font-size="14" lengthAdjust="spacing" textLength="83" x="30" y="86.5332">Administrator</text><ellipse cx="74.5" cy="15" fill="#FEFECE" filter="url(#fre8bfm239zzl)" rx="8" ry="8" style="stroke:#A80036;stroke-width:2.0;"/><path d="M74.5,23 L74.5,50 M61.5,31 L87.5,31 M74.5,50 L61.5,65 M74.5,50 L87.5,65 " fill="none" filter="url(#fre8bfm239zzl)" style="stroke:#A80036;stroke-width:2.0;"/><text fill="#000000" font-family="sans-serif" font-size="14" lengthAdjust="spacing" textLength="83" x="30" y="794.877">Administrator</text><ellipse cx="74.5" cy="807.9531" fill="#FEFECE" filter="url(#fre8bfm239zzl)" rx="8" ry="8" style="stroke:#A80036;stroke-width:2.0;"/><path d="M74.5,815.9531 L74.5,842.9531 M61.5,823.9531 L87.5,823.9531 M74.5,842.9531 L61.5,857.9531 M74.5,842.9531 L87.5,857.9531 " fill="none" filter="url(#fre8bfm239zzl)" style="stroke:#A80036;stroke-width:2.0;"/><rect fill="#FEFECE" filter="url(#fre8bfm239zzl)" height="31.6094" style="stroke:#A80036;stroke-width:1.5;" width="64" x="678.5" y="53"/><text fill="#000000" font-family="sans-serif" font-size="14" lengthAdjust="spacing" textLength="50" x="685.5" y="74.5332">:System</text><rect fill="#FEFECE" filter="url(#fre8bfm239zzl)" height="31.6094" style="stroke:#A80036;stroke-width:1.5;" width="64" x="678.5" y="780.3438"/><text fill="#000000" font-family="sans-serif" font-size="14" lengthAdjust="spacing" textLength="50" x="685.5" y="801.877">:System</text><rect fill="#FFFFFF" filter="url(#fre8bfm239zzl)" height="663.7344" style="stroke:#A80036;stroke-width:1.0;" width="10" x="69.5" y="99.6094"/><rect fill="#FFFFFF" filter="url(#fre8bfm239zzl)" height="30.3516" style="stroke:#A80036;stroke-width:1.0;" width="10" x="707.5" y="121.9609"/><rect fill="#FFFFFF" filter="url(#fre8bfm239zzl)" height="30.3516" style="stroke:#A80036;stroke-width:1.0;" width="10" x="707.5" y="182.6641"/><rect fill="#FFFFFF" filter="url(#fre8bfm239zzl)" height="30.3516" style="stroke:#A80036;stroke-width:1.0;" width="10" x="707.5" y="268.7188"/><rect fill="#FFFFFF" filter="url(#fre8bfm239zzl)" height="30.3516" style="stroke:#A80036;stroke-width:1.0;" width="10" x="707.5" y="329.4219"/><rect fill="#FFFFFF" filter="url(#fre8bfm239zzl)" height="30.3516" style="stroke:#A80036;stroke-width:1.0;" width="10" x="707.5" y="390.125"/><rect fill="#FFFFFF" filter="url(#fre8bfm239zzl)" height="30.3516" style="stroke:#A80036;stroke-width:1.0;" width="10" x="707.5" y="476.1797"/><rect fill="#FFFFFF" filter="url(#fre8bfm239zzl)" height="30.3516" style="stroke:#A80036;stroke-width:1.0;" width="10" x="707.5" y="536.8828"/><rect fill="#FFFFFF" filter="url(#fre8bfm239zzl)" height="30.3516" style="stroke:#A80036;stroke-width:1.0;" width="10" x="707.5" y="597.5859"/><rect fill="#FFFFFF" filter="url(#fre8bfm239zzl)" height="30.3516" style="stroke:#A80036;stroke-width:1.0;" width="10" x="707.5" y="672.2891"/><rect fill="#FFFFFF" filter="url(#fre8bfm239zzl)" height="30.3516" style="stroke:#A80036;stroke-width:1.0;" width="10" x="707.5" y="732.9922"/><polygon fill="#A80036" points="695.5,117.9609,705.5,121.9609,695.5,125.9609,699.5,121.9609" style="stroke:#A80036;stroke-width:1.0;"/><line style="stroke:#A80036;stroke-width:1.0;" x1="79.5" x2="701.5" y1="121.9609" y2="121.9609"/><text fill="#000000" font-family="sans-serif" font-size="13" font-weight="bold" lengthAdjust="spacing" textLength="7" x="86.5" y="117.1045">1</text><text fill="#000000" font-family="sans-serif" font-size="13" lengthAdjust="spacing" textLength="168" x="97.5" y="117.1045">asks to create a new vaccine</text><polygon fill="#A80036" points="90.5,148.3125,80.5,152.3125,90.5,156.3125,86.5,152.3125" style="stroke:#A80036;stroke-width:1.0;"/><line style="stroke:#A80036;stroke-width:1.0;stroke-dasharray:2.0,2.0;" x1="84.5" x2="711.5" y1="152.3125" y2="152.3125"/><text fill="#000000" font-family="sans-serif" font-size="13" font-weight="bold" lengthAdjust="spacing" textLength="7" x="96.5" y="147.4561">2</text><text fill="#000000" font-family="sans-serif" font-size="13" lengthAdjust="spacing" textLength="593" x="107.5" y="147.4561">requests data (designation, id, brand, numberOfAgeGroups) and shows vaccine types list to select one</text><polygon fill="#A80036" points="695.5,178.6641,705.5,182.6641,695.5,186.6641,699.5,182.6641" style="stroke:#A80036;stroke-width:1.0;"/><line style="stroke:#A80036;stroke-width:1.0;" x1="79.5" x2="701.5" y1="182.6641" y2="182.6641"/><text fill="#000000" font-family="sans-serif" font-size="13" font-weight="bold" lengthAdjust="spacing" textLength="7" x="86.5" y="177.8076">3</text><text fill="#000000" font-family="sans-serif" font-size="13" lengthAdjust="spacing" textLength="122" x="97.5" y="177.8076">types requested data</text><polygon fill="#A80036" points="90.5,209.0156,80.5,213.0156,90.5,217.0156,86.5,213.0156" style="stroke:#A80036;stroke-width:1.0;"/><line style="stroke:#A80036;stroke-width:1.0;stroke-dasharray:2.0,2.0;" x1="84.5" x2="711.5" y1="213.0156" y2="213.0156"/><text fill="#000000" font-family="sans-serif" font-size="13" font-weight="bold" lengthAdjust="spacing" textLength="7" x="96.5" y="208.1592">4</text><text fill="#000000" font-family="sans-serif" font-size="13" lengthAdjust="spacing" textLength="447" x="107.5" y="208.1592">informs that is ready to move on to the administration processes specification</text><path d="M10,228.0156 L83,228.0156 L83,236.0156 L73,246.0156 L10,246.0156 L10,228.0156 " fill="#EEEEEE" style="stroke:#000000;stroke-width:1.0;"/><rect fill="none" height="414.9219" style="stroke:#000000;stroke-width:2.0;" width="756.5" x="10" y="228.0156"/><text fill="#000000" font-family="sans-serif" font-size="13" font-weight="bold" lengthAdjust="spacing" textLength="28" x="25" y="242.5107">loop</text><text fill="#000000" font-family="sans-serif" font-size="11" font-weight="bold" lengthAdjust="spacing" textLength="112" x="98" y="241.4346">[for each age group]</text><polygon fill="#A80036" points="695.5,264.7188,705.5,268.7188,695.5,272.7188,699.5,268.7188" style="stroke:#A80036;stroke-width:1.0;"/><line style="stroke:#A80036;stroke-width:1.0;" x1="79.5" x2="701.5" y1="268.7188" y2="268.7188"/><text fill="#000000" font-family="sans-serif" font-size="13" font-weight="bold" lengthAdjust="spacing" textLength="7" x="86.5" y="263.8623">5</text><text fill="#000000" font-family="sans-serif" font-size="13" lengthAdjust="spacing" textLength="343" x="97.5" y="263.8623">asks to create a new administration process for the vaccine</text><polygon fill="#A80036" points="90.5,295.0703,80.5,299.0703,90.5,303.0703,86.5,299.0703" style="stroke:#A80036;stroke-width:1.0;"/><line style="stroke:#A80036;stroke-width:1.0;stroke-dasharray:2.0,2.0;" x1="84.5" x2="711.5" y1="299.0703" y2="299.0703"/><text fill="#000000" font-family="sans-serif" font-size="13" font-weight="bold" lengthAdjust="spacing" textLength="7" x="96.5" y="294.2139">6</text><text fill="#000000" font-family="sans-serif" font-size="13" lengthAdjust="spacing" textLength="292" x="107.5" y="294.2139">requests data (minAge, maxAge, numberOfDoses)</text><polygon fill="#A80036" points="695.5,325.4219,705.5,329.4219,695.5,333.4219,699.5,329.4219" style="stroke:#A80036;stroke-width:1.0;"/><line style="stroke:#A80036;stroke-width:1.0;" x1="79.5" x2="701.5" y1="329.4219" y2="329.4219"/><text fill="#000000" font-family="sans-serif" font-size="13" font-weight="bold" lengthAdjust="spacing" textLength="7" x="86.5" y="324.5654">7</text><text fill="#000000" font-family="sans-serif" font-size="13" lengthAdjust="spacing" textLength="122" x="97.5" y="324.5654">types requested data</text><polygon fill="#A80036" points="90.5,355.7734,80.5,359.7734,90.5,363.7734,86.5,359.7734" style="stroke:#A80036;stroke-width:1.0;"/><line style="stroke:#A80036;stroke-width:1.0;stroke-dasharray:2.0,2.0;" x1="84.5" x2="711.5" y1="359.7734" y2="359.7734"/><text fill="#000000" font-family="sans-serif" font-size="13" font-weight="bold" lengthAdjust="spacing" textLength="7" x="96.5" y="354.917">8</text><text fill="#000000" font-family="sans-serif" font-size="13" lengthAdjust="spacing" textLength="273" x="107.5" y="354.917">shows age group data and request confirmation</text><polygon fill="#A80036" points="695.5,386.125,705.5,390.125,695.5,394.125,699.5,390.125" style="stroke:#A80036;stroke-width:1.0;"/><line style="stroke:#A80036;stroke-width:1.0;" x1="79.5" x2="701.5" y1="390.125" y2="390.125"/><text fill="#000000" font-family="sans-serif" font-size="13" font-weight="bold" lengthAdjust="spacing" textLength="7" x="86.5" y="385.2686">9</text><text fill="#000000" font-family="sans-serif" font-size="13" lengthAdjust="spacing" textLength="78" x="97.5" y="385.2686">confirms data</text><polygon fill="#A80036" points="90.5,416.4766,80.5,420.4766,90.5,424.4766,86.5,420.4766" style="stroke:#A80036;stroke-width:1.0;"/><line style="stroke:#A80036;stroke-width:1.0;stroke-dasharray:2.0,2.0;" x1="84.5" x2="711.5" y1="420.4766" y2="420.4766"/><text fill="#000000" font-family="sans-serif" font-size="13" font-weight="bold" lengthAdjust="spacing" textLength="14" x="96.5" y="415.6201">10</text><text fill="#000000" font-family="sans-serif" font-size="13" lengthAdjust="spacing" textLength="145" x="114.5" y="415.6201">informs operation sucess</text><path d="M20,435.4766 L93,435.4766 L93,443.4766 L83,453.4766 L20,453.4766 L20,435.4766 " fill="#EEEEEE" style="stroke:#000000;stroke-width:1.0;"/><rect fill="none" height="200.4609" style="stroke:#000000;stroke-width:2.0;" width="736.5" x="20" y="435.4766"/><text fill="#000000" font-family="sans-serif" font-size="13" font-weight="bold" lengthAdjust="spacing" textLength="28" x="35" y="449.9717">loop</text><text fill="#000000" font-family="sans-serif" font-size="11" font-weight="bold" lengthAdjust="spacing" textLength="84" x="108" y="448.8955">[for each dose]</text><polygon fill="#A80036" points="695.5,472.1797,705.5,476.1797,695.5,480.1797,699.5,476.1797" style="stroke:#A80036;stroke-width:1.0;"/><line style="stroke:#A80036;stroke-width:1.0;" x1="79.5" x2="701.5" y1="476.1797" y2="476.1797"/><text fill="#000000" font-family="sans-serif" font-size="13" font-weight="bold" lengthAdjust="spacing" textLength="14" x="86.5" y="471.3232">11</text><text fill="#000000" font-family="sans-serif" font-size="13" lengthAdjust="spacing" textLength="339" x="104.5" y="471.3232">asks to add dose information to the administration process</text><polygon fill="#A80036" points="90.5,502.5313,80.5,506.5313,90.5,510.5313,86.5,506.5313" style="stroke:#A80036;stroke-width:1.0;"/><line style="stroke:#A80036;stroke-width:1.0;stroke-dasharray:2.0,2.0;" x1="84.5" x2="711.5" y1="506.5313" y2="506.5313"/><text fill="#000000" font-family="sans-serif" font-size="13" font-weight="bold" lengthAdjust="spacing" textLength="14" x="96.5" y="501.6748">12</text><text fill="#000000" font-family="sans-serif" font-size="13" lengthAdjust="spacing" textLength="254" x="114.5" y="501.6748">requests data (dosage, timeSinceLastDose)</text><polygon fill="#A80036" points="695.5,532.8828,705.5,536.8828,695.5,540.8828,699.5,536.8828" style="stroke:#A80036;stroke-width:1.0;"/><line style="stroke:#A80036;stroke-width:1.0;" x1="79.5" x2="701.5" y1="536.8828" y2="536.8828"/><text fill="#000000" font-family="sans-serif" font-size="13" font-weight="bold" lengthAdjust="spacing" textLength="14" x="86.5" y="532.0264">13</text><text fill="#000000" font-family="sans-serif" font-size="13" lengthAdjust="spacing" textLength="122" x="104.5" y="532.0264">types requested data</text><polygon fill="#A80036" points="90.5,563.2344,80.5,567.2344,90.5,571.2344,86.5,567.2344" style="stroke:#A80036;stroke-width:1.0;"/><line style="stroke:#A80036;stroke-width:1.0;stroke-dasharray:2.0,2.0;" x1="84.5" x2="711.5" y1="567.2344" y2="567.2344"/><text fill="#000000" font-family="sans-serif" font-size="13" font-weight="bold" lengthAdjust="spacing" textLength="14" x="96.5" y="562.3779">14</text><text fill="#000000" font-family="sans-serif" font-size="13" lengthAdjust="spacing" textLength="311" x="114.5" y="562.3779">shows dose information data and request confirmation</text><polygon fill="#A80036" points="695.5,593.5859,705.5,597.5859,695.5,601.5859,699.5,597.5859" style="stroke:#A80036;stroke-width:1.0;"/><line style="stroke:#A80036;stroke-width:1.0;" x1="79.5" x2="701.5" y1="597.5859" y2="597.5859"/><text fill="#000000" font-family="sans-serif" font-size="13" font-weight="bold" lengthAdjust="spacing" textLength="14" x="86.5" y="592.7295">15</text><text fill="#000000" font-family="sans-serif" font-size="13" lengthAdjust="spacing" textLength="78" x="104.5" y="592.7295">confirms data</text><polygon fill="#A80036" points="90.5,623.9375,80.5,627.9375,90.5,631.9375,86.5,627.9375" style="stroke:#A80036;stroke-width:1.0;"/><line style="stroke:#A80036;stroke-width:1.0;stroke-dasharray:2.0,2.0;" x1="84.5" x2="711.5" y1="627.9375" y2="627.9375"/><text fill="#000000" font-family="sans-serif" font-size="13" font-weight="bold" lengthAdjust="spacing" textLength="14" x="96.5" y="623.0811">16</text><text fill="#000000" font-family="sans-serif" font-size="13" lengthAdjust="spacing" textLength="145" x="114.5" y="623.0811">informs operation sucess</text><polygon fill="#A80036" points="695.5,668.2891,705.5,672.2891,695.5,676.2891,699.5,672.2891" style="stroke:#A80036;stroke-width:1.0;"/><line style="stroke:#A80036;stroke-width:1.0;" x1="79.5" x2="701.5" y1="672.2891" y2="672.2891"/><text fill="#000000" font-family="sans-serif" font-size="13" font-weight="bold" lengthAdjust="spacing" textLength="14" x="86.5" y="667.4326">17</text><text fill="#000000" font-family="sans-serif" font-size="13" lengthAdjust="spacing" textLength="135" x="104.5" y="667.4326">asks to confirm all data</text><polygon fill="#A80036" points="90.5,698.6406,80.5,702.6406,90.5,706.6406,86.5,702.6406" style="stroke:#A80036;stroke-width:1.0;"/><line style="stroke:#A80036;stroke-width:1.0;stroke-dasharray:2.0,2.0;" x1="84.5" x2="711.5" y1="702.6406" y2="702.6406"/><text fill="#000000" font-family="sans-serif" font-size="13" font-weight="bold" lengthAdjust="spacing" textLength="14" x="96.5" y="697.7842">18</text><text fill="#000000" font-family="sans-serif" font-size="13" lengthAdjust="spacing" textLength="236" x="114.5" y="697.7842">shows all data and requests confirmation</text><polygon fill="#A80036" points="695.5,728.9922,705.5,732.9922,695.5,736.9922,699.5,732.9922" style="stroke:#A80036;stroke-width:1.0;"/><line style="stroke:#A80036;stroke-width:1.0;" x1="79.5" x2="701.5" y1="732.9922" y2="732.9922"/><text fill="#000000" font-family="sans-serif" font-size="13" font-weight="bold" lengthAdjust="spacing" textLength="14" x="86.5" y="728.1357">19</text><text fill="#000000" font-family="sans-serif" font-size="13" lengthAdjust="spacing" textLength="100" x="104.5" y="728.1357">confirms the data</text><polygon fill="#A80036" points="85.5,759.3438,75.5,763.3438,85.5,767.3438,81.5,763.3438" style="stroke:#A80036;stroke-width:1.0;"/><line style="stroke:#A80036;stroke-width:1.0;stroke-dasharray:2.0,2.0;" x1="79.5" x2="711.5" y1="763.3438" y2="763.3438"/><text fill="#000000" font-family="sans-serif" font-size="13" font-weight="bold" lengthAdjust="spacing" textLength="14" x="91.5" y="758.4873">20</text><text fill="#000000" font-family="sans-serif" font-size="13" lengthAdjust="spacing" textLength="152" x="109.5" y="758.4873">informs operation success</text><!--MD5=[ed6bdf9cee4173d7e58c7429753e9665]
@startuml
autonumber
actor "Administrator" as OE

activate OE
OE -> ":System" : asks to create a new vaccine
activate ":System"
":System" - -> OE : requests data (designation, id, brand, numberOfAgeGroups) and shows vaccine types list to select one
deactivate ":System"

OE -> ":System" : types requested data
activate ":System"
":System" - -> OE : informs that is ready to move on to the administration processes specification
deactivate ":System"

loop for each age group
    OE -> ":System" : asks to create a new administration process for the vaccine
    activate ":System"
    ":System" - -> OE : requests data (minAge, maxAge, numberOfDoses)
    deactivate ":System"
    OE -> ":System" : types requested data
    activate ":System"
    ":System" - -> OE : shows age group data and request confirmation
    deactivate ":System"
    OE -> ":System" : confirms data
    activate ":System"
    ":System" - -> OE : informs operation sucess
    deactivate ":System"
    
    loop for each dose
        OE -> ":System" : asks to add dose information to the administration process
        activate ":System"
        ":System" - -> OE : requests data (dosage, timeSinceLastDose)
        deactivate ":System"
        OE -> ":System" : types requested data
        activate ":System"
        ":System" - -> OE : shows dose information data and request confirmation
        deactivate ":System"
        OE -> ":System" : confirms data
        activate ":System"
        ":System" - -> OE : informs operation sucess
        deactivate ":System"
    end

end

OE -> ":System" : asks to confirm all data
activate ":System"
":System" - -> OE : shows all data and requests confirmation
deactivate ":System"
OE -> ":System" : confirms the data
activate ":System"
":System" - -> OE : informs operation success
deactivate ":System"

deactivate OE

@enduml

PlantUML version 1.2022.0(Tue Jan 11 16:16:42 WET 2022)
(GPL source distribution)
Java Runtime: OpenJDK Runtime Environment
JVM: OpenJDK 64-Bit Server VM
Default Encoding: Cp1252
Language: pt
Country: PT
--></g></svg>