<?xml version="1.0" encoding="UTF-8" standalone="no"?><svg xmlns="http://www.w3.org/2000/svg" xmlns:xlink="http://www.w3.org/1999/xlink" contentScriptType="application/ecmascript" contentStyleType="text/css" height="454px" preserveAspectRatio="none" style="width:455px;height:454px;background:#FFFFFF;" version="1.1" viewBox="0 0 455 454" width="455px" zoomAndPan="magnify"><defs><filter height="300%" id="f1247hksz2hac6" width="300%" x="-1" y="-1"><feGaussianBlur result="blurOut" stdDeviation="2.0"/><feColorMatrix in="blurOut" result="blurOut2" type="matrix" values="0 0 0 0 0 0 0 0 0 0 0 0 0 0 0 0 0 0 .4 0"/><feOffset dx="4.0" dy="4.0" in="blurOut2" result="blurOut3"/><feBlend in="SourceGraphic" in2="blurOut3" mode="normal"/></filter></defs><g><rect fill="#FFFFFF" filter="url(#f1247hksz2hac6)" height="251.1641" style="stroke:#A80036;stroke-width:1.0;" width="10" x="76" y="99.6094"/><rect fill="#FFFFFF" filter="url(#f1247hksz2hac6)" height="46.7031" style="stroke:#A80036;stroke-width:1.0;" width="10" x="406" y="121.9609"/><rect fill="#FFFFFF" filter="url(#f1247hksz2hac6)" height="30.3516" style="stroke:#A80036;stroke-width:1.0;" width="10" x="406" y="199.0156"/><rect fill="#FFFFFF" filter="url(#f1247hksz2hac6)" height="30.3516" style="stroke:#A80036;stroke-width:1.0;" width="10" x="406" y="259.7188"/><rect fill="#FFFFFF" filter="url(#f1247hksz2hac6)" height="30.3516" style="stroke:#A80036;stroke-width:1.0;" width="10" x="406" y="320.4219"/><line style="stroke:#A80036;stroke-width:1.0;stroke-dasharray:5.0,5.0;" x1="81" x2="81" y1="89.6094" y2="368.7734"/><line style="stroke:#A80036;stroke-width:1.0;stroke-dasharray:5.0,5.0;" x1="411" x2="411" y1="89.6094" y2="368.7734"/><text fill="#000000" font-family="sans-serif" font-size="14" lengthAdjust="spacing" textLength="146" x="5" y="86.5332">Organization Employee</text><ellipse cx="81" cy="15" fill="#FEFECE" filter="url(#f1247hksz2hac6)" rx="8" ry="8" style="stroke:#A80036;stroke-width:2.0;"/><path d="M81,23 L81,50 M68,31 L94,31 M81,50 L68,65 M81,50 L94,65 " fill="none" filter="url(#f1247hksz2hac6)" style="stroke:#A80036;stroke-width:2.0;"/><text fill="#000000" font-family="sans-serif" font-size="14" lengthAdjust="spacing" textLength="146" x="5" y="382.3066">Organization Employee</text><ellipse cx="81" cy="395.3828" fill="#FEFECE" filter="url(#f1247hksz2hac6)" rx="8" ry="8" style="stroke:#A80036;stroke-width:2.0;"/><path d="M81,403.3828 L81,430.3828 M68,411.3828 L94,411.3828 M81,430.3828 L68,445.3828 M81,430.3828 L94,445.3828 " fill="none" filter="url(#f1247hksz2hac6)" style="stroke:#A80036;stroke-width:2.0;"/><rect fill="#FEFECE" filter="url(#f1247hksz2hac6)" height="31.6094" style="stroke:#A80036;stroke-width:1.5;" width="64" x="377" y="53"/><text fill="#000000" font-family="sans-serif" font-size="14" lengthAdjust="spacing" textLength="50" x="384" y="74.5332">:System</text><rect fill="#FEFECE" filter="url(#f1247hksz2hac6)" height="31.6094" style="stroke:#A80036;stroke-width:1.5;" width="64" x="377" y="367.7734"/><text fill="#000000" font-family="sans-serif" font-size="14" lengthAdjust="spacing" textLength="50" x="384" y="389.3066">:System</text><rect fill="#FFFFFF" filter="url(#f1247hksz2hac6)" height="251.1641" style="stroke:#A80036;stroke-width:1.0;" width="10" x="76" y="99.6094"/><rect fill="#FFFFFF" filter="url(#f1247hksz2hac6)" height="46.7031" style="stroke:#A80036;stroke-width:1.0;" width="10" x="406" y="121.9609"/><rect fill="#FFFFFF" filter="url(#f1247hksz2hac6)" height="30.3516" style="stroke:#A80036;stroke-width:1.0;" width="10" x="406" y="199.0156"/><rect fill="#FFFFFF" filter="url(#f1247hksz2hac6)" height="30.3516" style="stroke:#A80036;stroke-width:1.0;" width="10" x="406" y="259.7188"/><rect fill="#FFFFFF" filter="url(#f1247hksz2hac6)" height="30.3516" style="stroke:#A80036;stroke-width:1.0;" width="10" x="406" y="320.4219"/><polygon fill="#A80036" points="394,117.9609,404,121.9609,394,125.9609,398,121.9609" style="stroke:#A80036;stroke-width:1.0;"/><line style="stroke:#A80036;stroke-width:1.0;" x1="86" x2="400" y1="121.9609" y2="121.9609"/><text fill="#000000" font-family="sans-serif" font-size="13" font-weight="bold" lengthAdjust="spacing" textLength="7" x="93" y="117.1045">1</text><text fill="#000000" font-family="sans-serif" font-size="13" lengthAdjust="spacing" textLength="150" x="104" y="117.1045">asks to create a new task</text><polygon fill="#A80036" points="97,164.6641,87,168.6641,97,172.6641,93,168.6641" style="stroke:#A80036;stroke-width:1.0;"/><line style="stroke:#A80036;stroke-width:1.0;stroke-dasharray:2.0,2.0;" x1="91" x2="410" y1="168.6641" y2="168.6641"/><text fill="#000000" font-family="sans-serif" font-size="13" font-weight="bold" lengthAdjust="spacing" textLength="7" x="103" y="155.6318">2</text><text fill="#000000" font-family="sans-serif" font-size="13" lengthAdjust="spacing" textLength="271" x="114" y="147.4561">requests data (reference, designation,  informal</text><text fill="#000000" font-family="sans-serif" font-size="13" lengthAdjust="spacing" textLength="281" x="118" y="163.8076">description, technical description, duration, cost)</text><polygon fill="#A80036" points="394,195.0156,404,199.0156,394,203.0156,398,199.0156" style="stroke:#A80036;stroke-width:1.0;"/><line style="stroke:#A80036;stroke-width:1.0;" x1="86" x2="400" y1="199.0156" y2="199.0156"/><text fill="#000000" font-family="sans-serif" font-size="13" font-weight="bold" lengthAdjust="spacing" textLength="7" x="93" y="194.1592">3</text><text fill="#000000" font-family="sans-serif" font-size="13" lengthAdjust="spacing" textLength="122" x="104" y="194.1592">types requested data</text><polygon fill="#A80036" points="97,225.3672,87,229.3672,97,233.3672,93,229.3672" style="stroke:#A80036;stroke-width:1.0;"/><line style="stroke:#A80036;stroke-width:1.0;stroke-dasharray:2.0,2.0;" x1="91" x2="410" y1="229.3672" y2="229.3672"/><text fill="#000000" font-family="sans-serif" font-size="13" font-weight="bold" lengthAdjust="spacing" textLength="7" x="103" y="224.5107">4</text><text fill="#000000" font-family="sans-serif" font-size="13" lengthAdjust="spacing" textLength="280" x="114" y="224.5107">shows task categories list and ask to select one</text><polygon fill="#A80036" points="394,255.7188,404,259.7188,394,263.7188,398,259.7188" style="stroke:#A80036;stroke-width:1.0;"/><line style="stroke:#A80036;stroke-width:1.0;" x1="86" x2="400" y1="259.7188" y2="259.7188"/><text fill="#000000" font-family="sans-serif" font-size="13" font-weight="bold" lengthAdjust="spacing" textLength="7" x="93" y="254.8623">5</text><text fill="#000000" font-family="sans-serif" font-size="13" lengthAdjust="spacing" textLength="136" x="104" y="254.8623">selects a task category</text><polygon fill="#A80036" points="97,286.0703,87,290.0703,97,294.0703,93,290.0703" style="stroke:#A80036;stroke-width:1.0;"/><line style="stroke:#A80036;stroke-width:1.0;stroke-dasharray:2.0,2.0;" x1="91" x2="410" y1="290.0703" y2="290.0703"/><text fill="#000000" font-family="sans-serif" font-size="13" font-weight="bold" lengthAdjust="spacing" textLength="7" x="103" y="285.2139">6</text><text fill="#000000" font-family="sans-serif" font-size="13" lengthAdjust="spacing" textLength="236" x="114" y="285.2139">shows all data and requests confirmation</text><polygon fill="#A80036" points="394,316.4219,404,320.4219,394,324.4219,398,320.4219" style="stroke:#A80036;stroke-width:1.0;"/><line style="stroke:#A80036;stroke-width:1.0;" x1="86" x2="400" y1="320.4219" y2="320.4219"/><text fill="#000000" font-family="sans-serif" font-size="13" font-weight="bold" lengthAdjust="spacing" textLength="7" x="93" y="315.5654">7</text><text fill="#000000" font-family="sans-serif" font-size="13" lengthAdjust="spacing" textLength="100" x="104" y="315.5654">confirms the data</text><polygon fill="#A80036" points="92,346.7734,82,350.7734,92,354.7734,88,350.7734" style="stroke:#A80036;stroke-width:1.0;"/><line style="stroke:#A80036;stroke-width:1.0;stroke-dasharray:2.0,2.0;" x1="86" x2="410" y1="350.7734" y2="350.7734"/><text fill="#000000" font-family="sans-serif" font-size="13" font-weight="bold" lengthAdjust="spacing" textLength="7" x="98" y="345.917">8</text><text fill="#000000" font-family="sans-serif" font-size="13" lengthAdjust="spacing" textLength="152" x="109" y="345.917">informs operation success</text><!--MD5=[3ca410080826389d7ab12dc93c8804c0]
@startuml
autonumber
actor "Organization Employee" as OE

activate OE
OE -> ":System" : asks to create a new task
activate ":System"
":System" - -> OE : requests data (reference, designation,  informal \n description, technical description, duration, cost)
deactivate ":System"

OE -> ":System" : types requested data
activate ":System"
":System" - -> OE : shows task categories list and ask to select one
deactivate ":System"

OE -> ":System" : selects a task category
activate ":System"
":System" - -> OE : shows all data and requests confirmation
deactivate ":System"

OE -> ":System" : confirms the data
activate ":System"
":System" - -> OE : informs operation success
deactivate ":System"

deactivate OE

@enduml

PlantUML version 1.2022.0(Tue Jan 11 16:16:42 WET 2022)
(GPL source distribution)
Java Runtime: Java(TM) SE Runtime Environment
JVM: Java HotSpot(TM) 64-Bit Server VM
Default Encoding: Cp1252
Language: pt
Country: PT
--></g></svg>