<?xml version="1.0" encoding="UTF-8" standalone="no"?><svg xmlns="http://www.w3.org/2000/svg" xmlns:xlink="http://www.w3.org/1999/xlink" contentScriptType="application/ecmascript" contentStyleType="text/css" height="438px" preserveAspectRatio="none" style="width:824px;height:438px;background:#FFFFFF;" version="1.1" viewBox="0 0 824 438" width="824px" zoomAndPan="magnify"><defs><filter height="300%" id="f1n8mxzd1afn9q" width="300%" x="-1" y="-1"><feGaussianBlur result="blurOut" stdDeviation="2.0"/><feColorMatrix in="blurOut" result="blurOut2" type="matrix" values="0 0 0 0 0 0 0 0 0 0 0 0 0 0 0 0 0 0 .4 0"/><feOffset dx="4.0" dy="4.0" in="blurOut2" result="blurOut3"/><feBlend in="SourceGraphic" in2="blurOut3" mode="normal"/></filter></defs><g><rect fill="#FFFFFF" filter="url(#f1n8mxzd1afn9q)" height="234.8125" style="stroke:#A80036;stroke-width:1.0;" width="10" x="44.5" y="99.6094"/><rect fill="#FFFFFF" filter="url(#f1n8mxzd1afn9q)" height="30.3516" style="stroke:#A80036;stroke-width:1.0;" width="10" x="775.5" y="121.9609"/><rect fill="#FFFFFF" filter="url(#f1n8mxzd1afn9q)" height="30.3516" style="stroke:#A80036;stroke-width:1.0;" width="10" x="775.5" y="182.6641"/><rect fill="#FFFFFF" filter="url(#f1n8mxzd1afn9q)" height="30.3516" style="stroke:#A80036;stroke-width:1.0;" width="10" x="775.5" y="243.3672"/><rect fill="#FFFFFF" filter="url(#f1n8mxzd1afn9q)" height="30.3516" style="stroke:#A80036;stroke-width:1.0;" width="10" x="775.5" y="304.0703"/><line style="stroke:#A80036;stroke-width:1.0;stroke-dasharray:5.0,5.0;" x1="49" x2="49" y1="89.6094" y2="352.4219"/><line style="stroke:#A80036;stroke-width:1.0;stroke-dasharray:5.0,5.0;" x1="780.5" x2="780.5" y1="89.6094" y2="352.4219"/><text fill="#000000" font-family="sans-serif" font-size="14" lengthAdjust="spacing" textLength="83" x="5" y="86.5332">Administrator</text><ellipse cx="49.5" cy="15" fill="#FEFECE" filter="url(#f1n8mxzd1afn9q)" rx="8" ry="8" style="stroke:#A80036;stroke-width:2.0;"/><path d="M49.5,23 L49.5,50 M36.5,31 L62.5,31 M49.5,50 L36.5,65 M49.5,50 L62.5,65 " fill="none" filter="url(#f1n8mxzd1afn9q)" style="stroke:#A80036;stroke-width:2.0;"/><text fill="#000000" font-family="sans-serif" font-size="14" lengthAdjust="spacing" textLength="83" x="5" y="365.9551">Administrator</text><ellipse cx="49.5" cy="379.0313" fill="#FEFECE" filter="url(#f1n8mxzd1afn9q)" rx="8" ry="8" style="stroke:#A80036;stroke-width:2.0;"/><path d="M49.5,387.0313 L49.5,414.0313 M36.5,395.0313 L62.5,395.0313 M49.5,414.0313 L36.5,429.0313 M49.5,414.0313 L62.5,429.0313 " fill="none" filter="url(#f1n8mxzd1afn9q)" style="stroke:#A80036;stroke-width:2.0;"/><rect fill="#FEFECE" filter="url(#f1n8mxzd1afn9q)" height="31.6094" style="stroke:#A80036;stroke-width:1.5;" width="64" x="746.5" y="53"/><text fill="#000000" font-family="sans-serif" font-size="14" lengthAdjust="spacing" textLength="50" x="753.5" y="74.5332">:System</text><rect fill="#FEFECE" filter="url(#f1n8mxzd1afn9q)" height="31.6094" style="stroke:#A80036;stroke-width:1.5;" width="64" x="746.5" y="351.4219"/><text fill="#000000" font-family="sans-serif" font-size="14" lengthAdjust="spacing" textLength="50" x="753.5" y="372.9551">:System</text><rect fill="#FFFFFF" filter="url(#f1n8mxzd1afn9q)" height="234.8125" style="stroke:#A80036;stroke-width:1.0;" width="10" x="44.5" y="99.6094"/><rect fill="#FFFFFF" filter="url(#f1n8mxzd1afn9q)" height="30.3516" style="stroke:#A80036;stroke-width:1.0;" width="10" x="775.5" y="121.9609"/><rect fill="#FFFFFF" filter="url(#f1n8mxzd1afn9q)" height="30.3516" style="stroke:#A80036;stroke-width:1.0;" width="10" x="775.5" y="182.6641"/><rect fill="#FFFFFF" filter="url(#f1n8mxzd1afn9q)" height="30.3516" style="stroke:#A80036;stroke-width:1.0;" width="10" x="775.5" y="243.3672"/><rect fill="#FFFFFF" filter="url(#f1n8mxzd1afn9q)" height="30.3516" style="stroke:#A80036;stroke-width:1.0;" width="10" x="775.5" y="304.0703"/><polygon fill="#A80036" points="763.5,117.9609,773.5,121.9609,763.5,125.9609,767.5,121.9609" style="stroke:#A80036;stroke-width:1.0;"/><line style="stroke:#A80036;stroke-width:1.0;" x1="54.5" x2="769.5" y1="121.9609" y2="121.9609"/><text fill="#000000" font-family="sans-serif" font-size="13" font-weight="bold" lengthAdjust="spacing" textLength="7" x="61.5" y="117.1045">1</text><text fill="#000000" font-family="sans-serif" font-size="13" lengthAdjust="spacing" textLength="168" x="72.5" y="117.1045">asks to create a new vaccine</text><polygon fill="#A80036" points="65.5,148.3125,55.5,152.3125,65.5,156.3125,61.5,152.3125" style="stroke:#A80036;stroke-width:1.0;"/><line style="stroke:#A80036;stroke-width:1.0;stroke-dasharray:2.0,2.0;" x1="59.5" x2="779.5" y1="152.3125" y2="152.3125"/><text fill="#000000" font-family="sans-serif" font-size="13" font-weight="bold" lengthAdjust="spacing" textLength="7" x="71.5" y="147.4561">2</text><text fill="#000000" font-family="sans-serif" font-size="13" lengthAdjust="spacing" textLength="686" x="82.5" y="147.4561">requests data (designation, age groups interval limits, number of dosages, dosages, time interval limits between doses)</text><polygon fill="#A80036" points="763.5,178.6641,773.5,182.6641,763.5,186.6641,767.5,182.6641" style="stroke:#A80036;stroke-width:1.0;"/><line style="stroke:#A80036;stroke-width:1.0;" x1="54.5" x2="769.5" y1="182.6641" y2="182.6641"/><text fill="#000000" font-family="sans-serif" font-size="13" font-weight="bold" lengthAdjust="spacing" textLength="7" x="61.5" y="177.8076">3</text><text fill="#000000" font-family="sans-serif" font-size="13" lengthAdjust="spacing" textLength="122" x="72.5" y="177.8076">types requested data</text><polygon fill="#A80036" points="65.5,209.0156,55.5,213.0156,65.5,217.0156,61.5,213.0156" style="stroke:#A80036;stroke-width:1.0;"/><line style="stroke:#A80036;stroke-width:1.0;stroke-dasharray:2.0,2.0;" x1="59.5" x2="779.5" y1="213.0156" y2="213.0156"/><text fill="#000000" font-family="sans-serif" font-size="13" font-weight="bold" lengthAdjust="spacing" textLength="7" x="71.5" y="208.1592">4</text><text fill="#000000" font-family="sans-serif" font-size="13" lengthAdjust="spacing" textLength="270" x="82.5" y="208.1592">shows vaccine types list and ask to select one</text><polygon fill="#A80036" points="763.5,239.3672,773.5,243.3672,763.5,247.3672,767.5,243.3672" style="stroke:#A80036;stroke-width:1.0;"/><line style="stroke:#A80036;stroke-width:1.0;" x1="54.5" x2="769.5" y1="243.3672" y2="243.3672"/><text fill="#000000" font-family="sans-serif" font-size="13" font-weight="bold" lengthAdjust="spacing" textLength="7" x="61.5" y="238.5107">5</text><text fill="#000000" font-family="sans-serif" font-size="13" lengthAdjust="spacing" textLength="129" x="72.5" y="238.5107">selects a vaccine type</text><polygon fill="#A80036" points="65.5,269.7188,55.5,273.7188,65.5,277.7188,61.5,273.7188" style="stroke:#A80036;stroke-width:1.0;"/><line style="stroke:#A80036;stroke-width:1.0;stroke-dasharray:2.0,2.0;" x1="59.5" x2="779.5" y1="273.7188" y2="273.7188"/><text fill="#000000" font-family="sans-serif" font-size="13" font-weight="bold" lengthAdjust="spacing" textLength="7" x="71.5" y="268.8623">6</text><text fill="#000000" font-family="sans-serif" font-size="13" lengthAdjust="spacing" textLength="236" x="82.5" y="268.8623">shows all data and requests confirmation</text><polygon fill="#A80036" points="763.5,300.0703,773.5,304.0703,763.5,308.0703,767.5,304.0703" style="stroke:#A80036;stroke-width:1.0;"/><line style="stroke:#A80036;stroke-width:1.0;" x1="54.5" x2="769.5" y1="304.0703" y2="304.0703"/><text fill="#000000" font-family="sans-serif" font-size="13" font-weight="bold" lengthAdjust="spacing" textLength="7" x="61.5" y="299.2139">7</text><text fill="#000000" font-family="sans-serif" font-size="13" lengthAdjust="spacing" textLength="100" x="72.5" y="299.2139">confirms the data</text><polygon fill="#A80036" points="60.5,330.4219,50.5,334.4219,60.5,338.4219,56.5,334.4219" style="stroke:#A80036;stroke-width:1.0;"/><line style="stroke:#A80036;stroke-width:1.0;stroke-dasharray:2.0,2.0;" x1="54.5" x2="779.5" y1="334.4219" y2="334.4219"/><text fill="#000000" font-family="sans-serif" font-size="13" font-weight="bold" lengthAdjust="spacing" textLength="7" x="66.5" y="329.5654">8</text><text fill="#000000" font-family="sans-serif" font-size="13" lengthAdjust="spacing" textLength="152" x="77.5" y="329.5654">informs operation success</text><!--MD5=[359035dd6e51816b06806c9739d60fb3]
@startuml
autonumber
actor "Administrator" as OE

activate OE
OE -> ":System" : asks to create a new vaccine
activate ":System"
":System" - -> OE : requests data (designation, age groups interval limits, number of dosages, dosages, time interval limits between doses)
deactivate ":System"

OE -> ":System" : types requested data
activate ":System"
":System" - -> OE : shows vaccine types list and ask to select one
deactivate ":System"

OE -> ":System" : selects a vaccine type
activate ":System"
":System" - -> OE : shows all data and requests confirmation
deactivate ":System"

OE -> ":System" : confirms the data
activate ":System"
":System" - -> OE : informs operation success
deactivate ":System"

deactivate OE

@enduml

PlantUML version 1.2022.0(Tue Jan 11 16:16:42 WET 2022)
(GPL source distribution)
Java Runtime: OpenJDK Runtime Environment
JVM: OpenJDK 64-Bit Server VM
Default Encoding: Cp1252
Language: pt
Country: PT
--></g></svg>