<?xml version="1.0" encoding="UTF-8" standalone="no"?><svg xmlns="http://www.w3.org/2000/svg" xmlns:xlink="http://www.w3.org/1999/xlink" contentScriptType="application/ecmascript" contentStyleType="text/css" height="688px" preserveAspectRatio="none" style="width:712px;height:688px;background:#FFFFFF;" version="1.1" viewBox="0 0 712 688" width="712px" zoomAndPan="magnify"><defs><filter height="300%" id="fj8kzbq3jk4pp" width="300%" x="-1" y="-1"><feGaussianBlur result="blurOut" stdDeviation="2.0"/><feColorMatrix in="blurOut" result="blurOut2" type="matrix" values="0 0 0 0 0 0 0 0 0 0 0 0 0 0 0 0 0 0 .4 0"/><feOffset dx="4.0" dy="4.0" in="blurOut2" result="blurOut3"/><feBlend in="SourceGraphic" in2="blurOut3" mode="normal"/></filter></defs><g><!--MD5=[01435ace8273dc3cae88e7f376e4d373]
cluster core--><polygon fill="#FFFFFF" filter="url(#fj8kzbq3jk4pp)" points="16,6,54,6,61,29.6094,695,29.6094,695,681,16,681,16,6" style="stroke:#000000;stroke-width:1.5;"/><line style="stroke:#000000;stroke-width:1.5;" x1="16" x2="61" y1="29.6094" y2="29.6094"/><text fill="#000000" font-family="sans-serif" font-size="14" font-weight="bold" lengthAdjust="spacing" textLength="32" x="20" y="22.5332">core</text><!--MD5=[9681dc6e01e10c6b4fe06895ae94f592]
cluster UI--><polygon fill="#FFFFFF" filter="url(#fj8kzbq3jk4pp)" points="48,58,68,58,75,81.6094,182,81.6094,182,296,48,296,48,58" style="stroke:#000000;stroke-width:1.5;"/><line style="stroke:#000000;stroke-width:1.5;" x1="48" x2="75" y1="81.6094" y2="81.6094"/><text fill="#000000" font-family="sans-serif" font-size="14" font-weight="bold" lengthAdjust="spacing" textLength="14" x="52" y="74.5332">UI</text><!--MD5=[121a8bf1197281ab89ed693fab589f94]
cluster Domain--><polygon fill="#FFFFFF" filter="url(#fj8kzbq3jk4pp)" points="48,411,106,411,113,434.6094,179,434.6094,179,649,48,649,48,411" style="stroke:#000000;stroke-width:1.5;"/><line style="stroke:#000000;stroke-width:1.5;" x1="48" x2="113" y1="434.6094" y2="434.6094"/><text fill="#000000" font-family="sans-serif" font-size="14" font-weight="bold" lengthAdjust="spacing" textLength="52" x="52" y="427.5332">Domain</text><polygon fill="#FFFFFF" filter="url(#fj8kzbq3jk4pp)" points="206.5,217,291.5,217,298.5,240.6094,305.5,240.6094,305.5,272.2188,206.5,272.2188,206.5,217" style="stroke:#000000;stroke-width:1.5;"/><line style="stroke:#000000;stroke-width:1.5;" x1="206.5" x2="298.5" y1="240.6094" y2="240.6094"/><text fill="#000000" font-family="sans-serif" font-size="14" font-weight="bold" lengthAdjust="spacing" textLength="79" x="210.5" y="233.5332">Controllers</text><polygon fill="#FFFFFF" filter="url(#fj8kzbq3jk4pp)" points="88.5,102,119.5,102,126.5,125.6094,133.5,125.6094,133.5,157.2188,88.5,157.2188,88.5,102" style="stroke:#000000;stroke-width:1.5;"/><line style="stroke:#000000;stroke-width:1.5;" x1="88.5" x2="126.5" y1="125.6094" y2="125.6094"/><text fill="#000000" font-family="sans-serif" font-size="14" font-weight="bold" lengthAdjust="spacing" textLength="25" x="92.5" y="118.5332">GUI</text><polygon fill="#FFFFFF" filter="url(#fj8kzbq3jk4pp)" points="72,217,136,217,143,240.6094,150,240.6094,150,272.2188,72,272.2188,72,217" style="stroke:#000000;stroke-width:1.5;"/><line style="stroke:#000000;stroke-width:1.5;" x1="72" x2="143" y1="240.6094" y2="240.6094"/><text fill="#000000" font-family="sans-serif" font-size="14" font-weight="bold" lengthAdjust="spacing" textLength="58" x="76" y="233.5332">Console</text><polygon fill="#FFFFFF" filter="url(#fj8kzbq3jk4pp)" points="72.5,455,121.5,455,128.5,478.6094,135.5,478.6094,135.5,510.2188,72.5,510.2188,72.5,455" style="stroke:#000000;stroke-width:1.5;"/><line style="stroke:#000000;stroke-width:1.5;" x1="72.5" x2="128.5" y1="478.6094" y2="478.6094"/><text fill="#000000" font-family="sans-serif" font-size="14" font-weight="bold" lengthAdjust="spacing" textLength="43" x="76.5" y="471.5332">model</text><polygon fill="#FFFFFF" filter="url(#fj8kzbq3jk4pp)" points="72,570,124,570,131,593.6094,138,593.6094,138,625.2188,72,625.2188,72,570" style="stroke:#000000;stroke-width:1.5;"/><line style="stroke:#000000;stroke-width:1.5;" x1="72" x2="131" y1="593.6094" y2="593.6094"/><text fill="#000000" font-family="sans-serif" font-size="14" font-weight="bold" lengthAdjust="spacing" textLength="46" x="76" y="586.5332">Stores</text><polygon fill="#FFFFFF" filter="url(#fj8kzbq3jk4pp)" points="203,570,233,570,240,593.6094,247,593.6094,247,625.2188,203,625.2188,203,570" style="stroke:#000000;stroke-width:1.5;"/><line style="stroke:#000000;stroke-width:1.5;" x1="203" x2="240" y1="593.6094" y2="593.6094"/><text fill="#000000" font-family="sans-serif" font-size="14" font-weight="bold" lengthAdjust="spacing" textLength="24" x="207" y="586.5332">Dto</text><polygon fill="#FFFFFF" filter="url(#fj8kzbq3jk4pp)" points="132,332,200,332,207,355.6094,214,355.6094,214,387.2188,132,387.2188,132,332" style="stroke:#000000;stroke-width:1.5;"/><line style="stroke:#000000;stroke-width:1.5;" x1="132" x2="207" y1="355.6094" y2="355.6094"/><text fill="#000000" font-family="sans-serif" font-size="14" font-weight="bold" lengthAdjust="spacing" textLength="62" x="136" y="348.5332">Mappers</text><polygon fill="#FFFFFF" filter="url(#fj8kzbq3jk4pp)" points="282,570,358,570,365,593.6094,372,593.6094,372,625.2188,282,625.2188,282,570" style="stroke:#000000;stroke-width:1.5;"/><line style="stroke:#000000;stroke-width:1.5;" x1="282" x2="365" y1="593.6094" y2="593.6094"/><text fill="#000000" font-family="sans-serif" font-size="14" font-weight="bold" lengthAdjust="spacing" textLength="70" x="286" y="586.5332">Exception</text><polygon fill="#FFFFFF" filter="url(#fj8kzbq3jk4pp)" points="407.5,570,444.5,570,451.5,593.6094,458.5,593.6094,458.5,625.2188,407.5,625.2188,407.5,570" style="stroke:#000000;stroke-width:1.5;"/><line style="stroke:#000000;stroke-width:1.5;" x1="407.5" x2="451.5" y1="593.6094" y2="593.6094"/><text fill="#000000" font-family="sans-serif" font-size="14" font-weight="bold" lengthAdjust="spacing" textLength="31" x="411.5" y="586.5332">Utils</text><polygon fill="#FFFFFF" filter="url(#fj8kzbq3jk4pp)" points="494,570,556,570,563,593.6094,570,593.6094,570,625.2188,494,625.2188,494,570" style="stroke:#000000;stroke-width:1.5;"/><line style="stroke:#000000;stroke-width:1.5;" x1="494" x2="563" y1="593.6094" y2="593.6094"/><text fill="#000000" font-family="sans-serif" font-size="14" font-weight="bold" lengthAdjust="spacing" textLength="56" x="498" y="586.5332">Session</text><polygon fill="#FFFFFF" filter="url(#fj8kzbq3jk4pp)" points="605,570,665,570,672,593.6094,679,593.6094,679,625.2188,605,625.2188,605,570" style="stroke:#000000;stroke-width:1.5;"/><line style="stroke:#000000;stroke-width:1.5;" x1="605" x2="672" y1="593.6094" y2="593.6094"/><text fill="#000000" font-family="sans-serif" font-size="14" font-weight="bold" lengthAdjust="spacing" textLength="54" x="609" y="586.5332">Service</text><!--MD5=[bfba48aceb5f9a4570d2bfef0e77d6cd]
link Stores to model--><path d="M116.42,569.91 C118.5,553.62 118.53,532.68 116.58,515.48 " fill="none" id="Stores-to-model" style="stroke:#A80036;stroke-width:1.0;stroke-dasharray:7.0,7.0;"/><polygon fill="#A80036" points="115.92,510.28,113.0839,519.7117,116.549,515.2403,121.0204,518.7053,115.92,510.28" style="stroke:#A80036;stroke-width:1.0;"/><!--MD5=[4dda8289efbc021ce9cd68972ee16fb1]
link model to Stores--><path d="M93.21,510.28 C91.27,526.6 91.26,547.56 93.12,564.72 " fill="none" id="model-to-Stores" style="stroke:#A80036;stroke-width:1.0;stroke-dasharray:7.0,7.0;"/><polygon fill="#A80036" points="93.76,569.91,96.6528,560.4956,93.1609,564.946,88.7104,561.4541,93.76,569.91" style="stroke:#A80036;stroke-width:1.0;"/><!--MD5=[1d15d32329e53e89c950c7808a8d40e3]
link Controllers to Mappers--><path d="M236.33,272.28 C224.13,288.89 208.42,310.28 195.7,327.6 " fill="none" id="Controllers-to-Mappers" style="stroke:#A80036;stroke-width:1.0;stroke-dasharray:7.0,7.0;"/><polygon fill="#A80036" points="192.53,331.91,201.0801,327.0218,195.4887,327.8793,194.6311,322.2879,192.53,331.91" style="stroke:#A80036;stroke-width:1.0;"/><!--MD5=[050e352373bbcff083fb8deb9ac850c3]
link Controllers to Domain--><path d="M254.68,272.17 C252.52,301.26 246.85,348.79 232,387 C223.23,409.57 208.645,432.4475 195.935,450.0388 C189.58,458.8344 183.6938,466.3084 179.2375,471.7617 C179.1679,471.8469 179.0986,471.9316 179.0297,472.0159 " fill="none" id="Controllers-to-Domain" style="stroke:#A80036;stroke-width:1.0;stroke-dasharray:7.0,7.0;"/><polygon fill="#A80036" points="179.0297,472.0159,187.8253,467.5845,182.1964,468.1466,181.6344,462.5177,179.0297,472.0159" style="stroke:#A80036;stroke-width:1.0;"/><!--MD5=[bb4acd81d18e7ee3505d81d4ee75e8fc]
link UI to Controllers--><path d="M182.1916,141.7919 C182.7082,142.5038 183.2447,143.2433 183.7999,144.0085 C184.9103,145.5388 186.0954,147.1721 187.3447,148.8938 C189.8432,152.3371 192.5984,156.1341 195.5263,160.1687 C207.2375,176.3075 221.71,196.25 233.56,212.58 " fill="none" id="UI-to-Controllers" style="stroke:#A80036;stroke-width:1.0;stroke-dasharray:7.0,7.0;"/><polygon fill="#A80036" points="236.68,216.88,234.6396,207.2448,233.7468,212.8308,228.1609,211.9379,236.68,216.88" style="stroke:#A80036;stroke-width:1.0;"/><!--MD5=[b9c782b0117ccead1eb79c46d44ee749]
link Domain to Dto--><path d="M179.1243,500.4991 C179.3233,500.9154 179.5249,501.3374 179.7292,501.7649 C181.3636,505.1852 183.1663,508.9575 185.0825,512.9675 C192.7475,529.0075 202.23,548.85 210.03,565.17 " fill="none" id="Domain-to-Dto" style="stroke:#A80036;stroke-width:1.0;stroke-dasharray:7.0,7.0;"/><polygon fill="#A80036" points="212.28,569.88,212.0341,560.0342,210.1359,565.3631,204.807,563.4648,212.28,569.88" style="stroke:#A80036;stroke-width:1.0;"/><!--MD5=[0f9830d8ab9b156623965c9f6c0c667e]
link Domain to Utils--><path d="M179.3536,486.2046 C179.8906,486.3807 180.4516,486.5649 181.0358,486.7572 C182.2044,487.1418 183.4665,487.5587 184.8174,488.007 C187.5193,488.9036 190.5768,489.9257 193.9533,491.0658 C207.4591,495.6259 226.0681,502.0731 247.4363,509.9237 C290.1725,525.625 343.945,546.94 390,570 C394.35,572.18 398.84,574.66 403.19,577.21 " fill="none" id="Domain-to-Utils" style="stroke:#A80036;stroke-width:1.0;stroke-dasharray:7.0,7.0;"/><polygon fill="#A80036" points="407.5,579.77,401.809,571.7318,403.2025,577.2143,397.72,578.6078,407.5,579.77" style="stroke:#A80036;stroke-width:1.0;"/><!--MD5=[835418eecbec6a15c3ae038c7792d8c3]
link Domain to Exception--><path d="M179.2782,489.4961 C179.3731,489.5649 179.4688,489.6342 179.5651,489.704 C179.7579,489.8436 179.9534,489.9853 180.1519,490.129 C180.5487,490.4165 180.9568,490.7121 181.3759,491.0157 C182.2141,491.6229 183.0961,492.2618 184.0194,492.9306 C191.4056,498.2813 201.4325,505.545 212.7725,513.76 C235.4525,530.19 263.385,550.425 285.95,566.77 " fill="none" id="Domain-to-Exception" style="stroke:#A80036;stroke-width:1.0;stroke-dasharray:7.0,7.0;"/><polygon fill="#A80036" points="290.25,569.88,285.2937,561.3691,286.1959,566.9536,280.6114,567.8558,290.25,569.88" style="stroke:#A80036;stroke-width:1.0;"/><!--MD5=[781d8f2da72575a94f5740d778bcd2d3]
link Domain to Service--><path d="M179.033,484.3977 C179.4064,484.441 179.7922,484.4859 180.1902,484.5323 C180.9863,484.6252 181.8312,484.7245 182.7239,484.8301 C189.8657,485.6752 200.0657,486.9291 212.7577,488.6133 C238.1416,491.9816 273.4931,497.0706 314.2813,504.0513 C395.8575,518.0125 499.18,539.54 588,570 C591.98,571.36 596.04,572.95 600.06,574.66 " fill="none" id="Domain-to-Service" style="stroke:#A80036;stroke-width:1.0;stroke-dasharray:7.0,7.0;"/><polygon fill="#A80036" points="604.75,576.72,598.0995,569.4556,600.1669,574.7212,594.9014,576.7885,604.75,576.72" style="stroke:#A80036;stroke-width:1.0;"/><!--MD5=[d0d050c186eb43eb99dec2770a5f2720]
link Domain to Session--><path d="M179.4302,485.3507 C179.7506,485.4219 180.0796,485.4952 180.4171,485.5704 C185.8166,486.7743 193.387,488.4867 202.7291,490.6622 C221.4131,495.0131 247.1837,501.2162 276.8475,508.9075 C336.175,524.29 411.075,545.625 476,570 C480.29,571.61 484.7,573.42 489.08,575.31 " fill="none" id="Domain-to-Session" style="stroke:#A80036;stroke-width:1.0;stroke-dasharray:7.0,7.0;"/><polygon fill="#A80036" points="493.8,577.4,487.1769,570.1106,489.2245,575.3839,483.9512,577.4315,493.8,577.4" style="stroke:#A80036;stroke-width:1.0;"/><!--MD5=[e520cc194c2a0f527ea9a8a291e7735a]
link Mappers to Domain--><path d="M172.56,387.05 C172.4888,391.3638 172.4119,396.0178 172.3318,400.8665 C172.2917,403.2908 172.2509,405.7639 172.2095,408.2673 C172.1992,408.8932 172.1888,409.5209 172.1784,410.1503 C172.1758,410.3077 172.1732,410.4651 172.1706,410.6227 " fill="none" id="Mappers-to-Domain" style="stroke:#A80036;stroke-width:1.0;stroke-dasharray:7.0,7.0;"/><polygon fill="#A80036" points="172.1706,410.6227,176.3187,401.69,172.2532,405.6233,168.3198,401.5578,172.1706,410.6227" style="stroke:#A80036;stroke-width:1.0;"/><!--MD5=[b223fce6041fad6724a516158479ebb8]
link GUI to Console--><path d="M99.97,157.28 C97.88,173.6 97.7,194.56 99.4,211.72 " fill="none" id="GUI-to-Console" style="stroke:#A80036;stroke-width:1.0;stroke-dasharray:7.0,7.0;"/><polygon fill="#A80036" points="99.99,216.91,102.9628,207.5205,99.4331,211.9411,95.0125,208.4115,99.99,216.91" style="stroke:#A80036;stroke-width:1.0;"/><!--MD5=[146513fb4e68e799abb1bf91037b6130]
link Console to GUI--><path d="M122.65,216.91 C124.88,200.62 125.09,179.68 123.3,162.48 " fill="none" id="Console-to-GUI" style="stroke:#A80036;stroke-width:1.0;stroke-dasharray:7.0,7.0;"/><polygon fill="#A80036" points="122.68,157.28,119.7605,166.6862,123.265,162.2457,127.7056,165.7502,122.68,157.28" style="stroke:#A80036;stroke-width:1.0;"/><!--MD5=[9a4a7955cc1cc777afcadbefbac4d764]
@startuml PackageDiagram
package core {
    package Controllers {}
    package UI {
        package GUI {}
        package Console {}
    }
    package Domain {
        package model {}
        package Stores {}
    }
    package Dto {}
    package Mappers {}
    package Exception {}
    package Utils {}
    package Session {}
    package Service {}
}

Stores ..> model
model ..> Stores

Controllers ..> Mappers
Controllers ..> Domain

UI ..> Controllers

Domain ..> Dto
Domain ..> Utils
Domain ..> Exception
Domain ..> Service
Domain ..> Session

Mappers ..> Domain

GUI ..> Console
Console ..> GUI


@enduml

PlantUML version 1.2022.0(Tue Jan 11 16:16:42 WET 2022)
(GPL source distribution)
Java Runtime: Java(TM) SE Runtime Environment
JVM: Java HotSpot(TM) 64-Bit Server VM
Default Encoding: Cp1252
Language: pt
Country: PT
--></g></svg>