<?xml version="1.0" encoding="UTF-8" standalone="no"?><svg xmlns="http://www.w3.org/2000/svg" xmlns:xlink="http://www.w3.org/1999/xlink" contentScriptType="application/ecmascript" contentStyleType="text/css" height="825px" preserveAspectRatio="none" style="width:1697px;height:825px;background:#FFFFFF;" version="1.1" viewBox="0 0 1697 825" width="1697px" zoomAndPan="magnify"><defs><filter height="300%" id="f1k7qgvw43roab" width="300%" x="-1" y="-1"><feGaussianBlur result="blurOut" stdDeviation="2.0"/><feColorMatrix in="blurOut" result="blurOut2" type="matrix" values="0 0 0 0 0 0 0 0 0 0 0 0 0 0 0 0 0 0 .4 0"/><feOffset dx="4.0" dy="4.0" in="blurOut2" result="blurOut3"/><feBlend in="SourceGraphic" in2="blurOut3" mode="normal"/></filter></defs><g><rect fill="#FFFFFF" filter="url(#f1k7qgvw43roab)" height="479.2891" style="stroke:#A80036;stroke-width:1.0;" width="10" x="206" y="202.5703"/><rect fill="#FFFFFF" filter="url(#f1k7qgvw43roab)" height="631.6016" style="stroke:#A80036;stroke-width:1.0;" width="10" x="311.5" y="99.6094"/><rect fill="#FFFFFF" filter="url(#f1k7qgvw43roab)" height="575.25" style="stroke:#A80036;stroke-width:1.0;" width="10" x="407.5" y="155.9609"/><rect fill="#FFFFFF" filter="url(#f1k7qgvw43roab)" height="66.6094" style="stroke:#A80036;stroke-width:1.0;" width="10" x="792" y="403.8438"/><rect fill="#FFFFFF" filter="url(#f1k7qgvw43roab)" height="181.0547" style="stroke:#A80036;stroke-width:1.0;" width="10" x="792" y="500.8047"/><rect fill="#FFFFFF" filter="url(#f1k7qgvw43roab)" height="30" style="stroke:#A80036;stroke-width:1.0;" width="10" x="1055" y="531.1563"/><rect fill="#FFFFFF" filter="url(#f1k7qgvw43roab)" height="30" style="stroke:#A80036;stroke-width:1.0;" width="10" x="1055" y="651.8594"/><rect fill="#FFFFFF" filter="url(#f1k7qgvw43roab)" height="30" style="stroke:#A80036;stroke-width:1.0;" width="10" x="1218" y="591.5078"/><rect fill="#FFFFFF" filter="url(#f1k7qgvw43roab)" height="30" style="stroke:#A80036;stroke-width:1.0;" width="10" x="1355" y="440.4531"/><rect fill="#FFFFFF" filter="url(#f1k7qgvw43roab)" height="30" style="stroke:#A80036;stroke-width:1.0;" width="10" x="1429.5" y="273.1406"/><rect fill="#FFFFFF" filter="url(#f1k7qgvw43roab)" height="30" style="stroke:#A80036;stroke-width:1.0;" width="10" x="1498.5" y="333.4922"/><line style="stroke:#A80036;stroke-width:1.0;stroke-dasharray:5.0,5.0;" x1="211" x2="211" y1="89.6094" y2="740.2109"/><line style="stroke:#A80036;stroke-width:1.0;stroke-dasharray:5.0,5.0;" x1="316" x2="316" y1="89.6094" y2="740.2109"/><line style="stroke:#A80036;stroke-width:1.0;stroke-dasharray:5.0,5.0;" x1="412" x2="412" y1="173.2656" y2="740.2109"/><line style="stroke:#A80036;stroke-width:1.0;stroke-dasharray:5.0,5.0;" x1="796.5" x2="796.5" y1="404.7969" y2="740.2109"/><line style="stroke:#A80036;stroke-width:1.0;stroke-dasharray:5.0,5.0;" x1="1060" x2="1060" y1="228.6797" y2="740.2109"/><line style="stroke:#A80036;stroke-width:1.0;stroke-dasharray:5.0,5.0;" x1="1223" x2="1223" y1="89.6094" y2="740.2109"/><line style="stroke:#A80036;stroke-width:1.0;stroke-dasharray:5.0,5.0;" x1="1360" x2="1360" y1="89.6094" y2="740.2109"/><line style="stroke:#A80036;stroke-width:1.0;stroke-dasharray:5.0,5.0;" x1="1434" x2="1434" y1="89.6094" y2="740.2109"/><line style="stroke:#A80036;stroke-width:1.0;stroke-dasharray:5.0,5.0;" x1="1503" x2="1503" y1="89.6094" y2="740.2109"/><line style="stroke:#A80036;stroke-width:1.0;stroke-dasharray:5.0,5.0;" x1="1618" x2="1618" y1="89.6094" y2="740.2109"/><text fill="#000000" font-family="sans-serif" font-size="14" lengthAdjust="spacing" textLength="122" x="147" y="86.5332">Center Coordinator</text><ellipse cx="211" cy="15" fill="#FEFECE" filter="url(#f1k7qgvw43roab)" rx="8" ry="8" style="stroke:#A80036;stroke-width:2.0;"/><path d="M211,23 L211,50 M198,31 L224,31 M211,50 L198,65 M211,50 L224,65 " fill="none" filter="url(#f1k7qgvw43roab)" style="stroke:#A80036;stroke-width:2.0;"/><text fill="#000000" font-family="sans-serif" font-size="14" lengthAdjust="spacing" textLength="122" x="147" y="753.7441">Center Coordinator</text><ellipse cx="211" cy="766.8203" fill="#FEFECE" filter="url(#f1k7qgvw43roab)" rx="8" ry="8" style="stroke:#A80036;stroke-width:2.0;"/><path d="M211,774.8203 L211,801.8203 M198,782.8203 L224,782.8203 M211,801.8203 L198,816.8203 M211,801.8203 L224,816.8203 " fill="none" filter="url(#f1k7qgvw43roab)" style="stroke:#A80036;stroke-width:2.0;"/><rect fill="#FEFECE" filter="url(#f1k7qgvw43roab)" height="31.6094" style="stroke:#A80036;stroke-width:1.5;" width="59" x="285" y="53"/><text fill="#000000" font-family="sans-serif" font-size="14" lengthAdjust="spacing" textLength="45" x="292" y="74.5332">:AuthUI</text><rect fill="#FEFECE" filter="url(#f1k7qgvw43roab)" height="31.6094" style="stroke:#A80036;stroke-width:1.5;" width="59" x="285" y="739.2109"/><text fill="#000000" font-family="sans-serif" font-size="14" lengthAdjust="spacing" textLength="45" x="292" y="760.7441">:AuthUI</text><rect fill="#FEFECE" filter="url(#f1k7qgvw43roab)" height="31.6094" style="stroke:#A80036;stroke-width:1.5;" width="105" x="358" y="739.2109"/><text fill="#000000" font-family="sans-serif" font-size="14" lengthAdjust="spacing" textLength="91" x="365" y="760.7441">:CoordinatorUI</text><rect fill="#FEFECE" filter="url(#f1k7qgvw43roab)" height="31.6094" style="stroke:#A80036;stroke-width:1.5;" width="299" x="645.5" y="739.2109"/><text fill="#000000" font-family="sans-serif" font-size="14" lengthAdjust="spacing" textLength="285" x="652.5" y="760.7441">:FindCoordinatorVaccinationCenterController</text><rect fill="#FEFECE" filter="url(#f1k7qgvw43roab)" height="49.2188" style="stroke:#A80036;stroke-width:1.5;" width="130" x="993" y="739.2109"/><text fill="#000000" font-family="sans-serif" font-size="14" lengthAdjust="spacing" textLength="111" x="1002.5" y="760.7441">employeeSession</text><text fill="#000000" font-family="sans-serif" font-size="14" lengthAdjust="spacing" textLength="116" x="1000" y="778.3535">:EmployeeSession</text><rect fill="#FEFECE" filter="url(#f1k7qgvw43roab)" height="49.2188" style="stroke:#A80036;stroke-width:1.5;" width="168" x="1137" y="35.3906"/><text fill="#000000" font-family="sans-serif" font-size="14" lengthAdjust="spacing" textLength="148" x="1147" y="56.9238">vaccinationCenterStore</text><text fill="#000000" font-family="sans-serif" font-size="14" lengthAdjust="spacing" textLength="154" x="1144" y="74.5332">:VaccinationCenterStore</text><rect fill="#FEFECE" filter="url(#f1k7qgvw43roab)" height="49.2188" style="stroke:#A80036;stroke-width:1.5;" width="168" x="1137" y="739.2109"/><text fill="#000000" font-family="sans-serif" font-size="14" lengthAdjust="spacing" textLength="148" x="1147" y="760.7441">vaccinationCenterStore</text><text fill="#000000" font-family="sans-serif" font-size="14" lengthAdjust="spacing" textLength="154" x="1144" y="778.3535">:VaccinationCenterStore</text><rect fill="#FEFECE" filter="url(#f1k7qgvw43roab)" height="49.2188" style="stroke:#A80036;stroke-width:1.5;" width="78" x="1319" y="35.3906"/><text fill="#000000" font-family="sans-serif" font-size="14" lengthAdjust="spacing" textLength="57" x="1329.5" y="56.9238">company</text><text fill="#000000" font-family="sans-serif" font-size="14" lengthAdjust="spacing" textLength="64" x="1326" y="74.5332">:Company</text><rect fill="#FEFECE" filter="url(#f1k7qgvw43roab)" height="49.2188" style="stroke:#A80036;stroke-width:1.5;" width="78" x="1319" y="739.2109"/><text fill="#000000" font-family="sans-serif" font-size="14" lengthAdjust="spacing" textLength="57" x="1329.5" y="760.7441">company</text><text fill="#000000" font-family="sans-serif" font-size="14" lengthAdjust="spacing" textLength="64" x="1326" y="778.3535">:Company</text><rect fill="#FEFECE" filter="url(#f1k7qgvw43roab)" height="31.6094" style="stroke:#A80036;stroke-width:1.5;" width="43" x="1411" y="53"/><text fill="#000000" font-family="sans-serif" font-size="14" lengthAdjust="spacing" textLength="29" x="1418" y="74.5332">:App</text><rect fill="#FEFECE" filter="url(#f1k7qgvw43roab)" height="31.6094" style="stroke:#A80036;stroke-width:1.5;" width="43" x="1411" y="739.2109"/><text fill="#000000" font-family="sans-serif" font-size="14" lengthAdjust="spacing" textLength="29" x="1418" y="760.7441">:App</text><rect fill="#FEFECE" filter="url(#f1k7qgvw43roab)" height="31.6094" style="stroke:#A80036;stroke-width:1.5;" width="67" x="1468" y="53"/><text fill="#000000" font-family="sans-serif" font-size="14" lengthAdjust="spacing" textLength="53" x="1475" y="74.5332">app:App</text><rect fill="#FEFECE" filter="url(#f1k7qgvw43roab)" height="31.6094" style="stroke:#A80036;stroke-width:1.5;" width="67" x="1468" y="739.2109"/><text fill="#000000" font-family="sans-serif" font-size="14" lengthAdjust="spacing" textLength="53" x="1475" y="760.7441">app:App</text><rect fill="#FEFECE" filter="url(#f1k7qgvw43roab)" height="49.2188" style="stroke:#A80036;stroke-width:1.5;" width="134" x="1549" y="35.3906"/><text fill="#000000" font-family="sans-serif" font-size="14" lengthAdjust="spacing" textLength="114" x="1559" y="56.9238">vaccinationCenter</text><text fill="#000000" font-family="sans-serif" font-size="14" lengthAdjust="spacing" textLength="120" x="1556" y="74.5332">:VaccinationCenter</text><rect fill="#FEFECE" filter="url(#f1k7qgvw43roab)" height="49.2188" style="stroke:#A80036;stroke-width:1.5;" width="134" x="1549" y="739.2109"/><text fill="#000000" font-family="sans-serif" font-size="14" lengthAdjust="spacing" textLength="114" x="1559" y="760.7441">vaccinationCenter</text><text fill="#000000" font-family="sans-serif" font-size="14" lengthAdjust="spacing" textLength="120" x="1556" y="778.3535">:VaccinationCenter</text><rect fill="#FFFFFF" filter="url(#f1k7qgvw43roab)" height="479.2891" style="stroke:#A80036;stroke-width:1.0;" width="10" x="206" y="202.5703"/><rect fill="#FFFFFF" filter="url(#f1k7qgvw43roab)" height="631.6016" style="stroke:#A80036;stroke-width:1.0;" width="10" x="311.5" y="99.6094"/><rect fill="#FFFFFF" filter="url(#f1k7qgvw43roab)" height="575.25" style="stroke:#A80036;stroke-width:1.0;" width="10" x="407.5" y="155.9609"/><rect fill="#FFFFFF" filter="url(#f1k7qgvw43roab)" height="66.6094" style="stroke:#A80036;stroke-width:1.0;" width="10" x="792" y="403.8438"/><rect fill="#FFFFFF" filter="url(#f1k7qgvw43roab)" height="181.0547" style="stroke:#A80036;stroke-width:1.0;" width="10" x="792" y="500.8047"/><rect fill="#FFFFFF" filter="url(#f1k7qgvw43roab)" height="30" style="stroke:#A80036;stroke-width:1.0;" width="10" x="1055" y="531.1563"/><rect fill="#FFFFFF" filter="url(#f1k7qgvw43roab)" height="30" style="stroke:#A80036;stroke-width:1.0;" width="10" x="1055" y="651.8594"/><rect fill="#FFFFFF" filter="url(#f1k7qgvw43roab)" height="30" style="stroke:#A80036;stroke-width:1.0;" width="10" x="1218" y="591.5078"/><rect fill="#FFFFFF" filter="url(#f1k7qgvw43roab)" height="30" style="stroke:#A80036;stroke-width:1.0;" width="10" x="1355" y="440.4531"/><rect fill="#FFFFFF" filter="url(#f1k7qgvw43roab)" height="30" style="stroke:#A80036;stroke-width:1.0;" width="10" x="1429.5" y="273.1406"/><rect fill="#FFFFFF" filter="url(#f1k7qgvw43roab)" height="30" style="stroke:#A80036;stroke-width:1.0;" width="10" x="1498.5" y="333.4922"/><path d="M117,104.6094 L117,130.6094 L300,130.6094 L300,114.6094 L290,104.6094 L117,104.6094 " fill="#FBFB77" filter="url(#f1k7qgvw43roab)" style="stroke:#A80036;stroke-width:1.0;"/><path d="M290,104.6094 L290,114.6094 L300,114.6094 L290,104.6094 " fill="#FBFB77" style="stroke:#A80036;stroke-width:1.0;"/><text fill="#000000" font-family="sans-serif" font-size="13" lengthAdjust="spacing" textLength="162" x="123" y="123.1045">After logging in successfully</text><polygon fill="#A80036" points="346,141.9609,356,145.9609,346,149.9609,350,145.9609" style="stroke:#A80036;stroke-width:1.0;"/><line style="stroke:#A80036;stroke-width:1.0;" x1="321.5" x2="352" y1="145.9609" y2="145.9609"/><rect fill="#FEFECE" filter="url(#f1k7qgvw43roab)" height="31.6094" style="stroke:#A80036;stroke-width:1.5;" width="105" x="358" y="139.9609"/><text fill="#000000" font-family="sans-serif" font-size="14" lengthAdjust="spacing" textLength="91" x="365" y="161.4941">:CoordinatorUI</text><polygon fill="#A80036" points="981,188.5703,991,192.5703,981,196.5703,985,192.5703" style="stroke:#A80036;stroke-width:1.0;"/><line style="stroke:#A80036;stroke-width:1.0;" x1="417.5" x2="987" y1="192.5703" y2="192.5703"/><rect fill="#FEFECE" filter="url(#f1k7qgvw43roab)" height="49.2188" style="stroke:#A80036;stroke-width:1.5;" width="130" x="993" y="186.5703"/><text fill="#000000" font-family="sans-serif" font-size="14" lengthAdjust="spacing" textLength="111" x="1002.5" y="208.1035">employeeSession</text><text fill="#000000" font-family="sans-serif" font-size="14" lengthAdjust="spacing" textLength="116" x="1000" y="225.7129">:EmployeeSession</text><polygon fill="#A80036" points="1417.5,269.1406,1427.5,273.1406,1417.5,277.1406,1421.5,273.1406" style="stroke:#A80036;stroke-width:1.0;"/><line style="stroke:#A80036;stroke-width:1.0;" x1="417.5" x2="1423.5" y1="273.1406" y2="273.1406"/><text fill="#000000" font-family="sans-serif" font-size="13" lengthAdjust="spacing" textLength="104" x="424.5" y="268.2842">app=getInstance()</text><polygon fill="#A80036" points="1486.5,329.4922,1496.5,333.4922,1486.5,337.4922,1490.5,333.4922" style="stroke:#A80036;stroke-width:1.0;"/><line style="stroke:#A80036;stroke-width:1.0;" x1="417.5" x2="1492.5" y1="333.4922" y2="333.4922"/><text fill="#000000" font-family="sans-serif" font-size="13" lengthAdjust="spacing" textLength="142" x="424.5" y="328.6357">company=getCompany()</text><polygon fill="#A80036" points="633.5,389.8438,643.5,393.8438,633.5,397.8438,637.5,393.8438" style="stroke:#A80036;stroke-width:1.0;"/><line style="stroke:#A80036;stroke-width:1.0;" x1="417.5" x2="639.5" y1="393.8438" y2="393.8438"/><text fill="#000000" font-family="sans-serif" font-size="13" lengthAdjust="spacing" textLength="204" x="424.5" y="388.9873">create(company,employeeSession)</text><rect fill="#FEFECE" filter="url(#f1k7qgvw43roab)" height="31.6094" style="stroke:#A80036;stroke-width:1.5;" width="299" x="645.5" y="371.4922"/><text fill="#000000" font-family="sans-serif" font-size="14" lengthAdjust="spacing" textLength="285" x="652.5" y="393.0254">:FindCoordinatorVaccinationCenterController</text><polygon fill="#A80036" points="1343,436.4531,1353,440.4531,1343,444.4531,1347,440.4531" style="stroke:#A80036;stroke-width:1.0;"/><line style="stroke:#A80036;stroke-width:1.0;" x1="802" x2="1349" y1="440.4531" y2="440.4531"/><text fill="#000000" font-family="sans-serif" font-size="13" lengthAdjust="spacing" textLength="304" x="809" y="435.5967">vaccinationCenterStore=getVaccinationCenterStore()</text><polygon fill="#A80036" points="780,496.8047,790,500.8047,780,504.8047,784,500.8047" style="stroke:#A80036;stroke-width:1.0;"/><line style="stroke:#A80036;stroke-width:1.0;" x1="417.5" x2="786" y1="500.8047" y2="500.8047"/><text fill="#000000" font-family="sans-serif" font-size="13" lengthAdjust="spacing" textLength="242" x="424.5" y="495.9482">vaccinationCenter=findCoordinatorCenter()</text><polygon fill="#A80036" points="1043,527.1563,1053,531.1563,1043,535.1563,1047,531.1563" style="stroke:#A80036;stroke-width:1.0;"/><line style="stroke:#A80036;stroke-width:1.0;" x1="802" x2="1049" y1="531.1563" y2="531.1563"/><text fill="#000000" font-family="sans-serif" font-size="13" lengthAdjust="spacing" textLength="106" x="809" y="526.2998">email = getEmail()</text><polygon fill="#A80036" points="1206,587.5078,1216,591.5078,1206,595.5078,1210,591.5078" style="stroke:#A80036;stroke-width:1.0;"/><line style="stroke:#A80036;stroke-width:1.0;" x1="802" x2="1212" y1="591.5078" y2="591.5078"/><text fill="#000000" font-family="sans-serif" font-size="13" lengthAdjust="spacing" textLength="289" x="809" y="586.6514">getVaccinationCenterWithCoordinatorEmail(email)</text><polygon fill="#A80036" points="1043,647.8594,1053,651.8594,1043,655.8594,1047,651.8594" style="stroke:#A80036;stroke-width:1.0;"/><line style="stroke:#A80036;stroke-width:1.0;" x1="802" x2="1049" y1="651.8594" y2="651.8594"/><text fill="#000000" font-family="sans-serif" font-size="13" lengthAdjust="spacing" textLength="234" x="809" y="647.0029">setVaccinationCenter(vaccinationCenter)</text><path d="M5,694.8594 L5,720.8594 L414,720.8594 L414,704.8594 L404,694.8594 L5,694.8594 " fill="#FBFB77" filter="url(#f1k7qgvw43roab)" style="stroke:#A80036;stroke-width:1.0;"/><path d="M404,694.8594 L404,704.8594 L414,704.8594 L404,694.8594 " fill="#FBFB77" style="stroke:#A80036;stroke-width:1.0;"/><text fill="#000000" font-family="sans-serif" font-size="13" lengthAdjust="spacing" textLength="388" x="11" y="713.3545">The employee vaccination center is stored in the EmployeeSession</text><!--MD5=[3da625a600d78fe5bc934a428f232369]
@startuml CoordinatorLogin_SD

actor "Center Coordinator" as COORDINATOR

note over COORDINATOR
 After logging in successfully
end note

participant ":AuthUI" as AUTHUI
participant ":CoordinatorUI" as EUI
participant ":FindCoordinatorVaccinationCenterController" as CTRL
participant "employeeSession\n:EmployeeSession" as SESSION
participant "company\n:Company" as COMP
participant "vaccinationCenterStore\n:VaccinationCenterStore" as VACCS
participant "company\n:Company" as COMP
participant ":App" as _APP
participant "app:App" as APP
participant "vaccinationCenter\n:VaccinationCenter"


activate AUTHUI
AUTHUI -> EUI **
activate EUI
EUI -> SESSION **
activate COORDINATOR


EUI -> _APP : app=getInstance()
activate _APP
deactivate _APP

EUI -> APP : company=getCompany()
activate APP
deactivate APP


EUI -> CTRL ** : create(company,employeeSession)
activate CTRL
CTRL -> COMP : vaccinationCenterStore=getVaccinationCenterStore()
activate COMP
deactivate COMP
deactivate CTRL

EUI -> CTRL : vaccinationCenter=findCoordinatorCenter()
activate CTRL

CTRL -> SESSION : email = getEmail()
activate SESSION
deactivate SESSION

CTRL -> VACCS : getVaccinationCenterWithCoordinatorEmail(email)
activate VACCS
deactivate VACCS

CTRL -> SESSION : setVaccinationCenter(vaccinationCenter)
activate SESSION
deactivate SESSION

deactivate CTRL

deactivate CTRL

deactivate COORDINATOR


note over COORDINATOR
  The employee vaccination center is stored in the EmployeeSession
end note
@enduml

PlantUML version 1.2022.0(Tue Jan 11 16:16:42 WET 2022)
(GPL source distribution)
Java Runtime: Java(TM) SE Runtime Environment
JVM: Java HotSpot(TM) 64-Bit Server VM
Default Encoding: Cp1252
Language: pt
Country: PT
--></g></svg>