<?xml version="1.0" encoding="UTF-8" standalone="no"?><svg xmlns="http://www.w3.org/2000/svg" xmlns:xlink="http://www.w3.org/1999/xlink" contentScriptType="application/ecmascript" contentStyleType="text/css" height="2419px" preserveAspectRatio="none" style="width:658px;height:2419px;background:#FFFFFF;" version="1.1" viewBox="0 0 658 2419" width="658px" zoomAndPan="magnify"><defs><filter height="300%" id="f143h18caq4604" width="300%" x="-1" y="-1"><feGaussianBlur result="blurOut" stdDeviation="2.0"/><feColorMatrix in="blurOut" result="blurOut2" type="matrix" values="0 0 0 0 0 0 0 0 0 0 0 0 0 0 0 0 0 0 .4 0"/><feOffset dx="4.0" dy="4.0" in="blurOut2" result="blurOut3"/><feBlend in="SourceGraphic" in2="blurOut3" mode="normal"/></filter></defs><g><!--MD5=[99b31deea5d7419a569cd5090bf83263]
cluster System--><rect fill="#FFFFFF" filter="url(#f143h18caq4604)" height="2400" style="stroke:#000000;stroke-width:1.5;" width="474" x="172" y="7"/><text fill="#000000" font-family="sans-serif" font-size="14" font-weight="bold" lengthAdjust="spacing" textLength="50" x="384" y="23.5332">System</text><ellipse cx="408.7928" cy="65.8586" fill="#FEFECE" filter="url(#f143h18caq4604)" rx="102.2928" ry="22.8586" style="stroke:#A80036;stroke-width:1.5;"/><text fill="#000000" font-family="sans-serif" font-size="14" lengthAdjust="spacing" textLength="166" x="325.7928" y="69.5871">UC01. Schedule a vaccine</text><ellipse cx="409.0918" cy="1020.2184" fill="#FEFECE" filter="url(#f143h18caq4604)" rx="179.0918" ry="38.2184" style="stroke:#A80036;stroke-width:1.5;"/><text fill="#000000" font-family="sans-serif" font-size="14" lengthAdjust="spacing" textLength="329" x="244.5918" y="1023.9469">UC02. Schedule a vaccine at one vaccination center</text><ellipse cx="409.2192" cy="1117.9438" fill="#FEFECE" filter="url(#f143h18caq4604)" rx="112.7192" ry="24.9438" style="stroke:#A80036;stroke-width:1.5;"/><text fill="#000000" font-family="sans-serif" font-size="14" lengthAdjust="spacing" textLength="189" x="314.7192" y="1121.6724">UC03. Register new SNS User</text><ellipse cx="408.8049" cy="786.161" fill="#FEFECE" filter="url(#f143h18caq4604)" rx="148.8049" ry="32.161" style="stroke:#A80036;stroke-width:1.5;"/><text fill="#000000" font-family="sans-serif" font-size="14" lengthAdjust="spacing" textLength="266" x="275.8049" y="789.8895">UC04. Register the arrival of the SNS user</text><ellipse cx="408.7646" cy="580.1529" fill="#FEFECE" filter="url(#f143h18caq4604)" rx="208.7646" ry="44.1529" style="stroke:#A80036;stroke-width:1.5;"/><text fill="#000000" font-family="sans-serif" font-size="14" lengthAdjust="spacing" textLength="390" x="213.7646" y="583.8814">UC05. Check the list of SNS Users that are in the waiting room</text><ellipse cx="409.1932" cy="2349.8386" fill="#FEFECE" filter="url(#f143h18caq4604)" rx="192.1932" ry="40.8386" style="stroke:#A80036;stroke-width:1.5;"/><text fill="#000000" font-family="sans-serif" font-size="14" lengthAdjust="spacing" textLength="356" x="231.1932" y="2353.5672">UC06. Send a SMS with appointment details to SNS User</text><ellipse cx="408.9138" cy="688.8828" fill="#FEFECE" filter="url(#f143h18caq4604)" rx="137.4138" ry="29.8828" style="stroke:#A80036;stroke-width:1.5;"/><text fill="#000000" font-family="sans-serif" font-size="14" lengthAdjust="spacing" textLength="242" x="287.9138" y="692.6113">UC07. Check user's health information</text><ellipse cx="409.0541" cy="254.8108" fill="#FEFECE" filter="url(#f143h18caq4604)" rx="114.5541" ry="25.3108" style="stroke:#A80036;stroke-width:1.5;"/><text fill="#000000" font-family="sans-serif" font-size="14" lengthAdjust="spacing" textLength="193" x="312.5541" y="258.5393">UC08. Issue vaccine certificate</text><ellipse cx="409.2387" cy="1750.8477" fill="#FEFECE" filter="url(#f143h18caq4604)" rx="124.7387" ry="27.3477" style="stroke:#A80036;stroke-width:1.5;"/><text fill="#000000" font-family="sans-serif" font-size="14" lengthAdjust="spacing" textLength="215" x="301.7387" y="1754.5763">UC09. Register vaccination center</text><ellipse cx="409.0583" cy="1200.9117" fill="#FEFECE" filter="url(#f143h18caq4604)" rx="100.0583" ry="22.4117" style="stroke:#A80036;stroke-width:1.5;"/><text fill="#000000" font-family="sans-serif" font-size="14" lengthAdjust="spacing" textLength="161" x="328.5583" y="1204.6402">UC10. Register employee</text><ellipse cx="409.0541" cy="1283.8108" fill="#FEFECE" filter="url(#f143h18caq4604)" rx="114.5541" ry="25.3108" style="stroke:#A80036;stroke-width:1.5;"/><text fill="#000000" font-family="sans-serif" font-size="14" lengthAdjust="spacing" textLength="193" x="312.5541" y="1287.5393">UC11. Check list of Employees</text><ellipse cx="408.9736" cy="1369.9947" fill="#FEFECE" filter="url(#f143h18caq4604)" rx="115.4736" ry="25.4947" style="stroke:#A80036;stroke-width:1.5;"/><text fill="#000000" font-family="sans-serif" font-size="14" lengthAdjust="spacing" textLength="195" x="311.4736" y="1373.7232">UC12. Register type of vaccine</text><ellipse cx="408.9223" cy="1469.7845" fill="#FEFECE" filter="url(#f143h18caq4604)" rx="184.4223" ry="39.2845" style="stroke:#A80036;stroke-width:1.5;"/><text fill="#000000" font-family="sans-serif" font-size="14" lengthAdjust="spacing" textLength="340" x="238.9223" y="1473.513">UC13. Register vaccine and its administration process</text><ellipse cx="408.8756" cy="1576.8751" fill="#FEFECE" filter="url(#f143h18caq4604)" rx="147.3756" ry="31.8751" style="stroke:#A80036;stroke-width:1.5;"/><text fill="#000000" font-family="sans-serif" font-size="14" lengthAdjust="spacing" textLength="263" x="277.3756" y="1580.6036">UC14. Load a set of users from a CSV file</text><ellipse cx="409.1497" cy="159.1299" fill="#FEFECE" filter="url(#f143h18caq4604)" rx="163.6497" ry="35.1299" style="stroke:#A80036;stroke-width:1.5;"/><text fill="#000000" font-family="sans-serif" font-size="14" lengthAdjust="spacing" textLength="297" x="260.6497" y="162.8584">UC15. Request the vaccine certificate issuance</text><ellipse cx="408.7768" cy="459.7554" fill="#FEFECE" filter="url(#f143h18caq4604)" rx="189.2768" ry="40.2554" style="stroke:#A80036;stroke-width:1.5;"/><text fill="#000000" font-family="sans-serif" font-size="14" lengthAdjust="spacing" textLength="350" x="233.7768" y="463.4839">UC16. Report adverse reactions during recovery period</text><ellipse cx="408.9915" cy="900.0983" fill="#FEFECE" filter="url(#f143h18caq4604)" rx="220.9915" ry="46.5983" style="stroke:#A80036;stroke-width:1.5;"/><text fill="#000000" font-family="sans-serif" font-size="14" lengthAdjust="spacing" textLength="415" x="201.4915" y="903.8268">UC17. Register that a given SNS User is ready to take the vaccine</text><ellipse cx="408.7866" cy="349.9573" fill="#FEFECE" filter="url(#f143h18caq4604)" rx="160.2866" ry="34.4573" style="stroke:#A80036;stroke-width:1.5;"/><text fill="#000000" font-family="sans-serif" font-size="14" lengthAdjust="spacing" textLength="290" x="263.7866" y="353.6858">UC18. Register SNS User's vaccination details</text><ellipse cx="409.0714" cy="2124.1143" fill="#FEFECE" filter="url(#f143h18caq4604)" rx="143.5714" ry="31.1143" style="stroke:#A80036;stroke-width:1.5;"/><text fill="#000000" font-family="sans-serif" font-size="14" lengthAdjust="spacing" textLength="255" x="281.5714" y="2127.8428">UC19. View centers' statistics and charts</text><ellipse cx="409.2402" cy="1840.048" fill="#FEFECE" filter="url(#f143h18caq4604)" rx="118.2402" ry="26.048" style="stroke:#A80036;stroke-width:1.5;"/><text fill="#000000" font-family="sans-serif" font-size="14" lengthAdjust="spacing" textLength="201" x="308.7402" y="1843.7766">UC20. Generate a center report</text><ellipse cx="408.9716" cy="1935.0943" fill="#FEFECE" filter="url(#f143h18caq4604)" rx="155.9716" ry="33.5943" style="stroke:#A80036;stroke-width:1.5;"/><text fill="#000000" font-family="sans-serif" font-size="14" lengthAdjust="spacing" textLength="281" x="268.4716" y="1938.8228">UC21. Analyse other center vaccination data</text><ellipse cx="409.0464" cy="2231.9093" fill="#FEFECE" filter="url(#f143h18caq4604)" rx="197.5464" ry="41.9093" style="stroke:#A80036;stroke-width:1.5;"/><text fill="#000000" font-family="sans-serif" font-size="14" lengthAdjust="spacing" textLength="367" x="225.5464" y="2235.6378">UC22. Notify SNS user that the recovery period has ended</text><ellipse cx="408.8069" cy="2031.1614" fill="#FEFECE" filter="url(#f143h18caq4604)" rx="123.8069" ry="27.1614" style="stroke:#A80036;stroke-width:1.5;"/><text fill="#000000" font-family="sans-serif" font-size="14" lengthAdjust="spacing" textLength="213" x="302.3069" y="2034.8899">UC23. Manage vaccination center</text><ellipse cx="409.1681" cy="1666.2336" fill="#FEFECE" filter="url(#f143h18caq4604)" rx="99.1681" ry="22.2336" style="stroke:#A80036;stroke-width:1.5;"/><text fill="#000000" font-family="sans-serif" font-size="14" lengthAdjust="spacing" textLength="159" x="329.6681" y="1669.9621">UC24. Manage employee</text><!--MD5=[8fc3522a43f8c7199df5e09e5bb0188e]
entity user--><ellipse cx="67" cy="81" fill="#FEFECE" filter="url(#f143h18caq4604)" rx="8" ry="8" style="stroke:#A80036;stroke-width:1.5;"/><path d="M67,89 L67,116 M54,97 L80,97 M67,116 L54,131 M67,116 L80,131 " fill="none" filter="url(#f143h18caq4604)" style="stroke:#A80036;stroke-width:1.5;"/><text fill="#000000" font-family="sans-serif" font-size="14" lengthAdjust="spacing" textLength="60" x="37" y="151.0332">SNS User</text><!--MD5=[87d66015e0fe95d70bf3fa68103252e8]
entity nurse--><ellipse cx="67" cy="428" fill="#FEFECE" filter="url(#f143h18caq4604)" rx="8" ry="8" style="stroke:#A80036;stroke-width:1.5;"/><path d="M67,436 L67,463 M54,444 L80,444 M67,463 L54,478 M67,463 L80,478 " fill="none" filter="url(#f143h18caq4604)" style="stroke:#A80036;stroke-width:1.5;"/><text fill="#000000" font-family="sans-serif" font-size="14" lengthAdjust="spacing" textLength="37" x="48.5" y="498.0332">Nurse</text><!--MD5=[34dc565525bad95b6b789d13e524f0bb]
entity recept--><ellipse cx="67" cy="928" fill="#FEFECE" filter="url(#f143h18caq4604)" rx="8" ry="8" style="stroke:#A80036;stroke-width:1.5;"/><path d="M67,936 L67,963 M54,944 L80,944 M67,963 L54,978 M67,963 L80,978 " fill="none" filter="url(#f143h18caq4604)" style="stroke:#A80036;stroke-width:1.5;"/><text fill="#000000" font-family="sans-serif" font-size="14" lengthAdjust="spacing" textLength="78" x="28" y="998.0332">Receptionist</text><!--MD5=[79a439086b036a57b90a01d7b2f8bbd1]
entity admin--><ellipse cx="67" cy="1438" fill="#FEFECE" filter="url(#f143h18caq4604)" rx="8" ry="8" style="stroke:#A80036;stroke-width:1.5;"/><path d="M67,1446 L67,1473 M54,1454 L80,1454 M67,1473 L54,1488 M67,1473 L80,1488 " fill="none" filter="url(#f143h18caq4604)" style="stroke:#A80036;stroke-width:1.5;"/><text fill="#000000" font-family="sans-serif" font-size="14" lengthAdjust="spacing" textLength="83" x="25.5" y="1508.0332">Administrator</text><!--MD5=[4d302acd527bc9f790d99ea65b823e73]
entity coordinator--><ellipse cx="67" cy="1951" fill="#FEFECE" filter="url(#f143h18caq4604)" rx="8" ry="8" style="stroke:#A80036;stroke-width:1.5;"/><path d="M67,1959 L67,1986 M54,1967 L80,1967 M67,1986 L54,2001 M67,1986 L80,2001 " fill="none" filter="url(#f143h18caq4604)" style="stroke:#A80036;stroke-width:1.5;"/><text fill="#000000" font-family="sans-serif" font-size="14" lengthAdjust="spacing" textLength="122" x="6" y="2021.0332">Center Coordinator</text><!--MD5=[691a1726be306d84324876b17512fe90]
entity system--><ellipse cx="67" cy="2259" fill="#FEFECE" filter="url(#f143h18caq4604)" rx="8" ry="8" style="stroke:#A80036;stroke-width:1.5;"/><path d="M67,2267 L67,2294 M54,2275 L80,2275 M67,2294 L54,2309 M67,2294 L80,2309 " fill="none" filter="url(#f143h18caq4604)" style="stroke:#A80036;stroke-width:1.5;"/><text fill="#000000" font-family="sans-serif" font-size="14" lengthAdjust="spacing" textLength="110" x="12" y="2329.0332">«system» Sender</text><!--MD5=[140266ba44ac8b87f85e725624a55779]
link user to UC01--><path d="M97.28,108.95 C146.49,102.15 247.6,88.17 321.15,78.01 " fill="none" id="user-UC01" style="stroke:#A80036;stroke-width:1.0;"/><!--MD5=[711ffad10621eb25fdccddd40f072248]
link recept to UC02--><path d="M106.01,966.71 C145.95,973.76 211.14,985.26 270.74,995.78 " fill="none" id="recept-UC02" style="stroke:#A80036;stroke-width:1.0;"/><!--MD5=[9f0ba1c9d0a3cbbdfa7f92cec10d203c]
link recept to UC03--><path d="M92.08,1001.56 C108.95,1026.85 133.84,1057.54 164,1075 C204.02,1098.17 253.45,1109.46 297.34,1114.77 " fill="none" id="recept-UC03" style="stroke:#A80036;stroke-width:1.0;"/><!--MD5=[48179833b0ecfc7a902007618e793e6f]
link recept to UC04--><path d="M89.88,918.21 C106.52,890.59 131.99,855.94 164,836 C195.29,816.51 232.8,804.46 268.91,797.05 " fill="none" id="recept-UC04" style="stroke:#A80036;stroke-width:1.0;"/><!--MD5=[5bb5dcefbc65873dedbd3c6858dc790c]
link nurse to UC05--><path d="M85.55,472.79 C104.18,485.83 134.9,505.83 164,518 C193.74,530.44 226.59,540.86 258.3,549.38 " fill="none" id="nurse-UC05" style="stroke:#A80036;stroke-width:1.0;"/><!--MD5=[1d2d03ba65c394d511c386d94d600bcc]
link system to UC06--><path d="M122.25,2300.41 C159.37,2306.86 210.52,2315.73 259.29,2324.19 " fill="none" id="system-UC06" style="stroke:#A80036;stroke-width:1.0;"/><!--MD5=[281c5965a45307b972b9fafd7dc9d075]
link nurse to UC07--><path d="M78.73,501.78 C91.74,543.68 117.88,606.75 164,641 C195.37,664.29 235.05,677.11 273.25,683.96 " fill="none" id="nurse-UC07" style="stroke:#A80036;stroke-width:1.0;"/><!--MD5=[5306f834103bd019928d2c56277b17a1]
link nurse to UC08--><path d="M81.3,418.44 C95.58,380.82 122.06,327.01 164,298 C201.76,271.88 250.46,260.07 294.41,255.17 " fill="none" id="nurse-UC08" style="stroke:#A80036;stroke-width:1.0;"/><!--MD5=[614e4dc9dae8689213c465a051758620]
link admin to UC09--><path d="M72.88,1511.5 C81.46,1564.84 104.43,1656.36 164,1705 C197.56,1732.4 242.37,1745.37 284.43,1751.03 " fill="none" id="admin-UC09" style="stroke:#A80036;stroke-width:1.0;"/><!--MD5=[dfd2db1a8ab03a1b37a29f31d929c176]
link admin to UC10--><path d="M73.19,1428.42 C82.06,1376.05 105.29,1287.34 164,1241 C205.19,1208.49 262.69,1197.91 311.52,1195.72 " fill="none" id="admin-UC10" style="stroke:#A80036;stroke-width:1.0;"/><!--MD5=[82f64621edba5c3b20c09d5802f5d0cb]
link admin to UC11--><path d="M84.88,1428.34 C100.44,1395.46 126.78,1351.22 164,1327 C202.3,1302.07 250.84,1290.43 294.52,1285.33 " fill="none" id="admin-UC11" style="stroke:#A80036;stroke-width:1.0;"/><!--MD5=[d7de013467b5cb2c3186533ed2392f3a]
link admin to UC12--><path d="M108.88,1441.29 C125.34,1430.94 144.92,1420.08 164,1413 C208.06,1396.66 258.95,1386.44 302.82,1380.08 " fill="none" id="admin-UC12" style="stroke:#A80036;stroke-width:1.0;"/><!--MD5=[3b84ea810314b2514d885a4aa2be8b4c]
link admin to UC13--><path d="M108.67,1470 C138.29,1470 180.69,1470 224.31,1470 " fill="none" id="admin-UC13" style="stroke:#A80036;stroke-width:1.0;"/><!--MD5=[9c40f8fc99bac5721e3e652f51b9306f]
link admin to UC14--><path d="M108.52,1498.14 C125.08,1508.54 144.84,1519.59 164,1527 C201.91,1541.66 244.88,1552.29 284.08,1559.88 " fill="none" id="admin-UC14" style="stroke:#A80036;stroke-width:1.0;"/><!--MD5=[8467409add40a9a1d502757488e91756]
link user to UC15--><path d="M97.28,116.96 C135.86,122.18 206.34,131.72 270.43,140.39 " fill="none" id="user-UC15" style="stroke:#A80036;stroke-width:1.0;"/><!--MD5=[8e816a5a5733e4dae3a01dcb2aa36471]
link nurse to UC16--><path d="M85.8,460 C112.17,460 164.44,460 219.34,460 " fill="none" id="nurse-UC16" style="stroke:#A80036;stroke-width:1.0;"/><!--MD5=[86a3c302cf5dd832f2cc01a11ef46c98]
link recept to UC17--><path d="M106.01,953.29 C138.94,947.48 189.01,938.64 238.97,929.83 " fill="none" id="recept-UC17" style="stroke:#A80036;stroke-width:1.0;"/><!--MD5=[0f6b4620b1e4f7277d6341ecf5fbea32]
link nurse to UC18--><path d="M85.81,446.73 C104.39,433.5 134.85,413.53 164,402 C199.54,387.94 239.58,377.39 276.78,369.61 " fill="none" id="nurse-UC18" style="stroke:#A80036;stroke-width:1.0;"/><!--MD5=[60dec685cb8c65457641ae9c0dbdc30a]
link coordinator to UC19--><path d="M101.87,2024.8 C118.7,2042.9 140.47,2062.71 164,2075 C198.57,2093.05 239.09,2104.46 277.07,2111.67 " fill="none" id="coordinator-UC19" style="stroke:#A80036;stroke-width:1.0;"/><!--MD5=[2ff798229421eb8c555190bc272acb6b]
link coordinator to UC20--><path d="M98.18,1941.31 C115.21,1920.86 138.22,1897.74 164,1884 C203.51,1862.95 251.18,1851.74 293.87,1845.85 " fill="none" id="coordinator-UC20" style="stroke:#A80036;stroke-width:1.0;"/><!--MD5=[f24987be2b3237440ea96818355c7269]
link coordinator to UC21--><path d="M128,1974.53 C169.56,1968.66 226.49,1960.62 278.17,1953.33 " fill="none" id="coordinator-UC21" style="stroke:#A80036;stroke-width:1.0;"/><!--MD5=[2225b8f19ca8666cab561c95445d8ecb]
link system to UC22--><path d="M122.25,2281.59 C158.34,2275.32 207.69,2266.76 255.22,2258.51 " fill="none" id="system-UC22" style="stroke:#A80036;stroke-width:1.0;"/><!--MD5=[86840270340b878e28e1b5fca17f7da7]
link coordinator to UC23--><path d="M128,1991.47 C176.81,1998.36 246.81,2008.24 304.6,2016.4 " fill="none" id="coordinator-UC23" style="stroke:#A80036;stroke-width:1.0;"/><!--MD5=[f94ef40667fcef90622bb28ac783e806]
link admin to UC24--><path d="M82.21,1511.57 C96.85,1547.81 123.33,1598.72 164,1626 C206.69,1654.63 262.83,1665.23 310.5,1668.4 " fill="none" id="admin-UC24" style="stroke:#A80036;stroke-width:1.0;"/><!--MD5=[87e4c78306c86d5bf9aef7c42a973cc2]
@startuml UCD

left to right direction

actor "SNS User" as user
actor "Nurse" as nurse
actor "Receptionist" as recept
actor "Administrator" as admin
actor "Center Coordinator" as coordinator
actor "<< system >> Sender" as system

rectangle System {
  usecase "UC01. Schedule a vaccine" as UC01
  usecase "UC02. Schedule a vaccine at one vaccination center" as UC02
  usecase "UC03. Register new SNS User" as UC03
  usecase "UC04. Register the arrival of the SNS user" as UC04
  usecase "UC05. Check the list of SNS Users that are in the waiting room" as UC05
  usecase "UC06. Send a SMS with appointment details to SNS User" as UC06
  usecase "UC07. Check user's health information" as UC07
  usecase "UC08. Issue vaccine certificate" as UC08
  usecase "UC09. Register vaccination center" as UC09
  usecase "UC10. Register employee" as UC10
  usecase "UC11. Check list of Employees" as UC11
  usecase "UC12. Register type of vaccine" as UC12
  usecase "UC13. Register vaccine and its administration process" as UC13
  usecase "UC14. Load a set of users from a CSV file" as UC14
  usecase "UC15. Request the vaccine certificate issuance" as UC15
  usecase "UC16. Report adverse reactions during recovery period" as UC16
  usecase "UC17. Register that a given SNS User is ready to take the vaccine" as UC17
  usecase "UC18. Register SNS User's vaccination details" as UC18
  usecase "UC19. View centers' statistics and charts" as UC19
  usecase "UC20. Generate a center report" as UC20
  usecase "UC21. Analyse other center vaccination data" as UC21
  usecase "UC22. Notify SNS user that the recovery period has ended" as UC22
  usecase "UC23. Manage vaccination center" as UC23
  usecase "UC24. Manage employee" as UC24
}

user - - UC01
recept - - UC02
recept - - UC03
recept - - UC04
nurse - - UC05
system - - UC06
nurse - - UC07
nurse - - UC08
admin - - UC09
admin - - UC10
admin - - UC11
admin - - UC12
admin - - UC13
admin - - UC14
user - - UC15
nurse - - UC16
recept - - UC17
nurse - - UC18
coordinator - - UC19
coordinator - - UC20
coordinator - - UC21
system - - UC22
coordinator - - UC23
admin - - UC24



@enduml

PlantUML version 1.2022.0(Tue Jan 11 16:16:42 WET 2022)
(GPL source distribution)
Java Runtime: Java(TM) SE Runtime Environment
JVM: Java HotSpot(TM) 64-Bit Server VM
Default Encoding: Cp1252
Language: pt
Country: PT
--></g></svg>