<?xml version="1.0" encoding="UTF-8" standalone="no"?><svg xmlns="http://www.w3.org/2000/svg" xmlns:xlink="http://www.w3.org/1999/xlink" contentScriptType="application/ecmascript" contentStyleType="text/css" height="1826px" preserveAspectRatio="none" style="width:813px;height:1826px;background:#FFFFFF;" version="1.1" viewBox="0 0 813 1826" width="813px" zoomAndPan="magnify"><defs><filter height="300%" id="f19i8iem8753u6" width="300%" x="-1" y="-1"><feGaussianBlur result="blurOut" stdDeviation="2.0"/><feColorMatrix in="blurOut" result="blurOut2" type="matrix" values="0 0 0 0 0 0 0 0 0 0 0 0 0 0 0 0 0 0 .4 0"/><feOffset dx="4.0" dy="4.0" in="blurOut2" result="blurOut3"/><feBlend in="SourceGraphic" in2="blurOut3" mode="normal"/></filter></defs><g><!--MD5=[99b31deea5d7419a569cd5090bf83263]
cluster System--><rect fill="#FFFFFF" filter="url(#f19i8iem8753u6)" height="1807" style="stroke:#000000;stroke-width:1.5;" width="595" x="206" y="7"/><text fill="#000000" font-family="sans-serif" font-size="14" font-weight="bold" lengthAdjust="spacing" textLength="50" x="478.5" y="23.5332">System</text><ellipse cx="503.2928" cy="65.8586" fill="#FEFECE" filter="url(#f19i8iem8753u6)" rx="102.2928" ry="22.8586" style="stroke:#A80036;stroke-width:1.5;"/><text fill="#000000" font-family="sans-serif" font-size="14" lengthAdjust="spacing" textLength="166" x="420.2928" y="69.5871">UC01. Schedule a vaccine</text><ellipse cx="503.5918" cy="695.2184" fill="#FEFECE" filter="url(#f19i8iem8753u6)" rx="179.0918" ry="38.2184" style="stroke:#A80036;stroke-width:1.5;"/><text fill="#000000" font-family="sans-serif" font-size="14" lengthAdjust="spacing" textLength="329" x="339.0918" y="698.9469">UC02. Schedule a vaccine at one vaccination center</text><ellipse cx="503.7192" cy="497.9438" fill="#FEFECE" filter="url(#f19i8iem8753u6)" rx="112.7192" ry="24.9438" style="stroke:#A80036;stroke-width:1.5;"/><text fill="#000000" font-family="sans-serif" font-size="14" lengthAdjust="spacing" textLength="189" x="409.2192" y="501.6724">UC03. Register new SNS User</text><ellipse cx="503.3049" cy="590.161" fill="#FEFECE" filter="url(#f19i8iem8753u6)" rx="148.8049" ry="32.161" style="stroke:#A80036;stroke-width:1.5;"/><text fill="#000000" font-family="sans-serif" font-size="14" lengthAdjust="spacing" textLength="266" x="370.3049" y="593.8895">UC04. Register the arrival of the SNS user</text><ellipse cx="503.2646" cy="394.1529" fill="#FEFECE" filter="url(#f19i8iem8753u6)" rx="208.7646" ry="44.1529" style="stroke:#A80036;stroke-width:1.5;"/><text fill="#000000" font-family="sans-serif" font-size="14" lengthAdjust="spacing" textLength="390" x="308.2646" y="397.8814">UC05. Check the list of SNS Users that are in the waiting room</text><ellipse cx="503.5785" cy="1740.0157" fill="#FEFECE" filter="url(#f19i8iem8753u6)" rx="275.5785" ry="57.5157" style="stroke:#A80036;stroke-width:1.5;"/><text fill="#000000" font-family="sans-serif" font-size="14" lengthAdjust="spacing" textLength="526" x="240.5785" y="1743.7442">UC06. Reord daily the total number of people vaccinated in each vaccination center</text><ellipse cx="503.6497" cy="159.1299" fill="#FEFECE" filter="url(#f19i8iem8753u6)" rx="163.6497" ry="35.1299" style="stroke:#A80036;stroke-width:1.5;"/><text fill="#000000" font-family="sans-serif" font-size="14" lengthAdjust="spacing" textLength="297" x="355.1497" y="162.8584">UC07. Record adverse reactions of a SNS user</text><ellipse cx="503.3832" cy="272.1766" fill="#FEFECE" filter="url(#f19i8iem8753u6)" rx="203.8832" ry="43.1766" style="stroke:#A80036;stroke-width:1.5;"/><text fill="#000000" font-family="sans-serif" font-size="14" lengthAdjust="spacing" textLength="380" x="313.3832" y="275.9052">UC08. Record the administration of a vaccine to a SNS user.</text><ellipse cx="503.7387" cy="1261.8477" fill="#FEFECE" filter="url(#f19i8iem8753u6)" rx="124.7387" ry="27.3477" style="stroke:#A80036;stroke-width:1.5;"/><text fill="#000000" font-family="sans-serif" font-size="14" lengthAdjust="spacing" textLength="215" x="396.2387" y="1265.5763">UC09. Register vaccination center</text><ellipse cx="503.5583" cy="790.9117" fill="#FEFECE" filter="url(#f19i8iem8753u6)" rx="100.0583" ry="22.4117" style="stroke:#A80036;stroke-width:1.5;"/><text fill="#000000" font-family="sans-serif" font-size="14" lengthAdjust="spacing" textLength="161" x="423.0583" y="794.6402">UC10. Register employee</text><ellipse cx="503.5541" cy="873.8108" fill="#FEFECE" filter="url(#f19i8iem8753u6)" rx="114.5541" ry="25.3108" style="stroke:#A80036;stroke-width:1.5;"/><text fill="#000000" font-family="sans-serif" font-size="14" lengthAdjust="spacing" textLength="193" x="407.0541" y="877.5393">UC11. Check list of Employees</text><ellipse cx="503.4736" cy="959.9947" fill="#FEFECE" filter="url(#f19i8iem8753u6)" rx="115.4736" ry="25.4947" style="stroke:#A80036;stroke-width:1.5;"/><text fill="#000000" font-family="sans-serif" font-size="14" lengthAdjust="spacing" textLength="195" x="405.9736" y="963.7232">UC12. Register type of vaccine</text><ellipse cx="503.4223" cy="1059.7845" fill="#FEFECE" filter="url(#f19i8iem8753u6)" rx="184.4223" ry="39.2845" style="stroke:#A80036;stroke-width:1.5;"/><text fill="#000000" font-family="sans-serif" font-size="14" lengthAdjust="spacing" textLength="340" x="333.4223" y="1063.513">UC13. Register vaccine and its administration process</text><ellipse cx="503.3756" cy="1166.8751" fill="#FEFECE" filter="url(#f19i8iem8753u6)" rx="147.3756" ry="31.8751" style="stroke:#A80036;stroke-width:1.5;"/><text fill="#000000" font-family="sans-serif" font-size="14" lengthAdjust="spacing" textLength="263" x="371.8756" y="1170.6036">UC14. Load a set of users from a CSV file</text><ellipse cx="503.2666" cy="1613.0533" fill="#FEFECE" filter="url(#f19i8iem8753u6)" rx="160.7666" ry="34.5533" style="stroke:#A80036;stroke-width:1.5;"/><text fill="#000000" font-family="sans-serif" font-size="14" lengthAdjust="spacing" textLength="291" x="357.7666" y="1616.7818">UC15. Check and export vaccination statistics.</text><ellipse cx="503.5573" cy="1358.2115" fill="#FEFECE" filter="url(#f19i8iem8753u6)" rx="154.0573" ry="33.2115" style="stroke:#A80036;stroke-width:1.5;"/><text fill="#000000" font-family="sans-serif" font-size="14" lengthAdjust="spacing" textLength="277" x="365.0573" y="1361.94">UC16. Analyse the performance of a center.</text><ellipse cx="503.5015" cy="1485.2003" fill="#FEFECE" filter="url(#f19i8iem8753u6)" rx="281.5015" ry="58.7003" style="stroke:#A80036;stroke-width:1.5;"/><text fill="#000000" font-family="sans-serif" font-size="14" lengthAdjust="spacing" textLength="538" x="234.5015" y="1488.9288">UC17. Import data from a legacy system that was used in the past to manage centers.</text><!--MD5=[8fc3522a43f8c7199df5e09e5bb0188e]
entity user--><ellipse cx="84" cy="34" fill="#FEFECE" filter="url(#f19i8iem8753u6)" rx="8" ry="8" style="stroke:#A80036;stroke-width:1.5;"/><path d="M84,42 L84,69 M71,50 L97,50 M84,69 L71,84 M84,69 L97,84 " fill="none" filter="url(#f19i8iem8753u6)" style="stroke:#A80036;stroke-width:1.5;"/><text fill="#000000" font-family="sans-serif" font-size="14" lengthAdjust="spacing" textLength="60" x="54" y="104.0332">SNS User</text><!--MD5=[87d66015e0fe95d70bf3fa68103252e8]
entity nurse--><ellipse cx="84" cy="240" fill="#FEFECE" filter="url(#f19i8iem8753u6)" rx="8" ry="8" style="stroke:#A80036;stroke-width:1.5;"/><path d="M84,248 L84,275 M71,256 L97,256 M84,275 L71,290 M84,275 L97,290 " fill="none" filter="url(#f19i8iem8753u6)" style="stroke:#A80036;stroke-width:1.5;"/><text fill="#000000" font-family="sans-serif" font-size="14" lengthAdjust="spacing" textLength="37" x="65.5" y="310.0332">Nurse</text><!--MD5=[34dc565525bad95b6b789d13e524f0bb]
entity recept--><ellipse cx="84" cy="558" fill="#FEFECE" filter="url(#f19i8iem8753u6)" rx="8" ry="8" style="stroke:#A80036;stroke-width:1.5;"/><path d="M84,566 L84,593 M71,574 L97,574 M84,593 L71,608 M84,593 L97,608 " fill="none" filter="url(#f19i8iem8753u6)" style="stroke:#A80036;stroke-width:1.5;"/><text fill="#000000" font-family="sans-serif" font-size="14" lengthAdjust="spacing" textLength="78" x="45" y="628.0332">Receptionist</text><!--MD5=[79a439086b036a57b90a01d7b2f8bbd1]
entity admin--><ellipse cx="84" cy="978" fill="#FEFECE" filter="url(#f19i8iem8753u6)" rx="8" ry="8" style="stroke:#A80036;stroke-width:1.5;"/><path d="M84,986 L84,1013 M71,994 L97,994 M84,1013 L71,1028 M84,1013 L97,1028 " fill="none" filter="url(#f19i8iem8753u6)" style="stroke:#A80036;stroke-width:1.5;"/><text fill="#000000" font-family="sans-serif" font-size="14" lengthAdjust="spacing" textLength="83" x="42.5" y="1048.0332">Administrator</text><!--MD5=[4d302acd527bc9f790d99ea65b823e73]
entity coordinator--><ellipse cx="84" cy="1453" fill="#FEFECE" filter="url(#f19i8iem8753u6)" rx="8" ry="8" style="stroke:#A80036;stroke-width:1.5;"/><path d="M84,1461 L84,1488 M71,1469 L97,1469 M84,1488 L71,1503 M84,1488 L97,1503 " fill="none" filter="url(#f19i8iem8753u6)" style="stroke:#A80036;stroke-width:1.5;"/><text fill="#000000" font-family="sans-serif" font-size="14" lengthAdjust="spacing" textLength="122" x="23" y="1523.0332">Center Coordinator</text><!--MD5=[13dff29a2267c98a2d820d96b9b744fb]
entity timer--><ellipse cx="84" cy="1708" fill="#FEFECE" filter="url(#f19i8iem8753u6)" rx="8" ry="8" style="stroke:#A80036;stroke-width:1.5;"/><path d="M84,1716 L84,1743 M71,1724 L97,1724 M84,1743 L71,1758 M84,1743 L97,1758 " fill="none" filter="url(#f19i8iem8753u6)" style="stroke:#A80036;stroke-width:1.5;"/><text fill="#000000" font-family="sans-serif" font-size="14" lengthAdjust="spacing" textLength="156" x="6" y="1778.0332">«automatic» Timer/Clock</text><!--MD5=[140266ba44ac8b87f85e725624a55779]
link user to UC01--><path d="M114.03,66 C172.46,66 306.74,66 400.99,66 " fill="none" id="user-UC01" style="stroke:#A80036;stroke-width:1.0;"/><!--MD5=[711ffad10621eb25fdccddd40f072248]
link recept to UC02--><path d="M123.14,609.12 C144.67,619.26 172.33,631.18 198,639 C247.49,654.07 302.81,665.72 352.58,674.4 " fill="none" id="recept-UC02" style="stroke:#A80036;stroke-width:1.0;"/><!--MD5=[9f0ba1c9d0a3cbbdfa7f92cec10d203c]
link recept to UC03--><path d="M123.22,569.88 C144.66,559.42 172.2,547.33 198,540 C262.3,521.73 336.57,511.29 395.66,505.38 " fill="none" id="recept-UC03" style="stroke:#A80036;stroke-width:1.0;"/><!--MD5=[48179833b0ecfc7a902007618e793e6f]
link recept to UC04--><path d="M123.16,590 C175.29,590 271.75,590 354.35,590 " fill="none" id="recept-UC04" style="stroke:#A80036;stroke-width:1.0;"/><!--MD5=[5bb5dcefbc65873dedbd3c6858dc790c]
link nurse to UC05--><path d="M102.66,283.45 C124.29,296.97 162.46,319.25 198,332 C240.78,347.35 288.38,359.31 333,368.45 " fill="none" id="nurse-UC05" style="stroke:#A80036;stroke-width:1.0;"/><!--MD5=[44f12ce4d67794a5a9da84f3bb3a2f3e]
link timer to UC06--><path d="M162.06,1740 C181.74,1740 204.05,1740 227.61,1740 " fill="none" id="timer-UC06" style="stroke:#A80036;stroke-width:1.0;"/><!--MD5=[281c5965a45307b972b9fafd7dc9d075]
link nurse to UC07--><path d="M102.56,260.16 C124.1,246.2 162.17,223.36 198,211 C248.19,193.69 305.1,181.99 356.03,174.15 " fill="none" id="nurse-UC07" style="stroke:#A80036;stroke-width:1.0;"/><!--MD5=[5306f834103bd019928d2c56277b17a1]
link nurse to UC08--><path d="M102.67,272 C137.59,272 219.04,272 299.37,272 " fill="none" id="nurse-UC08" style="stroke:#A80036;stroke-width:1.0;"/><!--MD5=[614e4dc9dae8689213c465a051758620]
link admin to UC09--><path d="M95.7,1051.53 C110.34,1099.4 141.48,1176.54 198,1216 C250.93,1252.96 321.68,1265.28 381.65,1267.99 " fill="none" id="admin-UC09" style="stroke:#A80036;stroke-width:1.0;"/><!--MD5=[dfd2db1a8ab03a1b37a29f31d929c176]
link admin to UC10--><path d="M99.23,968.3 C115.92,926.24 147.85,863.09 198,831 C260.54,790.99 345.14,782.67 409.29,783.4 " fill="none" id="admin-UC10" style="stroke:#A80036;stroke-width:1.0;"/><!--MD5=[82f64621edba5c3b20c09d5802f5d0cb]
link admin to UC11--><path d="M124.44,968.35 C144.63,949.6 170.67,929.02 198,917 C257.74,890.72 329.87,879.73 388.92,875.42 " fill="none" id="admin-UC11" style="stroke:#A80036;stroke-width:1.0;"/><!--MD5=[d7de013467b5cb2c3186533ed2392f3a]
link admin to UC12--><path d="M125.79,1005.11 C189.19,997.52 313.28,982.66 401.7,972.07 " fill="none" id="admin-UC12" style="stroke:#A80036;stroke-width:1.0;"/><!--MD5=[3b84ea810314b2514d885a4aa2be8b4c]
link admin to UC13--><path d="M125.79,1014.89 C175.86,1020.88 263.76,1031.41 342.06,1040.79 " fill="none" id="admin-UC13" style="stroke:#A80036;stroke-width:1.0;"/><!--MD5=[9c40f8fc99bac5721e3e652f51b9306f]
link admin to UC14--><path d="M118.02,1051.71 C138.55,1074.67 166.9,1101.57 198,1117 C247.19,1141.4 305.81,1154.28 358.41,1160.95 " fill="none" id="admin-UC14" style="stroke:#A80036;stroke-width:1.0;"/><!--MD5=[ab5c08cbc12cecfadf101c6b421cf747]
link coordinator to UC15--><path d="M136.98,1526.68 C155.33,1539.51 176.71,1552.48 198,1561 C246.8,1580.52 302.86,1592.72 353.47,1600.34 " fill="none" id="coordinator-UC15" style="stroke:#A80036;stroke-width:1.0;"/><!--MD5=[441c03a8871b2301c4e2f0f31ab574b4]
link coordinator to UC16--><path d="M136.68,1443.48 C155.09,1430.59 176.58,1417.53 198,1409 C248.42,1388.92 306.59,1376.75 358.49,1369.36 " fill="none" id="coordinator-UC16" style="stroke:#A80036;stroke-width:1.0;"/><!--MD5=[dc829bc32b289998eb4c97fb6caef881]
link coordinator to UC17--><path d="M145.26,1485 C167.05,1485 193.32,1485 221.6,1485 " fill="none" id="coordinator-UC17" style="stroke:#A80036;stroke-width:1.0;"/><!--MD5=[d8880389cd18d6eff23cce4b47b1e316]
@startuml UCD

left to right direction

actor "SNS User" as user
actor "Nurse" as nurse
actor "Receptionist" as recept
actor "Administrator" as admin
actor "Center Coordinator" as coordinator
actor "<<automatic>> Timer/Clock" as timer

rectangle System {
  usecase "UC01. Schedule a vaccine" as UC01
  usecase "UC02. Schedule a vaccine at one vaccination center" as UC02
  usecase "UC03. Register new SNS User" as UC03
  usecase "UC04. Register the arrival of the SNS user" as UC04
  usecase "UC05. Check the list of SNS Users that are in the waiting room" as UC05
  usecase "UC06. Reord daily the total number of people vaccinated in each vaccination center" as UC06  
  usecase "UC07. Record adverse reactions of a SNS user" as UC07 
  usecase "UC08. Record the administration of a vaccine to a SNS user." as UC08
  usecase "UC09. Register vaccination center" as UC09
  usecase "UC10. Register employee" as UC10
  usecase "UC11. Check list of Employees" as UC11
  usecase "UC12. Register type of vaccine" as UC12
  usecase "UC13. Register vaccine and its administration process" as UC13
  usecase "UC14. Load a set of users from a CSV file" as UC14
  usecase "UC15. Check and export vaccination statistics." as UC15
  usecase "UC16. Analyse the performance of a center." as UC16
  usecase "UC17. Import data from a legacy system that was used in the past to manage centers." as UC17  
}

user - - UC01
recept - - UC02
recept - - UC03
recept - - UC04
nurse - - UC05
timer - - UC06
nurse - - UC07
nurse - - UC08
admin - - UC09
admin - - UC10
admin - - UC11
admin - - UC12
admin - - UC13
admin - - UC14
coordinator - - UC15
coordinator - - UC16
coordinator - - UC17

@enduml

PlantUML version 1.2022.0(Tue Jan 11 16:16:42 WET 2022)
(GPL source distribution)
Java Runtime: Java(TM) SE Runtime Environment
JVM: Java HotSpot(TM) 64-Bit Server VM
Default Encoding: Cp1252
Language: pt
Country: PT
--></g></svg>