<?xml version="1.0" encoding="UTF-8" standalone="no"?><svg xmlns="http://www.w3.org/2000/svg" xmlns:xlink="http://www.w3.org/1999/xlink" contentScriptType="application/ecmascript" contentStyleType="text/css" height="1910px" preserveAspectRatio="none" style="width:813px;height:1910px;background:#FFFFFF;" version="1.1" viewBox="0 0 813 1910" width="813px" zoomAndPan="magnify"><defs><filter height="300%" id="f1xaekufvtkzet" width="300%" x="-1" y="-1"><feGaussianBlur result="blurOut" stdDeviation="2.0"/><feColorMatrix in="blurOut" result="blurOut2" type="matrix" values="0 0 0 0 0 0 0 0 0 0 0 0 0 0 0 0 0 0 .4 0"/><feOffset dx="4.0" dy="4.0" in="blurOut2" result="blurOut3"/><feBlend in="SourceGraphic" in2="blurOut3" mode="normal"/></filter></defs><g><!--MD5=[99b31deea5d7419a569cd5090bf83263]
cluster System--><rect fill="#FFFFFF" filter="url(#f1xaekufvtkzet)" height="1891" style="stroke:#000000;stroke-width:1.5;" width="595" x="206" y="7"/><text fill="#000000" font-family="sans-serif" font-size="14" font-weight="bold" lengthAdjust="spacing" textLength="50" x="478.5" y="23.5332">System</text><ellipse cx="503.2928" cy="65.8586" fill="#FEFECE" filter="url(#f1xaekufvtkzet)" rx="102.2928" ry="22.8586" style="stroke:#A80036;stroke-width:1.5;"/><text fill="#000000" font-family="sans-serif" font-size="14" lengthAdjust="spacing" textLength="166" x="420.2928" y="69.5871">UC01. Schedule a vaccine</text><ellipse cx="503.5918" cy="511.2184" fill="#FEFECE" filter="url(#f1xaekufvtkzet)" rx="179.0918" ry="38.2184" style="stroke:#A80036;stroke-width:1.5;"/><text fill="#000000" font-family="sans-serif" font-size="14" lengthAdjust="spacing" textLength="329" x="339.0918" y="514.9469">UC02. Schedule a vaccine at one vaccination center</text><ellipse cx="503.7192" cy="608.9438" fill="#FEFECE" filter="url(#f1xaekufvtkzet)" rx="112.7192" ry="24.9438" style="stroke:#A80036;stroke-width:1.5;"/><text fill="#000000" font-family="sans-serif" font-size="14" lengthAdjust="spacing" textLength="189" x="409.2192" y="612.6724">UC03. Register new SNS User</text><ellipse cx="503.3049" cy="701.161" fill="#FEFECE" filter="url(#f1xaekufvtkzet)" rx="148.8049" ry="32.161" style="stroke:#A80036;stroke-width:1.5;"/><text fill="#000000" font-family="sans-serif" font-size="14" lengthAdjust="spacing" textLength="266" x="370.3049" y="704.8895">UC04. Register the arrival of the SNS user</text><ellipse cx="503.2646" cy="168.1529" fill="#FEFECE" filter="url(#f1xaekufvtkzet)" rx="208.7646" ry="44.1529" style="stroke:#A80036;stroke-width:1.5;"/><text fill="#000000" font-family="sans-serif" font-size="14" lengthAdjust="spacing" textLength="390" x="308.2646" y="171.8814">UC05. Check the list of SNS Users that are in the waiting room</text><ellipse cx="503.5785" cy="1824.0157" fill="#FEFECE" filter="url(#f1xaekufvtkzet)" rx="275.5785" ry="57.5157" style="stroke:#A80036;stroke-width:1.5;"/><text fill="#000000" font-family="sans-serif" font-size="14" lengthAdjust="spacing" textLength="526" x="240.5785" y="1827.7442">UC06. Reord daily the total number of people vaccinated in each vaccination center</text><ellipse cx="503.6497" cy="282.1299" fill="#FEFECE" filter="url(#f1xaekufvtkzet)" rx="163.6497" ry="35.1299" style="stroke:#A80036;stroke-width:1.5;"/><text fill="#000000" font-family="sans-serif" font-size="14" lengthAdjust="spacing" textLength="297" x="355.1497" y="285.8584">UC07. Record adverse reactions of a SNS user</text><ellipse cx="503.3832" cy="395.1766" fill="#FEFECE" filter="url(#f1xaekufvtkzet)" rx="203.8832" ry="43.1766" style="stroke:#A80036;stroke-width:1.5;"/><text fill="#000000" font-family="sans-serif" font-size="14" lengthAdjust="spacing" textLength="380" x="313.3832" y="398.9052">UC08. Record the administration of a vaccine to a SNS user.</text><ellipse cx="503.7387" cy="795.8477" fill="#FEFECE" filter="url(#f1xaekufvtkzet)" rx="124.7387" ry="27.3477" style="stroke:#A80036;stroke-width:1.5;"/><text fill="#000000" font-family="sans-serif" font-size="14" lengthAdjust="spacing" textLength="215" x="396.2387" y="799.5763">UC09. Register vaccination center</text><ellipse cx="503.5583" cy="880.9117" fill="#FEFECE" filter="url(#f1xaekufvtkzet)" rx="100.0583" ry="22.4117" style="stroke:#A80036;stroke-width:1.5;"/><text fill="#000000" font-family="sans-serif" font-size="14" lengthAdjust="spacing" textLength="161" x="423.0583" y="884.6402">UC10. Register employee</text><ellipse cx="503.5541" cy="963.8108" fill="#FEFECE" filter="url(#f1xaekufvtkzet)" rx="114.5541" ry="25.3108" style="stroke:#A80036;stroke-width:1.5;"/><text fill="#000000" font-family="sans-serif" font-size="14" lengthAdjust="spacing" textLength="193" x="407.0541" y="967.5393">UC11. Check list of Employees</text><ellipse cx="503.4736" cy="1049.9947" fill="#FEFECE" filter="url(#f1xaekufvtkzet)" rx="115.4736" ry="25.4947" style="stroke:#A80036;stroke-width:1.5;"/><text fill="#000000" font-family="sans-serif" font-size="14" lengthAdjust="spacing" textLength="195" x="405.9736" y="1053.7232">UC12. Register type of vaccine</text><ellipse cx="503.4223" cy="1149.7845" fill="#FEFECE" filter="url(#f1xaekufvtkzet)" rx="184.4223" ry="39.2845" style="stroke:#A80036;stroke-width:1.5;"/><text fill="#000000" font-family="sans-serif" font-size="14" lengthAdjust="spacing" textLength="340" x="333.4223" y="1153.513">UC13. Register vaccine and its administration process</text><ellipse cx="503.3756" cy="1256.8751" fill="#FEFECE" filter="url(#f1xaekufvtkzet)" rx="147.3756" ry="31.8751" style="stroke:#A80036;stroke-width:1.5;"/><text fill="#000000" font-family="sans-serif" font-size="14" lengthAdjust="spacing" textLength="263" x="371.8756" y="1260.6036">UC14. Load a set of users from a CSV file</text><ellipse cx="503.2666" cy="1595.0533" fill="#FEFECE" filter="url(#f1xaekufvtkzet)" rx="160.7666" ry="34.5533" style="stroke:#A80036;stroke-width:1.5;"/><text fill="#000000" font-family="sans-serif" font-size="14" lengthAdjust="spacing" textLength="291" x="357.7666" y="1598.7818">UC15. Check and export vaccination statistics.</text><ellipse cx="503.5573" cy="1698.2115" fill="#FEFECE" filter="url(#f1xaekufvtkzet)" rx="154.0573" ry="33.2115" style="stroke:#A80036;stroke-width:1.5;"/><text fill="#000000" font-family="sans-serif" font-size="14" lengthAdjust="spacing" textLength="277" x="365.0573" y="1701.94">UC16. Analyse the performance of a center.</text><ellipse cx="503.5015" cy="1383.2003" fill="#FEFECE" filter="url(#f1xaekufvtkzet)" rx="281.5015" ry="58.7003" style="stroke:#A80036;stroke-width:1.5;"/><text fill="#000000" font-family="sans-serif" font-size="14" lengthAdjust="spacing" textLength="538" x="234.5015" y="1386.9288">UC17. Import data from a legacy system that was used in the past to manage centers.</text><ellipse cx="503.434" cy="1500.9868" fill="#FEFECE" filter="url(#f1xaekufvtkzet)" rx="110.434" ry="24.4868" style="stroke:#A80036;stroke-width:1.5;"/><text fill="#000000" font-family="sans-serif" font-size="14" lengthAdjust="spacing" textLength="184" x="411.434" y="1504.7153">UC18. Get list of all vaccines.</text><!--MD5=[8fc3522a43f8c7199df5e09e5bb0188e]
entity user--><ellipse cx="84" cy="34" fill="#FEFECE" filter="url(#f1xaekufvtkzet)" rx="8" ry="8" style="stroke:#A80036;stroke-width:1.5;"/><path d="M84,42 L84,69 M71,50 L97,50 M84,69 L71,84 M84,69 L97,84 " fill="none" filter="url(#f1xaekufvtkzet)" style="stroke:#A80036;stroke-width:1.5;"/><text fill="#000000" font-family="sans-serif" font-size="14" lengthAdjust="spacing" textLength="60" x="54" y="104.0332">SNS User</text><!--MD5=[87d66015e0fe95d70bf3fa68103252e8]
entity nurse--><ellipse cx="84" cy="250" fill="#FEFECE" filter="url(#f1xaekufvtkzet)" rx="8" ry="8" style="stroke:#A80036;stroke-width:1.5;"/><path d="M84,258 L84,285 M71,266 L97,266 M84,285 L71,300 M84,285 L97,300 " fill="none" filter="url(#f1xaekufvtkzet)" style="stroke:#A80036;stroke-width:1.5;"/><text fill="#000000" font-family="sans-serif" font-size="14" lengthAdjust="spacing" textLength="37" x="65.5" y="320.0332">Nurse</text><!--MD5=[34dc565525bad95b6b789d13e524f0bb]
entity recept--><ellipse cx="84" cy="577" fill="#FEFECE" filter="url(#f1xaekufvtkzet)" rx="8" ry="8" style="stroke:#A80036;stroke-width:1.5;"/><path d="M84,585 L84,612 M71,593 L97,593 M84,612 L71,627 M84,612 L97,627 " fill="none" filter="url(#f1xaekufvtkzet)" style="stroke:#A80036;stroke-width:1.5;"/><text fill="#000000" font-family="sans-serif" font-size="14" lengthAdjust="spacing" textLength="78" x="45" y="647.0332">Receptionist</text><!--MD5=[79a439086b036a57b90a01d7b2f8bbd1]
entity admin--><ellipse cx="84" cy="975" fill="#FEFECE" filter="url(#f1xaekufvtkzet)" rx="8" ry="8" style="stroke:#A80036;stroke-width:1.5;"/><path d="M84,983 L84,1010 M71,991 L97,991 M84,1010 L71,1025 M84,1010 L97,1025 " fill="none" filter="url(#f1xaekufvtkzet)" style="stroke:#A80036;stroke-width:1.5;"/><text fill="#000000" font-family="sans-serif" font-size="14" lengthAdjust="spacing" textLength="83" x="42.5" y="1045.0332">Administrator</text><!--MD5=[4d302acd527bc9f790d99ea65b823e73]
entity coordinator--><ellipse cx="84" cy="1516" fill="#FEFECE" filter="url(#f1xaekufvtkzet)" rx="8" ry="8" style="stroke:#A80036;stroke-width:1.5;"/><path d="M84,1524 L84,1551 M71,1532 L97,1532 M84,1551 L71,1566 M84,1551 L97,1566 " fill="none" filter="url(#f1xaekufvtkzet)" style="stroke:#A80036;stroke-width:1.5;"/><text fill="#000000" font-family="sans-serif" font-size="14" lengthAdjust="spacing" textLength="122" x="23" y="1586.0332">Center Coordinator</text><!--MD5=[13dff29a2267c98a2d820d96b9b744fb]
entity timer--><ellipse cx="84" cy="1792" fill="#FEFECE" filter="url(#f1xaekufvtkzet)" rx="8" ry="8" style="stroke:#A80036;stroke-width:1.5;"/><path d="M84,1800 L84,1827 M71,1808 L97,1808 M84,1827 L71,1842 M84,1827 L97,1842 " fill="none" filter="url(#f1xaekufvtkzet)" style="stroke:#A80036;stroke-width:1.5;"/><text fill="#000000" font-family="sans-serif" font-size="14" lengthAdjust="spacing" textLength="156" x="6" y="1862.0332">«automatic» Timer/Clock</text><!--MD5=[140266ba44ac8b87f85e725624a55779]
link user to UC01--><path d="M114.03,66 C172.46,66 306.74,66 400.99,66 " fill="none" id="user-UC01" style="stroke:#A80036;stroke-width:1.0;"/><!--MD5=[711ffad10621eb25fdccddd40f072248]
link recept to UC02--><path d="M123.11,592.48 C144.75,583.61 172.52,573.08 198,566 C248.33,552.01 304.37,540.71 354.51,532.08 " fill="none" id="recept-UC02" style="stroke:#A80036;stroke-width:1.0;"/><!--MD5=[9f0ba1c9d0a3cbbdfa7f92cec10d203c]
link recept to UC03--><path d="M123.16,609 C183.24,609 302.21,609 390.97,609 " fill="none" id="recept-UC03" style="stroke:#A80036;stroke-width:1.0;"/><!--MD5=[48179833b0ecfc7a902007618e793e6f]
link recept to UC04--><path d="M123.11,625.26 C144.74,633.96 172.51,644.24 198,651 C254.7,666.04 318.61,677.36 373.18,685.4 " fill="none" id="recept-UC04" style="stroke:#A80036;stroke-width:1.0;"/><!--MD5=[5bb5dcefbc65873dedbd3c6858dc790c]
link nurse to UC05--><path d="M102.84,271.98 C124.66,260.11 163.01,240.52 198,229 C241.53,214.67 289.72,203.12 334.68,194.1 " fill="none" id="nurse-UC05" style="stroke:#A80036;stroke-width:1.0;"/><!--MD5=[44f12ce4d67794a5a9da84f3bb3a2f3e]
link timer to UC06--><path d="M162.06,1824 C181.74,1824 204.05,1824 227.61,1824 " fill="none" id="timer-UC06" style="stroke:#A80036;stroke-width:1.0;"/><!--MD5=[281c5965a45307b972b9fafd7dc9d075]
link nurse to UC07--><path d="M102.67,282 C143.49,282 247.87,282 339.75,282 " fill="none" id="nurse-UC07" style="stroke:#A80036;stroke-width:1.0;"/><!--MD5=[5306f834103bd019928d2c56277b17a1]
link nurse to UC08--><path d="M102.87,291.82 C124.71,303.44 163.09,322.64 198,334 C242.86,348.59 292.63,360.34 338.71,369.47 " fill="none" id="nurse-UC08" style="stroke:#A80036;stroke-width:1.0;"/><!--MD5=[614e4dc9dae8689213c465a051758620]
link admin to UC09--><path d="M101.65,965.14 C119.43,926.28 151.48,870.16 198,841 C251.77,807.3 321.17,795.18 380.14,791.87 " fill="none" id="admin-UC09" style="stroke:#A80036;stroke-width:1.0;"/><!--MD5=[dfd2db1a8ab03a1b37a29f31d929c176]
link admin to UC10--><path d="M125.7,967.74 C145.88,950.57 171.56,931.89 198,921 C263.08,894.2 342,884.41 403.19,881.2 " fill="none" id="admin-UC10" style="stroke:#A80036;stroke-width:1.0;"/><!--MD5=[82f64621edba5c3b20c09d5802f5d0cb]
link admin to UC11--><path d="M125.79,1002.8 C188.58,996.33 310.87,983.74 399.12,974.65 " fill="none" id="admin-UC11" style="stroke:#A80036;stroke-width:1.0;"/><!--MD5=[d7de013467b5cb2c3186533ed2392f3a]
link admin to UC12--><path d="M125.79,1011.2 C188.37,1017.65 310.07,1030.18 398.25,1039.26 " fill="none" id="admin-UC12" style="stroke:#A80036;stroke-width:1.0;"/><!--MD5=[3b84ea810314b2514d885a4aa2be8b4c]
link admin to UC13--><path d="M125.71,1045.4 C145.99,1062.49 171.75,1081.35 198,1093 C241.01,1112.09 290.19,1124.8 336.3,1133.24 " fill="none" id="admin-UC13" style="stroke:#A80036;stroke-width:1.0;"/><!--MD5=[9c40f8fc99bac5721e3e652f51b9306f]
link admin to UC14--><path d="M96.68,1048.88 C111.95,1095.37 143.4,1168.87 198,1207 C243.57,1238.82 302.22,1253.07 355.85,1258.75 " fill="none" id="admin-UC14" style="stroke:#A80036;stroke-width:1.0;"/><!--MD5=[ab5c08cbc12cecfadf101c6b421cf747]
link coordinator to UC15--><path d="M145.26,1554.78 C201.38,1561.1 287.18,1570.76 360.62,1579.03 " fill="none" id="coordinator-UC15" style="stroke:#A80036;stroke-width:1.0;"/><!--MD5=[441c03a8871b2301c4e2f0f31ab574b4]
link coordinator to UC16--><path d="M121.59,1589.52 C142.01,1610.06 169.13,1633.31 198,1647 C246.19,1669.85 302.92,1682.64 354.27,1689.74 " fill="none" id="coordinator-UC16" style="stroke:#A80036;stroke-width:1.0;"/><!--MD5=[dc829bc32b289998eb4c97fb6caef881]
link coordinator to UC17--><path d="M128.74,1506.43 C148.56,1489.56 173.11,1471.2 198,1459 C228.21,1444.19 261.56,1432.1 294.78,1422.28 " fill="none" id="coordinator-UC17" style="stroke:#A80036;stroke-width:1.0;"/><!--MD5=[ceedcd86907d982e68a98fcbde707650]
link coordinator to UC18--><path d="M145.26,1541.22 C213.12,1533.58 324.38,1521.05 404.72,1512.01 " fill="none" id="coordinator-UC18" style="stroke:#A80036;stroke-width:1.0;"/><!--MD5=[86dd53c46dc92fd8e89ee2e847d5ddde]
@startuml UCD

left to right direction

actor "SNS User" as user
actor "Nurse" as nurse
actor "Receptionist" as recept
actor "Administrator" as admin
actor "Center Coordinator" as coordinator
actor "<<automatic>> Timer/Clock" as timer

rectangle System {
  usecase "UC01. Schedule a vaccine" as UC01
  usecase "UC02. Schedule a vaccine at one vaccination center" as UC02
  usecase "UC03. Register new SNS User" as UC03
  usecase "UC04. Register the arrival of the SNS user" as UC04
  usecase "UC05. Check the list of SNS Users that are in the waiting room" as UC05
  usecase "UC06. Reord daily the total number of people vaccinated in each vaccination center" as UC06  
  usecase "UC07. Record adverse reactions of a SNS user" as UC07 
  usecase "UC08. Record the administration of a vaccine to a SNS user." as UC08
  usecase "UC09. Register vaccination center" as UC09
  usecase "UC10. Register employee" as UC10
  usecase "UC11. Check list of Employees" as UC11
  usecase "UC12. Register type of vaccine" as UC12
  usecase "UC13. Register vaccine and its administration process" as UC13
  usecase "UC14. Load a set of users from a CSV file" as UC14
  usecase "UC15. Check and export vaccination statistics." as UC15
  usecase "UC16. Analyse the performance of a center." as UC16
  usecase "UC17. Import data from a legacy system that was used in the past to manage centers." as UC17  
  usecase "UC18. Get list of all vaccines." as UC18
}

user - - UC01
recept - - UC02
recept - - UC03
recept - - UC04
nurse - - UC05
timer - - UC06
nurse - - UC07
nurse - - UC08
admin - - UC09
admin - - UC10
admin - - UC11
admin - - UC12
admin - - UC13
admin - - UC14
coordinator - - UC15
coordinator - - UC16
coordinator - - UC17
coordinator - - UC18
@enduml

PlantUML version 1.2022.0(Tue Jan 11 16:16:42 WET 2022)
(GPL source distribution)
Java Runtime: Java(TM) SE Runtime Environment
JVM: Java HotSpot(TM) 64-Bit Server VM
Default Encoding: Cp1252
Language: pt
Country: PT
--></g></svg>