<?xml version="1.0" encoding="UTF-8" standalone="no"?><svg xmlns="http://www.w3.org/2000/svg" xmlns:xlink="http://www.w3.org/1999/xlink" contentScriptType="application/ecmascript" contentStyleType="text/css" height="691px" preserveAspectRatio="none" style="width:739px;height:691px;background:#FFFFFF;" version="1.1" viewBox="0 0 739 691" width="739px" zoomAndPan="magnify"><defs><filter height="300%" id="fj23tqaf9cand" width="300%" x="-1" y="-1"><feGaussianBlur result="blurOut" stdDeviation="2.0"/><feColorMatrix in="blurOut" result="blurOut2" type="matrix" values="0 0 0 0 0 0 0 0 0 0 0 0 0 0 0 0 0 0 .4 0"/><feOffset dx="4.0" dy="4.0" in="blurOut2" result="blurOut3"/><feBlend in="SourceGraphic" in2="blurOut3" mode="normal"/></filter></defs><g><!--MD5=[c508b5b6bbe276ff5e2700b6641f837f]
class Appointment--><rect codeLine="5" fill="#FEFECE" filter="url(#fj23tqaf9cand)" height="40" id="Appointment" style="stroke:#A80036;stroke-width:1.5;" width="101" x="186" y="139"/><ellipse cx="201" cy="155" fill="#ADD1B2" rx="11" ry="11" style="stroke:#A80036;stroke-width:1.0;"/><path d="M203.7656,150.875 Q203.9219,150.6563 204.1094,150.5469 Q204.2969,150.4375 204.5156,150.4375 Q204.8906,150.4375 205.125,150.7031 Q205.3594,150.9531 205.3594,151.5625 L205.3594,153.0156 Q205.3594,153.625 205.125,153.8906 Q204.8906,154.1563 204.5156,154.1563 Q204.1719,154.1563 203.9688,153.9531 Q203.7656,153.7656 203.6563,153.25 Q203.6094,152.8906 203.4219,152.7031 Q203.0938,152.3281 202.4844,152.1094 Q201.875,151.8906 201.25,151.8906 Q200.4844,151.8906 199.8438,152.2188 Q199.2188,152.5469 198.7188,153.2969 Q198.2344,154.0469 198.2344,155.0781 L198.2344,156.1719 Q198.2344,157.4063 199.125,158.2344 Q200.0156,159.0469 201.6094,159.0469 Q202.5469,159.0469 203.2031,158.7969 Q203.5938,158.6406 204.0156,158.2031 Q204.2813,157.9375 204.4219,157.8594 Q204.5781,157.7813 204.7813,157.7813 Q205.1094,157.7813 205.3594,158.0469 Q205.625,158.2969 205.625,158.6406 Q205.625,158.9844 205.2813,159.3906 Q204.7813,159.9688 203.9844,160.2969 Q202.9063,160.75 201.6094,160.75 Q200.0938,160.75 198.8906,160.125 Q197.9063,159.625 197.2188,158.5625 Q196.5313,157.4844 196.5313,156.2031 L196.5313,155.0469 Q196.5313,153.7188 197.1406,152.5781 Q197.7656,151.4219 198.8594,150.8125 Q199.9531,150.1875 201.1875,150.1875 Q201.9219,150.1875 202.5625,150.3594 Q203.2188,150.5156 203.7656,150.875 Z " fill="#000000"/><text fill="#000000" font-family="sans-serif" font-size="12" lengthAdjust="spacing" textLength="69" x="215" y="159.9102">Appointment</text><line style="stroke:#A80036;stroke-width:1.5;" x1="187" x2="286" y1="171" y2="171"/><!--MD5=[0e501da62322464167c8ec4d233a6b7e]
class VaccineType--><rect codeLine="7" fill="#FEFECE" filter="url(#fj23tqaf9cand)" height="40" id="VaccineType" style="stroke:#A80036;stroke-width:1.5;" width="101" x="7" y="333"/><ellipse cx="22" cy="349" fill="#ADD1B2" rx="11" ry="11" style="stroke:#A80036;stroke-width:1.0;"/><path d="M24.7656,344.875 Q24.9219,344.6563 25.1094,344.5469 Q25.2969,344.4375 25.5156,344.4375 Q25.8906,344.4375 26.125,344.7031 Q26.3594,344.9531 26.3594,345.5625 L26.3594,347.0156 Q26.3594,347.625 26.125,347.8906 Q25.8906,348.1563 25.5156,348.1563 Q25.1719,348.1563 24.9688,347.9531 Q24.7656,347.7656 24.6563,347.25 Q24.6094,346.8906 24.4219,346.7031 Q24.0938,346.3281 23.4844,346.1094 Q22.875,345.8906 22.25,345.8906 Q21.4844,345.8906 20.8438,346.2188 Q20.2188,346.5469 19.7188,347.2969 Q19.2344,348.0469 19.2344,349.0781 L19.2344,350.1719 Q19.2344,351.4063 20.125,352.2344 Q21.0156,353.0469 22.6094,353.0469 Q23.5469,353.0469 24.2031,352.7969 Q24.5938,352.6406 25.0156,352.2031 Q25.2813,351.9375 25.4219,351.8594 Q25.5781,351.7813 25.7813,351.7813 Q26.1094,351.7813 26.3594,352.0469 Q26.625,352.2969 26.625,352.6406 Q26.625,352.9844 26.2813,353.3906 Q25.7813,353.9688 24.9844,354.2969 Q23.9063,354.75 22.6094,354.75 Q21.0938,354.75 19.8906,354.125 Q18.9063,353.625 18.2188,352.5625 Q17.5313,351.4844 17.5313,350.2031 L17.5313,349.0469 Q17.5313,347.7188 18.1406,346.5781 Q18.7656,345.4219 19.8594,344.8125 Q20.9531,344.1875 22.1875,344.1875 Q22.9219,344.1875 23.5625,344.3594 Q24.2188,344.5156 24.7656,344.875 Z " fill="#000000"/><text fill="#000000" font-family="sans-serif" font-size="12" lengthAdjust="spacing" textLength="69" x="36" y="353.9102">VaccineType</text><line style="stroke:#A80036;stroke-width:1.5;" x1="8" x2="107" y1="365" y2="365"/><!--MD5=[72be06cc7ae02ccc98efe28a50e62246]
class SNSUser--><rect codeLine="9" fill="#FEFECE" filter="url(#fj23tqaf9cand)" height="150.6875" id="SNSUser" style="stroke:#A80036;stroke-width:1.5;" width="84" x="165.5" y="527"/><ellipse cx="180.5" cy="543" fill="#ADD1B2" rx="11" ry="11" style="stroke:#A80036;stroke-width:1.0;"/><path d="M183.2656,538.875 Q183.4219,538.6563 183.6094,538.5469 Q183.7969,538.4375 184.0156,538.4375 Q184.3906,538.4375 184.625,538.7031 Q184.8594,538.9531 184.8594,539.5625 L184.8594,541.0156 Q184.8594,541.625 184.625,541.8906 Q184.3906,542.1563 184.0156,542.1563 Q183.6719,542.1563 183.4688,541.9531 Q183.2656,541.7656 183.1563,541.25 Q183.1094,540.8906 182.9219,540.7031 Q182.5938,540.3281 181.9844,540.1094 Q181.375,539.8906 180.75,539.8906 Q179.9844,539.8906 179.3438,540.2188 Q178.7188,540.5469 178.2188,541.2969 Q177.7344,542.0469 177.7344,543.0781 L177.7344,544.1719 Q177.7344,545.4063 178.625,546.2344 Q179.5156,547.0469 181.1094,547.0469 Q182.0469,547.0469 182.7031,546.7969 Q183.0938,546.6406 183.5156,546.2031 Q183.7813,545.9375 183.9219,545.8594 Q184.0781,545.7813 184.2813,545.7813 Q184.6094,545.7813 184.8594,546.0469 Q185.125,546.2969 185.125,546.6406 Q185.125,546.9844 184.7813,547.3906 Q184.2813,547.9688 183.4844,548.2969 Q182.4063,548.75 181.1094,548.75 Q179.5938,548.75 178.3906,548.125 Q177.4063,547.625 176.7188,546.5625 Q176.0313,545.4844 176.0313,544.2031 L176.0313,543.0469 Q176.0313,541.7188 176.6406,540.5781 Q177.2656,539.4219 178.3594,538.8125 Q179.4531,538.1875 180.6875,538.1875 Q181.4219,538.1875 182.0625,538.3594 Q182.7188,538.5156 183.2656,538.875 Z " fill="#000000"/><text fill="#000000" font-family="sans-serif" font-size="12" lengthAdjust="spacing" textLength="52" x="194.5" y="547.9102">SNSUser</text><line style="stroke:#A80036;stroke-width:1.5;" x1="166.5" x2="248.5" y1="559" y2="559"/><text fill="#000000" font-family="sans-serif" font-size="11" lengthAdjust="spacing" textLength="58" x="171.5" y="574.4189">-citizenCard</text><text fill="#000000" font-family="sans-serif" font-size="11" lengthAdjust="spacing" textLength="59" x="171.5" y="588.2549">-snsNumber</text><text fill="#000000" font-family="sans-serif" font-size="11" lengthAdjust="spacing" textLength="30" x="171.5" y="602.0908">-name</text><text fill="#000000" font-family="sans-serif" font-size="11" lengthAdjust="spacing" textLength="44" x="171.5" y="615.9268">-birthDay</text><text fill="#000000" font-family="sans-serif" font-size="11" lengthAdjust="spacing" textLength="38" x="171.5" y="629.7627">-gender</text><text fill="#000000" font-family="sans-serif" font-size="11" lengthAdjust="spacing" textLength="71" x="171.5" y="643.5986">-phoneNumber</text><text fill="#000000" font-family="sans-serif" font-size="11" lengthAdjust="spacing" textLength="28" x="171.5" y="657.4346">-email</text><text fill="#000000" font-family="sans-serif" font-size="11" lengthAdjust="spacing" textLength="44" x="171.5" y="671.2705">-address</text><!--MD5=[de60e6d4f424ae4d0522096f76a59010]
class VaccinationCenter--><rect codeLine="20" fill="#FEFECE" filter="url(#fj23tqaf9cand)" height="192.1953" id="VaccinationCenter" style="stroke:#A80036;stroke-width:1.5;" width="140" x="268.5" y="257"/><ellipse cx="287.1" cy="273" fill="#ADD1B2" rx="11" ry="11" style="stroke:#A80036;stroke-width:1.0;"/><path d="M289.8656,268.875 Q290.0219,268.6563 290.2094,268.5469 Q290.3969,268.4375 290.6156,268.4375 Q290.9906,268.4375 291.225,268.7031 Q291.4594,268.9531 291.4594,269.5625 L291.4594,271.0156 Q291.4594,271.625 291.225,271.8906 Q290.9906,272.1563 290.6156,272.1563 Q290.2719,272.1563 290.0688,271.9531 Q289.8656,271.7656 289.7563,271.25 Q289.7094,270.8906 289.5219,270.7031 Q289.1938,270.3281 288.5844,270.1094 Q287.975,269.8906 287.35,269.8906 Q286.5844,269.8906 285.9438,270.2188 Q285.3188,270.5469 284.8188,271.2969 Q284.3344,272.0469 284.3344,273.0781 L284.3344,274.1719 Q284.3344,275.4063 285.225,276.2344 Q286.1156,277.0469 287.7094,277.0469 Q288.6469,277.0469 289.3031,276.7969 Q289.6938,276.6406 290.1156,276.2031 Q290.3813,275.9375 290.5219,275.8594 Q290.6781,275.7813 290.8813,275.7813 Q291.2094,275.7813 291.4594,276.0469 Q291.725,276.2969 291.725,276.6406 Q291.725,276.9844 291.3813,277.3906 Q290.8813,277.9688 290.0844,278.2969 Q289.0063,278.75 287.7094,278.75 Q286.1938,278.75 284.9906,278.125 Q284.0063,277.625 283.3188,276.5625 Q282.6313,275.4844 282.6313,274.2031 L282.6313,273.0469 Q282.6313,271.7188 283.2406,270.5781 Q283.8656,269.4219 284.9594,268.8125 Q286.0531,268.1875 287.2875,268.1875 Q288.0219,268.1875 288.6625,268.3594 Q289.3188,268.5156 289.8656,268.875 Z " fill="#000000"/><text fill="#000000" font-family="sans-serif" font-size="12" lengthAdjust="spacing" textLength="100" x="301.9" y="277.9102">VaccinationCenter</text><line style="stroke:#A80036;stroke-width:1.5;" x1="269.5" x2="407.5" y1="289" y2="289"/><text fill="#000000" font-family="sans-serif" font-size="11" lengthAdjust="spacing" textLength="30" x="274.5" y="304.4189">-name</text><text fill="#000000" font-family="sans-serif" font-size="11" lengthAdjust="spacing" textLength="44" x="274.5" y="318.2549">-address</text><text fill="#000000" font-family="sans-serif" font-size="11" lengthAdjust="spacing" textLength="70" x="274.5" y="332.0908">-emailAddress</text><text fill="#000000" font-family="sans-serif" font-size="11" lengthAdjust="spacing" textLength="71" x="274.5" y="345.9268">-phoneNumber</text><text fill="#000000" font-family="sans-serif" font-size="11" lengthAdjust="spacing" textLength="57" x="274.5" y="359.7627">-faxNumber</text><text fill="#000000" font-family="sans-serif" font-size="11" lengthAdjust="spacing" textLength="85" x="274.5" y="373.5986">-websiteAddress</text><text fill="#000000" font-family="sans-serif" font-size="11" lengthAdjust="spacing" textLength="71" x="274.5" y="387.4346">-openingHours</text><text fill="#000000" font-family="sans-serif" font-size="11" lengthAdjust="spacing" textLength="67" x="274.5" y="401.2705">-closingHours</text><text fill="#000000" font-family="sans-serif" font-size="11" lengthAdjust="spacing" textLength="61" x="274.5" y="415.1064">-slotDuration</text><text fill="#000000" font-family="sans-serif" font-size="11" lengthAdjust="spacing" textLength="128" x="274.5" y="428.9424">-maximumVaccinesPerSlot</text><text fill="#000000" font-family="sans-serif" font-size="11" lengthAdjust="spacing" textLength="59" x="274.5" y="442.7783">-coordinator</text><!--MD5=[02e4b9b7573f1156f41e60aa5b4e25a4]
class Company--><rect codeLine="34" fill="#FEFECE" filter="url(#fj23tqaf9cand)" height="53.8359" id="Company" style="stroke:#A80036;stroke-width:1.5;" width="85" x="447" y="7"/><ellipse cx="462" cy="23" fill="#ADD1B2" rx="11" ry="11" style="stroke:#A80036;stroke-width:1.0;"/><path d="M464.7656,18.875 Q464.9219,18.6563 465.1094,18.5469 Q465.2969,18.4375 465.5156,18.4375 Q465.8906,18.4375 466.125,18.7031 Q466.3594,18.9531 466.3594,19.5625 L466.3594,21.0156 Q466.3594,21.625 466.125,21.8906 Q465.8906,22.1563 465.5156,22.1563 Q465.1719,22.1563 464.9688,21.9531 Q464.7656,21.7656 464.6563,21.25 Q464.6094,20.8906 464.4219,20.7031 Q464.0938,20.3281 463.4844,20.1094 Q462.875,19.8906 462.25,19.8906 Q461.4844,19.8906 460.8438,20.2188 Q460.2188,20.5469 459.7188,21.2969 Q459.2344,22.0469 459.2344,23.0781 L459.2344,24.1719 Q459.2344,25.4063 460.125,26.2344 Q461.0156,27.0469 462.6094,27.0469 Q463.5469,27.0469 464.2031,26.7969 Q464.5938,26.6406 465.0156,26.2031 Q465.2813,25.9375 465.4219,25.8594 Q465.5781,25.7813 465.7813,25.7813 Q466.1094,25.7813 466.3594,26.0469 Q466.625,26.2969 466.625,26.6406 Q466.625,26.9844 466.2813,27.3906 Q465.7813,27.9688 464.9844,28.2969 Q463.9063,28.75 462.6094,28.75 Q461.0938,28.75 459.8906,28.125 Q458.9063,27.625 458.2188,26.5625 Q457.5313,25.4844 457.5313,24.2031 L457.5313,23.0469 Q457.5313,21.7188 458.1406,20.5781 Q458.7656,19.4219 459.8594,18.8125 Q460.9531,18.1875 462.1875,18.1875 Q462.9219,18.1875 463.5625,18.3594 Q464.2188,18.5156 464.7656,18.875 Z " fill="#000000"/><text fill="#000000" font-family="sans-serif" font-size="12" lengthAdjust="spacing" textLength="53" x="476" y="27.9102">Company</text><line style="stroke:#A80036;stroke-width:1.5;" x1="448" x2="531" y1="39" y2="39"/><text fill="#000000" font-family="sans-serif" font-size="11" lengthAdjust="spacing" textLength="59" x="453" y="54.4189">-designation</text><!--MD5=[03960189e81aa2c066c762ffabbee709]
class Receptionist--><rect codeLine="38" fill="#FEFECE" filter="url(#fj23tqaf9cand)" height="40" id="Receptionist" style="stroke:#A80036;stroke-width:1.5;" width="101" x="481" y="333"/><ellipse cx="496" cy="349" fill="#ADD1B2" rx="11" ry="11" style="stroke:#A80036;stroke-width:1.0;"/><path d="M498.7656,344.875 Q498.9219,344.6563 499.1094,344.5469 Q499.2969,344.4375 499.5156,344.4375 Q499.8906,344.4375 500.125,344.7031 Q500.3594,344.9531 500.3594,345.5625 L500.3594,347.0156 Q500.3594,347.625 500.125,347.8906 Q499.8906,348.1563 499.5156,348.1563 Q499.1719,348.1563 498.9688,347.9531 Q498.7656,347.7656 498.6563,347.25 Q498.6094,346.8906 498.4219,346.7031 Q498.0938,346.3281 497.4844,346.1094 Q496.875,345.8906 496.25,345.8906 Q495.4844,345.8906 494.8438,346.2188 Q494.2188,346.5469 493.7188,347.2969 Q493.2344,348.0469 493.2344,349.0781 L493.2344,350.1719 Q493.2344,351.4063 494.125,352.2344 Q495.0156,353.0469 496.6094,353.0469 Q497.5469,353.0469 498.2031,352.7969 Q498.5938,352.6406 499.0156,352.2031 Q499.2813,351.9375 499.4219,351.8594 Q499.5781,351.7813 499.7813,351.7813 Q500.1094,351.7813 500.3594,352.0469 Q500.625,352.2969 500.625,352.6406 Q500.625,352.9844 500.2813,353.3906 Q499.7813,353.9688 498.9844,354.2969 Q497.9063,354.75 496.6094,354.75 Q495.0938,354.75 493.8906,354.125 Q492.9063,353.625 492.2188,352.5625 Q491.5313,351.4844 491.5313,350.2031 L491.5313,349.0469 Q491.5313,347.7188 492.1406,346.5781 Q492.7656,345.4219 493.8594,344.8125 Q494.9531,344.1875 496.1875,344.1875 Q496.9219,344.1875 497.5625,344.3594 Q498.2188,344.5156 498.7656,344.875 Z " fill="#000000"/><text fill="#000000" font-family="sans-serif" font-size="12" lengthAdjust="spacing" textLength="69" x="510" y="353.9102">Receptionist</text><line style="stroke:#A80036;stroke-width:1.5;" x1="482" x2="581" y1="365" y2="365"/><!--MD5=[7421f545a0d8420c5bec41e74b387d9c]
class Employee--><rect codeLine="40" fill="#FEFECE" filter="url(#fj23tqaf9cand)" height="40" id="Employee" style="stroke:#A80036;stroke-width:1.5;" width="87" x="638" y="139"/><ellipse cx="653" cy="155" fill="#ADD1B2" rx="11" ry="11" style="stroke:#A80036;stroke-width:1.0;"/><path d="M655.7656,150.875 Q655.9219,150.6563 656.1094,150.5469 Q656.2969,150.4375 656.5156,150.4375 Q656.8906,150.4375 657.125,150.7031 Q657.3594,150.9531 657.3594,151.5625 L657.3594,153.0156 Q657.3594,153.625 657.125,153.8906 Q656.8906,154.1563 656.5156,154.1563 Q656.1719,154.1563 655.9688,153.9531 Q655.7656,153.7656 655.6563,153.25 Q655.6094,152.8906 655.4219,152.7031 Q655.0938,152.3281 654.4844,152.1094 Q653.875,151.8906 653.25,151.8906 Q652.4844,151.8906 651.8438,152.2188 Q651.2188,152.5469 650.7188,153.2969 Q650.2344,154.0469 650.2344,155.0781 L650.2344,156.1719 Q650.2344,157.4063 651.125,158.2344 Q652.0156,159.0469 653.6094,159.0469 Q654.5469,159.0469 655.2031,158.7969 Q655.5938,158.6406 656.0156,158.2031 Q656.2813,157.9375 656.4219,157.8594 Q656.5781,157.7813 656.7813,157.7813 Q657.1094,157.7813 657.3594,158.0469 Q657.625,158.2969 657.625,158.6406 Q657.625,158.9844 657.2813,159.3906 Q656.7813,159.9688 655.9844,160.2969 Q654.9063,160.75 653.6094,160.75 Q652.0938,160.75 650.8906,160.125 Q649.9063,159.625 649.2188,158.5625 Q648.5313,157.4844 648.5313,156.2031 L648.5313,155.0469 Q648.5313,153.7188 649.1406,152.5781 Q649.7656,151.4219 650.8594,150.8125 Q651.9531,150.1875 653.1875,150.1875 Q653.9219,150.1875 654.5625,150.3594 Q655.2188,150.5156 655.7656,150.875 Z " fill="#000000"/><text fill="#000000" font-family="sans-serif" font-size="12" lengthAdjust="spacing" textLength="55" x="667" y="159.9102">Employee</text><line style="stroke:#A80036;stroke-width:1.5;" x1="639" x2="724" y1="171" y2="171"/><!--MD5=[394476be1d9cc203bf0bce63db5cbcd1]
link Company to Appointment--><path codeLine="42" d="M446.82,50.31 C418.95,60.77 382.02,75.5 350.5,91 C321.04,105.49 288.92,124.7 266.31,138.83 " fill="none" id="Company-Appointment" style="stroke:#A80036;stroke-width:1.0;"/><polygon fill="#000000" points="351.0107,102.3773,360.4259,101.0335,357.8379,95.756,351.0107,102.3773" style="stroke:#000000;stroke-width:1.0;"/><text fill="#000000" font-family="sans-serif" font-size="13" lengthAdjust="spacing" textLength="37" x="364.5" y="105.4951">knows</text><text fill="#000000" font-family="sans-serif" font-size="13" lengthAdjust="spacing" textLength="7" x="431.8828" y="49.2777">1</text><text fill="#000000" font-family="sans-serif" font-size="13" lengthAdjust="spacing" textLength="5" x="269.3323" y="128.1018">*</text><!--MD5=[d63168792e55d79de1fe85cd885704ff]
link Appointment to VaccineType--><path codeLine="43" d="M185.88,171.03 C162.28,178.38 135.31,190.26 116.5,209 C81.49,243.88 66.33,302.49 60.57,332.71 " fill="none" id="Appointment-VaccineType" style="stroke:#A80036;stroke-width:1.0;"/><polygon fill="#000000" points="118.437,222.1278,126.3009,216.7789,121.6551,213.1782,118.437,222.1278" style="stroke:#000000;stroke-width:1.0;"/><text fill="#000000" font-family="sans-serif" font-size="13" lengthAdjust="spacing" textLength="21" x="130.5" y="223.4951">has</text><text fill="#000000" font-family="sans-serif" font-size="13" lengthAdjust="spacing" textLength="7" x="170.9311" y="169.1428">1</text><text fill="#000000" font-family="sans-serif" font-size="13" lengthAdjust="spacing" textLength="7" x="53.4491" y="322.298">1</text><!--MD5=[d139302f00cc62b984b6371d0fde1842]
link Appointment to VaccinationCenter--><path codeLine="44" d="M231.83,179.08 C229.36,192.82 227.88,211.57 233.5,227 C241.16,248.04 254.1,267.99 268.32,285.54 " fill="none" id="Appointment-VaccinationCenter" style="stroke:#A80036;stroke-width:1.0;"/><polygon fill="#000000" points="240.1212,222.9057,239.9686,213.3963,234.4083,215.3022,240.1212,222.9057" style="stroke:#000000;stroke-width:1.0;"/><text fill="#000000" font-family="sans-serif" font-size="13" lengthAdjust="spacing" textLength="21" x="247.5" y="223.4951">has</text><text fill="#000000" font-family="sans-serif" font-size="13" lengthAdjust="spacing" textLength="5" x="231.2197" y="200.5221">*</text><text fill="#000000" font-family="sans-serif" font-size="13" lengthAdjust="spacing" textLength="7" x="253.7218" y="275.2614">1</text><!--MD5=[eebe9b198877275d05dd12630ed9e401]
link Company to VaccinationCenter--><path codeLine="45" d="M478.21,61.07 C469.11,82.1 455.97,112.45 444.5,139 C427.6,178.1 425.14,188.69 406.5,227 C401.74,236.77 396.61,246.88 391.38,256.92 " fill="none" id="Company-VaccinationCenter" style="stroke:#A80036;stroke-width:1.0;"/><polygon fill="#000000" points="447.4735,163.7467,453.8262,156.669,448.4528,154.2867,447.4735,163.7467" style="stroke:#000000;stroke-width:1.0;"/><text fill="#000000" font-family="sans-serif" font-size="13" lengthAdjust="spacing" textLength="37" x="458.5" y="164.4951">knows</text><text fill="#000000" font-family="sans-serif" font-size="13" lengthAdjust="spacing" textLength="7" x="467.9747" y="82.2931">1</text><text fill="#000000" font-family="sans-serif" font-size="13" lengthAdjust="spacing" textLength="5" x="390.3947" y="246.1275">*</text><!--MD5=[e30c801b3ac7b558e113223f2c8633df]
link Appointment to Receptionist--><path codeLine="46" d="M281.47,179.12 C320.96,196.81 379.16,225.13 425.5,257 C458.89,279.97 493,312.49 513.21,332.91 " fill="none" id="Appointment-Receptionist" style="stroke:#A80036;stroke-width:1.0;"/><polygon fill="#000000" points="385.6661,220.9405,379.7546,213.4903,376.5045,218.3878,385.6661,220.9405" style="stroke:#000000;stroke-width:1.0;"/><text fill="#000000" font-family="sans-serif" font-size="13" lengthAdjust="spacing" textLength="78" x="390.5" y="223.4951">associated to</text><!--MD5=[7690a4971bd8576b261a40a0340b8203]
link Receptionist to SNSUser--><path codeLine="47" d="M511.42,373.32 C490.56,393.08 456.67,424.28 425.5,449 C366.52,495.79 294.26,544.82 249.55,574.27 " fill="none" id="Receptionist-SNSUser" style="stroke:#A80036;stroke-width:1.0;"/><polygon fill="#000000" points="386.5333,491.2197,395.4983,488.0448,391.92,483.3816,386.5333,491.2197" style="stroke:#000000;stroke-width:1.0;"/><text fill="#000000" font-family="sans-serif" font-size="13" lengthAdjust="spacing" textLength="77" x="399.5" y="493.4951">schedules for</text><text fill="#000000" font-family="sans-serif" font-size="13" lengthAdjust="spacing" textLength="7" x="498.0829" y="394.4734">1</text><text fill="#000000" font-family="sans-serif" font-size="13" lengthAdjust="spacing" textLength="7" x="257.3789" y="565.5952">1</text><!--MD5=[5448e79142bdfcbfebd9929e0faf45a6]
link Company to Receptionist--><path codeLine="48" d="M492.97,61.21 C501.21,123.36 521.77,278.54 528.96,332.86 " fill="none" id="Company-Receptionist" style="stroke:#A80036;stroke-width:1.0;"/><polygon fill="#000000" points="514.1567,164.1325,515.8822,154.7797,510.0553,155.5517,514.1567,164.1325" style="stroke:#000000;stroke-width:1.0;"/><text fill="#000000" font-family="sans-serif" font-size="13" lengthAdjust="spacing" textLength="37" x="522.5" y="164.4951">knows</text><text fill="#000000" font-family="sans-serif" font-size="13" lengthAdjust="spacing" textLength="7" x="485.9634" y="82.4637">1</text><text fill="#000000" font-family="sans-serif" font-size="13" lengthAdjust="spacing" textLength="5" x="522.4795" y="322.1406">*</text><!--MD5=[19ab43ca298c1d9fd9821023da273d0e]
link Appointment to SNSUser--><path codeLine="49" d="M230.4,179.42 C227.74,188.37 224.72,199.16 222.5,209 C217.74,230.1 216.5,235.47 214.5,257 C205.89,349.62 205.15,456.83 205.91,526.73 " fill="none" id="Appointment-SNSUser" style="stroke:#A80036;stroke-width:1.0;"/><polygon fill="#000000" points="219.1483,358.1634,222.7162,349.3474,216.8529,348.934,219.1483,358.1634" style="stroke:#000000;stroke-width:1.0;"/><text fill="#000000" font-family="sans-serif" font-size="13" lengthAdjust="spacing" textLength="21" x="228.5" y="358.4951">has</text><text fill="#000000" font-family="sans-serif" font-size="13" lengthAdjust="spacing" textLength="7" x="220.82" y="200.6002">1</text><text fill="#000000" font-family="sans-serif" font-size="13" lengthAdjust="spacing" textLength="7" x="198.4249" y="516.2724">1</text><!--MD5=[bfff716514ca687b645fe473c6e098a4]
reverse link Employee to Receptionist--><path codeLine="50" d="M654.11,195.05 C622.44,235.6 571.43,300.89 546.37,332.97 " fill="none" id="Employee-backto-Receptionist" style="stroke:#A80036;stroke-width:1.0;"/><polygon fill="none" points="648.74,190.56,666.57,179.11,659.77,199.18,648.74,190.56" style="stroke:#A80036;stroke-width:1.0;"/><!--MD5=[09366576ee87d48d594df10cacc83f45]
link Company to Employee--><path codeLine="51" d="M530.22,61.09 C566.65,84.43 619.21,118.09 651.81,138.98 " fill="none" id="Company-Employee" style="stroke:#A80036;stroke-width:1.0;"/><polygon fill="#000000" points="611.7102,102.8728,605.6791,95.5191,602.5086,100.4685,611.7102,102.8728" style="stroke:#000000;stroke-width:1.0;"/><text fill="#000000" font-family="sans-serif" font-size="13" lengthAdjust="spacing" textLength="37" x="616.5" y="105.4951">knows</text><!--MD5=[cd551358d485636a1c07a838298fc7fe]
@startuml  US02_DM
hide methods
skinparam classAttributeIconSize 0


class Appointment {}

class VaccineType {}

class SNSUser {
  - citizenCard
  - snsNumber
  - name
  - birthDay
  - gender
  - phoneNumber
  - email
  - address
}

class VaccinationCenter{
  -name
  -address
  -emailAddress
  -phoneNumber
  -faxNumber
  -websiteAddress
  -openingHours  
  -closingHours
  -slotDuration
  -maximumVaccinesPerSlot
  -coordinator
}

class Company{
  -designation
}

class Receptionist {}

class Employee {}

Company "1" - - "*" Appointment : knows >
Appointment "1"  - - "1" VaccineType : has >
Appointment "*" - - "1" VaccinationCenter : has >
Company "1" - - "*" VaccinationCenter : knows >
Appointment - - Receptionist : associated to >
Receptionist "1" - - "1" SNSUser : schedules for >
Company "1" - - "*" Receptionist : knows >
Appointment "1" - - "1" SNSUser : has >
Employee <|- - Receptionist
Company - - Employee : knows >


@enduml

PlantUML version 1.2022.0(Tue Jan 11 16:16:42 WET 2022)
(GPL source distribution)
Java Runtime: Java(TM) SE Runtime Environment
JVM: Java HotSpot(TM) 64-Bit Server VM
Default Encoding: Cp1252
Language: pt
Country: PT
--></g></svg>