<?xml version="1.0" encoding="UTF-8" standalone="no"?><svg xmlns="http://www.w3.org/2000/svg" xmlns:xlink="http://www.w3.org/1999/xlink" contentScriptType="application/ecmascript" contentStyleType="text/css" height="802px" preserveAspectRatio="none" style="width:672px;height:802px;background:#FFFFFF;" version="1.1" viewBox="0 0 672 802" width="672px" zoomAndPan="magnify"><defs><filter height="300%" id="f1tcrf835l0jki" width="300%" x="-1" y="-1"><feGaussianBlur result="blurOut" stdDeviation="2.0"/><feColorMatrix in="blurOut" result="blurOut2" type="matrix" values="0 0 0 0 0 0 0 0 0 0 0 0 0 0 0 0 0 0 .4 0"/><feOffset dx="4.0" dy="4.0" in="blurOut2" result="blurOut3"/><feBlend in="SourceGraphic" in2="blurOut3" mode="normal"/></filter></defs><g><!--MD5=[c508b5b6bbe276ff5e2700b6641f837f]
class Appointment--><rect codeLine="5" fill="#FEFECE" filter="url(#f1tcrf835l0jki)" height="40" id="Appointment" style="stroke:#A80036;stroke-width:1.5;" width="101" x="264" y="187.5"/><ellipse cx="279" cy="203.5" fill="#ADD1B2" rx="11" ry="11" style="stroke:#A80036;stroke-width:1.0;"/><path d="M281.7656,199.375 Q281.9219,199.1563 282.1094,199.0469 Q282.2969,198.9375 282.5156,198.9375 Q282.8906,198.9375 283.125,199.2031 Q283.3594,199.4531 283.3594,200.0625 L283.3594,201.5156 Q283.3594,202.125 283.125,202.3906 Q282.8906,202.6563 282.5156,202.6563 Q282.1719,202.6563 281.9688,202.4531 Q281.7656,202.2656 281.6563,201.75 Q281.6094,201.3906 281.4219,201.2031 Q281.0938,200.8281 280.4844,200.6094 Q279.875,200.3906 279.25,200.3906 Q278.4844,200.3906 277.8438,200.7188 Q277.2188,201.0469 276.7188,201.7969 Q276.2344,202.5469 276.2344,203.5781 L276.2344,204.6719 Q276.2344,205.9063 277.125,206.7344 Q278.0156,207.5469 279.6094,207.5469 Q280.5469,207.5469 281.2031,207.2969 Q281.5938,207.1406 282.0156,206.7031 Q282.2813,206.4375 282.4219,206.3594 Q282.5781,206.2813 282.7813,206.2813 Q283.1094,206.2813 283.3594,206.5469 Q283.625,206.7969 283.625,207.1406 Q283.625,207.4844 283.2813,207.8906 Q282.7813,208.4688 281.9844,208.7969 Q280.9063,209.25 279.6094,209.25 Q278.0938,209.25 276.8906,208.625 Q275.9063,208.125 275.2188,207.0625 Q274.5313,205.9844 274.5313,204.7031 L274.5313,203.5469 Q274.5313,202.2188 275.1406,201.0781 Q275.7656,199.9219 276.8594,199.3125 Q277.9531,198.6875 279.1875,198.6875 Q279.9219,198.6875 280.5625,198.8594 Q281.2188,199.0156 281.7656,199.375 Z " fill="#000000"/><text fill="#000000" font-family="sans-serif" font-size="12" lengthAdjust="spacing" textLength="69" x="293" y="208.4102">Appointment</text><line style="stroke:#A80036;stroke-width:1.5;" x1="265" x2="364" y1="219.5" y2="219.5"/><!--MD5=[0e501da62322464167c8ec4d233a6b7e]
class VaccineType--><rect codeLine="7" fill="#FEFECE" filter="url(#f1tcrf835l0jki)" height="81.5078" id="VaccineType" style="stroke:#A80036;stroke-width:1.5;" width="101" x="143" y="416"/><ellipse cx="158" cy="432" fill="#ADD1B2" rx="11" ry="11" style="stroke:#A80036;stroke-width:1.0;"/><path d="M160.7656,427.875 Q160.9219,427.6563 161.1094,427.5469 Q161.2969,427.4375 161.5156,427.4375 Q161.8906,427.4375 162.125,427.7031 Q162.3594,427.9531 162.3594,428.5625 L162.3594,430.0156 Q162.3594,430.625 162.125,430.8906 Q161.8906,431.1563 161.5156,431.1563 Q161.1719,431.1563 160.9688,430.9531 Q160.7656,430.7656 160.6563,430.25 Q160.6094,429.8906 160.4219,429.7031 Q160.0938,429.3281 159.4844,429.1094 Q158.875,428.8906 158.25,428.8906 Q157.4844,428.8906 156.8438,429.2188 Q156.2188,429.5469 155.7188,430.2969 Q155.2344,431.0469 155.2344,432.0781 L155.2344,433.1719 Q155.2344,434.4063 156.125,435.2344 Q157.0156,436.0469 158.6094,436.0469 Q159.5469,436.0469 160.2031,435.7969 Q160.5938,435.6406 161.0156,435.2031 Q161.2813,434.9375 161.4219,434.8594 Q161.5781,434.7813 161.7813,434.7813 Q162.1094,434.7813 162.3594,435.0469 Q162.625,435.2969 162.625,435.6406 Q162.625,435.9844 162.2813,436.3906 Q161.7813,436.9688 160.9844,437.2969 Q159.9063,437.75 158.6094,437.75 Q157.0938,437.75 155.8906,437.125 Q154.9063,436.625 154.2188,435.5625 Q153.5313,434.4844 153.5313,433.2031 L153.5313,432.0469 Q153.5313,430.7188 154.1406,429.5781 Q154.7656,428.4219 155.8594,427.8125 Q156.9531,427.1875 158.1875,427.1875 Q158.9219,427.1875 159.5625,427.3594 Q160.2188,427.5156 160.7656,427.875 Z " fill="#000000"/><text fill="#000000" font-family="sans-serif" font-size="12" lengthAdjust="spacing" textLength="69" x="172" y="436.9102">VaccineType</text><line style="stroke:#A80036;stroke-width:1.5;" x1="144" x2="243" y1="448" y2="448"/><text fill="#000000" font-family="sans-serif" font-size="11" lengthAdjust="spacing" textLength="28" x="149" y="463.4189">-code</text><text fill="#000000" font-family="sans-serif" font-size="11" lengthAdjust="spacing" textLength="57" x="149" y="477.2549">-description</text><text fill="#000000" font-family="sans-serif" font-size="11" lengthAdjust="spacing" textLength="57" x="149" y="491.0908">-technology</text><!--MD5=[72be06cc7ae02ccc98efe28a50e62246]
class SNSUser--><rect codeLine="13" fill="#FEFECE" filter="url(#f1tcrf835l0jki)" height="150.6875" id="SNSUser" style="stroke:#A80036;stroke-width:1.5;" width="84" x="143.5" y="638"/><ellipse cx="158.5" cy="654" fill="#ADD1B2" rx="11" ry="11" style="stroke:#A80036;stroke-width:1.0;"/><path d="M161.2656,649.875 Q161.4219,649.6563 161.6094,649.5469 Q161.7969,649.4375 162.0156,649.4375 Q162.3906,649.4375 162.625,649.7031 Q162.8594,649.9531 162.8594,650.5625 L162.8594,652.0156 Q162.8594,652.625 162.625,652.8906 Q162.3906,653.1563 162.0156,653.1563 Q161.6719,653.1563 161.4688,652.9531 Q161.2656,652.7656 161.1563,652.25 Q161.1094,651.8906 160.9219,651.7031 Q160.5938,651.3281 159.9844,651.1094 Q159.375,650.8906 158.75,650.8906 Q157.9844,650.8906 157.3438,651.2188 Q156.7188,651.5469 156.2188,652.2969 Q155.7344,653.0469 155.7344,654.0781 L155.7344,655.1719 Q155.7344,656.4063 156.625,657.2344 Q157.5156,658.0469 159.1094,658.0469 Q160.0469,658.0469 160.7031,657.7969 Q161.0938,657.6406 161.5156,657.2031 Q161.7813,656.9375 161.9219,656.8594 Q162.0781,656.7813 162.2813,656.7813 Q162.6094,656.7813 162.8594,657.0469 Q163.125,657.2969 163.125,657.6406 Q163.125,657.9844 162.7813,658.3906 Q162.2813,658.9688 161.4844,659.2969 Q160.4063,659.75 159.1094,659.75 Q157.5938,659.75 156.3906,659.125 Q155.4063,658.625 154.7188,657.5625 Q154.0313,656.4844 154.0313,655.2031 L154.0313,654.0469 Q154.0313,652.7188 154.6406,651.5781 Q155.2656,650.4219 156.3594,649.8125 Q157.4531,649.1875 158.6875,649.1875 Q159.4219,649.1875 160.0625,649.3594 Q160.7188,649.5156 161.2656,649.875 Z " fill="#000000"/><text fill="#000000" font-family="sans-serif" font-size="12" lengthAdjust="spacing" textLength="52" x="172.5" y="658.9102">SNSUser</text><line style="stroke:#A80036;stroke-width:1.5;" x1="144.5" x2="226.5" y1="670" y2="670"/><text fill="#000000" font-family="sans-serif" font-size="11" lengthAdjust="spacing" textLength="58" x="149.5" y="685.4189">-citizenCard</text><text fill="#000000" font-family="sans-serif" font-size="11" lengthAdjust="spacing" textLength="59" x="149.5" y="699.2549">-snsNumber</text><text fill="#000000" font-family="sans-serif" font-size="11" lengthAdjust="spacing" textLength="30" x="149.5" y="713.0908">-name</text><text fill="#000000" font-family="sans-serif" font-size="11" lengthAdjust="spacing" textLength="44" x="149.5" y="726.9268">-birthDay</text><text fill="#000000" font-family="sans-serif" font-size="11" lengthAdjust="spacing" textLength="38" x="149.5" y="740.7627">-gender</text><text fill="#000000" font-family="sans-serif" font-size="11" lengthAdjust="spacing" textLength="71" x="149.5" y="754.5986">-phoneNumber</text><text fill="#000000" font-family="sans-serif" font-size="11" lengthAdjust="spacing" textLength="28" x="149.5" y="768.4346">-email</text><text fill="#000000" font-family="sans-serif" font-size="11" lengthAdjust="spacing" textLength="44" x="149.5" y="782.2705">-address</text><!--MD5=[de60e6d4f424ae4d0522096f76a59010]
class VaccinationCenter--><rect codeLine="24" fill="#FEFECE" filter="url(#f1tcrf835l0jki)" height="206.0313" id="VaccinationCenter" style="stroke:#A80036;stroke-width:1.5;" width="140" x="518.5" y="354"/><ellipse cx="537.1" cy="370" fill="#ADD1B2" rx="11" ry="11" style="stroke:#A80036;stroke-width:1.0;"/><path d="M539.8656,365.875 Q540.0219,365.6563 540.2094,365.5469 Q540.3969,365.4375 540.6156,365.4375 Q540.9906,365.4375 541.225,365.7031 Q541.4594,365.9531 541.4594,366.5625 L541.4594,368.0156 Q541.4594,368.625 541.225,368.8906 Q540.9906,369.1563 540.6156,369.1563 Q540.2719,369.1563 540.0688,368.9531 Q539.8656,368.7656 539.7563,368.25 Q539.7094,367.8906 539.5219,367.7031 Q539.1938,367.3281 538.5844,367.1094 Q537.975,366.8906 537.35,366.8906 Q536.5844,366.8906 535.9438,367.2188 Q535.3188,367.5469 534.8188,368.2969 Q534.3344,369.0469 534.3344,370.0781 L534.3344,371.1719 Q534.3344,372.4063 535.225,373.2344 Q536.1156,374.0469 537.7094,374.0469 Q538.6469,374.0469 539.3031,373.7969 Q539.6938,373.6406 540.1156,373.2031 Q540.3813,372.9375 540.5219,372.8594 Q540.6781,372.7813 540.8813,372.7813 Q541.2094,372.7813 541.4594,373.0469 Q541.725,373.2969 541.725,373.6406 Q541.725,373.9844 541.3813,374.3906 Q540.8813,374.9688 540.0844,375.2969 Q539.0063,375.75 537.7094,375.75 Q536.1938,375.75 534.9906,375.125 Q534.0063,374.625 533.3188,373.5625 Q532.6313,372.4844 532.6313,371.2031 L532.6313,370.0469 Q532.6313,368.7188 533.2406,367.5781 Q533.8656,366.4219 534.9594,365.8125 Q536.0531,365.1875 537.2875,365.1875 Q538.0219,365.1875 538.6625,365.3594 Q539.3188,365.5156 539.8656,365.875 Z " fill="#000000"/><text fill="#000000" font-family="sans-serif" font-size="12" lengthAdjust="spacing" textLength="100" x="551.9" y="374.9102">VaccinationCenter</text><line style="stroke:#A80036;stroke-width:1.5;" x1="519.5" x2="657.5" y1="386" y2="386"/><text fill="#000000" font-family="sans-serif" font-size="11" lengthAdjust="spacing" textLength="30" x="524.5" y="401.4189">-name</text><text fill="#000000" font-family="sans-serif" font-size="11" lengthAdjust="spacing" textLength="44" x="524.5" y="415.2549">-address</text><text fill="#000000" font-family="sans-serif" font-size="11" lengthAdjust="spacing" textLength="70" x="524.5" y="429.0908">-emailAddress</text><text fill="#000000" font-family="sans-serif" font-size="11" lengthAdjust="spacing" textLength="71" x="524.5" y="442.9268">-phoneNumber</text><text fill="#000000" font-family="sans-serif" font-size="11" lengthAdjust="spacing" textLength="57" x="524.5" y="456.7627">-faxNumber</text><text fill="#000000" font-family="sans-serif" font-size="11" lengthAdjust="spacing" textLength="85" x="524.5" y="470.5986">-websiteAddress</text><text fill="#000000" font-family="sans-serif" font-size="11" lengthAdjust="spacing" textLength="71" x="524.5" y="484.4346">-openingHours</text><text fill="#000000" font-family="sans-serif" font-size="11" lengthAdjust="spacing" textLength="67" x="524.5" y="498.2705">-closingHours</text><text fill="#000000" font-family="sans-serif" font-size="11" lengthAdjust="spacing" textLength="61" x="524.5" y="512.1064">-slotDuration</text><text fill="#000000" font-family="sans-serif" font-size="11" lengthAdjust="spacing" textLength="128" x="524.5" y="525.9424">-maximumVaccinesPerSlot</text><text fill="#000000" font-family="sans-serif" font-size="11" lengthAdjust="spacing" textLength="59" x="524.5" y="539.7783">-coordinator</text><text fill="#000000" font-family="sans-serif" font-size="11" lengthAdjust="spacing" textLength="52" x="524.5" y="553.6143">-createdAt</text><!--MD5=[02e4b9b7573f1156f41e60aa5b4e25a4]
class Company--><rect codeLine="39" fill="#FEFECE" filter="url(#f1tcrf835l0jki)" height="53.8359" id="Company" style="stroke:#A80036;stroke-width:1.5;" width="85" x="272" y="7"/><ellipse cx="287" cy="23" fill="#ADD1B2" rx="11" ry="11" style="stroke:#A80036;stroke-width:1.0;"/><path d="M289.7656,18.875 Q289.9219,18.6563 290.1094,18.5469 Q290.2969,18.4375 290.5156,18.4375 Q290.8906,18.4375 291.125,18.7031 Q291.3594,18.9531 291.3594,19.5625 L291.3594,21.0156 Q291.3594,21.625 291.125,21.8906 Q290.8906,22.1563 290.5156,22.1563 Q290.1719,22.1563 289.9688,21.9531 Q289.7656,21.7656 289.6563,21.25 Q289.6094,20.8906 289.4219,20.7031 Q289.0938,20.3281 288.4844,20.1094 Q287.875,19.8906 287.25,19.8906 Q286.4844,19.8906 285.8438,20.2188 Q285.2188,20.5469 284.7188,21.2969 Q284.2344,22.0469 284.2344,23.0781 L284.2344,24.1719 Q284.2344,25.4063 285.125,26.2344 Q286.0156,27.0469 287.6094,27.0469 Q288.5469,27.0469 289.2031,26.7969 Q289.5938,26.6406 290.0156,26.2031 Q290.2813,25.9375 290.4219,25.8594 Q290.5781,25.7813 290.7813,25.7813 Q291.1094,25.7813 291.3594,26.0469 Q291.625,26.2969 291.625,26.6406 Q291.625,26.9844 291.2813,27.3906 Q290.7813,27.9688 289.9844,28.2969 Q288.9063,28.75 287.6094,28.75 Q286.0938,28.75 284.8906,28.125 Q283.9063,27.625 283.2188,26.5625 Q282.5313,25.4844 282.5313,24.2031 L282.5313,23.0469 Q282.5313,21.7188 283.1406,20.5781 Q283.7656,19.4219 284.8594,18.8125 Q285.9531,18.1875 287.1875,18.1875 Q287.9219,18.1875 288.5625,18.3594 Q289.2188,18.5156 289.7656,18.875 Z " fill="#000000"/><text fill="#000000" font-family="sans-serif" font-size="12" lengthAdjust="spacing" textLength="53" x="301" y="27.9102">Company</text><line style="stroke:#A80036;stroke-width:1.5;" x1="273" x2="356" y1="39" y2="39"/><text fill="#000000" font-family="sans-serif" font-size="11" lengthAdjust="spacing" textLength="59" x="278" y="54.4189">-designation</text><!--MD5=[03960189e81aa2c066c762ffabbee709]
class Receptionist--><rect codeLine="43" fill="#FEFECE" filter="url(#f1tcrf835l0jki)" height="40" id="Receptionist" style="stroke:#A80036;stroke-width:1.5;" width="101" x="7" y="437"/><ellipse cx="22" cy="453" fill="#ADD1B2" rx="11" ry="11" style="stroke:#A80036;stroke-width:1.0;"/><path d="M24.7656,448.875 Q24.9219,448.6563 25.1094,448.5469 Q25.2969,448.4375 25.5156,448.4375 Q25.8906,448.4375 26.125,448.7031 Q26.3594,448.9531 26.3594,449.5625 L26.3594,451.0156 Q26.3594,451.625 26.125,451.8906 Q25.8906,452.1563 25.5156,452.1563 Q25.1719,452.1563 24.9688,451.9531 Q24.7656,451.7656 24.6563,451.25 Q24.6094,450.8906 24.4219,450.7031 Q24.0938,450.3281 23.4844,450.1094 Q22.875,449.8906 22.25,449.8906 Q21.4844,449.8906 20.8438,450.2188 Q20.2188,450.5469 19.7188,451.2969 Q19.2344,452.0469 19.2344,453.0781 L19.2344,454.1719 Q19.2344,455.4063 20.125,456.2344 Q21.0156,457.0469 22.6094,457.0469 Q23.5469,457.0469 24.2031,456.7969 Q24.5938,456.6406 25.0156,456.2031 Q25.2813,455.9375 25.4219,455.8594 Q25.5781,455.7813 25.7813,455.7813 Q26.1094,455.7813 26.3594,456.0469 Q26.625,456.2969 26.625,456.6406 Q26.625,456.9844 26.2813,457.3906 Q25.7813,457.9688 24.9844,458.2969 Q23.9063,458.75 22.6094,458.75 Q21.0938,458.75 19.8906,458.125 Q18.9063,457.625 18.2188,456.5625 Q17.5313,455.4844 17.5313,454.2031 L17.5313,453.0469 Q17.5313,451.7188 18.1406,450.5781 Q18.7656,449.4219 19.8594,448.8125 Q20.9531,448.1875 22.1875,448.1875 Q22.9219,448.1875 23.5625,448.3594 Q24.2188,448.5156 24.7656,448.875 Z " fill="#000000"/><text fill="#000000" font-family="sans-serif" font-size="12" lengthAdjust="spacing" textLength="69" x="36" y="457.9102">Receptionist</text><line style="stroke:#A80036;stroke-width:1.5;" x1="8" x2="107" y1="469" y2="469"/><!--MD5=[7421f545a0d8420c5bec41e74b387d9c]
class Employee--><rect codeLine="45" fill="#FEFECE" filter="url(#f1tcrf835l0jki)" height="136.8516" id="Employee" style="stroke:#A80036;stroke-width:1.5;" width="107" x="48" y="139"/><ellipse cx="72" cy="155" fill="#ADD1B2" rx="11" ry="11" style="stroke:#A80036;stroke-width:1.0;"/><path d="M74.7656,150.875 Q74.9219,150.6563 75.1094,150.5469 Q75.2969,150.4375 75.5156,150.4375 Q75.8906,150.4375 76.125,150.7031 Q76.3594,150.9531 76.3594,151.5625 L76.3594,153.0156 Q76.3594,153.625 76.125,153.8906 Q75.8906,154.1563 75.5156,154.1563 Q75.1719,154.1563 74.9688,153.9531 Q74.7656,153.7656 74.6563,153.25 Q74.6094,152.8906 74.4219,152.7031 Q74.0938,152.3281 73.4844,152.1094 Q72.875,151.8906 72.25,151.8906 Q71.4844,151.8906 70.8438,152.2188 Q70.2188,152.5469 69.7188,153.2969 Q69.2344,154.0469 69.2344,155.0781 L69.2344,156.1719 Q69.2344,157.4063 70.125,158.2344 Q71.0156,159.0469 72.6094,159.0469 Q73.5469,159.0469 74.2031,158.7969 Q74.5938,158.6406 75.0156,158.2031 Q75.2813,157.9375 75.4219,157.8594 Q75.5781,157.7813 75.7813,157.7813 Q76.1094,157.7813 76.3594,158.0469 Q76.625,158.2969 76.625,158.6406 Q76.625,158.9844 76.2813,159.3906 Q75.7813,159.9688 74.9844,160.2969 Q73.9063,160.75 72.6094,160.75 Q71.0938,160.75 69.8906,160.125 Q68.9063,159.625 68.2188,158.5625 Q67.5313,157.4844 67.5313,156.2031 L67.5313,155.0469 Q67.5313,153.7188 68.1406,152.5781 Q68.7656,151.4219 69.8594,150.8125 Q70.9531,150.1875 72.1875,150.1875 Q72.9219,150.1875 73.5625,150.3594 Q74.2188,150.5156 74.7656,150.875 Z " fill="#000000"/><text fill="#000000" font-family="sans-serif" font-size="12" lengthAdjust="spacing" textLength="55" x="88" y="159.9102">Employee</text><line style="stroke:#A80036;stroke-width:1.5;" x1="49" x2="154" y1="171" y2="171"/><text fill="#000000" font-family="sans-serif" font-size="11" lengthAdjust="spacing" textLength="12" x="54" y="186.4189">-id</text><text fill="#000000" font-family="sans-serif" font-size="11" lengthAdjust="spacing" textLength="30" x="54" y="200.2549">-name</text><text fill="#000000" font-family="sans-serif" font-size="11" lengthAdjust="spacing" textLength="28" x="54" y="214.0908">-email</text><text fill="#000000" font-family="sans-serif" font-size="11" lengthAdjust="spacing" textLength="34" x="54" y="227.9268">-phone</text><text fill="#000000" font-family="sans-serif" font-size="11" lengthAdjust="spacing" textLength="44" x="54" y="241.7627">-address</text><text fill="#000000" font-family="sans-serif" font-size="11" lengthAdjust="spacing" textLength="95" x="54" y="255.5986">-citizenCardNumber</text><text fill="#000000" font-family="sans-serif" font-size="11" lengthAdjust="spacing" textLength="30" x="54" y="269.4346">-roleId</text><!--MD5=[a88c56e1dc44d9d0e1fcd2eec4fd7e58]
class SMSSender--><rect codeLine="55" fill="#FEFECE" filter="url(#f1tcrf835l0jki)" height="40" id="SMSSender" style="stroke:#A80036;stroke-width:1.5;" width="97" x="386" y="437"/><ellipse cx="401" cy="453" fill="#ADD1B2" rx="11" ry="11" style="stroke:#A80036;stroke-width:1.0;"/><path d="M403.7656,448.875 Q403.9219,448.6563 404.1094,448.5469 Q404.2969,448.4375 404.5156,448.4375 Q404.8906,448.4375 405.125,448.7031 Q405.3594,448.9531 405.3594,449.5625 L405.3594,451.0156 Q405.3594,451.625 405.125,451.8906 Q404.8906,452.1563 404.5156,452.1563 Q404.1719,452.1563 403.9688,451.9531 Q403.7656,451.7656 403.6563,451.25 Q403.6094,450.8906 403.4219,450.7031 Q403.0938,450.3281 402.4844,450.1094 Q401.875,449.8906 401.25,449.8906 Q400.4844,449.8906 399.8438,450.2188 Q399.2188,450.5469 398.7188,451.2969 Q398.2344,452.0469 398.2344,453.0781 L398.2344,454.1719 Q398.2344,455.4063 399.125,456.2344 Q400.0156,457.0469 401.6094,457.0469 Q402.5469,457.0469 403.2031,456.7969 Q403.5938,456.6406 404.0156,456.2031 Q404.2813,455.9375 404.4219,455.8594 Q404.5781,455.7813 404.7813,455.7813 Q405.1094,455.7813 405.3594,456.0469 Q405.625,456.2969 405.625,456.6406 Q405.625,456.9844 405.2813,457.3906 Q404.7813,457.9688 403.9844,458.2969 Q402.9063,458.75 401.6094,458.75 Q400.0938,458.75 398.8906,458.125 Q397.9063,457.625 397.2188,456.5625 Q396.5313,455.4844 396.5313,454.2031 L396.5313,453.0469 Q396.5313,451.7188 397.1406,450.5781 Q397.7656,449.4219 398.8594,448.8125 Q399.9531,448.1875 401.1875,448.1875 Q401.9219,448.1875 402.5625,448.3594 Q403.2188,448.5156 403.7656,448.875 Z " fill="#000000"/><text fill="#000000" font-family="sans-serif" font-size="12" lengthAdjust="spacing" textLength="65" x="415" y="457.9102">SMSSender</text><line style="stroke:#A80036;stroke-width:1.5;" x1="387" x2="482" y1="469" y2="469"/><!--MD5=[394476be1d9cc203bf0bce63db5cbcd1]
link Company to Appointment--><path codeLine="57" d="M314.5,61.05 C314.5,95.72 314.5,156.24 314.5,187.14 " fill="none" id="Company-Appointment" style="stroke:#A80036;stroke-width:1.0;"/><polygon fill="#000000" points="319.5,105.1758,322.4389,96.1307,316.5611,96.1307,319.5,105.1758" style="stroke:#000000;stroke-width:1.0;"/><text fill="#000000" font-family="sans-serif" font-size="13" lengthAdjust="spacing" textLength="37" x="328.5" y="105.4951">knows</text><text fill="#000000" font-family="sans-serif" font-size="13" lengthAdjust="spacing" textLength="7" x="306.7344" y="82.2687">1</text><text fill="#000000" font-family="sans-serif" font-size="13" lengthAdjust="spacing" textLength="5" x="308.7969" y="176.7083">*</text><!--MD5=[d63168792e55d79de1fe85cd885704ff]
link Appointment to VaccineType--><path codeLine="58" d="M300.77,227.64 C287.38,246.85 266.96,277.57 252.5,306 C234.17,342.04 217.73,385.19 206.89,415.93 " fill="none" id="Appointment-VaccineType" style="stroke:#A80036;stroke-width:1.0;"/><polygon fill="#000000" points="255.269,319.6504,261.9351,312.8671,256.6748,310.2443,255.269,319.6504" style="stroke:#000000;stroke-width:1.0;"/><text fill="#000000" font-family="sans-serif" font-size="13" lengthAdjust="spacing" textLength="21" x="266.5" y="320.4951">has</text><text fill="#000000" font-family="sans-serif" font-size="13" lengthAdjust="spacing" textLength="7" x="288.9241" y="249.0989">1</text><text fill="#000000" font-family="sans-serif" font-size="13" lengthAdjust="spacing" textLength="7" x="201.5898" y="405.0637">1</text><!--MD5=[d139302f00cc62b984b6371d0fde1842]
link Appointment to VaccinationCenter--><path codeLine="59" d="M342.34,227.66 C379.94,254.11 448.27,304.22 500.5,354 C506.51,359.73 512.55,365.83 518.48,372.09 " fill="none" id="Appointment-VaccinationCenter" style="stroke:#A80036;stroke-width:1.0;"/><polygon fill="#000000" points="476.3664,318.3461,471.2355,310.3383,467.5085,314.8835,476.3664,318.3461" style="stroke:#000000;stroke-width:1.0;"/><text fill="#000000" font-family="sans-serif" font-size="13" lengthAdjust="spacing" textLength="52" x="481.5" y="320.4951">is held in</text><text fill="#000000" font-family="sans-serif" font-size="13" lengthAdjust="spacing" textLength="5" x="344.4669" y="249.1246">*</text><text fill="#000000" font-family="sans-serif" font-size="13" lengthAdjust="spacing" textLength="7" x="503.4388" y="359.4406">1</text><!--MD5=[eebe9b198877275d05dd12630ed9e401]
link Company to VaccinationCenter--><path codeLine="60" d="M343.68,61.23 C392.2,106.44 489.36,204.04 542.5,306 C550.3,320.98 557.03,337.5 562.73,353.93 " fill="none" id="Company-VaccinationCenter" style="stroke:#A80036;stroke-width:1.0;"/><polygon fill="#000000" points="531.4958,211.6789,528.4293,202.6763,523.7233,206.1981,531.4958,211.6789" style="stroke:#000000;stroke-width:1.0;"/><text fill="#000000" font-family="sans-serif" font-size="13" lengthAdjust="spacing" textLength="37" x="537.5" y="212.9951">knows</text><text fill="#000000" font-family="sans-serif" font-size="13" lengthAdjust="spacing" textLength="7" x="342.2975" y="82.4881">1</text><text fill="#000000" font-family="sans-serif" font-size="13" lengthAdjust="spacing" textLength="5" x="555.6539" y="343.2802">*</text><!--MD5=[e30c801b3ac7b558e113223f2c8633df]
link Appointment to Receptionist--><path codeLine="61" d="M267.52,227.57 C230.97,244.16 180.72,271.04 145.5,306 C105.86,345.35 77.56,406.16 64.9,436.87 " fill="none" id="Appointment-Receptionist" style="stroke:#A80036;stroke-width:1.0;"/><polygon fill="#000000" points="147.0223,318.7682,155.4251,314.3136,151.202,310.2253,147.0223,318.7682" style="stroke:#000000;stroke-width:1.0;"/><text fill="#000000" font-family="sans-serif" font-size="13" lengthAdjust="spacing" textLength="77" x="159.5" y="320.4951">scheduled by</text><text fill="#000000" font-family="sans-serif" font-size="13" lengthAdjust="spacing" textLength="5" x="251.0778" y="247.597">*</text><text fill="#000000" font-family="sans-serif" font-size="13" lengthAdjust="spacing" textLength="7" x="59.0456" y="426.1536">1</text><!--MD5=[7690a4971bd8576b261a40a0340b8203]
link Receptionist to SNSUser--><path codeLine="62" d="M67.12,477.13 C84.07,510.83 120.09,582.45 147.97,637.89 " fill="none" id="Receptionist-SNSUser" style="stroke:#A80036;stroke-width:1.0;"/><polygon fill="#000000" points="136.7465,603.6427,135.3081,594.2415,130.057,596.8824,136.7465,603.6427" style="stroke:#000000;stroke-width:1.0;"/><text fill="#000000" font-family="sans-serif" font-size="13" lengthAdjust="spacing" textLength="77" x="143.5" y="604.4951">schedules for</text><text fill="#000000" font-family="sans-serif" font-size="13" lengthAdjust="spacing" textLength="7" x="61.8412" y="498.5861">1</text><text fill="#000000" font-family="sans-serif" font-size="13" lengthAdjust="spacing" textLength="7" x="136.9311" y="627.1874">1</text><!--MD5=[19ab43ca298c1d9fd9821023da273d0e]
link Appointment to SNSUser--><path codeLine="63" d="M313.71,227.64 C311.04,281.31 300.26,437.3 261.5,560 C252.99,586.94 240.25,615 227.63,639.6 " fill="none" id="Appointment-SNSUser" style="stroke:#A80036;stroke-width:1.0;"/><polygon fill="#000000" points="307.4773,462.0701,312.2042,453.8173,306.4506,452.6151,307.4773,462.0701" style="stroke:#000000;stroke-width:1.0;"/><text fill="#000000" font-family="sans-serif" font-size="13" lengthAdjust="spacing" textLength="21" x="317.5" y="462.4951">has</text><text fill="#000000" font-family="sans-serif" font-size="13" lengthAdjust="spacing" textLength="7" x="305.5034" y="249.0989">1</text><text fill="#000000" font-family="sans-serif" font-size="13" lengthAdjust="spacing" textLength="7" x="233.1912" y="627.154">1</text><!--MD5=[1da12df22706e73e1def33b218b7f412]
link Employee to Receptionist--><path codeLine="64" d="M47.93,262.53 C37.92,275.74 28.92,290.56 23.5,306 C7.5,351.61 31.12,407.71 46.34,436.66 " fill="none" id="Employee-Receptionist" style="stroke:#A80036;stroke-width:1.0;"/><polygon fill="#000000" points="28.4543,320.1756,31.4757,311.1577,25.5981,311.104,28.4543,320.1756" style="stroke:#000000;stroke-width:1.0;"/><text fill="#000000" font-family="sans-serif" font-size="13" lengthAdjust="spacing" textLength="42" x="37.5" y="320.4951">play as</text><text fill="#000000" font-family="sans-serif" font-size="13" lengthAdjust="spacing" textLength="7" x="32.9045" y="266.6739">1</text><text fill="#000000" font-family="sans-serif" font-size="13" lengthAdjust="spacing" textLength="22" x="18.1075" y="426.2339">0..1</text><!--MD5=[09366576ee87d48d594df10cacc83f45]
link Company to Employee--><path codeLine="65" d="M282.15,61.05 C248.52,88.13 195.3,130.98 155.32,163.17 " fill="none" id="Company-Employee" style="stroke:#A80036;stroke-width:1.0;"/><polygon fill="#000000" points="241.6055,103.3115,250.4939,99.928,246.8076,95.3498,241.6055,103.3115" style="stroke:#000000;stroke-width:1.0;"/><text fill="#000000" font-family="sans-serif" font-size="13" lengthAdjust="spacing" textLength="37" x="254.5" y="105.4951">knows</text><!--MD5=[8f7d5f20baa4a3ca4f3a05061f7ec7bc]
link Appointment to SMSSender--><path codeLine="66" d="M323.72,227.51 C346.05,273.58 402.88,390.79 425.25,436.93 " fill="none" id="Appointment-SMSSender" style="stroke:#A80036;stroke-width:1.0;"/><polygon fill="#000000" points="374.6812,319.6749,373.3799,310.2538,368.0908,312.818,374.6812,319.6749" style="stroke:#000000;stroke-width:1.0;"/><text fill="#000000" font-family="sans-serif" font-size="13" lengthAdjust="spacing" textLength="43" x="381.5" y="320.4951">triggers</text><text fill="#000000" font-family="sans-serif" font-size="13" lengthAdjust="spacing" textLength="7" x="318.3288" y="248.9324">1</text><text fill="#000000" font-family="sans-serif" font-size="13" lengthAdjust="spacing" textLength="22" x="397.3016" y="426.2312">0..1</text><!--MD5=[2e3c5e4e98570512ff7db7ef802c20cc]
@startuml  US02_DM
hide methods
skinparam classAttributeIconSize 0


class Appointment {}

class VaccineType {
  -code 
  -description
  -technology
}

class SNSUser {
  - citizenCard
  - snsNumber
  - name
  - birthDay
  - gender
  - phoneNumber
  - email
  - address
}

class VaccinationCenter{
  -name
  -address
  -emailAddress
  -phoneNumber
  -faxNumber
  -websiteAddress
  -openingHours  
  -closingHours
  -slotDuration
  -maximumVaccinesPerSlot
  -coordinator
  -createdAt
}

class Company{
  -designation
}

class Receptionist {}

class Employee {
  -id
  -name
  -email
  -phone
  -address
  -citizenCardNumber
  -roleId
}

class SMSSender {}

Company "1" - - "*" Appointment : knows >
Appointment "1"  - - "1" VaccineType : has >
Appointment "*" - - "1" VaccinationCenter : is held in >
Company "1" - - "*" VaccinationCenter : knows >
Appointment "*" - - "1" Receptionist : scheduled by >
Receptionist "1" - - "1" SNSUser : schedules for >
Appointment "1" - - "1" SNSUser : has >
Employee "1" - - "0..1" Receptionist : play as >
Company - - Employee : knows >
Appointment "1" - - "0..1" SMSSender : triggers >


@enduml

PlantUML version 1.2022.0(Tue Jan 11 16:16:42 WET 2022)
(GPL source distribution)
Java Runtime: Java(TM) SE Runtime Environment
JVM: Java HotSpot(TM) 64-Bit Server VM
Default Encoding: Cp1252
Language: pt
Country: PT
--></g></svg>