<?xml version="1.0" encoding="UTF-8" standalone="no"?><svg xmlns="http://www.w3.org/2000/svg" xmlns:xlink="http://www.w3.org/1999/xlink" contentScriptType="application/ecmascript" contentStyleType="text/css" height="824px" preserveAspectRatio="none" style="width:1298px;height:824px;background:#FFFFFF;" version="1.1" viewBox="0 0 1298 824" width="1298px" zoomAndPan="magnify"><defs><filter height="300%" id="fc4mtlf5z6k6q" width="300%" x="-1" y="-1"><feGaussianBlur result="blurOut" stdDeviation="2.0"/><feColorMatrix in="blurOut" result="blurOut2" type="matrix" values="0 0 0 0 0 0 0 0 0 0 0 0 0 0 0 0 0 0 .4 0"/><feOffset dx="4.0" dy="4.0" in="blurOut2" result="blurOut3"/><feBlend in="SourceGraphic" in2="blurOut3" mode="normal"/></filter></defs><g><!--MD5=[c508b5b6bbe276ff5e2700b6641f837f]
class Appointment--><rect codeLine="5" fill="#FEFECE" filter="url(#fc4mtlf5z6k6q)" height="40" id="Appointment" style="stroke:#A80036;stroke-width:1.5;" width="101" x="433" y="187.5"/><ellipse cx="448" cy="203.5" fill="#ADD1B2" rx="11" ry="11" style="stroke:#A80036;stroke-width:1.0;"/><path d="M450.7656,199.375 Q450.9219,199.1563 451.1094,199.0469 Q451.2969,198.9375 451.5156,198.9375 Q451.8906,198.9375 452.125,199.2031 Q452.3594,199.4531 452.3594,200.0625 L452.3594,201.5156 Q452.3594,202.125 452.125,202.3906 Q451.8906,202.6563 451.5156,202.6563 Q451.1719,202.6563 450.9688,202.4531 Q450.7656,202.2656 450.6563,201.75 Q450.6094,201.3906 450.4219,201.2031 Q450.0938,200.8281 449.4844,200.6094 Q448.875,200.3906 448.25,200.3906 Q447.4844,200.3906 446.8438,200.7188 Q446.2188,201.0469 445.7188,201.7969 Q445.2344,202.5469 445.2344,203.5781 L445.2344,204.6719 Q445.2344,205.9063 446.125,206.7344 Q447.0156,207.5469 448.6094,207.5469 Q449.5469,207.5469 450.2031,207.2969 Q450.5938,207.1406 451.0156,206.7031 Q451.2813,206.4375 451.4219,206.3594 Q451.5781,206.2813 451.7813,206.2813 Q452.1094,206.2813 452.3594,206.5469 Q452.625,206.7969 452.625,207.1406 Q452.625,207.4844 452.2813,207.8906 Q451.7813,208.4688 450.9844,208.7969 Q449.9063,209.25 448.6094,209.25 Q447.0938,209.25 445.8906,208.625 Q444.9063,208.125 444.2188,207.0625 Q443.5313,205.9844 443.5313,204.7031 L443.5313,203.5469 Q443.5313,202.2188 444.1406,201.0781 Q444.7656,199.9219 445.8594,199.3125 Q446.9531,198.6875 448.1875,198.6875 Q448.9219,198.6875 449.5625,198.8594 Q450.2188,199.0156 450.7656,199.375 Z " fill="#000000"/><text fill="#000000" font-family="sans-serif" font-size="12" lengthAdjust="spacing" textLength="69" x="462" y="208.4102">Appointment</text><line style="stroke:#A80036;stroke-width:1.5;" x1="434" x2="533" y1="219.5" y2="219.5"/><!--MD5=[0e501da62322464167c8ec4d233a6b7e]
class VaccineType--><rect codeLine="7" fill="#FEFECE" filter="url(#fc4mtlf5z6k6q)" height="81.5078" id="VaccineType" style="stroke:#A80036;stroke-width:1.5;" width="101" x="433" y="354"/><ellipse cx="448" cy="370" fill="#ADD1B2" rx="11" ry="11" style="stroke:#A80036;stroke-width:1.0;"/><path d="M450.7656,365.875 Q450.9219,365.6563 451.1094,365.5469 Q451.2969,365.4375 451.5156,365.4375 Q451.8906,365.4375 452.125,365.7031 Q452.3594,365.9531 452.3594,366.5625 L452.3594,368.0156 Q452.3594,368.625 452.125,368.8906 Q451.8906,369.1563 451.5156,369.1563 Q451.1719,369.1563 450.9688,368.9531 Q450.7656,368.7656 450.6563,368.25 Q450.6094,367.8906 450.4219,367.7031 Q450.0938,367.3281 449.4844,367.1094 Q448.875,366.8906 448.25,366.8906 Q447.4844,366.8906 446.8438,367.2188 Q446.2188,367.5469 445.7188,368.2969 Q445.2344,369.0469 445.2344,370.0781 L445.2344,371.1719 Q445.2344,372.4063 446.125,373.2344 Q447.0156,374.0469 448.6094,374.0469 Q449.5469,374.0469 450.2031,373.7969 Q450.5938,373.6406 451.0156,373.2031 Q451.2813,372.9375 451.4219,372.8594 Q451.5781,372.7813 451.7813,372.7813 Q452.1094,372.7813 452.3594,373.0469 Q452.625,373.2969 452.625,373.6406 Q452.625,373.9844 452.2813,374.3906 Q451.7813,374.9688 450.9844,375.2969 Q449.9063,375.75 448.6094,375.75 Q447.0938,375.75 445.8906,375.125 Q444.9063,374.625 444.2188,373.5625 Q443.5313,372.4844 443.5313,371.2031 L443.5313,370.0469 Q443.5313,368.7188 444.1406,367.5781 Q444.7656,366.4219 445.8594,365.8125 Q446.9531,365.1875 448.1875,365.1875 Q448.9219,365.1875 449.5625,365.3594 Q450.2188,365.5156 450.7656,365.875 Z " fill="#000000"/><text fill="#000000" font-family="sans-serif" font-size="12" lengthAdjust="spacing" textLength="69" x="462" y="374.9102">VaccineType</text><line style="stroke:#A80036;stroke-width:1.5;" x1="434" x2="533" y1="386" y2="386"/><text fill="#000000" font-family="sans-serif" font-size="11" lengthAdjust="spacing" textLength="28" x="439" y="401.4189">-code</text><text fill="#000000" font-family="sans-serif" font-size="11" lengthAdjust="spacing" textLength="57" x="439" y="415.2549">-description</text><text fill="#000000" font-family="sans-serif" font-size="11" lengthAdjust="spacing" textLength="57" x="439" y="429.0908">-technology</text><!--MD5=[72be06cc7ae02ccc98efe28a50e62246]
class SNSUser--><rect codeLine="13" fill="#FEFECE" filter="url(#fc4mtlf5z6k6q)" height="150.6875" id="SNSUser" style="stroke:#A80036;stroke-width:1.5;" width="84" x="469.5" y="514"/><ellipse cx="484.5" cy="530" fill="#ADD1B2" rx="11" ry="11" style="stroke:#A80036;stroke-width:1.0;"/><path d="M487.2656,525.875 Q487.4219,525.6563 487.6094,525.5469 Q487.7969,525.4375 488.0156,525.4375 Q488.3906,525.4375 488.625,525.7031 Q488.8594,525.9531 488.8594,526.5625 L488.8594,528.0156 Q488.8594,528.625 488.625,528.8906 Q488.3906,529.1563 488.0156,529.1563 Q487.6719,529.1563 487.4688,528.9531 Q487.2656,528.7656 487.1563,528.25 Q487.1094,527.8906 486.9219,527.7031 Q486.5938,527.3281 485.9844,527.1094 Q485.375,526.8906 484.75,526.8906 Q483.9844,526.8906 483.3438,527.2188 Q482.7188,527.5469 482.2188,528.2969 Q481.7344,529.0469 481.7344,530.0781 L481.7344,531.1719 Q481.7344,532.4063 482.625,533.2344 Q483.5156,534.0469 485.1094,534.0469 Q486.0469,534.0469 486.7031,533.7969 Q487.0938,533.6406 487.5156,533.2031 Q487.7813,532.9375 487.9219,532.8594 Q488.0781,532.7813 488.2813,532.7813 Q488.6094,532.7813 488.8594,533.0469 Q489.125,533.2969 489.125,533.6406 Q489.125,533.9844 488.7813,534.3906 Q488.2813,534.9688 487.4844,535.2969 Q486.4063,535.75 485.1094,535.75 Q483.5938,535.75 482.3906,535.125 Q481.4063,534.625 480.7188,533.5625 Q480.0313,532.4844 480.0313,531.2031 L480.0313,530.0469 Q480.0313,528.7188 480.6406,527.5781 Q481.2656,526.4219 482.3594,525.8125 Q483.4531,525.1875 484.6875,525.1875 Q485.4219,525.1875 486.0625,525.3594 Q486.7188,525.5156 487.2656,525.875 Z " fill="#000000"/><text fill="#000000" font-family="sans-serif" font-size="12" lengthAdjust="spacing" textLength="52" x="498.5" y="534.9102">SNSUser</text><line style="stroke:#A80036;stroke-width:1.5;" x1="470.5" x2="552.5" y1="546" y2="546"/><text fill="#000000" font-family="sans-serif" font-size="11" lengthAdjust="spacing" textLength="58" x="475.5" y="561.4189">-citizenCard</text><text fill="#000000" font-family="sans-serif" font-size="11" lengthAdjust="spacing" textLength="59" x="475.5" y="575.2549">-snsNumber</text><text fill="#000000" font-family="sans-serif" font-size="11" lengthAdjust="spacing" textLength="30" x="475.5" y="589.0908">-name</text><text fill="#000000" font-family="sans-serif" font-size="11" lengthAdjust="spacing" textLength="44" x="475.5" y="602.9268">-birthDay</text><text fill="#000000" font-family="sans-serif" font-size="11" lengthAdjust="spacing" textLength="38" x="475.5" y="616.7627">-gender</text><text fill="#000000" font-family="sans-serif" font-size="11" lengthAdjust="spacing" textLength="71" x="475.5" y="630.5986">-phoneNumber</text><text fill="#000000" font-family="sans-serif" font-size="11" lengthAdjust="spacing" textLength="28" x="475.5" y="644.4346">-email</text><text fill="#000000" font-family="sans-serif" font-size="11" lengthAdjust="spacing" textLength="44" x="475.5" y="658.2705">-address</text><!--MD5=[de60e6d4f424ae4d0522096f76a59010]
class VaccinationCenter--><rect codeLine="24" fill="#FEFECE" filter="url(#fc4mtlf5z6k6q)" height="123.0156" id="VaccinationCenter" style="stroke:#A80036;stroke-width:1.5;" width="132" x="843.5" y="528"/><ellipse cx="858.5" cy="544" fill="#ADD1B2" rx="11" ry="11" style="stroke:#A80036;stroke-width:1.0;"/><path d="M861.2656,539.875 Q861.4219,539.6563 861.6094,539.5469 Q861.7969,539.4375 862.0156,539.4375 Q862.3906,539.4375 862.625,539.7031 Q862.8594,539.9531 862.8594,540.5625 L862.8594,542.0156 Q862.8594,542.625 862.625,542.8906 Q862.3906,543.1563 862.0156,543.1563 Q861.6719,543.1563 861.4688,542.9531 Q861.2656,542.7656 861.1563,542.25 Q861.1094,541.8906 860.9219,541.7031 Q860.5938,541.3281 859.9844,541.1094 Q859.375,540.8906 858.75,540.8906 Q857.9844,540.8906 857.3438,541.2188 Q856.7188,541.5469 856.2188,542.2969 Q855.7344,543.0469 855.7344,544.0781 L855.7344,545.1719 Q855.7344,546.4063 856.625,547.2344 Q857.5156,548.0469 859.1094,548.0469 Q860.0469,548.0469 860.7031,547.7969 Q861.0938,547.6406 861.5156,547.2031 Q861.7813,546.9375 861.9219,546.8594 Q862.0781,546.7813 862.2813,546.7813 Q862.6094,546.7813 862.8594,547.0469 Q863.125,547.2969 863.125,547.6406 Q863.125,547.9844 862.7813,548.3906 Q862.2813,548.9688 861.4844,549.2969 Q860.4063,549.75 859.1094,549.75 Q857.5938,549.75 856.3906,549.125 Q855.4063,548.625 854.7188,547.5625 Q854.0313,546.4844 854.0313,545.2031 L854.0313,544.0469 Q854.0313,542.7188 854.6406,541.5781 Q855.2656,540.4219 856.3594,539.8125 Q857.4531,539.1875 858.6875,539.1875 Q859.4219,539.1875 860.0625,539.3594 Q860.7188,539.5156 861.2656,539.875 Z " fill="#000000"/><text fill="#000000" font-family="sans-serif" font-size="12" lengthAdjust="spacing" textLength="100" x="872.5" y="548.9102">VaccinationCenter</text><line style="stroke:#A80036;stroke-width:1.5;" x1="844.5" x2="974.5" y1="560" y2="560"/><text fill="#000000" font-family="sans-serif" font-size="11" lengthAdjust="spacing" textLength="30" x="849.5" y="575.4189">-name</text><text fill="#000000" font-family="sans-serif" font-size="11" lengthAdjust="spacing" textLength="44" x="849.5" y="589.2549">-address</text><text fill="#000000" font-family="sans-serif" font-size="11" lengthAdjust="spacing" textLength="70" x="849.5" y="603.0908">-emailAddress</text><text fill="#000000" font-family="sans-serif" font-size="11" lengthAdjust="spacing" textLength="71" x="849.5" y="616.9268">-phoneNumber</text><text fill="#000000" font-family="sans-serif" font-size="11" lengthAdjust="spacing" textLength="57" x="849.5" y="630.7627">-faxNumber</text><text fill="#000000" font-family="sans-serif" font-size="11" lengthAdjust="spacing" textLength="85" x="849.5" y="644.5986">-websiteAddress</text><!--MD5=[2e42295458bb0bec21c9622a623eb29e]
class Time--><rect codeLine="33" fill="#FEFECE" filter="url(#fc4mtlf5z6k6q)" height="40" id="Time" style="stroke:#A80036;stroke-width:1.5;" width="60" x="675.5" y="757"/><ellipse cx="690.5" cy="773" fill="#ADD1B2" rx="11" ry="11" style="stroke:#A80036;stroke-width:1.0;"/><path d="M693.2656,768.875 Q693.4219,768.6563 693.6094,768.5469 Q693.7969,768.4375 694.0156,768.4375 Q694.3906,768.4375 694.625,768.7031 Q694.8594,768.9531 694.8594,769.5625 L694.8594,771.0156 Q694.8594,771.625 694.625,771.8906 Q694.3906,772.1563 694.0156,772.1563 Q693.6719,772.1563 693.4688,771.9531 Q693.2656,771.7656 693.1563,771.25 Q693.1094,770.8906 692.9219,770.7031 Q692.5938,770.3281 691.9844,770.1094 Q691.375,769.8906 690.75,769.8906 Q689.9844,769.8906 689.3438,770.2188 Q688.7188,770.5469 688.2188,771.2969 Q687.7344,772.0469 687.7344,773.0781 L687.7344,774.1719 Q687.7344,775.4063 688.625,776.2344 Q689.5156,777.0469 691.1094,777.0469 Q692.0469,777.0469 692.7031,776.7969 Q693.0938,776.6406 693.5156,776.2031 Q693.7813,775.9375 693.9219,775.8594 Q694.0781,775.7813 694.2813,775.7813 Q694.6094,775.7813 694.8594,776.0469 Q695.125,776.2969 695.125,776.6406 Q695.125,776.9844 694.7813,777.3906 Q694.2813,777.9688 693.4844,778.2969 Q692.4063,778.75 691.1094,778.75 Q689.5938,778.75 688.3906,778.125 Q687.4063,777.625 686.7188,776.5625 Q686.0313,775.4844 686.0313,774.2031 L686.0313,773.0469 Q686.0313,771.7188 686.6406,770.5781 Q687.2656,769.4219 688.3594,768.8125 Q689.4531,768.1875 690.6875,768.1875 Q691.4219,768.1875 692.0625,768.3594 Q692.7188,768.5156 693.2656,768.875 Z " fill="#000000"/><text fill="#000000" font-family="sans-serif" font-size="12" lengthAdjust="spacing" textLength="28" x="704.5" y="777.9102">Time</text><line style="stroke:#A80036;stroke-width:1.5;" x1="676.5" x2="734.5" y1="789" y2="789"/><!--MD5=[45c6380d22fb72521f5065026b277fb9]
class Slot--><rect codeLine="35" fill="#FEFECE" filter="url(#fc4mtlf5z6k6q)" height="67.6719" id="Slot" style="stroke:#A80036;stroke-width:1.5;" width="86" x="770.5" y="743"/><ellipse cx="800.35" cy="759" fill="#ADD1B2" rx="11" ry="11" style="stroke:#A80036;stroke-width:1.0;"/><path d="M803.1156,754.875 Q803.2719,754.6563 803.4594,754.5469 Q803.6469,754.4375 803.8656,754.4375 Q804.2406,754.4375 804.475,754.7031 Q804.7094,754.9531 804.7094,755.5625 L804.7094,757.0156 Q804.7094,757.625 804.475,757.8906 Q804.2406,758.1563 803.8656,758.1563 Q803.5219,758.1563 803.3188,757.9531 Q803.1156,757.7656 803.0063,757.25 Q802.9594,756.8906 802.7719,756.7031 Q802.4438,756.3281 801.8344,756.1094 Q801.225,755.8906 800.6,755.8906 Q799.8344,755.8906 799.1938,756.2188 Q798.5688,756.5469 798.0688,757.2969 Q797.5844,758.0469 797.5844,759.0781 L797.5844,760.1719 Q797.5844,761.4063 798.475,762.2344 Q799.3656,763.0469 800.9594,763.0469 Q801.8969,763.0469 802.5531,762.7969 Q802.9438,762.6406 803.3656,762.2031 Q803.6313,761.9375 803.7719,761.8594 Q803.9281,761.7813 804.1313,761.7813 Q804.4594,761.7813 804.7094,762.0469 Q804.975,762.2969 804.975,762.6406 Q804.975,762.9844 804.6313,763.3906 Q804.1313,763.9688 803.3344,764.2969 Q802.2563,764.75 800.9594,764.75 Q799.4438,764.75 798.2406,764.125 Q797.2563,763.625 796.5688,762.5625 Q795.8813,761.4844 795.8813,760.2031 L795.8813,759.0469 Q795.8813,757.7188 796.4906,756.5781 Q797.1156,755.4219 798.2094,754.8125 Q799.3031,754.1875 800.5375,754.1875 Q801.2719,754.1875 801.9125,754.3594 Q802.5688,754.5156 803.1156,754.875 Z " fill="#000000"/><text fill="#000000" font-family="sans-serif" font-size="12" lengthAdjust="spacing" textLength="21" x="817.65" y="763.9102">Slot</text><line style="stroke:#A80036;stroke-width:1.5;" x1="771.5" x2="855.5" y1="775" y2="775"/><text fill="#000000" font-family="sans-serif" font-size="11" lengthAdjust="spacing" textLength="57" x="776.5" y="790.4189">slotDuration</text><text fill="#000000" font-family="sans-serif" font-size="11" lengthAdjust="spacing" textLength="74" x="776.5" y="804.2549">maxVacPerSlot</text><!--MD5=[02e4b9b7573f1156f41e60aa5b4e25a4]
class Company--><rect codeLine="40" fill="#FEFECE" filter="url(#fc4mtlf5z6k6q)" height="53.8359" id="Company" style="stroke:#A80036;stroke-width:1.5;" width="85" x="927" y="7"/><ellipse cx="942" cy="23" fill="#ADD1B2" rx="11" ry="11" style="stroke:#A80036;stroke-width:1.0;"/><path d="M944.7656,18.875 Q944.9219,18.6563 945.1094,18.5469 Q945.2969,18.4375 945.5156,18.4375 Q945.8906,18.4375 946.125,18.7031 Q946.3594,18.9531 946.3594,19.5625 L946.3594,21.0156 Q946.3594,21.625 946.125,21.8906 Q945.8906,22.1563 945.5156,22.1563 Q945.1719,22.1563 944.9688,21.9531 Q944.7656,21.7656 944.6563,21.25 Q944.6094,20.8906 944.4219,20.7031 Q944.0938,20.3281 943.4844,20.1094 Q942.875,19.8906 942.25,19.8906 Q941.4844,19.8906 940.8438,20.2188 Q940.2188,20.5469 939.7188,21.2969 Q939.2344,22.0469 939.2344,23.0781 L939.2344,24.1719 Q939.2344,25.4063 940.125,26.2344 Q941.0156,27.0469 942.6094,27.0469 Q943.5469,27.0469 944.2031,26.7969 Q944.5938,26.6406 945.0156,26.2031 Q945.2813,25.9375 945.4219,25.8594 Q945.5781,25.7813 945.7813,25.7813 Q946.1094,25.7813 946.3594,26.0469 Q946.625,26.2969 946.625,26.6406 Q946.625,26.9844 946.2813,27.3906 Q945.7813,27.9688 944.9844,28.2969 Q943.9063,28.75 942.6094,28.75 Q941.0938,28.75 939.8906,28.125 Q938.9063,27.625 938.2188,26.5625 Q937.5313,25.4844 937.5313,24.2031 L937.5313,23.0469 Q937.5313,21.7188 938.1406,20.5781 Q938.7656,19.4219 939.8594,18.8125 Q940.9531,18.1875 942.1875,18.1875 Q942.9219,18.1875 943.5625,18.3594 Q944.2188,18.5156 944.7656,18.875 Z " fill="#000000"/><text fill="#000000" font-family="sans-serif" font-size="12" lengthAdjust="spacing" textLength="53" x="956" y="27.9102">Company</text><line style="stroke:#A80036;stroke-width:1.5;" x1="928" x2="1011" y1="39" y2="39"/><text fill="#000000" font-family="sans-serif" font-size="11" lengthAdjust="spacing" textLength="59" x="933" y="54.4189">-designation</text><!--MD5=[03960189e81aa2c066c762ffabbee709]
class Receptionist--><rect codeLine="44" fill="#FEFECE" filter="url(#fc4mtlf5z6k6q)" height="40" id="Receptionist" style="stroke:#A80036;stroke-width:1.5;" width="101" x="569" y="375"/><ellipse cx="584" cy="391" fill="#ADD1B2" rx="11" ry="11" style="stroke:#A80036;stroke-width:1.0;"/><path d="M586.7656,386.875 Q586.9219,386.6563 587.1094,386.5469 Q587.2969,386.4375 587.5156,386.4375 Q587.8906,386.4375 588.125,386.7031 Q588.3594,386.9531 588.3594,387.5625 L588.3594,389.0156 Q588.3594,389.625 588.125,389.8906 Q587.8906,390.1563 587.5156,390.1563 Q587.1719,390.1563 586.9688,389.9531 Q586.7656,389.7656 586.6563,389.25 Q586.6094,388.8906 586.4219,388.7031 Q586.0938,388.3281 585.4844,388.1094 Q584.875,387.8906 584.25,387.8906 Q583.4844,387.8906 582.8438,388.2188 Q582.2188,388.5469 581.7188,389.2969 Q581.2344,390.0469 581.2344,391.0781 L581.2344,392.1719 Q581.2344,393.4063 582.125,394.2344 Q583.0156,395.0469 584.6094,395.0469 Q585.5469,395.0469 586.2031,394.7969 Q586.5938,394.6406 587.0156,394.2031 Q587.2813,393.9375 587.4219,393.8594 Q587.5781,393.7813 587.7813,393.7813 Q588.1094,393.7813 588.3594,394.0469 Q588.625,394.2969 588.625,394.6406 Q588.625,394.9844 588.2813,395.3906 Q587.7813,395.9688 586.9844,396.2969 Q585.9063,396.75 584.6094,396.75 Q583.0938,396.75 581.8906,396.125 Q580.9063,395.625 580.2188,394.5625 Q579.5313,393.4844 579.5313,392.2031 L579.5313,391.0469 Q579.5313,389.7188 580.1406,388.5781 Q580.7656,387.4219 581.8594,386.8125 Q582.9531,386.1875 584.1875,386.1875 Q584.9219,386.1875 585.5625,386.3594 Q586.2188,386.5156 586.7656,386.875 Z " fill="#000000"/><text fill="#000000" font-family="sans-serif" font-size="12" lengthAdjust="spacing" textLength="69" x="598" y="395.9102">Receptionist</text><line style="stroke:#A80036;stroke-width:1.5;" x1="570" x2="669" y1="407" y2="407"/><!--MD5=[7421f545a0d8420c5bec41e74b387d9c]
class Employee--><rect codeLine="46" fill="#FEFECE" filter="url(#fc4mtlf5z6k6q)" height="136.8516" id="Employee" style="stroke:#A80036;stroke-width:1.5;" width="107" x="856" y="139"/><ellipse cx="880" cy="155" fill="#ADD1B2" rx="11" ry="11" style="stroke:#A80036;stroke-width:1.0;"/><path d="M882.7656,150.875 Q882.9219,150.6563 883.1094,150.5469 Q883.2969,150.4375 883.5156,150.4375 Q883.8906,150.4375 884.125,150.7031 Q884.3594,150.9531 884.3594,151.5625 L884.3594,153.0156 Q884.3594,153.625 884.125,153.8906 Q883.8906,154.1563 883.5156,154.1563 Q883.1719,154.1563 882.9688,153.9531 Q882.7656,153.7656 882.6563,153.25 Q882.6094,152.8906 882.4219,152.7031 Q882.0938,152.3281 881.4844,152.1094 Q880.875,151.8906 880.25,151.8906 Q879.4844,151.8906 878.8438,152.2188 Q878.2188,152.5469 877.7188,153.2969 Q877.2344,154.0469 877.2344,155.0781 L877.2344,156.1719 Q877.2344,157.4063 878.125,158.2344 Q879.0156,159.0469 880.6094,159.0469 Q881.5469,159.0469 882.2031,158.7969 Q882.5938,158.6406 883.0156,158.2031 Q883.2813,157.9375 883.4219,157.8594 Q883.5781,157.7813 883.7813,157.7813 Q884.1094,157.7813 884.3594,158.0469 Q884.625,158.2969 884.625,158.6406 Q884.625,158.9844 884.2813,159.3906 Q883.7813,159.9688 882.9844,160.2969 Q881.9063,160.75 880.6094,160.75 Q879.0938,160.75 877.8906,160.125 Q876.9063,159.625 876.2188,158.5625 Q875.5313,157.4844 875.5313,156.2031 L875.5313,155.0469 Q875.5313,153.7188 876.1406,152.5781 Q876.7656,151.4219 877.8594,150.8125 Q878.9531,150.1875 880.1875,150.1875 Q880.9219,150.1875 881.5625,150.3594 Q882.2188,150.5156 882.7656,150.875 Z " fill="#000000"/><text fill="#000000" font-family="sans-serif" font-size="12" lengthAdjust="spacing" textLength="55" x="896" y="159.9102">Employee</text><line style="stroke:#A80036;stroke-width:1.5;" x1="857" x2="962" y1="171" y2="171"/><text fill="#000000" font-family="sans-serif" font-size="11" lengthAdjust="spacing" textLength="12" x="862" y="186.4189">-id</text><text fill="#000000" font-family="sans-serif" font-size="11" lengthAdjust="spacing" textLength="30" x="862" y="200.2549">-name</text><text fill="#000000" font-family="sans-serif" font-size="11" lengthAdjust="spacing" textLength="28" x="862" y="214.0908">-email</text><text fill="#000000" font-family="sans-serif" font-size="11" lengthAdjust="spacing" textLength="34" x="862" y="227.9268">-phone</text><text fill="#000000" font-family="sans-serif" font-size="11" lengthAdjust="spacing" textLength="44" x="862" y="241.7627">-address</text><text fill="#000000" font-family="sans-serif" font-size="11" lengthAdjust="spacing" textLength="95" x="862" y="255.5986">-citizenCardNumber</text><text fill="#000000" font-family="sans-serif" font-size="11" lengthAdjust="spacing" textLength="30" x="862" y="269.4346">-roleId</text><!--MD5=[76b5e19c9337179d2d7ae334371d68c8]
class Notification--><rect codeLine="56" fill="#FEFECE" filter="url(#fc4mtlf5z6k6q)" height="40" id="Notification" style="stroke:#A80036;stroke-width:1.5;" width="93" x="180" y="375"/><ellipse cx="195" cy="391" fill="#ADD1B2" rx="11" ry="11" style="stroke:#A80036;stroke-width:1.0;"/><path d="M197.7656,386.875 Q197.9219,386.6563 198.1094,386.5469 Q198.2969,386.4375 198.5156,386.4375 Q198.8906,386.4375 199.125,386.7031 Q199.3594,386.9531 199.3594,387.5625 L199.3594,389.0156 Q199.3594,389.625 199.125,389.8906 Q198.8906,390.1563 198.5156,390.1563 Q198.1719,390.1563 197.9688,389.9531 Q197.7656,389.7656 197.6563,389.25 Q197.6094,388.8906 197.4219,388.7031 Q197.0938,388.3281 196.4844,388.1094 Q195.875,387.8906 195.25,387.8906 Q194.4844,387.8906 193.8438,388.2188 Q193.2188,388.5469 192.7188,389.2969 Q192.2344,390.0469 192.2344,391.0781 L192.2344,392.1719 Q192.2344,393.4063 193.125,394.2344 Q194.0156,395.0469 195.6094,395.0469 Q196.5469,395.0469 197.2031,394.7969 Q197.5938,394.6406 198.0156,394.2031 Q198.2813,393.9375 198.4219,393.8594 Q198.5781,393.7813 198.7813,393.7813 Q199.1094,393.7813 199.3594,394.0469 Q199.625,394.2969 199.625,394.6406 Q199.625,394.9844 199.2813,395.3906 Q198.7813,395.9688 197.9844,396.2969 Q196.9063,396.75 195.6094,396.75 Q194.0938,396.75 192.8906,396.125 Q191.9063,395.625 191.2188,394.5625 Q190.5313,393.4844 190.5313,392.2031 L190.5313,391.0469 Q190.5313,389.7188 191.1406,388.5781 Q191.7656,387.4219 192.8594,386.8125 Q193.9531,386.1875 195.1875,386.1875 Q195.9219,386.1875 196.5625,386.3594 Q197.2188,386.5156 197.7656,386.875 Z " fill="#000000"/><text fill="#000000" font-family="sans-serif" font-size="12" lengthAdjust="spacing" textLength="61" x="209" y="395.9102">Notification</text><line style="stroke:#A80036;stroke-width:1.5;" x1="181" x2="272" y1="407" y2="407"/><!--MD5=[2d935fd2dd068a13da1ae531f9857c4f]
class CenterCoordinator--><rect codeLine="58" fill="#FEFECE" filter="url(#fc4mtlf5z6k6q)" height="40" id="CenterCoordinator" style="stroke:#A80036;stroke-width:1.5;" width="134" x="842.5" y="375"/><ellipse cx="857.5" cy="391" fill="#ADD1B2" rx="11" ry="11" style="stroke:#A80036;stroke-width:1.0;"/><path d="M860.2656,386.875 Q860.4219,386.6563 860.6094,386.5469 Q860.7969,386.4375 861.0156,386.4375 Q861.3906,386.4375 861.625,386.7031 Q861.8594,386.9531 861.8594,387.5625 L861.8594,389.0156 Q861.8594,389.625 861.625,389.8906 Q861.3906,390.1563 861.0156,390.1563 Q860.6719,390.1563 860.4688,389.9531 Q860.2656,389.7656 860.1563,389.25 Q860.1094,388.8906 859.9219,388.7031 Q859.5938,388.3281 858.9844,388.1094 Q858.375,387.8906 857.75,387.8906 Q856.9844,387.8906 856.3438,388.2188 Q855.7188,388.5469 855.2188,389.2969 Q854.7344,390.0469 854.7344,391.0781 L854.7344,392.1719 Q854.7344,393.4063 855.625,394.2344 Q856.5156,395.0469 858.1094,395.0469 Q859.0469,395.0469 859.7031,394.7969 Q860.0938,394.6406 860.5156,394.2031 Q860.7813,393.9375 860.9219,393.8594 Q861.0781,393.7813 861.2813,393.7813 Q861.6094,393.7813 861.8594,394.0469 Q862.125,394.2969 862.125,394.6406 Q862.125,394.9844 861.7813,395.3906 Q861.2813,395.9688 860.4844,396.2969 Q859.4063,396.75 858.1094,396.75 Q856.5938,396.75 855.3906,396.125 Q854.4063,395.625 853.7188,394.5625 Q853.0313,393.4844 853.0313,392.2031 L853.0313,391.0469 Q853.0313,389.7188 853.6406,388.5781 Q854.2656,387.4219 855.3594,386.8125 Q856.4531,386.1875 857.6875,386.1875 Q858.4219,386.1875 859.0625,386.3594 Q859.7188,386.5156 860.2656,386.875 Z " fill="#000000"/><text fill="#000000" font-family="sans-serif" font-size="12" lengthAdjust="spacing" textLength="102" x="871.5" y="395.9102">CenterCoordinator</text><line style="stroke:#A80036;stroke-width:1.5;" x1="843.5" x2="975.5" y1="407" y2="407"/><!--MD5=[56872536300a053cf9fd13853ad6ab1e]
class CommunityMassVaccinationCenter--><rect codeLine="60" fill="#FEFECE" filter="url(#fc4mtlf5z6k6q)" height="40" id="CommunityMassVaccinationCenter" style="stroke:#A80036;stroke-width:1.5;" width="225" x="892" y="757"/><ellipse cx="907" cy="773" fill="#ADD1B2" rx="11" ry="11" style="stroke:#A80036;stroke-width:1.0;"/><path d="M909.7656,768.875 Q909.9219,768.6563 910.1094,768.5469 Q910.2969,768.4375 910.5156,768.4375 Q910.8906,768.4375 911.125,768.7031 Q911.3594,768.9531 911.3594,769.5625 L911.3594,771.0156 Q911.3594,771.625 911.125,771.8906 Q910.8906,772.1563 910.5156,772.1563 Q910.1719,772.1563 909.9688,771.9531 Q909.7656,771.7656 909.6563,771.25 Q909.6094,770.8906 909.4219,770.7031 Q909.0938,770.3281 908.4844,770.1094 Q907.875,769.8906 907.25,769.8906 Q906.4844,769.8906 905.8438,770.2188 Q905.2188,770.5469 904.7188,771.2969 Q904.2344,772.0469 904.2344,773.0781 L904.2344,774.1719 Q904.2344,775.4063 905.125,776.2344 Q906.0156,777.0469 907.6094,777.0469 Q908.5469,777.0469 909.2031,776.7969 Q909.5938,776.6406 910.0156,776.2031 Q910.2813,775.9375 910.4219,775.8594 Q910.5781,775.7813 910.7813,775.7813 Q911.1094,775.7813 911.3594,776.0469 Q911.625,776.2969 911.625,776.6406 Q911.625,776.9844 911.2813,777.3906 Q910.7813,777.9688 909.9844,778.2969 Q908.9063,778.75 907.6094,778.75 Q906.0938,778.75 904.8906,778.125 Q903.9063,777.625 903.2188,776.5625 Q902.5313,775.4844 902.5313,774.2031 L902.5313,773.0469 Q902.5313,771.7188 903.1406,770.5781 Q903.7656,769.4219 904.8594,768.8125 Q905.9531,768.1875 907.1875,768.1875 Q907.9219,768.1875 908.5625,768.3594 Q909.2188,768.5156 909.7656,768.875 Z " fill="#000000"/><text fill="#000000" font-family="sans-serif" font-size="12" lengthAdjust="spacing" textLength="193" x="921" y="777.9102">CommunityMassVaccinationCenter</text><line style="stroke:#A80036;stroke-width:1.5;" x1="893" x2="1116" y1="789" y2="789"/><!--MD5=[1db03e903fe0a044a2ca0dcbef10799a]
class HealthCareCenter--><rect codeLine="62" fill="#FEFECE" filter="url(#fc4mtlf5z6k6q)" height="40" id="HealthCareCenter" style="stroke:#A80036;stroke-width:1.5;" width="132" x="1152.5" y="757"/><ellipse cx="1167.5" cy="773" fill="#ADD1B2" rx="11" ry="11" style="stroke:#A80036;stroke-width:1.0;"/><path d="M1170.2656,768.875 Q1170.4219,768.6563 1170.6094,768.5469 Q1170.7969,768.4375 1171.0156,768.4375 Q1171.3906,768.4375 1171.625,768.7031 Q1171.8594,768.9531 1171.8594,769.5625 L1171.8594,771.0156 Q1171.8594,771.625 1171.625,771.8906 Q1171.3906,772.1563 1171.0156,772.1563 Q1170.6719,772.1563 1170.4688,771.9531 Q1170.2656,771.7656 1170.1563,771.25 Q1170.1094,770.8906 1169.9219,770.7031 Q1169.5938,770.3281 1168.9844,770.1094 Q1168.375,769.8906 1167.75,769.8906 Q1166.9844,769.8906 1166.3438,770.2188 Q1165.7188,770.5469 1165.2188,771.2969 Q1164.7344,772.0469 1164.7344,773.0781 L1164.7344,774.1719 Q1164.7344,775.4063 1165.625,776.2344 Q1166.5156,777.0469 1168.1094,777.0469 Q1169.0469,777.0469 1169.7031,776.7969 Q1170.0938,776.6406 1170.5156,776.2031 Q1170.7813,775.9375 1170.9219,775.8594 Q1171.0781,775.7813 1171.2813,775.7813 Q1171.6094,775.7813 1171.8594,776.0469 Q1172.125,776.2969 1172.125,776.6406 Q1172.125,776.9844 1171.7813,777.3906 Q1171.2813,777.9688 1170.4844,778.2969 Q1169.4063,778.75 1168.1094,778.75 Q1166.5938,778.75 1165.3906,778.125 Q1164.4063,777.625 1163.7188,776.5625 Q1163.0313,775.4844 1163.0313,774.2031 L1163.0313,773.0469 Q1163.0313,771.7188 1163.6406,770.5781 Q1164.2656,769.4219 1165.3594,768.8125 Q1166.4531,768.1875 1167.6875,768.1875 Q1168.4219,768.1875 1169.0625,768.3594 Q1169.7188,768.5156 1170.2656,768.875 Z " fill="#000000"/><text fill="#000000" font-family="sans-serif" font-size="12" lengthAdjust="spacing" textLength="100" x="1181.5" y="777.9102">HealthCareCenter</text><line style="stroke:#A80036;stroke-width:1.5;" x1="1153.5" x2="1283.5" y1="789" y2="789"/><!--MD5=[a88c56e1dc44d9d0e1fcd2eec4fd7e58]
class SMSSender--><rect fill="#FEFECE" filter="url(#fc4mtlf5z6k6q)" height="40" id="SMSSender" style="stroke:#A80036;stroke-width:1.5;" width="97" x="7" y="569.5"/><ellipse cx="22" cy="585.5" fill="#ADD1B2" rx="11" ry="11" style="stroke:#A80036;stroke-width:1.0;"/><path d="M24.7656,581.375 Q24.9219,581.1563 25.1094,581.0469 Q25.2969,580.9375 25.5156,580.9375 Q25.8906,580.9375 26.125,581.2031 Q26.3594,581.4531 26.3594,582.0625 L26.3594,583.5156 Q26.3594,584.125 26.125,584.3906 Q25.8906,584.6563 25.5156,584.6563 Q25.1719,584.6563 24.9688,584.4531 Q24.7656,584.2656 24.6563,583.75 Q24.6094,583.3906 24.4219,583.2031 Q24.0938,582.8281 23.4844,582.6094 Q22.875,582.3906 22.25,582.3906 Q21.4844,582.3906 20.8438,582.7188 Q20.2188,583.0469 19.7188,583.7969 Q19.2344,584.5469 19.2344,585.5781 L19.2344,586.6719 Q19.2344,587.9063 20.125,588.7344 Q21.0156,589.5469 22.6094,589.5469 Q23.5469,589.5469 24.2031,589.2969 Q24.5938,589.1406 25.0156,588.7031 Q25.2813,588.4375 25.4219,588.3594 Q25.5781,588.2813 25.7813,588.2813 Q26.1094,588.2813 26.3594,588.5469 Q26.625,588.7969 26.625,589.1406 Q26.625,589.4844 26.2813,589.8906 Q25.7813,590.4688 24.9844,590.7969 Q23.9063,591.25 22.6094,591.25 Q21.0938,591.25 19.8906,590.625 Q18.9063,590.125 18.2188,589.0625 Q17.5313,587.9844 17.5313,586.7031 L17.5313,585.5469 Q17.5313,584.2188 18.1406,583.0781 Q18.7656,581.9219 19.8594,581.3125 Q20.9531,580.6875 22.1875,580.6875 Q22.9219,580.6875 23.5625,580.8594 Q24.2188,581.0156 24.7656,581.375 Z " fill="#000000"/><text fill="#000000" font-family="sans-serif" font-size="12" lengthAdjust="spacing" textLength="65" x="36" y="590.4102">SMSSender</text><line style="stroke:#A80036;stroke-width:1.5;" x1="8" x2="103" y1="601.5" y2="601.5"/><!--MD5=[dbd744789a27dfb7a38205596e031569]
class EmailSender--><rect fill="#FEFECE" filter="url(#fc4mtlf5z6k6q)" height="40" id="EmailSender" style="stroke:#A80036;stroke-width:1.5;" width="104" x="139.5" y="569.5"/><ellipse cx="154.5" cy="585.5" fill="#ADD1B2" rx="11" ry="11" style="stroke:#A80036;stroke-width:1.0;"/><path d="M157.2656,581.375 Q157.4219,581.1563 157.6094,581.0469 Q157.7969,580.9375 158.0156,580.9375 Q158.3906,580.9375 158.625,581.2031 Q158.8594,581.4531 158.8594,582.0625 L158.8594,583.5156 Q158.8594,584.125 158.625,584.3906 Q158.3906,584.6563 158.0156,584.6563 Q157.6719,584.6563 157.4688,584.4531 Q157.2656,584.2656 157.1563,583.75 Q157.1094,583.3906 156.9219,583.2031 Q156.5938,582.8281 155.9844,582.6094 Q155.375,582.3906 154.75,582.3906 Q153.9844,582.3906 153.3438,582.7188 Q152.7188,583.0469 152.2188,583.7969 Q151.7344,584.5469 151.7344,585.5781 L151.7344,586.6719 Q151.7344,587.9063 152.625,588.7344 Q153.5156,589.5469 155.1094,589.5469 Q156.0469,589.5469 156.7031,589.2969 Q157.0938,589.1406 157.5156,588.7031 Q157.7813,588.4375 157.9219,588.3594 Q158.0781,588.2813 158.2813,588.2813 Q158.6094,588.2813 158.8594,588.5469 Q159.125,588.7969 159.125,589.1406 Q159.125,589.4844 158.7813,589.8906 Q158.2813,590.4688 157.4844,590.7969 Q156.4063,591.25 155.1094,591.25 Q153.5938,591.25 152.3906,590.625 Q151.4063,590.125 150.7188,589.0625 Q150.0313,587.9844 150.0313,586.7031 L150.0313,585.5469 Q150.0313,584.2188 150.6406,583.0781 Q151.2656,581.9219 152.3594,581.3125 Q153.4531,580.6875 154.6875,580.6875 Q155.4219,580.6875 156.0625,580.8594 Q156.7188,581.0156 157.2656,581.375 Z " fill="#000000"/><text fill="#000000" font-family="sans-serif" font-size="12" lengthAdjust="spacing" textLength="72" x="168.5" y="590.4102">EmailSender</text><line style="stroke:#A80036;stroke-width:1.5;" x1="140.5" x2="242.5" y1="601.5" y2="601.5"/><!--MD5=[467f7e0fe9ca2a47c651f8dc89503c22]
class ConsoleSender--><rect fill="#FEFECE" filter="url(#fc4mtlf5z6k6q)" height="40" id="ConsoleSender" style="stroke:#A80036;stroke-width:1.5;" width="119" x="279" y="569.5"/><ellipse cx="294" cy="585.5" fill="#ADD1B2" rx="11" ry="11" style="stroke:#A80036;stroke-width:1.0;"/><path d="M296.7656,581.375 Q296.9219,581.1563 297.1094,581.0469 Q297.2969,580.9375 297.5156,580.9375 Q297.8906,580.9375 298.125,581.2031 Q298.3594,581.4531 298.3594,582.0625 L298.3594,583.5156 Q298.3594,584.125 298.125,584.3906 Q297.8906,584.6563 297.5156,584.6563 Q297.1719,584.6563 296.9688,584.4531 Q296.7656,584.2656 296.6563,583.75 Q296.6094,583.3906 296.4219,583.2031 Q296.0938,582.8281 295.4844,582.6094 Q294.875,582.3906 294.25,582.3906 Q293.4844,582.3906 292.8438,582.7188 Q292.2188,583.0469 291.7188,583.7969 Q291.2344,584.5469 291.2344,585.5781 L291.2344,586.6719 Q291.2344,587.9063 292.125,588.7344 Q293.0156,589.5469 294.6094,589.5469 Q295.5469,589.5469 296.2031,589.2969 Q296.5938,589.1406 297.0156,588.7031 Q297.2813,588.4375 297.4219,588.3594 Q297.5781,588.2813 297.7813,588.2813 Q298.1094,588.2813 298.3594,588.5469 Q298.625,588.7969 298.625,589.1406 Q298.625,589.4844 298.2813,589.8906 Q297.7813,590.4688 296.9844,590.7969 Q295.9063,591.25 294.6094,591.25 Q293.0938,591.25 291.8906,590.625 Q290.9063,590.125 290.2188,589.0625 Q289.5313,587.9844 289.5313,586.7031 L289.5313,585.5469 Q289.5313,584.2188 290.1406,583.0781 Q290.7656,581.9219 291.8594,581.3125 Q292.9531,580.6875 294.1875,580.6875 Q294.9219,580.6875 295.5625,580.8594 Q296.2188,581.0156 296.7656,581.375 Z " fill="#000000"/><text fill="#000000" font-family="sans-serif" font-size="12" lengthAdjust="spacing" textLength="87" x="308" y="590.4102">ConsoleSender</text><line style="stroke:#A80036;stroke-width:1.5;" x1="280" x2="397" y1="601.5" y2="601.5"/><!--MD5=[d63168792e55d79de1fe85cd885704ff]
link Appointment to VaccineType--><path codeLine="65" d="M483.5,227.65 C483.5,257.27 483.5,314.85 483.5,353.86 " fill="none" id="Appointment-VaccineType" style="stroke:#A80036;stroke-width:1.0;"/><polygon fill="#000000" points="488.5,320.1758,491.4389,311.1307,485.5611,311.1307,488.5,320.1758" style="stroke:#000000;stroke-width:1.0;"/><text fill="#000000" font-family="sans-serif" font-size="13" lengthAdjust="spacing" textLength="21" x="497.5" y="320.4951">has</text><text fill="#000000" font-family="sans-serif" font-size="13" lengthAdjust="spacing" textLength="7" x="475.5156" y="249.1117">1</text><text fill="#000000" font-family="sans-serif" font-size="13" lengthAdjust="spacing" textLength="7" x="475.9203" y="343.2862">1</text><!--MD5=[d139302f00cc62b984b6371d0fde1842]
link Appointment to VaccinationCenter--><path codeLine="66" d="M533.91,227.51 C573.29,244.07 627.81,270.93 667.5,306 C720.35,352.7 713.3,381.86 758.5,436 C785,467.75 816.91,500.64 844.56,527.71 " fill="none" id="Appointment-VaccinationCenter" style="stroke:#A80036;stroke-width:1.0;"/><polygon fill="#000000" points="767.0955,398.6503,762.6335,390.2514,758.5489,394.4782,767.0955,398.6503" style="stroke:#000000;stroke-width:1.0;"/><text fill="#000000" font-family="sans-serif" font-size="13" lengthAdjust="spacing" textLength="52" x="772.5" y="400.4951">is held in</text><text fill="#000000" font-family="sans-serif" font-size="13" lengthAdjust="spacing" textLength="5" x="541.7858" y="248.58">*</text><text fill="#000000" font-family="sans-serif" font-size="13" lengthAdjust="spacing" textLength="7" x="829.6466" y="517.1551">1</text><!--MD5=[19ab43ca298c1d9fd9821023da273d0e]
link Appointment to SNSUser--><path codeLine="67" d="M463.4,227.89 C438.11,253.82 396,302.55 379.5,354 C368.37,388.7 366.77,401.85 379.5,436 C397.35,483.91 437.78,526.77 469.22,554.76 " fill="none" id="Appointment-SNSUser" style="stroke:#A80036;stroke-width:1.0;"/><polygon fill="#000000" points="384.589,400.175,387.3664,391.079,381.4895,391.1837,384.589,400.175" style="stroke:#000000;stroke-width:1.0;"/><text fill="#000000" font-family="sans-serif" font-size="13" lengthAdjust="spacing" textLength="21" x="393.5" y="400.4951">has</text><text fill="#000000" font-family="sans-serif" font-size="13" lengthAdjust="spacing" textLength="7" x="450.0575" y="249.0622">1</text><text fill="#000000" font-family="sans-serif" font-size="13" lengthAdjust="spacing" textLength="7" x="454.6377" y="545.2313">1</text><!--MD5=[e30c801b3ac7b558e113223f2c8633df]
link Appointment to Receptionist--><path codeLine="68" d="M497.54,227.65 C523.67,263.29 579.46,339.39 605.53,374.95 " fill="none" id="Appointment-Receptionist" style="stroke:#A80036;stroke-width:1.0;"/><polygon fill="#000000" points="575.4563,319.2082,572.4785,310.1758,567.7381,313.6511,575.4563,319.2082" style="stroke:#000000;stroke-width:1.0;"/><text fill="#000000" font-family="sans-serif" font-size="13" lengthAdjust="spacing" textLength="77" x="581.5" y="320.4951">scheduled by</text><text fill="#000000" font-family="sans-serif" font-size="13" lengthAdjust="spacing" textLength="5" x="495.7856" y="249.1117">*</text><text fill="#000000" font-family="sans-serif" font-size="13" lengthAdjust="spacing" textLength="7" x="593.3982" y="364.2571">1</text><!--MD5=[2b5b74edf452990c5a9179627c3aa149]
link Appointment to Notification--><path codeLine="69" d="M432.81,222.95 C387.78,237.84 322.34,264.74 277.5,306 C256.45,325.37 241.62,355.46 233.56,374.95 " fill="none" id="Appointment-Notification" style="stroke:#A80036;stroke-width:1.0;"/><polygon fill="#000000" points="278.5247,318.2084,287.4986,315.059,283.9336,310.3857,278.5247,318.2084" style="stroke:#000000;stroke-width:1.0;"/><text fill="#000000" font-family="sans-serif" font-size="13" lengthAdjust="spacing" textLength="43" x="291.5" y="320.4951">triggers</text><text fill="#000000" font-family="sans-serif" font-size="13" lengthAdjust="spacing" textLength="7" x="417.8508" y="221.5652">1</text><text fill="#000000" font-family="sans-serif" font-size="13" lengthAdjust="spacing" textLength="22" x="210.4026" y="364.2571">0..1</text><!--MD5=[7690a4971bd8576b261a40a0340b8203]
link Receptionist to SNSUser--><path codeLine="71" d="M608.75,415.16 C595.84,438.18 573.41,478.16 553.34,513.93 " fill="none" id="Receptionist-SNSUser" style="stroke:#A80036;stroke-width:1.0;"/><polygon fill="#000000" points="580.0537,479.5365,587.0423,473.0858,581.916,470.21,580.0537,479.5365" style="stroke:#000000;stroke-width:1.0;"/><text fill="#000000" font-family="sans-serif" font-size="13" lengthAdjust="spacing" textLength="77" x="591.5" y="480.4951">schedules for</text><text fill="#000000" font-family="sans-serif" font-size="13" lengthAdjust="spacing" textLength="7" x="597.7422" y="436.6246">1</text><text fill="#000000" font-family="sans-serif" font-size="13" lengthAdjust="spacing" textLength="7" x="550.1141" y="503.2314">1</text><!--MD5=[bfff716514ca687b645fe473c6e098a4]
reverse link Employee to Receptionist--><path codeLine="72" d="M838.74,253.76 C778.01,292.61 693.48,346.68 649.22,374.99 " fill="none" id="Employee-backto-Receptionist" style="stroke:#A80036;stroke-width:1.0;"/><polygon fill="none" points="835.35,247.62,855.97,242.74,842.9,259.41,835.35,247.62" style="stroke:#A80036;stroke-width:1.0;"/><!--MD5=[98f7f3dc8d9719d04ad14614c4ea123f]
reverse link Employee to CenterCoordinator--><path codeLine="73" d="M909.5,296.45 C909.5,325.98 909.5,356.16 909.5,374.98 " fill="none" id="Employee-backto-CenterCoordinator" style="stroke:#A80036;stroke-width:1.0;"/><polygon fill="none" points="902.5,296.26,909.5,276.26,916.5,296.26,902.5,296.26" style="stroke:#A80036;stroke-width:1.0;"/><!--MD5=[09366576ee87d48d594df10cacc83f45]
link Company to Employee--><path codeLine="75" d="M960.39,61.05 C953.18,81.66 942.77,111.42 933.24,138.65 " fill="none" id="Company-Employee" style="stroke:#A80036;stroke-width:1.0;"/><polygon fill="#000000" points="950.8488,104.8953,956.6099,97.3282,951.0618,95.3871,950.8488,104.8953" style="stroke:#000000;stroke-width:1.0;"/><text fill="#000000" font-family="sans-serif" font-size="13" lengthAdjust="spacing" textLength="37" x="961.5" y="105.4951">knows</text><!--MD5=[eebe9b198877275d05dd12630ed9e401]
link Company to VaccinationCenter--><path codeLine="76" d="M992,61.21 C998.27,70.09 1004.26,80.44 1007.5,91 C1009.85,98.65 1007.66,101 1007.5,109 C1004.61,254.42 1033.87,295.98 994.5,436 C985.43,468.24 968.36,501.06 951.88,527.96 " fill="none" id="Company-VaccinationCenter" style="stroke:#A80036;stroke-width:1.0;"/><polygon fill="#000000" points="1019.0718,320.1574,1022.7746,311.3972,1016.9183,310.8939,1019.0718,320.1574" style="stroke:#000000;stroke-width:1.0;"/><text fill="#000000" font-family="sans-serif" font-size="13" lengthAdjust="spacing" textLength="37" x="1028.5" y="320.4951">knows</text><text fill="#000000" font-family="sans-serif" font-size="13" lengthAdjust="spacing" textLength="7" x="989.1563" y="82.4637">1</text><text fill="#000000" font-family="sans-serif" font-size="13" lengthAdjust="spacing" textLength="5" x="951.7404" y="517.0004">*</text><!--MD5=[d5cf03d886352995267197dc535618ec]
link CenterCoordinator to VaccinationCenter--><path codeLine="78" d="M909.5,415.16 C909.5,441.22 909.5,489.03 909.5,527.85 " fill="none" id="CenterCoordinator-VaccinationCenter" style="stroke:#A80036;stroke-width:1.0;"/><polygon fill="#000000" points="914.5,480.1758,917.4389,471.1307,911.5611,471.1307,914.5,480.1758" style="stroke:#000000;stroke-width:1.0;"/><text fill="#000000" font-family="sans-serif" font-size="13" lengthAdjust="spacing" textLength="21" x="923.5" y="480.4951">has</text><text fill="#000000" font-family="sans-serif" font-size="13" lengthAdjust="spacing" textLength="7" x="901.5156" y="436.6246">1</text><text fill="#000000" font-family="sans-serif" font-size="13" lengthAdjust="spacing" textLength="7" x="902.0953" y="517.3113">1</text><!--MD5=[9c09d1db3efb59cb07492bc4345754ed]
reverse link VaccinationCenter to CommunityMassVaccinationCenter--><path codeLine="80" d="M949.84,669.28 C966.31,701.44 983.96,735.89 994.61,756.69 " fill="none" id="VaccinationCenter-backto-CommunityMassVaccinationCenter" style="stroke:#A80036;stroke-width:1.0;"/><polygon fill="none" points="943.49,672.23,940.61,651.24,955.95,665.85,943.49,672.23" style="stroke:#A80036;stroke-width:1.0;"/><!--MD5=[4d7f47162e377c4884c583baac9698b3]
reverse link VaccinationCenter to HealthCareCenter--><path codeLine="81" d="M993.21,640.75 C1057.11,679.11 1141.6,729.84 1186.79,756.96 " fill="none" id="VaccinationCenter-backto-HealthCareCenter" style="stroke:#A80036;stroke-width:1.0;"/><polygon fill="none" points="989.33,646.59,975.79,630.29,996.54,634.59,989.33,646.59" style="stroke:#A80036;stroke-width:1.0;"/><!--MD5=[b649bef0048cf03271726558ee7073ed]
link VaccinationCenter to Slot--><path codeLine="82" d="M878.07,651.24 C862.26,681.78 843.73,717.59 830.58,742.99 " fill="none" id="VaccinationCenter-Slot" style="stroke:#A80036;stroke-width:1.0;"/><polygon fill="#000000" points="855.2016,708.6162,861.9694,701.9343,856.7494,699.2324,855.2016,708.6162" style="stroke:#000000;stroke-width:1.0;"/><text fill="#000000" font-family="sans-serif" font-size="13" lengthAdjust="spacing" textLength="21" x="866.5" y="709.4951">has</text><text fill="#000000" font-family="sans-serif" font-size="13" lengthAdjust="spacing" textLength="7" x="867.2495" y="672.3813">1</text><text fill="#000000" font-family="sans-serif" font-size="13" lengthAdjust="spacing" textLength="7" x="826.3809" y="731.8906">1</text><!--MD5=[e67749f86d2edce8d072e016ba76df74]
link VaccinationCenter to Time--><path codeLine="83" d="M843.27,650.73 C803.01,687.33 754.25,731.67 726.86,756.58 " fill="none" id="VaccinationCenter-Time" style="stroke:#A80036;stroke-width:1.0;"/><polygon fill="#000000" points="789.8007,707.5395,798.47,703.6289,794.5157,699.28,789.8007,707.5395" style="stroke:#000000;stroke-width:1.0;"/><text fill="#000000" font-family="sans-serif" font-size="13" lengthAdjust="spacing" textLength="21" x="802.5" y="709.4951">has</text><text fill="#000000" font-family="sans-serif" font-size="13" lengthAdjust="spacing" textLength="7" x="828.6433" y="654.0655">1</text><text fill="#000000" font-family="sans-serif" font-size="13" lengthAdjust="spacing" textLength="7" x="724.8831" y="746.1314">1</text><!--MD5=[7eba427141098a7f3fe412bc3544d88e]
reverse link Notification to SMSSender--><path codeLine="85" d="M195.91,430.34 C174.95,453.87 146.53,485.81 121.5,514 C104.86,532.74 85.9,554.15 72.58,569.19 " fill="none" id="Notification-backto-SMSSender" style="stroke:#A80036;stroke-width:1.0;"/><polygon fill="none" points="190.86,425.48,209.39,415.2,201.32,434.79,190.86,425.48" style="stroke:#A80036;stroke-width:1.0;"/><!--MD5=[3eff0fbc0ba9bb99bdc521a38ee9fae2]
reverse link Notification to EmailSender--><path codeLine="86" d="M219.4,435.04 C211.98,475.87 200.63,538.26 194.97,569.42 " fill="none" id="Notification-backto-EmailSender" style="stroke:#A80036;stroke-width:1.0;"/><polygon fill="none" points="212.55,433.59,223.02,415.16,226.33,436.09,212.55,433.59" style="stroke:#A80036;stroke-width:1.0;"/><!--MD5=[52a98fb0ab7cb33707961262fa3bf997]
reverse link Notification to ConsoleSender--><path codeLine="87" d="M247.75,432.52 C271.45,473.26 308.89,537.62 327.4,569.42 " fill="none" id="Notification-backto-ConsoleSender" style="stroke:#A80036;stroke-width:1.0;"/><polygon fill="none" points="241.66,435.97,237.65,415.16,253.76,428.93,241.66,435.97" style="stroke:#A80036;stroke-width:1.0;"/><!--MD5=[bed3694ba3407c633071785b43d1b223]
@startuml  US02_DM
hide methods
skinparam classAttributeIconSize 0


class Appointment {}

class VaccineType {
  -code 
  -description
  -technology
}

class SNSUser {
  - citizenCard
  - snsNumber
  - name
  - birthDay
  - gender
  - phoneNumber
  - email
  - address
}

class VaccinationCenter{
  -name
  -address
  -emailAddress
  -phoneNumber
  -faxNumber
  -websiteAddress
}

class Time {}

class Slot {
  slotDuration
  maxVacPerSlot
}

class Company{
  -designation
}

class Receptionist {}

class Employee {
  -id
  -name
  -email
  -phone
  -address
  -citizenCardNumber
  -roleId
}

class Notification {}

class CenterCoordinator {}

class CommunityMassVaccinationCenter {}

class HealthCareCenter {}


Appointment "1"  - - "1" VaccineType : has >
Appointment "*" - - "1" VaccinationCenter : is held in >
Appointment "1" - - "1" SNSUser : has >
Appointment "*" - - "1" Receptionist : scheduled by >
Appointment "1" - - "0..1" Notification : triggers >

Receptionist "1" - - "1" SNSUser : schedules for >
Employee <|- - Receptionist
Employee <|- - CenterCoordinator

Company - - Employee : knows >
Company "1" - - "*" VaccinationCenter : knows >

CenterCoordinator "1" - - "1" VaccinationCenter : has >

VaccinationCenter <|- - CommunityMassVaccinationCenter
VaccinationCenter <|- - HealthCareCenter
VaccinationCenter "1" - - "1" Slot : has >
VaccinationCenter "1" - - "1" Time : has >

Notification <|- - SMSSender
Notification <|- - EmailSender
Notification <|- - ConsoleSender



@enduml

PlantUML version 1.2022.0(Tue Jan 11 16:16:42 WET 2022)
(GPL source distribution)
Java Runtime: Java(TM) SE Runtime Environment
JVM: Java HotSpot(TM) 64-Bit Server VM
Default Encoding: Cp1252
Language: pt
Country: PT
--></g></svg>