<?xml version="1.0" encoding="UTF-8" standalone="no"?><svg xmlns="http://www.w3.org/2000/svg" xmlns:xlink="http://www.w3.org/1999/xlink" contentScriptType="application/ecmascript" contentStyleType="text/css" height="691px" preserveAspectRatio="none" style="width:587px;height:691px;background:#FFFFFF;" version="1.1" viewBox="0 0 587 691" width="587px" zoomAndPan="magnify"><defs><filter height="300%" id="f1j8e1ammv8e0z" width="300%" x="-1" y="-1"><feGaussianBlur result="blurOut" stdDeviation="2.0"/><feColorMatrix in="blurOut" result="blurOut2" type="matrix" values="0 0 0 0 0 0 0 0 0 0 0 0 0 0 0 0 0 0 .4 0"/><feOffset dx="4.0" dy="4.0" in="blurOut2" result="blurOut3"/><feBlend in="SourceGraphic" in2="blurOut3" mode="normal"/></filter></defs><g><!--MD5=[c508b5b6bbe276ff5e2700b6641f837f]
class Appointment--><rect codeLine="5" fill="#FEFECE" filter="url(#f1j8e1ammv8e0z)" height="40" id="Appointment" style="stroke:#A80036;stroke-width:1.5;" width="101" x="253.56" y="139"/><ellipse cx="268.56" cy="155" fill="#ADD1B2" rx="11" ry="11" style="stroke:#A80036;stroke-width:1.0;"/><path d="M271.3256,150.875 Q271.4819,150.6563 271.6694,150.5469 Q271.8569,150.4375 272.0756,150.4375 Q272.4506,150.4375 272.685,150.7031 Q272.9194,150.9531 272.9194,151.5625 L272.9194,153.0156 Q272.9194,153.625 272.685,153.8906 Q272.4506,154.1563 272.0756,154.1563 Q271.7319,154.1563 271.5288,153.9531 Q271.3256,153.7656 271.2163,153.25 Q271.1694,152.8906 270.9819,152.7031 Q270.6538,152.3281 270.0444,152.1094 Q269.435,151.8906 268.81,151.8906 Q268.0444,151.8906 267.4038,152.2188 Q266.7788,152.5469 266.2788,153.2969 Q265.7944,154.0469 265.7944,155.0781 L265.7944,156.1719 Q265.7944,157.4063 266.685,158.2344 Q267.5756,159.0469 269.1694,159.0469 Q270.1069,159.0469 270.7631,158.7969 Q271.1538,158.6406 271.5756,158.2031 Q271.8413,157.9375 271.9819,157.8594 Q272.1381,157.7813 272.3413,157.7813 Q272.6694,157.7813 272.9194,158.0469 Q273.185,158.2969 273.185,158.6406 Q273.185,158.9844 272.8413,159.3906 Q272.3413,159.9688 271.5444,160.2969 Q270.4663,160.75 269.1694,160.75 Q267.6538,160.75 266.4506,160.125 Q265.4663,159.625 264.7788,158.5625 Q264.0913,157.4844 264.0913,156.2031 L264.0913,155.0469 Q264.0913,153.7188 264.7006,152.5781 Q265.3256,151.4219 266.4194,150.8125 Q267.5131,150.1875 268.7475,150.1875 Q269.4819,150.1875 270.1225,150.3594 Q270.7788,150.5156 271.3256,150.875 Z " fill="#000000"/><text fill="#000000" font-family="sans-serif" font-size="12" lengthAdjust="spacing" textLength="69" x="282.56" y="159.9102">Appointment</text><line style="stroke:#A80036;stroke-width:1.5;" x1="254.56" x2="353.56" y1="171" y2="171"/><!--MD5=[0e501da62322464167c8ec4d233a6b7e]
class VaccineType--><rect codeLine="7" fill="#FEFECE" filter="url(#f1j8e1ammv8e0z)" height="40" id="VaccineType" style="stroke:#A80036;stroke-width:1.5;" width="101" x="308.56" y="582.5"/><ellipse cx="323.56" cy="598.5" fill="#ADD1B2" rx="11" ry="11" style="stroke:#A80036;stroke-width:1.0;"/><path d="M326.3256,594.375 Q326.4819,594.1563 326.6694,594.0469 Q326.8569,593.9375 327.0756,593.9375 Q327.4506,593.9375 327.685,594.2031 Q327.9194,594.4531 327.9194,595.0625 L327.9194,596.5156 Q327.9194,597.125 327.685,597.3906 Q327.4506,597.6563 327.0756,597.6563 Q326.7319,597.6563 326.5288,597.4531 Q326.3256,597.2656 326.2163,596.75 Q326.1694,596.3906 325.9819,596.2031 Q325.6538,595.8281 325.0444,595.6094 Q324.435,595.3906 323.81,595.3906 Q323.0444,595.3906 322.4038,595.7188 Q321.7788,596.0469 321.2788,596.7969 Q320.7944,597.5469 320.7944,598.5781 L320.7944,599.6719 Q320.7944,600.9063 321.685,601.7344 Q322.5756,602.5469 324.1694,602.5469 Q325.1069,602.5469 325.7631,602.2969 Q326.1538,602.1406 326.5756,601.7031 Q326.8413,601.4375 326.9819,601.3594 Q327.1381,601.2813 327.3413,601.2813 Q327.6694,601.2813 327.9194,601.5469 Q328.185,601.7969 328.185,602.1406 Q328.185,602.4844 327.8413,602.8906 Q327.3413,603.4688 326.5444,603.7969 Q325.4663,604.25 324.1694,604.25 Q322.6538,604.25 321.4506,603.625 Q320.4663,603.125 319.7788,602.0625 Q319.0913,600.9844 319.0913,599.7031 L319.0913,598.5469 Q319.0913,597.2188 319.7006,596.0781 Q320.3256,594.9219 321.4194,594.3125 Q322.5131,593.6875 323.7475,593.6875 Q324.4819,593.6875 325.1225,593.8594 Q325.7788,594.0156 326.3256,594.375 Z " fill="#000000"/><text fill="#000000" font-family="sans-serif" font-size="12" lengthAdjust="spacing" textLength="69" x="337.56" y="603.4102">VaccineType</text><line style="stroke:#A80036;stroke-width:1.5;" x1="309.56" x2="408.56" y1="614.5" y2="614.5"/><!--MD5=[72be06cc7ae02ccc98efe28a50e62246]
class SNSUser--><rect codeLine="9" fill="#FEFECE" filter="url(#f1j8e1ammv8e0z)" height="150.6875" id="SNSUser" style="stroke:#A80036;stroke-width:1.5;" width="84" x="141.06" y="527"/><ellipse cx="156.06" cy="543" fill="#ADD1B2" rx="11" ry="11" style="stroke:#A80036;stroke-width:1.0;"/><path d="M158.8256,538.875 Q158.9819,538.6563 159.1694,538.5469 Q159.3569,538.4375 159.5756,538.4375 Q159.9506,538.4375 160.185,538.7031 Q160.4194,538.9531 160.4194,539.5625 L160.4194,541.0156 Q160.4194,541.625 160.185,541.8906 Q159.9506,542.1563 159.5756,542.1563 Q159.2319,542.1563 159.0288,541.9531 Q158.8256,541.7656 158.7163,541.25 Q158.6694,540.8906 158.4819,540.7031 Q158.1538,540.3281 157.5444,540.1094 Q156.935,539.8906 156.31,539.8906 Q155.5444,539.8906 154.9038,540.2188 Q154.2788,540.5469 153.7788,541.2969 Q153.2944,542.0469 153.2944,543.0781 L153.2944,544.1719 Q153.2944,545.4063 154.185,546.2344 Q155.0756,547.0469 156.6694,547.0469 Q157.6069,547.0469 158.2631,546.7969 Q158.6538,546.6406 159.0756,546.2031 Q159.3413,545.9375 159.4819,545.8594 Q159.6381,545.7813 159.8413,545.7813 Q160.1694,545.7813 160.4194,546.0469 Q160.685,546.2969 160.685,546.6406 Q160.685,546.9844 160.3413,547.3906 Q159.8413,547.9688 159.0444,548.2969 Q157.9663,548.75 156.6694,548.75 Q155.1538,548.75 153.9506,548.125 Q152.9663,547.625 152.2788,546.5625 Q151.5913,545.4844 151.5913,544.2031 L151.5913,543.0469 Q151.5913,541.7188 152.2006,540.5781 Q152.8256,539.4219 153.9194,538.8125 Q155.0131,538.1875 156.2475,538.1875 Q156.9819,538.1875 157.6225,538.3594 Q158.2788,538.5156 158.8256,538.875 Z " fill="#000000"/><text fill="#000000" font-family="sans-serif" font-size="12" lengthAdjust="spacing" textLength="52" x="170.06" y="547.9102">SNSUser</text><line style="stroke:#A80036;stroke-width:1.5;" x1="142.06" x2="224.06" y1="559" y2="559"/><text fill="#000000" font-family="sans-serif" font-size="11" lengthAdjust="spacing" textLength="58" x="147.06" y="574.4189">-citizenCard</text><text fill="#000000" font-family="sans-serif" font-size="11" lengthAdjust="spacing" textLength="59" x="147.06" y="588.2549">-snsNumber</text><text fill="#000000" font-family="sans-serif" font-size="11" lengthAdjust="spacing" textLength="30" x="147.06" y="602.0908">-name</text><text fill="#000000" font-family="sans-serif" font-size="11" lengthAdjust="spacing" textLength="44" x="147.06" y="615.9268">-birthDay</text><text fill="#000000" font-family="sans-serif" font-size="11" lengthAdjust="spacing" textLength="38" x="147.06" y="629.7627">-gender</text><text fill="#000000" font-family="sans-serif" font-size="11" lengthAdjust="spacing" textLength="71" x="147.06" y="643.5986">-phoneNumber</text><text fill="#000000" font-family="sans-serif" font-size="11" lengthAdjust="spacing" textLength="28" x="147.06" y="657.4346">-email</text><text fill="#000000" font-family="sans-serif" font-size="11" lengthAdjust="spacing" textLength="44" x="147.06" y="671.2705">-address</text><!--MD5=[de60e6d4f424ae4d0522096f76a59010]
class VaccinationCenter--><rect codeLine="20" fill="#FEFECE" filter="url(#f1j8e1ammv8e0z)" height="192.1953" id="VaccinationCenter" style="stroke:#A80036;stroke-width:1.5;" width="140" x="433.06" y="257"/><ellipse cx="451.66" cy="273" fill="#ADD1B2" rx="11" ry="11" style="stroke:#A80036;stroke-width:1.0;"/><path d="M454.4256,268.875 Q454.5819,268.6563 454.7694,268.5469 Q454.9569,268.4375 455.1756,268.4375 Q455.5506,268.4375 455.785,268.7031 Q456.0194,268.9531 456.0194,269.5625 L456.0194,271.0156 Q456.0194,271.625 455.785,271.8906 Q455.5506,272.1563 455.1756,272.1563 Q454.8319,272.1563 454.6288,271.9531 Q454.4256,271.7656 454.3163,271.25 Q454.2694,270.8906 454.0819,270.7031 Q453.7538,270.3281 453.1444,270.1094 Q452.535,269.8906 451.91,269.8906 Q451.1444,269.8906 450.5038,270.2188 Q449.8788,270.5469 449.3788,271.2969 Q448.8944,272.0469 448.8944,273.0781 L448.8944,274.1719 Q448.8944,275.4063 449.785,276.2344 Q450.6756,277.0469 452.2694,277.0469 Q453.2069,277.0469 453.8631,276.7969 Q454.2538,276.6406 454.6756,276.2031 Q454.9413,275.9375 455.0819,275.8594 Q455.2381,275.7813 455.4413,275.7813 Q455.7694,275.7813 456.0194,276.0469 Q456.285,276.2969 456.285,276.6406 Q456.285,276.9844 455.9413,277.3906 Q455.4413,277.9688 454.6444,278.2969 Q453.5663,278.75 452.2694,278.75 Q450.7538,278.75 449.5506,278.125 Q448.5663,277.625 447.8788,276.5625 Q447.1913,275.4844 447.1913,274.2031 L447.1913,273.0469 Q447.1913,271.7188 447.8006,270.5781 Q448.4256,269.4219 449.5194,268.8125 Q450.6131,268.1875 451.8475,268.1875 Q452.5819,268.1875 453.2225,268.3594 Q453.8788,268.5156 454.4256,268.875 Z " fill="#000000"/><text fill="#000000" font-family="sans-serif" font-size="12" lengthAdjust="spacing" textLength="100" x="466.46" y="277.9102">VaccinationCenter</text><line style="stroke:#A80036;stroke-width:1.5;" x1="434.06" x2="572.06" y1="289" y2="289"/><text fill="#000000" font-family="sans-serif" font-size="11" lengthAdjust="spacing" textLength="30" x="439.06" y="304.4189">-name</text><text fill="#000000" font-family="sans-serif" font-size="11" lengthAdjust="spacing" textLength="44" x="439.06" y="318.2549">-address</text><text fill="#000000" font-family="sans-serif" font-size="11" lengthAdjust="spacing" textLength="70" x="439.06" y="332.0908">-emailAddress</text><text fill="#000000" font-family="sans-serif" font-size="11" lengthAdjust="spacing" textLength="71" x="439.06" y="345.9268">-phoneNumber</text><text fill="#000000" font-family="sans-serif" font-size="11" lengthAdjust="spacing" textLength="57" x="439.06" y="359.7627">-faxNumber</text><text fill="#000000" font-family="sans-serif" font-size="11" lengthAdjust="spacing" textLength="85" x="439.06" y="373.5986">-websiteAddress</text><text fill="#000000" font-family="sans-serif" font-size="11" lengthAdjust="spacing" textLength="71" x="439.06" y="387.4346">-openingHours</text><text fill="#000000" font-family="sans-serif" font-size="11" lengthAdjust="spacing" textLength="67" x="439.06" y="401.2705">-closingHours</text><text fill="#000000" font-family="sans-serif" font-size="11" lengthAdjust="spacing" textLength="61" x="439.06" y="415.1064">-slotDuration</text><text fill="#000000" font-family="sans-serif" font-size="11" lengthAdjust="spacing" textLength="128" x="439.06" y="428.9424">-maximumVaccinesPerSlot</text><text fill="#000000" font-family="sans-serif" font-size="11" lengthAdjust="spacing" textLength="59" x="439.06" y="442.7783">-coordinator</text><!--MD5=[02e4b9b7573f1156f41e60aa5b4e25a4]
class Company--><rect codeLine="34" fill="#FEFECE" filter="url(#f1j8e1ammv8e0z)" height="53.8359" id="Company" style="stroke:#A80036;stroke-width:1.5;" width="85" x="261.56" y="7"/><ellipse cx="276.56" cy="23" fill="#ADD1B2" rx="11" ry="11" style="stroke:#A80036;stroke-width:1.0;"/><path d="M279.3256,18.875 Q279.4819,18.6563 279.6694,18.5469 Q279.8569,18.4375 280.0756,18.4375 Q280.4506,18.4375 280.685,18.7031 Q280.9194,18.9531 280.9194,19.5625 L280.9194,21.0156 Q280.9194,21.625 280.685,21.8906 Q280.4506,22.1563 280.0756,22.1563 Q279.7319,22.1563 279.5288,21.9531 Q279.3256,21.7656 279.2163,21.25 Q279.1694,20.8906 278.9819,20.7031 Q278.6538,20.3281 278.0444,20.1094 Q277.435,19.8906 276.81,19.8906 Q276.0444,19.8906 275.4038,20.2188 Q274.7788,20.5469 274.2788,21.2969 Q273.7944,22.0469 273.7944,23.0781 L273.7944,24.1719 Q273.7944,25.4063 274.685,26.2344 Q275.5756,27.0469 277.1694,27.0469 Q278.1069,27.0469 278.7631,26.7969 Q279.1538,26.6406 279.5756,26.2031 Q279.8413,25.9375 279.9819,25.8594 Q280.1381,25.7813 280.3413,25.7813 Q280.6694,25.7813 280.9194,26.0469 Q281.185,26.2969 281.185,26.6406 Q281.185,26.9844 280.8413,27.3906 Q280.3413,27.9688 279.5444,28.2969 Q278.4663,28.75 277.1694,28.75 Q275.6538,28.75 274.4506,28.125 Q273.4663,27.625 272.7788,26.5625 Q272.0913,25.4844 272.0913,24.2031 L272.0913,23.0469 Q272.0913,21.7188 272.7006,20.5781 Q273.3256,19.4219 274.4194,18.8125 Q275.5131,18.1875 276.7475,18.1875 Q277.4819,18.1875 278.1225,18.3594 Q278.7788,18.5156 279.3256,18.875 Z " fill="#000000"/><text fill="#000000" font-family="sans-serif" font-size="12" lengthAdjust="spacing" textLength="53" x="290.56" y="27.9102">Company</text><line style="stroke:#A80036;stroke-width:1.5;" x1="262.56" x2="345.56" y1="39" y2="39"/><text fill="#000000" font-family="sans-serif" font-size="11" lengthAdjust="spacing" textLength="59" x="267.56" y="54.4189">-designation</text><!--MD5=[03960189e81aa2c066c762ffabbee709]
class Receptionist--><rect codeLine="38" fill="#FEFECE" filter="url(#f1j8e1ammv8e0z)" height="40" id="Receptionist" style="stroke:#A80036;stroke-width:1.5;" width="101" x="77.56" y="333"/><ellipse cx="92.56" cy="349" fill="#ADD1B2" rx="11" ry="11" style="stroke:#A80036;stroke-width:1.0;"/><path d="M95.3256,344.875 Q95.4819,344.6563 95.6694,344.5469 Q95.8569,344.4375 96.0756,344.4375 Q96.4506,344.4375 96.685,344.7031 Q96.9194,344.9531 96.9194,345.5625 L96.9194,347.0156 Q96.9194,347.625 96.685,347.8906 Q96.4506,348.1563 96.0756,348.1563 Q95.7319,348.1563 95.5288,347.9531 Q95.3256,347.7656 95.2163,347.25 Q95.1694,346.8906 94.9819,346.7031 Q94.6538,346.3281 94.0444,346.1094 Q93.435,345.8906 92.81,345.8906 Q92.0444,345.8906 91.4038,346.2188 Q90.7788,346.5469 90.2788,347.2969 Q89.7944,348.0469 89.7944,349.0781 L89.7944,350.1719 Q89.7944,351.4063 90.685,352.2344 Q91.5756,353.0469 93.1694,353.0469 Q94.1069,353.0469 94.7631,352.7969 Q95.1538,352.6406 95.5756,352.2031 Q95.8413,351.9375 95.9819,351.8594 Q96.1381,351.7813 96.3413,351.7813 Q96.6694,351.7813 96.9194,352.0469 Q97.185,352.2969 97.185,352.6406 Q97.185,352.9844 96.8413,353.3906 Q96.3413,353.9688 95.5444,354.2969 Q94.4663,354.75 93.1694,354.75 Q91.6538,354.75 90.4506,354.125 Q89.4663,353.625 88.7788,352.5625 Q88.0913,351.4844 88.0913,350.2031 L88.0913,349.0469 Q88.0913,347.7188 88.7006,346.5781 Q89.3256,345.4219 90.4194,344.8125 Q91.5131,344.1875 92.7475,344.1875 Q93.4819,344.1875 94.1225,344.3594 Q94.7788,344.5156 95.3256,344.875 Z " fill="#000000"/><text fill="#000000" font-family="sans-serif" font-size="12" lengthAdjust="spacing" textLength="69" x="106.56" y="353.9102">Receptionist</text><line style="stroke:#A80036;stroke-width:1.5;" x1="78.56" x2="177.56" y1="365" y2="365"/><!--MD5=[7421f545a0d8420c5bec41e74b387d9c]
class Employee--><rect codeLine="40" fill="#FEFECE" filter="url(#f1j8e1ammv8e0z)" height="40" id="Employee" style="stroke:#A80036;stroke-width:1.5;" width="87" x="90.56" y="139"/><ellipse cx="105.56" cy="155" fill="#ADD1B2" rx="11" ry="11" style="stroke:#A80036;stroke-width:1.0;"/><path d="M108.3256,150.875 Q108.4819,150.6563 108.6694,150.5469 Q108.8569,150.4375 109.0756,150.4375 Q109.4506,150.4375 109.685,150.7031 Q109.9194,150.9531 109.9194,151.5625 L109.9194,153.0156 Q109.9194,153.625 109.685,153.8906 Q109.4506,154.1563 109.0756,154.1563 Q108.7319,154.1563 108.5288,153.9531 Q108.3256,153.7656 108.2163,153.25 Q108.1694,152.8906 107.9819,152.7031 Q107.6538,152.3281 107.0444,152.1094 Q106.435,151.8906 105.81,151.8906 Q105.0444,151.8906 104.4038,152.2188 Q103.7788,152.5469 103.2788,153.2969 Q102.7944,154.0469 102.7944,155.0781 L102.7944,156.1719 Q102.7944,157.4063 103.685,158.2344 Q104.5756,159.0469 106.1694,159.0469 Q107.1069,159.0469 107.7631,158.7969 Q108.1538,158.6406 108.5756,158.2031 Q108.8413,157.9375 108.9819,157.8594 Q109.1381,157.7813 109.3413,157.7813 Q109.6694,157.7813 109.9194,158.0469 Q110.185,158.2969 110.185,158.6406 Q110.185,158.9844 109.8413,159.3906 Q109.3413,159.9688 108.5444,160.2969 Q107.4663,160.75 106.1694,160.75 Q104.6538,160.75 103.4506,160.125 Q102.4663,159.625 101.7788,158.5625 Q101.0913,157.4844 101.0913,156.2031 L101.0913,155.0469 Q101.0913,153.7188 101.7006,152.5781 Q102.3256,151.4219 103.4194,150.8125 Q104.5131,150.1875 105.7475,150.1875 Q106.4819,150.1875 107.1225,150.3594 Q107.7788,150.5156 108.3256,150.875 Z " fill="#000000"/><text fill="#000000" font-family="sans-serif" font-size="12" lengthAdjust="spacing" textLength="55" x="119.56" y="159.9102">Employee</text><line style="stroke:#A80036;stroke-width:1.5;" x1="91.56" x2="176.56" y1="171" y2="171"/><!--MD5=[19e445fc4d3b48519cbe33da05496394]
class Vaccine--><rect codeLine="42" fill="#FEFECE" filter="url(#f1j8e1ammv8e0z)" height="95.3438" id="Vaccine" style="stroke:#A80036;stroke-width:1.5;" width="78" x="320.06" y="305.5"/><ellipse cx="336.41" cy="321.5" fill="#ADD1B2" rx="11" ry="11" style="stroke:#A80036;stroke-width:1.0;"/><path d="M339.1756,317.375 Q339.3319,317.1563 339.5194,317.0469 Q339.7069,316.9375 339.9256,316.9375 Q340.3006,316.9375 340.535,317.2031 Q340.7694,317.4531 340.7694,318.0625 L340.7694,319.5156 Q340.7694,320.125 340.535,320.3906 Q340.3006,320.6563 339.9256,320.6563 Q339.5819,320.6563 339.3788,320.4531 Q339.1756,320.2656 339.0663,319.75 Q339.0194,319.3906 338.8319,319.2031 Q338.5038,318.8281 337.8944,318.6094 Q337.285,318.3906 336.66,318.3906 Q335.8944,318.3906 335.2538,318.7188 Q334.6288,319.0469 334.1288,319.7969 Q333.6444,320.5469 333.6444,321.5781 L333.6444,322.6719 Q333.6444,323.9063 334.535,324.7344 Q335.4256,325.5469 337.0194,325.5469 Q337.9569,325.5469 338.6131,325.2969 Q339.0038,325.1406 339.4256,324.7031 Q339.6913,324.4375 339.8319,324.3594 Q339.9881,324.2813 340.1913,324.2813 Q340.5194,324.2813 340.7694,324.5469 Q341.035,324.7969 341.035,325.1406 Q341.035,325.4844 340.6913,325.8906 Q340.1913,326.4688 339.3944,326.7969 Q338.3163,327.25 337.0194,327.25 Q335.5038,327.25 334.3006,326.625 Q333.3163,326.125 332.6288,325.0625 Q331.9413,323.9844 331.9413,322.7031 L331.9413,321.5469 Q331.9413,320.2188 332.5506,319.0781 Q333.1756,317.9219 334.2694,317.3125 Q335.3631,316.6875 336.5975,316.6875 Q337.3319,316.6875 337.9725,316.8594 Q338.6288,317.0156 339.1756,317.375 Z " fill="#000000"/><text fill="#000000" font-family="sans-serif" font-size="12" lengthAdjust="spacing" textLength="43" x="350.71" y="326.4102">Vaccine</text><line style="stroke:#A80036;stroke-width:1.5;" x1="321.06" x2="397.06" y1="337.5" y2="337.5"/><text fill="#000000" font-family="sans-serif" font-size="11" lengthAdjust="spacing" textLength="59" x="326.06" y="352.9189">-designation</text><text fill="#000000" font-family="sans-serif" font-size="11" lengthAdjust="spacing" textLength="32" x="326.06" y="366.7549">-brand</text><text fill="#000000" font-family="sans-serif" font-size="11" lengthAdjust="spacing" textLength="12" x="326.06" y="380.5908">-id</text><text fill="#000000" font-family="sans-serif" font-size="11" lengthAdjust="spacing" textLength="66" x="326.06" y="394.4268">-vaccineType</text><!--MD5=[394476be1d9cc203bf0bce63db5cbcd1]
link Company to Appointment--><path codeLine="49" d="M304.06,61.09 C304.06,84.36 304.06,117.89 304.06,138.79 " fill="none" id="Company-Appointment" style="stroke:#A80036;stroke-width:1.0;"/><polygon fill="#000000" points="309.06,105.1758,311.9989,96.1307,306.1211,96.1307,309.06,105.1758" style="stroke:#000000;stroke-width:1.0;"/><text fill="#000000" font-family="sans-serif" font-size="13" lengthAdjust="spacing" textLength="37" x="318.06" y="105.4951">knows</text><text fill="#000000" font-family="sans-serif" font-size="13" lengthAdjust="spacing" textLength="7" x="296.2944" y="82.3175">1</text><text fill="#000000" font-family="sans-serif" font-size="13" lengthAdjust="spacing" textLength="5" x="298.3256" y="128.0501">*</text><!--MD5=[6bee4428fa029b10117c8017dc752ad2]
link Appointment to Vaccine--><path codeLine="50" d="M309.54,179.11 C317.91,208.33 334.13,264.96 345.73,305.45 " fill="none" id="Appointment-Vaccine" style="stroke:#A80036;stroke-width:1.0;"/><polygon fill="#000000" points="328.4369,222.9825,328.7714,213.4778,323.1208,215.0964,328.4369,222.9825" style="stroke:#000000;stroke-width:1.0;"/><text fill="#000000" font-family="sans-serif" font-size="13" lengthAdjust="spacing" textLength="21" x="336.06" y="223.4951">has</text><text fill="#000000" font-family="sans-serif" font-size="13" lengthAdjust="spacing" textLength="7" x="303.0969" y="200.5605">1</text><text fill="#000000" font-family="sans-serif" font-size="13" lengthAdjust="spacing" textLength="7" x="336.2581" y="294.7868">1</text><!--MD5=[d139302f00cc62b984b6371d0fde1842]
link Appointment to VaccinationCenter--><path codeLine="51" d="M329.24,179.02 C340.69,187.88 354.27,198.72 366.06,209 C388.87,228.88 412.19,251.99 432.97,273.76 " fill="none" id="Appointment-VaccinationCenter" style="stroke:#A80036;stroke-width:1.0;"/><polygon fill="#000000" points="390.7519,221.5477,386.0552,213.2778,382.0912,217.6179,390.7519,221.5477" style="stroke:#000000;stroke-width:1.0;"/><text fill="#000000" font-family="sans-serif" font-size="13" lengthAdjust="spacing" textLength="21" x="396.06" y="223.4951">has</text><text fill="#000000" font-family="sans-serif" font-size="13" lengthAdjust="spacing" textLength="5" x="330.6188" y="200.4452">*</text><text fill="#000000" font-family="sans-serif" font-size="13" lengthAdjust="spacing" textLength="7" x="417.9211" y="261.7218">1</text><!--MD5=[eebe9b198877275d05dd12630ed9e401]
link Company to VaccinationCenter--><path codeLine="52" d="M335.94,61.13 C345.65,70 355.91,80.37 364.06,91 C403.13,141.91 437.19,205.33 461.81,256.9 " fill="none" id="Company-VaccinationCenter" style="stroke:#A80036;stroke-width:1.0;"/><polygon fill="#000000" points="427.7641,163.3815,425.3444,154.1839,420.4003,157.3627,427.7641,163.3815" style="stroke:#000000;stroke-width:1.0;"/><text fill="#000000" font-family="sans-serif" font-size="13" lengthAdjust="spacing" textLength="37" x="434.06" y="164.4951">knows</text><text fill="#000000" font-family="sans-serif" font-size="13" lengthAdjust="spacing" textLength="7" x="335.1481" y="82.3662">1</text><text fill="#000000" font-family="sans-serif" font-size="13" lengthAdjust="spacing" textLength="5" x="453.3237" y="246.1059">*</text><!--MD5=[e30c801b3ac7b558e113223f2c8633df]
link Appointment to Receptionist--><path codeLine="53" d="M253.18,167.62 C207.72,175.57 146.05,189.61 131.06,209 C103.28,244.96 113.68,302.58 121.88,332.52 " fill="none" id="Appointment-Receptionist" style="stroke:#A80036;stroke-width:1.0;"/><polygon fill="#000000" points="132.9455,222.0873,140.8788,216.842,136.2806,213.1806,132.9455,222.0873" style="stroke:#000000;stroke-width:1.0;"/><text fill="#000000" font-family="sans-serif" font-size="13" lengthAdjust="spacing" textLength="77" x="145.06" y="223.4951">scheduled by</text><text fill="#000000" font-family="sans-serif" font-size="13" lengthAdjust="spacing" textLength="5" x="240.6734" y="165.227">*</text><text fill="#000000" font-family="sans-serif" font-size="13" lengthAdjust="spacing" textLength="7" x="112.1575" y="322.0546">1</text><!--MD5=[7690a4971bd8576b261a40a0340b8203]
link Receptionist to SNSUser--><path codeLine="54" d="M125.83,373.31 C123.2,401.12 120.44,453.84 131.06,497 C133.51,506.94 137.01,517.02 141.06,526.8 " fill="none" id="Receptionist-SNSUser" style="stroke:#A80036;stroke-width:1.0;"/><polygon fill="#000000" points="136.5537,493.1513,138.5852,483.8603,132.736,484.4407,136.5537,493.1513" style="stroke:#000000;stroke-width:1.0;"/><text fill="#000000" font-family="sans-serif" font-size="13" lengthAdjust="spacing" textLength="77" x="145.06" y="493.4951">schedules for</text><text fill="#000000" font-family="sans-serif" font-size="13" lengthAdjust="spacing" textLength="7" x="117.2901" y="394.4607">1</text><text fill="#000000" font-family="sans-serif" font-size="13" lengthAdjust="spacing" textLength="7" x="129.5811" y="516.0886">1</text><!--MD5=[19ab43ca298c1d9fd9821023da273d0e]
link Appointment to SNSUser--><path codeLine="55" d="M295.1,179.28 C286.48,198.56 273.66,229.26 266.06,257 C237.53,361.23 256.91,393.14 227.06,497 C224.24,506.84 220.74,516.99 216.97,526.93 " fill="none" id="Appointment-SNSUser" style="stroke:#A80036;stroke-width:1.0;"/><polygon fill="#000000" points="269.9637,358.0541,274.8144,349.8735,269.0796,348.5847,269.9637,358.0541" style="stroke:#000000;stroke-width:1.0;"/><text fill="#000000" font-family="sans-serif" font-size="13" lengthAdjust="spacing" textLength="21" x="280.06" y="358.4951">has</text><text fill="#000000" font-family="sans-serif" font-size="13" lengthAdjust="spacing" textLength="7" x="284.7514" y="200.4226">1</text><text fill="#000000" font-family="sans-serif" font-size="13" lengthAdjust="spacing" textLength="7" x="212.9635" y="516.2314">1</text><!--MD5=[1da12df22706e73e1def33b218b7f412]
link Employee to Receptionist--><path codeLine="56" d="M90.55,169.86 C69.65,177.02 46.49,189.07 34.06,209 C6,254 62.77,305.77 99.72,332.99 " fill="none" id="Employee-Receptionist" style="stroke:#A80036;stroke-width:1.0;"/><polygon fill="#000000" points="39.3406,223.1679,41.7673,213.9721,35.8987,214.302,39.3406,223.1679" style="stroke:#000000;stroke-width:1.0;"/><text fill="#000000" font-family="sans-serif" font-size="13" lengthAdjust="spacing" textLength="42" x="48.06" y="223.4951">play as</text><text fill="#000000" font-family="sans-serif" font-size="13" lengthAdjust="spacing" textLength="7" x="75.4702" y="167.8769">1</text><text fill="#000000" font-family="sans-serif" font-size="13" lengthAdjust="spacing" textLength="22" x="66.1639" y="322.3088">0..1</text><!--MD5=[09366576ee87d48d594df10cacc83f45]
link Company to Employee--><path codeLine="57" d="M268.01,61.09 C235.75,84.43 189.22,118.09 160.35,138.98 " fill="none" id="Company-Employee" style="stroke:#A80036;stroke-width:1.0;"/><polygon fill="#000000" points="226.009,103.1066,235.06,100.1858,231.6146,95.4236,226.009,103.1066" style="stroke:#000000;stroke-width:1.0;"/><text fill="#000000" font-family="sans-serif" font-size="13" lengthAdjust="spacing" textLength="37" x="239.06" y="105.4951">knows</text><!--MD5=[3568623adf67b2630dce9e60c05bd02a]
link Vaccine to VaccineType--><path codeLine="58" d="M359.06,400.55 C359.06,455.3 359.06,543.62 359.06,582.31 " fill="none" id="Vaccine-VaccineType" style="stroke:#A80036;stroke-width:1.0;"/><polygon fill="#000000" points="364.06,483.1758,361.1211,492.2209,366.9989,492.2209,364.06,483.1758" style="stroke:#000000;stroke-width:1.0;"/><text fill="#000000" font-family="sans-serif" font-size="13" lengthAdjust="spacing" textLength="36" x="373.06" y="493.4951">part of</text><text fill="#000000" font-family="sans-serif" font-size="13" lengthAdjust="spacing" textLength="7" x="351.5459" y="422.2046">1</text><text fill="#000000" font-family="sans-serif" font-size="13" lengthAdjust="spacing" textLength="5" x="353.3256" y="571.5759">*</text><!--MD5=[f908af96bca62b1f8921f3f5ce845951]
@startuml  US02_DM
hide methods
skinparam classAttributeIconSize 0


class Appointment {}

class VaccineType {}

class SNSUser {
  - citizenCard
  - snsNumber
  - name
  - birthDay
  - gender
  - phoneNumber
  - email
  - address
}

class VaccinationCenter{
  -name
  -address
  -emailAddress
  -phoneNumber
  -faxNumber
  -websiteAddress
  -openingHours  
  -closingHours
  -slotDuration
  -maximumVaccinesPerSlot
  -coordinator
}

class Company{
  -designation
}

class Receptionist {}

class Employee {}

class Vaccine {
  -designation
  -brand
  -id
  -vaccineType
}

Company "1" - - "*" Appointment : knows >
Appointment "1"  - - "1" Vaccine : has >
Appointment "*" - - "1" VaccinationCenter : has >
Company "1" - - "*" VaccinationCenter : knows >
Appointment "*" - - "1" Receptionist : scheduled by >
Receptionist "1" - - "1" SNSUser : schedules for >
Appointment "1" - - "1" SNSUser : has >
Employee "1" - - "0..1" Receptionist : play as >
Company - - Employee : knows >
Vaccine "1" - - "*" VaccineType : part of <


@enduml

PlantUML version 1.2022.0(Tue Jan 11 16:16:42 WET 2022)
(GPL source distribution)
Java Runtime: Java(TM) SE Runtime Environment
JVM: Java HotSpot(TM) 64-Bit Server VM
Default Encoding: Cp1252
Language: pt
Country: PT
--></g></svg>