<?xml version="1.0" encoding="UTF-8" standalone="no"?><svg xmlns="http://www.w3.org/2000/svg" xmlns:xlink="http://www.w3.org/1999/xlink" contentScriptType="application/ecmascript" contentStyleType="text/css" height="691px" preserveAspectRatio="none" style="width:540px;height:691px;background:#FFFFFF;" version="1.1" viewBox="0 0 540 691" width="540px" zoomAndPan="magnify"><defs><filter height="300%" id="f17t0n2x4g3ofu" width="300%" x="-1" y="-1"><feGaussianBlur result="blurOut" stdDeviation="2.0"/><feColorMatrix in="blurOut" result="blurOut2" type="matrix" values="0 0 0 0 0 0 0 0 0 0 0 0 0 0 0 0 0 0 .4 0"/><feOffset dx="4.0" dy="4.0" in="blurOut2" result="blurOut3"/><feBlend in="SourceGraphic" in2="blurOut3" mode="normal"/></filter></defs><g><!--MD5=[c508b5b6bbe276ff5e2700b6641f837f]
class Appointment--><rect codeLine="5" fill="#FEFECE" filter="url(#f17t0n2x4g3ofu)" height="40" id="Appointment" style="stroke:#A80036;stroke-width:1.5;" width="101" x="228.5" y="139"/><ellipse cx="243.5" cy="155" fill="#ADD1B2" rx="11" ry="11" style="stroke:#A80036;stroke-width:1.0;"/><path d="M246.2656,150.875 Q246.4219,150.6563 246.6094,150.5469 Q246.7969,150.4375 247.0156,150.4375 Q247.3906,150.4375 247.625,150.7031 Q247.8594,150.9531 247.8594,151.5625 L247.8594,153.0156 Q247.8594,153.625 247.625,153.8906 Q247.3906,154.1563 247.0156,154.1563 Q246.6719,154.1563 246.4688,153.9531 Q246.2656,153.7656 246.1563,153.25 Q246.1094,152.8906 245.9219,152.7031 Q245.5938,152.3281 244.9844,152.1094 Q244.375,151.8906 243.75,151.8906 Q242.9844,151.8906 242.3438,152.2188 Q241.7188,152.5469 241.2188,153.2969 Q240.7344,154.0469 240.7344,155.0781 L240.7344,156.1719 Q240.7344,157.4063 241.625,158.2344 Q242.5156,159.0469 244.1094,159.0469 Q245.0469,159.0469 245.7031,158.7969 Q246.0938,158.6406 246.5156,158.2031 Q246.7813,157.9375 246.9219,157.8594 Q247.0781,157.7813 247.2813,157.7813 Q247.6094,157.7813 247.8594,158.0469 Q248.125,158.2969 248.125,158.6406 Q248.125,158.9844 247.7813,159.3906 Q247.2813,159.9688 246.4844,160.2969 Q245.4063,160.75 244.1094,160.75 Q242.5938,160.75 241.3906,160.125 Q240.4063,159.625 239.7188,158.5625 Q239.0313,157.4844 239.0313,156.2031 L239.0313,155.0469 Q239.0313,153.7188 239.6406,152.5781 Q240.2656,151.4219 241.3594,150.8125 Q242.4531,150.1875 243.6875,150.1875 Q244.4219,150.1875 245.0625,150.3594 Q245.7188,150.5156 246.2656,150.875 Z " fill="#000000"/><text fill="#000000" font-family="sans-serif" font-size="12" lengthAdjust="spacing" textLength="69" x="257.5" y="159.9102">Appointment</text><line style="stroke:#A80036;stroke-width:1.5;" x1="229.5" x2="328.5" y1="171" y2="171"/><!--MD5=[0e501da62322464167c8ec4d233a6b7e]
class VaccineType--><rect codeLine="7" fill="#FEFECE" filter="url(#f17t0n2x4g3ofu)" height="40" id="VaccineType" style="stroke:#A80036;stroke-width:1.5;" width="101" x="182.5" y="333"/><ellipse cx="197.5" cy="349" fill="#ADD1B2" rx="11" ry="11" style="stroke:#A80036;stroke-width:1.0;"/><path d="M200.2656,344.875 Q200.4219,344.6563 200.6094,344.5469 Q200.7969,344.4375 201.0156,344.4375 Q201.3906,344.4375 201.625,344.7031 Q201.8594,344.9531 201.8594,345.5625 L201.8594,347.0156 Q201.8594,347.625 201.625,347.8906 Q201.3906,348.1563 201.0156,348.1563 Q200.6719,348.1563 200.4688,347.9531 Q200.2656,347.7656 200.1563,347.25 Q200.1094,346.8906 199.9219,346.7031 Q199.5938,346.3281 198.9844,346.1094 Q198.375,345.8906 197.75,345.8906 Q196.9844,345.8906 196.3438,346.2188 Q195.7188,346.5469 195.2188,347.2969 Q194.7344,348.0469 194.7344,349.0781 L194.7344,350.1719 Q194.7344,351.4063 195.625,352.2344 Q196.5156,353.0469 198.1094,353.0469 Q199.0469,353.0469 199.7031,352.7969 Q200.0938,352.6406 200.5156,352.2031 Q200.7813,351.9375 200.9219,351.8594 Q201.0781,351.7813 201.2813,351.7813 Q201.6094,351.7813 201.8594,352.0469 Q202.125,352.2969 202.125,352.6406 Q202.125,352.9844 201.7813,353.3906 Q201.2813,353.9688 200.4844,354.2969 Q199.4063,354.75 198.1094,354.75 Q196.5938,354.75 195.3906,354.125 Q194.4063,353.625 193.7188,352.5625 Q193.0313,351.4844 193.0313,350.2031 L193.0313,349.0469 Q193.0313,347.7188 193.6406,346.5781 Q194.2656,345.4219 195.3594,344.8125 Q196.4531,344.1875 197.6875,344.1875 Q198.4219,344.1875 199.0625,344.3594 Q199.7188,344.5156 200.2656,344.875 Z " fill="#000000"/><text fill="#000000" font-family="sans-serif" font-size="12" lengthAdjust="spacing" textLength="69" x="211.5" y="353.9102">VaccineType</text><line style="stroke:#A80036;stroke-width:1.5;" x1="183.5" x2="282.5" y1="365" y2="365"/><!--MD5=[72be06cc7ae02ccc98efe28a50e62246]
class SNSUser--><rect codeLine="9" fill="#FEFECE" filter="url(#f17t0n2x4g3ofu)" height="150.6875" id="SNSUser" style="stroke:#A80036;stroke-width:1.5;" width="84" x="341" y="527"/><ellipse cx="356" cy="543" fill="#ADD1B2" rx="11" ry="11" style="stroke:#A80036;stroke-width:1.0;"/><path d="M358.7656,538.875 Q358.9219,538.6563 359.1094,538.5469 Q359.2969,538.4375 359.5156,538.4375 Q359.8906,538.4375 360.125,538.7031 Q360.3594,538.9531 360.3594,539.5625 L360.3594,541.0156 Q360.3594,541.625 360.125,541.8906 Q359.8906,542.1563 359.5156,542.1563 Q359.1719,542.1563 358.9688,541.9531 Q358.7656,541.7656 358.6563,541.25 Q358.6094,540.8906 358.4219,540.7031 Q358.0938,540.3281 357.4844,540.1094 Q356.875,539.8906 356.25,539.8906 Q355.4844,539.8906 354.8438,540.2188 Q354.2188,540.5469 353.7188,541.2969 Q353.2344,542.0469 353.2344,543.0781 L353.2344,544.1719 Q353.2344,545.4063 354.125,546.2344 Q355.0156,547.0469 356.6094,547.0469 Q357.5469,547.0469 358.2031,546.7969 Q358.5938,546.6406 359.0156,546.2031 Q359.2813,545.9375 359.4219,545.8594 Q359.5781,545.7813 359.7813,545.7813 Q360.1094,545.7813 360.3594,546.0469 Q360.625,546.2969 360.625,546.6406 Q360.625,546.9844 360.2813,547.3906 Q359.7813,547.9688 358.9844,548.2969 Q357.9063,548.75 356.6094,548.75 Q355.0938,548.75 353.8906,548.125 Q352.9063,547.625 352.2188,546.5625 Q351.5313,545.4844 351.5313,544.2031 L351.5313,543.0469 Q351.5313,541.7188 352.1406,540.5781 Q352.7656,539.4219 353.8594,538.8125 Q354.9531,538.1875 356.1875,538.1875 Q356.9219,538.1875 357.5625,538.3594 Q358.2188,538.5156 358.7656,538.875 Z " fill="#000000"/><text fill="#000000" font-family="sans-serif" font-size="12" lengthAdjust="spacing" textLength="52" x="370" y="547.9102">SNSUser</text><line style="stroke:#A80036;stroke-width:1.5;" x1="342" x2="424" y1="559" y2="559"/><text fill="#000000" font-family="sans-serif" font-size="11" lengthAdjust="spacing" textLength="58" x="347" y="574.4189">-citizenCard</text><text fill="#000000" font-family="sans-serif" font-size="11" lengthAdjust="spacing" textLength="59" x="347" y="588.2549">-snsNumber</text><text fill="#000000" font-family="sans-serif" font-size="11" lengthAdjust="spacing" textLength="30" x="347" y="602.0908">-name</text><text fill="#000000" font-family="sans-serif" font-size="11" lengthAdjust="spacing" textLength="44" x="347" y="615.9268">-birthDay</text><text fill="#000000" font-family="sans-serif" font-size="11" lengthAdjust="spacing" textLength="38" x="347" y="629.7627">-gender</text><text fill="#000000" font-family="sans-serif" font-size="11" lengthAdjust="spacing" textLength="71" x="347" y="643.5986">-phoneNumber</text><text fill="#000000" font-family="sans-serif" font-size="11" lengthAdjust="spacing" textLength="28" x="347" y="657.4346">-email</text><text fill="#000000" font-family="sans-serif" font-size="11" lengthAdjust="spacing" textLength="44" x="347" y="671.2705">-address</text><!--MD5=[de60e6d4f424ae4d0522096f76a59010]
class VaccinationCenter--><rect codeLine="20" fill="#FEFECE" filter="url(#f17t0n2x4g3ofu)" height="192.1953" id="VaccinationCenter" style="stroke:#A80036;stroke-width:1.5;" width="140" x="7" y="257"/><ellipse cx="25.6" cy="273" fill="#ADD1B2" rx="11" ry="11" style="stroke:#A80036;stroke-width:1.0;"/><path d="M28.3656,268.875 Q28.5219,268.6563 28.7094,268.5469 Q28.8969,268.4375 29.1156,268.4375 Q29.4906,268.4375 29.725,268.7031 Q29.9594,268.9531 29.9594,269.5625 L29.9594,271.0156 Q29.9594,271.625 29.725,271.8906 Q29.4906,272.1563 29.1156,272.1563 Q28.7719,272.1563 28.5688,271.9531 Q28.3656,271.7656 28.2563,271.25 Q28.2094,270.8906 28.0219,270.7031 Q27.6938,270.3281 27.0844,270.1094 Q26.475,269.8906 25.85,269.8906 Q25.0844,269.8906 24.4438,270.2188 Q23.8188,270.5469 23.3188,271.2969 Q22.8344,272.0469 22.8344,273.0781 L22.8344,274.1719 Q22.8344,275.4063 23.725,276.2344 Q24.6156,277.0469 26.2094,277.0469 Q27.1469,277.0469 27.8031,276.7969 Q28.1938,276.6406 28.6156,276.2031 Q28.8813,275.9375 29.0219,275.8594 Q29.1781,275.7813 29.3813,275.7813 Q29.7094,275.7813 29.9594,276.0469 Q30.225,276.2969 30.225,276.6406 Q30.225,276.9844 29.8813,277.3906 Q29.3813,277.9688 28.5844,278.2969 Q27.5063,278.75 26.2094,278.75 Q24.6938,278.75 23.4906,278.125 Q22.5063,277.625 21.8188,276.5625 Q21.1313,275.4844 21.1313,274.2031 L21.1313,273.0469 Q21.1313,271.7188 21.7406,270.5781 Q22.3656,269.4219 23.4594,268.8125 Q24.5531,268.1875 25.7875,268.1875 Q26.5219,268.1875 27.1625,268.3594 Q27.8188,268.5156 28.3656,268.875 Z " fill="#000000"/><text fill="#000000" font-family="sans-serif" font-size="12" lengthAdjust="spacing" textLength="100" x="40.4" y="277.9102">VaccinationCenter</text><line style="stroke:#A80036;stroke-width:1.5;" x1="8" x2="146" y1="289" y2="289"/><text fill="#000000" font-family="sans-serif" font-size="11" lengthAdjust="spacing" textLength="30" x="13" y="304.4189">-name</text><text fill="#000000" font-family="sans-serif" font-size="11" lengthAdjust="spacing" textLength="44" x="13" y="318.2549">-address</text><text fill="#000000" font-family="sans-serif" font-size="11" lengthAdjust="spacing" textLength="70" x="13" y="332.0908">-emailAddress</text><text fill="#000000" font-family="sans-serif" font-size="11" lengthAdjust="spacing" textLength="71" x="13" y="345.9268">-phoneNumber</text><text fill="#000000" font-family="sans-serif" font-size="11" lengthAdjust="spacing" textLength="57" x="13" y="359.7627">-faxNumber</text><text fill="#000000" font-family="sans-serif" font-size="11" lengthAdjust="spacing" textLength="85" x="13" y="373.5986">-websiteAddress</text><text fill="#000000" font-family="sans-serif" font-size="11" lengthAdjust="spacing" textLength="71" x="13" y="387.4346">-openingHours</text><text fill="#000000" font-family="sans-serif" font-size="11" lengthAdjust="spacing" textLength="67" x="13" y="401.2705">-closingHours</text><text fill="#000000" font-family="sans-serif" font-size="11" lengthAdjust="spacing" textLength="61" x="13" y="415.1064">-slotDuration</text><text fill="#000000" font-family="sans-serif" font-size="11" lengthAdjust="spacing" textLength="128" x="13" y="428.9424">-maximumVaccinesPerSlot</text><text fill="#000000" font-family="sans-serif" font-size="11" lengthAdjust="spacing" textLength="59" x="13" y="442.7783">-coordinator</text><!--MD5=[02e4b9b7573f1156f41e60aa5b4e25a4]
class Company--><rect codeLine="34" fill="#FEFECE" filter="url(#f17t0n2x4g3ofu)" height="53.8359" id="Company" style="stroke:#A80036;stroke-width:1.5;" width="85" x="236.5" y="7"/><ellipse cx="251.5" cy="23" fill="#ADD1B2" rx="11" ry="11" style="stroke:#A80036;stroke-width:1.0;"/><path d="M254.2656,18.875 Q254.4219,18.6563 254.6094,18.5469 Q254.7969,18.4375 255.0156,18.4375 Q255.3906,18.4375 255.625,18.7031 Q255.8594,18.9531 255.8594,19.5625 L255.8594,21.0156 Q255.8594,21.625 255.625,21.8906 Q255.3906,22.1563 255.0156,22.1563 Q254.6719,22.1563 254.4688,21.9531 Q254.2656,21.7656 254.1563,21.25 Q254.1094,20.8906 253.9219,20.7031 Q253.5938,20.3281 252.9844,20.1094 Q252.375,19.8906 251.75,19.8906 Q250.9844,19.8906 250.3438,20.2188 Q249.7188,20.5469 249.2188,21.2969 Q248.7344,22.0469 248.7344,23.0781 L248.7344,24.1719 Q248.7344,25.4063 249.625,26.2344 Q250.5156,27.0469 252.1094,27.0469 Q253.0469,27.0469 253.7031,26.7969 Q254.0938,26.6406 254.5156,26.2031 Q254.7813,25.9375 254.9219,25.8594 Q255.0781,25.7813 255.2813,25.7813 Q255.6094,25.7813 255.8594,26.0469 Q256.125,26.2969 256.125,26.6406 Q256.125,26.9844 255.7813,27.3906 Q255.2813,27.9688 254.4844,28.2969 Q253.4063,28.75 252.1094,28.75 Q250.5938,28.75 249.3906,28.125 Q248.4063,27.625 247.7188,26.5625 Q247.0313,25.4844 247.0313,24.2031 L247.0313,23.0469 Q247.0313,21.7188 247.6406,20.5781 Q248.2656,19.4219 249.3594,18.8125 Q250.4531,18.1875 251.6875,18.1875 Q252.4219,18.1875 253.0625,18.3594 Q253.7188,18.5156 254.2656,18.875 Z " fill="#000000"/><text fill="#000000" font-family="sans-serif" font-size="12" lengthAdjust="spacing" textLength="53" x="265.5" y="27.9102">Company</text><line style="stroke:#A80036;stroke-width:1.5;" x1="237.5" x2="320.5" y1="39" y2="39"/><text fill="#000000" font-family="sans-serif" font-size="11" lengthAdjust="spacing" textLength="59" x="242.5" y="54.4189">-designation</text><!--MD5=[03960189e81aa2c066c762ffabbee709]
class Receptionist--><rect codeLine="38" fill="#FEFECE" filter="url(#f17t0n2x4g3ofu)" height="40" id="Receptionist" style="stroke:#A80036;stroke-width:1.5;" width="101" x="425.5" y="333"/><ellipse cx="440.5" cy="349" fill="#ADD1B2" rx="11" ry="11" style="stroke:#A80036;stroke-width:1.0;"/><path d="M443.2656,344.875 Q443.4219,344.6563 443.6094,344.5469 Q443.7969,344.4375 444.0156,344.4375 Q444.3906,344.4375 444.625,344.7031 Q444.8594,344.9531 444.8594,345.5625 L444.8594,347.0156 Q444.8594,347.625 444.625,347.8906 Q444.3906,348.1563 444.0156,348.1563 Q443.6719,348.1563 443.4688,347.9531 Q443.2656,347.7656 443.1563,347.25 Q443.1094,346.8906 442.9219,346.7031 Q442.5938,346.3281 441.9844,346.1094 Q441.375,345.8906 440.75,345.8906 Q439.9844,345.8906 439.3438,346.2188 Q438.7188,346.5469 438.2188,347.2969 Q437.7344,348.0469 437.7344,349.0781 L437.7344,350.1719 Q437.7344,351.4063 438.625,352.2344 Q439.5156,353.0469 441.1094,353.0469 Q442.0469,353.0469 442.7031,352.7969 Q443.0938,352.6406 443.5156,352.2031 Q443.7813,351.9375 443.9219,351.8594 Q444.0781,351.7813 444.2813,351.7813 Q444.6094,351.7813 444.8594,352.0469 Q445.125,352.2969 445.125,352.6406 Q445.125,352.9844 444.7813,353.3906 Q444.2813,353.9688 443.4844,354.2969 Q442.4063,354.75 441.1094,354.75 Q439.5938,354.75 438.3906,354.125 Q437.4063,353.625 436.7188,352.5625 Q436.0313,351.4844 436.0313,350.2031 L436.0313,349.0469 Q436.0313,347.7188 436.6406,346.5781 Q437.2656,345.4219 438.3594,344.8125 Q439.4531,344.1875 440.6875,344.1875 Q441.4219,344.1875 442.0625,344.3594 Q442.7188,344.5156 443.2656,344.875 Z " fill="#000000"/><text fill="#000000" font-family="sans-serif" font-size="12" lengthAdjust="spacing" textLength="69" x="454.5" y="353.9102">Receptionist</text><line style="stroke:#A80036;stroke-width:1.5;" x1="426.5" x2="525.5" y1="365" y2="365"/><!--MD5=[7421f545a0d8420c5bec41e74b387d9c]
class Employee--><rect codeLine="40" fill="#FEFECE" filter="url(#f17t0n2x4g3ofu)" height="40" id="Employee" style="stroke:#A80036;stroke-width:1.5;" width="87" x="406.5" y="139"/><ellipse cx="421.5" cy="155" fill="#ADD1B2" rx="11" ry="11" style="stroke:#A80036;stroke-width:1.0;"/><path d="M424.2656,150.875 Q424.4219,150.6563 424.6094,150.5469 Q424.7969,150.4375 425.0156,150.4375 Q425.3906,150.4375 425.625,150.7031 Q425.8594,150.9531 425.8594,151.5625 L425.8594,153.0156 Q425.8594,153.625 425.625,153.8906 Q425.3906,154.1563 425.0156,154.1563 Q424.6719,154.1563 424.4688,153.9531 Q424.2656,153.7656 424.1563,153.25 Q424.1094,152.8906 423.9219,152.7031 Q423.5938,152.3281 422.9844,152.1094 Q422.375,151.8906 421.75,151.8906 Q420.9844,151.8906 420.3438,152.2188 Q419.7188,152.5469 419.2188,153.2969 Q418.7344,154.0469 418.7344,155.0781 L418.7344,156.1719 Q418.7344,157.4063 419.625,158.2344 Q420.5156,159.0469 422.1094,159.0469 Q423.0469,159.0469 423.7031,158.7969 Q424.0938,158.6406 424.5156,158.2031 Q424.7813,157.9375 424.9219,157.8594 Q425.0781,157.7813 425.2813,157.7813 Q425.6094,157.7813 425.8594,158.0469 Q426.125,158.2969 426.125,158.6406 Q426.125,158.9844 425.7813,159.3906 Q425.2813,159.9688 424.4844,160.2969 Q423.4063,160.75 422.1094,160.75 Q420.5938,160.75 419.3906,160.125 Q418.4063,159.625 417.7188,158.5625 Q417.0313,157.4844 417.0313,156.2031 L417.0313,155.0469 Q417.0313,153.7188 417.6406,152.5781 Q418.2656,151.4219 419.3594,150.8125 Q420.4531,150.1875 421.6875,150.1875 Q422.4219,150.1875 423.0625,150.3594 Q423.7188,150.5156 424.2656,150.875 Z " fill="#000000"/><text fill="#000000" font-family="sans-serif" font-size="12" lengthAdjust="spacing" textLength="55" x="435.5" y="159.9102">Employee</text><line style="stroke:#A80036;stroke-width:1.5;" x1="407.5" x2="492.5" y1="171" y2="171"/><!--MD5=[394476be1d9cc203bf0bce63db5cbcd1]
link Company to Appointment--><path codeLine="42" d="M279,61.09 C279,84.36 279,117.89 279,138.79 " fill="none" id="Company-Appointment" style="stroke:#A80036;stroke-width:1.0;"/><polygon fill="#000000" points="284,105.1758,286.9389,96.1307,281.0611,96.1307,284,105.1758" style="stroke:#000000;stroke-width:1.0;"/><text fill="#000000" font-family="sans-serif" font-size="13" lengthAdjust="spacing" textLength="37" x="293" y="105.4951">knows</text><text fill="#000000" font-family="sans-serif" font-size="13" lengthAdjust="spacing" textLength="7" x="271.2344" y="82.3175">1</text><text fill="#000000" font-family="sans-serif" font-size="13" lengthAdjust="spacing" textLength="5" x="273.2656" y="128.0501">*</text><!--MD5=[d63168792e55d79de1fe85cd885704ff]
link Appointment to VaccineType--><path codeLine="43" d="M274.42,179.11 C265.6,215.91 246.36,296.22 237.56,332.97 " fill="none" id="Appointment-VaccineType" style="stroke:#A80036;stroke-width:1.0;"/><polygon fill="#000000" points="269.8351,223.0382,274.8005,214.9267,269.0844,213.5573,269.8351,223.0382" style="stroke:#000000;stroke-width:1.0;"/><text fill="#000000" font-family="sans-serif" font-size="13" lengthAdjust="spacing" textLength="21" x="280" y="223.4951">has</text><text fill="#000000" font-family="sans-serif" font-size="13" lengthAdjust="spacing" textLength="7" x="265.1475" y="200.5605">1</text><text fill="#000000" font-family="sans-serif" font-size="13" lengthAdjust="spacing" textLength="7" x="230.8714" y="322.2829">1</text><!--MD5=[d139302f00cc62b984b6371d0fde1842]
link Appointment to VaccinationCenter--><path codeLine="44" d="M255.63,179.19 C244.75,188.18 231.66,199.07 220,209 C195.3,230.03 188.28,234.4 165,257 C159.11,262.72 153.11,268.73 147.16,274.85 " fill="none" id="Appointment-VaccinationCenter" style="stroke:#A80036;stroke-width:1.0;"/><polygon fill="#000000" points="221.25,221.4829,229.9777,217.7044,226.0899,213.296,221.25,221.4829" style="stroke:#000000;stroke-width:1.0;"/><text fill="#000000" font-family="sans-serif" font-size="13" lengthAdjust="spacing" textLength="21" x="234" y="223.4951">has</text><text fill="#000000" font-family="sans-serif" font-size="13" lengthAdjust="spacing" textLength="5" x="243.3541" y="200.663">*</text><text fill="#000000" font-family="sans-serif" font-size="13" lengthAdjust="spacing" textLength="7" x="155.2166" y="262.931">1</text><!--MD5=[eebe9b198877275d05dd12630ed9e401]
link Company to VaccinationCenter--><path codeLine="45" d="M239.95,61.07 C214.02,80.07 180.86,107.86 159,139 C134.18,174.35 115.63,218.21 102.51,256.93 " fill="none" id="Company-VaccinationCenter" style="stroke:#A80036;stroke-width:1.0;"/><polygon fill="#000000" points="161.1279,163.2686,168.7292,157.5528,163.9178,154.1765,161.1279,163.2686" style="stroke:#000000;stroke-width:1.0;"/><text fill="#000000" font-family="sans-serif" font-size="13" lengthAdjust="spacing" textLength="37" x="173" y="164.4951">knows</text><text fill="#000000" font-family="sans-serif" font-size="13" lengthAdjust="spacing" textLength="7" x="223.6422" y="82.2931">1</text><text fill="#000000" font-family="sans-serif" font-size="13" lengthAdjust="spacing" textLength="5" x="99.3436" y="246.1383">*</text><!--MD5=[e30c801b3ac7b558e113223f2c8633df]
link Appointment to Receptionist--><path codeLine="46" d="M326.16,179.23 C342.05,187.04 359.23,197.07 373,209 C415.33,245.65 449.78,302.97 465.98,332.69 " fill="none" id="Appointment-Receptionist" style="stroke:#A80036;stroke-width:1.0;"/><polygon fill="#000000" points="391.6325,214.4798,395.5519,223.1452,399.8968,219.1865,391.6325,214.4798" style="stroke:#000000;stroke-width:1.0;"/><text fill="#000000" font-family="sans-serif" font-size="13" lengthAdjust="spacing" textLength="59" x="404" y="223.4951">schedules</text><!--MD5=[7690a4971bd8576b261a40a0340b8203]
link Receptionist to SNSUser--><path codeLine="47" d="M468.86,373.01 C456.65,405.5 431.15,473.36 411.1,526.73 " fill="none" id="Receptionist-SNSUser" style="stroke:#A80036;stroke-width:1.0;"/><polygon fill="#000000" points="429.2413,492.8563,435.1739,485.4229,429.6717,483.3555,429.2413,492.8563" style="stroke:#000000;stroke-width:1.0;"/><text fill="#000000" font-family="sans-serif" font-size="13" lengthAdjust="spacing" textLength="77" x="440" y="493.4951">schedules for</text><text fill="#000000" font-family="sans-serif" font-size="13" lengthAdjust="spacing" textLength="7" x="458.8675" y="394.4324">1</text><text fill="#000000" font-family="sans-serif" font-size="13" lengthAdjust="spacing" textLength="7" x="406.4447" y="516.2724">1</text><!--MD5=[19ab43ca298c1d9fd9821023da273d0e]
link Appointment to SNSUser--><path codeLine="48" d="M293.48,179.11 C299.43,187.81 305.88,198.5 310,209 C351.53,314.81 369.81,446.14 377.58,526.86 " fill="none" id="Appointment-SNSUser" style="stroke:#A80036;stroke-width:1.0;"/><polygon fill="#000000" points="373.1753,358.0357,373.9057,348.5532,368.1926,349.9349,373.1753,358.0357" style="stroke:#000000;stroke-width:1.0;"/><text fill="#000000" font-family="sans-serif" font-size="13" lengthAdjust="spacing" textLength="21" x="381" y="358.4951">has</text><text fill="#000000" font-family="sans-serif" font-size="13" lengthAdjust="spacing" textLength="7" x="289.5681" y="200.5605">1</text><text fill="#000000" font-family="sans-serif" font-size="13" lengthAdjust="spacing" textLength="7" x="369.7019" y="516.1545">1</text><!--MD5=[bfff716514ca687b645fe473c6e098a4]
reverse link Employee to Receptionist--><path codeLine="49" d="M480.77,195.56 C483.29,199.88 485.46,204.39 487,209 C501.24,251.5 490.02,304.93 482.1,332.91 " fill="none" id="Employee-backto-Receptionist" style="stroke:#A80036;stroke-width:1.0;"/><polygon fill="none" points="475.05,199.6,469.13,179.25,486.45,191.46,475.05,199.6" style="stroke:#A80036;stroke-width:1.0;"/><!--MD5=[09366576ee87d48d594df10cacc83f45]
link Company to Employee--><path codeLine="50" d="M315.26,61.09 C347.72,84.43 394.52,118.09 423.56,138.98 " fill="none" id="Company-Employee" style="stroke:#A80036;stroke-width:1.0;"/><polygon fill="#000000" points="388.0592,103.0952,382.432,95.428,379.0001,100.1999,388.0592,103.0952" style="stroke:#000000;stroke-width:1.0;"/><text fill="#000000" font-family="sans-serif" font-size="13" lengthAdjust="spacing" textLength="37" x="393" y="105.4951">knows</text><!--MD5=[ce5d96c013be0b7dcaa74feaff167c9d]
@startuml  US02_DM
hide methods
skinparam classAttributeIconSize 0


class Appointment {}

class VaccineType {}

class SNSUser {
  - citizenCard
  - snsNumber
  - name
  - birthDay
  - gender
  - phoneNumber
  - email
  - address
}

class VaccinationCenter{
  -name
  -address
  -emailAddress
  -phoneNumber
  -faxNumber
  -websiteAddress
  -openingHours  
  -closingHours
  -slotDuration
  -maximumVaccinesPerSlot
  -coordinator
}

class Company{
  -designation
}

class Receptionist {}

class Employee {}

Company "1" - - "*" Appointment : knows >
Appointment "1"  - - "1" VaccineType : has >
Appointment "*" - - "1" VaccinationCenter : has >
Company "1" - - "*" VaccinationCenter : knows >
Appointment - - Receptionist : schedules <
Receptionist "1" - - "1" SNSUser : schedules for >
Appointment "1" - - "1" SNSUser : has >
Employee <|- - Receptionist
Company - - Employee : knows >


@enduml

PlantUML version 1.2022.0(Tue Jan 11 16:16:42 WET 2022)
(GPL source distribution)
Java Runtime: Java(TM) SE Runtime Environment
JVM: Java HotSpot(TM) 64-Bit Server VM
Default Encoding: Cp1252
Language: pt
Country: PT
--></g></svg>