<?xml version="1.0" encoding="UTF-8" standalone="no"?><svg xmlns="http://www.w3.org/2000/svg" xmlns:xlink="http://www.w3.org/1999/xlink" contentScriptType="application/ecmascript" contentStyleType="text/css" height="403px" preserveAspectRatio="none" style="width:1183px;height:403px;background:#FFFFFF;" version="1.1" viewBox="0 0 1183 403" width="1183px" zoomAndPan="magnify"><defs><filter height="300%" id="f10j2ib4v3l0ty" width="300%" x="-1" y="-1"><feGaussianBlur result="blurOut" stdDeviation="2.0"/><feColorMatrix in="blurOut" result="blurOut2" type="matrix" values="0 0 0 0 0 0 0 0 0 0 0 0 0 0 0 0 0 0 .4 0"/><feOffset dx="4.0" dy="4.0" in="blurOut2" result="blurOut3"/><feBlend in="SourceGraphic" in2="blurOut3" mode="normal"/></filter></defs><g><!--MD5=[de60e6d4f424ae4d0522096f76a59010]
class VaccinationCenter--><rect codeLine="5" fill="#FEFECE" filter="url(#f10j2ib4v3l0ty)" height="129.6328" id="VaccinationCenter" style="stroke:#A80036;stroke-width:1.5;" width="147" x="770" y="100.5"/><ellipse cx="785" cy="116.5" fill="#ADD1B2" rx="11" ry="11" style="stroke:#A80036;stroke-width:1.0;"/><path d="M787.9688,122.1406 Q787.3906,122.4375 786.75,122.5781 Q786.1094,122.7344 785.4063,122.7344 Q782.9063,122.7344 781.5781,121.0938 Q780.2656,119.4375 780.2656,116.3125 Q780.2656,113.1875 781.5781,111.5313 Q782.9063,109.875 785.4063,109.875 Q786.1094,109.875 786.75,110.0313 Q787.4063,110.1875 787.9688,110.4844 L787.9688,113.2031 Q787.3438,112.625 786.75,112.3594 Q786.1563,112.0781 785.5313,112.0781 Q784.1875,112.0781 783.5,113.1563 Q782.8125,114.2188 782.8125,116.3125 Q782.8125,118.4063 783.5,119.4844 Q784.1875,120.5469 785.5313,120.5469 Q786.1563,120.5469 786.75,120.2813 Q787.3438,120 787.9688,119.4219 L787.9688,122.1406 Z " fill="#000000"/><text fill="#000000" font-family="sans-serif" font-size="12" lengthAdjust="spacing" textLength="115" x="799" y="120.6543">VaccinationCenter</text><line style="stroke:#A80036;stroke-width:1.5;" x1="771" x2="916" y1="132.5" y2="132.5"/><text fill="#000000" font-family="sans-serif" font-size="11" lengthAdjust="spacing" textLength="36" x="776" y="146.7104">-name</text><text fill="#000000" font-family="sans-serif" font-size="11" lengthAdjust="spacing" textLength="82" x="776" y="159.5151">-emailAddress</text><text fill="#000000" font-family="sans-serif" font-size="11" lengthAdjust="spacing" textLength="84" x="776" y="172.3198">-phoneNumber</text><text fill="#000000" font-family="sans-serif" font-size="11" lengthAdjust="spacing" textLength="66" x="776" y="185.1245">-faxNumber</text><text fill="#000000" font-family="sans-serif" font-size="11" lengthAdjust="spacing" textLength="95" x="776" y="197.9292">-websiteAddress</text><text fill="#000000" font-family="sans-serif" font-size="11" lengthAdjust="spacing" textLength="83" x="776" y="210.7339">-openingHours</text><text fill="#000000" font-family="sans-serif" font-size="11" lengthAdjust="spacing" textLength="78" x="776" y="223.5386">-closingHours</text><!--MD5=[45c6380d22fb72521f5065026b277fb9]
class Slot--><rect codeLine="15" fill="#FEFECE" filter="url(#f10j2ib4v3l0ty)" height="65.6094" id="Slot" style="stroke:#A80036;stroke-width:1.5;" width="127" x="1028.5" y="133.5"/><ellipse cx="1075.75" cy="149.5" fill="#ADD1B2" rx="11" ry="11" style="stroke:#A80036;stroke-width:1.0;"/><path d="M1078.7188,155.1406 Q1078.1406,155.4375 1077.5,155.5781 Q1076.8594,155.7344 1076.1563,155.7344 Q1073.6563,155.7344 1072.3281,154.0938 Q1071.0156,152.4375 1071.0156,149.3125 Q1071.0156,146.1875 1072.3281,144.5313 Q1073.6563,142.875 1076.1563,142.875 Q1076.8594,142.875 1077.5,143.0313 Q1078.1563,143.1875 1078.7188,143.4844 L1078.7188,146.2031 Q1078.0938,145.625 1077.5,145.3594 Q1076.9063,145.0781 1076.2813,145.0781 Q1074.9375,145.0781 1074.25,146.1563 Q1073.5625,147.2188 1073.5625,149.3125 Q1073.5625,151.4063 1074.25,152.4844 Q1074.9375,153.5469 1076.2813,153.5469 Q1076.9063,153.5469 1077.5,153.2813 Q1078.0938,153 1078.7188,152.4219 L1078.7188,155.1406 Z " fill="#000000"/><text fill="#000000" font-family="sans-serif" font-size="12" lengthAdjust="spacing" textLength="24" x="1096.25" y="153.6543">Slot</text><line style="stroke:#A80036;stroke-width:1.5;" x1="1029.5" x2="1154.5" y1="165.5" y2="165.5"/><text fill="#000000" font-family="sans-serif" font-size="11" lengthAdjust="spacing" textLength="51" x="1034.5" y="179.7104">-duration</text><text fill="#000000" font-family="sans-serif" font-size="11" lengthAdjust="spacing" textLength="115" x="1034.5" y="192.5151">-nOfVaccinesPerSlot</text><!--MD5=[7421f545a0d8420c5bec41e74b387d9c]
class Employee--><rect codeLine="20" fill="#FEFECE" filter="url(#f10j2ib4v3l0ty)" height="104.0234" id="Employee" style="stroke:#A80036;stroke-width:1.5;" width="123" x="210" y="204.5"/><ellipse cx="238.95" cy="220.5" fill="#ADD1B2" rx="11" ry="11" style="stroke:#A80036;stroke-width:1.0;"/><path d="M241.9188,226.1406 Q241.3406,226.4375 240.7,226.5781 Q240.0594,226.7344 239.3563,226.7344 Q236.8563,226.7344 235.5281,225.0938 Q234.2156,223.4375 234.2156,220.3125 Q234.2156,217.1875 235.5281,215.5313 Q236.8563,213.875 239.3563,213.875 Q240.0594,213.875 240.7,214.0313 Q241.3563,214.1875 241.9188,214.4844 L241.9188,217.2031 Q241.2938,216.625 240.7,216.3594 Q240.1063,216.0781 239.4813,216.0781 Q238.1375,216.0781 237.45,217.1563 Q236.7625,218.2188 236.7625,220.3125 Q236.7625,222.4063 237.45,223.4844 Q238.1375,224.5469 239.4813,224.5469 Q240.1063,224.5469 240.7,224.2813 Q241.2938,224 241.9188,223.4219 L241.9188,226.1406 Z " fill="#000000"/><text fill="#000000" font-family="sans-serif" font-size="12" lengthAdjust="spacing" textLength="60" x="256.05" y="224.6543">Employee</text><line style="stroke:#A80036;stroke-width:1.5;" x1="211" x2="332" y1="236.5" y2="236.5"/><text fill="#000000" font-family="sans-serif" font-size="11" lengthAdjust="spacing" textLength="14" x="216" y="250.7104">-id</text><text fill="#000000" font-family="sans-serif" font-size="11" lengthAdjust="spacing" textLength="36" x="216" y="263.5151">-name</text><text fill="#000000" font-family="sans-serif" font-size="11" lengthAdjust="spacing" textLength="35" x="216" y="276.3198">-email</text><text fill="#000000" font-family="sans-serif" font-size="11" lengthAdjust="spacing" textLength="39" x="216" y="289.1245">-phone</text><text fill="#000000" font-family="sans-serif" font-size="11" lengthAdjust="spacing" textLength="111" x="216" y="301.9292">-citizenCardNumber</text><!--MD5=[0f39e4cb6f03951afbf6d14bd2505654]
class Address--><rect codeLine="28" fill="#FEFECE" filter="url(#f10j2ib4v3l0ty)" height="91.2188" id="Address" style="stroke:#A80036;stroke-width:1.5;" width="87" x="1048.5" y="235"/><ellipse cx="1065.3" cy="251" fill="#ADD1B2" rx="11" ry="11" style="stroke:#A80036;stroke-width:1.0;"/><path d="M1068.2688,256.6406 Q1067.6906,256.9375 1067.05,257.0781 Q1066.4094,257.2344 1065.7063,257.2344 Q1063.2063,257.2344 1061.8781,255.5938 Q1060.5656,253.9375 1060.5656,250.8125 Q1060.5656,247.6875 1061.8781,246.0313 Q1063.2063,244.375 1065.7063,244.375 Q1066.4094,244.375 1067.05,244.5313 Q1067.7063,244.6875 1068.2688,244.9844 L1068.2688,247.7031 Q1067.6438,247.125 1067.05,246.8594 Q1066.4563,246.5781 1065.8313,246.5781 Q1064.4875,246.5781 1063.8,247.6563 Q1063.1125,248.7188 1063.1125,250.8125 Q1063.1125,252.9063 1063.8,253.9844 Q1064.4875,255.0469 1065.8313,255.0469 Q1066.4563,255.0469 1067.05,254.7813 Q1067.6438,254.5 1068.2688,253.9219 L1068.2688,256.6406 Z " fill="#000000"/><text fill="#000000" font-family="sans-serif" font-size="12" lengthAdjust="spacing" textLength="51" x="1079.7" y="255.1543">Address</text><line style="stroke:#A80036;stroke-width:1.5;" x1="1049.5" x2="1134.5" y1="267" y2="267"/><text fill="#000000" font-family="sans-serif" font-size="11" lengthAdjust="spacing" textLength="38" x="1054.5" y="281.2104">-street</text><text fill="#000000" font-family="sans-serif" font-size="11" lengthAdjust="spacing" textLength="75" x="1054.5" y="294.0151">-doorNumber</text><text fill="#000000" font-family="sans-serif" font-size="11" lengthAdjust="spacing" textLength="68" x="1054.5" y="306.8198">-postalCode</text><text fill="#000000" font-family="sans-serif" font-size="11" lengthAdjust="spacing" textLength="23" x="1054.5" y="319.6245">-city</text><!--MD5=[1eab586b2d892e406b67662793bf7ce1]
class CenterPerformance--><rect codeLine="35" fill="#FEFECE" filter="url(#f10j2ib4v3l0ty)" height="91.2188" id="CenterPerformance" style="stroke:#A80036;stroke-width:1.5;" width="154" x="1015" y="7"/><ellipse cx="1030" cy="23" fill="#ADD1B2" rx="11" ry="11" style="stroke:#A80036;stroke-width:1.0;"/><path d="M1032.9688,28.6406 Q1032.3906,28.9375 1031.75,29.0781 Q1031.1094,29.2344 1030.4063,29.2344 Q1027.9063,29.2344 1026.5781,27.5938 Q1025.2656,25.9375 1025.2656,22.8125 Q1025.2656,19.6875 1026.5781,18.0313 Q1027.9063,16.375 1030.4063,16.375 Q1031.1094,16.375 1031.75,16.5313 Q1032.4063,16.6875 1032.9688,16.9844 L1032.9688,19.7031 Q1032.3438,19.125 1031.75,18.8594 Q1031.1563,18.5781 1030.5313,18.5781 Q1029.1875,18.5781 1028.5,19.6563 Q1027.8125,20.7188 1027.8125,22.8125 Q1027.8125,24.9063 1028.5,25.9844 Q1029.1875,27.0469 1030.5313,27.0469 Q1031.1563,27.0469 1031.75,26.7813 Q1032.3438,26.5 1032.9688,25.9219 L1032.9688,28.6406 Z " fill="#000000"/><text fill="#000000" font-family="sans-serif" font-size="12" lengthAdjust="spacing" textLength="122" x="1044" y="27.1543">CenterPerformance</text><line style="stroke:#A80036;stroke-width:1.5;" x1="1016" x2="1168" y1="39" y2="39"/><text fill="#000000" font-family="sans-serif" font-size="11" lengthAdjust="spacing" textLength="24" x="1021" y="53.2104">-day</text><text fill="#000000" font-family="sans-serif" font-size="11" lengthAdjust="spacing" textLength="93" x="1021" y="66.0151">-maxSumSublist</text><text fill="#000000" font-family="sans-serif" font-size="11" lengthAdjust="spacing" textLength="59" x="1021" y="78.8198">-startTime</text><text fill="#000000" font-family="sans-serif" font-size="11" lengthAdjust="spacing" textLength="70" x="1021" y="91.6245">-endingTime</text><!--MD5=[a3638c1e5b65d287ecad7f06f5c0f212]
class Role--><rect codeLine="42" fill="#FEFECE" filter="url(#f10j2ib4v3l0ty)" height="52.8047" id="Role" style="stroke:#A80036;stroke-width:1.5;" width="82" x="480" y="337"/><ellipse cx="505.35" cy="353" fill="#ADD1B2" rx="11" ry="11" style="stroke:#A80036;stroke-width:1.0;"/><path d="M508.3188,358.6406 Q507.7406,358.9375 507.1,359.0781 Q506.4594,359.2344 505.7563,359.2344 Q503.2563,359.2344 501.9281,357.5938 Q500.6156,355.9375 500.6156,352.8125 Q500.6156,349.6875 501.9281,348.0313 Q503.2563,346.375 505.7563,346.375 Q506.4594,346.375 507.1,346.5313 Q507.7563,346.6875 508.3188,346.9844 L508.3188,349.7031 Q507.6938,349.125 507.1,348.8594 Q506.5063,348.5781 505.8813,348.5781 Q504.5375,348.5781 503.85,349.6563 Q503.1625,350.7188 503.1625,352.8125 Q503.1625,354.9063 503.85,355.9844 Q504.5375,357.0469 505.8813,357.0469 Q506.5063,357.0469 507.1,356.7813 Q507.6938,356.5 508.3188,355.9219 L508.3188,358.6406 Z " fill="#000000"/><text fill="#000000" font-family="sans-serif" font-size="12" lengthAdjust="spacing" textLength="27" x="521.65" y="357.1543">Role</text><line style="stroke:#A80036;stroke-width:1.5;" x1="481" x2="561" y1="369" y2="369"/><text fill="#000000" font-family="sans-serif" font-size="11" lengthAdjust="spacing" textLength="70" x="486" y="383.2104">-designation</text><!--MD5=[02e4b9b7573f1156f41e60aa5b4e25a4]
class Company--><rect codeLine="46" fill="#FEFECE" filter="url(#f10j2ib4v3l0ty)" height="40" id="Company" style="stroke:#A80036;stroke-width:1.5;" width="89" x="7" y="171.5"/><ellipse cx="22" cy="187.5" fill="#ADD1B2" rx="11" ry="11" style="stroke:#A80036;stroke-width:1.0;"/><path d="M24.9688,193.1406 Q24.3906,193.4375 23.75,193.5781 Q23.1094,193.7344 22.4063,193.7344 Q19.9063,193.7344 18.5781,192.0938 Q17.2656,190.4375 17.2656,187.3125 Q17.2656,184.1875 18.5781,182.5313 Q19.9063,180.875 22.4063,180.875 Q23.1094,180.875 23.75,181.0313 Q24.4063,181.1875 24.9688,181.4844 L24.9688,184.2031 Q24.3438,183.625 23.75,183.3594 Q23.1563,183.0781 22.5313,183.0781 Q21.1875,183.0781 20.5,184.1563 Q19.8125,185.2188 19.8125,187.3125 Q19.8125,189.4063 20.5,190.4844 Q21.1875,191.5469 22.5313,191.5469 Q23.1563,191.5469 23.75,191.2813 Q24.3438,191 24.9688,190.4219 L24.9688,193.1406 Z " fill="#000000"/><text fill="#000000" font-family="sans-serif" font-size="12" lengthAdjust="spacing" textLength="57" x="36" y="191.6543">Company</text><line style="stroke:#A80036;stroke-width:1.5;" x1="8" x2="95" y1="203.5" y2="203.5"/><!--MD5=[2d935fd2dd068a13da1ae531f9857c4f]
class CenterCoordinator--><rect codeLine="48" fill="#FEFECE" filter="url(#f10j2ib4v3l0ty)" height="40" id="CenterCoordinator" style="stroke:#A80036;stroke-width:1.5;" width="148" x="447" y="190.5"/><ellipse cx="462" cy="206.5" fill="#ADD1B2" rx="11" ry="11" style="stroke:#A80036;stroke-width:1.0;"/><path d="M464.9688,212.1406 Q464.3906,212.4375 463.75,212.5781 Q463.1094,212.7344 462.4063,212.7344 Q459.9063,212.7344 458.5781,211.0938 Q457.2656,209.4375 457.2656,206.3125 Q457.2656,203.1875 458.5781,201.5313 Q459.9063,199.875 462.4063,199.875 Q463.1094,199.875 463.75,200.0313 Q464.4063,200.1875 464.9688,200.4844 L464.9688,203.2031 Q464.3438,202.625 463.75,202.3594 Q463.1563,202.0781 462.5313,202.0781 Q461.1875,202.0781 460.5,203.1563 Q459.8125,204.2188 459.8125,206.3125 Q459.8125,208.4063 460.5,209.4844 Q461.1875,210.5469 462.5313,210.5469 Q463.1563,210.5469 463.75,210.2813 Q464.3438,210 464.9688,209.4219 L464.9688,212.1406 Z " fill="#000000"/><text fill="#000000" font-family="sans-serif" font-size="12" lengthAdjust="spacing" textLength="116" x="476" y="210.6543">CenterCoordinator</text><line style="stroke:#A80036;stroke-width:1.5;" x1="448" x2="594" y1="222.5" y2="222.5"/><!--MD5=[b649bef0048cf03271726558ee7073ed]
link VaccinationCenter to Slot--><path codeLine="50" d="M917.12,165.79 C952.49,165.94 994.58,166.11 1028.49,166.25 " fill="none" id="VaccinationCenter-Slot" style="stroke:#A80036;stroke-width:1.0;"/><polygon fill="#000000" points="957,157.0871,947.9671,154.1108,947.9428,159.9886,957,157.0871" style="stroke:#000000;stroke-width:1.0;"/><text fill="#000000" font-family="sans-serif" font-size="13" lengthAdjust="spacing" textLength="23" x="961" y="161.5669">has</text><text fill="#000000" font-family="sans-serif" font-size="13" lengthAdjust="spacing" textLength="8" x="925.1246" y="178.686">1</text><text fill="#000000" font-family="sans-serif" font-size="13" lengthAdjust="spacing" textLength="8" x="1012.6842" y="179.1854">1</text><!--MD5=[98f7f3dc8d9719d04ad14614c4ea123f]
reverse link Employee to CenterCoordinator--><path codeLine="52" d="M352.76,241.58 C383.03,235.96 417.27,229.59 446.85,224.1 " fill="none" id="Employee-backto-CenterCoordinator" style="stroke:#A80036;stroke-width:1.0;"/><polygon fill="none" points="353.99,248.47,333.05,245.25,351.43,234.71,353.99,248.47" style="stroke:#A80036;stroke-width:1.0;"/><!--MD5=[ffab42d7305e6830f0674a21f59219d7]
link Employee to Role--><path codeLine="53" d="M332.76,308.63 C342.45,315.35 352.69,321.58 363,326.5 C400.41,344.34 447.04,353.92 479.72,358.82 " fill="none" id="Employee-Role" style="stroke:#A80036;stroke-width:1.0;"/><polygon fill="#000000" points="371.2683,316.4504,378.8782,322.155,380.7778,316.5925,371.2683,316.4504" style="stroke:#000000;stroke-width:1.0;"/><text fill="#000000" font-family="sans-serif" font-size="13" lengthAdjust="spacing" textLength="23" x="385" y="322.5669">has</text><text fill="#000000" font-family="sans-serif" font-size="13" lengthAdjust="spacing" textLength="7" x="333.5215" y="328.717">*</text><text fill="#000000" font-family="sans-serif" font-size="13" lengthAdjust="spacing" textLength="8" x="463.9375" y="371.3998">1</text><!--MD5=[09366576ee87d48d594df10cacc83f45]
link Company to Employee--><path codeLine="55" d="M96.09,204.5 C128.65,214.2 173.55,227.59 209.65,238.36 " fill="none" id="Company-Employee" style="stroke:#A80036;stroke-width:1.0;"/><polygon fill="#000000" points="135.7915,206.4951,127.9633,201.0942,126.2838,206.727,135.7915,206.4951" style="stroke:#000000;stroke-width:1.0;"/><text fill="#000000" font-family="sans-serif" font-size="13" lengthAdjust="spacing" textLength="39" x="140" y="209.5669">knows</text><text fill="#000000" font-family="sans-serif" font-size="13" lengthAdjust="spacing" textLength="8" x="104.1377" y="219.9732">1</text><text fill="#000000" font-family="sans-serif" font-size="13" lengthAdjust="spacing" textLength="7" x="195.0939" y="249.203">*</text><!--MD5=[eebe9b198877275d05dd12630ed9e401]
link Company to VaccinationCenter--><path codeLine="56" d="M96.27,187.7 C192.03,179.61 427.4,160.88 625,154.5 C676.08,152.85 688.96,151.77 740,154.5 C749.65,155.02 759.79,155.8 769.78,156.73 " fill="none" id="Company-VaccinationCenter" style="stroke:#A80036;stroke-width:1.0;"/><polygon fill="#000000" points="372.9947,155.8367,363.8242,153.3164,364.0942,159.188,372.9947,155.8367" style="stroke:#000000;stroke-width:1.0;"/><text fill="#000000" font-family="sans-serif" font-size="13" lengthAdjust="spacing" textLength="39" x="377" y="160.5669">knows</text><text fill="#000000" font-family="sans-serif" font-size="13" lengthAdjust="spacing" textLength="8" x="104.0427" y="200.3672">1</text><text fill="#000000" font-family="sans-serif" font-size="13" lengthAdjust="spacing" textLength="7" x="754.8167" y="168.6917">*</text><!--MD5=[81c76bdfde0f353a6cb885e6d5e733e5]
link Employee to Address--><path codeLine="58" d="M333.02,258.27 C490.94,262.91 912.65,275.27 1048.32,279.25 " fill="none" id="Employee-Address" style="stroke:#A80036;stroke-width:1.0;"/><polygon fill="#000000" points="673.4979,258.213,664.5428,255.0102,664.3705,260.8855,673.4979,258.213" style="stroke:#000000;stroke-width:1.0;"/><text fill="#000000" font-family="sans-serif" font-size="13" lengthAdjust="spacing" textLength="23" x="677.5" y="262.5669">has</text><text fill="#000000" font-family="sans-serif" font-size="13" lengthAdjust="spacing" textLength="7" x="340.9443" y="271.4733">*</text><text fill="#000000" font-family="sans-serif" font-size="13" lengthAdjust="spacing" textLength="8" x="1032.423" y="292.3449">1</text><!--MD5=[233a09a91aa8c3856d31bdcfa7c5bcf8]
link VaccinationCenter to Address--><path codeLine="59" d="M917.12,199.38 C959.73,219.26 1012.1,243.69 1048.17,260.52 " fill="none" id="VaccinationCenter-Address" style="stroke:#A80036;stroke-width:1.0;"/><polygon fill="#000000" points="956.5311,209.1804,949.5768,202.6928,947.0917,208.0195,956.5311,209.1804" style="stroke:#000000;stroke-width:1.0;"/><text fill="#000000" font-family="sans-serif" font-size="13" lengthAdjust="spacing" textLength="23" x="961" y="211.5669">has</text><text fill="#000000" font-family="sans-serif" font-size="13" lengthAdjust="spacing" textLength="7" x="925.073" y="215.74">*</text><text fill="#000000" font-family="sans-serif" font-size="13" lengthAdjust="spacing" textLength="8" x="1032.5471" y="270.591">1</text><!--MD5=[85d8b15e810c9ff729a9ea97d09bcb70]
link VaccinationCenter to CenterPerformance--><path codeLine="61" d="M917.12,132.21 C947.8,118.15 983.54,101.76 1014.61,87.52 " fill="none" id="VaccinationCenter-CenterPerformance" style="stroke:#A80036;stroke-width:1.0;"/><polygon fill="#000000" points="956.5452,91.9829,947.0982,93.0804,949.5475,98.4236,956.5452,91.9829" style="stroke:#000000;stroke-width:1.0;"/><text fill="#000000" font-family="sans-serif" font-size="13" lengthAdjust="spacing" textLength="23" x="961" y="98.5669">has</text><text fill="#000000" font-family="sans-serif" font-size="13" lengthAdjust="spacing" textLength="8" x="925.1246" y="141.6431">1</text><text fill="#000000" font-family="sans-serif" font-size="13" lengthAdjust="spacing" textLength="7" x="999.9002" y="103.6355">*</text><!--MD5=[d5cf03d886352995267197dc535618ec]
link CenterCoordinator to VaccinationCenter--><path codeLine="63" d="M595.13,200.23 C647.5,192.88 717.72,183.02 769.96,175.68 " fill="none" id="CenterCoordinator-VaccinationCenter" style="stroke:#A80036;stroke-width:1.0;"/><polygon fill="#000000" points="656.9514,170.3711,647.5855,168.7185,648.4029,174.5393,656.9514,170.3711" style="stroke:#000000;stroke-width:1.0;"/><text fill="#000000" font-family="sans-serif" font-size="13" lengthAdjust="spacing" textLength="56" x="661" y="175.5669">analyses</text><text fill="#000000" font-family="sans-serif" font-size="13" lengthAdjust="spacing" textLength="8" x="603.1872" y="212.0181">1</text><text fill="#000000" font-family="sans-serif" font-size="13" lengthAdjust="spacing" textLength="8" x="753.9637" y="189.5959">1</text><!--MD5=[d5cf03d886352995267197dc535618ec]
link CenterCoordinator to VaccinationCenter--><path codeLine="64" d="M595.23,224.3 C638.04,229.8 692.78,232.37 740,220.5 C749.99,217.99 760.07,214.3 769.8,209.99 " fill="none" id="CenterCoordinator-VaccinationCenter-1" style="stroke:#A80036;stroke-width:1.0;"/><polygon fill="#000000" points="634.9833,211.6579,625.7283,209.4678,626.2085,215.326,634.9833,211.6579" style="stroke:#000000;stroke-width:1.0;"/><text fill="#000000" font-family="sans-serif" font-size="13" lengthAdjust="spacing" textLength="100" x="639" y="216.5669">is associated to</text><text fill="#000000" font-family="sans-serif" font-size="13" lengthAdjust="spacing" textLength="8" x="602.9308" y="238.4702">1</text><text fill="#000000" font-family="sans-serif" font-size="13" lengthAdjust="spacing" textLength="8" x="753.7872" y="227.4441">1</text><!--MD5=[0c91334396b3e9f3e5fbe49303f0a89e]
@startuml
hide methods
left to right direction
skinparam classAttributeIconSize 0

class VaccinationCenter {
  - name
  - emailAddress
  - phoneNumber
  - faxNumber
  - websiteAddress
  - openingHours
  - closingHours
}

class Slot {
  -duration
  -nOfVaccinesPerSlot
}

class Employee {
  -id
  -name
  -email
  -phone
  -citizenCardNumber
}

class Address {
  - street
  - doorNumber
  - postalCode
  - city
}

class CenterPerformance {
  - day
  - maxSumSublist
  - startTime
  - endingTime
}

class Role {
  -designation
}

class Company {}

class CenterCoordinator {}

VaccinationCenter "1" - - "1" Slot : has >

Employee <|- - CenterCoordinator
Employee "*" - - "1" Role : has <

Company "1" - - "*" Employee : knows >
Company "1" - - "*" VaccinationCenter : knows >

Employee "*" - - "1" Address : has >
VaccinationCenter "*" - - "1" Address : has >

VaccinationCenter "1" - - "*" CenterPerformance : has >

CenterCoordinator "1" - - "1" VaccinationCenter : analyses >
CenterCoordinator "1" - - "1" VaccinationCenter : is associated to >

@enduml

PlantUML version 1.2022.0(Tue Jan 11 16:16:42 WET 2022)
(GPL source distribution)
Java Runtime: OpenJDK Runtime Environment
JVM: OpenJDK 64-Bit Server VM
Default Encoding: UTF-8
Language: en
Country: US
--></g></svg>