<?xml version="1.0" encoding="UTF-8" standalone="no"?><svg xmlns="http://www.w3.org/2000/svg" xmlns:xlink="http://www.w3.org/1999/xlink" contentScriptType="application/ecmascript" contentStyleType="text/css" height="292px" preserveAspectRatio="none" style="width:1258px;height:292px;background:#FFFFFF;" version="1.1" viewBox="0 0 1258 292" width="1258px" zoomAndPan="magnify"><defs><filter height="300%" id="fhhapgdyu8e0r" width="300%" x="-1" y="-1"><feGaussianBlur result="blurOut" stdDeviation="2.0"/><feColorMatrix in="blurOut" result="blurOut2" type="matrix" values="0 0 0 0 0 0 0 0 0 0 0 0 0 0 0 0 0 0 .4 0"/><feOffset dx="4.0" dy="4.0" in="blurOut2" result="blurOut3"/><feBlend in="SourceGraphic" in2="blurOut3" mode="normal"/></filter></defs><g><!--MD5=[de60e6d4f424ae4d0522096f76a59010]
class VaccinationCenter--><rect codeLine="5" fill="#FEFECE" filter="url(#fhhapgdyu8e0r)" height="116.8281" id="VaccinationCenter" style="stroke:#A80036;stroke-width:1.5;" width="147" x="773.5" y="130.5"/><ellipse cx="788.5" cy="146.5" fill="#ADD1B2" rx="11" ry="11" style="stroke:#A80036;stroke-width:1.0;"/><path d="M791.4688,152.1406 Q790.8906,152.4375 790.25,152.5781 Q789.6094,152.7344 788.9063,152.7344 Q786.4063,152.7344 785.0781,151.0938 Q783.7656,149.4375 783.7656,146.3125 Q783.7656,143.1875 785.0781,141.5313 Q786.4063,139.875 788.9063,139.875 Q789.6094,139.875 790.25,140.0313 Q790.9063,140.1875 791.4688,140.4844 L791.4688,143.2031 Q790.8438,142.625 790.25,142.3594 Q789.6563,142.0781 789.0313,142.0781 Q787.6875,142.0781 787,143.1563 Q786.3125,144.2188 786.3125,146.3125 Q786.3125,148.4063 787,149.4844 Q787.6875,150.5469 789.0313,150.5469 Q789.6563,150.5469 790.25,150.2813 Q790.8438,150 791.4688,149.4219 L791.4688,152.1406 Z " fill="#000000"/><text fill="#000000" font-family="sans-serif" font-size="12" lengthAdjust="spacing" textLength="115" x="802.5" y="150.6543">VaccinationCenter</text><line style="stroke:#A80036;stroke-width:1.5;" x1="774.5" x2="919.5" y1="162.5" y2="162.5"/><text fill="#000000" font-family="sans-serif" font-size="11" lengthAdjust="spacing" textLength="36" x="779.5" y="176.7104">-name</text><text fill="#000000" font-family="sans-serif" font-size="11" lengthAdjust="spacing" textLength="51" x="779.5" y="189.5151">-address</text><text fill="#000000" font-family="sans-serif" font-size="11" lengthAdjust="spacing" textLength="82" x="779.5" y="202.3198">-emailAddress</text><text fill="#000000" font-family="sans-serif" font-size="11" lengthAdjust="spacing" textLength="84" x="779.5" y="215.1245">-phoneNumber</text><text fill="#000000" font-family="sans-serif" font-size="11" lengthAdjust="spacing" textLength="66" x="779.5" y="227.9292">-faxNumber</text><text fill="#000000" font-family="sans-serif" font-size="11" lengthAdjust="spacing" textLength="95" x="779.5" y="240.7339">-websiteAddress</text><!--MD5=[2e42295458bb0bec21c9622a623eb29e]
class Time--><rect codeLine="14" fill="#FEFECE" filter="url(#fhhapgdyu8e0r)" height="65.6094" id="Time" style="stroke:#A80036;stroke-width:1.5;" width="62" x="1149.5" y="71"/><ellipse cx="1164.95" cy="87" fill="#ADD1B2" rx="11" ry="11" style="stroke:#A80036;stroke-width:1.0;"/><path d="M1167.9188,92.6406 Q1167.3406,92.9375 1166.7,93.0781 Q1166.0594,93.2344 1165.3563,93.2344 Q1162.8563,93.2344 1161.5281,91.5938 Q1160.2156,89.9375 1160.2156,86.8125 Q1160.2156,83.6875 1161.5281,82.0313 Q1162.8563,80.375 1165.3563,80.375 Q1166.0594,80.375 1166.7,80.5313 Q1167.3563,80.6875 1167.9188,80.9844 L1167.9188,83.7031 Q1167.2938,83.125 1166.7,82.8594 Q1166.1063,82.5781 1165.4813,82.5781 Q1164.1375,82.5781 1163.45,83.6563 Q1162.7625,84.7188 1162.7625,86.8125 Q1162.7625,88.9063 1163.45,89.9844 Q1164.1375,91.0469 1165.4813,91.0469 Q1166.1063,91.0469 1166.7,90.7813 Q1167.2938,90.5 1167.9188,89.9219 L1167.9188,92.6406 Z " fill="#000000"/><text fill="#000000" font-family="sans-serif" font-size="12" lengthAdjust="spacing" textLength="29" x="1179.05" y="91.1543">Time</text><line style="stroke:#A80036;stroke-width:1.5;" x1="1150.5" x2="1210.5" y1="103" y2="103"/><text fill="#000000" font-family="sans-serif" font-size="11" lengthAdjust="spacing" textLength="37" x="1155.5" y="117.2104">-hours</text><text fill="#000000" font-family="sans-serif" font-size="11" lengthAdjust="spacing" textLength="50" x="1155.5" y="130.0151">-minutes</text><!--MD5=[45c6380d22fb72521f5065026b277fb9]
class Slot--><rect codeLine="19" fill="#FEFECE" filter="url(#fhhapgdyu8e0r)" height="65.6094" id="Slot" style="stroke:#A80036;stroke-width:1.5;" width="127" x="1117" y="213"/><ellipse cx="1164.25" cy="229" fill="#ADD1B2" rx="11" ry="11" style="stroke:#A80036;stroke-width:1.0;"/><path d="M1167.2188,234.6406 Q1166.6406,234.9375 1166,235.0781 Q1165.3594,235.2344 1164.6563,235.2344 Q1162.1563,235.2344 1160.8281,233.5938 Q1159.5156,231.9375 1159.5156,228.8125 Q1159.5156,225.6875 1160.8281,224.0313 Q1162.1563,222.375 1164.6563,222.375 Q1165.3594,222.375 1166,222.5313 Q1166.6563,222.6875 1167.2188,222.9844 L1167.2188,225.7031 Q1166.5938,225.125 1166,224.8594 Q1165.4063,224.5781 1164.7813,224.5781 Q1163.4375,224.5781 1162.75,225.6563 Q1162.0625,226.7188 1162.0625,228.8125 Q1162.0625,230.9063 1162.75,231.9844 Q1163.4375,233.0469 1164.7813,233.0469 Q1165.4063,233.0469 1166,232.7813 Q1166.5938,232.5 1167.2188,231.9219 L1167.2188,234.6406 Z " fill="#000000"/><text fill="#000000" font-family="sans-serif" font-size="12" lengthAdjust="spacing" textLength="24" x="1184.75" y="233.1543">Slot</text><line style="stroke:#A80036;stroke-width:1.5;" x1="1118" x2="1243" y1="245" y2="245"/><text fill="#000000" font-family="sans-serif" font-size="11" lengthAdjust="spacing" textLength="51" x="1123" y="259.2104">-duration</text><text fill="#000000" font-family="sans-serif" font-size="11" lengthAdjust="spacing" textLength="115" x="1123" y="272.0151">-nOfVaccinesPerSlot</text><!--MD5=[7421f545a0d8420c5bec41e74b387d9c]
class Employee--><rect codeLine="24" fill="#FEFECE" filter="url(#fhhapgdyu8e0r)" height="129.6328" id="Employee" style="stroke:#A80036;stroke-width:1.5;" width="123" x="210" y="137"/><ellipse cx="238.95" cy="153" fill="#ADD1B2" rx="11" ry="11" style="stroke:#A80036;stroke-width:1.0;"/><path d="M241.9188,158.6406 Q241.3406,158.9375 240.7,159.0781 Q240.0594,159.2344 239.3563,159.2344 Q236.8563,159.2344 235.5281,157.5938 Q234.2156,155.9375 234.2156,152.8125 Q234.2156,149.6875 235.5281,148.0313 Q236.8563,146.375 239.3563,146.375 Q240.0594,146.375 240.7,146.5313 Q241.3563,146.6875 241.9188,146.9844 L241.9188,149.7031 Q241.2938,149.125 240.7,148.8594 Q240.1063,148.5781 239.4813,148.5781 Q238.1375,148.5781 237.45,149.6563 Q236.7625,150.7188 236.7625,152.8125 Q236.7625,154.9063 237.45,155.9844 Q238.1375,157.0469 239.4813,157.0469 Q240.1063,157.0469 240.7,156.7813 Q241.2938,156.5 241.9188,155.9219 L241.9188,158.6406 Z " fill="#000000"/><text fill="#000000" font-family="sans-serif" font-size="12" lengthAdjust="spacing" textLength="60" x="256.05" y="157.1543">Employee</text><line style="stroke:#A80036;stroke-width:1.5;" x1="211" x2="332" y1="169" y2="169"/><text fill="#000000" font-family="sans-serif" font-size="11" lengthAdjust="spacing" textLength="14" x="216" y="183.2104">-id</text><text fill="#000000" font-family="sans-serif" font-size="11" lengthAdjust="spacing" textLength="36" x="216" y="196.0151">-name</text><text fill="#000000" font-family="sans-serif" font-size="11" lengthAdjust="spacing" textLength="35" x="216" y="208.8198">-email</text><text fill="#000000" font-family="sans-serif" font-size="11" lengthAdjust="spacing" textLength="39" x="216" y="221.6245">-phone</text><text fill="#000000" font-family="sans-serif" font-size="11" lengthAdjust="spacing" textLength="51" x="216" y="234.4292">-address</text><text fill="#000000" font-family="sans-serif" font-size="11" lengthAdjust="spacing" textLength="111" x="216" y="247.2339">-citizenCardNumber</text><text fill="#000000" font-family="sans-serif" font-size="11" lengthAdjust="spacing" textLength="36" x="216" y="260.0386">-roleId</text><!--MD5=[1eab586b2d892e406b67662793bf7ce1]
class CenterPerformance--><rect codeLine="34" fill="#FEFECE" filter="url(#fhhapgdyu8e0r)" height="65.6094" id="CenterPerformance" style="stroke:#A80036;stroke-width:1.5;" width="154" x="770" y="7"/><ellipse cx="785" cy="23" fill="#ADD1B2" rx="11" ry="11" style="stroke:#A80036;stroke-width:1.0;"/><path d="M787.9688,28.6406 Q787.3906,28.9375 786.75,29.0781 Q786.1094,29.2344 785.4063,29.2344 Q782.9063,29.2344 781.5781,27.5938 Q780.2656,25.9375 780.2656,22.8125 Q780.2656,19.6875 781.5781,18.0313 Q782.9063,16.375 785.4063,16.375 Q786.1094,16.375 786.75,16.5313 Q787.4063,16.6875 787.9688,16.9844 L787.9688,19.7031 Q787.3438,19.125 786.75,18.8594 Q786.1563,18.5781 785.5313,18.5781 Q784.1875,18.5781 783.5,19.6563 Q782.8125,20.7188 782.8125,22.8125 Q782.8125,24.9063 783.5,25.9844 Q784.1875,27.0469 785.5313,27.0469 Q786.1563,27.0469 786.75,26.7813 Q787.3438,26.5 787.9688,25.9219 L787.9688,28.6406 Z " fill="#000000"/><text fill="#000000" font-family="sans-serif" font-size="12" lengthAdjust="spacing" textLength="122" x="799" y="27.1543">CenterPerformance</text><line style="stroke:#A80036;stroke-width:1.5;" x1="771" x2="923" y1="39" y2="39"/><text fill="#000000" font-family="sans-serif" font-size="11" lengthAdjust="spacing" textLength="24" x="776" y="53.2104">-day</text><text fill="#000000" font-family="sans-serif" font-size="11" lengthAdjust="spacing" textLength="93" x="776" y="66.0151">-maxSumSublist</text><!--MD5=[a3638c1e5b65d287ecad7f06f5c0f212]
class Role--><rect codeLine="39" fill="#FEFECE" filter="url(#fhhapgdyu8e0r)" height="52.8047" id="Role" style="stroke:#A80036;stroke-width:1.5;" width="82" x="480" y="137.5"/><ellipse cx="505.35" cy="153.5" fill="#ADD1B2" rx="11" ry="11" style="stroke:#A80036;stroke-width:1.0;"/><path d="M508.3188,159.1406 Q507.7406,159.4375 507.1,159.5781 Q506.4594,159.7344 505.7563,159.7344 Q503.2563,159.7344 501.9281,158.0938 Q500.6156,156.4375 500.6156,153.3125 Q500.6156,150.1875 501.9281,148.5313 Q503.2563,146.875 505.7563,146.875 Q506.4594,146.875 507.1,147.0313 Q507.7563,147.1875 508.3188,147.4844 L508.3188,150.2031 Q507.6938,149.625 507.1,149.3594 Q506.5063,149.0781 505.8813,149.0781 Q504.5375,149.0781 503.85,150.1563 Q503.1625,151.2188 503.1625,153.3125 Q503.1625,155.4063 503.85,156.4844 Q504.5375,157.5469 505.8813,157.5469 Q506.5063,157.5469 507.1,157.2813 Q507.6938,157 508.3188,156.4219 L508.3188,159.1406 Z " fill="#000000"/><text fill="#000000" font-family="sans-serif" font-size="12" lengthAdjust="spacing" textLength="27" x="521.65" y="157.6543">Role</text><line style="stroke:#A80036;stroke-width:1.5;" x1="481" x2="561" y1="169.5" y2="169.5"/><text fill="#000000" font-family="sans-serif" font-size="11" lengthAdjust="spacing" textLength="70" x="486" y="183.7104">-designation</text><!--MD5=[02e4b9b7573f1156f41e60aa5b4e25a4]
class Company--><rect codeLine="43" fill="#FEFECE" filter="url(#fhhapgdyu8e0r)" height="40" id="Company" style="stroke:#A80036;stroke-width:1.5;" width="89" x="7" y="123"/><ellipse cx="22" cy="139" fill="#ADD1B2" rx="11" ry="11" style="stroke:#A80036;stroke-width:1.0;"/><path d="M24.9688,144.6406 Q24.3906,144.9375 23.75,145.0781 Q23.1094,145.2344 22.4063,145.2344 Q19.9063,145.2344 18.5781,143.5938 Q17.2656,141.9375 17.2656,138.8125 Q17.2656,135.6875 18.5781,134.0313 Q19.9063,132.375 22.4063,132.375 Q23.1094,132.375 23.75,132.5313 Q24.4063,132.6875 24.9688,132.9844 L24.9688,135.7031 Q24.3438,135.125 23.75,134.8594 Q23.1563,134.5781 22.5313,134.5781 Q21.1875,134.5781 20.5,135.6563 Q19.8125,136.7188 19.8125,138.8125 Q19.8125,140.9063 20.5,141.9844 Q21.1875,143.0469 22.5313,143.0469 Q23.1563,143.0469 23.75,142.7813 Q24.3438,142.5 24.9688,141.9219 L24.9688,144.6406 Z " fill="#000000"/><text fill="#000000" font-family="sans-serif" font-size="12" lengthAdjust="spacing" textLength="57" x="36" y="143.1543">Company</text><line style="stroke:#A80036;stroke-width:1.5;" x1="8" x2="95" y1="155" y2="155"/><!--MD5=[2d935fd2dd068a13da1ae531f9857c4f]
class CenterCoordinator--><rect codeLine="45" fill="#FEFECE" filter="url(#fhhapgdyu8e0r)" height="40" id="CenterCoordinator" style="stroke:#A80036;stroke-width:1.5;" width="148" x="447" y="226"/><ellipse cx="462" cy="242" fill="#ADD1B2" rx="11" ry="11" style="stroke:#A80036;stroke-width:1.0;"/><path d="M464.9688,247.6406 Q464.3906,247.9375 463.75,248.0781 Q463.1094,248.2344 462.4063,248.2344 Q459.9063,248.2344 458.5781,246.5938 Q457.2656,244.9375 457.2656,241.8125 Q457.2656,238.6875 458.5781,237.0313 Q459.9063,235.375 462.4063,235.375 Q463.1094,235.375 463.75,235.5313 Q464.4063,235.6875 464.9688,235.9844 L464.9688,238.7031 Q464.3438,238.125 463.75,237.8594 Q463.1563,237.5781 462.5313,237.5781 Q461.1875,237.5781 460.5,238.6563 Q459.8125,239.7188 459.8125,241.8125 Q459.8125,243.9063 460.5,244.9844 Q461.1875,246.0469 462.5313,246.0469 Q463.1563,246.0469 463.75,245.7813 Q464.3438,245.5 464.9688,244.9219 L464.9688,247.6406 Z " fill="#000000"/><text fill="#000000" font-family="sans-serif" font-size="12" lengthAdjust="spacing" textLength="116" x="476" y="246.1543">CenterCoordinator</text><line style="stroke:#A80036;stroke-width:1.5;" x1="448" x2="594" y1="258" y2="258"/><!--MD5=[e67749f86d2edce8d072e016ba76df74]
link VaccinationCenter to Time--><path codeLine="48" d="M920.75,170.35 C992.22,152.02 1097.8,124.95 1149.19,111.77 " fill="none" id="VaccinationCenter-Time" style="stroke:#A80036;stroke-width:1.0;"/><polygon fill="#000000" points="967.3433,120.3244,957.8517,119.7244,959.3117,125.418,967.3433,120.3244" style="stroke:#000000;stroke-width:1.0;"/><text fill="#000000" font-family="sans-serif" font-size="13" lengthAdjust="spacing" textLength="111" x="971.5" y="126.0669">has closing hours</text><text fill="#000000" font-family="sans-serif" font-size="13" lengthAdjust="spacing" textLength="8" x="928.4035" y="181.3343">1</text><text fill="#000000" font-family="sans-serif" font-size="13" lengthAdjust="spacing" textLength="8" x="1133.4659" y="127.2345">1</text><!--MD5=[e67749f86d2edce8d072e016ba76df74]
link VaccinationCenter to Time--><path codeLine="49" d="M920.56,201.43 C969.28,206.68 1034,207.55 1087,187 C1113.15,176.86 1136.6,155.62 1153.34,137.16 " fill="none" id="VaccinationCenter-Time-1" style="stroke:#A80036;stroke-width:1.0;"/><polygon fill="#000000" points="963.8197,177.2357,954.3186,176.81,955.883,182.4759,963.8197,177.2357" style="stroke:#000000;stroke-width:1.0;"/><text fill="#000000" font-family="sans-serif" font-size="13" lengthAdjust="spacing" textLength="118" x="968" y="183.0669">has opening hours</text><text fill="#000000" font-family="sans-serif" font-size="13" lengthAdjust="spacing" textLength="8" x="928.5584" y="215.5679">1</text><text fill="#000000" font-family="sans-serif" font-size="13" lengthAdjust="spacing" textLength="8" x="1139.5949" y="156.7718">1</text><!--MD5=[8a869d0627cedf8f4f7ad7f6b9767a72]
link CenterPerformance to Time--><path codeLine="51" d="M924.12,37.77 C971.73,38.23 1033.89,42.27 1087,57 C1108.87,63.07 1131.62,74.55 1149.09,84.64 " fill="none" id="CenterPerformance-Time" style="stroke:#A80036;stroke-width:1.0;"/><polygon fill="#000000" points="977.8949,31.5862,969.6394,26.8642,968.4405,32.6185,977.8949,31.5862" style="stroke:#000000;stroke-width:1.0;"/><text fill="#000000" font-family="sans-serif" font-size="13" lengthAdjust="spacing" textLength="90" x="982" y="35.0669">has start time</text><text fill="#000000" font-family="sans-serif" font-size="13" lengthAdjust="spacing" textLength="8" x="932.1053" y="50.3814">1</text><text fill="#000000" font-family="sans-serif" font-size="13" lengthAdjust="spacing" textLength="8" x="1133.3441" y="94.1698">1</text><!--MD5=[8a869d0627cedf8f4f7ad7f6b9767a72]
link CenterPerformance to Time--><path codeLine="52" d="M924.18,73.1 C934.08,76.53 944.19,79.63 954,82 C1022.44,98.55 1105.42,102.71 1149.14,103.72 " fill="none" id="CenterPerformance-Time-1" style="stroke:#A80036;stroke-width:1.0;"/><polygon fill="#000000" points="980.9543,74.2408,972.3882,70.1088,971.5955,75.9329,980.9543,74.2408" style="stroke:#000000;stroke-width:1.0;"/><text fill="#000000" font-family="sans-serif" font-size="13" lengthAdjust="spacing" textLength="84" x="985" y="78.0669">has end time</text><text fill="#000000" font-family="sans-serif" font-size="13" lengthAdjust="spacing" textLength="8" x="929.6726" y="92.7008">1</text><text fill="#000000" font-family="sans-serif" font-size="13" lengthAdjust="spacing" textLength="8" x="1133.405" y="117.4235">1</text><!--MD5=[b649bef0048cf03271726558ee7073ed]
link VaccinationCenter to Slot--><path codeLine="54" d="M920.62,236.4 C931.45,241.58 942.75,246.04 954,249 C1007.57,263.11 1070.82,260.71 1116.67,255.73 " fill="none" id="VaccinationCenter-Slot" style="stroke:#A80036;stroke-width:1.0;"/><polygon fill="#000000" points="1011.4759,241.057,1002.7628,237.2448,1002.1861,243.0942,1011.4759,241.057" style="stroke:#000000;stroke-width:1.0;"/><text fill="#000000" font-family="sans-serif" font-size="13" lengthAdjust="spacing" textLength="23" x="1015.5" y="245.0669">has</text><text fill="#000000" font-family="sans-serif" font-size="13" lengthAdjust="spacing" textLength="8" x="928.6246" y="254.1442">1</text><text fill="#000000" font-family="sans-serif" font-size="13" lengthAdjust="spacing" textLength="8" x="1100.8272" y="269.8194">1</text><!--MD5=[98f7f3dc8d9719d04ad14614c4ea123f]
reverse link Employee to CenterCoordinator--><path codeLine="56" d="M352.76,216.27 C383.03,221.65 417.27,227.74 446.85,233 " fill="none" id="Employee-backto-CenterCoordinator" style="stroke:#A80036;stroke-width:1.0;"/><polygon fill="none" points="351.51,223.16,333.05,212.76,353.96,209.37,351.51,223.16" style="stroke:#A80036;stroke-width:1.0;"/><!--MD5=[ffab42d7305e6830f0674a21f59219d7]
link Employee to Role--><path codeLine="57" d="M333.05,192.7 C378.7,185.69 440.04,176.28 479.79,170.17 " fill="none" id="Employee-Role" style="stroke:#A80036;stroke-width:1.0;"/><polygon fill="#000000" points="371.0579,173.3252,380.4442,174.8574,379.5522,169.0476,371.0579,173.3252" style="stroke:#000000;stroke-width:1.0;"/><text fill="#000000" font-family="sans-serif" font-size="13" lengthAdjust="spacing" textLength="23" x="385" y="177.0669">has</text><text fill="#000000" font-family="sans-serif" font-size="13" lengthAdjust="spacing" textLength="7" x="340.978" y="204.578">*</text><text fill="#000000" font-family="sans-serif" font-size="13" lengthAdjust="spacing" textLength="8" x="464.0195" y="184.6146">1</text><!--MD5=[09366576ee87d48d594df10cacc83f45]
link Company to Employee--><path codeLine="59" d="M96.09,154.8 C128.65,163.61 173.55,175.76 209.65,185.53 " fill="none" id="Company-Employee" style="stroke:#A80036;stroke-width:1.0;"/><polygon fill="#000000" points="135.8264,156.8725,127.863,151.6729,126.3277,157.3467,135.8264,156.8725" style="stroke:#000000;stroke-width:1.0;"/><text fill="#000000" font-family="sans-serif" font-size="13" lengthAdjust="spacing" textLength="39" x="140" y="160.0669">knows</text><text fill="#000000" font-family="sans-serif" font-size="13" lengthAdjust="spacing" textLength="8" x="104.1377" y="170.0745">1</text><text fill="#000000" font-family="sans-serif" font-size="13" lengthAdjust="spacing" textLength="7" x="195.0939" y="196.5886">*</text><!--MD5=[eebe9b198877275d05dd12630ed9e401]
link Company to VaccinationCenter--><path codeLine="60" d="M96.09,134.54 C127.59,128.88 171.25,121.94 210,119 C271.85,114.31 533.36,111.56 595,120 C656.34,128.4 723.91,147.57 773.48,163.58 " fill="none" id="Company-VaccinationCenter" style="stroke:#A80036;stroke-width:1.0;"/><polygon fill="#000000" points="372.9954,106.7806,364.0845,103.4569,363.8327,109.3294,372.9954,106.7806" style="stroke:#000000;stroke-width:1.0;"/><text fill="#000000" font-family="sans-serif" font-size="13" lengthAdjust="spacing" textLength="39" x="377" y="111.0669">knows</text><text fill="#000000" font-family="sans-serif" font-size="13" lengthAdjust="spacing" textLength="8" x="104.1377" y="146.4589">1</text><text fill="#000000" font-family="sans-serif" font-size="13" lengthAdjust="spacing" textLength="7" x="758.5373" y="173.8146">*</text><!--MD5=[d5cf03d886352995267197dc535618ec]
link CenterCoordinator to VaccinationCenter--><path codeLine="62" d="M595.12,233.14 C648.4,223.76 720.27,211.12 773.43,201.77 " fill="none" id="CenterCoordinator-VaccinationCenter" style="stroke:#A80036;stroke-width:1.0;"/><polygon fill="#000000" points="656.9244,199.7001,647.5069,198.3728,648.5253,204.1618,656.9244,199.7001" style="stroke:#000000;stroke-width:1.0;"/><text fill="#000000" font-family="sans-serif" font-size="13" lengthAdjust="spacing" textLength="56" x="661" y="205.0669">analyses</text><text fill="#000000" font-family="sans-serif" font-size="13" lengthAdjust="spacing" textLength="8" x="603.1761" y="244.661">1</text><text fill="#000000" font-family="sans-serif" font-size="13" lengthAdjust="spacing" textLength="8" x="757.4306" y="215.9429">1</text><!--MD5=[d5cf03d886352995267197dc535618ec]
link CenterCoordinator to VaccinationCenter--><path codeLine="63" d="M595.2,258.55 C638.13,263.32 692.99,264.91 740,252 C751.25,248.91 762.51,244.28 773.28,238.9 " fill="none" id="CenterCoordinator-VaccinationCenter-1" style="stroke:#A80036;stroke-width:1.0;"/><polygon fill="#000000" points="634.9698,243.018,625.657,241.0889,626.3017,246.9313,634.9698,243.018" style="stroke:#000000;stroke-width:1.0;"/><text fill="#000000" font-family="sans-serif" font-size="13" lengthAdjust="spacing" textLength="100" x="639" y="248.0669">is associated to</text><text fill="#000000" font-family="sans-serif" font-size="13" lengthAdjust="spacing" textLength="8" x="602.8978" y="272.5971">1</text><text fill="#000000" font-family="sans-serif" font-size="13" lengthAdjust="spacing" textLength="8" x="757.2651" y="256.902">1</text><!--MD5=[99dc957c09dfe6eb38b5dfa1039a7891]
@startuml
hide methods
left to right direction
skinparam classAttributeIconSize 0

class VaccinationCenter {
  - name
  - address
  - emailAddress
  - phoneNumber
  - faxNumber
  - websiteAddress
}

class Time {
  - hours
  - minutes
}

class Slot {
  -duration
  -nOfVaccinesPerSlot
}

class Employee {
  -id
  -name
  -email
  -phone
  -address
  -citizenCardNumber
  -roleId
}

class CenterPerformance {
  - day
  - maxSumSublist
}

class Role {
  -designation
}

class Company {}

class CenterCoordinator {}


VaccinationCenter "1" - - "1" Time : has closing hours >
VaccinationCenter "1" - - "1" Time : has opening hours >

CenterPerformance "1" - - "1" Time : has start time >
CenterPerformance "1" - - "1" Time : has end time >

VaccinationCenter "1" - - "1" Slot : has >

Employee <|- - CenterCoordinator
Employee "*" - - "1" Role : has <

Company "1" - - "*" Employee : knows >
Company "1" - - "*" VaccinationCenter : knows >

CenterCoordinator "1" - - "1" VaccinationCenter : analyses >
CenterCoordinator "1" - - "1" VaccinationCenter : is associated to >

@enduml

PlantUML version 1.2022.0(Tue Jan 11 16:16:42 WET 2022)
(GPL source distribution)
Java Runtime: OpenJDK Runtime Environment
JVM: OpenJDK 64-Bit Server VM
Default Encoding: UTF-8
Language: en
Country: US
--></g></svg>