<?xml version="1.0" encoding="UTF-8" standalone="no"?><svg xmlns="http://www.w3.org/2000/svg" xmlns:xlink="http://www.w3.org/1999/xlink" contentScriptType="application/ecmascript" contentStyleType="text/css" height="549px" preserveAspectRatio="none" style="width:1410px;height:549px;background:#FFFFFF;" version="1.1" viewBox="0 0 1410 549" width="1410px" zoomAndPan="magnify"><defs><filter height="300%" id="f1miup23eb0m6r" width="300%" x="-1" y="-1"><feGaussianBlur result="blurOut" stdDeviation="2.0"/><feColorMatrix in="blurOut" result="blurOut2" type="matrix" values="0 0 0 0 0 0 0 0 0 0 0 0 0 0 0 0 0 0 .4 0"/><feOffset dx="4.0" dy="4.0" in="blurOut2" result="blurOut3"/><feBlend in="SourceGraphic" in2="blurOut3" mode="normal"/></filter></defs><g><!--MD5=[de60e6d4f424ae4d0522096f76a59010]
class VaccinationCenter--><rect codeLine="5" fill="#FEFECE" filter="url(#f1miup23eb0m6r)" height="104.0234" id="VaccinationCenter" style="stroke:#A80036;stroke-width:1.5;" width="147" x="770" y="255"/><ellipse cx="785" cy="271" fill="#ADD1B2" rx="11" ry="11" style="stroke:#A80036;stroke-width:1.0;"/><path d="M787.9688,276.6406 Q787.3906,276.9375 786.75,277.0781 Q786.1094,277.2344 785.4063,277.2344 Q782.9063,277.2344 781.5781,275.5938 Q780.2656,273.9375 780.2656,270.8125 Q780.2656,267.6875 781.5781,266.0313 Q782.9063,264.375 785.4063,264.375 Q786.1094,264.375 786.75,264.5313 Q787.4063,264.6875 787.9688,264.9844 L787.9688,267.7031 Q787.3438,267.125 786.75,266.8594 Q786.1563,266.5781 785.5313,266.5781 Q784.1875,266.5781 783.5,267.6563 Q782.8125,268.7188 782.8125,270.8125 Q782.8125,272.9063 783.5,273.9844 Q784.1875,275.0469 785.5313,275.0469 Q786.1563,275.0469 786.75,274.7813 Q787.3438,274.5 787.9688,273.9219 L787.9688,276.6406 Z " fill="#000000"/><text fill="#000000" font-family="sans-serif" font-size="12" lengthAdjust="spacing" textLength="115" x="799" y="275.1543">VaccinationCenter</text><line style="stroke:#A80036;stroke-width:1.5;" x1="771" x2="916" y1="287" y2="287"/><text fill="#000000" font-family="sans-serif" font-size="11" lengthAdjust="spacing" textLength="36" x="776" y="301.2104">-name</text><text fill="#000000" font-family="sans-serif" font-size="11" lengthAdjust="spacing" textLength="82" x="776" y="314.0151">-emailAddress</text><text fill="#000000" font-family="sans-serif" font-size="11" lengthAdjust="spacing" textLength="84" x="776" y="326.8198">-phoneNumber</text><text fill="#000000" font-family="sans-serif" font-size="11" lengthAdjust="spacing" textLength="66" x="776" y="339.6245">-faxNumber</text><text fill="#000000" font-family="sans-serif" font-size="11" lengthAdjust="spacing" textLength="95" x="776" y="352.4292">-websiteAddress</text><!--MD5=[2e42295458bb0bec21c9622a623eb29e]
class Time--><rect codeLine="13" fill="#FEFECE" filter="url(#f1miup23eb0m6r)" height="65.6094" id="Time" style="stroke:#A80036;stroke-width:1.5;" width="62" x="1334" y="63"/><ellipse cx="1349.45" cy="79" fill="#ADD1B2" rx="11" ry="11" style="stroke:#A80036;stroke-width:1.0;"/><path d="M1352.4188,84.6406 Q1351.8406,84.9375 1351.2,85.0781 Q1350.5594,85.2344 1349.8563,85.2344 Q1347.3563,85.2344 1346.0281,83.5938 Q1344.7156,81.9375 1344.7156,78.8125 Q1344.7156,75.6875 1346.0281,74.0313 Q1347.3563,72.375 1349.8563,72.375 Q1350.5594,72.375 1351.2,72.5313 Q1351.8563,72.6875 1352.4188,72.9844 L1352.4188,75.7031 Q1351.7938,75.125 1351.2,74.8594 Q1350.6063,74.5781 1349.9813,74.5781 Q1348.6375,74.5781 1347.95,75.6563 Q1347.2625,76.7188 1347.2625,78.8125 Q1347.2625,80.9063 1347.95,81.9844 Q1348.6375,83.0469 1349.9813,83.0469 Q1350.6063,83.0469 1351.2,82.7813 Q1351.7938,82.5 1352.4188,81.9219 L1352.4188,84.6406 Z " fill="#000000"/><text fill="#000000" font-family="sans-serif" font-size="12" lengthAdjust="spacing" textLength="29" x="1363.55" y="83.1543">Time</text><line style="stroke:#A80036;stroke-width:1.5;" x1="1335" x2="1395" y1="95" y2="95"/><text fill="#000000" font-family="sans-serif" font-size="11" lengthAdjust="spacing" textLength="37" x="1340" y="109.2104">-hours</text><text fill="#000000" font-family="sans-serif" font-size="11" lengthAdjust="spacing" textLength="50" x="1340" y="122.0151">-minutes</text><!--MD5=[45c6380d22fb72521f5065026b277fb9]
class Slot--><rect codeLine="18" fill="#FEFECE" filter="url(#f1miup23eb0m6r)" height="65.6094" id="Slot" style="stroke:#A80036;stroke-width:1.5;" width="127" x="1028.5" y="282"/><ellipse cx="1075.75" cy="298" fill="#ADD1B2" rx="11" ry="11" style="stroke:#A80036;stroke-width:1.0;"/><path d="M1078.7188,303.6406 Q1078.1406,303.9375 1077.5,304.0781 Q1076.8594,304.2344 1076.1563,304.2344 Q1073.6563,304.2344 1072.3281,302.5938 Q1071.0156,300.9375 1071.0156,297.8125 Q1071.0156,294.6875 1072.3281,293.0313 Q1073.6563,291.375 1076.1563,291.375 Q1076.8594,291.375 1077.5,291.5313 Q1078.1563,291.6875 1078.7188,291.9844 L1078.7188,294.7031 Q1078.0938,294.125 1077.5,293.8594 Q1076.9063,293.5781 1076.2813,293.5781 Q1074.9375,293.5781 1074.25,294.6563 Q1073.5625,295.7188 1073.5625,297.8125 Q1073.5625,299.9063 1074.25,300.9844 Q1074.9375,302.0469 1076.2813,302.0469 Q1076.9063,302.0469 1077.5,301.7813 Q1078.0938,301.5 1078.7188,300.9219 L1078.7188,303.6406 Z " fill="#000000"/><text fill="#000000" font-family="sans-serif" font-size="12" lengthAdjust="spacing" textLength="24" x="1096.25" y="302.1543">Slot</text><line style="stroke:#A80036;stroke-width:1.5;" x1="1029.5" x2="1154.5" y1="314" y2="314"/><text fill="#000000" font-family="sans-serif" font-size="11" lengthAdjust="spacing" textLength="51" x="1034.5" y="328.2104">-duration</text><text fill="#000000" font-family="sans-serif" font-size="11" lengthAdjust="spacing" textLength="115" x="1034.5" y="341.0151">-nOfVaccinesPerSlot</text><!--MD5=[7421f545a0d8420c5bec41e74b387d9c]
class Employee--><rect codeLine="23" fill="#FEFECE" filter="url(#f1miup23eb0m6r)" height="104.0234" id="Employee" style="stroke:#A80036;stroke-width:1.5;" width="123" x="210" y="349"/><ellipse cx="238.95" cy="365" fill="#ADD1B2" rx="11" ry="11" style="stroke:#A80036;stroke-width:1.0;"/><path d="M241.9188,370.6406 Q241.3406,370.9375 240.7,371.0781 Q240.0594,371.2344 239.3563,371.2344 Q236.8563,371.2344 235.5281,369.5938 Q234.2156,367.9375 234.2156,364.8125 Q234.2156,361.6875 235.5281,360.0313 Q236.8563,358.375 239.3563,358.375 Q240.0594,358.375 240.7,358.5313 Q241.3563,358.6875 241.9188,358.9844 L241.9188,361.7031 Q241.2938,361.125 240.7,360.8594 Q240.1063,360.5781 239.4813,360.5781 Q238.1375,360.5781 237.45,361.6563 Q236.7625,362.7188 236.7625,364.8125 Q236.7625,366.9063 237.45,367.9844 Q238.1375,369.0469 239.4813,369.0469 Q240.1063,369.0469 240.7,368.7813 Q241.2938,368.5 241.9188,367.9219 L241.9188,370.6406 Z " fill="#000000"/><text fill="#000000" font-family="sans-serif" font-size="12" lengthAdjust="spacing" textLength="60" x="256.05" y="369.1543">Employee</text><line style="stroke:#A80036;stroke-width:1.5;" x1="211" x2="332" y1="381" y2="381"/><text fill="#000000" font-family="sans-serif" font-size="11" lengthAdjust="spacing" textLength="14" x="216" y="395.2104">-id</text><text fill="#000000" font-family="sans-serif" font-size="11" lengthAdjust="spacing" textLength="36" x="216" y="408.0151">-name</text><text fill="#000000" font-family="sans-serif" font-size="11" lengthAdjust="spacing" textLength="35" x="216" y="420.8198">-email</text><text fill="#000000" font-family="sans-serif" font-size="11" lengthAdjust="spacing" textLength="39" x="216" y="433.6245">-phone</text><text fill="#000000" font-family="sans-serif" font-size="11" lengthAdjust="spacing" textLength="111" x="216" y="446.4292">-citizenCardNumber</text><!--MD5=[0f39e4cb6f03951afbf6d14bd2505654]
class Address--><rect codeLine="31" fill="#FEFECE" filter="url(#f1miup23eb0m6r)" height="91.2188" id="Address" style="stroke:#A80036;stroke-width:1.5;" width="87" x="1048.5" y="383.5"/><ellipse cx="1065.3" cy="399.5" fill="#ADD1B2" rx="11" ry="11" style="stroke:#A80036;stroke-width:1.0;"/><path d="M1068.2688,405.1406 Q1067.6906,405.4375 1067.05,405.5781 Q1066.4094,405.7344 1065.7063,405.7344 Q1063.2063,405.7344 1061.8781,404.0938 Q1060.5656,402.4375 1060.5656,399.3125 Q1060.5656,396.1875 1061.8781,394.5313 Q1063.2063,392.875 1065.7063,392.875 Q1066.4094,392.875 1067.05,393.0313 Q1067.7063,393.1875 1068.2688,393.4844 L1068.2688,396.2031 Q1067.6438,395.625 1067.05,395.3594 Q1066.4563,395.0781 1065.8313,395.0781 Q1064.4875,395.0781 1063.8,396.1563 Q1063.1125,397.2188 1063.1125,399.3125 Q1063.1125,401.4063 1063.8,402.4844 Q1064.4875,403.5469 1065.8313,403.5469 Q1066.4563,403.5469 1067.05,403.2813 Q1067.6438,403 1068.2688,402.4219 L1068.2688,405.1406 Z " fill="#000000"/><text fill="#000000" font-family="sans-serif" font-size="12" lengthAdjust="spacing" textLength="51" x="1079.7" y="403.6543">Address</text><line style="stroke:#A80036;stroke-width:1.5;" x1="1049.5" x2="1134.5" y1="415.5" y2="415.5"/><text fill="#000000" font-family="sans-serif" font-size="11" lengthAdjust="spacing" textLength="38" x="1054.5" y="429.7104">-street</text><text fill="#000000" font-family="sans-serif" font-size="11" lengthAdjust="spacing" textLength="75" x="1054.5" y="442.5151">-doorNumber</text><text fill="#000000" font-family="sans-serif" font-size="11" lengthAdjust="spacing" textLength="68" x="1054.5" y="455.3198">-postalCode</text><text fill="#000000" font-family="sans-serif" font-size="11" lengthAdjust="spacing" textLength="23" x="1054.5" y="468.1245">-city</text><!--MD5=[1eab586b2d892e406b67662793bf7ce1]
class CenterPerformance--><rect codeLine="38" fill="#FEFECE" filter="url(#f1miup23eb0m6r)" height="65.6094" id="CenterPerformance" style="stroke:#A80036;stroke-width:1.5;" width="154" x="1015" y="7"/><ellipse cx="1030" cy="23" fill="#ADD1B2" rx="11" ry="11" style="stroke:#A80036;stroke-width:1.0;"/><path d="M1032.9688,28.6406 Q1032.3906,28.9375 1031.75,29.0781 Q1031.1094,29.2344 1030.4063,29.2344 Q1027.9063,29.2344 1026.5781,27.5938 Q1025.2656,25.9375 1025.2656,22.8125 Q1025.2656,19.6875 1026.5781,18.0313 Q1027.9063,16.375 1030.4063,16.375 Q1031.1094,16.375 1031.75,16.5313 Q1032.4063,16.6875 1032.9688,16.9844 L1032.9688,19.7031 Q1032.3438,19.125 1031.75,18.8594 Q1031.1563,18.5781 1030.5313,18.5781 Q1029.1875,18.5781 1028.5,19.6563 Q1027.8125,20.7188 1027.8125,22.8125 Q1027.8125,24.9063 1028.5,25.9844 Q1029.1875,27.0469 1030.5313,27.0469 Q1031.1563,27.0469 1031.75,26.7813 Q1032.3438,26.5 1032.9688,25.9219 L1032.9688,28.6406 Z " fill="#000000"/><text fill="#000000" font-family="sans-serif" font-size="12" lengthAdjust="spacing" textLength="122" x="1044" y="27.1543">CenterPerformance</text><line style="stroke:#A80036;stroke-width:1.5;" x1="1016" x2="1168" y1="39" y2="39"/><text fill="#000000" font-family="sans-serif" font-size="11" lengthAdjust="spacing" textLength="24" x="1021" y="53.2104">-day</text><text fill="#000000" font-family="sans-serif" font-size="11" lengthAdjust="spacing" textLength="93" x="1021" y="66.0151">-maxSumSublist</text><!--MD5=[a3638c1e5b65d287ecad7f06f5c0f212]
class Role--><rect codeLine="43" fill="#FEFECE" filter="url(#f1miup23eb0m6r)" height="52.8047" id="Role" style="stroke:#A80036;stroke-width:1.5;" width="82" x="480" y="482.5"/><ellipse cx="505.35" cy="498.5" fill="#ADD1B2" rx="11" ry="11" style="stroke:#A80036;stroke-width:1.0;"/><path d="M508.3188,504.1406 Q507.7406,504.4375 507.1,504.5781 Q506.4594,504.7344 505.7563,504.7344 Q503.2563,504.7344 501.9281,503.0938 Q500.6156,501.4375 500.6156,498.3125 Q500.6156,495.1875 501.9281,493.5313 Q503.2563,491.875 505.7563,491.875 Q506.4594,491.875 507.1,492.0313 Q507.7563,492.1875 508.3188,492.4844 L508.3188,495.2031 Q507.6938,494.625 507.1,494.3594 Q506.5063,494.0781 505.8813,494.0781 Q504.5375,494.0781 503.85,495.1563 Q503.1625,496.2188 503.1625,498.3125 Q503.1625,500.4063 503.85,501.4844 Q504.5375,502.5469 505.8813,502.5469 Q506.5063,502.5469 507.1,502.2813 Q507.6938,502 508.3188,501.4219 L508.3188,504.1406 Z " fill="#000000"/><text fill="#000000" font-family="sans-serif" font-size="12" lengthAdjust="spacing" textLength="27" x="521.65" y="502.6543">Role</text><line style="stroke:#A80036;stroke-width:1.5;" x1="481" x2="561" y1="514.5" y2="514.5"/><text fill="#000000" font-family="sans-serif" font-size="11" lengthAdjust="spacing" textLength="70" x="486" y="528.7104">-designation</text><!--MD5=[02e4b9b7573f1156f41e60aa5b4e25a4]
class Company--><rect codeLine="47" fill="#FEFECE" filter="url(#f1miup23eb0m6r)" height="40" id="Company" style="stroke:#A80036;stroke-width:1.5;" width="89" x="7" y="316"/><ellipse cx="22" cy="332" fill="#ADD1B2" rx="11" ry="11" style="stroke:#A80036;stroke-width:1.0;"/><path d="M24.9688,337.6406 Q24.3906,337.9375 23.75,338.0781 Q23.1094,338.2344 22.4063,338.2344 Q19.9063,338.2344 18.5781,336.5938 Q17.2656,334.9375 17.2656,331.8125 Q17.2656,328.6875 18.5781,327.0313 Q19.9063,325.375 22.4063,325.375 Q23.1094,325.375 23.75,325.5313 Q24.4063,325.6875 24.9688,325.9844 L24.9688,328.7031 Q24.3438,328.125 23.75,327.8594 Q23.1563,327.5781 22.5313,327.5781 Q21.1875,327.5781 20.5,328.6563 Q19.8125,329.7188 19.8125,331.8125 Q19.8125,333.9063 20.5,334.9844 Q21.1875,336.0469 22.5313,336.0469 Q23.1563,336.0469 23.75,335.7813 Q24.3438,335.5 24.9688,334.9219 L24.9688,337.6406 Z " fill="#000000"/><text fill="#000000" font-family="sans-serif" font-size="12" lengthAdjust="spacing" textLength="57" x="36" y="336.1543">Company</text><line style="stroke:#A80036;stroke-width:1.5;" x1="8" x2="95" y1="348" y2="348"/><!--MD5=[2d935fd2dd068a13da1ae531f9857c4f]
class CenterCoordinator--><rect codeLine="49" fill="#FEFECE" filter="url(#f1miup23eb0m6r)" height="40" id="CenterCoordinator" style="stroke:#A80036;stroke-width:1.5;" width="148" x="447" y="336"/><ellipse cx="462" cy="352" fill="#ADD1B2" rx="11" ry="11" style="stroke:#A80036;stroke-width:1.0;"/><path d="M464.9688,357.6406 Q464.3906,357.9375 463.75,358.0781 Q463.1094,358.2344 462.4063,358.2344 Q459.9063,358.2344 458.5781,356.5938 Q457.2656,354.9375 457.2656,351.8125 Q457.2656,348.6875 458.5781,347.0313 Q459.9063,345.375 462.4063,345.375 Q463.1094,345.375 463.75,345.5313 Q464.4063,345.6875 464.9688,345.9844 L464.9688,348.7031 Q464.3438,348.125 463.75,347.8594 Q463.1563,347.5781 462.5313,347.5781 Q461.1875,347.5781 460.5,348.6563 Q459.8125,349.7188 459.8125,351.8125 Q459.8125,353.9063 460.5,354.9844 Q461.1875,356.0469 462.5313,356.0469 Q463.1563,356.0469 463.75,355.7813 Q464.3438,355.5 464.9688,354.9219 L464.9688,357.6406 Z " fill="#000000"/><text fill="#000000" font-family="sans-serif" font-size="12" lengthAdjust="spacing" textLength="116" x="476" y="356.1543">CenterCoordinator</text><line style="stroke:#A80036;stroke-width:1.5;" x1="448" x2="594" y1="368" y2="368"/><!--MD5=[e67749f86d2edce8d072e016ba76df74]
link VaccinationCenter to Time--><path codeLine="52" d="M876.78,254.92 C894.58,230.41 918.79,202.92 947,186 C1013.37,146.19 1249.31,111.4 1333.71,99.96 " fill="none" id="VaccinationCenter-Time" style="stroke:#A80036;stroke-width:1.0;"/><polygon fill="#000000" points="1038.7351,116.9606,1029.2253,117.0823,1031.1131,122.6488,1038.7351,116.9606" style="stroke:#000000;stroke-width:1.0;"/><text fill="#000000" font-family="sans-serif" font-size="13" lengthAdjust="spacing" textLength="111" x="1043" y="123.0669">has closing hours</text><text fill="#000000" font-family="sans-serif" font-size="13" lengthAdjust="spacing" textLength="8" x="872.7145" y="243.9882">1</text><text fill="#000000" font-family="sans-serif" font-size="13" lengthAdjust="spacing" textLength="8" x="1317.9903" y="114.591">1</text><!--MD5=[e67749f86d2edce8d072e016ba76df74]
link VaccinationCenter to Time--><path codeLine="53" d="M917.11,282.43 C1008.87,250.55 1170.88,191.44 1304,128 C1313.8,123.33 1324.31,117.88 1333.75,112.82 " fill="none" id="VaccinationCenter-Time-1" style="stroke:#A80036;stroke-width:1.0;"/><polygon fill="#000000" points="1035.131,178.6812,1025.6454,179.3696,1027.8616,184.8136,1035.131,178.6812" style="stroke:#000000;stroke-width:1.0;"/><text fill="#000000" font-family="sans-serif" font-size="13" lengthAdjust="spacing" textLength="118" x="1039.5" y="185.0669">has opening hours</text><text fill="#000000" font-family="sans-serif" font-size="13" lengthAdjust="spacing" textLength="8" x="925.1135" y="292.7422">1</text><text fill="#000000" font-family="sans-serif" font-size="13" lengthAdjust="spacing" textLength="8" x="1318.0391" y="130.2641">1</text><!--MD5=[8a869d0627cedf8f4f7ad7f6b9767a72]
link CenterPerformance to Time--><path codeLine="55" d="M1169.42,32.16 C1210.51,30.65 1261.35,33.26 1304,49 C1314.68,52.94 1324.95,59.54 1333.89,66.56 " fill="none" id="CenterPerformance-Time" style="stroke:#A80036;stroke-width:1.0;"/><polygon fill="#000000" points="1208.8941,24.59,1200.6423,19.8616,1199.4389,25.6149,1208.8941,24.59" style="stroke:#000000;stroke-width:1.0;"/><text fill="#000000" font-family="sans-serif" font-size="13" lengthAdjust="spacing" textLength="90" x="1213" y="28.0669">has start time</text><text fill="#000000" font-family="sans-serif" font-size="13" lengthAdjust="spacing" textLength="8" x="1176.9259" y="44.2197">1</text><text fill="#000000" font-family="sans-serif" font-size="13" lengthAdjust="spacing" textLength="8" x="1318.2097" y="73.8848">1</text><!--MD5=[8a869d0627cedf8f4f7ad7f6b9767a72]
link CenterPerformance to Time--><path codeLine="56" d="M1169.27,66.24 C1179.2,69.13 1189.29,71.81 1199,74 C1245.52,84.47 1300.62,90.59 1333.91,93.61 " fill="none" id="CenterPerformance-Time-1" style="stroke:#A80036;stroke-width:1.0;"/><polygon fill="#000000" points="1211.9323,66.3864,1203.4916,62.0039,1202.5277,67.8022,1211.9323,66.3864" style="stroke:#000000;stroke-width:1.0;"/><text fill="#000000" font-family="sans-serif" font-size="13" lengthAdjust="spacing" textLength="84" x="1216" y="70.0669">has end time</text><text fill="#000000" font-family="sans-serif" font-size="13" lengthAdjust="spacing" textLength="8" x="1177.016" y="81.5477">1</text><text fill="#000000" font-family="sans-serif" font-size="13" lengthAdjust="spacing" textLength="8" x="1317.7954" y="88.4504">1</text><!--MD5=[b649bef0048cf03271726558ee7073ed]
link VaccinationCenter to Slot--><path codeLine="58" d="M917.12,309.36 C952.49,310.5 994.58,311.87 1028.49,312.97 " fill="none" id="VaccinationCenter-Slot" style="stroke:#A80036;stroke-width:1.0;"/><polygon fill="#000000" points="956.9974,301.7284,948.0523,298.498,947.8618,304.3727,956.9974,301.7284" style="stroke:#000000;stroke-width:1.0;"/><text fill="#000000" font-family="sans-serif" font-size="13" lengthAdjust="spacing" textLength="23" x="961" y="306.0669">has</text><text fill="#000000" font-family="sans-serif" font-size="13" lengthAdjust="spacing" textLength="8" x="925.1246" y="322.4493">1</text><text fill="#000000" font-family="sans-serif" font-size="13" lengthAdjust="spacing" textLength="8" x="1012.6842" y="325.6996">1</text><!--MD5=[98f7f3dc8d9719d04ad14614c4ea123f]
reverse link Employee to CenterCoordinator--><path codeLine="60" d="M352.76,386.41 C383.03,380.9 417.27,374.68 446.85,369.3 " fill="none" id="Employee-backto-CenterCoordinator" style="stroke:#A80036;stroke-width:1.0;"/><polygon fill="none" points="353.97,393.3,333.05,389.99,351.47,379.53,353.97,393.3" style="stroke:#A80036;stroke-width:1.0;"/><!--MD5=[ffab42d7305e6830f0674a21f59219d7]
link Employee to Role--><path codeLine="61" d="M331.68,453.17 C341.67,460.26 352.29,466.85 363,472 C400.35,489.97 446.99,499.52 479.69,504.39 " fill="none" id="Employee-Role" style="stroke:#A80036;stroke-width:1.0;"/><polygon fill="#000000" points="371.2749,461.9313,378.8615,467.6666,380.7838,462.1119,371.2749,461.9313" style="stroke:#000000;stroke-width:1.0;"/><text fill="#000000" font-family="sans-serif" font-size="13" lengthAdjust="spacing" textLength="23" x="385" y="468.0669">has</text><text fill="#000000" font-family="sans-serif" font-size="13" lengthAdjust="spacing" textLength="7" x="332.2964" y="473.2624">*</text><text fill="#000000" font-family="sans-serif" font-size="13" lengthAdjust="spacing" textLength="8" x="463.9023" y="516.9818">1</text><!--MD5=[09366576ee87d48d594df10cacc83f45]
link Company to Employee--><path codeLine="63" d="M96.09,349 C128.65,358.7 173.55,372.09 209.65,382.86 " fill="none" id="Company-Employee" style="stroke:#A80036;stroke-width:1.0;"/><polygon fill="#000000" points="135.7915,350.9951,127.9633,345.5942,126.2838,351.227,135.7915,350.9951" style="stroke:#000000;stroke-width:1.0;"/><text fill="#000000" font-family="sans-serif" font-size="13" lengthAdjust="spacing" textLength="39" x="140" y="354.0669">knows</text><text fill="#000000" font-family="sans-serif" font-size="13" lengthAdjust="spacing" textLength="8" x="104.1377" y="364.4732">1</text><text fill="#000000" font-family="sans-serif" font-size="13" lengthAdjust="spacing" textLength="7" x="195.0939" y="393.703">*</text><!--MD5=[eebe9b198877275d05dd12630ed9e401]
link Company to VaccinationCenter--><path codeLine="64" d="M96.26,332 C192.01,323.47 427.36,303.72 625,297 C676.08,295.26 688.95,294.52 740,297 C749.64,297.47 759.78,298.19 769.77,299.02 " fill="none" id="Company-VaccinationCenter" style="stroke:#A80036;stroke-width:1.0;"/><polygon fill="#000000" points="372.994,298.3219,363.816,295.8288,364.1035,301.6997,372.994,298.3219" style="stroke:#000000;stroke-width:1.0;"/><text fill="#000000" font-family="sans-serif" font-size="13" lengthAdjust="spacing" textLength="39" x="377" y="303.0669">knows</text><text fill="#000000" font-family="sans-serif" font-size="13" lengthAdjust="spacing" textLength="8" x="104.0311" y="344.6353">1</text><text fill="#000000" font-family="sans-serif" font-size="13" lengthAdjust="spacing" textLength="7" x="754.8057" y="311.043">*</text><!--MD5=[81c76bdfde0f353a6cb885e6d5e733e5]
link Employee to Address--><path codeLine="66" d="M333.02,403.07 C490.94,408.47 912.65,422.9 1048.32,427.54 " fill="none" id="Employee-Address" style="stroke:#A80036;stroke-width:1.0;"/><polygon fill="#000000" points="673.4971,404.7374,664.5578,401.4909,664.3568,407.3653,673.4971,404.7374" style="stroke:#000000;stroke-width:1.0;"/><text fill="#000000" font-family="sans-serif" font-size="13" lengthAdjust="spacing" textLength="23" x="677.5" y="409.0669">has</text><text fill="#000000" font-family="sans-serif" font-size="13" lengthAdjust="spacing" textLength="7" x="340.9443" y="416.3099">*</text><text fill="#000000" font-family="sans-serif" font-size="13" lengthAdjust="spacing" textLength="8" x="1032.423" y="440.6002">1</text><!--MD5=[233a09a91aa8c3856d31bdcfa7c5bcf8]
link VaccinationCenter to Address--><path codeLine="67" d="M917.12,342.94 C959.73,364.03 1012.1,389.95 1048.17,407.8 " fill="none" id="VaccinationCenter-Address" style="stroke:#A80036;stroke-width:1.0;"/><polygon fill="#000000" points="956.4812,353.7843,949.6783,347.1381,947.071,352.4061,956.4812,353.7843" style="stroke:#000000;stroke-width:1.0;"/><text fill="#000000" font-family="sans-serif" font-size="13" lengthAdjust="spacing" textLength="23" x="961" y="356.0669">has</text><text fill="#000000" font-family="sans-serif" font-size="13" lengthAdjust="spacing" textLength="7" x="925.073" y="359.4923">*</text><text fill="#000000" font-family="sans-serif" font-size="13" lengthAdjust="spacing" textLength="8" x="1032.5471" y="417.6766">1</text><!--MD5=[85d8b15e810c9ff729a9ea97d09bcb70]
link VaccinationCenter to CenterPerformance--><path codeLine="69" d="M858.62,254.85 C873.61,208.41 901.53,141.44 947,99 C965.96,81.3 990.95,68.58 1014.78,59.59 " fill="none" id="VaccinationCenter-CenterPerformance" style="stroke:#A80036;stroke-width:1.0;"/><polygon fill="#000000" points="955.1229,62.6616,947.1783,67.8899,951.7687,71.5611,955.1229,62.6616" style="stroke:#000000;stroke-width:1.0;"/><text fill="#000000" font-family="sans-serif" font-size="13" lengthAdjust="spacing" textLength="23" x="961" y="71.0669">has</text><text fill="#000000" font-family="sans-serif" font-size="13" lengthAdjust="spacing" textLength="8" x="852.1143" y="243.9088">1</text><text fill="#000000" font-family="sans-serif" font-size="13" lengthAdjust="spacing" textLength="7" x="1000.0864" y="74.2639">*</text><!--MD5=[d5cf03d886352995267197dc535618ec]
link CenterCoordinator to VaccinationCenter--><path codeLine="71" d="M595.13,344.82 C647.5,336.81 717.72,326.08 769.96,318.09 " fill="none" id="CenterCoordinator-VaccinationCenter" style="stroke:#A80036;stroke-width:1.0;"/><polygon fill="#000000" points="656.9426,312.8107,647.5572,311.2726,648.4456,317.0829,656.9426,312.8107" style="stroke:#000000;stroke-width:1.0;"/><text fill="#000000" font-family="sans-serif" font-size="13" lengthAdjust="spacing" textLength="56" x="661" y="318.0669">analyses</text><text fill="#000000" font-family="sans-serif" font-size="13" lengthAdjust="spacing" textLength="8" x="603.1872" y="356.5142">1</text><text fill="#000000" font-family="sans-serif" font-size="13" lengthAdjust="spacing" textLength="8" x="753.9637" y="332.0796">1</text><!--MD5=[d5cf03d886352995267197dc535618ec]
link CenterCoordinator to VaccinationCenter--><path codeLine="72" d="M595.33,369.7 C638.19,375.08 692.93,377.39 740,365 C750.08,362.34 760.22,358.45 769.98,353.9 " fill="none" id="CenterCoordinator-VaccinationCenter-1" style="stroke:#A80036;stroke-width:1.0;"/><polygon fill="#000000" points="634.9797,356.1159,625.7066,354.0039,626.2362,359.8578,634.9797,356.1159" style="stroke:#000000;stroke-width:1.0;"/><text fill="#000000" font-family="sans-serif" font-size="13" lengthAdjust="spacing" textLength="100" x="639" y="361.0669">is associated to</text><text fill="#000000" font-family="sans-serif" font-size="13" lengthAdjust="spacing" textLength="8" x="603.0406" y="383.8603">1</text><text fill="#000000" font-family="sans-serif" font-size="13" lengthAdjust="spacing" textLength="8" x="753.9858" y="371.5825">1</text><!--MD5=[3a3af478ae2d330cf44937f972dd4cf3]
@startuml
hide methods
left to right direction
skinparam classAttributeIconSize 0

class VaccinationCenter {
  - name
  - emailAddress
  - phoneNumber
  - faxNumber
  - websiteAddress
}

class Time {
  - hours
  - minutes
}

class Slot {
  -duration
  -nOfVaccinesPerSlot
}

class Employee {
  -id
  -name
  -email
  -phone
  -citizenCardNumber
}

class Address {
  - street
  - doorNumber
  - postalCode
  - city
}

class CenterPerformance {
  - day
  - maxSumSublist
}

class Role {
  -designation
}

class Company {}

class CenterCoordinator {}


VaccinationCenter "1" - - "1" Time : has closing hours >
VaccinationCenter "1" - - "1" Time : has opening hours >

CenterPerformance "1" - - "1" Time : has start time >
CenterPerformance "1" - - "1" Time : has end time >

VaccinationCenter "1" - - "1" Slot : has >

Employee <|- - CenterCoordinator
Employee "*" - - "1" Role : has <

Company "1" - - "*" Employee : knows >
Company "1" - - "*" VaccinationCenter : knows >

Employee "*" - - "1" Address : has >
VaccinationCenter "*" - - "1" Address : has >

VaccinationCenter "1" - - "*" CenterPerformance : has >

CenterCoordinator "1" - - "1" VaccinationCenter : analyses >
CenterCoordinator "1" - - "1" VaccinationCenter : is associated to >

@enduml

PlantUML version 1.2022.0(Tue Jan 11 16:16:42 WET 2022)
(GPL source distribution)
Java Runtime: OpenJDK Runtime Environment
JVM: OpenJDK 64-Bit Server VM
Default Encoding: UTF-8
Language: en
Country: US
--></g></svg>