<?xml version="1.0" encoding="UTF-8" standalone="no"?><svg xmlns="http://www.w3.org/2000/svg" xmlns:xlink="http://www.w3.org/1999/xlink" contentScriptType="application/ecmascript" contentStyleType="text/css" height="1182px" preserveAspectRatio="none" style="width:2458px;height:1182px;background:#FFFFFF;" version="1.1" viewBox="0 0 2458 1182" width="2458px" zoomAndPan="magnify"><defs><filter height="300%" id="fbbxpwog6odcq" width="300%" x="-1" y="-1"><feGaussianBlur result="blurOut" stdDeviation="2.0"/><feColorMatrix in="blurOut" result="blurOut2" type="matrix" values="0 0 0 0 0 0 0 0 0 0 0 0 0 0 0 0 0 0 .4 0"/><feOffset dx="4.0" dy="4.0" in="blurOut2" result="blurOut3"/><feBlend in="SourceGraphic" in2="blurOut3" mode="normal"/></filter></defs><g><!--MD5=[02e4b9b7573f1156f41e60aa5b4e25a4]
class Company--><rect codeLine="6" fill="#FEFECE" filter="url(#fbbxpwog6odcq)" height="53.8359" id="Company" style="stroke:#A80036;stroke-width:1.5;" width="85" x="238" y="253.3564"/><ellipse cx="253" cy="269.3564" fill="#ADD1B2" rx="11" ry="11" style="stroke:#A80036;stroke-width:1.0;"/><path d="M255.7656,265.2314 Q255.9219,265.0127 256.1094,264.9033 Q256.2969,264.7939 256.5156,264.7939 Q256.8906,264.7939 257.125,265.0596 Q257.3594,265.3096 257.3594,265.9189 L257.3594,267.3721 Q257.3594,267.9814 257.125,268.2471 Q256.8906,268.5127 256.5156,268.5127 Q256.1719,268.5127 255.9688,268.3096 Q255.7656,268.1221 255.6563,267.6064 Q255.6094,267.2471 255.4219,267.0596 Q255.0938,266.6846 254.4844,266.4658 Q253.875,266.2471 253.25,266.2471 Q252.4844,266.2471 251.8438,266.5752 Q251.2188,266.9033 250.7188,267.6533 Q250.2344,268.4033 250.2344,269.4346 L250.2344,270.5283 Q250.2344,271.7627 251.125,272.5908 Q252.0156,273.4033 253.6094,273.4033 Q254.5469,273.4033 255.2031,273.1533 Q255.5938,272.9971 256.0156,272.5596 Q256.2813,272.2939 256.4219,272.2158 Q256.5781,272.1377 256.7813,272.1377 Q257.1094,272.1377 257.3594,272.4033 Q257.625,272.6533 257.625,272.9971 Q257.625,273.3408 257.2813,273.7471 Q256.7813,274.3252 255.9844,274.6533 Q254.9063,275.1064 253.6094,275.1064 Q252.0938,275.1064 250.8906,274.4814 Q249.9063,273.9814 249.2188,272.9189 Q248.5313,271.8408 248.5313,270.5596 L248.5313,269.4033 Q248.5313,268.0752 249.1406,266.9346 Q249.7656,265.7783 250.8594,265.1689 Q251.9531,264.5439 253.1875,264.5439 Q253.9219,264.5439 254.5625,264.7158 Q255.2188,264.8721 255.7656,265.2314 Z " fill="#000000"/><text fill="#000000" font-family="sans-serif" font-size="12" lengthAdjust="spacing" textLength="53" x="267" y="274.2666">Company</text><line style="stroke:#A80036;stroke-width:1.5;" x1="239" x2="322" y1="285.3564" y2="285.3564"/><text fill="#000000" font-family="sans-serif" font-size="11" lengthAdjust="spacing" textLength="59" x="244" y="300.7754">-designation</text><!--MD5=[56872536300a053cf9fd13853ad6ab1e]
class CommunityMassVaccinationCenter--><rect codeLine="10" fill="#FEFECE" filter="url(#fbbxpwog6odcq)" height="40" id="CommunityMassVaccinationCenter" style="stroke:#A80036;stroke-width:1.5;" width="225" x="1952" y="915.3564"/><ellipse cx="1967" cy="931.3564" fill="#ADD1B2" rx="11" ry="11" style="stroke:#A80036;stroke-width:1.0;"/><path d="M1969.7656,927.2314 Q1969.9219,927.0127 1970.1094,926.9033 Q1970.2969,926.7939 1970.5156,926.7939 Q1970.8906,926.7939 1971.125,927.0596 Q1971.3594,927.3096 1971.3594,927.9189 L1971.3594,929.3721 Q1971.3594,929.9814 1971.125,930.2471 Q1970.8906,930.5127 1970.5156,930.5127 Q1970.1719,930.5127 1969.9688,930.3096 Q1969.7656,930.1221 1969.6563,929.6064 Q1969.6094,929.2471 1969.4219,929.0596 Q1969.0938,928.6846 1968.4844,928.4658 Q1967.875,928.2471 1967.25,928.2471 Q1966.4844,928.2471 1965.8438,928.5752 Q1965.2188,928.9033 1964.7188,929.6533 Q1964.2344,930.4033 1964.2344,931.4346 L1964.2344,932.5283 Q1964.2344,933.7627 1965.125,934.5908 Q1966.0156,935.4033 1967.6094,935.4033 Q1968.5469,935.4033 1969.2031,935.1533 Q1969.5938,934.9971 1970.0156,934.5596 Q1970.2813,934.2939 1970.4219,934.2158 Q1970.5781,934.1377 1970.7813,934.1377 Q1971.1094,934.1377 1971.3594,934.4033 Q1971.625,934.6533 1971.625,934.9971 Q1971.625,935.3408 1971.2813,935.7471 Q1970.7813,936.3252 1969.9844,936.6533 Q1968.9063,937.1064 1967.6094,937.1064 Q1966.0938,937.1064 1964.8906,936.4814 Q1963.9063,935.9814 1963.2188,934.9189 Q1962.5313,933.8408 1962.5313,932.5596 L1962.5313,931.4033 Q1962.5313,930.0752 1963.1406,928.9346 Q1963.7656,927.7783 1964.8594,927.1689 Q1965.9531,926.5439 1967.1875,926.5439 Q1967.9219,926.5439 1968.5625,926.7158 Q1969.2188,926.8721 1969.7656,927.2314 Z " fill="#000000"/><text fill="#000000" font-family="sans-serif" font-size="12" lengthAdjust="spacing" textLength="193" x="1981" y="936.2666">CommunityMassVaccinationCenter</text><line style="stroke:#A80036;stroke-width:1.5;" x1="1953" x2="2176" y1="947.3564" y2="947.3564"/><!--MD5=[1db03e903fe0a044a2ca0dcbef10799a]
class HealthCareCenter--><rect codeLine="12" fill="#FEFECE" filter="url(#fbbxpwog6odcq)" height="40" id="HealthCareCenter" style="stroke:#A80036;stroke-width:1.5;" width="132" x="1998.5" y="1078.3564"/><ellipse cx="2013.5" cy="1094.3564" fill="#ADD1B2" rx="11" ry="11" style="stroke:#A80036;stroke-width:1.0;"/><path d="M2016.2656,1090.2314 Q2016.4219,1090.0127 2016.6094,1089.9033 Q2016.7969,1089.7939 2017.0156,1089.7939 Q2017.3906,1089.7939 2017.625,1090.0596 Q2017.8594,1090.3096 2017.8594,1090.9189 L2017.8594,1092.3721 Q2017.8594,1092.9814 2017.625,1093.2471 Q2017.3906,1093.5127 2017.0156,1093.5127 Q2016.6719,1093.5127 2016.4688,1093.3096 Q2016.2656,1093.1221 2016.1563,1092.6064 Q2016.1094,1092.2471 2015.9219,1092.0596 Q2015.5938,1091.6846 2014.9844,1091.4658 Q2014.375,1091.2471 2013.75,1091.2471 Q2012.9844,1091.2471 2012.3438,1091.5752 Q2011.7188,1091.9033 2011.2188,1092.6533 Q2010.7344,1093.4033 2010.7344,1094.4346 L2010.7344,1095.5283 Q2010.7344,1096.7627 2011.625,1097.5908 Q2012.5156,1098.4033 2014.1094,1098.4033 Q2015.0469,1098.4033 2015.7031,1098.1533 Q2016.0938,1097.9971 2016.5156,1097.5596 Q2016.7813,1097.2939 2016.9219,1097.2158 Q2017.0781,1097.1377 2017.2813,1097.1377 Q2017.6094,1097.1377 2017.8594,1097.4033 Q2018.125,1097.6533 2018.125,1097.9971 Q2018.125,1098.3408 2017.7813,1098.7471 Q2017.2813,1099.3252 2016.4844,1099.6533 Q2015.4063,1100.1064 2014.1094,1100.1064 Q2012.5938,1100.1064 2011.3906,1099.4814 Q2010.4063,1098.9814 2009.7188,1097.9189 Q2009.0313,1096.8408 2009.0313,1095.5596 L2009.0313,1094.4033 Q2009.0313,1093.0752 2009.6406,1091.9346 Q2010.2656,1090.7783 2011.3594,1090.1689 Q2012.4531,1089.5439 2013.6875,1089.5439 Q2014.4219,1089.5439 2015.0625,1089.7158 Q2015.7188,1089.8721 2016.2656,1090.2314 Z " fill="#000000"/><text fill="#000000" font-family="sans-serif" font-size="12" lengthAdjust="spacing" textLength="100" x="2027.5" y="1099.2666">HealthCareCenter</text><line style="stroke:#A80036;stroke-width:1.5;" x1="1999.5" x2="2129.5" y1="1110.3564" y2="1110.3564"/><!--MD5=[de60e6d4f424ae4d0522096f76a59010]
class VaccinationCenter--><rect codeLine="14" fill="#FEFECE" filter="url(#fbbxpwog6odcq)" height="192.1953" id="VaccinationCenter" style="stroke:#A80036;stroke-width:1.5;" width="132" x="1724" y="901.3564"/><ellipse cx="1739" cy="917.3564" fill="#ADD1B2" rx="11" ry="11" style="stroke:#A80036;stroke-width:1.0;"/><path d="M1741.7656,913.2314 Q1741.9219,913.0127 1742.1094,912.9033 Q1742.2969,912.7939 1742.5156,912.7939 Q1742.8906,912.7939 1743.125,913.0596 Q1743.3594,913.3096 1743.3594,913.9189 L1743.3594,915.3721 Q1743.3594,915.9814 1743.125,916.2471 Q1742.8906,916.5127 1742.5156,916.5127 Q1742.1719,916.5127 1741.9688,916.3096 Q1741.7656,916.1221 1741.6563,915.6064 Q1741.6094,915.2471 1741.4219,915.0596 Q1741.0938,914.6846 1740.4844,914.4658 Q1739.875,914.2471 1739.25,914.2471 Q1738.4844,914.2471 1737.8438,914.5752 Q1737.2188,914.9033 1736.7188,915.6533 Q1736.2344,916.4033 1736.2344,917.4346 L1736.2344,918.5283 Q1736.2344,919.7627 1737.125,920.5908 Q1738.0156,921.4033 1739.6094,921.4033 Q1740.5469,921.4033 1741.2031,921.1533 Q1741.5938,920.9971 1742.0156,920.5596 Q1742.2813,920.2939 1742.4219,920.2158 Q1742.5781,920.1377 1742.7813,920.1377 Q1743.1094,920.1377 1743.3594,920.4033 Q1743.625,920.6533 1743.625,920.9971 Q1743.625,921.3408 1743.2813,921.7471 Q1742.7813,922.3252 1741.9844,922.6533 Q1740.9063,923.1064 1739.6094,923.1064 Q1738.0938,923.1064 1736.8906,922.4814 Q1735.9063,921.9814 1735.2188,920.9189 Q1734.5313,919.8408 1734.5313,918.5596 L1734.5313,917.4033 Q1734.5313,916.0752 1735.1406,914.9346 Q1735.7656,913.7783 1736.8594,913.1689 Q1737.9531,912.5439 1739.1875,912.5439 Q1739.9219,912.5439 1740.5625,912.7158 Q1741.2188,912.8721 1741.7656,913.2314 Z " fill="#000000"/><text fill="#000000" font-family="sans-serif" font-size="12" lengthAdjust="spacing" textLength="100" x="1753" y="922.2666">VaccinationCenter</text><line style="stroke:#A80036;stroke-width:1.5;" x1="1725" x2="1855" y1="933.3564" y2="933.3564"/><text fill="#000000" font-family="sans-serif" font-size="11" lengthAdjust="spacing" textLength="26" x="1730" y="948.7754">name</text><text fill="#000000" font-family="sans-serif" font-size="11" lengthAdjust="spacing" textLength="40" x="1730" y="962.6113">address</text><text fill="#000000" font-family="sans-serif" font-size="11" lengthAdjust="spacing" textLength="66" x="1730" y="976.4473">emailAddress</text><text fill="#000000" font-family="sans-serif" font-size="11" lengthAdjust="spacing" textLength="30" x="1730" y="990.2832">phone</text><text fill="#000000" font-family="sans-serif" font-size="11" lengthAdjust="spacing" textLength="24" x="1730" y="1004.1191">email</text><text fill="#000000" font-family="sans-serif" font-size="11" lengthAdjust="spacing" textLength="16" x="1730" y="1017.9551">fax</text><text fill="#000000" font-family="sans-serif" font-size="11" lengthAdjust="spacing" textLength="39" x="1730" y="1031.791">website</text><text fill="#000000" font-family="sans-serif" font-size="11" lengthAdjust="spacing" textLength="67" x="1730" y="1045.627">openingHours</text><text fill="#000000" font-family="sans-serif" font-size="11" lengthAdjust="spacing" textLength="63" x="1730" y="1059.4629">closingHours</text><text fill="#000000" font-family="sans-serif" font-size="11" lengthAdjust="spacing" textLength="57" x="1730" y="1073.2988">slotDuration</text><text fill="#000000" font-family="sans-serif" font-size="11" lengthAdjust="spacing" textLength="98" x="1730" y="1087.1348">nOfVaccinesPerSlot</text><!--MD5=[19e445fc4d3b48519cbe33da05496394]
class Vaccine--><rect codeLine="28" fill="#FEFECE" filter="url(#fbbxpwog6odcq)" height="40" id="Vaccine" style="stroke:#A80036;stroke-width:1.5;" width="75" x="1752.5" y="165.3564"/><ellipse cx="1767.5" cy="181.3564" fill="#ADD1B2" rx="11" ry="11" style="stroke:#A80036;stroke-width:1.0;"/><path d="M1770.2656,177.2314 Q1770.4219,177.0127 1770.6094,176.9033 Q1770.7969,176.7939 1771.0156,176.7939 Q1771.3906,176.7939 1771.625,177.0596 Q1771.8594,177.3096 1771.8594,177.9189 L1771.8594,179.3721 Q1771.8594,179.9814 1771.625,180.2471 Q1771.3906,180.5127 1771.0156,180.5127 Q1770.6719,180.5127 1770.4688,180.3096 Q1770.2656,180.1221 1770.1563,179.6064 Q1770.1094,179.2471 1769.9219,179.0596 Q1769.5938,178.6846 1768.9844,178.4658 Q1768.375,178.2471 1767.75,178.2471 Q1766.9844,178.2471 1766.3438,178.5752 Q1765.7188,178.9033 1765.2188,179.6533 Q1764.7344,180.4033 1764.7344,181.4346 L1764.7344,182.5283 Q1764.7344,183.7627 1765.625,184.5908 Q1766.5156,185.4033 1768.1094,185.4033 Q1769.0469,185.4033 1769.7031,185.1533 Q1770.0938,184.9971 1770.5156,184.5596 Q1770.7813,184.2939 1770.9219,184.2158 Q1771.0781,184.1377 1771.2813,184.1377 Q1771.6094,184.1377 1771.8594,184.4033 Q1772.125,184.6533 1772.125,184.9971 Q1772.125,185.3408 1771.7813,185.7471 Q1771.2813,186.3252 1770.4844,186.6533 Q1769.4063,187.1064 1768.1094,187.1064 Q1766.5938,187.1064 1765.3906,186.4814 Q1764.4063,185.9814 1763.7188,184.9189 Q1763.0313,183.8408 1763.0313,182.5596 L1763.0313,181.4033 Q1763.0313,180.0752 1763.6406,178.9346 Q1764.2656,177.7783 1765.3594,177.1689 Q1766.4531,176.5439 1767.6875,176.5439 Q1768.4219,176.5439 1769.0625,176.7158 Q1769.7188,176.8721 1770.2656,177.2314 Z " fill="#000000"/><text fill="#000000" font-family="sans-serif" font-size="12" lengthAdjust="spacing" textLength="43" x="1781.5" y="186.2666">Vaccine</text><line style="stroke:#A80036;stroke-width:1.5;" x1="1753.5" x2="1826.5" y1="197.3564" y2="197.3564"/><!--MD5=[0e501da62322464167c8ec4d233a6b7e]
class VaccineType--><rect codeLine="30" fill="#FEFECE" filter="url(#fbbxpwog6odcq)" height="81.5078" id="VaccineType" style="stroke:#A80036;stroke-width:1.5;" width="101" x="2014" y="33.3564"/><ellipse cx="2029" cy="49.3564" fill="#ADD1B2" rx="11" ry="11" style="stroke:#A80036;stroke-width:1.0;"/><path d="M2031.7656,45.2314 Q2031.9219,45.0127 2032.1094,44.9033 Q2032.2969,44.7939 2032.5156,44.7939 Q2032.8906,44.7939 2033.125,45.0596 Q2033.3594,45.3096 2033.3594,45.9189 L2033.3594,47.3721 Q2033.3594,47.9814 2033.125,48.2471 Q2032.8906,48.5127 2032.5156,48.5127 Q2032.1719,48.5127 2031.9688,48.3096 Q2031.7656,48.1221 2031.6563,47.6064 Q2031.6094,47.2471 2031.4219,47.0596 Q2031.0938,46.6846 2030.4844,46.4658 Q2029.875,46.2471 2029.25,46.2471 Q2028.4844,46.2471 2027.8438,46.5752 Q2027.2188,46.9033 2026.7188,47.6533 Q2026.2344,48.4033 2026.2344,49.4346 L2026.2344,50.5283 Q2026.2344,51.7627 2027.125,52.5908 Q2028.0156,53.4033 2029.6094,53.4033 Q2030.5469,53.4033 2031.2031,53.1533 Q2031.5938,52.9971 2032.0156,52.5596 Q2032.2813,52.2939 2032.4219,52.2158 Q2032.5781,52.1377 2032.7813,52.1377 Q2033.1094,52.1377 2033.3594,52.4033 Q2033.625,52.6533 2033.625,52.9971 Q2033.625,53.3408 2033.2813,53.7471 Q2032.7813,54.3252 2031.9844,54.6533 Q2030.9063,55.1064 2029.6094,55.1064 Q2028.0938,55.1064 2026.8906,54.4814 Q2025.9063,53.9814 2025.2188,52.9189 Q2024.5313,51.8408 2024.5313,50.5596 L2024.5313,49.4033 Q2024.5313,48.0752 2025.1406,46.9346 Q2025.7656,45.7783 2026.8594,45.1689 Q2027.9531,44.5439 2029.1875,44.5439 Q2029.9219,44.5439 2030.5625,44.7158 Q2031.2188,44.8721 2031.7656,45.2314 Z " fill="#000000"/><text fill="#000000" font-family="sans-serif" font-size="12" lengthAdjust="spacing" textLength="69" x="2043" y="54.2666">VaccineType</text><line style="stroke:#A80036;stroke-width:1.5;" x1="2015" x2="2114" y1="65.3564" y2="65.3564"/><text fill="#000000" font-family="sans-serif" font-size="11" lengthAdjust="spacing" textLength="8" x="2020" y="80.7754">id</text><text fill="#000000" font-family="sans-serif" font-size="11" lengthAdjust="spacing" textLength="55" x="2020" y="94.6113">designation</text><text fill="#000000" font-family="sans-serif" font-size="11" lengthAdjust="spacing" textLength="30" x="2020" y="108.4473">whoid</text><!--MD5=[72be06cc7ae02ccc98efe28a50e62246]
class SNSUser--><rect codeLine="36" fill="#FEFECE" filter="url(#fbbxpwog6odcq)" height="150.6875" id="SNSUser" style="stroke:#A80036;stroke-width:1.5;" width="84" x="980" y="323.8564"/><ellipse cx="995" cy="339.8564" fill="#ADD1B2" rx="11" ry="11" style="stroke:#A80036;stroke-width:1.0;"/><path d="M997.7656,335.7314 Q997.9219,335.5127 998.1094,335.4033 Q998.2969,335.2939 998.5156,335.2939 Q998.8906,335.2939 999.125,335.5596 Q999.3594,335.8096 999.3594,336.4189 L999.3594,337.8721 Q999.3594,338.4814 999.125,338.7471 Q998.8906,339.0127 998.5156,339.0127 Q998.1719,339.0127 997.9688,338.8096 Q997.7656,338.6221 997.6563,338.1064 Q997.6094,337.7471 997.4219,337.5596 Q997.0938,337.1846 996.4844,336.9658 Q995.875,336.7471 995.25,336.7471 Q994.4844,336.7471 993.8438,337.0752 Q993.2188,337.4033 992.7188,338.1533 Q992.2344,338.9033 992.2344,339.9346 L992.2344,341.0283 Q992.2344,342.2627 993.125,343.0908 Q994.0156,343.9033 995.6094,343.9033 Q996.5469,343.9033 997.2031,343.6533 Q997.5938,343.4971 998.0156,343.0596 Q998.2813,342.7939 998.4219,342.7158 Q998.5781,342.6377 998.7813,342.6377 Q999.1094,342.6377 999.3594,342.9033 Q999.625,343.1533 999.625,343.4971 Q999.625,343.8408 999.2813,344.2471 Q998.7813,344.8252 997.9844,345.1533 Q996.9063,345.6064 995.6094,345.6064 Q994.0938,345.6064 992.8906,344.9814 Q991.9063,344.4814 991.2188,343.4189 Q990.5313,342.3408 990.5313,341.0596 L990.5313,339.9033 Q990.5313,338.5752 991.1406,337.4346 Q991.7656,336.2783 992.8594,335.6689 Q993.9531,335.0439 995.1875,335.0439 Q995.9219,335.0439 996.5625,335.2158 Q997.2188,335.3721 997.7656,335.7314 Z " fill="#000000"/><text fill="#000000" font-family="sans-serif" font-size="12" lengthAdjust="spacing" textLength="52" x="1009" y="344.7666">SNSUser</text><line style="stroke:#A80036;stroke-width:1.5;" x1="981" x2="1063" y1="355.8564" y2="355.8564"/><text fill="#000000" font-family="sans-serif" font-size="11" lengthAdjust="spacing" textLength="58" x="986" y="371.2754">-citizenCard</text><text fill="#000000" font-family="sans-serif" font-size="11" lengthAdjust="spacing" textLength="59" x="986" y="385.1113">-snsNumber</text><text fill="#000000" font-family="sans-serif" font-size="11" lengthAdjust="spacing" textLength="30" x="986" y="398.9473">-name</text><text fill="#000000" font-family="sans-serif" font-size="11" lengthAdjust="spacing" textLength="44" x="986" y="412.7832">-birthDay</text><text fill="#000000" font-family="sans-serif" font-size="11" lengthAdjust="spacing" textLength="38" x="986" y="426.6191">-gender</text><text fill="#000000" font-family="sans-serif" font-size="11" lengthAdjust="spacing" textLength="71" x="986" y="440.4551">-phoneNumber</text><text fill="#000000" font-family="sans-serif" font-size="11" lengthAdjust="spacing" textLength="28" x="986" y="454.291">-email</text><text fill="#000000" font-family="sans-serif" font-size="11" lengthAdjust="spacing" textLength="44" x="986" y="468.127">-address</text><!--MD5=[3fd616f346a44cd59a91eb10b19e157c]
class User--><rect codeLine="47" fill="#FEFECE" filter="url(#fbbxpwog6odcq)" height="95.3438" id="User" style="stroke:#A80036;stroke-width:1.5;" width="59" x="1237.5" y="240.8564"/><ellipse cx="1252.5" cy="256.8564" fill="#ADD1B2" rx="11" ry="11" style="stroke:#A80036;stroke-width:1.0;"/><path d="M1255.2656,252.7314 Q1255.4219,252.5127 1255.6094,252.4033 Q1255.7969,252.2939 1256.0156,252.2939 Q1256.3906,252.2939 1256.625,252.5596 Q1256.8594,252.8096 1256.8594,253.4189 L1256.8594,254.8721 Q1256.8594,255.4814 1256.625,255.7471 Q1256.3906,256.0127 1256.0156,256.0127 Q1255.6719,256.0127 1255.4688,255.8096 Q1255.2656,255.6221 1255.1563,255.1064 Q1255.1094,254.7471 1254.9219,254.5596 Q1254.5938,254.1846 1253.9844,253.9658 Q1253.375,253.7471 1252.75,253.7471 Q1251.9844,253.7471 1251.3438,254.0752 Q1250.7188,254.4033 1250.2188,255.1533 Q1249.7344,255.9033 1249.7344,256.9346 L1249.7344,258.0283 Q1249.7344,259.2627 1250.625,260.0908 Q1251.5156,260.9033 1253.1094,260.9033 Q1254.0469,260.9033 1254.7031,260.6533 Q1255.0938,260.4971 1255.5156,260.0596 Q1255.7813,259.7939 1255.9219,259.7158 Q1256.0781,259.6377 1256.2813,259.6377 Q1256.6094,259.6377 1256.8594,259.9033 Q1257.125,260.1533 1257.125,260.4971 Q1257.125,260.8408 1256.7813,261.2471 Q1256.2813,261.8252 1255.4844,262.1533 Q1254.4063,262.6064 1253.1094,262.6064 Q1251.5938,262.6064 1250.3906,261.9814 Q1249.4063,261.4814 1248.7188,260.4189 Q1248.0313,259.3408 1248.0313,258.0596 L1248.0313,256.9033 Q1248.0313,255.5752 1248.6406,254.4346 Q1249.2656,253.2783 1250.3594,252.6689 Q1251.4531,252.0439 1252.6875,252.0439 Q1253.4219,252.0439 1254.0625,252.2158 Q1254.7188,252.3721 1255.2656,252.7314 Z " fill="#000000"/><text fill="#000000" font-family="sans-serif" font-size="12" lengthAdjust="spacing" textLength="27" x="1266.5" y="261.7666">User</text><line style="stroke:#A80036;stroke-width:1.5;" x1="1238.5" x2="1295.5" y1="272.8564" y2="272.8564"/><text fill="#000000" font-family="sans-serif" font-size="11" lengthAdjust="spacing" textLength="30" x="1243.5" y="288.2754">-name</text><text fill="#000000" font-family="sans-serif" font-size="11" lengthAdjust="spacing" textLength="28" x="1243.5" y="302.1113">-email</text><text fill="#000000" font-family="sans-serif" font-size="11" lengthAdjust="spacing" textLength="26" x="1243.5" y="315.9473">-pwd</text><text fill="#000000" font-family="sans-serif" font-size="11" lengthAdjust="spacing" textLength="22" x="1243.5" y="329.7832">-role</text><!--MD5=[2bca2830cfb79d02238429900cdb12af]
class HealthInformation--><rect codeLine="54" fill="#FEFECE" filter="url(#fbbxpwog6odcq)" height="40" id="HealthInformation" style="stroke:#A80036;stroke-width:1.5;" width="130" x="1202" y="601.3564"/><ellipse cx="1217" cy="617.3564" fill="#ADD1B2" rx="11" ry="11" style="stroke:#A80036;stroke-width:1.0;"/><path d="M1219.7656,613.2314 Q1219.9219,613.0127 1220.1094,612.9033 Q1220.2969,612.7939 1220.5156,612.7939 Q1220.8906,612.7939 1221.125,613.0596 Q1221.3594,613.3096 1221.3594,613.9189 L1221.3594,615.3721 Q1221.3594,615.9814 1221.125,616.2471 Q1220.8906,616.5127 1220.5156,616.5127 Q1220.1719,616.5127 1219.9688,616.3096 Q1219.7656,616.1221 1219.6563,615.6064 Q1219.6094,615.2471 1219.4219,615.0596 Q1219.0938,614.6846 1218.4844,614.4658 Q1217.875,614.2471 1217.25,614.2471 Q1216.4844,614.2471 1215.8438,614.5752 Q1215.2188,614.9033 1214.7188,615.6533 Q1214.2344,616.4033 1214.2344,617.4346 L1214.2344,618.5283 Q1214.2344,619.7627 1215.125,620.5908 Q1216.0156,621.4033 1217.6094,621.4033 Q1218.5469,621.4033 1219.2031,621.1533 Q1219.5938,620.9971 1220.0156,620.5596 Q1220.2813,620.2939 1220.4219,620.2158 Q1220.5781,620.1377 1220.7813,620.1377 Q1221.1094,620.1377 1221.3594,620.4033 Q1221.625,620.6533 1221.625,620.9971 Q1221.625,621.3408 1221.2813,621.7471 Q1220.7813,622.3252 1219.9844,622.6533 Q1218.9063,623.1064 1217.6094,623.1064 Q1216.0938,623.1064 1214.8906,622.4814 Q1213.9063,621.9814 1213.2188,620.9189 Q1212.5313,619.8408 1212.5313,618.5596 L1212.5313,617.4033 Q1212.5313,616.0752 1213.1406,614.9346 Q1213.7656,613.7783 1214.8594,613.1689 Q1215.9531,612.5439 1217.1875,612.5439 Q1217.9219,612.5439 1218.5625,612.7158 Q1219.2188,612.8721 1219.7656,613.2314 Z " fill="#000000"/><text fill="#000000" font-family="sans-serif" font-size="12" lengthAdjust="spacing" textLength="98" x="1231" y="622.2666">HealthInformation</text><line style="stroke:#A80036;stroke-width:1.5;" x1="1203" x2="1331" y1="633.3564" y2="633.3564"/><!--MD5=[da547346deef918ea16944ba046651ef]
class Administrator--><rect codeLine="56" fill="#FEFECE" filter="url(#fbbxpwog6odcq)" height="40" id="Administrator" style="stroke:#A80036;stroke-width:1.5;" width="105" x="7" y="199.3564"/><ellipse cx="22" cy="215.3564" fill="#ADD1B2" rx="11" ry="11" style="stroke:#A80036;stroke-width:1.0;"/><path d="M24.7656,211.2314 Q24.9219,211.0127 25.1094,210.9033 Q25.2969,210.7939 25.5156,210.7939 Q25.8906,210.7939 26.125,211.0596 Q26.3594,211.3096 26.3594,211.9189 L26.3594,213.3721 Q26.3594,213.9814 26.125,214.2471 Q25.8906,214.5127 25.5156,214.5127 Q25.1719,214.5127 24.9688,214.3096 Q24.7656,214.1221 24.6563,213.6064 Q24.6094,213.2471 24.4219,213.0596 Q24.0938,212.6846 23.4844,212.4658 Q22.875,212.2471 22.25,212.2471 Q21.4844,212.2471 20.8438,212.5752 Q20.2188,212.9033 19.7188,213.6533 Q19.2344,214.4033 19.2344,215.4346 L19.2344,216.5283 Q19.2344,217.7627 20.125,218.5908 Q21.0156,219.4033 22.6094,219.4033 Q23.5469,219.4033 24.2031,219.1533 Q24.5938,218.9971 25.0156,218.5596 Q25.2813,218.2939 25.4219,218.2158 Q25.5781,218.1377 25.7813,218.1377 Q26.1094,218.1377 26.3594,218.4033 Q26.625,218.6533 26.625,218.9971 Q26.625,219.3408 26.2813,219.7471 Q25.7813,220.3252 24.9844,220.6533 Q23.9063,221.1064 22.6094,221.1064 Q21.0938,221.1064 19.8906,220.4814 Q18.9063,219.9814 18.2188,218.9189 Q17.5313,217.8408 17.5313,216.5596 L17.5313,215.4033 Q17.5313,214.0752 18.1406,212.9346 Q18.7656,211.7783 19.8594,211.1689 Q20.9531,210.5439 22.1875,210.5439 Q22.9219,210.5439 23.5625,210.7158 Q24.2188,210.8721 24.7656,211.2314 Z " fill="#000000"/><text fill="#000000" font-family="sans-serif" font-size="12" lengthAdjust="spacing" textLength="73" x="36" y="220.2666">Administrator</text><line style="stroke:#A80036;stroke-width:1.5;" x1="8" x2="111" y1="231.3564" y2="231.3564"/><!--MD5=[7421f545a0d8420c5bec41e74b387d9c]
class Employee--><rect codeLine="58" fill="#FEFECE" filter="url(#fbbxpwog6odcq)" height="40" id="Employee" style="stroke:#A80036;stroke-width:1.5;" width="87" x="237" y="590.3564"/><ellipse cx="252" cy="606.3564" fill="#ADD1B2" rx="11" ry="11" style="stroke:#A80036;stroke-width:1.0;"/><path d="M254.7656,602.2314 Q254.9219,602.0127 255.1094,601.9033 Q255.2969,601.7939 255.5156,601.7939 Q255.8906,601.7939 256.125,602.0596 Q256.3594,602.3096 256.3594,602.9189 L256.3594,604.3721 Q256.3594,604.9814 256.125,605.2471 Q255.8906,605.5127 255.5156,605.5127 Q255.1719,605.5127 254.9688,605.3096 Q254.7656,605.1221 254.6563,604.6064 Q254.6094,604.2471 254.4219,604.0596 Q254.0938,603.6846 253.4844,603.4658 Q252.875,603.2471 252.25,603.2471 Q251.4844,603.2471 250.8438,603.5752 Q250.2188,603.9033 249.7188,604.6533 Q249.2344,605.4033 249.2344,606.4346 L249.2344,607.5283 Q249.2344,608.7627 250.125,609.5908 Q251.0156,610.4033 252.6094,610.4033 Q253.5469,610.4033 254.2031,610.1533 Q254.5938,609.9971 255.0156,609.5596 Q255.2813,609.2939 255.4219,609.2158 Q255.5781,609.1377 255.7813,609.1377 Q256.1094,609.1377 256.3594,609.4033 Q256.625,609.6533 256.625,609.9971 Q256.625,610.3408 256.2813,610.7471 Q255.7813,611.3252 254.9844,611.6533 Q253.9063,612.1064 252.6094,612.1064 Q251.0938,612.1064 249.8906,611.4814 Q248.9063,610.9814 248.2188,609.9189 Q247.5313,608.8408 247.5313,607.5596 L247.5313,606.4033 Q247.5313,605.0752 248.1406,603.9346 Q248.7656,602.7783 249.8594,602.1689 Q250.9531,601.5439 252.1875,601.5439 Q252.9219,601.5439 253.5625,601.7158 Q254.2188,601.8721 254.7656,602.2314 Z " fill="#000000"/><text fill="#000000" font-family="sans-serif" font-size="12" lengthAdjust="spacing" textLength="55" x="266" y="611.2666">Employee</text><line style="stroke:#A80036;stroke-width:1.5;" x1="238" x2="323" y1="622.3564" y2="622.3564"/><!--MD5=[a059576e163b46f56762f12600c49258]
class Nurse--><rect codeLine="60" fill="#FEFECE" filter="url(#fbbxpwog6odcq)" height="40" id="Nurse" style="stroke:#A80036;stroke-width:1.5;" width="66" x="989" y="619.3564"/><ellipse cx="1004" cy="635.3564" fill="#ADD1B2" rx="11" ry="11" style="stroke:#A80036;stroke-width:1.0;"/><path d="M1006.7656,631.2314 Q1006.9219,631.0127 1007.1094,630.9033 Q1007.2969,630.7939 1007.5156,630.7939 Q1007.8906,630.7939 1008.125,631.0596 Q1008.3594,631.3096 1008.3594,631.9189 L1008.3594,633.3721 Q1008.3594,633.9814 1008.125,634.2471 Q1007.8906,634.5127 1007.5156,634.5127 Q1007.1719,634.5127 1006.9688,634.3096 Q1006.7656,634.1221 1006.6563,633.6064 Q1006.6094,633.2471 1006.4219,633.0596 Q1006.0938,632.6846 1005.4844,632.4658 Q1004.875,632.2471 1004.25,632.2471 Q1003.4844,632.2471 1002.8438,632.5752 Q1002.2188,632.9033 1001.7188,633.6533 Q1001.2344,634.4033 1001.2344,635.4346 L1001.2344,636.5283 Q1001.2344,637.7627 1002.125,638.5908 Q1003.0156,639.4033 1004.6094,639.4033 Q1005.5469,639.4033 1006.2031,639.1533 Q1006.5938,638.9971 1007.0156,638.5596 Q1007.2813,638.2939 1007.4219,638.2158 Q1007.5781,638.1377 1007.7813,638.1377 Q1008.1094,638.1377 1008.3594,638.4033 Q1008.625,638.6533 1008.625,638.9971 Q1008.625,639.3408 1008.2813,639.7471 Q1007.7813,640.3252 1006.9844,640.6533 Q1005.9063,641.1064 1004.6094,641.1064 Q1003.0938,641.1064 1001.8906,640.4814 Q1000.9063,639.9814 1000.2188,638.9189 Q999.5313,637.8408 999.5313,636.5596 L999.5313,635.4033 Q999.5313,634.0752 1000.1406,632.9346 Q1000.7656,631.7783 1001.8594,631.1689 Q1002.9531,630.5439 1004.1875,630.5439 Q1004.9219,630.5439 1005.5625,630.7158 Q1006.2188,630.8721 1006.7656,631.2314 Z " fill="#000000"/><text fill="#000000" font-family="sans-serif" font-size="12" lengthAdjust="spacing" textLength="34" x="1018" y="640.2666">Nurse</text><line style="stroke:#A80036;stroke-width:1.5;" x1="990" x2="1054" y1="651.3564" y2="651.3564"/><!--MD5=[03960189e81aa2c066c762ffabbee709]
class Receptionist--><rect codeLine="62" fill="#FEFECE" filter="url(#fbbxpwog6odcq)" height="40" id="Receptionist" style="stroke:#A80036;stroke-width:1.5;" width="101" x="436" y="458.3564"/><ellipse cx="451" cy="474.3564" fill="#ADD1B2" rx="11" ry="11" style="stroke:#A80036;stroke-width:1.0;"/><path d="M453.7656,470.2314 Q453.9219,470.0127 454.1094,469.9033 Q454.2969,469.7939 454.5156,469.7939 Q454.8906,469.7939 455.125,470.0596 Q455.3594,470.3096 455.3594,470.9189 L455.3594,472.3721 Q455.3594,472.9814 455.125,473.2471 Q454.8906,473.5127 454.5156,473.5127 Q454.1719,473.5127 453.9688,473.3096 Q453.7656,473.1221 453.6563,472.6064 Q453.6094,472.2471 453.4219,472.0596 Q453.0938,471.6846 452.4844,471.4658 Q451.875,471.2471 451.25,471.2471 Q450.4844,471.2471 449.8438,471.5752 Q449.2188,471.9033 448.7188,472.6533 Q448.2344,473.4033 448.2344,474.4346 L448.2344,475.5283 Q448.2344,476.7627 449.125,477.5908 Q450.0156,478.4033 451.6094,478.4033 Q452.5469,478.4033 453.2031,478.1533 Q453.5938,477.9971 454.0156,477.5596 Q454.2813,477.2939 454.4219,477.2158 Q454.5781,477.1377 454.7813,477.1377 Q455.1094,477.1377 455.3594,477.4033 Q455.625,477.6533 455.625,477.9971 Q455.625,478.3408 455.2813,478.7471 Q454.7813,479.3252 453.9844,479.6533 Q452.9063,480.1064 451.6094,480.1064 Q450.0938,480.1064 448.8906,479.4814 Q447.9063,478.9814 447.2188,477.9189 Q446.5313,476.8408 446.5313,475.5596 L446.5313,474.4033 Q446.5313,473.0752 447.1406,471.9346 Q447.7656,470.7783 448.8594,470.1689 Q449.9531,469.5439 451.1875,469.5439 Q451.9219,469.5439 452.5625,469.7158 Q453.2188,469.8721 453.7656,470.2314 Z " fill="#000000"/><text fill="#000000" font-family="sans-serif" font-size="12" lengthAdjust="spacing" textLength="69" x="465" y="479.2666">Receptionist</text><line style="stroke:#A80036;stroke-width:1.5;" x1="437" x2="536" y1="490.3564" y2="490.3564"/><!--MD5=[2d935fd2dd068a13da1ae531f9857c4f]
class CenterCoordinator--><rect codeLine="64" fill="#FEFECE" filter="url(#fbbxpwog6odcq)" height="40" id="CenterCoordinator" style="stroke:#A80036;stroke-width:1.5;" width="134" x="1997.5" y="840.3564"/><ellipse cx="2012.5" cy="856.3564" fill="#ADD1B2" rx="11" ry="11" style="stroke:#A80036;stroke-width:1.0;"/><path d="M2015.2656,852.2314 Q2015.4219,852.0127 2015.6094,851.9033 Q2015.7969,851.7939 2016.0156,851.7939 Q2016.3906,851.7939 2016.625,852.0596 Q2016.8594,852.3096 2016.8594,852.9189 L2016.8594,854.3721 Q2016.8594,854.9814 2016.625,855.2471 Q2016.3906,855.5127 2016.0156,855.5127 Q2015.6719,855.5127 2015.4688,855.3096 Q2015.2656,855.1221 2015.1563,854.6064 Q2015.1094,854.2471 2014.9219,854.0596 Q2014.5938,853.6846 2013.9844,853.4658 Q2013.375,853.2471 2012.75,853.2471 Q2011.9844,853.2471 2011.3438,853.5752 Q2010.7188,853.9033 2010.2188,854.6533 Q2009.7344,855.4033 2009.7344,856.4346 L2009.7344,857.5283 Q2009.7344,858.7627 2010.625,859.5908 Q2011.5156,860.4033 2013.1094,860.4033 Q2014.0469,860.4033 2014.7031,860.1533 Q2015.0938,859.9971 2015.5156,859.5596 Q2015.7813,859.2939 2015.9219,859.2158 Q2016.0781,859.1377 2016.2813,859.1377 Q2016.6094,859.1377 2016.8594,859.4033 Q2017.125,859.6533 2017.125,859.9971 Q2017.125,860.3408 2016.7813,860.7471 Q2016.2813,861.3252 2015.4844,861.6533 Q2014.4063,862.1064 2013.1094,862.1064 Q2011.5938,862.1064 2010.3906,861.4814 Q2009.4063,860.9814 2008.7188,859.9189 Q2008.0313,858.8408 2008.0313,857.5596 L2008.0313,856.4033 Q2008.0313,855.0752 2008.6406,853.9346 Q2009.2656,852.7783 2010.3594,852.1689 Q2011.4531,851.5439 2012.6875,851.5439 Q2013.4219,851.5439 2014.0625,851.7158 Q2014.7188,851.8721 2015.2656,852.2314 Z " fill="#000000"/><text fill="#000000" font-family="sans-serif" font-size="12" lengthAdjust="spacing" textLength="102" x="2026.5" y="861.2666">CenterCoordinator</text><line style="stroke:#A80036;stroke-width:1.5;" x1="1998.5" x2="2130.5" y1="872.3564" y2="872.3564"/><!--MD5=[c508b5b6bbe276ff5e2700b6641f837f]
class Appointment--><rect codeLine="66" fill="#FEFECE" filter="url(#fbbxpwog6odcq)" height="67.6719" id="Appointment" style="stroke:#A80036;stroke-width:1.5;" width="101" x="1464" y="632.3564"/><ellipse cx="1479" cy="648.3564" fill="#ADD1B2" rx="11" ry="11" style="stroke:#A80036;stroke-width:1.0;"/><path d="M1481.7656,644.2314 Q1481.9219,644.0127 1482.1094,643.9033 Q1482.2969,643.7939 1482.5156,643.7939 Q1482.8906,643.7939 1483.125,644.0596 Q1483.3594,644.3096 1483.3594,644.9189 L1483.3594,646.3721 Q1483.3594,646.9814 1483.125,647.2471 Q1482.8906,647.5127 1482.5156,647.5127 Q1482.1719,647.5127 1481.9688,647.3096 Q1481.7656,647.1221 1481.6563,646.6064 Q1481.6094,646.2471 1481.4219,646.0596 Q1481.0938,645.6846 1480.4844,645.4658 Q1479.875,645.2471 1479.25,645.2471 Q1478.4844,645.2471 1477.8438,645.5752 Q1477.2188,645.9033 1476.7188,646.6533 Q1476.2344,647.4033 1476.2344,648.4346 L1476.2344,649.5283 Q1476.2344,650.7627 1477.125,651.5908 Q1478.0156,652.4033 1479.6094,652.4033 Q1480.5469,652.4033 1481.2031,652.1533 Q1481.5938,651.9971 1482.0156,651.5596 Q1482.2813,651.2939 1482.4219,651.2158 Q1482.5781,651.1377 1482.7813,651.1377 Q1483.1094,651.1377 1483.3594,651.4033 Q1483.625,651.6533 1483.625,651.9971 Q1483.625,652.3408 1483.2813,652.7471 Q1482.7813,653.3252 1481.9844,653.6533 Q1480.9063,654.1064 1479.6094,654.1064 Q1478.0938,654.1064 1476.8906,653.4814 Q1475.9063,652.9814 1475.2188,651.9189 Q1474.5313,650.8408 1474.5313,649.5596 L1474.5313,648.4033 Q1474.5313,647.0752 1475.1406,645.9346 Q1475.7656,644.7783 1476.8594,644.1689 Q1477.9531,643.5439 1479.1875,643.5439 Q1479.9219,643.5439 1480.5625,643.7158 Q1481.2188,643.8721 1481.7656,644.2314 Z " fill="#000000"/><text fill="#000000" font-family="sans-serif" font-size="12" lengthAdjust="spacing" textLength="69" x="1493" y="653.2666">Appointment</text><line style="stroke:#A80036;stroke-width:1.5;" x1="1465" x2="1564" y1="664.3564" y2="664.3564"/><text fill="#000000" font-family="sans-serif" font-size="11" lengthAdjust="spacing" textLength="21" x="1470" y="679.7754">date</text><text fill="#000000" font-family="sans-serif" font-size="11" lengthAdjust="spacing" textLength="61" x="1470" y="693.6113">doseNumber</text><!--MD5=[27b15205ea271c1a0133fe11fcedb921]
class AdministrationProccess--><rect codeLine="71" fill="#FEFECE" filter="url(#fbbxpwog6odcq)" height="67.6719" id="AdministrationProccess" style="stroke:#A80036;stroke-width:1.5;" width="163" x="1983" y="382.3564"/><ellipse cx="1998" cy="398.3564" fill="#ADD1B2" rx="11" ry="11" style="stroke:#A80036;stroke-width:1.0;"/><path d="M2000.7656,394.2314 Q2000.9219,394.0127 2001.1094,393.9033 Q2001.2969,393.7939 2001.5156,393.7939 Q2001.8906,393.7939 2002.125,394.0596 Q2002.3594,394.3096 2002.3594,394.9189 L2002.3594,396.3721 Q2002.3594,396.9814 2002.125,397.2471 Q2001.8906,397.5127 2001.5156,397.5127 Q2001.1719,397.5127 2000.9688,397.3096 Q2000.7656,397.1221 2000.6563,396.6064 Q2000.6094,396.2471 2000.4219,396.0596 Q2000.0938,395.6846 1999.4844,395.4658 Q1998.875,395.2471 1998.25,395.2471 Q1997.4844,395.2471 1996.8438,395.5752 Q1996.2188,395.9033 1995.7188,396.6533 Q1995.2344,397.4033 1995.2344,398.4346 L1995.2344,399.5283 Q1995.2344,400.7627 1996.125,401.5908 Q1997.0156,402.4033 1998.6094,402.4033 Q1999.5469,402.4033 2000.2031,402.1533 Q2000.5938,401.9971 2001.0156,401.5596 Q2001.2813,401.2939 2001.4219,401.2158 Q2001.5781,401.1377 2001.7813,401.1377 Q2002.1094,401.1377 2002.3594,401.4033 Q2002.625,401.6533 2002.625,401.9971 Q2002.625,402.3408 2002.2813,402.7471 Q2001.7813,403.3252 2000.9844,403.6533 Q1999.9063,404.1064 1998.6094,404.1064 Q1997.0938,404.1064 1995.8906,403.4814 Q1994.9063,402.9814 1994.2188,401.9189 Q1993.5313,400.8408 1993.5313,399.5596 L1993.5313,398.4033 Q1993.5313,397.0752 1994.1406,395.9346 Q1994.7656,394.7783 1995.8594,394.1689 Q1996.9531,393.5439 1998.1875,393.5439 Q1998.9219,393.5439 1999.5625,393.7158 Q2000.2188,393.8721 2000.7656,394.2314 Z " fill="#000000"/><text fill="#000000" font-family="sans-serif" font-size="12" lengthAdjust="spacing" textLength="131" x="2012" y="403.2666">AdministrationProccess</text><line style="stroke:#A80036;stroke-width:1.5;" x1="1984" x2="2145" y1="414.3564" y2="414.3564"/><text fill="#000000" font-family="sans-serif" font-size="11" lengthAdjust="spacing" textLength="48" x="1989" y="429.7754">ageGroup</text><text fill="#000000" font-family="sans-serif" font-size="11" lengthAdjust="spacing" textLength="49" x="1989" y="443.6113">nOfDoses</text><!--MD5=[3d99830c51f2312653ffa5f597e45238]
class AGES--><rect codeLine="76" fill="#FEFECE" filter="url(#fbbxpwog6odcq)" height="40" id="AGES" style="stroke:#A80036;stroke-width:1.5;" width="64" x="2346" y="1053.3564"/><ellipse cx="2361" cy="1069.3564" fill="#ADD1B2" rx="11" ry="11" style="stroke:#A80036;stroke-width:1.0;"/><path d="M2363.7656,1065.2314 Q2363.9219,1065.0127 2364.1094,1064.9033 Q2364.2969,1064.7939 2364.5156,1064.7939 Q2364.8906,1064.7939 2365.125,1065.0596 Q2365.3594,1065.3096 2365.3594,1065.9189 L2365.3594,1067.3721 Q2365.3594,1067.9814 2365.125,1068.2471 Q2364.8906,1068.5127 2364.5156,1068.5127 Q2364.1719,1068.5127 2363.9688,1068.3096 Q2363.7656,1068.1221 2363.6563,1067.6064 Q2363.6094,1067.2471 2363.4219,1067.0596 Q2363.0938,1066.6846 2362.4844,1066.4658 Q2361.875,1066.2471 2361.25,1066.2471 Q2360.4844,1066.2471 2359.8438,1066.5752 Q2359.2188,1066.9033 2358.7188,1067.6533 Q2358.2344,1068.4033 2358.2344,1069.4346 L2358.2344,1070.5283 Q2358.2344,1071.7627 2359.125,1072.5908 Q2360.0156,1073.4033 2361.6094,1073.4033 Q2362.5469,1073.4033 2363.2031,1073.1533 Q2363.5938,1072.9971 2364.0156,1072.5596 Q2364.2813,1072.2939 2364.4219,1072.2158 Q2364.5781,1072.1377 2364.7813,1072.1377 Q2365.1094,1072.1377 2365.3594,1072.4033 Q2365.625,1072.6533 2365.625,1072.9971 Q2365.625,1073.3408 2365.2813,1073.7471 Q2364.7813,1074.3252 2363.9844,1074.6533 Q2362.9063,1075.1064 2361.6094,1075.1064 Q2360.0938,1075.1064 2358.8906,1074.4814 Q2357.9063,1073.9814 2357.2188,1072.9189 Q2356.5313,1071.8408 2356.5313,1070.5596 L2356.5313,1069.4033 Q2356.5313,1068.0752 2357.1406,1066.9346 Q2357.7656,1065.7783 2358.8594,1065.1689 Q2359.9531,1064.5439 2361.1875,1064.5439 Q2361.9219,1064.5439 2362.5625,1064.7158 Q2363.2188,1064.8721 2363.7656,1065.2314 Z " fill="#000000"/><text fill="#000000" font-family="sans-serif" font-size="12" lengthAdjust="spacing" textLength="32" x="2375" y="1074.2666">AGES</text><line style="stroke:#A80036;stroke-width:1.5;" x1="2347" x2="2409" y1="1085.3564" y2="1085.3564"/><!--MD5=[f44bde12c85835f4e3e4c64f18a8c09c]
class ARS--><rect codeLine="78" fill="#FEFECE" filter="url(#fbbxpwog6odcq)" height="40" id="ARS" style="stroke:#A80036;stroke-width:1.5;" width="56" x="2350" y="1128.3564"/><ellipse cx="2365" cy="1144.3564" fill="#ADD1B2" rx="11" ry="11" style="stroke:#A80036;stroke-width:1.0;"/><path d="M2367.7656,1140.2314 Q2367.9219,1140.0127 2368.1094,1139.9033 Q2368.2969,1139.7939 2368.5156,1139.7939 Q2368.8906,1139.7939 2369.125,1140.0596 Q2369.3594,1140.3096 2369.3594,1140.9189 L2369.3594,1142.3721 Q2369.3594,1142.9814 2369.125,1143.2471 Q2368.8906,1143.5127 2368.5156,1143.5127 Q2368.1719,1143.5127 2367.9688,1143.3096 Q2367.7656,1143.1221 2367.6563,1142.6064 Q2367.6094,1142.2471 2367.4219,1142.0596 Q2367.0938,1141.6846 2366.4844,1141.4658 Q2365.875,1141.2471 2365.25,1141.2471 Q2364.4844,1141.2471 2363.8438,1141.5752 Q2363.2188,1141.9033 2362.7188,1142.6533 Q2362.2344,1143.4033 2362.2344,1144.4346 L2362.2344,1145.5283 Q2362.2344,1146.7627 2363.125,1147.5908 Q2364.0156,1148.4033 2365.6094,1148.4033 Q2366.5469,1148.4033 2367.2031,1148.1533 Q2367.5938,1147.9971 2368.0156,1147.5596 Q2368.2813,1147.2939 2368.4219,1147.2158 Q2368.5781,1147.1377 2368.7813,1147.1377 Q2369.1094,1147.1377 2369.3594,1147.4033 Q2369.625,1147.6533 2369.625,1147.9971 Q2369.625,1148.3408 2369.2813,1148.7471 Q2368.7813,1149.3252 2367.9844,1149.6533 Q2366.9063,1150.1064 2365.6094,1150.1064 Q2364.0938,1150.1064 2362.8906,1149.4814 Q2361.9063,1148.9814 2361.2188,1147.9189 Q2360.5313,1146.8408 2360.5313,1145.5596 L2360.5313,1144.4033 Q2360.5313,1143.0752 2361.1406,1141.9346 Q2361.7656,1140.7783 2362.8594,1140.1689 Q2363.9531,1139.5439 2365.1875,1139.5439 Q2365.9219,1139.5439 2366.5625,1139.7158 Q2367.2188,1139.8721 2367.7656,1140.2314 Z " fill="#000000"/><text fill="#000000" font-family="sans-serif" font-size="12" lengthAdjust="spacing" textLength="24" x="2379" y="1149.2666">ARS</text><line style="stroke:#A80036;stroke-width:1.5;" x1="2351" x2="2405" y1="1160.3564" y2="1160.3564"/><!--MD5=[638904f38d44f9678a86fa96a018716c]
class DoseInformation--><rect codeLine="80" fill="#FEFECE" filter="url(#fbbxpwog6odcq)" height="81.5078" id="DoseInformation" style="stroke:#A80036;stroke-width:1.5;" width="124" x="1728" y="375.3564"/><ellipse cx="1743" cy="391.3564" fill="#ADD1B2" rx="11" ry="11" style="stroke:#A80036;stroke-width:1.0;"/><path d="M1745.7656,387.2314 Q1745.9219,387.0127 1746.1094,386.9033 Q1746.2969,386.7939 1746.5156,386.7939 Q1746.8906,386.7939 1747.125,387.0596 Q1747.3594,387.3096 1747.3594,387.9189 L1747.3594,389.3721 Q1747.3594,389.9814 1747.125,390.2471 Q1746.8906,390.5127 1746.5156,390.5127 Q1746.1719,390.5127 1745.9688,390.3096 Q1745.7656,390.1221 1745.6563,389.6064 Q1745.6094,389.2471 1745.4219,389.0596 Q1745.0938,388.6846 1744.4844,388.4658 Q1743.875,388.2471 1743.25,388.2471 Q1742.4844,388.2471 1741.8438,388.5752 Q1741.2188,388.9033 1740.7188,389.6533 Q1740.2344,390.4033 1740.2344,391.4346 L1740.2344,392.5283 Q1740.2344,393.7627 1741.125,394.5908 Q1742.0156,395.4033 1743.6094,395.4033 Q1744.5469,395.4033 1745.2031,395.1533 Q1745.5938,394.9971 1746.0156,394.5596 Q1746.2813,394.2939 1746.4219,394.2158 Q1746.5781,394.1377 1746.7813,394.1377 Q1747.1094,394.1377 1747.3594,394.4033 Q1747.625,394.6533 1747.625,394.9971 Q1747.625,395.3408 1747.2813,395.7471 Q1746.7813,396.3252 1745.9844,396.6533 Q1744.9063,397.1064 1743.6094,397.1064 Q1742.0938,397.1064 1740.8906,396.4814 Q1739.9063,395.9814 1739.2188,394.9189 Q1738.5313,393.8408 1738.5313,392.5596 L1738.5313,391.4033 Q1738.5313,390.0752 1739.1406,388.9346 Q1739.7656,387.7783 1740.8594,387.1689 Q1741.9531,386.5439 1743.1875,386.5439 Q1743.9219,386.5439 1744.5625,386.7158 Q1745.2188,386.8721 1745.7656,387.2314 Z " fill="#000000"/><text fill="#000000" font-family="sans-serif" font-size="12" lengthAdjust="spacing" textLength="92" x="1757" y="396.2666">DoseInformation</text><line style="stroke:#A80036;stroke-width:1.5;" x1="1729" x2="1851" y1="407.3564" y2="407.3564"/><text fill="#000000" font-family="sans-serif" font-size="11" lengthAdjust="spacing" textLength="36" x="1734" y="422.7754">dosage</text><text fill="#000000" font-family="sans-serif" font-size="11" lengthAdjust="spacing" textLength="78" x="1734" y="436.6113">timeToNextDose</text><text fill="#000000" font-family="sans-serif" font-size="11" lengthAdjust="spacing" textLength="61" x="1734" y="450.4473">doseNumber</text><!--MD5=[76b5e19c9337179d2d7ae334371d68c8]
class Notification--><rect fill="#FEFECE" filter="url(#fbbxpwog6odcq)" height="40" id="Notification" style="stroke:#A80036;stroke-width:1.5;" width="93" x="1743.5" y="627.3564"/><ellipse cx="1758.5" cy="643.3564" fill="#ADD1B2" rx="11" ry="11" style="stroke:#A80036;stroke-width:1.0;"/><path d="M1761.2656,639.2314 Q1761.4219,639.0127 1761.6094,638.9033 Q1761.7969,638.7939 1762.0156,638.7939 Q1762.3906,638.7939 1762.625,639.0596 Q1762.8594,639.3096 1762.8594,639.9189 L1762.8594,641.3721 Q1762.8594,641.9814 1762.625,642.2471 Q1762.3906,642.5127 1762.0156,642.5127 Q1761.6719,642.5127 1761.4688,642.3096 Q1761.2656,642.1221 1761.1563,641.6064 Q1761.1094,641.2471 1760.9219,641.0596 Q1760.5938,640.6846 1759.9844,640.4658 Q1759.375,640.2471 1758.75,640.2471 Q1757.9844,640.2471 1757.3438,640.5752 Q1756.7188,640.9033 1756.2188,641.6533 Q1755.7344,642.4033 1755.7344,643.4346 L1755.7344,644.5283 Q1755.7344,645.7627 1756.625,646.5908 Q1757.5156,647.4033 1759.1094,647.4033 Q1760.0469,647.4033 1760.7031,647.1533 Q1761.0938,646.9971 1761.5156,646.5596 Q1761.7813,646.2939 1761.9219,646.2158 Q1762.0781,646.1377 1762.2813,646.1377 Q1762.6094,646.1377 1762.8594,646.4033 Q1763.125,646.6533 1763.125,646.9971 Q1763.125,647.3408 1762.7813,647.7471 Q1762.2813,648.3252 1761.4844,648.6533 Q1760.4063,649.1064 1759.1094,649.1064 Q1757.5938,649.1064 1756.3906,648.4814 Q1755.4063,647.9814 1754.7188,646.9189 Q1754.0313,645.8408 1754.0313,644.5596 L1754.0313,643.4033 Q1754.0313,642.0752 1754.6406,640.9346 Q1755.2656,639.7783 1756.3594,639.1689 Q1757.4531,638.5439 1758.6875,638.5439 Q1759.4219,638.5439 1760.0625,638.7158 Q1760.7188,638.8721 1761.2656,639.2314 Z " fill="#000000"/><text fill="#000000" font-family="sans-serif" font-size="12" lengthAdjust="spacing" textLength="61" x="1772.5" y="648.2666">Notification</text><line style="stroke:#A80036;stroke-width:1.5;" x1="1744.5" x2="1835.5" y1="659.3564" y2="659.3564"/><!--MD5=[a44b39c29d2ca3f53df08ad7d6656013]
class ReadyUsersList--><rect fill="#FEFECE" filter="url(#fbbxpwog6odcq)" height="40" id="ReadyUsersList" style="stroke:#A80036;stroke-width:1.5;" width="121" x="678.5" y="428.3564"/><ellipse cx="693.5" cy="444.3564" fill="#ADD1B2" rx="11" ry="11" style="stroke:#A80036;stroke-width:1.0;"/><path d="M696.2656,440.2314 Q696.4219,440.0127 696.6094,439.9033 Q696.7969,439.7939 697.0156,439.7939 Q697.3906,439.7939 697.625,440.0596 Q697.8594,440.3096 697.8594,440.9189 L697.8594,442.3721 Q697.8594,442.9814 697.625,443.2471 Q697.3906,443.5127 697.0156,443.5127 Q696.6719,443.5127 696.4688,443.3096 Q696.2656,443.1221 696.1563,442.6064 Q696.1094,442.2471 695.9219,442.0596 Q695.5938,441.6846 694.9844,441.4658 Q694.375,441.2471 693.75,441.2471 Q692.9844,441.2471 692.3438,441.5752 Q691.7188,441.9033 691.2188,442.6533 Q690.7344,443.4033 690.7344,444.4346 L690.7344,445.5283 Q690.7344,446.7627 691.625,447.5908 Q692.5156,448.4033 694.1094,448.4033 Q695.0469,448.4033 695.7031,448.1533 Q696.0938,447.9971 696.5156,447.5596 Q696.7813,447.2939 696.9219,447.2158 Q697.0781,447.1377 697.2813,447.1377 Q697.6094,447.1377 697.8594,447.4033 Q698.125,447.6533 698.125,447.9971 Q698.125,448.3408 697.7813,448.7471 Q697.2813,449.3252 696.4844,449.6533 Q695.4063,450.1064 694.1094,450.1064 Q692.5938,450.1064 691.3906,449.4814 Q690.4063,448.9814 689.7188,447.9189 Q689.0313,446.8408 689.0313,445.5596 L689.0313,444.4033 Q689.0313,443.0752 689.6406,441.9346 Q690.2656,440.7783 691.3594,440.1689 Q692.4531,439.5439 693.6875,439.5439 Q694.4219,439.5439 695.0625,439.7158 Q695.7188,439.8721 696.2656,440.2314 Z " fill="#000000"/><text fill="#000000" font-family="sans-serif" font-size="12" lengthAdjust="spacing" textLength="89" x="707.5" y="449.2666">ReadyUsersList</text><line style="stroke:#A80036;stroke-width:1.5;" x1="679.5" x2="798.5" y1="460.3564" y2="460.3564"/><!--MD5=[a2b7282dba5facf6f5bfc9eaf2edf494]
class ArrivedUsersList--><rect fill="#FEFECE" filter="url(#fbbxpwog6odcq)" height="40" id="ArrivedUsersList" style="stroke:#A80036;stroke-width:1.5;" width="123" x="677.5" y="503.3564"/><ellipse cx="692.5" cy="519.3564" fill="#ADD1B2" rx="11" ry="11" style="stroke:#A80036;stroke-width:1.0;"/><path d="M695.2656,515.2314 Q695.4219,515.0127 695.6094,514.9033 Q695.7969,514.7939 696.0156,514.7939 Q696.3906,514.7939 696.625,515.0596 Q696.8594,515.3096 696.8594,515.9189 L696.8594,517.3721 Q696.8594,517.9814 696.625,518.2471 Q696.3906,518.5127 696.0156,518.5127 Q695.6719,518.5127 695.4688,518.3096 Q695.2656,518.1221 695.1563,517.6064 Q695.1094,517.2471 694.9219,517.0596 Q694.5938,516.6846 693.9844,516.4658 Q693.375,516.2471 692.75,516.2471 Q691.9844,516.2471 691.3438,516.5752 Q690.7188,516.9033 690.2188,517.6533 Q689.7344,518.4033 689.7344,519.4346 L689.7344,520.5283 Q689.7344,521.7627 690.625,522.5908 Q691.5156,523.4033 693.1094,523.4033 Q694.0469,523.4033 694.7031,523.1533 Q695.0938,522.9971 695.5156,522.5596 Q695.7813,522.2939 695.9219,522.2158 Q696.0781,522.1377 696.2813,522.1377 Q696.6094,522.1377 696.8594,522.4033 Q697.125,522.6533 697.125,522.9971 Q697.125,523.3408 696.7813,523.7471 Q696.2813,524.3252 695.4844,524.6533 Q694.4063,525.1064 693.1094,525.1064 Q691.5938,525.1064 690.3906,524.4814 Q689.4063,523.9814 688.7188,522.9189 Q688.0313,521.8408 688.0313,520.5596 L688.0313,519.4033 Q688.0313,518.0752 688.6406,516.9346 Q689.2656,515.7783 690.3594,515.1689 Q691.4531,514.5439 692.6875,514.5439 Q693.4219,514.5439 694.0625,514.7158 Q694.7188,514.8721 695.2656,515.2314 Z " fill="#000000"/><text fill="#000000" font-family="sans-serif" font-size="12" lengthAdjust="spacing" textLength="91" x="706.5" y="524.2666">ArrivedUsersList</text><line style="stroke:#A80036;stroke-width:1.5;" x1="678.5" x2="799.5" y1="535.3564" y2="535.3564"/><!--MD5=[38fc592cf59f287db359f48c1753826f]
class RecoveringUsersList--><rect fill="#FEFECE" filter="url(#fbbxpwog6odcq)" height="40" id="RecoveringUsersList" style="stroke:#A80036;stroke-width:1.5;" width="148" x="665" y="587.3564"/><ellipse cx="680" cy="603.3564" fill="#ADD1B2" rx="11" ry="11" style="stroke:#A80036;stroke-width:1.0;"/><path d="M682.7656,599.2314 Q682.9219,599.0127 683.1094,598.9033 Q683.2969,598.7939 683.5156,598.7939 Q683.8906,598.7939 684.125,599.0596 Q684.3594,599.3096 684.3594,599.9189 L684.3594,601.3721 Q684.3594,601.9814 684.125,602.2471 Q683.8906,602.5127 683.5156,602.5127 Q683.1719,602.5127 682.9688,602.3096 Q682.7656,602.1221 682.6563,601.6064 Q682.6094,601.2471 682.4219,601.0596 Q682.0938,600.6846 681.4844,600.4658 Q680.875,600.2471 680.25,600.2471 Q679.4844,600.2471 678.8438,600.5752 Q678.2188,600.9033 677.7188,601.6533 Q677.2344,602.4033 677.2344,603.4346 L677.2344,604.5283 Q677.2344,605.7627 678.125,606.5908 Q679.0156,607.4033 680.6094,607.4033 Q681.5469,607.4033 682.2031,607.1533 Q682.5938,606.9971 683.0156,606.5596 Q683.2813,606.2939 683.4219,606.2158 Q683.5781,606.1377 683.7813,606.1377 Q684.1094,606.1377 684.3594,606.4033 Q684.625,606.6533 684.625,606.9971 Q684.625,607.3408 684.2813,607.7471 Q683.7813,608.3252 682.9844,608.6533 Q681.9063,609.1064 680.6094,609.1064 Q679.0938,609.1064 677.8906,608.4814 Q676.9063,607.9814 676.2188,606.9189 Q675.5313,605.8408 675.5313,604.5596 L675.5313,603.4033 Q675.5313,602.0752 676.1406,600.9346 Q676.7656,599.7783 677.8594,599.1689 Q678.9531,598.5439 680.1875,598.5439 Q680.9219,598.5439 681.5625,598.7158 Q682.2188,598.8721 682.7656,599.2314 Z " fill="#000000"/><text fill="#000000" font-family="sans-serif" font-size="12" lengthAdjust="spacing" textLength="116" x="694" y="608.2666">RecoveringUsersList</text><line style="stroke:#A80036;stroke-width:1.5;" x1="666" x2="812" y1="619.3564" y2="619.3564"/><!--MD5=[f082b347be438956eae752ed2dcedd8d]
class VaccinationCertificate--><rect fill="#FEFECE" filter="url(#fbbxpwog6odcq)" height="40" id="VaccinationCertificate" style="stroke:#A80036;stroke-width:1.5;" width="150" x="1192" y="165.3564"/><ellipse cx="1207" cy="181.3564" fill="#ADD1B2" rx="11" ry="11" style="stroke:#A80036;stroke-width:1.0;"/><path d="M1209.7656,177.2314 Q1209.9219,177.0127 1210.1094,176.9033 Q1210.2969,176.7939 1210.5156,176.7939 Q1210.8906,176.7939 1211.125,177.0596 Q1211.3594,177.3096 1211.3594,177.9189 L1211.3594,179.3721 Q1211.3594,179.9814 1211.125,180.2471 Q1210.8906,180.5127 1210.5156,180.5127 Q1210.1719,180.5127 1209.9688,180.3096 Q1209.7656,180.1221 1209.6563,179.6064 Q1209.6094,179.2471 1209.4219,179.0596 Q1209.0938,178.6846 1208.4844,178.4658 Q1207.875,178.2471 1207.25,178.2471 Q1206.4844,178.2471 1205.8438,178.5752 Q1205.2188,178.9033 1204.7188,179.6533 Q1204.2344,180.4033 1204.2344,181.4346 L1204.2344,182.5283 Q1204.2344,183.7627 1205.125,184.5908 Q1206.0156,185.4033 1207.6094,185.4033 Q1208.5469,185.4033 1209.2031,185.1533 Q1209.5938,184.9971 1210.0156,184.5596 Q1210.2813,184.2939 1210.4219,184.2158 Q1210.5781,184.1377 1210.7813,184.1377 Q1211.1094,184.1377 1211.3594,184.4033 Q1211.625,184.6533 1211.625,184.9971 Q1211.625,185.3408 1211.2813,185.7471 Q1210.7813,186.3252 1209.9844,186.6533 Q1208.9063,187.1064 1207.6094,187.1064 Q1206.0938,187.1064 1204.8906,186.4814 Q1203.9063,185.9814 1203.2188,184.9189 Q1202.5313,183.8408 1202.5313,182.5596 L1202.5313,181.4033 Q1202.5313,180.0752 1203.1406,178.9346 Q1203.7656,177.7783 1204.8594,177.1689 Q1205.9531,176.5439 1207.1875,176.5439 Q1207.9219,176.5439 1208.5625,176.7158 Q1209.2188,176.8721 1209.7656,177.2314 Z " fill="#000000"/><text fill="#000000" font-family="sans-serif" font-size="12" lengthAdjust="spacing" textLength="118" x="1221" y="186.2666">VaccinationCertificate</text><line style="stroke:#A80036;stroke-width:1.5;" x1="1193" x2="1341" y1="197.3564" y2="197.3564"/><!--MD5=[9bf9dadbffb7fbceed2ede59f1107d85]
class AdverseReaction--><rect fill="#FEFECE" filter="url(#fbbxpwog6odcq)" height="40" id="AdverseReaction" style="stroke:#A80036;stroke-width:1.5;" width="125" x="1204.5" y="676.3564"/><ellipse cx="1219.5" cy="692.3564" fill="#ADD1B2" rx="11" ry="11" style="stroke:#A80036;stroke-width:1.0;"/><path d="M1222.2656,688.2314 Q1222.4219,688.0127 1222.6094,687.9033 Q1222.7969,687.7939 1223.0156,687.7939 Q1223.3906,687.7939 1223.625,688.0596 Q1223.8594,688.3096 1223.8594,688.9189 L1223.8594,690.3721 Q1223.8594,690.9814 1223.625,691.2471 Q1223.3906,691.5127 1223.0156,691.5127 Q1222.6719,691.5127 1222.4688,691.3096 Q1222.2656,691.1221 1222.1563,690.6064 Q1222.1094,690.2471 1221.9219,690.0596 Q1221.5938,689.6846 1220.9844,689.4658 Q1220.375,689.2471 1219.75,689.2471 Q1218.9844,689.2471 1218.3438,689.5752 Q1217.7188,689.9033 1217.2188,690.6533 Q1216.7344,691.4033 1216.7344,692.4346 L1216.7344,693.5283 Q1216.7344,694.7627 1217.625,695.5908 Q1218.5156,696.4033 1220.1094,696.4033 Q1221.0469,696.4033 1221.7031,696.1533 Q1222.0938,695.9971 1222.5156,695.5596 Q1222.7813,695.2939 1222.9219,695.2158 Q1223.0781,695.1377 1223.2813,695.1377 Q1223.6094,695.1377 1223.8594,695.4033 Q1224.125,695.6533 1224.125,695.9971 Q1224.125,696.3408 1223.7813,696.7471 Q1223.2813,697.3252 1222.4844,697.6533 Q1221.4063,698.1064 1220.1094,698.1064 Q1218.5938,698.1064 1217.3906,697.4814 Q1216.4063,696.9814 1215.7188,695.9189 Q1215.0313,694.8408 1215.0313,693.5596 L1215.0313,692.4033 Q1215.0313,691.0752 1215.6406,689.9346 Q1216.2656,688.7783 1217.3594,688.1689 Q1218.4531,687.5439 1219.6875,687.5439 Q1220.4219,687.5439 1221.0625,687.7158 Q1221.7188,687.8721 1222.2656,688.2314 Z " fill="#000000"/><text fill="#000000" font-family="sans-serif" font-size="12" lengthAdjust="spacing" textLength="93" x="1233.5" y="697.2666">AdverseReaction</text><line style="stroke:#A80036;stroke-width:1.5;" x1="1205.5" x2="1328.5" y1="708.3564" y2="708.3564"/><!--MD5=[8b63964df8485437d785d39f6a78b8e9]
class VaccinationReport--><rect fill="#FEFECE" filter="url(#fbbxpwog6odcq)" height="40" id="VaccinationReport" style="stroke:#A80036;stroke-width:1.5;" width="132" x="2312" y="898.3564"/><ellipse cx="2327" cy="914.3564" fill="#ADD1B2" rx="11" ry="11" style="stroke:#A80036;stroke-width:1.0;"/><path d="M2329.7656,910.2314 Q2329.9219,910.0127 2330.1094,909.9033 Q2330.2969,909.7939 2330.5156,909.7939 Q2330.8906,909.7939 2331.125,910.0596 Q2331.3594,910.3096 2331.3594,910.9189 L2331.3594,912.3721 Q2331.3594,912.9814 2331.125,913.2471 Q2330.8906,913.5127 2330.5156,913.5127 Q2330.1719,913.5127 2329.9688,913.3096 Q2329.7656,913.1221 2329.6563,912.6064 Q2329.6094,912.2471 2329.4219,912.0596 Q2329.0938,911.6846 2328.4844,911.4658 Q2327.875,911.2471 2327.25,911.2471 Q2326.4844,911.2471 2325.8438,911.5752 Q2325.2188,911.9033 2324.7188,912.6533 Q2324.2344,913.4033 2324.2344,914.4346 L2324.2344,915.5283 Q2324.2344,916.7627 2325.125,917.5908 Q2326.0156,918.4033 2327.6094,918.4033 Q2328.5469,918.4033 2329.2031,918.1533 Q2329.5938,917.9971 2330.0156,917.5596 Q2330.2813,917.2939 2330.4219,917.2158 Q2330.5781,917.1377 2330.7813,917.1377 Q2331.1094,917.1377 2331.3594,917.4033 Q2331.625,917.6533 2331.625,917.9971 Q2331.625,918.3408 2331.2813,918.7471 Q2330.7813,919.3252 2329.9844,919.6533 Q2328.9063,920.1064 2327.6094,920.1064 Q2326.0938,920.1064 2324.8906,919.4814 Q2323.9063,918.9814 2323.2188,917.9189 Q2322.5313,916.8408 2322.5313,915.5596 L2322.5313,914.4033 Q2322.5313,913.0752 2323.1406,911.9346 Q2323.7656,910.7783 2324.8594,910.1689 Q2325.9531,909.5439 2327.1875,909.5439 Q2327.9219,909.5439 2328.5625,909.7158 Q2329.2188,909.8721 2329.7656,910.2314 Z " fill="#000000"/><text fill="#000000" font-family="sans-serif" font-size="12" lengthAdjust="spacing" textLength="100" x="2341" y="919.2666">VaccinationReport</text><line style="stroke:#A80036;stroke-width:1.5;" x1="2313" x2="2443" y1="930.3564" y2="930.3564"/><!--MD5=[ade87be7d0bbac1c6123d2fb440b3468]
class SMS--><rect fill="#FEFECE" filter="url(#fbbxpwog6odcq)" height="40" id="SMS" style="stroke:#A80036;stroke-width:1.5;" width="57" x="2036" y="652.3564"/><ellipse cx="2051" cy="668.3564" fill="#ADD1B2" rx="11" ry="11" style="stroke:#A80036;stroke-width:1.0;"/><path d="M2053.7656,664.2314 Q2053.9219,664.0127 2054.1094,663.9033 Q2054.2969,663.7939 2054.5156,663.7939 Q2054.8906,663.7939 2055.125,664.0596 Q2055.3594,664.3096 2055.3594,664.9189 L2055.3594,666.3721 Q2055.3594,666.9814 2055.125,667.2471 Q2054.8906,667.5127 2054.5156,667.5127 Q2054.1719,667.5127 2053.9688,667.3096 Q2053.7656,667.1221 2053.6563,666.6064 Q2053.6094,666.2471 2053.4219,666.0596 Q2053.0938,665.6846 2052.4844,665.4658 Q2051.875,665.2471 2051.25,665.2471 Q2050.4844,665.2471 2049.8438,665.5752 Q2049.2188,665.9033 2048.7188,666.6533 Q2048.2344,667.4033 2048.2344,668.4346 L2048.2344,669.5283 Q2048.2344,670.7627 2049.125,671.5908 Q2050.0156,672.4033 2051.6094,672.4033 Q2052.5469,672.4033 2053.2031,672.1533 Q2053.5938,671.9971 2054.0156,671.5596 Q2054.2813,671.2939 2054.4219,671.2158 Q2054.5781,671.1377 2054.7813,671.1377 Q2055.1094,671.1377 2055.3594,671.4033 Q2055.625,671.6533 2055.625,671.9971 Q2055.625,672.3408 2055.2813,672.7471 Q2054.7813,673.3252 2053.9844,673.6533 Q2052.9063,674.1064 2051.6094,674.1064 Q2050.0938,674.1064 2048.8906,673.4814 Q2047.9063,672.9814 2047.2188,671.9189 Q2046.5313,670.8408 2046.5313,669.5596 L2046.5313,668.4033 Q2046.5313,667.0752 2047.1406,665.9346 Q2047.7656,664.7783 2048.8594,664.1689 Q2049.9531,663.5439 2051.1875,663.5439 Q2051.9219,663.5439 2052.5625,663.7158 Q2053.2188,663.8721 2053.7656,664.2314 Z " fill="#000000"/><text fill="#000000" font-family="sans-serif" font-size="12" lengthAdjust="spacing" textLength="25" x="2065" y="673.2666">SMS</text><line style="stroke:#A80036;stroke-width:1.5;" x1="2037" x2="2092" y1="684.3564" y2="684.3564"/><!--MD5=[78bec0fde86ad92ec1dc3fb343b83709]
class Email--><rect fill="#FEFECE" filter="url(#fbbxpwog6odcq)" height="40" id="Email" style="stroke:#A80036;stroke-width:1.5;" width="64" x="2032.5" y="577.3564"/><ellipse cx="2047.5" cy="593.3564" fill="#ADD1B2" rx="11" ry="11" style="stroke:#A80036;stroke-width:1.0;"/><path d="M2050.2656,589.2314 Q2050.4219,589.0127 2050.6094,588.9033 Q2050.7969,588.7939 2051.0156,588.7939 Q2051.3906,588.7939 2051.625,589.0596 Q2051.8594,589.3096 2051.8594,589.9189 L2051.8594,591.3721 Q2051.8594,591.9814 2051.625,592.2471 Q2051.3906,592.5127 2051.0156,592.5127 Q2050.6719,592.5127 2050.4688,592.3096 Q2050.2656,592.1221 2050.1563,591.6064 Q2050.1094,591.2471 2049.9219,591.0596 Q2049.5938,590.6846 2048.9844,590.4658 Q2048.375,590.2471 2047.75,590.2471 Q2046.9844,590.2471 2046.3438,590.5752 Q2045.7188,590.9033 2045.2188,591.6533 Q2044.7344,592.4033 2044.7344,593.4346 L2044.7344,594.5283 Q2044.7344,595.7627 2045.625,596.5908 Q2046.5156,597.4033 2048.1094,597.4033 Q2049.0469,597.4033 2049.7031,597.1533 Q2050.0938,596.9971 2050.5156,596.5596 Q2050.7813,596.2939 2050.9219,596.2158 Q2051.0781,596.1377 2051.2813,596.1377 Q2051.6094,596.1377 2051.8594,596.4033 Q2052.125,596.6533 2052.125,596.9971 Q2052.125,597.3408 2051.7813,597.7471 Q2051.2813,598.3252 2050.4844,598.6533 Q2049.4063,599.1064 2048.1094,599.1064 Q2046.5938,599.1064 2045.3906,598.4814 Q2044.4063,597.9814 2043.7188,596.9189 Q2043.0313,595.8408 2043.0313,594.5596 L2043.0313,593.4033 Q2043.0313,592.0752 2043.6406,590.9346 Q2044.2656,589.7783 2045.3594,589.1689 Q2046.4531,588.5439 2047.6875,588.5439 Q2048.4219,588.5439 2049.0625,588.7158 Q2049.7188,588.8721 2050.2656,589.2314 Z " fill="#000000"/><text fill="#000000" font-family="sans-serif" font-size="12" lengthAdjust="spacing" textLength="32" x="2061.5" y="598.2666">Email</text><line style="stroke:#A80036;stroke-width:1.5;" x1="2033.5" x2="2095.5" y1="609.3564" y2="609.3564"/><!--MD5=[f46a2422a8edde391e4600e1c881fdd7]
link DoseInformation to AdministrationProccess--><path codeLine="86" d="M1852.15,416.3564 C1890.76,416.3564 1941.05,416.3564 1982.9,416.3564 " fill="none" id="DoseInformation-AdministrationProccess" style="stroke:#A80036;stroke-width:1.0;"/><polygon fill="#000000" points="1886,407.5322,1895.0451,410.4712,1895.0451,404.5933,1886,407.5322" style="stroke:#000000;stroke-width:1.0;"/><text fill="#000000" font-family="sans-serif" font-size="13" lengthAdjust="spacing" textLength="21" x="1900" y="412.8516">has</text><text fill="#000000" font-family="sans-serif" font-size="13" lengthAdjust="spacing" textLength="7" x="1860.1511" y="430.878">1</text><text fill="#000000" font-family="sans-serif" font-size="13" lengthAdjust="spacing" textLength="7" x="1968.0548" y="430.6204">1</text><!--MD5=[3568623adf67b2630dce9e60c05bd02a]
link Vaccine to VaccineType--><path codeLine="88" d="M1827.75,170.3864 C1875.84,150.7964 1960.28,116.4064 2013.97,94.5264 " fill="none" id="Vaccine-VaccineType" style="stroke:#A80036;stroke-width:1.0;"/><polygon fill="#000000" points="1886.3695,126.4186,1895.8549,125.7279,1893.6374,120.2844,1886.3695,126.4186" style="stroke:#000000;stroke-width:1.0;"/><text fill="#000000" font-family="sans-serif" font-size="13" lengthAdjust="spacing" textLength="21" x="1900" y="129.8516">has</text><text fill="#000000" font-family="sans-serif" font-size="13" lengthAdjust="spacing" textLength="5" x="1835.4227" y="182.5864">*</text><text fill="#000000" font-family="sans-serif" font-size="13" lengthAdjust="spacing" textLength="7" x="1999.0343" y="112.221">1</text><!--MD5=[6716344a46572fc99c27bf4e50ddbd3d]
reverse link Employee to Nurse--><path codeLine="90" d="M344.61,617.5664 C420.53,625.8964 551.89,639.2464 665,645.3564 C744.01,649.6264 763.88,647.6864 843,648.3564 C890.55,648.7564 902.54,651.3564 950,648.3564 C962.77,647.5464 976.76,645.9364 988.92,644.2964 " fill="none" id="Employee-backto-Nurse" style="stroke:#A80036;stroke-width:1.0;"/><polygon fill="none" points="343.38,624.4664,324.27,615.3064,344.92,610.5564,343.38,624.4664" style="stroke:#A80036;stroke-width:1.0;"/><!--MD5=[bfff716514ca687b645fe473c6e098a4]
reverse link Employee to Receptionist--><path codeLine="91" d="M329.36,579.3864 C368.02,554.3764 421.31,519.8964 454.56,498.3764 " fill="none" id="Employee-backto-Receptionist" style="stroke:#A80036;stroke-width:1.0;"/><polygon fill="none" points="333.08,585.3164,312.48,590.3064,325.47,573.5664,333.08,585.3164" style="stroke:#A80036;stroke-width:1.0;"/><!--MD5=[98f7f3dc8d9719d04ad14614c4ea123f]
reverse link Employee to CenterCoordinator--><path codeLine="92" d="M294.61,649.7664 C319.88,717.3864 382.15,848.3564 485.5,848.3564 C485.5,848.3564 485.5,848.3564 1791,848.3564 C1861.56,848.3564 1942.29,852.4264 1997.46,855.8164 " fill="none" id="Employee-backto-CenterCoordinator" style="stroke:#A80036;stroke-width:1.0;"/><polygon fill="none" points="287.92,651.8364,287.82,630.6464,301.11,647.1564,287.92,651.8364" style="stroke:#A80036;stroke-width:1.0;"/><!--MD5=[9c09d1db3efb59cb07492bc4345754ed]
reverse link VaccinationCenter to CommunityMassVaccinationCenter--><path codeLine="94" d="M1875.88,978.0464 C1907.57,970.8364 1943.61,962.6364 1975.58,955.3564 " fill="none" id="VaccinationCenter-backto-CommunityMassVaccinationCenter" style="stroke:#A80036;stroke-width:1.0;"/><polygon fill="none" points="1877.33,984.8964,1856.27,982.5064,1874.22,971.2464,1877.33,984.8964" style="stroke:#A80036;stroke-width:1.0;"/><!--MD5=[4d7f47162e377c4884c583baac9698b3]
reverse link VaccinationCenter to HealthCareCenter--><path codeLine="95" d="M1874.91,1030.1664 C1878.65,1031.5964 1882.36,1032.9964 1886,1034.3564 C1926.18,1049.4264 1971.72,1065.8264 2006.61,1078.2564 " fill="none" id="VaccinationCenter-backto-HealthCareCenter" style="stroke:#A80036;stroke-width:1.0;"/><polygon fill="none" points="1872.24,1036.6464,1856.07,1022.9564,1877.25,1023.5764,1872.24,1036.6464" style="stroke:#A80036;stroke-width:1.0;"/><!--MD5=[8d58cf1c2119791001cf5144e9295faa]
link VaccinationCenter to CenterCoordinator--><path codeLine="97" d="M1856.11,952.7264 C1884.71,934.3564 1919.19,913.7964 1952,898.3564 C1966.34,891.6064 1982.22,885.4664 1997.39,880.1764 " fill="none" id="VaccinationCenter-CenterCoordinator" style="stroke:#A80036;stroke-width:1.0;"/><polygon fill="#000000" points="1886.5522,907.8163,1895.9409,906.2988,1893.2558,901.07,1886.5522,907.8163" style="stroke:#000000;stroke-width:1.0;"/><text fill="#000000" font-family="sans-serif" font-size="13" lengthAdjust="spacing" textLength="21" x="1900" y="910.8516">has</text><text fill="#000000" font-family="sans-serif" font-size="13" lengthAdjust="spacing" textLength="7" x="1864.1587" y="961.9953">1</text><text fill="#000000" font-family="sans-serif" font-size="13" lengthAdjust="spacing" textLength="7" x="1982.667" y="896.7336">1</text><!--MD5=[85f06911c2f4dd592611bbf87a6e3e69]
link HealthCareCenter to AGES--><path codeLine="99" d="M2130.8,1093.1164 C2196.81,1087.8164 2295.99,1079.8564 2345.92,1075.8464 " fill="none" id="HealthCareCenter-AGES" style="stroke:#A80036;stroke-width:1.0;"/><polygon fill="#000000" points="2216.984,1072.1321,2207.7327,1069.9264,2208.2031,1075.7854,2216.984,1072.1321" style="stroke:#000000;stroke-width:1.0;"/><text fill="#000000" font-family="sans-serif" font-size="13" lengthAdjust="spacing" textLength="60" x="2221" y="1077.8516">belongs to</text><text fill="#000000" font-family="sans-serif" font-size="13" lengthAdjust="spacing" textLength="5" x="2138.325" y="1106.9327">*</text><text fill="#000000" font-family="sans-serif" font-size="13" lengthAdjust="spacing" textLength="7" x="2331.1369" y="1091.6747">1</text><!--MD5=[5b76ad4aea9bdf9551a08667802db279]
link HealthCareCenter to ARS--><path codeLine="100" d="M2130.8,1108.8364 C2198.59,1119.7164 2301.37,1136.2164 2349.86,1143.9964 " fill="none" id="HealthCareCenter-ARS" style="stroke:#A80036;stroke-width:1.0;"/><polygon fill="#000000" points="2216.9368,1113.3246,2208.4718,1108.9894,2207.5403,1114.793,2216.9368,1113.3246" style="stroke:#000000;stroke-width:1.0;"/><text fill="#000000" font-family="sans-serif" font-size="13" lengthAdjust="spacing" textLength="60" x="2221" y="1117.8516">belongs to</text><text fill="#000000" font-family="sans-serif" font-size="13" lengthAdjust="spacing" textLength="5" x="2138.325" y="1124.372">*</text><text fill="#000000" font-family="sans-serif" font-size="13" lengthAdjust="spacing" textLength="7" x="2335.1478" y="1158.4217">1</text><!--MD5=[d139302f00cc62b984b6371d0fde1842]
link Appointment to VaccinationCenter--><path codeLine="102" d="M1543.74,700.5364 C1585.91,751.5764 1666.51,849.1164 1723.8,918.4464 " fill="none" id="Appointment-VaccinationCenter" style="stroke:#A80036;stroke-width:1.0;"/><polygon fill="#000000" points="1619.1849,758.3866,1615.6889,749.5419,1611.1578,753.286,1619.1849,758.3866" style="stroke:#000000;stroke-width:1.0;"/><text fill="#000000" font-family="sans-serif" font-size="13" lengthAdjust="spacing" textLength="52" x="1625" y="759.8516">is held in</text><text fill="#000000" font-family="sans-serif" font-size="13" lengthAdjust="spacing" textLength="5" x="1543.5031" y="721.6054">*</text><text fill="#000000" font-family="sans-serif" font-size="13" lengthAdjust="spacing" textLength="7" x="1709.1766" y="924.1943">1</text><!--MD5=[6bee4428fa029b10117c8017dc752ad2]
link Appointment to Vaccine--><path codeLine="103" d="M1539,631.9964 C1547.42,619.3564 1556.85,604.8364 1565,591.3564 C1652.67,446.3364 1747.62,265.3064 1778.6,205.5264 " fill="none" id="Appointment-Vaccine" style="stroke:#A80036;stroke-width:1.0;"/><polygon fill="#000000" points="1602.4491,358.1731,1595.4564,364.6193,1600.5809,367.4984,1602.4491,358.1731" style="stroke:#000000;stroke-width:1.0;"/><text fill="#000000" font-family="sans-serif" font-size="13" lengthAdjust="spacing" textLength="84" x="1609" y="367.8516">has a specefic</text><text fill="#000000" font-family="sans-serif" font-size="13" lengthAdjust="spacing" textLength="7" x="1536.0031" y="621.4815">1</text><text fill="#000000" font-family="sans-serif" font-size="13" lengthAdjust="spacing" textLength="7" x="1767.4094" y="226.9938">1</text><!--MD5=[2b5b74edf452990c5a9179627c3aa149]
link Appointment to Notification--><path codeLine="104" d="M1565.03,662.9164 C1615.83,659.3864 1694.19,653.9464 1743.47,650.5164 " fill="none" id="Appointment-Notification" style="stroke:#A80036;stroke-width:1.0;"/><polygon fill="#000000" points="1625.488,644.1856,1616.2609,641.8808,1616.6684,647.7445,1625.488,644.1856" style="stroke:#000000;stroke-width:1.0;"/><text fill="#000000" font-family="sans-serif" font-size="13" lengthAdjust="spacing" textLength="43" x="1629.5" y="649.8516">triggers</text><text fill="#000000" font-family="sans-serif" font-size="13" lengthAdjust="spacing" textLength="7" x="1572.9657" y="677.1312">1</text><text fill="#000000" font-family="sans-serif" font-size="13" lengthAdjust="spacing" textLength="7" x="1728.4965" y="665.8182">1</text><!--MD5=[154022eaa73d4e22b64241df49b8ea99]
link Receptionist to ReadyUsersList--><path codeLine="106" d="M537.29,472.3964 C577.81,467.5364 635.13,460.6764 678.15,455.5264 " fill="none" id="Receptionist-ReadyUsersList" style="stroke:#A80036;stroke-width:1.0;"/><polygon fill="#000000" points="576.9645,451.9377,567.6341,450.0952,568.3331,455.9313,576.9645,451.9377" style="stroke:#000000;stroke-width:1.0;"/><text fill="#000000" font-family="sans-serif" font-size="13" lengthAdjust="spacing" textLength="53" x="581" y="457.8516">manages</text><text fill="#000000" font-family="sans-serif" font-size="13" lengthAdjust="spacing" textLength="7" x="544.9245" y="486.2032">1</text><text fill="#000000" font-family="sans-serif" font-size="13" lengthAdjust="spacing" textLength="5" x="665.4292" y="470.8918">*</text><!--MD5=[6629afeb45f7b4337af60fd5beeec001]
link Receptionist to ArrivedUsersList--><path codeLine="107" d="M537.07,488.5764 C546.98,490.5464 557.31,492.5564 567,494.3564 C603.56,501.1364 644.65,508.1264 677.38,513.5364 " fill="none" id="Receptionist-ArrivedUsersList" style="stroke:#A80036;stroke-width:1.0;"/><polygon fill="#000000" points="576.9227,486.4079,568.5322,481.9303,567.5027,487.7173,576.9227,486.4079" style="stroke:#000000;stroke-width:1.0;"/><text fill="#000000" font-family="sans-serif" font-size="13" lengthAdjust="spacing" textLength="53" x="581" y="490.8516">manages</text><text fill="#000000" font-family="sans-serif" font-size="13" lengthAdjust="spacing" textLength="7" x="545.0115" y="504.7734">1</text><text fill="#000000" font-family="sans-serif" font-size="13" lengthAdjust="spacing" textLength="5" x="664.5654" y="526.8312">*</text><!--MD5=[7690a4971bd8576b261a40a0340b8203]
link Receptionist to SNSUser--><path codeLine="108" d="M520.25,458.1864 C534.26,450.2164 551.04,441.5064 567,435.3564 C683.24,390.5364 718.72,395.0464 843,386.3564 C890.44,383.0364 902.64,382.0564 950,386.3564 C959.73,387.2364 970.13,388.7964 979.88,390.5264 " fill="none" id="Receptionist-SNSUser" style="stroke:#A80036;stroke-width:1.0;"/><polygon fill="#000000" points="716.4467,378.804,707.07,377.2137,707.9261,383.0289,716.4467,378.804" style="stroke:#000000;stroke-width:1.0;"/><text fill="#000000" font-family="sans-serif" font-size="13" lengthAdjust="spacing" textLength="50" x="720.5" y="384.8516">registers</text><text fill="#000000" font-family="sans-serif" font-size="13" lengthAdjust="spacing" textLength="7" x="522.1359" y="447.4583">1</text><text fill="#000000" font-family="sans-serif" font-size="13" lengthAdjust="spacing" textLength="5" x="966.9321" y="403.9329">*</text><!--MD5=[7af330a43427c71f376f8bb549e0d424]
link ReadyUsersList to SNSUser--><path codeLine="110" d="M799.59,437.9664 C853.72,428.5264 932.16,414.8464 979.69,406.5564 " fill="none" id="ReadyUsersList-SNSUser" style="stroke:#A80036;stroke-width:1.0;"/><polygon fill="#000000" points="852.9257,402.6732,843.5101,401.332,844.52,407.1224,852.9257,402.6732" style="stroke:#000000;stroke-width:1.0;"/><text fill="#000000" font-family="sans-serif" font-size="13" lengthAdjust="spacing" textLength="92" x="857" y="408.8516">is composed by</text><text fill="#000000" font-family="sans-serif" font-size="13" lengthAdjust="spacing" textLength="7" x="807.401" y="451.1917">1</text><text fill="#000000" font-family="sans-serif" font-size="13" lengthAdjust="spacing" textLength="5" x="966.9883" y="422.7211">*</text><!--MD5=[5f1ef68154a0c61aa74b1c253ff621bc]
link ArrivedUsersList to SNSUser--><path codeLine="111" d="M800.54,506.3364 C852.8,491.1864 923.89,469.3064 950,455.3564 C960.25,449.8864 970.5,442.8964 979.91,435.7264 " fill="none" id="ArrivedUsersList-SNSUser" style="stroke:#A80036;stroke-width:1.0;"/><polygon fill="#000000" points="852.6525,444.7007,843.1595,445.2793,845.3126,450.7486,852.6525,444.7007" style="stroke:#000000;stroke-width:1.0;"/><text fill="#000000" font-family="sans-serif" font-size="13" lengthAdjust="spacing" textLength="92" x="857" y="451.8516">is composed by</text><text fill="#000000" font-family="sans-serif" font-size="13" lengthAdjust="spacing" textLength="7" x="808.4667" y="518.7537">1</text><text fill="#000000" font-family="sans-serif" font-size="13" lengthAdjust="spacing" textLength="5" x="966.9674" y="457.1841">*</text><!--MD5=[b7de56ac0dea6df6c3f252893e8d2aeb]
link RecoveringUsersList to SNSUser--><path codeLine="112" d="M776.07,587.1064 C795.55,576.5964 820.22,563.9864 843,554.3564 C889.22,534.8264 910.94,549.8564 950,518.3564 C964.61,506.5764 976.9,490.9264 986.94,474.8564 " fill="none" id="RecoveringUsersList-SNSUser" style="stroke:#A80036;stroke-width:1.0;"/><polygon fill="#000000" points="852.4136,507.1828,843.0483,508.8387,845.8103,514.0272,852.4136,507.1828" style="stroke:#000000;stroke-width:1.0;"/><text fill="#000000" font-family="sans-serif" font-size="13" lengthAdjust="spacing" textLength="92" x="857" y="514.8516">is composed by</text><text fill="#000000" font-family="sans-serif" font-size="13" lengthAdjust="spacing" textLength="7" x="778.9312" y="576.3548">1</text><text fill="#000000" font-family="sans-serif" font-size="13" lengthAdjust="spacing" textLength="5" x="978.4774" y="496.0798">*</text><!--MD5=[0c84e11d4babe4bedf572314a7d130c3]
link ReadyUsersList to Nurse--><path codeLine="114" d="M791.21,468.4564 C799.3,473.3664 806.97,479.2864 813,486.3564 C840.37,518.4364 813.23,546.4964 843,576.3564 C878.43,611.8864 902.76,595.4364 950,612.3564 C962.79,616.9364 976.78,622.2064 988.93,626.8564 " fill="none" id="ReadyUsersList-Nurse" style="stroke:#A80036;stroke-width:1.0;"/><polygon fill="#000000" points="869.0978,564.4061,874.3194,572.355,877.9945,567.7677,869.0978,564.4061" style="stroke:#000000;stroke-width:1.0;"/><text fill="#000000" font-family="sans-serif" font-size="13" lengthAdjust="spacing" textLength="42" x="882" y="572.8516">checks</text><text fill="#000000" font-family="sans-serif" font-size="13" lengthAdjust="spacing" textLength="5" x="800.1909" y="489.9041">*</text><text fill="#000000" font-family="sans-serif" font-size="13" lengthAdjust="spacing" textLength="7" x="973.9303" y="639.4056">1</text><!--MD5=[03a8bb6be670defb13a9c015fa3f901d]
link RecoveringUsersList to Nurse--><path codeLine="115" d="M807.42,627.3764 C819.19,630.1964 831.38,632.6964 843,634.3564 C893.65,641.6064 953.2,641.5764 988.98,640.6464 " fill="none" id="RecoveringUsersList-Nurse" style="stroke:#A80036;stroke-width:1.0;"/><polygon fill="#000000" points="862.5133,625.1678,871.3201,628.7582,871.7486,622.896,862.5133,625.1678" style="stroke:#000000;stroke-width:1.0;"/><text fill="#000000" font-family="sans-serif" font-size="13" lengthAdjust="spacing" textLength="53" x="876.5" y="630.8516">manages</text><text fill="#000000" font-family="sans-serif" font-size="13" lengthAdjust="spacing" textLength="5" x="820.96" y="648.8016">*</text><text fill="#000000" font-family="sans-serif" font-size="13" lengthAdjust="spacing" textLength="7" x="973.9913" y="656.2122">1</text><!--MD5=[8f7dd94d56b58fc07b233ccd3dd98f8c]
link Administrator to Employee--><path codeLine="117" d="M71.81,239.5564 C109.48,306.7964 230.37,522.6364 268.12,590.0464 " fill="none" id="Administrator-Employee" style="stroke:#A80036;stroke-width:1.0;"/><polygon fill="#000000" points="149.4434,362.8946,147.5874,353.5669,142.4592,356.4392,149.4434,362.8946" style="stroke:#000000;stroke-width:1.0;"/><text fill="#000000" font-family="sans-serif" font-size="13" lengthAdjust="spacing" textLength="50" x="156" y="363.8516">registers</text><text fill="#000000" font-family="sans-serif" font-size="13" lengthAdjust="spacing" textLength="7" x="67.1777" y="260.6776">1</text><text fill="#000000" font-family="sans-serif" font-size="13" lengthAdjust="spacing" textLength="5" x="258.935" y="579.6288">*</text><!--MD5=[d497e8607f1e7b3d570c70d67196006d]
link Administrator to VaccinationCenter--><path codeLine="118" d="M61.97,239.5064 C71.12,357.9464 125.11,958.3564 279.5,958.3564 C279.5,958.3564 279.5,958.3564 1515.5,958.3564 C1587.32,958.3564 1668.71,971.6964 1723.89,982.7764 " fill="none" id="Administrator-VaccinationCenter" style="stroke:#A80036;stroke-width:1.0;"/><polygon fill="#000000" points="873.5643,951.5736,866.5073,945.1979,864.1075,950.5636,873.5643,951.5736" style="stroke:#000000;stroke-width:1.0;"/><text fill="#000000" font-family="sans-serif" font-size="13" lengthAdjust="spacing" textLength="50" x="878" y="954.8516">registers</text><text fill="#000000" font-family="sans-serif" font-size="13" lengthAdjust="spacing" textLength="7" x="54.6803" y="260.9682">1</text><text fill="#000000" font-family="sans-serif" font-size="13" lengthAdjust="spacing" textLength="5" x="1710.957" y="995.5198">*</text><!--MD5=[d0b477519989ed3601cd00d052224350]
link Administrator to VaccineType--><path codeLine="119" d="M70.69,199.2264 C97.48,149.3964 175.14,24.3564 279.5,24.3564 C279.5,24.3564 279.5,24.3564 1791,24.3564 C1869.88,24.3564 1959.53,44.8764 2013.78,59.6264 " fill="none" id="Administrator-VaccineType" style="stroke:#A80036;stroke-width:1.0;"/><polygon fill="#000000" points="997.9871,15.1739,988.7547,12.8907,989.1759,18.7535,997.9871,15.1739" style="stroke:#000000;stroke-width:1.0;"/><text fill="#000000" font-family="sans-serif" font-size="13" lengthAdjust="spacing" textLength="53" x="1002" y="20.8516">manages</text><text fill="#000000" font-family="sans-serif" font-size="13" lengthAdjust="spacing" textLength="7" x="65.9489" y="188.51">1</text><text fill="#000000" font-family="sans-serif" font-size="13" lengthAdjust="spacing" textLength="5" x="2000.9633" y="72.1951">*</text><!--MD5=[0e439f75a3d966f965fe5f237a1bacbe]
link Administrator to Vaccine--><path codeLine="120" d="M83.63,199.2264 C121.71,168.2364 201.21,112.3564 279.5,112.3564 C279.5,112.3564 279.5,112.3564 1515.5,112.3564 C1602.73,112.3564 1700.48,147.4464 1752.23,168.9764 " fill="none" id="Administrator-Vaccine" style="stroke:#A80036;stroke-width:1.0;"/><polygon fill="#000000" points="872.4992,103.4416,863.4023,100.6671,863.5089,106.544,872.4992,103.4416" style="stroke:#000000;stroke-width:1.0;"/><text fill="#000000" font-family="sans-serif" font-size="13" lengthAdjust="spacing" textLength="53" x="876.5" y="108.8516">manages</text><text fill="#000000" font-family="sans-serif" font-size="13" lengthAdjust="spacing" textLength="7" x="82.6901" y="188.51">1</text><text fill="#000000" font-family="sans-serif" font-size="13" lengthAdjust="spacing" textLength="5" x="1739.5535" y="180.9076">*</text><!--MD5=[ecd3d453b1d839a2865736a7db6ad3ae]
link Vaccine to AdministrationProccess--><path codeLine="122" d="M1814.71,205.4564 C1861.32,244.9664 1965.38,333.1864 2023.06,382.0764 " fill="none" id="Vaccine-AdministrationProccess" style="stroke:#A80036;stroke-width:1.0;"/><polygon fill="#000000" points="1894.814,261.7654,1889.8148,253.6747,1886.014,258.1584,1894.814,261.7654" style="stroke:#000000;stroke-width:1.0;"/><text fill="#000000" font-family="sans-serif" font-size="13" lengthAdjust="spacing" textLength="21" x="1900" y="263.8516">has</text><text fill="#000000" font-family="sans-serif" font-size="13" lengthAdjust="spacing" textLength="7" x="1813.6753" y="226.9041">1</text><text fill="#000000" font-family="sans-serif" font-size="13" lengthAdjust="spacing" textLength="20" x="1993.2543" y="371.5767">1..*</text><!--MD5=[3f8bc51bb69ce45c3e3ea0b764df71f1]
link SNSUser to Appointment--><path codeLine="124" d="M1064.4,421.8864 C1154.24,470.7964 1366.81,586.5064 1463.75,639.2764 " fill="none" id="SNSUser-Appointment" style="stroke:#A80036;stroke-width:1.0;"/><polygon fill="#000000" points="1239.3915,485.9228,1232.8523,479.017,1230.0421,484.1795,1239.3915,485.9228" style="stroke:#000000;stroke-width:1.0;"/><text fill="#000000" font-family="sans-serif" font-size="13" lengthAdjust="spacing" textLength="59" x="1244" y="488.8516">schedules</text><text fill="#000000" font-family="sans-serif" font-size="13" lengthAdjust="spacing" textLength="7" x="1072.0022" y="440.4931">1</text><text fill="#000000" font-family="sans-serif" font-size="13" lengthAdjust="spacing" textLength="5" x="1450.9289" y="650.0191">*</text><!--MD5=[107bf5e015911cb4bbdc32c2d684b6f4]
link SNSUser to HealthInformation--><path codeLine="125" d="M1064.14,468.3764 C1073.18,481.0164 1083.28,493.6064 1094,504.3564 C1134.55,545.0164 1191.08,580.3064 1228.1,601.2064 " fill="none" id="SNSUser-HealthInformation" style="stroke:#A80036;stroke-width:1.0;"/><polygon fill="#000000" points="1118.8851,498.6797,1113.7069,490.7023,1110.0069,495.2695,1118.8851,498.6797" style="stroke:#000000;stroke-width:1.0;"/><text fill="#000000" font-family="sans-serif" font-size="13" lengthAdjust="spacing" textLength="21" x="1124" y="500.8516">has</text><text fill="#000000" font-family="sans-serif" font-size="13" lengthAdjust="spacing" textLength="7" x="1071.9844" y="495.1664">1</text><text fill="#000000" font-family="sans-serif" font-size="13" lengthAdjust="spacing" textLength="7" x="1208.645" y="590.4841">1</text><!--MD5=[1d6d671bbc18d64756cbd8abf269fed7]
link SNSUser to Notification--><path codeLine="126" d="M1064.05,404.2764 C1156.28,416.2464 1385.83,451.3064 1565,522.3564 C1638.28,551.4164 1717.31,600.0464 1759.1,627.2964 " fill="none" id="SNSUser-Notification" style="stroke:#A80036;stroke-width:1.0;"/><polygon fill="#000000" points="1381.7609,455.0599,1374.0463,449.4979,1372.2504,455.0947,1381.7609,455.0599" style="stroke:#000000;stroke-width:1.0;"/><text fill="#000000" font-family="sans-serif" font-size="13" lengthAdjust="spacing" textLength="47" x="1386" y="458.8516">receives</text><text fill="#000000" font-family="sans-serif" font-size="13" lengthAdjust="spacing" textLength="7" x="1071.8789" y="420.0493">1</text><text fill="#000000" font-family="sans-serif" font-size="13" lengthAdjust="spacing" textLength="5" x="1744.2888" y="616.6006">*</text><!--MD5=[4199e571ecf4f955a781f82efeea42b0]
link SNSUser to VaccinationCertificate--><path codeLine="127" d="M1064.15,343.0764 C1073.55,331.2464 1083.79,319.1064 1094,308.3564 C1133.7,266.5464 1144.23,255.6464 1192,223.3564 C1201.57,216.8864 1212.39,210.7464 1222.74,205.3664 " fill="none" id="SNSUser-VaccinationCertificate" style="stroke:#A80036;stroke-width:1.0;"/><polygon fill="#000000" points="1104.2753,233.254,1095.5188,236.9653,1099.3726,241.4035,1104.2753,233.254" style="stroke:#000000;stroke-width:1.0;"/><text fill="#000000" font-family="sans-serif" font-size="13" lengthAdjust="spacing" textLength="50" x="1109.5" y="241.8516">requests</text><text fill="#000000" font-family="sans-serif" font-size="13" lengthAdjust="spacing" textLength="7" x="1071.9961" y="348.3305">1</text><text fill="#000000" font-family="sans-serif" font-size="13" lengthAdjust="spacing" textLength="5" x="1204.5888" y="226.7888">*</text><!--MD5=[f51b69263ffc056cc84c9ec54d5aea1b]
link SNSUser to User--><path codeLine="128" d="M1064.1,378.0064 C1073.85,373.0864 1084.25,367.9464 1094,363.3564 C1143.95,339.8264 1203.16,314.5764 1237.47,300.1964 " fill="none" id="SNSUser-User" style="stroke:#A80036;stroke-width:1.0;"/><polygon fill="#000000" points="1103.5616,323.4849,1094.1062,324.5073,1096.5129,329.8698,1103.5616,323.4849" style="stroke:#000000;stroke-width:1.0;"/><text fill="#000000" font-family="sans-serif" font-size="13" lengthAdjust="spacing" textLength="53" x="1108" y="330.8516">becomes</text><text fill="#000000" font-family="sans-serif" font-size="13" lengthAdjust="spacing" textLength="22" x="1071.8991" y="389.5895">0..1</text><text fill="#000000" font-family="sans-serif" font-size="13" lengthAdjust="spacing" textLength="7" x="1222.4189" y="318.5285">1</text><!--MD5=[bfa4ccf71d3f75f2d3f668097063014a]
link VaccinationCertificate to Vaccine--><path codeLine="131" d="M1342.09,185.3564 C1455.31,185.3564 1667.18,185.3564 1752.25,185.3564 " fill="none" id="VaccinationCertificate-Vaccine" style="stroke:#A80036;stroke-width:1.0;"/><polygon fill="#000000" points="1481.5,176.5322,1472.4549,173.5933,1472.4549,179.4712,1481.5,176.5322" style="stroke:#000000;stroke-width:1.0;"/><text fill="#000000" font-family="sans-serif" font-size="13" lengthAdjust="spacing" textLength="71" x="1485.5" y="181.8516">corresponds</text><text fill="#000000" font-family="sans-serif" font-size="13" lengthAdjust="spacing" textLength="7" x="1350.1946" y="199.6947">1</text><text fill="#000000" font-family="sans-serif" font-size="13" lengthAdjust="spacing" textLength="7" x="1737.3867" y="200.4101">1</text><!--MD5=[d33980608d3d54bd270e2c5f54806427]
link Company to VaccinationCertificate--><path codeLine="133" d="M316.11,253.1664 C355.01,225.4064 421.16,186.3564 485.5,186.3564 C485.5,186.3564 485.5,186.3564 1023,186.3564 C1079.64,186.3564 1143.7,186.0764 1191.82,185.8164 " fill="none" id="Company-VaccinationCertificate" style="stroke:#A80036;stroke-width:1.0;"/><polygon fill="#000000" points="719.9853,177.1488,710.7415,174.9121,711.1922,180.7727,719.9853,177.1488" style="stroke:#000000;stroke-width:1.0;"/><text fill="#000000" font-family="sans-serif" font-size="13" lengthAdjust="spacing" textLength="43" x="724" y="182.8516">emmits</text><text fill="#000000" font-family="sans-serif" font-size="13" lengthAdjust="spacing" textLength="7" x="316.5354" y="242.5835">1</text><text fill="#000000" font-family="sans-serif" font-size="13" lengthAdjust="spacing" textLength="5" x="1178.8093" y="200.2021">*</text><!--MD5=[5448e79142bdfcbfebd9929e0faf45a6]
link Company to Receptionist--><path codeLine="134" d="M309.44,307.4764 C350.9,347.7164 427.8,422.3564 464.7,458.1664 " fill="none" id="Company-Receptionist" style="stroke:#A80036;stroke-width:1.0;"/><polygon fill="#000000" points="362.5879,350.0146,358.1442,341.606,354.0504,345.8239,362.5879,350.0146" style="stroke:#000000;stroke-width:1.0;"/><text fill="#000000" font-family="sans-serif" font-size="13" lengthAdjust="spacing" textLength="37" x="368" y="351.8516">knows</text><text fill="#000000" font-family="sans-serif" font-size="13" lengthAdjust="spacing" textLength="7" x="308.005" y="328.7105">1</text><text fill="#000000" font-family="sans-serif" font-size="13" lengthAdjust="spacing" textLength="5" x="452.5619" y="447.4324">*</text><!--MD5=[d205afa640eb10e9aa5da67d61820494]
link Receptionist to Appointment--><path codeLine="136" d="M502.24,498.5164 C529.77,534.5264 592.82,609.4964 665,645.3564 C936.78,780.3864 1043.91,791.2964 1342,734.3564 C1384.79,726.1864 1430.51,707.5064 1463.98,691.7864 " fill="none" id="Receptionist-Appointment" style="stroke:#A80036;stroke-width:1.0;"/><polygon fill="#000000" points="994.902,752.5173,986.6132,747.8539,985.4552,753.6166,994.902,752.5173" style="stroke:#000000;stroke-width:1.0;"/><text fill="#000000" font-family="sans-serif" font-size="13" lengthAdjust="spacing" textLength="59" x="999" y="756.8516">schedules</text><text fill="#000000" font-family="sans-serif" font-size="13" lengthAdjust="spacing" textLength="18" x="486.1356" y="519.981">0,1</text><text fill="#000000" font-family="sans-serif" font-size="13" lengthAdjust="spacing" textLength="7" x="1449.0458" y="710.2415">1</text><!--MD5=[e061032a880d751bf0fb6ebc2f277ecf]
link Nurse to AdverseReaction--><path codeLine="138" d="M1053.26,659.4564 C1065.43,666.5964 1079.91,673.9464 1094,678.3564 C1129.53,689.4764 1171,694.0464 1204.31,695.8064 " fill="none" id="Nurse-AdverseReaction" style="stroke:#A80036;stroke-width:1.0;"/><polygon fill="#000000" points="1110.3612,670.7021,1102.2548,665.7284,1100.8796,671.4432,1110.3612,670.7021" style="stroke:#000000;stroke-width:1.0;"/><text fill="#000000" font-family="sans-serif" font-size="13" lengthAdjust="spacing" textLength="40" x="1114.5" y="674.8516">reports</text><text fill="#000000" font-family="sans-serif" font-size="13" lengthAdjust="spacing" textLength="7" x="1054.0675" y="680.9041">1</text><text fill="#000000" font-family="sans-serif" font-size="13" lengthAdjust="spacing" textLength="5" x="1191.365" y="710.231">*</text><!--MD5=[bc9b71b63296550b1a6ca7b2e12538be]
link Nurse to HealthInformation--><path codeLine="139" d="M1055.04,645.3864 C1067.19,647.3964 1081.19,649.3664 1094,650.3564 C1124.13,652.6764 1132.06,654.4564 1162,650.3564 C1176.02,648.4364 1190.82,645.1264 1204.71,641.4164 " fill="none" id="Nurse-HealthInformation" style="stroke:#A80036;stroke-width:1.0;"/><polygon fill="#000000" points="1109.4982,641.3996,1100.3784,638.7016,1100.5343,644.5774,1109.4982,641.3996" style="stroke:#000000;stroke-width:1.0;"/><text fill="#000000" font-family="sans-serif" font-size="13" lengthAdjust="spacing" textLength="42" x="1113.5" y="646.8516">checks</text><text fill="#000000" font-family="sans-serif" font-size="13" lengthAdjust="spacing" textLength="7" x="1063.0331" y="661.9891">1</text><text fill="#000000" font-family="sans-serif" font-size="13" lengthAdjust="spacing" textLength="5" x="1188.9792" y="659.5881">*</text><!--MD5=[e38cb46ce4efbc6577476a31ee45e7a4]
link VaccinationCenter to VaccinationReport--><path codeLine="141" d="M1856.19,1002.9064 C1933.47,1007.9764 2065.78,1011.9164 2177,991.3564 C2233.52,980.9064 2295.17,956.2164 2334.86,938.4464 " fill="none" id="VaccinationCenter-VaccinationReport" style="stroke:#A80036;stroke-width:1.0;"/><polygon fill="#000000" points="2056.4553,981.8649,2047.0989,980.1594,2047.8833,985.9847,2056.4553,981.8649" style="stroke:#000000;stroke-width:1.0;"/><text fill="#000000" font-family="sans-serif" font-size="13" lengthAdjust="spacing" textLength="21" x="2060.5" y="987.8516">has</text><text fill="#000000" font-family="sans-serif" font-size="13" lengthAdjust="spacing" textLength="7" x="1863.8123" y="1017.8921">1</text><text fill="#000000" font-family="sans-serif" font-size="13" lengthAdjust="spacing" textLength="7" x="2314.7425" y="959.8913">1</text><!--MD5=[2e0728a8b60edd8e324a8b23b65d54fa]
link CenterCoordinator to VaccinationReport--><path codeLine="142" d="M2131.89,871.9764 C2174.76,879.5664 2231.72,889.7964 2282,899.3564 C2291.67,901.1964 2301.88,903.1864 2311.88,905.1564 " fill="none" id="CenterCoordinator-VaccinationReport" style="stroke:#A80036;stroke-width:1.0;"/><polygon fill="#000000" points="2220.9171,877.4387,2212.5547,872.9087,2211.4891,878.6891,2220.9171,877.4387" style="stroke:#000000;stroke-width:1.0;"/><text fill="#000000" font-family="sans-serif" font-size="13" lengthAdjust="spacing" textLength="52" x="2225" y="881.8516">analyses</text><text fill="#000000" font-family="sans-serif" font-size="13" lengthAdjust="spacing" textLength="7" x="2139.6436" y="887.6367">1</text><text fill="#000000" font-family="sans-serif" font-size="13" lengthAdjust="spacing" textLength="5" x="2298.9458" y="918.0706">*</text><!--MD5=[2e0728a8b60edd8e324a8b23b65d54fa]
link CenterCoordinator to VaccinationReport--><path codeLine="143" d="M2131.72,878.0064 C2147.11,883.4264 2163.07,890.1764 2177,898.3564 C2192.47,907.4364 2190.25,918.9264 2207,925.3564 C2239.96,938.0064 2279.19,937.3164 2311.65,932.9864 " fill="none" id="CenterCoordinator-VaccinationReport-1" style="stroke:#A80036;stroke-width:1.0;"/><polygon fill="#000000" points="2218.2817,917.9934,2210.4903,912.5395,2208.7727,918.1608,2218.2817,917.9934" style="stroke:#000000;stroke-width:1.0;"/><text fill="#000000" font-family="sans-serif" font-size="13" lengthAdjust="spacing" textLength="57" x="2222.5" y="921.8516">generates</text><text fill="#000000" font-family="sans-serif" font-size="13" lengthAdjust="spacing" textLength="7" x="2139.4553" y="897.4738">1</text><text fill="#000000" font-family="sans-serif" font-size="13" lengthAdjust="spacing" textLength="5" x="2299.1195" y="948.9759">*</text><!--MD5=[4d9e124ad0e8d063ab51b47a12cca69b]
link Nurse to AdministrationProccess--><path codeLine="145" d="M1037.75,619.0964 C1050.66,603.0264 1070.93,581.4764 1094,570.3564 C1163.42,536.8964 1188.93,548.3564 1266,548.3564 C1266,548.3564 1266,548.3564 1791,548.3564 C1880.63,548.3564 1971.74,489.8064 2022.61,450.6964 " fill="none" id="Nurse-AdministrationProccess" style="stroke:#A80036;stroke-width:1.0;"/><polygon fill="#000000" points="1495.9285,538.6895,1486.5174,537.3171,1487.5081,543.1109,1495.9285,538.6895" style="stroke:#000000;stroke-width:1.0;"/><text fill="#000000" font-family="sans-serif" font-size="13" lengthAdjust="spacing" textLength="42" x="1500" y="544.8516">checks</text><text fill="#000000" font-family="sans-serif" font-size="13" lengthAdjust="spacing" textLength="7" x="1034.3484" y="608.3418">1</text><text fill="#000000" font-family="sans-serif" font-size="13" lengthAdjust="spacing" textLength="5" x="2009.9805" y="471.5272">*</text><!--MD5=[032e968c32b1cce549d44d91f2c4037c]
reverse link Notification to SMS--><path codeLine="147" d="M1856.9,653.4064 C1914.05,658.6464 1993.95,665.9764 2035.66,669.8064 " fill="none" id="Notification-backto-SMS" style="stroke:#A80036;stroke-width:1.0;"/><polygon fill="none" points="1855.89,660.3364,1836.61,651.5364,1857.17,646.3964,1855.89,660.3364" style="stroke:#A80036;stroke-width:1.0;"/><!--MD5=[a16c58747e320c2e6cb8edbfb09a72d3]
reverse link Notification to Email--><path codeLine="148" d="M1856.38,635.3564 C1912.03,625.1464 1989.52,610.9264 2032.2,603.0964 " fill="none" id="Notification-backto-Email" style="stroke:#A80036;stroke-width:1.0;"/><polygon fill="none" points="1857.55,642.2664,1836.61,638.9864,1855.02,628.4964,1857.55,642.2664" style="stroke:#A80036;stroke-width:1.0;"/><!--MD5=[d970e21aa90f9bbdc74a3a396b95ef7d]
link AdverseReaction to Appointment--><path codeLine="150" d="M1329.63,688.8264 C1371.11,683.7564 1425.08,677.1664 1463.8,672.4264 " fill="none" id="AdverseReaction-Appointment" style="stroke:#A80036;stroke-width:1.0;"/><polygon fill="#000000" points="1385.0369,668.1389,1394.3718,669.9587,1393.6586,664.1242,1385.0369,668.1389" style="stroke:#000000;stroke-width:1.0;"/><text fill="#000000" font-family="sans-serif" font-size="13" lengthAdjust="spacing" textLength="21" x="1399" y="672.8516">has</text><text fill="#000000" font-family="sans-serif" font-size="13" lengthAdjust="spacing" textLength="5" x="1337.5677" y="702.4003">*</text><text fill="#000000" font-family="sans-serif" font-size="13" lengthAdjust="spacing" textLength="7" x="1448.8394" y="688.038">1</text><!--MD5=[ae60f0bde794325d338581ed6d6ecac2]
@startuml Domain Model

hide methods
left to right direction
skinparam classAttributeIconSize 0

class Company {
  - designation
}

class CommunityMassVaccinationCenter {}

class HealthCareCenter {}

class VaccinationCenter {
  name
  address
  emailAddress
  phone
  email
  fax
  website
  openingHours
  closingHours
  slotDuration
  nOfVaccinesPerSlot
}

class Vaccine {}

class VaccineType {
  id
  designation
  whoid
}

class SNSUser {
  - citizenCard
  - snsNumber
  - name
  - birthDay
  - gender
  - phoneNumber
  - email
  - address
}

class User {
  - name
  - email
  - pwd
  - role
}

class HealthInformation {}

class Administrator {}

class Employee {}

class Nurse {}

class Receptionist {}

class CenterCoordinator {}

class Appointment {
  date
  doseNumber
}

class AdministrationProccess {
  ageGroup
  nOfDoses
}

class AGES {}

class ARS {}

class DoseInformation {
  dosage
  timeToNextDose
  doseNumber
}

DoseInformation "1" - - "1" AdministrationProccess : has <

Vaccine "*" - - "1" VaccineType : has <

Employee <|- - Nurse
Employee <|- - Receptionist
Employee <|- - CenterCoordinator

VaccinationCenter <|- - CommunityMassVaccinationCenter
VaccinationCenter <|- - HealthCareCenter

VaccinationCenter "1" - - "1" CenterCoordinator : has < 

HealthCareCenter "*" - - "1" AGES : belongs to > 
HealthCareCenter "*" - - "1" ARS : belongs to > 

Appointment "*" - - "1" VaccinationCenter : is held in >
Appointment "1" - - "1" Vaccine : has a specefic >
Appointment "1" - - "1" Notification : triggers >

Receptionist "1" - - "*" ReadyUsersList : manages >
Receptionist "1" - - "*" ArrivedUsersList : manages >
Receptionist "1" - - "*" SNSUser : registers >

ReadyUsersList "1" - - "*" SNSUser : is composed by >
ArrivedUsersList "1" - - "*" SNSUser : is composed by > 
RecoveringUsersList "1" - - "*" SNSUser : is composed by >

ReadyUsersList "*" - - "1" Nurse : checks <
RecoveringUsersList "*" - - "1" Nurse : manages <

Administrator "1" - - "*" Employee : registers >
Administrator "1" - - "*" VaccinationCenter : registers >
Administrator "1" - - "*" VaccineType : manages >
Administrator "1" - - "*" Vaccine : manages > 

Vaccine "1" - - "1..*" AdministrationProccess : has >

SNSUser "1" - - "*" Appointment : schedules >
SNSUser "1" - - "1" HealthInformation : has >
SNSUser "1" - - "*" Notification : receives >
SNSUser "1" - - "*" VaccinationCertificate : requests >
SNSUser "0..1" - - "1" User : becomes >


VaccinationCertificate "1" - - "1" Vaccine : corresponds >

Company "1" - - "*" VaccinationCertificate : emmits >
Company "1" - - "*" Receptionist : knows >

Receptionist "0,1" - - "1" Appointment : schedules >

Nurse "1" - - "*" AdverseReaction : reports >
Nurse "1" - - "*" HealthInformation : checks >

VaccinationCenter "1" - - "1" VaccinationReport : has >
CenterCoordinator "1" - - "*" VaccinationReport : analyses >
CenterCoordinator "1" - - "*" VaccinationReport : generates >

Nurse "1" - - "*" AdministrationProccess : checks >

Notification <|- - SMS
Notification <|- - Email

AdverseReaction "*" - - "1" Appointment : has <

@enduml

PlantUML version 1.2022.0(Tue Jan 11 16:16:42 WET 2022)
(GPL source distribution)
Java Runtime: Java(TM) SE Runtime Environment
JVM: Java HotSpot(TM) 64-Bit Server VM
Default Encoding: Cp1252
Language: pt
Country: PT
--></g></svg>